<svg class="write-page" color-interpolation="linearRGB" width="982px" height="1584px" xmlns="http://www.w3.org/2000/svg" xmlns:xlink="http://www.w3.org/1999/xlink">
  <g class="write-content write-v3" width="982" height="1584" xruling="30" yruling="30" marginLeft="30" papercolor="#000000" rulecolor="#0D9D00FF">
    <g class="ruleline write-std-ruling write-scale-down" fill="none" stroke="#9D00FF" stroke-opacity="0.051" stroke-width="1" shape-rendering="crispEdges" vector-effect="non-scaling-stroke">
      <rect class="pagerect" fill="#000000" stroke="none" x="0" y="0" width="982" height="1584" />
      <path class="yrule_1" d="M0 30 l982 0" />
      <path d="M0 60 l982 0" />
      <path d="M0 90 l982 0" />
      <path d="M0 120 l982 0" />
      <path d="M0 150 l982 0" />
      <path d="M0 180 l982 0" />
      <path d="M0 210 l982 0" />
      <path d="M0 240 l982 0" />
      <path d="M0 270 l982 0" />
      <path d="M0 300 l982 0" />
      <path d="M0 330 l982 0" />
      <path d="M0 360 l982 0" />
      <path d="M0 390 l982 0" />
      <path d="M0 420 l982 0" />
      <path d="M0 450 l982 0" />
      <path d="M0 480 l982 0" />
      <path d="M0 510 l982 0" />
      <path d="M0 540 l982 0" />
      <path d="M0 570 l982 0" />
      <path d="M0 600 l982 0" />
      <path d="M0 630 l982 0" />
      <path d="M0 660 l982 0" />
      <path d="M0 690 l982 0" />
      <path d="M0 720 l982 0" />
      <path d="M0 750 l982 0" />
      <path d="M0 780 l982 0" />
      <path d="M0 810 l982 0" />
      <path d="M0 840 l982 0" />
      <path d="M0 870 l982 0" />
      <path d="M0 900 l982 0" />
      <path d="M0 930 l982 0" />
      <path d="M0 960 l982 0" />
      <path d="M0 990 l982 0" />
      <path d="M0 1020 l982 0" />
      <path d="M0 1050 l982 0" />
      <path d="M0 1080 l982 0" />
      <path d="M0 1110 l982 0" />
      <path d="M0 1140 l982 0" />
      <path d="M0 1170 l982 0" />
      <path d="M0 1200 l982 0" />
      <path d="M0 1230 l982 0" />
      <path d="M0 1260 l982 0" />
      <path d="M0 1290 l982 0" />
      <path d="M0 1320 l982 0" />
      <path d="M0 1350 l982 0" />
      <path d="M0 1380 l982 0" />
      <path d="M0 1410 l982 0" />
      <path d="M0 1440 l982 0" />
      <path d="M0 1470 l982 0" />
      <path d="M0 1500 l982 0" />
      <path d="M0 1530 l982 0" />
      <path d="M0 1560 l982 0" />
      <path class="xrule_1" d="M30 0 l0 1584" />
      <path d="M60 0 l0 1584" />
      <path d="M90 0 l0 1584" />
      <path d="M120 0 l0 1584" />
      <path d="M150 0 l0 1584" />
      <path d="M180 0 l0 1584" />
      <path d="M210 0 l0 1584" />
      <path d="M240 0 l0 1584" />
      <path d="M270 0 l0 1584" />
      <path d="M300 0 l0 1584" />
      <path d="M330 0 l0 1584" />
      <path d="M360 0 l0 1584" />
      <path d="M390 0 l0 1584" />
      <path d="M420 0 l0 1584" />
      <path d="M450 0 l0 1584" />
      <path d="M480 0 l0 1584" />
      <path d="M510 0 l0 1584" />
      <path d="M540 0 l0 1584" />
      <path d="M570 0 l0 1584" />
      <path d="M600 0 l0 1584" />
      <path d="M630 0 l0 1584" />
      <path d="M660 0 l0 1584" />
      <path d="M690 0 l0 1584" />
      <path d="M720 0 l0 1584" />
      <path d="M750 0 l0 1584" />
      <path d="M780 0 l0 1584" />
      <path d="M810 0 l0 1584" />
      <path d="M840 0 l0 1584" />
      <path d="M870 0 l0 1584" />
      <path d="M900 0 l0 1584" />
      <path d="M930 0 l0 1584" />
      <path d="M960 0 l0 1584" />
      <path class="leftmargin" stroke="#FF0000" d="M30 0 l0 1584" />
    </g>
    <path class="write-flat-pen" fill="#FFFFFF" stroke-width="3.5" __comx="49.042" __comy="49.717" __timestamp="0x177c27226af" d="M47.635 39.37 l0.051 -1.022 0.032 -0.352 0.076 -0.532 0.043 -0.23 0.122 -0.454 0 0.041 0.06 0.016 -0.283 0.237 -0.452 -0.007 -0.226 -0.163 -0.055 0.005 -0.007 0.157 0.012 0.303 0.017 0.389 0.02 0.49 0.018 0.547 0.018 0.606 0.052 0.652 0.026 0.675 0.026 0.789 0.083 0.823 0.039 0.819 0.075 0.842 0.04 0.879 0.154 1.924 0.111 0.984 0.21 2.859 0.044 0.936 0.62 5.558 0.417 0.579 1.002 0.599 1.042 -0.703 0.139 -0.605 -0.095 -0.411 -0.181 -0.372 -0.446 -0.784 -0.251 -0.035 -0.644 0.632 -0.261 0.205 -0.205 0.012 0.027 -0.367 0.938 -0.64 0.909 0.537 0.309 0.409 -0.502 -4.843 -0.059 -0.906 -0.296 -2.95 -0.141 -0.995 -0.214 -1.843 -0.086 -0.904 -0.129 -0.854 -0.1 -0.839 -0.147 -0.808 -0.092 -0.727 -0.107 -0.74 -0.131 -0.644 -0.093 -0.562 -0.104 -0.573 -0.114 -0.534 -0.122 -0.453 -0.143 -0.405 -0.158 -0.321 -0.2 -0.284 -0.371 -0.312 -0.575 -0.019 -0.385 0.308 -0.148 0.482 -0.018 0.134 0.003 0.536 0.009 0.273 0.031 0.567 0.032 0.369 0.051 1.022" />
    <path class="write-flat-pen" fill="#FFFFFF" stroke-width="3.5" __comx="55.53" __comy="49.717" __timestamp="0x177c27227fb" d="M47.601 34.584 l-0.605 0.298 -0.172 0.107 -0.282 0.238 -0.132 0.144 -0.238 0.244 -0.138 0.147 -0.195 0.235 -0.092 0.124 -0.182 0.274 -0.064 0.162 -0.107 0.445 0.053 0.41 0.179 0.44 0.239 0.275 0.264 0.212 0.308 0.162 0.334 0.11 0.415 0.077 0.804 -0.008 0.515 -0.083 0.902 -0.212 0.501 -0.139 1.701 -0.509 0.606 -0.185 2.652 -0.753 0.678 -0.181 5.97 -1.735 0.569 -0.188 0.52 -0.18 0.522 -0.167 0.491 -0.211 0.416 -0.2 0.377 -0.177 0.393 -0.24 0.867 -0.508 -0.014 -0.243 -0.92 -0.404 -0.444 -0.191 -0.48 -0.099 -0.569 -0.056 -0.55 0.006 -0.585 0.017 -0.662 0.099 -0.648 0.134 -5.998 1.696 -0.688 0.198 -2.69 0.842 -0.626 0.219 -1.654 0.576 -0.437 0.149 -0.767 0.244 -0.27 0.076 -0.421 0.076 -0.069 0.02 -0.036 0.02 0.023 0.04 0.037 0.06 0.082 0.12 0.008 0.121 0.001 0.169 -0.061 0.014 -0.035 0.072 0.016 -0.202 0.01 -0.083 0.048 -0.225 0.041 -0.136 0.116 -0.306 0.036 -0.109 0.09 -0.191 0.011 -0.042 0.489 -0.343" />
    <path class="write-flat-pen" fill="#FFFFFF" stroke-width="3.5" __comx="57.643" __comy="49.717" __timestamp="0x177c27229be" d="M51.964 44.696 l-0.773 0.1 -0.182 0.017 -0.163 0.015 -0.22 0.069 -0.283 0.097 -0.14 0.06 -0.127 0.051 -0.138 0.068 -0.135 0.053 -0.133 0.07 -0.189 0.092 -0.162 0.114 -0.201 0.14 -0.102 0.105 -0.257 0.307 -0.169 0.451 -0.028 0.546 0.166 0.474 0.269 0.367 0.336 0.277 0.384 0.186 0.387 0.113 0.477 0.069 0.455 -0.014 0.464 -0.017 0.508 -0.061 1.669 -0.179 0.601 -0.06 6.504 -0.496 0.579 -0.044 0.574 -0.039 0.58 -0.057 0.559 -0.072 0.503 -0.086 0.506 -0.113 0.463 -0.123 0.424 -0.139 0.399 -0.143 0.406 -0.225 0.949 -0.507 -0.003 -0.325 -0.958 -0.49 -0.414 -0.218 -0.414 -0.132 -0.451 -0.12 -0.511 -0.091 -0.538 -0.056 -0.497 -0.034 -0.543 -0.022 -0.553 -0.014 -0.587 -0.01 -0.653 0.012 -6.6 0.465 -0.678 0.077 -1.723 0.243 -0.434 0.079 -0.361 0.046 -0.216 0.041 -0.059 0.023 0.011 0.032 0.125 0.082 0.178 0.162 0.165 0.242 0.117 0.354 -0.035 0.32 -0.113 0.263 -0.091 0.059 -0.052 0.046 0.054 -0.121 0.017 -0.059 0.082 -0.121 0.057 -0.092 0.079 -0.1 0.066 -0.101 0.043 -0.061 0.075 -0.095 0.117 -0.144 0.025 -0.061 0.04 -0.052 0.052 -0.068 0.637 -0.133" />
    <path class="write-flat-pen" fill="#FFFFFF" stroke-width="3.5" __comx="60.04" __comy="49.717" __timestamp="0x177c2722b56" d="M48.869 58.733 l0.582 -0.371 -0.178 0.063 -0.011 0.034 0.01 0.032 0.057 0.037 0.093 0.043 0.131 0.047 0.184 0.051 0.229 0.059 0.296 0.063 0.322 0.064 0.372 0.068 0.842 0.177 0.511 0.089 1.721 0.279 0.676 0.082 2.842 0.219 2.373 -0.018 4.777 -0.827 0.731 -0.151 0.779 -0.119 0.812 -0.193 0.718 -0.148 0.732 -0.218 0.716 -0.206 0.713 -0.208 0.743 -0.203 0.74 -0.309 0.794 -0.304 -0.019 -0.289 -0.827 -0.2 -0.776 -0.211 -0.772 -0.1 -0.757 -0.097 -0.822 -0.066 -0.785 0.012 -0.768 0.022 -0.824 0.098 -0.788 0.057 -0.81 0.124 -4.556 0.733 -2.044 0.025 -2.681 -0.16 -0.583 -0.055 -1.692 -0.197 -0.492 -0.05 -0.896 -0.098 -0.448 -0.017 -0.349 -0.004 -0.32 0.009 -0.272 0.016 -0.225 0.029 -0.173 0.03 -0.156 0.038 -0.121 0.038 -0.11 0.037 -0.107 0.045 -0.238 0.074 -0.862 0.622" />
    <path class="write-flat-pen" fill="#FFFFFF" stroke-width="3.5" __comx="87.529" __comy="49.717" __timestamp="0x177c2722e33" d="M80.814 45.886 l-0.358 -0.474 -0.052 -0.136 -0.028 -0.108 -0.017 -0.087 -0.033 -0.126 -0.012 -0.084 0.002 -0.034 0.002 -0.098 -0.001 -0.12 0.02 0.015 0.046 0.064 0.05 0.025 0.038 0.204 -0.047 0.373 -0.347 0.391 -0.405 0.116 -0.15 0.023 0.07 0.084 0.215 0.168 0.299 0.238 0.357 0.302 0.876 0.773 0.475 0.43 1.007 0.936 0.534 0.51 2.878 2.745 0.594 0.548 2.1 1.926 1.863 1.47 1.41 0.892 2.266 0.886 0.289 0.046 0.341 0.009 0.298 -0.075 0.203 -0.049 0.255 -0.18 0.278 -0.172 0.255 -0.441 0.148 -0.402 -0.082 -0.323 -0.356 -0.927 -1.016 -0.049 -0.444 0.888 -0.092 -0.128 0.098 -0.305 0.091 -0.268 0.206 -0.138 0.048 -0.108 0.134 -0.04 0.067 -0.058 0.049 -0.032 0.066 0 -1.755 -0.754 -1.066 -0.67 -1.665 -1.302 -2.028 -1.842 -0.584 -0.531 -2.923 -2.691 -0.579 -0.514 -1.08 -0.922 -0.533 -0.437 -0.985 -0.767 -0.492 -0.344 -0.477 -0.281 -0.445 -0.207 -0.452 -0.145 -0.51 -0.052 -0.621 0.149 -0.471 0.504 -0.108 0.575 0.044 0.257 0.084 0.199 0.077 0.14 0.04 0.058 0.123 0.113 0.124 0.116 0.054 0.045 0.088 0.072 0.126 0.089 0.091 0.069 0.136 0.095 0.134 0.084 0.407 0.433" />
    <path class="write-flat-pen" fill="#FFFFFF" stroke-width="3.5" __comx="85.987" __comy="49.717" __timestamp="0x177c2722f1e" d="M82.679 57.843 l-0.6 -0.75 0.156 0.26 0.068 0.253 0.005 0.106 0.076 -0.1 0.122 -0.178 0.206 -0.303 0.251 -0.365 0.652 -0.952 0.384 -0.565 1.717 -2.712 0.475 -0.754 3.763 -6.464 0.317 -0.602 0.307 -0.624 0.258 -0.569 0.225 -0.528 0.183 -0.484 0.16 -0.438 0.141 -0.432 0.1 -0.386 0.096 -0.375 0.088 -0.333 0.046 -0.327 0.144 -0.984 -0.129 -0.089 -0.869 0.484 -0.301 0.176 -0.284 0.243 -0.316 0.281 -0.306 0.308 -0.307 0.35 -0.313 0.392 -0.31 0.443 -0.316 0.467 -0.33 0.515 -0.352 0.563 -0.343 0.551 -3.775 6.396 -0.451 0.732 -1.639 2.734 -0.347 0.566 -0.607 1.029 -0.243 0.454 -0.208 0.436 -0.138 0.359 -0.095 0.334 -0.078 0.411 0.087 0.559 0.204 0.359 0.831 0.922" />
    <path class="write-flat-pen" fill="#FFFFFF" stroke-width="3.5" __comx="79.61" __comy="49.717" __timestamp="0x177c27230f6" d="M44.41 70.481 l0.427 -0.394 0.034 0.029 0.174 -0.022 0.301 -0.045 0.376 -0.033 0.549 -0.078 0.653 -0.083 0.753 -0.055 0.922 -0.124 0.958 -0.121 2.171 -0.195 1.241 -0.123 14.418 -1.217 1.765 -0.122 14.005 -0.721 10.173 -0.314 11.496 -0.02 4.711 -0.182 1.067 -0.134 0.95 -0.109 0.935 -0.187 0.868 -0.19 0.806 -0.251 0.701 -0.401 0.805 -0.408 -0.063 -0.414 -0.89 -0.148 -0.779 -0.174 -0.773 -0.029 -0.854 -0.065 -0.929 0.003 -0.946 -0.008 -1.046 0.058 -4.605 0.115 -11.497 0.064 -10.232 0.366 -14.049 0.763 -1.805 0.133 -14.454 1.314 -1.264 0.153 -2.213 0.289 -1.02 0.193 -0.885 0.2 -0.774 0.151 -0.738 0.22 -0.544 0.204 -0.428 0.166 -0.405 0.219 -0.267 0.191 -0.176 0.167 -0.478 0.535" />
    <path class="write-flat-pen" fill="#FFFFFF" stroke-width="3.5" __comx="118.962" __comy="49.717" __timestamp="0x177c2723345" d="M120.22 54.351 l-1.494 -0.435 -0.312 0.032 -0.299 0.081 -0.308 0.209 -0.102 0.107 0.674 2.082 0.256 0.028 0.242 -0.063 1.153 -0.393 -0.472 -2.106 -1.211 0.136 0.225 -0.06 0.225 0.023 0.674 2.082 -0.099 0.104 -0.287 0.195 -0.259 0.072 -0.293 0.03 1.076 0.23" />
    <path class="write-flat-pen" fill="#FFFFFF" stroke-width="3.5" __comx="118.804" __comy="49.717" __timestamp="0x177c2723450" d="M120.791 38.051 l-1.104 -1.092 -0.19 -0.2 -0.237 -0.144 -0.065 -0.007 -1.501 -0.267 -0.878 1.333 0.838 1.274 -0.015 0.027 0.026 0.044 0.062 0.031 1.112 1.035" />
    <path class="write-flat-pen" fill="#FFFFFF" stroke-width="2.5" __comx="111.521" __comy="99.68" __timestamp="0x177c2725e28" d="M103.171 100.952 l0.008 -0.778 0.015 -0.011 0.11 -0.336 0.051 -0.134 0.164 -0.385 0.118 -0.227 0.416 -0.753 0.146 -0.236 0.853 -1.156 0.239 -0.258 0.972 -0.93 0.319 -0.261 1.119 -0.766 0.302 -0.172 1.987 -0.75 0.256 -0.042 0.936 -0.043 0.496 0.121 0.696 0.374 0.279 0.285 0.362 0.711 0.188 1.795 -0.042 0.318 -0.309 1.453 -0.467 1.332 -0.619 1.26 -0.939 1.459 -0.688 0.822 -0.767 0.653 -0.376 0.189 0 0 -0.055 0.009 0 0 0.921 1.718 0.011 -0.047 0.628 -0.327 0.909 -0.206 1.236 -0.086 1.236 0.154 1.268 0.41 0.804 0.397 1.101 0.834 0.543 0.59 0.689 1.091 0.404 1.062 0.182 1.128 0.017 0.294 -0.137 1.224 -0.095 0.336 -0.553 1.357 -0.506 0.824 -0.679 0.803 -1.408 1.189 -1.536 0.928 -1.077 0.456 -1.118 0.279 -1.211 0.132 -1.324 -0.037 -1.296 -0.268 -1.212 -0.457 -0.92 -0.571 -0.625 -0.622 -0.406 -0.632 -0.332 -1.174 -0.034 -0.26 0.012 -0.314 0.04 -0.309 0.061 -0.298 0.081 -0.292 0.089 -0.273 0.109 -0.28 0.127 -0.296 0.152 -0.322 0.171 -0.367 0.2 -0.401 0.414 -0.845 -0.085 -0.106 -0.915 0.219 -0.482 0.145 -0.459 0.241 -0.394 0.287 -0.346 0.332 -0.306 0.382 -0.249 0.414 -0.21 0.451 -0.165 0.49 -0.115 0.524 -0.066 0.633 0.053 0.664 0.45 1.725 0.739 1.164 1.004 0.999 1.349 0.838 1.608 0.604 1.687 0.34 1.694 0.04 1.531 -0.172 1.45 -0.368 1.399 -0.598 1.834 -1.117 1.699 -1.438 0.92 -1.098 0.689 -1.153 0.65 -1.675 0.167 -0.656 0.124 -1.62 -0.062 -0.594 -0.281 -1.431 -0.588 -1.445 -0.92 -1.415 -0.804 -0.862 -1.413 -1.062 -1.12 -0.552 -1.601 -0.519 -1.63 -0.212 -1.595 0.09 -1.33 0.269 -1.436 0.682 -0.37 0.547 0.921 1.718 0 0 0.605 0.019 0 0 1.112 -0.556 1.119 -0.95 0.906 -1.074 1.086 -1.692 0.733 -1.501 0.552 -1.602 0.342 -1.694 0.075 -0.679 -0.327 -2.446 -0.722 -1.341 -0.748 -0.732 -1.231 -0.629 -1.053 -0.231 -1.356 0.095 -0.577 0.111 -2.3 0.956 -0.499 0.314 -1.211 0.913 -0.421 0.38 -1.014 1.07 -0.327 0.391 -0.884 1.359 -0.185 0.365 -0.362 0.875 -0.119 0.341 -0.126 0.526 -0.037 0.242 -0.027 0.487 0.011 0.151 0.092 0.82" />
    <path class="write-flat-pen" fill="#FFFFFF" stroke-width="2.5" __comx="134.995" __comy="101.148" __timestamp="0x177c2725ff1" d="M131.338 102.351 l-0.4 -0.766 0.062 0.093 0.065 0.13 -0.094 0.304 0.039 0.011 -0.093 0.065 0.902 -0.204 4.634 -0.26 0.474 -0.024 0.45 -0.031 0.44 -0.036 0.43 -0.034 0.403 -0.043 0.39 -0.047 0.358 -0.042 0.341 -0.085 0.959 -0.232 0.026 -0.222 -0.879 -0.449 -0.327 -0.163 -0.37 -0.108 -0.404 -0.106 -0.419 -0.087 -0.463 -0.072 -0.482 -0.044 -0.467 -0.025 -0.515 -0.015 -4.868 0.208 -1.332 0.366 -0.382 0.233 -0.415 0.523 -0.138 0.428 0.116 0.531 0.113 0.201 0.521 0.787" />
    <path class="write-flat-pen" fill="#FFFFFF" stroke-width="2.5" __comx="136.234" __comy="107.468" __timestamp="0x177c27260cc" d="M131.064 108.654 l0.716 -0.05 0.057 0.025 0.423 0.042 0.357 0.003 5.292 -0.65 0.601 -0.126 0.573 -0.11 0.572 -0.122 0.537 -0.127 0.535 -0.212 0.856 -0.325 -0.02 -0.273 -0.895 -0.195 -0.569 -0.13 -0.562 -0.029 -0.595 -0.014 -0.625 0.015 -0.62 0.057 -5.211 0.586 -0.276 0.029 -0.426 0.059 -0.136 0.035 -0.765 0.145" />
    <path class="write-flat-pen" fill="#FFFFFF" stroke-width="2.5" __comx="169.056" __comy="107.24" __timestamp="0x177c2727204" d="M171.058 121.816 l-0.107 -0.45 -0.01 -0.092 -0.005 -0.191 -0.019 -0.172 -0.076 -0.429 -0.04 -0.267 -0.132 -0.674 -0.063 -0.425 -0.171 -1.028 -0.099 -0.574 -0.199 -1.229 -0.084 -0.659 -0.198 -1.51 -0.111 -0.791 -0.237 -2.553 -0.038 -0.844 -0.061 -3.62 0.126 -1.687 1.109 -6.097 0.134 -0.615 0.657 -3.498 0.104 -1.629 -0.631 -0.993 -1.178 0.002 -0.838 0.651 -1.244 1.764 -2.086 3.504 -0.883 1.234 -3.498 3.976 -0.296 0.274 -1.577 1.397 -0.252 0.209 -0.964 0.726 -0.157 0.113 -0.812 0.662 -0.129 1.566 1.486 0.693 7.214 0.051 3.612 0.19 6.31 0.581 0.654 0.039 0.633 0.029 0.616 0.017 0.618 0.003 0.546 -0.019 0.53 -0.052 0.521 -0.095 0.447 -0.171 0.928 -0.372 0.015 -0.283 -0.885 -0.465 -0.42 -0.215 -0.479 -0.156 -0.499 -0.137 -0.544 -0.105 -0.614 -0.09 -0.61 -0.076 -0.624 -0.069 -0.632 -0.066 -6.34 -0.628 -3.717 -0.192 -6.77 -0.019 0.406 0.196 -0.083 0.97 0.02 -0.035 0.124 -0.099 0.987 -0.811 0.302 -0.27 1.575 -1.473 0.378 -0.366 3.578 -4.169 0.985 -1.385 2.075 -3.514 1.029 -1.442 0.053 -0.031 -0.641 0.004 -0.327 -0.513 -0.042 0.848 -0.587 3.359 -0.124 0.623 -1.058 6.236 -0.13 1.873 0.096 3.74 0.061 0.925 0.338 2.641 0.158 0.826 0.283 1.491 0.131 0.68 0.288 1.249 0.141 0.575 0.254 1.012 0.123 0.46 0.253 0.681 0.109 0.275 0.203 0.405 0.08 0.154 0.133 0.22 0.067 0.068 0.171 0.376" />
    <path class="write-flat-pen" fill="#FFFFFF" stroke-width="2.5" __comx="194.862" __comy="107.24" __timestamp="0x177c272745f" d="M191.859 94.529 l0.07 -0.535 0.012 0.015 0.061 -0.042 0.015 -0.023 0.06 -0.071 0.057 -0.324 -0.164 -0.23 -1.199 0.07 -0.067 -0.016 -0.12 0.072 -0.102 0.108 -0.131 0.146 -0.153 0.228 -0.167 0.281 -0.356 0.746 -0.204 0.483 -0.531 1.694 -0.511 2.751 -0.162 2.469 0.07 1.867 0.454 2.995 0.806 3.168 1.108 2.976 1.278 2.564 0.98 1.499 1.625 1.746 0.593 0.473 0.569 0.382 0.598 0.342 0.631 0.294 0.611 0.234 0.612 0.185 0.595 0.133 0.577 0.079 0.571 0.009 0.559 -0.071 0.905 -0.112 0.049 -0.224 -0.777 -0.478 -0.486 -0.298 -0.477 -0.205 -0.437 -0.22 -0.483 -0.234 -0.494 -0.249 -0.487 -0.265 -0.489 -0.292 -0.453 -0.312 -0.43 -0.333 -0.4 -0.355 -1.359 -1.55 -0.801 -1.259 -1.165 -2.355 -1.032 -2.76 -0.769 -2.946 -0.428 -2.764 -0.059 -1.631 0.147 -2.233 0.457 -2.507 0.447 -1.497 0.144 -0.386 0.261 -0.7 0.093 -0.247 0.065 -0.205 0.046 -0.163 -0.011 -0.062 -0.027 -0.056 -0.028 -0.074 -1.199 0.07 -0.157 -0.222 0.057 -0.29 0.053 0.003 0.012 0.003 0.046 0.072 0.01 0.045 0.043 0.572" />
    <path class="write-flat-pen" fill="#FFFFFF" stroke-width="2.5" __comx="218.687" __comy="107.953" __timestamp="0x177c2727ba4" d="M208.539 102.303 l0.585 -0.112 -0.156 -0.017 0.088 0.076 0.201 0.152 0.308 0.238 0.378 0.295 0.948 0.764 0.512 0.424 3.028 2.59 5.358 5.376 2.695 2.471 3.006 2.045 0.376 0.198 0.326 0.161 0.316 0.137 0.297 0.121 0.313 0.112 0.255 0.062 0.25 0.054 0.247 0.039 0.209 -0.011 1.071 -0.113 0.073 -0.197 -0.74 -0.783 -0.125 -0.135 -0.144 -0.124 -0.184 -0.153 -0.192 -0.138 -0.217 -0.16 -0.251 -0.175 -0.27 -0.176 -0.275 -0.182 -0.287 -0.187 -2.801 -1.966 -2.564 -2.346 -5.416 -5.372 -3.141 -2.62 -0.564 -0.439 -1.042 -0.744 -0.458 -0.287 -0.401 -0.226 -0.324 -0.152 -0.282 -0.104 -0.405 -0.091 -0.982 0.33" />
    <path class="write-flat-pen" fill="#FFFFFF" stroke-width="2.5" __comx="219.389" __comy="107.953" __timestamp="0x177c2727cac" d="M215.764 117.872 l-0.387 -0.784 0.014 -0.038 0.051 0.005 0.035 0.079 0.025 0 0.036 -0.067 0.241 -0.519 0.189 -0.349 3.473 -5.818 3.408 -6.184 0.365 -0.688 0.341 -0.643 0.301 -0.627 0.272 -0.588 0.269 -0.568 0.263 -0.547 0.202 -0.555 0.303 -0.811 -0.168 -0.13 -0.71 0.495 -0.496 0.345 -0.455 0.43 -0.476 0.464 -0.472 0.537 -0.432 0.589 -0.423 0.618 -0.429 0.694 -3.447 6.146 -3.458 5.868 -0.243 0.497 -0.271 0.768 -0.059 0.347 -0.007 0.359 0.072 0.313 0.16 0.304 0.104 0.104 0.4 0.704" />
    <path class="write-flat-pen" fill="#FFFFFF" stroke-width="2.5" __comx="241.409" __comy="107.953" __timestamp="0x177c2727e9a" d="M235.244 110.042 l0.743 -0.302 0.073 0.002 0.264 -0.021 0.222 -0.026 1.933 -0.214 2.392 -0.072 0.436 0.013 0.947 0.08 0.517 0.034 0.519 0.063 0.502 0.041 0.523 0.072 0.455 0.037 0.495 0.057 0.499 0.027 0.495 0.046 0.501 0.034 0.502 -0.017 0.876 -0.023 0.034 -0.162 -0.793 -0.373 -0.464 -0.22 -0.478 -0.141 -0.478 -0.163 -0.478 -0.136 -0.477 -0.152 -0.444 -0.113 -0.524 -0.147 -0.509 -0.106 -0.526 -0.127 -0.546 -0.096 -0.977 -0.178 -0.56 -0.058 -2.571 0.01 -2.088 0.323 -0.326 0.091 -0.421 0.17 -0.164 0.117 -0.698 0.382" />
    <path class="write-flat-pen" fill="#FFFFFF" stroke-width="2.5" __comx="261.204" __comy="107.953" __timestamp="0x177c27281d5" d="M254.143 100.013 l-0.148 -0.82 0.008 -0.067 0.026 -0.143 0.013 0.121 0.05 -0.041 -0.061 0.139 0.523 -0.353 0.058 -0.016 1.58 -0.399 0.343 -0.069 2.33 -0.168 0.38 -0.002 1.232 0.105 1.049 0.298 1.152 0.582 0.757 0.559 0.282 0.368 0.175 0.43 0.076 0.72 -0.085 0.423 -0.214 0.402 -0.362 0.374 0 0 -0.41 0.263 0 0 -2.027 0.579 0 0 -0.062 2.032 1.824 0.626 1.683 0.84 0.947 0.648 0.884 0.834 0.929 1.169 0.559 1.183 0.164 1.303 -0.009 0.184 -0.242 0.972 -0.089 0.191 -0.675 0.987 -0.231 0.235 -1.119 0.863 -1.456 0.735 -1.584 0.538 -1.832 0.319 -1.948 0.109 -1.525 -0.098 -0.909 -0.206 -0.785 -0.388 -0.538 -0.473 0.093 0.149 -0.034 -0.026 -0.006 0.062 -0.021 0.09 -0.053 0.066 -0.081 0.053 -0.078 -0.067 -0.05 -0.129 -0.024 -1.024 -0.188 -0.152 -1.005 0.194 -0.256 0.127 -0.26 0.292 -0.162 0.309 -0.072 0.367 0.003 0.329 0.084 0.354 0.143 0.328 0.136 0.215 0.992 0.938 1.355 0.668 1.378 0.306 1.858 0.109 2.228 -0.129 2.154 -0.381 1.917 -0.666 1.801 -0.934 1.414 -1.133 0.48 -0.516 0.864 -1.36 0.232 -0.578 0.283 -1.415 -0.01 -0.581 -0.289 -1.77 -0.821 -1.678 -1.175 -1.465 -1.111 -1.044 -1.196 -0.82 -1.922 -0.971 -1.935 -0.706 -0.062 2.032 0 0 2.341 -0.675 0 0 0.879 -0.591 0 0 0.723 -0.779 0.475 -0.942 0.189 -1.032 -0.161 -1.319 -0.398 -0.947 -0.628 -0.806 -1.126 -0.831 -1.489 -0.744 -1.437 -0.392 -1.529 -0.1 -0.541 0.018 -2.517 0.255 -0.515 0.124 -1.718 0.529 -0.378 0.17 -0.928 0.786 -0.196 0.385 -0.073 0.496 0.016 0.205 0.106 0.296 0.053 0.1 0.253 0.778" />
    <path class="write-flat-pen" fill="#FFFFFF" stroke-width="2.5" __comx="283.65" __comy="107.953" __timestamp="0x177c2728449" d="M278.114 92.014 l-0.112 -0.847 0.019 -0.149 0.011 -0.138 0.016 -0.018 0.038 0.015 -0.204 0.486 -0.223 0.114 -0.171 -0.032 0.691 0.359 1.939 1.562 0.415 0.399 2.537 2.67 0.553 0.584 0.999 1.197 1.339 1.939 1.114 2.019 0.568 1.357 0.623 2.114 0.428 2.079 0.147 1.92 -0.031 1.9 -0.201 1.162 -0.544 1.693 -0.504 1.015 -0.315 0.506 -0.344 0.499 -0.353 0.465 -0.366 0.453 -0.357 0.399 -0.394 0.407 -0.389 0.396 -0.417 0.412 -0.411 0.396 -0.402 0.362 -0.365 0.403 -0.592 0.646 0.098 0.163 0.848 -0.222 0.535 -0.14 0.523 -0.221 0.551 -0.248 0.568 -0.285 0.53 -0.312 0.537 -0.36 0.518 -0.409 0.509 -0.485 0.473 -0.509 0.458 -0.568 0.446 -0.638 0.675 -1.269 0.656 -2.015 0.255 -1.491 0.027 -2.178 -0.178 -2.163 -0.49 -2.305 -0.704 -2.31 -0.67 -1.567 -1.229 -2.207 -1.457 -2.106 -1.11 -1.325 -0.611 -0.636 -2.624 -2.666 -0.528 -0.484 -2.211 -1.699 -1.1 -0.523 -0.588 -0.127 -1.06 0.392 -0.262 0.618 0.026 0.5 0.041 0.164 0.051 0.136 0.066 0.161 0.191 0.856" />
    <path class="write-flat-pen" fill="#FFFFFF" stroke-width="2.5" __comx="55.985" __comy="165.706" __timestamp="0x177c2728acc" d="M48.507 165.818 l0.66 -0.401 -0.174 0.044 1.015 0.02 3.81 0.465 0.704 0.061 0.721 0.051 1.614 0.157 1.408 0.042 1.312 0.062 1.193 -0.038 1.103 -0.075 0.968 -0.096 0.828 -0.221 0.724 -0.178 -0.01 -0.257 -0.735 -0.12 -0.833 -0.156 -0.947 -0.062 -1.077 -0.092 -1.137 -0.095 -1.282 -0.158 -1.374 -0.119 -1.573 -0.229 -0.724 -0.093 -0.673 -0.093 -3.909 -0.553 -1.307 0.042 -0.337 0.077 -0.896 0.688" />
    <path class="write-flat-pen" fill="#FFFFFF" stroke-width="2.5" __comx="60.182" __comy="165.706" __timestamp="0x177c2728c2f" d="M52.825 169.968 l-0.632 -0.4 0.083 1.221 -0.1 0.117 -0.141 0.075 -0.003 0.023 0.232 0.027 0.189 0.011 8.997 -0.037 1.307 -0.008 1.286 0.035 1.159 -0.024 0.971 0.01 1.006 0.022 1.136 -0.143 0.697 -0.073 0.021 -0.269 -0.678 -0.179 -1.081 -0.314 -0.97 -0.211 -0.995 -0.202 -1.169 -0.14 -1.296 -0.164 -1.371 -0.082 -9.053 -0.014 -0.246 0.026 -0.309 0.064 -0.139 0.041 -0.261 0.105 -0.128 0.14 0.083 1.221 0.647 0.375" />
    <path class="write-flat-pen" fill="#FFFFFF" stroke-width="2.5" __comx="68.406" __comy="165.706" __timestamp="0x177c2728ea5" d="M67.852 167.955 l-0.583 -0.723 -0.125 -0.175 -0.502 -0.632 -0.189 -0.216 -0.795 -0.905 -0.186 -0.225 -0.779 -1.049 -0.173 -0.26 -0.558 -0.84 -0.167 -0.249 -0.406 -0.649 -0.099 -0.154 -0.246 -0.413 -0.11 -0.172 -0.398 -0.65 0 0 -0.073 -0.115 0 0 -0.387 -0.711 0 0 -1.547 1.455 1.565 1.063 1.431 0.72 2.632 0.9 2.832 0.739 5.112 0.984 0.487 0.16 -0.328 -0.288 0.023 -0.286 0.05 -0.083 -0.854 0.984 -0.259 0.338 -1.063 1.729 -1.002 2.033 -0.465 1.4 -0.083 0.421 -0.052 0.366 -0.03 0.387 0 0.381 0.027 0.373 0.129 0.736 0.26 0.543 0.486 1.001 0.547 -0.055 0.275 -1.078 0.156 -0.487 0.145 -0.572 0.076 -0.27 0.071 -0.295 0.07 -0.287 0.07 -0.273 0.071 -0.253 0.413 -1.135 0.884 -1.814 0.927 -1.552 0.149 -0.204 0.839 -1.045 0.28 -0.41 0.217 -1.4 -0.913 -0.817 -1.054 -0.348 -5.177 -1.002 -2.682 -0.708 -2.411 -0.834 -1.173 -0.595 -1.461 -0.971 -1.547 1.455 0 0 0.476 0.759 0 0 0.123 0.164 0 0 0.463 0.62 0.128 0.159 0.296 0.387 0.126 0.154 0.47 0.6 0.193 0.245 0.62 0.793 0.218 0.279 0.902 1.057 0.248 0.264 0.887 0.865 0.2 0.187 0.568 0.537 0.153 0.134 0.642 0.662" />
    <path class="write-flat-pen" fill="#FFFFFF" stroke-width="2.5" __comx="108.545" __comy="164.456" __timestamp="0x177c272cbd6" d="M101.154 161.891 l-0.195 -0.56 0.021 -0.009 0.031 -0.136 0.024 -0.031 0.07 -0.225 0.029 -0.059 0.27 -0.528 0.12 -0.167 0.673 -0.76 0.233 -0.223 1.356 -1.086 0.405 -0.264 1.393 -0.746 1.316 -0.528 1.326 -0.303 1.212 -0.102 0.947 0.095 0.641 0.22 0.427 0.299 0.147 0.197 0.201 0.587 0.063 0.745 -0.126 0.801 -0.403 1.17 -0.412 0.704 -0.555 0.612 -0.914 0.696 -0.656 0.331 0 0 -0.643 0.189 0 0 0.095 0.033 0 0 -0.216 2.068 1.382 -0.078 2.009 0.243 1.335 0.383 1.346 0.556 0.764 0.475 0.609 0.59 0.449 0.688 0.245 0.771 0.086 0.9 -0.193 1.014 -0.506 1.101 -0.979 1.236 -1.385 1.211 -1.593 1.053 -1.777 0.936 -2.016 0.791 -1.352 0.349 -2.137 0.199 -1.11 -0.044 -0.797 -0.185 -0.826 -0.389 -0.284 -0.251 -0.223 -0.361 -0.118 -0.402 -0.004 -0.949 0.045 -0.267 0.084 -0.351 0.096 -0.339 0.108 -0.318 0.139 -0.347 0.139 -0.332 0.167 -0.365 0.176 -0.389 0.179 -0.398 0.213 -0.424 0.18 -0.461 0.338 -0.878 -0.146 -0.13 -0.832 0.438 -0.445 0.242 -0.415 0.313 -0.384 0.332 -0.342 0.352 -0.313 0.368 -0.265 0.37 -0.257 0.412 -0.219 0.429 -0.186 0.454 -0.156 0.471 -0.136 0.551 -0.05 1.507 0.284 1.032 0.561 0.926 0.789 0.703 1.353 0.631 1.247 0.283 1.477 0.051 2.468 -0.242 1.657 -0.438 2.255 -0.894 1.985 -1.053 1.809 -1.208 1.643 -1.461 1.255 -1.623 0.703 -1.606 0.255 -1.587 -0.17 -1.413 -0.41 -1.243 -0.738 -1.116 -0.941 -0.904 -1.101 -0.679 -1.611 -0.665 -1.609 -0.462 -2.349 -0.276 -1.556 0.062 -0.216 2.068 0 0 0.477 0.133 0 0 1.394 -0.421 0 0 0.994 -0.511 1.222 -0.937 0.825 -0.936 0.605 -1.087 0.489 -1.554 0.149 -1.231 -0.153 -1.222 -0.414 -1.078 -0.515 -0.66 -0.895 -0.617 -1.107 -0.37 -1.339 -0.125 -1.519 0.137 -1.6 0.384 -1.543 0.65 -1.536 0.874 -0.539 0.376 -1.443 1.268 -0.323 0.358 -0.713 0.949 -0.215 0.378 -0.283 0.822 -0.031 0.267 0.004 0.4 0.04 0.227 0.114 0.274 0.061 0.108 0.296 0.565" />
    <path class="write-flat-pen" fill="#FFFFFF" stroke-width="2.5" __comx="129.448" __comy="164.456" __timestamp="0x177c272cce8" d="M123.333 166.435 l0.55 -0.347 -0.095 0.062 0.096 0.031 0.103 0.013 0.39 0.012 0.239 0.005 7.46 0.105 0.6 -0.064 0.576 -0.084 0.608 -0.113 0.585 -0.124 0.585 -0.124 0.544 -0.192 0.826 -0.287 -0.011 -0.199 -0.851 -0.198 -0.56 -0.133 -0.592 -0.065 -0.592 -0.066 -0.612 -0.056 -0.572 -0.035 -0.55 -0.024 -7.47 -0.169 -0.326 0.03 -0.466 0.08 -0.214 0.058 -0.245 0.108 -0.183 0.095 -0.662 0.546" />
    <path class="write-flat-pen" fill="#FFFFFF" stroke-width="2.5" __comx="146.918" __comy="164.456" __timestamp="0x177c272cfab" d="M139.167 157.676 l-0.482 -0.88 -0.002 -0.047 -0.048 -0.225 0.035 0.063 0.033 0.024 -0.054 0.244 0.193 -0.157 0.069 -0.034 1.242 -0.421 1.721 -0.317 2.001 -0.163 2.402 0.009 1.647 0.195 1.226 0.297 0.603 0.278 0.424 0.318 0.127 0.171 0.167 0.47 0.035 0.585 -0.086 0.337 -0.398 0.732 -0.613 0.767 -1.082 0.917 -2.74 1.653 -0.763 1.106 0.719 1.11 0.934 0.497 3.485 1.048 1.889 0.722 1.673 0.846 0.896 0.597 0.351 0.363 0.201 0.393 0.065 0.503 -0.096 0.415 -0.271 0.523 -0.497 0.592 -1.218 1.017 -1.404 0.933 -1.696 0.802 -2.018 0.643 -2.115 0.401 -1.98 0.149 -1.674 -0.033 -1.322 -0.211 -0.905 -0.281 -0.556 -0.314 -0.34 -0.341 -0.14 -0.239 -0.052 -0.112 -0.043 -0.108 -0.031 -0.135 -0.017 -0.18 0.006 -0.236 0.033 -0.28 0.058 -0.299 0.084 -0.338 0.128 -0.385 0.17 -0.399 0.143 -0.43 0.294 -0.88 -0.145 -0.108 -0.757 0.537 -0.378 0.273 -0.345 0.336 -0.333 0.359 -0.279 0.355 -0.235 0.369 -0.193 0.402 -0.142 0.415 -0.077 0.409 -0.02 0.438 0.06 0.404 0.103 0.383 0.32 0.696 0.767 0.829 1.041 0.598 1.287 0.399 1.631 0.248 1.926 0.022 2.198 -0.178 2.359 -0.452 2.276 -0.732 1.963 -0.934 1.628 -1.088 1.45 -1.221 0.763 -0.926 0.492 -0.977 0.225 -1.049 -0.183 -1.228 -0.511 -0.972 -0.717 -0.739 -1.185 -0.785 -1.874 -0.952 -2.053 -0.796 -3.343 -1.037 -0.253 -0.147 0.369 0.559 -0.308 0.457 2.489 -1.526 1.364 -1.176 0.85 -1.084 0.605 -1.137 0.223 -0.914 -0.08 -1.205 -0.372 -1.039 -0.491 -0.668 -0.849 -0.645 -1 -0.457 -1.548 -0.371 -1.892 -0.223 -2.616 -0.003 -2.197 0.199 -1.976 0.387 -1.579 0.58 -0.47 0.298 -0.657 0.745 -0.133 0.53 0.062 0.535 0.093 0.237 0.179 0.301 0.091 0.14 0.607 0.894" />
    <path class="write-flat-pen" fill="#FFFFFF" stroke-width="2.5" __comx="169.204" __comy="164.456" __timestamp="0x177c272d14a" d="M165.429 160.289 l-0.493 -0.559 -0.199 1.195 -0.089 0.068 0.013 0.04 0.143 0.015 2.569 -0.039 2.793 -0.355 0.548 -0.087 0.53 -0.097 0.511 -0.101 0.48 -0.1 0.52 -0.102 0.497 -0.127 0.463 -0.143 0.806 -0.253 -0.004 -0.094 -0.824 -0.189 -0.482 -0.106 -0.52 -0.063 -0.532 -0.033 -0.495 -0.032 -0.531 -0.023 -0.547 -0.005 -0.564 0.008 -2.758 0.19 -2.494 0.103 -0.194 0.019 -0.349 0.074 -0.144 0.095 -0.199 1.195 0.56 0.492" />
    <path class="write-flat-pen" fill="#FFFFFF" stroke-width="2.5" __comx="175.052" __comy="164.456" __timestamp="0x177c272d248" d="M169.674 164.754 l-1.135 0.118 -0.334 0.968 0.697 0.423 0.253 0.067 0.764 0.103 0.433 0.012 6.574 -0.702 0.701 -0.08 0.706 -0.092 0.678 -0.1 0.68 -0.097 0.707 -0.093 0.71 -0.183 0.791 -0.195 -0.001 -0.211 -0.794 -0.184 -0.716 -0.174 -0.721 -0.073 -0.71 -0.059 -0.71 -0.023 -0.721 0.003 -0.731 0.017 -6.523 0.62 -0.289 0.01 -0.617 -0.004 0.045 0.025 0.481 0.308 -0.321 0.928 0.29 -0.098" />
    <path class="write-flat-pen" fill="#FFFFFF" stroke-width="2.5" __comx="199.089" __comy="164.456" __timestamp="0x177c272d55d" d="M200.285 172.252 l0.31 0.469 0.094 0.097 0.37 0.221 0.444 -0.186 0.248 -0.305 0.092 -0.215 0.073 -0.222 0.058 -0.267 0.043 -0.327 0.022 -0.373 0 -0.395 -0.016 -0.437 -0.082 -0.912 -0.054 -0.512 -0.219 -1.177 -0.122 -0.602 -0.579 -2.822 -0.2 -0.781 -0.508 -2.278 -0.271 -2.289 -0.084 -2.919 0 0 0.159 -2.501 1.099 -5.049 0 0 -1.898 -0.652 -1.399 3.032 -0.186 0.364 -1.243 1.978 -1.436 1.864 -1.278 1.386 -2.241 1.94 -0.263 0.207 -1.137 0.877 -0.084 0.064 -0.562 0.29 0.689 -0.046 0.816 0.802 -0.466 0.856 0.201 -0.141 0.512 -0.216 1.442 -0.26 2.867 -0.114 3.335 0.071 2.667 0.269 0.687 0.058 0.64 0.046 0.699 0.081 0.646 0.052 0.631 0.082 0.606 0.05 0.629 0.074 0.637 0.034 0.617 0.04 0.635 0.025 0.579 -0.021 0.599 -0.085 0.893 -0.115 0.047 -0.249 -0.789 -0.434 -0.551 -0.303 -0.537 -0.185 -0.563 -0.214 -0.631 -0.204 -0.619 -0.151 -0.618 -0.167 -0.607 -0.123 -0.642 -0.147 -0.67 -0.108 -0.718 -0.13 -0.685 -0.085 -0.672 -0.083 -2.755 -0.325 -3.509 -0.088 -3.106 0.125 -1.866 0.347 -1.036 0.456 -0.775 0.642 -0.558 1.022 1.106 1.099 0.849 -0.055 1.138 -0.694 0.208 -0.176 1.096 -0.927 0.291 -0.248 2.301 -2.092 1.387 -1.545 1.527 -2.015 1.328 -2.13 0.237 -0.463 1.483 -3.024 -1.898 -0.652 0 0 -1.168 5.199 -0.161 2.755 0 0 0.097 3.102 0.297 2.485 0.559 2.411 0.208 0.77 0.64 2.773 0.148 0.596 0.274 1.092 0.084 0.441 0.169 0.859 0.063 0.372 0.051 0.33 0.036 0.291 0.023 0.238 0.014 0.168 0.011 0.113 0.028 0.009 0.107 -0.067 0.347 -0.137 0.205 0.151 0.066 0.072 -0.359 -0.337" />
    <path class="write-flat-pen" fill="#FFFFFF" stroke-width="2.5" __comx="217.827" __comy="164.456" __timestamp="0x177c272d709" d="M211.072 160.628 l0.653 -0.178 -0.338 -0.116 0.394 0.351 6.371 6.936 4.079 3.792 0.331 0.224 0.292 0.172 0.269 0.139 0.268 0.117 0.191 0.056 0.208 0.056 0.16 0.012 1.087 0.003 0.095 -0.177 -0.602 -0.906 -0.071 -0.113 -0.135 -0.15 -0.118 -0.12 -0.156 -0.159 -0.194 -0.182 -0.222 -0.198 -0.206 -0.186 -3.908 -3.735 -6.449 -6.966 -0.764 -0.576 -0.546 -0.195 -1.243 0.464" />
    <path class="write-flat-pen" fill="#FFFFFF" stroke-width="2.5" __comx="218.521" __comy="164.456" __timestamp="0x177c272d7e6" d="M214.196 173.011 l-0.525 -0.561 0.069 0.036 0.03 -0.03 0.061 0.116 0.033 0.131 0.007 0.088 0.03 -0.021 0.083 -0.107 1.41 -1.57 0.46 -0.498 5.968 -6.375 0.551 -0.622 0.517 -0.621 0.492 -0.628 0.454 -0.658 0.417 -0.682 0.355 -0.726 0.294 -0.683 0.293 -0.704 -0.08 -0.07 -0.656 0.389 -0.639 0.392 -0.654 0.461 -0.61 0.479 -0.598 0.505 -0.581 0.541 -0.565 0.565 -0.571 0.582 -5.994 6.361 -0.485 0.53 -1.513 1.781 -0.241 0.444 -0.133 0.403 -0.034 0.357 0.049 0.356 0.105 0.24 0.122 0.15 0.148 0.172 0.736 0.683" />
    <path class="write-flat-pen" fill="#FFFFFF" stroke-width="2.5" __comx="162.608" __comy="49.102" __timestamp="0x177c272f3c8" d="M142.949 60.042 l-0.959 0.227 -0.245 0.069 -0.474 0.176 -0.307 0.242 -0.233 0.933 0.569 0.513 0.431 0.192 0.522 0.137 1.224 0.148 0.771 0.038 3.652 0.005 5.624 -0.381 20.544 -2.377 1.258 -0.092 1.213 -0.145 1.141 -0.094 1.121 -0.09 1.116 -0.096 1.059 -0.094 0.989 -0.053 0.955 0.01 0.875 -0.059 0.673 -0.041 0.015 -0.12 -0.643 -0.203 -0.844 -0.27 -0.971 -0.175 -1.021 -0.139 -1.082 -0.113 -1.127 -0.09 -1.14 -0.072 -1.211 -0.034 -1.242 0.067 -1.287 0.042 -20.566 2.302 -5.52 0.389 -3.558 0.058 -0.685 -0.004 -1.073 -0.052 -0.3 -0.036 -0.063 0.004 0.331 0.312 -0.149 0.5 -0.249 0.195 0.224 -0.17 0.11 -0.069 0.874 -0.291" />
    <path class="write-flat-pen" fill="#FFFFFF" stroke-width="2.5" __comx="160.692" __comy="49.102" __timestamp="0x177c272f643" d="M141.528 62.038 l-0.607 -0.742 -0.035 -0.085 -0.014 -0.088 0.055 0.106 0.027 -0.055 0.014 -0.001 0.278 -0.47 0.949 -1.152 5.351 -5.151 4.411 -4.526 3.654 -4.192 6.388 -8.331 1.9 -2.677 1.722 -2.896 2.3 -4.686 0.887 -1.479 0.023 -0.017 -0.343 0.041 -0.128 -0.061 0.196 0.244 0.351 0.742 0.871 2.819 2.026 7.643 1.86 6.175 1.251 3.448 1.377 2.987 1.825 3.167 0.472 0.702 0.463 0.615 0.436 0.535 0.467 0.517 0.498 0.471 0.488 0.426 0.554 0.361 0.734 0.476 0.183 -0.14 -0.269 -0.833 -0.201 -0.625 -0.271 -0.581 -0.297 -0.589 -0.313 -0.585 -0.339 -0.583 -0.381 -0.62 -0.388 -0.651 -1.712 -3.062 -1.295 -2.822 -1.199 -3.304 -1.822 -6.086 -2.053 -7.646 -0.937 -3.007 -0.531 -1.116 -0.663 -0.813 -0.873 -0.427 -0.996 0.117 -0.766 0.722 -1.055 1.835 -2.287 4.687 -1.629 2.754 -1.824 2.577 -6.326 8.245 -3.573 4.098 -4.344 4.466 -5.392 5.243 -1.124 1.407 -0.434 0.83 -0.143 0.516 0.05 0.709 0.142 0.327 0.218 0.312 0.185 0.179 0.651 0.723" />
    <path class="write-flat-pen" fill="#FFFFFF" stroke-width="2.5" __comx="168.431" __comy="49.102" __timestamp="0x177c272f847" d="M167.287 35.662 l0.338 0.557 0.025 0.08 0.095 0.3 0.03 0.135 0.369 2.144 0.026 0.4 -0.059 3.258 -0.072 0.536 -0.081 0.552 -0.08 0.555 -0.093 0.567 -0.095 0.564 -0.059 0.572 -0.121 0.924 0.347 0.104 0.409 -0.837 0.27 -0.522 0.205 -0.551 0.203 -0.559 0.176 -0.56 0.157 -0.563 0.146 -0.641 0.154 -3.425 -0.041 -0.561 -0.521 -2.309 -0.124 -0.28 -0.245 -0.382 -0.116 -0.129 -0.43 -0.512" />
    <path class="write-flat-pen" fill="#FFFFFF" stroke-width="2.5" __comx="165.015" __comy="49.102" __timestamp="0x177c272fa54" d="M165.333 51.959 l0.185 -0.608 -0.06 0.121 0.025 0.051 -0.41 0.037 -0.163 -0.05 -0.093 -0.167 -0.02 0.151 -0.012 -0.064 -0.099 0.217 0.05 -0.138 -0.166 0.127 0.216 -0.144 0.149 0.005 0.287 0.349 0.023 0.061 -0.698 -0.524 -0.905 0.623 0.24 0.839 0.041 0.087 0.352 0.414 1.114 -0.087 0.38 -0.247 0.445 -0.599 0.095 -0.245 0.077 -0.555 -0.011 -0.254 -0.128 -0.46 -0.166 -0.329 -0.598 -0.379 -0.536 0.045 -0.426 0.451 -0.122 0.223 -0.109 0.837" />
    <path class="write-flat-pen" fill="#FFFFFF" stroke-width="2.5" __comx="58.668" __comy="230.66" __timestamp="0x177c2730169" d="M58.211 219.235 l0.085 -0.726 -0.055 0.175 -0.037 0.131 -0.167 0.116 -0.113 0.078 -0.182 0.009 -0.11 0.013 -0.126 -0.081 0.076 0.181 0.043 0.126 0.298 1.112 0.071 0.501 0.166 2.244 -0.05 10.717 0.282 5.474 0.126 0.292 0.327 0.502 1.131 0.123 0.263 -0.818 -0.06 -0.344 -0.091 -0.361 -0.09 -0.421 -0.15 -0.472 -0.245 -0.731 -0.093 0.002 -0.221 0.739 -0.135 0.451 -0.124 0.366 -0.142 0.265 -0.127 0.05 0.179 -0.634 1.048 0.111 0.257 0.379 0.066 0.122 -0.203 -5.141 0 -10.75 -0.208 -2.396 -0.12 -0.703 -0.463 -1.374 -0.218 -0.376 -0.336 -0.381 -0.279 -0.218 -0.415 -0.095 -0.299 -0.001 -0.309 0.135 -0.206 0.139 -0.169 0.306 -0.064 0.202 0.028 0.917" />
    <path class="write-flat-pen" fill="#FFFFFF" stroke-width="2.5" __comx="66.746" __comy="230.66" __timestamp="0x177c273027e" d="M56.022 220.298 l-0.024 -0.765 0.036 -0.138 0.025 -0.106 0.02 -0.034 0.045 -0.057 -0.005 0.095 0.009 0.067 -0.003 0.052 0.001 0.03 0.033 0.003 0.057 -0.01 0.125 -0.035 0.221 -0.062 0.294 -0.091 0.332 -0.074 0.41 -0.103 1.744 -0.306 0.742 -0.13 5.831 -0.913 3.359 -0.378 4.512 -0.242 0.645 -0.018 0.653 -0.022 0.61 -0.03 0.542 -0.029 0.469 -0.029 0.47 -0.011 0.411 -0.048 0.413 -0.095 1.035 -0.193 0.09 -0.384 -0.842 -0.632 -0.405 -0.286 -0.447 -0.162 -0.516 -0.159 -0.59 -0.094 -0.609 -0.055 -0.64 -0.027 -0.662 -0.015 -0.697 -0.004 -4.632 0.218 -3.482 0.4 -5.903 0.947 -0.775 0.145 -1.848 0.379 -0.49 0.157 -0.415 0.133 -0.379 0.17 -0.295 0.138 -0.299 0.177 -0.233 0.181 -0.202 0.202 -0.149 0.201 -0.148 0.271 -0.08 0.313 -0.019 0.183 0.034 0.272 0.034 0.145 0.05 0.123 0.064 0.123 0.127 0.747" />
    <path class="write-flat-pen" fill="#FFFFFF" stroke-width="2.5" __comx="67.701" __comy="230.66" __timestamp="0x177c27303af" d="M57.387 231.947 l1.052 -0.193 0.199 0 0.898 -0.077 0.562 -0.047 9.118 -1.419 3.477 -0.464 0.578 -0.058 0.584 -0.044 0.565 -0.04 0.516 -0.042 0.454 -0.043 0.454 -0.039 0.431 -0.013 0.41 -0.036 0.395 -0.01 0.373 -0.036 0.906 -0.093 0.031 -0.12 -0.745 -0.524 -0.327 -0.219 -0.423 -0.19 -0.427 -0.148 -0.471 -0.147 -0.56 -0.092 -0.507 -0.048 -0.54 -0.029 -0.59 -0.017 -0.633 0.001 -0.663 0.029 -3.574 0.402 -9.094 1.489 -0.529 0.072 -0.869 0.151 -0.276 0.042 -1.151 0.289" />
    <path class="write-flat-pen" fill="#FFFFFF" stroke-width="2.5" __comx="72.054" __comy="230.66" __timestamp="0x177c27304e1" d="M60.726 240.341 l-0.907 0.808 -0.02 0.046 -0.035 0.019 0.416 0.003 0.395 -0.002 3.907 -0.47 0.832 -0.155 6.217 -1.368 4.446 -0.82 2.411 -0.26 0.738 -0.058 0.783 -0.054 0.725 -0.063 0.709 -0.058 0.694 -0.028 0.704 -0.065 0.706 -0.023 0.699 -0.116 0.778 -0.133 0.015 -0.141 -0.733 -0.292 -0.642 -0.257 -0.689 -0.222 -0.703 -0.183 -0.721 -0.175 -0.8 -0.101 -0.771 -0.048 -0.822 -0.02 -0.817 0.017 -2.553 0.226 -4.572 0.845 -6.212 1.421 -0.741 0.145 -3.756 0.526 -0.338 0.03 -0.482 0.069 -0.241 0.044 -0.174 0.108 0.324 2.04" />
    <path class="write-flat-pen" fill="#FFFFFF" stroke-width="2.5" __comx="94.082" __comy="230.66" __timestamp="0x177c273062e" d="M87.986 225.999 l0.49 -0.37 -0.495 -0.021 0.066 0.069 0.151 0.131 1.38 1.279 4.883 5.221 2.593 2.373 1.481 1.003 0.373 0.168 0.304 0.112 0.279 0.089 0.238 0.046 0.183 0.018 0.137 -0.005 1.162 -0.054 0.149 -0.352 -0.771 -0.871 -0.087 -0.1 -0.126 -0.115 -0.141 -0.122 -0.19 -0.152 -0.252 -0.175 -0.227 -0.153 -1.23 -0.92 -2.422 -2.252 -4.879 -5.239 -1.54 -1.361 -0.366 -0.263 -0.596 -0.28 -0.677 -0.036 -1.05 0.903" />
    <path class="write-flat-pen" fill="#FFFFFF" stroke-width="2.5" __comx="94.918" __comy="230.66" __timestamp="0x177c273070f" d="M91.26 237.074 l-0.411 -1.18 0.036 0.123 0.113 -0.528 0.109 -0.257 0.744 -1.393 7.447 -10.333 0.38 -0.552 0.366 -0.537 0.324 -0.538 0.248 -0.508 0.208 -0.486 0.104 -0.442 0.204 -0.938 -0.189 -0.139 -0.836 0.473 -0.385 0.222 -0.402 0.314 -0.421 0.353 -0.441 0.426 -0.459 0.49 -0.463 0.557 -7.596 10.457 -0.851 1.651 -0.228 0.594 -0.16 1.168 0.1 0.423 0.529 1.309" />
    <path class="write-flat-pen" fill="#FFFFFF" stroke-width="2.5" __comx="89.071" __comy="230.66" __timestamp="0x177c273087b" d="M58.043 250.808 l0.414 -0.674 0.913 -0.257 2.927 -0.514 9.127 -1.21 5.729 -0.565 4.09 -0.189 4.13 -0.012 6.168 0.318 13.684 1.036 1.749 0.131 3.382 0.248 1.625 0.128 1.519 0.121 1.462 0.134 1.336 0.121 1.248 0.089 1.235 0.069 1.156 0.058 1.153 -0.048 0.628 -0.018 0.028 -0.174 -0.59 -0.215 -1.082 -0.41 -1.127 -0.297 -1.216 -0.287 -1.237 -0.243 -1.332 -0.232 -1.48 -0.216 -1.536 -0.18 -1.636 -0.172 -3.388 -0.304 -1.75 -0.149 -13.705 -1.108 -6.243 -0.33 -4.223 -0.007 -4.186 0.17 -5.816 0.556 -9.208 1.202 -3.091 0.558 -1.745 0.567 -0.756 1.357" />
    <path class="write-flat-pen" fill="#FFFFFF" stroke-width="2.5" __comx="170.203" __comy="230.66" __timestamp="0x177c2731022" d="M153.657 238.289 l-1.094 -0.409 0.147 0.038 0.771 0.609 -0.727 0.921 -0.017 0.035 0.254 -0.021 1.047 -0.059 0.716 -0.034 1.627 -0.062 0.885 -0.028 7.77 -0.181 10.467 -0.024 1.294 0.001 2.542 0.046 1.24 0.03 1.232 0.07 1.207 0.019 1.145 0.064 1.052 -0.001 0.976 0.041 0.912 0.018 0.839 0.042 0.802 -0.047 0.748 -0.036 0.035 -0.187 -0.683 -0.306 -0.734 -0.337 -0.822 -0.256 -0.896 -0.25 -1.005 -0.248 -1.067 -0.157 -1.155 -0.185 -1.223 -0.106 -1.234 -0.137 -1.291 -0.084 -2.577 -0.115 -1.327 -0.023 -10.506 -0.032 -7.817 0.224 -0.914 0.05 -1.651 0.116 -0.747 0.068 -1.113 0.129 -0.417 0.075 -0.68 0.21 -0.789 0.998 0.959 0.769 0.194 0.052 1.092 0.312" />
    <path class="write-flat-pen" fill="#FFFFFF" stroke-width="2.5" __comx="168.595" __comy="230.66" __timestamp="0x177c2731281" d="M152 236.78 l-0.797 -0.526 -0.189 -0.144 -0.288 -0.172 -0.033 -0.031 -0.123 -0.125 0.141 0.132 -0.004 -0.09 0.027 0.233 0.145 -0.327 0.067 -0.085 0.873 -0.902 0.451 -0.379 6.054 -5.055 4.067 -3.768 4.287 -4.298 2.35 -2.579 3.753 -4.69 2.486 -3.598 0 0 1.443 -2.369 0 0 -0.017 0.006 0 0 -1.657 -0.897 0.039 0.473 -0.239 1.98 -0.123 2.909 0.261 1.931 0.749 3.21 0.761 2.434 1.434 3.707 1.584 3.56 2.22 4.151 2.06 3.169 0.464 0.633 0.439 0.57 0.418 0.527 0.397 0.479 0.395 0.434 0.407 0.393 0.383 0.325 0.419 0.312 0.44 0.234 0.843 0.438 0.174 -0.148 -0.296 -0.902 -0.157 -0.468 -0.215 -0.445 -0.208 -0.426 -0.265 -0.471 -0.282 -0.477 -0.322 -0.515 -0.366 -0.561 -0.392 -0.585 -0.401 -0.603 -1.945 -3.078 -2.13 -4.001 -1.525 -3.434 -1.392 -3.581 -0.716 -2.279 -0.714 -3.021 -0.229 -1.625 0.088 -2.621 0.24 -2.114 -0.055 -0.694 -1.657 -0.897 0 0 -0.519 0.279 0 0 -1.721 2.832 0 0 -2.413 3.473 -3.659 4.574 -2.265 2.489 -4.222 4.227 -3.992 3.7 -6 5.05 -0.55 0.479 -1.056 1.18 -0.292 0.485 -0.296 0.993 0.05 0.52 0.339 0.716 0.292 0.286 0.494 0.268 0.185 0.061 0.22 0.047 0.107 0.027 0.804 0.465" />
    <path class="write-flat-pen" fill="#FFFFFF" stroke-width="2.5" __comx="172.37" __comy="230.66" __timestamp="0x177c27314a5" d="M173.312 218.927 l-0.799 -0.614 -0.107 0.061 -0.035 0.137 -0.063 0.191 -0.038 0.191 -0.118 1.209 -0.035 0.369 -0.793 5.234 -0.014 0.259 -0.004 0.237 0.028 0.187 0.142 0.995 0.185 0.041 0.548 -0.843 0.107 -0.17 0.087 -0.233 0.089 -0.263 0.914 -5.291 0.026 -0.442 0.001 -1.218 -0.011 -0.175 -0.032 -0.19 -0.027 0.05 -0.099 0.046 -0.799 0.231" />
    <path class="write-flat-pen" fill="#FFFFFF" stroke-width="2.5" __comx="170.826" __comy="230.66" __timestamp="0x177c27315e9" d="M172.11 232.002 l-0.553 -0.796 0.128 0.302 -0.015 0.121 -0.057 0.065 -0.026 -0.059 -0.032 -0.141 -0.114 -1.087 -0.376 -0.223 -1.009 0.421 -0.179 0.106 -0.136 0.166 -0.146 0.295 -0.052 0.667 0.164 0.395 0.776 0.983" />
    <path class="write-flat-pen" fill="#FFFFFF" stroke-width="2.5" __comx="167.569" __comy="276.67" __timestamp="0x177c2733635" d="M157.214 274.338 l0.202 -0.375 -0.279 0.169 -0.073 0.053 0.005 0.034 0.114 0.085 0.19 0.13 0.235 0.159 0.305 0.214 0.325 0.236 0.363 0.287 0.881 0.72 0.454 0.399 1.5 1.513 0.533 0.583 1.214 1.347 0.603 0.696 2.602 3.286 0.653 0.867 2.591 3.538 2.545 3.14 2.409 2.389 0.54 0.467 0.498 0.408 0.474 0.34 0.426 0.278 0.396 0.217 0.356 0.156 0.275 0.098 0.271 0.047 1.028 0.153 0.131 -0.184 -0.482 -0.921 -0.134 -0.241 -0.18 -0.225 -0.246 -0.275 -0.284 -0.291 -0.333 -0.327 -0.384 -0.361 -0.419 -0.411 -0.466 -0.454 -2.257 -2.314 -2.441 -3.017 -2.582 -3.501 -0.687 -0.9 -2.705 -3.308 -0.669 -0.734 -1.271 -1.335 -0.587 -0.604 -1.637 -1.535 -0.561 -0.449 -0.985 -0.702 -0.453 -0.293 -0.416 -0.232 -0.391 -0.196 -0.317 -0.133 -0.273 -0.098 -0.255 -0.074 -0.282 -0.05 -0.432 0.044 -0.388 0.224 -0.3 0.823" />
    <path class="write-flat-pen" fill="#FFFFFF" stroke-width="2.5" __comx="167.319" __comy="283.395" __timestamp="0x177c27337eb" d="M158.016 297.671 l-0.222 -0.681 0.034 0.188 0.086 -0.095 0.097 -0.14 0.16 -0.227 0.232 -0.318 0.648 -0.871 0.402 -0.538 0.899 -1.187 0.497 -0.65 1.07 -1.361 0.56 -0.738 1.202 -1.55 0.647 -0.821 2.69 -3.436 0.705 -0.901 7.575 -10.471 0.499 -0.686 0.466 -0.629 0.412 -0.571 0.366 -0.537 0.332 -0.486 0.247 -0.404 0.22 -0.407 0.189 -0.374 0.097 -0.341 0.237 -0.952 -0.161 -0.13 -0.882 0.43 -0.296 0.145 -0.333 0.22 -0.385 0.29 -0.364 0.327 -0.441 0.441 -0.449 0.511 -0.454 0.534 -0.511 0.62 -0.545 0.7 -7.595 10.434 -0.679 0.879 -2.649 3.477 -0.635 0.848 -1.169 1.604 -0.532 0.754 -1.02 1.395 -0.484 0.684 -0.861 1.232 -0.39 0.573 -0.613 0.949 -0.233 0.406 -0.168 0.343 -0.125 0.321 -0.114 0.528 0.047 0.337 0.394 0.852" />
    <path class="write-flat-pen" fill="#FFFFFF" stroke-width="2.5" __comx="169.195" __comy="298.929" __timestamp="0x177c2733b0a" d="M117.624 299.676 l0.648 0.064 0.106 0.024 0.333 0.057 0.247 0.036 0.626 0.061 0.668 0.047 1.881 0.084 0.723 0.015 8.864 -0.078 1.118 -0.094 9.112 -0.406 8.359 -0.2 4.702 0.078 11.654 0.525 8.38 0.068 9.271 -0.223 5.701 0.008 7.28 0.365 5.792 0.521 1.475 0.128 1.498 0.113 1.452 0.089 1.45 0.094 1.382 0.03 1.399 0.08 1.429 0.006 1.398 -0.012 1.437 -0.02 2.805 -0.036 1.375 -0.209 0.576 -0.077 -0.006 -0.229 -0.579 -0.049 -1.372 -0.142 -2.785 -0.087 -1.422 -0.093 -1.381 -0.115 -1.387 -0.131 -1.386 -0.192 -1.377 -0.126 -1.42 -0.178 -1.445 -0.164 -1.48 -0.173 -1.469 -0.175 -5.827 -0.616 -7.363 -0.41 -5.771 -0.018 -9.266 0.22 -8.319 -0.067 -11.648 -0.49 -4.763 -0.07 -8.416 0.209 -9.164 0.489 -1.088 0.104 -8.784 0.173 -0.696 0.006 -1.869 0.006 -0.665 0.013 -0.626 0.028 -0.259 0.022 -0.352 0.05 -0.112 0.024 -0.648 0.064" />
    <path class="write-flat-pen" fill="#FFFFFF" stroke-width="2.5" __comx="136.192" __comy="320.039" __timestamp="0x177c2733f01" d="M125.923 311.682 l0.524 0.177 -0.063 0.001 0.014 0.048 0.037 0.073 0.083 0.126 0.123 0.17 0.163 0.211 0.214 0.266 0.275 0.322 0.329 0.365 0.361 0.393 0.436 0.451 0.519 0.499 0.538 0.49 1.219 1.122 0.652 0.622 1.439 1.394 0.748 0.738 3.05 3.225 0.77 0.847 2.175 2.372 3.142 2.937 0.426 0.335 0.366 0.266 0.339 0.241 0.277 0.192 0.237 0.155 0.217 0.14 0.177 0.11 0.142 0.075 0.08 0.036 0.041 0.009 0.098 0.037 0.035 0.005 1.145 0.347 0.209 -0.161 -0.043 -1.196 -0.013 -0.058 -0.072 -0.169 -0.052 -0.09 -0.097 -0.149 -0.168 -0.198 -0.169 -0.184 -0.221 -0.215 -0.227 -0.202 -0.251 -0.218 -0.317 -0.268 -0.322 -0.269 -0.327 -0.284 -2.998 -2.857 -2.123 -2.302 -0.789 -0.86 -3.132 -3.242 -0.8 -0.764 -1.487 -1.38 -0.697 -0.628 -1.287 -1.099 -0.553 -0.456 -0.508 -0.432 -0.436 -0.388 -0.39 -0.35 -0.369 -0.319 -0.319 -0.269 -0.279 -0.224 -0.234 -0.171 -0.192 -0.126 -0.153 -0.09 -0.119 -0.064 -0.115 -0.053 -0.199 -0.092 -0.758 -0.169" />
    <path class="write-flat-pen" fill="#FFFFFF" stroke-width="2.5" __comx="136.793" __comy="320.039" __timestamp="0x177c273408e" d="M129.131 329.323 l0.606 -0.34 0.055 0.014 0.181 -0.055 0.159 -0.048 0.209 -0.093 0.248 -0.134 0.287 -0.178 0.323 -0.221 0.4 -0.293 0.429 -0.348 0.908 -0.816 0.474 -0.465 1.545 -1.58 0.57 -0.632 3.659 -4.737 3.351 -4.799 0.399 -0.605 0.377 -0.572 0.333 -0.509 0.339 -0.512 0.316 -0.508 0.311 -0.518 0.243 -0.57 0.379 -0.864 -0.231 -0.224 -0.852 0.405 -0.568 0.267 -0.52 0.36 -0.505 0.402 -0.499 0.476 -0.455 0.511 -0.459 0.573 -0.444 0.597 -3.354 4.736 -3.561 4.65 -0.481 0.551 -1.466 1.579 -0.415 0.44 -0.805 0.797 -0.345 0.321 -0.335 0.298 -0.266 0.241 -0.213 0.197 -0.16 0.156 -0.108 0.115 -0.091 0.1 -0.02 0.067 -0.038 0.05 -0.694 0.477" />
    <path class="write-flat-pen" fill="#FFFFFF" stroke-width="2.5" __comx="152.453" __comy="320.039" __timestamp="0x177c273434f" d="M149.581 308.44 l0.019 -0.603 0.02 -0.068 0.06 -0.225 0.026 -0.068 0.087 -0.297 0.027 -0.082 0.132 -0.379 0.031 -0.056 0.207 -0.343 0.057 -0.065 0.312 -0.341 0.077 -0.065 0.646 -0.453 0.029 -0.008 0.5 -0.157 0.257 0.003 0.18 0.07 0.263 0.216 0.232 0.386 0.154 0.594 -0.029 0.733 -0.287 0.884 -0.607 1.186 -1.676 2.176 -0.079 0.078 -0.745 0.67 -0.134 0.123 -0.194 0.309 0 0 1.266 1.551 2.759 -0.904 0.272 -0.088 0.299 -0.091 0.304 -0.093 0.289 -0.093 0.285 -0.102 0.283 -0.111 0.279 -0.111 0.325 -0.167 0.913 -0.493 -0.011 -0.197 -0.961 -0.392 -0.356 -0.13 -0.329 -0.065 -0.356 -0.045 -0.354 -0.01 -0.346 0.011 -0.364 0.034 -0.363 0.051 -0.379 0.073 -2.841 0.868 1.266 1.551 0 0 -0.003 -0.034 -0.098 0.089 0.747 -0.772 0.183 -0.202 1.789 -2.453 0.728 -1.495 0.392 -1.287 0.031 -1.269 -0.299 -1.125 -0.552 -0.898 -0.767 -0.613 -0.806 -0.287 -0.907 0.029 -0.896 0.345 -0.282 0.16 -0.815 0.71 -0.197 0.233 -0.342 0.51 -0.125 0.228 -0.213 0.563 -0.052 0.221 -0.06 0.515 -0.002 0.154 0.018 0.337 0.01 0.136 0.061 0.29 0.027 0.093 0.082 0.603" />
    <path class="write-flat-pen" fill="#FFFFFF" stroke-width="2.5" __comx="163.105" __comy="320.039" __timestamp="0x177c27344ce" d="M157.391 321.41 l0.58 -0.195 -0.029 0.024 0.254 0.023 0.176 0.009 0.563 0.003 0.342 -0.007 7.422 -0.493 0.44 -0.053 0.436 -0.071 0.403 -0.075 0.395 -0.136 0.912 -0.313 0.004 -0.217 -0.901 -0.344 -0.396 -0.149 -0.419 -0.08 -0.452 -0.062 -0.481 -0.038 -7.464 0.433 -0.345 0.038 -0.567 0.081 -0.204 0.039 -0.31 0.087 -0.15 0.046 -0.678 0.337" />
    <path class="write-flat-pen" fill="#FFFFFF" stroke-width="2.5" __comx="164.312" __comy="320.039" __timestamp="0x177c27345d4" d="M162.72 316.515 l0.686 2.232 0.536 2.183 0.12 0.49 0.224 1.076 0.107 0.536 0.1 0.53 0.136 0.499 0.11 0.442 0.112 0.462 0.146 0.452 0.107 0.385 0.145 0.343 0.35 0.835 0.159 -0.023 0.104 -0.9 0.044 -0.373 -0.013 -0.421 -0.029 -0.458 0.001 -0.448 -0.017 -0.491 -0.047 -0.501 -0.022 -0.511 -0.046 -0.575 -0.131 -1.142 -0.093 -0.547 -0.482 -2.295 -0.808 -2.277" />
    <path class="write-flat-pen" fill="#FFFFFF" stroke-width="2.5" __comx="183.703" __comy="320.039" __timestamp="0x177c2734793" d="M175.279 328.55 l0.343 -0.529 -0.152 0.135 0.106 -0.001 0.118 -0.012 1.039 -0.124 0.457 -0.037 5.811 -0.382 6.207 -0.707 0.61 -0.084 0.563 -0.086 0.546 -0.102 0.531 -0.11 0.525 -0.108 0.533 -0.177 0.841 -0.278 -0.002 -0.193 -0.847 -0.258 -0.542 -0.164 -0.544 -0.086 -0.567 -0.071 -0.581 -0.03 -0.589 -0.002 -0.646 0.027 -6.196 0.636 -5.8 0.414 -0.539 0.062 -1.174 0.244 -0.289 0.104 -0.335 0.184 -0.241 0.202 -0.413 0.865" />
    <path class="write-flat-pen" fill="#FFFFFF" stroke-width="2.5" __comx="193.926" __comy="320.039" __timestamp="0x177c2734a5e" d="M180.505 325.634 l0.079 -0.62 0.028 -0.013 0.037 -0.007 0.07 -0.064 0.133 -0.163 0.142 -0.162 0.316 -0.42 0.196 -0.266 0.433 -0.615 0.228 -0.322 0.843 -1.157 0.329 -0.433 1.961 -2.369 0.403 -0.471 5.416 -6.482 0.394 -0.483 3.408 -4.441 1.379 -1.578 0.247 -0.163 -0.111 0.03 -0.174 -0.053 0.658 0.865 0.088 0.159 2.613 5.443 0.297 0.694 1.874 4.564 1.977 4.17 2.141 3.827 0.217 0.297 0.162 0.214 0.14 0.173 0.106 0.135 0.154 0.158 0.093 0.072 0.101 0.084 0.065 0.042 1.14 0.48 0.189 -0.105 0.193 -1.222 0.008 -0.061 -0.013 -0.131 -0.049 -0.183 -0.08 -0.213 -0.07 -0.174 -0.144 -0.264 -0.15 -0.252 -0.145 -0.232 -2.014 -3.692 -1.915 -4.052 -1.859 -4.525 -0.327 -0.759 -2.718 -5.542 -0.22 -0.373 -1.179 -1.424 -0.941 -0.345 -0.936 0.172 -0.845 0.598 -1.585 1.836 -3.412 4.483 -0.366 0.453 -5.349 6.515 -0.403 0.488 -1.943 2.47 -0.354 0.503 -0.809 1.237 -0.222 0.366 -0.38 0.663 -0.167 0.305 -0.234 0.483 -0.125 0.268 -0.093 0.32 -0.054 0.242 -0.003 0.19 0.012 0.113 0.016 0.668" />
    <path class="write-flat-pen" fill="#FFFFFF" stroke-width="2.5" __comx="209.468" __comy="320.039" __timestamp="0x177c2734c47" d="M198.358 328.088 l0.597 0.031 0.053 0.032 0.072 0.037 0.097 0.042 0.134 0.046 0.223 0.064 0.3 0.072 0.34 0.073 0.412 0.072 0.422 0.059 0.887 0.095 0.536 0.045 1.117 0.064 0.553 0.024 1.161 0.04 0.66 -0.005 1.284 -0.036 0.628 -0.03 3.763 -0.074 0.56 0.006 3.275 0.228 0.466 0.042 0.499 0.064 0.503 0.068 0.571 0.073 0.528 0.026 0.552 0.023 0.544 -0.019 0.506 -0.111 0.938 -0.217 0.041 -0.251 -0.822 -0.501 -0.432 -0.263 -0.456 -0.202 -0.519 -0.218 -0.509 -0.156 -0.52 -0.164 -0.519 -0.145 -0.57 -0.134 -0.575 -0.093 -3.403 -0.292 -0.678 -0.006 -3.842 0.135 -0.649 0.052 -1.247 0.085 -0.604 0.036 -1.118 0.031 -0.536 0.014 -1.084 0.018 -0.501 -0.002 -0.857 -0.01 -0.384 -0.009 -0.38 -0.014 -0.33 -0.014 -0.306 -0.007 -0.258 0.001 -0.199 0.015 -0.166 0.029 -0.105 0.037 -0.053 0.032 -0.597 0.031" />
    <path class="write-flat-pen" fill="#BF7CED" stroke-width="2.5" __comx="176.618" __comy="277.796" __timestamp="0x177c2736100" d="M151.73 288.056 l-0.64 -0.291 0.084 0.032 0.085 0.042 0.073 0.124 0.029 0.099 0.025 0.022 0.079 -0.078 0.173 -0.162 0.722 -0.569 0.5 -0.311 3.245 -1.626 0.974 -0.409 5.249 -1.862 1.562 -0.523 9.003 -2.962 1.987 -0.683 6.213 -2.216 6.173 -2.51 5.981 -2.773 1.978 -0.935 1.948 -0.965 1.898 -1.001 1.887 -1.044 1.834 -1.216 0.501 -0.287 -0.253 -0.536 -0.54 0.205 -2.103 0.643 -2.012 0.787 -1.966 0.847 -1.978 0.853 -2.006 0.861 -5.976 2.692 -6.093 2.478 -6.156 2.218 -1.962 0.688 -8.972 3.034 -1.579 0.547 -5.29 1.96 -1.075 0.472 -3.343 1.783 -0.647 0.452 -0.842 0.787 -0.297 0.398 -0.173 0.359 -0.083 0.357 0.028 0.352 0.14 0.318 0.242 0.22 0.192 0.105 0.821 0.234" />
    <path class="write-flat-pen" fill="#BF7CED" stroke-width="2.5" __comx="144.87" __comy="318.013" __timestamp="0x177c2736606" d="M123.273 335.257 l0.027 -0.591 0.023 0.027 0.076 -0.101 0.042 -0.048 0.087 -0.108 0.117 -0.16 0.163 -0.212 0.202 -0.252 0.258 -0.295 0.314 -0.346 0.828 -0.865 0.498 -0.496 1.166 -1.139 0.671 -0.628 3.323 -3.086 2.057 -1.88 5.717 -5.182 5.439 -4.684 5.817 -4.613 4.042 -3.014 6.427 -4.377 1.472 -0.98 1.417 -0.943 1.331 -0.912 1.279 -0.914 1.089 -1.051 0.519 -0.444 -0.249 -0.424 -0.64 0.238 -1.444 0.439 -1.44 0.663 -1.447 0.778 -1.49 0.873 -1.531 0.955 -6.524 4.363 -4.108 3.064 -5.868 4.67 -5.481 4.745 -5.714 5.233 -2.059 1.903 -3.295 3.149 -0.679 0.672 -1.149 1.212 -0.503 0.55 -0.818 0.967 -0.324 0.431 -0.268 0.397 -0.205 0.363 -0.154 0.321 -0.097 0.259 -0.081 0.257 -0.028 0.189 -0.009 0.237 0.008 0.158 0.079 0.68" />
    <path class="write-flat-pen" fill="#FFFFFF" stroke-width="1.8" __comx="263.079" __comy="293.361" __timestamp="0x177c2737981" d="M257.622 287.452 l0.106 -0.478 -0.072 0.156 0.021 0.043 0.033 0.012 0.117 -0.02 0.181 -0.033 0.267 -0.044 0.324 -0.048 0.706 -0.127 0.365 -0.044 1.828 -0.164 2.369 -0.042 2.134 0.256 0.336 0.066 0.337 0.071 0.349 0.08 0.29 0.047 0.315 0.063 0.253 0.034 0.292 0.054 0.245 0.01 0.976 0.005 0.053 -0.152 -0.765 -0.606 -0.18 -0.139 -0.261 -0.165 -0.236 -0.128 -0.308 -0.164 -0.294 -0.12 -0.335 -0.139 -0.369 -0.127 -0.425 -0.123 -2.32 -0.347 -2.55 0.049 -1.921 0.225 -0.445 0.079 -0.735 0.195 -0.337 0.092 -0.326 0.11 -0.254 0.112 -0.199 0.114 -0.176 0.127 -0.198 0.24 -0.091 0.193 -0.015 0.684" />
    <path class="write-flat-pen" fill="#FFFFFF" stroke-width="1.8" __comx="264.896" __comy="293.361" __timestamp="0x177c2737a89" d="M259.618 290.967 l-0.973 0.463 -0.057 0.363 0.382 0.209 0.226 0.113 0.197 0.066 0.499 0.119 0.372 0.062 2.888 0.235 4.509 0.03 0.537 -0.018 0.557 -0.031 0.54 -0.046 0.524 -0.054 0.509 -0.113 0.871 -0.197 0.006 -0.212 -0.859 -0.246 -0.503 -0.142 -0.521 -0.082 -0.539 -0.074 -0.559 -0.056 -0.541 -0.039 -4.473 -0.109 -2.818 -0.161 -0.314 -0.025 -0.452 -0.038 -0.128 -0.007 -0.126 0.005 0.301 0.17 -0.056 0.328 0.001 0.463" />
    <path class="write-flat-pen" fill="#FFFFFF" stroke-width="1.8" __comx="317.189" __comy="293.361" __timestamp="0x177c2737dee" d="M311.473 280.116 l-0.028 0.558 0.06 0.154 0.075 0.216 0.123 0.157 0.169 0.177 0.153 0.113 0.325 0.175 0.24 0.085 0.487 0.109 0.398 -0.003 1.102 -0.209 0.487 -0.189 1.374 -0.709 1.853 -1.232 0 0 1.747 -1.472 0 0 2.838 -3.131 0 0 -1.202 -0.974 -0.711 1.014 -0.844 1.566 -0.672 1.878 -0.415 2.355 -0.214 2.466 -0.025 2.609 0.507 6.423 0.58 3.657 0.071 0.261 0.146 0.401 0.071 0.198 0.113 0.232 0.081 0.171 0.107 0.19 0.073 0.129 0.11 0.161 0.082 0.123 0.107 0.12 0.114 0.134 0.145 0.115 0.827 0.53 0.122 -0.083 -0.191 -0.964 -0.019 -0.126 -0.025 -0.133 -0.025 -0.113 -0.012 -0.097 -0.037 -0.165 -0.022 -0.122 -0.045 -0.187 -0.035 -0.17 -0.054 -0.209 -0.028 -0.157 -0.091 -0.387 -0.029 -0.156 -0.516 -3.541 -0.509 -6.295 0.001 -2.48 0.178 -2.339 0.356 -2.163 0.569 -1.65 0.738 -1.376 0.678 -0.915 -1.202 -0.974 0 0 -2.786 3.044 0 0 -1.591 1.366 0 0 -1.702 1.154 -1.222 0.661 -0.298 0.129 -0.85 0.23 -0.134 0.024 -0.285 -0.011 -0.103 -0.008 -0.197 -0.04 -0.036 0 -0.111 -0.041 -0.03 0.009 -0.088 -0.04 0.01 0.066 -0.086 -0.345" />
    <path class="write-flat-pen" fill="#FFFFFF" stroke-width="1.8" __comx="324.409" __comy="293.361" __timestamp="0x177c2737f2c" d="M312.858 296.948 l-0.944 -0.213 -0.233 0.131 -0.047 1.016 0.243 0.248 0.302 0.14 1.643 0.497 0.615 0.1 3.455 0.289 0.762 0.028 3.963 -0.012 7.309 -0.467 0.788 -0.054 0.809 -0.062 0.752 -0.054 0.709 -0.056 0.719 -0.064 0.705 -0.073 0.685 -0.079 0.658 -0.059 0.649 -0.061 0.772 -0.071 0.013 -0.129 -0.741 -0.228 -0.65 -0.196 -0.693 -0.089 -0.696 -0.078 -0.707 -0.07 -0.723 -0.057 -0.719 -0.043 -0.776 -0.025 -0.83 0.005 -0.805 0.018 -7.28 0.432 -3.892 0.031 -0.701 -0.016 -3.372 -0.214 -0.476 -0.062 -1.495 -0.372 -0.062 -0.013 -0.154 -0.066 -0.047 1.016 -0.187 0.101 0.489 0.034" />
    <path class="write-flat-pen" fill="#FFFFFF" stroke-width="1.8" __comx="328.326" __comy="293.361" __timestamp="0x177c2738248" d="M292.274 305.085 l0.612 -0.22 0.166 -0.005 3.907 -0.012 0.91 0.005 6.519 0.107 1.209 0.009 6.367 -0.066 1.414 -0.035 10.149 -0.282 6.277 -0.039 11.624 0.367 9.004 0.424 1.346 0.044 2.584 0.12 1.233 0.074 1.174 0.026 1.136 0.073 1.103 0.022 1.098 0.066 1.042 0.014 1.017 0.048 0.981 0.017 0.942 -0.021 0.645 -0.013 0.011 -0.1 -0.628 -0.148 -0.926 -0.22 -0.974 -0.114 -1.009 -0.157 -1.032 -0.12 -1.092 -0.164 -1.098 -0.111 -1.133 -0.155 -1.178 -0.098 -1.221 -0.136 -2.603 -0.216 -1.353 -0.077 -9.01 -0.497 -11.665 -0.375 -6.322 0.043 -10.164 0.346 -1.404 0.052 -6.345 0.158 -1.193 0.007 -6.521 -0.012 -0.924 0.007 -3.966 0.119 -0.366 0.059 -0.709 0.378" />
    <path class="write-flat-pen" fill="#FFFFFF" stroke-width="1.8" __comx="312.813" __comy="322.851" __timestamp="0x177c27386d2" d="M303.582 313.02 l0.563 -0.017 -0.036 0.01 0.289 0.193 0.203 0.15 0.262 0.199 0.306 0.241 0.729 0.591 0.392 0.334 0.894 0.764 0.476 0.417 1.548 1.418 0.548 0.525 2.504 2.496 5.456 6.247 2.224 2.115 0.271 0.163 0.363 0.172 0.169 0.06 0.23 0.057 0.194 0.003 0.17 0.002 0.232 -0.125 0.602 -0.609 -0.017 -0.115 -0.755 -0.403 -0.072 -0.079 0.069 -0.011 -0.017 -0.04 -0.057 -0.053 -0.065 -0.047 -0.243 -0.161 -0.084 -0.064 -2.028 -1.99 -5.447 -6.243 -2.586 -2.529 -0.59 -0.542 -1.621 -1.398 -0.518 -0.419 -0.947 -0.732 -0.439 -0.327 -0.814 -0.551 -0.365 -0.225 -0.323 -0.181 -0.291 -0.146 -0.451 -0.167 -0.275 -0.064 -0.776 0.162" />
    <path class="write-flat-pen" fill="#FFFFFF" stroke-width="1.8" __comx="314.335" __comy="322.851" __timestamp="0x177c27387d0" d="M308.029 327.902 l-0.094 -0.335 -0.029 0.221 -0.013 0.062 0.111 -0.067 0.141 -0.095 0.242 -0.181 0.329 -0.261 0.399 -0.329 0.984 -0.847 0.573 -0.511 1.96 -1.869 0.687 -0.695 5.687 -6.243 0.474 -0.581 0.43 -0.554 0.384 -0.529 0.343 -0.502 0.303 -0.475 0.293 -0.444 0.233 -0.433 0.395 -0.754 -0.104 -0.098 -0.729 0.439 -0.419 0.26 -0.433 0.335 -0.445 0.371 -0.459 0.413 -0.466 0.464 -0.481 0.5 -0.497 0.531 -5.685 6.184 -0.646 0.67 -1.893 1.876 -0.536 0.507 -0.937 0.88 -0.371 0.354 -0.303 0.301 -0.229 0.245 -0.157 0.197 -0.112 0.193 -0.085 0.159 -0.067 0.342 0.289 0.659" />
    <path class="write-flat-pen" fill="#FFFFFF" stroke-width="1.8" __comx="330.424" __comy="322.851" __timestamp="0x177c2738960" d="M325.706 322.281 l-0.232 -0.58 0.014 0.012 0.045 0.024 0.02 0.18 -0.022 0.127 -0.098 0.124 0.315 -0.091 0.133 -0.017 1.493 -0.041 5.91 0.529 0.387 0.026 0.364 0.016 0.368 0.004 0.353 -0.011 0.305 -0.02 0.291 -0.023 0.248 -0.043 0.945 -0.191 0.018 -0.123 -0.848 -0.459 -0.23 -0.114 -0.282 -0.102 -0.297 -0.099 -0.346 -0.097 -0.362 -0.084 -0.361 -0.07 -0.401 -0.065 -6.023 -0.582 -1.702 0.09 -0.392 0.084 -0.675 0.334 -0.234 0.261 -0.13 0.366 0.02 0.306 0.113 0.214 0.029 0.042 0.322 0.539" />
    <path class="write-flat-pen" fill="#FFFFFF" stroke-width="1.8" __comx="331.014" __comy="322.851" __timestamp="0x177c2738a3d" d="M330.228 317.187 l-0.114 0.547 -0.034 0.118 -0.058 0.395 -0.022 0.291 -0.007 1.688 0.708 4.487 0.131 0.466 0.11 0.405 0.162 0.413 0.158 0.338 0.151 0.259 0.464 0.788 0.14 -0.037 0.018 -0.914 0 -0.316 -0.059 -0.369 -0.051 -0.383 -0.036 -0.397 -0.073 -0.459 -0.601 -4.38 -0.051 -1.584 -0.009 -0.257 -0.023 -0.359 -0.014 -0.082 0.023 -0.545" />
    <path class="write-flat-pen" fill="#FFFFFF" stroke-width="1.8" __comx="345.512" __comy="322.851" __timestamp="0x177c2738bca" d="M338.652 328.21 l0.155 -0.305 -0.235 0.135 -0.049 0.052 0.048 0.029 0.108 0.026 0.166 0.025 0.203 0.02 0.281 0.018 0.741 0.026 0.484 0.009 8.698 -0.333 0.534 -0.027 0.54 -0.019 0.567 0.009 0.526 -0.018 0.496 0.003 0.491 -0.055 0.867 -0.112 0.024 -0.156 -0.791 -0.371 -0.443 -0.201 -0.498 -0.169 -0.543 -0.126 -0.6 -0.122 -0.615 -0.058 -0.583 -0.023 -8.698 0.279 -0.46 0.011 -0.745 0.032 -0.286 0.022 -0.209 0.025 -0.175 0.03 -0.122 0.032 -0.105 0.035 -0.177 0.069 -0.246 0.141 -0.273 0.651" />
    <path class="write-flat-pen" fill="#FFFFFF" stroke-width="1.8" __comx="355.762" __comy="322.851" __timestamp="0x177c2738e39" d="M344.313 326.326 l-0.023 -0.497 0.018 -0.091 0.021 -0.165 0.01 -0.106 0.018 -0.163 0.017 -0.1 0.041 -0.235 0.026 -0.101 0.096 -0.325 0.045 -0.136 0.144 -0.361 0.1 -0.194 0.403 -0.708 0.153 -0.229 1.436 -1.966 0.274 -0.386 2.292 -3.334 2.789 -4.612 0 0 0.619 -1.34 0 0 0.143 -0.769 0 0 -1.606 -0.217 -0.044 0.79 0.33 1.403 0.56 1.365 1.122 1.938 1.6 1.955 3.268 3.259 6.017 5.246 0.405 0.354 0.708 0.644 0.332 0.306 0.309 0.282 0.302 0.258 0.281 0.231 0.25 0.202 0.25 0.19 0.234 0.177 0.184 0.113 0.836 0.487 0.104 -0.085 -0.316 -0.914 -0.083 -0.212 -0.16 -0.277 -0.181 -0.281 -0.2 -0.279 -0.243 -0.301 -0.257 -0.299 -0.272 -0.313 -0.32 -0.35 -0.701 -0.711 -0.419 -0.391 -5.951 -5.261 -3.176 -3.165 -1.471 -1.788 -1.008 -1.728 -0.473 -1.144 -0.243 -1.043 0.048 -0.548 -1.606 -0.217 0 0 -0.129 0.574 0 0 -0.503 1.081 0 0 -2.714 4.498 -2.243 3.301 -0.259 0.376 -1.414 2.029 -0.197 0.329 -0.404 0.837 -0.126 0.326 -0.128 0.513 -0.034 0.227 -0.038 0.424 0.001 0.202 0.028 0.309 0.026 0.17 0.054 0.21 0.04 0.118 0.063 0.15 0.04 0.082 0.104 0.489" />
    <path class="write-flat-pen" fill="#FFFFFF" stroke-width="1.8" __comx="368.774" __comy="328.853" __timestamp="0x177c2739658" d="M361.589 329.443 l0.007 -0.257 -0.157 0.229 -0.061 0.069 0.036 0.024 0.138 0.006 0.23 -0.002 0.319 -0.001 0.406 0 1.151 -0.016 0.639 -0.001 3.587 0.058 5.312 0.24 0.541 0.013 0.517 0.006 0.485 -0.011 0.46 -0.023 0.429 -0.041 0.398 -0.086 0.895 -0.205 0.012 -0.179 -0.858 -0.326 -0.384 -0.14 -0.413 -0.095 -0.448 -0.097 -0.482 -0.079 -0.515 -0.072 -0.554 -0.059 -5.347 -0.319 -3.637 -0.027 -0.677 0.02 -1.177 0.084 -0.439 0.049 -0.38 0.067 -0.29 0.083 -0.191 0.078 -0.155 0.08 -0.173 0.128 -0.197 0.277 0.157 0.656" />
  </g>
</svg>
