<svg class="write-page" width="1010px" height="1628px" xmlns="http://www.w3.org/2000/svg" xmlns:xlink="http://www.w3.org/1999/xlink">
  <g class="write-content write-v3" width="1010" height="1628" xruling="30" yruling="30" marginLeft="30" papercolor="#1B1C1C" rulecolor="#3A00F9FF">
    <g class="ruleline write-std-ruling write-scale-down" fill="none" stroke="#00F9FF" stroke-opacity="0.227" stroke-width="1" shape-rendering="crispEdges" vector-effect="non-scaling-stroke">
      <rect class="pagerect" fill="#1B1C1C" stroke="none" x="0" y="0" width="1010" height="1628" />
      <path class="yrule_1" d="M0 30 l1010 0" />
      <path d="M0 60 l1010 0" />
      <path d="M0 90 l1010 0" />
      <path d="M0 120 l1010 0" />
      <path d="M0 150 l1010 0" />
      <path d="M0 180 l1010 0" />
      <path d="M0 210 l1010 0" />
      <path d="M0 240 l1010 0" />
      <path d="M0 270 l1010 0" />
      <path d="M0 300 l1010 0" />
      <path d="M0 330 l1010 0" />
      <path d="M0 360 l1010 0" />
      <path d="M0 390 l1010 0" />
      <path d="M0 420 l1010 0" />
      <path d="M0 450 l1010 0" />
      <path d="M0 480 l1010 0" />
      <path d="M0 510 l1010 0" />
      <path d="M0 540 l1010 0" />
      <path d="M0 570 l1010 0" />
      <path d="M0 600 l1010 0" />
      <path d="M0 630 l1010 0" />
      <path d="M0 660 l1010 0" />
      <path d="M0 690 l1010 0" />
      <path d="M0 720 l1010 0" />
      <path d="M0 750 l1010 0" />
      <path d="M0 780 l1010 0" />
      <path d="M0 810 l1010 0" />
      <path d="M0 840 l1010 0" />
      <path d="M0 870 l1010 0" />
      <path d="M0 900 l1010 0" />
      <path d="M0 930 l1010 0" />
      <path d="M0 960 l1010 0" />
      <path d="M0 990 l1010 0" />
      <path d="M0 1020 l1010 0" />
      <path d="M0 1050 l1010 0" />
      <path d="M0 1080 l1010 0" />
      <path d="M0 1110 l1010 0" />
      <path d="M0 1140 l1010 0" />
      <path d="M0 1170 l1010 0" />
      <path d="M0 1200 l1010 0" />
      <path d="M0 1230 l1010 0" />
      <path d="M0 1260 l1010 0" />
      <path d="M0 1290 l1010 0" />
      <path d="M0 1320 l1010 0" />
      <path d="M0 1350 l1010 0" />
      <path d="M0 1380 l1010 0" />
      <path d="M0 1410 l1010 0" />
      <path d="M0 1440 l1010 0" />
      <path d="M0 1470 l1010 0" />
      <path d="M0 1500 l1010 0" />
      <path d="M0 1530 l1010 0" />
      <path d="M0 1560 l1010 0" />
      <path d="M0 1590 l1010 0" />
      <path d="M0 1620 l1010 0" />
      <path class="xrule_1" d="M30 0 l0 1628" />
      <path d="M60 0 l0 1628" />
      <path d="M90 0 l0 1628" />
      <path d="M120 0 l0 1628" />
      <path d="M150 0 l0 1628" />
      <path d="M180 0 l0 1628" />
      <path d="M210 0 l0 1628" />
      <path d="M240 0 l0 1628" />
      <path d="M270 0 l0 1628" />
      <path d="M300 0 l0 1628" />
      <path d="M330 0 l0 1628" />
      <path d="M360 0 l0 1628" />
      <path d="M390 0 l0 1628" />
      <path d="M420 0 l0 1628" />
      <path d="M450 0 l0 1628" />
      <path d="M480 0 l0 1628" />
      <path d="M510 0 l0 1628" />
      <path d="M540 0 l0 1628" />
      <path d="M570 0 l0 1628" />
      <path d="M600 0 l0 1628" />
      <path d="M630 0 l0 1628" />
      <path d="M660 0 l0 1628" />
      <path d="M690 0 l0 1628" />
      <path d="M720 0 l0 1628" />
      <path d="M750 0 l0 1628" />
      <path d="M780 0 l0 1628" />
      <path d="M810 0 l0 1628" />
      <path d="M840 0 l0 1628" />
      <path d="M870 0 l0 1628" />
      <path d="M900 0 l0 1628" />
      <path d="M930 0 l0 1628" />
      <path d="M960 0 l0 1628" />
      <path d="M990 0 l0 1628" />
      <path class="leftmargin" stroke="#FF0000" d="M30 0 l0 1628" />
    </g>
    <path class="write-flat-pen" fill="#FFFFFF" stroke-width="1.6" __comx="305.937" __comy="142.244" __timestamp="0x17a10eb1cba" d="M91.345 162.155 l-0.745 0.572 -0.896 0.752 -0.793 0.74 -0.656 0.714 -0.607 0.79 -0.434 0.716 -0.318 0.629 -0.219 0.518 -0.125 0.336 -0.081 0.414 0.003 0.43 0.215 0.575 0.659 0.411 1.066 -0.078 1.483 -0.687 1.902 -1.315 2.341 -1.918 2.602 -2.391 2.972 -2.779 3.378 -3.13 3.533 -3.373 3.844 -3.608 3.972 -3.717 4.223 -3.923 4.457 -4.07 4.609 -4.011 4.87 -4.064 4.927 -3.891 4.955 -3.684 4.94 -3.433 4.732 -3.193 4.657 -2.887 4.459 -2.616 4.245 -2.326 4.093 -2.051 3.84 -1.79 3.571 -1.51 3.348 -1.178 3.034 -0.823 2.804 -0.572 2.452 -0.246 2.168 -0.095 1.885 0.206 1.642 0.418 1.46 0.644 1.334 0.944 1.234 1.308 1.02 1.634 0.704 1.989 0.509 2.447 0.292 2.898 -0.065 3.147 -0.37 3.44 -0.606 3.646 -0.804 3.851 -0.916 4.037 -0.965 3.995 -1.008 4.208 -1.024 4.119 -1.097 4.065 -1.127 4.063 -1.047 3.875 -0.998 3.779 -0.886 3.674 -0.693 3.563 -0.557 3.364 -0.281 3.153 -0.118 2.786 0.017 2.521 0.42 2.301 0.666 2.025 0.907 1.711 1.27 1.57 1.636 1.313 2.111 1.017 2.661 0.647 3.14 0.36 3.497 -0.281 3.834 -0.672 4.028 -1.029 4.268 -1.342 4.562 -1.637 4.717 -1.816 4.84 -1.97 4.908 -2.074 5.092 -2.11 5.118 -2.093 5.281 -2.143 5.294 -2.053 5.341 -1.999 5.189 -1.807 5.06 -1.539 4.898 -1.252 4.692 -0.964 4.501 -0.752 4.23 -0.489 3.932 -0.159 3.573 -0.057 3.233 0.284 2.908 0.535 2.609 0.78 2.347 0.978 2.089 1.212 1.83 1.388 1.588 1.55 1.338 1.675 1.203 1.895 1.047 2.049 0.885 2.144 0.848 2.323 0.762 2.285 0.749 2.271 0.807 2.216 0.881 2.138 1.031 2.1 1.203 1.93 1.47 1.879 1.697 1.751 1.926 1.613 2.139 1.517 2.311 1.374 2.593 1.252 2.824 1.089 3.101 0.898 3.318 0.705 3.42 0.542 3.631 0.328 3.839 0.229 3.859 0.119 4.135 0.045 4.291 0.011 4.331 -0.33 4.519 -0.391 4.554 -0.509 4.713 -0.621 4.864 -0.728 5.013 -0.832 5.099 -0.931 5.127 -0.99 5.22 -1.01 5.251 -0.937 5.244 -0.916 5.295 -0.84 5.237 -0.814 5.244 -0.808 5.248 -0.805 5.37 -0.845 5.469 -0.816 5.396 -0.834 5.453 -0.807 5.393 -0.83 5.392 -0.801 5.395 -0.796 5.391 -0.761 5.512 -0.766 5.673 -0.739 5.706 -0.737 6.046 -0.725 6.233 -0.676 6.423 -0.555 1.658 -0.143 -0.005 -0.066 -1.662 0.089 -6.443 0.343 -6.252 0.563 -6.064 0.618 -5.719 0.666 -5.683 0.693 -5.52 0.739 -5.397 0.75 -5.398 0.794 -5.394 0.802 -5.393 0.829 -5.454 0.803 -5.397 0.827 -5.471 0.804 -5.374 0.828 -5.249 0.781 -5.249 0.779 -5.243 0.78 -5.309 0.806 -5.259 0.883 -5.265 0.906 -5.233 0.98 -5.127 0.96 -5.091 0.901 -5.001 0.802 -4.85 0.698 -4.696 0.593 -4.532 0.48 -4.501 0.367 -4.28 0.309 -4.241 -0.024 -4.119 -0.052 -3.83 -0.121 -3.803 -0.228 -3.572 -0.322 -3.349 -0.53 -3.246 -0.686 -3.012 -0.867 -2.735 -1.045 -2.51 -1.197 -2.235 -1.311 -2.074 -1.45 -1.857 -1.533 -1.625 -1.656 -1.405 -1.779 -1.148 -1.828 -0.995 -2.016 -0.863 -2.083 -0.798 -2.177 -0.749 -2.255 -0.773 -2.299 -0.867 -2.356 -0.917 -2.201 -1.094 -2.128 -1.264 -1.98 -1.417 -1.767 -1.682 -1.637 -1.933 -1.463 -2.202 -1.278 -2.459 -1.027 -2.713 -0.816 -3.011 -0.559 -3.336 -0.3 -3.641 0.051 -3.985 0.156 -4.297 0.494 -4.547 0.758 -4.737 0.97 -4.947 1.259 -5.106 1.547 -5.222 1.817 -5.357 2.011 -5.304 2.068 -5.286 2.154 -5.12 2.099 -5.096 2.115 -4.904 2.076 -4.822 1.972 -4.692 1.821 -4.527 1.64 -4.218 1.344 -3.961 1.029 -3.75 0.676 -3.36 0.292 -2.996 -0.318 -2.522 -0.587 -1.948 -0.913 -1.5 -1.18 -1.174 -1.427 -0.845 -1.573 -0.634 -1.904 -0.403 -2.177 -0.02 -2.431 0.112 -2.748 0.274 -3.105 0.547 -3.325 0.684 -3.535 0.876 -3.65 0.991 -3.77 1.042 -3.872 1.121 -4.065 1.095 -4.076 1.023 -4.13 1.006 -4.211 0.966 -4 0.918 -4.049 0.809 -3.872 0.612 -3.683 0.375 -3.494 0.065 -3.225 -0.303 -2.982 -0.53 -2.534 -0.75 -2.112 -1.103 -1.765 -1.336 -1.415 -1.455 -1.029 -1.584 -0.699 -1.752 -0.447 -1.993 -0.218 -2.246 0.098 -2.51 0.252 -2.863 0.585 -3.083 0.837 -3.395 1.195 -3.605 1.525 -3.861 1.802 -4.112 2.066 -4.263 2.342 -4.472 2.631 -4.671 2.906 -4.742 3.212 -4.948 3.45 -4.966 3.705 -4.934 3.913 -4.874 4.083 -4.611 4.03 -4.457 4.086 -4.218 3.934 -3.965 3.727 -3.838 3.619 -3.523 3.381 -3.368 3.136 -2.965 2.785 -2.584 2.383 -2.309 1.896 -1.845 1.274 -1.348 0.621 -0.783 0.053 -0.339 -0.216 -0.109 -0.302 0.001 -0.272 0.063 -0.312 0.105 -0.28 0.208 -0.488 0.299 -0.592 0.404 -0.671 0.57 -0.748 0.62 -0.683 0.761 -0.722 0.868 -0.746 0.725 -0.58" />
    <path class="write-flat-pen" fill="#FFFFFF" stroke-width="1.6" __comx="424.364" __comy="278.348" __timestamp="0x17a10eb1ed4" d="M287.024 286.09 l-0.924 -1.394 -0.91 -1.528 -0.643 -1.234 -0.357 -0.955 -0.252 -0.939 -0.183 -0.971 -0.028 -1.047 0.15 -1.124 0.362 -1.237 0.657 -1.321 1.019 -1.403 1.352 -1.439 1.749 -1.506 2.015 -1.444 2.413 -1.511 2.711 -1.529 2.921 -1.505 3.235 -1.51 3.29 -1.356 3.442 -1.248 3.587 -1.107 3.559 -0.905 3.494 -0.704 3.612 -0.524 3.434 -0.203 3.237 -0.082 3.193 0.046 2.895 0.356 2.808 0.519 2.585 0.728 2.371 0.938 2.236 1.203 2.015 1.467 1.86 1.76 1.589 1.932 1.333 2.112 1.147 2.379 0.949 2.637 0.743 2.892 0.569 3.021 0.322 3.138 0.235 3.335 0.163 3.501 0.127 3.541 0.112 3.586 0.104 3.517 0.127 3.362 0.392 3.3 0.487 3.062 0.635 2.896 0.892 2.773 1.152 2.533 1.479 2.331 1.899 2.145 2.46 1.919 3.136 1.617 3.819 1.192 4.576 0.607 5.304 0.23 5.993 -0.608 6.578 -1.057 7.138 -1.451 7.528 -1.769 8.002 -2.037 8.418 -2.198 8.619 -2.287 8.844 -2.246 8.971 -2.144 8.881 -1.941 8.936 -1.709 8.814 -1.463 8.645 -1.13 8.255 -0.701 7.801 -0.186 7.297 -0.042 6.494 0.376 5.808 0.701 5.114 0.93 4.44 1.173 3.867 1.317 3.326 1.498 2.995 1.699 2.596 1.832 2.307 1.995 2.066 2.094 1.817 2.194 1.659 2.383 1.479 2.429 1.408 2.533 1.393 2.536 1.521 2.554 1.71 2.508 1.945 2.368 1.718 2.093 0.059 -0.046 -1.593 -2.19 -1.792 -2.466 -1.592 -2.546 -1.407 -2.589 -1.309 -2.572 -1.352 -2.586 -1.449 -2.498 -1.652 -2.468 -1.834 -2.286 -2.094 -2.183 -2.351 -2.086 -2.661 -1.924 -3.069 -1.784 -3.409 -1.575 -3.947 -1.385 -4.518 -1.235 -5.192 -0.99 -5.882 -0.755 -6.577 -0.422 -7.354 0.003 -7.859 0.151 -8.336 0.675 -8.708 1.114 -8.861 1.454 -8.976 1.712 -8.914 1.955 -8.994 2.154 -8.862 2.253 -8.624 2.288 -8.411 2.194 -7.984 2.034 -7.491 1.768 -7.084 1.457 -6.503 1.073 -5.846 0.63 -5.144 -0.179 -4.409 -0.54 -3.616 -1.086 -2.95 -1.479 -2.303 -1.75 -1.787 -1.968 -1.41 -2.167 -1.113 -2.39 -0.874 -2.654 -0.627 -2.81 -0.484 -3.007 -0.387 -3.235 -0.125 -3.313 -0.103 -3.513 -0.111 -3.59 -0.126 -3.549 -0.162 -3.52 -0.234 -3.365 -0.325 -3.201 -0.58 -3.103 -0.762 -2.978 -0.985 -2.74 -1.198 -2.487 -1.403 -2.224 -1.676 -2.04 -1.962 -1.857 -2.133 -1.554 -2.359 -1.27 -2.484 -0.984 -2.689 -0.758 -2.891 -0.537 -2.989 -0.37 -3.276 -0.049 -3.279 0.082 -3.5 0.206 -3.689 0.535 -3.552 0.715 -3.614 0.918 -3.641 1.122 -3.492 1.262 -3.338 1.371 -3.28 1.528 -2.961 1.522 -2.753 1.55 -2.467 1.542 -2.087 1.491 -1.836 1.577 -1.445 1.537 -1.117 1.543 -0.739 1.502 -0.405 1.421 -0.162 1.302 0.047 1.226 0.221 1.098 0.292 1.025 0.415 1.058 0.704 1.307 0.953 1.563 0.946 1.408" />
  </g>
</svg>
