<svg class="write-page" width="1010px" height="1628px" xmlns="http://www.w3.org/2000/svg" xmlns:xlink="http://www.w3.org/1999/xlink">
  <g class="write-content write-v3" width="1010" height="1628" xruling="30" yruling="30" marginLeft="30" papercolor="#1B1C1C" rulecolor="#3A00F9FF">
    <g class="ruleline write-std-ruling write-scale-down" fill="none" stroke="#00F9FF" stroke-opacity="0.227" stroke-width="1" shape-rendering="crispEdges" vector-effect="non-scaling-stroke">
      <rect class="pagerect" fill="#1B1C1C" stroke="none" x="0" y="0" width="1010" height="1628" />
      <path class="yrule_1" d="M0 30 l1010 0" />
      <path d="M0 60 l1010 0" />
      <path d="M0 90 l1010 0" />
      <path d="M0 120 l1010 0" />
      <path d="M0 150 l1010 0" />
      <path d="M0 180 l1010 0" />
      <path d="M0 210 l1010 0" />
      <path d="M0 240 l1010 0" />
      <path d="M0 270 l1010 0" />
      <path d="M0 300 l1010 0" />
      <path d="M0 330 l1010 0" />
      <path d="M0 360 l1010 0" />
      <path d="M0 390 l1010 0" />
      <path d="M0 420 l1010 0" />
      <path d="M0 450 l1010 0" />
      <path d="M0 480 l1010 0" />
      <path d="M0 510 l1010 0" />
      <path d="M0 540 l1010 0" />
      <path d="M0 570 l1010 0" />
      <path d="M0 600 l1010 0" />
      <path d="M0 630 l1010 0" />
      <path d="M0 660 l1010 0" />
      <path d="M0 690 l1010 0" />
      <path d="M0 720 l1010 0" />
      <path d="M0 750 l1010 0" />
      <path d="M0 780 l1010 0" />
      <path d="M0 810 l1010 0" />
      <path d="M0 840 l1010 0" />
      <path d="M0 870 l1010 0" />
      <path d="M0 900 l1010 0" />
      <path d="M0 930 l1010 0" />
      <path d="M0 960 l1010 0" />
      <path d="M0 990 l1010 0" />
      <path d="M0 1020 l1010 0" />
      <path d="M0 1050 l1010 0" />
      <path d="M0 1080 l1010 0" />
      <path d="M0 1110 l1010 0" />
      <path d="M0 1140 l1010 0" />
      <path d="M0 1170 l1010 0" />
      <path d="M0 1200 l1010 0" />
      <path d="M0 1230 l1010 0" />
      <path d="M0 1260 l1010 0" />
      <path d="M0 1290 l1010 0" />
      <path d="M0 1320 l1010 0" />
      <path d="M0 1350 l1010 0" />
      <path d="M0 1380 l1010 0" />
      <path d="M0 1410 l1010 0" />
      <path d="M0 1440 l1010 0" />
      <path d="M0 1470 l1010 0" />
      <path d="M0 1500 l1010 0" />
      <path d="M0 1530 l1010 0" />
      <path d="M0 1560 l1010 0" />
      <path d="M0 1590 l1010 0" />
      <path d="M0 1620 l1010 0" />
      <path class="xrule_1" d="M30 0 l0 1628" />
      <path d="M60 0 l0 1628" />
      <path d="M90 0 l0 1628" />
      <path d="M120 0 l0 1628" />
      <path d="M150 0 l0 1628" />
      <path d="M180 0 l0 1628" />
      <path d="M210 0 l0 1628" />
      <path d="M240 0 l0 1628" />
      <path d="M270 0 l0 1628" />
      <path d="M300 0 l0 1628" />
      <path d="M330 0 l0 1628" />
      <path d="M360 0 l0 1628" />
      <path d="M390 0 l0 1628" />
      <path d="M420 0 l0 1628" />
      <path d="M450 0 l0 1628" />
      <path d="M480 0 l0 1628" />
      <path d="M510 0 l0 1628" />
      <path d="M540 0 l0 1628" />
      <path d="M570 0 l0 1628" />
      <path d="M600 0 l0 1628" />
      <path d="M630 0 l0 1628" />
      <path d="M660 0 l0 1628" />
      <path d="M690 0 l0 1628" />
      <path d="M720 0 l0 1628" />
      <path d="M750 0 l0 1628" />
      <path d="M780 0 l0 1628" />
      <path d="M810 0 l0 1628" />
      <path d="M840 0 l0 1628" />
      <path d="M870 0 l0 1628" />
      <path d="M900 0 l0 1628" />
      <path d="M930 0 l0 1628" />
      <path d="M960 0 l0 1628" />
      <path d="M990 0 l0 1628" />
      <path class="leftmargin" stroke="#FF0000" d="M30 0 l0 1628" />
    </g>
    <path class="write-flat-pen" fill="#FFFFFF" stroke-width="1.6" __comx="44.953" __comy="45.581" __timestamp="0x17a10e89c4c" d="M50.947 34.954 l0.004 -0.268 0.007 -0.146 0.007 -0.052 0.019 -0.174 0.006 -0.031 0.007 -0.04 0.007 -0.036 0.017 -0.072 0.014 -0.063 0.02 -0.074 0.024 -0.077 0.029 -0.083 0.073 -0.219 0.027 -0.073 0.028 -0.081 0.036 -0.093 0.032 -0.077 0.023 -0.06 0.023 -0.061 0.034 -0.093 0.022 -0.063 0.022 -0.064 0.022 -0.065 0.021 -0.065 0.021 -0.066 0.021 -0.067 0.021 -0.068 0.02 -0.069 0.031 -0.108 0.03 -0.12 0.065 -0.314 0.019 -0.129 0.016 -0.218 -0.021 -0.331 -0.024 -0.193 -0.131 -0.424 -0.142 -0.31 -0.253 -0.363 -0.319 -0.321 -0.504 -0.329 -0.686 -0.207 -0.717 -0.066 -0.849 0.095 -1.103 0.296 -1.974 0.966 -1.728 1.159 -1.423 1.156 -0.938 0.912 -0.871 0.97 -0.858 1.099 -0.806 1.212 -0.737 1.288 -0.67 1.29 -0.499 1.242 -0.489 1.269 -0.367 1.247 -0.27 1.209 -0.19 1.165 -0.137 1.129 -0.065 1.125 0.085 1.268 0.158 1.114 0.273 1.089 0.351 1.03 0.465 0.957 0.541 0.875 0.684 0.855 0.746 0.749 0.834 0.613 1.035 0.651 0.991 0.456 1.12 0.364 1.066 0.251 1.14 0.088 1.142 0.019 1.156 -0.141 1.133 -0.231 1.091 -0.309 1.044 -0.379 1.024 -0.446 0.876 -0.489 3.059 -1.701 -0.114 -0.255 -3.304 1.156 -0.919 0.316 -1.007 0.325 -1.003 0.287 -1.024 0.231 -1.047 0.168 -1.018 0.089 -1.009 -0.042 -0.991 -0.094 -0.903 -0.223 -0.984 -0.325 -0.83 -0.384 -0.914 -0.573 -0.705 -0.515 -0.616 -0.614 -0.584 -0.724 -0.461 -0.738 -0.397 -0.811 -0.307 -0.89 -0.243 -0.96 -0.143 -0.988 -0.078 -1.127 0.055 -0.993 0.125 -1.057 0.176 -1.098 0.247 -1.125 0.334 -1.148 0.461 -1.209 0.466 -1.173 0.621 -1.209 0.694 -1.228 0.745 -1.136 0.792 -1.026 0.804 -0.908 0.857 -0.846 1.322 -1.094 1.595 -1.097 1.774 -0.908 0.894 -0.269 0.638 -0.1 0.488 0.016 0.435 0.095 0.295 0.155 0.199 0.16 0.179 0.2 0.105 0.165 0.13 0.273 0.027 0.088 0.056 0.247 0.014 0.131 0.003 0.08 -0.013 0.287 -0.007 0.101 -0.009 0.099 -0.007 0.065 -0.008 0.065 -0.008 0.064 -0.008 0.063 -0.009 0.063 -0.009 0.062 -0.01 0.061 -0.01 0.06 -0.017 0.089 -0.011 0.056 -0.012 0.056 -0.02 0.085 -0.024 0.112 -0.016 0.086 -0.016 0.08 -0.041 0.235 -0.016 0.094 -0.014 0.095 -0.01 0.093 -0.005 0.07 -0.006 0.081 -0.002 0.045 -0.002 0.038 -0.003 0.043 -0.001 0.185 -0.001 0.063 0.007 0.161 0.004 0.268" />
    <path class="write-flat-pen" fill="#FFFFFF" stroke-width="1.6" __comx="60.087" __comy="45.581" __timestamp="0x17a10e89e0d" d="M54.625 33.161 l-0.052 -0.323 -0.021 -0.109 -0.019 -0.049 -0.018 -0.046 -0.044 -0.121 -0.018 -0.036 -0.016 -0.035 -0.013 -0.024 -0.021 -0.034 -0.11 -0.137 -0.372 -0.115 -0.324 0.179 -0.177 0.26 -0.138 0.33 -0.112 0.415 -0.104 0.508 -0.1 0.612 -0.085 0.712 -0.072 0.805 -0.06 0.894 -0.052 1.028 -0.043 1.114 -0.008 1.084 -0.008 1.094 0.016 1.062 0.032 1.016 0.044 0.97 0.049 0.863 0.034 0.764 0.052 0.738 0.052 0.628 0.055 0.585 0.06 0.507 0.036 0.24 0.084 0.502 0.042 0.208 0.048 0.206 0.054 0.204 0.051 0.171 0.035 0.109 0.034 0.098 0.035 0.091 0.037 0.093 0.078 0.175 0.188 0.32 0.127 0.181 0.383 0.308 0.443 0.145 0.495 -0.085 0.393 -0.263 0.294 -0.341 0.219 -0.35 0.297 -0.481 0.239 -0.499 0.217 -0.541 0.291 -0.627 0.214 -0.523 0.279 -0.608 0.287 -0.59 0.227 -0.515 0.312 -0.592 0.178 -0.355 0.252 -0.437 0.057 -0.094 0.209 -0.284 0.022 -0.028 0.181 -0.192 0.049 -0.045 0.263 -0.142 0.094 -0.026 0.077 0.003 0.092 0.038 0.126 0.101 0.18 0.23 0.181 0.356 0.177 0.505 0.168 0.595 0.121 0.56 0.101 0.605 0.084 0.641 0.065 0.622 0.054 0.644 0.04 0.573 0.05 0.591 0.039 0.548 0.057 0.58 0.053 0.478 0.06 0.435 0.116 0.458 0.092 0.363 0.064 0.223 0.169 0.416 0.074 0.177 0.21 0.378 0.066 0.112 0.258 0.332 0.139 0.159 0.431 0.348 0.488 0.233 0.433 0.138 0.504 0.042 0.463 -0.077 2.521 -0.45 -0.005 -0.257 -2.537 -0.349 -0.356 -0.061 -0.256 -0.083 -0.215 -0.11 -0.256 -0.166 -0.206 -0.203 -0.032 -0.046 -0.17 -0.243 -0.013 -0.025 -0.158 -0.298 -0.041 -0.1 -0.136 -0.338 -0.036 -0.128 -0.086 -0.342 -0.096 -0.381 -0.047 -0.337 -0.05 -0.45 -0.054 -0.551 -0.039 -0.538 -0.05 -0.59 -0.041 -0.574 -0.057 -0.668 -0.069 -0.655 -0.09 -0.684 -0.111 -0.663 -0.138 -0.638 -0.193 -0.682 -0.223 -0.638 -0.287 -0.567 -0.365 -0.472 -0.412 -0.337 -0.512 -0.22 -0.563 -0.036 -0.485 0.127 -0.574 0.303 -0.227 0.205 -0.272 0.286 -0.078 0.1 -0.259 0.352 -0.1 0.166 -0.28 0.489 -0.189 0.379 -0.329 0.626 -0.235 0.538 -0.281 0.581 -0.296 0.653 -0.211 0.522 -0.29 0.635 -0.21 0.536 -0.182 0.39 -0.25 0.418 -0.154 0.258 -0.093 0.116 0.018 -0.007 0.143 -0.021 0.123 0.044 -0.038 -0.02 0.015 0.024 -0.132 -0.204 -0.036 -0.072 -0.024 -0.056 -0.028 -0.067 -0.024 -0.064 -0.027 -0.077 -0.044 -0.135 -0.047 -0.163 -0.042 -0.166 -0.037 -0.167 -0.087 -0.469 -0.035 -0.208 -0.064 -0.469 -0.062 -0.561 -0.061 -0.612 -0.063 -0.714 -0.047 -0.754 -0.065 -0.862 -0.061 -0.953 -0.051 -0.997 -0.036 -1.039 -0.014 -1.081 -0.015 -1.067 0.016 -1.091 0.023 -1.015 0.03 -0.878 0.039 -0.784 0.048 -0.684 0.059 -0.583 0.06 -0.476 0.055 -0.35 0.053 -0.217 0.002 -0.043 -0.131 0.058 -0.145 -0.06 -0.053 -0.071 -0.004 -0.009 0.003 0.002 0.018 0.023 0.011 0.012 0.065 0.1 0.025 0.03 -0.006 -0.019 0.018 0.027 0.052 0.288" />
    <path class="write-flat-pen" fill="#FFFFFF" stroke-width="1.6" __comx="72.458" __comy="45.581" __timestamp="0x17a10e89ec5" d="M73.043 48.734 l-0.474 0.322 -0.129 0.133 -0.197 0.223 -0.156 0.241 -0.149 0.252 -0.145 0.276 -0.145 0.3 -0.146 0.325 -0.127 0.308 -0.118 0.32 -0.11 0.331 -0.047 0.153 -0.095 0.357 -0.034 0.156 -0.032 0.208 0.001 0.374 0.01 0.165 0.095 0.363 0.054 0.163 0.297 0.419 0.323 0.239 0.278 0.111 1.882 0.721 0.099 -0.173 -1.571 -1.262 -0.163 -0.142 -0.117 -0.136 -0.113 -0.21 0.001 -0.005 -0.058 -0.244 -0.003 -0.043 -0.004 -0.268 0.014 -0.103 0.021 -0.107 0.076 -0.32 0.035 -0.127 0.092 -0.31 0.096 -0.292 0.105 -0.282 0.123 -0.307 0.121 -0.281 0.116 -0.25 0.116 -0.225 0.1 -0.179 0.13 -0.173 0.041 -0.057 0.386 -0.279" />
    <path class="write-flat-pen" fill="#FFFFFF" stroke-width="1.6" __comx="92.225" __comy="45.581" __timestamp="0x17a10e8a078" d="M92.494 35.634 l-0.234 -0.329 -0.113 -0.144 -0.056 -0.063 -0.125 -0.109 -0.065 -0.059 -0.154 -0.121 -0.052 -0.046 -0.146 -0.151 -0.181 -0.155 -0.094 -0.082 -0.195 -0.154 -0.201 -0.188 -0.286 -0.209 -0.105 -0.076 -0.281 -0.18 -0.111 -0.072 -0.282 -0.165 -0.285 -0.144 -0.11 -0.053 -0.153 -0.068 -0.307 -0.119 -0.102 -0.036 -0.188 -0.054 -0.243 -0.049 -0.368 -0.016 -0.223 0.008 -0.437 0.106 -0.308 0.126 -0.304 0.188 -0.262 0.224 -0.215 0.234 -0.204 0.3 -0.162 0.326 -0.106 0.413 -0.055 0.349 0.023 0.417 0.098 0.531 0.15 0.474 0.218 0.491 0.284 0.501 0.34 0.516 0.4 0.533 0.492 0.601 0.522 0.599 0.496 0.544 0.535 0.576 0.512 0.526 0.611 0.594 0.588 0.556 0.581 0.556 0.598 0.587 0.558 0.587 0.543 0.603 0.47 0.565 0.355 0.514 0.45 0.693 0.337 0.627 0.314 0.703 0.257 0.674 0.209 0.682 0.182 0.744 0.119 0.687 0.036 0.775 0.001 0.598 -0.089 0.653 -0.136 0.587 -0.186 0.525 -0.203 0.442 -0.211 0.341 -0.25 0.32 -0.247 0.265 -0.28 0.238 -0.239 0.157 -0.375 0.141 -0.325 0.053 -0.366 -0.017 -0.385 -0.099 -0.446 -0.22 -0.405 -0.329 -0.495 -0.53 -0.402 -0.633 -0.352 -0.775 -0.281 -0.901 -0.215 -0.992 -0.069 -1.193 -0.007 -1.192 0.148 -1.433 0.246 -1.494 0.337 -1.571 0.398 -1.626 0.441 -1.583 0.474 -1.579 0.503 -1.531 0.511 -1.384 0.251 -0.614 0.3 -0.702 0.299 -0.644 0.389 -0.796 0.367 -0.734 0.43 -0.816 0.409 -0.733 0.467 -0.798 0.453 -0.778 0.382 -0.694 1.771 -3.195 -0.197 -0.134 -2.322 2.82 -0.51 0.616 -0.547 0.734 -0.545 0.777 -0.477 0.736 -0.492 0.824 -0.413 0.739 -0.43 0.804 -0.336 0.674 -0.329 0.733 -0.273 0.65 -0.536 1.433 -0.52 1.574 -0.485 1.612 -0.451 1.619 -0.409 1.669 -0.348 1.626 -0.258 1.573 -0.159 1.557 0.01 1.31 0.081 1.345 0.257 1.166 0.332 1.048 0.437 0.946 0.534 0.828 0.663 0.695 0.616 0.485 0.729 0.343 0.672 0.157 0.655 0.013 0.597 -0.112 0.638 -0.257 0.426 -0.294 0.393 -0.347 0.333 -0.368 0.324 -0.426 0.286 -0.474 0.257 -0.57 0.227 -0.651 0.164 -0.718 0.108 -0.801 -0.001 -0.717 -0.041 -0.887 -0.141 -0.812 -0.201 -0.825 -0.233 -0.761 -0.286 -0.749 -0.349 -0.78 -0.386 -0.717 -0.491 -0.754 -0.4 -0.577 -0.525 -0.629 -0.573 -0.635 -0.588 -0.615 -0.622 -0.608 -0.591 -0.563 -0.585 -0.551 -0.593 -0.574 -0.491 -0.501 -0.521 -0.559 -0.483 -0.528 -0.5 -0.572 -0.464 -0.565 -0.363 -0.478 -0.297 -0.446 -0.235 -0.408 -0.168 -0.369 -0.11 -0.332 -0.076 -0.374 -0.016 -0.203 0.021 -0.161 0.052 -0.232 0.062 -0.136 0.101 -0.161 0.1 -0.119 0.132 -0.123 0.137 -0.094 0.131 -0.062 0.233 -0.07 0.06 -0.007 0.234 -0.003 0.113 0.016 0.115 0.026 0.057 0.016 0.276 0.089 0.12 0.044 0.089 0.035 0.254 0.107 0.247 0.121 0.101 0.054 0.272 0.144 0.088 0.052 0.258 0.152 0.21 0.158 0.229 0.141 0.091 0.06 0.175 0.113 0.175 0.135 0.105 0.065 0.154 0.088 0.058 0.037 0.101 0.061 0.014 0.008 0.097 0.085 0.217 0.291" />
    <path class="write-flat-pen" fill="#FFFFFF" stroke-width="1.6" __comx="152.038" __comy="45.581" __timestamp="0x17a10e8a4f4" d="M155.77 31.909 l-0.168 -0.087 -0.018 -0.008 -0.006 -0.007 -0.019 -0.015 -0.038 -0.026 -0.044 -0.03 -0.045 -0.03 -0.039 -0.023 -0.053 -0.036 -0.049 -0.034 -0.023 -0.019 -0.036 -0.032 -0.037 -0.036 -0.036 -0.039 -0.023 -0.031 -0.088 -0.142 -0.008 -0.019 -0.073 -0.188 -0.015 -0.058 -0.046 -0.244 -0.021 -0.22 -0.002 -0.08 0.008 -0.34 0.02 -0.262 0.012 -0.104 0.04 -0.31 0.019 -0.117 0.016 -0.105 0.016 -0.107 0.015 -0.108 0.01 -0.076 0.005 -0.05 0.009 -0.156 -0.035 -0.341 -0.055 -0.25 -0.241 -0.384 -0.29 -0.25 -0.485 -0.133 -0.448 0.01 -0.514 0.115 -0.547 0.207 -0.586 0.295 -1.257 0.807 -1.045 0.786 -0.827 0.675 -0.668 0.592 -0.489 0.468 -0.515 0.533 -0.375 0.446 -0.403 0.492 -0.319 0.44 -0.271 0.41 -0.237 0.383 -0.185 0.331 -0.097 0.179 -0.187 0.396 -0.084 0.201 -0.136 0.525 -0.048 0.238 -0.018 0.495 0.053 0.464 0.168 0.526 0.283 0.522 0.447 0.54 0.558 0.489 0.653 0.428 0.794 0.411 0.88 0.361 0.911 0.307 0.892 0.27 0.918 0.254 0.911 0.224 0.985 0.278 0.929 0.222 0.994 0.275 0.934 0.242 0.821 0.271 0.733 0.269 0.595 0.247 0.436 0.209 0.472 0.257 0.379 0.261 0.451 0.337 0.29 0.275 0.321 0.375 0.289 0.434 0.225 0.44 0.16 0.54 0.093 0.477 -0.004 0.665 -0.103 0.66 -0.209 0.732 -0.291 0.717 -0.44 0.817 -0.515 0.76 -0.612 0.758 -0.757 0.775 -0.695 0.608 -0.78 0.567 -0.781 0.439 -0.843 0.39 -0.921 0.345 -0.999 0.297 -0.971 0.226 -0.986 0.172 -0.926 0.101 -1.004 -0.007 -0.842 -0.034 -0.896 -0.143 -0.827 -0.205 -0.794 -0.266 -0.684 -0.297 -0.658 -0.355 -0.483 -0.314 -0.338 -0.269 -0.28 -0.248 -0.237 -0.24 -0.193 -0.224 -0.043 -0.05 -0.185 -0.278 -0.09 -0.172 -0.081 -0.251 -0.029 -0.175 -0.001 -0.149 0.042 -0.201 0.121 -0.257 0.247 -0.334 1.486 -1.885 -0.148 -0.162 -2.01 1.313 -0.44 0.294 -0.364 0.409 -0.229 0.452 -0.097 0.431 -0.005 0.455 0.098 0.519 0.152 0.396 0.256 0.462 0.106 0.144 0.232 0.298 0.308 0.334 0.35 0.326 0.433 0.354 0.605 0.397 0.777 0.419 0.811 0.352 0.921 0.308 0.955 0.236 1.056 0.168 0.963 0.038 1.124 0.006 1.068 -0.119 1.08 -0.19 1.061 -0.25 1.098 -0.33 1.027 -0.39 0.952 -0.447 0.913 -0.522 0.906 -0.672 0.786 -0.705 0.839 -0.882 0.685 -0.874 0.58 -0.885 0.499 -0.963 0.338 -0.871 0.241 -0.899 0.12 -0.855 -0.006 -0.913 -0.139 -0.681 -0.221 -0.729 -0.325 -0.628 -0.382 -0.571 -0.425 -0.496 -0.405 -0.383 -0.539 -0.402 -0.464 -0.319 -0.57 -0.309 -0.504 -0.241 -0.657 -0.272 -0.782 -0.287 -0.888 -0.293 -0.968 -0.251 -1.006 -0.279 -0.925 -0.222 -0.981 -0.277 -0.915 -0.225 -0.882 -0.244 -0.856 -0.258 -0.847 -0.284 -0.78 -0.318 -0.674 -0.348 -0.512 -0.333 -0.402 -0.348 -0.291 -0.346 -0.159 -0.285 -0.09 -0.27 -0.029 -0.224 0.006 -0.278 0.017 -0.09 0.097 -0.394 0.033 -0.083 0.154 -0.337 0.073 -0.139 0.162 -0.298 0.206 -0.343 0.239 -0.371 0.274 -0.387 0.368 -0.46 0.335 -0.41 0.458 -0.488 0.446 -0.441 0.62 -0.57 0.775 -0.66 0.972 -0.77 1.147 -0.791 0.469 -0.267 0.409 -0.185 0.328 -0.104 0.187 -0.029 0.118 0.005 0.015 -0.007 0.1 0.101 0.019 0.033 0.05 0.212 0.005 0.056 0 0.02 -0.003 0.067 -0.005 0.106 -0.005 0.104 -0.005 0.102 -0.008 0.129 -0.01 0.335 0 0.129 0.011 0.299 0.039 0.387 0.022 0.123 0.064 0.265 0.108 0.299 0.053 0.106 0.14 0.229 0.046 0.056 0.144 0.155 0.07 0.058 0.066 0.047 0.065 0.041 0.066 0.037 0.049 0.023 0.067 0.027 0.074 0.028 0.044 0.013 0.045 0.015 0.056 0.018 0.046 0.014 0.033 0.01 0.035 0.009 0.006 -0.001 0.14 0.069" />
    <path class="write-flat-pen" fill="#FFFFFF" stroke-width="1.6" __comx="182.97" __comy="45.581" __timestamp="0x17a10e8a789" d="M171.44 39.747 l0.002 -0.102 0.002 -0.014 0.003 -0.019 0.002 -0.015 0.003 -0.021 0 -0.015 0.001 -0.026 0 -0.029 -0.001 -0.017 -0.004 -0.023 -0.013 -0.048 -0.013 -0.033 -0.017 -0.034 -0.027 -0.044 -0.023 -0.031 -0.033 -0.04 -0.013 -0.014 -0.013 -0.014 -0.013 -0.014 -0.008 -0.01 0.01 -0.004 0.007 -0.046 0.056 0.074 0.021 0.08 -0.035 0.096 0.023 0.032 0.076 -0.001 0.139 -0.016 0.184 -0.015 0.252 -0.017 0.291 -0.015 0.355 -0.014 0.416 -0.006 0.453 0.016 0.483 0.035 0.533 0.054 0.63 0.121 0.537 0.099 0.655 0.131 0.623 0.134 0.622 0.142 0.746 0.212 0.689 0.185 0.638 0.173 0.69 0.234 0.483 0.159 0.627 0.258 0.441 0.181 0.507 0.254 0.149 0.078 0.493 0.288 0.076 0.048 0.329 0.256 0.093 0.075 0.246 0.241 0.08 0.085 0.198 0.267 0.164 0.331 0.077 0.215 0.045 0.348 -0.02 0.344 -0.067 0.262 -0.196 0.456 -0.211 0.322 -0.353 0.444 -0.414 0.386 -0.517 0.444 -0.562 0.385 -0.656 0.438 -0.606 0.344 -0.687 0.403 -0.555 0.284 -0.665 0.355 -0.582 0.275 -0.627 0.311 -0.532 0.231 -0.524 0.212 -0.42 0.172 -0.369 0.149 -0.21 0.089 -0.411 0.169 -0.151 0.064 -0.164 0.068 -0.158 0.061 -0.121 0.045 -0.03 0.011 -0.069 0.022 -0.092 0.026 -0.047 0.01 -0.278 0.021 0.019 -0.002 -0.114 -0.042 0.141 0.092 0.048 0.108 0.005 -0.024 0.087 -0.243 0.209 -0.372 0.395 -0.531 0.538 -0.642 0.657 -0.728 0.78 -0.796 0.947 -0.916 1.012 -0.96 1.147 -1.076 1.205 -1.107 1.182 -1.135 1.218 -1.153 1.191 -1.132 1.212 -1.172 1.151 -1.125 1.193 -1.209 0.495 -0.518 0.617 -0.671 0.617 -0.692 0.682 -0.818 0.641 -0.798 0.679 -0.895 0.592 -0.836 0.595 -0.897 0.52 -0.85 0.378 -0.724 0.32 -0.697 0.231 -0.607 0.182 -0.566 0.13 -0.487 0.092 -0.463 0.023 -0.706 -0.061 -0.506 -0.137 -0.492 -0.25 -0.518 -0.364 -0.484 -0.544 -0.462 -0.781 -0.331 -0.876 -0.119 -0.935 0.093 -1.015 0.276 -1.112 0.475 -1.195 0.68 -1.199 0.821 -2.368 2.029 -1.861 1.903 -1.488 1.751 -1 1.335 -0.76 1.189 -0.694 1.282 -0.489 1.171 -0.505 1.347 -0.375 1.345 -0.262 1.256 -0.189 1.275 -0.095 1.08 -0.035 1.075 0.113 1.106 0.202 1.015 0.31 0.956 0.451 0.937 0.544 0.825 0.688 0.778 0.863 0.693 0.984 0.587 1.183 0.497 1.221 0.342 1.357 0.244 1.46 0.111 1.452 -0.115 1.443 -0.211 3.359 -0.476 -0.02 -0.367 -3.391 -0.1 -1.445 -0.05 -1.35 -0.017 -1.29 -0.182 -1.214 -0.28 -1.059 -0.337 -0.993 -0.443 -0.796 -0.488 -0.673 -0.547 -0.525 -0.597 -0.424 -0.645 -0.359 -0.747 -0.25 -0.768 -0.17 -0.851 -0.095 -0.926 0.03 -0.926 0.087 -0.99 0.175 -1.183 0.241 -1.16 0.343 -1.229 0.471 -1.256 0.447 -1.072 0.628 -1.162 0.698 -1.092 0.935 -1.251 1.419 -1.675 1.772 -1.817 2.248 -1.934 1.075 -0.739 1.06 -0.606 0.931 -0.398 0.787 -0.214 0.625 -0.062 0.49 0.067 0.372 0.158 0.231 0.197 0.168 0.224 0.122 0.256 0.067 0.245 0.032 0.272 -0.016 0.46 -0.057 0.289 -0.106 0.4 -0.157 0.489 -0.198 0.521 -0.281 0.615 -0.334 0.643 -0.476 0.781 -0.565 0.854 -0.563 0.797 -0.65 0.86 -0.617 0.772 -0.655 0.788 -0.591 0.665 -0.598 0.652 -0.475 0.498 -1.174 1.191 -1.138 1.113 -1.205 1.164 -1.186 1.125 -1.222 1.153 -1.176 1.125 -1.2 1.099 -1.157 1.083 -1.021 0.967 -0.968 0.936 -0.817 0.834 -0.697 0.776 -0.583 0.703 -0.478 0.652 -0.317 0.58 -0.197 0.583 -0.019 0.568 0.249 0.618 0.434 0.291 0.575 0.17 0.273 -0.012 0.43 -0.043 0.187 -0.048 0.151 -0.046 0.118 -0.041 0.054 -0.021 0.133 -0.052 0.181 -0.073 0.183 -0.078 0.149 -0.066 0.409 -0.175 0.205 -0.09 0.359 -0.151 0.418 -0.177 0.536 -0.226 0.578 -0.261 0.642 -0.33 0.597 -0.293 0.679 -0.376 0.575 -0.306 0.707 -0.43 0.635 -0.375 0.696 -0.482 0.621 -0.442 0.584 -0.521 0.496 -0.482 0.44 -0.577 0.294 -0.473 0.265 -0.655 0.111 -0.479 0.022 -0.58 -0.087 -0.593 -0.151 -0.404 -0.249 -0.49 -0.309 -0.41 -0.147 -0.155 -0.308 -0.298 -0.147 -0.117 -0.384 -0.297 -0.144 -0.091 -0.537 -0.312 -0.184 -0.096 -0.559 -0.278 -0.484 -0.196 -0.669 -0.272 -0.521 -0.169 -0.723 -0.24 -0.678 -0.178 -0.685 -0.176 -0.772 -0.209 -0.664 -0.14 -0.644 -0.125 -0.679 -0.118 -0.549 -0.083 -0.683 -0.103 -0.605 -0.031 -0.526 -0.006 -0.507 0.021 -0.462 0.051 -0.382 0.063 -0.315 0.067 -0.283 0.077 -0.226 0.082 -0.167 0.084 -0.126 0.076 -0.175 0.151 -0.053 0.131 -0.001 0.194 0.073 0.101 0.1 0.069 0.055 0.027 0.017 0.005 0.011 0.002 0.01 0.002 0.01 0.002 0.032 0.01 0.014 0.003 0.023 0.009 0.01 0.002 0.01 0.005 0.015 0.01 0.002 -0.004 0.003 0.003 0.008 0.016 0.006 0.015 0.002 0.001 0.003 0.013 0.002 0.015 0.003 0.019 0.002 0.014 0.002 0.102" />
    <path class="write-flat-pen" fill="#FFFFFF" stroke-width="1.6" __comx="206.064" __comy="45.581" __timestamp="0x17a10e8aa9f" d="M207.55 34.445 l0.18 -0.245 0.139 -0.176 0.031 -0.037 0.053 -0.059 0.186 -0.198 0.059 -0.063 0.223 -0.228 0.072 -0.069 0.278 -0.273 0.098 -0.095 0.326 -0.328 0.093 -0.096 0.229 -0.261 0.22 -0.215 0.201 -0.235 0.068 -0.077 0.096 -0.112 0.191 -0.257 0.084 -0.112 0.049 -0.068 0.071 -0.103 0.055 -0.085 0.075 -0.133 0.058 -0.115 0.074 -0.182 0.07 -0.273 0.024 -0.147 -0.015 -0.329 -0.031 -0.181 -0.154 -0.344 -0.183 -0.255 -0.249 -0.239 -0.298 -0.204 -0.369 -0.168 -0.419 -0.131 -0.478 -0.092 -0.552 -0.014 -0.423 0.004 -0.53 0.037 -0.548 0.106 -0.431 0.09 -0.46 0.14 -0.37 0.116 -0.414 0.19 -0.369 0.172 -0.684 0.439 -0.472 0.406 -0.373 0.409 -0.257 0.339 -0.24 0.411 -0.183 0.531 -0.116 0.485 0.003 0.704 0.112 0.606 0.22 0.614 0.371 0.663 0.519 0.684 0.591 0.634 0.696 0.646 0.78 0.642 0.817 0.616 0.908 0.644 0.955 0.628 0.883 0.562 0.975 0.623 0.854 0.54 0.835 0.541 0.795 0.533 0.632 0.435 0.61 0.444 0.494 0.393 0.326 0.302 0.479 0.458 0.278 0.326 0.285 0.394 0.237 0.399 0.183 0.395 0.127 0.463 0.047 0.536 -0.052 0.542 -0.162 0.576 -0.365 0.72 -0.529 0.698 -0.659 0.683 -0.885 0.718 -0.952 0.636 -0.924 0.47 -1.237 0.565 -1.146 0.397 -1.243 0.337 -1.321 0.259 -1.243 0.172 -1.203 0.119 -1.14 0.044 -1.119 -0.08 -0.94 -0.083 -0.877 -0.187 -0.795 -0.212 -0.6 -0.205 -0.644 -0.259 -0.575 -0.255 -0.468 -0.24 -0.3 -0.189 -0.251 -0.184 -0.226 -0.194 -0.057 -0.051 -0.192 -0.2 -0.022 -0.02 -0.166 -0.283 -0.046 -0.092 -0.033 -0.105 -0.012 -0.109 0.037 -0.174 0.097 -0.203 0.244 -0.322 1.467 -1.8 -0.153 -0.178 -1.996 1.187 -0.441 0.269 -0.342 0.35 -0.257 0.451 -0.109 0.469 0.016 0.46 0.103 0.377 0.261 0.566 0.154 0.194 0.258 0.289 0.124 0.115 0.294 0.254 0.348 0.254 0.407 0.256 0.57 0.293 0.643 0.285 0.709 0.285 0.691 0.236 0.888 0.237 1.012 0.216 1.051 0.092 1.221 0.086 1.276 -0.051 1.282 -0.129 1.319 -0.186 1.42 -0.285 1.349 -0.374 1.265 -0.45 1.329 -0.622 1.03 -0.536 1.08 -0.738 1.003 -0.834 0.775 -0.825 0.651 -0.884 0.479 -0.972 0.228 -0.843 0.071 -0.806 -0.074 -0.798 -0.196 -0.705 -0.267 -0.572 -0.31 -0.519 -0.358 -0.493 -0.364 -0.426 -0.541 -0.516 -0.374 -0.347 -0.56 -0.447 -0.65 -0.475 -0.654 -0.452 -0.81 -0.546 -0.85 -0.554 -0.857 -0.545 -0.971 -0.625 -0.874 -0.56 -0.922 -0.61 -0.867 -0.619 -0.774 -0.586 -0.721 -0.595 -0.625 -0.58 -0.505 -0.541 -0.414 -0.542 -0.263 -0.466 -0.141 -0.387 -0.069 -0.359 -0.005 -0.397 0.056 -0.246 0.11 -0.329 0.121 -0.213 0.162 -0.22 0.266 -0.3 0.326 -0.289 0.515 -0.343 0.278 -0.137 0.328 -0.161 0.279 -0.096 0.394 -0.134 0.361 -0.089 0.457 -0.109 0.412 -0.049 0.366 -0.025 0.428 -0.02 0.317 0.033 0.298 0.06 0.227 0.07 0.158 0.075 0.135 0.088 0.088 0.076 0.092 0.114 0.011 0.002 0.049 0.169 0.007 0.015 -0.009 0.189 -0.018 0.098 -0.022 0.074 -0.038 0.104 -0.027 0.061 -0.046 0.093 -0.031 0.059 -0.066 0.116 -0.146 0.256 -0.067 0.1 -0.058 0.085 -0.159 0.236 -0.192 0.236 -0.201 0.293 -0.07 0.092 -0.283 0.359 -0.083 0.105 -0.243 0.306 -0.064 0.081 -0.2 0.259 -0.052 0.071 -0.167 0.219 -0.051 0.07 -0.031 0.043 -0.134 0.187 -0.177 0.251" />
    <path class="write-flat-pen" fill="#FFFFFF" stroke-width="1.6" __comx="267.556" __comy="45.581" __timestamp="0x17a10e8afb3" d="M259.979 24.844 l0.001 -0.251 0.003 -0.023 0.009 -0.095 0.002 -0.025 0.004 -0.041 0.004 -0.045 0.003 -0.032 0.004 -0.028 0.017 -0.085 0.004 -0.039 -0.558 -0.101 -0.059 0.061 -0.051 0.168 -0.065 0.27 -0.08 0.423 -0.127 0.774 -0.337 1.991 -0.233 2.13 -0.211 2.048 -0.153 1.537 -0.261 1.781 -0.224 1.826 -0.323 1.935 -0.275 1.904 -0.316 1.822 -0.246 1.57 -0.326 1.529 -0.246 1.26 -0.306 1.187 -0.222 0.962 -0.247 0.883 -0.163 0.634 -0.132 0.503 -0.094 0.356 -0.04 0.142 -0.034 0.11 -0.015 0.047 -0.021 0.057 -0.042 0.097 -0.124 0.232 -0.058 0.071 0.194 -0.158 0.43 0.114 0.055 0.072 -0.076 -0.319 -0.078 -0.548 -0.043 -0.723 -0.01 -0.878 0.017 -0.923 0.013 -1.083 0.009 -1.116 0.034 -1.204 0.024 -1.225 0.045 -1.287 0.072 -1.246 0.084 -1.095 0.098 -1.086 0.174 -1.107 0.119 -0.99 0.191 -1.056 0.072 -0.455 0.095 -0.605 0.088 -0.558 0.108 -0.648 0.182 -0.785 0.162 -0.769 0.137 -0.648 0.261 -0.916 0.199 -0.747 0.247 -0.749 0.183 -0.584 0.283 -0.702 0.17 -0.435 0.276 -0.589 0.152 -0.332 0.309 -0.54 0.195 -0.291 0.299 -0.427 0.227 -0.274 0.298 -0.309 0.413 -0.404 0.368 -0.29 0.454 -0.307 0.562 -0.324 0.632 -0.311 0.699 -0.287 0.784 -0.279 0.803 -0.253 0.921 -0.255 0.937 -0.232 0.948 -0.214 1.01 -0.209 0.964 -0.188 1.019 -0.189 0.961 -0.164 0.967 -0.157 0.965 -0.152 0.852 -0.116 0.861 -0.102 0.762 -0.082 0.715 -0.073 0.662 -0.069 0.513 -0.047 0.485 -0.041 3.659 -0.296 0.003 -0.145 -3.644 -0.442 -0.502 -0.061 -0.549 -0.027 -0.687 -0.002 -0.732 0.012 -0.783 0.028 -0.89 0.051 -0.89 0.076 -0.996 0.119 -0.987 0.134 -0.985 0.154 -1.04 0.185 -0.981 0.188 -1.032 0.211 -0.976 0.219 -0.971 0.24 -0.965 0.267 -0.853 0.269 -0.841 0.3 -0.776 0.319 -0.717 0.354 -0.648 0.374 -0.54 0.365 -0.47 0.37 -0.483 0.473 -0.35 0.362 -0.299 0.36 -0.341 0.486 -0.232 0.345 -0.368 0.64 -0.177 0.385 -0.295 0.626 -0.185 0.472 -0.303 0.747 -0.198 0.628 -0.258 0.778 -0.208 0.775 -0.273 0.952 -0.149 0.697 -0.161 0.755 -0.19 0.815 -0.118 0.699 -0.09 0.565 -0.095 0.605 -0.069 0.438 -0.197 1.083 -0.121 1.007 -0.178 1.128 -0.104 1.144 -0.086 1.118 -0.075 1.276 -0.047 1.315 -0.025 1.23 -0.033 1.213 -0.007 1.129 -0.009 1.078 -0.011 0.943 0.02 0.938 0.062 0.822 0.116 0.685 0.165 0.569 0.334 0.548 0.741 0.206 0.531 -0.403 0.216 -0.357 0.162 -0.357 0.065 -0.178 0.033 -0.106 0.02 -0.07 0.035 -0.128 0.042 -0.165 0.089 -0.368 0.123 -0.507 0.151 -0.625 0.239 -0.9 0.213 -0.976 0.298 -1.21 0.238 -1.287 0.315 -1.553 0.233 -1.595 0.296 -1.833 0.252 -1.911 0.301 -1.95 0.202 -1.84 0.239 -1.796 0.133 -1.562 0.176 -2.048 0.18 -2.11 0.255 -1.99 0.069 -0.79 0.029 -0.423 0.012 -0.266 -0.012 -0.073 -0.03 0.003 -0.558 -0.101 0.009 0.008 0.017 0.055 0.004 0.028 0.003 0.032 0.004 0.045 0.004 0.041 0.002 0.025 0.009 0.095 0.003 0.023 0.001 0.251" />
    <path class="write-flat-pen" fill="#FFFFFF" stroke-width="1.6" __comx="266.908" __comy="45.581" __timestamp="0x17a10e8b07f" d="M258.356 35.816 l-0.442 -0.143 -0.029 -0.015 -0.045 -0.018 -0.002 -0.002 0.103 0.031 0.114 0.118 0.138 0.424 -0.291 0.181 0.064 0.005 0.123 0 0.257 0.004 0.315 0.01 0.332 0.022 0.526 0.042 0.615 0.046 0.748 0.063 0.936 0.08 0.875 0.067 0.951 0.065 0.919 0.055 0.936 0.049 1.001 0.045 1.01 0.038 0.961 0.031 1.022 0.039 0.976 0.038 0.926 0.023 0.876 0.01 0.828 -0.014 3.597 -0.054 0.009 -0.143 -3.561 -0.509 -0.819 -0.118 -0.869 -0.103 -0.917 -0.1 -0.974 -0.1 -1.028 -0.09 -0.964 -0.07 -1.007 -0.069 -0.997 -0.066 -0.932 -0.059 -0.916 -0.055 -0.946 -0.056 -0.869 -0.053 -0.938 -0.06 -0.761 -0.041 -0.624 -0.022 -0.543 -0.016 -0.37 0.002 -0.357 0.02 -0.307 0.033 -0.208 0.039 -0.23 0.074 -0.456 0.268 0.145 0.446 0.167 0.183 0.153 0.049 0.019 0.004 0.016 0.001 0.034 0.009 0.473 0.136" />
    <path class="write-flat-pen" fill="#FFFFFF" stroke-width="1.6" __comx="276.97" __comy="45.581" __timestamp="0x17a10e8b1d4" d="M277.268 42.772 l-0.318 -0.216 -0.019 -0.018 -0.01 -0.015 -0.013 -0.018 -0.006 -0.013 -0.016 -0.026 -0.012 -0.024 -0.015 -0.03 -0.017 -0.036 -0.024 -0.049 -0.032 -0.058 -0.049 -0.079 -0.039 -0.054 -0.052 -0.065 -0.063 -0.076 -0.068 -0.071 -0.093 -0.085 -0.108 -0.086 -0.213 -0.138 -0.113 -0.062 -0.333 -0.136 -0.304 -0.085 -0.356 -0.057 -0.454 0.009 -0.357 0.032 -0.379 0.094 -0.513 0.172 -0.316 0.148 -0.463 0.255 -0.358 0.255 -0.456 0.369 -0.314 0.316 -0.322 0.383 -0.288 0.404 -0.234 0.384 -0.187 0.359 -0.168 0.376 -0.132 0.364 -0.116 0.422 -0.045 0.514 -0.013 0.452 0.109 0.583 0.138 0.403 0.237 0.443 0.33 0.419 0.486 0.416 0.59 0.357 0.767 0.293 0.87 0.116 0.844 0.048 1.008 -0.118 0.952 -0.209 0.953 -0.309 0.971 -0.406 0.894 -0.48 0.828 -0.533 0.741 -0.557 0.708 -0.618 0.637 -0.623 0.483 -0.586 0.42 -0.614 0.351 -0.597 0.308 -0.615 0.225 -0.537 0.148 -0.422 0.128 -0.483 0.055 -0.519 -0.024 -0.6 -0.069 -0.388 -0.183 -0.497 -0.281 -0.454 -0.351 -0.385 -0.474 -0.361 -0.539 -0.276 -0.712 -0.151 -0.631 -0.017 -0.68 0.089 -0.611 0.157 -0.657 0.257 -0.548 0.301 -0.497 0.334 -0.384 0.33 -0.342 0.361 -0.286 0.353 -0.253 0.369 -0.175 0.305 -0.156 0.324 -0.134 0.374 -0.054 0.386 -0.358 2.755 0.118 0.031 1.043 -2.575 0.124 -0.29 0.138 -0.239 0.158 -0.229 0.17 -0.223 0.241 -0.278 0.261 -0.263 0.297 -0.26 0.306 -0.219 0.41 -0.231 0.442 -0.199 0.517 -0.161 0.46 -0.087 0.494 -0.037 0.392 0.028 0.392 0.099 0.245 0.136 0.257 0.207 0.163 0.187 0.125 0.21 0.083 0.232 0.028 0.157 0.016 0.387 -0.031 0.293 -0.083 0.314 -0.113 0.325 -0.186 0.449 -0.261 0.524 -0.298 0.51 -0.351 0.517 -0.387 0.472 -0.548 0.538 -0.633 0.556 -0.652 0.493 -0.731 0.472 -0.777 0.419 -0.848 0.356 -0.824 0.269 -0.808 0.179 -0.807 0.097 -0.66 -0.034 -0.644 -0.082 -0.486 -0.181 -0.377 -0.222 -0.289 -0.241 -0.166 -0.205 -0.126 -0.225 -0.07 -0.192 -0.067 -0.328 0.003 -0.257 0.024 -0.344 0.062 -0.244 0.091 -0.264 0.125 -0.293 0.141 -0.284 0.178 -0.306 0.221 -0.325 0.244 -0.306 0.217 -0.233 0.358 -0.31 0.257 -0.199 0.353 -0.216 0.209 -0.113 0.392 -0.159 0.237 -0.08 0.225 -0.041 0.311 -0.039 0.198 0.006 0.197 0.026 0.232 0.054 0.037 0.01 0.165 0.067 0.055 0.025 0.058 0.031 0.036 0.02 0.053 0.037 0.037 0.026 0.015 0.009 0.043 0.038 0.032 0.031 0.043 0.045 0.048 0.05 0.049 0.048 0.051 0.045 0.054 0.042 0.05 0.038 0.061 0.037 0.051 0.028 0.032 0.013 0.307 0.2" />
    <path class="write-flat-pen" fill="#FFFFFF" stroke-width="1.6" __comx="293.528" __comy="45.581" __timestamp="0x17a10e8b347" d="M287.706 44.66 l-0.192 -0.197 -0.015 -0.021 -0.032 -0.028 -0.033 -0.023 -0.022 -0.013 -0.004 -0.006 0 -0.006 -0.015 -0.01 -0.021 -0.013 -0.048 -0.028 -0.057 -0.022 -0.088 -0.022 -0.139 -0.008 -0.182 0.045 -0.113 0.04 -0.203 0.124 -0.182 0.143 -0.174 0.17 -0.2 0.24 -0.181 0.252 -0.191 0.331 -0.176 0.353 -0.176 0.385 -0.177 0.442 -0.167 0.464 -0.17 0.528 -0.141 0.498 -0.109 0.425 -0.097 0.434 -0.077 0.394 -0.063 0.362 -0.05 0.387 -0.019 0.243 0.032 0.501 0.027 0.241 0.16 0.538 0.176 0.379 0.256 0.377 0.468 0.39 0.559 0.241 0.701 0.073 0.746 -0.101 0.775 -0.261 0.782 -0.389 0.845 -0.542 0.768 -0.593 0.748 -0.654 0.761 -0.739 0.734 -0.793 0.694 -0.773 0.69 -0.812 0.628 -0.773 0.484 -0.603 0.462 -0.592 0.401 -0.52 0.278 -0.398 0.334 -0.445 0.058 -0.081 0.052 -0.075 0.067 -0.095 0.029 -0.04 0.169 -0.2 0.106 -0.111 0.047 -0.039 -0.452 0.203 -0.554 -0.609 0.042 -0.181 -0.045 0.184 -0.169 0.405 -0.169 0.474 -0.26 0.609 -0.22 0.614 -0.204 0.614 -0.203 0.646 -0.203 0.675 -0.181 0.644 -0.166 0.618 -0.155 0.631 -0.129 0.596 -0.11 0.603 -0.075 0.475 -0.053 0.533 0.007 0.429 0.017 0.421 0.02 0.245 0.123 0.515 0.058 0.206 0.239 0.503 0.198 0.32 0.259 0.319 0.323 0.306 0.397 0.289 0.445 0.229 0.447 0.162 0.493 0.078 0.367 0.031 0.386 0.005 0.427 -0.021 0.391 -0.039 0.39 -0.058 0.338 -0.062 0.337 -0.071 0.117 -0.028 3.163 -0.749 -0.008 -0.076 -3.25 -0.078 -0.123 -0.003 -0.338 0.003 -0.324 -0.001 -0.361 -0.005 -0.343 -0.017 -0.364 -0.034 -0.304 -0.045 -0.278 -0.059 -0.325 -0.089 -0.245 -0.114 -0.27 -0.16 -0.237 -0.186 -0.189 -0.186 -0.143 -0.179 -0.108 -0.176 -0.152 -0.32 -0.017 -0.06 -0.091 -0.381 -0.009 -0.106 -0.016 -0.373 -0.006 -0.328 0.04 -0.409 0.065 -0.418 0.101 -0.563 0.119 -0.553 0.145 -0.598 0.158 -0.596 0.173 -0.625 0.194 -0.655 0.194 -0.627 0.193 -0.588 0.198 -0.559 0.259 -0.61 0.17 -0.478 0.197 -0.469 0.079 -0.31 0.125 -0.563 -0.648 -0.712 -0.653 0.295 -0.259 0.197 -0.211 0.211 -0.24 0.274 -0.07 0.094 -0.078 0.108 -0.049 0.068 -0.045 0.061 -0.344 0.454 -0.274 0.389 -0.379 0.488 -0.455 0.579 -0.477 0.59 -0.618 0.755 -0.669 0.784 -0.674 0.75 -0.7 0.756 -0.705 0.685 -0.685 0.602 -0.68 0.529 -0.723 0.469 -0.619 0.315 -0.549 0.192 -0.44 0.068 -0.314 -0.024 -0.173 -0.067 -0.164 -0.125 -0.086 -0.116 -0.093 -0.183 -0.107 -0.319 -0.013 -0.088 -0.037 -0.373 0.005 -0.113 0.031 -0.329 0.045 -0.324 0.058 -0.369 0.072 -0.403 0.083 -0.397 0.108 -0.472 0.13 -0.5 0.125 -0.439 0.13 -0.414 0.127 -0.363 0.122 -0.329 0.118 -0.282 0.107 -0.211 0.119 -0.212 0.086 -0.136 0.086 -0.121 0.066 -0.091 0.003 -0.017 0.028 -0.043 -0.034 -0.014 -0.007 -0.014 -0.013 -0.011 0.005 -0.009 -0.007 -0.007 -0.002 -0.004 0.028 0.009 0.019 0.003 -0.013 -0.008 -0.017 -0.014 -0.026 -0.023 -0.002 -0.008 0.195 0.193" />
    <path class="write-flat-pen" fill="#FFFFFF" stroke-width="1.6" __comx="306.914" __comy="45.581" __timestamp="0x17a10e8b420" d="M303.199 55.513 l-0.211 -0.076 -0.02 -0.015 -0.034 -0.017 -0.015 -0.012 -0.02 -0.015 -0.003 -0.004 -0.006 -0.008 -0.008 -0.011 -0.011 -0.014 -0.012 -0.017 -0.013 -0.021 -0.012 -0.021 -0.007 -0.017 -0.005 -0.016 0.002 -0.016 -0.026 -0.118 0.005 -0.016 -0.012 -0.194 0.004 -0.045 0.021 -0.326 0.028 -0.222 0.092 -0.384 0.088 -0.397 0.102 -0.447 0.175 -0.585 0.143 -0.533 0.233 -0.689 0.169 -0.563 0.262 -0.694 0.188 -0.533 0.276 -0.615 0.189 -0.449 0.264 -0.52 0.153 -0.31 0.216 -0.347 0.326 -0.491 0.064 -0.093 0.286 -0.341 0.22 -0.232 0.054 -0.054 0.326 -0.269 0.051 -0.043 0.351 -0.223 0.316 -0.141 0.233 -0.084 0.419 -0.065 0.251 -0.029 0.309 0.012 0.312 0.023 0.329 0.064 2.666 0.57 0.028 -0.077 -2.406 -1.282 -0.36 -0.187 -0.387 -0.118 -0.408 -0.103 -0.375 -0.024 -0.569 -0.002 -0.416 0.081 -0.496 0.153 -0.546 0.282 -0.143 0.103 -0.407 0.314 -0.123 0.119 -0.269 0.279 -0.358 0.427 -0.109 0.16 -0.341 0.522 -0.26 0.428 -0.176 0.369 -0.275 0.563 -0.193 0.486 -0.278 0.662 -0.185 0.581 -0.247 0.737 -0.15 0.599 -0.199 0.725 -0.111 0.573 -0.13 0.63 -0.059 0.509 -0.036 0.415 -0.033 0.463 0.026 0.323 0.07 0.397 0.033 0.113 0.102 0.254 0.046 0.083 0.124 0.17 0.068 0.066 0.041 0.033 0.04 0.028 0.042 0.026 0.039 0.022 0.039 0.021 0.039 0.019 0.04 0.018 0.041 0.016 0.017 0.005 0.034 0.01 0.049 0.012 0.024 0.001 0.017 0.002 0.235 0.076" />
    <path class="write-flat-pen" fill="#FFFFFF" stroke-width="1.6" __comx="315.024" __comy="45.581" __timestamp="0x17a10e8b4e9" d="M315.984 46.623 l-0.208 0.1 -0.066 0.048 -0.076 0.093 -0.041 0.046 -0.1 0.161 -0.082 0.155 -0.095 0.229 -0.104 0.318 -0.095 0.356 -0.102 0.46 -0.111 0.535 -0.124 0.578 -0.117 0.601 -0.111 0.624 -0.103 0.644 -0.09 0.61 -0.093 0.624 -0.089 0.589 -0.077 0.546 -0.069 0.506 -0.05 0.412 -0.021 0.181 -0.043 0.418 -0.014 0.142 -0.011 0.175 -0.004 0.105 -0.001 0.051 0.002 0.1 0.009 0.129 0.02 0.159 0.086 0.389 0.187 0.341 0.301 0.267 0.362 -0.083 0.867 -0.327 -0.009 -0.138 -0.902 -0.21 0.001 -0.06 0.106 0.063 -0.018 -0.114 -0.007 -0.232 0.001 -0.105 0.001 -0.097 0.001 -0.07 0.001 -0.036 0.001 -0.09 0.005 -0.146 0.008 -0.126 0.029 -0.412 0.014 -0.173 0.034 -0.405 0.048 -0.5 0.053 -0.544 0.06 -0.592 0.059 -0.633 0.052 -0.612 0.058 -0.64 0.063 -0.619 0.072 -0.593 0.088 -0.577 0.081 -0.538 0.074 -0.45 0.066 -0.339 0.066 -0.298 0.055 -0.203 0.045 -0.135 0.05 -0.134 0.017 -0.034 0.027 -0.067 -0.025 0.013 0.16 -0.084" />
    <path class="write-flat-pen" fill="#FFFFFF" stroke-width="1.6" __comx="320.87" __comy="45.581" __timestamp="0x17a10e8b56d" d="M322.512 35.756 l-0.322 -0.007 -0.113 -0.001 -0.199 0.021 -0.187 0.078 -0.198 0.086 -0.251 0.184 -0.213 0.209 -0.217 0.271 -0.222 0.34 -0.214 0.408 -0.216 0.519 -0.179 0.519 -0.168 0.635 -0.118 0.618 -0.069 0.544 -0.396 3.117 0.06 0.011 0.762 -3.048 0.131 -0.522 0.157 -0.583 0.188 -0.594 0.18 -0.484 0.204 -0.482 0.187 -0.366 0.186 -0.299 0.173 -0.231 0.155 -0.166 0.165 -0.135 0.137 -0.071 0.112 -0.059 0.1 -0.022 0.077 -0.01 0.31 -0.007" />
    <path class="write-flat-pen" fill="#FFFFFF" stroke-width="1.6" __comx="326.029" __comy="45.581" __timestamp="0x17a10e8b690" d="M324.392 53.029 l-0.174 -0.178 0.014 0.015 0.011 0.011 0.013 0.02 0.011 0.015 0.015 -0.019 0.027 -0.037 0.057 -0.157 0.097 -0.183 0.09 -0.186 0.2 -0.336 0.203 -0.317 0.284 -0.404 0.3 -0.413 0.323 -0.432 0.365 -0.47 0.365 -0.465 0.378 -0.478 0.397 -0.499 0.26 -0.364 0.437 -0.525 0.246 -0.332 0.112 -0.149 0.224 -0.318 0.052 -0.077 0.051 -0.078 0.051 -0.081 0.067 -0.113 0.144 -0.328 0.06 -0.156 0.074 -0.428 -0.008 -0.314 -0.04 -0.287 -0.347 -0.441 -0.498 -0.167 -0.507 0.065 -0.517 0.209 -0.535 0.338 -0.575 0.477 -0.551 0.548 -0.568 0.647 -0.593 0.754 -0.45 0.723 -0.518 0.879 -0.396 0.805 -0.331 0.77 -0.356 0.776 -0.252 0.66 -0.186 0.535 -0.167 0.542 -0.121 0.453 -0.088 0.367 -0.043 0.218 -0.059 0.426 -0.008 0.368 0.002 0.186 0.047 0.349 0.034 0.183 0.215 0.518 0.251 0.388 0.338 0.36 0.382 0.263 0.501 0.214 0.607 0.093 0.508 0.031 0.626 -0.046 0.611 -0.062 0.706 -0.149 0.628 -0.137 0.765 -0.244 2.978 -0.951 -0.01 -0.038 -3.074 0.568 -0.769 0.141 -0.615 0.072 -0.677 0.073 -0.56 -0.011 -0.546 -0.046 -0.392 -0.109 -0.432 -0.157 -0.281 -0.177 -0.202 -0.171 -0.197 -0.215 -0.142 -0.22 -0.133 -0.315 -0.008 -0.041 -0.037 -0.253 -0.002 -0.099 0.003 -0.285 0.042 -0.33 0.031 -0.166 0.076 -0.333 0.108 -0.421 0.15 -0.505 0.169 -0.502 0.228 -0.614 0.34 -0.759 0.318 -0.759 0.36 -0.747 0.485 -0.837 0.408 -0.666 0.536 -0.689 0.523 -0.602 0.491 -0.492 0.486 -0.406 0.4 -0.254 0.308 -0.126 0.14 -0.019 -0.017 -0.006 -0.014 -0.019 -0.006 -0.046 0.004 0.154 -0.039 0.23 -0.015 0.04 -0.109 0.249 -0.028 0.048 -0.039 0.062 -0.042 0.064 -0.042 0.063 -0.208 0.3 -0.104 0.141 -0.228 0.316 -0.436 0.539 -0.261 0.379 -0.374 0.49 -0.37 0.492 -0.355 0.482 -0.356 0.496 -0.313 0.463 -0.286 0.445 -0.27 0.451 -0.192 0.369 -0.185 0.409 -0.072 0.23 -0.078 0.248 -0.025 0.216 -0.021 0.162 0.051 0.18 0.024 0.053 0.022 0.038 0.021 0.027 0.022 0.025 0.204 0.203" />
    <path class="write-flat-pen" fill="#FFFFFF" stroke-width="1.6" __comx="341.243" __comy="45.581" __timestamp="0x17a10e8b763" d="M334.853 57.14 l-0.259 -0.044 -0.113 -0.023 -0.159 -0.026 -0.055 -0.009 -0.172 -0.026 -0.066 -0.01 -0.094 -0.014 -0.063 -0.011 -0.068 -0.018 -0.049 -0.019 -0.168 -0.094 -0.008 -0.01 -0.158 -0.154 -0.09 -0.117 -0.095 -0.178 -0.093 -0.282 -0.04 -0.384 -0.011 -0.407 0.069 -0.583 0.129 -0.614 0.202 -0.706 0.262 -0.775 0.306 -0.774 0.36 -0.832 0.371 -0.794 0.405 -0.758 0.407 -0.699 0.425 -0.7 0.221 -0.433 0.399 -0.628 0.257 -0.334 0.4 -0.486 0.498 -0.459 0.087 -0.078 0.501 -0.363 0.29 -0.18 0.341 -0.179 0.497 -0.214 0.091 -0.037 0.648 -0.211 0.567 -0.146 0.538 -0.09 0.668 -0.031 0.543 -0.007 0.659 0.076 0.712 0.128 0.643 0.169 0.859 0.267 0.893 0.293 0.769 0.274 3.21 1.145 0.009 -0.019 -3.007 -1.604 -0.73 -0.389 -0.864 -0.418 -0.851 -0.378 -0.683 -0.255 -0.775 -0.204 -0.759 -0.138 -0.639 -0.022 -0.762 0.013 -0.658 0.1 -0.653 0.162 -0.724 0.233 -0.138 0.056 -0.547 0.234 -0.415 0.218 -0.359 0.222 -0.583 0.422 -0.135 0.122 -0.559 0.514 -0.461 0.56 -0.299 0.388 -0.454 0.716 -0.225 0.444 -0.407 0.676 -0.419 0.729 -0.423 0.807 -0.381 0.841 -0.361 0.87 -0.306 0.825 -0.257 0.836 -0.191 0.779 -0.11 0.707 -0.035 0.709 0.062 0.519 0.115 0.513 0.212 0.422 0.214 0.271 0.202 0.174 0.293 0.181 0.091 0.033 0.253 0.07 0.128 0.011 0.108 0 0.082 -0.006 0.093 -0.008 0.065 -0.005 0.171 -0.013 0.052 -0.004 0.155 -0.009 0.104 -0.006 0.255 0.016" />
    <path class="write-flat-pen" fill="#FFFFFF" stroke-width="1.6" __comx="381.823" __comy="45.581" __timestamp="0x17a10e8b98c" d="M376.726 55.804 l-0.187 0.052 -0.134 0.042 -0.223 0.125 -0.088 0.051 -0.273 0.193 -0.092 0.066 -0.223 0.203 -0.198 0.157 -0.179 0.176 -0.094 0.091 -0.101 0.104 -0.071 0.075 -0.05 0.054 -0.024 0.026 -0.077 0.083 -0.152 0.168 -0.088 0.064 -0.045 0 0.487 0.374 0.112 -0.094 0.201 -0.232 0.318 -0.398 0.449 -0.607 0.525 -0.802 0.583 -0.948 0.635 -1.106 0.669 -1.249 0.709 -1.32 0.756 -1.439 0.729 -1.443 0.735 -1.508 0.736 -1.566 0.747 -1.59 0.715 -1.614 0.66 -1.517 0.603 -1.41 0.551 -1.306 0.514 -1.252 0.482 -1.168 0.166 -0.433 0.194 -0.537 0.168 -0.481 0.251 -0.603 0.157 -0.399 0.171 -0.449 0.071 -0.175 0.21 -0.549 0.06 -0.151 0.134 -0.356 0.03 -0.074 0.013 -0.032 0.053 -0.121 0.114 -0.223 -0.094 0.102 -0.487 -0.189 0.001 -0.016 -0.003 0.402 -0.053 0.69 -0.08 0.865 -0.12 1.064 -0.136 1.242 -0.148 1.406 -0.153 1.504 -0.136 1.53 -0.122 1.495 -0.097 1.455 -0.066 1.411 -0.043 1.254 -0.032 1.263 -0.022 1.16 -0.016 1.065 0.011 1.081 0.029 0.976 0.043 0.93 0.059 0.834 0.06 0.727 0.068 0.641 0.07 0.544 0.079 0.512 0.139 0.569 0.096 0.377 0.057 0.192 0.141 0.448 0.152 0.343 0.053 0.118 0.047 0.095 0.045 0.078 1.697 2.915 0.042 -0.018 -0.913 -3.247 -0.02 -0.075 -0.022 -0.081 -0.035 -0.122 -0.102 -0.318 -0.093 -0.406 -0.041 -0.176 -0.078 -0.364 -0.118 -0.53 -0.067 -0.46 -0.067 -0.521 -0.067 -0.617 -0.061 -0.709 -0.061 -0.815 -0.045 -0.908 -0.033 -0.957 -0.016 -1.057 0.011 -1.05 0.017 -1.155 0.027 -1.255 0.038 -1.242 0.061 -1.394 0.092 -1.438 0.118 -1.483 0.133 -1.519 0.152 -1.495 0.149 -1.401 0.138 -1.238 0.124 -1.072 0.086 -0.882 0.062 -0.732 0.01 -0.534 -0.113 -0.669 -0.758 -0.292 -0.475 0.543 -0.193 0.36 -0.074 0.165 -0.02 0.046 -0.037 0.089 -0.138 0.362 -0.059 0.15 -0.208 0.544 -0.072 0.176 -0.173 0.456 -0.15 0.384 -0.259 0.622 -0.176 0.505 -0.188 0.522 -0.157 0.411 -0.476 1.157 -0.511 1.248 -0.546 1.3 -0.599 1.406 -0.654 1.513 -0.704 1.602 -0.737 1.583 -0.726 1.563 -0.72 1.5 -0.712 1.435 -0.737 1.436 -0.692 1.326 -0.645 1.249 -0.598 1.099 -0.54 0.949 -0.47 0.803 -0.388 0.618 -0.265 0.427 -0.144 0.256 -0.054 0.121 0.487 0.374 -0.024 -0.026 0.062 -0.102 0.113 -0.217 0.051 -0.08 0.017 -0.023 0.042 -0.055 0.06 -0.076 0.086 -0.104 0.083 -0.095 0.153 -0.175 0.18 -0.167 0.202 -0.215 0.071 -0.061 0.247 -0.203 0.072 -0.051 0.188 -0.128 0.098 -0.044 0.178 -0.061" />
    <path class="write-flat-pen" fill="#FFFFFF" stroke-width="1.6" __comx="386.112" __comy="45.581" __timestamp="0x17a10e8ba43" d="M382.001 49.447 l-0.073 -0.166 -0.041 -0.112 -0.039 -0.062 -0.032 -0.04 -0.008 -0.01 -0.009 -0.015 0.03 0.03 0.019 0.054 -0.051 0.141 -0.021 0.021 0.07 0.014 0.134 0.029 0.173 0.043 0.209 0.056 0.293 0.072 0.362 0.081 0.43 0.081 0.464 0.074 0.449 0.056 0.431 0.042 0.589 0.024 0.532 -0.009 0.655 -0.089 0.572 -0.087 0.594 -0.17 3.048 -0.877 -0.004 -0.017 -3.125 0.544 -0.584 0.101 -0.55 0.036 -0.63 0.04 -0.49 -0.016 -0.561 -0.041 -0.411 -0.047 -0.435 -0.055 -0.451 -0.067 -0.419 -0.068 -0.355 -0.065 -0.291 -0.054 -0.218 -0.041 -0.197 -0.028 -0.171 -0.014 -0.138 0.003 -0.25 0.057 -0.062 0.169 0.027 0.157 0.057 0.063 0.025 0.021 0.01 0.008 0.019 0.015 0.017 0.014 0.047 0.072 0.081 0.161" />
    <path class="write-flat-pen" fill="#FFFFFF" stroke-width="1.6" __comx="397.728" __comy="45.581" __timestamp="0x17a10e8bcb7" d="M392.633 45.073 l-0.093 -0.068 -0.031 -0.027 -0.04 -0.024 -0.033 -0.017 -0.042 -0.018 -0.058 -0.016 -0.065 -0.01 -0.065 0 -0.101 0.016 -0.16 0.078 -0.069 0.043 -0.182 0.181 -0.136 0.18 -0.127 0.209 -0.142 0.292 -0.161 0.395 -0.145 0.431 -0.141 0.5 -0.137 0.535 -0.131 0.601 -0.128 0.628 -0.116 0.646 -0.099 0.614 -0.087 0.578 -0.076 0.538 -0.062 0.452 -0.045 0.362 -0.041 0.364 -0.015 0.14 -0.016 0.213 -0.005 0.114 -0.001 0.148 0.008 0.199 0.107 0.471 0.11 0.307 0.297 0.355 0.457 0.177 0.595 -0.176 0.463 -0.338 0.455 -0.493 0.42 -0.579 0.441 -0.702 0.405 -0.718 0.384 -0.725 0.384 -0.758 0.358 -0.712 0.254 -0.572 0.329 -0.656 0.211 -0.455 0.242 -0.468 0.07 -0.134 0.07 -0.132 0.085 -0.155 0.055 -0.098 0.039 -0.066 0.013 -0.022 0.055 -0.082 0.158 -0.192 0.081 -0.076 -0.021 0.006 -0.202 -0.013 -0.118 -0.126 0.022 0.055 0.027 0.267 -0.045 0.451 -0.057 0.556 -0.084 0.612 -0.157 0.72 -0.137 0.717 -0.143 0.709 -0.138 0.644 -0.123 0.564 -0.102 0.48 -0.079 0.392 -0.068 0.352 -0.024 0.131 -0.032 0.182 -0.024 0.174 -0.017 0.178 0.017 0.39 0.01 0.125 0.1 0.386 0.084 0.235 0.42 0.397 0.404 0.131 0.422 -0.034 0.383 -0.127 0.386 -0.179 0.395 -0.231 0.401 -0.271 0.394 -0.285 0.38 -0.294 0.357 -0.284 0.331 -0.234 0.518 -0.395 0.317 -0.221 0.414 -0.301 0.295 -0.195 0.288 -0.22 0.357 -0.241 0.121 -0.085 0.308 -0.201 0.132 -0.089 0.129 -0.09 0.151 -0.106 0.1 -0.071 0.103 -0.073 0.075 -0.055 0.073 -0.056 0.072 -0.057 0.07 -0.058 0.07 -0.061 0.077 -0.071 0.103 -0.103 0.11 -0.123 0.12 -0.154 0.188 -0.304 0.085 -0.16 0.103 -0.299 0.047 -0.184 0.016 -0.364 -0.011 -0.204 -0.145 -0.441 -0.176 -0.315 -0.202 -0.251 -0.263 -0.237 -0.256 -0.172 -0.342 -0.154 -0.309 -0.07 -0.4 -0.041 -0.401 0.056 -0.388 0.109 -0.316 0.146 -0.303 0.188 -0.273 0.21 -0.149 0.121 -0.274 0.27 -0.136 0.138 -0.229 0.272 -0.076 0.094 -0.078 0.101 -0.094 0.132 -0.068 0.102 -0.072 0.114 -0.087 0.162 -0.068 0.147 -0.083 0.282 -0.028 0.114 -0.017 0.275 0.004 0.201 0.13 0.387 0.239 0.257 0.218 0.158 0.443 0.037 0.283 -0.009 0.36 -0.103 0.295 -0.085 0.449 -0.203 0.316 -0.133 0.369 -0.196 0.246 -0.121 0.093 -0.047 0.312 -0.13 0.08 -0.032 0.292 -0.099 0.058 -0.016 0.246 -0.022 0.179 0.015 0.169 0.048 0.199 0.116 0.22 0.217 0.232 0.359 0.191 0.443 0.145 0.563 0.092 0.631 0.036 0.676 -0.049 0.732 -0.057 0.711 -0.069 0.673 -0.134 0.72 -0.102 0.614 -0.096 0.534 -0.088 0.449 -0.088 0.411 -0.029 0.131 -0.029 0.131 -0.023 0.099 -0.023 0.12 -0.052 0.304 -0.037 0.306 0.076 0.383 0.365 0.516 0.583 -0.387 0.134 -0.298 0.17 -0.414 0.612 -1.494 -0.022 -0.014 -1.076 1.203 -0.293 0.326 -0.106 0.063 0.32 -0.241 0.289 0.395 0.03 -0.01 0.038 -0.133 0.066 -0.283 0.023 -0.106 0.02 -0.091 0.03 -0.138 0.029 -0.137 0.087 -0.423 0.088 -0.467 0.095 -0.551 0.097 -0.611 0.135 -0.754 0.071 -0.73 0.055 -0.73 0.051 -0.803 -0.043 -0.789 -0.107 -0.737 -0.179 -0.699 -0.256 -0.604 -0.341 -0.537 -0.396 -0.402 -0.435 -0.262 -0.405 -0.121 -0.382 -0.038 -0.445 0.034 -0.189 0.05 -0.351 0.115 -0.117 0.045 -0.36 0.147 -0.125 0.062 -0.26 0.125 -0.342 0.18 -0.283 0.118 -0.389 0.174 -0.215 0.062 -0.223 0.063 -0.079 0.003 -0.064 -0.004 0.126 0.092 -0.001 0.002 0.001 0.009 -0.001 0.017 0.005 -0.13 -0.002 0.007 0.049 -0.18 0.019 -0.043 0.051 -0.1 0.041 -0.069 0.049 -0.077 0.07 -0.102 0.057 -0.076 0.061 -0.078 0.19 -0.234 0.099 -0.105 0.226 -0.233 0.096 -0.081 0.216 -0.174 0.198 -0.13 0.179 -0.089 0.239 -0.075 0.207 -0.037 0.215 0.013 0.153 0.027 0.178 0.069 0.134 0.079 0.163 0.13 0.113 0.121 0.106 0.16 0.1 0.232 0.008 0.04 0.011 0.233 -0.009 0.065 -0.051 0.212 -0.033 0.083 -0.13 0.258 -0.067 0.105 -0.07 0.095 -0.07 0.084 -0.052 0.057 -0.051 0.052 -0.054 0.052 -0.055 0.051 -0.057 0.05 -0.059 0.049 -0.091 0.072 -0.094 0.072 -0.143 0.108 -0.119 0.087 -0.119 0.082 -0.311 0.203 -0.124 0.085 -0.372 0.244 -0.288 0.214 -0.29 0.185 -0.426 0.297 -0.328 0.218 -0.529 0.382 -0.344 0.228 -0.379 0.281 -0.375 0.267 -0.382 0.251 -0.378 0.227 -0.343 0.172 -0.307 0.113 -0.231 0.049 -0.12 -0.013 -0.006 -0.018 -0.069 -0.094 0.014 0.031 -0.061 -0.258 -0.001 -0.019 -0.013 -0.301 0.008 -0.084 0.018 -0.133 0.027 -0.159 0.022 -0.122 0.066 -0.344 0.076 -0.382 0.1 -0.472 0.123 -0.563 0.14 -0.651 0.146 -0.72 0.137 -0.708 0.165 -0.746 0.095 -0.669 0.063 -0.573 0.061 -0.554 -0.041 -0.496 -0.134 -0.412 -0.352 -0.363 -0.514 -0.026 -0.364 0.182 -0.247 0.215 -0.252 0.289 -0.106 0.151 -0.031 0.049 -0.05 0.08 -0.067 0.114 -0.095 0.167 -0.077 0.142 -0.075 0.139 -0.26 0.49 -0.218 0.46 -0.339 0.662 -0.258 0.57 -0.349 0.686 -0.381 0.748 -0.373 0.704 -0.382 0.684 -0.402 0.653 -0.352 0.502 -0.328 0.375 -0.215 0.174 -0.055 0.03 0.139 0.061 -0.011 0.003 -0.036 -0.072 -0.092 -0.313 -0.008 -0.081 -0.004 -0.103 0 -0.079 0.007 -0.184 0.009 -0.123 0.027 -0.358 0.03 -0.352 0.044 -0.447 0.054 -0.537 0.06 -0.574 0.069 -0.608 0.08 -0.637 0.088 -0.623 0.088 -0.594 0.091 -0.527 0.091 -0.491 0.092 -0.414 0.103 -0.381 0.086 -0.276 0.073 -0.188 0.076 -0.159 0.096 -0.157 0.014 -0.019 0.084 -0.079 0.025 -0.017 0.021 -0.009 0.032 -0.007 0.029 -0.004 0.023 0 0.023 0.002 0.023 0.002 0.02 0.004 0.094 0.057" />
    <path class="write-flat-pen" fill="#FFFFFF" stroke-width="1.6" __comx="410.232" __comy="45.581" __timestamp="0x17a10e8bd83" d="M409.777 34.69 l-0.057 0.243 -0.049 0.218 -0.061 0.363 -0.07 0.442 -0.072 0.543 -0.066 0.683 -0.054 0.737 -0.05 0.922 -0.042 1.062 -0.033 1.094 -0.039 1.17 -0.041 1.133 -0.055 1.096 -0.053 1.106 -0.052 1.114 -0.047 1.012 -0.047 1.018 -0.046 0.971 -0.034 0.922 -0.024 0.823 0.001 0.732 0.027 0.692 0.044 0.601 0.108 0.594 0.083 0.397 0.154 0.44 0.15 0.31 0.068 0.123 0.367 0.432 1.882 2.206 0.012 -0.009 -1.601 -2.418 -0.29 -0.441 -0.036 -0.084 -0.117 -0.288 -0.118 -0.393 -0.063 -0.364 -0.089 -0.565 -0.033 -0.567 -0.02 -0.674 0.002 -0.715 0.025 -0.813 0.034 -0.918 0.045 -0.969 0.046 -1.019 0.044 -1.013 0.047 -1.114 0.046 -1.106 0.044 -1.1 0.028 -1.138 0.023 -1.173 0.014 -1.093 0.02 -1.059 0.026 -0.917 0.03 -0.731 0.04 -0.675 0.047 -0.536 0.047 -0.441 0.037 -0.359 0.03 -0.212 0.044 -0.243" />
    <path class="write-flat-pen" fill="#FFFFFF" stroke-width="1.6" __comx="415.019" __comy="45.581" __timestamp="0x17a10e8bdee" d="M415.288 46.415 l-0.084 0.027 -0.488 0.185 0.011 0.036 0.511 -0.108 0.085 -0.023" />
    <path class="write-flat-pen" fill="#FFFFFF" stroke-width="1.6" __comx="419.472" __comy="45.581" __timestamp="0x17a10e8be3d" d="M414.048 48.949 l0.045 0.414 0.051 0.419 0.165 0.551 0.122 0.46 0.214 0.591 0.164 0.502 0.283 0.636 0.186 0.456 0.319 0.613 0.275 0.468 0.317 0.47 0.389 0.454 0.446 0.468 0.416 0.355 0.523 0.359 0.513 0.293 0.532 0.242 0.598 0.214 0.586 0.15 0.746 0.058 0.831 -0.047 3.126 -0.18 0 -0.009 -3.128 -0.148 -0.805 -0.039 -0.672 -0.114 -0.515 -0.171 -0.545 -0.228 -0.48 -0.242 -0.463 -0.283 -0.474 -0.337 -0.368 -0.318 -0.417 -0.433 -0.362 -0.412 -0.294 -0.422 -0.267 -0.435 -0.312 -0.57 -0.19 -0.436 -0.292 -0.612 -0.173 -0.479 -0.23 -0.571 -0.134 -0.442 -0.174 -0.515 -0.06 -0.373 -0.052 -0.408" />
    <path class="write-flat-pen" fill="#FFFFFF" stroke-width="1.6" __comx="419.193" __comy="52.875" __timestamp="0x17a10e8bedf" d="M424.107 50.651 l-0.523 0.302 -0.771 0.491 -0.814 0.578 -0.751 0.561 -0.739 0.574 -0.691 0.605 -0.684 0.679 -0.62 0.699 -0.596 0.742 -0.644 0.875 -0.539 0.82 -0.532 0.899 -0.406 0.833 -0.366 0.904 -0.304 0.833 -0.259 0.835 -0.217 0.797 -0.165 0.704 -0.129 0.66 -0.097 0.583 -0.028 0.651 -0.005 0.49 0.064 0.555 0.053 0.383 0.111 0.411 0.07 0.225 0.221 0.46 0.187 0.289 0.218 0.26 0.3 0.253 2.113 1.768 0.012 -0.012 -1.736 -2.139 -0.217 -0.271 -0.132 -0.221 -0.118 -0.242 -0.147 -0.393 -0.039 -0.17 -0.079 -0.36 -0.036 -0.333 -0.051 -0.503 0.004 -0.431 0.021 -0.592 0.081 -0.527 0.115 -0.637 0.149 -0.68 0.196 -0.776 0.234 -0.812 0.275 -0.813 0.329 -0.882 0.358 -0.803 0.478 -0.885 0.486 -0.821 0.583 -0.89 0.535 -0.764 0.552 -0.727 0.611 -0.719 0.62 -0.659 0.67 -0.64 0.732 -0.578 0.808 -0.579 0.772 -0.48 0.53 -0.286" />
    <path class="write-flat-pen" fill="#FFFFFF" stroke-width="1.6" __comx="432.249" __comy="52.875" __timestamp="0x17a10e8c048" d="M438.444 48.112 l-0.123 -0.058 -0.179 -0.073 -0.157 -0.057 -0.163 -0.047 -0.238 -0.054 -0.208 -0.04 -0.114 -0.018 -0.376 -0.041 -0.282 -0.011 -0.308 0.01 -0.396 0.036 -0.414 0.086 -0.311 0.07 -0.419 0.105 -0.523 0.18 -0.409 0.137 -0.543 0.215 -0.424 0.161 -0.512 0.235 -0.423 0.184 -0.492 0.242 -0.193 0.098 -0.41 0.204 -0.311 0.192 -0.159 0.101 -0.167 0.114 -0.152 0.112 -0.14 0.114 -0.106 0.093 -0.144 0.143 -0.133 0.151 -0.193 0.301 -0.089 0.168 -0.102 0.386 -0.013 0.308 0.069 0.322 0.143 0.302 0.266 0.315 0.357 0.287 0.439 0.25 0.487 0.219 0.528 0.196 0.561 0.177 0.594 0.172 0.617 0.167 0.681 0.182 0.757 0.238 0.651 0.19 0.705 0.251 0.436 0.158 0.526 0.238 0.293 0.163 0.261 0.175 0.272 0.219 0.236 0.233 0.181 0.211 0.164 0.252 0.146 0.452 0.033 0.339 -0.081 0.449 -0.167 0.358 -0.296 0.442 -0.426 0.401 -0.647 0.424 -0.705 0.345 -0.823 0.313 -0.879 0.249 -0.687 0.159 -0.908 0.156 -0.985 0.126 -0.851 0.063 -0.976 0.022 -0.663 -0.013 -0.748 -0.103 -0.471 -0.068 -0.64 -0.151 -0.335 -0.084 -0.321 -0.121 -0.124 -0.049 -0.312 -0.173 -0.064 -0.037 -0.195 -0.144 -0.152 -0.138 -0.073 -0.076 -0.086 -0.2 -0.026 -0.095 0.05 -0.235 0.418 -1.566 -0.034 -0.016 -0.933 1.325 -0.206 0.311 -0.054 0.336 0.063 0.472 0.161 0.295 0.225 0.272 0.277 0.243 0.128 0.084 0.381 0.226 0.196 0.081 0.387 0.148 0.399 0.099 0.69 0.16 0.518 0.072 0.809 0.108 0.741 0.01 1.021 -0.028 0.901 -0.073 1.03 -0.14 0.955 -0.174 0.734 -0.18 0.937 -0.279 0.895 -0.356 0.788 -0.401 0.751 -0.512 0.543 -0.533 0.376 -0.586 0.231 -0.521 0.11 -0.671 -0.059 -0.542 -0.211 -0.64 -0.255 -0.389 -0.24 -0.278 -0.291 -0.285 -0.332 -0.268 -0.32 -0.214 -0.353 -0.196 -0.586 -0.266 -0.47 -0.169 -0.73 -0.258 -0.666 -0.193 -0.767 -0.239 -0.698 -0.184 -0.61 -0.162 -0.58 -0.164 -0.535 -0.164 -0.487 -0.175 -0.431 -0.187 -0.356 -0.195 -0.254 -0.196 -0.158 -0.177 -0.066 -0.129 -0.035 -0.14 0 -0.13 0.052 -0.225 0.032 -0.067 0.14 -0.233 0.077 -0.093 0.107 -0.112 0.078 -0.071 0.116 -0.099 0.125 -0.098 0.144 -0.104 0.143 -0.096 0.276 -0.18 0.379 -0.202 0.189 -0.103 0.467 -0.247 0.409 -0.194 0.491 -0.247 0.402 -0.171 0.525 -0.234 0.391 -0.153 0.494 -0.2 0.386 -0.121 0.297 -0.088 0.378 -0.106 0.355 -0.06 0.281 -0.033 0.256 -0.013 0.359 0.003 0.102 0.004 0.201 0.016 0.23 0.024 0.152 0.023 0.152 0.032 0.175 0.04 0.117 0.046" />
    <path class="write-flat-pen" fill="#FFFFFF" stroke-width="1.6" __comx="445.094" __comy="52.875" __timestamp="0x17a10e8c0fe" d="M447.553 49.001 l-0.211 0.094 -0.228 0.128 -0.267 0.194 -0.352 0.301 -0.361 0.366 -0.413 0.468 -0.338 0.469 -0.418 0.609 -0.343 0.59 -0.398 0.715 -0.289 0.599 -0.339 0.686 -0.252 0.59 -0.208 0.521 -0.176 0.478 -0.138 0.394 -0.061 0.177 -0.109 0.356 -0.032 0.119 -0.051 0.346 -0.013 0.147 0.027 0.363 0.078 0.314 0.188 0.331 0.256 0.256 0.437 0.132 0.395 -0.042 1.634 -0.197 0.001 -0.061 -1.63 -0.234 -0.289 -0.049 -0.17 -0.101 -0.064 -0.097 -0.076 -0.184 -0.031 -0.171 -0.012 -0.249 0.007 -0.072 0.037 -0.286 0.016 -0.066 0.095 -0.336 0.052 -0.166 0.126 -0.391 0.158 -0.47 0.186 -0.512 0.222 -0.575 0.306 -0.688 0.255 -0.601 0.35 -0.717 0.294 -0.592 0.361 -0.62 0.284 -0.476 0.352 -0.48 0.31 -0.382 0.305 -0.317 0.23 -0.205 0.194 -0.138 0.193 -0.108" />
    <path class="write-flat-pen" fill="#FFFFFF" stroke-width="1.6" __comx="452.208" __comy="52.875" __timestamp="0x17a10e8c172" d="M452.429 42.006 l-0.097 0.081 -0.05 0.074 -0.026 0.039 -0.046 0.113 -0.017 0.061 -0.327 1.153 0.02 0.007 0.473 -1.101 0.023 -0.053 0.041 -0.09 0.016 -0.024 0.035 -0.052 0.076 -0.064" />
    <path class="write-flat-pen" fill="#FFFFFF" stroke-width="1.6" __comx="456.504" __comy="52.875" __timestamp="0x17a10e8c2aa" d="M465.673 44.527 l-0.224 -0.002 -0.051 -0.016 -0.021 -0.006 -0.048 -0.015 -0.148 -0.03 -0.054 -0.01 -0.163 -0.023 -0.064 -0.008 -0.192 -0.02 -0.073 -0.007 -0.106 -0.009 -0.266 -0.013 -0.251 -0.006 -0.299 -0.001 -0.315 0.005 -0.293 0.009 -0.135 0.009 -0.171 0.016 -0.162 0.023 -0.332 0.056 -0.139 0.03 -0.298 0.105 -0.121 0.05 -0.26 0.148 -0.107 0.068 -0.254 0.213 -0.119 0.112 -0.238 0.303 -0.171 0.288 -0.114 0.345 -0.087 0.43 0.005 0.435 0.022 0.372 0.103 0.472 0.08 0.346 0.197 0.525 0.196 0.417 0.121 0.279 0.134 0.315 0.208 0.421 0.082 0.167 0.314 0.566 0.171 0.322 0.246 0.421 0.161 0.322 0.145 0.335 0.13 0.346 0.116 0.354 0.086 0.312 0.071 0.357 0.024 0.444 -0.026 0.408 -0.073 0.428 -0.107 0.342 -0.231 0.518 -0.274 0.419 -0.454 0.529 -0.546 0.457 -0.662 0.416 -0.863 0.41 -0.922 0.336 -0.922 0.259 -0.962 0.215 -0.942 0.175 -0.913 0.149 -0.825 0.125 -0.837 0.111 -0.695 0.093 -0.702 0.085 -0.609 0.078 -0.561 0.078 -3.548 0.491 0.005 0.073 3.582 0.023 0.57 0.004 0.617 -0.016 0.713 -0.023 0.71 -0.038 0.857 -0.057 0.85 -0.086 0.941 -0.119 0.98 -0.159 1.014 -0.21 0.991 -0.268 1.009 -0.363 0.964 -0.459 0.772 -0.49 0.662 -0.563 0.546 -0.653 0.346 -0.55 0.275 -0.651 0.133 -0.465 0.078 -0.547 0.018 -0.517 -0.048 -0.567 -0.105 -0.453 -0.112 -0.362 -0.142 -0.389 -0.158 -0.38 -0.177 -0.371 -0.199 -0.362 -0.267 -0.42 -0.179 -0.308 -0.33 -0.543 -0.08 -0.146 -0.214 -0.393 -0.138 -0.292 -0.138 -0.286 -0.201 -0.392 -0.184 -0.446 -0.078 -0.293 -0.101 -0.411 -0.025 -0.299 -0.011 -0.345 0.059 -0.32 0.075 -0.239 0.109 -0.189 0.177 -0.231 0.068 -0.066 0.204 -0.175 0.057 -0.037 0.209 -0.122 0.067 -0.029 0.243 -0.09 0.085 -0.02 0.307 -0.057 0.139 -0.022 0.147 -0.017 0.116 -0.01 0.279 -0.016 0.306 -0.014 0.289 -0.01 0.239 -0.005 0.251 -0.001 0.096 0.002 0.07 0.002 0.187 0.005 0.058 0.002 0.155 0.005 0.044 0.002 0.131 0.006 0.053 0.005 0.034 0 0.08 0.003 0.258 -0.002" />
  </g>
</svg>
