<svg class="write-page" color-interpolation="linearRGB" width="1010px" height="1628px" xmlns="http://www.w3.org/2000/svg" xmlns:xlink="http://www.w3.org/1999/xlink">
  <g class="write-content write-v3" width="1010" height="1628" xruling="30" yruling="30" marginLeft="30" papercolor="#1B1C1C" rulecolor="#3A00F9FF">
    <g class="ruleline write-std-ruling write-scale-down" fill="none" stroke="#00F9FF" stroke-opacity="0.227" stroke-width="1" shape-rendering="crispEdges" vector-effect="non-scaling-stroke">
      <rect class="pagerect" fill="#1B1C1C" stroke="none" x="0" y="0" width="1010" height="1628" />
      <path class="yrule_1" d="M0 30 l1010 0" />
      <path d="M0 60 l1010 0" />
      <path d="M0 90 l1010 0" />
      <path d="M0 120 l1010 0" />
      <path d="M0 150 l1010 0" />
      <path d="M0 180 l1010 0" />
      <path d="M0 210 l1010 0" />
      <path d="M0 240 l1010 0" />
      <path d="M0 270 l1010 0" />
      <path d="M0 300 l1010 0" />
      <path d="M0 330 l1010 0" />
      <path d="M0 360 l1010 0" />
      <path d="M0 390 l1010 0" />
      <path d="M0 420 l1010 0" />
      <path d="M0 450 l1010 0" />
      <path d="M0 480 l1010 0" />
      <path d="M0 510 l1010 0" />
      <path d="M0 540 l1010 0" />
      <path d="M0 570 l1010 0" />
      <path d="M0 600 l1010 0" />
      <path d="M0 630 l1010 0" />
      <path d="M0 660 l1010 0" />
      <path d="M0 690 l1010 0" />
      <path d="M0 720 l1010 0" />
      <path d="M0 750 l1010 0" />
      <path d="M0 780 l1010 0" />
      <path d="M0 810 l1010 0" />
      <path d="M0 840 l1010 0" />
      <path d="M0 870 l1010 0" />
      <path d="M0 900 l1010 0" />
      <path d="M0 930 l1010 0" />
      <path d="M0 960 l1010 0" />
      <path d="M0 990 l1010 0" />
      <path d="M0 1020 l1010 0" />
      <path d="M0 1050 l1010 0" />
      <path d="M0 1080 l1010 0" />
      <path d="M0 1110 l1010 0" />
      <path d="M0 1140 l1010 0" />
      <path d="M0 1170 l1010 0" />
      <path d="M0 1200 l1010 0" />
      <path d="M0 1230 l1010 0" />
      <path d="M0 1260 l1010 0" />
      <path d="M0 1290 l1010 0" />
      <path d="M0 1320 l1010 0" />
      <path d="M0 1350 l1010 0" />
      <path d="M0 1380 l1010 0" />
      <path d="M0 1410 l1010 0" />
      <path d="M0 1440 l1010 0" />
      <path d="M0 1470 l1010 0" />
      <path d="M0 1500 l1010 0" />
      <path d="M0 1530 l1010 0" />
      <path d="M0 1560 l1010 0" />
      <path d="M0 1590 l1010 0" />
      <path d="M0 1620 l1010 0" />
      <path class="xrule_1" d="M30 0 l0 1628" />
      <path d="M60 0 l0 1628" />
      <path d="M90 0 l0 1628" />
      <path d="M120 0 l0 1628" />
      <path d="M150 0 l0 1628" />
      <path d="M180 0 l0 1628" />
      <path d="M210 0 l0 1628" />
      <path d="M240 0 l0 1628" />
      <path d="M270 0 l0 1628" />
      <path d="M300 0 l0 1628" />
      <path d="M330 0 l0 1628" />
      <path d="M360 0 l0 1628" />
      <path d="M390 0 l0 1628" />
      <path d="M420 0 l0 1628" />
      <path d="M450 0 l0 1628" />
      <path d="M480 0 l0 1628" />
      <path d="M510 0 l0 1628" />
      <path d="M540 0 l0 1628" />
      <path d="M570 0 l0 1628" />
      <path d="M600 0 l0 1628" />
      <path d="M630 0 l0 1628" />
      <path d="M660 0 l0 1628" />
      <path d="M690 0 l0 1628" />
      <path d="M720 0 l0 1628" />
      <path d="M750 0 l0 1628" />
      <path d="M780 0 l0 1628" />
      <path d="M810 0 l0 1628" />
      <path d="M840 0 l0 1628" />
      <path d="M870 0 l0 1628" />
      <path d="M900 0 l0 1628" />
      <path d="M930 0 l0 1628" />
      <path d="M960 0 l0 1628" />
      <path d="M990 0 l0 1628" />
      <path class="leftmargin" stroke="#FF0000" d="M30 0 l0 1628" />
    </g>
    <path class="write-flat-pen" fill="#FFFFFF" stroke-width="1.6" __comx="48.892" __comy="48.964" __timestamp="0x1780e02f44e" d="M39.623 59.214 l-0.212 -0.29 0.063 0.104 0.229 -0.672 0.066 -0.162 0.939 -2.066 0.58 -1.276 3.175 -7.725 3.156 -10.133 0.803 -3.909 -0.186 -1.882 -0.936 -0.253 0 0 -0.954 0.565 -0.448 1.775 0.331 2.969 1.355 4.272 4.423 10.477 3.766 6.26 0.374 0.426 0.62 0.554 2.09 1.893 0.278 -0.239 -1.559 -2.349 -0.435 -0.672 -0.245 -0.37 -3.466 -6.212 -4.35 -10.321 -1.3 -4.051 -0.293 -2.532 0.37 -1.503 -0.954 0.565 0 0 -0.097 -0.032 0.066 0.583 -0.729 3.608 -3.091 10.008 -3.054 7.69 -0.528 1.303 -0.759 2.23 -0.055 0.296 -0.005 0.944 0.126 0.316 0.589 0.219" />
    <path class="write-flat-pen" fill="#FFFFFF" stroke-width="1.6" __comx="45.544" __comy="48.964" __timestamp="0x1780e02f571" d="M38.763 47.667 l3.799 0.73 6.016 -0.042 1.093 -0.169 2.655 -0.393 -0.019 -0.4 -2.68 -0.136 -1.074 -0.065 -5.885 -0.097 -3.74 -0.465" />
    <path class="write-flat-pen" fill="#FFFFFF" stroke-width="1.6" __comx="71.489" __comy="48.964" __timestamp="0x1780e02f800" d="M64.486 45.978 l-0.577 0.057 -0.118 0.091 -0.053 -0.064 0.923 2.357 0.205 0.552 0 0 1.494 4.638 0 0 1.033 5.183 0 0 1.504 -0.295 -0.952 -5.2 -0.093 -3.164 0.556 -3.399 0.753 -1.736 0.706 -0.633 0.49 -0.053 0.849 0.453 1.601 1.849 2.035 3.759 2.548 6.945 1.513 2.479 0.339 -0.132 -0.556 -2.831 -2.457 -7.08 -2.164 -4.008 -1.884 -2.195 -1.51 -0.818 -1.456 0.146 -1.343 1.184 -0.966 2.229 -0.617 3.737 0.107 3.434 0.994 5.313 1.504 -0.295 0 0 -1.13 -5.252 0 0 -1.649 -4.717 0 0 -0.258 -0.603 -1.189 -2.298 -0.16 -0.27 -0.319 0.009 -0.426 0.781" />
    <path class="write-flat-pen" fill="#FFFFFF" stroke-width="1.6" __comx="86.022" __comy="48.964" __timestamp="0x1780e02f9f2" d="M86.369 50.171 l0.398 -1.729 0.014 -0.135 -0.2 -1.231 -0.88 -0.835 -1.622 -0.15 -1.785 0.835 -1.324 1.456 -1.166 2.447 -0.602 3.132 0.125 2.277 0.842 1.944 1.314 1.007 1.468 0.144 1.728 -0.7 1.565 -1.43 0 0 1.531 -2.402 0 0 1.011 -4.385 0 0 -1.258 -0.16 -0.085 3.758 0.523 2.871 0.909 1.694 1.645 0.895 0.479 -0.091 1.842 -0.478 -0.005 -0.134 -1.874 -0.332 -0.155 -0.066 -0.967 -0.703 -0.638 -1.216 -0.465 -2.545 0.065 -3.628 -1.258 -0.16 0 0 -1.008 4.152 0 0 -1.333 2.047 0 0 -1.264 1.134 -1.193 0.481 -0.746 -0.07 -0.725 -0.553 -0.613 -1.397 -0.121 -1.874 0.496 -2.819 0.981 -2.149 1.016 -1.16 1.267 -0.628 0.931 0.043 0.379 0.299 0.204 0.736 0.006 -0.032 -0.119 1.738" />
    <path class="write-flat-pen" fill="#FFFFFF" stroke-width="1.6" __comx="98.497" __comy="48.964" __timestamp="0x1780e02fae9" d="M93.976 36.747 l0.023 1.535 0.076 0.523 3.325 10.666 1.828 4.135 1.265 1.331 2.322 1.474 0.201 -0.235 -1.753 -2.011 -0.945 -1.246 -1.707 -3.911 -3.533 -10.461 -0.1 -0.405 -0.264 -1.466" />
    <path class="write-flat-pen" fill="#FFFFFF" stroke-width="1.6" __comx="108.44" __comy="48.964" __timestamp="0x1780e02fc08" d="M103.652 44.307 l2.12 5.091 0.345 0.634 2.095 3.135 2.306 2.042 2.576 1.115 0.135 -0.223 -2.092 -1.709 -2.012 -2.002 -2.013 -2.967 -0.306 -0.54 -2.346 -4.935" />
    <path class="write-flat-pen" fill="#FFFFFF" stroke-width="1.6" __comx="111.239" __comy="49.705" __timestamp="0x1780e02fcfb" d="M114.819 43.395 l-2.799 10.897 -0.44 1.548 -4.465 14.788 -0.517 4.118 0.879 2.334 0.314 -0.062 -0.04 -2.298 0.676 -3.795 4.472 -14.698 0.446 -1.586 2.536 -10.987" />
    <path class="write-flat-pen" fill="#FFFFFF" stroke-width="1.6" __comx="129.062" __comy="49.705" __timestamp="0x1780e02ffab" d="M128.387 43.921 l0.123 -1.5 0.003 -0.075 -0.148 -1.024 -1.027 -0.556 -1.449 0.615 -1.475 1.686 -0.757 1.877 0.176 1.185 1.026 1.071 5.416 1.731 1.841 1.073 0.845 0.975 0.547 1.554 -0.166 1.378 -0.898 1.447 -1.836 1.253 -2.457 0.659 -1.999 -0.026 -1.33 -0.455 -0.125 -0.115 0.031 -0.585 0.669 -1.512 -0.247 -0.186 -1.39 1.213 -0.535 1.353 0.752 1.009 1.925 0.685 2.425 0.03 2.875 -0.78 2.266 -1.568 1.197 -1.962 0.229 -1.993 -0.742 -2.092 -1.16 -1.34 -2.163 -1.264 -5.233 -1.67 -0.497 -0.51 -0.068 -0.404 0.514 -1.353 1.107 -1.362 0.682 -0.376 0.164 0.005 0.167 0.423 0.003 -0.012 0.152 1.505" />
    <path class="write-flat-pen" fill="#FFFFFF" stroke-width="1.6" __comx="136.927" __comy="49.705" __timestamp="0x1780e03006b" d="M136.497 48.157 l-0.587 1.913 -0.093 0.552 -0.209 4.763 0.439 3.185 0.737 0.701 0.433 -0.08 1.03 -0.361 -0.001 -0.177 -1.034 -0.348 0.024 -0.077 -0.081 -0.182 -0.374 -2.725 0.048 -4.618 0.042 -0.455 0.328 -1.925" />
    <path class="write-flat-pen" fill="#FFFFFF" stroke-width="1.6" __comx="138.898" __comy="49.705" __timestamp="0x1780e030101" d="M138.488 37.964 l-0.314 2.727 0.683 2.191 0.276 -0.041 0.033 -2.152 0.457 -2.56" />
    <path class="write-flat-pen" fill="#FFFFFF" stroke-width="1.6" __comx="147.88" __comy="49.705" __timestamp="0x1780e0302aa" d="M151.858 43.633 l-0.811 -1.503 -1.571 -0.802 -2.078 0.067 -1.641 0.702 -1.417 1.463 -0.548 1.434 0.185 1.834 0.853 1.306 1.513 0.953 4.201 1.034 1.321 0.756 0.641 0.943 0.277 1.445 -0.33 1.673 -1.006 1.556 -1.813 1.175 -1.751 0.392 -1.816 -0.137 -1.668 -0.663 -1.11 -1.093 -0.512 -1.184 -0.064 -0.248 -0.403 -2.321 -0.228 -0.001 -0.418 2.318 -0.066 0.45 0.508 1.724 1.495 1.553 2.139 0.872 2.251 0.171 2.207 -0.506 2.271 -1.492 1.299 -2.046 0.4 -2.203 -0.413 -1.966 -0.979 -1.404 -1.743 -0.985 -4.172 -1.027 -1.096 -0.688 -0.526 -0.804 -0.127 -1.215 0.34 -0.905 1.048 -1.1 1.187 -0.524 1.539 -0.086 1.016 0.451 0.733 1.147" />
    <path class="write-flat-pen" fill="#FFFFFF" stroke-width="1.6" __comx="188.878" __comy="49.705" __timestamp="0x1780e0304b0" d="M188.95 37.508 l-0.81 -0.356 0.054 1.493 0.047 0.614 0.381 7.397 -0.139 7.681 -0.55 4.903 0.712 -0.494 -0.046 0.029 -0.572 0.054 -0.166 0.703 0.488 0.304 0.029 0.046 0.712 -0.494 0.705 -4.957 0.099 -7.804 -0.541 -7.462 -0.089 -0.645 -0.318 -1.47 -0.81 0.457" />
    <path class="write-flat-pen" fill="#FFFFFF" stroke-width="1.6" __comx="195.345" __comy="49.705" __timestamp="0x1780e030635" d="M188.507 40.14 l-0.619 -0.757 0.133 -0.89 1.066 -1.782 1.863 -1.869 2.392 -1.483 2.636 -0.843 2.377 -0.205 1.863 0.409 1.356 0.898 0.801 1.415 0.135 1.343 -0.392 1.72 -1.226 2.312 -2.084 2.217 -2.685 1.752 -2.521 0.933 -1.94 0.211 -0.222 -0.125 -0.064 1.071 0.29 -0.288 0.164 -0.12 1.369 -0.748 -0.061 -0.234 -1.56 0.021 -0.373 0.02 -0.534 0.232 -0.064 1.071 0.619 0.559 2.703 -0.265 2.843 -1.051 2.962 -1.934 2.338 -2.479 1.405 -2.653 0.483 -2.135 -0.191 -1.877 -1.124 -1.97 -1.864 -1.232 -2.336 -0.503 -2.745 0.251 -2.949 0.947 -2.67 1.68 -2.059 2.147 -1.206 2.211 -0.084 1.668 1.06 1.028" />
    <path class="write-flat-pen" fill="#FFFFFF" stroke-width="1.6" __comx="210.78" __comy="49.705" __timestamp="0x1780e0307d8" d="M203.724 53.161 l-0.4 2.265 -0.006 0.362 0 0 0.15 2.136 0 0 0.5 0.902 0 0 1.212 -0.349 0.107 -7.392 0.461 -2.737 0.81 -1.614 1.152 -1.088 1.286 -0.472 1.677 0.134 4.138 1.862 0.363 0.175 0.379 0.165 2.585 1.143 0.104 -0.167 -2.17 -1.812 -0.321 -0.27 -0.375 -0.273 -4.31 -2.237 -2.263 -0.225 -1.894 0.672 -1.572 1.484 -1.028 2.056 -0.494 3.081 0.051 7.51 1.212 -0.349 0 0 -0.449 -0.599 0 0 -0.238 -1.8 0 0 -0.017 -0.248 0.127 -2.225" />
    <path class="write-flat-pen" fill="#FFFFFF" stroke-width="1.6" __comx="221.361" __comy="49.705" __timestamp="0x1780e030968" d="M220.858 52.143 l0.441 -1.058 0.05 -0.34 -0.59 -0.824 -2.586 0.956 -1.625 1.393 -0.885 1.707 -0.084 1.823 0.87 1.845 1.764 1.28 1.942 0.338 2.106 -0.372 2.354 -1.221 1.392 -1.403 1.008 -2.144 0.127 -2.254 -0.661 -1.67 -1.57 -1.53 -1.909 -0.676 -2.584 0.855 -0.316 0.341 -0.146 0.221 -1.261 1.955 0.08 0.079 1.937 -1.288 0.189 -0.119 0.136 -0.057 1.909 -0.442 1.134 0.441 1.092 1.085 0.414 1.055 -0.091 1.62 -0.767 1.636 -1.035 1.048 -1.932 1.011 -1.615 0.293 -1.342 -0.224 -1.191 -0.84 -0.585 -1.168 0.025 -1.159 0.596 -1.21 1.227 -1.106 1.53 -0.705 -0.116 -0.253 0.031 -0.171 -0.17 1.047" />
    <path class="write-flat-pen" fill="#FFFFFF" stroke-width="1.6" __comx="237.158" __comy="49.705" __timestamp="0x1780e030bca" d="M229.547 36.002 l-0.934 -0.269 0.607 2.072 0.181 0.694 4.841 19.342 0.679 0.608 1.209 -0.708 0.043 -4.655 0.466 -2.082 0.907 -1.483 1.363 -1.001 1.499 -0.435 1.202 0.135 1.221 0.715 0.937 1.309 0.392 1.309 -0.078 1.374 -0.521 1.141 -1.134 0.896 -1.551 0.413 -2.075 -0.174 -4.612 -1.791 -2.058 -0.774 -0.171 0.252 1.597 1.699 4.877 2.118 2.578 0.236 2.126 -0.566 1.675 -1.333 0.789 -1.746 0.102 -1.932 -0.551 -1.806 -1.274 -1.774 -1.775 -1.045 -1.826 -0.21 -2.054 0.589 -1.834 1.334 -1.201 1.961 -0.559 2.493 -0.027 3.954 0.499 -0.287 0.492 0.441 -5.001 -18.841 -0.226 -0.743 -0.882 -2.019 -0.865 0.657" />
    <path class="write-flat-pen" fill="#FFFFFF" stroke-width="1.6" __comx="251.417" __comy="49.705" __timestamp="0x1780e030cd0" d="M247.357 35.382 l-0.197 2.148 0.068 0.672 1.313 6.453 2.843 9.414 1.814 2.898 2.252 1.608 0.224 -0.231 -1.562 -2.094 -1.478 -2.729 -2.823 -9.2 -1.497 -6.312 -0.093 -0.534 -0.065 -2.069" />
    <path class="write-flat-pen" fill="#FFFFFF" stroke-width="1.6" __comx="262.764" __comy="49.705" __timestamp="0x1780e030e5d" d="M256.251 50.52 l1.264 1.467 0.411 0.231 1.61 0.545 2.292 -0.021 2.458 -0.793 1.928 -1.281 1.219 -1.755 0.261 -1.61 -0.509 -1.319 -1.247 -1.07 -2.058 -0.569 -1.72 0.3 -1.715 1.054 -1.596 1.803 -1.328 2.874 -0.495 2.718 0.314 2.428 1.102 2.066 1.454 1.217 1.954 0.73 4.09 -0.443 0.647 -0.325 0.558 -0.397 2.131 -1.514 -0.094 -0.184 -2.473 0.848 -0.604 0.199 -0.464 0.129 -3.584 0.209 -1.404 -0.545 -1.043 -0.875 -0.852 -1.573 -0.267 -1.939 0.398 -2.325 1.132 -2.543 1.307 -1.519 1.315 -0.831 1.172 -0.214 1.484 0.412 0.762 0.667 0.25 0.67 -0.163 0.951 -0.896 1.3 -1.555 1.054 -2.092 0.706 -1.898 0.074 -1.346 -0.37 -0.177 -0.076 -1.324 -1.161" />
    <path class="write-flat-pen" fill="#FFFFFF" stroke-width="1.6" __comx="288.451" __comy="49.705" __timestamp="0x1780e0310c7" d="M274.865 46.686 l-0.136 1.015 -0.006 0.279 0.288 3.028 0.072 0.547 0.917 5.531 0 0 0.651 1.365 0 0 1.34 0.046 0.558 -0.952 1.076 -6.685 1.104 -3.68 1.141 -2.12 0.638 -0.478 0.407 0.023 0.497 0.396 0.72 1.386 1.259 9.347 0.768 1.596 1.574 -0.347 3.925 -8.697 1.645 -2.714 1.032 -0.952 0.628 -0.18 0.498 0.199 0.691 0.942 0.697 2.737 0.651 9.516 1.39 3.951 0.456 0.54 0.478 0.355 2.12 1.569 0.234 -0.232 -1.556 -2.129 -0.288 -0.415 -0.197 -0.333 -1.061 -3.61 -0.644 -9.467 -0.818 -3.179 -1.157 -1.549 -1.418 -0.548 -1.491 0.431 -1.469 1.35 -1.813 2.982 -3.658 8.043 0.444 -0.098 -0.11 -0.228 -1.298 -9.365 -1.016 -1.917 -1.155 -0.894 -1.447 -0.057 -1.336 1.016 -1.363 2.549 -1.181 3.919 -1.065 6.503 -0.405 0.715 1.34 0.046 0 0 -0.587 -1.166 0 0 -1.034 -5.285 -0.096 -0.517 -0.55 -2.938 -0.034 -0.2 -0.115 -0.984" />
    <path class="write-stroke-pen" fill="none" stroke="#FFFFFF" stroke-width="1.6" stroke-linecap="round" stroke-linejoin="round" __comx="174.802" __comy="67.96" __timestamp="0x1780e031c16" d="M26.018 68.226 l297.567 0" />
  </g>
</svg>
