<svg class="write-page" width="1010px" height="1628px" xmlns="http://www.w3.org/2000/svg" xmlns:xlink="http://www.w3.org/1999/xlink">
  <g class="write-content write-v3" width="1010" height="1628" xruling="30" yruling="30" marginLeft="30" papercolor="#1B1C1C" rulecolor="#3A00F9FF">
    <g class="ruleline write-std-ruling write-scale-down" fill="none" stroke="#00F9FF" stroke-opacity="0.227" stroke-width="1" shape-rendering="crispEdges" vector-effect="non-scaling-stroke">
      <rect class="pagerect" fill="#1B1C1C" stroke="none" x="0" y="0" width="1010" height="1628" />
      <path class="yrule_1" d="M0 30 l1010 0" />
      <path d="M0 60 l1010 0" />
      <path d="M0 90 l1010 0" />
      <path d="M0 120 l1010 0" />
      <path d="M0 150 l1010 0" />
      <path d="M0 180 l1010 0" />
      <path d="M0 210 l1010 0" />
      <path d="M0 240 l1010 0" />
      <path d="M0 270 l1010 0" />
      <path d="M0 300 l1010 0" />
      <path d="M0 330 l1010 0" />
      <path d="M0 360 l1010 0" />
      <path d="M0 390 l1010 0" />
      <path d="M0 420 l1010 0" />
      <path d="M0 450 l1010 0" />
      <path d="M0 480 l1010 0" />
      <path d="M0 510 l1010 0" />
      <path d="M0 540 l1010 0" />
      <path d="M0 570 l1010 0" />
      <path d="M0 600 l1010 0" />
      <path d="M0 630 l1010 0" />
      <path d="M0 660 l1010 0" />
      <path d="M0 690 l1010 0" />
      <path d="M0 720 l1010 0" />
      <path d="M0 750 l1010 0" />
      <path d="M0 780 l1010 0" />
      <path d="M0 810 l1010 0" />
      <path d="M0 840 l1010 0" />
      <path d="M0 870 l1010 0" />
      <path d="M0 900 l1010 0" />
      <path d="M0 930 l1010 0" />
      <path d="M0 960 l1010 0" />
      <path d="M0 990 l1010 0" />
      <path d="M0 1020 l1010 0" />
      <path d="M0 1050 l1010 0" />
      <path d="M0 1080 l1010 0" />
      <path d="M0 1110 l1010 0" />
      <path d="M0 1140 l1010 0" />
      <path d="M0 1170 l1010 0" />
      <path d="M0 1200 l1010 0" />
      <path d="M0 1230 l1010 0" />
      <path d="M0 1260 l1010 0" />
      <path d="M0 1290 l1010 0" />
      <path d="M0 1320 l1010 0" />
      <path d="M0 1350 l1010 0" />
      <path d="M0 1380 l1010 0" />
      <path d="M0 1410 l1010 0" />
      <path d="M0 1440 l1010 0" />
      <path d="M0 1470 l1010 0" />
      <path d="M0 1500 l1010 0" />
      <path d="M0 1530 l1010 0" />
      <path d="M0 1560 l1010 0" />
      <path d="M0 1590 l1010 0" />
      <path d="M0 1620 l1010 0" />
      <path class="xrule_1" d="M30 0 l0 1628" />
      <path d="M60 0 l0 1628" />
      <path d="M90 0 l0 1628" />
      <path d="M120 0 l0 1628" />
      <path d="M150 0 l0 1628" />
      <path d="M180 0 l0 1628" />
      <path d="M210 0 l0 1628" />
      <path d="M240 0 l0 1628" />
      <path d="M270 0 l0 1628" />
      <path d="M300 0 l0 1628" />
      <path d="M330 0 l0 1628" />
      <path d="M360 0 l0 1628" />
      <path d="M390 0 l0 1628" />
      <path d="M420 0 l0 1628" />
      <path d="M450 0 l0 1628" />
      <path d="M480 0 l0 1628" />
      <path d="M510 0 l0 1628" />
      <path d="M540 0 l0 1628" />
      <path d="M570 0 l0 1628" />
      <path d="M600 0 l0 1628" />
      <path d="M630 0 l0 1628" />
      <path d="M660 0 l0 1628" />
      <path d="M690 0 l0 1628" />
      <path d="M720 0 l0 1628" />
      <path d="M750 0 l0 1628" />
      <path d="M780 0 l0 1628" />
      <path d="M810 0 l0 1628" />
      <path d="M840 0 l0 1628" />
      <path d="M870 0 l0 1628" />
      <path d="M900 0 l0 1628" />
      <path d="M930 0 l0 1628" />
      <path d="M960 0 l0 1628" />
      <path d="M990 0 l0 1628" />
      <path class="leftmargin" stroke="#FF0000" d="M30 0 l0 1628" />
    </g>
    <path class="write-flat-pen" fill="#FFFFFF" stroke-width="1.6" __comx="90.654" __comy="50.566" __timestamp="0x178f5167446" d="M86.302 36.741 l0.875 -0.361 0.1 -0.061 0.651 -0.661 0.08 -0.432 -0.539 -0.914 -0.543 -0.177 -2.155 0.413 -2.399 1.796 -1.957 2.432 -1.679 3.13 -1.279 3.687 -0.742 5.138 0.168 3.589 0.938 3.07 1.099 1.796 2.22 2.028 3.123 1.169 2.567 0.167 3.872 -0.85 3.912 -2.03 3.541 -2.764 2.861 -3.131 2.087 -3.324 1.2 -3.205 0.29 -3.06 -0.538 -2.255 -1.187 -2.224 -2.347 -2.685 -2.581 -1.857 -3.351 -1.442 -3.109 -0.541 -2.264 0.194 -2.523 1.046 -1.534 1.347 -1.298 2.579 -0.13 0.586 -0.066 0.586 0.027 0.576 0.13 2.61 0.197 0.02 0.643 -2.533 0.134 -0.496 0.154 -0.454 0.152 -0.375 1.294 -2.093 1.148 -0.973 2.055 -0.852 1.81 -0.155 2.719 0.473 3.018 1.299 2.29 1.647 2.106 2.409 1.003 1.88 0.428 1.797 -0.245 2.585 -1.069 2.854 -1.924 3.064 -2.673 2.926 -3.319 2.59 -3.593 1.865 -3.445 0.758 -2.107 -0.134 -2.616 -0.974 -1.827 -1.667 -0.874 -1.432 -0.813 -2.688 -0.15 -3.238 0.697 -4.836 1.185 -3.425 1.542 -2.895 1.728 -2.186 1.95 -1.546 1.474 -0.445 -0.173 -0.072 0.231 0.102 0.052 -0.214 -0.219 0.538 0.024 -0.006 -0.711 0.577" />
    <path class="write-flat-pen" fill="#FFFFFF" stroke-width="1.6" __comx="95.06" __comy="50.566" __timestamp="0x178f51675cd" d="M85.293 58.583 l-0.334 -1.595 0.029 -0.113 0.74 -1.938 1.286 -1.656 1.634 -1.062 1.405 -0.288 0.821 0.278 0.995 0.961 2.846 6.104 1.594 2.154 1.737 1.181 4.345 0.65 0.579 -0.071 0.535 -0.133 2.662 -0.655 -0.024 -0.227 -2.74 -0.092 -0.52 -0.023 -0.414 -0.023 -3.857 -0.814 -1.27 -0.869 -1.364 -1.834 -2.945 -6.188 -1.427 -1.345 -1.478 -0.478 -2.017 0.448 -2.007 1.373 -1.459 2.047 -0.661 2.279 -0.032 0.422 0.639 1.715" />
    <path class="write-flat-pen" fill="#FFFFFF" stroke-width="1.6" __comx="117.351" __comy="50.566" __timestamp="0x178f51677bc" d="M111.003 49.664 l-0.598 0.156 -0.097 0.294 -0.242 0.964 -0.045 0.356 -0.024 4.249 0.067 0.47 0.754 1.971 1.237 1.182 1.672 0.389 1.557 -0.377 1.748 -1.261 1.222 -1.712 0.853 -2.478 0 0 -0.07 -1.461 0 0 -1.279 -0.601 -0.692 0.52 0.146 2.441 0.877 2.475 1.247 1.613 2.282 1.034 0.5 -0.003 0.293 -0.057 2.292 -0.486 -0.001 -0.131 -2.3 -0.445 -0.231 -0.053 -0.183 -0.07 -1.631 -0.994 -0.844 -1.17 -0.717 -2.033 -0.082 -1.358 0.005 -0.004 -1.279 -0.601 0 0 0.056 1.155 0 0 -0.676 1.971 -0.933 1.314 -1.281 0.935 -0.895 0.228 -0.907 -0.192 -0.706 -0.641 -0.617 -1.486 -0.039 -0.216 -0.25 -4.1 -0.008 -0.278 -0.03 -0.909 -0.062 0.152 0.154 -0.145" />
    <path class="write-flat-pen" fill="#FFFFFF" stroke-width="1.6" __comx="127.464" __comy="50.566" __timestamp="0x178f5167875" d="M125.753 52.497 l-0.315 1.722 -0.039 0.409 0 3.067 0.597 1.93 1.503 0.891 1.98 -0.062 0.051 -0.274 -1.586 -0.72 -0.76 -0.703 -0.424 -1.294 -0.193 -2.828 -0.007 -0.328 0.07 -1.711" />
    <path class="write-flat-pen" fill="#FFFFFF" stroke-width="1.6" __comx="124.647" __comy="50.566" __timestamp="0x178f5167902" d="M124.829 43.038 l-0.89 0.837 0.475 1.073 0.181 -0.03 0.166 -0.766 0.594 -0.555" />
    <path class="write-flat-pen" fill="#FFFFFF" stroke-width="1.6" __comx="138.443" __comy="50.566" __timestamp="0x178f5167a7d" d="M131.724 47.003 l-0.008 0.652 0.158 0.057 0.116 -0.02 1.35 -0.446 0.282 -0.107 2.717 -0.831 2.674 -0.301 0.702 0.313 0.301 0.526 -0.03 0.958 -3.38 6.483 -0.56 2.265 0.596 1.597 1.612 1.301 3.659 0.813 0.489 -0.048 0.349 -0.074 2.661 -0.55 -0.009 -0.24 -2.694 -0.352 -0.339 -0.048 -0.297 -0.038 -3.092 -0.916 -1.011 -0.81 -0.284 -0.736 0.378 -1.62 3.385 -6.664 -0.008 -1.72 -0.788 -1.228 -1.45 -0.59 -3.152 0.399 -2.853 1.009 -0.322 0.157 -1.248 0.702 -0.097 0.079 -0.059 0.157 0.511 0.392" />
    <path class="write-flat-pen" fill="#FFFFFF" stroke-width="1.6" __comx="140.766" __comy="50.566" __timestamp="0x178f5167b42" d="M135.932 51.927 l0.927 -0.025 0.331 0.001 5.851 -0.605 2.669 -0.533 -0.045 -0.403 -2.714 0.065 -5.843 0.514 -0.36 0.053 -0.925 0.289" />
    <path class="write-flat-pen" fill="#FFFFFF" stroke-width="1.6" __comx="171.302" __comy="50.566" __timestamp="0x178f5167d21" d="M169.429 34.79 l-0.447 2.454 0.018 0.89 1.22 11.84 1.563 6.387 0.212 0.337 1.48 2.264 0.145 -0.067 -0.779 -2.59 -0.074 -0.278 -1.268 -6.266 -1.396 -11.714 -0.06 -0.76 0.176 -2.396" />
    <path class="write-flat-pen" fill="#FFFFFF" stroke-width="1.6" __comx="184.843" __comy="50.566" __timestamp="0x178f5168115" d="M176.318 38.764 l0.391 -0.4 0.015 -0.012 0.71 -0.732 0.015 -0.021 0.891 -0.933 0.124 -0.091 2.376 -1.227 0.174 -0.052 2.071 -0.347 2.28 0.228 1.496 0.616 0.584 0.635 0.095 0.634 -0.42 0.91 -1.66 1.425 0 0 -4.765 2.64 0 0 -0.487 0.802 0 0 0.479 1.187 4.083 1.081 3.634 1.594 2.511 1.625 0.848 1.034 0.101 0.763 -0.291 0.634 -1.171 0.987 -2.409 1.03 -6.557 1.483 -2.662 1.07 0.023 0.153 2.905 0.226 6.779 -1.4 2.77 -1.184 1.628 -1.372 0.632 -1.379 -0.221 -1.672 -1.296 -1.579 -2.829 -1.831 -3.866 -1.695 -4.203 -1.112 0.479 1.187 0 0 0.265 -0.439 0 0 4.534 -2.519 0 0 2.042 -1.767 0.745 -1.669 -0.273 -1.563 -1.152 -1.205 -2.025 -0.795 -2.706 -0.196 -2.342 0.517 -0.371 0.144 -2.443 1.57 -0.243 0.247 -0.785 1.209 -0.013 0.034 -0.465 0.862 -0.017 0.041 -0.154 0.543" />
    <path class="write-stroke-pen" fill="none" stroke="#FFFFFF" stroke-width="1.6" stroke-linecap="round" stroke-linejoin="round" __comx="134.752" __comy="78.583" __timestamp="0x178f51694ae" d="M58.726 78.936 l152.052 -0.173" />
  </g>
</svg>
