<svg class="write-page" width="1010px" height="1628px" xmlns="http://www.w3.org/2000/svg" xmlns:xlink="http://www.w3.org/1999/xlink">
  <g class="write-content write-v3" width="1010" height="1628" xruling="30" yruling="30" marginLeft="30" papercolor="#1B1C1C" rulecolor="#3A00F9FF">
    <g class="ruleline write-std-ruling write-scale-down" fill="none" stroke="#00F9FF" stroke-opacity="0.227" stroke-width="1" shape-rendering="crispEdges" vector-effect="non-scaling-stroke">
      <rect class="pagerect" fill="#1B1C1C" stroke="none" x="0" y="0" width="1010" height="1628" />
      <path class="yrule_1" d="M0 30 l1010 0" />
      <path d="M0 60 l1010 0" />
      <path d="M0 90 l1010 0" />
      <path d="M0 120 l1010 0" />
      <path d="M0 150 l1010 0" />
      <path d="M0 180 l1010 0" />
      <path d="M0 210 l1010 0" />
      <path d="M0 240 l1010 0" />
      <path d="M0 270 l1010 0" />
      <path d="M0 300 l1010 0" />
      <path d="M0 330 l1010 0" />
      <path d="M0 360 l1010 0" />
      <path d="M0 390 l1010 0" />
      <path d="M0 420 l1010 0" />
      <path d="M0 450 l1010 0" />
      <path d="M0 480 l1010 0" />
      <path d="M0 510 l1010 0" />
      <path d="M0 540 l1010 0" />
      <path d="M0 570 l1010 0" />
      <path d="M0 600 l1010 0" />
      <path d="M0 630 l1010 0" />
      <path d="M0 660 l1010 0" />
      <path d="M0 690 l1010 0" />
      <path d="M0 720 l1010 0" />
      <path d="M0 750 l1010 0" />
      <path d="M0 780 l1010 0" />
      <path d="M0 810 l1010 0" />
      <path d="M0 840 l1010 0" />
      <path d="M0 870 l1010 0" />
      <path d="M0 900 l1010 0" />
      <path d="M0 930 l1010 0" />
      <path d="M0 960 l1010 0" />
      <path d="M0 990 l1010 0" />
      <path d="M0 1020 l1010 0" />
      <path d="M0 1050 l1010 0" />
      <path d="M0 1080 l1010 0" />
      <path d="M0 1110 l1010 0" />
      <path d="M0 1140 l1010 0" />
      <path d="M0 1170 l1010 0" />
      <path d="M0 1200 l1010 0" />
      <path d="M0 1230 l1010 0" />
      <path d="M0 1260 l1010 0" />
      <path d="M0 1290 l1010 0" />
      <path d="M0 1320 l1010 0" />
      <path d="M0 1350 l1010 0" />
      <path d="M0 1380 l1010 0" />
      <path d="M0 1410 l1010 0" />
      <path d="M0 1440 l1010 0" />
      <path d="M0 1470 l1010 0" />
      <path d="M0 1500 l1010 0" />
      <path d="M0 1530 l1010 0" />
      <path d="M0 1560 l1010 0" />
      <path d="M0 1590 l1010 0" />
      <path d="M0 1620 l1010 0" />
      <path class="xrule_1" d="M30 0 l0 1628" />
      <path d="M60 0 l0 1628" />
      <path d="M90 0 l0 1628" />
      <path d="M120 0 l0 1628" />
      <path d="M150 0 l0 1628" />
      <path d="M180 0 l0 1628" />
      <path d="M210 0 l0 1628" />
      <path d="M240 0 l0 1628" />
      <path d="M270 0 l0 1628" />
      <path d="M300 0 l0 1628" />
      <path d="M330 0 l0 1628" />
      <path d="M360 0 l0 1628" />
      <path d="M390 0 l0 1628" />
      <path d="M420 0 l0 1628" />
      <path d="M450 0 l0 1628" />
      <path d="M480 0 l0 1628" />
      <path d="M510 0 l0 1628" />
      <path d="M540 0 l0 1628" />
      <path d="M570 0 l0 1628" />
      <path d="M600 0 l0 1628" />
      <path d="M630 0 l0 1628" />
      <path d="M660 0 l0 1628" />
      <path d="M690 0 l0 1628" />
      <path d="M720 0 l0 1628" />
      <path d="M750 0 l0 1628" />
      <path d="M780 0 l0 1628" />
      <path d="M810 0 l0 1628" />
      <path d="M840 0 l0 1628" />
      <path d="M870 0 l0 1628" />
      <path d="M900 0 l0 1628" />
      <path d="M930 0 l0 1628" />
      <path d="M960 0 l0 1628" />
      <path d="M990 0 l0 1628" />
      <path class="leftmargin" stroke="#FF0000" d="M30 0 l0 1628" />
    </g>
    <path class="write-flat-pen" fill="#FFFFFF" stroke-width="1.6" __comx="124.319" __comy="49.14" __timestamp="0x178f4d65fb4" d="M127.737 34.789 l0.167 -1.683 -0.065 -0.218 -0.955 -1.162 -1.935 -0.339 -2.938 0.857 -3.328 2.248 -2.932 3.458 -2.101 4.322 -0.883 3.571 -0.261 4.727 0.615 3.256 1.292 2.833 2.003 2.322 2.799 1.521 3.182 0.518 3.478 -0.617 3.319 -1.584 2.859 -2.372 2.209 -3.248 1.349 -3.745 0.524 -3.843 -0.351 -3.756 -1.322 -3.942 -1.843 -3.024 -2.27 -2.302 -2.205 -1.138 -2.583 0.971 -0.357 0.541 -0.168 0.427 -0.94 2.427 0.206 0.121 1.655 -2.009 0.252 -0.291 0.135 -0.101 1.653 -0.374 1.391 0.728 1.964 1.989 1.659 2.712 1.225 3.596 0.342 3.396 -0.458 3.51 -1.209 3.422 -1.969 2.926 -2.549 2.13 -2.97 1.431 -3.04 0.551 -2.701 -0.429 -2.362 -1.271 -1.71 -1.966 -1.149 -2.49 -0.558 -2.921 0.241 -4.429 0.806 -3.308 1.944 -4.049 2.682 -3.213 2.991 -2.086 2.48 -0.825 1.346 0.11 0.729 0.637 -0.018 -0.078 0.18 1.554" />
    <path class="write-flat-pen" fill="#FFFFFF" stroke-width="1.6" __comx="130.738" __comy="49.14" __timestamp="0x178f4d6615f" d="M124.532 52.484 l-0.577 -0.379 0.092 0.123 0.463 -1.362 -0.004 0.021 1.199 -0.851 1.498 -0.328 1.427 0.291 1.24 0.891 2.964 5.807 1.318 1.357 1.647 0.136 2.465 -0.632 -0.017 -0.199 -2.406 -0.207 -1.034 -0.32 -0.84 -0.934 -3.037 -5.924 -1.758 -1.238 -1.996 -0.372 -2.023 0.51 -1.472 1.199 -0.223 0.315 -0.246 1.948 0.218 0.37 0.969 0.159" />
    <path class="write-flat-pen" fill="#FFFFFF" stroke-width="1.6" __comx="153.39" __comy="49.14" __timestamp="0x178f4d6635f" d="M144.852 46.264 l-0.195 1.206 -0.005 0.398 0.276 7.283 0.187 0.563 0.965 1.426 1.581 0.533 1.848 -0.644 2.011 -1.966 0 0 2.844 -5.491 0 0 0.32 -1.673 0 0 -1.406 -0.338 -0.647 2.141 0.071 3.121 0.853 3.105 1.326 2.213 1.964 1.365 2.48 -0.101 0.507 -0.308 2.297 -1.485 -0.087 -0.193 -2.631 0.747 -0.33 0.071 -1.773 -0.147 -1.315 -0.974 -1.059 -1.776 -0.75 -2.735 -0.069 -2.708 0.554 -1.927 -1.406 -0.338 0 0 -0.269 1.469 0 0 -2.612 5.125 0 0 -1.615 1.624 -1.128 0.427 -0.758 -0.221 -0.664 -0.904 -0.09 -0.241 -0.61 -7.091 -0.04 -0.361 -0.14 -1.185" />
    <path class="write-flat-pen" fill="#FFFFFF" stroke-width="1.6" __comx="164.671" __comy="49.14" __timestamp="0x178f4d6645b" d="M163.876 47.914 l-0.318 2.132 -0.033 0.449 -0.112 4.434 0.766 2.001 1.576 1.106 0.174 -0.157 -0.794 -1.515 -0.498 -1.644 -0.152 -4.214 -0.011 -0.414 -0.001 -2.134" />
    <path class="write-flat-pen" fill="#FFFFFF" stroke-width="1.6" __comx="165.417" __comy="49.14" __timestamp="0x178f4d664f3" d="M165.354 41.241 l-0.518 0.808 0.086 0.004 1.025 -0.011 0.051 -0.172 -0.862 -0.572 -0.086 -0.043 0.304 0.808" />
    <path class="write-flat-pen" fill="#FFFFFF" stroke-width="1.6" __comx="181.978" __comy="49.14" __timestamp="0x178f4d666b7" d="M174.09 44.185 l3.782 -0.564 0.361 -0.063 3.375 -0.372 1.73 0.307 1.05 0.728 0.466 1.067 -0.291 1.533 -4.533 7.233 -1.36 3.337 0.476 1.608 1.603 1.084 5.648 -0.344 0.339 -0.093 3.282 -0.927 -0.036 -0.249 -3.41 0.05 -0.283 -0.002 -5.092 0.003 -0.746 -0.489 -0.19 -0.577 1.043 -2.765 4.465 -7.407 0.384 -2.153 -0.794 -1.725 -1.563 -1.04 -2.151 -0.367 -3.579 0.435 -0.403 0.08 -3.72 0.905" />
    <path class="write-flat-pen" fill="#FFFFFF" stroke-width="1.6" __comx="184.365" __comy="49.14" __timestamp="0x178f4d667a0" d="M177.609 52.585 l-0.286 0.774 2.826 -0.637 0.735 -0.147 7.477 -1.657 3.263 -0.837 -0.039 -0.245 -3.38 0.224 -7.558 1.392 -0.773 0.181 -2.769 0.969 0.504 0.774" />
    <path class="write-flat-pen" fill="#FFFFFF" stroke-width="1.6" __comx="231.187" __comy="49.14" __timestamp="0x178f4d66971" d="M229.86 33.039 l-0.84 0.983 -0.106 0.643 -0.04 5.109 1.655 15.716 1.026 3.705 1.705 2.901 0.238 -0.106 -0.968 -3.127 -0.749 -3.591 -1.684 -15.571 -0.172 -4.982 0.015 -0.36 0.449 -0.971" />
    <path class="write-flat-pen" fill="#FFFFFF" stroke-width="1.6" __comx="248.103" __comy="49.14" __timestamp="0x178f4d66bbb" d="M237.493 38.149 l0.114 -1.2 0.026 -0.044 1.001 -1.661 1.491 -1.176 1.621 -0.489 2.173 0.154 2.876 1.002 2.177 1.425 0.936 1.216 0.123 0.988 -0.679 1.066 -4.048 1.783 0.429 1.518 6.324 2.671 3.947 2.374 1.501 1.569 0.522 1.384 -0.119 1.085 -1.276 1.734 -2.556 1.508 -3.253 0.898 -4.209 0.326 -3.776 -0.769 -3.363 -0.821 -0.138 0.347 3.1 1.745 4.053 1.086 4.606 -0.357 3.6 -1.002 2.998 -1.796 1.68 -2.337 0.184 -1.849 -0.77 -1.995 -1.848 -1.928 -4.204 -2.532 -5.718 -2.459 0.15 0.489 3.252 -1.447 1.188 -1.966 -0.307 -1.914 -1.359 -1.683 -2.539 -1.609 -3.216 -1.089 -2.604 -0.154 -2.086 0.679 -1.807 1.559 -0.986 2.077 -0.057 0.301 0.213 1.319" />
  </g>
</svg>
