<svg class="write-page" width="1010px" height="1628px" xmlns="http://www.w3.org/2000/svg" xmlns:xlink="http://www.w3.org/1999/xlink">
  <g class="write-content write-v3" width="1010" height="1628" xruling="30" yruling="30" marginLeft="30" papercolor="#1B1C1C" rulecolor="#3A00F9FF">
    <g class="ruleline write-std-ruling write-scale-down" fill="none" stroke="#00F9FF" stroke-opacity="0.227" stroke-width="1" shape-rendering="crispEdges" vector-effect="non-scaling-stroke">
      <rect class="pagerect" fill="#1B1C1C" stroke="none" x="0" y="0" width="1010" height="1628" />
      <path class="yrule_1" d="M0 30 l1010 0" />
      <path d="M0 60 l1010 0" />
      <path d="M0 90 l1010 0" />
      <path d="M0 120 l1010 0" />
      <path d="M0 150 l1010 0" />
      <path d="M0 180 l1010 0" />
      <path d="M0 210 l1010 0" />
      <path d="M0 240 l1010 0" />
      <path d="M0 270 l1010 0" />
      <path d="M0 300 l1010 0" />
      <path d="M0 330 l1010 0" />
      <path d="M0 360 l1010 0" />
      <path d="M0 390 l1010 0" />
      <path d="M0 420 l1010 0" />
      <path d="M0 450 l1010 0" />
      <path d="M0 480 l1010 0" />
      <path d="M0 510 l1010 0" />
      <path d="M0 540 l1010 0" />
      <path d="M0 570 l1010 0" />
      <path d="M0 600 l1010 0" />
      <path d="M0 630 l1010 0" />
      <path d="M0 660 l1010 0" />
      <path d="M0 690 l1010 0" />
      <path d="M0 720 l1010 0" />
      <path d="M0 750 l1010 0" />
      <path d="M0 780 l1010 0" />
      <path d="M0 810 l1010 0" />
      <path d="M0 840 l1010 0" />
      <path d="M0 870 l1010 0" />
      <path d="M0 900 l1010 0" />
      <path d="M0 930 l1010 0" />
      <path d="M0 960 l1010 0" />
      <path d="M0 990 l1010 0" />
      <path d="M0 1020 l1010 0" />
      <path d="M0 1050 l1010 0" />
      <path d="M0 1080 l1010 0" />
      <path d="M0 1110 l1010 0" />
      <path d="M0 1140 l1010 0" />
      <path d="M0 1170 l1010 0" />
      <path d="M0 1200 l1010 0" />
      <path d="M0 1230 l1010 0" />
      <path d="M0 1260 l1010 0" />
      <path d="M0 1290 l1010 0" />
      <path d="M0 1320 l1010 0" />
      <path d="M0 1350 l1010 0" />
      <path d="M0 1380 l1010 0" />
      <path d="M0 1410 l1010 0" />
      <path d="M0 1440 l1010 0" />
      <path d="M0 1470 l1010 0" />
      <path d="M0 1500 l1010 0" />
      <path d="M0 1530 l1010 0" />
      <path d="M0 1560 l1010 0" />
      <path d="M0 1590 l1010 0" />
      <path d="M0 1620 l1010 0" />
      <path class="xrule_1" d="M30 0 l0 1628" />
      <path d="M60 0 l0 1628" />
      <path d="M90 0 l0 1628" />
      <path d="M120 0 l0 1628" />
      <path d="M150 0 l0 1628" />
      <path d="M180 0 l0 1628" />
      <path d="M210 0 l0 1628" />
      <path d="M240 0 l0 1628" />
      <path d="M270 0 l0 1628" />
      <path d="M300 0 l0 1628" />
      <path d="M330 0 l0 1628" />
      <path d="M360 0 l0 1628" />
      <path d="M390 0 l0 1628" />
      <path d="M420 0 l0 1628" />
      <path d="M450 0 l0 1628" />
      <path d="M480 0 l0 1628" />
      <path d="M510 0 l0 1628" />
      <path d="M540 0 l0 1628" />
      <path d="M570 0 l0 1628" />
      <path d="M600 0 l0 1628" />
      <path d="M630 0 l0 1628" />
      <path d="M660 0 l0 1628" />
      <path d="M690 0 l0 1628" />
      <path d="M720 0 l0 1628" />
      <path d="M750 0 l0 1628" />
      <path d="M780 0 l0 1628" />
      <path d="M810 0 l0 1628" />
      <path d="M840 0 l0 1628" />
      <path d="M870 0 l0 1628" />
      <path d="M900 0 l0 1628" />
      <path d="M930 0 l0 1628" />
      <path d="M960 0 l0 1628" />
      <path d="M990 0 l0 1628" />
      <path class="leftmargin" stroke="#FF0000" d="M30 0 l0 1628" />
    </g>
    <path class="write-stroke-pen" transform="translate(-145.464,-3105.002)" fill="none" stroke="#FFFFFF" stroke-width="1.6" stroke-linecap="round" stroke-linejoin="round" __comx="328.972" __comy="-16.397" __timestamp="0x178ad17ff8b" d="M199.128 3088.418 l550.616 2.724" />
    <path class="write-flat-pen" transform="translate(-145.464,-3105.002)" fill="#FFFFFF" stroke-width="1.6" __comx="305.042" __comy="-221.512" __timestamp="0x178ad180a0b" d="M448.126 2882.659 l-0.367 -1.854 -0.076 -0.224 -1.118 -0.605 -0.563 0.362 -9.504 10.727 -0.374 0.418 0 0 -2.542 2.141 0 0 1.234 0.954 0.776 -1.612 3.547 -3.663 9.917 -8.118 0.896 0.398 5.915 8.183 8.073 7.738 3.557 2.466 0.138 -0.149 -2.72 -3.343 -7.832 -7.761 -6.087 -8.42 -2.19 -0.974 -10.751 8.802 -3.791 3.917 -0.885 1.848 1.234 0.954 0 0 2.623 -2.22 0 0 0.457 -0.514 9.094 -10.915 -0.05 -0.005 0.415 -0.059 -0.028 -0.101 0.756 1.707" />
    <path class="write-flat-pen" transform="translate(-145.464,-3105.002)" fill="#FFFFFF" stroke-width="1.6" __comx="243.128" __comy="-231.244" __timestamp="0x178ad180c66" d="M383.79 2872.728 l0.405 -0.031 -0.065 0.001 1.81 2.955 0.326 0.564 4.057 6.618 2.99 2.812 0.235 -0.196 -2.169 -3.378 -4.083 -6.493 -0.375 -0.572 -2.253 -2.844 -0.449 -0.27 -0.582 0.586" />
    <path class="write-flat-pen" transform="translate(-145.464,-3105.002)" fill="#FFFFFF" stroke-width="1.6" __comx="247.692" __comy="-230.158" __timestamp="0x178ad180d74" d="M400.063 2871.065 l-1.175 1.906 -0.232 0.547 -3.402 7.157 -9.079 14.945 -0.55 3.717 0.136 0.042 1.585 -3.23 9.164 -14.806 3.229 -7.375 0.181 -0.551 0.768 -2.046" />
    <path class="write-flat-pen" transform="translate(-145.464,-3105.002)" fill="#FFFFFF" stroke-width="1.6" __comx="247.405" __comy="-250.379" __timestamp="0x178ad180f4e" d="M382.941 2860.313 l0.862 -1.765 0.179 -0.199 7.17 -8.968 -0.078 0.077 0.717 -0.248 0.927 0.577 7.617 14.778 2.803 3.325 0.218 -0.149 -2.042 -3.752 -7.428 -15.28 -1.936 -1.151 -1.67 0.627 -0.223 0.215 -6.897 9.321 -0.237 0.346 -0.54 2.042" />
    <path class="write-flat-pen" transform="translate(-145.464,-3105.002)" fill="#FFFFFF" stroke-width="1.6" __comx="608.185" __comy="-21.597" __timestamp="0x178ad1813b7" d="M753.402 3090.795 l-0.784 -4.005 -0.12 -0.466 -3.574 -8.477 -0.227 -0.361 0 0 -3.201 -3.853 0 0 -1.2 1.032 4.391 4.997 4.86 3.94 7.053 4.183 0.726 0.933 -0.135 0.851 -8.31 8.855 -2.564 5.187 0.285 3.817 0.299 0.019 0.749 -3.465 2.549 -4.625 8.495 -9.053 0.322 -2.023 -1.339 -1.719 -7.213 -4.277 -4.666 -3.781 -4.314 -4.886 -1.2 1.032 0 0 3.181 3.74 0 0 0.119 0.181 3.893 8.133 0.126 0.363 1.173 3.883" />
    <path class="write-flat-pen" transform="translate(-146.115,-3101.135)" fill="#FFFFFF" stroke-width="1.6" __comx="299.787" __comy="-14.807" __timestamp="0x178ad181ee5" d="M444.589 3089.243 l1.08 -0.206 -0.15 -0.021 0.745 0.552 0.019 0.41 -0.675 0.749 -1.042 0.261 -0.827 -0.426 -0.208 -0.567 0.422 -0.892 1.463 -0.899 3.071 -0.646 1.998 0.215 0.802 0.715 0.054 0.738 -0.783 1.291 -1.699 1.038 -1.941 0.276 -2.29 -0.525 -1.608 -1.188 -0.687 -1.467 0.223 -1.373 1.09 -1.215 2.334 -0.913 2.561 -0.042 1.552 0.695 0.629 0.966 -0.061 1.539 -1.399 2.288 -2.431 1.822 -2.511 0.823 -1.913 -0.148 -1.311 -0.873 -0.621 -1.465 0.287 -2.092 1.474 -2.388 2.604 -2.033 2.971 -1.091 1.768 -0.038 0.744 0.506 0.051 0.728 -1.081 1.586 -2.297 1.403 -3.105 0.833 -1.822 -0.233 -0.333 -0.391 0.167 -0.611 1.264 -1.071 2.768 -0.978 2.131 -0.033 0.648 0.458 0.162 0.672 -0.74 1.579 -1.996 1.555 -4.068 1.006 -2.313 0.047 -0.034 0.13 2.32 1.256 4.793 -0.955 2.583 -2.013 1.141 -2.435 -0.435 -1.802 -1.564 -1.107 -2.915 0.045 -3.292 1.163 -1.867 1.582 -0.519 1.904 1.281 1.506 2.75 0.352 3.632 -0.975 2.788 -1.703 1.587 -2.329 -0.143 -2.057 -1.81 -1.23 -2.546 0.055 -3.456 1.27 -3.028 2.364 -1.802 2.92 -0.393 2.863 0.98 2.312 2.057 1.37 2.647 0.205 3.064 -1.004 2.887 -2.164 1.777 -2.905 0.098 -2.464 -1.164 -1.788 -2.307 -1.033 -3.204 0.053 -2.957 1.157 -1.657 1.847 -0.378 2.324 1.068 2.283 2.203 1.627 2.904 0.665 2.561 -0.364 2.313 -1.414 1.249 -2.06 -0.138 -1.894 -1.669 -1.486 -2.76 -0.295 -3.589 0.762 -2.097 1.304 -0.884 1.933 0.689 1.741 1.908 0.899 2.011 -0.627 1.202 -1.669 -0.389 -1.452 -1.422 -0.666 -0.25 -0.041 -1.163 0.703" />
    <path class="write-flat-pen" transform="translate(-145.464,-3105.002)" fill="#D534A9" stroke-width="1.6" __comx="443.207" __comy="-146.312" __timestamp="0x178ad19bb20" d="M594.401 2935.535 l0.386 -0.797 0.023 -0.169 -0.07 -0.46 -0.201 -0.242 -0.543 -0.303 -0.373 -0.02 -0.977 0.24 -0.502 0.256 -1.522 1.126 -1.739 1.947 -1.814 2.767 -1.64 3.567 -1.396 4.309 -0.987 4.684 -0.451 4.524 -0.063 4.133 0.422 3.67 0.781 3 1.032 2.383 1.241 1.906 3.169 2.75 0.52 0.289 0.939 0.401 0.48 0.134 0.459 0.08 0.437 0.027 1.694 0.106 0.032 -0.122 -1.525 -0.744 -0.37 -0.187 -0.367 -0.184 -0.358 -0.188 -0.772 -0.476 -0.343 -0.241 -2.82 -2.646 -1.045 -1.637 -0.926 -2.157 -0.707 -2.78 -0.381 -3.461 0.072 -3.964 0.436 -4.372 0.952 -4.517 1.34 -4.14 1.548 -3.376 1.674 -2.584 1.53 -1.788 1.263 -1.045 0.265 -0.173 0.618 -0.273 -0.056 -0.022 0.173 -0.014 -0.084 -0.119 0.086 0.03 0.018 -0.113 -0.184 0.753" />
    <path class="write-flat-pen" transform="translate(-145.464,-3105.002)" fill="#D534A9" stroke-width="1.6" __comx="462.647" __comy="-146.312" __timestamp="0x178ad19bd8e" d="M612.062 2953.262 l0.099 -0.555 0.027 -0.073 0.111 -0.461 0.016 -0.169 -0.048 -0.713 -0.094 -0.278 -0.639 -0.962 -0.353 -0.239 -1.032 -0.356 -1.51 0.143 -1.616 0.817 -1.511 1.457 -1.28 1.946 -0.966 2.217 -0.556 2.168 -0.247 2.763 0.199 1.83 0.747 1.976 0.949 1.179 1.611 0.962 1.537 0.301 1.615 -0.175 2.295 -1.019 0.417 -0.3 0.329 -0.285 0.303 -0.311 0.233 -0.319 1.055 -1.425 -0.151 -0.176 -1.566 0.832 -0.327 0.163 -0.329 0.179 -0.321 0.173 -0.318 0.155 -2.021 0.767 -1.146 0.124 -1.025 -0.201 -1.125 -0.672 -0.609 -0.757 -0.585 -1.547 -0.16 -1.47 0.221 -2.476 0.491 -1.919 0.859 -1.975 1.105 -1.686 1.208 -1.178 1.139 -0.598 0.902 -0.121 0.561 0.144 -0.012 -0.02 0.501 0.527 0.009 -0.019 0.156 0.466 0.016 0.044 0.059 0.424 0.012 0.079 0.04 0.58" />
    <path class="write-flat-pen" transform="translate(-145.464,-3105.002)" fill="#D534A9" stroke-width="1.6" __comx="474.357" __comy="-146.312" __timestamp="0x178ad19bf43" d="M621.979 2957.799 l-0.097 -0.571 -0.002 -0.071 -0.054 -0.446 -0.034 -0.144 -0.261 -0.669 -0.172 -0.262 -1.218 -0.867 -0.526 -0.102 -1.102 0.069 -1.18 0.586 -1.037 1.121 -0.793 1.5 -0.566 2.259 -0.083 2.145 0.386 1.743 0.659 1.104 1.201 0.811 1.684 0.08 1.243 -0.444 1.719 -1.228 1.445 -1.737 0.975 -1.837 0.589 -2.101 0.028 -1.584 -0.455 -1.529 -0.806 -1.224 -1.278 -0.991 -1.237 -0.114 -0.35 0.144 -0.224 0.172 -0.127 0.185 -0.679 1.138 0.134 0.174 1.273 -0.365 0.124 -0.009 0.06 0.02 -0.077 0.055 0.459 0.124 0.732 0.568 0.53 0.806 0.317 1.065 -0.02 1.131 -0.487 1.737 -0.817 1.539 -1.207 1.451 -1.369 0.978 -0.735 0.262 -0.921 -0.044 -0.534 -0.361 -0.344 -0.576 -0.287 -1.29 0.066 -1.774 0.473 -1.914 0.603 -1.151 0.696 -0.77 0.644 -0.344 0.606 -0.072 0.051 -0.002 0.839 0.439 -0.01 -0.037 0.315 0.443 0.031 0.044 0.207 0.374 0.037 0.061 0.255 0.529" />
    <path class="write-flat-pen" transform="translate(-145.464,-3105.002)" fill="#D534A9" stroke-width="1.6" __comx="482.131" __comy="-146.312" __timestamp="0x178ad19c0e2" d="M630.126 2954.366 l-0.185 -0.64 -0.037 -0.123 -0.143 -0.389 -0.079 -0.154 -0.437 -0.593 -0.189 -0.168 -0.897 -0.561 -1.09 -0.039 -0.851 0.674 -0.138 1.135 0.574 1.166 2.805 2.433 0.81 1.016 0.241 0.677 -0.054 0.991 -0.295 0.755 -0.786 1.001 -0.797 0.555 -1.302 0.427 -0.932 -0.031 -0.69 -0.256 -0.697 -0.637 -0.265 -0.589 -0.03 -0.707 -0.022 -0.146 0.25 -1.625 -0.361 -0.163 -1.053 1.262 -0.229 0.313 -0.18 1.354 0.567 1.26 1.172 1.071 1.226 0.455 1.474 0.049 1.793 -0.588 1.186 -0.826 1.08 -1.375 0.474 -1.214 0.086 -1.568 -0.438 -1.232 -1.07 -1.341 -2.686 -2.313 -0.239 -0.461 -0.006 -0.048 -0.085 0.049 0.167 -0.024 0.522 0.236 0.036 0.012 0.418 0.344 0.047 0.038 0.25 0.26 0.05 0.044 0.33 0.542" />
    <path class="write-flat-pen" transform="translate(-145.464,-3105.002)" fill="#D534A9" stroke-width="1.6" __comx="496.486" __comy="-146.312" __timestamp="0x178ad19c2c3" d="M643.828 2947.95 l0.073 -0.465 0.017 -0.05 0.1 -0.37 -0.023 -0.185 -0.307 -0.491 -0.429 -0.073 -0.699 0.261 -0.33 0.285 -1.063 1.532 -0.296 0.672 -0.855 3.133 -0.392 4.053 0.029 4.064 0.398 3.15 1.086 2.706 0.305 0.36 0.559 0.447 0.33 0.163 0.324 0.088 1.56 0.407 0.063 -0.116 -1.195 -1.082 -0.201 -0.196 -0.141 -0.161 -0.317 -0.412 -0.084 -0.156 -0.811 -2.409 -0.354 -2.889 -0.024 -3.897 0.359 -3.855 0.738 -2.932 0.186 -0.479 0.783 -1.391 0.055 -0.09 0.181 -0.186 -0.262 -0.054 0.037 -0.089 -0.013 -0.126 0.071 0.294 0.013 0.064 0.073 0.476" />
    <path class="write-flat-pen" transform="translate(-145.464,-3105.002)" fill="#D534A9" stroke-width="1.6" __comx="505.812" __comy="-146.312" __timestamp="0x178ad19c4e0" d="M653.702 2953.976 l-0.047 -0.688 0.007 -0.088 0.02 -0.433 0.004 -0.122 -0.013 -0.966 -0.053 -0.283 -0.356 -0.866 -0.949 -0.687 -1.098 -0.038 -1.387 0.827 -1.253 1.634 -1.103 2.272 -0.77 2.451 -0.418 3.298 0.072 2.309 0.523 1.815 0.918 1.226 1.197 0.628 1.578 0.013 1.623 -0.714 1.453 -1.31 1.214 -1.801 0.852 -2.038 0.553 -2.831 -0.003 -2.254 -0.424 -1.93 -0.82 -1.86 -0.925 -1.065 -1.07 -0.473 -1.351 0.265 -1.194 1.059 -0.874 1.605 -0.55 2.276 -0.073 2.354 0.391 1.521 1.462 1.388 0.533 0.139 0.427 0.03 0.436 -0.056 0.418 -0.155 1.431 -0.55 -0.016 -0.15 -1.516 -0.229 -0.358 -0.07 -0.247 -0.082 -0.216 -0.094 -0.087 -0.071 -0.825 -0.919 -0.226 -0.881 0.061 -1.961 0.461 -1.911 0.639 -1.174 0.658 -0.584 0.43 -0.084 0.283 0.125 0.533 0.613 0.658 1.492 0.353 1.605 0.002 1.926 -0.492 2.519 -0.728 1.742 -1.016 1.507 -1.116 1.006 -1.072 0.472 -0.847 -0.007 -0.534 -0.28 -0.525 -0.702 -0.386 -1.341 -0.062 -1.983 0.384 -3.031 0.691 -2.203 0.978 -2.024 0.964 -1.276 0.73 -0.458 0.188 -0.01 0.268 0.152 0.194 0.337 0.025 0.055 0.173 0.863 0.029 0.133 0.131 0.45 0.04 0.11 0.203 0.667" />
    <path class="write-flat-pen" transform="translate(-145.464,-3105.002)" fill="#D534A9" stroke-width="1.6" __comx="513.675" __comy="-146.312" __timestamp="0x178ad19c620" d="M657.597 2946.697 l0.52 0.631 0.076 0.119 0.46 0.725 0.178 0.311 1.098 2.609 0.192 0.658 0.531 2.336 0.247 3.144 -0.247 2.374 -0.565 2.202 -2.107 4.51 -0.3 0.463 -0.329 0.474 -0.3 0.417 -0.269 0.418 -0.972 1.44 0.199 0.199 1.438 -0.976 0.438 -0.29 0.426 -0.387 0.437 -0.473 0.444 -0.556 2.357 -4.701 0.64 -2.462 0.278 -2.632 -0.273 -3.404 -0.596 -2.494 -0.252 -0.797 -1.33 -2.73 -0.302 -0.412 -0.639 -0.709 -0.167 -0.146 -0.663 -0.527" />
    <path class="write-flat-pen" transform="translate(-145.464,-3105.002)" fill="#D534A9" stroke-width="1.6" __comx="529.639" __comy="-146.312" __timestamp="0x178ad19c7ae" d="M674.081 2963.818 l0.505 -0.502 -0.125 0.097 0.179 0.074 -0.123 -0.064 0.388 0.655 0.34 1.24 0.287 5.862 -0.017 0.551 0.001 0.499 0.023 0.465 0.044 0.393 0.173 1.717 0.168 0.017 0.507 -1.65 0.121 -0.383 0.103 -0.464 0.081 -0.484 0.099 -0.621 -0.152 -6.139 -0.508 -1.61 -0.727 -0.969 -0.428 -0.278 -0.892 0.103 -0.262 0.184 -0.494 0.735" />
    <path class="write-flat-pen" transform="translate(-145.464,-3105.002)" fill="#D534A9" stroke-width="1.6" __comx="550.581" __comy="-146.312" __timestamp="0x178ad19ca67" d="M695.282 2955.738 l0.269 -0.315 0.078 -0.062 0.184 -0.209 0.086 -0.145 0.172 -0.488 -0.027 -0.304 -0.382 -0.674 -0.385 -0.246 -1.906 -0.146 -0.506 0.162 -1.191 0.73 -0.863 1.108 -0.452 1.439 0.17 1.23 0.67 0.971 1.555 0.919 4.718 1.351 1.465 0.7 0.688 0.591 0.399 0.703 0.08 0.565 -0.159 0.629 -0.447 0.649 -0.82 0.612 -1.174 0.439 -1.742 0.248 -1.524 -0.079 -0.913 -0.435 0.021 0.269 -0.054 -0.011 -0.058 -0.159 -0.148 -1.2 -0.214 -0.057 -0.721 0.971 -0.169 0.262 -0.061 0.335 0.09 0.582 1.784 1.022 2.039 0.106 2.068 -0.294 1.551 -0.58 1.214 -0.906 0.76 -1.103 0.306 -1.213 -0.167 -1.177 -0.686 -1.21 -1.06 -0.911 -1.778 -0.849 -4.652 -1.323 -1.077 -0.638 -0.257 -0.373 -0.071 -0.503 0.256 -0.83 0.508 -0.671 0.78 -0.51 0.068 -0.03 1.296 -0.047 -0.132 -0.098 0.192 0.119 -0.007 -0.161 0.037 0.24 0.011 0.033 -0.029 0.197 -0.02 0.082 -0.149 0.415" />
    <path class="write-flat-pen" transform="translate(-145.464,-3105.002)" fill="#D534A9" stroke-width="1.6" __comx="558.67" __comy="-146.312" __timestamp="0x178ad19cb34" d="M704.423 2958.454 l-0.413 1.016 -0.1 0.309 -0.301 1.082 -0.101 0.462 -0.518 4.021 0.229 2.282 0.549 0.033 0.574 -0.242 0.065 -0.32 -0.434 -0.447 0.397 0.002 0.106 -1.253 0.349 -3.891 0.048 -0.41 0.138 -1.083 0.029 -0.265 0.237 -1.024" />
    <path class="write-flat-pen" transform="translate(-145.464,-3105.002)" fill="#D534A9" stroke-width="1.6" __comx="559.802" __comy="-146.312" __timestamp="0x178ad19cbe3" d="M706.04 2952.49 l-0.879 -0.402 -0.326 0.444 -0.168 0.347 -0.051 0.165 -0.124 1.809 0.059 0.311 0.057 0.235 0.102 0.272 0.589 1.535 0.102 -0.013 0.172 -1.635 0.033 -0.256 0.029 -0.202 0.031 -0.221 0.222 -1.638 -0.001 -0.072 -0.03 -0.17 -0.296 0.401 0.117 -0.005" />
    <path class="write-flat-pen" transform="translate(-145.464,-3105.002)" fill="#D534A9" stroke-width="1.6" __comx="566.021" __comy="-146.312" __timestamp="0x178ad19cd42" d="M708.001 2962.622 l-0.11 0.404 -0.054 0.139 -0.097 0.287 -0.048 0.155 -0.101 0.363 -0.047 0.167 -0.156 0.593 -0.033 0.108 -0.216 0.493 0.088 -0.109 0 0 1.227 0.54 0.182 -1.467 0.761 -2.851 0.798 -1.897 0.778 -1.131 0.879 -0.722 0.434 -0.136 0.307 0.054 0.441 0.325 0.627 1.164 0.472 2.175 0.357 4.063 0.788 1.754 0.208 -0.02 0.447 -1.853 -0.212 -4.171 -0.544 -2.509 -0.905 -1.679 -1.034 -0.761 -1.06 -0.185 -1.101 0.345 -1.294 1.063 -0.998 1.454 -0.901 2.154 -0.799 3.105 -0.048 1.62 1.227 0.54 0 0 0.141 -0.166 0.156 -0.942 0.012 -0.186 0.006 -0.63 -0.003 -0.188 -0.023 -0.385 -0.015 -0.161 -0.035 -0.299 -0.022 -0.146 -0.021 -0.419" />
    <path class="write-flat-pen" transform="translate(-145.464,-3105.002)" fill="#D534A9" stroke-width="1.6" __comx="579.702" __comy="-146.312" __timestamp="0x178ad19cf3e" d="M725.858 2945.571 l-0.516 -0.579 -0.401 0.096 -0.364 0.261 -0.149 0.207 -0.382 0.73 -0.134 0.374 -0.514 1.895 -0.147 0.706 -0.713 5.955 -0.194 5.037 0.221 3.562 0.534 2.613 0.928 1.642 0.355 0.364 0.697 0.468 0.447 0.178 0.423 0.101 0.397 0.026 1.607 0.095 0.037 -0.128 -1.414 -0.769 -0.301 -0.174 -0.272 -0.178 -0.241 -0.186 -0.419 -0.433 -0.122 -0.18 -0.628 -1.35 -0.437 -2.295 -0.21 -3.375 0.186 -4.897 0.629 -5.851 0.1 -0.629 0.348 -1.86 0.059 -0.286 0.18 -0.654 -0.007 -0.038 -0.009 -0.088 -0.332 0.076 0.243 0.124" />
    <path class="write-flat-pen" transform="translate(-145.464,-3105.002)" fill="#D534A9" stroke-width="1.6" __comx="589.338" __comy="-146.312" __timestamp="0x178ad19d15d" d="M735.929 2953.613 l0.008 -0.865 0.01 -0.044 0.083 -0.622 0.018 -0.119 0.145 -1.388 -0.427 -1.007 -1.258 -0.376 -1.278 0.395 -1.314 1.02 -1.269 1.604 -1.078 2.022 -0.907 2.906 -0.322 3.122 0.213 2.172 0.611 1.933 0.957 1.517 1.291 1.033 1.692 0.498 1.875 -0.2 1.943 -0.913 1.215 -0.985 1.445 -1.87 1.026 -2.173 0.524 -2.138 0.132 -2.252 -0.31 -2.093 -0.667 -1.925 -0.924 -1.239 -1.151 -0.44 -1.401 0.389 -1.235 1.252 -0.926 1.786 -0.674 2.31 -0.282 2.901 0.535 3.276 0.29 0.416 0.286 0.274 0.368 0.187 1.459 0.711 0.173 -0.198 -0.895 -1.354 -0.148 -0.266 -0.071 -0.169 -0.023 -0.112 -0.365 -2.806 0.248 -2.557 0.589 -2.016 0.743 -1.432 0.765 -0.776 0.483 -0.134 0.226 0.086 0.498 0.668 0.537 1.549 0.264 1.782 -0.114 1.942 -0.451 1.84 -0.882 1.87 -1.225 1.584 -0.92 0.746 -1.523 0.716 -1.291 0.138 -1.085 -0.32 -0.835 -0.668 -0.704 -1.115 -0.498 -1.576 -0.181 -1.845 0.289 -2.803 0.814 -2.61 0.939 -1.764 1.058 -1.343 0.932 -0.732 0.549 -0.181 0.115 0.019 0.014 -0.007 -0.016 1.027 0 0.161 0.072 0.705 0.019 0.098 0.151 0.864" />
    <path class="write-flat-pen" transform="translate(-145.464,-3105.002)" fill="#D534A9" stroke-width="1.6" __comx="602.882" __comy="-146.312" __timestamp="0x178ad19d319" d="M745.43 2944.321 l0.286 0.446 0.039 0.102 0.194 0.38 0.148 0.268 0.694 1.257 0.267 0.508 2.434 5.652 0.209 0.703 0.397 2.167 0.012 2.134 -0.415 2.218 -1.347 3.508 -0.325 0.601 -0.818 1.279 -0.438 0.623 -0.434 0.613 -0.422 0.619 -0.929 1.327 0.134 0.131 1.307 -0.957 0.625 -0.45 0.597 -0.532 0.567 -0.61 0.993 -1.28 0.452 -0.72 1.563 -3.704 0.489 -2.52 -0.019 -2.434 -0.457 -2.39 -0.273 -0.876 -2.655 -5.737 -0.353 -0.573 -0.867 -1.217 -0.227 -0.264 -0.319 -0.317 -0.106 -0.087 -0.402 -0.374" />
    <path class="write-flat-pen" transform="translate(-145.464,-3105.002)" fill="#D534A9" stroke-width="1.6" __comx="614.531" __comy="-146.312" __timestamp="0x178ad19d4f8" d="M759.731 2936.794 l0.631 0.42 0.167 0.164 0.509 0.594 0.294 0.396 1.119 1.917 0.363 0.784 0.997 2.884 0.442 2.18 0.178 3.736 -0.39 4.009 -0.617 2.792 -1.38 4.182 -3.457 7.096 -0.529 0.917 -1.559 2.466 -0.469 0.686 -0.477 0.676 -0.5 0.718 -0.894 1.26 0.123 0.113 1.179 -0.998 0.686 -0.574 0.604 -0.625 0.56 -0.681 1.712 -2.432 0.596 -0.961 3.676 -7.143 1.473 -4.328 0.666 -2.945 0.399 -4.201 -0.23 -3.945 -0.527 -2.364 -1.144 -2.998 -0.458 -0.88 -1.326 -1.942 -0.414 -0.441 -0.666 -0.57 -0.294 -0.186 -0.753 -0.32" />
    <path class="write-flat-pen" transform="translate(-145.464,-3105.002)" fill="#D534A9" stroke-width="1.6" __comx="485.27" __comy="-193.619" __timestamp="0x178ad19ddb1" d="M628.987 2916.432 l0.414 0.066 -0.019 0.01 0.49 0.266 -0.022 -0.001 0.503 0.835 -0.018 -0.073 -0.828 2.444 -0.064 0.123 -0.461 1.076 0.186 0.991 1.337 1.082 0.394 0.655 0.161 0.78 -0.355 1.86 0.159 1.529 0.192 0.049 0.878 -1.281 0.562 -2.149 -0.293 -1.315 -0.663 -1.054 -1.176 -0.892 -0.036 -0.123 0.272 -0.683 0.088 -0.183 0.759 -2.815 -0.062 -0.428 -0.918 -1.127 -0.226 -0.114 -0.693 -0.166 -0.119 -0.002 -0.459 0.091" />
    <path class="write-flat-pen" transform="translate(-145.464,-3105.002)" fill="#D534A9" stroke-width="1.6" __comx="491.015" __comy="-193.619" __timestamp="0x178ad19dfbb" d="M635.111 2917.668 l-0.239 -0.435 0.065 0.225 0.054 0.079 -0.163 0.094 0.776 0.046 -0.025 0.001 0.468 0.219 0.157 0.257 0.027 0.434 -0.731 2.339 0.009 1.026 0.82 2.283 0.406 2.434 0.589 1.185 0.132 0.129 1.368 1.113 0.142 -0.095 -0.509 -1.689 0.002 -0.065 -0.31 -0.987 -0.429 -2.392 -0.779 -2.173 -0.008 -0.563 0.713 -2.403 -0.119 -1.066 -0.623 -0.848 -0.987 -0.367 -0.246 -0.033 -1.115 0.136 -0.312 0.165 -0.252 0.588 0.084 0.312 0.502 0.482" />
    <path class="write-flat-pen" transform="translate(-145.464,-3105.002)" fill="#D534A9" stroke-width="1.6" __comx="484.316" __comy="-193.619" __timestamp="0x178ad19e1b9" d="M622.87 2895.599 l0.727 1.024 0.189 0.268 1.216 1.536 0.42 0.491 3.199 3.293 0.555 0.515 5.351 4.439 0.149 0.083 0.172 0.07 1.745 0.608 0.097 -0.137 -1.16 -1.444 -0.126 -0.136 -0.076 -0.075 -5.177 -4.512 -0.522 -0.468 -3.275 -3.125 -0.412 -0.429 -1.31 -1.408 -0.212 -0.232 -0.858 -0.923" />
    <path class="write-flat-pen" transform="translate(-145.464,-3105.002)" fill="#D534A9" stroke-width="1.6" __comx="485.858" __comy="-193.619" __timestamp="0x178ad19e276" d="M627.184 2906.497 l0.025 -0.599 0.035 -0.111 0.102 -0.378 0.074 -0.231 0.405 -1.137 0.191 -0.432 1.292 -2.302 4.356 -5.26 0.487 -0.572 0.5 -0.605 0.494 -0.633 0.466 -0.667 0.949 -1.327 -0.14 -0.143 -1.344 0.925 -0.677 0.455 -0.648 0.495 -0.604 0.526 -0.592 0.548 -4.559 5.363 -1.353 2.55 -0.223 0.596 -0.305 1.325 -0.029 0.387 0.051 0.514 0.049 0.182 0.123 0.603" />
    <path class="write-flat-pen" transform="translate(-145.464,-3105.002)" fill="#D534A9" stroke-width="1.6" __comx="555.697" __comy="-191.304" __timestamp="0x178ad19e62d" d="M699.494 2919.871 l0.294 -0.202 -0.242 0.052 0.126 0.146 -0.045 -0.021 0.448 0.615 0.024 0.048 0.441 0.952 0.125 0.93 -0.234 1.13 -0.658 1.232 0.216 0.995 1.267 0.903 0.46 0.684 0.1 0.61 -0.187 0.925 -0.66 1.49 0.058 1.577 0.155 0.057 1.044 -1.088 0.859 -1.535 0.278 -1.4 -0.203 -1.211 -0.802 -1.184 -1.019 -0.72 0.021 0.113 0.49 -0.947 0.296 -1.607 -0.258 -1.406 -0.69 -1.179 -0.13 -0.166 -0.679 -0.634 -0.163 -0.114 -0.567 -0.139 -0.324 0.065 -0.378 0.558" />
    <path class="write-flat-pen" transform="translate(-145.464,-3105.002)" fill="#D534A9" stroke-width="1.6" __comx="562.971" __comy="-191.304" __timestamp="0x178ad19e84e" d="M707.276 2921.531 l-0.502 -0.179 0.051 0.006 -0.042 -0.113 0.091 0.112 0.078 -0.19 0.009 0.044 0.403 -0.515 0.096 -0.085 1.091 -0.78 0.327 -0.09 -0.223 -0.105 0.014 0.097 -1.719 4.993 -0.255 1.676 0.296 1.398 1.822 3.062 0.488 1.282 0.165 1.267 -0.522 1.647 0.127 -0.081 0.037 0.019 0 0.067 -0.575 0.844 0.057 0.128 1.011 0.143 0.165 -0.006 0.177 -0.078 0.246 -0.186 0.914 -2.316 -0.239 -1.839 -0.604 -1.588 -1.758 -2.954 -0.181 -0.854 0.189 -1.246 1.801 -5.272 -0.268 -1.258 -1.032 -0.519 -1.19 0.402 -1.338 1.122 -0.238 0.299 -0.409 0.83 -0.071 0.306 0.113 0.624 0.182 0.271 0.408 0.188 0.112 0.025 0.577 0.024" />
    <path class="write-flat-pen" transform="translate(-145.464,-3105.002)" fill="#D534A9" stroke-width="1.6" __comx="555.899" __comy="-191.304" __timestamp="0x178ad19ea3b" d="M699.001 2896.303 l0.069 -0.407 0.013 -0.083 0.052 -0.324 0.014 -0.076 0.075 -0.329 0.008 0.005 0.081 -0.036 -0.247 0.352 -0.373 -0.07 -0.064 -0.025 0.276 0.583 0.156 0.315 1.246 2.169 1.92 1.918 0.149 0.075 1.722 0.742 0.181 -0.231 -1.127 -1.498 -0.031 -0.066 -1.624 -1.842 -1.242 -1.965 -0.198 -0.307 -0.474 -0.605 -0.227 -0.212 -0.596 -0.156 -0.317 0.437 0.027 0.346 0.004 0.061 0.098 0.364 0.023 0.082 0.091 0.314 0.02 0.071 0.072 0.399" />
    <path class="write-flat-pen" transform="translate(-145.464,-3105.002)" fill="#D534A9" stroke-width="1.6" __comx="556.218" __comy="-191.304" __timestamp="0x178ad19eb19" d="M706.402 2894.253 l-0.565 0.885 -0.135 0.223 -8.345 15.636 -0.399 0.839 -0.33 0.763 -0.24 0.733 -0.521 1.523 0.226 0.123 0.992 -1.267 0.48 -0.594 0.475 -0.675 0.511 -0.791 8.433 -15.623 0.101 -0.245 0.408 -0.951" />
    <path class="write-flat-pen" transform="translate(-145.464,-3105.002)" fill="#FFFFFF" stroke-width="1.6" __comx="399.785" __comy="-104.035" __timestamp="0x178ad1a07bf" d="M544.548 2980.334 l0.374 0.612 0.917 0.884 0.11 -0.075 -0.503 -1.193 -0.519 -0.526" />
    <path class="write-flat-pen" transform="translate(-145.464,-3105.002)" fill="#FFFFFF" stroke-width="1.6" __comx="401.169" __comy="-104.035" __timestamp="0x178ad1a0863" d="M546.602 2982.91 l-0.402 1.684 0.182 1.754 0.063 0.002 0.311 -1.687 0.311 -1.654" />
    <path class="write-flat-pen" transform="translate(-145.464,-3105.002)" fill="#FFFFFF" stroke-width="1.6" __comx="401.766" __comy="-104.035" __timestamp="0x178ad1a08e7" d="M547.462 2986.916 l-0.488 0.344 -0.071 0.136 -0.093 0.304 -0.084 1.392 0.131 0.031 0.551 -1.257 0.082 -0.249 -0.004 -0.015 0.251 -0.422" />
    <path class="write-flat-pen" transform="translate(-145.464,-3105.002)" fill="#FFFFFF" stroke-width="1.6" __comx="403.808" __comy="-24.18" __timestamp="0x178ad1a1115" d="M549.142 3082.547 l-0.357 0.891 0.546 0.726 0.037 -0.011 0.131 -0.683 0.261 -0.679" />
    <path class="write-flat-pen" transform="translate(-145.464,-3105.002)" fill="#FFFFFF" stroke-width="1.6" __comx="404.793" __comy="-24.18" __timestamp="0x178ad1a116d" d="M549.709 3085.137 l0.044 1.343 1.006 1.349 0.046 -0.028 -0.683 -1.447 -0.253 -1.235" />
    <path class="write-flat-pen" transform="translate(-145.464,-3105.002)" fill="#FFFFFF" stroke-width="1.6" __comx="405.532" __comy="-24.18" __timestamp="0x178ad1a11e8" d="M550.971 3090.175 l-0.285 0.835 0.451 0.201 0.038 -0.034 0.021 -0.287 0.109 -0.625" />
    <path class="write-flat-pen" transform="translate(-145.464,-3105.002)" fill="#D534A9" stroke-width="1.6" __comx="404.72" __comy="-16.943" __timestamp="0x178ad1a2382" d="M550.4 3088.203 l-0.081 -0.619 0.016 0.101 0.07 0.038 -0.715 0.044 -0.029 -0.017 0.06 0.454 0.007 0.129 0.047 1.725 -0.005 0.343 -0.362 4.43 0 0 -0.003 0.112 0 0 1.404 0.095 0.473 -2.354 0.218 -4.798 0 0 -0.193 -1.74 0 0 -1.551 -0.154 -0.31 0.964 0 0 -0.577 6.574 1.595 0.11 -1.595 -0.11 1.595 0.11 0.122 -2.433 0.761 -4.711 0 0 -1.589 -0.156 -0.117 5.115 0.091 0.195 0.761 1.295 0.17 -0.022 0.401 -1.448 0.054 -0.09 0.239 -4.988 -1.589 -0.156 0 0 -0.775 4.798 -0.126 2.521 1.595 0.11 -1.595 -0.11 1.595 0.11 0.558 -6.396 0 0 0.254 -0.795 -1.551 -0.154 0 0 0.186 1.618 0 0 -0.171 4.577 -0.323 2.278 1.404 0.095 0 0 -0.008 -0.043 0 0 0.192 -4.421 -0.018 -0.426 -0.212 -1.802 -0.058 -0.242 -0.271 -0.591 -0.066 -0.072 -0.715 0.044 -0.017 0.207 0.02 0.152 0.263 0.633" />
    <path class="write-flat-pen" transform="translate(-145.464,-3105.002)" fill="#FFFFFF" stroke-width="1.6" __comx="392.502" __comy="-128.343" __timestamp="0x178ad1a3959" d="M538.421 2977.052 l-0.2 -0.546 -0.602 -0.291 -0.109 0.082 0.058 0.588 0.225 0.438" />
    <path class="write-flat-pen" transform="translate(-145.464,-3105.002)" fill="#FFFFFF" stroke-width="1.6" __comx="388.319" __comy="-127.952" __timestamp="0x178ad1a39f6" d="M534.605 2976.797 l-1.248 0.182 -0.542 0.995 0.095 0.109 0.861 -0.236 0.98 -0.203" />
    <path class="write-flat-pen" transform="translate(-145.464,-3105.002)" fill="#FFFFFF" stroke-width="1.6" __comx="305.349" __comy="-128.927" __timestamp="0x178ad1a3fe7" d="M451.959 2974.481 l-0.931 0.127 -0.044 0.009 -0.24 0.069 -1.19 0.51 0.014 0.076 1.312 0.055 0.272 -0.055 0.039 -0.013 0.88 -0.292" />
    <path class="write-flat-pen" transform="translate(-145.464,-3105.002)" fill="#FFFFFF" stroke-width="1.6" __comx="301.485" __comy="-128.927" __timestamp="0x178ad1a405f" d="M447.365 2975.765 l-0.666 0.198 -0.366 0.681 0.073 0.084 0.639 -0.186 0.52 -0.256" />
    <path class="write-flat-pen" transform="translate(-145.464,-3105.002)" fill="#FFFFFF" stroke-width="1.6" __comx="290.732" __comy="-44.764" __timestamp="0x178ad1ad3f8" d="M437.571 3083.886 l-1.509 -2.561 -1.201 -1.588 -0.039 0.016 0.297 2.02 1.334 2.715" />
    <path class="write-flat-pen" transform="translate(-145.464,-3105.002)" fill="#FFFFFF" stroke-width="1.6" __comx="282.971" __comy="-44.764" __timestamp="0x178ad1ad499" d="M431.763 3069.562 l-4.622 -1.098 -2.004 -0.588 -0.03 0.059 1.731 1.331 4.68 1.263" />
    <path class="write-flat-pen" transform="translate(-145.464,-3105.002)" fill="#FFFFFF" stroke-width="1.6" __comx="270.385" __comy="-44.764" __timestamp="0x178ad1ad51f" d="M418.705 3061.647 l-2.47 -1.217 -1.223 -0.879 -0.251 -0.19 -1.696 -1.349 -0.071 0.062 1.12 1.856 0.2 0.323 1.226 1.255 2.701 1.153" />
    <path class="write-flat-pen" transform="translate(-145.464,-3105.002)" fill="#FFFFFF" stroke-width="1.6" __comx="259.507" __comy="-44.764" __timestamp="0x178ad1ad5af" d="M407.099 3051.44 l-1.703 -1.511 -1.083 -1.26 -1.415 -1.572 -0.057 0.035 0.803 1.975 0.891 1.614 1.948 1.472" />
    <path class="write-flat-pen" transform="translate(-145.464,-3105.002)" fill="#FFFFFF" stroke-width="1.6" __comx="251.491" __comy="-44.764" __timestamp="0x178ad1ad622" d="M399.797 3043.573 l-0.927 -0.799 -0.186 -0.17 -1.398 -1.43 -1.496 -2.374 -0.194 -0.359 -0.38 -0.731 -1.066 -1.964 -0.039 0.015 0.553 2.162 0.204 0.805 0.142 0.459 1.464 2.639 1.667 1.423 0.256 0.166 1.066 0.625" />
    <path class="write-flat-pen" transform="translate(-145.464,-3105.002)" fill="#FFFFFF" stroke-width="1.6" __comx="232.756" __comy="-93.099" __timestamp="0x178ad1ad757" d="M391.196 3029.526 l-1.239 -1.385 -0.252 -0.287 -1.4 -1.893 -2.568 -4.553 -0.241 -0.379 -1.479 -1.768 -4.94 -3.129 -0.328 -0.24 -1.64 -1.637 -2.837 -4.921 -1.702 -2.198 -2.26 -1.822 -0.305 -0.222 -1.56 -1.394 -0.978 -1.5 -0.821 -2.57 -0.123 -0.502 -0.25 -1.003 -0.114 -0.44 -0.157 -0.474 -0.709 -2.131 -0.047 0.01 0.192 2.238 0.04 0.48 0.022 0.438 0.074 1.042 0.069 0.573 0.711 2.847 1.181 1.798 1.817 1.458 0.351 0.216 2.287 1.558 1.634 2.032 2.709 5.081 1.82 1.76 0.423 0.291 4.986 2.887 1.317 1.679 0.186 0.329 2.41 4.708 1.552 1.938 0.317 0.308 1.408 1.232" />
    <path class="write-flat-pen" transform="translate(-145.464,-3105.002)" fill="#FFFFFF" stroke-width="1.6" __comx="213.36" __comy="-115.807" __timestamp="0x178ad1ad7d9" d="M363.596 2993.299 l-0.814 -0.271 -0.299 -0.081 -1.053 -0.217 -0.333 -0.063 -1.515 -0.359 -0.329 -0.107 -1.186 -0.532 -0.933 -0.82 -1.461 -2.747 -0.113 -0.31 -0.323 -0.967 -0.092 -0.261 -0.185 -0.492 -0.844 -2.166 -0.062 0.013 0.13 2.322 0.039 0.527 0.03 0.287 0.166 1.036 0.101 0.453 1.475 3.198 1.36 1.114 1.505 0.545 0.471 0.1 1.637 0.154 0.369 0.005 1.058 -0.002 0.278 0.002 0.84 0.056" />
    <path class="write-flat-pen" transform="translate(-145.464,-3105.002)" fill="#FFFFFF" stroke-width="1.6" __comx="194.818" __comy="-70.151" __timestamp="0x178ad1adacf" d="M340.681 3027.793 l-0.231 0.833 -0.039 0.268 -0.17 2.261 -0.028 0.691 -0.295 6.785 -0.503 4.118 0.894 -0.05 -0.055 -0.023 -0.063 -0.121 -0.261 -0.851 -0.069 -0.004 -0.35 0.819 -0.082 0.241 -0.004 0.171 0.894 -0.05 0.708 -4.153 0.122 -6.862 -0.011 -0.692 -0.036 -2.245 -0.004 -0.233 0.009 -0.842" />
    <path class="write-flat-pen" transform="translate(-145.464,-3105.002)" fill="#FFFFFF" stroke-width="1.6" __comx="199.012" __comy="-70.151" __timestamp="0x178ad1adca7" d="M340.607 3028.887 l-0.708 -0.184 0.1 0.039 -0.017 -0.449 0.018 -0.001 0.758 -1.153 1.582 -1.324 1.883 -0.971 1.55 -0.381 0.907 0.109 0.429 0.334 0.256 0.786 -0.235 1.356 -1.185 2.26 -5.128 5.873 -0.442 1.401 1.208 0.901 2.854 0.707 3.306 1.762 2.111 0.787 0.062 -0.091 -1.535 -1.721 -3.434 -2.03 -2.778 -0.672 -0.236 -0.161 0.059 -0.233 5.018 -5.799 1.336 -2.576 0.317 -1.864 -0.483 -1.447 -1.01 -0.778 -1.479 -0.17 -1.911 0.488 -2.12 1.136 -1.769 1.602 -0.791 1.518 -0.064 0.375 0.348 0.88 0.289 0.158 0.888 -0.019" />
    <path class="write-flat-pen" transform="translate(-145.464,-3105.002)" fill="#FFFFFF" stroke-width="1.6" __comx="210.574" __comy="-70.151" __timestamp="0x178ad1adda7" d="M353.445 3032.68 l0.422 -0.004 0.07 0.019 1.429 -0.004 0.275 -0.05 1.19 -0.33 1.941 -0.896 -0.025 -0.097 -2.121 0.133 -1.194 0.196 -0.207 0.045 -1.339 0.226 -0.143 0.029 -0.442 0.252" />
    <path class="write-flat-pen" transform="translate(-145.464,-3105.002)" fill="#FFFFFF" stroke-width="1.6" __comx="211.744" __comy="-70.151" __timestamp="0x178ad1ade5c" d="M353.964 3036.179 l0.734 0.265 0.198 0.049 3.42 0.069 2.136 -0.548 -0.014 -0.123 -2.149 -0.07 -3.305 -0.189 -0.128 -0.006 -0.757 -0.061" />
    <path class="write-flat-pen" transform="translate(-145.464,-3105.002)" fill="#FFFFFF" stroke-width="1.6" __comx="221.883" __comy="-70.151" __timestamp="0x178ad1ae002" d="M364.247 3032.201 l0.001 -0.499 0.022 0.003 0.351 -0.54 0.078 -0.078 1.44 -1.247 0.082 -0.053 0.775 -0.494 -0.413 -0.125 0.382 3.852 0.809 3.274 1.238 2.051 1.97 1.319 0.142 -0.126 -0.985 -1.998 -0.938 -1.813 -0.747 -2.976 -0.587 -4.56 -1.05 -0.382 -1.3 1.001 -0.148 0.113 -1.417 1.538 -0.151 0.257 -0.229 0.827 0.011 0.206 0.206 0.541" />
    <path class="write-flat-pen" transform="translate(-145.464,-3105.002)" fill="#FFFFFF" stroke-width="1.6" __comx="225.351" __comy="-70.151" __timestamp="0x178ad1ae0cf" d="M365.096 3039.589 l0.593 0.69 0.334 0.149 3.005 0.52 0.708 0.048 3.226 -0.002 0.702 -0.076 0.652 -0.149 2.22 -0.498 -0.017 -0.221 -2.271 -0.144 -0.639 -0.047 -0.645 -0.042 -3.167 -0.182 -0.637 -0.034 -2.86 -0.273 -0.026 0.014 -0.564 -0.402" />
    <path class="write-flat-pen" transform="translate(-25.846,-3524.276)" fill="#FFFFFF" stroke-width="1.6" __comx="451.812" __comy="3.598" __timestamp="0x178ad1bb153" d="M475.333 3515.335 l-0.029 -0.392 0.018 -0.08 0.149 -1.021 0.052 -0.283 0.45 -2.496 0.059 -0.343 0.461 -2.245 0.648 -1.15 0.705 -0.412 0.058 0.028 -0.106 -0.227 -0.463 0.708 -1.047 0.737 -1.426 0.382 -0.751 -0.164 -0.046 -0.049 -0.099 0.233 1.393 -0.391 3.471 -0.168 0.576 0.184 0.061 0.103 -0.209 0.844 -1.304 1.61 -2.056 1.517 -1.501 0.608 -0.494 -0.045 0.002 0.003 0.151 -0.535 1.379 -1.448 2.315 -1.461 2.16 -0.803 0 0 0.554 0.086 0 0 -0.54 -1.238 -0.452 0.67 -1.344 0.784 0 0 -2.562 0.737 -0.565 -0.116 0 0 -0.006 1.569 2.787 -0.668 0.657 -0.097 0.73 -0.107 0.755 -0.125 0.767 -0.141 2.477 -0.451 -0.004 -0.069 -2.51 -0.197 -0.776 -0.062 -0.759 -0.053 -0.744 -0.044 -0.767 -0.014 -2.924 0.458 -0.006 1.569 0 0 0.951 0.195 3.132 -0.901 0 0 1.832 -1.068 0.657 -0.973 -0.54 -1.238 0 0 -0.966 -0.151 0 0 -2.708 1.006 -2.623 1.656 -1.79 1.879 -0.473 1.68 0.901 1.197 1.587 0.144 2.048 -0.83 2.382 -1.759 1.657 -2.045 0.451 -1.823 -0.702 -1.193 -1.434 -0.457 -3.94 0.191 -2.304 0.648 -0.618 1.449 1.123 1.156 1.602 0.345 2.072 -0.566 1.524 -1.096 0.99 -1.622 -0.521 -1.389 -1.511 -0.051 -1.363 0.913 -0.832 1.688 -0.367 2.487 -0.037 0.374 -0.176 2.55 -0.003 0.333 0.125 1.086 0.045 0.166 0.266 0.365" />
    <path class="write-stroke-pen" transform="translate(-25.846,-3524.276)" fill="none" stroke="#8F3AC9" stroke-width="2.5" stroke-linecap="round" stroke-linejoin="round" __comx="236.065" __comy="-41.005" __timestamp="0x178ad1c4be9" d="M329.569 3512.768 l-135.314 -58.161" />
    <path class="write-flat-pen" transform="translate(-25.846,-3524.276)" fill="#8F3AC9" stroke-width="1.6" __comx="167.889" __comy="-49.825" __timestamp="0x178ad1c5b74" d="M193.888 3457.191 l-0.584 0.227 -0.119 0.228 -0.117 2.678 1.235 1.81 0.1 -0.048 -0.546 -1.93 0.018 -2.351 -0.044 0.062 0.277 -0.345" />
    <path class="write-flat-pen" transform="translate(-25.846,-3524.276)" fill="#8F3AC9" stroke-width="1.6" __comx="169.518" __comy="-49.825" __timestamp="0x178ad1c5c05" d="M195.816 3464.015 l-0.879 0.892 -0.111 0.182 -0.25 1.34 0.658 1.773 0.087 -0.017 -0.03 -1.757 0.219 -1.092 0.012 -0.041 0.63 -1.014" />
    <path class="write-flat-pen" transform="translate(-25.846,-3524.276)" fill="#8F3AC9" stroke-width="1.6" __comx="170.53" __comy="-49.825" __timestamp="0x178ad1c5c95" d="M197.397 3470.919 l-1.786 2.609 -0.097 0.192 -0.304 0.867 -0.15 2.197 0.101 0.019 0.644 -2.055 0.29 -0.786 0.06 -0.136 1.536 -2.724" />
    <path class="write-flat-pen" transform="translate(-25.846,-3524.276)" fill="#8F3AC9" stroke-width="1.6" __comx="170.831" __comy="-49.825" __timestamp="0x178ad1c5d2f" d="M197.874 3478.544 l-1.414 2.105 -0.187 0.256 -0.962 1.655 -0.083 1.929 0.112 0.021 0.592 -1.724 0.852 -1.568 0.158 -0.266 1.184 -2.257" />
    <path class="write-flat-pen" transform="translate(-25.846,-3524.276)" fill="#8F3AC9" stroke-width="1.6" __comx="170.174" __comy="-49.825" __timestamp="0x178ad1c5da6" d="M196.779 3488.887 l-1.348 2.216 -0.558 2.178 0.073 0.026 0.926 -1.996 1.295 -2.191" />
    <path class="write-flat-pen" transform="translate(-25.846,-3524.276)" fill="#8F3AC9" stroke-width="1.6" __comx="171.056" __comy="-11.156" __timestamp="0x178ad1c5ec2" d="M197.963 3495.556 l-1.815 2.16 -0.099 0.222 -0.554 1.924 0.089 4.913 0.407 2.795 0.048 -0.003 0.073 -2.806 0.14 -4.793 0.479 -1.789 0.04 -0.099 1.541 -2.259" />
    <path class="write-flat-pen" transform="translate(-25.846,-3524.276)" fill="#8F3AC9" stroke-width="1.6" __comx="169.364" __comy="-11.156" __timestamp="0x178ad1c6252" d="M197.165 3505.441 l-0.15 -0.882 -0.043 -0.095 -0.336 -0.714 -0.232 -0.293 -0.971 0.079 -0.195 0.475 -1.412 6.217 -0.096 0.42 0 0 -0.475 3.523 0 0 1.509 0.236 0.769 -3.926 0 0 0.691 -9.613 0 0 -0.393 -0.85 0 0 -1.495 0.128 -0.552 2.03 0 0 -0.384 5.403 0.235 2.919 0 0 1.588 0.057 0.724 -5.046 -0.089 -2.696 -0.196 -0.042 -1.191 2.467 -0.829 5.074 1.588 0.057 0 0 -0.226 -2.798 0.363 -5.127 0 0 0.509 -1.88 -1.495 0.128 0 0 0.223 0.474 0 0 -0.642 9.112 0 0 -0.701 3.846 1.509 0.236 0 0 0.393 -3.465 0 0 0.077 -0.366 1.126 -6.196 -0.086 0.179 -0.196 -0.09 -0.113 -0.157 0.504 0.515 0.021 0.014 0.383 0.741" />
    <path class="write-flat-pen" transform="translate(-25.846,-3524.276)" fill="#8F3AC9" stroke-width="1.6" __comx="172.232" __comy="-11.156" __timestamp="0x178ad1c6434" d="M193.528 3516.157 l-0.628 0.885 0.096 0.45 1.564 2.752 0.356 0.423 5.818 5.647 2.391 1.522 0.132 -0.145 -1.726 -2.217 -5.656 -5.708 -0.273 -0.296 -1.66 -2.386 0 0.081 0.204 -0.679" />
    <path class="write-flat-pen" transform="translate(-25.846,-3524.276)" fill="#8F3AC9" stroke-width="1.6" __comx="172.682" __comy="-11.156" __timestamp="0x178ad1c650b" d="M196.008 3528.872 l0.13 -1.052 0.117 -0.268 1.231 -2.594 0.299 -0.566 3.136 -7.001 0.061 -0.174 1.023 -2.572 -0.155 -0.095 -1.831 2.076 -0.163 0.192 -3.373 6.943 -0.29 0.602 -1.038 2.801 -0.106 0.495 0.098 1.203" />
    <path class="write-flat-pen" transform="translate(-25.846,-3524.276)" fill="#D534A9" stroke-width="1.6" __comx="166.943" __comy="-72.066" __timestamp="0x178ad1c7fa3" d="M195.32 3454.272 l0.201 -0.591 -0.302 0.315 0.019 0.217 -0.02 -0.022 0.071 0.74 -0.309 0.442 -0.605 0.24 -0.908 -0.101 -0.321 -0.286 -0.136 -0.987 0.437 -1.586 0.625 -0.885 0.2 -0.075 0.258 0.153 0.548 1.279 0.116 1.608 -0.415 1.558 -0.308 0.313 -0.467 0.063 -0.683 -0.416 -0.774 -1.291 -0.189 -1.368 0.308 -1.018 0.606 -0.601 0.988 -0.281 0.712 0.128 0.563 0.49 0.243 0.669 -0.178 0.955 -0.648 0.955 -1.111 0.678 -0.91 0.109 -0.763 -0.274 -0.575 -0.68 -0.29 -1.156 0.178 -1.223 0.649 -1.094 0.93 -0.635 1.011 -0.204 0.809 0.209 0.533 0.583 0.125 0.942 -0.404 1.447 -0.805 1.147 -0.912 0.568 -0.817 0.021 -0.823 -0.505 -0.678 -1.058 -0.207 -1.27 0.273 -1.026 0.666 -0.768 0.743 -0.255 0.552 0.148 0.345 0.425 0.167 0.955 -0.45 1.752 -0.875 1.333 -0.989 0.694 -0.645 0.087 -0.588 -0.271 -0.154 -0.333 0.597 -1.368 0.168 -0.241 0.281 -0.351 1.527 -1.848 -0.121 -0.145 -2.097 1.161 -0.424 0.235 -0.451 0.337 -1.263 2.177 0.734 1.583 1.544 0.712 1.492 -0.201 1.559 -1.094 1.189 -1.812 0.602 -2.343 -0.298 -1.704 -0.935 -1.15 -1.524 -0.409 -1.612 0.553 -1.19 1.373 -0.456 1.714 0.316 1.935 1.055 1.646 1.54 0.944 1.726 -0.044 1.558 -0.971 1.15 -1.638 0.566 -2.027 -0.234 -1.765 -1.192 -1.305 -1.625 -0.42 -1.69 0.341 -1.49 1.018 -0.992 1.671 -0.27 1.85 0.458 1.823 1.092 1.291 1.523 0.548 1.632 -0.196 1.703 -1.04 1.031 -1.517 0.319 -1.713 -0.534 -1.468 -1.208 -1.051 -1.511 -0.271 -1.74 0.495 -1.186 1.176 -0.527 1.742 0.282 2.039 1.145 1.909 1.505 0.916 1.57 -0.214 0.987 -1.005 0.588 -2.223 -0.149 -2.142 -0.863 -2.009 -1.377 -0.803 -1.365 0.532 -1.053 1.515 -0.569 2.186 0.34 1.884 1.166 0.877 1.708 0.066 1.25 -0.635 0.634 -1.211 -0.283 -1.241 -0.111 -0.255 -0.869 -0.72 -0.402 0.406 0.003 0.878" />
    <path class="write-flat-pen" transform="translate(-25.846,-3524.276)" fill="#8F3AC9" stroke-width="1.6" __comx="299.954" __comy="-39.585" __timestamp="0x178ad1dcf04" d="M294.176 3497.567 l-0.953 0.429 0.626 0.216 0.024 0.007 0.218 -1.563 0.016 -0.158 0.573 -3.562 1.803 -4.127 2.771 -3.647 4.46 -4.245 9.761 -6.379 3.735 -1.641 9.706 -2.527 4.389 -0.291 4.101 0.592 8.906 4.048 3.025 2.212 3.643 4.05 2.029 3.703 2.437 6.989 1.728 7.777 -0.016 2.543 -1.77 4.904 -1.315 4.061 0.123 0.059 2.349 -3.614 2.211 -5.098 0.019 -3.025 -1.788 -8.045 -2.512 -7.203 -2.182 -3.983 -3.879 -4.312 -3.292 -2.407 -9.264 -4.21 -4.493 -0.648 -4.708 0.312 -9.976 2.597 -3.973 1.746 -9.993 6.534 -4.653 4.441 -2.947 3.917 -1.89 4.521 -0.405 3.854 0.003 0.238 0.196 1.704 0.051 0.099 0.626 0.216 0.7 -0.776" />
    <path class="write-flat-pen" transform="translate(-25.846,-3524.276)" fill="#8F3AC9" stroke-width="1.6" __comx="319.261" __comy="-48.523" __timestamp="0x178ad1dd08c" d="M337.856 3483.119 l0.221 0.479 0.322 -0.147 0.195 -0.217 2.644 -3.682 0.618 -0.843 7.995 -9.302 2.759 -3.27 -0.161 -0.17 -3.455 2.614 -8.299 9.211 -0.65 0.952 -2.3 3.936 -0.139 0.292 0.029 0.382 0.578 0.122" />
    <path class="write-flat-pen" transform="translate(-25.846,-3524.276)" fill="#8F3AC9" stroke-width="1.6" __comx="341.301" __comy="-69.644" __timestamp="0x178ad1dd36f" d="M366.007 3455.025 l-0.026 -0.897 -0.008 -0.215 -0.578 -1.516 -0.535 -0.237 -2.142 0.55 -2.442 2.982 -1.928 4.597 -1.176 5.872 0.16 3.945 1.226 2.661 1.986 1.614 2.727 0.76 3.206 -0.329 3.985 -1.779 3.275 -2.808 2.299 -3.549 1.089 -3.967 -0.212 -3.831 -1.872 -4.126 -2.573 -3.047 -3.329 -2.481 -2.916 -0.953 -2.168 0.413 -1.927 1.523 -1.608 2.957 -0.501 2.778 0.737 4.052 2.051 3.445 2.901 2.67 3.743 1.682 4.05 0.99 0.086 -0.234 -3.667 -1.831 -3.297 -1.918 -2.559 -2.377 -1.784 -2.998 -0.633 -3.483 0.404 -2.239 1.328 -2.442 1.363 -1.077 1.378 -0.262 2.276 0.743 2.971 2.214 2.311 2.737 1.656 3.651 0.181 3.271 -0.955 3.477 -2.038 3.147 -2.922 2.506 -3.538 1.579 -2.65 0.272 -2.115 -0.589 -1.44 -1.169 -0.94 -2.036 -0.143 -3.439 1.091 -5.539 1.736 -4.281 1.938 -2.576 1.284 -0.545 -0.185 -0.099 0.697 0.886 0.051 0.126 0.425 0.82" />
    <path class="write-stroke-pen" transform="translate(-25.846,-3524.276)" fill="none" stroke="#FFFFFF" stroke-width="1.6" stroke-linecap="round" stroke-linejoin="round" __comx="394.19" __comy="-78.286" __timestamp="0x178ad1f2dee" d="M421.166 3440.08 l-2.259 -2.642" />
    <path class="write-stroke-pen" transform="translate(-25.846,-3524.276)" fill="none" stroke="#FFFFFF" stroke-width="1.6" stroke-linecap="round" stroke-linejoin="round" __comx="394.841" __comy="-78.286" __timestamp="0x178ad1f2e80" d="M419.022 3436.596 l3.331 4.211" />
    <path class="write-stroke-pen" transform="translate(-121.942,-2812.811)" fill="none" stroke="#FFFFFF" stroke-width="1.6" stroke-linecap="round" stroke-linejoin="round" __comx="326.372" __comy="132.353" __timestamp="0x178ad17ee57" d="M449.601 2881.427 l-2.575 384.023" />
    <path class="write-stroke-pen" transform="translate(-121.942,-2812.811)" fill="none" stroke="#FFFFFF" stroke-width="1.6" stroke-linecap="round" stroke-linejoin="round" __comx="352.494" __comy="275.794" __timestamp="0x178ad17ff8b" d="M199.128 3088.418 l550.616 2.724" />
    <path class="write-flat-pen" transform="translate(-121.942,-2812.811)" fill="#FFFFFF" stroke-width="1.6" __comx="328.564" __comy="70.679" __timestamp="0x178ad180a0b" d="M448.126 2882.659 l-0.367 -1.854 -0.076 -0.224 -1.118 -0.605 -0.563 0.362 -9.504 10.727 -0.374 0.418 0 0 -2.542 2.141 0 0 1.234 0.954 0.776 -1.612 3.547 -3.663 9.917 -8.118 0.896 0.398 5.915 8.183 8.073 7.738 3.557 2.466 0.138 -0.149 -2.72 -3.343 -7.832 -7.761 -6.087 -8.42 -2.19 -0.974 -10.751 8.802 -3.791 3.917 -0.885 1.848 1.234 0.954 0 0 2.623 -2.22 0 0 0.457 -0.514 9.094 -10.915 -0.05 -0.005 0.415 -0.059 -0.028 -0.101 0.756 1.707" />
    <path class="write-flat-pen" transform="translate(-121.942,-2812.811)" fill="#FFFFFF" stroke-width="1.6" __comx="266.65" __comy="60.947" __timestamp="0x178ad180c66" d="M383.79 2872.728 l0.405 -0.031 -0.065 0.001 1.81 2.955 0.326 0.564 4.057 6.618 2.99 2.812 0.235 -0.196 -2.169 -3.378 -4.083 -6.493 -0.375 -0.572 -2.253 -2.844 -0.449 -0.27 -0.582 0.586" />
    <path class="write-flat-pen" transform="translate(-121.942,-2812.811)" fill="#FFFFFF" stroke-width="1.6" __comx="271.215" __comy="62.033" __timestamp="0x178ad180d74" d="M400.063 2871.065 l-1.175 1.906 -0.232 0.547 -3.402 7.157 -9.079 14.945 -0.55 3.717 0.136 0.042 1.585 -3.23 9.164 -14.806 3.229 -7.375 0.181 -0.551 0.768 -2.046" />
    <path class="write-flat-pen" transform="translate(-121.942,-2812.811)" fill="#FFFFFF" stroke-width="1.6" __comx="270.927" __comy="41.812" __timestamp="0x178ad180f4e" d="M382.941 2860.313 l0.862 -1.765 0.179 -0.199 7.17 -8.968 -0.078 0.077 0.717 -0.248 0.927 0.577 7.617 14.778 2.803 3.325 0.218 -0.149 -2.042 -3.752 -7.428 -15.28 -1.936 -1.151 -1.67 0.627 -0.223 0.215 -6.897 9.321 -0.237 0.346 -0.54 2.042" />
    <path class="write-flat-pen" transform="translate(-121.942,-2812.811)" fill="#FFFFFF" stroke-width="1.6" __comx="631.707" __comy="270.594" __timestamp="0x178ad1813b7" d="M753.402 3090.795 l-0.784 -4.005 -0.12 -0.466 -3.574 -8.477 -0.227 -0.361 0 0 -3.201 -3.853 0 0 -1.2 1.032 4.391 4.997 4.86 3.94 7.053 4.183 0.726 0.933 -0.135 0.851 -8.31 8.855 -2.564 5.187 0.285 3.817 0.299 0.019 0.749 -3.465 2.549 -4.625 8.495 -9.053 0.322 -2.023 -1.339 -1.719 -7.213 -4.277 -4.666 -3.781 -4.314 -4.886 -1.2 1.032 0 0 3.181 3.74 0 0 0.119 0.181 3.893 8.133 0.126 0.363 1.173 3.883" />
    <path class="write-flat-pen" transform="translate(-121.942,-2812.811)" fill="#FFFFFF" stroke-width="1.6" __comx="637.883" __comy="316.007" __timestamp="0x178ad1815d6" d="M752.592 3126.134 l-0.48 1.074 0.019 0.493 3.014 6.525 0.496 0.768 2.692 3.368 5.131 4.104 3.977 1.853 0.095 -0.152 -3.323 -2.737 -4.815 -4.123 -2.601 -3.161 -0.425 -0.627 -3.268 -6.096 -0.041 -0.14 0.058 -1.012" />
    <path class="write-flat-pen" transform="translate(-121.942,-2812.811)" fill="#FFFFFF" stroke-width="1.6" __comx="636.332" __comy="320.507" __timestamp="0x178ad1816ad" d="M750.562 3141.329 l0.407 -1.317 13.205 -11.618 2.774 -3.186 -0.106 -0.111 -3.285 2.619 -13.712 11.633 -0.247 1.776" />
    <path class="write-flat-pen" transform="translate(-121.942,-2812.811)" fill="#FFFFFF" stroke-width="1.6" __comx="637.761" __comy="303.366" __timestamp="0x178ad1818a3" d="M750.493 3121.767 l1.26 -1.605 0.243 -0.264 7.587 -7.89 1.134 -0.638 0.196 0.193 1.585 5.4 3.342 4.901 3.505 2.32 0.188 -0.22 -2.691 -2.977 -2.879 -4.697 -1.657 -5.586 -1.368 -1.27 -2.323 1.36 -7.523 8.315 -0.281 0.376 -0.938 1.893" />
    <path class="write-flat-pen" transform="translate(-122.593,-2808.944)" fill="#FFFFFF" stroke-width="1.6" __comx="323.309" __comy="277.384" __timestamp="0x178ad181ee5" d="M444.589 3089.243 l1.08 -0.206 -0.15 -0.021 0.745 0.552 0.019 0.41 -0.675 0.749 -1.042 0.261 -0.827 -0.426 -0.208 -0.567 0.422 -0.892 1.463 -0.899 3.071 -0.646 1.998 0.215 0.802 0.715 0.054 0.738 -0.783 1.291 -1.699 1.038 -1.941 0.276 -2.29 -0.525 -1.608 -1.188 -0.687 -1.467 0.223 -1.373 1.09 -1.215 2.334 -0.913 2.561 -0.042 1.552 0.695 0.629 0.966 -0.061 1.539 -1.399 2.288 -2.431 1.822 -2.511 0.823 -1.913 -0.148 -1.311 -0.873 -0.621 -1.465 0.287 -2.092 1.474 -2.388 2.604 -2.033 2.971 -1.091 1.768 -0.038 0.744 0.506 0.051 0.728 -1.081 1.586 -2.297 1.403 -3.105 0.833 -1.822 -0.233 -0.333 -0.391 0.167 -0.611 1.264 -1.071 2.768 -0.978 2.131 -0.033 0.648 0.458 0.162 0.672 -0.74 1.579 -1.996 1.555 -4.068 1.006 -2.313 0.047 -0.034 0.13 2.32 1.256 4.793 -0.955 2.583 -2.013 1.141 -2.435 -0.435 -1.802 -1.564 -1.107 -2.915 0.045 -3.292 1.163 -1.867 1.582 -0.519 1.904 1.281 1.506 2.75 0.352 3.632 -0.975 2.788 -1.703 1.587 -2.329 -0.143 -2.057 -1.81 -1.23 -2.546 0.055 -3.456 1.27 -3.028 2.364 -1.802 2.92 -0.393 2.863 0.98 2.312 2.057 1.37 2.647 0.205 3.064 -1.004 2.887 -2.164 1.777 -2.905 0.098 -2.464 -1.164 -1.788 -2.307 -1.033 -3.204 0.053 -2.957 1.157 -1.657 1.847 -0.378 2.324 1.068 2.283 2.203 1.627 2.904 0.665 2.561 -0.364 2.313 -1.414 1.249 -2.06 -0.138 -1.894 -1.669 -1.486 -2.76 -0.295 -3.589 0.762 -2.097 1.304 -0.884 1.933 0.689 1.741 1.908 0.899 2.011 -0.627 1.202 -1.669 -0.389 -1.452 -1.422 -0.666 -0.25 -0.041 -1.163 0.703" />
    <path class="write-flat-pen" transform="translate(-122.593,-2808.944)" fill="#FFFFFF" stroke-width="1.6" __comx="296.288" __comy="294.786" __timestamp="0x178ad18218f" d="M413.485 3107.117 l0.708 -1.666 0.044 -0.106 0.398 -1.9 -1.566 -0.505 -2.401 1.921 -2.017 3.208 -1.155 3.911 0.213 3.053 1.363 2.772 2.147 1.657 3.037 0.919 3.547 -0.162 3.624 -1.238 4.331 -2.93 2.368 -2.678 1.69 -3.731 0.45 -2.94 -0.515 -3.044 -2.02 -3.471 -3.194 -2.739 -2.854 -1.21 -2.638 -0.136 -2.606 1.604 -2.261 2.917 0.132 0.138 2.905 -1.996 2.203 -1.043 1.901 0.098 2.365 1.003 2.8 2.401 1.738 2.986 0.424 2.503 -0.378 2.468 -1.5 3.311 -2.074 2.346 -3.986 2.697 -3.205 1.096 -3.045 0.14 -2.494 -0.754 -1.622 -1.25 -1.065 -2.158 -0.177 -2.457 0.996 -3.439 1.733 -2.846 1.582 -1.409 -0.108 -0.123 0.022 0.796 -0.007 0.046 -0.306 1.802" />
    <path class="write-flat-pen" transform="translate(-121.942,-2812.811)" fill="#D534A9" stroke-width="1.6" __comx="466.729" __comy="145.879" __timestamp="0x178ad19bb20" d="M594.401 2935.535 l0.386 -0.797 0.023 -0.169 -0.07 -0.46 -0.201 -0.242 -0.543 -0.303 -0.373 -0.02 -0.977 0.24 -0.502 0.256 -1.522 1.126 -1.739 1.947 -1.814 2.767 -1.64 3.567 -1.396 4.309 -0.987 4.684 -0.451 4.524 -0.063 4.133 0.422 3.67 0.781 3 1.032 2.383 1.241 1.906 3.169 2.75 0.52 0.289 0.939 0.401 0.48 0.134 0.459 0.08 0.437 0.027 1.694 0.106 0.032 -0.122 -1.525 -0.744 -0.37 -0.187 -0.367 -0.184 -0.358 -0.188 -0.772 -0.476 -0.343 -0.241 -2.82 -2.646 -1.045 -1.637 -0.926 -2.157 -0.707 -2.78 -0.381 -3.461 0.072 -3.964 0.436 -4.372 0.952 -4.517 1.34 -4.14 1.548 -3.376 1.674 -2.584 1.53 -1.788 1.263 -1.045 0.265 -0.173 0.618 -0.273 -0.056 -0.022 0.173 -0.014 -0.084 -0.119 0.086 0.03 0.018 -0.113 -0.184 0.753" />
    <path class="write-flat-pen" transform="translate(-121.942,-2812.811)" fill="#D534A9" stroke-width="1.6" __comx="486.169" __comy="145.879" __timestamp="0x178ad19bd8e" d="M612.062 2953.262 l0.099 -0.555 0.027 -0.073 0.111 -0.461 0.016 -0.169 -0.048 -0.713 -0.094 -0.278 -0.639 -0.962 -0.353 -0.239 -1.032 -0.356 -1.51 0.143 -1.616 0.817 -1.511 1.457 -1.28 1.946 -0.966 2.217 -0.556 2.168 -0.247 2.763 0.199 1.83 0.747 1.976 0.949 1.179 1.611 0.962 1.537 0.301 1.615 -0.175 2.295 -1.019 0.417 -0.3 0.329 -0.285 0.303 -0.311 0.233 -0.319 1.055 -1.425 -0.151 -0.176 -1.566 0.832 -0.327 0.163 -0.329 0.179 -0.321 0.173 -0.318 0.155 -2.021 0.767 -1.146 0.124 -1.025 -0.201 -1.125 -0.672 -0.609 -0.757 -0.585 -1.547 -0.16 -1.47 0.221 -2.476 0.491 -1.919 0.859 -1.975 1.105 -1.686 1.208 -1.178 1.139 -0.598 0.902 -0.121 0.561 0.144 -0.012 -0.02 0.501 0.527 0.009 -0.019 0.156 0.466 0.016 0.044 0.059 0.424 0.012 0.079 0.04 0.58" />
    <path class="write-flat-pen" transform="translate(-121.942,-2812.811)" fill="#D534A9" stroke-width="1.6" __comx="497.879" __comy="145.879" __timestamp="0x178ad19bf43" d="M621.979 2957.799 l-0.097 -0.571 -0.002 -0.071 -0.054 -0.446 -0.034 -0.144 -0.261 -0.669 -0.172 -0.262 -1.218 -0.867 -0.526 -0.102 -1.102 0.069 -1.18 0.586 -1.037 1.121 -0.793 1.5 -0.566 2.259 -0.083 2.145 0.386 1.743 0.659 1.104 1.201 0.811 1.684 0.08 1.243 -0.444 1.719 -1.228 1.445 -1.737 0.975 -1.837 0.589 -2.101 0.028 -1.584 -0.455 -1.529 -0.806 -1.224 -1.278 -0.991 -1.237 -0.114 -0.35 0.144 -0.224 0.172 -0.127 0.185 -0.679 1.138 0.134 0.174 1.273 -0.365 0.124 -0.009 0.06 0.02 -0.077 0.055 0.459 0.124 0.732 0.568 0.53 0.806 0.317 1.065 -0.02 1.131 -0.487 1.737 -0.817 1.539 -1.207 1.451 -1.369 0.978 -0.735 0.262 -0.921 -0.044 -0.534 -0.361 -0.344 -0.576 -0.287 -1.29 0.066 -1.774 0.473 -1.914 0.603 -1.151 0.696 -0.77 0.644 -0.344 0.606 -0.072 0.051 -0.002 0.839 0.439 -0.01 -0.037 0.315 0.443 0.031 0.044 0.207 0.374 0.037 0.061 0.255 0.529" />
    <path class="write-flat-pen" transform="translate(-121.942,-2812.811)" fill="#D534A9" stroke-width="1.6" __comx="505.653" __comy="145.879" __timestamp="0x178ad19c0e2" d="M630.126 2954.366 l-0.185 -0.64 -0.037 -0.123 -0.143 -0.389 -0.079 -0.154 -0.437 -0.593 -0.189 -0.168 -0.897 -0.561 -1.09 -0.039 -0.851 0.674 -0.138 1.135 0.574 1.166 2.805 2.433 0.81 1.016 0.241 0.677 -0.054 0.991 -0.295 0.755 -0.786 1.001 -0.797 0.555 -1.302 0.427 -0.932 -0.031 -0.69 -0.256 -0.697 -0.637 -0.265 -0.589 -0.03 -0.707 -0.022 -0.146 0.25 -1.625 -0.361 -0.163 -1.053 1.262 -0.229 0.313 -0.18 1.354 0.567 1.26 1.172 1.071 1.226 0.455 1.474 0.049 1.793 -0.588 1.186 -0.826 1.08 -1.375 0.474 -1.214 0.086 -1.568 -0.438 -1.232 -1.07 -1.341 -2.686 -2.313 -0.239 -0.461 -0.006 -0.048 -0.085 0.049 0.167 -0.024 0.522 0.236 0.036 0.012 0.418 0.344 0.047 0.038 0.25 0.26 0.05 0.044 0.33 0.542" />
    <path class="write-flat-pen" transform="translate(-121.942,-2812.811)" fill="#D534A9" stroke-width="1.6" __comx="520.008" __comy="145.879" __timestamp="0x178ad19c2c3" d="M643.828 2947.95 l0.073 -0.465 0.017 -0.05 0.1 -0.37 -0.023 -0.185 -0.307 -0.491 -0.429 -0.073 -0.699 0.261 -0.33 0.285 -1.063 1.532 -0.296 0.672 -0.855 3.133 -0.392 4.053 0.029 4.064 0.398 3.15 1.086 2.706 0.305 0.36 0.559 0.447 0.33 0.163 0.324 0.088 1.56 0.407 0.063 -0.116 -1.195 -1.082 -0.201 -0.196 -0.141 -0.161 -0.317 -0.412 -0.084 -0.156 -0.811 -2.409 -0.354 -2.889 -0.024 -3.897 0.359 -3.855 0.738 -2.932 0.186 -0.479 0.783 -1.391 0.055 -0.09 0.181 -0.186 -0.262 -0.054 0.037 -0.089 -0.013 -0.126 0.071 0.294 0.013 0.064 0.073 0.476" />
    <path class="write-flat-pen" transform="translate(-121.942,-2812.811)" fill="#D534A9" stroke-width="1.6" __comx="529.334" __comy="145.879" __timestamp="0x178ad19c4e0" d="M653.702 2953.976 l-0.047 -0.688 0.007 -0.088 0.02 -0.433 0.004 -0.122 -0.013 -0.966 -0.053 -0.283 -0.356 -0.866 -0.949 -0.687 -1.098 -0.038 -1.387 0.827 -1.253 1.634 -1.103 2.272 -0.77 2.451 -0.418 3.298 0.072 2.309 0.523 1.815 0.918 1.226 1.197 0.628 1.578 0.013 1.623 -0.714 1.453 -1.31 1.214 -1.801 0.852 -2.038 0.553 -2.831 -0.003 -2.254 -0.424 -1.93 -0.82 -1.86 -0.925 -1.065 -1.07 -0.473 -1.351 0.265 -1.194 1.059 -0.874 1.605 -0.55 2.276 -0.073 2.354 0.391 1.521 1.462 1.388 0.533 0.139 0.427 0.03 0.436 -0.056 0.418 -0.155 1.431 -0.55 -0.016 -0.15 -1.516 -0.229 -0.358 -0.07 -0.247 -0.082 -0.216 -0.094 -0.087 -0.071 -0.825 -0.919 -0.226 -0.881 0.061 -1.961 0.461 -1.911 0.639 -1.174 0.658 -0.584 0.43 -0.084 0.283 0.125 0.533 0.613 0.658 1.492 0.353 1.605 0.002 1.926 -0.492 2.519 -0.728 1.742 -1.016 1.507 -1.116 1.006 -1.072 0.472 -0.847 -0.007 -0.534 -0.28 -0.525 -0.702 -0.386 -1.341 -0.062 -1.983 0.384 -3.031 0.691 -2.203 0.978 -2.024 0.964 -1.276 0.73 -0.458 0.188 -0.01 0.268 0.152 0.194 0.337 0.025 0.055 0.173 0.863 0.029 0.133 0.131 0.45 0.04 0.11 0.203 0.667" />
    <path class="write-flat-pen" transform="translate(-121.942,-2812.811)" fill="#D534A9" stroke-width="1.6" __comx="537.198" __comy="145.879" __timestamp="0x178ad19c620" d="M657.597 2946.697 l0.52 0.631 0.076 0.119 0.46 0.725 0.178 0.311 1.098 2.609 0.192 0.658 0.531 2.336 0.247 3.144 -0.247 2.374 -0.565 2.202 -2.107 4.51 -0.3 0.463 -0.329 0.474 -0.3 0.417 -0.269 0.418 -0.972 1.44 0.199 0.199 1.438 -0.976 0.438 -0.29 0.426 -0.387 0.437 -0.473 0.444 -0.556 2.357 -4.701 0.64 -2.462 0.278 -2.632 -0.273 -3.404 -0.596 -2.494 -0.252 -0.797 -1.33 -2.73 -0.302 -0.412 -0.639 -0.709 -0.167 -0.146 -0.663 -0.527" />
    <path class="write-flat-pen" transform="translate(-121.942,-2812.811)" fill="#D534A9" stroke-width="1.6" __comx="553.161" __comy="145.879" __timestamp="0x178ad19c7ae" d="M674.081 2963.818 l0.505 -0.502 -0.125 0.097 0.179 0.074 -0.123 -0.064 0.388 0.655 0.34 1.24 0.287 5.862 -0.017 0.551 0.001 0.499 0.023 0.465 0.044 0.393 0.173 1.717 0.168 0.017 0.507 -1.65 0.121 -0.383 0.103 -0.464 0.081 -0.484 0.099 -0.621 -0.152 -6.139 -0.508 -1.61 -0.727 -0.969 -0.428 -0.278 -0.892 0.103 -0.262 0.184 -0.494 0.735" />
    <path class="write-flat-pen" transform="translate(-121.942,-2812.811)" fill="#D534A9" stroke-width="1.6" __comx="574.103" __comy="145.879" __timestamp="0x178ad19ca67" d="M695.282 2955.738 l0.269 -0.315 0.078 -0.062 0.184 -0.209 0.086 -0.145 0.172 -0.488 -0.027 -0.304 -0.382 -0.674 -0.385 -0.246 -1.906 -0.146 -0.506 0.162 -1.191 0.73 -0.863 1.108 -0.452 1.439 0.17 1.23 0.67 0.971 1.555 0.919 4.718 1.351 1.465 0.7 0.688 0.591 0.399 0.703 0.08 0.565 -0.159 0.629 -0.447 0.649 -0.82 0.612 -1.174 0.439 -1.742 0.248 -1.524 -0.079 -0.913 -0.435 0.021 0.269 -0.054 -0.011 -0.058 -0.159 -0.148 -1.2 -0.214 -0.057 -0.721 0.971 -0.169 0.262 -0.061 0.335 0.09 0.582 1.784 1.022 2.039 0.106 2.068 -0.294 1.551 -0.58 1.214 -0.906 0.76 -1.103 0.306 -1.213 -0.167 -1.177 -0.686 -1.21 -1.06 -0.911 -1.778 -0.849 -4.652 -1.323 -1.077 -0.638 -0.257 -0.373 -0.071 -0.503 0.256 -0.83 0.508 -0.671 0.78 -0.51 0.068 -0.03 1.296 -0.047 -0.132 -0.098 0.192 0.119 -0.007 -0.161 0.037 0.24 0.011 0.033 -0.029 0.197 -0.02 0.082 -0.149 0.415" />
    <path class="write-flat-pen" transform="translate(-121.942,-2812.811)" fill="#D534A9" stroke-width="1.6" __comx="582.192" __comy="145.879" __timestamp="0x178ad19cb34" d="M704.423 2958.454 l-0.413 1.016 -0.1 0.309 -0.301 1.082 -0.101 0.462 -0.518 4.021 0.229 2.282 0.549 0.033 0.574 -0.242 0.065 -0.32 -0.434 -0.447 0.397 0.002 0.106 -1.253 0.349 -3.891 0.048 -0.41 0.138 -1.083 0.029 -0.265 0.237 -1.024" />
    <path class="write-flat-pen" transform="translate(-121.942,-2812.811)" fill="#D534A9" stroke-width="1.6" __comx="583.324" __comy="145.879" __timestamp="0x178ad19cbe3" d="M706.04 2952.49 l-0.879 -0.402 -0.326 0.444 -0.168 0.347 -0.051 0.165 -0.124 1.809 0.059 0.311 0.057 0.235 0.102 0.272 0.589 1.535 0.102 -0.013 0.172 -1.635 0.033 -0.256 0.029 -0.202 0.031 -0.221 0.222 -1.638 -0.001 -0.072 -0.03 -0.17 -0.296 0.401 0.117 -0.005" />
    <path class="write-flat-pen" transform="translate(-121.942,-2812.811)" fill="#D534A9" stroke-width="1.6" __comx="589.543" __comy="145.879" __timestamp="0x178ad19cd42" d="M708.001 2962.622 l-0.11 0.404 -0.054 0.139 -0.097 0.287 -0.048 0.155 -0.101 0.363 -0.047 0.167 -0.156 0.593 -0.033 0.108 -0.216 0.493 0.088 -0.109 0 0 1.227 0.54 0.182 -1.467 0.761 -2.851 0.798 -1.897 0.778 -1.131 0.879 -0.722 0.434 -0.136 0.307 0.054 0.441 0.325 0.627 1.164 0.472 2.175 0.357 4.063 0.788 1.754 0.208 -0.02 0.447 -1.853 -0.212 -4.171 -0.544 -2.509 -0.905 -1.679 -1.034 -0.761 -1.06 -0.185 -1.101 0.345 -1.294 1.063 -0.998 1.454 -0.901 2.154 -0.799 3.105 -0.048 1.62 1.227 0.54 0 0 0.141 -0.166 0.156 -0.942 0.012 -0.186 0.006 -0.63 -0.003 -0.188 -0.023 -0.385 -0.015 -0.161 -0.035 -0.299 -0.022 -0.146 -0.021 -0.419" />
    <path class="write-flat-pen" transform="translate(-121.942,-2812.811)" fill="#D534A9" stroke-width="1.6" __comx="603.224" __comy="145.879" __timestamp="0x178ad19cf3e" d="M725.858 2945.571 l-0.516 -0.579 -0.401 0.096 -0.364 0.261 -0.149 0.207 -0.382 0.73 -0.134 0.374 -0.514 1.895 -0.147 0.706 -0.713 5.955 -0.194 5.037 0.221 3.562 0.534 2.613 0.928 1.642 0.355 0.364 0.697 0.468 0.447 0.178 0.423 0.101 0.397 0.026 1.607 0.095 0.037 -0.128 -1.414 -0.769 -0.301 -0.174 -0.272 -0.178 -0.241 -0.186 -0.419 -0.433 -0.122 -0.18 -0.628 -1.35 -0.437 -2.295 -0.21 -3.375 0.186 -4.897 0.629 -5.851 0.1 -0.629 0.348 -1.86 0.059 -0.286 0.18 -0.654 -0.007 -0.038 -0.009 -0.088 -0.332 0.076 0.243 0.124" />
    <path class="write-flat-pen" transform="translate(-121.942,-2812.811)" fill="#D534A9" stroke-width="1.6" __comx="612.86" __comy="145.879" __timestamp="0x178ad19d15d" d="M735.929 2953.613 l0.008 -0.865 0.01 -0.044 0.083 -0.622 0.018 -0.119 0.145 -1.388 -0.427 -1.007 -1.258 -0.376 -1.278 0.395 -1.314 1.02 -1.269 1.604 -1.078 2.022 -0.907 2.906 -0.322 3.122 0.213 2.172 0.611 1.933 0.957 1.517 1.291 1.033 1.692 0.498 1.875 -0.2 1.943 -0.913 1.215 -0.985 1.445 -1.87 1.026 -2.173 0.524 -2.138 0.132 -2.252 -0.31 -2.093 -0.667 -1.925 -0.924 -1.239 -1.151 -0.44 -1.401 0.389 -1.235 1.252 -0.926 1.786 -0.674 2.31 -0.282 2.901 0.535 3.276 0.29 0.416 0.286 0.274 0.368 0.187 1.459 0.711 0.173 -0.198 -0.895 -1.354 -0.148 -0.266 -0.071 -0.169 -0.023 -0.112 -0.365 -2.806 0.248 -2.557 0.589 -2.016 0.743 -1.432 0.765 -0.776 0.483 -0.134 0.226 0.086 0.498 0.668 0.537 1.549 0.264 1.782 -0.114 1.942 -0.451 1.84 -0.882 1.87 -1.225 1.584 -0.92 0.746 -1.523 0.716 -1.291 0.138 -1.085 -0.32 -0.835 -0.668 -0.704 -1.115 -0.498 -1.576 -0.181 -1.845 0.289 -2.803 0.814 -2.61 0.939 -1.764 1.058 -1.343 0.932 -0.732 0.549 -0.181 0.115 0.019 0.014 -0.007 -0.016 1.027 0 0.161 0.072 0.705 0.019 0.098 0.151 0.864" />
    <path class="write-flat-pen" transform="translate(-121.942,-2812.811)" fill="#D534A9" stroke-width="1.6" __comx="626.404" __comy="145.879" __timestamp="0x178ad19d319" d="M745.43 2944.321 l0.286 0.446 0.039 0.102 0.194 0.38 0.148 0.268 0.694 1.257 0.267 0.508 2.434 5.652 0.209 0.703 0.397 2.167 0.012 2.134 -0.415 2.218 -1.347 3.508 -0.325 0.601 -0.818 1.279 -0.438 0.623 -0.434 0.613 -0.422 0.619 -0.929 1.327 0.134 0.131 1.307 -0.957 0.625 -0.45 0.597 -0.532 0.567 -0.61 0.993 -1.28 0.452 -0.72 1.563 -3.704 0.489 -2.52 -0.019 -2.434 -0.457 -2.39 -0.273 -0.876 -2.655 -5.737 -0.353 -0.573 -0.867 -1.217 -0.227 -0.264 -0.319 -0.317 -0.106 -0.087 -0.402 -0.374" />
    <path class="write-flat-pen" transform="translate(-121.942,-2812.811)" fill="#D534A9" stroke-width="1.6" __comx="638.054" __comy="145.879" __timestamp="0x178ad19d4f8" d="M759.731 2936.794 l0.631 0.42 0.167 0.164 0.509 0.594 0.294 0.396 1.119 1.917 0.363 0.784 0.997 2.884 0.442 2.18 0.178 3.736 -0.39 4.009 -0.617 2.792 -1.38 4.182 -3.457 7.096 -0.529 0.917 -1.559 2.466 -0.469 0.686 -0.477 0.676 -0.5 0.718 -0.894 1.26 0.123 0.113 1.179 -0.998 0.686 -0.574 0.604 -0.625 0.56 -0.681 1.712 -2.432 0.596 -0.961 3.676 -7.143 1.473 -4.328 0.666 -2.945 0.399 -4.201 -0.23 -3.945 -0.527 -2.364 -1.144 -2.998 -0.458 -0.88 -1.326 -1.942 -0.414 -0.441 -0.666 -0.57 -0.294 -0.186 -0.753 -0.32" />
    <path class="write-flat-pen" transform="translate(-121.942,-2812.811)" fill="#D534A9" stroke-width="1.6" __comx="508.792" __comy="98.572" __timestamp="0x178ad19ddb1" d="M628.987 2916.432 l0.414 0.066 -0.019 0.01 0.49 0.266 -0.022 -0.001 0.503 0.835 -0.018 -0.073 -0.828 2.444 -0.064 0.123 -0.461 1.076 0.186 0.991 1.337 1.082 0.394 0.655 0.161 0.78 -0.355 1.86 0.159 1.529 0.192 0.049 0.878 -1.281 0.562 -2.149 -0.293 -1.315 -0.663 -1.054 -1.176 -0.892 -0.036 -0.123 0.272 -0.683 0.088 -0.183 0.759 -2.815 -0.062 -0.428 -0.918 -1.127 -0.226 -0.114 -0.693 -0.166 -0.119 -0.002 -0.459 0.091" />
    <path class="write-flat-pen" transform="translate(-121.942,-2812.811)" fill="#D534A9" stroke-width="1.6" __comx="514.537" __comy="98.572" __timestamp="0x178ad19dfbb" d="M635.111 2917.668 l-0.239 -0.435 0.065 0.225 0.054 0.079 -0.163 0.094 0.776 0.046 -0.025 0.001 0.468 0.219 0.157 0.257 0.027 0.434 -0.731 2.339 0.009 1.026 0.82 2.283 0.406 2.434 0.589 1.185 0.132 0.129 1.368 1.113 0.142 -0.095 -0.509 -1.689 0.002 -0.065 -0.31 -0.987 -0.429 -2.392 -0.779 -2.173 -0.008 -0.563 0.713 -2.403 -0.119 -1.066 -0.623 -0.848 -0.987 -0.367 -0.246 -0.033 -1.115 0.136 -0.312 0.165 -0.252 0.588 0.084 0.312 0.502 0.482" />
    <path class="write-flat-pen" transform="translate(-121.942,-2812.811)" fill="#D534A9" stroke-width="1.6" __comx="507.838" __comy="98.572" __timestamp="0x178ad19e1b9" d="M622.87 2895.599 l0.727 1.024 0.189 0.268 1.216 1.536 0.42 0.491 3.199 3.293 0.555 0.515 5.351 4.439 0.149 0.083 0.172 0.07 1.745 0.608 0.097 -0.137 -1.16 -1.444 -0.126 -0.136 -0.076 -0.075 -5.177 -4.512 -0.522 -0.468 -3.275 -3.125 -0.412 -0.429 -1.31 -1.408 -0.212 -0.232 -0.858 -0.923" />
    <path class="write-flat-pen" transform="translate(-121.942,-2812.811)" fill="#D534A9" stroke-width="1.6" __comx="509.381" __comy="98.572" __timestamp="0x178ad19e276" d="M627.184 2906.497 l0.025 -0.599 0.035 -0.111 0.102 -0.378 0.074 -0.231 0.405 -1.137 0.191 -0.432 1.292 -2.302 4.356 -5.26 0.487 -0.572 0.5 -0.605 0.494 -0.633 0.466 -0.667 0.949 -1.327 -0.14 -0.143 -1.344 0.925 -0.677 0.455 -0.648 0.495 -0.604 0.526 -0.592 0.548 -4.559 5.363 -1.353 2.55 -0.223 0.596 -0.305 1.325 -0.029 0.387 0.051 0.514 0.049 0.182 0.123 0.603" />
    <path class="write-flat-pen" transform="translate(-121.942,-2812.811)" fill="#D534A9" stroke-width="1.6" __comx="579.219" __comy="100.887" __timestamp="0x178ad19e62d" d="M699.494 2919.871 l0.294 -0.202 -0.242 0.052 0.126 0.146 -0.045 -0.021 0.448 0.615 0.024 0.048 0.441 0.952 0.125 0.93 -0.234 1.13 -0.658 1.232 0.216 0.995 1.267 0.903 0.46 0.684 0.1 0.61 -0.187 0.925 -0.66 1.49 0.058 1.577 0.155 0.057 1.044 -1.088 0.859 -1.535 0.278 -1.4 -0.203 -1.211 -0.802 -1.184 -1.019 -0.72 0.021 0.113 0.49 -0.947 0.296 -1.607 -0.258 -1.406 -0.69 -1.179 -0.13 -0.166 -0.679 -0.634 -0.163 -0.114 -0.567 -0.139 -0.324 0.065 -0.378 0.558" />
    <path class="write-flat-pen" transform="translate(-121.942,-2812.811)" fill="#D534A9" stroke-width="1.6" __comx="586.493" __comy="100.887" __timestamp="0x178ad19e84e" d="M707.276 2921.531 l-0.502 -0.179 0.051 0.006 -0.042 -0.113 0.091 0.112 0.078 -0.19 0.009 0.044 0.403 -0.515 0.096 -0.085 1.091 -0.78 0.327 -0.09 -0.223 -0.105 0.014 0.097 -1.719 4.993 -0.255 1.676 0.296 1.398 1.822 3.062 0.488 1.282 0.165 1.267 -0.522 1.647 0.127 -0.081 0.037 0.019 0 0.067 -0.575 0.844 0.057 0.128 1.011 0.143 0.165 -0.006 0.177 -0.078 0.246 -0.186 0.914 -2.316 -0.239 -1.839 -0.604 -1.588 -1.758 -2.954 -0.181 -0.854 0.189 -1.246 1.801 -5.272 -0.268 -1.258 -1.032 -0.519 -1.19 0.402 -1.338 1.122 -0.238 0.299 -0.409 0.83 -0.071 0.306 0.113 0.624 0.182 0.271 0.408 0.188 0.112 0.025 0.577 0.024" />
    <path class="write-flat-pen" transform="translate(-121.942,-2812.811)" fill="#D534A9" stroke-width="1.6" __comx="579.421" __comy="100.887" __timestamp="0x178ad19ea3b" d="M699.001 2896.303 l0.069 -0.407 0.013 -0.083 0.052 -0.324 0.014 -0.076 0.075 -0.329 0.008 0.005 0.081 -0.036 -0.247 0.352 -0.373 -0.07 -0.064 -0.025 0.276 0.583 0.156 0.315 1.246 2.169 1.92 1.918 0.149 0.075 1.722 0.742 0.181 -0.231 -1.127 -1.498 -0.031 -0.066 -1.624 -1.842 -1.242 -1.965 -0.198 -0.307 -0.474 -0.605 -0.227 -0.212 -0.596 -0.156 -0.317 0.437 0.027 0.346 0.004 0.061 0.098 0.364 0.023 0.082 0.091 0.314 0.02 0.071 0.072 0.399" />
    <path class="write-flat-pen" transform="translate(-121.942,-2812.811)" fill="#D534A9" stroke-width="1.6" __comx="579.74" __comy="100.887" __timestamp="0x178ad19eb19" d="M706.402 2894.253 l-0.565 0.885 -0.135 0.223 -8.345 15.636 -0.399 0.839 -0.33 0.763 -0.24 0.733 -0.521 1.523 0.226 0.123 0.992 -1.267 0.48 -0.594 0.475 -0.675 0.511 -0.791 8.433 -15.623 0.101 -0.245 0.408 -0.951" />
    <path class="write-flat-pen" transform="translate(-121.942,-2812.811)" fill="#FFFFFF" stroke-width="1.6" __comx="423.307" __comy="188.156" __timestamp="0x178ad1a07bf" d="M544.548 2980.334 l0.374 0.612 0.917 0.884 0.11 -0.075 -0.503 -1.193 -0.519 -0.526" />
    <path class="write-flat-pen" transform="translate(-121.942,-2812.811)" fill="#FFFFFF" stroke-width="1.6" __comx="424.691" __comy="188.156" __timestamp="0x178ad1a0863" d="M546.602 2982.91 l-0.402 1.684 0.182 1.754 0.063 0.002 0.311 -1.687 0.311 -1.654" />
    <path class="write-flat-pen" transform="translate(-121.942,-2812.811)" fill="#FFFFFF" stroke-width="1.6" __comx="425.288" __comy="188.156" __timestamp="0x178ad1a08e7" d="M547.462 2986.916 l-0.488 0.344 -0.071 0.136 -0.093 0.304 -0.084 1.392 0.131 0.031 0.551 -1.257 0.082 -0.249 -0.004 -0.015 0.251 -0.422" />
    <path class="write-flat-pen" transform="translate(-121.942,-2812.811)" fill="#FFFFFF" stroke-width="1.6" __comx="427.331" __comy="268.011" __timestamp="0x178ad1a1115" d="M549.142 3082.547 l-0.357 0.891 0.546 0.726 0.037 -0.011 0.131 -0.683 0.261 -0.679" />
    <path class="write-flat-pen" transform="translate(-121.942,-2812.811)" fill="#FFFFFF" stroke-width="1.6" __comx="428.315" __comy="268.011" __timestamp="0x178ad1a116d" d="M549.709 3085.137 l0.044 1.343 1.006 1.349 0.046 -0.028 -0.683 -1.447 -0.253 -1.235" />
    <path class="write-flat-pen" transform="translate(-121.942,-2812.811)" fill="#FFFFFF" stroke-width="1.6" __comx="429.054" __comy="268.011" __timestamp="0x178ad1a11e8" d="M550.971 3090.175 l-0.285 0.835 0.451 0.201 0.038 -0.034 0.021 -0.287 0.109 -0.625" />
    <path class="write-flat-pen" transform="translate(-121.942,-2812.811)" fill="#D534A9" stroke-width="1.6" __comx="428.243" __comy="275.247" __timestamp="0x178ad1a2382" d="M550.4 3088.203 l-0.081 -0.619 0.016 0.101 0.07 0.038 -0.715 0.044 -0.029 -0.017 0.06 0.454 0.007 0.129 0.047 1.725 -0.005 0.343 -0.362 4.43 0 0 -0.003 0.112 0 0 1.404 0.095 0.473 -2.354 0.218 -4.798 0 0 -0.193 -1.74 0 0 -1.551 -0.154 -0.31 0.964 0 0 -0.577 6.574 1.595 0.11 -1.595 -0.11 1.595 0.11 0.122 -2.433 0.761 -4.711 0 0 -1.589 -0.156 -0.117 5.115 0.091 0.195 0.761 1.295 0.17 -0.022 0.401 -1.448 0.054 -0.09 0.239 -4.988 -1.589 -0.156 0 0 -0.775 4.798 -0.126 2.521 1.595 0.11 -1.595 -0.11 1.595 0.11 0.558 -6.396 0 0 0.254 -0.795 -1.551 -0.154 0 0 0.186 1.618 0 0 -0.171 4.577 -0.323 2.278 1.404 0.095 0 0 -0.008 -0.043 0 0 0.192 -4.421 -0.018 -0.426 -0.212 -1.802 -0.058 -0.242 -0.271 -0.591 -0.066 -0.072 -0.715 0.044 -0.017 0.207 0.02 0.152 0.263 0.633" />
    <path class="write-flat-pen" transform="translate(-121.942,-2812.811)" fill="#FFFFFF" stroke-width="1.6" __comx="416.024" __comy="163.848" __timestamp="0x178ad1a3959" d="M538.421 2977.052 l-0.2 -0.546 -0.602 -0.291 -0.109 0.082 0.058 0.588 0.225 0.438" />
    <path class="write-flat-pen" transform="translate(-121.942,-2812.811)" fill="#FFFFFF" stroke-width="1.6" __comx="411.841" __comy="164.238" __timestamp="0x178ad1a39f6" d="M534.605 2976.797 l-1.248 0.182 -0.542 0.995 0.095 0.109 0.861 -0.236 0.98 -0.203" />
    <path class="write-flat-pen" transform="translate(-121.942,-2812.811)" fill="#FFFFFF" stroke-width="1.6" __comx="328.871" __comy="163.264" __timestamp="0x178ad1a3fe7" d="M451.959 2974.481 l-0.931 0.127 -0.044 0.009 -0.24 0.069 -1.19 0.51 0.014 0.076 1.312 0.055 0.272 -0.055 0.039 -0.013 0.88 -0.292" />
    <path class="write-flat-pen" transform="translate(-121.942,-2812.811)" fill="#FFFFFF" stroke-width="1.6" __comx="325.007" __comy="163.264" __timestamp="0x178ad1a405f" d="M447.365 2975.765 l-0.666 0.198 -0.366 0.681 0.073 0.084 0.639 -0.186 0.52 -0.256" />
    <path class="write-flat-pen" transform="translate(-121.942,-2812.811)" fill="#FFFFFF" stroke-width="1.6" __comx="314.254" __comy="247.427" __timestamp="0x178ad1ad3f8" d="M437.571 3083.886 l-1.509 -2.561 -1.201 -1.588 -0.039 0.016 0.297 2.02 1.334 2.715" />
    <path class="write-flat-pen" transform="translate(-121.942,-2812.811)" fill="#FFFFFF" stroke-width="1.6" __comx="306.493" __comy="247.427" __timestamp="0x178ad1ad499" d="M431.763 3069.562 l-4.622 -1.098 -2.004 -0.588 -0.03 0.059 1.731 1.331 4.68 1.263" />
    <path class="write-flat-pen" transform="translate(-121.942,-2812.811)" fill="#FFFFFF" stroke-width="1.6" __comx="293.908" __comy="247.427" __timestamp="0x178ad1ad51f" d="M418.705 3061.647 l-2.47 -1.217 -1.223 -0.879 -0.251 -0.19 -1.696 -1.349 -0.071 0.062 1.12 1.856 0.2 0.323 1.226 1.255 2.701 1.153" />
    <path class="write-flat-pen" transform="translate(-121.942,-2812.811)" fill="#FFFFFF" stroke-width="1.6" __comx="283.029" __comy="247.427" __timestamp="0x178ad1ad5af" d="M407.099 3051.44 l-1.703 -1.511 -1.083 -1.26 -1.415 -1.572 -0.057 0.035 0.803 1.975 0.891 1.614 1.948 1.472" />
    <path class="write-flat-pen" transform="translate(-121.942,-2812.811)" fill="#FFFFFF" stroke-width="1.6" __comx="275.013" __comy="247.427" __timestamp="0x178ad1ad622" d="M399.797 3043.573 l-0.927 -0.799 -0.186 -0.17 -1.398 -1.43 -1.496 -2.374 -0.194 -0.359 -0.38 -0.731 -1.066 -1.964 -0.039 0.015 0.553 2.162 0.204 0.805 0.142 0.459 1.464 2.639 1.667 1.423 0.256 0.166 1.066 0.625" />
    <path class="write-flat-pen" transform="translate(-121.942,-2812.811)" fill="#FFFFFF" stroke-width="1.6" __comx="256.278" __comy="199.092" __timestamp="0x178ad1ad757" d="M391.196 3029.526 l-1.239 -1.385 -0.252 -0.287 -1.4 -1.893 -2.568 -4.553 -0.241 -0.379 -1.479 -1.768 -4.94 -3.129 -0.328 -0.24 -1.64 -1.637 -2.837 -4.921 -1.702 -2.198 -2.26 -1.822 -0.305 -0.222 -1.56 -1.394 -0.978 -1.5 -0.821 -2.57 -0.123 -0.502 -0.25 -1.003 -0.114 -0.44 -0.157 -0.474 -0.709 -2.131 -0.047 0.01 0.192 2.238 0.04 0.48 0.022 0.438 0.074 1.042 0.069 0.573 0.711 2.847 1.181 1.798 1.817 1.458 0.351 0.216 2.287 1.558 1.634 2.032 2.709 5.081 1.82 1.76 0.423 0.291 4.986 2.887 1.317 1.679 0.186 0.329 2.41 4.708 1.552 1.938 0.317 0.308 1.408 1.232" />
    <path class="write-flat-pen" transform="translate(-121.942,-2812.811)" fill="#FFFFFF" stroke-width="1.6" __comx="236.882" __comy="176.384" __timestamp="0x178ad1ad7d9" d="M363.596 2993.299 l-0.814 -0.271 -0.299 -0.081 -1.053 -0.217 -0.333 -0.063 -1.515 -0.359 -0.329 -0.107 -1.186 -0.532 -0.933 -0.82 -1.461 -2.747 -0.113 -0.31 -0.323 -0.967 -0.092 -0.261 -0.185 -0.492 -0.844 -2.166 -0.062 0.013 0.13 2.322 0.039 0.527 0.03 0.287 0.166 1.036 0.101 0.453 1.475 3.198 1.36 1.114 1.505 0.545 0.471 0.1 1.637 0.154 0.369 0.005 1.058 -0.002 0.278 0.002 0.84 0.056" />
    <path class="write-flat-pen" transform="translate(-121.942,-2812.811)" fill="#FFFFFF" stroke-width="1.6" __comx="218.34" __comy="222.04" __timestamp="0x178ad1adacf" d="M340.681 3027.793 l-0.231 0.833 -0.039 0.268 -0.17 2.261 -0.028 0.691 -0.295 6.785 -0.503 4.118 0.894 -0.05 -0.055 -0.023 -0.063 -0.121 -0.261 -0.851 -0.069 -0.004 -0.35 0.819 -0.082 0.241 -0.004 0.171 0.894 -0.05 0.708 -4.153 0.122 -6.862 -0.011 -0.692 -0.036 -2.245 -0.004 -0.233 0.009 -0.842" />
    <path class="write-flat-pen" transform="translate(-121.942,-2812.811)" fill="#FFFFFF" stroke-width="1.6" __comx="222.534" __comy="222.04" __timestamp="0x178ad1adca7" d="M340.607 3028.887 l-0.708 -0.184 0.1 0.039 -0.017 -0.449 0.018 -0.001 0.758 -1.153 1.582 -1.324 1.883 -0.971 1.55 -0.381 0.907 0.109 0.429 0.334 0.256 0.786 -0.235 1.356 -1.185 2.26 -5.128 5.873 -0.442 1.401 1.208 0.901 2.854 0.707 3.306 1.762 2.111 0.787 0.062 -0.091 -1.535 -1.721 -3.434 -2.03 -2.778 -0.672 -0.236 -0.161 0.059 -0.233 5.018 -5.799 1.336 -2.576 0.317 -1.864 -0.483 -1.447 -1.01 -0.778 -1.479 -0.17 -1.911 0.488 -2.12 1.136 -1.769 1.602 -0.791 1.518 -0.064 0.375 0.348 0.88 0.289 0.158 0.888 -0.019" />
    <path class="write-flat-pen" transform="translate(-121.942,-2812.811)" fill="#FFFFFF" stroke-width="1.6" __comx="234.096" __comy="222.04" __timestamp="0x178ad1adda7" d="M353.445 3032.68 l0.422 -0.004 0.07 0.019 1.429 -0.004 0.275 -0.05 1.19 -0.33 1.941 -0.896 -0.025 -0.097 -2.121 0.133 -1.194 0.196 -0.207 0.045 -1.339 0.226 -0.143 0.029 -0.442 0.252" />
    <path class="write-flat-pen" transform="translate(-121.942,-2812.811)" fill="#FFFFFF" stroke-width="1.6" __comx="235.266" __comy="222.04" __timestamp="0x178ad1ade5c" d="M353.964 3036.179 l0.734 0.265 0.198 0.049 3.42 0.069 2.136 -0.548 -0.014 -0.123 -2.149 -0.07 -3.305 -0.189 -0.128 -0.006 -0.757 -0.061" />
    <path class="write-flat-pen" transform="translate(-121.942,-2812.811)" fill="#FFFFFF" stroke-width="1.6" __comx="245.405" __comy="222.04" __timestamp="0x178ad1ae002" d="M364.247 3032.201 l0.001 -0.499 0.022 0.003 0.351 -0.54 0.078 -0.078 1.44 -1.247 0.082 -0.053 0.775 -0.494 -0.413 -0.125 0.382 3.852 0.809 3.274 1.238 2.051 1.97 1.319 0.142 -0.126 -0.985 -1.998 -0.938 -1.813 -0.747 -2.976 -0.587 -4.56 -1.05 -0.382 -1.3 1.001 -0.148 0.113 -1.417 1.538 -0.151 0.257 -0.229 0.827 0.011 0.206 0.206 0.541" />
    <path class="write-flat-pen" transform="translate(-121.942,-2812.811)" fill="#FFFFFF" stroke-width="1.6" __comx="248.873" __comy="222.04" __timestamp="0x178ad1ae0cf" d="M365.096 3039.589 l0.593 0.69 0.334 0.149 3.005 0.52 0.708 0.048 3.226 -0.002 0.702 -0.076 0.652 -0.149 2.22 -0.498 -0.017 -0.221 -2.271 -0.144 -0.639 -0.047 -0.645 -0.042 -3.167 -0.182 -0.637 -0.034 -2.86 -0.273 -0.026 0.014 -0.564 -0.402" />
    <path class="write-flat-pen" transform="translate(-2.324,-3232.086)" fill="#FFFFFF" stroke-width="1.6" __comx="475.334" __comy="295.789" __timestamp="0x178ad1bb153" d="M475.333 3515.335 l-0.029 -0.392 0.018 -0.08 0.149 -1.021 0.052 -0.283 0.45 -2.496 0.059 -0.343 0.461 -2.245 0.648 -1.15 0.705 -0.412 0.058 0.028 -0.106 -0.227 -0.463 0.708 -1.047 0.737 -1.426 0.382 -0.751 -0.164 -0.046 -0.049 -0.099 0.233 1.393 -0.391 3.471 -0.168 0.576 0.184 0.061 0.103 -0.209 0.844 -1.304 1.61 -2.056 1.517 -1.501 0.608 -0.494 -0.045 0.002 0.003 0.151 -0.535 1.379 -1.448 2.315 -1.461 2.16 -0.803 0 0 0.554 0.086 0 0 -0.54 -1.238 -0.452 0.67 -1.344 0.784 0 0 -2.562 0.737 -0.565 -0.116 0 0 -0.006 1.569 2.787 -0.668 0.657 -0.097 0.73 -0.107 0.755 -0.125 0.767 -0.141 2.477 -0.451 -0.004 -0.069 -2.51 -0.197 -0.776 -0.062 -0.759 -0.053 -0.744 -0.044 -0.767 -0.014 -2.924 0.458 -0.006 1.569 0 0 0.951 0.195 3.132 -0.901 0 0 1.832 -1.068 0.657 -0.973 -0.54 -1.238 0 0 -0.966 -0.151 0 0 -2.708 1.006 -2.623 1.656 -1.79 1.879 -0.473 1.68 0.901 1.197 1.587 0.144 2.048 -0.83 2.382 -1.759 1.657 -2.045 0.451 -1.823 -0.702 -1.193 -1.434 -0.457 -3.94 0.191 -2.304 0.648 -0.618 1.449 1.123 1.156 1.602 0.345 2.072 -0.566 1.524 -1.096 0.99 -1.622 -0.521 -1.389 -1.511 -0.051 -1.363 0.913 -0.832 1.688 -0.367 2.487 -0.037 0.374 -0.176 2.55 -0.003 0.333 0.125 1.086 0.045 0.166 0.266 0.365" />
    <path class="write-flat-pen" transform="translate(-2.324,-3232.086)" fill="#FFFFFF" stroke-width="1.6" __comx="488.532" __comy="295.789" __timestamp="0x178ad1bb421" d="M491.839 3519.424 l0.162 -0.744 0.024 -0.103 -0.164 -0.867 -0.65 0.141 -1.25 1.084 -0.317 0.423 -1.787 3.211 -1.048 3.531 -0.386 3.639 0.254 2.549 1.081 2.554 2.624 1.808 0.657 0.181 1.191 0.08 0.616 -0.082 2.441 -0.341 0 -0.05 -2.44 -0.35 -0.54 -0.084 -0.986 -0.291 -0.361 -0.163 -1.99 -1.648 -0.792 -1.988 -0.21 -2.17 0.34 -3.349 0.929 -3.262 1.566 -3.06 0.181 -0.288 0.769 -0.989 -0.538 0.113 0.047 -0.265 0.013 -0.035 0.113 0.801" />
    <path class="write-flat-pen" transform="translate(-2.324,-3232.086)" fill="#FFFFFF" stroke-width="1.6" __comx="497.622" __comy="295.789" __timestamp="0x178ad1bb533" d="M498.353 3522.261 l-0.081 0.639 0.021 0.216 0.413 1.979 0.081 0.396 1.262 6.854 1.438 2.205 0.132 -0.051 -0.391 -2.487 -1.232 -6.775 -0.121 -0.441 -0.656 -1.903 -0.049 -0.113 -0.156 -0.558" />
    <path class="write-flat-pen" transform="translate(-2.324,-3232.086)" fill="#FFFFFF" stroke-width="1.6" __comx="505.943" __comy="295.789" __timestamp="0x178ad1bb640" d="M506.584 3529.767 l0.276 0.911 0.078 0.203 1.079 2.695 0.077 0.269 0.587 4.133 0.153 2.683 0.259 0.034 0.858 -2.72 -0.565 -4.418 -0.148 -0.448 -1.366 -2.681 -0.12 -0.182 -0.494 -0.784" />
    <path class="write-flat-pen" transform="translate(-2.324,-3232.086)" fill="#FFFFFF" stroke-width="1.6" __comx="516.676" __comy="295.789" __timestamp="0x178ad1bb7f7" d="M519.453 3528.723 l-0.104 -0.693 -0.003 -0.06 -0.366 -1.004 -0.455 -0.239 -1.462 0.106 -1.803 1.218 -1.271 1.786 -0.552 2.015 0.189 1.637 0.911 1.534 1.724 0.991 2.327 0.017 2.381 -0.964 1.893 -1.524 1.183 -1.737 0.515 -2.185 -0.352 -1.78 -1.068 -1.347 -1.426 -0.256 -0.279 0.132 -1.288 0.967 0.06 0.187 1.61 0.041 -0.07 0.065 0.474 0.256 0.493 0.642 0.211 1.064 -0.367 1.56 -0.882 1.296 -1.524 1.229 -1.869 0.76 -1.596 -0.005 -1.012 -0.57 -0.543 -0.886 -0.126 -1.008 0.39 -1.472 0.94 -1.371 1.253 -0.931 0.718 -0.163 -0.245 -0.135 0.335 0.38 0.006 -0.004 0.396 0.687" />
    <path class="write-flat-pen" transform="translate(-2.324,-3232.086)" fill="#FFFFFF" stroke-width="1.6" __comx="526.389" __comy="295.789" __timestamp="0x178ad1bb929" d="M531.358 3521.215 l-0.917 -0.537 -0.402 0.002 -1.1 0.834 -0.217 0.487 -0.323 2.239 1.775 8.185 0.241 3.079 -1.232 5.82 -0.27 0.712 -1.49 3.177 -0.38 0.731 -0.373 0.726 -1.228 2.366 0.124 0.081 1.673 -2.076 0.522 -0.645 0.498 -0.714 1.764 -3.128 0.379 -0.834 1.581 -6.092 -0.236 -3.438 -1.884 -8.034 0.121 -1.84 0.008 -0.074 0.456 -0.592 -0.176 -0.01 0.819 0.201" />
    <path class="write-stroke-pen" transform="translate(-2.324,-3232.086)" fill="none" stroke="#8F3AC9" stroke-width="2.5" stroke-linecap="round" stroke-linejoin="round" __comx="259.587" __comy="251.185" __timestamp="0x178ad1c4be9" d="M329.569 3512.768 l-135.314 -58.161" />
    <path class="write-flat-pen" transform="translate(-2.324,-3232.086)" fill="#8F3AC9" stroke-width="1.6" __comx="191.411" __comy="242.366" __timestamp="0x178ad1c5b74" d="M193.888 3457.191 l-0.584 0.227 -0.119 0.228 -0.117 2.678 1.235 1.81 0.1 -0.048 -0.546 -1.93 0.018 -2.351 -0.044 0.062 0.277 -0.345" />
    <path class="write-flat-pen" transform="translate(-2.324,-3232.086)" fill="#8F3AC9" stroke-width="1.6" __comx="193.04" __comy="242.366" __timestamp="0x178ad1c5c05" d="M195.816 3464.015 l-0.879 0.892 -0.111 0.182 -0.25 1.34 0.658 1.773 0.087 -0.017 -0.03 -1.757 0.219 -1.092 0.012 -0.041 0.63 -1.014" />
    <path class="write-flat-pen" transform="translate(-2.324,-3232.086)" fill="#8F3AC9" stroke-width="1.6" __comx="194.052" __comy="242.366" __timestamp="0x178ad1c5c95" d="M197.397 3470.919 l-1.786 2.609 -0.097 0.192 -0.304 0.867 -0.15 2.197 0.101 0.019 0.644 -2.055 0.29 -0.786 0.06 -0.136 1.536 -2.724" />
    <path class="write-flat-pen" transform="translate(-2.324,-3232.086)" fill="#8F3AC9" stroke-width="1.6" __comx="194.353" __comy="242.366" __timestamp="0x178ad1c5d2f" d="M197.874 3478.544 l-1.414 2.105 -0.187 0.256 -0.962 1.655 -0.083 1.929 0.112 0.021 0.592 -1.724 0.852 -1.568 0.158 -0.266 1.184 -2.257" />
    <path class="write-flat-pen" transform="translate(-2.324,-3232.086)" fill="#8F3AC9" stroke-width="1.6" __comx="193.696" __comy="242.366" __timestamp="0x178ad1c5da6" d="M196.779 3488.887 l-1.348 2.216 -0.558 2.178 0.073 0.026 0.926 -1.996 1.295 -2.191" />
    <path class="write-flat-pen" transform="translate(-2.324,-3232.086)" fill="#8F3AC9" stroke-width="1.6" __comx="194.578" __comy="281.035" __timestamp="0x178ad1c5ec2" d="M197.963 3495.556 l-1.815 2.16 -0.099 0.222 -0.554 1.924 0.089 4.913 0.407 2.795 0.048 -0.003 0.073 -2.806 0.14 -4.793 0.479 -1.789 0.04 -0.099 1.541 -2.259" />
    <path class="write-flat-pen" transform="translate(-2.324,-3232.086)" fill="#8F3AC9" stroke-width="1.6" __comx="192.886" __comy="281.035" __timestamp="0x178ad1c6252" d="M197.165 3505.441 l-0.15 -0.882 -0.043 -0.095 -0.336 -0.714 -0.232 -0.293 -0.971 0.079 -0.195 0.475 -1.412 6.217 -0.096 0.42 0 0 -0.475 3.523 0 0 1.509 0.236 0.769 -3.926 0 0 0.691 -9.613 0 0 -0.393 -0.85 0 0 -1.495 0.128 -0.552 2.03 0 0 -0.384 5.403 0.235 2.919 0 0 1.588 0.057 0.724 -5.046 -0.089 -2.696 -0.196 -0.042 -1.191 2.467 -0.829 5.074 1.588 0.057 0 0 -0.226 -2.798 0.363 -5.127 0 0 0.509 -1.88 -1.495 0.128 0 0 0.223 0.474 0 0 -0.642 9.112 0 0 -0.701 3.846 1.509 0.236 0 0 0.393 -3.465 0 0 0.077 -0.366 1.126 -6.196 -0.086 0.179 -0.196 -0.09 -0.113 -0.157 0.504 0.515 0.021 0.014 0.383 0.741" />
    <path class="write-flat-pen" transform="translate(-2.324,-3232.086)" fill="#8F3AC9" stroke-width="1.6" __comx="195.754" __comy="281.035" __timestamp="0x178ad1c6434" d="M193.528 3516.157 l-0.628 0.885 0.096 0.45 1.564 2.752 0.356 0.423 5.818 5.647 2.391 1.522 0.132 -0.145 -1.726 -2.217 -5.656 -5.708 -0.273 -0.296 -1.66 -2.386 0 0.081 0.204 -0.679" />
    <path class="write-flat-pen" transform="translate(-2.324,-3232.086)" fill="#8F3AC9" stroke-width="1.6" __comx="196.204" __comy="281.035" __timestamp="0x178ad1c650b" d="M196.008 3528.872 l0.13 -1.052 0.117 -0.268 1.231 -2.594 0.299 -0.566 3.136 -7.001 0.061 -0.174 1.023 -2.572 -0.155 -0.095 -1.831 2.076 -0.163 0.192 -3.373 6.943 -0.29 0.602 -1.038 2.801 -0.106 0.495 0.098 1.203" />
    <path class="write-flat-pen" transform="translate(-2.324,-3232.086)" fill="#D534A9" stroke-width="1.6" __comx="190.465" __comy="220.125" __timestamp="0x178ad1c7fa3" d="M195.32 3454.272 l0.201 -0.591 -0.302 0.315 0.019 0.217 -0.02 -0.022 0.071 0.74 -0.309 0.442 -0.605 0.24 -0.908 -0.101 -0.321 -0.286 -0.136 -0.987 0.437 -1.586 0.625 -0.885 0.2 -0.075 0.258 0.153 0.548 1.279 0.116 1.608 -0.415 1.558 -0.308 0.313 -0.467 0.063 -0.683 -0.416 -0.774 -1.291 -0.189 -1.368 0.308 -1.018 0.606 -0.601 0.988 -0.281 0.712 0.128 0.563 0.49 0.243 0.669 -0.178 0.955 -0.648 0.955 -1.111 0.678 -0.91 0.109 -0.763 -0.274 -0.575 -0.68 -0.29 -1.156 0.178 -1.223 0.649 -1.094 0.93 -0.635 1.011 -0.204 0.809 0.209 0.533 0.583 0.125 0.942 -0.404 1.447 -0.805 1.147 -0.912 0.568 -0.817 0.021 -0.823 -0.505 -0.678 -1.058 -0.207 -1.27 0.273 -1.026 0.666 -0.768 0.743 -0.255 0.552 0.148 0.345 0.425 0.167 0.955 -0.45 1.752 -0.875 1.333 -0.989 0.694 -0.645 0.087 -0.588 -0.271 -0.154 -0.333 0.597 -1.368 0.168 -0.241 0.281 -0.351 1.527 -1.848 -0.121 -0.145 -2.097 1.161 -0.424 0.235 -0.451 0.337 -1.263 2.177 0.734 1.583 1.544 0.712 1.492 -0.201 1.559 -1.094 1.189 -1.812 0.602 -2.343 -0.298 -1.704 -0.935 -1.15 -1.524 -0.409 -1.612 0.553 -1.19 1.373 -0.456 1.714 0.316 1.935 1.055 1.646 1.54 0.944 1.726 -0.044 1.558 -0.971 1.15 -1.638 0.566 -2.027 -0.234 -1.765 -1.192 -1.305 -1.625 -0.42 -1.69 0.341 -1.49 1.018 -0.992 1.671 -0.27 1.85 0.458 1.823 1.092 1.291 1.523 0.548 1.632 -0.196 1.703 -1.04 1.031 -1.517 0.319 -1.713 -0.534 -1.468 -1.208 -1.051 -1.511 -0.271 -1.74 0.495 -1.186 1.176 -0.527 1.742 0.282 2.039 1.145 1.909 1.505 0.916 1.57 -0.214 0.987 -1.005 0.588 -2.223 -0.149 -2.142 -0.863 -2.009 -1.377 -0.803 -1.365 0.532 -1.053 1.515 -0.569 2.186 0.34 1.884 1.166 0.877 1.708 0.066 1.25 -0.635 0.634 -1.211 -0.283 -1.241 -0.111 -0.255 -0.869 -0.72 -0.402 0.406 0.003 0.878" />
    <path class="write-flat-pen" transform="translate(-2.324,-3232.086)" fill="#8F3AC9" stroke-width="1.6" __comx="323.476" __comy="252.605" __timestamp="0x178ad1dcf04" d="M294.176 3497.567 l-0.953 0.429 0.626 0.216 0.024 0.007 0.218 -1.563 0.016 -0.158 0.573 -3.562 1.803 -4.127 2.771 -3.647 4.46 -4.245 9.761 -6.379 3.735 -1.641 9.706 -2.527 4.389 -0.291 4.101 0.592 8.906 4.048 3.025 2.212 3.643 4.05 2.029 3.703 2.437 6.989 1.728 7.777 -0.016 2.543 -1.77 4.904 -1.315 4.061 0.123 0.059 2.349 -3.614 2.211 -5.098 0.019 -3.025 -1.788 -8.045 -2.512 -7.203 -2.182 -3.983 -3.879 -4.312 -3.292 -2.407 -9.264 -4.21 -4.493 -0.648 -4.708 0.312 -9.976 2.597 -3.973 1.746 -9.993 6.534 -4.653 4.441 -2.947 3.917 -1.89 4.521 -0.405 3.854 0.003 0.238 0.196 1.704 0.051 0.099 0.626 0.216 0.7 -0.776" />
    <path class="write-flat-pen" transform="translate(-2.324,-3232.086)" fill="#8F3AC9" stroke-width="1.6" __comx="342.783" __comy="243.667" __timestamp="0x178ad1dd08c" d="M337.856 3483.119 l0.221 0.479 0.322 -0.147 0.195 -0.217 2.644 -3.682 0.618 -0.843 7.995 -9.302 2.759 -3.27 -0.161 -0.17 -3.455 2.614 -8.299 9.211 -0.65 0.952 -2.3 3.936 -0.139 0.292 0.029 0.382 0.578 0.122" />
    <path class="write-flat-pen" transform="translate(-2.324,-3232.086)" fill="#8F3AC9" stroke-width="1.6" __comx="364.823" __comy="222.547" __timestamp="0x178ad1dd36f" d="M366.007 3455.025 l-0.026 -0.897 -0.008 -0.215 -0.578 -1.516 -0.535 -0.237 -2.142 0.55 -2.442 2.982 -1.928 4.597 -1.176 5.872 0.16 3.945 1.226 2.661 1.986 1.614 2.727 0.76 3.206 -0.329 3.985 -1.779 3.275 -2.808 2.299 -3.549 1.089 -3.967 -0.212 -3.831 -1.872 -4.126 -2.573 -3.047 -3.329 -2.481 -2.916 -0.953 -2.168 0.413 -1.927 1.523 -1.608 2.957 -0.501 2.778 0.737 4.052 2.051 3.445 2.901 2.67 3.743 1.682 4.05 0.99 0.086 -0.234 -3.667 -1.831 -3.297 -1.918 -2.559 -2.377 -1.784 -2.998 -0.633 -3.483 0.404 -2.239 1.328 -2.442 1.363 -1.077 1.378 -0.262 2.276 0.743 2.971 2.214 2.311 2.737 1.656 3.651 0.181 3.271 -0.955 3.477 -2.038 3.147 -2.922 2.506 -3.538 1.579 -2.65 0.272 -2.115 -0.589 -1.44 -1.169 -0.94 -2.036 -0.143 -3.439 1.091 -5.539 1.736 -4.281 1.938 -2.576 1.284 -0.545 -0.185 -0.099 0.697 0.886 0.051 0.126 0.425 0.82" />
    <path class="write-stroke-pen" transform="translate(-2.324,-3232.086)" fill="none" stroke="#FFFFFF" stroke-width="1.6" stroke-linecap="round" stroke-linejoin="round" __comx="417.712" __comy="213.905" __timestamp="0x178ad1f2dee" d="M421.166 3440.08 l-2.259 -2.642" />
    <path class="write-stroke-pen" transform="translate(-2.324,-3232.086)" fill="none" stroke="#FFFFFF" stroke-width="1.6" stroke-linecap="round" stroke-linejoin="round" __comx="418.363" __comy="213.905" __timestamp="0x178ad1f2e80" d="M419.022 3436.596 l3.331 4.211" />
    <path class="write-stroke-pen" fill="none" stroke="#FFFFFF" stroke-width="1.6" stroke-linecap="round" stroke-linejoin="round" __comx="390.442" __comy="581.586" __timestamp="0x178ad213f9c" d="M388.355 515.436 l4.173 398.501" />
    <path class="write-stroke-pen" fill="none" stroke="#FFFFFF" stroke-width="1.6" stroke-linecap="round" stroke-linejoin="round" __comx="430.048" __comy="751.785" __timestamp="0x178ad2145b7" d="M133.952 752.454 l592.192 -0.804" />
    <circle transform="translate(256.767,597.255)" fill="none" stroke="#FFFFFF" stroke-width="1.4" __timestamp="0x178ad214e83" cx="132.914" cy="132.914" r="141.591" />
    <path class="write-flat-pen" fill="#FFFFFF" stroke-width="1.6" __comx="387.923" __comy="515.639" __timestamp="0x178ad21719f" d="M390.725 514.916 l-0.434 -1.785 -0.66 -0.252 -0.268 0.121 -9.606 9.926 -0.753 0.662 -3.983 2.948 -1.421 0.46 0.091 0.111 0.784 -2.074 3.065 -4.157 6.058 -6.139 2.809 -2.001 1.057 -0.001 1.425 1.115 5.281 10.557 2.84 4.128 2.924 2.325 3.808 2.025 0.149 -0.217 -3.2 -2.783 -2.488 -2.41 -2.65 -3.883 -5.395 -10.779 -2.143 -1.674 -2.116 0.003 -3.336 2.376 -6.238 6.318 -3.256 4.436 -1.112 3.029 1.017 1.526 2.75 -0.971 4.175 -3.179 0.834 -0.752 9.234 -10.144 0.109 -0.082 -0.66 -0.252 0.806 1.651" />
    <path class="write-flat-pen" fill="#FFFFFF" stroke-width="1.6" __comx="337.825" __comy="511.587" __timestamp="0x178ad21739a" d="M333.423 510.135 l-0.535 -0.03 0.797 1.658 0.306 0.592 3.07 5.841 2.111 2.079 3.495 1.787 0.093 -0.141 -2.938 -2.431 -1.821 -1.983 -3.155 -5.621 -0.359 -0.598 -1.168 -1.454 -0.382 0.455" />
    <path class="write-flat-pen" fill="#FFFFFF" stroke-width="1.6" __comx="341.452" __comy="512.59" __timestamp="0x178ad21748e" d="M348.789 507.391 l-1.38 2.108 -0.372 0.704 -11.587 20.041 -0.424 0.782 -1.316 3.573 0.25 2.09 0.264 0.027 0.646 -1.835 1.386 -3.284 0.373 -0.702 11.222 -20.264 0.325 -0.736 1.016 -2.282" />
    <path class="write-flat-pen" fill="#FFFFFF" stroke-width="1.6" __comx="339.288" __comy="498.322" __timestamp="0x178ad21764e" d="M327.589 505.192 l1.42 -1.072 0.279 -0.232 4.728 -4.299 0.576 -0.554 0 0 7.406 -8.516 -1.325 -0.261 2.694 8.265 3.7 6.024 0.764 0.564 3.318 2.406 0.153 -0.168 -2.703 -3.081 -0.484 -0.573 -3.284 -5.836 -2.686 -8.087 -1.325 -0.261 -7.221 8.6 0 0 -0.514 0.526 -4.43 4.591 -0.242 0.265 -1.141 1.365" />
    <path class="write-flat-pen" fill="#FFFFFF" stroke-width="1.6" __comx="726.508" __comy="742.669" __timestamp="0x178ad217a73" d="M726.655 750.42 l-1.483 -1.789 -0.095 -0.21 -2.799 -7.031 -4.038 -6.699 -0.884 -2.511 0.024 -0.066 0.44 0.058 18.485 15.025 0 0 -0.034 -1.212 -6.258 5.703 -4.429 5.106 -1.985 3.661 0.517 1.624 1.745 2.02 0.25 -0.145 -0.786 -2.347 -0.047 -0.916 1.629 -2.98 4.254 -4.904 6.188 -5.64 -0.034 -1.212 0 0 -18.838 -15.309 -2.175 -0.284 -0.637 1.819 1.13 3.194 4.106 6.719 3.09 6.864 0.244 0.384 1.883 1.608" />
    <path class="write-flat-pen" fill="#FFFFFF" stroke-width="1.6" __comx="767.206" __comy="776.583" __timestamp="0x178ad217c8c" d="M757.777 775.24 l0.145 -1.638 -0.846 0.303 2.257 2.982 0.501 0.831 5.005 7.361 8.778 8.526 3.73 2.269 0.105 -0.136 -3.097 -2.972 -8.343 -8.661 -4.994 -7.163 -0.563 -0.875 -2.646 -2.785 -0.846 0.303 0.086 1.642" />
    <path class="write-flat-pen" fill="#FFFFFF" stroke-width="1.6" __comx="767.027" __comy="784.073" __timestamp="0x178ad217d5d" d="M758.752 793.029 l1.403 -2.802 0.515 -0.519 12.044 -10.56 0.723 -0.793 2.778 -3.041 -0.105 -0.113 -3.245 2.538 -0.831 0.647 -12.353 10.285 -0.713 0.783 -1.129 3.19" />
    <path class="write-flat-pen" fill="#FFFFFF" stroke-width="1.6" __comx="769.502" __comy="764.995" __timestamp="0x178ad217f3e" d="M758.593 772.532 l1.753 -2.775 0.334 -0.442 5.521 -7.744 2.013 -1.928 1.549 -0.606 1.59 0.105 1.73 1.106 2.073 2.933 3.46 7.884 2.276 3.689 0.286 -0.136 -1.405 -4.068 -3.208 -8.148 -2.359 -3.332 -2.342 -1.491 -2.353 -0.148 -2.167 0.859 -2.331 2.269 -5.423 7.989 -0.349 0.518 -1.417 3.047" />
    <path class="write-flat-pen" fill="#D534A9" stroke-width="1.6" __comx="519.699" __comy="668.508" __timestamp="0x178ad21e2ea" d="M522.185 670.261 l-0.21 -0.225 -0.196 -0.406 -0.725 0.48 -0.152 -0.302 -0.26 0.034 0.013 -0.017 -6.045 -0.247 0.104 0.017 -0.529 -0.301 0.029 0.073 0.634 -0.643 2.248 -0.805 2.308 -0.244 1.109 0.272 0.679 0.669 0.21 0.809 -0.254 0.972 -0.844 0.997 -1.332 0.705 -1.553 0.25 -1.025 -0.224 -0.361 -0.335 -0.026 -0.184 0.277 -0.377 1.552 -0.646 3.121 -0.373 2.081 0.211 0.629 0.376 0.243 0.568 -0.199 0.903 -0.819 1.181 -1.266 0.928 -1.653 0.544 -1.408 0 -1.783 -0.581 -1.151 -0.866 -0.624 -1.058 -0.039 -1.605 0.482 -1.171 1.346 -1.352 1.885 -0.885 2.477 -0.452 1.837 0.187 0.962 0.52 0.212 0.412 -0.098 0.786 -0.945 1.557 -1.682 1.516 -1.887 1.015 -1.839 0.442 -1.685 -0.202 -1.174 -0.588 -0.676 -0.881 -0.012 -0.802 0.432 -0.695 1.017 -0.677 2.845 -0.62 3.295 0.026 1.444 0.387 0.609 0.535 0.103 0.717 -0.579 1.211 -1.293 1.333 -1.581 0.886 -1.925 0.436 -1.744 -0.224 -1.118 -0.582 -0.564 -0.779 -0.088 -0.864 0.474 -1.208 1.213 -1.286 2.353 -1.335 2.559 -0.755 2.813 -0.171 0.73 0.26 0.499 0.608 0.069 0.803 -0.46 1.302 -1.895 2.53 -1.863 1.595 -1.966 0.939 -1.873 0.294 -1.436 -0.261 -1.264 -0.706 -1.049 -1.232 -0.38 -1.454 0.203 -1.158 0.754 -1.217 1.374 -0.979 1.912 -0.631 4.23 -0.427 3.004 0.204 0.554 0.286 0.189 0.408 -0.168 0.533 -1.022 1.044 -1.936 0.899 -3.005 0.573 -2.973 -0.145 -1.419 -0.477 -0.083 -0.123 0.131 -0.53 1.289 -1.175 3.895 -1.942 2.848 -0.823 1.186 0.026 0.341 0.25 0.23 0.674 -0.66 2.897 -0.184 0.5 -0.433 1.152 -0.216 0.55 -0.228 0.557 -1.008 2.432 0.066 0.038 1.606 -2.086 0.378 -0.491 0.352 -0.521 0.645 -1.091 0.305 -0.586 1.011 -3.394 -0.5 -1.607 -1.158 -0.864 -1.941 -0.043 -3.223 0.931 -4.224 2.106 -1.812 1.652 -0.42 1.691 0.784 1.162 2.143 0.72 3.385 0.165 3.387 -0.646 2.381 -1.105 1.494 -1.527 0.468 -1.489 -0.679 -1.467 -1.336 -0.69 -3.469 -0.235 -4.539 0.458 -2.309 0.761 -1.833 1.307 -1.087 1.752 -0.316 1.806 0.561 2.145 1.472 1.73 1.747 0.976 1.964 0.357 2.372 -0.372 2.367 -1.13 2.158 -1.847 2.148 -2.868 0.656 -1.858 -0.141 -1.642 -1.096 -1.335 -1.456 -0.519 -3.321 0.202 -2.91 0.859 -2.722 1.545 -1.591 1.686 -0.729 1.857 0.171 1.678 1.038 1.433 1.706 0.888 2.307 0.297 2.428 -0.55 1.987 -1.114 1.638 -1.689 0.901 -1.884 -0.255 -1.782 -1.335 -1.171 -2.002 -0.536 -3.678 -0.029 -3.314 0.722 -1.557 1.036 -0.864 1.389 0.028 1.802 1.222 1.593 1.753 0.878 2.247 0.269 2.32 -0.557 2.239 -1.205 2 -1.802 1.244 -2.05 0.201 -1.616 -0.664 -1.292 -1.679 -0.907 -2.38 -0.242 -2.905 0.53 -2.329 1.093 -1.77 1.778 -0.731 1.776 0.057 2.357 0.996 1.691 1.618 1.217 2.278 0.742 1.918 -0.001 2.138 -0.703 1.687 -1.237 1.152 -1.661 0.377 -1.713 -0.65 -1.518 -1.381 -0.824 -2.61 -0.265 -3.516 0.42 -2.168 0.902 -0.927 1.26 0.195 1.392 1.097 1.02 1.749 0.382 2.113 -0.341 1.838 -0.973 1.277 -1.511 0.449 -1.727 -0.43 -1.638 -1.308 -1.278 -1.802 -0.439 -2.771 0.3 -2.77 1.002 -1.446 1.52 0.324 1.42 1.379 0.708 0.242 0.041 6.317 -0.027 0.388 -0.105 0.846 -0.854 -0.164 -0.328 -0.725 0.48 0.387 0.231 0.214 0.229" />
    <path class="write-flat-pen" fill="#D534A9" stroke-width="1.6" __comx="519.102" __comy="669.564" __timestamp="0x178ad21e892" d="M521.082 670.694 l-1.225 -0.343 -0.952 -0.941 -1.744 -1.281 -0.039 0.038 1.25 1.779 1.128 1.072 1.458 0.242" />
    <path class="write-flat-pen" fill="#D534A9" stroke-width="1.6" __comx="512.539" __comy="666.681" __timestamp="0x178ad21e92a" d="M515.388 666.756 l-1.333 -0.426 -0.232 -0.027 -1.735 0.216 -2.399 0.711 0.049 0.287 2.477 -0.121 1.63 -0.181 0.084 -0.004 1.327 0.155" />
    <path class="write-flat-pen" fill="#D534A9" stroke-width="1.6" __comx="494.333" __comy="665.23" __timestamp="0x178ad21e9ca" d="M497.224 665.574 l-3.352 -0.697 -2.418 -0.096 -0.013 0.074 2.293 0.718 3.312 0.794" />
    <path class="write-flat-pen" fill="#D534A9" stroke-width="1.6" __comx="469.431" __comy="666.328" __timestamp="0x178ad21eada" d="M481.788 666.204 l-1.232 -0.149 -0.315 -0.015 -6.998 0.839 -13.258 -0.109 -2.897 -0.008 -0.012 0.123 2.872 0.571 13.337 0.168 7.006 -0.842 0.264 -0.022 1.226 -0.101" />
    <path class="write-flat-pen" fill="#D534A9" stroke-width="1.6" __comx="440.905" __comy="667.725" __timestamp="0x178ad21eb94" d="M444.624 668.784 l-2.174 -0.234 -2.845 -1.316 -2.402 -0.874 -0.016 0.031 2.092 1.473 2.908 1.622 2.377 0.103" />
    <path class="write-flat-pen" fill="#D534A9" stroke-width="1.6" __comx="428.743" __comy="665.95" __timestamp="0x178ad21ec01" d="M433.76 665.72 l-1.29 -0.046 -0.347 0.018 -2.502 0.367 -0.348 0.059 -2.84 0.509 -2.723 0.685 0.017 0.142 2.829 0.005 2.88 -0.483 0.355 -0.086 2.424 -0.637 0.302 -0.065 1.258 -0.197" />
    <path class="write-flat-pen" fill="#D534A9" stroke-width="1.6" __comx="413.908" __comy="667.94" __timestamp="0x178ad21ec8a" d="M415.839 667.784 l-1.901 0.14 -2.012 0.388 0.002 0.057 2.047 0.265 1.916 -0.138" />
    <path class="write-flat-pen" fill="#D534A9" stroke-width="1.6" __comx="396.549" __comy="667.284" __timestamp="0x178ad21efb5" d="M410.044 668.552 l-1.234 0.238 -0.112 0.024 -1.598 0.279 -10.004 -0.264 -1.666 -0.504 -3.959 -2.411 -0.277 -0.081 0 0 -1.375 -0.062 0 0 -0.112 0.945 2.719 0.805 0 0 3.947 0.332 0 0 1.246 -0.291 0 0 -0.106 -1.242 -3.534 -0.306 -6.546 0.317 0 0 -3.559 0.729 0 0 -0.893 0.595 0 0 0.274 1.254 2.779 0.496 5.195 0.092 3.663 -0.451 1.2 -0.998 -1.052 -1.431 -2.637 -0.789 -2.795 -0.124 -1.346 1.672 0.046 0.506 0.087 0.217 0.735 1.652 0.172 -0.025 0.241 -1.791 0.034 -0.148 0.043 0.105 0.667 -0.567 1.851 0.085 1.953 0.571 -0.116 -0.176 0.275 -0.217 -3.107 0.43 -4.979 -0.034 -2.675 -0.437 0.274 1.254 0 0 0.654 -0.461 0 0 3.189 -0.658 0 0 6.357 -0.329 3.456 0.229 -0.106 -1.242 0 0 -1.042 0.286 0 0 -3.65 -0.252 0 0 -2.67 -0.585 -0.112 0.945 0 0 1.263 -0.107 0 0 0.077 0.013 4.05 2.152 1.776 0.602 10.139 0.238 1.682 -0.291 0.139 -0.05 1.16 -0.49" />
    <path class="write-flat-pen" fill="#D534A9" stroke-width="1.6" __comx="369.909" __comy="665.122" __timestamp="0x178ad21f165" d="M365.598 664.295 l0.339 0.422 0.097 0.153 1.363 1.837 0.32 0.401 3.974 4.125 2.441 1.439 0.087 -0.11 -1.9 -2.014 -3.818 -4.142 -0.323 -0.359 -1.575 -1.667 -0.191 -0.176 -0.555 -0.254" />
    <path class="write-flat-pen" fill="#D534A9" stroke-width="1.6" __comx="373.04" __comy="665.942" __timestamp="0x178ad21f266" d="M377.788 662.375 l-0.475 1.228 -0.114 0.38 -2.129 5.968 -0.365 0.843 -6.446 12.303 -0.072 0.421 -0.433 2.718 0.123 0.036 1.104 -2.521 0.14 -0.301 6.635 -12.153 0.391 -0.939 1.895 -6.134 0.076 -0.415 0.212 -1.286" />
  </g>
</svg>
