<svg class="write-page" width="1010px" height="1628px" xmlns="http://www.w3.org/2000/svg" xmlns:xlink="http://www.w3.org/1999/xlink">
  <g class="write-content write-v3" width="1010" height="1628" xruling="30" yruling="30" marginLeft="30" papercolor="#1B1C1C" rulecolor="#3A00F9FF">
    <g class="ruleline write-std-ruling write-scale-down" fill="none" stroke="#00F9FF" stroke-opacity="0.227" stroke-width="1" shape-rendering="crispEdges" vector-effect="non-scaling-stroke">
      <rect class="pagerect" fill="#1B1C1C" stroke="none" x="0" y="0" width="1010" height="1628" />
      <path class="yrule_1" d="M0 30 l1010 0" />
      <path d="M0 60 l1010 0" />
      <path d="M0 90 l1010 0" />
      <path d="M0 120 l1010 0" />
      <path d="M0 150 l1010 0" />
      <path d="M0 180 l1010 0" />
      <path d="M0 210 l1010 0" />
      <path d="M0 240 l1010 0" />
      <path d="M0 270 l1010 0" />
      <path d="M0 300 l1010 0" />
      <path d="M0 330 l1010 0" />
      <path d="M0 360 l1010 0" />
      <path d="M0 390 l1010 0" />
      <path d="M0 420 l1010 0" />
      <path d="M0 450 l1010 0" />
      <path d="M0 480 l1010 0" />
      <path d="M0 510 l1010 0" />
      <path d="M0 540 l1010 0" />
      <path d="M0 570 l1010 0" />
      <path d="M0 600 l1010 0" />
      <path d="M0 630 l1010 0" />
      <path d="M0 660 l1010 0" />
      <path d="M0 690 l1010 0" />
      <path d="M0 720 l1010 0" />
      <path d="M0 750 l1010 0" />
      <path d="M0 780 l1010 0" />
      <path d="M0 810 l1010 0" />
      <path d="M0 840 l1010 0" />
      <path d="M0 870 l1010 0" />
      <path d="M0 900 l1010 0" />
      <path d="M0 930 l1010 0" />
      <path d="M0 960 l1010 0" />
      <path d="M0 990 l1010 0" />
      <path d="M0 1020 l1010 0" />
      <path d="M0 1050 l1010 0" />
      <path d="M0 1080 l1010 0" />
      <path d="M0 1110 l1010 0" />
      <path d="M0 1140 l1010 0" />
      <path d="M0 1170 l1010 0" />
      <path d="M0 1200 l1010 0" />
      <path d="M0 1230 l1010 0" />
      <path d="M0 1260 l1010 0" />
      <path d="M0 1290 l1010 0" />
      <path d="M0 1320 l1010 0" />
      <path d="M0 1350 l1010 0" />
      <path d="M0 1380 l1010 0" />
      <path d="M0 1410 l1010 0" />
      <path d="M0 1440 l1010 0" />
      <path d="M0 1470 l1010 0" />
      <path d="M0 1500 l1010 0" />
      <path d="M0 1530 l1010 0" />
      <path d="M0 1560 l1010 0" />
      <path d="M0 1590 l1010 0" />
      <path d="M0 1620 l1010 0" />
      <path class="xrule_1" d="M30 0 l0 1628" />
      <path d="M60 0 l0 1628" />
      <path d="M90 0 l0 1628" />
      <path d="M120 0 l0 1628" />
      <path d="M150 0 l0 1628" />
      <path d="M180 0 l0 1628" />
      <path d="M210 0 l0 1628" />
      <path d="M240 0 l0 1628" />
      <path d="M270 0 l0 1628" />
      <path d="M300 0 l0 1628" />
      <path d="M330 0 l0 1628" />
      <path d="M360 0 l0 1628" />
      <path d="M390 0 l0 1628" />
      <path d="M420 0 l0 1628" />
      <path d="M450 0 l0 1628" />
      <path d="M480 0 l0 1628" />
      <path d="M510 0 l0 1628" />
      <path d="M540 0 l0 1628" />
      <path d="M570 0 l0 1628" />
      <path d="M600 0 l0 1628" />
      <path d="M630 0 l0 1628" />
      <path d="M660 0 l0 1628" />
      <path d="M690 0 l0 1628" />
      <path d="M720 0 l0 1628" />
      <path d="M750 0 l0 1628" />
      <path d="M780 0 l0 1628" />
      <path d="M810 0 l0 1628" />
      <path d="M840 0 l0 1628" />
      <path d="M870 0 l0 1628" />
      <path d="M900 0 l0 1628" />
      <path d="M930 0 l0 1628" />
      <path d="M960 0 l0 1628" />
      <path d="M990 0 l0 1628" />
      <path class="leftmargin" stroke="#FF0000" d="M30 0 l0 1628" />
    </g>
    <path class="write-flat-pen" fill="#FFFFFF" stroke-width="1.6" __comx="90.97" __comy="49.207" __timestamp="0x178c6a02a10" d="M77.233 35.991 l-0.519 -1.126 -0.027 -0.134 -0.128 -1.112 -0.965 -0.255 -0.196 0.167 -0.688 5.734 -0.07 1.091 -0.28 7.435 0.576 4.256 1.171 2.819 1.895 2.232 3.217 1.44 2.125 0.15 2.868 -0.804 2.917 -1.839 3.149 -3.112 2.22 -3.53 1.478 -3.754 0.029 -2.143 -1.441 -1.149 -1.541 1.601 -0.702 2.753 0.031 3.173 1.041 3.425 1.456 2.159 1.985 1.277 2.125 0.097 2.347 -0.985 2.919 -2.757 1.816 -3.019 1.065 -3.505 0.474 -4.427 -0.436 -4.442 -1.03 -3.233 -1.665 -2.548 -1.432 -0.841 -1.767 0.41 -1.08 2.414 -0.017 0.741 0.049 0.589 0.229 2.821 0.193 0.011 0.548 -2.777 0.114 -0.551 0.115 -0.465 0.898 -1.42 0.45 -0.076 0.567 0.333 1.341 2.052 0.913 2.865 0.404 4.11 -0.441 4.114 -0.963 3.171 -1.601 2.661 -2.548 2.407 -1.747 0.733 -1.335 -0.061 -1.346 -0.866 -1.137 -1.687 -0.904 -2.975 -0.027 -2.734 0.546 -2.141 0.237 -0.246 -0.311 -0.248 -0.014 1.067 -1.316 3.343 -2.042 3.247 -2.894 2.86 -2.572 1.622 -2.377 0.666 -1.565 -0.11 -2.628 -1.175 -1.499 -1.764 -0.996 -2.396 -0.534 -3.915 0.228 -7.285 0.05 -1.049 0.314 -5.321 -0.131 0.099 -0.965 -0.255 0.43 1.082 0.112 0.242 0.853 1.014" />
    <path class="write-flat-pen" fill="#FFFFFF" stroke-width="1.6" __comx="119.869" __comy="49.207" __timestamp="0x178c6a02c2b" d="M120.959 51.038 l0.047 -2.268 -0.007 -0.266 -0.473 -2.089 -1.501 -1.435 -1.623 -0.35 -1.55 0.54 -1.409 1.823 -0.866 3.156 0.134 2.632 0.879 2.478 1.322 1.449 1.531 0.431 1.772 -0.448 1.88 -1.607 1.09 -2.138 0.511 -3.067 -0.481 -1.475 -1.349 -0.121 -0.507 2.328 0.521 3.006 1.161 1.97 1.569 0.691 2.536 0.163 0.011 -0.052 -2.272 -0.865 -1.08 -0.722 -0.851 -1.569 -0.448 -2.597 0.246 -1.149 -0.368 -0.035 0.172 0.515 -0.438 2.629 -0.909 1.792 -1.518 1.296 -1.237 0.315 -0.949 -0.262 -0.973 -1.049 -0.768 -2.121 -0.143 -2.311 0.723 -2.82 1.092 -1.461 1.03 -0.382 1.135 0.209 1.205 1.044 0.543 1.763 0.025 0.198 0.285 2.245" />
    <path class="write-flat-pen" fill="#FFFFFF" stroke-width="1.6" __comx="131.442" __comy="49.207" __timestamp="0x178c6a02d7b" d="M126.73 44.9 l-0.049 1.11 0.079 0.391 2.728 8.001 1.414 2.264 1.738 0.403 1.501 -1.304 1.391 -3.425 0.672 -4.666 -0.611 -5.992 -0.212 -0.332 -0.187 -0.107 -0.887 -0.339 -0.101 0.086 0.2 0.928 -0.027 0.08 -0.048 0.017 0.29 5.606 -0.621 4.305 -1.166 2.912 -0.62 0.564 -0.373 -0.071 -1.028 -1.579 -2.927 -7.697 -0.083 -0.243 -0.259 -0.993" />
    <path class="write-flat-pen" fill="#FFFFFF" stroke-width="1.6" __comx="146.134" __comy="49.207" __timestamp="0x178c6a02ee6" d="M140.376 54.238 l1.6 -0.992 0.213 -0.112 2.754 -1.986 1.33 -1.848 0.225 -1.806 -0.872 -1.233 -1.799 -0.524 -1.853 0.638 -1.427 1.732 -0.825 2.395 0.089 2.233 0.918 2.27 1.542 1.689 2.031 1.017 2.709 0.09 2.911 -1.43 0.44 -0.453 2.186 -2.304 -0.157 -0.192 -2.694 1.684 -0.407 0.239 -2.56 1.001 -2.06 -0.088 -1.518 -0.743 -1.209 -1.289 -0.773 -1.799 -0.114 -1.74 0.637 -1.942 1.04 -1.276 1.128 -0.397 0.997 0.277 0.355 0.478 -0.103 1.035 -0.999 1.498 -2.432 2.035 -0.192 0.133 -1.427 1.295" />
    <path class="write-flat-pen" fill="#FFFFFF" stroke-width="1.6" __comx="203.793" __comy="49.207" __timestamp="0x178c6a0329c" d="M193.273 38.659 l0.051 1.09 0.042 0.46 0.891 8.583 0.15 1.304 0 0 0.509 8.236 0 0 1.415 0.063 1.352 -7.9 0.358 -6.499 -0.545 -4.808 -1.395 -3.494 0 0 -0.472 1.038 2.903 -0.998 5.247 -0.69 7.02 0.527 3.42 0.576 0.094 -0.294 -3.253 -1.551 -7.308 -0.867 -5.589 0.739 -3.05 1.071 -0.472 1.038 0 0 1.342 3.289 0.505 4.469 -0.342 6.287 -1.221 7.837 1.415 0.063 0 0 -0.704 -8.252 0 0 -0.174 -1.332 -1.235 -8.557 -0.11 -0.475 -0.347 -1.044" />
    <path class="write-flat-pen" fill="#FFFFFF" stroke-width="1.6" __comx="203.919" __comy="49.207" __timestamp="0x178c6a033a1" d="M196.189 45.036 l0.437 0.797 0.393 0.185 5.189 0.477 0.75 -0.081 5.536 -1.443 3.155 -1.461 -0.063 -0.198 -3.382 0.601 -5.488 1.108 -0.549 0.07 -4.915 -0.115 -0.013 0.022 -0.533 -0.386" />
    <path class="write-flat-pen" fill="#FFFFFF" stroke-width="1.6" __comx="206.41" __comy="49.207" __timestamp="0x178c6a0349f" d="M198.394 54.607 l1.139 0.933 0.483 0.139 4.357 0.542 6.595 -0.43 3.458 -0.548 -0.019 -0.284 -3.488 -0.083 -6.502 0.081 -4.197 -0.395 -0.24 -0.047 -1.176 -0.548" />
    <path class="write-flat-pen" fill="#FFFFFF" stroke-width="1.6" __comx="224.646" __comy="49.207" __timestamp="0x178c6a0371a" d="M226.489 51.804 l0.085 -1.857 -0.012 -0.265 -0.657 -2.129 -1.649 -1.518 -1.841 -0.487 -2.034 0.619 -1.495 1.534 -1.133 2.842 -0.114 2.428 0.635 1.671 1.228 0.901 2.021 -0.065 2.196 -1.333 1.426 -1.966 0.626 -2.415 -0.912 -0.437 0 0 -0.959 0.349 -1.026 2.253 -0.831 4.449 -0.148 4.904 0.63 6.307 0.848 1.451 1.797 0.336 1.941 -1.886 2.295 -4.688 1.812 -6.302 0.436 -3.675 -0.537 -0.116 -1.104 3.474 -2.034 6.051 -2.13 4.343 -1.179 1.166 -0.356 -0.054 -0.347 -0.575 -0.629 -5.885 0.135 -4.698 0.776 -4.168 0.954 -2.094 -0.959 0.349 0 0 -0.147 -0.073 -0.259 1.019 -1.095 1.523 -1.637 0.998 -1.174 0.05 -0.516 -0.369 -0.392 -1.02 0.078 -1.917 0.931 -2.391 1.064 -1.11 1.356 -0.436 1.21 0.277 1.29 1.036 0.73 1.676 0.027 0.128 0.263 1.818" />
    <path class="write-flat-pen" fill="#FFFFFF" stroke-width="1.6" __comx="243.614" __comy="49.207" __timestamp="0x178c6a03911" d="M238.47 48.889 l-0.653 -1.186 -0.535 0.258 -1.275 3.149 -0.067 0.434 0.034 2.273 0.801 1.958 1.648 1.162 2.111 -0.14 1.84 -1.153 1.608 -2.103 1.17 -3.09 0 0 -0.041 -1.523 0 0 -1.472 -0.058 -0.233 1.959 0.836 3.404 1.278 2.326 1.756 1.207 1.724 -0.156 0.428 -0.301 1.859 -1.428 -0.06 -0.119 -2.252 0.65 -0.258 0.046 -0.995 -0.117 -1.054 -0.8 -1.013 -1.859 -0.735 -2.951 0.188 -1.694 -1.472 -0.058 0 0 0.059 1.233 0 0 -0.974 2.631 -1.316 1.743 -1.32 0.847 -1.28 0.108 -0.954 -0.639 -0.6 -1.366 -0.11 -1.934 0.02 -0.22 0.799 -2.835 -0.392 0.185 0.512 0.436" />
    <path class="write-flat-pen" fill="#FFFFFF" stroke-width="1.6" __comx="255.384" __comy="49.207" __timestamp="0x178c6a03ad0" d="M254.92 49.16 l1.076 -1.169 0.08 -0.164 0.221 -1.297 -1.033 -1.08 -1.56 0.138 -1.469 1.231 -1.345 2.471 -0.511 2.499 0.436 2.075 1.25 1.18 1.934 0.037 0 0 1.789 -1.075 0 0 1.71 -3.401 0 0 -1.364 -0.336 -0.038 2.74 0.753 2.203 1.499 0.577 2.032 -0.306 0.009 -0.177 -1.776 -0.505 -0.659 -0.527 -0.423 -1.477 0.044 -2.505 -1.364 -0.336 0 0 -1.532 3.018 0 0 -1.071 0.635 0 0 -0.949 -0.022 -0.512 -0.476 -0.298 -1.333 0.383 -2.009 1.078 -2.09 0.936 -0.843 0.571 -0.097 0.284 0.211 -0.007 0.6 0.036 -0.069 -0.736 1.293" />
    <path class="write-flat-pen" fill="#FFFFFF" stroke-width="1.6" __comx="265.619" __comy="49.207" __timestamp="0x178c6a03b9d" d="M263.274 35.137 l0.103 3.16 0.077 0.678 2.13 13.539 0.962 2.033 1.304 0.587 0.113 -0.119 -0.462 -1.101 -0.484 -1.786 -2.308 -13.348 -0.112 -0.623 -0.422 -3.096" />
    <path class="write-flat-pen" fill="#FFFFFF" stroke-width="1.6" __comx="266.976" __comy="49.207" __timestamp="0x178c6a03c63" d="M261.435 47.42 l0.235 -0.883 0.005 0.049 1.343 -0.729 1.882 -0.284 4.434 0.194 0.563 -0.015 3.415 -0.081 0.016 -0.17 -3.34 -0.718 -0.557 -0.121 -4.594 -0.539 -2.331 0.429 -1.673 1.245 -0.207 0.423 0.084 1.146" />
    <path class="write-flat-pen" fill="#FFFFFF" stroke-width="1.6" __comx="275.67" __comy="49.207" __timestamp="0x178c6a03d23" d="M274.591 47.768 l-0.034 2.617 0.026 0.482 0.653 3.894 1.397 1.887 0.15 -0.077 -0.672 -2.106 -0.688 -3.71 -0.057 -0.427 -0.295 -2.584" />
    <path class="write-flat-pen" fill="#FFFFFF" stroke-width="1.6" __comx="278.89" __comy="49.207" __timestamp="0x178c6a03dc3" d="M278.231 40.179 l0.406 0.466 0.874 0.942 0.04 -0.027 -0.553 -1.177 -0.365 -0.519" />
    <path class="write-flat-pen" fill="#FFFFFF" stroke-width="1.6" __comx="283.356" __comy="49.207" __timestamp="0x178c6a03f14" d="M282.812 46.777 l0.768 -0.114 0.102 -0.108 -0.314 -0.505 -0.688 -0.071 -0.325 0.136 -1.568 1.274 -0.97 1.889 -0.072 1.862 0.989 1.668 1.5 0.648 1.83 -0.24 1.55 -1.21 1.105 -2.202 0.248 -2.208 -1.033 -2.738 -0.488 0.059 -0.692 0.451 0.001 0.109 0.7 0.437 -0.331 0.058 0.386 1.766 -0.18 1.661 -0.818 1.72 -0.998 0.819 -1.104 0.171 -0.792 -0.323 -0.609 -0.982 0.012 -1.229 0.694 -1.473 1.195 -1.141 0.047 -0.04 0.495 -0.227 -0.314 -0.505 0.047 -0.026 -0.471 0.353" />
    <path class="write-flat-pen" fill="#FFFFFF" stroke-width="1.6" __comx="293.796" __comy="49.207" __timestamp="0x178c6a0409d" d="M288.944 48.68 l-0.258 0.622 -0.024 0.178 0.027 2.607 0.049 0.18 0.355 0.65 0 0 1.084 -0.01 3.02 -4.946 1.032 -0.857 0.676 -0.001 0.715 0.578 1.993 5.715 1.167 3.177 0.119 -0.02 0.03 -3.488 -2.04 -6.282 -1.501 -1.151 -1.697 0.063 -1.576 1.349 -3.028 5.214 1.084 -0.01 0 0 -0.336 -0.465 0.025 0.095 -0.363 -2.423 -0.018 -0.085 -0.065 -0.618" />
    <path class="write-stroke-pen" fill="none" stroke="#FFFFFF" stroke-width="1.6" stroke-linecap="round" stroke-linejoin="round" __comx="182.565" __comy="69.561" __timestamp="0x178c6a04aa4" d="M60.575 73.34 l243.98 -7.026" />
    <path class="write-stroke-pen" transform="translate(20.055,-68.181)" fill="none" stroke="#FFFFFF" stroke-width="1.6" stroke-linecap="round" stroke-linejoin="round" __comx="171.598" __comy="166.999" __timestamp="0x178c6a06776" d="M151.883 180.408 l-0.681 330.232" />
    <path class="write-stroke-pen" transform="translate(20.055,-68.181)" fill="none" stroke="#FFFFFF" stroke-width="1.6" stroke-linecap="round" stroke-linejoin="round" __comx="393.665" __comy="289.276" __timestamp="0x178c6a06776" d="M58.971 357.626 l629.279 0.588" />
    <path class="write-flat-pen" transform="translate(96.089,-71.282)" fill="#D534A9" stroke-width="1.6" __comx="245.976" __comy="285.269" __timestamp="0x178c6a06776" d="M148.797 358.459 l-0.218 -2.346 0.005 0.011 0.435 -0.671 0.823 -0.154 0.984 0.477 0.845 1.117 0.013 0.714 -0.441 0.407 -1.388 0.126 -1.184 -0.477 -0.468 -0.662 0.023 -0.81 0.592 -0.823 1.565 -0.828 1.415 -0.117 0.8 0.462 0.611 1.182 -0.034 1.465 -0.728 1.694 -1.364 1.321 -1.626 0.698 -1.157 -0.004 -0.859 -0.556 -0.403 -1.075 0.163 -1.23 0.833 -1.364 1.204 -0.776 1.023 -0.077 0.664 0.353 0.577 0.969 -0.005 1.292 -0.541 1.044 -1.015 0.745 -1.156 0.177 -0.767 -0.303 -0.476 -0.707 -0.02 -0.997 0.559 -1.143 1.365 -1.076 1.292 -0.318 0.586 0.197 0.537 0.732 0.103 1.239 -0.603 1.725 -1.076 1.309 -1.511 0.865 -1.012 0.099 -0.576 -0.303 -0.375 -0.717 0.088 -0.642 1.891 -1.578 0.28 -0.12 0.985 -0.315 2.922 -0.889 -0.019 -0.122 -3.064 0.062 -1.09 0.061 -0.596 0.11 -2.803 1.907 -0.25 1.815 0.844 1.612 1.442 0.758 1.829 -0.18 2.063 -1.181 1.443 -1.755 0.809 -2.315 -0.169 -2.029 -1.104 -1.505 -1.507 -0.506 -2.079 0.511 -1.924 1.516 -0.888 1.819 0.039 1.855 1.018 1.507 1.631 0.64 1.968 -0.307 1.624 -1.206 0.87 -1.722 -0.025 -2.097 -1.029 -1.687 -1.429 -0.75 -1.843 0.145 -1.815 1.174 -1.18 1.932 -0.251 1.925 0.721 1.892 1.653 1.053 1.903 -0.01 2.148 -0.944 1.749 -1.727 0.926 -2.223 0.032 -2.097 -0.97 -1.86 -1.535 -0.883 -2.137 0.182 -2.1 1.127 -1.017 1.437 -0.032 1.688 0.98 1.35 1.871 0.707 2.154 -0.272 1.072 -1.169 -0.174 -1.581 -1.309 -1.489 -1.527 -0.581 -1.363 0.471 -0.474 1.101 -0.014 0.162 0.568 2.366" />
    <path class="write-flat-pen" transform="translate(96.089,-71.282)" fill="#D534A9" stroke-width="1.6" __comx="397.977" __comy="284.474" __timestamp="0x178c6a06776" d="M301.626 358.885 l-0.407 -0.443 -0.126 0.011 -1.03 -0.059 -0.021 -0.02 -1.05 -0.67 -0.718 -1.352 -0.127 -1.56 0.409 -1.129 0.689 -0.563 0.56 -0.005 0.548 0.524 0.314 1.199 -0.273 1.407 -0.733 0.956 -0.902 0.423 -0.646 -0.112 -0.404 -0.489 -0.046 -0.813 0.478 -0.949 1.156 -0.771 0.764 -0.021 0.808 0.567 0.496 1.29 -0.123 1.856 -0.625 1.283 -0.895 0.704 -0.689 0.056 -0.482 -0.316 -0.415 -1.019 0.143 -1.722 0.702 -1.346 1.214 -0.96 1.393 -0.292 0.98 0.422 0.676 0.941 0.134 1.396 -0.57 1.332 -1.321 1.188 -1.833 0.654 -1.328 -0.081 -0.747 -0.536 -0.141 -0.701 0.494 -1.196 1.863 -1.883 2.891 -1.722 0.534 -0.252 1.656 -0.684 3.121 -1.239 -0.029 -0.103 -3.325 0.551 -1.801 0.396 -0.67 0.217 -3.286 1.601 -2.307 2.205 -0.804 1.948 0.36 1.795 1.633 1.173 2.115 0.129 2.438 -0.87 1.818 -1.634 0.87 -2.032 -0.215 -2.232 -1.187 -1.653 -1.853 -0.798 -2.258 0.473 -1.777 1.406 -1.01 1.935 -0.201 2.425 0.747 1.835 1.358 0.89 1.717 -0.14 1.563 -1.229 0.922 -1.895 0.167 -2.52 -0.798 -2.074 -1.641 -1.151 -1.754 0.048 -1.889 1.262 -0.858 1.709 0.105 1.763 1.121 1.34 1.719 0.28 1.688 -0.818 1.154 -1.569 0.362 -2.101 -0.539 -1.921 -1.296 -1.194 -1.649 0.045 -1.361 1.152 -0.601 1.799 0.258 2.135 1.137 1.823 1.588 0.72 0.311 0.032 1.13 -0.305 -0.07 0.001 0.402 0.049" />
    <path class="write-flat-pen" transform="translate(96.089,-71.282)" fill="#D534A9" stroke-width="1.6" __comx="548.204" __comy="283.564" __timestamp="0x178c6a06776" d="M452.315 358.051 l0.143 -1.193 0.014 0.007 -0.69 -0.074 -0.073 0.551 -0.001 -0.045 -0.609 0.784 -0.731 0.15 -0.87 -0.453 -0.801 -1.227 -0.349 -1.754 0.328 -1.648 0.773 -1.004 1.254 -0.554 1.395 0.116 1.311 0.772 0.761 1.104 0.171 1.269 -0.448 1.205 -1.168 0.992 -1.767 0.533 -1.257 -0.183 -0.751 -0.661 -0.082 -0.559 0.417 -0.656 1.655 -0.898 2.048 -0.391 1.271 0.26 0.647 0.617 0.147 0.844 -0.479 1.052 -1.32 0.985 -1.539 0.425 -1.063 -0.166 -0.657 -0.573 -0.151 -0.697 0.358 -0.939 1.145 -1.001 1.556 -0.486 1.449 0.217 0.806 0.633 0.629 1.305 -0.013 1.051 -0.587 1.141 -0.996 0.699 -1.273 0.223 -1.317 -0.407 -0.044 -0.001 -0.147 -0.113 -2.06 -1.649 -0.038 0.032 1.251 2.323 0.107 0.193 0.193 0.251 1.845 1.019 2.108 -0.355 1.614 -1.132 0.94 -1.827 0.023 -1.804 -0.954 -1.978 -1.431 -1.123 -2.231 -0.334 -2.229 0.696 -1.699 1.486 -0.668 1.755 0.364 1.679 1.405 1.225 1.86 0.291 2.162 -0.597 1.89 -1.411 0.852 -1.876 -0.324 -1.849 -1.36 -1.292 -2.028 -0.419 -2.603 0.499 -2.236 1.217 -0.951 1.507 0.255 1.72 1.548 1.353 2.073 0.292 2.409 -0.752 1.707 -1.479 0.703 -1.943 -0.28 -2 -1.156 -1.678 -1.901 -1.113 -2.123 -0.173 -1.954 0.871 -1.214 1.592 -0.437 2.287 0.495 2.319 1.21 1.76 1.702 0.776 1.631 -0.516 0.834 -1.402 0.08 -0.359 -0.298 -0.719 -0.69 -0.074 -0.039 0.137 0.187 1.33" />
    <path class="write-stroke-pen" transform="translate(96.089,-71.282)" fill="none" stroke="#00FFFF" stroke-opacity="0.29" stroke-width="1.6" stroke-linecap="round" stroke-linejoin="round" __comx="446.423" __comy="167.139" __timestamp="0x178c6a06776" d="M5.008 240.993 l690.653 -4.611" />
    <path class="write-stroke-pen" transform="translate(96.089,-71.282)" fill="none" stroke="#00FFFF" stroke-opacity="0.29" stroke-width="1.6" stroke-linecap="round" stroke-linejoin="round" __comx="455.322" __comy="411.049" __timestamp="0x178c6a06776" d="M22.805 486.142 l672.856 -7.087" />
    <path class="write-stroke-pen" transform="translate(96.089,-71.282)" fill="none" stroke="#00FFFF" stroke-opacity="0.29" stroke-width="3.5" stroke-linecap="round" stroke-linejoin="round" __comx="245.342" __comy="157.506" __timestamp="0x178c6a06776" d="M149.253 228.969 l0 2.414" />
    <path class="write-stroke-pen" transform="translate(96.089,-71.282)" fill="none" stroke="#00FFFF" stroke-opacity="0.29" stroke-width="3.5" stroke-linecap="round" stroke-linejoin="round" __comx="247.787" __comy="196.368" __timestamp="0x178c6a06776" d="M151.203 222.717 l0.99 273.099" />
    <path class="write-stroke-pen" transform="translate(96.089,-71.282)" fill="none" stroke="#00FFFF" stroke-opacity="0.29" stroke-width="3.5" stroke-linecap="round" stroke-linejoin="round" __comx="545.79" __comy="183.024" __timestamp="0x178c6a06776" d="M448.51 204.581 l2.383 301.852" />
    <path class="write-flat-pen" transform="translate(96.089,-71.282)" fill="#FFFFFF" stroke-width="1.6" __comx="318.658" __comy="230.687" __timestamp="0x178c6a06776" d="M148.747 358.041 l-0.016 0.063 -0.14 0.066 0.338 0.133 0.012 -0.002 0.173 -0.143 0.052 -0.061 0.392 -0.569 0.089 -0.146 0.913 -1.819 0.08 -0.167 6.865 -13.417 0.165 -0.296 17.289 -31.832 20.315 -33.655 6.332 -9.224 3.661 -4.688 4.393 -4.67 4.087 -3.699 3.28 -2.337 8.787 -5.085 3.589 -1.53 2.223 -0.495 5.978 -0.243 4.522 0.245 6.743 1.313 2.374 0.802 1.873 1.088 2.236 1.917 1.776 2.11 1.811 2.995 6.223 14.518 4.549 13.211 8.148 21.627 6.826 22.98 6.27 18.76 3.567 8.933 0.642 2.193 0.039 0.071 0.015 0.061 0.468 2.229 0.04 0.003 0.744 -2.153 0.023 -0.07 0.054 -0.273 -0.495 -2.547 -3.593 -8.998 -6.247 -18.691 -6.835 -23.009 -8.16 -21.659 -4.56 -13.245 -6.29 -14.674 -1.933 -3.198 -1.94 -2.305 -2.446 -2.097 -2.139 -1.242 -2.627 -0.888 -6.957 -1.354 -4.708 -0.255 -6.197 0.253 -2.507 0.559 -3.813 1.629 -8.933 5.179 -3.406 2.448 -4.191 3.811 -4.485 4.767 -3.73 4.786 -6.377 9.306 -20.297 33.759 -17.189 31.916 -0.174 0.315 -6.684 13.573 -0.08 0.201 -0.7 1.891 -0.054 0.148 -0.194 0.669 -0.015 0.081 0.002 0.229 0.005 0.013 0.338 0.133 -0.068 -0.138 0.019 -0.076" />
    <path class="write-flat-pen" transform="translate(96.089,-71.282)" fill="#FFFFFF" stroke-width="1.6" __comx="470.454" __comy="301.173" __timestamp="0x178c6a06776" d="M294.526 351.539 l-0.222 -1.165 0.481 -0.303 -0.075 -0.014 0.928 1.107 0.061 0.107 1.582 3.2 0.142 0.314 3.427 7.374 0.114 0.281 2.43 6.518 3.034 9.886 6.861 16.627 15.331 47.127 3.705 9.453 4.016 8.862 3.094 5.791 2.672 3.993 3.511 4.307 2.611 2.441 2.386 1.604 4.027 1.876 5.157 1.795 3.114 0.632 2.544 0.022 3.051 -0.59 3.167 -1.157 3.503 -2.027 4.369 -3.377 9.933 -9.203 4.202 -4.374 8.48 -9.948 8.465 -12.05 10.416 -15.783 11.942 -22.072 7.443 -15.383 2.007 -5.009 6.074 -20.337 1.318 -3.419 4.188 -7.069 0.67 -2.284 -0.161 -0.101 -1.774 1.607 -4.366 7.142 -1.39 3.607 -6.071 20.327 -1.96 4.89 -7.403 15.301 -11.892 21.978 -10.365 15.705 -8.409 11.969 -8.401 9.855 -4.137 4.306 -9.847 9.123 -4.228 3.268 -3.29 1.903 -2.916 1.066 -2.768 0.536 -2.23 -0.019 -2.858 -0.58 -4.979 -1.733 -3.841 -1.789 -2.176 -1.463 -2.439 -2.28 -3.395 -4.164 -2.585 -3.865 -3.032 -5.675 -3.978 -8.777 -3.673 -9.371 -15.402 -47.118 -6.944 -16.587 -3.134 -9.829 -2.56 -6.532 -0.139 -0.325 -3.647 -7.303 -0.164 -0.325 -1.809 -3.144 -0.133 -0.183 -1.21 -1.064 -0.297 -0.104 -0.643 0.751 0.301 1.285" />
    <path class="write-flat-pen" transform="translate(20.055,-68.181)" fill="#FFFFFF" stroke-width="1.6" __comx="240.203" __comy="318.638" __timestamp="0x178c6a06776" d="M224.753 357.677 l-1.94 2.364 -5.813 10.189 -0.236 0.344 -1.557 2.26 0.032 0.024 1.776 -2.092 0.284 -0.335 6.011 -10.054 1.779 -2.44" />
    <path class="write-flat-pen" transform="translate(20.055,-68.181)" fill="#FFFFFF" stroke-width="1.6" __comx="232.273" __comy="318.638" __timestamp="0x178c6a06776" d="M213.106 374.696 l-1.507 4.991 -0.125 0.391 -0.8 2.496 0.043 0.017 1.12 -2.37 0.181 -0.383 1.745 -4.927" />
    <path class="write-flat-pen" transform="translate(20.055,-68.181)" fill="#FFFFFF" stroke-width="1.6" __comx="224.321" __comy="318.638" __timestamp="0x178c6a06776" d="M205.328 392.693 l-0.118 0.151 -0.07 0.059 -0.083 0.079 -0.059 0.066 -0.109 0.111 -0.079 0.09 -0.107 0.121 -0.075 0.093 -0.115 0.14 -0.082 0.109 -0.086 0.119 -0.084 0.123 -0.055 0.08 -0.099 0.158 -0.04 0.065 -0.075 0.133 -0.03 0.056 -0.034 0.068 -0.996 1.972 0.057 0.035 1.333 -1.761 0.048 -0.063 0.037 -0.055 0.08 -0.122 0.04 -0.059 0.097 -0.152 0.051 -0.076 0.08 -0.125 0.076 -0.117 0.069 -0.104 0.101 -0.145 0.063 -0.095 0.09 -0.127 0.063 -0.093 0.093 -0.127 0.045 -0.072 0.055 -0.077 0.064 -0.086 0.122 -0.173" />
    <path class="write-flat-pen" transform="translate(20.055,-68.181)" fill="#FFFFFF" stroke-width="1.6" __comx="216.271" __comy="318.638" __timestamp="0x178c6a06776" d="M197.554 406.299 l-1.992 2.681 -0.963 2.214 0.046 0.025 1.304 -1.997 1.883 -2.723" />
    <path class="write-flat-pen" transform="translate(20.055,-68.181)" fill="#FFFFFF" stroke-width="1.6" __comx="206.671" __comy="373.548" __timestamp="0x178c6a06776" d="M188.12 423.259 l-0.187 0.166 -0.169 0.143 -0.167 0.157 -0.163 0.162 -0.168 0.176 -0.178 0.19 -0.179 0.196 -0.169 0.185 -0.158 0.18 -0.114 0.145 -0.144 0.18 -0.048 0.064 -1.363 1.831 0.043 0.037 1.619 -1.608 0.057 -0.057 0.16 -0.172 0.119 -0.137 0.154 -0.172 0.166 -0.188 0.172 -0.203 0.167 -0.199 0.152 -0.186 0.143 -0.172 0.141 -0.17 0.14 -0.162 0.169 -0.183" />
    <path class="write-flat-pen" transform="translate(20.055,-68.181)" fill="#FFFFFF" stroke-width="1.6" __comx="196.162" __comy="373.548" __timestamp="0x178c6a06776" d="M177.992 436.155 l-2.577 2.33 -1.532 1.891 0.028 0.027 1.837 -1.572 2.583 -2.298" />
    <path class="write-flat-pen" transform="translate(20.055,-68.181)" fill="#FFFFFF" stroke-width="1.6" __comx="188.873" __comy="373.548" __timestamp="0x178c6a06776" d="M170.006 444.813 l-0.075 0.096 -0.071 0.079 -0.054 0.072 -0.078 0.102 -0.063 0.095 -0.104 0.142 -0.08 0.12 -0.113 0.162 -0.078 0.12 -0.11 0.159 -0.076 0.116 -0.088 0.121 -0.093 0.137 -0.055 0.079 -0.128 0.181 -1.241 1.757 0.028 0.021 1.346 -1.677 0.14 -0.175 0.059 -0.081 0.094 -0.134 0.091 -0.121 0.079 -0.117 0.113 -0.159 0.078 -0.12 0.112 -0.162 0.078 -0.12 0.101 -0.145 0.06 -0.095 0.072 -0.1 0.048 -0.069 0.066 -0.081 0.076 -0.102" />
    <path class="write-flat-pen" transform="translate(20.055,-68.181)" fill="#FFFFFF" stroke-width="1.6" __comx="180.115" __comy="373.548" __timestamp="0x178c6a06776" d="M162.601 453.867 l-2.088 2.935 -3.075 3.084 0.006 0.007 3.269 -2.92 1.968 -3.05" />
    <path class="write-flat-pen" transform="translate(20.055,-68.181)" fill="#FFFFFF" stroke-width="1.6" __comx="171.286" __comy="403.465" __timestamp="0x178c6a06776" d="M154.304 462.777 l-2.217 2.682 -0.153 0.186 -1.915 1.881 -1.996 1.789 0.033 0.042 2.241 -1.511 1.976 -1.896 0.164 -0.219 2 -2.851" />
    <path class="write-flat-pen" transform="translate(20.055,-68.181)" fill="#FFFFFF" stroke-width="1.6" __comx="160.848" __comy="403.465" __timestamp="0x178c6a06776" d="M142.257 472.167 l-1.491 0.718 -1.62 1.079 0.018 0.036 1.823 -0.684 1.454 -0.791" />
    <path class="write-flat-pen" transform="translate(20.055,-68.181)" fill="#FFFFFF" stroke-width="1.6" __comx="153.563" __comy="403.465" __timestamp="0x178c6a06776" d="M135.942 475.676 l-2.14 1.774 -2.844 0.97 0.008 0.03 3.04 -0.628 2.054 -2.016" />
    <path class="write-flat-pen" transform="translate(20.055,-68.181)" fill="#FFFFFF" stroke-width="1.6" __comx="144.467" __comy="403.465" __timestamp="0x178c6a06776" d="M126.887 480.272 l-1.95 0.526 -3.093 0.336 0.001 0.041 3.178 0.117 1.957 -0.731" />
    <path class="write-flat-pen" transform="translate(20.055,-68.181)" fill="#FFFFFF" stroke-width="1.6" __comx="137.219" __comy="403.465" __timestamp="0x178c6a06776" d="M118.684 480.568 l-1.418 -0.272 -1.601 -0.609 -0.022 0.041 1.468 1.026 1.508 0.21" />
    <path class="write-flat-pen" transform="translate(20.055,-68.181)" fill="#FFFFFF" stroke-width="1.6" __comx="127.967" __comy="403.465" __timestamp="0x178c6a06776" d="M110.168 475.332 l-2.644 -0.673 -1.857 -0.998 -0.012 0.019 1.733 1.291 2.691 0.705" />
    <path class="write-flat-pen" transform="translate(20.055,-68.181)" fill="#FFFFFF" stroke-width="1.6" __comx="118.632" __comy="403.465" __timestamp="0x178c6a06776" d="M101.435 467.518 l-2.02 -0.621 -1.836 -1.134 -1.838 -1.519 -0.024 0.026 1.67 1.741 1.87 1.249 2.133 0.434" />
    <path class="write-flat-pen" transform="translate(20.055,-68.181)" fill="#FFFFFF" stroke-width="1.6" __comx="110.389" __comy="403.465" __timestamp="0x178c6a06776" d="M92.157 457.026 l-1.412 -1.186 -2.204 -2.618 -0.031 0.024 1.97 2.858 1.55 1.086" />
    <path class="write-flat-pen" transform="translate(20.055,-68.181)" fill="#FFFFFF" stroke-width="1.6" __comx="102.068" __comy="354.884" __timestamp="0x178c6a06776" d="M83.806 445.046 l-1.292 -0.92 -0.975 -1.327 -1.258 -2.001 -0.061 0.033 1.004 2.16 0.945 1.485 1.431 0.882" />
    <path class="write-flat-pen" transform="translate(20.055,-68.181)" fill="#FFFFFF" stroke-width="1.6" __comx="96.328" __comy="354.884" __timestamp="0x178c6a06776" d="M77.718 435.088 l-0.035 -0.104 -0.038 -0.08 -0.028 -0.064 -0.032 -0.077 -0.036 -0.082 -0.044 -0.101 -0.044 -0.099 -0.048 -0.106 -0.053 -0.121 -0.025 -0.053 -0.074 -0.174 -0.052 -0.124 -0.054 -0.129 -0.067 -0.166 -0.062 -0.156 -0.073 -0.184 -0.069 -0.172 -0.072 -0.177 -0.099 -0.218 -0.065 -0.15 -0.08 -0.184 -0.082 -0.187 -0.076 -0.171 -0.085 -0.192 -0.073 -0.167 -0.087 -0.197 -0.115 -0.241 -0.096 -0.204 -1.104 -2.337 -0.024 0.011 1.016 2.377 0.089 0.208 0.114 0.24 0.085 0.196 0.073 0.168 0.085 0.192 0.075 0.171 0.081 0.187 0.08 0.184 0.065 0.151 0.098 0.217 0.071 0.175 0.069 0.172 0.073 0.184 0.062 0.156 0.067 0.167 0.054 0.13 0.053 0.124 0.075 0.176 0.025 0.054 0.053 0.12 0.048 0.106 0.044 0.098 0.044 0.1 0.036 0.081 0.033 0.078 0.03 0.067 0.036 0.074 0.033 0.096" />
    <path class="write-flat-pen" transform="translate(20.055,-68.181)" fill="#FFFFFF" stroke-width="1.6" __comx="89.13" __comy="354.884" __timestamp="0x178c6a06776" d="M70.27 417.835 l-1.186 -1.341 -1.164 -1.604 -0.04 0.024 0.897 1.803 1.189 1.382" />
    <path class="write-flat-pen" transform="translate(20.055,-68.181)" fill="#FFFFFF" stroke-width="1.6" __comx="81.247" __comy="354.884" __timestamp="0x178c6a06776" d="M62.815 402.728 l-1.352 -0.911 -0.884 -1.392 -0.975 -2.043 -0.036 0.014 0.664 2.191 0.789 1.639 1.489 0.964" />
    <path class="write-flat-pen" transform="translate(20.055,-68.181)" fill="#FFFFFF" stroke-width="1.6" __comx="75.968" __comy="291.203" __timestamp="0x178c6a06776" d="M57.066 383.326 l-0.092 -0.095 -0.013 -0.028 -0.03 -0.033 -0.028 -0.04 -0.049 -0.05 -0.048 -0.057 -0.062 -0.057 -0.064 -0.07 -0.076 -0.067 -0.081 -0.081 -0.079 -0.069 -0.085 -0.083 -0.117 -0.112 -0.04 -0.037 -0.145 -0.148 -1.265 -1.304 -0.033 0.027 1.073 1.466 0.13 0.177 0.045 0.049 0.11 0.119 0.09 0.095 0.081 0.071 0.084 0.081 0.076 0.062 0.068 0.066 0.065 0.05 0.05 0.047 0.047 0.037 0.033 0.033 0.022 0.015 0.016 0.018 0.117 0.114" />
    <path class="write-flat-pen" transform="translate(20.055,-68.181)" fill="#FFFFFF" stroke-width="1.6" __comx="69.878" __comy="291.203" __timestamp="0x178c6a06776" d="M51.794 371.209 l-1.393 -0.741 -1.587 -2.395 -0.918 -2.229 -0.045 0.014 0.58 2.39 1.525 2.722 1.66 0.633" />
    <path class="write-flat-pen" transform="translate(20.055,-68.181)" fill="#FFFFFF" stroke-width="1.6" __comx="62.046" __comy="291.203" __timestamp="0x178c6a06776" d="M44.72 353.406 l-3.554 -2.737 -1.876 -1.685 -0.028 0.027 1.658 1.935 3.588 2.737" />
    <path class="write-flat-pen" transform="translate(20.055,-68.181)" fill="#FFFFFF" stroke-width="1.6" __comx="52.396" __comy="291.203" __timestamp="0x178c6a06776" d="M33.804 337.476 l-0.043 -0.074 0 -0.004 -0.008 -0.029 -0.006 -0.015 -0.016 -0.043 -0.012 -0.027 -0.05 -0.094 -0.018 -0.032 -0.075 -0.128 -0.051 -0.095 -0.092 -0.146 -0.071 -0.122 -0.128 -0.197 -0.094 -0.157 -0.122 -0.188 -0.104 -0.172 -0.147 -0.231 -0.108 -0.181 -0.148 -0.232 -0.125 -0.207 -0.162 -0.248 -1.293 -1.981 -0.054 0.032 1.098 2.095 0.136 0.261 0.118 0.216 0.145 0.237 0.109 0.183 0.153 0.232 0.111 0.171 0.13 0.184 0.103 0.153 0.139 0.188 0.08 0.117 0.104 0.136 0.061 0.087 0.095 0.122 0.022 0.026 0.062 0.078 0.014 0.016 0.028 0.038 0.009 0.009 0.018 0.024 0.007 0.007 0.045 0.071" />
    <path class="write-flat-pen" transform="translate(20.055,-68.181)" fill="#FFFFFF" stroke-width="1.6" __comx="45.054" __comy="231.063" __timestamp="0x178c6a06776" d="M26.433 317.411 l-1.645 -1.79 -1.189 -1.769 -0.034 0.019 0.905 1.977 1.628 1.863" />
    <path class="write-flat-pen" transform="translate(20.055,-68.181)" fill="#FFFFFF" stroke-width="1.6" __comx="39.239" __comy="231.063" __timestamp="0x178c6a06776" d="M20.348 303.801 l-0.109 -0.056 -0.005 -0.003 0.002 -0.001 -0.003 -0.004 -0.007 -0.006 -0.011 -0.009 -0.019 -0.014 -0.044 -0.028 -0.02 -0.014 -0.032 -0.022 -0.072 -0.043 -0.028 -0.018 -0.105 -0.07 -0.034 -0.022 -0.084 -0.049 -0.092 -0.065 -0.05 -0.033 -0.097 -0.059 -0.118 -0.082 -1.38 -0.964 -0.023 0.029 1.239 1.139 0.115 0.105 0.099 0.071 0.043 0.033 0.101 0.075 0.093 0.054 0.032 0.019 0.116 0.067 0.039 0.02 0.075 0.033 0.032 0.015 0.029 0.013 0.049 0.018 0.017 0.006 0.014 0.005 0.014 0.005 0.013 0.004 0.015 0.004 0 -0.001 0.095 0.047" />
    <path class="write-flat-pen" transform="translate(20.055,-68.181)" fill="#FFFFFF" stroke-width="1.6" __comx="33.251" __comy="231.063" __timestamp="0x178c6a06776" d="M14.707 294.719 l-0.072 -0.03 0.005 0.002 -0.003 -0.004 -0.007 -0.008 -0.014 -0.014 -0.033 -0.027 -0.036 -0.038 -0.05 -0.042 -0.023 -0.02 -0.105 -0.094 -0.027 -0.024 -0.135 -0.12 -0.045 -0.04 -0.147 -0.132 -0.051 -0.045 -0.171 -0.156 -0.047 -0.042 -0.184 -0.174 -0.051 -0.047 -0.183 -0.175 -0.108 -0.106 -1.512 -1.488 -0.022 0.02 1.373 1.617 0.101 0.119 0.181 0.187 0.051 0.05 0.185 0.179 0.05 0.045 0.177 0.154 0.055 0.045 0.154 0.126 0.049 0.038 0.143 0.112 0.029 0.022 0.115 0.086 0.03 0.02 0.048 0.031 0.045 0.035 0.042 0.023 0.011 0.007 0.014 0.008 0.014 0.008 0.013 0.006 0.083 0.033" />
    <path class="write-flat-pen" transform="translate(20.055,-68.181)" fill="#FFFFFF" stroke-width="1.6" __comx="24.947" __comy="231.063" __timestamp="0x178c6a06776" d="M6.617 285.516 l-1.518 -0.526 -1.911 -1.366 -0.02 0.024 1.744 1.687 1.63 0.428" />
    <path class="write-flat-pen" transform="translate(20.055,-68.181)" fill="#FFFFFF" stroke-width="1.6" __comx="553.993" __comy="281.945" __timestamp="0x178c6a06776" d="M530.179 354.438 l0.043 -1.392 0.953 -1.456 4.987 -4.236 1.997 -1.699 -0.043 -0.055 -2.126 1.538 -5.225 4.087 -1.046 1.677 0.064 1.539" />
    <path class="write-flat-pen" transform="translate(20.055,-68.181)" fill="#FFFFFF" stroke-width="1.6" __comx="573.012" __comy="263.43" __timestamp="0x178c6a06776" d="M552.449 333.893 l0.606 -2.498 0.895 -1.951 -0.056 -0.031 -1.225 1.827 -0.705 2.527" />
    <path class="write-flat-pen" transform="translate(20.055,-68.181)" fill="#FFFFFF" stroke-width="1.6" __comx="589.605" __comy="242.341" __timestamp="0x178c6a06776" d="M567.097 313.81 l1.692 -2.546 3.42 -4.142 -0.032 -0.029 -3.729 3.916 -1.557 2.672" />
    <path class="write-flat-pen" transform="translate(20.055,-68.181)" fill="#FFFFFF" stroke-width="1.6" __comx="604.258" __comy="184.787" __timestamp="0x178c6a06776" d="M581.751 296.265 l0.668 -1.806 2.98 -4.546 1.517 -2.182 -0.035 -0.026 -1.697 2.054 -3.168 4.504 -0.528 1.917" />
    <path class="write-flat-pen" transform="translate(20.055,-68.181)" fill="#FFFFFF" stroke-width="1.6" __comx="618.264" __comy="184.787" __timestamp="0x178c6a06776" d="M594.214 279.374 l3.58 -4.256 4.524 -4.639 -0.03 -0.031 -4.75 4.436 -3.438 4.397" />
    <path class="write-flat-pen" transform="translate(20.055,-68.181)" fill="#FFFFFF" stroke-width="1.6" __comx="632.784" __comy="184.787" __timestamp="0x178c6a06776" d="M611.086 263.515 l0.072 -0.119 0.028 -0.059 0.059 -0.086 0.019 -0.027 0.091 -0.125 0.025 -0.034 0.107 -0.135 0.093 -0.114 0.079 -0.085 0.147 -0.168 0.083 -0.102 0.171 -0.188 0.132 -0.144 0.156 -0.168 0.178 -0.182 0.184 -0.185 0.179 -0.181 1.632 -1.654 -0.049 -0.051 -1.697 1.588 -0.187 0.175 -0.186 0.185 -0.181 0.184 -0.158 0.169 -0.133 0.144 -0.175 0.192 -0.084 0.103 -0.143 0.164 -0.081 0.087 -0.098 0.12 -0.109 0.14 -0.027 0.037 -0.09 0.128 -0.02 0.029 -0.065 0.099 -0.029 0.063 -0.067 0.112" />
    <path class="write-flat-pen" transform="translate(20.055,-68.181)" fill="#FFFFFF" stroke-width="1.6" __comx="646.995" __comy="184.787" __timestamp="0x178c6a06776" d="M625.785 250.09 l1.219 -1.508 1.368 -1.45 -0.035 -0.039 -1.575 1.259 -1.253 1.51" />
    <path class="write-flat-pen" transform="translate(20.055,-68.181)" fill="#FFFFFF" stroke-width="1.6" __comx="659.746" __comy="184.787" __timestamp="0x178c6a06776" d="M637.355 241.624 l0.043 -0.121 0 0.006 -0.004 0.012 -0.006 0.011 -0.004 0.007 -0.005 0.006 -0.001 0.004 0.003 0.002 0.001 0.002 0.036 -0.005 0.008 -0.001 0.013 -0.001 0.06 -0.007 0.027 -0.004 0.101 -0.013 0.111 -0.017 0.113 -0.021 0.128 -0.027 0.197 -0.062 0.142 -0.044 0.175 -0.055 0.215 -0.082 0.182 -0.067 0.244 -0.102 0.216 -0.087 0.284 -0.127 0.227 -0.096 0.295 -0.143 2.119 -1.028 -0.014 -0.033 -2.205 0.827 -0.303 0.113 -0.23 0.082 -0.288 0.107 -0.218 0.071 -0.246 0.085 -0.182 0.056 -0.212 0.072 -0.168 0.049 -0.145 0.044 -0.184 0.061 -0.108 0.027 -0.106 0.026 -0.105 0.025 -0.107 0.027 -0.029 0.01 -0.06 0.019 -0.024 0.009 -0.015 0.006 -0.052 0.024 -0.023 0.013 -0.019 0.013 -0.019 0.015 -0.015 0.014 -0.013 0.015 -0.017 0.024 -0.011 0.024 -0.006 0.018 -0.043 0.135" />
    <path class="write-flat-pen" transform="translate(20.055,-68.181)" fill="#FFFFFF" stroke-width="1.6" __comx="671.773" __comy="184.787" __timestamp="0x178c6a06776" d="M648.007 236.925 l2.565 -1.142 4.923 -1.39 -0.009 -0.036 -4.994 1.202 -2.549 1.227" />
    <path class="write-flat-pen" transform="translate(20.055,-68.181)" fill="#FFFFFF" stroke-width="1.6" __comx="682.456" __comy="184.787" __timestamp="0x178c6a06776" d="M659.875 233.641 l0.088 0 0.03 -0.002 0.004 0 0.009 0.001 0.011 0.001 0.013 0.001 0.015 0.002 0.01 0.001 0.017 0.002 0.017 0.002 0.02 0.003 0.063 0.008 0.017 0.003 0.026 0.004 0.026 0.004 0.092 0.013 0.03 0.004 0.105 0.014 0.034 0.004 0.145 0.017 0.04 0.004 0.16 0.015 0.12 0.01 0.142 0.009 0.13 0.007 0.171 0.007 0.158 0.004 0.182 0.002 0.187 0 0.192 -0.003 0.217 -0.004 0.222 -0.01 2.356 -0.109 0.001 -0.041 -2.353 -0.166 -0.222 -0.016 -0.217 -0.01 -0.191 -0.008 -0.186 -0.007 -0.181 -0.004 -0.157 -0.002 -0.17 -0.001 -0.129 0 -0.141 0.001 -0.119 0.002 -0.159 0.003 -0.039 0.001 -0.147 0.004 -0.036 0.002 -0.107 0.005 -0.032 0.003 -0.094 0.008 -0.028 0.003 -0.026 0.003 -0.02 0.002 -0.066 0.01 -0.023 0.004 -0.021 0.004 -0.018 0.004 -0.011 0.003 -0.016 0.004 -0.014 0.003 -0.013 0.003 -0.012 0.003 -0.008 0.002 -0.02 0.005 -0.077 0" />
    <path class="write-flat-pen" transform="translate(20.055,-68.181)" fill="#FFFFFF" stroke-width="1.6" __comx="694.906" __comy="184.787" __timestamp="0x178c6a06776" d="M673.509 236.213 l0.063 0.087 0.004 0.019 0.011 0.023 0.036 0.063 0.008 0.015 0.034 0.068 0.048 0.067 0.045 0.075 0.047 0.083 0.074 0.102 0.078 0.122 0.092 0.117 0.116 0.145 0.041 0.05 0.169 0.182 0.118 0.111 0.141 0.111 1.539 1.208 0.021 -0.024 -1.38 -1.387 -0.12 -0.121 -0.099 -0.106 -0.151 -0.177 -0.035 -0.044 -0.116 -0.143 -0.087 -0.104 -0.081 -0.115 -0.076 -0.093 -0.046 -0.07 -0.062 -0.087 -0.051 -0.056 -0.037 -0.053 -0.016 -0.02 -0.04 -0.047 -0.004 -0.002 -0.018 -0.029 -0.081 -0.105" />
    <path class="write-flat-pen" transform="translate(20.055,-68.181)" fill="#FFFFFF" stroke-width="1.6" __comx="705.351" __comy="184.787" __timestamp="0x178c6a06776" d="M684.228 245.385 l0.705 1.557 1.387 1.343 0.043 -0.037 -1.096 -1.522 -0.714 -1.492" />
    <path class="write-flat-pen" transform="translate(20.055,-68.181)" fill="#FFFFFF" stroke-width="1.6" __comx="715.59" __comy="184.787" __timestamp="0x178c6a06776" d="M695.249 257.93 l0.02 0.117 0.04 0.085 0.029 0.067 0.034 0.072 0.427 0.908 0.022 -0.009 -0.32 -0.951 -0.026 -0.077 -0.029 -0.072 -0.033 -0.07 -0.017 -0.096" />
    <path class="write-flat-pen" transform="translate(20.055,-68.181)" fill="#FFFFFF" stroke-width="1.6" __comx="720.795" __comy="199.85" __timestamp="0x178c6a06776" d="M698.409 265.698 l2.015 3.847 1.076 3.123 0.115 0.36 0.083 0.292 0.116 0.365 0.086 0.278 0.112 0.323 0.09 0.252 0.917 2.586 0.053 -0.018 -0.848 -2.61 -0.083 -0.255 -0.111 -0.322 -0.085 -0.276 -0.115 -0.363 -0.082 -0.292 -0.116 -0.364 -1.077 -3.136 -2.019 -3.857" />
    <path class="write-flat-pen" transform="translate(20.055,-68.181)" fill="#FFFFFF" stroke-width="1.6" __comx="727.361" __comy="223.21" __timestamp="0x178c6a06776" d="M706.606 289.953 l-0.247 3.029 0.785 2.941 1.085 2.353 0.024 -0.01 -0.829 -2.433 -0.636 -2.892 0.065 -2.976" />
    <path class="write-flat-pen" transform="translate(20.055,-68.181)" fill="#FFFFFF" stroke-width="1.6" __comx="734.028" __comy="250.59" __timestamp="0x178c6a06776" d="M713.975 317.768 l-0.39 3.365 0.405 2.275 0.031 -0.003 -0.047 -2.269 0.384 -3.324" />
    <path class="write-flat-pen" transform="translate(20.055,-68.181)" fill="#FFFFFF" stroke-width="1.6" __comx="741.917" __comy="270.341" __timestamp="0x178c6a06776" d="M721.528 338.343 l-0.004 0.17 -0.004 0.035 0 0.057 0.005 0.073 0.011 0.087 0.021 0.111 0.054 0.158 0.044 0.114 0.506 1.33 0.044 -0.012 -0.263 -1.399 -0.023 -0.122 -0.036 -0.144 -0.012 -0.086 -0.012 -0.078 -0.01 -0.063 -0.007 -0.038 -0.004 -0.023 -0.004 -0.17" />
    <path class="write-flat-pen" transform="translate(20.055,-68.181)" fill="#FFFFFF" stroke-width="1.6" __comx="56.654" __comy="419.97" __timestamp="0x178c6a06776" d="M28.791 489.103 l-0.036 -0.169 -0.039 0.398 0.139 0.105 0.118 0.016 1.482 0.047 0.469 0.007 9.79 -0.985 0.68 -0.207 1.167 -0.417 2.524 -0.895 -0.04 -0.161 -2.647 0.404 -1.215 0.181 -0.626 0.088 -9.704 0.744 -0.445 0.031 -1.515 0.208 -0.217 0.056 -0.521 0.3 -0.041 0.414 0.524 0.128" />
    <path class="write-flat-pen" transform="translate(20.055,-68.181)" fill="#FFFFFF" stroke-width="1.6" __comx="79.009" __comy="418.214" __timestamp="0x178c6a06776" d="M49.085 496.903 l-0.401 0.366 0.088 -0.116 0.277 -0.033 0.074 0.177 0.168 -0.792 0.064 -0.304 1.34 -5.109 0.231 -0.772 5.137 -16.521 0 0 0.322 -0.251 -1.199 -0.236 8.114 15.082 5.142 7.634 0.098 0.056 1.104 1.007 0.095 -0.043 -0.031 -1.494 -0.024 -0.212 -5.009 -7.77 -8.095 -15.012 -1.199 -0.236 -0.673 0.565 0 0 -5.183 17.012 -0.23 0.823 -1.101 5.269 -0.024 0.415 0.083 0.962 0.115 0.359 0.538 0.056 0.165 -0.187 0.216 -0.562" />
    <path class="write-flat-pen" transform="translate(20.055,-68.181)" fill="#FFFFFF" stroke-width="1.6" __comx="76.142" __comy="420.211" __timestamp="0x178c6a06776" d="M49.013 489.259 l0.694 -0.014 0.202 0.016 3.494 0.162 0.668 0.015 5.43 -0.66 1.256 -0.409 2.51 -0.813 -0.04 -0.176 -2.615 0.348 -1.256 0.16 -5.336 0.43 -0.607 0.004 -3.52 0.11 -0.282 0.04 -0.702 0.273" />
    <path class="write-flat-pen" transform="translate(20.055,-68.181)" fill="#FFFFFF" stroke-width="1.6" __comx="70.044" __comy="170.84" __timestamp="0x178c6a06776" d="M37.834 251.678 l-0.267 0.185 -0.027 -0.027 -0.005 0.006 0.497 0.152 0.113 -0.053 0.035 -0.009 0.215 -0.488 0.107 -0.272 0.801 -2.463 0.215 -0.659 3.175 -9.534 0 0 5.709 -14.401 0 0 0.354 -0.298 0 0 -1.297 -0.443 1.174 5.446 1.703 4.983 2.973 6.542 3.786 6.862 4.304 5.238 0.32 0.125 0.172 -0.024 0.73 -0.311 0.036 -0.113 -0.413 -0.678 0.023 -0.072 0.09 -0.016 -3.928 -5.042 -3.69 -6.688 -2.915 -6.414 -1.647 -4.82 -1.154 -5.354 -1.297 -0.443 0 0 -0.662 0.558 0 0 -5.87 14.825 0 0 -3.062 9.642 -0.191 0.704 -0.553 2.551 -0.05 0.317 -0.018 0.594 0.014 0.155 0.135 0.125 0.497 0.152 -0.005 0.006 0.007 -0.066 0.065 -0.357" />
    <path class="write-flat-pen" transform="translate(20.055,-68.181)" fill="#FFFFFF" stroke-width="1.6" __comx="66.484" __comy="174.439" __timestamp="0x178c6a06776" d="M40.116 243.464 l1.342 -0.385 0.435 -0.052 8.351 -0.388 2.756 -0.336 -0.001 -0.148 -2.771 -0.308 -8.434 0.177 -0.591 0.115 -1.348 0.649" />
    <path class="write-flat-pen" transform="translate(20.055,-68.181)" fill="#FFFFFF" stroke-width="1.6" __comx="44.081" __comy="171.579" __timestamp="0x178c6a06776" d="M19.142 240.296 l0.443 -0.036 0.052 0.01 1.388 -0.056 0.268 -0.006 4.991 -0.158 2.781 -0.312 0.002 -0.116 -2.781 -0.425 -5.04 -0.024 -0.33 0.04 -1.408 0.338 -0.131 0.05 -0.395 0.314" />
    <path class="write-flat-pen" transform="translate(20.055,-68.181)" fill="#FFFFFF" stroke-width="1.6" __comx="45.285" __comy="167.432" __timestamp="0x178c6a06776" d="M24.07 234.57 l0.009 0.609 0.013 0.14 0.236 1.262 0.064 0.311 1.083 5.098 0.735 2.647 0.181 -0.027 -0.084 -2.763 -0.896 -5.188 -0.111 -0.346 -0.47 -1.192 -0.05 -0.105 -0.241 -0.545" />
    <path class="write-flat-pen" transform="translate(20.055,-68.181)" fill="#FFFFFF" stroke-width="1.6" __comx="171.795" __comy="115.889" __timestamp="0x178c6a06776" d="M149.112 185.412 l0.346 -1.527 0.038 -0.125 0.315 -0.947 0.045 -0.311 -0.667 -0.678 -0.504 0.509 -1.928 2.846 0 0 -0.259 0.431 0 0 -2.89 4.54 0 0 1.34 0.827 3.578 -5.788 1.419 -3.169 -1.27 0.263 8.85 7.907 2.208 1.709 0.14 -0.12 -1.398 -2.509 -8.722 -8.167 -1.27 0.263 -1.375 3.073 -3.502 5.712 1.34 0.827 0 0 2.784 -4.631 0 0 0.243 -0.439 0 0 1.627 -2.877 -0.29 0.277 -0.344 -0.427 0.032 -0.189 -0.056 0.961 -0.013 0.144 -0.088 1.576" />
    <path class="write-flat-pen" transform="translate(20.055,-68.181)" fill="#FFFFFF" stroke-width="1.6" __comx="706.581" __comy="286.032" __timestamp="0x178c6a06776" d="M688.172 361.301 l-1.034 -1.304 -0.129 -0.149 -0.905 -1.148 -0.169 -0.228 -1.024 -1.532 -0.127 -0.22 -1.409 -2.482 -0.217 -0.362 0 0 -3.96 -6.247 0 0 -0.492 -1.404 0 0 -1.266 0.876 4.264 3.619 3.722 2.456 3.529 1.603 4.948 1.41 0.334 0.282 0.005 0.541 -0.912 1.639 -6.949 7.054 -1.192 2.548 0.098 0.075 2.095 -1.741 7.235 -6.959 1.229 -2.209 -0.017 -1.698 -1.157 -0.977 -5.164 -1.472 -3.307 -1.502 -3.537 -2.334 -4.194 -3.553 -1.266 0.876 0 0 0.571 1.575 0 0 4.25 6.275 0 0 0.233 0.337 1.633 2.349 0.182 0.244 1.264 1.424 0.228 0.224 1.103 0.993 0.152 0.125 1.219 1.117" />
    <path class="write-flat-pen" transform="translate(20.055,-68.181)" fill="#FFFFFF" stroke-width="1.6" __comx="706.858" __comy="313.711" __timestamp="0x178c6a06776" d="M683.406 377.729 l0.369 -0.424 -0.493 -0.029 -0.013 0.023 -0.188 1.816 -0.074 0.453 -2.899 12.503 -0.399 3.835 0.404 1.984 0.958 1.649 1.756 1.245 2.093 0.517 2.659 -0.271 4.322 -2.153 0.231 -0.24 0.322 -0.441 1.439 -2.148 -0.002 -0.002 -1.931 1.705 -0.384 0.32 -0.144 0.095 -4.147 1.792 -2.286 0.224 -1.704 -0.422 -1.389 -0.986 -0.749 -1.284 -0.338 -1.64 0.361 -3.604 2.708 -12.522 0.055 -0.542 -0.087 -1.989 -0.07 -0.12 -0.493 -0.029 -0.155 0.54" />
    <path class="write-flat-pen" transform="translate(20.055,-68.181)" fill="#FFFFFF" stroke-width="1.6" __comx="702.5" __comy="320.183" __timestamp="0x178c6a06776" d="M673.368 389.956 l0.387 -0.284 0.051 0.017 4.339 -0.091 0.855 -0.05 9.045 -1.433 0.754 -0.223 0.649 -0.205 2.565 -0.798 -0.024 -0.128 -2.679 0.192 -0.689 0.048 -0.758 0.096 -8.995 1.227 -0.796 0.063 -4.359 0.369 -0.444 0.089 -0.393 0.734" />
    <path class="write-flat-pen" fill="#FFFFFF" stroke-width="1.6" __comx="200.361" __comy="107.999" __timestamp="0x178c6a14d8e" d="M190.978 105.035 l0.341 0.029 -0.039 0.018 1.231 1.3 0.381 0.478 4.634 6.006 9.151 8.089 3.122 1.626 0.056 -0.081 -2.568 -2.314 -8.836 -8.189 -4.766 -5.797 -0.477 -0.509 -1.579 -1.191 -0.318 -0.086 -0.445 0.343" />
    <path class="write-flat-pen" fill="#FFFFFF" stroke-width="1.6" __comx="199.329" __comy="107.999" __timestamp="0x178c6a14eee" d="M195.036 122.96 l0.01 -0.696 0.079 -0.173 1.507 -3.532 0.394 -0.897 6.225 -14.563 1.141 -3.142 -0.11 -0.059 -1.996 2.736 -6.359 14.561 -0.371 0.937 -1.222 3.709 -0.07 0.409 0.34 0.805" />
    <path class="write-flat-pen" fill="#FFFFFF" stroke-width="1.6" __comx="216.876" __comy="107.999" __timestamp="0x178c6a15874" d="M214.191 100.409 l0.54 -2.079 0.024 -0.089 0.14 -0.72 -0.684 -0.247 -0.127 0.104 -1.106 3.125 -0.169 0.735 -0.712 5.15 0.054 4.86 0.938 3.556 1.759 3.307 3.154 2.497 0.469 0.126 3.14 0.773 0.043 -0.11 -2.848 -1.533 -0.268 -0.158 -2.645 -2.435 -1.566 -2.951 -0.861 -3.251 -0.079 -4.606 0.61 -5.022 0.124 -0.647 0.711 -3.002 -0.035 -0.001 -0.684 -0.247 0.18 0.663 -0.001 0.046 -0.201 2.14" />
    <path class="write-flat-pen" fill="#FFFFFF" stroke-width="1.6" __comx="228.278" __comy="107.999" __timestamp="0x178c6a15a6b" d="M222.297 97.958 l-0.453 1.192 -0.018 0.261 0.192 4.534 0.06 0.577 1.063 6.489 1.329 4.088 1.501 2.04 1.935 1.085 3.624 -0.293 0.445 -0.227 2.752 -1.465 -0.05 -0.13 -3.023 0.76 -0.328 0.071 -3.102 -0.025 -1.356 -0.785 -1.208 -1.644 -1.255 -3.79 -1.145 -6.349 -0.075 -0.521 -0.522 -4.445 -0.014 -0.133 0.114 -1.179" />
    <path class="write-flat-pen" fill="#FFFFFF" stroke-width="1.6" __comx="224.494" __comy="107.999" __timestamp="0x178c6a15b7b" d="M217.045 108.363 l0.853 -0.425 0.312 -0.042 10.687 -1.809 3.28 -1.134 -0.057 -0.218 -3.385 0.597 -10.669 1.811 -0.469 0.125 -0.785 0.778" />
    <path class="write-flat-pen" fill="#FFFFFF" stroke-width="1.6" __comx="236.304" __comy="107.999" __timestamp="0x178c6a15ccd" d="M231.445 95.253 l-0.505 0.528 0.657 0.821 0.265 0.254 4.061 3.913 0.508 0.561 1.971 2.699 1.249 2.914 0.575 3.212 -0.115 2.977 -0.885 3.557 -0.896 1.864 -1.459 2.355 0.095 0.087 2.308 -1.762 1.261 -2.023 1.009 -3.869 0.126 -3.286 -0.643 -3.527 -1.397 -3.206 -2.15 -2.863 -0.613 -0.645 -4.349 -3.712 -0.301 -0.216 -0.873 -0.554 0.101 0.528" />
    <path class="write-flat-pen" fill="#FFFFFF" stroke-width="1.6" __comx="259.472" __comy="107.999" __timestamp="0x178c6a1617c" d="M253.57 103.325 l-0.435 0.225 0.205 0.503 0.157 0.034 5.008 -0.037 0.498 -0.017 3.409 -0.204 3.397 -0.442 -0.002 -0.066 -3.415 -0.248 -3.42 -0.043 -0.507 0.02 -4.964 0.383 -0.128 0.019 0.205 0.503 0.185 -0.454" />
    <path class="write-flat-pen" fill="#FFFFFF" stroke-width="1.6" __comx="261.154" __comy="107.999" __timestamp="0x178c6a16262" d="M254.63 109.672 l1.212 0.509 0.466 0.074 8.01 -0.137 3.36 -0.633 -0.014 -0.139 -3.386 0.06 -7.926 0.029 -0.358 -0.024 -1.243 -0.176" />
    <path class="write-flat-pen" fill="#FFFFFF" stroke-width="1.6" __comx="291.041" __comy="107.999" __timestamp="0x178c6a16542" d="M291.381 104 l-0.857 -1.057 -0.265 -0.155 -2.507 -0.709 -2.107 0.223 -1.82 1.143 -1.5 2.285 -0.834 3.001 -0.058 3.341 0.867 3.009 1.731 2.508 2.6 1.561 2.597 0.54 2.767 -0.293 5.379 -2.534 0.45 -0.359 0.341 -0.316 2.48 -2.296 -0.071 -0.096 -2.923 1.696 -0.389 0.223 -0.401 0.226 -5.218 2.124 -2.344 0.237 -2.161 -0.449 -2.154 -1.283 -1.458 -2.074 -0.777 -2.601 0.029 -2.98 0.705 -2.668 1.205 -1.943 1.351 -0.929 1.66 -0.273 2.291 0.411 0.099 0.033 1.005 0.749" />
    <path class="write-flat-pen" fill="#FFFFFF" stroke-width="1.6" __comx="307.398" __comy="107.999" __timestamp="0x178c6a16721" d="M307.85 109.014 l0.032 -1.169 -0.036 -0.226 -0.72 -1.444 -1.525 -0.969 -1.598 -0.045 -1.552 0.993 -1.291 2.019 -0.475 2.61 0.387 2.195 1.106 1.807 1.872 1.215 2.735 0.148 3.034 -1.179 2.283 -1.862 1.382 -2.143 0.624 -2.878 -0.608 -2.012 -1.552 -1.836 -2.374 -1.334 -2.279 -0.331 -1.988 0.602 -1.617 1.975 -0.051 0.183 -0.471 2.535 0.08 0.029 1.294 -2.23 0.011 0.016 1.47 -1.332 1.362 -0.342 1.716 0.271 1.918 1.081 1.193 1.413 0.42 1.375 -0.475 2.271 -1.113 1.747 -1.936 1.591 -2.55 1.013 -2.089 -0.082 -1.338 -0.841 -0.845 -1.337 -0.336 -1.732 0.354 -2.163 0.999 -1.622 1.03 -0.7 0.966 -0.018 1.112 0.603 0.701 1.028 0.03 0.066 0.295 1.092" />
    <path class="write-flat-pen" fill="#FFFFFF" stroke-width="1.6" __comx="320.679" __comy="107.999" __timestamp="0x178c6a168da" d="M323.328 102.878 l-1.102 -1.276 -0.212 -0.16 -2.108 -0.921 -2.062 0.047 -1.394 0.892 -0.566 1.632 0.863 1.885 7.391 4.273 1.633 1.493 0.671 1.369 -0.011 0.997 -0.806 1.152 -1.909 0.823 -2.675 0.077 -5.053 -1.716 -2.375 -1.137 -0.075 0.095 1.828 2.165 5.441 2.054 3.232 -0.095 2.533 -1.126 1.244 -1.871 -0.032 -1.745 -0.967 -1.846 -1.94 -1.714 -7.206 -4.097 -0.521 -1.105 0.261 -0.819 0.785 -0.536 1.537 -0.11 1.889 0.627 0.095 0.048 1.289 0.983" />
    <path class="write-flat-pen" fill="#FFFFFF" stroke-width="1.6" __comx="343.307" __comy="107.999" __timestamp="0x178c6a16c63" d="M342.499 94.462 l-0.052 -0.575 -0.398 -0.133 -0.166 0.072 -1.236 1.745 -0.285 0.588 -1.637 4.512 -0.878 6.365 0.232 4.09 1.01 3.316 1.678 2.547 3.44 1.928 0.698 0.151 0.62 0.064 3.214 0.331 0.026 -0.123 -3.069 -1.008 -0.559 -0.187 -0.504 -0.198 -2.923 -1.934 -1.395 -2.145 -0.911 -2.979 -0.238 -3.806 0.73 -6.14 1.389 -4.423 0.202 -0.515 0.837 -1.754 0.016 -0.046 -0.398 -0.133 0.331 0.473" />
    <path class="write-flat-pen" fill="#FFFFFF" stroke-width="1.6" __comx="354.409" __comy="107.999" __timestamp="0x178c6a17105" d="M354.524 107.617 l0.064 -0.221 0.179 -0.45 -0.071 -0.073 -0.549 0.261 -0.096 0.351" />
    <path class="write-flat-pen" fill="#FFFFFF" stroke-width="1.6" __comx="361.881" __comy="107.999" __timestamp="0x178c6a171a6" d="M361.566 108.212 l-0.116 0.461 0.22 -0.141 0.91 -0.767 -0.04 -0.069 -1.128 0.411 -0.23 0.144 0.384 0.461" />
    <path class="write-flat-pen" fill="#FFFFFF" stroke-width="1.6" __comx="372.162" __comy="107.999" __timestamp="0x178c6a17249" d="M370.277 106.87 l1.901 -0.117 1.9 -1.218 -0.027 -0.052 -2.008 0.779 -1.798 0.11" />
    <path class="write-flat-pen" fill="#FFFFFF" stroke-width="1.6" __comx="379.178" __comy="107.999" __timestamp="0x178c6a172e0" d="M375.88 104.762 l0.677 0.586 0.206 0.019 2.782 0.083 2.928 0.183 0.005 -0.034 -2.888 -0.615 -2.796 -0.217 -0.066 0.006 -0.721 -0.228" />
    <path class="write-flat-pen" fill="#FFFFFF" stroke-width="1.6" __comx="399.637" __comy="107.999" __timestamp="0x178c6a174c3" d="M392.181 88.082 l0.753 0.482 0.147 0.134 2.382 2.195 0.557 0.532 4.2 4.423 2.593 3.619 1.955 4.124 0.883 3.817 -0.318 5.796 -0.252 0.925 -0.764 2.037 -1.218 2.973 0.126 0.065 1.717 -2.732 1.102 -1.958 0.421 -1.078 0.628 -6.132 -0.928 -4.196 -2.082 -4.393 -2.757 -3.796 -4.41 -4.423 -0.636 -0.547 -2.656 -1.974 -0.289 -0.162 -0.961 -0.209" />
    <path class="write-flat-pen" fill="#FFFFFF" stroke-width="1.6" __comx="133.899" __comy="525.968" __timestamp="0x178c6a19a67" d="M127.721 532.272 l1.452 5.927 0.132 0.394 0.77 2.104 0 0 0.817 0.571 0 0 0.661 -0.335 0.353 -1.958 -3.651 -15.546 -1.063 -7.277 0.104 -2.883 0.733 -1.464 1.647 -1.178 2.415 -0.552 3.108 0.354 2.884 1.043 1.554 1.138 0.977 1.327 1.329 2.412 0.117 -0.037 -0.327 -2.886 -0.98 -1.838 -1.938 -1.471 -3.262 -1.188 -3.548 -0.406 -2.971 0.683 -2.197 1.591 -1.02 2.106 -0.073 3.337 1.154 7.457 3.899 15.341 -0.131 1.782 0.661 -0.335 0 0 -0.704 -0.269 0 0 -0.801 -1.818 -0.141 -0.359 -1.777 -5.815" />
    <path class="write-flat-pen" fill="#FFFFFF" stroke-width="1.6" __comx="127.748" __comy="525.968" __timestamp="0x178c6a19b93" d="M117.742 525.215 l0.372 1.117 0.456 0.228 5.231 0.487 0.987 -0.102 8.935 -1.473 0.74 -0.2 3.29 -0.88 -0.03 -0.182 -3.398 0.233 -0.756 0.049 -8.95 1.16 -0.852 0.105 -4.975 -0.13 -0.028 0.017 -0.524 -0.68" />
    <path class="write-flat-pen" fill="#FFFFFF" stroke-width="1.6" __comx="153.097" __comy="525.968" __timestamp="0x178c6a19da0" d="M152.767 511.764 l-0.725 -0.536 -0.362 0.151 -1.76 1.718 -0.276 0.437 -1.375 3.368 -0.995 5.301 -0.074 4.477 0.785 4.328 1.424 3.887 2.157 3.371 3.624 2.651 0.54 0.161 3.196 0.903 0.068 -0.161 -2.875 -1.662 -0.352 -0.216 -3.106 -2.664 -1.923 -3.039 -1.338 -3.617 -0.764 -4.062 0.035 -4.222 0.862 -5.082 1.155 -3.216 0.145 -0.276 1.327 -1.756 -0.115 0.029 0.547 0.089" />
    <path class="write-flat-pen" fill="#FFFFFF" stroke-width="1.6" __comx="166.307" __comy="525.968" __timestamp="0x178c6a19f13" d="M161.389 514.119 l-0.56 0.828 -0.078 0.284 -0.28 3.232 -0.008 0.588 0.131 9.763 0.71 4.437 1.078 2.174 1.63 1.579 2.361 0.8 2.533 -0.449 0.43 -0.203 2.816 -1.371 -0.044 -0.131 -3.073 0.603 -0.362 0.063 -2.145 0.105 -1.747 -0.656 -1.23 -1.194 -0.878 -1.76 -0.679 -4.125 -0.308 -9.655 -0.021 -0.554 -0.063 -3.15 0 -0.13 0.23 -0.871" />
    <path class="write-flat-pen" fill="#FFFFFF" stroke-width="1.6" __comx="163.678" __comy="525.968" __timestamp="0x178c6a1a00b" d="M154.634 525.604 l1.825 0.301 0.505 0.012 12.448 -1.722 3.31 -0.943 -0.021 -0.118 -3.412 0.262 -12.399 1.515 -0.402 0.029 -1.803 0.023" />
    <path class="write-flat-pen" fill="#FFFFFF" stroke-width="1.6" __comx="177.014" __comy="525.968" __timestamp="0x178c6a1a11d" d="M172.098 511.063 l-0.648 0.1 0.804 0.915 0.25 0.291 3.89 5.139 2.832 4.914 1.19 3.292 0.79 5.248 -0.09 3.782 -1.554 4.673 -0.34 0.488 -0.871 0.943 -2.24 2.185 0.06 0.076 2.656 -1.697 1.103 -0.827 0.581 -0.626 1.944 -4.961 0.122 -4.12 -0.831 -5.501 -1.285 -3.531 -2.979 -5.077 -4.188 -5.093 -0.356 -0.329 -1.065 -0.68 -0.358 0.684" />
    <path class="write-flat-pen" fill="#FFFFFF" stroke-width="1.6" __comx="199.744" __comy="525.968" __timestamp="0x178c6a1a322" d="M193.48 520.305 l1.652 0.425 0.373 0.055 7.15 -0.355 3.352 -0.618 -0.009 -0.098 -3.389 -0.007 -7.072 0.153 -0.292 -0.016 -1.684 -0.08" />
    <path class="write-flat-pen" fill="#FFFFFF" stroke-width="1.6" __comx="201.039" __comy="525.968" __timestamp="0x178c6a1a3f6" d="M194.069 527.016 l1.568 1.192 0.637 0.128 8.384 0.067 3.351 -0.525 -0.009 -0.137 -3.358 -0.085 -8.271 -0.306 -0.383 -0.049 -1.584 -0.811" />
    <path class="write-flat-pen" fill="#FFFFFF" stroke-width="1.6" __comx="236.336" __comy="525.968" __timestamp="0x178c6a1a750" d="M222.79 537.108 l-0.026 1.697 0.437 0.21 0.135 -0.064 1.282 -1.875 0.29 -0.561 6.623 -16.433 0.323 -0.877 0 0 1.176 -4.175 0 0 0.397 -5.432 0 0 -1.465 0.078 0.565 3.456 2.41 6.549 4.316 8.937 3.139 5.121 2.475 2.854 2.299 0.895 2.735 -0.447 0.009 -0.186 -2.426 -0.695 -1.644 -0.874 -2.154 -2.494 -3.034 -4.94 -4.275 -8.786 -2.367 -6.332 -0.592 -3.307 -1.465 0.078 0 0 -0.283 5.296 0 0 -1.094 3.994 0 0 -0.294 0.814 -6.283 16.513 -0.219 0.513 -0.899 1.89 0.007 0.023 0.437 0.21 -0.307 -1.669" />
    <path class="write-flat-pen" fill="#FFFFFF" stroke-width="1.6" __comx="233.616" __comy="525.968" __timestamp="0x178c6a1a85f" d="M227.277 526.401 l1.264 -0.004 0.285 0.041 3.604 0.232 4.458 -0.859 3.137 -1.163 -0.036 -0.139 -3.266 0.519 -4.359 0.554 -3.489 -0.036 -0.362 -0.006 -1.306 0.354" />
    <path class="write-flat-pen" fill="#FFFFFF" stroke-width="1.6" __comx="264.128" __comy="525.968" __timestamp="0x178c6a1ad12" d="M263.796 524.683 l0.311 0.284 -0.057 -0.04 0.033 1.27 0.173 -0.333 0.175 -0.085 -0.051 -0.227 0.128 -0.121 -1.026 0.046 0.307 0.34 0.084 1.109 0.153 0.074 1.291 -1.384 -0.845 -0.994 -1.026 0.046 -0.507 0.763 0.827 1.567 1.125 -0.197 0.225 -0.429 -0.447 -1.719 -0.189 -0.205 -0.583 -0.042" />
    <path class="write-flat-pen" fill="#FFFFFF" stroke-width="1.6" __comx="292.247" __comy="525.968" __timestamp="0x178c6a1b005" d="M294.056 524.149 l0.322 -1.109 0.023 -0.106 -0.114 -1.22 -0.213 -0.342 -2.218 -1.124 -0.672 0.017 -2.173 0.622 -2.239 1.797 -1.79 2.946 -1.107 3.746 -0.156 2.91 0.73 2.667 1.351 1.799 2.57 1.516 3.111 0.566 5.67 -1.602 0.568 -0.364 0.448 -0.365 2.61 -2.125 -0.112 -0.178 -3.045 1.433 -0.493 0.227 -0.442 0.189 -5.257 1.18 -2.492 -0.471 -2.054 -1.214 -0.979 -1.303 -0.583 -2.127 0.13 -2.469 0.983 -3.38 1.517 -2.566 1.77 -1.504 1.706 -0.596 0.198 -0.029 1.812 0.585 -0.018 -0.061 0.353 0.867 0.009 -0.001 0.022 1.154" />
    <path class="write-flat-pen" fill="#FFFFFF" stroke-width="1.6" __comx="307.528" __comy="525.968" __timestamp="0x178c6a1b244" d="M307.482 524.511 l0.319 -0.705 -0.079 -0.327 -0.897 -0.85 -0.448 -0.124 -1.868 0.184 -1.727 1.183 -1.543 2.367 -1.031 3.603 -0.118 3.232 0.866 3.063 1.493 1.751 1.951 0.823 2.445 -0.104 2.61 -1.049 2.71 -2.313 1.766 -2.654 1.038 -3.231 -0.2 -2.47 -1.189 -2.112 -2.324 -2.022 -2.581 -1.135 -1.981 -0.019 -1.271 1.542 -0.014 0.429 0.134 2.124 0.123 0.021 0.814 -1.966 0.063 -0.037 0.784 -0.553 0.993 0.051 2.068 0.909 1.932 1.681 0.881 1.565 0.146 1.804 -0.872 2.718 -1.518 2.286 -2.339 2.006 -2.115 0.86 -1.822 0.086 -1.286 -0.538 -1.031 -1.208 -0.706 -2.5 0.091 -2.803 0.889 -3.218 1.218 -1.98 1.175 -0.914 1.302 -0.292 0.022 -0.018 0.688 0.308 -0.014 -0.128 0.031 0.575" />
    <path class="write-flat-pen" fill="#FFFFFF" stroke-width="1.6" __comx="324.671" __comy="525.968" __timestamp="0x178c6a1b45a" d="M324.541 520.615 l-0.369 -1.251 -0.108 -0.155 -1.571 -1.122 -0.414 -0.11 -1.699 0.071 -1.521 1.053 -0.602 1.458 0.401 1.578 1.704 1.433 5.582 2.525 2.41 1.71 0.933 1.242 0.205 1.133 -0.357 0.834 -1.352 0.978 -2.57 0.703 -3.969 -0.082 -2.538 0.056 -0.037 0.158 2.381 1.205 4.346 0.262 3.087 -0.86 1.923 -1.426 0.677 -1.671 -0.393 -1.922 -1.303 -1.683 -2.718 -1.905 -5.538 -2.485 -1.221 -1.002 -0.197 -0.693 0.251 -0.687 0.872 -0.681 1.163 -0.163 0.085 0.003 1.47 0.669 -0.022 -0.044 0.64 1.033" />
    <path class="write-flat-pen" fill="#FFFFFF" stroke-width="1.6" __comx="344.015" __comy="526.495" __timestamp="0x178c6a1bc40" d="M343.195 504.69 l0.515 -0.45 -0.246 -0.465 -0.215 -0.034 -0.844 0.898 -0.217 0.388 -2.593 7.63 -0.231 1.563 -0.554 10.023 0.262 7.042 1.022 6.225 1.512 4.938 3.434 5.125 0.708 0.6 0.665 0.458 2.699 1.861 0.106 -0.125 -2.283 -2.354 -0.539 -0.561 -0.513 -0.57 -2.99 -5.023 -1.396 -4.676 -0.989 -6.043 -0.26 -6.886 0.517 -9.897 0.191 -1.389 2.215 -7.549 0.1 -0.268 0.323 -0.75 -0.125 -0.035 -0.246 -0.465 -0.243 0.639" />
    <path class="write-flat-pen" fill="#FFFFFF" stroke-width="1.6" __comx="396.521" __comy="526.495" __timestamp="0x178c6a1c282" d="M396.211 507.076 l-0.005 -0.171 0.183 -0.063 -0.743 -0.184 -0.04 0.048 -0.62 1.046 -0.211 0.397 -2.881 7.052 -0.38 1.223 -1.228 4.931 -0.633 6.885 0.518 5.208 1.067 3.612 2.024 3.716 2.43 2.51 3.19 1.757 0.627 0.184 0.559 0.106 3.276 0.616 0.045 -0.138 -3.017 -1.418 -0.485 -0.232 -0.455 -0.235 -2.761 -1.857 -2.104 -2.244 -1.842 -3.382 -0.977 -3.305 -0.49 -4.906 0.597 -6.615 1.155 -4.785 0.334 -1.137 2.522 -7.093 0.148 -0.396 0.364 -1.228 0.005 -0.116 -0.743 -0.184 0.14 0.133 -0.005 0.264" />
    <path class="write-flat-pen" fill="#FFFFFF" stroke-width="1.6" __comx="414.91" __comy="526.495" __timestamp="0x178c6a1c5c7" d="M410.279 513.4 l0.382 -0.122 -0.571 -0.216 -0.001 0.083 0.105 1.644 0.012 0.436 -0.126 4.145 -1.42 10.07 0.01 4.061 0.879 2.292 1.596 1.524 2.159 0.776 3.994 -0.936 0.586 -0.355 0.851 -0.678 2.426 -2.132 -0.078 -0.115 -2.862 1.465 -0.921 0.448 -0.422 0.171 -3.449 0.531 -1.439 -0.534 -1.105 -1.055 -0.657 -1.695 -0.035 -3.669 1.285 -10.07 -0.076 -4.286 -0.064 -0.53 -0.433 -1.704 -0.069 -0.128 -0.571 -0.216 -0.291 0.276" />
    <path class="write-flat-pen" fill="#FFFFFF" stroke-width="1.6" __comx="412.541" __comy="526.495" __timestamp="0x178c6a1c6c1" d="M404.39 524.891 l2.554 -0.979 0.398 -0.042 10.165 -0.327 3.47 -0.234 0.007 -0.209 -3.473 -0.459 -10.258 0.156 -0.606 0.101 -2.55 1.35" />
    <path class="write-flat-pen" fill="#FFFFFF" stroke-width="1.6" __comx="433.974" __comy="526.495" __timestamp="0x178c6a1c7fb" d="M428.216 526.86 l1.899 0.143 0.389 0.029 5.937 0.065 3.298 -0.646 -0.014 -0.136 -3.315 0.011 -5.884 -0.172 -0.405 0.005 -1.913 0.202" />
    <path class="write-flat-pen" fill="#FFFFFF" stroke-width="1.6" __comx="458.263" __comy="526.495" __timestamp="0x178c6a1cb4e" d="M450.34 523.956 l0.001 -1.209 -0.049 -0.216 -0.722 -0.506 -0.405 0.364 -1.486 2.656 -0.183 0.532 -0.992 3.839 -0.096 3.235 0.686 2.005 1.679 1.713 2.277 0.777 2.723 -0.165 2.924 -1.032 3.442 -2.208 2.632 -2.721 2.075 -3.315 0.906 -2.767 -0.21 -2.183 -0.982 -1.381 -1.768 -0.774 -2.272 0.455 -2.33 1.822 -1.555 2.206 -1.506 4.048 -0.455 3.78 0.538 2.591 1.062 1.627 1.82 1.184 2.447 0.42 5.864 -1.642 0.605 -0.384 0.487 -0.381 2.619 -2.051 -0.068 -0.115 -3.062 1.299 -0.54 0.225 -0.502 0.188 -5.465 1.227 -1.788 -0.307 -1.261 -0.82 -0.713 -1.091 -0.424 -2.039 0.401 -3.331 1.367 -3.676 1.299 -1.843 1.845 -1.442 1.405 -0.282 0.9 0.394 0.478 0.672 0.137 1.425 -0.741 2.264 -1.883 3.007 -2.385 2.466 -3.129 2.008 -2.537 0.896 -2.186 0.135 -1.624 -0.55 -1.17 -1.183 -0.49 -1.396 0.044 -2.79 0.829 -3.656 0.115 -0.396 1.053 -2.555 -0.249 0.212 -0.063 -0.2 -0.028 -0.137 0.335 1.12" />
    <path class="write-flat-pen" fill="#FFFFFF" stroke-width="1.6" __comx="477.405" __comy="526.495" __timestamp="0x178c6a1cd15" d="M471.404 512.191 l0.119 -0.801 0 0 -0.599 0.394 1.797 0.882 0.411 0.284 3.51 2.802 2.631 2.942 2.043 3.416 0.978 2.996 0.373 4.034 -0.657 3.674 -1.414 3.226 -2.429 2.875 -0.429 0.411 -0.418 0.384 -2.508 2.284 0.141 0.189 2.904 -1.754 0.504 -0.303 0.571 -0.401 2.849 -2.906 1.65 -3.565 0.734 -4.051 -0.409 -4.401 -1.086 -3.312 -2.221 -3.672 -2.854 -3.102 -3.75 -2.786 -0.576 -0.345 -2.025 -0.621 -0.599 0.394 0 0 0.066 0.807" />
    <path class="write-flat-pen" fill="#FFFFFF" stroke-width="1.6" __comx="493.881" __comy="526.495" __timestamp="0x178c6a1cfa5" d="M486.646 500.946 l0.865 0.46 0.138 0.15 2.402 2.931 0.569 0.767 4.218 6.31 2.541 5.045 1.343 3.982 0.927 5.72 0.052 4.381 -0.765 5.547 -2.489 7.628 -0.457 0.876 -1.155 1.79 -1.814 2.647 0.104 0.085 2.254 -2.302 1.46 -1.651 0.629 -0.974 2.816 -7.773 0.832 -5.78 -0.051 -4.595 -0.974 -5.939 -1.436 -4.18 -2.68 -5.183 -4.445 -6.301 -0.65 -0.793 -2.703 -2.777 -0.311 -0.235 -1.096 -0.205" />
    <path class="write-flat-pen" fill="#FFFFFF" stroke-width="1.6" __comx="359.914" __comy="520.571" __timestamp="0x178c6a1ecef" d="M352.522 521.346 l0.289 -1.384 0.012 -0.047 0.323 -1.218 -0.108 -0.213 -0.766 -0.057 -1.036 0.908 -0.258 0.366 -1.828 3.41 -1.035 3.813 0.02 2.392 0.922 2.067 1.63 1.135 2.204 0.216 2.243 -0.691 2.532 -1.709 1.554 -1.899 0 0 0.317 -1.445 0 0 -1.405 -0.672 -0.771 0.962 -0.074 2.434 1.088 2.35 1.767 1.487 2.302 0.703 2.465 -0.225 2.624 -1.158 1.896 -1.735 1.474 -2.64 0.809 -3.128 -0.188 -4.515 -1.117 -4.502 -1.836 -1.748 -1.842 0.637 0.006 0.212 1.265 0.55 0.958 1.151 0.975 3.928 0.171 4.116 -0.698 2.699 -1.248 2.234 -1.511 1.383 -2.144 0.946 -1.891 0.173 -1.689 -0.516 -1.245 -1.047 -0.78 -1.684 0.046 -1.521 0.436 -0.544 -1.405 -0.672 0 0 -0.235 1.071 0 0 -1.163 1.422 -2.14 1.446 -1.709 0.528 -1.472 -0.142 -0.928 -0.642 -0.614 -1.36 -0.029 -1.852 0.877 -3.47 1.566 -3.281 0.137 -0.239 0.729 -1.049 -0.766 -0.057 -0.035 -0.103 0.043 0.925 -0.001 0.062 0.054 1.422" />
    <path class="write-flat-pen" fill="#FFFFFF" stroke-width="1.6" __comx="522.082" __comy="526.589" __timestamp="0x178c6a1fceb" d="M515.727 526.916 l-0.125 0.257 0.872 0.142 0.293 0.011 8.395 -0.415 3.408 -0.687 -0.02 -0.172 -3.453 0.112 -8.362 0.528 -0.282 0.036 -0.858 0.19 0.132 0.257" />
    <path class="write-flat-pen" fill="#FFFFFF" stroke-width="1.6" __comx="524.167" __comy="523.747" __timestamp="0x178c6a1fe15" d="M522.461 522.572 l-0.478 -0.079 0.015 0.855 0.115 0.387 2.452 7.717 1.637 2.941 0.15 -0.062 -0.905 -3.205 -2.58 -7.648 -0.141 -0.337 -0.33 -0.738 -0.33 0.317" />
    <path class="write-flat-pen" fill="#FFFFFF" stroke-width="1.6" __comx="554.563" __comy="513.733" __timestamp="0x178c6a20291" d="M555.332 510.781 l0.116 -1.421 0.024 -0.224 -0.701 -1.685 -0.46 -0.183 -1.866 -0.096 -2.475 0.915 -2.071 1.705 -1.278 2.071 -0.17 1.694 0.884 1.613 8.34 5.385 2.891 2.529 1.557 2.196 0.99 2.879 0.116 2.436 -0.567 2.403 -1.176 1.885 -1.856 1.343 -2.154 0.669 -2.057 -0.029 -1.77 -0.634 -1.412 -1.229 -0.532 -1.25 0.19 -1.901 1.062 -1.648 1.874 -1.265 2.683 -0.768 2.74 -0.151 3.39 -0.072 0.015 -0.122 -3.33 -0.922 -3.007 -0.2 -3.133 0.833 -2.352 1.567 -1.438 2.226 -0.263 2.663 0.826 1.939 1.901 1.648 2.285 0.809 2.553 0.027 2.618 -0.828 2.28 -1.677 1.435 -2.35 0.642 -2.839 -0.156 -2.836 -1.131 -3.256 -1.771 -2.494 -3.089 -2.713 -8.148 -5.231 -0.524 -0.927 0.084 -0.961 0.981 -1.63 1.712 -1.47 2.03 -0.871 1.479 -0.092 -0.025 -0.031 0.757 1.061 0.01 0.087 0.217 1.432" />
    <path class="write-flat-pen" fill="#FFFFFF" stroke-width="1.6" __comx="598.508" __comy="529.135" __timestamp="0x178c6a207f1" d="M588.93 495.348 l-0.275 -1.157 0.643 -0.932 1.659 -0.822 3.918 -0.669 8.569 0.004 2.974 0.496 0.909 0.773 0.57 1.553 -0.031 2.623 -2.085 10.178 -1.611 11.964 -0.564 10.246 0.197 8.093 1.606 12.489 0.211 5.771 -0.865 5.618 -0.579 1 -0.927 0.375 -11.123 -1.156 -3.503 0.575 0.002 0.161 3.437 0.495 11.406 1.493 1.769 -0.745 0.955 -1.703 0.876 -6.034 -0.241 -5.969 -1.619 -12.479 -0.202 -7.965 0.523 -10.14 1.56 -11.872 2.031 -10.268 0.004 -2.969 -0.775 -2.054 -1.408 -1.184 -3.399 -0.558 -8.77 0.059 -4.153 0.833 -1.951 1.133 -0.771 1.503 0.556 1.393" />
    <path class="write-flat-pen" fill="#FFFFFF" stroke-width="1.6" __comx="649.324" __comy="529.135" __timestamp="0x178c6a20b78" d="M648.063 515.193 l0.733 -0.922 0.075 -0.175 -0.098 -1.333 -0.259 -0.312 -1.363 -0.794 -1.876 0.096 -1.601 1 -1.124 1.956 -0.15 1.943 1.056 2.159 2.665 2.319 6.614 3.797 2.031 1.766 1.081 1.984 0.203 1.643 -0.435 1.742 -1.134 1.532 -2.004 1.078 -3.018 0.416 -3.322 -0.565 -2.832 -1.156 -0.464 -0.436 0.005 -0.333 0.149 -0.202 0.773 -0.676 1.923 -1.563 -0.053 -0.089 -2.31 0.934 -1.016 0.459 -0.518 0.356 -0.749 1.436 1.334 1.465 3.315 1.352 3.739 0.633 3.547 -0.495 2.565 -1.395 1.512 -2.084 0.545 -2.329 -0.302 -2.201 -1.356 -2.457 -2.337 -2.041 -6.619 -3.793 -2.337 -2.019 -0.759 -1.529 0.08 -1.225 0.761 -1.39 0.991 -0.679 1.181 -0.151 0.964 0.383 -0.03 -0.061 0.344 0.809 0.03 -0.05 -0.415 1.037" />
    <path class="write-flat-pen" fill="#FFFFFF" stroke-width="1.6" __comx="667.646" __comy="529.135" __timestamp="0x178c6a20c7c" d="M667.215 514.741 l-1.032 0.82 -0.173 0.393 -0.388 4.341 0.077 0.867 2.788 15.578 1.016 2.436 0.102 -0.019 0.064 -2.632 -2.676 -15.545 -0.091 -0.721 0.032 -4.113 0.013 -0.1 0.66 -0.924" />
    <path class="write-flat-pen" fill="#FFFFFF" stroke-width="1.6" __comx="668.399" __comy="529.135" __timestamp="0x178c6a20d3d" d="M661.86 525.326 l4.141 0.563 5.607 -0.617 3.331 -0.771 -0.015 -0.126 -3.402 0.052 -5.51 0.303 -4.065 -0.264" />
    <path class="write-flat-pen" fill="#FFFFFF" stroke-width="1.6" __comx="679.559" __comy="529.135" __timestamp="0x178c6a20eee" d="M681.477 528.463 l-0.646 -1.859 -0.243 -0.247 -1.7 -0.829 -1.992 0.382 -1.592 1.472 -0.858 2.164 0.255 2.154 1.14 1.387 1.765 0.432 2.033 -0.682 0 0 1.822 -1.944 -1.257 -0.409 0.291 2.395 1.667 1.824 2.475 0.663 0.038 -0.076 -1.787 -1.481 -0.989 -1.519 -0.247 -1.984 -1.257 -0.409 -1.565 1.683 0 0 -1.29 0.438 -0.899 -0.213 -0.583 -0.692 -0.184 -1.391 0.586 -1.564 1.067 -1.043 1.225 -0.294 1.216 0.461 -0.033 -0.045 0.878 1.525" />
    <path class="write-flat-pen" fill="#FFFFFF" stroke-width="1.6" __comx="689.249" __comy="529.135" __timestamp="0x178c6a21060" d="M685.242 530.604 l-0.542 0.78 -0.038 0.24 0.088 3.25 0.061 0.352 0.59 1.557 1.38 -0.003 2.265 -5.43 0.941 -1.233 0.406 -0.069 0.454 0.425 1.363 5.494 1.536 2.929 0.088 -0.028 -0.402 -3.233 -1.247 -5.937 -1.328 -1.225 -1.691 0.298 -1.398 1.851 -1.917 4.815 0.411 0.023 -0.289 -0.584 -0.042 -0.166 -0.42 -3.08 -0.013 -0.034 0.168 -0.799" />
    <path class="write-flat-pen" fill="#FFFFFF" stroke-width="1.6" __comx="703.719" __comy="529.135" __timestamp="0x178c6a21217" d="M704.11 516.09 l-0.454 1.247 -0.04 0.398 0.082 7.631 0.036 0.805 0.456 4.273 0.908 2.588 1.271 0.896 0.844 -0.633 0 0 0.118 -0.984 -0.986 -1.2 -2.15 -0.902 -2.193 0.034 -1.69 0.934 -1.533 1.926 -0.704 2.253 0.307 1.946 1.096 1.376 2.099 0.837 3.848 -0.863 0.581 -0.343 0.92 -0.707 2.44 -2.036 -0.038 -0.059 -2.85 1.378 -1 0.456 -0.436 0.154 -3.313 0.478 -1.332 -0.536 -0.62 -0.758 -0.214 -1.224 0.499 -1.684 1.173 -1.518 1.138 -0.647 1.562 -0.033 1.571 0.663 0.76 0.945 0.118 -0.984 0 0 -0.049 0.043 -0.12 -0.066 -0.755 -2.027 -0.501 -4.079 -0.047 -0.755 -0.418 -7.574 -0.01 -0.289 0.128 -1.243" />
    <path class="write-flat-pen" fill="#FFFFFF" stroke-width="1.6" __comx="714.932" __comy="529.135" __timestamp="0x178c6a213b8" d="M715.085 531.183 l0.737 -0.984 0.064 -0.172 -0.135 -1.316 -1.284 -0.798 -1.712 0.371 -1.538 1.547 -1.036 2.275 -0.163 2.42 0.813 1.798 1.666 0.838 2.167 -0.407 0 0 3.095 -3.119 -1.253 -0.478 0.159 2.18 0.865 1.112 0.311 0.137 1.974 0.679 0.03 -0.047 -1.458 -1.494 -0.043 -0.087 -0.303 -0.74 -0.068 -1.823 -1.253 -0.478 -2.795 2.76 0 0 -1.209 0.226 -0.744 -0.364 -0.46 -0.974 0.083 -1.798 0.775 -1.847 1.048 -1.171 0.871 -0.264 0.492 0.223 0.19 0.563 0.043 -0.112 -0.4 1.087" />
    <path class="write-flat-pen" fill="#FFFFFF" stroke-width="1.6" __comx="726.167" __comy="529.135" __timestamp="0x178c6a214b5" d="M722.059 535.594 l-0.563 0.825 -0.026 0.048 0.068 -0.204 0.144 -0.165 0.488 0.547 0.042 -0.15 1.222 -5.606 0.083 -0.246 0.734 -1.456 1.211 -0.873 2.248 -0.529 0.231 -0.045 3.178 -0.526 -0.002 -0.091 -3.197 -0.393 -0.313 -0.033 -2.692 0.306 -1.758 1.258 -0.904 1.871 -0.133 0.425 -0.904 5.778 -0.003 0.181 0.488 0.547 0.3 -0.168 0.068 -0.204 0.005 -0.044 0.235 -0.938" />
    <path class="write-flat-pen" fill="#FFFFFF" stroke-width="1.6" __comx="736.79" __comy="529.135" __timestamp="0x178c6a21663" d="M738.03 515.65 l-0.256 1.541 -0.044 0.48 0.03 6.463 0.044 0.826 0.464 5.292 0 0 0.922 2.944 0 0 0.761 0.394 0 0 0.932 -0.873 -0.607 -1.294 -1.928 -1.444 -2.011 -0.543 -2.217 0.434 -1.806 1.278 -1.109 1.89 0.064 1.797 1.336 1.494 2.423 0.648 4.782 -1.41 0.346 -0.321 2.218 -2.214 -0.081 -0.113 -2.799 1.409 -0.225 0.091 -4.241 0.95 -1.604 -0.401 -0.714 -0.738 -0.072 -0.855 0.706 -1.311 1.31 -0.991 1.646 -0.355 1.489 0.399 1.445 1.127 0.413 1.017 0.932 -0.873 0 0 -0.263 -0.141 0 0 -0.744 -2.267 0 0 -0.556 -5.123 -0.064 -0.785 -0.371 -6.402 -0.01 -0.443 -0.063 -1.551" />
    <path class="write-flat-pen" fill="#FFFFFF" stroke-width="1.6" __comx="780.215" __comy="529.135" __timestamp="0x178c6a21913" d="M772.388 539.295 l-0.003 0.687 0.441 0.168 0.726 -0.768 0.177 -0.423 1.063 -3.932 0.16 -0.926 0.407 -5.217 -1.761 -11.978 0.05 -2.938 0.523 -0.919 1.027 -0.621 2.029 -0.189 2.752 0.516 3.231 1.419 2.757 2.221 0.162 0.188 0.409 0.594 1.773 2.71 0.072 -0.034 -0.98 -3.1 -0.269 -0.74 -0.222 -0.424 -2.867 -2.717 -3.595 -1.626 -3.15 -0.592 -2.607 0.248 -1.681 1.022 -0.914 1.622 -0.053 3.462 1.798 11.935 -0.296 5 -0.112 0.823 -0.729 3.907 -0.052 0.268 -0.099 0.455 0.316 0.131 -0.225 -0.29" />
    <path class="write-flat-pen" fill="#FFFFFF" stroke-width="1.6" __comx="776.047" __comy="529.135" __timestamp="0x178c6a219f8" d="M767.963 527.745 l0.7 -0.193 0.12 -0.016 4.833 -0.55 0.564 -0.006 6.169 0.266 0.543 -0.008 3.466 -0.044 0.01 -0.107 -3.404 -0.654 -0.542 -0.105 -6.212 -0.58 -0.697 0.02 -4.935 0.918 -0.248 0.108 -0.6 0.525" />
    <path class="write-flat-pen" fill="#FFFFFF" stroke-width="1.6" __comx="788.555" __comy="529.135" __timestamp="0x178c6a21b59" d="M788.703 529.893 l0.241 0.099 0.107 -0.258 -0.144 -0.192 -0.846 -0.423 -0.368 -0.02 -1.552 0.367 -1.624 1.484 -0.772 1.85 0.153 2.053 1.247 1.611 2.13 0.801 2.378 -0.26 2.005 -1.103 1.414 -1.882 0.292 -1.917 -0.737 -1.538 -1.755 -0.138 -0.282 0.283 -0.887 1.4 0.072 0.088 1.547 -0.593 -0.101 0.134 0.352 0.211 0.159 0.386 -0.16 1.057 -0.967 1.307 -1.436 0.811 -1.716 0.217 -1.423 -0.495 -0.766 -0.926 -0.144 -1.307 0.486 -1.321 1.136 -1.184 1.098 -0.422 0.086 -0.026 0.65 0.037 -0.035 -0.082 0.166 0.034 0.241 -0.147" />
    <path class="write-flat-pen" fill="#FFFFFF" stroke-width="1.6" __comx="800.034" __comy="529.135" __timestamp="0x178c6a21c8c" d="M796.183 535.244 l-0.585 1.268 -0.042 0.133 0.001 -0.005 0.823 0.265 0.376 -0.383 0.119 -0.375 1.356 -5.327 0.798 -1.547 0.862 -0.636 1.839 -0.203 2.76 0.152 0.022 -0.09 -2.656 -1.189 -2.45 -0.122 -1.537 1.095 -1.023 2.035 -1.178 5.533 -0.043 0.247 -0.027 0.417 0.823 0.265 0.001 -0.005 -0.011 -0.066 0.248 -1.309" />
    <path class="write-flat-pen" fill="#FFFFFF" stroke-width="1.6" __comx="815.584" __comy="529.135" __timestamp="0x178c6a21ed6" d="M807.181 527.557 l-0.503 0.527 -0.069 0.221 -0.63 3.397 -0.036 0.431 -0.129 2.973 0 0 0.571 1.029 0 0 1.151 0.09 1.049 -1.237 1.808 -5.015 0.877 -1.065 0 0 -1.154 -0.064 1.726 2.675 1.67 1.075 2.059 -0.402 3.398 -3.287 0.531 -0.165 0.585 0.504 2.922 7.233 2.225 2.521 0.123 -0.076 -1.187 -3.027 -2.921 -7.49 -1.436 -1.191 -1.552 0.473 -3.383 3.148 -1.061 0.194 -0.913 -0.578 -1.584 -2.391 -1.154 -0.064 0 0 -1.035 1.256 -1.821 5.005 -0.859 1.068 1.151 0.09 0 0 -0.432 -0.661 0 0 0.013 -2.567 0.013 -0.366 0.285 -3.361 -0.006 -0.062 0.151 -0.58" />
    <path class="write-flat-pen" fill="#FFFFFF" stroke-width="1.6" __comx="229.108" __comy="606.424" __timestamp="0x178c6a2a8cc" d="M227.031 633.487 l0.252 0.636 0.536 -0.114 0.093 -0.321 0.559 -13.672 0.067 -2.045 2.648 -36.973 -0.046 -0.58 -0.061 -0.448 -0.446 -3.283 -0.076 0.005 -0.039 3.313 -0.006 0.443 -0.01 0.535 -2.972 36.934 -0.059 2.069 -0.211 13.629 -0.025 0.279 0.536 -0.114 -0.514 -0.451" />
    <path class="write-flat-pen" fill="#FFFFFF" stroke-width="1.6" __comx="231.921" __comy="579.49" __timestamp="0x178c6a2aa9b" d="M226.762 581.421 l-0.366 -1.682 -0.608 -0.19 -0.208 0.14 -3.865 5.89 -0.069 0.292 0 0 0.854 0.634 1.061 -0.53 6.378 -9.16 1.304 -1.145 0.656 0.105 1.447 1.694 6.018 11.521 0.465 0.523 2.268 2.529 0.101 -0.074 -1.707 -2.937 -0.309 -0.542 -5.743 -11.75 -1.865 -2.174 -1.73 -0.27 -1.875 1.654 -6.265 9.067 -0.762 0.456 0.854 0.634 0 0 0.01 -0.093 3.385 -5.773 0.073 -0.076 -0.608 -0.19 0.671 1.585" />
    <path class="write-flat-pen" fill="#FFFFFF" stroke-width="1.6" __comx="187.111" __comy="652.266" __timestamp="0x178c6a2ad5d" d="M179.026 659.388 l0.508 -0.536 0.093 -0.198 0.968 -3.106 0.176 -0.689 0 0 3.517 -17.989 0 0 -1.33 0.096 3.282 9.685 4.673 10.169 2.517 2.517 2.011 -0.198 0.021 -0.152 -1.487 -0.684 -1.862 -2.278 -4.552 -9.901 -3.298 -9.603 -1.33 0.096 0 0 -3.191 18.028 0 0 -0.133 0.663 -0.632 3.144 -0.025 0.125 -0.192 0.653" />
    <path class="write-flat-pen" fill="#FFFFFF" stroke-width="1.6" __comx="184.567" __comy="652.266" __timestamp="0x178c6a2ae2d" d="M178.448 650.195 l-0.269 0.404 1.382 -0.081 0.545 -0.059 7.622 -0.835 3.317 -0.608 -0.011 -0.12 -3.374 0.026 -7.663 0.658 -0.575 0.108 -1.335 0.42 0.204 0.559" />
    <path class="write-flat-pen" fill="#FFFFFF" stroke-width="1.6" __comx="202.326" __comy="652.266" __timestamp="0x178c6a2b06f" d="M195.062 649.305 l-0.431 2.755 0.016 0.386 0 0 0.302 4.061 0 0 0.555 1.077 0 0 1.158 -0.007 0.895 -1.523 1.112 -5.071 0.638 -1.057 0 0 -1.029 0.227 0.398 0.272 1.01 4.466 1.14 1.489 1.806 -1.088 2.366 -4.386 0.628 -0.51 -0.03 -0.013 2.141 6.153 2.161 2.429 0.122 -0.076 -1.147 -2.881 -2.037 -6.735 -1.44 -0.65 -1.592 1.295 -2.307 4.295 -0.304 0.193 -0.138 -0.162 -1.087 -4.703 -0.876 -0.59 -1.029 0.227 0 0 -0.758 1.265 -1.078 5.108 -0.727 1.375 1.158 -0.007 0 0 -0.523 -0.796 0 0 -0.499 -3.766 0 0 -0.035 -0.289 0.081 -2.706" />
    <path class="write-flat-pen" fill="#FFFFFF" stroke-width="1.6" __comx="215.237" __comy="652.266" __timestamp="0x178c6a2b1f0" d="M215.733 667.982 l-0.661 -1.881 -0.103 -0.384 -1.701 -10.34 -0.06 -0.769 -0.108 -4.125 0.417 -1.902 0.449 -0.392 0.973 0.009 1.545 0.896 0.878 1.175 0.321 1.405 -0.374 1.26 -1.018 0.87 -2.345 0.126 -2.556 -0.507 -0.072 0.168 2.374 1.621 3.151 0.041 1.735 -1.506 0.578 -2.039 -0.502 -2.05 -1.246 -1.62 -2.113 -1.185 -1.833 0.006 -1.146 1.021 -0.519 2.485 0.152 4.314 0.077 0.862 2.064 10.398 0.176 0.47 0.959 1.796" />
    <path class="write-flat-pen" fill="#FFFFFF" stroke-width="1.6" __comx="362.29" __comy="590.731" __timestamp="0x178c6a2b524" d="M360.579 615.327 l0.103 -1.397 0.016 -0.229 0.169 -5.662 0.014 -1.098 0.45 -20.5 0.764 -7.725 2.373 -10.779 0.007 -0.068 0.308 -3.307 -0.08 -0.016 -0.959 3.18 -0.016 0.051 -2.715 10.756 -0.835 7.837 -0.378 20.56 0.014 1.109 0.169 5.662 0.016 0.246 0.243 1.397" />
    <path class="write-flat-pen" fill="#FFFFFF" stroke-width="1.6" __comx="362.392" __comy="570.633" __timestamp="0x178c6a2b728" d="M361.864 572.033 l-0.382 -2.941 -0.047 -0.159 -0.679 -1.169 -1.492 0.057 -4.981 6.936 0 0 -0.141 0.24 0 0 1.138 0.743 4.034 -5.286 2.171 -2.012 0.408 -0.001 0.867 1 2.342 6.203 2.297 3.274 0.456 0.368 2.668 2.112 0.122 -0.121 -2.083 -2.691 -0.281 -0.377 -1.897 -3.211 -2.363 -6.308 -1.47 -1.696 -1.635 0.003 -2.68 2.483 -4.045 5.439 1.138 0.743 0 0 0.101 -0.191 0 0 4.399 -6.689 0.501 -0.132 0.476 0.588 0.015 0.026 0.712 2.831" />
    <path class="write-flat-pen" fill="#FFFFFF" stroke-width="1.6" __comx="349.831" __comy="651.572" __timestamp="0x178c6a2bee9" d="M345.521 640.723 l-0.285 3.558 -0.027 0.64 -0.415 8.352 -0.03 0.289 0 0 -0.134 1.754 0 0 1.237 0.169 1.088 -4.618 0.412 -5.477 -0.367 -4.316 -0.955 -3.362 -1.863 -2.428 0 0 -0.629 1.169 9.532 0.699 3.503 -0.02 0.03 -0.204 -3.387 -1.043 -9.559 -0.876 -0.629 1.169 0 0 1.752 2.172 0.863 2.971 0.359 4.076 -0.377 5.271 -0.995 4.536 1.237 0.169 0 0 0.035 -1.737 0 0 0.02 -0.301 0.074 -8.401 -0.012 -0.639 -0.045 -3.56" />
    <path class="write-flat-pen" fill="#FFFFFF" stroke-width="1.6" __comx="351.717" __comy="651.572" __timestamp="0x178c6a2bff6" d="M346.225 643.828 l1.046 0.809 0.475 0.007 6.19 -0.645 3.268 -0.239 0.007 -0.172 -3.304 -0.512 -6.221 0.659 -0.188 0.026 -0.996 -0.4" />
    <path class="write-flat-pen" fill="#FFFFFF" stroke-width="1.6" __comx="360.265" __comy="651.572" __timestamp="0x178c6a2c16a" d="M356.149 649.343 l-0.228 2.219 0.047 0.444 1.033 3.572 0.823 0.393 0.934 -1.599 0.02 -6.702 0.419 -1.251 2.072 -0.53 0.166 -0.004 0.31 0.028 2.838 0.292 0.024 -0.094 -2.633 -1.099 -0.321 -0.132 -0.38 -0.102 -3.168 0.373 -0.757 2.293 0.087 6.598 -0.129 0.369 0.649 0.312 -1.168 -2.915 -0.063 -0.294 -0.106 -2.158" />
    <path class="write-flat-pen" fill="#FFFFFF" stroke-width="1.6" __comx="367.894" __comy="651.572" __timestamp="0x178c6a2c2f6" d="M364.641 651.999 l0.402 0.357 0.276 0.017 2.139 -0.69 0.352 -0.243 1.167 -1.339 0.104 -1.541 -1.339 -0.79 -1.668 0.528 -1.583 1.795 -0.796 2.166 0.209 2.111 1.353 1.45 3.73 -0.13 0.395 -0.177 2.714 -1.304 -0.041 -0.133 -2.978 0.445 -0.258 0.024 -2.927 -0.178 -0.599 -0.632 -0.147 -1.299 0.569 -1.625 1.137 -1.341 0.745 -0.261 0.175 0.073 0.015 0.36 -0.746 0.982 -0.118 0.1 -1.759 0.902 0.021 0.023 -0.39 0.008" />
    <path class="write-flat-pen" fill="#FFFFFF" stroke-width="1.6" __comx="377.519" __comy="651.572" __timestamp="0x178c6a2c56f" d="M377.076 653.233 l0.155 -1.3 0.027 -0.212 -0.704 -2.614 -0.511 -0.296 -1.465 -0.117 -1.574 1.077 -1.35 2.203 -0.723 2.815 0.633 1.767 1.547 0.05 1.797 -1.904 -0.529 -0.282 -0.43 7.568 0.341 4.622 0.872 1.621 1.352 0.66 1.77 -0.328 2.59 -1.879 2.194 -2.876 1.039 -2.719 -0.01 -2 -0.928 -2.115 -2.396 -1.015 -0.377 0.258 -1.174 1.262 0.064 0.115 1.689 -0.345 -0.166 0.139 1.143 0.743 0.557 1.293 0.007 1.376 -0.848 2.23 -1.91 2.515 -2.112 1.547 -0.919 0.181 -0.449 -0.211 -0.49 -0.892 -0.322 -4.197 0.44 -8.407 -1.294 -0.698 -2.121 2.256 0.092 0.011 -0.168 -0.424 0.534 -2.198 1.061 -1.805 0.945 -0.704 0.745 -0.003 -0.124 -0.081 0.823 1.915 0.01 0.079 0.187 1.326" />
    <path class="write-flat-pen" fill="#FFFFFF" stroke-width="1.6" __comx="386.15" __comy="651.572" __timestamp="0x178c6a2c658" d="M386.51 658.193 l-1.075 0.823 -0.099 0.226 0.053 0.758 0.78 0.527 0.066 -0.038 0.057 -0.734 0.043 -0.318 -0.064 0.142 0.693 -0.927" />
    <path class="write-flat-pen" fill="#FFFFFF" stroke-width="1.6" __comx="462.292" __comy="594.943" __timestamp="0x178c6a2c9b8" d="M461.617 609.3 l-0.607 5.205 -0.008 -0.031 -0.036 0.096 0.585 0.109 0.194 -3.981 0.121 -0.959 1.463 -13.886 0.447 -20.108 -0.322 -3.429 -0.097 -0.001 -0.372 3.415 -0.778 20.05 -1.3 13.858 -0.097 1.005 0.138 4.032 0.585 0.109 -0.036 0.096 0.074 -0.248 0.272 -5.313" />
    <path class="write-flat-pen" fill="#FFFFFF" stroke-width="1.6" __comx="463.425" __comy="571.238" __timestamp="0x178c6a2cba3" d="M463.317 570.308 l-0.622 -0.982 -1.556 0.421 -6.37 7.451 0 0 0.903 0.107 0.111 0.211 2.874 -4.819 1.459 -1.47 0.393 0.173 3.06 3.35 4.647 1.996 0.885 -0.026 3.195 -0.126 0.012 -0.157 -3.141 -0.597 -0.677 -0.142 -4.096 -2.081 -3.141 -3.322 -1.464 -0.531 -2.091 2.205 -3.156 5.499 0.159 0.309 0.903 0.107 0 0 5.964 -7.509 0.919 -0.384 0.537 0.539" />
    <path class="write-flat-pen" fill="#FFFFFF" stroke-width="1.6" __comx="456.504" __comy="648.519" __timestamp="0x178c6a2d028" d="M457.235 638.027 l-0.696 3.068 0 0 -0.085 0.876 -1.226 19.315 1.037 0.191 0.007 -0.499 -0.014 -1.271 -0.153 -0.037 -0.58 1.101 -0.272 0.387 1.037 0.191 1.087 -19.318 0.037 -0.83 0 0 0.369 -3.08" />
    <path class="write-flat-pen" fill="#FFFFFF" stroke-width="1.6" __comx="462.638" __comy="648.519" __timestamp="0x178c6a2d1be" d="M458.261 640.571 l-0.896 -0.747 0.015 -0.01 -0.158 -2.673 0.075 -0.208 0.95 -1.612 1.625 -1.25 2.156 -0.661 2.093 0.029 2.015 0.712 1.272 1.417 0.383 1.989 -0.634 2.579 -1.719 2.867 -2.182 2.115 -2.024 1.03 -1.476 0.204 -0.555 -0.14 -0.938 -0.681 -0.149 0.088 0.29 1.414 1.085 0.758 2.166 -0.289 2.419 -1.242 2.452 -2.395 1.912 -3.201 0.749 -3.071 -0.517 -2.651 -1.755 -1.954 -2.554 -0.904 -2.534 -0.021 -2.583 0.83 -1.97 1.609 -1.038 1.989 -0.152 0.557 0.548 3.054 0.213 0.273 1.202 0.541" />
    <path class="write-flat-pen" fill="#FFFFFF" stroke-width="1.6" __comx="474.728" __comy="648.519" __timestamp="0x178c6a2d398" d="M470.473 632.644 l-0.877 1.496 -0.057 0.504 0.529 19.387 -0.004 0.705 0 0 0.011 3.361 0 0 0.792 0.929 0 0 1.239 -0.2 3.897 -9.22 0.954 -1.271 0.142 -0.027 0.593 0.55 0.743 2.649 0.04 4.753 0.767 2.502 0.151 -0.012 0.362 -2.533 0.162 -4.903 -0.906 -3.255 -1.43 -1.344 -1.46 0.241 -1.435 1.891 -3.945 9.405 1.239 -0.2 0 0 -0.461 -0.503 0 0 -0.038 -2.817 0 0 -0.003 -0.725 -0.876 -19.342 0 -0.26 0.512 -1.46" />
    <path class="write-flat-pen" fill="#FFFFFF" stroke-width="1.6" __comx="485.255" __comy="648.519" __timestamp="0x178c6a2d53c" d="M488.053 649.592 l-0.106 -1.536 -0.106 -0.346 -0.941 -1.252 -1.67 -0.569 -1.806 0.521 -1.862 1.765 -1.241 2.297 -0.306 2.121 0.677 1.376 1.703 0.618 1.938 -0.636 2.702 -2.232 -0.243 -0.023 0.006 4.657 1.415 1.658 0.7 -0.25 0.296 -0.26 1.287 -1.215 -0.053 -0.093 -1.702 0.486 -0.253 0.053 0.203 -0.115 -0.403 -0.763 -0.008 -5.502 -1.713 -0.176 -2.962 2.462 -1.192 0.4 -0.684 -0.238 -0.231 -0.449 0.19 -1.435 0.992 -1.895 1.444 -1.413 1.097 -0.358 0.968 0.259 0.698 0.739 0.044 0.076 0.416 1.393" />
    <path class="write-flat-pen" fill="#FFFFFF" stroke-width="1.6" __comx="493.423" __comy="648.519" __timestamp="0x178c6a2d6b9" d="M495.83 645.128 l-0.726 -0.916 -0.262 -0.116 -2.153 0.27 -0.335 0.297 -0.788 1.338 0.252 1.844 3.677 3.174 0.469 0.922 -0.249 0.881 -1.127 0.887 -1.577 0.41 -1.66 -0.181 -0.499 -0.358 -0.139 -0.167 -0.099 0.007 0.933 -1.353 -0.063 -0.08 -1.539 0.578 -0.37 0.219 -0.308 1.473 1.477 1.178 2.383 0.263 2.17 -0.574 1.766 -1.416 0.516 -1.944 -0.901 -1.691 -3.545 -2.964 -0.169 -0.864 0.383 -0.808 -0.078 0.059 1.491 -0.484 -0.128 -0.062 0.839 0.557" />
    <path class="write-flat-pen" fill="#FFFFFF" stroke-width="1.6" __comx="502.851" __comy="648.519" __timestamp="0x178c6a2d878" d="M499.438 648.054 l-0.752 0.904 0.017 0.422 1.671 1.882 0.515 0.176 2.046 0.114 2.35 -0.868 1.424 -1.371 0.306 -1.647 -1.354 -0.93 -1.934 0.537 -1.823 1.732 -1.377 2.494 -0.728 3.033 0.309 2.528 1.925 2.318 0.489 0.224 2.711 1.163 0.054 -0.089 -2.287 -1.863 -0.25 -0.224 -1.322 -2.053 -0.21 -1.92 0.628 -2.606 1.182 -2.136 1.413 -1.339 0.965 -0.268 0.064 0.042 -0.053 0.317 -0.886 0.881 -1.818 0.724 -1.615 -0.007 -0.087 -0.015 -1.469 -1.218 -0.003 0.176 0.333 -0.841" />
    <path class="write-flat-pen" fill="#FFFFFF" stroke-width="1.6" __comx="466.573" __comy="677.377" __timestamp="0x178c6a2daff" d="M465.223 671.872 l0.76 -1.703 0.077 -0.238 0.001 -1.229 -1.02 -0.792 -2.01 0.449 -1.775 1.471 -0.707 1.675 0.691 1.64 6.116 2.374 2.277 1.428 0.999 1.327 0.462 1.683 -0.2 1.639 -0.776 1.423 -1.521 1.184 -1.975 0.648 -1.969 -0.052 -1.492 -0.598 -0.763 -0.84 -0.008 -1.466 0.103 -0.274 0.461 -0.793 1.475 -2.345 -0.071 -0.06 -2.068 1.866 -0.712 0.71 -0.361 0.516 -0.369 2.332 1.364 1.671 2.12 0.852 2.528 0.05 2.481 -0.839 1.971 -1.561 1.045 -1.968 0.24 -2.216 -0.632 -2.223 -1.332 -1.758 -2.625 -1.637 -5.683 -2.195 -0.233 -0.528 0.326 -0.825 1.241 -1.112 1.162 -0.381 0.266 0.086 0.137 0.592 -0.006 0.084 -0.426 1.785" />
    <path class="write-flat-pen" fill="#FFFFFF" stroke-width="1.6" __comx="479.788" __comy="677.377" __timestamp="0x178c6a2dc9f" d="M475.05 666.034 l-0.317 1.879 -0.001 0.455 0.491 8.967 0.045 1.003 0 0 0.357 6.9 0 0 0.617 1.408 0 0 1.371 0.008 2.4 -5.108 1.366 -1.802 0.252 -0.083 0.387 0.362 1.47 5.409 1.321 0.104 0.037 -0.071 -0.381 -0.793 -1.122 -5.415 -1.321 -1.255 -1.531 0.459 -1.779 2.293 -2.465 5.258 1.371 0.008 0 0 -0.542 -1.141 0 0 -0.428 -6.617 0 0 -0.06 -1.013 -0.831 -8.942 -0.038 -0.376 -0.014 -1.845" />
    <path class="write-flat-pen" fill="#FFFFFF" stroke-width="1.6" __comx="488.652" __comy="677.377" __timestamp="0x178c6a2dd4c" d="M488.061 682.417 l-0.664 2.36 -0.051 0.369 0.015 1.492 0.798 0.61 0.668 -0.09 0.566 -1.11 0.563 -1.938 -0.041 -0.018 -1.024 1.674 -0.815 0.868 0.668 -0.09 -0.402 -0.387 -0.069 -0.979 0.014 -0.263 0.318 -2.385" />
    <path class="write-flat-pen" fill="#FFFFFF" stroke-width="1.6" __comx="489.785" __comy="677.377" __timestamp="0x178c6a2ddd7" d="M490.292 670.834 l-0.699 -0.176 -0.372 0.348 0.052 1.027 1.005 1.647 0.07 -0.03 -0.457 -1.75 0.016 -0.906 -0.372 0.348 0.718 -0.056" />
    <path class="write-flat-pen" fill="#FFFFFF" stroke-width="1.6" __comx="501.09" __comy="677.377" __timestamp="0x178c6a2df17" d="M496.074 680.78 l-0.001 2.506 0.037 0.168 0.361 0.84 0 0 0.685 0.118 0.796 -0.573 0.222 -3.218 -1.378 -7.024 0.069 -2.321 0.582 -0.694 1.01 -0.311 4.74 0.955 0.267 0.086 0.125 0.04 3.131 1.035 0.037 -0.075 -2.745 -1.827 -0.119 -0.079 -0.345 -0.196 -5.136 -1.39 -1.777 0.54 -1.156 1.395 -0.06 2.964 1.489 7.002 -0.032 2.609 -0.313 0.422 0.685 0.118 0 0 -0.468 -0.681 -0.01 -0.016 -0.332 -2.418" />
    <path class="write-flat-pen" fill="#FFFFFF" stroke-width="1.6" __comx="497.514" __comy="677.377" __timestamp="0x178c6a2dfc4" d="M492.059 677.48 l2.435 -0.34 0.335 -0.023 4.931 -0.23 3.307 -0.174 0.003 -0.098 -3.308 -0.357 -4.982 0.009 -0.411 0.046 -2.411 0.686" />
    <path class="write-flat-pen" fill="#FFFFFF" stroke-width="1.6" __comx="508.091" __comy="677.377" __timestamp="0x178c6a2e09f" d="M507.752 668.4 l-0.547 1.336 -0.109 0.458 -0.413 4.834 1.358 9.236 1.344 3.181 0.114 -0.032 -0.475 -3.353 -1.165 -9.078 0.147 -4.681 0.038 -0.37 0.235 -1.379" />
    <path class="write-flat-pen" fill="#FFFFFF" stroke-width="1.6" __comx="508.447" __comy="677.377" __timestamp="0x178c6a2e149" d="M503.157 677.771 l7.465 -0.398 3.156 -0.806 -0.021 -0.139 -3.211 0.174 -7.429 0.291" />
    <path class="write-flat-pen" fill="#FFFFFF" stroke-width="1.6" __comx="573.334" __comy="605.955" __timestamp="0x178c6a2e429" d="M588.006 631.732 l-0.657 0.581 0.085 -0.028 -1.701 -1.307 -0.465 -0.521 -20.191 -27.28 -2.881 -4.609 -1.7 -3.947 -0.823 -4.597 0.485 -5.096 0.207 -0.894 0.178 -0.736 0.778 -3.178 -0.124 -0.042 -1.323 2.992 -0.314 0.707 -0.344 0.953 -0.829 5.321 0.789 4.957 1.778 4.207 2.96 4.756 20.497 27.213 0.635 0.621 2.156 1.221 0.481 -0.018 0.597 -1.068" />
    <path class="write-flat-pen" fill="#FFFFFF" stroke-width="1.6" __comx="564.012" __comy="579.865" __timestamp="0x178c6a2e66e" d="M560.945 578.789 l-1.507 0.779 -0.341 0.309 -3.891 5.123 0 0 -0.108 0.16 0 0 -0.68 1.162 0.972 0.624 -0.972 -0.624 0.972 0.624 3.363 -4.355 0 0 1.669 -4.29 0 0 -1.228 -0.029 0.578 1.829 1.821 2.405 2.259 1.587 5.583 1.238 0.806 -0.036 3.353 -0.162 0.009 -0.153 -3.311 -0.553 -0.698 -0.124 -5.157 -1.485 -1.877 -1.319 -1.572 -2.041 -0.558 -1.597 -1.228 -0.029 0 0 -1.568 4.137 0 0 -3.17 4.276 0.972 0.624 -0.972 -0.624 0.972 0.624 0.574 -1.168 0 0 0.065 -0.106 0 0 3.561 -5.26 0.218 -0.252 1.267 -1.019" />
    <path class="write-flat-pen" fill="#FFFFFF" stroke-width="1.6" __comx="624.097" __comy="648.584" __timestamp="0x178c6a2f8bc" d="M616.984 642.726 l-0.072 -0.931 0.016 -0.019 0.423 -0.317 -0.186 -0.03 1.732 1.836 2.397 3.954 3.48 7.982 1.286 1.499 1.677 -0.194 1.47 -2.883 1.879 -13.197 0.798 -2.92 -0.119 -0.056 -1.821 2.629 -2.109 13.108 -1.004 2.038 -0.226 0.046 -0.706 -0.784 -3.512 -7.842 -2.593 -4.096 -2.139 -1.955 -0.653 -0.165 -0.691 1.202 0.066 0.279 0.39 0.873" />
    <path class="write-flat-pen" fill="#FFFFFF" stroke-width="1.6" __comx="638.748" __comy="648.584" __timestamp="0x178c6a2fa6f" d="M633.419 648.911 l0.42 1.07 0.35 0.194 3.527 -0.052 0.63 -0.241 2.506 -1.43 1.534 -1.705 0.336 -1.495 -0.783 -1.297 -1.767 -0.535 -2.103 0.349 -1.94 1.166 -1.609 2.028 -1.008 2.809 -0.096 2.21 0.674 1.792 1.479 1.161 2.086 0.231 3.192 -0.938 0.452 -0.25 2.783 -1.56 -0.036 -0.084 -3.054 0.925 -0.426 0.124 -2.985 0.565 -1.524 -0.198 -0.942 -0.732 -0.475 -1.235 0.068 -1.778 0.874 -2.452 1.351 -1.703 1.558 -0.94 1.605 -0.273 1.073 0.316 0.317 0.506 -0.153 0.754 -1.189 1.384 -2.24 1.399 -0.405 0.184 -3.187 0.373 -0.064 -0.008 -0.61 -0.76" />
    <path class="write-flat-pen" fill="#FFFFFF" stroke-width="1.6" __comx="651.274" __comy="648.584" __timestamp="0x178c6a2fba9" d="M647.194 653.511 l-0.103 1.905 0.016 0.129 0.066 0.445 0 0 0.959 -0.188 -0.007 -6.177 -0.09 -0.618 -0.261 -2.431 0.25 -0.698 0.829 -0.325 3.18 0.192 0.439 0.029 0.424 0.011 3.246 0.087 0.017 -0.12 -3.138 -0.837 -0.404 -0.109 -0.447 -0.109 -3.497 -0.517 -1.722 0.651 -0.566 1.585 0.317 2.768 0.089 0.563 0.349 6.086 0.959 -0.188 0 0 -0.217 -0.314 -0.007 0 -0.236 -1.834" />
    <path class="write-flat-pen" fill="#FFFFFF" stroke-width="1.6" __comx="659.725" __comy="648.584" __timestamp="0x178c6a2fc9b" d="M658.682 636.8 l-0.185 2.794 0.007 0.658 0.409 15.029 0.706 1.932 1.265 0.785 0.069 -0.06 -0.465 -1.201 -0.345 -1.656 -0.707 -14.868 -0.052 -0.635 -0.128 -2.773" />
    <path class="write-flat-pen" fill="#FFFFFF" stroke-width="1.6" __comx="659.967" __comy="648.584" __timestamp="0x178c6a2fd61" d="M653.299 646.061 l1.243 1.408 0.449 0.221 3.511 0.945 4.447 -0.245 0.538 -0.171 3.148 -1.021 -0.018 -0.085 -3.291 0.35 -0.481 0.046 -4.216 -0.015 -3.299 -0.768 -0.226 -0.087 -1.346 -1.059" />
    <path class="write-flat-pen" fill="#FFFFFF" stroke-width="1.6" __comx="669.383" __comy="648.584" __timestamp="0x178c6a2fe30" d="M668.367 647.939 l-0.246 1.384 -0.031 0.379 0.078 4.419 0.027 0.22 0.502 1.281 0.793 0.268 0.714 -0.613 0.12 -0.502 0.354 -1.81 -0.056 -0.021 -0.918 1.599 -0.143 0.202 -0.639 0.208 0.793 0.268 -0.456 -1.157 -0.009 -0.047 -0.42 -4.333 -0.025 -0.338 -0.084 -1.386" />
    <path class="write-flat-pen" fill="#FFFFFF" stroke-width="1.6" __comx="670.481" __comy="648.584" __timestamp="0x178c6a2feab" d="M670.14 641.463 l-0.309 0.956 1.26 2.575 0.04 -0.016 -0.836 -2.585 0.19 -0.833" />
    <path class="write-flat-pen" fill="#FFFFFF" stroke-width="1.6" __comx="677.528" __comy="648.584" __timestamp="0x178c6a2ffaf" d="M679.321 647.674 l0.046 -0.776 -0.14 -0.309 -2.032 -1.148 -0.645 -0.003 -2.044 0.574 -1.373 1.198 -1.166 2.328 -0.365 2.834 0.514 2.108 1.276 1.625 2.133 0.866 2.445 -0.248 3.136 -1.857 0.28 -0.316 2.068 -2.401 -0.061 -0.067 -2.585 1.832 -0.253 0.17 -2.958 1.398 -1.878 0.164 -1.521 -0.615 -0.897 -1.131 -0.401 -1.604 0.296 -2.388 0.946 -1.928 0.971 -0.881 1.614 -0.528 0.228 -0.019 1.709 0.631 0.001 -0.051 0.252 0.602" />
    <path class="write-flat-pen" fill="#FFFFFF" stroke-width="1.6" __comx="685.562" __comy="648.584" __timestamp="0x178c6a3014a" d="M686.35 650.669 l0.563 -1.156 -0.011 -0.339 -0.726 -1.18 -1.541 -0.341 -1.841 0.892 -1.397 1.761 -0.503 1.884 0.686 1.294 1.513 0.226 2.916 -2.099 0.243 0.017 1.813 3.497 0.435 0.063 1.715 0.051 0.013 -0.046 -1.506 -0.821 0.016 -0.05 -1.665 -3.859 -1.406 -0.144 -2.902 2.023 -0.353 -0.047 -0.159 -0.271 0.278 -1.164 1.031 -1.388 1.238 -0.672 0.794 0.099 0.502 0.565 0.012 -0.049 -0.19 1.111" />
    <path class="write-flat-pen" fill="#FFFFFF" stroke-width="1.6" __comx="695.208" __comy="648.584" __timestamp="0x178c6a3020a" d="M692.936 636.851 l-0.127 3.668 0.038 0.808 0.971 7.15 1.866 5.92 1.78 2.929 0.143 -0.065 -1.021 -3.198 -1.54 -5.85 -1.072 -7.004 -0.067 -0.732 -0.203 -3.633" />
    <path class="write-flat-pen" fill="#FFFFFF" stroke-width="1.6" __comx="631.766" __comy="676.529" __timestamp="0x178c6a30509" d="M632.937 676.656 l1.314 -2.321 0.062 -0.187 -0.464 -1.538 -0.474 -0.205 -4.359 0.153 -2.95 0.846 -1.197 1.108 -0.356 1.585 0.964 1.795 2.396 1.542 6.672 2.609 2.526 1.552 0.513 0.943 -0.112 0.499 -1.139 0.711 -2.379 0.183 -4.129 -0.597 -1.26 -0.481 -0.035 0.058 -1.062 -1.255 -0.124 0.054 0.197 1.632 0.106 0.382 1.738 1.016 4.524 0.646 2.896 -0.245 1.921 -1.255 0.294 -1.578 -0.95 -1.673 -2.932 -1.785 -6.662 -2.597 -2.003 -1.283 -0.583 -1.066 0.152 -0.726 0.674 -0.646 2.515 -0.785 4.001 -0.401 -0.057 -0.043 0.549 0.878 0.02 -0.042 -0.992 2.425" />
    <path class="write-flat-pen" fill="#FFFFFF" stroke-width="1.6" __comx="645.65" __comy="676.529" __timestamp="0x178c6a306c1" d="M639.003 665.67 l-0.425 0.858 -0.035 0.341 0.357 3.507 0.128 0.75 2.486 14.199 0 0 0.253 0.814 0 0 1.415 0.116 2.3 -4.474 1.481 -1.792 1.253 -0.637 0.486 0.154 0.756 1.132 1.651 7.379 0.6 -0.023 1.036 -0.402 0.01 -0.128 -0.963 -0.554 0.331 -0.044 -1.269 -6.812 -1.207 -1.799 -1.551 -0.506 -2.088 1.032 -1.813 2.147 -2.378 4.625 1.415 0.116 0 0 -0.239 -0.714 0 0 -2.668 -14.071 -0.157 -0.724 -0.676 -3.349 -0.024 -0.145 0.065 -0.842" />
    <path class="write-flat-pen" fill="#FFFFFF" stroke-width="1.6" __comx="658.678" __comy="676.529" __timestamp="0x178c6a30784" d="M658.8 680.282 l-0.558 1.846 -0.097 0.44 -0.244 2.892 0 0 1.137 0.227 0.19 -1.05 0.023 -0.532 0.077 -2.123 -0.078 -0.014 -0.681 2.013 -0.156 0.442 -0.479 0.882 1.137 0.227 0 0 0.103 -2.845 0.04 -0.371 0.246 -1.891" />
    <path class="write-flat-pen" fill="#FFFFFF" stroke-width="1.6" __comx="660.778" __comy="676.529" __timestamp="0x178c6a3080f" d="M659.319 667.797 l1.333 2.949 1.522 2.309 0.063 -0.034 -1.065 -2.526 -1.223 -2.971" />
    <path class="write-flat-pen" fill="#FFFFFF" stroke-width="1.6" __comx="674.291" __comy="676.529" __timestamp="0x178c6a3093d" d="M669.559 684.04 l0.056 1.051 0.173 0.132 0.658 -0.358 0.209 -0.994 -0.021 -0.43 -1.312 -11.566 0.081 -3.426 0.55 -1.136 0.596 -0.345 1.603 0.245 3.622 2.348 0.449 0.353 2.123 1.809 2.411 2.275 0.033 -0.029 -1.956 -2.711 -1.929 -2.095 -0.481 -0.442 -3.73 -2.794 -2.388 -0.512 -1.506 0.793 -0.926 1.87 -0.084 3.877 1.599 11.629 0.056 0.324 0.125 0.921 0.658 -0.358 0.118 0.1 -0.281 -0.63" />
    <path class="write-flat-pen" fill="#FFFFFF" stroke-width="1.6" __comx="674.302" __comy="676.529" __timestamp="0x178c6a309e1" d="M668.556 674.683 l-0.259 0.001 -0.31 -0.148 -0.025 0.818 0.181 0.046 9.158 0.34 3.341 -0.41 -0.005 -0.133 -3.333 -0.166 -9.085 -0.495 -0.151 0.003 -0.025 0.818 0.286 -0.189 0.226 0.001" />
    <path class="write-flat-pen" fill="#FFFFFF" stroke-width="1.6" __comx="685.851" __comy="676.529" __timestamp="0x178c6a30ab1" d="M683.065 664.466 l0.546 1.735 0.187 0.579 2.058 7.702 0.209 1.13 1.577 9.569 0.857 3.347 0.136 -0.019 -0.078 -3.459 -1.285 -9.644 -0.239 -1.208 -2.415 -7.695 -0.264 -0.596 -0.822 -1.631" />
    <path class="write-flat-pen" fill="#FFFFFF" stroke-width="1.6" __comx="685.816" __comy="676.529" __timestamp="0x178c6a30b72" d="M678.208 677.051 l1.172 -0.766 0.325 -0.081 10.044 -1.436 0.921 -0.213 3.236 -0.739 -0.02 -0.154 -3.317 0.11 -0.948 0.029 -10.18 1.28 -0.609 0.236 -1.108 1.163" />
  </g>
</svg>
