<svg class="write-page" width="1010px" height="1628px" xmlns="http://www.w3.org/2000/svg" xmlns:xlink="http://www.w3.org/1999/xlink">
  <g class="write-content write-v3" width="1010" height="1628" xruling="30" yruling="30" marginLeft="30" papercolor="#1B1C1C" rulecolor="#3A00F9FF">
    <g class="ruleline write-std-ruling write-scale-down" fill="none" stroke="#00F9FF" stroke-opacity="0.227" stroke-width="1" shape-rendering="crispEdges" vector-effect="non-scaling-stroke">
      <rect class="pagerect" fill="#1B1C1C" stroke="none" x="0" y="0" width="1010" height="1628" />
      <path class="yrule_1" d="M0 30 l1010 0" />
      <path d="M0 60 l1010 0" />
      <path d="M0 90 l1010 0" />
      <path d="M0 120 l1010 0" />
      <path d="M0 150 l1010 0" />
      <path d="M0 180 l1010 0" />
      <path d="M0 210 l1010 0" />
      <path d="M0 240 l1010 0" />
      <path d="M0 270 l1010 0" />
      <path d="M0 300 l1010 0" />
      <path d="M0 330 l1010 0" />
      <path d="M0 360 l1010 0" />
      <path d="M0 390 l1010 0" />
      <path d="M0 420 l1010 0" />
      <path d="M0 450 l1010 0" />
      <path d="M0 480 l1010 0" />
      <path d="M0 510 l1010 0" />
      <path d="M0 540 l1010 0" />
      <path d="M0 570 l1010 0" />
      <path d="M0 600 l1010 0" />
      <path d="M0 630 l1010 0" />
      <path d="M0 660 l1010 0" />
      <path d="M0 690 l1010 0" />
      <path d="M0 720 l1010 0" />
      <path d="M0 750 l1010 0" />
      <path d="M0 780 l1010 0" />
      <path d="M0 810 l1010 0" />
      <path d="M0 840 l1010 0" />
      <path d="M0 870 l1010 0" />
      <path d="M0 900 l1010 0" />
      <path d="M0 930 l1010 0" />
      <path d="M0 960 l1010 0" />
      <path d="M0 990 l1010 0" />
      <path d="M0 1020 l1010 0" />
      <path d="M0 1050 l1010 0" />
      <path d="M0 1080 l1010 0" />
      <path d="M0 1110 l1010 0" />
      <path d="M0 1140 l1010 0" />
      <path d="M0 1170 l1010 0" />
      <path d="M0 1200 l1010 0" />
      <path d="M0 1230 l1010 0" />
      <path d="M0 1260 l1010 0" />
      <path d="M0 1290 l1010 0" />
      <path d="M0 1320 l1010 0" />
      <path d="M0 1350 l1010 0" />
      <path d="M0 1380 l1010 0" />
      <path d="M0 1410 l1010 0" />
      <path d="M0 1440 l1010 0" />
      <path d="M0 1470 l1010 0" />
      <path d="M0 1500 l1010 0" />
      <path d="M0 1530 l1010 0" />
      <path d="M0 1560 l1010 0" />
      <path d="M0 1590 l1010 0" />
      <path d="M0 1620 l1010 0" />
      <path class="xrule_1" d="M30 0 l0 1628" />
      <path d="M60 0 l0 1628" />
      <path d="M90 0 l0 1628" />
      <path d="M120 0 l0 1628" />
      <path d="M150 0 l0 1628" />
      <path d="M180 0 l0 1628" />
      <path d="M210 0 l0 1628" />
      <path d="M240 0 l0 1628" />
      <path d="M270 0 l0 1628" />
      <path d="M300 0 l0 1628" />
      <path d="M330 0 l0 1628" />
      <path d="M360 0 l0 1628" />
      <path d="M390 0 l0 1628" />
      <path d="M420 0 l0 1628" />
      <path d="M450 0 l0 1628" />
      <path d="M480 0 l0 1628" />
      <path d="M510 0 l0 1628" />
      <path d="M540 0 l0 1628" />
      <path d="M570 0 l0 1628" />
      <path d="M600 0 l0 1628" />
      <path d="M630 0 l0 1628" />
      <path d="M660 0 l0 1628" />
      <path d="M690 0 l0 1628" />
      <path d="M720 0 l0 1628" />
      <path d="M750 0 l0 1628" />
      <path d="M780 0 l0 1628" />
      <path d="M810 0 l0 1628" />
      <path d="M840 0 l0 1628" />
      <path d="M870 0 l0 1628" />
      <path d="M900 0 l0 1628" />
      <path d="M930 0 l0 1628" />
      <path d="M960 0 l0 1628" />
      <path d="M990 0 l0 1628" />
      <path class="leftmargin" stroke="#FF0000" d="M30 0 l0 1628" />
    </g>
    <path class="write-flat-pen" fill="#FFFFFF" stroke-width="1.6" __comx="84.826" __comy="108.756" __timestamp="0x178c6d968b3" d="M75.299 95.683 l-0.139 -2.167 0 0 -0.63 0.269 0.022 0.057 0 0 1.159 4.37 0 0 1.394 17.255 0 0 1.238 -0.088 -0.878 -16.401 -0.936 -4.002 -2.224 -3.416 -0.038 0.187 9.37 0.618 8.793 -1.872 0.501 -0.201 3.906 -1.583 -0.045 -0.148 -4.127 0.856 -0.475 0.095 -8.641 1.403 -10.229 -0.625 -0.501 1.441 2.515 3.76 0.857 3.669 0.915 16.286 1.238 -0.088 0 0 -1.636 -17.336 0 0 -1.482 -4.519 0 0 -0.128 -0.143 -0.63 0.269 0 0 0.559 2.098" />
    <path class="write-flat-pen" fill="#FFFFFF" stroke-width="1.6" __comx="84.556" __comy="108.756" __timestamp="0x178c6d969de" d="M76.013 102.912 l-0.402 0.66 1.752 0.582 0.698 0.062 4.033 -0.229 7.628 -2.323 3.779 -1.627 -0.047 -0.138 -3.973 0.984 -7.59 1.919 -3.83 0.297 -0.549 -0.022 -1.764 -0.158 0.265 0.66" />
    <path class="write-flat-pen" fill="#FFFFFF" stroke-width="1.6" __comx="87.543" __comy="108.756" __timestamp="0x178c6d96af9" d="M77.125 114.338 l1.755 -0.756 0.391 -0.053 14.964 -0.052 4.051 -1.212 -0.031 -0.153 -4.111 0.443 -14.971 -0.129 -0.66 0.139 -1.711 1.198" />
    <path class="write-flat-pen" fill="#FFFFFF" stroke-width="1.6" __comx="108.381" __comy="108.756" __timestamp="0x178c6d96c08" d="M100.498 99.447 l-0.133 1.822 2.164 4.043 3.669 4.426 5.536 3.496 4.382 1.437 0.281 -0.749 -4.129 -1.757 -5.245 -3.371 -3.559 -4.132 -2.161 -3.626 -0.043 -1.569" />
    <path class="write-flat-pen" fill="#FFFFFF" stroke-width="1.6" __comx="109.366" __comy="108.756" __timestamp="0x178c6d96cac" d="M105.209 112.159 l1.327 -3.278 0.307 -0.64 5.019 -8.52 2.152 -3.695 -0.145 -0.102 -2.755 3.314 -5.139 8.557 -0.303 0.751 -0.954 3.446" />
    <path class="write-flat-pen" fill="#FFFFFF" stroke-width="1.6" __comx="99.474" __comy="108.756" __timestamp="0x178c6d96dde" d="M70.419 122.889 l3.542 1.097 1.317 0.217 9.887 1.14 17.839 0.56 16.599 -0.684 2.711 -0.202 2.766 -0.354 3.448 -0.438 -0.013 -0.165 -3.473 0.128 -2.774 0.099 -2.699 0.049 -16.565 0.389 -17.759 -0.522 -9.839 -0.995 -1.259 -0.161 -3.598 -0.676" />
    <path class="write-flat-pen" fill="#FFFFFF" stroke-width="1.6" __comx="186.732" __comy="113.441" __timestamp="0x178c6d9b930" d="M188.008 97.499 l0.39 -3.78 -0.085 -0.506 -0.867 -1.815 -2.097 -1.229 -2.641 0.135 -2.683 1.255 -2.595 2.322 -1.649 2.778 -0.164 2.097 1.334 1.85 3.191 1.246 9.068 1.152 4.769 1.284 1.762 1.273 0.685 1.282 -0.162 1.665 -1.565 2.18 -3.22 2.153 -3.756 1.458 -5.266 0.981 -2.291 -0.164 -0.45 -0.322 0.23 -1.063 0.264 -0.355 0.384 -0.425 2.057 -2.249 -0.071 -0.082 -2.53 1.699 -0.51 0.344 -0.537 0.466 -0.977 2.108 1.549 1.345 2.968 0.208 5.589 -1.058 4.032 -1.58 3.559 -2.413 1.915 -2.724 0.209 -2.465 -1.049 -1.918 -2.222 -1.601 -5.102 -1.369 -8.995 -1.14 -2.671 -1.028 -0.827 -1.125 0.09 -1.307 1.363 -2.365 2.284 -2.107 2.293 -1.131 2.09 -0.183 1.615 0.832 0.794 1.388 0.073 0.285 0.026 3.7" />
    <path class="write-flat-pen" fill="#FFFFFF" stroke-width="1.6" __comx="207.077" __comy="113.441" __timestamp="0x178c6d9bac9" d="M199.5 109.855 l0.393 -0.997 -0.75 -0.23 -0.062 0.084 -0.727 4.591 0.033 0.761 0.446 2.559 1.505 1.948 1.999 0.408 2.325 -0.881 2.574 -2.405 1.662 -3.012 0 0 0.552 -3.23 0 0 -0.868 -0.515 0 0 -1.071 0.493 -0.432 2.429 0.56 2.985 1.284 1.961 3.133 1.168 3.724 0.029 0.018 -0.124 -3.436 -0.997 -2.469 -1.232 -0.886 -1.356 -0.461 -2.443 0.376 -2.172 -1.071 0.493 0 0 0.022 0.012 0 0 -0.343 2.021 0 0 -1.435 2.603 -2.199 2.069 -1.683 0.657 -1.111 -0.206 -1.018 -1.268 -0.425 -2.147 -0.042 -0.573 0.281 -4.41 -0.031 0.011 -0.75 -0.23 -0.009 1.071" />
    <path class="write-flat-pen" fill="#FFFFFF" stroke-width="1.6" __comx="220.013" __comy="113.441" __timestamp="0x178c6d9bc6f" d="M217.354 129.319 l-0.014 1.026 0 0 0.713 -0.015 0.069 -0.239 -0.187 -6.04 -1.875 -10.031 -0.033 -3.12 0.703 -1.101 1.51 -0.8 2.65 -0.119 1.823 0.699 0.903 1.044 0.291 1.428 -0.642 2.134 -1.667 1.779 -1.913 0.83 0.581 0.806 0.005 -0.65 -0.2 -0.154 -0.627 0.172 0.581 0.806 2.331 -0.646 2.097 -2.264 0.805 -2.758 -0.446 -2.08 -1.348 -1.528 -2.37 -0.892 -3.195 0.144 -2.051 1.094 -1.078 1.698 0.062 3.602 1.984 10.046 0.515 5.863 0.006 0.166 0.713 -0.015 0 0 -0.405 -0.943" />
    <path class="write-flat-pen" fill="#FFFFFF" stroke-width="1.6" __comx="239.713" __comy="113.441" __timestamp="0x178c6d9bf51" d="M231.689 128.161 l-0.028 0.214 -0.549 2.061 0 0 0.836 -0.069 -0.008 -0.091 -2.187 -16.598 -0.013 -4.04 0.72 -1.327 1.593 -1.056 1.847 -0.332 1.415 0.398 1.049 1.138 0.374 1.901 -0.663 2.244 -1.259 1.553 0 0 -1.598 0.863 0 0 -0.322 -0.127 0 0 -0.012 1.343 8.338 -3.177 5.08 -2.747 0 0 0.555 -1.061 0 0 -0.634 -1.069 -1.288 -0.064 -1.702 1.518 -1.321 2.788 -0.101 2.481 1.082 1.511 1.799 0.448 2.439 -0.718 2.745 -2.166 1.09 -2.207 -0.589 -1.649 -2.331 -1.249 -2.267 0.464 -0.013 0.49 0.364 0.745 0.067 0.008 0.535 -0.634 0.004 0.353 1.01 0.077 1.354 0.817 0.152 0.472 -0.639 1.29 -2.223 1.76 -1.736 0.52 -0.827 -0.2 -0.439 -0.605 0.058 -1.632 1.044 -2.229 1.005 -0.917 0.679 0.003 -0.634 -1.069 0 0 -0.319 0.676 0 0 -4.587 2.51 -8.259 3.116 -0.012 1.343 0 0 0.953 0.383 0 0 2.437 -1.342 0 0 1.597 -2.009 0.801 -2.85 -0.557 -2.592 -1.578 -1.657 -2.054 -0.559 -2.394 0.437 -2.078 1.38 -1.024 1.896 0.03 4.452 2.559 16.717 0.076 0.157 0.836 -0.069 0 0 0.136 -2.129 0.03 -0.228" />
    <path class="write-flat-pen" fill="#FFFFFF" stroke-width="1.6" __comx="267.992" __comy="113.441" __timestamp="0x178c6d9c1e8" d="M258.9 106.58 l-0.468 -0.674 -0.239 -0.086 -1.819 -0.202 -1.674 0.921 -0.356 1.563 1.856 1.352 4.625 1.229 2.303 1.303 1.034 1.519 0.138 1.48 -0.593 1.195 -1.473 0.972 -2.249 0.375 -1.994 -0.462 -0.967 -0.805 0.027 1.03 1.484 -1.767 0.282 -0.13 5.157 -1.466 7.828 -0.632 0.264 -0.078 2.083 -1.149 1.09 -1.986 -0.882 -1.463 -1.873 -0.045 -1.971 1.368 -1.768 2.724 -0.673 3.137 0.651 2.148 1.899 1.692 3.248 0.39 3.678 -1.318 0.855 -0.546 3.234 -2.08 -0.067 -0.131 -3.57 1.428 -0.857 0.336 -3.397 0.867 -2.49 -0.342 -1.263 -1.113 -0.435 -1.398 0.527 -2.519 1.463 -2.277 1.364 -0.958 0.661 0.003 0.1 0.141 -0.502 0.991 -1.6 0.96 -0.019 0.009 -7.727 1.053 -5.307 1.345 -0.537 0.186 -1.927 1.615 0.027 1.03 1.197 1.122 2.658 0.617 2.858 -0.487 2.061 -1.385 0.927 -1.936 -0.245 -2.25 -1.445 -2.07 -2.748 -1.535 -4.574 -1.169 -1.019 -0.679 0.013 -0.248 0.884 -0.611 1.429 -0.1 0.007 -0.019 0.617 0.248" />
    <path class="write-flat-pen" fill="#FFFFFF" stroke-width="1.6" __comx="396.584" __comy="107.12" __timestamp="0x178c6d9ca28" d="M393.872 89.274 l-0.475 0.883 -0.1 0.258 -1.398 4.462 -0.246 0.952 -1.036 6.059 -0.178 7.184 0.856 4.989 1.726 3.663 4.021 2.739 1.113 0.13 0.949 -0.048 3.62 -0.188 0.004 -0.104 -3.597 -0.449 -0.88 -0.114 -0.792 -0.207 -3.368 -2.641 -1.477 -3.195 -0.805 -4.677 0.147 -6.961 0.905 -5.941 0.196 -0.901 0.997 -4.549 0.042 -0.259 0.098 -0.988" />
    <path class="write-flat-pen" fill="#FFFFFF" stroke-width="1.6" __comx="414.925" __comy="107.12" __timestamp="0x178c6d9cc4f" d="M410.411 99.642 l0.455 -1.912 -0.239 -0.198 -0.661 0.151 -2.486 4.011 -0.218 0.66 -1.005 4.751 0.2 3.588 1.055 2.745 1.976 2.142 2.327 0.96 2.95 -0.149 3.713 -1.569 2.848 -2.594 1.638 -3.371 0.627 -3.642 -0.488 -3.485 -1.308 -2.678 -1.995 -1.549 -2.291 -0.135 -2.298 1.367 -1.748 2.487 -1.112 3.556 0.078 3.335 1.205 2.798 3.83 2.449 0.673 0.117 3.829 0.604 0.058 -0.205 -3.571 -1.507 -0.429 -0.197 -3.104 -2.316 -0.898 -2.09 -0.065 -2.761 0.959 -3.066 1.408 -2.003 1.582 -0.941 1.306 0.077 1.31 1.017 1.034 2.116 0.418 2.986 -0.545 3.173 -1.402 2.894 -2.417 2.212 -3.203 1.375 -2.33 0.14 -1.707 -0.681 -1.575 -1.67 -0.894 -2.258 -0.214 -3.171 0.884 -4.51 0.142 -0.466 2.051 -4.1 -0.661 0.151 -0.16 -0.142 0.022 1.447" />
    <path class="write-flat-pen" fill="#FFFFFF" stroke-width="1.6" __comx="433.398" __comy="107.12" __timestamp="0x178c6d9cdaf" d="M427.808 88.753 l1.476 3.236 0.395 0.619 4.764 6.806 1.812 3.634 1.156 4.668 0.055 3.231 -1.551 5.553 -0.232 0.487 -0.232 0.476 -1.836 3.737 0.088 0.055 2.568 -3.276 0.335 -0.428 0.394 -0.568 1.988 -5.814 -0.028 -3.653 -1.255 -5.007 -1.975 -3.879 -5.037 -6.734 -0.384 -0.526 -1.826 -2.977" />
    <path class="write-flat-pen" fill="#FFFFFF" stroke-width="1.6" __comx="458.971" __comy="107.12" __timestamp="0x178c6d9cfc6" d="M450.492 100.703 l-0.281 0.536 1.349 0.272 0.451 0.036 11.474 -0.192 4.242 -0.181 0.005 -0.094 -4.229 -0.615 -11.484 0.087 -0.423 0.012 -1.359 0.14 0.255 0.536" />
    <path class="write-flat-pen" fill="#FFFFFF" stroke-width="1.6" __comx="461.783" __comy="107.12" __timestamp="0x178c6d9d089" d="M453.28 106.683 l4.269 1.045 0.743 0.178 7.737 1.223 4.24 0.189 0.017 -0.139 -4.136 -0.864 -7.657 -1.429 -0.736 -0.151 -4.362 -0.642" />
    <path class="write-flat-pen" fill="#FFFFFF" stroke-width="1.6" __comx="532.054" __comy="107.12" __timestamp="0x178c6d9d6b3" d="M530.91 112.997 l1.186 4.464 0.076 0.448 0.217 3.731 -0.371 3.757 0.098 0.019 1.081 -3.717 -0.134 -3.896 -0.117 -0.557 -1.601 -4.386" />
    <path class="write-flat-pen" fill="#FFFFFF" stroke-width="1.6" __comx="564.662" __comy="107.12" __timestamp="0x178c6d9d8e5" d="M561.304 94.807 l-0.564 2.717 -0.043 0.616 0.422 14.878 0.897 4.638 1.434 2.357 1.694 1.038 3.415 1.234 0.068 -0.138 -3.005 -1.902 -1.273 -1.059 -1.127 -1.987 -0.851 -4.328 -0.826 -14.735 -0.006 -0.545 0.17 -2.728" />
    <path class="write-flat-pen" fill="#FFFFFF" stroke-width="1.6" __comx="563.207" __comy="107.12" __timestamp="0x178c6d9d9d6" d="M554.067 109.72 l14.516 -2.981 3.879 -1.638 -0.036 -0.105 -4.031 1.06 -14.443 3.119" />
    <path class="write-flat-pen" fill="#FFFFFF" stroke-width="1.6" __comx="585.369" __comy="107.12" __timestamp="0x178c6d9dc13" d="M569.498 98.857 l2.814 7.318 0.304 1.132 1.919 10.042 0.94 1.457 0 0 0.953 0.191 1.125 -0.749 2.759 -5.17 1.58 -1.707 0.34 -0.041 1.989 2.897 2.013 1.287 2.708 0.23 3.346 -0.977 2.5 -1.646 1.265 -2.137 -0.842 -1.591 -2.099 -0.102 -2.091 1.159 -1.746 2.174 -0.865 2.859 0.392 2.106 1.679 1.803 2.573 0.429 4.544 -2.104 0.525 -0.472 0.434 -0.452 2.685 -2.803 -0.055 -0.063 -3.149 2.268 -0.492 0.352 -0.459 0.303 -4.191 1.56 -1.707 -0.322 -1.079 -1.159 -0.258 -1.367 0.687 -2.271 1.403 -1.744 1.499 -0.822 0.879 0.055 0.075 0.159 -0.687 1.152 -2.035 1.356 -2.882 0.876 -2.118 -0.144 -1.526 -0.927 -2.298 -3.25 -1.557 0.132 -2.065 2.158 -2.729 4.998 -0.833 0.573 0.953 0.191 0 0 -0.822 -1.221 -2.012 -9.805 -0.36 -1.239 -3.239 -7.218" />
    <path class="write-flat-pen" fill="#FFFFFF" stroke-width="1.6" __comx="608.499" __comy="107.12" __timestamp="0x178c6d9dd55" d="M601.758 110.473 l0.01 2.009 0.032 0.336 0.272 4.144 1.173 1.506 1.924 -1.416 3.425 -5.664 0.863 -0.602 0.399 0.243 2.527 6.735 2.769 2.321 0.091 -0.081 -1.838 -2.847 -2.412 -7.05 -1.58 -0.976 -1.856 1.284 -3.418 5.713 -0.691 0.576 -0.249 -0.214 -0.55 -3.781 -0.072 -0.331 -0.405 -1.947" />
    <path class="write-flat-pen" fill="#FFFFFF" stroke-width="1.6" __comx="665.978" __comy="107.12" __timestamp="0x178c6d9e05c" d="M653.211 102.775 l-0.336 1.605 0.006 0.31 0.023 7.462 -0.001 0.63 0.178 3.074 0.978 1.81 1.913 0.52 2.745 -1.286 5.567 -4.924 1.398 -0.577 1.03 0.442 2.925 4.127 2.179 1.661 2.135 0.265 2.265 -1.01 1.733 -2.114 1.089 -3.095 0.045 -3.279 -0.905 -2.523 -1.931 -1.805 -2.709 -0.395 -0.053 0.138 2.016 1.397 1.321 1.512 0.687 1.938 -0.024 2.744 -0.902 2.605 -1.32 1.642 -1.55 0.722 -1.336 -0.14 -1.701 -1.27 -3.029 -4.274 -1.951 -0.844 -2.184 0.894 -5.592 4.955 -2.085 0.998 -0.847 -0.212 -0.573 -1.012 -0.212 -2.733 -0.014 -0.607 -0.455 -7.481 -0.039 -0.261 -0.071 -1.573" />
    <path class="write-flat-pen" fill="#FFFFFF" stroke-width="1.6" __comx="690.978" __comy="107.12" __timestamp="0x178c6d9e21a" d="M682.761 92.733 l-0.514 -0.196 0.229 1.711 0.079 0.518 1.639 14.765 0.049 0.868 0.25 4.818 0.955 0.93 0 0 1.187 -0.153 3.491 -5.563 1.915 -1.89 1.214 -0.301 0.707 0.374 0.865 1.593 0.852 5.207 1.869 0.932 0.589 -0.439 1.583 -1.402 -0.051 -0.087 -1.998 0.692 -0.105 -0.033 -0.529 -0.566 -0.775 -4.793 -1.192 -2.213 -1.605 -0.875 -2.196 0.514 -2.37 2.3 -3.577 5.729 1.187 -0.153 0 0 -0.549 -0.487 -0.274 -4.221 -0.062 -0.915 -2.076 -14.797 -0.149 -0.57 -0.647 -1.626 -0.514 0.328" />
    <path class="write-flat-pen" fill="#FFFFFF" stroke-width="1.6" __comx="707.651" __comy="107.12" __timestamp="0x178c6d9e3a9" d="M706.825 108.502 l0.482 -0.664 0.062 -0.216 0.018 -1.587 -1.178 -1.399 -1.611 0.088 -1.708 1.879 -0.974 3.216 0.194 2.574 1.174 1.675 2.13 0.355 0 0 2.031 -0.946 0 0 1.793 -2.364 0 0 -1.272 -0.676 -1.112 3.287 0.299 2.416 1.756 0.509 1.913 -1.328 0.479 -0.543 2.086 -2.394 -0.065 -0.071 -2.589 1.838 -0.511 0.354 -1.479 0.664 -0.26 -0.132 -0.139 -1.159 1.004 -2.973 -1.272 -0.676 0 0 -1.585 2.068 0 0 -1.29 0.611 0 0 -1.093 -0.165 -0.621 -0.852 -0.175 -1.928 0.771 -2.698 1.123 -1.307 0.494 -0.065 0.603 0.588 0.152 1.069 0.008 0.038 -0.064 0.75" />
    <path class="write-flat-pen" fill="#FFFFFF" stroke-width="1.6" __comx="722.096" __comy="107.12" __timestamp="0x178c6d9e47c" d="M718.836 95.239 l0.034 3.797 0.145 1.011 4.367 15.826 1.919 1.271 0.056 -0.054 -1.033 -1.756 -4.22 -15.529 -0.182 -0.893 -0.448 -3.714" />
    <path class="write-flat-pen" fill="#FFFFFF" stroke-width="1.6" __comx="722.542" __comy="107.12" __timestamp="0x178c6d9e51c" d="M715.747 102.744 l4.616 -0.569 0.499 0.029 4.439 0.417 4.13 0.248 0.026 -0.171 -4.032 -0.98 -4.468 -0.671 -0.667 -0.02 -4.664 1.008" />
    <path class="write-flat-pen" fill="#FFFFFF" stroke-width="1.6" __comx="761.299" __comy="107.12" __timestamp="0x178c6d9e732" d="M761.483 104.581 l-0.68 3.688 -0.1 0.772 -0.108 5.747 0.643 0.293 0.312 -0.748 -0.066 -0.071 -0.767 0.26 0.643 0.293 0.31 -5.708 0.056 -0.732 0.28 -3.728" />
    <path class="write-flat-pen" fill="#FFFFFF" stroke-width="1.6" __comx="764.549" __comy="107.12" __timestamp="0x178c6d9e7bd" d="M764.135 96.764 l0.066 0.517 0.658 0.893 0.103 -0.046 -0.191 -1.004 -0.043 -0.429" />
    <path class="write-flat-pen" fill="#FFFFFF" stroke-width="1.6" __comx="777.575" __comy="107.12" __timestamp="0x178c6d9e922" d="M776.458 102.883 l-2.908 1.025 -0.309 0.391 0.088 1.355 6.373 4.46 0.928 1.371 -0.108 0.911 -1.045 1.005 -2.316 0.804 -1.697 -0.048 -0.253 -0.049 -0.213 -1.11 -0.187 -0.045 -0.822 1.413 0.733 1.237 2.674 0.086 2.864 -1.063 1.562 -1.642 0.087 -1.866 -1.405 -1.831 -6.253 -4.172 -0.075 -0.542 -0.058 0.065 2.525 -1.324" />
    <path class="write-flat-pen" fill="#FFFFFF" stroke-width="1.6" __comx="869.234" __comy="107.12" __timestamp="0x178c6d9f05c" d="M871.125 92.943 l-1.039 0.762 -0.198 0.362 -2.84 7.467 -0.301 1.219 -1.054 7.348 0.078 5.691 1.154 2.784 2.389 2.026 3.402 1.693 0.059 -0.093 -2.908 -2.306 -1.866 -2.043 -0.869 -2.328 -0.057 -5.335 0.975 -7.191 0.249 -1.098 2.402 -7.502 0.071 -0.216 0.648 -0.949" />
    <path class="write-flat-pen" fill="#FFFFFF" stroke-width="1.6" __comx="886.082" __comy="107.12" __timestamp="0x178c6d9f26a" d="M886.373 96.535 l-2.15 0.554 -0.448 0.387 -4.871 9.222 -0.208 0.8 -0.209 3.823 0.869 2.887 2.2 1.992 2.405 0.68 3.042 -0.439 2.953 -1.923 2.359 -3.245 1.259 -3.623 0.102 -3.021 -1.003 -3.305 -1.801 -2.05 -2.219 -0.484 -2.51 0.662 -2.541 1.883 -1.399 2.268 -0.494 3.269 0.758 2.591 1.862 1.977 3.114 0.948 0.797 -0.103 3.504 -0.501 -0.003 -0.114 -3.525 -0.324 -0.594 -0.068 -2.485 -1.063 -1.366 -1.495 -0.582 -1.952 0.38 -2.669 1.091 -1.797 2.098 -1.575 1.925 -0.517 1.446 0.318 1.289 1.488 0.817 2.795 -0.118 2.561 -1.149 3.192 -2.083 2.826 -2.437 1.588 -2.392 0.362 -1.77 -0.479 -1.674 -1.462 -0.734 -2.259 0.106 -3.457 0.124 -0.54 4.365 -9.137 0.188 -0.192 1.85 -0.898" />
    <path class="write-flat-pen" fill="#FFFFFF" stroke-width="1.6" __comx="902.567" __comy="107.12" __timestamp="0x178c6d9f3c3" d="M899.084 90.16 l1.455 1.09 0.216 0.261 1.476 2.432 1.364 4.199 0.949 6.776 -1.144 9.96 -1.192 3.45 0.062 0.032 2.227 -3.136 1.552 -10.315 -1.06 -7.105 -1.607 -4.431 -1.819 -2.517 -0.418 -0.385 -1.783 -0.788" />
    <path class="write-flat-pen" fill="#FFFFFF" stroke-width="1.6" __comx="921.93" __comy="107.12" __timestamp="0x178c6d9f603" d="M916.281 87.858 l1.321 -1.535 0.141 -0.084 3.467 -1.497 3.822 -0.779 0.961 0.327 0.579 0.962 -1.48 10.58 1.399 3.438 0.099 -0.023 -0.223 -3.472 1.557 -10.815 -1.126 -1.715 -1.706 -0.521 -4.234 0.97 -3.561 1.787 -0.308 0.243 -1.047 1.898" />
    <path class="write-flat-pen" fill="#FFFFFF" stroke-width="1.6" __comx="930.32" __comy="107.12" __timestamp="0x178c6d9f7b3" d="M930.724 114.233 l0.389 -0.856 -0.037 -0.124 -0.213 -1.493 -0.429 -0.385 -0.168 0.034 -0.49 0.104 -0.249 0.105 -0.001 1.259 0.575 -0.146 -0.314 -0.284 0.535 1.059 -0.014 -0.063 0.071 0.72" />
    <path class="write-stroke-pen" fill="none" stroke="#FFFFFF" stroke-width="1.6" stroke-linecap="round" stroke-linejoin="round" __comx="397.925" __comy="350.739" __timestamp="0x178c6da2c5a" d="M268.868 420.053 l258.114 -138.626" />
    <path class="write-stroke-pen" fill="none" stroke="#FFFFFF" stroke-width="1.6" stroke-linecap="round" stroke-linejoin="round" __comx="358.417" __comy="284.24" __timestamp="0x178c6da4829" d="M265.92 420.206 l184.993 -271.397" />
    <path class="write-stroke-pen" fill="none" stroke="#FFFFFF" stroke-width="1.6" stroke-linecap="round" stroke-linejoin="round" __comx="488.126" __comy="170.6" __timestamp="0x178c6da5207" d="M451.104 148.694 l74.043 133.038" />
    <path class="write-stroke-pen" fill="none" stroke="#FFFFFF" stroke-width="1.6" stroke-linecap="round" stroke-linejoin="round" __comx="501.77" __comy="262.33" __timestamp="0x178c6da6d76" d="M509.161 261.272 l-14.782 7.948" />
    <path class="write-stroke-pen" fill="none" stroke="#FFFFFF" stroke-width="1.6" stroke-linecap="round" stroke-linejoin="round" __comx="498.861" __comy="273.245" __timestamp="0x178c6da728a" d="M492.894 269.69 l11.934 22.927" />
    <path class="write-flat-pen" fill="#FFFFFF" stroke-width="1.6" __comx="332.852" __comy="342.877" __timestamp="0x178c6da8771" d="M319.293 336.659 l-0.558 0.446 0.016 0.24 0.321 0.759 0.134 0.179 1.363 1.521 0.23 0.193 7.255 3.987 0.635 0.386 5.783 3.81 3.807 3.322 2.46 2.843 1.962 3.311 1.318 3.369 1.018 4.866 0.743 7.978 0.056 0.947 0.314 4.277 0.071 0.749 0.134 1.247 0.301 2.637 0.041 -0.001 0.183 -2.648 0.071 -1.256 0.018 -0.759 -0.047 -4.289 -0.019 -0.969 -0.507 -8.099 -0.956 -5.089 -1.366 -3.621 -2.079 -3.55 -2.619 -3.033 -3.97 -3.461 -5.912 -3.858 -0.699 -0.417 -7.319 -3.711 -0.102 -0.07 -1.488 -1.262 -0.093 -0.071 -0.425 -0.424 0.01 0.173 0.182 -0.421" />
    <path class="write-flat-pen" fill="#FFFFFF" stroke-width="1.6" __comx="340.166" __comy="355.564" __timestamp="0x178c6da8931" d="M334.069 361.803 l-0.015 -0.899 0.019 -0.047 0.428 -0.927 0.176 -0.256 1.517 -1.803 0.546 -0.556 7.449 -6.295 0.82 -0.798 1.851 -1.785 -0.12 -0.152 -2.169 1.38 -0.976 0.616 -7.688 6.149 -0.608 0.689 -1.404 2.05 -0.193 0.422 -0.231 1.164 0.011 0.188 0.289 0.911" />
    <path class="write-flat-pen" fill="#FFFFFF" stroke-width="1.6" __comx="361.728" __comy="328.787" __timestamp="0x178c6da8bfd" d="M359.466 329.511 l0.503 -1.132 0.075 -0.186 0.194 -1.125 -0.328 -0.562 -1.865 0.213 -0.495 0.374 -1.857 2.022 -1.755 3.157 -0.923 2.895 -0.393 3.658 0.47 2.647 1.239 2.311 1.716 1.346 2.318 0.709 2.691 -0.31 2.785 -1.412 2.683 -2.279 2.109 -2.584 1.423 -2.714 0.71 -2.753 0.069 -3.321 -0.674 -2.45 -1.38 -2.266 -1.935 -1.743 -2.039 -0.748 -1.685 0.164 -1.693 0.995 -1.353 1.827 -0.967 3.414 -0.114 3.163 1.143 4.857 0.325 0.603 0.364 0.495 0.436 0.381 1.892 1.628 0.123 -0.104 -1.285 -2.14 -0.243 -0.424 -0.181 -0.418 -0.155 -0.444 -0.861 -4.567 0.118 -2.78 0.848 -2.951 0.994 -1.331 1.112 -0.653 0.974 -0.095 1.41 0.517 1.536 1.381 1.149 1.875 0.561 2.012 -0.058 2.907 -0.619 2.4 -1.264 2.413 -1.915 2.356 -2.424 2.082 -2.37 1.215 -2.101 0.247 -1.747 -0.523 -1.25 -0.969 -0.983 -1.817 -0.392 -2.202 0.348 -3.299 0.82 -2.619 1.574 -2.908 1.6 -1.878 0.132 -0.123 0.806 -0.289 -0.18 -0.328 0.081 0.735 -0.014 0.109 -0.237 1.211" />
    <path class="write-flat-pen" fill="#0BFFCF" stroke-width="1.6" __comx="439.996" __comy="311.059" __timestamp="0x178c6da96bb" d="M441.452 313.388 l0.37 -0.769 0.06 -0.13 0.387 -1.276 0.036 -0.279 -0.538 -2.573 -0.324 -0.36 -1.342 -0.825 -1.99 -0.186 -2.11 0.694 -1.73 1.457 -1.156 2.049 -0.513 2.518 0.314 2.251 0.929 1.58 1.321 0.666 1.638 -0.151 1.98 -1.21 1.967 -2.302 0 0 1.222 -2.549 0 0 0.292 -1.731 0 0 -1.418 -0.072 0.134 2.153 0.932 2.674 1.24 1.638 1.656 0.429 0.586 -0.188 0.432 -0.305 1.565 -1.149 -0.042 -0.091 -1.891 0.441 -0.402 0.079 -0.179 -0.03 -0.862 -0.39 -0.821 -1.114 -0.795 -2.278 -0.126 -1.956 -1.418 -0.072 0 0 -0.25 1.533 0 0 -1.053 2.201 0 0 -1.698 1.993 -1.507 0.927 -0.913 0.09 -0.598 -0.295 -0.586 -0.985 -0.247 -1.742 0.419 -2.075 0.922 -1.649 1.336 -1.136 1.596 -0.543 1.425 0.097 0.964 0.529 0.006 -0.006 0.685 2.053 0.009 0.069 -0.107 1.239 -0.017 0.107 -0.134 0.846" />
    <path class="write-flat-pen" fill="#0BFFCF" stroke-width="1.6" __comx="478.033" __comy="228.132" __timestamp="0x178c6da9ac2" d="M478.394 228.085 l-0.372 -0.471 -0.022 -0.077 -0.511 -1.065 -0.22 -0.231 -1.149 -0.556 -1.63 0.472 -1.637 1.885 -1.08 2.797 -0.378 2.791 0.387 2.508 1.019 1.971 1.821 1.264 2.236 0.112 2.323 -0.865 2.002 -1.443 2.016 -2.377 1.107 -2.559 0.362 -2.316 -0.34 -2.03 -1.175 -1.46 -1.894 -0.701 -3.652 0.755 -0.27 0.104 -0.223 0.099 -2.514 1.081 0.039 0.175 2.735 -0.097 0.259 -0.009 0.254 -0.026 3.22 -0.437 1.076 0.402 0.637 0.791 0.229 1.362 -0.29 1.86 -0.929 2.158 -1.731 2.057 -1.669 1.215 -1.822 0.694 -1.483 -0.055 -1.17 -0.782 -0.758 -1.413 -0.343 -2.058 0.301 -2.423 0.896 -2.441 1.183 -1.486 0.839 -0.344 0.64 0.179 0.02 -0.003 0.681 0.81 0.113 0.143 0.622 0.338" />
    <path class="write-flat-pen" fill="#0BFFCF" stroke-width="1.6" __comx="391.347" __comy="253.263" __timestamp="0x178c6da9e89" d="M386.505 251.428 l-1.029 -1.11 -0.073 -0.111 -0.147 -0.206 -0.539 0.347 -0.024 0.129 0.247 1.048 0.11 0.318 2.044 6.054 0.169 0.646 0 0 0.695 4.39 0 0 0.124 4.422 0 0 1.562 -0.057 -0.132 -4.528 0.461 -3.651 0.706 -2.074 0.608 -0.685 0.356 0.006 1.124 0.871 2.018 2.854 1.206 2.624 0.722 2.713 0.022 0.042 1.005 2.651 0.038 -0.005 0.223 -2.827 0.002 -0.094 -0.518 -2.976 -1.314 -2.922 -2.237 -3.175 -1.73 -1.346 -1.624 -0.029 -1.311 1.477 -0.862 2.534 -0.494 3.938 0.17 4.653 1.562 -0.057 0 0 -0.234 -4.508 0 0 -0.791 -4.537 0 0 -0.213 -0.764 -2.325 -6.041 -0.15 -0.304 -0.432 -0.809 -0.025 0.009 -0.539 0.347 0.166 -0.058 0.053 0.023 1.222 0.924" />
    <path class="write-flat-pen" transform="translate(40.532,-1.312)" fill="#FFFFFF" stroke-width="1.6" __comx="695.395" __comy="225.454" __timestamp="0x178c6dac2b7" d="M652.409 214.597 l-0.385 0.875 -0.088 0.318 -0.435 2.671 -0.07 0.824 -0.11 3.962 0.748 8.007 0.816 3.596 0.923 1.82 1.752 1.23 0.506 0.08 2.301 0.309 0.04 -0.138 -2.109 -0.972 -0.287 -0.15 -1.223 -1.145 -0.684 -1.463 -0.758 -3.373 -0.814 -7.854 -0.028 -3.872 0.022 -0.772 0.174 -2.641 0.026 -0.263 0.15 -0.909" />
    <path class="write-flat-pen" transform="translate(40.532,-1.312)" fill="#FFFFFF" stroke-width="1.6" __comx="707.581" __comy="225.454" __timestamp="0x178c6dac4a8" d="M666.08 218.585 l-0.271 -0.736 -0.36 -0.139 -1.075 0.293 -0.359 0.268 -1.44 1.739 -1.375 3.359 -0.797 4.195 -0.124 4.182 0.613 2.949 1.024 1.809 1.825 1.243 1.85 0.224 2.114 -0.635 2.624 -1.972 1.693 -2.203 1.284 -3.01 0.511 -3.121 -0.24 -2.37 -1.12 -2.453 -1.529 -1.331 -1.476 -0.389 -1.684 0.434 -1.516 1.318 -1.405 2.305 -0.707 2.435 0.095 2.052 0.774 1.439 1.645 0.886 0.586 0.079 0.559 -0.059 2.269 -0.257 0.012 -0.191 -2.219 -0.536 -0.45 -0.122 -0.263 -0.117 -1.003 -0.739 -0.383 -0.792 -0.063 -1.458 0.578 -1.99 1.175 -1.921 1.059 -0.917 0.937 -0.24 0.733 0.192 1 0.871 0.867 1.914 0.189 1.908 -0.448 2.73 -1.13 2.654 -1.442 1.878 -2.228 1.686 -1.538 0.473 -1.161 -0.13 -1.233 -0.824 -0.743 -1.292 -0.544 -2.545 0.085 -3.895 0.691 -3.961 1.173 -3.092 1.13 -1.582 0.101 -0.11 0.53 -0.357 -0.224 -0.094 0.329 0.341" />
    <path class="write-flat-pen" transform="translate(40.532,-1.312)" fill="#FFFFFF" stroke-width="1.6" __comx="719.696" __comy="225.454" __timestamp="0x178c6dac5cb" d="M675.17 213.987 l0.22 1.228 0.14 0.323 1.336 2.493 0.306 0.55 3.105 5.809 1.065 3.152 0.388 3.232 -0.344 2.804 -0.82 2.264 -1.639 2.48 -0.097 0.127 -1.813 2.039 0.151 0.182 2.337 -1.408 0.252 -0.162 2.046 -2.598 0.964 -2.589 0.391 -3.135 -0.428 -3.55 -1.166 -3.402 -3.292 -5.869 -0.346 -0.553 -1.549 -2.337 -0.13 -0.195 -0.449 -1.067" />
    <path class="write-flat-pen" transform="translate(40.532,-1.312)" fill="#FFFFFF" stroke-width="1.6" __comx="735.024" __comy="225.454" __timestamp="0x178c6dac732" d="M688.796 222.27 l0.857 0.066 0.228 0.005 3.473 0.041 0.513 0.005 3.579 -0.037 2.773 -0.204 0.007 -0.124 -2.747 -0.496 -3.598 -0.232 -0.542 0.008 -3.502 0.234 -0.245 0.045 -0.835 0.201" />
    <path class="write-flat-pen" transform="translate(40.532,-1.312)" fill="#FFFFFF" stroke-width="1.6" __comx="737.372" __comy="225.454" __timestamp="0x178c6dac7e7" d="M692.571 225.418 l0.271 1.061 0.322 0.234 5.288 1.41 2.641 0.154 0.016 -0.097 -2.505 -0.722 -5.043 -1.591 0.015 0.026 -0.417 -0.705" />
    <path class="write-flat-pen" transform="translate(40.532,-1.312)" fill="#FFFFFF" stroke-width="1.6" __comx="632.941" __comy="222.232" __timestamp="0x178c6dacf0e" d="M587.89 223.761 l-0.173 0 -0.226 -0.138 0.114 0.596 0.018 0.027 0.569 0.005 0.26 -0.013 3.117 -0.065 3.183 0.37 2.656 0.383 0.045 -0.146 -2.475 -1.212 -3.349 -0.657 -3.293 0.317 -0.334 0.088 -0.592 0.278 -0.047 0.054 0.114 0.596 0.232 -0.128 0.181 0" />
    <path class="write-flat-pen" transform="translate(40.532,-1.312)" fill="#FFFFFF" stroke-width="1.6" __comx="634.944" __comy="226.966" __timestamp="0x178c6dacfe1" d="M589.139 228.688 l2.153 -0.008 0.406 0.003 5.261 0.336 2.749 0.041 0.024 -0.167 -2.678 -0.736 -5.332 -0.469 -0.475 0.029 -2.153 0.284" />
    <path class="write-flat-pen" transform="translate(40.532,-1.312)" fill="#FFFFFF" stroke-width="1.6" __comx="598.603" __comy="217.852" __timestamp="0x178c6dade8e" d="M546.441 220.265 l1.2 -0.145 0.372 -0.032 11.101 -0.856 6.835 -0.059 0.608 0.038 0.657 0.054 2.632 0.224 0.011 -0.055 -2.51 -0.823 -0.64 -0.21 -0.675 -0.177 -6.966 -0.209 -11.171 1.082 -0.433 0.088 -1.178 0.408" />
    <path class="write-flat-pen" transform="translate(40.532,-1.312)" fill="#FFFFFF" stroke-width="1.6" __comx="602.304" __comy="223.753" __timestamp="0x178c6dae1b9" d="M555.293 224.083 l0.212 -0.809 0.011 -0.016 0.164 -0.175 -0.616 0.208 -0.096 -0.042 -0.008 0.365 0.062 0.301 0.609 2.606 0.121 0.507 0 0 1.787 9.321 0 0 1.473 0.232 2.322 -4.124 1.809 -2.236 1.205 -0.9 0.247 -0.021 0.366 0.267 2.128 6.11 1.368 2.345 0.151 -0.041 -0.033 -2.763 -2.264 -6.648 -1.254 -0.914 -1.298 0.108 -1.734 1.294 -2.019 2.497 -2.38 4.246 1.473 0.232 0 0 -1.979 -9.326 0 0 -0.162 -0.553 -0.866 -2.565 -0.129 -0.291 -0.281 -0.526 -0.13 -0.071 -0.616 0.208 0.062 0.264 0.004 0.054 0.066 0.835" />
    <path class="write-flat-pen" transform="translate(-163.138,67.315)" fill="#FFFFFF" stroke-width="1.6" __comx="241.455" __comy="471.818" __timestamp="0x178c6db406d" d="M395.721 393.277 l0.163 -1.136 -0.022 0.098 0.402 -0.075 -0.138 -0.016 1.028 1.125 1.047 2.142 1.287 4.481 0.797 6.119 0.236 6.936 -0.341 3.58 0.222 -0.25 0.324 0.213 -0.138 -1.046 0.568 -2.402 1.158 -2.422 1.768 -2.163 1.84 -1.387 1.689 -0.693 1.369 -0.085 1.112 0.438 1.117 1.362 0.851 2.655 0.46 4.08 -0.242 3.643 1.257 -0.059 -0.132 -0.308 -0.131 -0.428 -0.136 -0.566 -0.409 -1.787 -0.11 0.005 -0.232 1.818 -0.078 0.607 -0.025 0.523 0.004 0.381 1.257 -0.059 0.508 -3.78 -0.5 -4.391 -0.987 -3.075 -1.555 -1.885 -1.786 -0.705 -1.952 0.111 -2.111 0.844 -2.165 1.601 -2.022 2.446 -1.324 2.744 -0.682 2.855 0.277 2.044 1.401 0.942 1.05 -1.154 0.36 -4.21 -0.3 -7.102 -0.868 -6.29 -1.409 -4.693 -1.284 -2.402 -1.5 -1.327 -0.556 -0.14 -0.902 0.655 -0.102 0.298 0.109 1.279" />
    <path class="write-flat-pen" transform="translate(-163.138,67.315)" fill="#FFFFFF" stroke-width="1.6" __comx="253.001" __comy="471.818" __timestamp="0x178c6db429a" d="M410.784 389.414 l0.081 -0.605 0.041 -0.044 0.636 -0.987 0.137 -0.166 1.209 -1.192 1.117 -0.551 1.001 -0.019 0.808 0.481 0.66 1.135 0.254 1.854 -0.391 1.883 -1.101 2.352 -2.364 3.034 -0.071 1.038 0.759 0.85 1.405 0.067 4.122 -1.693 0.318 -0.161 0.302 -0.165 2.423 -1.286 -0.058 -0.18 -2.719 0.362 -0.358 0.047 -0.384 0.084 -3.906 1.379 -1.072 -0.048 0.759 0.85 0.035 -0.553 2.158 -2.806 1.218 -2.695 0.445 -2.32 -0.373 -2.392 -1.033 -1.687 -1.499 -0.83 -1.701 0.101 -1.534 0.871 -1.267 1.534 -0.183 0.309 -0.457 1.217 -0.051 0.248 0.192 0.721" />
    <path class="write-flat-pen" transform="translate(-163.138,67.315)" fill="#FFFFFF" stroke-width="1.6" __comx="267.603" __comy="471.818" __timestamp="0x178c6db43e5" d="M423.466 407.097 l0.943 0.088 0.338 -0.05 2.092 -0.508 0.482 -0.107 3.725 -0.636 3.978 -0.263 0.163 -0.021 2.844 -0.228 0.015 -0.166 -2.755 -0.743 -0.233 -0.057 -4.172 0.021 -3.858 0.776 -0.548 0.16 -2.014 0.763 -0.195 0.083 -0.832 0.156" />
    <path class="write-flat-pen" transform="translate(-163.138,67.315)" fill="#FFFFFF" stroke-width="1.6" __comx="268.782" __comy="471.818" __timestamp="0x178c6db44b0" d="M425.633 411.972 l0.991 -0.135 0.214 -0.003 8.254 -0.028 0.615 -0.092 2.74 -0.397 -0.002 -0.189 -2.747 -0.341 -0.609 -0.079 -8.318 -0.082 -0.37 0.065 -1.006 0.42" />
    <path class="write-flat-pen" transform="translate(-163.138,67.315)" fill="#FFFFFF" stroke-width="1.6" __comx="291.369" __comy="471.818" __timestamp="0x178c6db47be" d="M459.646 408.821 l-0.214 -0.848 -0.063 -0.19 -0.499 -1.326 -0.157 -0.327 -1.806 -2.521 -0.492 -0.354 -2.049 -0.796 -2.015 0.151 -1.959 1.059 -1.726 1.884 -1.233 2.343 -0.726 2.889 0.028 2.586 0.768 2.146 1.034 1.158 1.815 0.743 1.636 -0.054 2.419 -0.937 2.718 -1.966 1.954 -2.219 1.151 -2.264 0.295 -2.11 0 0 -0.582 -0.786 0 0 -1.341 0.085 -0.637 1.138 -0.374 2.569 0.314 2.767 0.795 1.929 1.283 0.859 0.372 0.014 1.912 -0.133 0.038 -0.185 -1.707 -0.872 -0.036 -0.07 -0.557 -0.594 -0.537 -1.347 -0.264 -2.343 0.302 -2.071 0.492 -0.88 -1.341 0.085 0 0 0.193 0.261 0 0 -0.168 1.197 -0.938 1.845 -1.702 1.934 -2.405 1.743 -1.974 0.77 -1.029 0.039 -1.172 -0.467 -0.6 -0.655 -0.594 -1.61 -0.036 -2.129 0.63 -2.522 1.053 -2.013 1.415 -1.568 1.454 -0.816 1.387 -0.139 1.62 0.552 0.201 0.124 1.842 2.13 0.139 0.209 0.714 1.187 0.097 0.15 0.437 0.737" />
    <path class="write-flat-pen" transform="translate(-163.138,67.315)" fill="#FFFFFF" stroke-width="1.6" __comx="303.099" __comy="471.818" __timestamp="0x178c6db49d0" d="M459.356 391.492 l0.305 -0.45 -0.053 0.061 1.081 -0.447 0.237 -0.097 2.867 -0.923 0.848 0.08 0.304 0.291 0.271 0.942 -0.327 2.66 -2.853 7.02 0.762 1.225 3.674 -0.709 3.15 -0.133 0.397 -0.008 0.869 -0.049 2.796 -0.216 0.014 -0.165 -2.719 -0.68 -0.854 -0.198 -0.456 -0.072 -3.357 -0.075 -2.748 0.538 0.235 0.386 2.612 -6.474 0.362 -3.191 -0.521 -1.644 -1.019 -0.876 -1.645 -0.076 -3.129 1.252 -0.3 0.168 -1.052 0.71 -0.182 0.163 -0.151 0.77" />
    <path class="write-flat-pen" transform="translate(-163.138,67.315)" fill="#FFFFFF" stroke-width="1.6" __comx="315.899" __comy="471.818" __timestamp="0x178c6db4af1" d="M473.501 411.591 l0.863 -0.326 0.123 -0.023 3.712 -0.83 3.683 -0.502 0.356 -0.05 2.759 -0.314 0.009 -0.203 -2.719 -0.56 -0.438 -0.086 -3.91 0.265 -3.806 1.134 -0.242 0.108 -0.822 0.587" />
    <path class="write-flat-pen" transform="translate(-163.138,67.315)" fill="#FFFFFF" stroke-width="1.6" __comx="319.393" __comy="471.818" __timestamp="0x178c6db4bcc" d="M481.202 403.304 l-0.518 1.266 -0.091 0.461 -0.039 4.735 0.081 0.782 0.838 4.442 0.977 1.633 1.948 1.512 0.108 -0.097 -1.195 -2.002 -0.588 -1.47 -0.804 -4.211 -0.082 -0.673 -0.23 -4.593 0.013 -0.319 0.229 -1.274" />
    <path class="write-flat-pen" transform="translate(-163.138,67.315)" fill="#FFFFFF" stroke-width="1.6" __comx="334.722" __comy="471.818" __timestamp="0x178c6db4dba" d="M498.946 407.469 l0.036 -0.795 -0.017 -0.181 -0.273 -0.901 -0.201 -0.288 -1.501 -1.028 -0.635 -0.129 -1.945 0.183 -1.469 0.863 -1.381 1.764 -0.822 2.353 -0.061 2.606 0.816 2.67 1.177 1.702 1.656 1.194 2.197 0.518 2.609 -0.441 2.348 -1.136 1.857 -1.57 1.199 -1.962 0.511 -2.162 -0.22 -1.994 -0.894 -1.872 -1.664 -1.678 -1.788 -0.876 -1.913 -0.208 -1.271 0.607 -1.588 1.734 0.108 0.164 2.096 -0.694 0.856 -0.201 1.255 0.156 1.299 0.636 1.283 1.293 0.66 1.383 0.16 1.45 -0.388 1.645 -0.931 1.523 -1.505 1.272 -1.961 0.949 -2.065 0.35 -1.572 -0.371 -1.175 -0.846 -0.88 -1.271 -0.672 -2.186 0.042 -2.102 0.639 -1.881 1.024 -1.352 0.926 -0.586 1.413 -0.221 0.199 0.014 1.243 0.581 0.029 0 0.413 0.601 0.034 0.049 0.207 0.728" />
    <path class="write-flat-pen" transform="translate(-163.138,67.315)" fill="#FFFFFF" stroke-width="1.6" __comx="345.4" __comy="471.818" __timestamp="0x178c6db4fc6" d="M503.544 390.803 l-0.27 -0.374 0.08 0.179 0.217 -0.293 -0.007 0.041 1.507 -0.878 0.193 -0.067 1.488 -0.354 1.056 0.17 0.551 0.528 0.27 0.891 -0.169 1.598 -0.921 2.275 -2.369 3.681 -0.295 1.512 1.137 1.002 5.7 0.795 2.728 0.279 0.07 -0.224 -2.49 -1.357 -5.306 -0.986 -0.125 -0.102 0.055 -0.335 2.263 -3.56 1.056 -2.609 0.207 -2.128 -0.503 -1.564 -1.203 -1.087 -1.802 -0.228 -1.828 0.537 -0.393 0.176 -1.599 1.27 -0.177 0.26 -0.099 0.788 0.104 0.241 0.595 0.288" />
    <path class="write-flat-pen" transform="translate(-163.138,67.315)" fill="#FFFFFF" stroke-width="1.6" __comx="253.276" __comy="455.549" __timestamp="0x178c6db9787" d="M416.31 388.547 l0.083 -0.132 0.273 -0.491 -0.045 -0.031 -0.363 0.428 -0.094 0.124" />
    <path class="write-flat-pen" fill="#FFFFFF" stroke-width="1.6" __comx="486.451" __comy="90.946" __timestamp="0x178c6dcb918" d="M482.399 96.259 l-0.13 -1.972 -0.021 -0.253 -0.433 -4.988 -0.016 -0.324 -0.172 -1.78 0 0 -0.738 0.784 3.658 0.341 5.311 -1.018 0.866 0.154 0.337 0.522 -0.069 2.387 -3.017 11.728 0.223 1.318 0.155 0.041 0.848 -1.03 3.378 -11.825 0.072 -3.074 -0.992 -1.492 -1.815 -0.313 -5.388 1.055 -3.465 -0.177 -0.738 0.784 0 0 0.3 1.724 0.031 0.314 0.78 4.984 0.052 0.263 0.474 1.924" />
    <path class="write-flat-pen" fill="#FFFFFF" stroke-width="1.6" __comx="340.549" __comy="103.681" __timestamp="0x178c6dcc75f" d="M344.501 104.243 l0.538 -1.944 0.018 -0.109 -0.123 -2.149 -0.195 -0.4 -1.453 -1.339 -2.526 -0.205 -3.137 1.089 -2.433 1.833 -2.525 3.242 -1.446 3.67 -0.427 3.506 0.737 3.274 1.348 2.111 2.476 1.757 2.428 0.588 2.733 -0.227 3.522 -1.192 3.472 -2.132 0.272 -0.265 0.265 -0.293 2.269 -2.509 -0.076 -0.089 -2.844 1.832 -0.325 0.208 -0.227 0.145 -3.402 1.761 -3.229 1.05 -2.312 0.193 -1.913 -0.46 -2.008 -1.416 -1.058 -1.642 -0.636 -2.77 0.366 -3.069 1.292 -3.306 2.261 -2.948 2.094 -1.617 2.658 -0.996 1.866 0.049 1.108 0.826 0.047 0.053 0.416 1.846 0.005 0.006 -0.196 1.983" />
    <path class="write-flat-pen" fill="#FFFFFF" stroke-width="1.6" __comx="358.517" __comy="106.152" __timestamp="0x178c6dcc939" d="M356.922 107.698 l0.212 -1.526 -0.005 -0.185 -0.937 -1.569 -0.597 -0.06 -1.72 0.733 -1.558 2.112 -0.87 2.884 0.101 1.855 0.965 1.848 1.895 1.326 2.077 0.354 2.903 -0.563 2.668 -1.351 2.341 -2.21 0.976 -1.837 0.211 -2.115 -0.592 -1.766 -1.688 -1.934 -1.838 -0.98 -2.221 -0.096 -1.924 1.582 -0.107 0.331 -0.525 2.246 0.088 0.041 1.377 -1.85 0.06 -0.029 1.456 -0.853 1.374 0.116 1.298 0.7 1.313 1.495 0.401 1.174 -0.136 1.506 -0.711 1.373 -1.996 1.92 -2.296 1.191 -2.458 0.505 -1.531 -0.243 -1.392 -0.945 -0.705 -1.298 -0.095 -1.348 0.7 -2.485 1.192 -1.755 1.155 -0.629 -0.103 -0.026 0.828 0.875 0.007 -0.026 0.129 1.505" />
    <path class="write-flat-pen" fill="#FFFFFF" stroke-width="1.6" __comx="371.947" __comy="103.827" __timestamp="0x178c6dccaef" d="M372.357 102.803 l-0.891 -1.126 -0.242 -0.112 -1.614 -0.377 -1.741 0.525 -0.751 1.108 0.411 1.407 6.926 4.588 1.382 1.451 0.363 1.116 -0.264 1.075 -0.812 0.705 -1.692 0.326 -4.153 -1.321 -3.017 -0.933 -0.07 0.127 2.503 2.137 4.638 1.589 2.498 -0.509 1.462 -1.326 0.41 -1.958 -0.649 -1.783 -1.745 -1.736 -6.736 -4.332 -0.153 -0.439 0.189 -0.336 1.082 -0.418 1.301 0.13 0.014 -0.008 1.01 0.771" />
    <path class="write-flat-pen" fill="#FFFFFF" stroke-width="1.6" __comx="495.533" __comy="105.766" __timestamp="0x178c6dcd02f" d="M487.248 112.806 l-0.041 0.092 -0.174 -0.002 0.455 0.26 0.107 -0.106 0.829 -1.12 0.349 -0.519 13.705 -19.181 1.554 -3.045 -0.128 -0.085 -2.192 2.602 -13.731 19.192 -0.309 0.59 -0.582 1.259 -0.045 0.136 0.455 0.26 -0.102 -0.14 0.047 -0.103" />
    <path class="write-flat-pen" fill="#FFFFFF" stroke-width="1.6" __comx="502.166" __comy="105.766" __timestamp="0x178c6dcd283" d="M497.884 105.466 l0.024 -1.102 0.021 -0.02 1.652 -1.953 0.081 -0.039 1.267 -0.349 0.956 0.236 0.538 0.687 0.003 1.203 -0.929 1.789 -4.856 4.947 -0.676 1.696 0.718 1.446 1.907 0.878 6.342 0.014 3.438 -0.547 -0.003 -0.155 -3.428 -0.43 -6.007 -0.353 -1.179 -0.524 -0.223 -0.407 0.31 -0.85 4.731 -4.948 1.132 -2.262 -0.055 -1.949 -1.105 -1.307 -1.66 -0.342 -1.66 0.552 -0.36 0.231 -1.595 2.455 -0.032 0.291 0.332 1.157" />
    <path class="write-flat-pen" fill="#FFFFFF" stroke-width="1.6" __comx="513.504" __comy="105.766" __timestamp="0x178c6dcd4b2" d="M512.13 104.983 l-0.544 -0.032 -0.119 0.061 -1.052 0.772 -0.203 0.229 -1.141 1.887 0.019 1.623 1.421 1.348 4.342 1.531 1.42 0.996 0.141 0.447 -0.24 0.377 -1.52 0.646 -2.507 0.309 -2.858 -0.016 -0.023 0.127 2.82 1.004 2.891 -0.064 2.142 -0.891 0.817 -1.303 -0.495 -1.503 -1.961 -1.361 -4.28 -1.454 -0.877 -0.761 -0.067 -0.775 0.775 -1.627 0.081 -0.131 0.74 -0.919 -0.026 0 0.367 -0.262" />
    <path class="write-flat-pen" fill="#FFFFFF" stroke-width="1.6" __comx="516.43" __comy="105.766" __timestamp="0x178c6dcd57f" d="M510.16 104.785 l0.994 -0.695 0.105 -0.023 8.446 -1.062 3.395 -0.581 -0.014 -0.204 -3.465 -0.098 -8.605 1.014 -0.363 0.169 -0.892 1.048" />
    <path class="write-flat-pen" fill="#FFFFFF" stroke-width="1.6" __comx="659.422" __comy="223.5" __timestamp="0x178c6dcea70" d="M660.761 222.643 l0.653 -0.893 0.101 -0.297 -0.563 -1.243 -0.613 -0.006 -2.077 0.913 -3.144 2.69 -1.912 2.55 -1.01 2.587 -0.122 2.554 0.837 1.906 1.602 1.253 2.289 0.491 3.299 -0.57 3.856 -1.86 0.26 -0.209 2.552 -2.118 -0.053 -0.085 -3.029 1.35 -0.235 0.098 -3.758 1.45 -2.859 0.462 -1.693 -0.36 -1.059 -0.819 -0.566 -1.263 0.076 -1.99 0.834 -2.207 1.681 -2.312 2.834 -2.58 1.645 -0.91 -0.187 -0.017 0.391 0.342 0.028 -0.033 -0.315 0.993" />
    <path class="write-flat-pen" fill="#FFFFFF" stroke-width="1.6" __comx="672.467" __comy="227.235" __timestamp="0x178c6dcec2f" d="M671.073 227.703 l0.653 -0.944 0.084 -0.402 -1.276 -0.49 -0.467 0.415 -1.22 2.118 -0.512 2.702 0.371 1.834 1.13 1.369 1.921 0.438 2.111 -0.737 1.664 -1.554 1.054 -2.228 0.011 -1.978 -0.923 -1.809 -1.606 -1.174 -2.058 -0.289 -1.773 1.177 -1.37 2.279 0.099 0.087 1.959 -1.519 1.347 -0.581 1.223 0.222 1.033 0.771 0.607 1.185 -0.001 1.302 -0.788 1.696 -1.233 1.179 -1.448 0.534 -1.096 -0.219 -0.653 -0.746 -0.291 -1.265 0.36 -2.284 0.92 -1.868 -0.079 0.051 0.219 -0.126 0.064 -0.298 -0.313 1.013" />
    <path class="write-flat-pen" fill="#FFFFFF" stroke-width="1.6" __comx="682.293" __comy="224.991" __timestamp="0x178c6dcedf1" d="M684.36 224.441 l-0.507 -0.973 -0.253 -0.16 -2.334 -0.344 -0.391 0.131 -1.279 0.957 -0.182 1.474 1.255 1.597 3.498 1.894 0.982 1.069 0.052 0.604 -0.438 0.759 -1.368 0.733 -2.608 -0.114 -2.767 -0.614 -0.058 0.138 2.545 1.61 3.178 0.401 2.09 -1.114 0.849 -1.492 -0.145 -1.505 -1.463 -1.575 -3.483 -1.839 -0.798 -0.945 0.015 -0.452 0.675 -0.603 -0.009 -0.007 1.963 -0.019 -0.012 -0.028 0.688 0.641" />
    <path class="write-flat-pen" fill="#FFFFFF" stroke-width="1.6" __comx="593.053" __comy="199.031" __timestamp="0x178c6dcfbd5" d="M595.379 198.275 l0.612 -0.502 0.082 -0.264 -0.841 -0.984 -0.512 0.035 -2.91 1.213 -2.253 1.916 -1.696 2.575 -0.642 2.381 0.451 1.593 1.511 1.021 2.171 -0.058 3.116 -1.264 0 0 2.139 -1.654 1.021 -2.171 0 0 -1.247 -0.155 0.794 3.693 1.493 2.657 0.222 -0.084 -0.598 -2.889 -0.613 -3.627 -1.247 -0.155 0 0 -0.876 1.889 -1.743 1.357 0 0 -2.73 1.123 -1.531 0.054 -0.8 -0.526 -0.245 -0.819 0.483 -1.866 1.471 -2.289 1.967 -1.74 2.544 -1.254 -0.043 -0.015 0.51 0.228 0.057 -0.175 -0.281 0.623" />
    <path class="write-flat-pen" fill="#FFFFFF" stroke-width="1.6" __comx="761.931" __comy="221.887" __timestamp="0x178c6dd0718" d="M755.939 210.999 l-0.14 -0.518 0.025 -0.098 0.324 -2.036 0.058 -0.248 0.424 -2.217 0 0 -0.783 0.474 2.99 1.16 2.762 0.209 4.537 -0.666 0.773 0.218 0.261 0.516 -0.427 2.319 -2.302 5.935 -0.06 1.923 0.188 0.059 1.032 -1.566 2.514 -5.952 0.527 -2.933 -0.759 -1.49 -1.658 -0.464 -4.681 0.703 -2.426 -0.159 -2.877 -0.924 -0.783 0.474 0 0 -0.205 2.232 -0.035 0.283 0.019 2.142 0.04 0.275 0.501 0.456" />
    <path class="write-flat-pen" fill="#FFFFFF" stroke-width="1.6" __comx="772.977" __comy="221.887" __timestamp="0x178c6dd08a1" d="M766.023 236.083 l0.178 -0.652 0.133 -0.281 1.795 -3.865 0.598 -1.194 3.713 -6.716 7.675 -12.39 0.415 -2.814 -0.133 -0.042 -1.222 2.42 -7.858 12.165 -3.665 6.825 -0.587 1.266 -1.532 4.044 -0.11 0.448 0.151 0.777" />
    <path class="write-flat-pen" fill="#FFFFFF" stroke-width="1.6" __comx="784.045" __comy="221.887" __timestamp="0x178c6dd0b2b" d="M779.26 222.534 l0.081 -0.193 0.019 0.051 0.677 -0.615 0.179 -0.141 2.098 -1.292 1.852 -0.477 0.907 0.237 0.62 0.752 0.113 1.484 -0.763 2.146 -1.956 2.899 -3.952 3.657 -0.724 1.578 1.004 1.429 6.442 0.972 0.388 -0.036 3.426 -0.357 0.008 -0.203 -3.386 -0.633 -0.3 -0.064 -5.678 -1.113 -0.139 -0.173 0.206 -0.513 3.803 -3.61 2.134 -3.194 0.906 -2.605 -0.198 -2.219 -1.21 -1.407 -1.679 -0.389 -2.355 0.714 -2.193 1.668 -0.241 0.279 -0.511 0.888 -0.099 0.278 0.321 0.297" />
    <path class="write-flat-pen" fill="#FFFFFF" stroke-width="1.6" __comx="796.154" __comy="221.887" __timestamp="0x178c6dd0d14" d="M797.414 223.23 l-0.737 -0.71 -0.33 -0.034 -2.104 0.932 -0.234 0.239 -1.054 1.53 -0.111 1.89 1.078 1.762 6.122 2.99 0.791 0.771 -0.038 0.596 -1.059 1.056 -2.722 1.266 -3.012 0.582 -1.763 -0.526 -0.194 -0.137 -0.276 -0.299 -1.754 -1.96 -0.056 0.036 1.066 2.404 0.199 0.437 0.348 0.482 2.3 0.994 3.582 -0.609 3.142 -1.432 1.645 -1.644 0.104 -1.836 -1.454 -1.399 -6 -2.857 -0.682 -1.04 0.011 -1.125 0.713 -1.211 0.02 -0.034 1.576 -1.034 -0.118 -0.023 0.735 0.322" />
    <path class="write-flat-pen" fill="#FFFFFF" stroke-width="1.6" __comx="799.319" __comy="221.887" __timestamp="0x178c6dd0dc7" d="M792.489 219.239 l1.212 -0.046 0.286 0.034 8.783 0.373 3.485 -0.366 0 -0.246 -3.465 -0.359 -8.767 -0.387 -0.391 0.012 -1.249 0.396" />
    <path class="write-flat-pen" fill="#FFFFFF" stroke-width="1.6" __comx="458.602" __comy="341.737" __timestamp="0x178c6dd29b4" d="M451.113 346.074 l-0.549 -0.829 -0.008 -0.074 -0.268 -2.931 -0.003 -0.279 0.097 -5.761 -0.799 0.392 1.549 1.381 2.504 1.128 2.829 0.337 7.087 -1.32 2.837 -0.056 0.187 0.165 -1.53 11.392 -1.098 18.263 0.72 3.432 0.167 -0.003 0.585 -3.396 1.219 -18.138 1.636 -12.182 -1.294 -1.143 -3.593 0.071 -6.979 1.309 -2.354 -0.268 -2.092 -0.911 -2.158 -1.785 -0.88 0.431 0.259 6.696 0.029 0.351 0.62 3.011 0.12 0.267 0.892 0.701" />
    <path class="write-flat-pen" fill="#FFFFFF" stroke-width="1.6" __comx="302.976" __comy="218.18" __timestamp="0x178c6dd2fde" d="M295.476 221.493 l-0.986 -1.54 -0.041 -0.124 -0.281 -3.554 0.067 -0.292 0.849 -2.195 1.207 -1.271 1.685 -0.758 1.876 -0.152 2.619 0.702 2.052 1.353 1.166 1.511 0.834 2.251 0.045 2.151 -0.814 2.763 -1.924 3.074 -3.195 3.626 -8.556 6.595 0.477 1.456 12.914 0.141 4.27 -0.661 0.547 -0.193 0.365 -0.149 3.222 -1.303 -0.039 -0.154 -3.452 0.399 -0.394 0.044 -0.492 0.075 -4.115 0.382 -11.731 -0.097 0.177 0.582 7.79 -6.071 3.36 -3.817 2.083 -3.343 0.913 -3.165 -0.075 -2.601 -1.005 -2.656 -1.439 -1.846 -2.429 -1.586 -3.056 -0.806 -2.334 0.208 -2.113 0.989 -1.509 1.678 -0.866 2.549 -0.092 0.555 0.651 3.807 0.16 0.293 1.306 1.39" />
    <path class="write-flat-pen" fill="#FFFFFF" stroke-width="1.6" __comx="324.179" __comy="220.194" __timestamp="0x178c6dd3208" d="M321.085 216.933 l-1.175 -0.673 -0.423 0.006 -2.402 1.403 -0.258 0.342 -0.916 2.014 0.013 2.107 1.216 2.232 1.872 1.513 10.225 3.611 1.618 1.017 0.428 0.815 -0.088 1.311 -0.928 1.478 -1.728 1.135 -2.428 0.575 -2.991 -0.218 -4.215 -1.219 -0.182 -0.057 -3.112 -1.197 -0.069 0.117 2.572 2.121 0.259 0.2 4.439 1.595 3.427 0.258 2.936 -0.709 2.237 -1.49 1.298 -2.112 0.108 -2.133 -0.843 -1.529 -2.102 -1.289 -10.144 -3.571 -1.465 -1.169 -0.933 -1.662 -0.047 -1.461 0.66 -1.651 0.029 -0.055 1.822 -1.423 -0.032 -0.021 1.114 0.282" />
    <path class="write-flat-pen" fill="#FFFFFF" stroke-width="1.6" __comx="327.198" __comy="213.897" __timestamp="0x178c6dd32e0" d="M317.022 216.773 l1.267 -1.495 0.231 -0.136 3.247 -1.502 4.022 -0.865 6.98 0.094 0.904 0.111 0.992 0.077 3.318 0.265 0.028 -0.157 -3.204 -0.903 -0.949 -0.27 -0.961 -0.254 -7.239 -0.36 -4.339 0.991 -3.387 1.784 -0.432 0.33 -1.113 1.836" />
    <path class="write-flat-pen" fill="#FFFFFF" stroke-width="1.6" __comx="242.372" __comy="551.082" __timestamp="0x178c6ddb1c1" d="M241.989 553.078 l0.501 -1.316 0.063 -0.174 0.212 -1.844 -0.125 -0.348 -1.143 -1.124 -2.518 0.074 -2.98 1.446 -2.046 2.135 -1.414 3.131 -0.604 3.541 0.138 3.724 0.864 3.529 2.018 3.873 1.866 1.984 2.698 1.423 2.702 0.218 3.103 -0.984 2.793 -2.032 2.266 -2.776 1.767 -3.892 0.657 -3.703 -0.445 -3.464 -1.618 -3.16 -2.486 -2.683 -4.05 -2.312 -2.322 0.169 -0.027 0.163 1.903 0.876 3.55 2.266 2.197 2.384 1.402 2.748 0.382 2.979 -0.585 3.292 -1.604 3.547 -2.016 2.482 -2.438 1.789 -2.599 0.842 -2.125 -0.155 -2.234 -1.162 -1.579 -1.662 -1.875 -3.54 -0.798 -3.229 -0.138 -3.445 0.535 -3.237 1.229 -2.779 1.713 -1.827 2.521 -1.293 1.811 -0.162 0.751 0.559 0 -0.036 0.139 1.605 -0.011 0.123 -0.174 1.398" />
    <path class="write-flat-pen" fill="#FFFFFF" stroke-width="1.6" __comx="267.371" __comy="551.082" __timestamp="0x178c6ddb487" d="M260.881 549.862 l0.747 -0.3 0.111 0.006 8.996 0.118 3.413 -0.458 -0.002 -0.07 -3.416 -0.233 -9.034 -0.236 -0.363 0.063 -0.737 0.675" />
    <path class="write-flat-pen" fill="#FFFFFF" stroke-width="1.6" __comx="269.035" __comy="551.082" __timestamp="0x178c6ddb53c" d="M264.14 553.692 l-0.192 0.203 -0.352 0.249 0.145 0.595 1.315 0.584 6.237 -0.829 3.18 -0.748 -0.021 -0.147 -3.254 0.155 -6.033 0.587 -1.184 -0.291 0.145 0.595 0.228 -0.366 0.192 -0.203" />
    <path class="write-flat-pen" fill="#FFFFFF" stroke-width="1.6" __comx="374.767" __comy="551.082" __timestamp="0x178c6ddbb4f" d="M294.204 551.714 l0.063 0.281 0.348 -0.293 0.131 -0.183 2.575 -3.966 0.347 -0.49 2.517 -3.307 1.255 -0.808 0.689 0.181 1.293 1.742 1.792 4.73 3.832 17.596 0 0 1.087 2.595 0 0 1.107 0.217 0.83 -0.796 6.875 -26.924 0.717 -4.707 -1.013 -6.525 0.182 -0.407 1.249 -0.361 12.032 1.146 6.551 0.027 15.849 -1.602 17.248 -0.771 27.042 -3.577 10.157 -0.781 15.605 -0.27 20.297 -2.139 6.158 -0.192 2.714 0.387 0.165 0.339 -2.572 12.657 -0.056 0.341 -0.046 0.344 -0.482 3.49 0.15 0.041 1.354 -3.252 0.136 -0.325 0.127 -0.354 3.021 -13.145 -0.777 -1.55 -3.65 -0.507 -6.345 0.2 -20.285 2.147 -15.583 0.273 -10.245 0.781 -27.014 3.618 -17.224 0.77 -15.814 1.586 -6.406 -0.022 -12.251 -1.141 -2.176 0.662 -0.568 1.421 1.073 6.7 -0.672 4.428 -6.779 26.477 -0.532 0.545 1.107 0.217 0 0 -1.085 -2.46 0 0 -3.91 -17.544 -1.906 -4.964 -1.666 -2.201 -1.597 -0.381 -1.82 1.231 -2.566 3.54 -0.36 0.541 -2.305 4.175 -0.09 0.212 -0.08 0.442 0.336 0.145" />
    <path class="write-flat-pen" fill="#FFFFFF" stroke-width="1.6" __comx="343.329" __comy="551.082" __timestamp="0x178c6ddbec6" d="M334.314 544.017 l0.83 -2.107 -0.508 -0.016 1.537 3.863 0.272 0.979 1.59 7.756 0.654 6.591 0 0 -0.219 2.653 0 0 -0.365 0.395 0 0 1.329 0.628 0.348 -2.17 1.937 -4.693 1.886 -3.046 2.073 -2.123 1.172 -0.555 1.061 0.226 1.223 1.379 1.346 3.575 0.896 4.64 -0.295 2.467 -1.018 2.301 0.328 0.231 2.019 -2.005 0.489 -3.033 -0.975 -5.01 -1.487 -3.95 -1.727 -1.956 -2.038 -0.447 -1.886 0.878 -2.399 2.426 -2.054 3.293 -2.052 4.983 -0.361 2.354 1.329 0.628 0 0 0.69 -0.79 0 0 0.233 -3.298 0 0 -0.74 -6.79 -1.712 -7.856 -0.335 -1.104 -2.116 -4.316 -0.768 -0.036 -0.741 2.883" />
    <path class="write-flat-pen" fill="#FFFFFF" stroke-width="1.6" __comx="357.981" __comy="551.082" __timestamp="0x178c6ddc0af" d="M352.95 540.301 l0.385 -1.028 0.087 -0.084 1.605 -1.482 1.428 -0.619 0.851 0.177 0.433 0.553 0.045 1.173 -1.788 5.026 0.179 1.615 3.798 1.118 0.381 0.031 3.118 0.232 0.042 -0.178 -2.892 -1.189 -0.298 -0.129 -2.715 -1.052 -0.045 -0.282 1.638 -5.004 -0.153 -1.891 -1.064 -1.21 -1.7 -0.263 -1.921 0.957 -1.625 1.838 -0.199 0.31 -0.087 1.277" />
    <path class="write-flat-pen" fill="#FFFFFF" stroke-width="1.6" __comx="370.701" __comy="551.082" __timestamp="0x178c6ddc1e5" d="M365.887 553.57 l-0.456 0.374 0.527 0.251 0.221 0.067 6.49 0.346 3.301 -0.692 -0.017 -0.174 -3.302 -0.049 -6.344 -0.393 -0.184 -0.018 -0.604 0.078 0.037 0.704" />
    <path class="write-flat-pen" fill="#FFFFFF" stroke-width="1.6" __comx="392.624" __comy="556.453" __timestamp="0x178c6ddcf27" d="M391.596 557.567 l2.246 -0.645 0.256 -0.196 1.11 -1.712 0.032 -0.509 -0.406 -1.412 -1.701 -1.337 -2.065 -0.561 -2.08 0.286 -2.202 1.539 -1.367 2.059 -0.996 3.077 -0.232 3.322 0.589 2.932 1.22 2.289 1.97 1.494 2.126 0.374 2.336 -0.468 2.707 -1.57 1.84 -1.931 1.278 -2.54 0 0 0.003 -1.382 0 0 -0.695 -0.691 -1.097 0.009 -0.381 3.231 0.462 2.76 1.832 1.579 0.504 -0.028 2.165 -0.278 0.01 -0.153 -2.113 -0.55 -0.094 -0.066 -1.043 -1.169 -0.34 -2.125 0.223 -1.831 -0.117 0.002 -0.695 -0.691 0 0 0 1.057 0 0 -1.033 2.07 -1.561 1.647 -2.339 1.371 -1.868 0.383 -1.562 -0.267 -1.486 -1.118 -0.995 -1.859 -0.516 -2.568 0.208 -2.985 0.888 -2.754 1.126 -1.708 1.737 -1.238 1.522 -0.237 1.61 0.385 1.314 0.901 0.376 0.895 0.019 0.128 -0.677 1.579 -0.076 0.091 -2.044 0.912" />
    <path class="write-flat-pen" fill="#FFFFFF" stroke-width="1.6" __comx="401.127" __comy="538.026" __timestamp="0x178c6ddd0e5" d="M396.126 537.874 l1.164 -0.648 0.137 -0.029 3.399 -0.637 0.926 0.211 0.373 0.471 -0.01 1.517 -1.807 5.436 -0.007 1.795 0.969 1.179 2.417 0.16 2.738 -0.62 -0.012 -0.178 -2.695 -0.239 -1.752 -0.382 -0.333 -0.401 -0.013 -1.108 1.73 -5.45 -0.033 -2.147 -0.938 -1.089 -1.565 -0.294 -3.619 0.934 -0.297 0.113 -1.07 1.005" />
    <path class="write-flat-pen" fill="#FFFFFF" stroke-width="1.6" __comx="269.706" __comy="643.247" __timestamp="0x178c6ddd98d" d="M264.067 643.286 l-0.361 0.41 2.627 0.583 0.549 0.018 5.494 -0.54 3.33 -0.687 -0.016 -0.131 -3.384 0.131 -5.452 0.361 -0.447 0.001 -2.622 -0.237 0.12 0.572" />
    <path class="write-flat-pen" fill="#FFFFFF" stroke-width="1.6" __comx="272.867" __comy="646.99" __timestamp="0x178c6ddda4a" d="M267.853 647.052 l1.087 1 5.78 -0.088 3.162 -0.616 -0.017 -0.149 -3.183 0.119 -5.457 -0.082 -0.991 -0.662" />
    <path class="write-flat-pen" fill="#FFFFFF" stroke-width="1.6" __comx="336.787" __comy="636.526" __timestamp="0x178c6dddeaa" d="M330.587 638.735 l-0.199 -1.972 0.036 -0.219 0.617 -1.884 1.407 -2.046 1.655 -1.24 2.129 -0.73 1.448 0.046 1.397 0.669 1.013 1.352 0.567 1.895 -0.17 2.103 -1.428 3.102 -2.634 3.13 -7.285 6.307 -0.998 1.448 0 0 0.249 1.049 1.003 0.6 6.088 -0.083 6.548 1.028 0.308 -0.047 3.092 -0.571 -0.002 -0.132 -3.11 -0.466 -0.186 -0.039 -6.523 -1.337 -5.822 0.119 -0.661 -0.354 0.249 1.049 0 0 0.838 -1.327 7.143 -6.333 2.802 -3.347 1.583 -3.472 0.194 -2.567 -0.717 -2.33 -1.344 -1.758 -1.908 -0.888 -1.922 -0.038 -2.494 0.908 -1.899 1.52 -1.473 2.389 -0.512 2.136 -0.018 0.393 0.534 2.012" />
    <path class="write-flat-pen" fill="#FFFFFF" stroke-width="1.6" __comx="352.762" __comy="639.903" __timestamp="0x178c6dde08d" d="M354.784 637.771 l-0.846 -1.166 -0.457 -0.074 -1.702 0.349 -1.915 1.395 -1.006 1.753 0.096 1.948 1.507 1.959 7.194 3.863 1.155 1.046 0.058 0.361 -0.488 0.623 -2.122 0.909 -4.262 0.749 -3.458 -0.219 -0.237 -0.08 -0.376 -0.173 -2.791 -1.312 -0.047 0.072 2.334 2.016 0.344 0.294 0.425 0.281 3.848 0.604 4.653 -0.776 2.638 -1.151 1.106 -1.464 -0.285 -1.488 -1.664 -1.48 -7.1 -3.774 -1.083 -1.367 -0.08 -1.127 0.642 -1.197 1.445 -1.164 1.236 -0.401 -0.098 -0.03 0.837 0.677" />
    <path class="write-flat-pen" fill="#FFFFFF" stroke-width="1.6" __comx="356.491" __comy="634.652" __timestamp="0x178c6dde159" d="M347.035 636.494 l1.116 -0.886 0.062 0.012 6.532 0.108 0.952 -0.156 6.662 -1.445 0.665 -0.18 3.315 -0.88 -0.032 -0.198 -3.424 0.191 -0.708 0.038 -6.712 1.207 -0.833 0.148 -6.466 0.237 -0.422 0.057 -1.098 1.361" />
    <path class="write-flat-pen" fill="#FFFFFF" stroke-width="1.6" __comx="324.636" __comy="640.099" __timestamp="0x178c6dde33d" d="M323.844 628.646 l0.413 -1.426 -0.369 -0.474 -1.984 1.022 -0.49 0.637 -2.476 4.493 -1.722 5.055 -0.974 5.911 0.04 5.608 0.854 3.921 1.784 3.544 2.529 3.028 2.902 2.21 4.397 1.598 1.103 0.142 3.152 0.405 0.026 -0.128 -3.057 -0.866 -1.002 -0.288 -4.071 -1.81 -2.615 -2.119 -2.326 -2.849 -1.641 -3.284 -0.789 -3.643 -0.038 -5.372 0.937 -5.707 1.636 -4.869 2.295 -4.387 0.289 -0.426 1.085 -0.859 -0.216 -0.292 -0.021 1.165" />
    <path class="write-flat-pen" fill="#FFFFFF" stroke-width="1.6" __comx="370.313" __comy="640.099" __timestamp="0x178c6dde505" d="M364.549 630.362 l0.713 -0.957 -0.109 0.058 1.77 0.992 0.298 0.281 3.285 3.91 2.633 4.358 1.181 3.183 0.694 4.761 -0.229 3.401 -1.231 4.441 -1.442 2.58 -1.431 1.46 -2.778 1.598 -0.265 0.118 -3.045 1.267 0.036 0.13 3.26 -0.493 0.387 -0.064 3.196 -1.456 1.775 -1.686 1.66 -2.891 1.324 -4.757 0.245 -3.706 -0.747 -5.066 -1.295 -3.452 -2.817 -4.543 -3.562 -3.934 -0.507 -0.413 -2.332 -0.902 -0.482 0.168 -0.588 1.392" />
    <path class="write-flat-pen" fill="#FFFFFF" stroke-width="1.6" __comx="382.024" __comy="640.099" __timestamp="0x178c6dde6e8" d="M375.847 620.279 l1.424 -0.789 0.157 -0.071 2.328 -0.833 0.592 0.151 0.156 0.57 -3.225 6.607 -0.079 1.605 1.266 1.119 6.007 0.455 0.664 -0.041 3.344 -0.2 0.011 -0.206 -3.301 -0.567 -0.632 -0.112 -5.521 -0.663 -0.467 -0.383 0.002 -0.691 3.207 -6.844 -0.572 -1.626 -1.554 -0.27 -2.593 1.141 -0.231 0.138 -1.275 1.088" />
    <path class="write-flat-pen" fill="#FFFFFF" stroke-width="1.6" __comx="394.004" __comy="640.099" __timestamp="0x178c6dde83a" d="M387.718 645.031 l1.536 1.33 0.538 0.27 7.081 1.408 3.395 0.071 0.022 -0.207 -3.292 -0.648 -6.885 -1.579 -0.362 -0.153 -1.654 -1.01" />
    <path class="write-flat-pen" fill="#FFFFFF" stroke-width="1.6" __comx="425.657" __comy="639.074" __timestamp="0x178c6ddf236" d="M417.339 641.417 l-0.386 -1.183 -0.042 -0.183 -0.748 -4.586 -0.016 -0.171 -0.009 -1.222 0 0 -0.846 0.682 4.035 1.094 11.268 0.236 1.739 0.437 1.075 0.822 0.974 1.67 0.658 2.842 -0.003 3.348 -2.064 8.878 0.138 1.76 0.107 0.027 0.961 -1.485 2.352 -9 -0.024 -3.697 -0.747 -3.219 -1.231 -2.112 -1.544 -1.184 -2.194 -0.555 -11.266 -0.228 -3.898 -0.946 -0.846 0.682 0 0 0.085 1.275 0.039 0.272 1.102 4.625 0.115 0.279 0.703 1.09" />
    <path class="write-flat-pen" fill="#FFFFFF" stroke-width="1.6" __comx="414.719" __comy="639.074" __timestamp="0x178c6ddf412" d="M413.114 625.865 l-1.574 1.19 -0.297 0.391 -1.561 2.844 -1.462 5.057 -0.78 6.809 0.179 5.806 0.776 3.879 1.852 4.258 2.134 2.726 4.462 2.879 0.992 0.323 0.996 0.258 3.124 0.812 0.044 -0.127 -2.959 -1.29 -0.93 -0.408 -0.844 -0.378 -4.074 -2.93 -1.894 -2.486 -1.733 -4.003 -0.73 -3.652 -0.178 -5.617 0.73 -6.631 1.319 -4.881 1.343 -2.758 0.173 -0.275 1.278 -1.365" />
    <path class="write-flat-pen" fill="#FFFFFF" stroke-width="1.6" __comx="445.349" __comy="639.074" __timestamp="0x178c6ddf59f" d="M440.468 629.637 l2.788 2.222 0.348 0.386 2.233 2.958 1.698 3.405 1.058 3.87 0.288 4.091 -0.598 4.104 -1.23 3.847 -3.431 5.721 -2.141 2.422 0.108 0.126 2.835 -1.856 3.86 -5.838 1.324 -4.116 0.622 -4.363 -0.334 -4.365 -1.172 -4.106 -1.87 -3.587 -2.421 -3.022 -0.47 -0.481 -3.066 -2.009" />
    <path class="write-flat-pen" fill="#FFFFFF" stroke-width="1.6" __comx="453.918" __comy="639.074" __timestamp="0x178c6ddf777" d="M448.59 618.355 l2.182 -1.359 0.131 -0.026 0.964 0.027 0.631 0.522 0.202 1.46 -1.669 4.861 0.318 1.56 4.911 0.964 3.278 0.121 0.035 -0.2 -3.106 -0.988 -4.059 -0.951 -0.1 -0.432 1.565 -4.842 -0.4 -2.142 -1.277 -0.921 -1.414 0.042 -0.401 0.114 -2.118 1.736" />
    <path class="write-flat-pen" fill="#FFFFFF" stroke-width="1.6" __comx="390.195" __comy="619.968" __timestamp="0x178c6ddfd66" d="M286.4 637.244 l0.576 -1.149 0.148 -0.183 3.329 -4.62 0.054 -0.046 0.163 -0.036 0.501 0.817 2.068 12.052 2.666 10.748 1.561 3.872 1.492 -0.24 0.681 -3.182 0.007 -10.541 0.754 -11.275 3.056 -13.163 1.023 -8.497 0.82 -2.735 0.512 -0.598 6.573 0.302 11.418 -0.45 15.034 0.339 9.206 -0.614 16.387 -2.217 18.468 -1.438 49.734 -1.01 37.369 0.296 19.364 -1.432 2.999 0.16 0.159 0.149 -0.311 1.195 -5.04 10.153 -0.164 0.421 -0.122 0.329 -1.234 3.26 0.108 0.058 2.048 -2.821 0.214 -0.295 0.248 -0.39 5.411 -10.162 0.562 -2.308 -1.296 -1.069 -3.597 -0.186 -19.398 1.431 -37.328 -0.274 -49.798 1.001 -18.552 1.455 -16.378 2.226 -9.09 0.617 -15.014 -0.34 -11.401 0.442 -7.231 -0.325 -1.171 1.388 -0.915 3.155 -0.987 8.546 -3.04 13.202 -0.736 11.431 0.002 10.446 -0.447 2.184 0.391 -0.05 -1.197 -2.825 -2.694 -10.606 -2.14 -12.231 -1.151 -1.685 -1.121 0.48 -0.253 0.264 -3.099 4.883 -0.164 0.268 -0.284 1.337" />
    <path class="write-flat-pen" fill="#FFFFFF" stroke-width="1.6" __comx="270.552" __comy="730.906" __timestamp="0x178c6de03c6" d="M263.27 732.185 l1.401 -0.05 0.302 0.018 9.606 -1.653 3.321 -0.847 -0.025 -0.154 -3.425 0.227 -9.546 1.632 -0.293 0.018 -1.408 0.382" />
    <path class="write-flat-pen" fill="#FFFFFF" stroke-width="1.6" __comx="271.566" __comy="737.199" __timestamp="0x178c6de0480" d="M267.039 737.377 l2.562 0.412 0.533 0.029 2.783 -0.14 3.177 -0.408 -0.007 -0.146 -3.193 -0.103 -2.754 -0.017 -0.486 -0.008 -2.57 -0.077" />
    <path class="write-flat-pen" fill="#FFFFFF" stroke-width="1.6" __comx="357.618" __comy="735.124" __timestamp="0x178c6de45cf" d="M356.072 725.451 l-0.188 -1.507 -0.3 -0.289 -1.454 -0.347 -1.907 0.824 -1.517 1.668 -1.607 3.794 -0.809 4.665 0.22 4.658 1.052 4.2 1.7 3.184 1.695 1.746 2.255 1.148 2.591 0.298 2.772 -0.595 3.265 -1.856 1.789 -1.807 1.317 -2.746 -0.079 -2.158 -0.943 -1.476 -1.901 -1.088 -2.409 -0.025 -2.513 0.945 -2.37 1.857 -1.248 2.153 0.912 1.356 0.663 0.009 1.702 -0.148 0.038 -0.237 -1.573 -0.666 -0.035 -0.101 0.04 -0.193 0.691 -1.127 1.951 -1.531 2.017 -0.763 1.717 0.013 1.224 0.698 0.514 0.803 0.051 1.359 -1.039 2.172 -1.456 1.477 -2.876 1.638 -2.297 0.498 -2.072 -0.232 -1.792 -0.904 -1.378 -1.409 -1.525 -2.83 -0.991 -3.877 -0.231 -4.354 0.722 -4.359 1.404 -3.464 1.141 -1.349 1.286 -0.675 0.859 0.054 -0.1 -0.109 0.454 1.146" />
    <path class="write-flat-pen" fill="#FFFFFF" stroke-width="1.6" __comx="378.813" __comy="735.124" __timestamp="0x178c6de4825" d="M371.167 733.215 l-0.427 -0.967 0.02 0.036 1.214 -2.611 0.151 -0.207 1.721 -1.903 1.782 -1.052 1.808 -0.315 1.223 0.396 0.876 0.964 0.563 1.888 -0.141 2.603 -1.095 4.065 -1.916 4.145 -2.221 3.242 -3.918 3.932 0.133 1.085 0.964 0.684 8.362 -1.818 4.076 -0.397 3.442 -0.381 0.009 -0.139 -3.452 -0.811 -4.297 0.139 -8.479 1.844 0.964 0.684 -0.038 -0.312 3.471 -3.485 2.378 -3.475 2.021 -4.395 1.147 -4.364 0.133 -3.036 -0.765 -2.465 -1.389 -1.497 -1.954 -0.612 -2.429 0.45 -2.176 1.348 -1.831 2.208 -0.251 0.399 -1.016 3.038 0.032 0.397 0.826 0.999" />
    <path class="write-flat-pen" fill="#FFFFFF" stroke-width="1.6" __comx="397.652" __comy="735.124" __timestamp="0x178c6de4a73" d="M392.332 727.442 l-1.115 -0.341 -0.358 0.374 -1.537 3.651 -0.128 0.487 -0.439 2.247 0.431 1.947 1.458 1.288 2.54 0.432 7.939 -0.655 2.147 0.244 1.056 0.822 0.613 1.28 0.014 1.936 -0.672 1.965 -1.469 1.907 -1.566 0.919 -2.02 0.35 -3.378 -0.577 -0.321 -0.089 -0.358 -0.104 -3.217 -0.961 -0.068 0.148 2.824 1.815 0.334 0.214 0.421 0.218 3.728 0.934 2.61 -0.42 2.089 -1.226 1.817 -2.364 0.841 -2.473 -0.027 -2.564 -0.938 -1.929 -1.701 -1.313 -2.736 -0.308 -7.897 0.653 -1.916 -0.314 -0.765 -0.657 -0.279 -1.153 0.329 -1.906 0.085 -0.37 1.112 -3.503 -0.188 0.182 0.599 -0.085" />
    <path class="write-flat-pen" fill="#FFFFFF" stroke-width="1.6" __comx="399.93" __comy="735.124" __timestamp="0x178c6de4b42" d="M388.682 727.186 l1.646 0.33 0.588 0.046 15.764 -0.956 1.371 -0.287 3.128 -0.648 -0.025 -0.217 -3.193 0.074 -1.369 0.026 -15.688 0.73 -0.493 0.01 -1.637 -0.005" />
    <path class="write-flat-pen" fill="#FFFFFF" stroke-width="1.6" __comx="428.561" __comy="735.124" __timestamp="0x178c6de50dc" d="M422.173 736.543 l1.923 -0.469 0.445 -0.02 7.35 -0.931 3.235 -0.886 -0.026 -0.138 -3.312 0.338 -7.332 0.705 -0.537 0.052 -1.924 0.819" />
    <path class="write-flat-pen" fill="#FFFFFF" stroke-width="1.6" __comx="454.991" __comy="735.124" __timestamp="0x178c6de54a2" d="M457.575 749.175 l-0.306 0.3 0.523 0.047 0.01 -0.066 -0.004 -1.913 -0.007 -0.641 -0.836 -19.199 0 0 -0.013 -0.319 0 0 -0.052 -1.834 0 0 -1.322 -0.214 -0.872 2.295 -6.967 9.092 -0.397 1.956 2.09 0.881 9.219 -0.39 0.665 -0.186 3.345 -0.946 -0.041 -0.266 -3.475 0.104 -0.61 0.01 -8.805 0.078 -0.595 -0.241 0.057 -0.348 6.75 -9.064 0.915 -2.497 -1.322 -0.214 0 0 0.082 1.839 0 0 0.017 0.33 0 0 1.184 19.184 0.055 0.654 0.332 1.957 0.056 0.104 0.523 0.047 0.038 -0.427" />
    <path class="write-flat-pen" fill="#FFFFFF" stroke-width="1.6" __comx="469.592" __comy="735.124" __timestamp="0x178c6de56e3" d="M472.251 730.74 l-0.016 -1.568 -0.035 -0.286 -1.308 -2.226 -0.556 -0.253 -1.701 -0.051 -1.952 1.332 -1.578 2.276 -1.199 3.651 -0.075 2.709 0.829 1.512 1.955 0.772 2.376 -0.766 0 0 1.972 -1.719 0 0 1.92 -3.89 0 0 -1.442 -0.427 -0.6 5.061 0.228 3.45 1.591 2.84 2.528 1.84 0.168 -0.169 -1.719 -2.374 -1.064 -2.54 -0.194 -3.008 0.578 -4.922 -1.442 -0.427 0 0 -1.787 3.614 0 0 -1.507 1.309 0 0 -1.558 0.508 -0.947 -0.36 -0.383 -0.674 0.034 -2.093 1.026 -3.268 1.287 -1.924 1.369 -1.007 1.041 -0.048 0.025 -0.006 1.304 1.602 0.034 0.082 0.346 1.501" />
    <path class="write-flat-pen" fill="#FFFFFF" stroke-width="1.6" __comx="404.02" __comy="718.84" __timestamp="0x178c6de616a" d="M300.066 729.963 l0.619 -0.865 0.105 -0.151 3.346 -4.274 0.244 -0.285 1.537 -1.59 0.663 -0.193 0.618 0.508 1.091 2.956 3.065 23.303 1.037 4.514 1.145 1.533 1.456 0.182 1.4 -1.116 1.516 -3.315 4.137 -16.625 5.089 -16.047 1.331 -8.972 0.223 -0.305 49.422 3.059 14.648 0.417 44.557 -3.19 35.6 -0.814 10.804 -0.741 0 0 21.501 -3.076 0 0 2.342 0.073 -0.609 -0.987 -3.243 6.923 -1.99 7.915 0.045 0.454 0.393 3.37 0.156 0.001 0.45 -3.363 0.052 -0.312 2.207 -7.585 3.187 -6.816 -0.609 -0.987 -2.459 -0.062 0 0 -21.569 3.069 0 0 -10.723 0.728 -35.601 0.826 -44.522 3.193 -14.557 -0.39 -50.122 -3.067 -0.84 1.152 -1.36 9.189 -5.088 15.981 -4.135 16.542 -1.32 2.919 -0.709 0.581 -0.354 -0.034 -0.663 -0.859 -0.992 -4.183 -3.175 -23.361 -1.288 -3.354 -1.332 -1.016 -1.444 0.48 -1.698 1.846 -0.274 0.337 -3.109 4.531 -0.099 0.211 -0.34 1.021" />
    <path class="write-flat-pen" fill="#FFFFFF" stroke-width="1.6" __comx="272.683" __comy="822.299" __timestamp="0x178c6de92c2" d="M266.01 819.009 l-0.375 0.147 0.507 0.523 0.326 0.161 3.065 0.685 6.961 -1.054 3.236 -1.04 -0.021 -0.09 -3.335 0.471 -6.814 0.794 -2.874 -0.469 -0.211 -0.071 -0.629 -0.226 -0.118 0.429" />
    <path class="write-flat-pen" fill="#FFFFFF" stroke-width="1.6" __comx="277.236" __comy="822.299" __timestamp="0x178c6de9386" d="M271.643 823.971 l0.833 -0.031 0.243 0.021 6.879 0.59 3.333 -0.042 0.011 -0.149 -3.284 -0.528 -6.894 -0.718 -0.381 0.013 -0.854 0.378" />
    <path class="write-flat-pen" fill="#FFFFFF" stroke-width="1.6" __comx="381.983" __comy="822.299" __timestamp="0x178c6de98b9" d="M302.26 818.254 l0.581 -0.976 0.104 -0.179 2.707 -3.791 1.688 -1.497 0.862 -0.11 1.12 0.645 1.144 1.799 1.684 5.476 2.667 13.071 1.18 3.44 1.493 2.032 1.642 -0.435 1.4 -3.496 4.248 -16.604 0.807 -5.063 0.122 -6.642 0.271 -0.826 11.225 2.51 6.304 0.642 5.941 -0.203 17.787 -2.832 27.345 -2.106 26.621 -3.737 21.458 -1.437 7.832 -1.027 8.514 -1.939 1.499 0.05 0.077 0.098 -2.425 9.727 -0.04 0.236 -0.625 3.39 0.122 0.041 1.56 -3.074 0.124 -0.25 2.909 -10.412 -0.97 -1.214 -2.374 -0.081 -8.633 1.969 -7.717 1.008 -21.464 1.448 -26.626 3.755 -27.358 2.107 -17.756 2.837 -5.753 0.204 -6.123 -0.618 -12.404 -2.762 -0.738 2.256 -0.12 6.756 -0.779 4.901 -4.204 16.455 -1.09 2.775 -0.067 0.029 -0.834 -1.102 -1.101 -3.157 -2.696 -13.043 -1.798 -5.685 -1.425 -2.177 -1.742 -0.965 -1.611 0.231 -2.03 1.859 -2.637 4.08 -0.12 0.276 -0.281 1.131" />
    <path class="write-flat-pen" fill="#FFFFFF" stroke-width="1.6" __comx="362.858" __comy="822.299" __timestamp="0x178c6de9bad" d="M359.749 822.143 l-0.253 -1.6 -0.025 -0.214 -0.876 -1.841 -0.564 -0.127 -1.453 0.373 -1.347 1.495 -0.786 2.483 0.409 1.652 1.857 1.548 9.314 2.274 2.428 1.109 1.008 1.311 0.31 1.79 -0.571 1.894 -1.535 1.87 -1.713 1.032 -2.653 0.652 -2.119 -0.223 -1.899 -0.918 -0.999 -0.956 -0.187 -0.236 -1.786 -2.458 -0.138 0.071 0.978 2.877 0.151 0.416 1.092 1.429 2.35 1.245 2.66 0.292 3.136 -0.776 2.129 -1.294 1.874 -2.317 0.728 -2.522 -0.471 -2.471 -1.457 -1.839 -2.862 -1.297 -9.132 -2.225 -1.273 -1.049 -0.22 -0.845 0.551 -1.869 0.871 -1.068 0.81 -0.313 -0.177 -0.052 0.858 1.142 0.035 0.111 0.592 1.537" />
    <path class="write-flat-pen" fill="#FFFFFF" stroke-width="1.6" __comx="363.548" __comy="822.299" __timestamp="0x178c6de9c8c" d="M357.567 819.291 l-0.323 -1.204 -0.128 0.201 1.367 -0.66 7.749 -0.828 0.756 -0.04 0.822 -0.068 3.359 -0.271 0.002 -0.138 -3.349 -0.372 -0.818 -0.093 -0.81 -0.07 -8.091 0.605 -1.787 1.014 -0.392 0.565 0.885 1.675" />
    <path class="write-flat-pen" fill="#FFFFFF" stroke-width="1.6" __comx="381.37" __comy="822.299" __timestamp="0x178c6de9e85" d="M376.266 822.02 l-0.689 -1.602 0.004 -0.044 0.154 -3.043 8.61 -0.325 1.129 0.356 0.794 1.058 0.537 2.556 -0.601 10.955 0.573 1.758 1.522 0.966 0.116 -0.095 -0.446 -1.458 -0.156 -1.316 0.587 -10.936 -0.67 -3.1 -1.312 -1.729 -1.868 -0.589 -10.224 0.532 0.045 4.501 0.07 0.349 1.092 1.611" />
    <path class="write-flat-pen" fill="#FFFFFF" stroke-width="1.6" __comx="400.482" __comy="822.299" __timestamp="0x178c6dea062" d="M399.304 815.634 l-0.206 -1.118 -0.447 -0.225 -1.618 1.142 -0.342 0.461 -1.549 3.532 -0.819 4.738 0.174 3.279 0.906 2.814 1.478 1.989 2.119 1.241 2.084 0.205 2.564 -0.672 2.032 -1.434 0.96 -1.688 -0.222 -1.819 -1.772 -1.38 -1.925 -0.307 -2.631 0.709 -2.401 1.748 -2.078 2.662 -0.792 2.275 0.247 2.718 0.149 0.019 0.896 -2.398 0.879 -1.815 1.811 -2.313 1.984 -1.455 2.026 -0.563 1.208 0.179 0.967 0.737 0.092 0.693 -0.539 0.966 -1.532 1.088 -2.042 0.536 -1.493 -0.144 -1.578 -0.92 -1.157 -1.547 -0.785 -2.397 -0.178 -2.929 0.696 -4.437 1.285 -3.331 0.151 -0.248 0.879 -0.97 -0.319 -0.166 0.408 0.693" />
    <path class="write-flat-pen" fill="#FFFFFF" stroke-width="1.6" __comx="278.023" __comy="887.039" __timestamp="0x178c6dea329" d="M272.605 882.997 l-0.382 0.51 0.099 0.219 0.239 0.024 3.707 0.017 0.498 -0.009 3.681 0.139 3.334 0.265 0.04 -0.208 -3.247 -0.997 -3.777 -0.45 -0.573 0.021 -3.684 0.323 -0.031 0.025 -0.059 0.146 0.154 0.51" />
    <path class="write-flat-pen" fill="#FFFFFF" stroke-width="1.6" __comx="279.462" __comy="887.039" __timestamp="0x178c6dea3ec" d="M275.192 887.236 l-0.463 1.233 1.298 0.945 5.169 -0.617 2.998 -0.965 -0.046 -0.204 -3.075 0.4 -4.788 0.334 -0.56 -0.264 0.087 -0.683" />
    <path class="write-flat-pen" fill="#FFFFFF" stroke-width="1.6" __comx="321.225" __comy="887.039" __timestamp="0x178c6dea67e" d="M312.79 882.52 l-0.33 -2.109 0.005 -0.097 0.795 -2.393 0.029 -0.02 1.71 -1.04 2.289 -0.347 2.328 0.357 1.84 0.885 1.092 1.215 0.783 2.059 0.02 2.724 -1.026 3.348 -2.441 4.4 0 0 -6.927 7.539 0 0 -0.11 1.105 1.022 0.844 8.408 -2.495 4.867 -0.869 0.265 -0.033 3.433 -0.288 0.012 -0.213 -3.379 -0.672 -0.386 -0.069 -5.155 0.576 -8.519 2.531 1.022 0.844 0.055 -0.577 0 0 6.656 -7.316 0 0 2.586 -4.713 1.117 -3.731 -0.058 -3.22 -1.002 -2.544 -1.472 -1.609 -2.29 -1.085 -2.754 -0.393 -2.767 0.479 -2.048 1.393 -0.296 0.387 -0.571 2.881 0.051 0.302 0.68 2.076" />
    <path class="write-flat-pen" fill="#FFFFFF" stroke-width="1.6" __comx="341.58" __comy="887.039" __timestamp="0x178c6dea8d7" d="M344.498 900.027 l-0.675 0.234 0.776 0.208 -0.009 -0.087 -0.671 -5.441 -0.102 -1.094 0 0 -3.073 -18.121 0 0 -1.549 0.08 -0.123 1.818 -3.896 8.606 -0.598 2.929 1.403 0.711 3.58 -0.73 5.044 0.815 0.535 0.091 3.372 0.629 0.068 -0.203 -3.073 -1.524 -0.567 -0.277 -5.391 -1.161 -3.342 0.682 0.181 0.092 0.317 -1.56 3.91 -8.714 0.138 -2.1 -1.549 0.08 0 0 3.118 18.061 0 0 0.118 1.08 1.05 5.607 0.147 0.221 0.776 0.208 0.487 -0.522" />
    <path class="write-flat-pen" fill="#FFFFFF" stroke-width="1.6" __comx="502.139" __comy="195.739" __timestamp="0x178c6debfdc" d="M493.663 197.086 l-0.934 -1.365 0 -0.051 0.358 -1.677 0.082 -0.103 1.723 -1.63 2.276 -1.113 2.917 -0.655 1.656 0.169 1.096 0.811 0.594 1.125 0.213 2.371 -0.528 2.902 -1.51 3.794 -5.103 7.61 -0.227 1.718 1.433 1.593 3.439 1.31 3.475 0.404 3.47 -0.848 0.783 -0.386 0.62 -0.393 2.819 -1.788 -0.074 -0.156 -3.172 1.042 -0.663 0.213 -0.693 0.197 -3.16 0.515 -3.024 -0.362 -2.899 -1.097 -0.697 -0.763 0.074 -0.638 4.914 -7.484 1.598 -4.082 0.572 -3.239 -0.271 -2.849 -0.89 -1.658 -1.674 -1.213 -2.263 -0.214 -3.288 0.78 -2.576 1.343 -1.842 1.99 -0.24 0.431 -0.085 2.138 0.153 0.319 1.273 1.224" />
    <path class="write-flat-pen" fill="#FFFFFF" stroke-width="1.6" __comx="522.958" __comy="201.575" __timestamp="0x178c6dec23e" d="M524.799 212.473 l0.377 0.649 0 0 0.631 -0.115 0.128 -0.256 0.506 -4.266 -0.351 -4.534 0 0 -3.154 -13.926 0 0 -1.244 0.185 0.064 1.174 -1.265 2.562 -5.44 5.743 -0.686 1.589 0.853 1.579 2.361 0.823 4.061 -0.152 5.215 -1.387 0.859 -0.368 0.814 -0.409 3.024 -1.509 -0.07 -0.193 -3.29 0.773 -0.876 0.202 -0.837 0.207 -5.06 1.097 -3.606 0.147 -1.52 -0.511 -0.234 -0.391 0.262 -0.681 5.268 -5.807 1.481 -3.058 -0.12 -1.517 -1.244 0.185 0 0 3.256 13.82 0 0 0.417 4.354 -0.235 4.077 -0.041 0.162 0.631 -0.115 0 0 -0.615 -0.429" />
    <path class="write-flat-pen" fill="#FFFFFF" stroke-width="1.6" __comx="593.409" __comy="405.078" __timestamp="0x178c6def28c" d="M591.319 398.713 l0.262 0.122 0.115 -0.535 0.014 -0.159 -0.136 -1.923 -0.133 -0.34 -0.971 -1.133 -1.577 -0.127 -1.477 1.207 -0.892 2.154 0.026 1.955 0.993 1.593 6.691 3.447 2.781 2.109 1.333 1.872 0.632 1.999 -0.101 1.27 -0.759 1.262 -1.639 1.031 -2.462 0.574 -2.407 -0.124 -2.23 -0.778 -1.306 -0.98 -0.395 -0.811 -0.037 -0.071 -0.014 -2.091 -0.078 -0.018 -0.934 1.871 -0.134 0.346 0.332 1.64 1.847 1.448 2.666 0.913 2.827 0.129 2.895 -0.707 2.108 -1.374 1.06 -1.845 0.115 -1.847 -0.784 -2.436 -1.564 -2.211 -3.031 -2.312 -6.466 -3.333 -0.606 -0.96 -0.029 -1.313 0.637 -1.625 0.823 -0.745 0.652 -0.017 0.648 0.586 0.043 0.062 0.442 1.717 0.027 0.13 0.193 0.52 0.262 -0.141" />
    <path class="write-flat-pen" fill="#FFFFFF" stroke-width="1.6" __comx="603.732" __comy="405.078" __timestamp="0x178c6def36c" d="M603.58 408.032 l-0.263 3.175 -0.034 0.451 -0.037 3.133 0.525 0.439 0.383 -0.324 -0.078 -0.386 -0.478 -0.151 0.525 0.439 0.092 -3.124 0 -0.447 -0.057 -3.188" />
    <path class="write-flat-pen" fill="#FFFFFF" stroke-width="1.6" __comx="604.694" __comy="405.078" __timestamp="0x178c6def411" d="M604.438 394.038 l-0.995 1.213 0.768 3.149 1.682 2.248 0.051 -0.031 -1.13 -2.452 -0.418 -2.692 0.678 -0.943" />
    <path class="write-flat-pen" fill="#FFFFFF" stroke-width="1.6" __comx="616.266" __comy="405.078" __timestamp="0x178c6def54b" d="M611.261 409.109 l0.005 1.94 0.013 0.319 0.291 3.336 0.056 0.193 0 0 0.964 -0.075 1.618 -7.264 0.964 -2.228 0.528 -0.273 0.742 0.247 1.348 1.725 2.221 6.736 1.128 3.262 0.131 -0.026 -0.21 -3.502 -2.078 -7.094 -1.741 -2.233 -1.656 -0.552 -1.445 0.755 -1.183 2.795 -1.354 7.454 0.964 -0.075 0 0 -0.046 -0.084 -0.617 -3.172 -0.05 -0.298 -0.316 -1.909" />
    <path class="write-flat-pen" fill="#FFFFFF" stroke-width="1.6" __comx="631.947" __comy="405.078" __timestamp="0x178c6def6ce" d="M630.969 391.694 l-1.083 0.865 -0.248 0.468 -1.844 7.669 -0.127 1.25 -0.075 6.287 0.736 4.579 1.319 3.783 3.177 4.057 0.505 0.269 2.894 1.482 0.079 -0.118 -2.464 -2.122 -0.29 -0.266 -2.689 -3.938 -1.196 -3.483 -0.707 -4.346 0.025 -6.117 0.095 -1.118 1.467 -7.563 0.089 -0.255 0.741 -0.985" />
    <path class="write-flat-pen" fill="#FFFFFF" stroke-width="1.6" __comx="645.048" __comy="405.078" __timestamp="0x178c6def8d7" d="M644.182 399.611 l-0.285 -1.588 -0.006 -0.082 -0.542 -1.565 -1.413 -0.393 -1.626 1.543 -1.712 3.893 -1.071 4.677 -0.213 3.874 0.772 4.215 1.215 2.699 1.67 1.744 1.951 0.761 2.526 -0.308 2.308 -1.276 2.091 -2.084 1.488 -2.631 1.143 -4.088 0.301 -3.972 -0.628 -3.104 -1.356 -2.909 -2.091 -2.548 -1.8 -1.08 -2.267 -0.002 -1.807 1.354 -1.248 2.427 -0.551 3.387 0.468 2.968 1.105 2.212 2.662 1.858 0.608 0.131 3.08 0.603 0.065 -0.185 -2.786 -1.445 -0.369 -0.21 -2.042 -1.751 -0.817 -1.689 -0.388 -2.487 0.471 -2.895 0.972 -1.884 1.101 -0.822 1.309 0.001 1.193 0.717 1.787 2.186 1.185 2.561 0.545 2.705 -0.271 3.596 -1.048 3.75 -1.289 2.271 -1.779 1.773 -1.841 1.021 -1.823 0.226 -1.255 -0.486 -1.245 -1.293 -1.037 -2.276 -0.734 -3.845 0.165 -3.567 0.969 -4.431 1.476 -3.561 0.863 -0.942 0.187 -0.013 0.447 0.836 0.009 0.029 0.634 1.562" />
    <path class="write-flat-pen" fill="#FFFFFF" stroke-width="1.6" __comx="658.645" __comy="405.078" __timestamp="0x178c6defa44" d="M653.162 387.197 l0.313 1.1 0.179 0.354 3.271 5.058 0.618 0.883 2.996 4.935 1.475 3.714 0.551 3.071 -0.099 3.271 -0.754 3.188 -2.7 5.17 -0.573 0.789 -1.111 1.424 -2.031 2.554 0.097 0.094 2.478 -2.135 1.355 -1.251 0.745 -0.821 3.136 -5.274 0.896 -3.526 0.124 -3.596 -0.608 -3.388 -1.593 -3.98 -3.139 -5.064 -0.659 -0.902 -3.532 -4.82 -0.176 -0.236 -0.566 -0.914" />
    <path class="write-flat-pen" fill="#FFFFFF" stroke-width="1.6" __comx="679.084" __comy="405.078" __timestamp="0x178c6defbec" d="M672.8 398.799 l-0.181 0.563 0.437 -0.007 0.149 -0.026 3.553 -0.577 5.108 -0.115 0.491 0.012 3.395 0.12 0.021 -0.138 -3.281 -0.88 -0.549 -0.144 -5.313 -0.114 -3.68 0.915 -0.216 0.102 -0.337 0.312 0.404 0.563" />
    <path class="write-flat-pen" fill="#FFFFFF" stroke-width="1.6" __comx="680.553" __comy="405.078" __timestamp="0x178c6defca1" d="M674.351 403.386 l1.774 0.08 0.461 0.015 6.863 0.244 3.317 0.122 0.028 -0.195 -3.257 -0.822 -6.93 -0.495 -0.521 0.031 -1.776 0.27" />
    <path class="write-flat-pen" fill="#FFFFFF" stroke-width="1.6" __comx="708.23" __comy="399.692" __timestamp="0x178c6df0680" d="M707.022 389.645 l0.823 -1.471 0.019 -0.345 -0.646 -1.087 -1.826 0.03 -1.737 1.442 -1.302 2.742 -0.479 3.055 0.486 2.834 1.083 1.756 1.548 0.99 2.095 0.255 2.887 -0.824 2.29 -1.589 1.669 -2.18 0.655 -2.279 -0.414 -2.058 -1.41 -1.561 -1.915 -0.557 -2.08 0.547 -1.28 1.839 -0.01 0.401 0.142 2.335 0.137 0.022 0.856 -2.177 0.062 -0.056 0.983 -0.983 1.163 -0.28 1.07 0.306 0.828 0.902 0.271 1.263 -0.445 1.646 -1.335 1.773 -1.887 1.324 -2.36 0.688 -1.47 -0.17 -0.993 -0.624 -0.771 -1.231 -0.418 -2.328 0.385 -2.635 1.045 -2.33 1.141 -1.061 0.813 -0.135 0.31 0.265 0.016 -0.099 -0.455 1.449" />
    <path class="write-flat-pen" fill="#FFFFFF" stroke-width="1.6" __comx="719.243" __comy="399.692" __timestamp="0x178c6df0797" d="M712.042 416.719 l0.98 -2.457 0.351 -0.796 11.789 -23.107 0.469 -0.961 1.4 -2.853 -0.064 -0.038 -1.844 2.588 -0.634 0.89 -12.005 23.073 -0.332 0.884 -0.699 2.582" />
    <path class="write-flat-pen" fill="#FFFFFF" stroke-width="1.6" __comx="732.33" __comy="399.692" __timestamp="0x178c6df09e8" d="M725.686 399.106 l0.215 -1.187 -0.799 0.338 -0.048 -0.019 1.053 3.677 0.154 0.657 0 0 1.201 11.004 0 0 1.5 0.243 2.247 -4.76 1.595 -2.062 0.915 -0.498 0.696 0.078 0.61 0.577 2.643 9.915 1.944 2.712 0.103 -0.049 -0.825 -3.102 -2.426 -10.318 -1.338 -1.265 -1.729 -0.194 -1.652 0.9 -1.907 2.467 -2.305 4.926 1.5 0.243 0 0 -1.429 -11.067 0 0 -0.213 -0.785 -1.476 -3.862 -0.17 -0.129 -0.799 0.338 0.129 1.2" />
    <path class="write-flat-pen" fill="#FFFFFF" stroke-width="1.6" __comx="756.504" __comy="399.692" __timestamp="0x178c6df0b26" d="M749.029 399.572 l1.253 0.304 0.373 0.077 9.9 0.357 3.422 -0.34 0 -0.086 -3.406 -0.304 -9.817 -0.594 -0.35 -0.037 -1.312 0.03" />
    <path class="write-flat-pen" fill="#FFFFFF" stroke-width="1.6" __comx="759.357" __comy="399.692" __timestamp="0x178c6df0be7" d="M754.427 404.588 l1.073 0.134 0.226 0.044 5.26 0.958 3.287 0.264 0.028 -0.147 -3.153 -0.958 -5.274 -1.104 -0.334 -0.015 -1.126 0.179" />
    <path class="write-flat-pen" fill="#FFFFFF" stroke-width="1.6" __comx="785.717" __comy="399.692" __timestamp="0x178c6df0ed1" d="M779.382 387.436 l-0.218 -1.143 0.006 0.054 0.737 -1.323 0.142 -0.142 4.165 -2.482 0.38 -0.103 2.094 -0.273 1.376 0.362 0.907 0.77 0.56 1.311 -0.181 1.937 -1.215 2.395 -2.205 2.555 -6.838 5.197 -0.982 1.653 1.543 1.229 9.242 0.76 0.55 -0.087 0.537 -0.14 3.337 -0.878 -0.017 -0.137 -3.451 -0.048 -0.521 -0.011 -0.416 -0.022 -8.648 -0.965 -0.127 -0.087 0.122 -0.24 6.645 -5.193 2.409 -2.797 1.41 -2.79 0.229 -2.559 -0.84 -1.935 -1.406 -1.175 -1.945 -0.488 -2.448 0.364 -0.649 0.197 -4.276 2.955 -0.282 0.392 -0.538 1.668 0.004 0.167 0.57 1.133" />
    <path class="write-flat-pen" fill="#FFFFFF" stroke-width="1.6" __comx="803.975" __comy="399.692" __timestamp="0x178c6df1126" d="M802.067 397.153 l0.164 1.538 0.098 0.214 1.172 0.421 0.383 -0.575 0.778 -3.904 0.547 -12.3 -0.448 -0.856 0 0 -1.03 -0.227 -2.301 1.8 -4.36 4.828 -0.808 1.924 0.809 1.436 2.137 0.537 8.596 -1.519 0.482 -0.124 3.4 -0.847 -0.024 -0.214 -3.503 -0.061 -0.526 -0.009 -8.359 1.187 -1.205 -0.28 -0.151 -0.222 0.387 -1.04 4.056 -4.6 2.212 -1.713 -1.03 -0.227 0 0 0.269 0.538 -0.432 11.858 -0.494 3.663 0.136 -0.173 -0.233 0.118 0.068 0.152 -0.489 -1.389" />
    <path class="write-flat-pen" fill="#FFFFFF" stroke-width="1.6" __comx="816.441" __comy="399.692" __timestamp="0x178c6df1325" d="M806.707 415.772 l0.413 -0.872 0.167 -0.294 2.323 -4.346 0.563 -1.125 4.421 -8.203 9.081 -12.561 0.607 -0.84 0.507 -0.758 1.817 -2.704 -0.134 -0.108 -2.255 2.352 -0.632 0.656 -0.708 0.785 -9.377 12.488 -4.4 8.347 -0.541 1.158 -2.022 4.508 -0.133 0.384 -0.129 1.008" />
    <path class="write-flat-pen" fill="#FFFFFF" stroke-width="1.6" __comx="830.476" __comy="399.692" __timestamp="0x178c6df1576" d="M823.542 401.464 l0.349 -1.081 0.077 -0.085 2.819 -2.96 0.268 -0.193 2.277 -1.289 1.651 -0.275 0.73 0.311 0.84 1.255 0.186 2.049 -0.759 2.906 -1.754 3.366 -2.901 3.681 -4.97 4.72 -0.731 1.829 1.368 1.198 10.805 -2.199 3.052 0.229 2.404 1 0.077 -0.107 -1.983 -2.168 -3.615 -0.574 -10.283 2.096 0.074 0.067 0.182 -0.462 4.769 -4.589 3.048 -3.887 1.896 -3.648 0.863 -3.333 -0.25 -2.701 -1.316 -1.948 -1.556 -0.644 -2.34 0.419 -2.545 1.526 -0.438 0.343 -2.715 3.37 -0.176 0.348 -0.073 1.31" />
    <path class="write-flat-pen" fill="#FFFFFF" stroke-width="1.6" __comx="848.903" __comy="399.692" __timestamp="0x178c6df177c" d="M846.483 397.48 l-1.263 0.204 -0.334 0.249 -1.718 1.746 -0.846 2.128 0.219 1.882 1.19 1.649 2.712 1.514 6.225 1.701 1.209 0.77 0.257 0.661 -0.329 1.176 -1.281 1.418 -2.044 1.229 -3.111 0.855 -1.473 -0.059 -1.615 -0.809 -0.156 -0.121 -0.266 -0.311 -1.788 -2.172 -0.083 0.047 0.945 2.65 0.167 0.453 0.272 0.458 2.053 1.381 2.126 0.093 3.565 -0.979 2.436 -1.465 1.692 -1.874 0.573 -2.052 -0.64 -1.646 -1.856 -1.181 -6.276 -1.706 -2.249 -1.239 -0.766 -1.032 -0.154 -1.105 0.546 -1.548 1.316 -1.629 0.05 -0.075 0.935 -0.449" />
    <path class="write-flat-pen" fill="#FFFFFF" stroke-width="1.6" __comx="853.901" __comy="399.692" __timestamp="0x178c6df1841" d="M842.465 397.644 l1.908 -0.716 0.455 -0.098 9.104 -1.596 6.282 -0.648 1.176 -0.115 1.125 -0.137 3.244 -0.386 -0.004 -0.178 -3.258 -0.24 -1.134 -0.086 -1.213 -0.042 -6.41 0.354 -9.204 1.745 -0.614 0.178 -1.879 1.068" />
    <path class="write-flat-pen" fill="#FFFFFF" stroke-width="1.6" __comx="736.08" __comy="379.864" __timestamp="0x178c6df1f06" d="M551.795 363.442 l-0.03 21.46 0.066 2.185 0.943 23.399 2.209 30.199 1.155 8.593 1.243 4.469 1.549 2.89 1.911 1.942 2.902 1.574 3.897 1.114 8.074 0.915 8.79 0.122 11.232 -0.87 27.499 -3.58 19.107 -1.643 23.722 -0.758 63.01 0.771 49.787 -0.226 23.745 0.615 50.512 3.213 37.251 1.143 17.621 1.369 1.645 -0.412 0.615 -1.491 -0.331 -2.001 -1.962 -3.926 -1.811 -6.294 -0.559 -4.534 0.084 -5.757 1.737 -12.05 2.032 -9.27 9.555 -32.006 1.304 -5.849 0.097 -3.582 -1.134 -2.238 -2.213 -1.859 -3.341 -1.531 -7.096 -1.763 -10.28 -1.393 -12.867 -0.456 -27.397 0.465 -15.941 -0.286 -27.491 -1.771 -21.132 -0.485 -26.413 0.216 -40.509 1.239 -28.655 0.231 -36.649 -0.651 -20.125 0.266 -64.791 6.028 -2.215 0.212 -2.14 0.234 -2.052 0.216 -1.964 0.196 -2.808 0.277 0.003 0.077 2.82 0.067 1.978 0.048 2.072 -0.005 2.158 -0.029 2.241 -0.079 64.777 -5.683 20.041 -0.255 36.646 0.642 28.693 -0.234 40.509 -1.263 26.372 -0.251 21.078 0.465 27.494 1.78 16.002 0.277 27.385 -0.505 12.76 0.431 10.137 1.353 6.898 1.703 3.052 1.398 1.844 1.559 0.828 1.672 -0.09 3.09 -1.262 5.667 -9.544 32.012 -2.045 9.372 -1.764 12.188 -0.085 5.944 0.588 4.74 1.898 6.519 1.969 3.845 0.27 1.436 -0.21 0.567 -0.819 0.225 -17.445 -1.349 -37.26 -1.138 -50.515 -3.213 -23.787 -0.603 -49.795 0.231 -63.026 -0.715 -23.778 0.752 -19.168 1.603 -27.498 3.542 -11.144 0.835 -8.668 -0.13 -7.902 -0.911 -3.656 -1.048 -2.609 -1.411 -1.653 -1.666 -1.407 -2.598 -1.21 -4.243 -1.181 -8.465 -2.306 -30.137 -1.052 -23.373 -0.082 -2.166 -0.312 -21.445" />
    <path class="write-flat-pen" fill="#FFFFFF" stroke-width="1.6" __comx="817.394" __comy="105.264" __timestamp="0x178c6df8103" d="M813.822 98.895 l2.928 -1.261 0.148 -0.076 0.571 -0.601 0 0 -0.144 -0.738 -1.118 -0.834 -2.551 0.306 -2.15 1.342 -0.957 2.012 0.762 1.804 8.592 4.699 2.159 1.965 0.64 1.454 -0.037 1.765 -1.002 1.973 -1.412 1.118 -2.136 0.624 -2.093 -0.382 -1.999 -1.411 -1.056 -1.404 -0.204 0.07 0.147 2.117 2.43 2.127 2.861 0.519 2.796 -0.822 1.923 -1.534 1.303 -2.613 0.02 -2.464 -0.926 -2.045 -2.536 -2.29 -8.311 -4.517 -0.317 -0.724 0.478 -1.054 1.518 -1.004 1.782 -0.321 0.847 0.398 -0.144 -0.738 0 0 -0.288 0.589 0.027 -0.007 -2.716 1.634" />
    <path class="write-flat-pen" fill="#FFFFFF" stroke-width="1.6" __comx="828.863" __comy="105.264" __timestamp="0x178c6df81e8" d="M828.915 105.08 l-0.589 3.463 0 0 -0.017 0.531 -0.341 6.366 0.918 0.26 0.289 -0.861 0.584 -1.826 -0.073 -0.036 -1.085 1.561 -0.572 0.684 0.918 0.26 0.221 -6.391 -0.019 -0.505 0 0 0.16 -3.464" />
    <path class="write-flat-pen" fill="#FFFFFF" stroke-width="1.6" __comx="833.468" __comy="105.264" __timestamp="0x178c6df826b" d="M834.286 92.37 l-0.181 0 -0.066 0.038 -0.039 0.048 -0.02 0.022 -0.052 0.081 -0.045 0.078 -0.049 0.092 -0.07 0.14 -0.089 0.195 -0.083 0.198 -0.09 0.241 -0.085 0.26 -0.072 0.253 -0.06 0.267 -0.636 2.806 0.064 0.018 0.87 -2.743 0.082 -0.256 0.077 -0.24 0.086 -0.248 0.087 -0.232 0.074 -0.192 0.078 -0.191 0.059 -0.137 0.039 -0.09 0.033 -0.072 0.03 -0.062 0.007 -0.012 0.002 -0.009 -0.053 0.03 0.102 0" />
    <path class="write-flat-pen" fill="#FFFFFF" stroke-width="1.6" __comx="843.305" __comy="105.264" __timestamp="0x178c6df8406" d="M836.69 102.549 l0.11 3.17 0.045 0.323 0.309 6.596 0 0 0.005 0.089 0 0 1.101 0.104 1.87 -5.015 2.279 -3.902 1.576 -1.452 0.634 0.039 1.272 1.426 1.684 4.106 1.341 6.986 0.729 4.237 0.179 -0.013 0.097 -4.346 -1.083 -7.226 -1.828 -4.445 -1.78 -1.988 -1.719 -0.104 -2.123 1.961 -2.426 4.178 -1.777 5.174 1.101 0.104 0 0 -0.015 -0.043 0 0 -0.736 -6.555 -0.077 -0.326 -0.521 -3.1" />
  </g>
</svg>
