<svg class="write-page" width="982px" height="3855px" xmlns="http://www.w3.org/2000/svg" xmlns:xlink="http://www.w3.org/1999/xlink">
  <g class="write-content write-v3" width="982" height="3855" xruling="30" yruling="30" marginLeft="30" papercolor="#FFFFFF" rulecolor="#7F0000FF">
    <g class="ruleline write-std-ruling write-scale-down" fill="none" stroke="#0000FF" stroke-opacity="0.498" stroke-width="1" shape-rendering="crispEdges" vector-effect="non-scaling-stroke">
      <rect class="pagerect" fill="#FFFFFF" stroke="none" x="0" y="0" width="982" height="3855" />
      <path class="yrule_1" d="M0 30 l982 0" />
      <path d="M0 60 l982 0" />
      <path d="M0 90 l982 0" />
      <path d="M0 120 l982 0" />
      <path d="M0 150 l982 0" />
      <path d="M0 180 l982 0" />
      <path d="M0 210 l982 0" />
      <path d="M0 240 l982 0" />
      <path d="M0 270 l982 0" />
      <path d="M0 300 l982 0" />
      <path d="M0 330 l982 0" />
      <path d="M0 360 l982 0" />
      <path d="M0 390 l982 0" />
      <path d="M0 420 l982 0" />
      <path d="M0 450 l982 0" />
      <path d="M0 480 l982 0" />
      <path d="M0 510 l982 0" />
      <path d="M0 540 l982 0" />
      <path d="M0 570 l982 0" />
      <path d="M0 600 l982 0" />
      <path d="M0 630 l982 0" />
      <path d="M0 660 l982 0" />
      <path d="M0 690 l982 0" />
      <path d="M0 720 l982 0" />
      <path d="M0 750 l982 0" />
      <path d="M0 780 l982 0" />
      <path d="M0 810 l982 0" />
      <path d="M0 840 l982 0" />
      <path d="M0 870 l982 0" />
      <path d="M0 900 l982 0" />
      <path d="M0 930 l982 0" />
      <path d="M0 960 l982 0" />
      <path d="M0 990 l982 0" />
      <path d="M0 1020 l982 0" />
      <path d="M0 1050 l982 0" />
      <path d="M0 1080 l982 0" />
      <path d="M0 1110 l982 0" />
      <path d="M0 1140 l982 0" />
      <path d="M0 1170 l982 0" />
      <path d="M0 1200 l982 0" />
      <path d="M0 1230 l982 0" />
      <path d="M0 1260 l982 0" />
      <path d="M0 1290 l982 0" />
      <path d="M0 1320 l982 0" />
      <path d="M0 1350 l982 0" />
      <path d="M0 1380 l982 0" />
      <path d="M0 1410 l982 0" />
      <path d="M0 1440 l982 0" />
      <path d="M0 1470 l982 0" />
      <path d="M0 1500 l982 0" />
      <path d="M0 1530 l982 0" />
      <path d="M0 1560 l982 0" />
      <path d="M0 1590 l982 0" />
      <path d="M0 1620 l982 0" />
      <path d="M0 1650 l982 0" />
      <path d="M0 1680 l982 0" />
      <path d="M0 1710 l982 0" />
      <path d="M0 1740 l982 0" />
      <path d="M0 1770 l982 0" />
      <path d="M0 1800 l982 0" />
      <path d="M0 1830 l982 0" />
      <path d="M0 1860 l982 0" />
      <path d="M0 1890 l982 0" />
      <path d="M0 1920 l982 0" />
      <path d="M0 1950 l982 0" />
      <path d="M0 1980 l982 0" />
      <path d="M0 2010 l982 0" />
      <path d="M0 2040 l982 0" />
      <path d="M0 2070 l982 0" />
      <path d="M0 2100 l982 0" />
      <path d="M0 2130 l982 0" />
      <path d="M0 2160 l982 0" />
      <path d="M0 2190 l982 0" />
      <path d="M0 2220 l982 0" />
      <path d="M0 2250 l982 0" />
      <path d="M0 2280 l982 0" />
      <path d="M0 2310 l982 0" />
      <path d="M0 2340 l982 0" />
      <path d="M0 2370 l982 0" />
      <path d="M0 2400 l982 0" />
      <path d="M0 2430 l982 0" />
      <path d="M0 2460 l982 0" />
      <path d="M0 2490 l982 0" />
      <path d="M0 2520 l982 0" />
      <path d="M0 2550 l982 0" />
      <path d="M0 2580 l982 0" />
      <path d="M0 2610 l982 0" />
      <path d="M0 2640 l982 0" />
      <path d="M0 2670 l982 0" />
      <path d="M0 2700 l982 0" />
      <path d="M0 2730 l982 0" />
      <path d="M0 2760 l982 0" />
      <path d="M0 2790 l982 0" />
      <path d="M0 2820 l982 0" />
      <path d="M0 2850 l982 0" />
      <path d="M0 2880 l982 0" />
      <path d="M0 2910 l982 0" />
      <path d="M0 2940 l982 0" />
      <path d="M0 2970 l982 0" />
      <path d="M0 3000 l982 0" />
      <path d="M0 3030 l982 0" />
      <path d="M0 3060 l982 0" />
      <path d="M0 3090 l982 0" />
      <path d="M0 3120 l982 0" />
      <path d="M0 3150 l982 0" />
      <path d="M0 3180 l982 0" />
      <path d="M0 3210 l982 0" />
      <path d="M0 3240 l982 0" />
      <path d="M0 3270 l982 0" />
      <path d="M0 3300 l982 0" />
      <path d="M0 3330 l982 0" />
      <path d="M0 3360 l982 0" />
      <path d="M0 3390 l982 0" />
      <path d="M0 3420 l982 0" />
      <path d="M0 3450 l982 0" />
      <path d="M0 3480 l982 0" />
      <path d="M0 3510 l982 0" />
      <path d="M0 3540 l982 0" />
      <path d="M0 3570 l982 0" />
      <path d="M0 3600 l982 0" />
      <path d="M0 3630 l982 0" />
      <path d="M0 3660 l982 0" />
      <path d="M0 3690 l982 0" />
      <path d="M0 3720 l982 0" />
      <path d="M0 3750 l982 0" />
      <path d="M0 3780 l982 0" />
      <path d="M0 3810 l982 0" />
      <path d="M0 3840 l982 0" />
      <path class="xrule_1" d="M30 0 l0 3855" />
      <path d="M60 0 l0 3855" />
      <path d="M90 0 l0 3855" />
      <path d="M120 0 l0 3855" />
      <path d="M150 0 l0 3855" />
      <path d="M180 0 l0 3855" />
      <path d="M210 0 l0 3855" />
      <path d="M240 0 l0 3855" />
      <path d="M270 0 l0 3855" />
      <path d="M300 0 l0 3855" />
      <path d="M330 0 l0 3855" />
      <path d="M360 0 l0 3855" />
      <path d="M390 0 l0 3855" />
      <path d="M420 0 l0 3855" />
      <path d="M450 0 l0 3855" />
      <path d="M480 0 l0 3855" />
      <path d="M510 0 l0 3855" />
      <path d="M540 0 l0 3855" />
      <path d="M570 0 l0 3855" />
      <path d="M600 0 l0 3855" />
      <path d="M630 0 l0 3855" />
      <path d="M660 0 l0 3855" />
      <path d="M690 0 l0 3855" />
      <path d="M720 0 l0 3855" />
      <path d="M750 0 l0 3855" />
      <path d="M780 0 l0 3855" />
      <path d="M810 0 l0 3855" />
      <path d="M840 0 l0 3855" />
      <path d="M870 0 l0 3855" />
      <path d="M900 0 l0 3855" />
      <path d="M930 0 l0 3855" />
      <path d="M960 0 l0 3855" />
      <path class="leftmargin" stroke="#FF0000" d="M30 0 l0 3855" />
    </g>
    <path class="write-flat-pen" fill="#000000" stroke-width="4" __comx="491.392" __comy="828.072" __timestamp="0x178ff995864" d="M477.073 843.809 l-0.083 0.274 -0.045 0.071 -0.06 0.034 0.591 0.08 0.102 -0.049 0.209 -0.426 0.373 -1.116 0.541 -1.768 0.675 -2.314 0.824 -2.716 0.975 -3.021 1.043 -3.181 1.172 -3.262 1.167 -3.171 1.159 -3.049 1.08 -2.71 0.992 -2.471 0.813 -2.212 0.651 -1.9 0.769 -2.472 0.155 -0.556 0.177 -0.367 -2.425 -0.293 0.037 0.554 0.374 4.245 0.676 3.39 1.071 3.833 1.402 4.08 1.661 4.127 1.81 3.891 3.701 6.423 1.669 2.24 3.005 2.985 0.471 0.075 1.933 0.079 0.272 -0.45 -0.968 -1.675 -0.002 -0.212 -2.62 -2.613 -1.448 -1.948 -3.562 -6.179 -1.736 -3.714 -1.617 -3.992 -1.37 -3.934 -1.042 -3.655 -0.656 -3.153 -0.461 -4.131 -0.104 -0.577 -2.425 -0.293 -0.163 0.525 -0.152 0.656 -0.668 2.417 -0.578 1.859 -0.736 2.176 -0.915 2.468 -1.018 2.755 -1.085 3.106 -1.09 3.219 -1.085 3.328 -0.958 3.236 -0.902 3.064 -0.747 2.769 -0.576 2.36 -0.395 1.828 -0.166 1.194 0.004 0.568 0.102 0.132 0.591 0.08 -0.027 -0.084 -0.013 -0.113 -0.001 -0.292" />
    <path class="write-flat-pen" fill="#000000" stroke-width="4" __comx="490.937" __comy="828.072" __timestamp="0x178ff99597a" d="M479.957 827.516 l0.806 0.073 0.479 0.108 1.04 0.211 1.753 0.314 2.17 0.358 2.545 0.335 5.305 0.347 2.659 -0.071 2.389 -0.19 1.476 -0.649 1.337 -0.54 -0.043 -0.339 -1.43 -0.191 -1.55 -0.267 -2.294 0.203 -2.521 0.091 -5.169 -0.243 -2.475 -0.254 -2.161 -0.263 -1.769 -0.187 -1.065 -0.097 -0.552 -0.026 -0.86 -0.019" />
    <path class="write-flat-pen" fill="#000000" stroke-width="4" __comx="514.418" __comy="828.072" __timestamp="0x178ff995ad7" d="M513.819 814.059 l-0.336 0.558 -0.158 0.421 -0.137 0.902 -0.083 1.818 0.095 2.674 0.183 3.316 0.399 7.29 0.247 10.272 0.131 0.311 0.608 1.595 0.271 -0.004 0.566 -1.611 0.123 -0.326 -0.311 -10.308 -0.451 -7.315 -0.231 -3.309 -0.182 -2.617 -0.051 -1.734 -0.017 -0.772 -0.001 -0.22 0.214 -0.471" />
    <path class="write-flat-pen" fill="#000000" stroke-width="4" __comx="520.231" __comy="828.072" __timestamp="0x178ff995d36" d="M513.47 817.433 l-0.033 -0.47 0.031 -0.073 0.044 -0.076 0.125 -0.223 0.222 -0.34 0.381 -0.502 0.527 -0.571 0.61 -0.529 0.784 -0.502 0.863 -0.349 1.118 -0.236 1.157 -0.029 1.26 0.156 1.046 0.286 0.847 0.384 0.579 0.421 0.324 0.414 0.153 0.395 0.018 0.577 -0.214 0.803 -0.513 1 -0.803 1.107 -2.162 2.083 -0.975 0.675 -1.785 0.864 -1.236 0.395 0 0 -0.292 0.159 0 0 0.019 2.247 0.85 0.502 4.817 1.492 3.459 1.492 1.373 0.875 1.099 0.951 0.884 1.129 0.627 1.315 0.306 1.379 -0.016 1.429 -0.345 1.345 -0.655 1.238 -0.99 1.108 -1.334 0.924 -1.737 0.737 -2.075 0.434 -2.389 0.118 -2.535 -0.14 -4.104 -0.632 -1.815 -0.441 0.06 0.036 -0.204 0.233 -1.197 -0.872 -0.5 0.177 -0.38 1.431 0.002 0.817 1.113 0.729 2.394 0.572 4.35 0.662 2.809 0.152 2.744 -0.136 2.544 -0.533 2.239 -0.949 1.829 -1.266 1.426 -1.596 0.961 -1.816 0.507 -1.975 0.023 -2.072 -0.443 -1.988 -0.892 -1.862 -1.232 -1.571 -1.452 -1.25 -1.726 -1.096 -3.804 -1.622 -4.708 -1.4 -0.631 -0.319 0.019 2.247 0 0 0.058 -0.043 0 0 1.147 -0.397 2.101 -1.06 1.285 -0.919 2.422 -2.415 1.01 -1.46 0.676 -1.42 0.319 -1.406 -0.105 -1.32 -0.473 -1.044 -0.754 -0.868 -1.026 -0.681 -1.217 -0.493 -1.366 -0.315 -1.567 -0.125 -1.49 0.111 -1.448 0.397 -1.146 0.567 -0.976 0.762 -0.703 0.769 -0.543 0.801 -0.35 0.718 -0.171 0.547 -0.058 0.442 0.022 0.247 0.044 0.164 0.092 0.497" />
    <path class="write-flat-pen" fill="#000000" stroke-width="4" __comx="545.236" __comy="828.072" __timestamp="0x178ff995f69" d="M550.827 821.314 l0.298 -0.146 0.194 -0.045 0.391 -0.162 0.424 -0.219 0.398 -0.244 0.325 -0.226 0.197 -0.15 0.32 -0.313 0.212 -0.359 0.133 -0.663 -0.224 -0.855 -0.762 -0.883 -1.245 -0.731 -1.718 -0.548 -2.037 -0.207 -2.22 0.174 -2.375 0.724 -2.3 1.317 -2.011 1.809 -1.676 2.242 -1.221 2.541 -0.754 2.63 -0.231 2.74 0.283 2.643 0.879 2.418 1.382 2.021 1.916 1.536 2.31 0.902 2.552 0.239 2.619 -0.343 2.49 -0.793 2.197 -1.131 1.719 -1.204 1.298 -1.197 0.346 -1.08 0.592 -1.648 -0.387 -0.338 -1.553 0.808 -0.929 0.379 -1.058 0.979 -1.421 0.998 -1.833 0.951 -2.048 0.658 -2.086 0.282 -1.887 -0.167 -1.594 -0.608 -1.306 -1.031 -0.991 -1.42 -0.676 -1.81 -0.248 -2.087 0.165 -2.253 0.599 -2.198 0.999 -2.15 1.36 -1.885 1.621 -1.512 1.833 -1.107 1.878 -0.629 1.781 -0.201 1.644 0.092 1.346 0.33 0.863 0.384 0.39 0.293 0.105 0.101 0.049 0.062 0.034 0.002 -0.091 0.176 -0.09 0.118 -0.231 0.262 -0.284 0.302 -0.309 0.314 -0.276 0.297 -0.122 0.165 -0.241 0.247" />
    <path class="write-flat-pen" fill="#000000" stroke-width="4" __comx="564.663" __comy="828.072" __timestamp="0x178ff9960e3" d="M561.445 816.603 l0.068 0.753 -0.025 0.399 0.037 1.075 0.162 1.803 0.395 2.536 0.597 3.071 1.438 6.634 1.878 10.254 0.843 1.496 0.341 -0.015 0.703 -1.692 -1.87 -10.422 -1.486 -6.644 -0.639 -3.02 -0.47 -2.458 -0.295 -1.733 -0.196 -1.034 -0.106 -0.411 -0.16 -0.773" />
    <path class="write-flat-pen" fill="#000000" stroke-width="4" __comx="571.874" __comy="828.072" __timestamp="0x178ff9962b1" d="M562.593 818.392 l-0.564 0.021 0.016 -0.023 0.049 -0.017 -0.033 -0.07 -0.106 -0.147 -0.162 -0.261 -0.23 -0.416 -0.194 -0.435 -0.138 -0.411 -0.104 -0.431 -0.035 -0.284 0.003 -0.28 0.037 -0.168 0.064 -0.1 0.18 -0.17 0.406 -0.199 0.98 -0.179 1.526 0.042 1.988 0.305 2.233 0.585 4.905 1.891 2.357 1.315 2.189 1.548 1.77 1.707 1.258 1.699 0.685 1.682 0.216 1.709 -0.273 1.848 -0.813 2.112 -1.409 2.167 -1.814 1.986 -2.188 1.762 -2.4 1.392 -2.384 1.074 -6.574 2.282 -0.376 0.429 -1.399 1.359 0.173 0.523 1.933 0.258 0.578 0.113 6.713 -2.336 2.629 -1.19 2.709 -1.577 2.518 -2.038 2.11 -2.319 1.687 -2.612 1.023 -2.679 0.36 -2.535 -0.325 -2.445 -0.968 -2.332 -1.612 -2.151 -2.098 -1.993 -2.487 -1.735 -2.664 -1.454 -5.246 -1.949 -2.526 -0.614 -2.301 -0.286 -1.974 0.03 -1.609 0.42 -1.049 0.704 -0.59 0.868 -0.183 0.721 -0.002 0.575 0.085 0.552 0.141 0.485 0.236 0.58 0.288 0.544 0.378 0.546 0.446 0.489 0.411 0.337 0.375 0.192 0.303 0.088 0.203 0.015 0.15 -0.021 0.615 -0.092" />
    <path class="write-flat-pen" fill="#000000" stroke-width="4" __comx="141.033" __comy="917.086" __timestamp="0x178ff9a35ca" d="M138.493 906.019 l0.109 0.473 0.035 0.349 0.104 0.664 0.178 0.933 0.289 1.18 0.394 1.486 0.467 1.873 0.488 2.25 0.443 2.521 0.546 5.903 0.031 3.05 -0.158 2.713 -0.587 3.604 -0.39 0.732 1.559 -0.399 -0.178 -0.147 -0.662 -0.486 -0.776 -0.936 -0.373 0.13 -0.026 1.215 0.017 1.463 0.786 0.517 1.559 -0.399 0.503 -1.045 0.59 -4.041 0.131 -2.885 -0.073 -3.2 -0.663 -6.054 -0.533 -2.628 -0.594 -2.302 -0.592 -1.9 -0.542 -1.467 -0.44 -1.118 -0.353 -0.87 -0.28 -0.621 -0.173 -0.312 -0.18 -0.451" />
    <path class="write-flat-pen" fill="#000000" stroke-width="4" __comx="141.946" __comy="917.086" __timestamp="0x178ff9a36ee" d="M121.324 912.8 l0.823 -0.365 0.515 -0.125 1.282 -0.292 1.937 -0.36 2.724 -0.36 3.444 -0.459 8.072 -1.251 4.252 -0.939 7.857 -2.315 8.698 -3.234 1.183 -1.066 1.116 -0.92 -0.162 -0.387 -1.439 0.149 -1.549 0.077 -8.566 3.239 -7.695 2.319 -4.105 0.937 -7.975 1.308 -3.423 0.515 -2.784 0.451 -2.041 0.506 -1.376 0.486 -0.603 0.321 -0.84 0.494" />
    <path class="write-flat-pen" fill="#000000" stroke-width="4" __comx="170.867" __comy="917.086" __timestamp="0x178ff9a3962" d="M162.038 906.092 l-0.234 -0.441 -0.186 -0.426 -0.244 -0.606 -0.228 -0.569 -0.142 -0.412 -0.039 -0.308 0.018 0.04 -0.768 0.183 0.277 0.262 0.573 0.918 0.963 1.92 1.154 2.562 1.17 2.995 1.152 3.352 1.023 3.339 0.862 3.248 0.646 2.888 0.439 2.394 0.277 1.785 0.112 1.617 0.007 -0.062 1.556 -0.377 -0.103 -0.12 -0.351 -0.747 -0.466 -1.468 -0.376 -1.639 -0.199 -3.217 0.173 -1.278 0.289 -1.04 0.393 -0.763 0.436 -0.485 0.472 -0.244 0.728 -0.041 1.113 0.329 1.253 0.74 1.245 1.089 2.068 2.461 0.702 1.147 0.917 2.088 0.26 1.002 0.122 -0.053 0.986 1.512 0.551 0.012 1.054 -1.465 0.128 -0.34 -0.426 -1.604 -1.097 -2.464 -0.92 -1.486 -2.365 -2.772 -1.622 -1.382 -1.788 -1.02 -1.918 -0.518 -1.782 0.16 -1.374 0.785 -0.932 1.115 -0.618 1.304 -0.364 1.464 -0.183 1.696 0.326 3.651 0.501 1.918 0.62 1.713 0.747 1.328 0.57 0.36 1.556 -0.377 0.232 -0.499 -0.258 -2.287 -0.344 -1.874 -0.512 -2.44 -0.724 -2.941 -0.948 -3.296 -1.112 -3.376 -1.255 -3.382 -1.281 -3.031 -1.279 -2.587 -1.117 -1.962 -0.824 -1.085 -0.508 -0.289 -0.768 0.183 -0.14 0.335 0.234 0.722 0.226 0.468 0.316 0.56 0.357 0.575 0.284 0.401 0.302 0.412" />
    <path class="write-flat-pen" fill="#000000" stroke-width="4" __comx="188.391" __comy="917.086" __timestamp="0x178ff9a3a3a" d="M186.172 917.045 l0.257 0.743 0.117 0.44 0.269 0.955 0.439 1.478 0.474 1.624 0.378 1.537 0.487 2.568 -0.02 -0.065 0.113 -0.152 -0.178 0.944 1.467 0.548 0.485 -0.829 0.15 -0.251 -0.066 -0.499 -0.607 -2.696 -0.46 -1.617 -0.581 -1.654 -0.56 -1.463 -0.403 -0.936 -0.207 -0.418 -0.29 -0.727" />
    <path class="write-flat-pen" fill="#000000" stroke-width="4" __comx="185.322" __comy="917.086" __timestamp="0x178ff9a3ad0" d="M185.434 912.099 l0.243 -0.452 -0.017 0.063 0.048 -0.072 0.416 -0.885 -0.156 -0.191 -0.977 0.258 -0.192 0.153 -0.074 0.148 -0.205 0.579" />
    <path class="write-flat-pen" fill="#000000" stroke-width="4" __comx="197.941" __comy="917.086" __timestamp="0x178ff9a3c53" d="M195.816 910.155 l0.283 0.15 -0.005 -0.517 -0.056 -0.027 -0.45 0.226 -0.793 0.416 -1.04 0.598 -1.067 0.68 -1.015 0.781 -0.828 0.876 -0.598 0.939 -0.337 1.03 0.023 1.17 0.39 1.14 0.827 1.115 1.326 1.005 1.755 0.845 5.351 1.635 1.321 0.43 1.996 1.013 0.478 0.447 0.228 0.421 0.065 0.682 -0.3 1.027 -0.832 1.293 -1.292 1.299 -1.505 1.179 -1.414 0.861 -2.103 0.893 -0.136 -0.011 0.357 0.433 0.125 -0.569 0.039 -1.329 0.215 -1.452 -0.439 -0.225 -1.051 1.025 -1.226 1.146 -0.358 2.063 1.164 1.471 1.886 -0.114 2.652 -1.191 1.664 -1.048 1.71 -1.381 1.545 -1.601 1.119 -1.802 0.482 -1.783 -0.189 -1.573 -0.645 -1.121 -0.984 -0.882 -2.442 -1.183 -1.505 -0.464 -5.249 -1.509 -1.457 -0.656 -0.973 -0.686 -0.517 -0.632 -0.232 -0.575 -0.046 -0.572 0.142 -0.536 0.357 -0.634 0.591 -0.694 0.822 -0.709 0.946 -0.694 0.953 -0.665 0.742 -0.521 0.491 -0.397 0.359 -0.421 0.004 -0.666 -1.03 -0.305" />
    <path class="write-flat-pen" fill="#000000" stroke-width="4" __comx="232.604" __comy="917.086" __timestamp="0x178ff9a3e8b" d="M230.482 915.159 l0.207 -0.061 -0.203 -0.04 -0.043 0.051 0.087 0.342 0.232 0.853 0.365 1.34 0.443 1.647 0.457 1.781 0.77 3.016 0.206 0.95 0.168 0.902 0.099 0.065 0.746 1.082 0.328 -0.022 0.594 -1.172 0.081 -0.207 -0.239 -1.041 -0.249 -0.995 -0.876 -3.025 -0.531 -1.782 -0.548 -1.654 -0.522 -1.35 -0.457 -0.901 -0.36 -0.433 -0.257 -0.166 -0.298 -0.081 -0.493 0.257" />
    <path class="write-flat-pen" fill="#000000" stroke-width="4" __comx="227.214" __comy="917.086" __timestamp="0x178ff9a3f44" d="M227.196 909.035 l0.331 -0.931 -0.001 0.034 -0.082 0.118 -0.203 0.039 0.068 -0.094 1.051 -0.189 0.08 -0.246 -0.742 -0.767 -0.272 -0.204 -0.589 0.065 -0.434 0.447 -0.131 0.299 -0.285 1.054" />
    <path class="write-flat-pen" fill="#000000" stroke-width="4" __comx="244.231" __comy="917.086" __timestamp="0x178ff9a40f6" d="M244.981 910.707 l-0.466 -0.569 -0.312 -0.234 -0.426 -0.201 -0.671 -0.205 -0.862 -0.14 -1.054 -0.02 -1.003 0.103 -0.975 0.242 -0.85 0.365 -0.731 0.529 -0.763 1.189 -0.055 0.916 0.347 0.924 0.736 0.819 1.122 0.692 2.681 0.931 4.406 0.928 2.351 0.844 0.523 0.428 0.301 0.49 0.107 0.768 -0.242 1.061 -0.71 1.321 -1.158 1.426 -1.389 1.291 -1.478 1.12 -1.283 0.755 -1.735 0.633 -0.278 -0.05 0.171 0.211 0.022 -0.415 0.542 -1.258 1.309 -1.934 0.66 -1.901 0.549 -1.337 -0.369 -0.283 -1.148 0.878 -1.713 1.194 -1.466 2.21 -0.793 1.918 -0.018 1.704 0.945 1.254 1.871 0.22 2.461 -0.945 1.566 -0.944 1.663 -1.284 1.577 -1.488 1.382 -1.726 0.941 -1.788 0.382 -1.762 -0.248 -1.631 -0.753 -1.19 -1.108 -0.888 -2.854 -0.998 -4.436 -0.884 -2.367 -0.766 -0.709 -0.397 -0.322 -0.31 -0.1 -0.182 -0.021 -0.024 0.262 -0.53 0.277 -0.249 0.531 -0.285 0.719 -0.248 0.792 -0.153 0.87 -0.066 0.702 0.026 0.542 0.071 0.282 0.056 0.131 0.03 0.429 0.396" />
    <path class="write-flat-pen" fill="#000000" stroke-width="4" __comx="286.648" __comy="917.086" __timestamp="0x178ff9a4410" d="M287.91 923.001 l0.242 -0.272 0.283 -0.381 0.415 -0.705 0.458 -0.91 0.422 -1.023 0.314 -1.006 0.189 -0.944 0.049 -0.903 -0.088 -0.826 -0.233 -0.747 -0.516 -0.788 -0.863 -0.665 -1.257 -0.378 -1.506 0.048 -1.788 0.592 -1.787 1.181 -1.675 1.666 -1.447 1.933 -1.049 1.937 -0.704 1.992 -0.273 1.94 0.109 1.84 0.461 1.789 0.676 1.529 0.816 1.222 0.916 0.872 1.335 0.524 1.747 -0.184 1.876 -0.954 1.705 -1.482 1.411 -1.617 1.037 -1.612 0.699 -1.436 0.378 -1.319 0.058 -1.893 -0.675 -1.407 -1.748 -0.146 -0.835 1.376 -0.023 2.694 1.003 3.24 0.865 1.563 1.103 1.325 1.375 0.987 1.771 0.531 1.387 -0.447 1.633 -0.499 0.024 -0.517 -1.579 -0.65 -1.012 -0.56 -1.031 -0.301 -0.74 -0.522 -0.736 -0.863 -0.626 -1.099 -0.843 -2.588 -0.028 -1.594 -0.345 0.554 -1.23 -0.106 -0.196 -0.426 -0.01 0.985 -0.222 0.824 -0.529 1.123 -0.849 1.353 -1.174 1.376 -1.35 1.204 -1.23 0.652 -0.765 0.102 -0.409 -0.145 -0.427 -0.383 -0.589 -0.844 -0.552 -1.179 -0.395 -1.407 -0.118 -1.42 0.18 -1.532 0.54 -1.663 0.862 -1.698 1.225 -1.752 1.399 -1.499 1.405 -1.031 1.33 -0.536 1.032 -0.124 0.806 0.149 0.536 0.311 0.365 0.423 0.209 0.457 0.131 0.617 0.024 0.747 -0.097 0.84 -0.21 0.948 -0.314 0.998 -0.352 0.916 -0.298 0.732 -0.171 0.413 -0.149 0.318" />
    <path class="write-flat-pen" fill="#000000" stroke-width="4" __comx="324.613" __comy="917.086" __timestamp="0x178ff9a4628" d="M316.944 899.285 l-0.118 0.422 -0.05 0.127 -0.075 0.285 -0.056 0.701 -0.033 1.245 0.029 1.861 -0.001 2.356 0.028 2.757 0.199 6.17 0.256 3.12 0.942 5.431 1.552 4.217 0.998 1.733 1.111 1.387 1.371 1.073 1.656 0.687 1.844 0.167 1.771 -0.345 1.588 -0.811 1.203 -1.15 0.82 -1.259 0.461 -1.287 0.172 -1.35 -0.221 -1.454 -0.687 -0.855 -1.075 -1.36 -0.388 0.136 0.008 1.734 -0.074 0.899 0.147 0.933 -0.096 0.793 -0.283 0.81 -0.527 0.828 -0.771 0.757 -1.016 0.537 -1.159 0.246 -1.209 -0.09 -1.093 -0.43 -0.964 -0.726 -0.879 -1.055 -0.856 -1.429 -1.488 -3.861 -0.962 -5.157 -0.285 -2.984 -0.277 -6.104 -0.082 -2.739 -0.094 -2.383 -0.179 -1.883 -0.173 -1.251 -0.17 -0.685 -0.104 -0.241 -0.051 -0.009 0.066 -0.334" />
    <path class="write-flat-pen" fill="#000000" stroke-width="4" __comx="318.235" __comy="917.086" __timestamp="0x178ff9a46e2" d="M303.054 919.296 l2.58 -0.224 2.175 -0.334 5.785 -1.127 3.166 -0.654 11.214 -2.352 1.923 -0.46 1.493 -0.366 0.792 -0.468 1.359 -0.766 -0.058 -0.227 -1.56 -0.027 -0.916 -0.036 -1.482 0.374 -1.896 0.465 -11.172 2.437 -3.153 0.68 -5.739 1.211 -2.105 0.382 -2.531 0.318" />
    <path class="write-flat-pen" fill="#000000" stroke-width="4" __comx="347.666" __comy="917.086" __timestamp="0x178ff9a4a41" d="M331.091 921.066 l1.463 0.638 1.034 0.182 1.449 0.094 1.818 -0.129 1.784 -0.355 1.535 -0.548 1.358 -0.726 1.133 -0.849 0.833 -0.834 0.534 -0.737 0.335 -0.824 0.052 -0.907 -0.453 -1.072 -1.069 -0.963 -1.617 -0.65 -1.924 -0.321 -1.981 0.015 -1.968 0.395 -1.777 0.84 -1.483 1.382 -1.021 1.723 -0.556 2 -0.021 2.046 0.514 1.925 1.041 1.787 1.579 1.561 2.01 1.21 2.422 0.765 2.487 0.218 2.511 -0.225 2.381 -0.671 2.078 -1.057 1.898 -1.439 1.611 -1.838 1.337 -2.14 1.058 -2.252 0.766 -2.241 1.159 -4.953 0.21 -1.156 0.17 -0.877 0.159 -0.749 0.132 -0.604 0.084 -0.373 0.089 -0.494 0.042 -0.376 -0.272 -0.953 -0.999 -0.055 -0.482 0.225 -0.515 0.272 -2.984 1.391 -1.335 0.9 -0.963 1.388 -0.256 0.925 0.018 0.963 0.415 1.146 0.925 1.182 1.504 1.17 1.845 1 1.883 0.777 4.471 1.633 1.066 0.528 0.788 0.555 0.548 0.586 0.342 0.694 0.12 0.902 -0.242 1.235 -0.752 1.471 -1.277 1.564 -1.656 1.351 -1.909 1.023 -1.85 0.527 -1.618 0.074 -1.402 -0.297 -0.984 -0.542 -0.625 -0.649 -0.312 -0.715 0.006 -0.76 0.451 -1.066 1.246 -1.483 2.016 -1.731 1.21 -1.83 0.848 -1.13 -0.307 -0.392 -1.3 0.552 -2.115 0.774 -2.221 1.916 -1.633 1.962 -0.78 1.922 0.016 1.821 0.737 1.617 1.22 1.236 1.655 0.885 2.081 0.42 2.224 -0.124 2.374 -0.701 2.338 -1.28 2.012 -1.673 1.574 -1.969 0.995 -2.01 0.351 -1.949 -0.251 -1.663 -0.69 -1.328 -0.958 -0.985 -1.134 -0.767 -1.342 -0.636 -4.578 -1.569 -1.761 -0.681 -1.634 -0.821 -1.226 -0.875 -0.643 -0.722 -0.259 -0.563 -0.048 -0.401 0.073 -0.403 0.556 -0.934 0.928 -0.685 2.88 -1.274 0.494 -0.189 0.069 0.015 -0.744 -0.03 -0.216 -0.719 -0.003 -0.134 -0.158 0.363 -0.138 0.366 -0.211 0.62 -0.244 0.778 -0.25 0.921 -0.269 1.133 -1.197 4.784 -0.689 1.999 -0.936 1.992 -1.149 1.84 -1.308 1.493 -1.515 1.15 -1.657 0.847 -1.919 0.545 -2.058 0.192 -1.996 -0.168 -1.887 -0.584 -1.515 -0.897 -1.153 -1.114 -0.73 -1.219 -0.366 -1.291 -0.008 -1.411 0.362 -1.412 0.67 -1.19 0.96 -0.947 1.201 -0.61 1.495 -0.349 1.6 -0.069 1.552 0.185 1.141 0.372 0.578 0.414 0.199 0.311 0.034 0.238 -0.109 0.415 -0.299 0.52 -0.617 0.729 -0.915 0.797 -1.144 0.719 -1.336 0.586 -1.617 0.43 -1.685 0.217 -1.345 -0.011 -0.906 -0.119 -1.409 -0.534" />
    <path class="write-flat-pen" fill="#000000" stroke-width="4" __comx="368.541" __comy="917.086" __timestamp="0x178ff9a4b8f" d="M361.407 905.97 l0.436 0.31 0.231 0.224 0.529 0.51 1.08 1.063 1.44 1.622 1.618 2.219 1.657 2.755 1.518 3.09 1.314 3.148 2.379 7.363 0.305 1.152 0.078 0.468 0.122 0.034 0.479 0.855 0.27 0.03 0.656 -0.728 0.155 -0.254 -0.157 -0.777 -0.357 -1.25 -2.495 -7.432 -1.38 -3.238 -1.591 -3.176 -1.751 -2.85 -1.743 -2.304 -1.597 -1.659 -1.236 -1.028 -0.672 -0.453 -0.354 -0.174 -0.513 -0.243" />
    <path class="write-flat-pen" fill="#000000" stroke-width="4" __comx="374.18" __comy="917.086" __timestamp="0x178ff9a4c37" d="M360.314 922.183 l0.764 -0.156 0.807 -0.156 1.563 -0.408 2.259 -0.69 2.857 -0.946 3.126 -1.107 3.216 -1.155 6.133 -2.141 2.569 -0.905 2.191 -0.762 1.314 -0.938 1.154 -0.777 -0.103 -0.277 -1.381 0.164 -1.598 0.143 -2.169 0.798 -2.555 0.943 -6.105 2.237 -3.201 1.216 -3.089 1.173 -2.8 1.045 -2.194 0.796 -1.482 0.515 -0.75 0.229 -0.747 0.19" />
    <path class="write-flat-pen" fill="#000000" stroke-width="4" __comx="411.242" __comy="917.086" __timestamp="0x178ff9a4efe" d="M414.694 918.289 l0.194 -0.134 0.081 -0.052 0.093 -0.098 0.107 -0.184 0.076 -0.243 0.032 -0.383 -0.075 -0.489 -0.204 -0.506 -0.518 -0.664 -0.886 -0.622 -1.46 -0.499 -1.853 -0.166 -2.043 0.266 -2.114 0.751 -1.771 1.153 -1.433 1.493 -0.931 1.616 -0.449 1.695 0.111 1.775 0.734 1.711 1.391 1.602 1.883 1.205 2.19 0.791 2.34 0.329 2.368 -0.094 2.214 -0.485 1.949 -0.742 1.638 -0.995 1.261 -1.107 0.895 -1.305 0.43 -1.564 -0.208 -1.759 -0.843 -1.787 -1.298 -1.527 -1.413 -1.113 -1.356 -0.774 -1.892 -0.473 -0.558 0.264 -1.582 0.974 0.045 0.483 1.734 0.666 0.17 0.197 1.144 0.269 0.901 0.493 1.084 0.828 0.948 1.073 0.56 1.125 0.13 0.899 -0.182 0.733 -0.488 0.745 -0.873 0.793 -1.273 0.796 -1.588 0.625 -1.85 0.428 -1.968 0.099 -1.92 -0.246 -1.758 -0.608 -1.441 -0.881 -1.006 -1.101 -0.504 -1.073 -0.11 -1.1 0.255 -1.148 0.644 -1.221 1.086 -1.222 1.39 -0.986 1.731 -0.702 1.696 -0.309 1.531 0.036 1.171 0.279 0.661 0.337 0.406 0.354 0.183 0.247 0.132 0.277 0.064 0.218 0.026 0.124 0.011 0.106 0.011 0.052 0.012 0.036 -0.117 0.172" />
    <path class="write-flat-pen" fill="#000000" stroke-width="4" __comx="431.518" __comy="917.086" __timestamp="0x178ff9a506f" d="M429.854 928.015 l-0.315 0.734 0.048 -0.091 0.125 -0.092 0.096 -0.027 -0.089 -0.104 -0.292 -0.377 -0.36 -0.635 -0.438 -0.97 -0.505 -1.335 -0.573 -1.796 -0.692 -2.239 -0.774 -2.483 -0.726 -2.514 -0.646 -2.399 -0.422 -2.14 -0.172 -1.998 0.087 -1.942 0.381 -1.856 0.616 -1.667 0.832 -1.492 0.966 -1.171 1.128 -0.933 1.161 -0.578 1.344 -0.279 1.546 0.059 1.451 0.404 1.455 0.789 1.226 1.067 1.001 1.308 0.718 1.343 0.481 1.403 0.67 0.809 1.008 1.449 0.499 -0.123 0.222 -1.751 0.19 -1.145 -0.592 -1.724 -0.929 -1.728 -1.31 -1.693 -1.667 -1.43 -1.995 -1.047 -2.047 -0.538 -2.173 -0.04 -1.97 0.452 -1.694 0.897 -1.501 1.304 -1.214 1.557 -0.98 1.872 -0.679 2.026 -0.387 2.214 -0.029 2.264 0.261 2.246 0.524 2.306 0.732 2.462 0.793 2.532 0.839 2.483 0.756 2.229 0.653 1.833 0.599 1.414 0.557 1.074 0.533 0.791 0.568 0.571 0.581 0.334 0.63 0.024 0.433 -0.242 0.235 -0.315 0.294 -0.976" />
    <path class="write-flat-pen" fill="#000000" stroke-width="4" __comx="430.835" __comy="917.086" __timestamp="0x178ff9a5137" d="M419.893 920.466 l2.351 -0.419 1.857 -0.354 2.448 -0.42 2.728 -0.492 5.492 -1.005 4.663 -1.08 1.391 -0.821 1.22 -0.687 -0.075 -0.256 -1.398 0.078 -1.569 0.044 -4.577 1.079 -5.449 1.042 -2.716 0.54 -2.451 0.479 -1.853 0.422 -2.326 0.499" />
    <path class="write-flat-pen" fill="#000000" stroke-width="4" __comx="469.568" __comy="917.086" __timestamp="0x178ff9a535f" d="M459.299 898.211 l0.214 0.049 0 0.045 0.172 0.285 0.344 0.789 0.422 1.464 0.428 2.157 0.286 2.565 0.144 2.765 0.013 6.118 0.022 3.083 0.523 5.484 0.571 2.496 0.734 2.246 0.961 1.991 1.092 1.668 1.299 1.289 1.6 0.898 1.846 0.381 1.971 -0.232 2.022 -0.828 1.757 -1.185 1.524 -1.448 1.138 -1.438 1.245 -2.597 0.211 -1.326 -0.289 -0.91 -0.504 -1.627 -0.325 0 -0.507 1.627 -0.29 0.767 -0.127 0.915 -1 2.178 -0.912 1.187 -1.304 1.273 -1.469 1.017 -1.624 0.686 -1.454 0.19 -1.317 -0.25 -1.18 -0.639 -1.031 -0.987 -0.96 -1.419 -0.895 -1.785 -0.707 -2.067 -0.563 -2.323 -0.579 -5.314 -0.064 -3.015 -0.108 -6.149 -0.209 -2.836 -0.38 -2.652 -0.577 -2.24 -0.617 -1.542 -0.578 -0.849 -0.387 -0.311 -0.201 -0.078 -0.328 -0.017" />
    <path class="write-flat-pen" fill="#000000" stroke-width="4" __comx="465.606" __comy="917.086" __timestamp="0x178ff9a5442" d="M451.155 913.403 l0.444 0.584 0.341 0.28 0.732 0.325 1.386 0.321 2.144 0.193 2.62 0.015 2.934 -0.1 6.16 -0.618 5.382 -1.051 2.192 -0.638 1.695 -0.698 1.35 -0.814 0.587 -0.825 0.936 -1.286 -0.17 -0.217 -1.474 0.599 -0.861 0.308 -1.147 0.7 -1.487 0.622 -2.027 0.606 -5.224 1.066 -6.027 0.659 -2.854 0.132 -2.535 0.039 -2.01 -0.099 -1.22 -0.175 -0.528 -0.139 -0.13 -0.041 -0.384 -0.425" />
    <path class="write-flat-pen" fill="#000000" stroke-width="4" __comx="498.429" __comy="917.086" __timestamp="0x178ff9a568d" d="M473.912 895.605 l1.976 4.68 0.886 2.668 0.887 3.071 1.563 6.881 0.997 6.662 0.258 2.841 0.282 4.433 0.044 1.43 0.034 1.235 1.31 0.278 0.147 -0.212 0.149 -0.949 0.228 -1.347 0.355 -1.623 0.498 -1.749 0.688 -1.846 0.762 -1.64 1.586 -2.408 0.499 -0.508 0.321 -0.194 0.224 -0.041 0.395 0.101 0.658 0.456 2.714 3.134 1.963 1.901 1.17 0.8 1.254 0.567 1.339 0.296 1.355 -0.02 1.404 -0.448 1.282 -0.85 1.055 -1.268 0.736 -1.468 0.43 -1.606 0.058 -1.519 -0.254 -1.357 -0.57 -1.133 -0.905 -0.846 -1.372 -0.351 -1.514 0.698 -1.016 1.499 -0.493 1.982 0.052 2.137 0.552 1.985 1.024 1.853 1.54 1.542 2.033 1.08 2.399 0.569 2.67 0.011 2.834 -0.548 2.722 -0.979 2.723 -1.396 5.053 -3.569 1.27 -1.973 0.776 -1.087 -0.308 -0.369 -1.209 0.568 -2.091 0.829 -4.819 3.41 -2.415 1.243 -2.381 0.862 -2.395 0.47 -2.13 -0.004 -1.801 -0.423 -1.416 -0.746 -1.027 -1.019 -0.717 -1.284 -0.403 -1.403 -0.051 -1.496 0.291 -1.243 0.379 -0.589 0.117 -0.068 -0.046 -0.021 0.156 0.132 0.24 0.451 0.157 0.768 -0.024 0.997 -0.286 1.132 -0.499 1.031 -0.662 0.822 -0.737 0.506 -0.787 0.266 -0.766 0.023 -0.866 -0.18 -0.876 -0.384 -0.867 -0.578 -1.783 -1.692 -2.887 -3.228 -1.229 -0.793 -1.232 -0.246 -0.991 0.26 -0.783 0.525 -0.761 0.831 -1.688 2.718 -0.802 1.849 -0.681 1.999 -0.472 1.886 -0.308 1.733 -0.165 1.42 -0.043 0.715 0.035 0.007 1.31 0.278 -0.106 -1.223 -0.085 -1.439 -0.381 -4.459 -0.305 -2.882 -1.076 -6.721 -1.618 -6.939 -0.92 -3.115 -0.935 -2.717 -2.081 -4.679" />
    <path class="write-flat-pen" fill="#000000" stroke-width="4" __comx="547.982" __comy="917.086" __timestamp="0x178ff9a597b" d="M542.138 922.756 l0.258 -0.14 0.24 -0.077 0.495 -0.239 0.586 -0.305 0.78 -0.461 0.965 -0.588 1.189 -0.764 1.207 -0.822 1.13 -0.853 1.055 -0.905 0.846 -0.865 0.944 -1.417 0.218 -0.862 -0.098 -1.009 -0.69 -1.084 -1.262 -0.793 -1.647 -0.373 -1.999 0.14 -1.944 0.637 -1.868 1.2 -1.513 1.663 -1.067 1.979 -0.482 2.118 0.061 2.128 0.522 2.025 0.983 1.819 1.284 1.535 1.573 1.254 1.806 0.868 1.936 0.435 2.012 -0.017 1.885 -0.441 1.65 -0.768 1.382 -1.072 1.137 -1.335 0.771 -1.627 -0.064 -1.358 -0.035 -1.7 -0.439 -0.138 -1.001 1.375 -0.777 0.913 -0.559 1.172 -0.761 0.887 -0.959 0.744 -1.163 0.542 -1.365 0.32 -1.45 0.014 -1.382 -0.306 -1.302 -0.62 -1.164 -0.919 -0.971 -1.15 -0.732 -1.332 -0.389 -1.469 -0.059 -1.549 0.326 -1.504 0.757 -1.445 1.094 -1.236 1.345 -0.905 1.39 -0.497 1.398 -0.15 0.994 0.172 0.594 0.309 0.222 0.266 0.053 0.193 -0.027 0.227 -0.598 1.053 -0.631 0.731 -0.91 0.878 -1.012 0.865 -1.111 0.872 -1.106 0.852 -0.891 0.701 -0.691 0.589 -0.498 0.449 -0.379 0.419 -0.155 0.22 -0.188 0.248" />
    <path class="write-flat-pen" fill="#000000" stroke-width="4" __comx="577.994" __comy="917.086" __timestamp="0x178ff9a5cb6" d="M554.757 914.673 l1.024 6.674 1.269 10.471 0.229 0.625 1.178 -0.041 0.213 -0.548 0.215 -1.328 0.178 -1.609 0.221 -1.742 0.305 -1.892 0.394 -1.884 0.519 -1.889 0.611 -1.768 0.562 -1.335 0.693 -1.163 -0.201 0.173 -0.287 0.016 0.172 0.23 0.457 1.056 0.812 3.031 0.353 1.493 0.685 2.265 0.668 1.418 1.002 0.855 1.157 0.1 1.049 -0.499 0.831 -0.883 0.679 -1.194 1.475 -4.479 1.031 -2.603 0.784 -1.279 0.223 -0.167 -0.32 0.012 0.149 0.097 0.455 0.628 2.267 5.156 1.321 2.238 0.897 1.063 1.788 1.274 1.284 0.334 1.346 -0.05 1.493 -0.487 1.449 -0.871 1.51 -1.294 1.479 -1.678 2.363 -3.599 0.785 -1.667 0.451 -1.388 0.111 -1.138 -0.246 -1.151 -0.816 -1.051 -1.443 -0.529 -1.71 0.281 -1.562 1.128 -1.198 1.769 -0.711 2.14 -0.274 2.302 0.187 2.111 0.569 2.011 0.948 1.743 1.194 1.507 1.349 1.174 1.528 0.86 1.523 0.459 1.617 0.024 1.634 -0.434 1.498 -0.804 1.335 -1.053 1.172 -1.272 1.65 -2.534 0.896 -2.354 -0.139 -0.833 -0.287 -1.934 -0.502 -0.129 -1.184 1.556 -0.484 0.512 -0.745 1.935 -1.367 2.099 -0.87 0.944 -0.976 0.771 -1.006 0.54 -0.962 0.257 -0.86 -0.011 -0.872 -0.261 -1.024 -0.574 -0.951 -0.826 -0.897 -1.125 -0.697 -1.27 -0.425 -1.475 -0.15 -1.582 0.194 -1.759 0.497 -1.54 0.719 -1.09 0.678 -0.507 0.426 -0.082 0.106 0.03 0.003 -0.005 0.043 0.183 -0.042 0.463 -0.311 0.969 -0.637 1.358 -2.165 3.296 -1.242 1.407 -1.212 1.036 -1.017 0.607 -0.876 0.282 -0.61 0.02 -0.459 -0.122 -1.135 -0.814 -0.547 -0.651 -1.133 -1.92 -2.319 -5.268 -0.906 -1.245 -1.233 -0.786 -1.298 0.042 -1.26 0.962 -1.145 1.885 -1.128 2.884 -1.395 4.324 -0.398 0.725 -0.298 0.334 -0.017 0.018 0.294 0.031 -0.013 0.002 -0.387 -0.776 -0.649 -2.016 -0.373 -1.453 -0.946 -3.221 -0.737 -1.523 -1.068 -1.08 -1.341 -0.025 -0.717 0.57 -0.891 1.686 -0.576 1.535 -0.575 1.908 -0.469 2.022 -0.322 1.994 -0.226 1.969 -0.14 1.792 -0.091 1.598 -0.112 1.186 -0.112 0.452 1.178 -0.041 -0.209 -0.461 -1.257 -10.332 -1.065 -6.689" />
    <path class="write-flat-pen" fill="#000000" stroke-width="4" __comx="625.871" __comy="923.457" __timestamp="0x178ff9a60e4" d="M603.13 924.2 l0.711 3.884 0.036 0.15 0.07 0.204 0 0 1.301 -0.268 -0.057 -2.269 -0.127 -1.975 -0.092 -2.289 -0.001 -2.361 0.193 -2.128 0.347 -1.7 0.435 -1.146 0.529 -0.776 0.608 -0.514 0.698 -0.309 0.941 -0.095 1.21 0.194 1.324 0.479 1.453 0.752 2.823 1.867 3.366 2.701 1.929 1.263 1.107 0.257 0.666 -0.04 0.593 -0.176 0.556 -0.312 0.506 -0.482 0.394 -0.633 0.219 -1.233 -0.417 -0.966 -0.942 -0.801 -1.413 -0.501 -1.814 -0.104 -1.79 0.371 -1.701 0.813 -1.322 1.116 -0.995 1.306 -0.639 1.369 -0.313 1.304 0.051 2.193 0.864 1.596 1.161 0.627 1.37 0.106 1.465 -0.398 1.378 -0.76 1.255 -1.023 1.131 -1.33 0.918 -1.446 1.266 -3.034 0.034 -0.004 0 0 -1.976 -0.834 0.156 4.163 -0.001 2.621 0.09 9.45 -0.349 6.499 -0.945 5.819 -0.654 2.108 -0.675 1.597 -0.632 1.008 -0.484 0.506 -0.47 0.245 -0.576 0.052 -0.767 -0.251 -0.735 -0.586 -0.588 -0.997 -0.254 -1.498 0.299 -1.89 0.856 -2.091 1.428 -2.105 1.928 -2.201 2.412 -2.278 5.8 -4.838 3.174 -2.377 8.616 -5.843 2.036 -1.608 1.572 -1.467 1.042 -1.272 0.634 -1.138 0.329 -1.126 -0.075 -1.204 -0.737 -1.23 -1.366 -0.829 -1.897 -0.171 -2.023 0.691 -1.877 1.44 -1.511 1.936 -1.101 2.211 -0.67 2.326 -0.333 2.274 -0.009 2.178 0.237 2.011 0.574 1.818 0.899 1.532 1.412 1.262 1.853 0.676 2.075 -0.053 2.079 -0.779 1.766 -1.344 1.388 -1.64 1.051 -1.794 0.701 -1.769 0.389 -1.815 0.102 -1.882 -0.498 -3.449 -0.729 -0.991 -1.012 -1.493 -0.516 0.121 -0.242 1.787 -0.242 1.082 0.384 3.051 -0.092 1.38 -0.308 1.362 -0.539 1.341 -0.821 1.384 -1.026 1.207 -1.176 0.893 -1.223 0.458 -1.036 0.027 -0.812 -0.296 -0.658 -0.588 -0.503 -0.858 -0.394 -1.245 -0.187 -1.564 0.006 -1.797 0.271 -1.88 0.538 -1.889 0.848 -1.722 1.101 -1.429 1.21 -0.948 1.01 -0.36 0.655 0.045 0.227 0.125 0.043 0.055 0.01 0.05 -0.099 0.37 -0.356 0.661 -0.76 0.951 -1.345 1.279 -1.859 1.494 -8.551 5.871 -3.264 2.471 -5.888 4.959 -2.547 2.423 -2.103 2.414 -1.66 2.454 -1.064 2.607 -0.41 2.589 0.401 2.366 1.062 1.801 1.456 1.162 1.695 0.555 1.592 -0.142 1.285 -0.667 0.953 -0.994 0.88 -1.399 0.803 -1.902 0.743 -2.397 0.994 -6.129 0.356 -6.717 -0.121 -9.521 -0.019 -2.668 -0.258 -4.215 -1.976 -0.834 0 0 -0.422 0.398 -1.34 3.385 -0.711 1.159 -0.88 1.073 -0.931 0.79 -0.966 0.567 -0.855 0.263 -0.565 -0.016 -0.245 -0.108 -0.379 -0.617 -0.085 -1.454 0.184 -0.874 0.446 -1.021 0.728 -0.998 0.972 -0.848 1.282 -0.626 1.337 -0.281 1.312 0.084 0.837 0.314 0.331 0.311 -0.006 0.033 -0.095 0.269 -0.074 0.063 -0.146 0.088 -0.133 0.034 -0.138 0.007 -0.107 -0.022 -0.413 -0.14 -1.505 -1.018 -3.382 -2.694 -3.042 -1.968 -1.722 -0.852 -1.692 -0.549 -1.717 -0.206 -1.554 0.24 -1.238 0.635 -0.979 0.931 -0.738 1.218 -0.49 1.514 -0.315 1.949 -0.122 2.305 0.089 2.466 0.175 2.333 0.197 1.963 0.157 2.239 1.301 -0.268 0 0 -0.055 -0.129 -0.012 -0.042 -0.806 -3.831" />
    <path class="write-flat-pen" fill="#000000" stroke-width="4" __comx="653.003" __comy="923.457" __timestamp="0x178ff9a6246" d="M644.796 914.849 l0.105 4.064 0.036 1.615 0.242 3.883 0.642 4.473 0.886 3.93 0.703 2.209 0.613 0.983 0.879 0.374 1.022 -0.434 0.772 -1.182 0.536 -1.8 0.387 -2.214 0.269 -2.375 0.256 -2.377 0.342 -2.211 0.449 -1.979 0.484 -1.628 0.485 -1.164 0.48 -0.69 -0.281 0.15 -0.17 -0.019 0.31 0.387 1.012 2.538 0.398 1.494 1.511 7.742 0.302 1.055 0.841 1.363 1.506 0.205 0.627 -0.7 0.769 -1.191 -0.229 -0.483 -1.408 -0.16 -0.201 -0.309 0.592 0.082 0.038 0.068 -0.171 -0.581 -1.604 -7.705 -0.5 -1.736 -1.334 -3.055 -1.124 -1.18 -1.361 -0.354 -1.135 0.54 -0.913 1.503 -0.558 1.496 -0.471 1.823 -0.412 2.133 -0.278 2.342 -0.175 2.425 -0.178 2.325 -0.272 2.078 -0.356 1.499 -0.326 0.604 0.042 0.007 0.167 0.082 -0.267 -0.407 -0.63 -1.964 -0.859 -3.809 -0.627 -4.356 -0.247 -3.797 -0.051 -1.595 -0.201 -4.068" />
    <path class="write-flat-pen" fill="#000000" stroke-width="4" __comx="669.206" __comy="923.457" __timestamp="0x178ff9a6394" d="M668.712 912.418 l0.095 0.117 0.236 -0.511 -0.219 0.162 -0.666 0.434 -1.153 0.737 -1.5 1.073 -1.534 1.333 -1.332 1.445 -1.004 1.454 -0.65 1.448 -0.294 1.449 0.106 1.454 0.636 1.527 1.106 1.269 1.636 1.005 1.952 0.563 2.066 0.141 2.06 -0.311 1.833 -0.636 1.647 -0.902 1.385 -1.139 1.104 -1.355 0.813 -1.55 0.687 -2.904 -0.326 -1.002 -0.543 -1.716 -0.452 -0.02 -0.693 1.661 -0.403 0.746 -0.543 2.398 -0.547 1.078 -0.792 0.998 -1.021 0.867 -1.274 0.724 -1.442 0.528 -1.603 0.269 -1.586 -0.081 -1.446 -0.388 -1.117 -0.653 -0.682 -0.744 -0.397 -0.885 -0.086 -0.832 0.163 -0.957 0.453 -1.09 0.789 -1.217 1.133 -1.307 1.349 -1.27 1.354 -1.077 1.089 -0.815 0.719 -0.595 0.394 -0.451 0.415 -0.851 -1.248 -0.706" />
    <path class="write-flat-pen" fill="#000000" stroke-width="4" __comx="680.873" __comy="923.457" __timestamp="0x178ff9a649f" d="M673.593 914.645 l0.29 0.961 0.142 0.315 0.228 0.38 0.409 0.552 0.647 0.697 0.965 0.824 1.252 0.832 2.923 1.219 1.481 0.343 2.378 0.178 1.035 -0.122 1.533 -0.681 1.044 -1.406 0.234 -1.108 -0.116 -1.142 -1.025 -2.132 -0.867 -0.598 -1.435 -0.99 -0.283 0.219 0.603 1.636 0.234 0.822 0.807 1.614 0.065 0.483 -0.065 0.388 -0.459 0.673 -0.793 0.386 -0.567 0.082 -2.057 -0.12 -1.2 -0.26 -2.648 -1.057 -1.051 -0.659 -0.855 -0.668 -0.577 -0.539 -0.378 -0.406 -0.2 -0.229 -0.094 -0.114 -0.339 -0.819" />
    <path class="write-flat-pen" fill="#000000" stroke-width="4" __comx="684.373" __comy="915.139" __timestamp="0x178ff9a6563" d="M682.003 909.99 l1.524 0.443 0.297 0.224 0.404 0.507 0.447 0.947 0.356 1.566 0.206 2.183 0.028 2.787 -0.132 3.195 -0.225 3.662 -0.286 3.928 -0.343 4.22 -0.344 4.107 -0.285 3.567 -0.227 2.84 -0.287 2.874 0.155 0.496 0.424 1.631 0.339 0.039 0.781 -1.494 0.266 -0.472 0.234 -2.923 0.169 -2.862 0.225 -3.566 0.275 -4.111 0.273 -4.233 0.224 -3.947 0.166 -3.69 0.077 -3.251 -0.081 -2.884 -0.262 -2.33 -0.451 -1.791 -0.61 -1.209 -0.638 -0.74 -0.637 -0.428 -1.763 -0.416" />
    <path class="write-flat-pen" fill="#000000" stroke-width="4" __comx="176.447" __comy="1012.148" __timestamp="0x178ff9a6bf3" d="M163.492 988.377 l-0.363 -0.042 -0.123 -0.008 -0.268 0.113 -0.189 0.379 -0.023 0.71 0.261 1.257 0.647 2.082 0.934 2.837 1.182 3.636 1.283 4.348 3.615 14.199 0.832 3.553 0.952 4.002 0 0 0.367 0.985 0 0 1.947 -0.048 0.182 -0.499 -0.161 -5.549 0.339 -4.097 0.402 -1.456 0.564 -1.266 0.636 -0.942 0.758 -0.708 0.897 -0.508 1.207 -0.29 1.574 0.025 1.714 0.346 3.081 1.207 0.981 0.661 0.709 0.781 0.45 0.982 0.134 1.414 -0.32 1.625 -0.8 1.69 -1.26 1.53 -1.574 1.193 -1.834 0.827 -2.035 0.533 -2.071 0.234 -3.764 -0.085 -2.037 -0.347 -0.402 -0.216 -0.19 0.094 -1.425 -0.764 -0.367 0.243 0.145 1.61 0.174 0.645 1.283 0.683 2.594 0.435 4.1 0.083 2.399 -0.278 2.391 -0.631 2.255 -1.025 2.002 -1.525 1.614 -1.973 1.044 -2.219 0.433 -2.246 -0.211 -2.144 -0.773 -1.662 -1.143 -1.249 -1.428 -0.952 -3.508 -1.36 -2.118 -0.421 -2.075 -0.023 -1.799 0.443 -1.402 0.811 -1.13 1.073 -0.877 1.323 -0.699 1.603 -0.486 1.821 -0.331 4.43 0.228 5.291 -0.034 0.148 1.947 -0.048 0 0 -0.347 -0.848 0 0 -0.96 -3.855 -0.861 -3.56 -3.723 -14.229 -1.347 -4.397 -1.255 -3.653 -1.04 -2.818 -0.81 -1.998 -0.463 -1.066 -0.191 -0.384 -0.112 0.085 -0.186 0.065 -0.069 -0.014 0.329 -0.042" />
    <path class="write-flat-pen" fill="#000000" stroke-width="4" __comx="197.411" __comy="1012.148" __timestamp="0x178ff9a6d62" d="M190.843 1013.502 l0.896 5.585 1.01 4.647 0.457 0.736 0.922 -0.319 0.238 -1.175 0.11 -1.648 -0.021 -2.097 -0.077 -2.249 -0.132 -2.175 -0.082 -2.088 -0.006 -2.006 0.137 -1.748 0.244 -1.391 0.323 -0.945 0.313 -0.479 0.423 -0.299 0.744 -0.15 1.149 0.178 1.534 0.648 1.694 1.053 1.553 0.48 1.45 0.534 0.254 -0.349 -0.951 -1.218 -1.009 -1.391 -1.953 -1.169 -1.989 -0.787 -1.846 -0.22 -1.585 0.402 -1.073 0.864 -0.608 1.049 -0.394 1.341 -0.226 1.642 -0.079 1.92 0.084 2.116 0.173 2.136 0.226 2.168 0.189 2.208 0.144 2.031 0.028 1.527 -0.009 0.46 0.536 -0.17 0.094 0.172 -0.971 -4.434 -0.91 -5.554" />
    <path class="write-flat-pen" fill="#000000" stroke-width="4" __comx="207.509" __comy="1012.148" __timestamp="0x178ff9a6ebb" d="M215.244 1009.154 l-0.909 -0.473 -0.683 -0.392 -1.304 -0.658 -1.702 -0.697 -1.939 -0.521 -2.08 -0.161 -1.951 0.329 -1.73 0.799 -1.479 1.347 -1.06 1.788 -0.584 2.107 -0.05 2.215 0.364 2.169 0.67 1.917 0.892 1.546 0.992 1.111 1.167 0.726 1.58 0.273 1.768 -0.465 1.791 -1.176 1.603 -1.685 1.188 -1.776 0.866 -1.879 0.474 -1.872 0.108 -1.907 -0.365 -2.087 -0.852 -1.975 -1.311 -1.827 -1.533 -1.441 -1.57 -0.94 -1.445 -0.495 -1.504 0.043 -1.304 0.698 -0.392 1.03 -0.554 1.555 0.358 0.322 1.488 -0.715 0.694 -0.178 0.393 -0.23 0.464 -0.029 0.783 0.246 1.137 0.65 1.193 1.08 1.053 1.414 0.673 1.479 0.301 1.553 -0.055 1.428 -0.347 1.468 -0.684 1.545 -0.966 1.491 -1.284 1.391 -1.284 0.873 -0.992 0.283 -0.741 -0.11 -0.584 -0.346 -0.67 -0.725 -0.71 -1.193 -0.571 -1.574 -0.327 -1.816 0.021 -1.79 0.433 -1.635 0.771 -1.337 1.044 -0.982 1.239 -0.599 1.491 -0.287 1.711 0.084 1.711 0.381 1.597 0.551 1.28 0.516 0.701 0.308 0.939 0.432" />
    <path class="write-flat-pen" fill="#000000" stroke-width="4" __comx="223.957" __comy="1012.148" __timestamp="0x178ff9a70a6" d="M226.396 1007.742 l-0.347 -0.468 -0.081 -0.147 -0.131 -0.173 -0.21 -0.22 -0.385 -0.269 -0.617 -0.244 -0.938 -0.109 -1.222 0.171 -1.532 0.605 -1.581 0.984 -1.427 1.258 -1.212 1.57 -0.862 1.791 -0.455 2.089 -0.012 2.134 0.446 2.086 0.815 1.807 1.065 1.389 1.212 0.979 1.447 0.588 1.767 -0.035 1.884 -0.852 1.755 -1.587 1.388 -1.888 0.996 -1.911 0.578 -1.728 0.33 -2.695 -0.194 -1.35 -0.796 -1.842 -0.686 -0.706 -1.098 -0.403 -1.361 0.45 -0.896 1.361 -0.345 1.894 0.102 2.261 0.445 2.515 1.511 4.238 0.916 1.581 0.956 1.07 1.286 0.668 1.619 -0.111 0.906 -0.931 1.1 -1.163 -0.206 -0.439 -1.597 0.104 -0.861 -0.101 -0.422 0.033 -0.235 -0.118 -0.476 -0.522 -0.679 -1.151 -1.406 -3.811 -0.411 -2.15 -0.114 -1.83 0.181 -1.153 0.163 -0.28 -0.195 0.054 -0.163 -0.067 0.025 0.019 0.519 1.164 0.112 0.743 -0.255 2.166 -0.445 1.342 -0.829 1.6 -1.146 1.567 -1.322 1.204 -1.143 0.526 -0.852 0.025 -0.726 -0.282 -0.765 -0.601 -0.771 -0.97 -0.638 -1.359 -0.376 -1.633 -0.019 -1.688 0.326 -1.65 0.638 -1.402 0.939 -1.281 1.141 -1.067 1.282 -0.87 1.17 -0.546 0.817 -0.2 0.566 -0.026 0.33 0.041 0.211 0.057 0.148 0.056 0.116 0.047 0.087 0.031 0.38 0.4" />
    <path class="write-flat-pen" fill="#000000" stroke-width="4" __comx="243.235" __comy="1012.148" __timestamp="0x178ff9a726d" d="M240.199 991.482 l0.6 2.806 0.518 2.125 1.664 5.372 1.14 3.131 2.592 6.036 1.351 2.613 2.251 3.685 1.248 1.568 0.593 0.237 1.178 -0.765 0.059 -0.634 -0.578 -1.204 -1.142 -1.228 -1.775 -1.143 -2.322 -0.842 -2.637 -0.452 -2.681 -0.074 -2.523 0.263 -2.083 0.598 -1.793 0.976 -1.332 1.328 -0.93 1.649 -0.46 1.677 -0.057 1.618 0.339 1.479 0.71 1.265 0.954 1.011 1.345 0.79 1.787 0.449 2.296 0.054 2.757 -0.431 2.927 -0.882 2.768 -1.268 2.341 -1.506 1.112 -1.665 0.83 -1.14 -0.279 -0.35 -1.297 0.554 -1.78 0.637 -2.087 1.364 -2.458 1.144 -2.61 0.808 -2.388 0.391 -1.829 -0.026 -1.218 -0.293 -0.784 -0.447 -0.546 -0.562 -0.424 -0.73 -0.213 -0.873 0.019 -1.065 0.301 -1.169 0.629 -1.163 0.887 -0.914 1.305 -0.74 1.675 -0.51 2.202 -0.267 2.405 0.029 2.332 0.357 1.969 0.669 1.419 0.868 0.822 0.831 0.279 0.509 0.01 0.157 1.178 -0.765 -0.162 -0.044 -0.906 -1.1 -2.188 -3.527 -1.309 -2.5 -2.58 -5.929 -1.135 -3.048 -1.728 -5.274 -0.579 -2.048 -0.693 -2.763" />
    <path class="write-flat-pen" fill="#000000" stroke-width="4" __comx="263.438" __comy="1012.148" __timestamp="0x178ff9a73a3" d="M262.795 1006.871 l0.557 -0.503 0.184 -0.164 0.182 -0.228 0.146 -0.287 0.1 -0.34 -0.005 -0.481 -0.307 -0.634 -0.829 -0.419 -1.194 0.121 -1.421 0.697 -1.57 1.185 -1.513 1.488 -1.327 1.731 -1.076 1.891 -0.671 2.051 -0.242 2.257 0.309 2.287 0.863 2.196 1.373 1.885 1.847 1.459 2.225 0.923 2.494 0.341 2.582 -0.348 2.44 -1.009 2.113 -1.452 1.76 -1.681 0.609 -1.527 0.641 -1.417 -0.36 -0.325 -1.343 0.784 -1.393 0.693 -1.54 1.477 -1.719 1.188 -1.882 0.79 -1.914 0.268 -1.835 -0.235 -1.613 -0.651 -1.323 -1.018 -1.005 -1.346 -0.667 -1.625 -0.258 -1.709 0.155 -1.728 0.493 -1.605 0.851 -1.574 1.104 -1.514 1.269 -1.324 1.27 -1.049 0.91 -0.546 0.312 -0.112 -0.16 -0.13 -0.084 -0.237 0.027 -0.104 0.031 0.018 0.016 0.071 0.001 0.073 -0.013 0.084 -0.456 0.493" />
    <path class="write-flat-pen" fill="#000000" stroke-width="4" __comx="279.861" __comy="1012.148" __timestamp="0x178ff9a758f" d="M280.899 1011.853 l0.653 -0.686 0.23 -0.27 0.259 -0.415 0.207 -0.566 0.069 -0.663 -0.137 -0.747 -0.444 -0.765 -0.863 -0.608 -1.339 -0.264 -1.683 0.215 -1.761 0.591 -1.753 0.821 -2.676 1.877 -1.013 1.25 -0.671 1.531 -0.294 1.894 0.098 2.083 0.436 1.916 0.681 1.616 0.848 1.286 1.053 0.88 1.693 0.391 2.103 -0.649 2.083 -1.505 1.862 -1.993 1.397 -1.881 1.666 -2.919 0 0 0.76 -1.917 0 0 -2.532 -0.576 -0.251 3.129 0.191 3.906 0.331 1.867 1.01 2.521 1.483 1.521 1.743 0.215 1.891 -0.823 0.937 -1.491 0.872 -1.313 -0.319 -0.408 -1.484 0.531 -1.4 0.339 -0.898 0.388 -0.07 -0.009 -0.45 -0.457 -0.717 -1.763 -0.26 -1.426 -0.196 -3.568 0.205 -2.963 -2.532 -0.576 0 0 -0.673 1.749 0 0 -1.486 2.625 -1.213 1.642 -1.585 1.711 -1.533 1.122 -1.042 0.335 -0.439 -0.091 -0.311 -0.249 -0.529 -0.779 -0.524 -1.197 -0.362 -1.489 -0.106 -1.624 0.179 -1.354 0.393 -0.97 0.589 -0.773 2.207 -1.653 1.446 -0.741 1.434 -0.55 1.156 -0.216 0.634 0.066 0.221 0.107 0.12 0.132 0.08 0.2 0.024 0.231 -0.031 0.248 -0.074 0.217 -0.075 0.156 -0.557 0.664" />
    <path class="write-flat-pen" fill="#000000" stroke-width="4" __comx="294.873" __comy="1012.148" __timestamp="0x178ff9a771e" d="M294.923 1006.726 l-1.982 -2.625 -0.9 -0.961 -0.864 -0.774 -1.388 -0.826 -0.825 -0.101 -0.933 0.274 -0.851 0.863 -0.607 1.345 -0.333 1.708 -0.101 1.655 0.026 1.508 0.154 1.228 0.656 1.726 0.757 0.825 1.086 0.629 1.5 0.444 3.201 0.316 1.455 0.02 2.79 0.103 2.443 0.414 0.945 0.479 0.011 0.033 0.007 0.416 -0.4 1.069 -0.924 1.394 -1.298 1.442 -2.983 2.312 -1.281 0.659 -2.411 0.76 -0.752 0.083 -0.7 -0.119 0.134 0.128 -0.041 -0.328 0.37 -1.209 1.025 -1.811 1.454 -2.11 0.64 -2.02 0.52 -1.351 -0.409 -0.304 -1.143 0.889 -1.777 1.236 -1.545 2.251 -1.222 2.176 -0.609 2.062 0.269 1.737 1.068 1.096 1.921 0.284 1.347 -0.169 2.842 -0.933 1.669 -0.881 3.317 -2.621 1.553 -1.758 1.161 -1.796 0.636 -1.793 -0.077 -1.539 -0.733 -1.127 -1.868 -0.9 -2.946 -0.454 -2.972 -0.057 -1.391 0.011 -2.918 -0.208 -1.086 -0.274 -0.624 -0.314 -0.311 -0.294 -0.504 -1.128 -0.156 -0.893 -0.08 -1.337 0.023 -1.475 0.207 -1.419 0.361 -0.931 0.342 -0.399 0.241 -0.093 0.206 0.01 1.015 0.563 0.727 0.622 0.828 0.845 2.011 2.513" />
    <path class="write-flat-pen" fill="#000000" stroke-width="4" __comx="312.262" __comy="1012.148" __timestamp="0x178ff9a77e6" d="M308.864 993.794 l-0.403 1.224 -0.256 0.72 -0.341 1.226 -0.278 1.784 -0.107 2.299 0.183 2.884 0.549 3.403 1.921 7.593 1.202 3.555 1.235 3.016 2.051 3.609 0.883 0.61 1.271 0.912 0.27 -0.201 -0.508 -1.48 -0.26 -0.927 -1.963 -3.381 -1.192 -2.833 -1.184 -3.418 -1.92 -7.433 -0.542 -3.234 -0.197 -2.701 0.059 -2.116 0.196 -1.617 0.237 -1.114 0.182 -0.707 0.32 -1.26" />
    <path class="write-flat-pen" fill="#000000" stroke-width="4" __comx="313.259" __comy="1012.148" __timestamp="0x178ff9a78a5" d="M298.408 1012.924 l1.022 -0.026 1.143 0.002 1.978 -0.066 2.779 -0.181 3.276 -0.338 3.61 -0.515 3.907 -0.719 4.158 -0.976 4.217 -1.221 2.813 -1.534 0.85 -0.432 -0.091 -0.286 -0.943 0.139 -3.166 0.369 -4.139 1.268 -4.059 1.021 -3.823 0.77 -3.543 0.577 -3.214 0.435 -2.729 0.288 -1.939 0.174 -1.13 0.081 -1.027 0.07" />
    <path class="write-flat-pen" fill="#000000" stroke-width="4" __comx="351.697" __comy="1012.148" __timestamp="0x178ff9a7b92" d="M348.236 1007.185 l0.342 -0.173 0.318 -0.093 0.475 -0.164 0.513 -0.208 0.597 -0.298 0.612 -0.344 0.591 -0.368 0.462 -0.335 0.508 -0.514 0.256 -0.554 -0.016 -0.814 -0.622 -0.763 -1.052 -0.373 -1.298 -0.046 -1.453 0.184 -1.51 0.386 -1.373 0.52 -1.294 0.662 -1.593 1.289 -0.538 0.832 -0.249 0.994 0.342 1.282 1.019 1.111 1.557 0.893 6.415 2.057 2.196 0.682 3.342 1.301 0.972 0.594 0.552 0.525 0.297 0.511 0.114 0.553 -0.128 0.704 -0.513 0.848 -1.04 0.852 -1.651 0.73 -1.917 0.422 -2.09 0.055 -1.977 -0.258 -1.69 -0.423 -2.145 -0.969 -0.148 -0.131 0.021 0.038 0.028 -0.21 -0.134 -0.701 0.109 -1.636 -0.476 -0.253 -1.294 1.007 -0.901 0.743 -0.172 1.516 0.574 1.209 0.903 0.769 2.737 1.22 2.081 0.513 2.345 0.302 2.564 -0.072 2.437 -0.541 2.238 -0.992 1.684 -1.386 1.013 -1.678 0.306 -1.717 -0.313 -1.503 -0.721 -1.226 -1.045 -0.984 -1.426 -0.862 -3.661 -1.403 -2.285 -0.692 -6.185 -1.883 -1.013 -0.538 -0.375 -0.358 -0.049 -0.086 -0.017 -0.008 0.105 -0.202 1.073 -0.967 0.95 -0.549 1.128 -0.493 1.258 -0.397 1.167 -0.226 0.863 -0.045 0.331 0.055 -0.04 -0.105 0.023 -0.155 0.037 -0.03 -0.195 0.265 -0.3 0.279 -0.49 0.407 -0.52 0.423 -0.489 0.406 -0.414 0.347 -0.357 0.35 -0.24 0.235 -0.309 0.249" />
    <path class="write-flat-pen" fill="#000000" stroke-width="4" __comx="366.023" __comy="1012.148" __timestamp="0x178ff9a7c6b" d="M360.854 1003.755 l-0.2 1.16 -0.103 0.838 -0.026 1.386 0.16 1.753 0.463 1.909 0.831 1.902 1.136 1.935 2.522 3.128 1.209 1.025 1.239 0.626 1.197 0.115 0.835 -0.446 1.405 -0.777 -0.058 -0.319 -1.589 -0.23 -0.676 -0.17 -0.572 -0.052 -0.716 -0.358 -0.902 -0.757 -2.334 -2.868 -1.024 -1.713 -0.746 -1.646 -0.429 -1.623 -0.197 -1.531 -0.042 -1.223 0.023 -0.716 0.141 -1.113" />
    <path class="write-flat-pen" fill="#000000" stroke-width="4" __comx="366.079" __comy="1015.561" __timestamp="0x178ff9a7d35" d="M374.218 1000.065 l-0.651 1.66 -0.684 1.814 -1.093 2.755 -1.394 3.518 -1.632 4.096 -1.89 4.751 -3.687 10.725 -1.645 5.551 -2.564 9.812 -0.92 3.711 -1.11 4.383 0.077 1.009 0.062 1.5 0.294 0.077 0.789 -1.278 0.564 -0.854 1.062 -4.412 0.877 -3.713 2.468 -9.796 1.58 -5.505 3.584 -10.686 1.828 -4.738 1.58 -4.121 1.326 -3.552 1.016 -2.806 0.594 -1.857 0.557 -1.686" />
    <path class="write-flat-pen" fill="#000000" stroke-width="4" __comx="383.976" __comy="1015.561" __timestamp="0x178ff9a7f69" d="M387.353 1004.411 l-0.536 -0.13 -0.111 -0.065 -0.089 -0.055 -0.14 -0.085 -0.249 -0.145 -0.367 -0.197 -0.459 -0.228 -0.599 -0.252 -0.749 -0.25 -0.793 -0.185 -0.839 -0.107 -0.731 -0.008 -0.621 0.082 -0.611 0.207 -0.643 0.472 -0.468 0.906 0.056 1.192 0.659 1.253 1.046 1.133 1.318 0.989 3.018 1.546 2.734 1.132 1.695 1 0.312 0.361 0.213 0.486 0.061 0.782 -0.236 1.017 -0.589 1.128 -0.897 1.097 -1.114 0.85 -1.344 0.62 -1.616 0.298 -1.716 -0.02 -1.672 -0.287 -1.4 -0.436 -1.822 -0.935 -0.503 -0.499 -0.004 -0.028 -0.279 -0.196 -0.989 -1.504 -0.536 0.048 -0.704 1.657 -0.206 0.608 0.361 0.957 1.265 1.203 2.405 1.201 1.793 0.543 2.055 0.341 2.187 0.017 2.198 -0.415 1.91 -0.888 1.589 -1.222 1.26 -1.551 0.864 -1.669 0.396 -1.745 -0.14 -1.632 -0.561 -1.252 -0.858 -0.972 -2.227 -1.294 -2.824 -1.135 -2.767 -1.358 -0.998 -0.705 -0.725 -0.715 -0.322 -0.501 -0.043 -0.073 -0.072 0.072 -0.049 0.002 0.103 -0.067 0.278 -0.08 0.479 -0.055 0.647 -0.001 0.648 0.06 0.657 0.11 0.553 0.121 0.462 0.115 0.405 0.095 0.312 0.064 0.22 0.031 0.158 0.01 0.178 -0.003 0.577 0.048" />
    <path class="write-flat-pen" fill="#000000" stroke-width="4" __comx="397.203" __comy="1015.561" __timestamp="0x178ff9a8031" d="M395.431 993.866 l-0.227 0.859 -0.125 0.595 -0.109 1.138 0.037 1.791 0.237 2.303 1.383 9.528 0.789 9.893 0.571 1.729 0.363 1.267 0.345 -0.011 0.282 -1.288 0.459 -1.811 -0.804 -10.011 -1.482 -9.562 -0.337 -2.208 -0.17 -1.653 -0.058 -1.007 -0.009 -0.468 0.143 -0.799" />
    <path class="write-flat-pen" fill="#000000" stroke-width="4" __comx="398.366" __comy="1015.561" __timestamp="0x178ff9a8107" d="M391.26 1009.702 l0.847 0.522 0.77 0.407 1.361 0.521 1.689 0.427 1.866 0.293 1.79 0.067 3.421 -0.391 1.045 -0.592 1.423 -0.778 -0.07 -0.296 -1.621 -0.058 -1.099 -0.084 -3.183 0.409 -1.559 -0.022 -1.708 -0.212 -1.562 -0.305 -1.262 -0.359 -0.705 -0.234 -0.835 -0.411" />
    <path class="write-flat-pen" fill="#000000" stroke-width="4" __comx="411.192" __comy="1015.561" __timestamp="0x178ff9a8296" d="M404.654 1013.653 l0.849 0.419 0.73 0.271 1.054 0.255 1.323 0.154 1.336 -0.031 1.328 -0.204 1.271 -0.372 1.116 -0.522 0.991 -0.7 0.833 -0.911 0.571 -1.115 0.248 -1.236 -0.08 -1.163 -0.456 -1.115 -0.95 -0.956 -1.47 -0.557 -1.799 0.054 -1.9 0.628 -1.765 1.12 -1.386 1.404 -1.017 1.601 -0.582 1.741 -0.138 1.849 0.336 1.87 0.761 1.843 1.034 1.533 1.335 1.284 1.481 0.8 1.609 0.307 1.741 -0.308 1.538 -0.841 1.345 -1.264 1.612 -2.575 0.055 -1.076 0.122 -1.784 -0.414 -0.183 -1.236 1.292 -0.687 0.605 -1.354 2.158 -0.889 0.836 -0.915 0.503 -0.908 0.165 -0.803 -0.149 -0.866 -0.46 -0.921 -0.874 -0.768 -1.114 -0.587 -1.38 -0.258 -1.325 0.073 -1.266 0.377 -1.211 0.714 -1.181 1.012 -1.086 1.305 -0.887 1.347 -0.507 1.103 -0.095 0.732 0.214 0.433 0.361 0.254 0.487 0.097 0.64 -0.099 0.794 -0.319 0.744 -0.539 0.667 -0.72 0.574 -0.878 0.472 -1.068 0.378 -1.153 0.251 -1.178 0.112 -1.197 -0.031 -0.969 -0.125 -0.666 -0.145 -0.843 -0.311" />
    <path class="write-flat-pen" fill="#000000" stroke-width="4" __comx="426.573" __comy="1015.561" __timestamp="0x178ff9a8474" d="M414.55 1004.215 l-0.154 5.666 0.148 2.028 0.626 4.479 0.847 4.083 0.796 2.56 0.532 0.991 0.852 0.467 1.158 -0.582 0.824 -1.42 0.636 -1.893 0.493 -2.061 0.423 -2.051 0.439 -1.805 0.482 -1.708 0.516 -1.551 0.779 -2.012 0.098 -0.154 -0.013 0.047 -0.191 -0.025 0.241 0.293 0.786 1.931 0.313 1.123 1.124 3.865 0.964 0.809 1.435 -0.166 1.124 -0.971 2.377 -3.647 0.796 -1.092 0.671 -0.755 0.384 -0.293 0.058 -0.013 -0.02 0.003 0.283 0.285 0.457 1.019 0.38 1.682 0.738 6.005 0.672 1.137 0.778 1.541 0.543 -0.062 0.41 -1.677 0.397 -1.272 -0.766 -6.159 -0.483 -2.097 -0.802 -1.748 -1.259 -1.222 -1.517 -0.289 -1.196 0.409 -0.95 0.754 -0.914 1.058 -0.898 1.27 -2.149 3.446 -0.23 0.23 0.45 -0.04 0.459 0.392 -0.996 -3.098 -0.385 -1.241 -1.085 -2.406 -0.989 -1 -1.382 -0.359 -1.238 0.855 -0.397 0.775 -0.762 2.224 -0.488 1.653 -0.448 1.798 -0.396 1.882 -0.363 2.067 -0.405 1.977 -0.494 1.69 -0.456 0.906 -0.016 0.043 0.226 0.136 -0.277 -0.468 -0.764 -2.345 -0.849 -3.964 -0.64 -4.386 -0.155 -1.919 0.051 -5.605" />
    <path class="write-flat-pen" fill="#000000" stroke-width="4" __comx="447.813" __comy="1015.561" __timestamp="0x178ff9a865a" d="M445.792 1024.945 l-0.16 -0.223 0.056 0.058 0.058 -0.055 0.093 -0.186 0.144 -0.311 0.24 -0.467 0.298 -0.481 0.324 -0.396 0.295 -0.245 0.303 -0.152 0.36 -0.082 0.269 0.011 0.524 0.186 -0.069 -0.027 0.02 0.109 0.041 -0.479 0.224 -0.334 -0.208 0.034 -0.386 -0.04 0.019 -0.01 -0.073 -0.205 0.044 -0.549 -0.206 -0.775 -0.258 -1.719 -0.461 -0.106 -0.984 1.433 -0.571 0.808 -0.075 1.377 0.783 1.656 1.274 0.473 1.205 0.045 1.317 -0.456 0.548 -0.776 0.087 -0.887 -0.726 -1.121 -0.64 -0.421 -1.245 -0.28 -0.858 0.101 -0.805 0.316 -0.635 0.475 -0.482 0.579 -0.372 0.702 -0.24 0.737 -0.104 0.687 0.015 0.484 0.073 0.317 0.08 0.183 0.082 0.142 0.305 0.297" />
    <path class="write-flat-pen" fill="#000000" stroke-width="4" __comx="450.325" __comy="988.511" __timestamp="0x178ff9a8727" d="M450.564 1009.525 l-0.056 -1.509 -0.025 -1.457 -0.072 -2.325 -0.226 -2.996 -0.27 -3.534 -0.165 -3.978 0.083 -4.447 0.434 -4.647 0.757 -4.85 2.005 -9.665 -0.035 -3.611 0.037 -0.917 -0.41 -0.087 -0.34 0.852 -1.507 3.292 -1.969 9.741 -0.739 4.98 -0.413 4.801 -0.036 4.597 0.231 4.085 0.385 3.572 0.351 2.96 0.23 2.282 0.15 1.446 0.132 1.506" />
  </g>
</svg>
