<svg class="write-page" width="1010px" height="1628px" xmlns="http://www.w3.org/2000/svg" xmlns:xlink="http://www.w3.org/1999/xlink">
  <g class="write-content write-v3" width="1010" height="1628" xruling="30" yruling="30" marginLeft="30" papercolor="#1B1C1C" rulecolor="#3A00F9FF">
    <g class="ruleline write-std-ruling write-scale-down" fill="none" stroke="#00F9FF" stroke-opacity="0.227" stroke-width="1" shape-rendering="crispEdges" vector-effect="non-scaling-stroke">
      <rect class="pagerect" fill="#1B1C1C" stroke="none" x="0" y="0" width="1010" height="1628" />
      <path class="yrule_1" d="M0 30 l1010 0" />
      <path d="M0 60 l1010 0" />
      <path d="M0 90 l1010 0" />
      <path d="M0 120 l1010 0" />
      <path d="M0 150 l1010 0" />
      <path d="M0 180 l1010 0" />
      <path d="M0 210 l1010 0" />
      <path d="M0 240 l1010 0" />
      <path d="M0 270 l1010 0" />
      <path d="M0 300 l1010 0" />
      <path d="M0 330 l1010 0" />
      <path d="M0 360 l1010 0" />
      <path d="M0 390 l1010 0" />
      <path d="M0 420 l1010 0" />
      <path d="M0 450 l1010 0" />
      <path d="M0 480 l1010 0" />
      <path d="M0 510 l1010 0" />
      <path d="M0 540 l1010 0" />
      <path d="M0 570 l1010 0" />
      <path d="M0 600 l1010 0" />
      <path d="M0 630 l1010 0" />
      <path d="M0 660 l1010 0" />
      <path d="M0 690 l1010 0" />
      <path d="M0 720 l1010 0" />
      <path d="M0 750 l1010 0" />
      <path d="M0 780 l1010 0" />
      <path d="M0 810 l1010 0" />
      <path d="M0 840 l1010 0" />
      <path d="M0 870 l1010 0" />
      <path d="M0 900 l1010 0" />
      <path d="M0 930 l1010 0" />
      <path d="M0 960 l1010 0" />
      <path d="M0 990 l1010 0" />
      <path d="M0 1020 l1010 0" />
      <path d="M0 1050 l1010 0" />
      <path d="M0 1080 l1010 0" />
      <path d="M0 1110 l1010 0" />
      <path d="M0 1140 l1010 0" />
      <path d="M0 1170 l1010 0" />
      <path d="M0 1200 l1010 0" />
      <path d="M0 1230 l1010 0" />
      <path d="M0 1260 l1010 0" />
      <path d="M0 1290 l1010 0" />
      <path d="M0 1320 l1010 0" />
      <path d="M0 1350 l1010 0" />
      <path d="M0 1380 l1010 0" />
      <path d="M0 1410 l1010 0" />
      <path d="M0 1440 l1010 0" />
      <path d="M0 1470 l1010 0" />
      <path d="M0 1500 l1010 0" />
      <path d="M0 1530 l1010 0" />
      <path d="M0 1560 l1010 0" />
      <path d="M0 1590 l1010 0" />
      <path d="M0 1620 l1010 0" />
      <path class="xrule_1" d="M30 0 l0 1628" />
      <path d="M60 0 l0 1628" />
      <path d="M90 0 l0 1628" />
      <path d="M120 0 l0 1628" />
      <path d="M150 0 l0 1628" />
      <path d="M180 0 l0 1628" />
      <path d="M210 0 l0 1628" />
      <path d="M240 0 l0 1628" />
      <path d="M270 0 l0 1628" />
      <path d="M300 0 l0 1628" />
      <path d="M330 0 l0 1628" />
      <path d="M360 0 l0 1628" />
      <path d="M390 0 l0 1628" />
      <path d="M420 0 l0 1628" />
      <path d="M450 0 l0 1628" />
      <path d="M480 0 l0 1628" />
      <path d="M510 0 l0 1628" />
      <path d="M540 0 l0 1628" />
      <path d="M570 0 l0 1628" />
      <path d="M600 0 l0 1628" />
      <path d="M630 0 l0 1628" />
      <path d="M660 0 l0 1628" />
      <path d="M690 0 l0 1628" />
      <path d="M720 0 l0 1628" />
      <path d="M750 0 l0 1628" />
      <path d="M780 0 l0 1628" />
      <path d="M810 0 l0 1628" />
      <path d="M840 0 l0 1628" />
      <path d="M870 0 l0 1628" />
      <path d="M900 0 l0 1628" />
      <path d="M930 0 l0 1628" />
      <path d="M960 0 l0 1628" />
      <path d="M990 0 l0 1628" />
      <path class="leftmargin" stroke="#FF0000" d="M30 0 l0 1628" />
    </g>
    <path class="write-chisel-pen" fill="#00FFFF" fill-opacity="0.29" stroke-width="60" __comx="433.109" __comy="53.244" __timestamp="0x178649c9103" d="M21.301 83.154 l15 0 0 -60 0 -0.077 -15 0 0 60 0 0.077 m15 -60.077 l-15 0 0 60 808.617 1.876 15 0 0 -60 -808.617 -1.876" />
    <path class="write-flat-pen" fill="#FFFFFF" stroke-width="1.6" __comx="88.875" __comy="49.735" __timestamp="0x178649b6c0b" d="M75.662 33.848 l-0.166 -1.559 -0.026 -0.128 -0.685 -0.089 -0.408 0.229 -0.097 0.443 -0.408 7.494 -0.013 1.286 0.034 11.447 0.624 4.345 1.228 3.028 1.638 1.392 1.918 0.074 1.984 -1.136 1.88 -2.154 2.091 -3.912 2.501 -6.665 0 0 0.616 -3.331 0 0 -1.564 -0.334 -0.451 1.86 0.276 3.187 1.373 4.141 1.61 2.652 1.758 1.526 2.149 0.797 1.913 -0.189 2.061 -1.13 2.282 -2.563 1.895 -3.429 1.351 -4.243 0.863 -5.8 -0.07 -3.986 -0.893 -3.948 -1.123 -1.934 -1.562 -0.562 -0.953 1.557 -0.234 2.2 0.363 0.115 1.007 -1.733 0.385 -0.24 -0.099 -0.03 0.708 1.22 0.803 3.549 0.064 3.689 -0.825 5.542 -1.264 3.97 -1.732 3.135 -1.98 2.224 -1.532 0.84 -1.221 0.12 -1.531 -0.568 -1.349 -1.171 -1.386 -2.283 -1.257 -3.791 -0.238 -2.739 0.39 -1.605 -1.564 -0.334 0 0 -0.591 3.192 0 0 -2.414 6.434 -1.955 3.658 -1.584 1.814 -1.352 0.774 -0.907 -0.035 -0.918 -0.78 -1.008 -2.483 -0.581 -4.042 -0.056 -11.328 0.003 -1.258 0.059 -7.418 -0.026 -0.059 -0.058 -0.189 -0.685 -0.089 0.045 0.021 0.461 1.407" />
    <path class="write-flat-pen" fill="#FFFFFF" stroke-width="1.6" __comx="115.577" __comy="49.735" __timestamp="0x178649b6e31" d="M109.415 49.687 l0.383 0.465 0.182 0.083 1.889 0.459 0.441 0.043 2.58 -0.32 2.682 -1.409 1.716 -1.758 0.304 -1.709 -0.985 -1.355 -2.196 -0.8 -2.458 0.131 -2.179 0.971 -1.918 1.94 -1.16 2.639 -0.247 2.812 0.632 2.531 1.261 1.885 1.995 1.429 2.43 0.62 4.997 -1.046 2.94 -1.814 -0.077 -0.19 -3.245 0.693 -4.56 0.72 -1.798 -0.459 -1.514 -1.084 -0.944 -1.411 -0.5 -2 0.2 -2.282 0.934 -2.128 1.498 -1.519 1.636 -0.734 1.845 -0.107 1.457 0.512 0.342 0.438 -0.081 0.626 -1.201 1.312 -2.234 1.295 -2.208 0.437 -0.271 0.003 -1.825 -0.106 -0.033 0.011 -0.478 -0.147" />
    <path class="write-flat-pen" fill="#FFFFFF" stroke-width="1.6" __comx="133.97" __comy="49.735" __timestamp="0x178649b712b" d="M132.773 31.515 l0.171 0.866 0.062 0.22 0.906 2.809 0.206 0.693 0 0 2.951 17.111 0 0 0.943 2.844 0 0 1.516 -0.281 -0.064 -1.907 -1.369 -3.455 -1.565 -1.954 -2.164 -1.431 -2.814 -0.749 -1.878 0.353 -1.724 1.279 -1.34 2.158 -0.892 3.366 0.016 2.54 0.845 2.763 1.429 2.032 1.845 1.173 2.637 0.227 2.885 -1.04 5.074 -4.754 0.203 -0.356 0.132 -0.281 1.442 -3.084 -0.074 -0.049 -2.289 2.52 -0.199 0.216 -0.175 0.178 -4.949 4.211 -2.263 0.817 -1.898 -0.162 -1.249 -0.792 -1.102 -1.564 -0.703 -2.297 -0.016 -2.094 0.778 -2.929 1.057 -1.696 1.186 -0.879 1.162 -0.219 2.214 0.585 1.74 1.148 1.263 1.573 1.19 2.979 0.072 1.636 1.516 -0.281 0 0 -0.949 -2.723 0 0 -3.239 -17.032 0 0 -0.283 -0.786 -1.216 -2.727 -0.109 -0.203 -0.456 -0.749" />
    <path class="write-flat-pen" fill="#FFFFFF" stroke-width="1.6" __comx="150.872" __comy="49.735" __timestamp="0x178649b732b" d="M143.238 44.654 l0.39 1.169 0.089 0.233 2.125 5.827 0.154 0.522 0 0 1.312 3.978 0 0 0.904 0.456 0 0 1.14 -0.804 -0.808 -6.983 0.207 -2.831 0.688 -1.633 0.567 -0.393 0.547 0.134 1.301 1.36 1.389 2.83 1.88 8.111 1.757 1.469 0.559 -0.4 1.066 -1.18 -0.115 -0.198 -1.554 0.338 0.233 -0.211 -0.498 -0.652 -1.812 -7.817 -1.579 -3.218 -1.795 -1.875 -1.7 -0.416 -1.542 1.068 -0.971 2.304 -0.236 3.244 0.836 7.132 1.14 -0.804 0 0 -0.328 -0.152 0 0 -1.155 -3.323 0 0 -0.179 -0.555 -2.477 -5.795 -0.146 -0.252 -0.672 -1.032" />
    <path class="write-flat-pen" fill="#FFFFFF" stroke-width="1.6" __comx="168.444" __comy="49.735" __timestamp="0x178649b74d5" d="M160.984 47.715 l0.062 1.456 0.164 0.356 1.219 1.336 2.02 0.839 2.544 0.073 2.485 -0.826 2.387 -1.719 1.152 -1.833 -0.171 -1.618 -1.392 -1.095 -1.829 -0.212 -2.002 0.73 -2.009 1.853 -1.828 3.275 -0.97 3.558 0.058 2.763 0.834 1.588 1.7 1.163 2.501 0.331 4.365 -1.432 0.533 -0.337 0.466 -0.363 2.635 -2.048 -0.096 -0.165 -3.082 1.281 -0.519 0.211 -0.442 0.169 -3.989 1.052 -1.784 -0.236 -1.056 -0.723 -0.474 -0.903 -0.045 -2.155 0.858 -3.147 1.608 -2.882 1.585 -1.463 1.346 -0.492 1.007 0.115 0.512 0.399 0.046 0.406 -0.69 1.116 -1.934 1.428 -2.004 0.711 -2.032 0.008 -1.571 -0.543 -1.039 -0.883 -0.035 -0.024 -0.347 -1.231" />
    <path class="write-flat-pen" fill="#FFFFFF" stroke-width="1.6" __comx="184.006" __comy="49.735" __timestamp="0x178649b76aa" d="M186.71 43.69 l-0.218 -1.441 -0.323 -0.341 -1.513 -0.625 -2.446 0.322 -1.654 1.092 -0.968 1.68 0.047 1.606 1.366 1.775 7.801 2.716 1.333 0.928 0.392 0.907 -0.228 1.256 -1.289 1.648 -2.478 1.51 -3.672 0.903 -2.481 -0.069 -2.06 -0.674 -0.918 -0.81 -1.294 -1.869 -0.287 0.113 0.418 2.485 1.188 1.473 2.676 0.876 2.93 0.082 4.122 -1.014 2.937 -1.79 1.712 -2.188 0.385 -2.121 -0.766 -1.77 -1.888 -1.313 -7.565 -2.625 -0.772 -0.99 -0.027 -0.653 0.551 -0.993 1.052 -0.736 1.754 -0.33 0.995 0.249 -0.068 -0.095 0.461 1.044" />
    <path class="write-flat-pen" fill="#FFFFFF" stroke-width="1.6" __comx="212.159" __comy="49.735" __timestamp="0x178649b79e7" d="M216.165 32.246 l-0.326 -1.384 -0.019 0.102 -0.865 0.045 0.706 1.564 0.165 0.595 0.741 5.204 0.712 15.096 0.759 4.439 1.813 0.279 0.578 -2.731 -0.435 -3.121 -1.294 -2.97 -1.972 -2.218 -2.636 -1.538 -2.565 -0.652 -2.541 0.25 -2.394 1.283 -1.448 1.702 -1.106 2.676 -0.411 3.237 0.589 2.93 1.175 2.092 1.866 1.479 2.704 0.741 2.952 -0.37 4.762 -2.432 0.353 -0.295 2.664 -2.262 -0.126 -0.198 -3.18 1.451 -0.35 0.151 -4.579 2.03 -2.379 0.298 -2.082 -0.571 -1.363 -1.08 -0.897 -1.597 -0.488 -2.425 0.351 -2.765 0.928 -2.245 1.089 -1.28 1.846 -0.99 1.944 -0.191 2.075 0.528 2.222 1.296 1.633 1.837 1.105 2.536 0.366 2.626 -0.206 0.976 0.821 0.127 -0.55 -3.209 -0.805 -15.076 -0.924 -5.357 -0.278 -0.813 -1.065 -1.521 -0.865 0.045 -0.087 0.257 0.763 1.621" />
    <path class="write-flat-pen" fill="#FFFFFF" stroke-width="1.6" __comx="231.504" __comy="49.735" __timestamp="0x178649b7bd7" d="M231.817 51.728 l0.206 -1.368 0.019 -0.219 0.007 -2.262 -0.815 -1.499 -1.685 -0.694 -2.06 0.827 -1.76 2.172 -1.16 3.198 -0.209 2.708 0.644 2.295 1.22 1.219 1.977 0.326 1.962 -0.84 1.791 -1.919 0 0 1.423 -2.947 -1.451 -0.021 1.294 2.895 2.474 1.805 2.888 0.294 0.063 -0.211 -2.336 -1.253 -1.785 -1.637 -1.137 -2.544 -1.451 -0.021 -1.317 2.729 0 0 -1.395 1.496 -1.223 0.524 -1.01 -0.166 -0.562 -0.561 -0.456 -1.62 0.167 -2.212 0.985 -2.752 1.325 -1.673 1.111 -0.485 0.666 0.233 0.462 0.728 0.177 1.886 0.013 0.178 0.122 1.368" />
    <path class="write-flat-pen" fill="#FFFFFF" stroke-width="1.6" __comx="244.786" __comy="49.735" __timestamp="0x178649b7cc3" d="M241.535 45.828 l-0.047 1.614 0.013 0.441 0.474 3.752 0.126 0.689 1.042 3.694 2.039 3.057 2.759 1.406 0.143 -0.187 -1.886 -2.146 -1.629 -2.774 -1.054 -3.404 -0.139 -0.599 -0.783 -3.639 -0.073 -0.382 -0.277 -1.573" />
    <path class="write-flat-pen" fill="#FFFFFF" stroke-width="1.6" __comx="245.948" __comy="48.947" __timestamp="0x178649b7dac" d="M251.606 48.033 l-2.708 4.892 -0.508 1.108 -3.574 9.394 -4.748 16.901 -0.055 0.27 -0.761 3.387 0.18 0.07 1.714 -3.019 0.161 -0.29 5.023 -16.816 3.474 -9.317 0.447 -1.04 2.391 -5.007" />
    <path class="write-flat-pen" fill="#FFFFFF" stroke-width="1.6" __comx="310.713" __comy="48.947" __timestamp="0x178649b81df" d="M294.772 55.616 l0.551 1.08 0.207 0.167 1.161 0.115 0.435 -0.329 1.473 -2.575 1.628 -7.009 1.072 -8.278 0.052 -4.852 0 0 -0.514 -2.032 0 0 -1.39 -0.316 -0.658 0.79 -0.151 2.867 0.871 4.896 1.531 4.258 1.908 3.279 1.689 1.666 2.344 1.058 2.491 -0.116 2.78 -1.389 2.565 -2.57 5.167 -7.799 0 0 2.508 -4.738 0 0 -1.507 -0.349 0.516 16.353 0.732 5.763 1.638 3.291 2.588 2.081 0.193 -0.172 -1.635 -2.657 -1.227 -2.987 -0.692 -5.446 -0.513 -16.278 -1.507 -0.349 0 0 -2.471 4.668 0 0 -5.035 7.6 -2.268 2.272 -2.244 1.121 -1.77 0.083 -1.734 -0.783 -1.333 -1.315 -1.728 -2.969 -1.436 -3.993 -0.815 -4.582 0.113 -2.153 0.318 -0.381 -1.39 -0.316 0 0 0.463 1.83 0 0 -0.048 4.551 -1.035 8.114 -1.46 6.777 -1.048 2.304 0.095 -0.046 -0.446 0.166 0.13 0.109 -0.759 -0.771" />
    <path class="write-flat-pen" fill="#FFFFFF" stroke-width="1.6" __comx="339.626" __comy="48.947" __timestamp="0x178649b8415" d="M340.162 44.589 l-0.87 0.054 -0.298 0.106 -2.536 1.438 -1.827 2.018 -1.386 2.864 -0.368 2.571 0.633 2.197 1.443 1.376 1.789 0.433 2.488 -0.668 1.768 -1.354 1.592 -2.389 0.901 -3.071 -0.118 -2.57 -1.014 -1.827 -1.673 -0.329 -1.017 1.602 -0.025 2.609 1.147 3.284 2.459 2.71 2.992 1.549 0.134 -0.182 -2.237 -2.31 -1.934 -2.568 -0.959 -2.747 0.018 -1.873 0.186 -0.294 -0.129 -0.025 0.471 0.849 0.088 1.928 -0.757 2.581 -1.309 1.965 -1.305 1 -1.788 0.481 -0.977 -0.235 -0.822 -0.782 -0.424 -1.456 0.275 -1.996 1.159 -2.464 1.491 -1.737 2.155 -1.482 0.103 -0.075 0.691 -0.332" />
    <path class="write-flat-pen" fill="#FFFFFF" stroke-width="1.6" __comx="359.658" __comy="48.947" __timestamp="0x178649b85af" d="M353.108 50.926 l-0.329 2.833 0.02 0.381 0.452 2.356 0 0 0.803 0.774 0 0 1.213 -0.378 0.399 -1.465 -1.482 -8.699 0.06 -2.472 0.678 -1.435 1.188 -0.914 1.972 -0.575 1.967 0.106 3.668 1.696 0.238 0.15 2.628 1.924 0.151 -0.15 -1.906 -2.641 -0.305 -0.397 -4.055 -2.162 -2.571 -0.138 -2.522 0.736 -1.733 1.333 -0.987 2.091 -0.07 2.967 1.497 8.523 -0.257 1.162 1.213 -0.378 0 0 -0.532 -0.402 0 0 -0.489 -1.802 -0.032 -0.209 -0.014 -2.765" />
    <path class="write-flat-pen" fill="#FFFFFF" stroke-width="1.6" __comx="397.237" __comy="48.947" __timestamp="0x178649b88e0" d="M383.955 38.883 l0.159 -0.486 0.04 -0.045 0.591 -0.867 0.129 -0.146 2.207 -2.059 0.404 -0.276 3.043 -1.498 3.888 -1.034 3.995 -0.342 1.977 0.512 1.197 0.997 0.834 1.649 0.205 2.32 -0.892 3.827 -1.986 3.906 -3.023 3.904 -3.841 3.787 -6.637 5.185 -0.154 1.007 0.809 0.921 14.235 -0.319 6.27 0.502 3.558 -0.045 0.033 -0.212 -3.415 -1.141 -6.388 -0.706 -14.329 0.321 0.809 0.921 0.058 -0.379 6.209 -4.851 3.983 -3.927 3.181 -4.108 2.143 -4.214 0.994 -4.266 -0.255 -2.881 -1.123 -2.218 -1.728 -1.436 -2.589 -0.668 -4.407 0.39 -4.169 1.152 -3.24 1.716 -0.576 0.441 -2.121 2.444 -0.18 0.318 -0.358 1.148 -0.012 0.195 0.139 0.553" />
    <path class="write-flat-pen" fill="#FFFFFF" stroke-width="1.6" __comx="426.058" __comy="48.947" __timestamp="0x178649b8b6a" d="M421.776 56.548 l-0.083 1.296 0.294 0.174 0.765 -0.285 0.888 -1.762 0.147 -0.652 0.82 -5.732 -1.024 -15.76 0 0 0.524 -3.199 0 0 -1.553 -0.368 -0.593 1.901 -1.977 3.136 -6.117 6.679 -0.995 2.19 0.97 1.325 2.907 0.833 11.112 0.827 7.807 1.258 3.506 0.32 0.067 -0.282 -3.306 -1.312 -7.873 -1.574 -11.031 -0.821 -2.222 -0.636 -0.093 -0.127 0.503 -1.106 6.042 -6.598 2.165 -3.435 0.655 -2.101 -1.553 -0.368 0 0 -0.554 3.38 0 0 1.048 15.784 -0.69 5.54 -0.083 0.481 -0.522 1.768 0.765 -0.285 0.225 0.139 -0.201 -0.673" />
    <path class="write-flat-pen" fill="#FFFFFF" stroke-width="1.6" __comx="450.412" __comy="48.947" __timestamp="0x178649b9092" d="M451.299 57.287 l-1.069 0.184 0.105 -0.038 -0.352 -0.116 0.548 0.799 0.16 -0.744 0.558 -1.741 -0.246 -0.162 -1.504 1.389 -0.242 0.956 0.548 0.799 0.637 0.02 0.158 -0.055 0.967 -0.515" />
    <path class="write-flat-pen" fill="#FFFFFF" stroke-width="1.6" __comx="447.798" __comy="48.947" __timestamp="0x178649b917b" d="M449.254 33.069 l-1.104 -0.683 -0.131 0.138 1.035 -0.981 -0.104 -0.247 -1.892 0.254 -0.716 1.479 2.363 1.106" />
    <path class="write-flat-pen" fill="#FFFFFF" stroke-width="1.6" __comx="490.613" __comy="48.947" __timestamp="0x178649b9480" d="M490.973 34.136 l0.19 -0.718 -0.127 0.131 -0.736 -0.205 0.207 0.965 0.064 0.453 0.478 5.882 -0.148 6.916 -2.289 13.529 1.326 -0.037 -0.042 0.088 -0.113 -0.106 -0.22 -0.987 -0.129 -0.027 -0.598 0.815 -0.203 0.321 -0.014 0.208 1.326 -0.037 2.546 -13.61 0.121 -7.134 -0.683 -6.029 -0.162 -0.632 -0.575 -0.944 -0.736 -0.205 -0.186 0.175 0.119 1.165" />
    <path class="write-flat-pen" fill="#FFFFFF" stroke-width="1.6" __comx="502.152" __comy="48.947" __timestamp="0x178649b959f" d="M493.289 35.529 l-1.197 -1.314 0.04 0.033 -0.074 -0.431 0.249 -0.252 2.476 -0.554 15.419 0.199 3.441 0.018 0.038 -0.255 -3.374 -0.994 -15.696 -0.51 -3.176 0.856 -0.812 1.328 0.536 1.175 0.146 0.156 1.481 1.103" />
    <path class="write-flat-pen" fill="#FFFFFF" stroke-width="1.6" __comx="503.562" __comy="48.947" __timestamp="0x178649b96b1" d="M493.435 44.797 l1.494 1.016 0.462 0.144 4.316 0.703 10.557 -1.161 3.427 -1.178 -0.028 -0.162 -3.578 0.021 -10.343 0.921 -4.066 -0.513 -0.233 -0.047 -1.52 -0.636" />
    <path class="write-flat-pen" fill="#FFFFFF" stroke-width="1.6" __comx="504.105" __comy="48.947" __timestamp="0x178649b97e2" d="M492.688 59.79 l-0.432 1.043 0.413 0.093 0.258 0.008 19.666 0.556 3.528 -0.176 0.021 -0.303 -3.49 -0.65 -19.724 -0.841 -0.406 0.031 -0.452 0.249 0.619 1.043" />
    <path class="write-flat-pen" fill="#FFFFFF" stroke-width="1.6" __comx="529.016" __comy="48.947" __timestamp="0x178649b990a" d="M521.069 45.864 l0.543 1.342 0.257 0.37 6.183 7.04 5.233 4.457 3.324 1.77 0.356 -0.514 -2.762 -2.441 -5.033 -4.408 -6.19 -6.812 -0.184 -0.222 -0.787 -1.095" />
    <path class="write-flat-pen" fill="#FFFFFF" stroke-width="1.6" __comx="528.347" __comy="48.947" __timestamp="0x178649b99cb" d="M523.263 57.59 l1.159 -2.338 0.371 -0.588 7.728 -10.355 1.797 -2.975 -0.183 -0.162 -2.784 2.191 -7.68 10.573 -0.391 0.752 -0.906 2.525" />
    <path class="write-flat-pen" fill="#FFFFFF" stroke-width="1.6" __comx="545.596" __comy="48.947" __timestamp="0x178649b9bf2" d="M547.001 51.925 l0.517 -1.11 0.072 -0.278 -0.357 -2.483 -0.397 -0.409 -1.618 -0.826 -2.052 0.178 -1.974 1.113 -1.856 2.315 -1.09 2.96 -0.257 3.079 0.821 1.904 1.89 0.943 1.821 -0.197 2.11 -1.272 1.573 -1.971 1.333 -3.297 0 0 0.095 -2.977 0 0 -1.599 -0.041 -0.05 2.511 0.98 4.114 2.12 5.173 1.604 1.388 2.425 0.54 0.095 -0.201 -1.756 -1.43 -1.012 -1.203 -1.948 -4.758 -0.904 -3.795 0.046 -2.307 -1.599 -0.041 0 0 -0.086 2.692 0 0 -1.139 2.817 -1.249 1.565 -1.562 0.942 -1.004 0.109 -0.948 -0.472 -0.432 -1 0.203 -2.466 0.92 -2.519 1.495 -1.89 1.413 -0.825 1.303 -0.154 1.065 0.464 -0.049 -0.063 0.554 1.802 0.014 0.019 -0.189 1.153" />
    <path class="write-flat-pen" fill="#FFFFFF" stroke-width="1.6" __comx="568.637" __comy="48.947" __timestamp="0x178649b9ee2" d="M555.795 44.915 l-0.522 1.934 -0.02 0.504 1.448 8.824 0 0 1.129 3.354 0 0 1.484 0.071 0.691 -1.538 0.332 -8.093 0.537 -2.097 0.506 -0.489 0.554 -0.034 1.185 0.688 1.183 1.48 0 0 1.435 4.52 0 0 1.478 0.115 1.922 -3.852 2.308 -3.026 1.817 -1.396 1.389 -0.438 1.376 0.324 1.616 1.455 1.485 2.693 0.899 3.177 0.59 5.892 0.776 2.091 0.307 -0.033 0.321 -2.192 -0.413 -6.046 -0.991 -3.502 -1.704 -3.089 -2.121 -1.91 -2.204 -0.518 -2.078 0.655 -2.21 1.698 -2.529 3.316 -1.989 3.987 1.478 0.115 0 0 -1.525 -4.803 0 0 -1.555 -1.946 -1.862 -1.082 -1.627 0.1 -1.256 1.215 -0.691 2.699 -0.325 7.954 -0.563 1.258 1.484 0.071 0 0 -1.1 -3.236 0 0 -1.592 -8.548 -0.015 -0.257 0.185 -1.874" />
    <path class="write-flat-pen" fill="#FFFFFF" stroke-width="1.6" __comx="626.87" __comy="48.947" __timestamp="0x178649ba64f" d="M622.12 41.617 l-1.795 -1.544 -0.197 -0.165 -1.602 -1.642 -0.036 -0.07 -0.45 -1.445 0.376 -1.639 1.493 -2.086 2.011 -1.544 3.21 -1.271 2.508 -0.277 1.882 0.433 1.634 1.159 1.18 1.763 0.81 2.917 -0.033 2.487 -0.757 2.685 -1.724 3.13 -3.384 4.134 -14.153 11.988 0 0 -0.334 1.021 0 0 0.773 1.049 23.392 -0.379 1.786 -0.501 1.446 -1.375 0.826 -4.839 -0.554 -3.452 -0.29 0.001 -0.529 3.322 -0.927 4.162 -0.788 0.749 -1.204 0.338 -23.185 0.376 0.773 1.049 0 0 0.193 -0.59 0 0 13.918 -11.789 3.57 -4.36 1.883 -3.419 0.863 -3.065 0.039 -2.926 -0.941 -3.385 -1.488 -2.221 -2.133 -1.511 -2.455 -0.561 -2.991 0.337 -3.609 1.453 -2.348 1.858 -1.716 2.59 -0.339 2.319 0.817 1.84 0.207 0.258 1.928 1.496 0.246 0.151 1.983 1.28" />
    <path class="write-flat-pen" fill="#FFFFFF" stroke-width="1.6" __comx="671.533" __comy="48.947" __timestamp="0x178649ba89c" d="M673.199 30.166 l-0.616 0.437 -0.073 0.46 -0.089 3.268 0.006 1.052 -0.121 11.05 -0.892 10.552 -0.966 5.248 -0.47 0.806 0.254 0.081 -1.008 0.43 -0.016 0.195 0.923 0.592 0.456 0.098 1.36 -1.527 1.052 -5.713 0.855 -10.698 -0.076 -11.133 -0.053 -1.065 -0.215 -3.202 -0.024 -0.091 0.173 -0.41" />
    <path class="write-flat-pen" fill="#FFFFFF" stroke-width="1.6" __comx="682.097" __comy="48.947" __timestamp="0x178649bab0e" d="M674.459 42.234 l-1.817 -1.745 -0.127 -0.187 -0.782 -1.709 -0.163 -1.802 0.601 -2.072 1.481 -2.213 2.269 -1.949 2.549 -1.268 3.37 -0.833 3.273 -0.08 2.04 0.516 1.522 1.032 0.995 1.523 0.481 2.005 -0.342 2.682 -1.093 2.604 -2.103 2.918 -2.598 2.255 -2.828 1.429 -3.371 0.881 0 0 -1.192 -0.129 0 0 0.448 1.391 0.087 -0.078 1.641 0.432 2.274 1.439 3.267 3.316 6.565 8.678 3.12 1.311 0.154 -0.237 -2.245 -2.173 -6.378 -8.623 -3.472 -3.525 -2.638 -1.669 -2.714 -0.715 -0.729 0.654 0.448 1.391 0 0 1.485 0.161 0 0 3.82 -0.999 3.158 -1.596 2.888 -2.507 2.318 -3.217 1.248 -2.973 0.407 -3.189 -0.614 -2.559 -1.322 -2.024 -2.021 -1.37 -2.525 -0.639 -3.667 0.091 -3.71 0.918 -2.884 1.438 -2.58 2.229 -1.722 2.611 -0.712 2.605 0.29 2.352 1.092 2.011 0.324 0.367 2.119 1.573" />
    <path class="write-flat-pen" fill="#FFFFFF" stroke-width="1.6" __comx="709.553" __comy="48.947" __timestamp="0x178649bace0" d="M704.921 54.026 l-0.083 -0.232 -0.242 0.496 0.634 -0.05 0.296 -0.043 3.471 -1.071 2.626 -1.697 1.804 -2.239 0.599 -2.11 -0.657 -1.503 -2.058 -0.855 -2.647 0.578 -2.703 1.922 -2.198 2.522 -1.355 2.658 -0.571 2.888 0.413 2.836 1.392 2.338 1.841 1.312 3.071 0.83 3.045 -0.235 3.689 -2.193 1.982 -2.651 -0.197 -0.199 -2.544 1.827 -3.393 1.647 -2.43 0.187 -2.528 -0.683 -1.333 -0.95 -1.057 -1.775 -0.328 -2.25 0.474 -2.4 1.164 -2.284 1.944 -2.231 2.282 -1.624 1.838 -0.403 1.005 0.415 0.174 0.393 -0.35 1.255 -1.433 1.809 -2.23 1.502 -3.151 1.196 -0.279 0.086 -0.941 0.476 -0.293 0.587 0.967 0.398" />
    <path class="write-flat-pen" fill="#FFFFFF" stroke-width="1.6" __comx="733.607" __comy="48.947" __timestamp="0x178649baf88" d="M725.063 47.576 l0.245 -1.273 0.041 -0.08 0.514 -0.569 -0.716 -0.236 3.12 11.154 1.271 2.395 1.297 0.812 2.038 -0.269 1.986 -1.624 2.207 -3.071 4.741 -9.373 1.015 -3.344 -0.204 -0.108 -2.202 2.731 -4.721 9.261 -2.012 2.8 -1.47 1.203 -1.018 0.135 -0.448 -0.28 -0.996 -1.871 -3.515 -11.576 -0.96 -0.324 -0.835 1.793 -0.052 0.299 0.059 1.373" />
    <path class="write-flat-pen" fill="#FFFFFF" stroke-width="1.6" __comx="747.465" __comy="48.947" __timestamp="0x178649bb0bf" d="M745.807 50.387 l0.503 0.258 -0.116 -0.077 0.444 1.455 0.045 0.303 0.936 4.501 0.693 0.442 0.81 -0.699 -0.046 -0.175 -1.05 -0.207 0.693 0.442 -0.691 -4.563 -0.109 -0.445 -0.881 -1.646 -0.269 -0.221 -0.831 -0.013" />
    <path class="write-flat-pen" fill="#FFFFFF" stroke-width="1.6" __comx="751.772" __comy="48.947" __timestamp="0x178649bb15d" d="M751.972 40.421 l-1.111 -0.02 0.269 0.398 1.391 1.149 0.163 -0.123 -0.7 -1.632 -0.249 -0.376 -0.749 0.966" />
    <path class="write-flat-pen" fill="#FFFFFF" stroke-width="1.6" __comx="760.128" __comy="48.947" __timestamp="0x178649bb318" d="M758.158 49.173 l0.777 -0.28 0.151 -0.039 5.122 -2.019 0.319 -0.223 1.17 -1.321 -0.032 -1.747 -1.455 -1.138 -2.058 -0.287 -2.884 0.753 -2.754 1.749 -2.048 2.156 -1.382 2.546 -0.486 2.369 0.372 2.551 1.405 2.316 2.308 1.456 2.77 0.531 2.638 -0.435 2.438 -1.387 1.631 -2.058 1.498 -3.023 -0.236 -0.164 -2.272 2.388 -1.639 1.595 -1.963 1.116 -2.075 0.342 -2.193 -0.42 -1.734 -1.094 -1.041 -1.716 -0.284 -1.952 0.382 -1.862 1.168 -2.152 1.766 -1.861 2.376 -1.51 2.335 -0.612 1.322 0.18 0.533 0.408 0.016 0.389 -0.633 0.74 -0.036 0.028 -4.839 2.277 -0.204 0.116 -0.672 0.6" />
    <path class="write-flat-pen" fill="#FFFFFF" stroke-width="1.6" __comx="780.642" __comy="48.947" __timestamp="0x178649bb55c" d="M771.168 44.567 l0.566 1.619 0.008 0.192 -0.335 8.332 0.741 1.915 1.797 0.208 1.961 -1.469 3.1 -5.206 -0.573 -0.001 0.704 2.151 1.773 2.489 1.847 1.31 2.17 0.547 1.965 -0.486 1.395 -1.216 1.209 -2.437 0.619 -3.652 -0.191 -3.002 -1.366 -3.228 -2.455 -1.294 -0.203 0.238 1.388 1.977 1.056 2.671 0.162 2.554 -0.548 3.236 -0.963 1.94 -0.863 0.753 -1.201 0.297 -1.492 -0.376 -1.382 -0.98 -1.475 -2.07 -0.988 -3.018 -1.496 -0.004 -3.404 5.719 -1.198 0.899 -0.209 -0.023 -0.279 -0.712 0.225 -8.101 -0.057 -0.54 -0.99 -1.707" />
    <path class="write-stroke-pen" fill="none" stroke="#FFFFFF" stroke-width="1.6" stroke-linecap="round" stroke-linejoin="round" __comx="430.678" __comy="75.941" __timestamp="0x178649c4aa1" d="M51.465 75.589 l758.425 3.714" />
  </g>
</svg>
