<svg class="write-page" color-interpolation="linearRGB" width="1584px" height="3555px" xmlns="http://www.w3.org/2000/svg" xmlns:xlink="http://www.w3.org/1999/xlink">
  <g class="write-content write-v3" width="1584" height="3555" xruling="30" yruling="30" marginLeft="30" papercolor="#FFFFFF" rulecolor="#7F0000FF">
    <g class="ruleline write-std-ruling write-scale-down" fill="none" stroke="#0000FF" stroke-opacity="0.498" stroke-width="1" shape-rendering="crispEdges" vector-effect="non-scaling-stroke">
      <rect class="pagerect" fill="#FFFFFF" stroke="none" x="0" y="0" width="1584" height="3555" />
      <path class="yrule_1" d="M0 30 l1584 0" />
      <path d="M0 60 l1584 0" />
      <path d="M0 90 l1584 0" />
      <path d="M0 120 l1584 0" />
      <path d="M0 150 l1584 0" />
      <path d="M0 180 l1584 0" />
      <path d="M0 210 l1584 0" />
      <path d="M0 240 l1584 0" />
      <path d="M0 270 l1584 0" />
      <path d="M0 300 l1584 0" />
      <path d="M0 330 l1584 0" />
      <path d="M0 360 l1584 0" />
      <path d="M0 390 l1584 0" />
      <path d="M0 420 l1584 0" />
      <path d="M0 450 l1584 0" />
      <path d="M0 480 l1584 0" />
      <path d="M0 510 l1584 0" />
      <path d="M0 540 l1584 0" />
      <path d="M0 570 l1584 0" />
      <path d="M0 600 l1584 0" />
      <path d="M0 630 l1584 0" />
      <path d="M0 660 l1584 0" />
      <path d="M0 690 l1584 0" />
      <path d="M0 720 l1584 0" />
      <path d="M0 750 l1584 0" />
      <path d="M0 780 l1584 0" />
      <path d="M0 810 l1584 0" />
      <path d="M0 840 l1584 0" />
      <path d="M0 870 l1584 0" />
      <path d="M0 900 l1584 0" />
      <path d="M0 930 l1584 0" />
      <path d="M0 960 l1584 0" />
      <path d="M0 990 l1584 0" />
      <path d="M0 1020 l1584 0" />
      <path d="M0 1050 l1584 0" />
      <path d="M0 1080 l1584 0" />
      <path d="M0 1110 l1584 0" />
      <path d="M0 1140 l1584 0" />
      <path d="M0 1170 l1584 0" />
      <path d="M0 1200 l1584 0" />
      <path d="M0 1230 l1584 0" />
      <path d="M0 1260 l1584 0" />
      <path d="M0 1290 l1584 0" />
      <path d="M0 1320 l1584 0" />
      <path d="M0 1350 l1584 0" />
      <path d="M0 1380 l1584 0" />
      <path d="M0 1410 l1584 0" />
      <path d="M0 1440 l1584 0" />
      <path d="M0 1470 l1584 0" />
      <path d="M0 1500 l1584 0" />
      <path d="M0 1530 l1584 0" />
      <path d="M0 1560 l1584 0" />
      <path d="M0 1590 l1584 0" />
      <path d="M0 1620 l1584 0" />
      <path d="M0 1650 l1584 0" />
      <path d="M0 1680 l1584 0" />
      <path d="M0 1710 l1584 0" />
      <path d="M0 1740 l1584 0" />
      <path d="M0 1770 l1584 0" />
      <path d="M0 1800 l1584 0" />
      <path d="M0 1830 l1584 0" />
      <path d="M0 1860 l1584 0" />
      <path d="M0 1890 l1584 0" />
      <path d="M0 1920 l1584 0" />
      <path d="M0 1950 l1584 0" />
      <path d="M0 1980 l1584 0" />
      <path d="M0 2010 l1584 0" />
      <path d="M0 2040 l1584 0" />
      <path d="M0 2070 l1584 0" />
      <path d="M0 2100 l1584 0" />
      <path d="M0 2130 l1584 0" />
      <path d="M0 2160 l1584 0" />
      <path d="M0 2190 l1584 0" />
      <path d="M0 2220 l1584 0" />
      <path d="M0 2250 l1584 0" />
      <path d="M0 2280 l1584 0" />
      <path d="M0 2310 l1584 0" />
      <path d="M0 2340 l1584 0" />
      <path d="M0 2370 l1584 0" />
      <path d="M0 2400 l1584 0" />
      <path d="M0 2430 l1584 0" />
      <path d="M0 2460 l1584 0" />
      <path d="M0 2490 l1584 0" />
      <path d="M0 2520 l1584 0" />
      <path d="M0 2550 l1584 0" />
      <path d="M0 2580 l1584 0" />
      <path d="M0 2610 l1584 0" />
      <path d="M0 2640 l1584 0" />
      <path d="M0 2670 l1584 0" />
      <path d="M0 2700 l1584 0" />
      <path d="M0 2730 l1584 0" />
      <path d="M0 2760 l1584 0" />
      <path d="M0 2790 l1584 0" />
      <path d="M0 2820 l1584 0" />
      <path d="M0 2850 l1584 0" />
      <path d="M0 2880 l1584 0" />
      <path d="M0 2910 l1584 0" />
      <path d="M0 2940 l1584 0" />
      <path d="M0 2970 l1584 0" />
      <path d="M0 3000 l1584 0" />
      <path d="M0 3030 l1584 0" />
      <path d="M0 3060 l1584 0" />
      <path d="M0 3090 l1584 0" />
      <path d="M0 3120 l1584 0" />
      <path d="M0 3150 l1584 0" />
      <path d="M0 3180 l1584 0" />
      <path d="M0 3210 l1584 0" />
      <path d="M0 3240 l1584 0" />
      <path d="M0 3270 l1584 0" />
      <path d="M0 3300 l1584 0" />
      <path d="M0 3330 l1584 0" />
      <path d="M0 3360 l1584 0" />
      <path d="M0 3390 l1584 0" />
      <path d="M0 3420 l1584 0" />
      <path d="M0 3450 l1584 0" />
      <path d="M0 3480 l1584 0" />
      <path d="M0 3510 l1584 0" />
      <path d="M0 3540 l1584 0" />
      <path class="xrule_1" d="M30 0 l0 3555" />
      <path d="M60 0 l0 3555" />
      <path d="M90 0 l0 3555" />
      <path d="M120 0 l0 3555" />
      <path d="M150 0 l0 3555" />
      <path d="M180 0 l0 3555" />
      <path d="M210 0 l0 3555" />
      <path d="M240 0 l0 3555" />
      <path d="M270 0 l0 3555" />
      <path d="M300 0 l0 3555" />
      <path d="M330 0 l0 3555" />
      <path d="M360 0 l0 3555" />
      <path d="M390 0 l0 3555" />
      <path d="M420 0 l0 3555" />
      <path d="M450 0 l0 3555" />
      <path d="M480 0 l0 3555" />
      <path d="M510 0 l0 3555" />
      <path d="M540 0 l0 3555" />
      <path d="M570 0 l0 3555" />
      <path d="M600 0 l0 3555" />
      <path d="M630 0 l0 3555" />
      <path d="M660 0 l0 3555" />
      <path d="M690 0 l0 3555" />
      <path d="M720 0 l0 3555" />
      <path d="M750 0 l0 3555" />
      <path d="M780 0 l0 3555" />
      <path d="M810 0 l0 3555" />
      <path d="M840 0 l0 3555" />
      <path d="M870 0 l0 3555" />
      <path d="M900 0 l0 3555" />
      <path d="M930 0 l0 3555" />
      <path d="M960 0 l0 3555" />
      <path d="M990 0 l0 3555" />
      <path d="M1020 0 l0 3555" />
      <path d="M1050 0 l0 3555" />
      <path d="M1080 0 l0 3555" />
      <path d="M1110 0 l0 3555" />
      <path d="M1140 0 l0 3555" />
      <path d="M1170 0 l0 3555" />
      <path d="M1200 0 l0 3555" />
      <path d="M1230 0 l0 3555" />
      <path d="M1260 0 l0 3555" />
      <path d="M1290 0 l0 3555" />
      <path d="M1320 0 l0 3555" />
      <path d="M1350 0 l0 3555" />
      <path d="M1380 0 l0 3555" />
      <path d="M1410 0 l0 3555" />
      <path d="M1440 0 l0 3555" />
      <path d="M1470 0 l0 3555" />
      <path d="M1500 0 l0 3555" />
      <path d="M1530 0 l0 3555" />
      <path d="M1560 0 l0 3555" />
      <path class="leftmargin" stroke="#FF0000" d="M30 0 l0 3555" />
    </g>
  </g>
</svg>
