<svg class="write-page" width="1010px" height="1628px" xmlns="http://www.w3.org/2000/svg" xmlns:xlink="http://www.w3.org/1999/xlink">
  <g class="write-content write-v3" width="1010" height="1628" xruling="30" yruling="30" marginLeft="30" papercolor="#1B1C1C" rulecolor="#3A00F9FF">
    <g class="ruleline write-std-ruling write-scale-down" fill="none" stroke="#00F9FF" stroke-opacity="0.227" stroke-width="1" shape-rendering="crispEdges" vector-effect="non-scaling-stroke">
      <rect class="pagerect" fill="#1B1C1C" stroke="none" x="0" y="0" width="1010" height="1628" />
      <path class="yrule_1" d="M0 30 l1010 0" />
      <path d="M0 60 l1010 0" />
      <path d="M0 90 l1010 0" />
      <path d="M0 120 l1010 0" />
      <path d="M0 150 l1010 0" />
      <path d="M0 180 l1010 0" />
      <path d="M0 210 l1010 0" />
      <path d="M0 240 l1010 0" />
      <path d="M0 270 l1010 0" />
      <path d="M0 300 l1010 0" />
      <path d="M0 330 l1010 0" />
      <path d="M0 360 l1010 0" />
      <path d="M0 390 l1010 0" />
      <path d="M0 420 l1010 0" />
      <path d="M0 450 l1010 0" />
      <path d="M0 480 l1010 0" />
      <path d="M0 510 l1010 0" />
      <path d="M0 540 l1010 0" />
      <path d="M0 570 l1010 0" />
      <path d="M0 600 l1010 0" />
      <path d="M0 630 l1010 0" />
      <path d="M0 660 l1010 0" />
      <path d="M0 690 l1010 0" />
      <path d="M0 720 l1010 0" />
      <path d="M0 750 l1010 0" />
      <path d="M0 780 l1010 0" />
      <path d="M0 810 l1010 0" />
      <path d="M0 840 l1010 0" />
      <path d="M0 870 l1010 0" />
      <path d="M0 900 l1010 0" />
      <path d="M0 930 l1010 0" />
      <path d="M0 960 l1010 0" />
      <path d="M0 990 l1010 0" />
      <path d="M0 1020 l1010 0" />
      <path d="M0 1050 l1010 0" />
      <path d="M0 1080 l1010 0" />
      <path d="M0 1110 l1010 0" />
      <path d="M0 1140 l1010 0" />
      <path d="M0 1170 l1010 0" />
      <path d="M0 1200 l1010 0" />
      <path d="M0 1230 l1010 0" />
      <path d="M0 1260 l1010 0" />
      <path d="M0 1290 l1010 0" />
      <path d="M0 1320 l1010 0" />
      <path d="M0 1350 l1010 0" />
      <path d="M0 1380 l1010 0" />
      <path d="M0 1410 l1010 0" />
      <path d="M0 1440 l1010 0" />
      <path d="M0 1470 l1010 0" />
      <path d="M0 1500 l1010 0" />
      <path d="M0 1530 l1010 0" />
      <path d="M0 1560 l1010 0" />
      <path d="M0 1590 l1010 0" />
      <path d="M0 1620 l1010 0" />
      <path class="xrule_1" d="M30 0 l0 1628" />
      <path d="M60 0 l0 1628" />
      <path d="M90 0 l0 1628" />
      <path d="M120 0 l0 1628" />
      <path d="M150 0 l0 1628" />
      <path d="M180 0 l0 1628" />
      <path d="M210 0 l0 1628" />
      <path d="M240 0 l0 1628" />
      <path d="M270 0 l0 1628" />
      <path d="M300 0 l0 1628" />
      <path d="M330 0 l0 1628" />
      <path d="M360 0 l0 1628" />
      <path d="M390 0 l0 1628" />
      <path d="M420 0 l0 1628" />
      <path d="M450 0 l0 1628" />
      <path d="M480 0 l0 1628" />
      <path d="M510 0 l0 1628" />
      <path d="M540 0 l0 1628" />
      <path d="M570 0 l0 1628" />
      <path d="M600 0 l0 1628" />
      <path d="M630 0 l0 1628" />
      <path d="M660 0 l0 1628" />
      <path d="M690 0 l0 1628" />
      <path d="M720 0 l0 1628" />
      <path d="M750 0 l0 1628" />
      <path d="M780 0 l0 1628" />
      <path d="M810 0 l0 1628" />
      <path d="M840 0 l0 1628" />
      <path d="M870 0 l0 1628" />
      <path d="M900 0 l0 1628" />
      <path d="M930 0 l0 1628" />
      <path d="M960 0 l0 1628" />
      <path d="M990 0 l0 1628" />
      <path class="leftmargin" stroke="#FF0000" d="M30 0 l0 1628" />
    </g>
    <path class="write-chisel-pen" fill="#8F3AC9" fill-opacity="0.255" stroke-width="48" __comx="205.48" __comy="32.166" __timestamp="0x17888a8fdf8" d="M63.299 25.552 l0 48 12 0 0.669 -0.569 0 -48 -12 0 -0.669 0.569 m12.669 -0.569 l-12 0 0 48 271.693 1.164 12 0 0 -48 -271.693 -1.164" />
    <path class="write-flat-pen" fill="#FFFFFF" stroke-width="1.6" __comx="94.36" __comy="50.662" __timestamp="0x17888a8b2b4" d="M93.162 36.96 l0.99 -2.279 0.066 -0.202 -0.007 -1.738 -0.173 -0.306 -1.123 -0.891 -2.129 -0.028 -1.967 0.79 -2.018 1.568 -1.879 2.435 -1.432 2.999 -0.886 3.376 -0.403 4.65 0.625 4.335 1.055 2.68 1.659 2.248 2.26 1.62 2.73 0.83 3.243 -0.178 3.363 -1.207 3.094 -1.955 2.599 -2.377 1.906 -2.49 1.256 -2.621 0.534 -2.552 -0.213 -2.635 -1.013 -2.418 -1.378 -1.649 -2.912 -2.048 -3.873 -1.678 -3.132 -0.711 -1.73 0.165 -1.902 1.695 -0.161 0.504 0.024 0.76 0.479 1.918 0.111 -0.004 0.332 -1.881 0.165 -0.522 0.053 -0.047 1.457 -1.045 1.071 -0.076 2.781 0.628 3.616 1.56 2.638 1.851 1.121 1.336 0.844 2.007 0.188 2.203 -0.446 2.187 -1.106 2.344 -1.731 2.287 -2.414 2.216 -2.862 1.815 -3.033 1.101 -2.81 0.169 -2.3 -0.683 -1.926 -1.359 -1.448 -1.938 -0.954 -2.379 -0.594 -4.043 0.373 -4.4 0.821 -3.163 1.309 -2.786 1.687 -2.232 1.751 -1.411 1.604 -0.707 1.601 -0.085 0.814 0.493 0.008 -0.011 0.253 1.437 -0.013 0.098 -0.73 2.349" />
    <path class="write-flat-pen" fill="#FFFFFF" stroke-width="1.6" __comx="97.31" __comy="50.662" __timestamp="0x17888a8b502" d="M91.691 51.543 l-1.113 -1.2 -0.019 -0.047 -0.054 -0.974 -0.045 0.117 0.382 -0.129 1.009 0.385 8.747 5.78 1.735 1.657 0.188 0.164 0.17 0.13 2.187 1.672 0.076 -0.072 -1.562 -2.267 -0.112 -0.165 -0.144 -0.205 -1.69 -1.937 -9.12 -5.771 -1.592 -0.423 -0.892 0.577 -0.176 0.365 0.401 1.319 0.142 0.162 1.33 1.027" />
    <path class="write-flat-pen" fill="#FFFFFF" stroke-width="1.6" __comx="117.319" __comy="50.662" __timestamp="0x17888a8b7f8" d="M110.735 50.675 l0.008 -0.5 -0.008 0.074 0.142 0.016 -0.487 -0.138 0.004 0.556 0.002 0.24 0.28 3.216 0.875 2.544 1.139 1.294 1.634 0.474 1.846 -0.508 1.91 -1.431 1.516 -2.07 0.971 -2.414 0 0 -0.03 -1.31 0 0 -1.404 -0.189 -0.503 1.689 0.09 2.759 0.692 2.283 1.16 1.266 1.901 -0.22 0.361 -0.276 0.32 -0.372 1.286 -1.63 -0.069 -0.082 -1.814 0.992 -0.371 0.191 -0.087 0.008 -0.935 -0.06 -0.484 -0.539 -0.546 -1.796 -0.073 -2.339 0.447 -1.463 -1.404 -0.189 0 0 0.029 1.017 0 0 -0.781 1.982 -1.281 1.761 -1.528 1.151 -1.212 0.342 -0.879 -0.242 -0.712 -0.785 -0.788 -2.137 -0.434 -3.03 -0.041 -0.301 -0.372 -1.043 -0.559 -0.161 -0.322 0.716 -0.027 0.154 0.281 0.562" />
    <path class="write-flat-pen" fill="#FFFFFF" stroke-width="1.6" __comx="129.33" __comy="50.662" __timestamp="0x17888a8b8ea" d="M128.441 50.414 l0 2.168 0.032 0.33 0.528 3.154 1.127 2.199 0.092 -0.027 -0.25 -2.403 -0.587 -3.068 -0.051 -0.275 -0.267 -2.118" />
    <path class="write-flat-pen" fill="#FFFFFF" stroke-width="1.6" __comx="129.607" __comy="50.662" __timestamp="0x17888a8b9b3" d="M129.738 44.617 l-0.667 -0.374 0 0 0.019 0.818 0.355 -0.306 1.141 -0.656 -0.024 -0.088 -1.409 0.041 -0.527 0.201 0.019 0.818 0 0 0.692 0.324" />
    <path class="write-flat-pen" fill="#FFFFFF" stroke-width="1.6" __comx="139.911" __comy="50.662" __timestamp="0x17888a8bb93" d="M134.544 47.336 l0.214 -0.305 -0.123 0.066 3.707 -0.363 1.629 0.225 0.677 0.655 0.206 1.1 -0.42 1.724 -2.088 3.866 -0.192 1.439 0.915 1.425 3.378 0.745 0.412 -0.073 0.531 -0.161 2.363 -0.854 -0.014 -0.078 -2.498 0.037 -0.51 -0.005 -0.193 -0.017 -2.615 -0.785 -0.374 -0.557 0.07 -0.722 1.916 -3.857 0.45 -2.113 -0.349 -1.661 -1.19 -1.113 -2.107 -0.252 -3.917 0.634 -0.312 0.149 -0.044 0.732" />
    <path class="write-flat-pen" fill="#FFFFFF" stroke-width="1.6" __comx="140.792" __comy="50.662" __timestamp="0x17888a8bc8f" d="M134.74 53.061 l1.191 0.688 0.469 0.052 7.925 -1.667 2.518 -0.984 -0.02 -0.07 -2.642 0.451 -7.831 1.45 -0.222 0 -1.172 -0.393" />
    <path class="write-flat-pen" fill="#FFFFFF" stroke-width="1.6" __comx="172.288" __comy="50.662" __timestamp="0x17888a8bf43" d="M170.723 39.715 l-0.318 0.611 -0.008 0.247 0.156 1.854 0.101 0.551 1.313 7.414 0.874 9.214 0.619 0.342 0.394 -0.355 0.101 -0.312 0.224 -0.937 -0.056 -0.036 -0.759 0.594 -0.15 0.078 0.228 -0.239 0.46 0.236 -0.624 -8.766 -1.554 -7.457 -0.14 -0.523 -0.403 -1.742 -0.026 -0.07 0.05 -0.552" />
    <path class="write-flat-pen" fill="#FFFFFF" stroke-width="1.6" __comx="184.774" __comy="50.662" __timestamp="0x17888a8c135" d="M181.971 44.971 l0.864 -0.383 0.189 -0.162 0.537 -1.243 -0.783 -0.328 -1.845 0.931 -1.345 1.572 -1.013 2.243 -0.598 2.992 0.132 2.446 0.814 2.193 1.18 1.468 2.076 1.211 1.965 0.298 2.016 -0.376 2.267 -1.206 1.772 -1.737 1.057 -2.145 0.316 -2.37 -0.516 -2.379 -1.439 -2.244 -2.465 -1.947 -3.031 -1.544 -2.027 -0.381 -1.195 0.79 -0.175 0.402 -0.019 0.264 -0.025 1.621 0.139 0.044 0.922 -1.334 0.1 -0.107 0.01 0.074 0.49 -0.133 1.25 0.284 2.697 1.372 2.135 1.681 1.15 1.777 0.416 1.834 -0.216 1.856 -0.807 1.702 -1.422 1.422 -1.873 1.017 -1.554 0.307 -1.457 -0.207 -1.619 -0.933 -0.874 -1.085 -0.665 -1.779 -0.121 -2.059 0.514 -2.673 0.848 -1.942 1.033 -1.278 1.088 -0.714 -0.631 -0.268 0.088 0.172 0.039 -0.016 -0.659 0.555" />
    <path class="write-flat-pen" fill="#FFFFFF" stroke-width="1.6" __comx="231.265" __comy="50.662" __timestamp="0x17888a8c447" d="M221.876 37.83 l0.177 -0.991 -0.7 0.183 -0.039 -0.028 0.02 1.238 0.006 0.447 0.112 10.779 0 0.746 0.003 5.047 0.44 1.475 1.391 1.232 2.02 0.627 3.38 0.16 8.737 -1.355 0.443 -0.135 0.978 -0.449 2.391 -1.341 -0.04 -0.107 -2.666 0.547 -0.991 0.191 -0.352 0.056 -8.571 1.102 -3.054 -0.137 -1.547 -0.466 -0.864 -0.738 -0.281 -0.877 -0.049 -4.838 -0.006 -0.758 -0.386 -10.804 -0.048 -0.495 -0.295 -1.413 -0.084 -0.101 -0.7 0.183 0.1 1.001" />
    <path class="write-flat-pen" fill="#FFFFFF" stroke-width="1.6" __comx="247.234" __comy="50.662" __timestamp="0x17888a8c627" d="M243.086 53.877 l0.896 0.182 0.296 -0.067 1.938 -0.997 0.317 -0.255 1.445 -1.609 0.579 -1.674 -0.618 -1.202 -1.362 -0.212 -1.534 0.927 -1.103 1.603 -0.477 1.946 0.353 1.986 0.901 1.43 1.434 0.973 1.964 0.118 0.482 -0.141 0.708 -0.356 2.074 -1.2 -0.025 -0.066 -2.335 0.452 -0.697 0.107 -0.251 -0.001 -1.406 -0.276 -0.882 -0.632 -0.597 -0.942 -0.26 -1.411 0.329 -1.406 0.772 -1.155 0.844 -0.539 0.213 0.013 0.081 0.105 -0.276 0.945 -1.141 1.437 -0.165 0.158 -1.633 1.14 -0.063 0.043 -0.778 0.096" />
    <path class="write-flat-pen" fill="#FFFFFF" stroke-width="1.6" __comx="259.913" __comy="50.662" __timestamp="0x17888a8c797" d="M258.549 50.201 l0.9 -1.255 0.072 -0.179 -0.073 -1.079 -1.451 -0.107 -1.585 0.945 -1.18 1.71 -0.505 1.9 0.231 2.327 0.868 1.701 1.244 1.009 1.772 0.44 2.607 -0.638 0.461 -0.239 0.76 -0.482 0.36 -0.276 2.072 -1.597 -0.036 -0.061 -2.41 1.018 -0.395 0.164 -0.789 0.299 -0.355 0.114 -2.234 0.335 -1.168 -0.337 -0.773 -0.648 -0.618 -1.207 -0.199 -1.818 0.357 -1.445 0.85 -1.327 0.996 -0.695 0.212 -0.069 0.068 -0.038 0.042 -0.1 -0.623 1.328" />
    <path class="write-flat-pen" fill="#FFFFFF" stroke-width="1.6" __comx="269.171" __comy="50.662" __timestamp="0x17888a8c8a9" d="M268.136 38.338 l-0.324 1.972 -0.012 0.568 1.801 16.227 0.887 0.721 0.053 -0.029 -0.044 -0.974 -1.663 -16.008 -0.026 -0.462 0.067 -1.941" />
    <path class="write-flat-pen" fill="#FFFFFF" stroke-width="1.6" __comx="268.646" __comy="50.662" __timestamp="0x17888a8c973" d="M264.041 47.345 l-0.54 0.534 0.55 0.2 0.215 0.058 2.907 0.407 3.957 -0.416 2.66 -0.846 -0.027 -0.166 -2.746 0.04 -3.822 0.115 -2.782 -0.183 -0.218 -0.019 -0.614 0.072 0.124 0.868" />
    <path class="write-flat-pen" fill="#FFFFFF" stroke-width="1.6" __comx="286.35" __comy="50.662" __timestamp="0x17888a8cc9f" d="M280.432 46.739 l-0.288 0.308 -0.033 0.106 -0.278 0.814 -0.068 0.239 -0.603 3.72 -0.033 0.516 0.248 2.66 0.792 1.918 1.281 1.025 1.913 0.006 2.07 -1.149 2.017 -2.208 1.358 -2.48 0 0 0.813 -2.853 0 0 -0.287 -0.81 0 0 -1.449 0.154 -0.292 2.411 0.39 2.695 0.86 1.667 1.832 0.726 0.496 -0.095 0.577 -0.271 1.819 -1.03 -0.021 -0.064 -2.055 0.231 -0.519 0.026 -0.078 -0.042 -0.973 -0.595 -0.506 -1.008 -0.323 -2.255 0.278 -2.213 -1.449 0.154 0 0 0.122 0.363 0 0 -0.634 2.235 0 0 -1.182 2.181 -1.726 1.907 -1.521 0.866 -1.037 0.018 -0.62 -0.473 -0.601 -1.385 -0.276 -2.35 0.011 -0.368 0.315 -3.672 0.023 -0.225 0.009 -0.89 -0.019 -0.017 0.016 -0.315" />
    <path class="write-flat-pen" fill="#FFFFFF" stroke-width="1.6" __comx="301.081" __comy="50.662" __timestamp="0x17888a8ce34" d="M296.185 52.31 l-0.185 1.315 0.006 0.206 0.281 1.206 0.524 0.372 1.04 -0.951 0.115 -0.412 0.676 -5.679 0.476 -1.307 0.616 -0.554 0.895 -0.239 2.349 0.533 0.197 0.081 0.672 0.332 2.265 1.196 0.049 -0.065 -1.775 -1.88 -0.61 -0.541 -0.331 -0.224 -2.785 -0.942 -1.643 0.38 -1.19 1.05 -0.655 1.851 -0.432 5.801 0.006 0.034 -0.088 0.295 0.388 0.281 -0.408 -0.756 -0.022 -0.085 -0.087 -1.284" />
    <path class="write-flat-pen" fill="#FFFFFF" stroke-width="1.6" __comx="309.829" __comy="50.662" __timestamp="0x17888a8cfc9" d="M305.528 51.727 l0.327 0.557 0.206 0.099 1.157 0.285 0.375 -0.006 2.172 -0.424 1.848 -1.002 0.933 -1.177 0.164 -1.424 -1.017 -1.163 -1.632 -0.488 -1.656 0.224 -1.471 0.881 -1.265 1.641 -0.553 1.877 0.241 1.836 0.97 1.581 1.774 1.072 2.816 -0.11 0.448 -0.185 0.782 -0.455 0.36 -0.266 2.032 -1.517 -0.03 -0.055 -2.376 0.887 -0.384 0.139 -0.779 0.226 -0.242 0.039 -2.237 -0.1 -1.139 -0.704 -0.638 -1.035 -0.169 -1.244 0.39 -1.343 0.939 -1.231 0.998 -0.609 1.082 -0.154 0.976 0.285 0.373 0.416 -0.041 0.461 -0.518 0.693 -1.43 0.857 -1.878 0.53 -0.182 0.03 -1.003 -0.018 0.024 0.03 -0.405 -0.25" />
    <path class="write-flat-pen" fill="#FFFFFF" stroke-width="1.6" __comx="320.718" __comy="50.662" __timestamp="0x17888a8d151" d="M322.08 48.594 l-0.621 -0.961 -0.247 -0.153 -1.703 0.007 -0.285 0.263 -0.423 1.086 0.646 1.657 4.125 4.067 0.631 1.066 -0.013 0.764 -0.444 0.561 -0.977 0.421 -1.464 0.019 -2.576 -0.657 -0.276 -0.089 -0.179 -0.067 -2.4 -0.948 -0.039 0.061 1.883 1.764 0.165 0.151 0.364 0.266 2.85 0.988 1.992 -0.031 1.58 -0.715 0.93 -1.258 -0.032 -1.62 -0.948 -1.518 -4.183 -3.913 -0.517 -1.025 0.099 -0.537 -0.118 0.101 1.177 -0.238 -0.002 -0.014 0.756 0.708" />
    <path class="write-stroke-pen" fill="none" stroke="#FFFFFF" stroke-width="1.6" stroke-linecap="round" stroke-linejoin="round" __comx="206.297" __comy="68.226" __timestamp="0x17888a8e01f" d="M79.302 68.765 l253.989 -0.545" />
  </g>
</svg>
