<svg class="write-page" width="1010px" height="1628px" xmlns="http://www.w3.org/2000/svg" xmlns:xlink="http://www.w3.org/1999/xlink">
  <g class="write-content write-v3" width="1010" height="1628" xruling="30" yruling="30" marginLeft="30" papercolor="#1B1C1C" rulecolor="#3A00F9FF">
    <g class="ruleline write-std-ruling write-scale-down" fill="none" stroke="#00F9FF" stroke-opacity="0.227" stroke-width="1" shape-rendering="crispEdges" vector-effect="non-scaling-stroke">
      <rect class="pagerect" fill="#1B1C1C" stroke="none" x="0" y="0" width="1010" height="1628" />
      <path class="yrule_1" d="M0 30 l1010 0" />
      <path d="M0 60 l1010 0" />
      <path d="M0 90 l1010 0" />
      <path d="M0 120 l1010 0" />
      <path d="M0 150 l1010 0" />
      <path d="M0 180 l1010 0" />
      <path d="M0 210 l1010 0" />
      <path d="M0 240 l1010 0" />
      <path d="M0 270 l1010 0" />
      <path d="M0 300 l1010 0" />
      <path d="M0 330 l1010 0" />
      <path d="M0 360 l1010 0" />
      <path d="M0 390 l1010 0" />
      <path d="M0 420 l1010 0" />
      <path d="M0 450 l1010 0" />
      <path d="M0 480 l1010 0" />
      <path d="M0 510 l1010 0" />
      <path d="M0 540 l1010 0" />
      <path d="M0 570 l1010 0" />
      <path d="M0 600 l1010 0" />
      <path d="M0 630 l1010 0" />
      <path d="M0 660 l1010 0" />
      <path d="M0 690 l1010 0" />
      <path d="M0 720 l1010 0" />
      <path d="M0 750 l1010 0" />
      <path d="M0 780 l1010 0" />
      <path d="M0 810 l1010 0" />
      <path d="M0 840 l1010 0" />
      <path d="M0 870 l1010 0" />
      <path d="M0 900 l1010 0" />
      <path d="M0 930 l1010 0" />
      <path d="M0 960 l1010 0" />
      <path d="M0 990 l1010 0" />
      <path d="M0 1020 l1010 0" />
      <path d="M0 1050 l1010 0" />
      <path d="M0 1080 l1010 0" />
      <path d="M0 1110 l1010 0" />
      <path d="M0 1140 l1010 0" />
      <path d="M0 1170 l1010 0" />
      <path d="M0 1200 l1010 0" />
      <path d="M0 1230 l1010 0" />
      <path d="M0 1260 l1010 0" />
      <path d="M0 1290 l1010 0" />
      <path d="M0 1320 l1010 0" />
      <path d="M0 1350 l1010 0" />
      <path d="M0 1380 l1010 0" />
      <path d="M0 1410 l1010 0" />
      <path d="M0 1440 l1010 0" />
      <path d="M0 1470 l1010 0" />
      <path d="M0 1500 l1010 0" />
      <path d="M0 1530 l1010 0" />
      <path d="M0 1560 l1010 0" />
      <path d="M0 1590 l1010 0" />
      <path d="M0 1620 l1010 0" />
      <path class="xrule_1" d="M30 0 l0 1628" />
      <path d="M60 0 l0 1628" />
      <path d="M90 0 l0 1628" />
      <path d="M120 0 l0 1628" />
      <path d="M150 0 l0 1628" />
      <path d="M180 0 l0 1628" />
      <path d="M210 0 l0 1628" />
      <path d="M240 0 l0 1628" />
      <path d="M270 0 l0 1628" />
      <path d="M300 0 l0 1628" />
      <path d="M330 0 l0 1628" />
      <path d="M360 0 l0 1628" />
      <path d="M390 0 l0 1628" />
      <path d="M420 0 l0 1628" />
      <path d="M450 0 l0 1628" />
      <path d="M480 0 l0 1628" />
      <path d="M510 0 l0 1628" />
      <path d="M540 0 l0 1628" />
      <path d="M570 0 l0 1628" />
      <path d="M600 0 l0 1628" />
      <path d="M630 0 l0 1628" />
      <path d="M660 0 l0 1628" />
      <path d="M690 0 l0 1628" />
      <path d="M720 0 l0 1628" />
      <path d="M750 0 l0 1628" />
      <path d="M780 0 l0 1628" />
      <path d="M810 0 l0 1628" />
      <path d="M840 0 l0 1628" />
      <path d="M870 0 l0 1628" />
      <path d="M900 0 l0 1628" />
      <path d="M930 0 l0 1628" />
      <path d="M960 0 l0 1628" />
      <path d="M990 0 l0 1628" />
      <path class="leftmargin" stroke="#FF0000" d="M30 0 l0 1628" />
    </g>
    <path class="write-chisel-pen" fill="#8F3AC9" fill-opacity="0.255" stroke-width="60" __comx="334.435" __comy="48.297" __timestamp="0x17888e532a1" d="M55.631 78.261 l0 -60 -15 0 -0.062 0 0 60 15 0 0.062 0 m-0.062 -60 l-15 0 0 60 572.733 0.495 15 0 0 -60 -572.733 -0.495" />
    <path class="write-flat-pen" fill="#FFFFFF" stroke-width="1.6" __comx="98.813" __comy="50.34" __timestamp="0x17888e4cadd" d="M97.22 34.491 l0.667 -0.953 0.043 -0.107 0.131 -0.815 -0.063 -0.317 -0.697 -1.12 -0.383 -0.254 -1.566 -0.347 -2.185 0.542 -2.687 1.822 -2.599 2.931 -2.167 3.493 -1.203 2.933 -0.742 3.938 0.045 4.112 0.677 3.125 1.227 2.843 2.348 3.204 2.104 1.653 2.695 0.977 3.347 0.005 3.677 -1.13 3.557 -1.922 4.105 -3.047 2.524 -2.634 2.397 -3.52 1.128 -3.021 0.255 -2.257 -0.396 -2.235 -1.132 -2.27 -2.466 -2.897 -2.893 -2.317 -3.597 -2.089 -3.621 -1.292 -1.842 0.017 -0.419 0.3 -0.299 0.514 -0.657 1.64 0.083 0.063 1.385 -1.024 0.322 -0.164 -0.062 0.09 1.177 0.151 3.255 1.162 3.367 1.955 2.681 2.147 2.241 2.632 0.942 1.888 0.315 1.779 -0.207 1.831 -0.991 2.655 -2.214 3.25 -2.339 2.44 -3.905 2.899 -3.317 1.793 -3.295 1.012 -2.826 -0.004 -2.191 -0.794 -1.731 -1.359 -2.113 -2.881 -1.097 -2.534 -0.616 -2.814 -0.047 -3.794 0.678 -3.628 1.089 -2.667 2.011 -3.282 2.373 -2.708 2.291 -1.629 1.626 -0.502 1.076 0.102 0.024 -0.008 0.668 0.651 0.033 0.023 0.117 0.607 0.016 -0.024 -0.404 1.035" />
    <path class="write-flat-pen" fill="#FFFFFF" stroke-width="1.6" __comx="103.549" __comy="50.34" __timestamp="0x17888e4ccc7" d="M94.551 54.941 l0.012 -0.328 0.029 -0.013 0.389 -0.639 0.116 -0.156 1.041 -1.411 0.192 -0.245 1.348 -1.34 1.236 -0.566 0.875 0.062 1.111 0.696 4.041 6.371 2.232 2.632 2.639 1.619 0.401 0.104 2.71 0.652 0.067 -0.165 -2.398 -1.422 -0.252 -0.162 -2.239 -1.663 -2.046 -2.417 -4.193 -6.527 -1.668 -1.015 -1.544 -0.071 -1.717 0.866 -1.456 1.66 -0.222 0.35 -0.842 1.59 -0.105 0.24 -0.189 0.808 -0.019 0.189 0.268 0.367" />
    <path class="write-flat-pen" fill="#FFFFFF" stroke-width="1.6" __comx="128.866" __comy="50.34" __timestamp="0x17888e4cf6a" d="M122.803 46.939 l-0.716 -0.252 -0.285 0.105 -0.741 0.7 -0.181 0.333 -0.874 3.209 -0.074 0.528 -0.283 3.896 0.409 2.697 0.979 1.52 1.339 0.734 1.734 -0.033 2.398 -1.128 2.136 -1.91 1.673 -2.343 1.36 -2.993 0.55 -2.554 -0.32 -0.862 0 0 -1.228 -0.363 -0.811 0.604 -0.667 2.67 0.065 2.562 0.819 3.035 1.121 1.977 1.558 1.325 2.599 0.365 0.433 -0.152 0.466 -0.294 1.821 -1.4 -0.032 -0.069 -2.22 0.46 -0.435 0.062 -0.081 -0.022 -1.842 -0.446 -1.015 -0.863 -0.881 -1.554 -0.716 -2.654 -0.054 -2.153 0.476 -1.905 0.352 -0.262 -1.228 -0.363 0 0 0.158 0.425 -0.416 1.93 -1.224 2.695 -1.479 2.074 -1.828 1.64 -1.88 0.894 -0.981 0.029 -0.635 -0.333 -0.605 -0.906 -0.382 -2.209 0.15 -3.699 0.041 -0.417 0.573 -3.09 0.036 -0.132 0.352 -0.625 -0.099 0.02 0.537 -0.035" />
    <path class="write-flat-pen" fill="#FFFFFF" stroke-width="1.6" __comx="142.191" __comy="50.34" __timestamp="0x17888e4d07b" d="M141.166 49.167 l-0.27 0.85 -0.035 0.247 -0.032 2.149 0.03 0.486 1.158 6.251 1.431 0.858 0.105 -0.09 -0.425 -1.292 -0.928 -5.904 -0.053 -0.402 -0.24 -2.06 -0.02 -0.134 0.03 -0.823" />
    <path class="write-flat-pen" fill="#FFFFFF" stroke-width="1.6" __comx="142.878" __comy="50.34" __timestamp="0x17888e4d122" d="M142.437 41.762 l-0.958 0.965 1.024 1.221 1.714 0.664 0.059 -0.097 -1.266 -1.132 -0.381 -0.621 0.341 -0.54" />
    <path class="write-flat-pen" fill="#FFFFFF" stroke-width="1.6" __comx="156.203" __comy="50.34" __timestamp="0x17888e4d34a" d="M150.443 45.169 l-0.115 -0.267 -0.033 0.306 0.233 -0.027 0.03 0.01 1.941 -0.253 0.272 -0.015 3.257 -0.059 1.621 0.347 0.552 0.411 0.235 0.579 -0.139 0.911 -6.279 8.52 -1.346 2.511 0.346 1.458 1.516 0.698 7.394 0.3 0.063 -0.01 2.87 -0.351 0.012 -0.147 -2.776 -0.806 -0.075 -0.021 -7.094 -0.542 -0.541 -0.246 -0.031 -0.12 0.994 -1.892 6.35 -8.777 0.249 -1.67 -0.549 -1.331 -1.141 -0.837 -2.104 -0.432 -3.465 0.159 -0.381 0.044 -2.073 0.55 -0.23 0.125 -0.415 0.466 -0.057 0.417 0.621 0.341" />
    <path class="write-flat-pen" fill="#FFFFFF" stroke-width="1.6" __comx="155.378" __comy="50.34" __timestamp="0x17888e4d444" d="M149.079 51.217 l1.682 0.132 0.434 0.007 7.779 -0.751 2.704 -0.458 -0.008 -0.139 -2.75 -0.15 -7.779 0.616 -0.393 0.035 -1.667 0.118" />
    <path class="write-flat-pen" fill="#FFFFFF" stroke-width="1.6" __comx="187.632" __comy="50.34" __timestamp="0x17888e4d6f0" d="M187.092 37.273 l-0.109 -0.189 -0.066 -0.272 -0.539 0.212 -0.034 0.107 0.062 0.66 0.051 0.359 0.505 2.599 0.121 0.88 0.404 5.686 -0.138 4.682 -0.871 7.375 0.926 0.268 0.295 -0.464 0.053 -0.222 0.193 -0.991 -0.085 -0.057 -0.842 0.557 -0.145 0.075 0.151 -0.301 0.862 0.247 0.92 -6.374 0.112 -4.837 -0.551 -5.803 -0.18 -0.971 -0.756 -2.59 -0.127 -0.358 -0.268 -0.515 -0.033 -0.01 -0.539 0.212 0.268 0.081 0.056 0.116" />
    <path class="write-flat-pen" fill="#FFFFFF" stroke-width="1.6" __comx="201.817" __comy="50.34" __timestamp="0x17888e4d925" d="M199.548 42.433 l0.205 -0.579 0.046 -0.073 0.357 -0.595 0.087 -0.165 0.249 -0.979 -0.506 -0.578 -1.76 0.56 -0.458 0.352 -2.312 2.678 -1.868 3.503 -0.932 3.198 -0.164 2.751 0.455 1.966 1.154 1.872 1.92 1.45 2.426 0.785 2.714 0.016 2.665 -0.631 3.304 -1.599 1.92 -1.594 1.278 -1.857 0.812 -2.494 -0.048 -2.627 -0.775 -2.22 -1.723 -2.567 -2.402 -2.16 -2.892 -1.748 -1.98 -0.53 -1.219 0.645 -0.2 0.451 -0.012 0.263 0.058 1.534 0.128 0.041 0.934 -1.218 0.098 -0.083 -0.008 0.124 0.357 -0.064 1.21 0.324 2.568 1.552 2.141 1.926 1.498 2.231 0.623 1.784 0.038 2.103 -0.657 2.018 -1.021 1.484 -1.6 1.328 -2.971 1.438 -2.308 0.547 -2.275 -0.014 -1.934 -0.625 -1.465 -1.106 -0.859 -1.393 -0.345 -1.486 0.138 -2.342 0.831 -2.871 1.691 -3.223 2.04 -2.502 0.162 -0.148 0.719 -0.433 -0.357 -0.42 0.089 0.382 -0.011 0.082 -0.137 0.712 -0.016 0.145 0.045 0.649" />
    <path class="write-flat-pen" fill="#FFFFFF" stroke-width="1.6" __comx="253.781" __comy="50.34" __timestamp="0x17888e4dcbc" d="M246.47 38.892 l0.098 -1.145 0.006 -0.016 0.153 -0.358 0.026 -0.038 0 0 -0.925 -0.002 -0.139 0.288 -0.041 0.184 -0.314 2.33 -0.061 0.673 -0.124 6.877 0.611 9.196 1.183 1.141 1.862 0.522 3.714 -0.258 5.798 -1.366 0.476 -0.127 0.931 -0.268 2.689 -0.786 -0.02 -0.147 -2.808 -0.038 -0.989 0.018 -0.53 0.047 -5.77 1.079 -3.326 0.231 -1.206 -0.339 -0.448 -0.433 -0.574 -8.518 0.032 -6.773 0.029 -0.625 0.052 -2.346 -0.014 -0.182 -0.086 -0.3 -0.925 -0.002 0 0 0.027 -0.025 0.121 0.325 0.006 0.041 0.179 1.148" />
    <path class="write-flat-pen" fill="#FFFFFF" stroke-width="1.6" __comx="267.475" __comy="50.34" __timestamp="0x17888e4deac" d="M264.396 51.761 l0.276 -0.232 -0.064 0.052 0.642 -0.025 0.2 -0.019 1.949 -0.559 0.348 -0.181 1.634 -1.179 0.996 -1.531 -0.274 -1.329 -1.555 -0.635 -2.024 0.619 -1.98 1.709 -1.403 2.083 -0.819 2.464 0.113 2.101 0.811 1.508 1.431 1.063 2.101 0.611 2.859 -0.4 0.371 -0.17 0.288 -0.172 2.329 -1.39 -0.095 -0.247 -2.661 0.526 -0.302 0.054 -0.226 0.029 -2.416 0.145 -1.525 -0.443 -0.914 -0.679 -0.473 -0.88 -0.078 -1.442 0.654 -1.97 1.16 -1.728 1.562 -1.359 1.172 -0.374 0.293 0.1 0.001 -0.074 -0.478 0.825 -1.283 1.054 -0.16 0.104 -1.682 0.751 -0.133 0.047 -0.667 0.282 -0.2 0.11 -0.162 0.57" />
    <path class="write-flat-pen" fill="#FFFFFF" stroke-width="1.6" __comx="281.15" __comy="50.34" __timestamp="0x17888e4e01b" d="M278.505 49.352 l0.535 -0.459 0.079 -0.053 0.56 -0.461 0.214 -0.445 -0.721 -0.7 -0.579 0.232 -1.304 1.23 -1.208 2.402 -0.33 2.304 0.528 1.952 1.374 1.543 1.688 0.786 3.745 -0.21 0.511 -0.237 0.407 -0.237 0.388 -0.276 2.158 -1.538 -0.052 -0.109 -2.549 0.725 -0.431 0.118 -0.396 0.099 -0.303 0.055 -3.149 0.002 -1.048 -0.486 -0.911 -1.015 -0.354 -1.277 0.228 -1.744 0.927 -2.008 0.834 -1.005 -0.334 0.124 -0.336 -0.415 0.185 -0.382 -0.251 0.513 -0.055 0.082 -0.356 0.646" />
    <path class="write-flat-pen" fill="#FFFFFF" stroke-width="1.6" __comx="291.087" __comy="50.34" __timestamp="0x17888e4e138" d="M289.306 38.112 l0.049 0.668 0.031 0.215 0.225 1.514 0.098 0.547 0.806 5.464 0.096 0.982 1.047 10.582 0.813 1.464 0.101 -0.017 0.299 -1.602 -0.826 -10.567 -0.122 -1.038 -1.089 -5.498 -0.167 -0.569 -0.496 -1.477 -0.098 -0.203 -0.274 -0.591" />
    <path class="write-flat-pen" fill="#FFFFFF" stroke-width="1.6" __comx="291.927" __comy="50.34" __timestamp="0x17888e4e200" d="M285.895 49.087 l0.446 -0.309 -0.003 0.033 1.588 -0.1 0.452 -0.011 6.847 -0.187 0.501 -0.079 2.795 -0.416 0 -0.234 -2.795 -0.42 -0.512 -0.079 -6.893 0.05 -0.537 0.054 -1.727 0.391 -0.299 0.153 -0.428 0.63" />
    <path class="write-flat-pen" fill="#FFFFFF" stroke-width="1.6" __comx="307.472" __comy="50.34" __timestamp="0x17888e4e4d3" d="M301.949 47.084 l-0.511 -0.325 -0.237 0.264 -0.282 0.472 -0.074 0.231 -0.316 1.534 -0.063 0.444 -0.303 3.965 0.348 2.433 0.989 1.557 1.627 0.769 1.987 -0.347 1.908 -1.375 1.692 -2.419 1.258 -3.25 0.292 -2.377 -0.4 -1.051 0 0 -1.133 -0.417 -0.8 0.439 -0.116 1.942 0.877 2.836 1.383 2.316 1.544 1.458 1.345 0.221 0.328 -0.143 1.489 -0.92 -0.023 -0.097 -1.743 -0.158 -0.032 -0.058 -0.562 -0.285 -1.086 -1.029 -1.171 -1.961 -0.734 -2.375 0.046 -0.77 0.026 -0.014 -1.133 -0.417 0 0 0.259 0.681 -0.219 1.786 -1.116 2.884 -1.425 2.039 -1.391 1.005 -1.13 0.201 -0.759 -0.353 -0.572 -0.883 -0.308 -1.942 0.109 -3.791 0.017 -0.405 0.046 -1.518 -0.005 -0.149 -0.017 -0.366 -0.182 0.192 0.141 -0.098" />
    <path class="write-flat-pen" fill="#FFFFFF" stroke-width="1.6" __comx="322.746" __comy="50.34" __timestamp="0x17888e4e68d" d="M316.682 46.379 l-0.215 0.672 -0.027 0.184 -0.047 1.201 0.046 0.421 0.602 3.245 0.141 0.48 0.808 2.399 0 0 0.791 0.691 0 0 1.3 -0.561 0.268 -5.266 0.653 -2.708 0.791 -1.475 0.857 -0.694 0.61 -0.069 2.8 1.341 0.247 0.138 0.328 0.179 2.358 1.31 0.103 -0.126 -1.744 -2.058 -0.244 -0.29 -0.295 -0.299 -3.244 -1.84 -1.564 0.176 -1.471 1.192 -1.041 1.94 -0.735 3.054 -0.255 5.417 1.3 -0.561 0 0 -0.487 -0.401 0 0 -0.718 -1.961 -0.134 -0.395 -0.848 -3.098 -0.087 -0.324 -0.218 -1.089 -0.027 -0.101 -0.053 -0.655" />
    <path class="write-flat-pen" fill="#FFFFFF" stroke-width="1.6" __comx="335.592" __comy="50.34" __timestamp="0x17888e4e894" d="M329.52 49.959 l0.145 0.313 0.057 0.088 0.428 0.413 0.161 0.108 1.135 0.542 0.332 0.093 1.815 0.126 1.737 -0.628 1.422 -1.315 0.638 -1.54 -0.434 -1.372 -1.275 -0.827 -1.56 -0.072 -1.647 0.74 -1.519 1.484 -1.172 2.286 -0.273 2.187 0.437 1.774 1.18 1.442 1.39 0.679 2.35 0.203 3.715 -0.896 0.352 -0.158 0.365 -0.214 2.376 -1.405 -0.048 -0.129 -2.716 0.49 -0.384 0.064 -0.284 0.04 -3.471 0.594 -1.82 -0.157 -0.809 -0.395 -0.73 -0.891 -0.28 -1.136 0.201 -1.614 0.924 -1.803 1.129 -1.105 1.042 -0.47 0.752 0.031 0.442 0.28 0.098 0.287 -0.277 0.71 -0.932 0.917 -1.169 0.5 -1.417 0.058 -0.151 -0.013 -1.101 -0.243 -0.098 -0.021 -0.478 -0.139 -0.04 -0.002 -0.31 -0.135" />
    <path class="write-flat-pen" fill="#FFFFFF" stroke-width="1.6" __comx="348.605" __comy="50.34" __timestamp="0x17888e4ea54" d="M349.739 46.894 l-0.226 -0.915 -0.1 -0.182 -0.878 -1.009 -0.451 -0.164 -1.474 0.09 -1.375 1.024 -0.374 1.317 0.999 1.582 4.913 3.627 0.312 0.499 -0.038 0.09 -1.059 0.653 -3.658 0.971 -1.976 0.358 -0.02 0.128 2.058 0.976 4.219 -0.938 1.714 -1.06 0.549 -1.33 -0.916 -1.454 -4.972 -3.593 -0.547 -0.772 0.03 -0.251 0.651 -0.577 0.84 -0.159 -0.019 -0.024 0.794 0.585 0.027 0.008 0.432 0.736" />
    <path class="write-flat-pen" fill="#FFFFFF" stroke-width="1.6" __comx="429.45" __comy="46.638" __timestamp="0x17888e4f0ee" d="M430.961 34.096 l0.187 -0.565 -0.15 -0.277 -0.555 -0.12 -0.304 0.131 -1.269 1.077 -0.344 0.436 -1.763 2.968 -1.517 4.044 -0.651 3.27 0.033 3.544 0.708 3.099 1.374 3.159 1.732 2.092 2.153 1.103 0.526 0.123 0.51 0.051 2.636 0.257 0.038 -0.153 -2.451 -1.001 -0.434 -0.183 -0.342 -0.165 -1.696 -1.129 -1.392 -1.771 -1.239 -2.849 -0.653 -2.81 -0.054 -3.238 0.562 -3.022 1.369 -3.862 1.542 -2.887 0.218 -0.331 0.935 -1.11 -0.022 -0.023 0.032 -0.115 -0.079 -0.17 0.098 0.403" />
    <path class="write-flat-pen" fill="#FFFFFF" stroke-width="1.6" __comx="443.211" __comy="46.638" __timestamp="0x17888e4f248" d="M443.457 38.1 l-0.537 0.352 -0.078 0.328 -0.257 1.989 -0.039 0.643 0.061 12.755 0.851 1.474 0.159 -0.033 0.222 -1.571 -0.103 -12.611 -0.003 -0.602 0.001 -1.946 -0.026 -0.014 0.172 -0.319" />
    <path class="write-flat-pen" fill="#FFFFFF" stroke-width="1.6" __comx="446.181" __comy="46.638" __timestamp="0x17888e4f33e" d="M434.333 39.391 l0.116 -0.357 -0.325 0.095 1.525 0.181 0.582 0.057 19.39 -0.33 0.509 -0.028 2.712 -0.119 0.013 -0.153 -2.649 -0.592 -0.546 -0.121 -19.397 0.067 -0.556 -0.012 -1.673 0.075 -0.528 0.139 0.151 1.113" />
    <path class="write-flat-pen" fill="#FFFFFF" stroke-width="1.6" __comx="456.481" __comy="46.638" __timestamp="0x17888e4f562" d="M451.434 47.612 l-0.167 0.611 -0.015 0.139 0.017 0.992 0.03 0.264 0.379 2.498 0 0 0.061 0.369 0 0 0.569 2.831 0 0 1.482 -0.303 -0.472 -2.929 0.181 -1.818 0.669 -1.184 1.277 -0.926 1.582 -0.432 1.251 0.195 1.776 1.593 1.531 1.865 0.124 -0.057 -0.526 -2.598 -2.146 -2.304 -2.102 -0.327 -2.193 0.6 -1.794 1.303 -1.003 1.782 -0.227 2.368 0.58 3.128 1.482 -0.303 0 0 -0.754 -2.764 0 0 -0.082 -0.345 0 0 -0.641 -2.443 -0.066 -0.224 -0.245 -0.893 -0.022 -0.066 -0.097 -0.594" />
    <path class="write-flat-pen" fill="#FFFFFF" stroke-width="1.6" __comx="465.64" __comy="46.638" __timestamp="0x17888e4f66d" d="M464.759 50.623 l-0.11 0.752 -0.022 0.176 -0.072 1.194 -0.001 0.306 0.168 2.629 0.823 0.671 0.761 -0.026 0.088 -0.17 0.061 -0.215 0.272 -1.201 -0.069 -0.041 -0.923 0.815 -0.114 0.08 -0.099 0.042 0.761 -0.026 -0.363 -0.508 -0.365 -2.143 -0.043 -0.271 -0.182 -1.162 -0.029 -0.166 -0.142 -0.746" />
    <path class="write-flat-pen" fill="#FFFFFF" stroke-width="1.6" __comx="467.714" __comy="46.638" __timestamp="0x17888e4f6ef" d="M468.168 43.998 l-0.169 -0.538 -0.594 0 -0.147 0.377 0.087 1.186 0.118 0.016 0.38 -1.031 0.155 -0.272 -0.594 0 0.303 0.475" />
    <path class="write-flat-pen" fill="#FFFFFF" stroke-width="1.6" __comx="471.003" __comy="52.39" __timestamp="0x17888e4f94d" d="M473.677 49.82 l0.286 -0.757 0.024 -0.134 -0.31 -1.362 -0.379 -0.258 -1.202 -0.134 -1.339 0.855 -1.096 1.644 -0.573 2.13 0.235 1.556 1.156 1.068 1.508 -0.096 1.589 -1.099 1.265 -1.91 0 0 0.512 -1.791 0 0 -1.394 -0.111 0.85 7.495 0.073 5.078 -0.441 2.529 -0.978 2.295 -1.002 1.151 -1.514 0.892 -1.488 0.303 -1.13 -0.192 -0.788 -0.573 -0.388 -0.833 0.017 -1.167 0.616 -1.597 1.959 -2.363 0.388 -0.38 0.429 -0.396 0.446 -0.408 1.993 -1.803 -0.075 -0.112 -2.427 1.155 -0.563 0.267 -0.549 0.31 -0.571 0.378 -2.416 2.503 -0.825 2.138 -0.026 1.819 0.717 1.54 1.426 1.037 1.794 0.305 2.043 -0.416 1.968 -1.161 1.336 -1.539 1.142 -2.701 0.479 -2.864 -0.16 -5.297 -0.918 -7.558 -1.394 -0.111 0 0 -0.442 1.582 0 0 -0.991 1.503 -1.044 0.732 -0.532 0.045 -0.383 -0.332 -0.145 -0.808 0.404 -1.672 0.801 -1.284 0.759 -0.548 0.536 -0.008 -0.15 -0.109 0.388 0.756 0.015 -0.066 -0.015 0.788" />
    <path class="write-flat-pen" fill="#FFFFFF" stroke-width="1.6" __comx="483.727" __comy="52.39" __timestamp="0x17888e4fb00" d="M483.843 50.799 l-0.135 -0.778 -0.177 -0.206 -0.987 -0.297 -0.43 0.116 -1.884 1.688 -0.239 0.436 -0.652 1.948 0.055 2.127 0.675 1.522 1.41 1.135 1.986 0.23 1.87 -0.633 1.463 -1.242 1.07 -2.014 0.243 -2.124 -0.551 -1.799 -1.275 -1.385 -1.473 -0.205 -1.065 1.591 0.028 0.489 0.139 0.435 0.754 1.777 0.121 -0.018 0.219 -1.889 0.068 -0.344 0.042 0.033 0.406 -0.36 -0.027 -0.003 0.641 0.696 0.347 1.133 -0.17 1.492 -0.783 1.477 -0.996 0.848 -1.243 0.424 -1.178 -0.131 -0.762 -0.604 -0.408 -0.889 -0.075 -1.561 0.457 -1.604 0.06 -0.139 1.338 -1.526 -0.103 0.014 0.481 -0.046 -0.122 -0.147 0.329 0.527" />
    <path class="write-flat-pen" fill="#FFFFFF" stroke-width="1.6" __comx="495.378" __comy="52.39" __timestamp="0x17888e4fd0d" d="M491.452 48.654 l-0.678 0.196 -0.125 0.281 -0.305 1.331 -0.025 0.401 0.116 4.806 0.005 0.322 0 0 0.037 2.168 0 0 1.527 0.187 2.19 -7.582 0.918 -1.899 0.266 -0.192 0.316 0.042 0.652 0.654 1.17 2.321 1.023 3.432 0.268 2.435 -0.082 0.585 0.221 -0.056 -0.477 0.897 0.061 0.12 1.007 0.137 0.341 -0.117 0.557 -1.401 -0.321 -2.918 -1.105 -3.706 -1.349 -2.676 -1.216 -1.22 -1.486 -0.197 -1.109 0.801 -1.154 2.387 -2.188 7.725 1.527 0.187 0 0 -0.117 -2.167 0 0 -0.02 -0.334 -0.394 -4.763 -0.016 -0.298 0.015 -1.205 -0.06 0.103 0.265 -0.284" />
    <path class="write-flat-pen" fill="#FFFFFF" stroke-width="1.6" __comx="512.505" __comy="52.39" __timestamp="0x17888e5004e" d="M513.46 47.422 l0.302 -0.529 0.035 -0.159 -0.19 -0.633 -0.309 -0.178 -1.28 -0.017 -0.397 0.137 -1.627 1.043 -1.613 2.001 -0.914 2.189 -0.187 2.44 0.657 1.801 1.479 1.341 1.519 0.53 2.235 -0.154 2.048 -0.958 1.39 -1.401 0.99 -2.083 0.131 -1.863 -0.576 -1.979 -1.25 -1.6 -1.652 -0.944 -1.803 -0.152 -1.273 0.84 -0.154 0.356 -0.01 0.177 0.085 1.389 0.102 0.035 0.92 -1.044 0.062 -0.033 -0.019 0.12 0.633 -0.212 0.969 0.087 1.073 0.613 0.867 1.11 0.41 1.41 -0.089 1.277 -0.742 1.564 -0.998 1.007 -1.521 0.715 -1.614 0.117 -0.914 -0.312 -0.97 -0.858 -0.438 -1.124 0.095 -1.879 0.702 -1.804 1.303 -1.729 1.269 -0.95 0.095 -0.054 0.824 -0.198 -0.163 -0.104 0.184 0.077 0.025 -0.091 -0.039 0.563" />
    <path class="write-flat-pen" fill="#FFFFFF" stroke-width="1.6" __comx="531.849" __comy="52.39" __timestamp="0x17888e5040b" d="M518.497 47.897 l-0.481 0.629 -0.06 0.242 -0.107 1.476 0.016 0.367 0.38 3.75 0.039 0.393 0 0 0.297 2.534 0 0 1.544 0.054 0.983 -4.715 1.158 -3.075 1.456 -2.443 0.298 -0.194 -0.168 -0.116 0 0 0.919 7.693 0 0 0.578 0.861 0 0 1.412 -0.162 2.066 -5.438 1.37 -2.432 0.8 -0.759 0.288 -0.044 0.148 0.14 0.864 6.511 0.83 2.283 1.305 0.957 1.548 0.133 1.943 -0.674 1.631 -1.328 1.494 -2.105 1.18 -2.91 -0.037 -1.593 -0.987 -1.379 -1.532 0.047 -1.492 1.455 -1.123 2.442 -0.42 2.363 0.233 2.054 1.062 2.086 1.604 1.236 1.989 0.445 1.854 -0.397 1.553 -1.162 0.864 -1.768 0.049 -0.469 0.001 -0.403 -0.07 -0.438 -0.407 -2.349 -0.075 -0.002 -0.541 2.322 -0.093 0.361 -0.101 0.268 -0.101 0.206 -0.762 1.199 -0.995 0.744 -1.169 0.251 -1.301 -0.291 -1.038 -0.799 -0.767 -1.507 -0.174 -1.535 0.344 -1.932 0.913 -1.986 0.833 -0.813 0.056 -0.002 0.203 0.284 0.018 0.769 -0.986 2.43 -1.26 1.776 -1.243 1.012 -1.355 0.47 -0.762 -0.066 -0.552 -0.405 -0.605 -1.663 -0.916 -6.902 -1.129 -1.065 -1.555 0.237 -1.339 1.27 -1.547 2.747 -2.109 5.55 1.412 -0.162 0 0 -0.363 -0.541 0 0 -0.959 -8.028 0 0 -1.31 -0.903 -1.507 0.983 -1.718 2.884 -1.251 3.327 -0.979 4.844 1.544 0.054 0 0 -0.377 -2.514 0 0 -0.056 -0.395 -0.655 -3.701 -0.049 -0.294 -0.158 -1.35 -0.017 -0.033 0.188 -0.624" />
    <path class="write-flat-pen" fill="#FFFFFF" stroke-width="1.6" __comx="550.141" __comy="52.39" __timestamp="0x17888e50549" d="M547.891 36.288 l0.126 0.075 -0.156 -0.151 0.047 0.425 0.03 0.271 0.235 1.384 0.096 0.603 1.04 5.415 1.939 13.791 1.042 -0.592 -0.002 0.08 -0.074 0.045 -0.756 -0.368 -0.047 0.027 -0.058 0.839 0.037 0.235 0.099 0.159 1.042 -0.592 -1.68 -13.888 -1.266 -5.433 -0.168 -0.616 -0.475 -1.354 -0.126 -0.307 -0.315 -0.487 -0.244 -0.267 -0.506 0.284" />
    <path class="write-flat-pen" fill="#FFFFFF" stroke-width="1.6" __comx="550.824" __comy="52.39" __timestamp="0x17888e50609" d="M544.508 48.354 l0.473 -0.176 0.001 0.031 0.959 0.009 0.4 0.001 8.658 -0.847 2.544 -1.43 -0.073 -0.23 -2.763 0.251 -8.478 0.92 -0.413 0.054 -1.047 0.269 -0.197 0.09 -0.469 0.438" />
    <path class="write-flat-pen" fill="#FFFFFF" stroke-width="1.6" __comx="567.275" __comy="52.39" __timestamp="0x17888e50912" d="M559.739 46.676 l-0.335 -0.137 -0.1 0.114 -0.011 0.083 0.018 0.549 0.028 0.266 0.285 1.597 0.11 0.497 1.286 5.922 0.078 0.443 0 0 0.567 2.653 0 0 1.567 -0.219 -0.477 -7.977 0.208 -1.33 0.286 -0.307 1.113 -0.218 7.609 1.145 0.16 0.021 0.368 0.073 2.722 0.532 0.036 -0.088 -2.32 -1.538 -0.365 -0.213 -0.276 -0.121 -7.959 -1.437 -1.905 0.374 -0.974 1.045 -0.31 1.986 0.5 8.149 1.567 -0.219 0 0 -0.595 -2.621 0 0 -0.089 -0.456 -1.57 -5.918 -0.166 -0.497 -0.544 -1.514 -0.099 -0.242 -0.241 -0.481 -0.04 -0.054 -0.134 -0.063 -0.335 0.201" />
    <path class="write-flat-pen" fill="#FFFFFF" stroke-width="1.6" __comx="576.668" __comy="52.39" __timestamp="0x17888e50a8e" d="M572.499 49.774 l0.209 -0.441 -0.045 0.1 0.263 0.063 -0.091 0.008 0.589 0.549 0.128 0.169 4.138 7.346 1.34 1.16 0.493 0.052 0.516 -0.214 1.184 -0.873 -0.017 -0.055 -1.4 -0.087 -0.252 -0.094 0.155 -0.018 -0.76 -0.862 -4.346 -7.158 -0.368 -0.337 -0.983 -0.517 -0.36 -0.058 -0.645 0.352 -0.132 0.22 0.008 0.624" />
    <path class="write-flat-pen" fill="#FFFFFF" stroke-width="1.6" __comx="578.006" __comy="52.39" __timestamp="0x17888e50b89" d="M582.437 47.54 l-0.48 0.433 -0.1 0.211 -0.369 0.987 -0.114 0.441 -0.992 7.355 -0.075 0.891 -0.765 4.574 -1.276 3.684 -1.531 2.822 -2.109 2.073 -1.589 2.034 0.023 0.031 2.519 -0.913 2.442 -2.24 1.714 -3.161 1.36 -3.936 0.786 -4.774 0.073 -0.931 0.709 -7.316 0.039 -0.381 0.093 -0.983 -0.02 -0.04 0.2 -0.445" />
    <path class="write-flat-pen" fill="#FFFFFF" stroke-width="1.6" __comx="592.819" __comy="52.39" __timestamp="0x17888e50db4" d="M587.736 32.573 l0.407 -0.249 -0.044 0.034 0.727 0.276 0.213 0.125 1.462 1.068 0.391 0.352 3.776 4.593 0.337 0.632 0.904 2.313 0.605 3.494 0.03 3.607 -0.681 3.248 -1.187 2.797 -1.504 2.244 -0.364 0.464 -0.421 0.5 -0.402 0.46 -1.783 2.008 0.087 0.104 2.284 -1.412 0.544 -0.336 0.571 -0.43 0.535 -0.473 1.839 -2.337 1.332 -3.103 0.748 -3.572 -0.035 -3.911 -0.664 -3.781 -1.017 -2.546 -0.472 -0.856 -4.169 -4.628 -0.573 -0.425 -1.722 -0.94 -0.398 -0.132 -0.988 -0.065 -0.274 0.075 -0.339 0.589" />
    <path class="write-stroke-pen" fill="none" stroke="#FFFFFF" stroke-width="1.6" stroke-linecap="round" stroke-linejoin="round" __comx="340.13" __comy="67.075" __timestamp="0x17888e51f26" d="M68.372 68.905 l543.516 -3.126" />
  </g>
</svg>
