<svg class="write-page" width="1010px" height="1628px" xmlns="http://www.w3.org/2000/svg" xmlns:xlink="http://www.w3.org/1999/xlink">
  <g class="write-content write-v3" width="1010" height="1628" xruling="30" yruling="30" marginLeft="30" papercolor="#1B1C1C" rulecolor="#3A00F9FF">
    <g class="ruleline write-std-ruling write-scale-down" fill="none" stroke="#00F9FF" stroke-opacity="0.227" stroke-width="1" shape-rendering="crispEdges" vector-effect="non-scaling-stroke">
      <rect class="pagerect" fill="#1B1C1C" stroke="none" x="0" y="0" width="1010" height="1628" />
      <path class="yrule_1" d="M0 30 l1010 0" />
      <path d="M0 60 l1010 0" />
      <path d="M0 90 l1010 0" />
      <path d="M0 120 l1010 0" />
      <path d="M0 150 l1010 0" />
      <path d="M0 180 l1010 0" />
      <path d="M0 210 l1010 0" />
      <path d="M0 240 l1010 0" />
      <path d="M0 270 l1010 0" />
      <path d="M0 300 l1010 0" />
      <path d="M0 330 l1010 0" />
      <path d="M0 360 l1010 0" />
      <path d="M0 390 l1010 0" />
      <path d="M0 420 l1010 0" />
      <path d="M0 450 l1010 0" />
      <path d="M0 480 l1010 0" />
      <path d="M0 510 l1010 0" />
      <path d="M0 540 l1010 0" />
      <path d="M0 570 l1010 0" />
      <path d="M0 600 l1010 0" />
      <path d="M0 630 l1010 0" />
      <path d="M0 660 l1010 0" />
      <path d="M0 690 l1010 0" />
      <path d="M0 720 l1010 0" />
      <path d="M0 750 l1010 0" />
      <path d="M0 780 l1010 0" />
      <path d="M0 810 l1010 0" />
      <path d="M0 840 l1010 0" />
      <path d="M0 870 l1010 0" />
      <path d="M0 900 l1010 0" />
      <path d="M0 930 l1010 0" />
      <path d="M0 960 l1010 0" />
      <path d="M0 990 l1010 0" />
      <path d="M0 1020 l1010 0" />
      <path d="M0 1050 l1010 0" />
      <path d="M0 1080 l1010 0" />
      <path d="M0 1110 l1010 0" />
      <path d="M0 1140 l1010 0" />
      <path d="M0 1170 l1010 0" />
      <path d="M0 1200 l1010 0" />
      <path d="M0 1230 l1010 0" />
      <path d="M0 1260 l1010 0" />
      <path d="M0 1290 l1010 0" />
      <path d="M0 1320 l1010 0" />
      <path d="M0 1350 l1010 0" />
      <path d="M0 1380 l1010 0" />
      <path d="M0 1410 l1010 0" />
      <path d="M0 1440 l1010 0" />
      <path d="M0 1470 l1010 0" />
      <path d="M0 1500 l1010 0" />
      <path d="M0 1530 l1010 0" />
      <path d="M0 1560 l1010 0" />
      <path d="M0 1590 l1010 0" />
      <path d="M0 1620 l1010 0" />
      <path class="xrule_1" d="M30 0 l0 1628" />
      <path d="M60 0 l0 1628" />
      <path d="M90 0 l0 1628" />
      <path d="M120 0 l0 1628" />
      <path d="M150 0 l0 1628" />
      <path d="M180 0 l0 1628" />
      <path d="M210 0 l0 1628" />
      <path d="M240 0 l0 1628" />
      <path d="M270 0 l0 1628" />
      <path d="M300 0 l0 1628" />
      <path d="M330 0 l0 1628" />
      <path d="M360 0 l0 1628" />
      <path d="M390 0 l0 1628" />
      <path d="M420 0 l0 1628" />
      <path d="M450 0 l0 1628" />
      <path d="M480 0 l0 1628" />
      <path d="M510 0 l0 1628" />
      <path d="M540 0 l0 1628" />
      <path d="M570 0 l0 1628" />
      <path d="M600 0 l0 1628" />
      <path d="M630 0 l0 1628" />
      <path d="M660 0 l0 1628" />
      <path d="M690 0 l0 1628" />
      <path d="M720 0 l0 1628" />
      <path d="M750 0 l0 1628" />
      <path d="M780 0 l0 1628" />
      <path d="M810 0 l0 1628" />
      <path d="M840 0 l0 1628" />
      <path d="M870 0 l0 1628" />
      <path d="M900 0 l0 1628" />
      <path d="M930 0 l0 1628" />
      <path d="M960 0 l0 1628" />
      <path d="M990 0 l0 1628" />
      <path class="leftmargin" stroke="#FF0000" d="M30 0 l0 1628" />
    </g>
    <path class="write-flat-pen" fill="#FFFFFF" stroke-width="1.6" __comx="81.008" __comy="49.197" __timestamp="0x17895ebc6ad" d="M82.62 35.794 l0.194 -1.107 0.024 -0.138 0.037 -1.592 -0.074 -0.268 -0.782 -1.234 -1.646 -0.486 -2.217 0.427 -3.252 1.687 -2.554 2.258 -2.122 2.862 -1.588 3.154 -0.945 3.221 -0.336 4.007 0.434 2.553 1.331 3.032 2.198 2.642 2.26 1.619 2.576 1.025 2.953 0.448 3.019 -0.391 3.142 -1.27 2.823 -1.873 3.096 -3.04 1.593 -2.463 1.309 -3.403 0.567 -3.316 -0.138 -2.36 -0.924 -3.032 -1.554 -2.742 -1.845 -2.061 -2.568 -1.83 -2.129 -0.794 -1.991 0.109 -1.782 1.257 -0.264 0.368 -0.169 0.343 -1.08 2.216 0.177 0.125 1.73 -1.757 0.239 -0.233 0.167 -0.14 1.421 -0.747 1.297 -0.002 1.641 0.641 2.256 1.62 1.615 1.807 1.391 2.442 0.831 2.687 0.128 1.998 -0.497 2.994 -1.19 3.116 -1.412 2.193 -2.868 2.829 -2.572 1.717 -2.823 1.147 -2.622 0.349 -2.581 -0.387 -2.254 -0.893 -1.968 -1.398 -1.957 -2.333 -1.186 -2.679 -0.381 -2.199 0.299 -3.683 0.867 -2.96 1.472 -2.934 1.955 -2.656 2.302 -2.074 2.912 -1.587 1.744 -0.422 1.025 0.196 0.61 0.701 0.019 0.021 0.227 1.422 0.005 0.104 0.071 1.128" />
    <path class="write-flat-pen" fill="#FFFFFF" stroke-width="1.6" __comx="88.663" __comy="49.197" __timestamp="0x17895ebc8fb" d="M81.112 53.844 l-0.798 -0.764 0.036 0.047 -0.052 -2.124 0.034 -0.12 0.84 -2.107 1.18 -1.509 1.027 -0.536 0.954 0.042 1.051 0.652 4.531 6.816 1.79 1.94 3.24 1.124 0.497 -0.043 2.663 -0.28 0.007 -0.274 -2.644 -0.424 -0.304 -0.064 -2.681 -1.179 -1.502 -1.639 -4.675 -6.936 -1.586 -0.969 -1.638 -0.059 -1.567 0.846 -1.413 1.904 -0.823 2.392 -0.066 0.36 0.352 2.41 0.136 0.245 1.111 0.653" />
    <path class="write-flat-pen" fill="#FFFFFF" stroke-width="1.6" __comx="108.086" __comy="49.197" __timestamp="0x17895ebcba5" d="M102.153 46.634 l-0.668 0.189 -0.123 0.252 -0.387 1.466 -0.043 0.351 0.016 2.662 0.619 2.19 1.07 1.567 1.442 0.879 1.752 -0.004 1.463 -0.797 1.285 -1.565 0 0 0.888 -2.156 0 0 0.275 -3.594 0 0 -1.51 0.084 0.513 2.757 1.157 2.615 2.621 2.687 2.631 0.662 0.089 -0.182 -1.916 -1.557 -2.114 -2.469 -0.985 -2.218 -0.495 -2.579 -1.51 0.084 0 0 -0.248 3.357 0 0 -0.7 1.733 0 0 -0.949 1.181 -0.879 0.501 -0.983 0.031 -0.86 -0.49 -0.812 -1.121 -0.584 -1.805 -0.17 -2.429 0.004 -0.241 0.103 -1.375 -0.056 0.089 0.298 -0.281" />
    <path class="write-flat-pen" fill="#FFFFFF" stroke-width="1.6" __comx="117.223" __comy="49.197" __timestamp="0x17895ebccc0" d="M115.654 48.398 l0.386 2.017 0.069 0.305 1.637 4.872 0.962 0.035 0.085 -0.158 -0.204 -0.588 -1.471 -4.467 -0.087 -0.262 -0.634 -1.945" />
    <path class="write-flat-pen" fill="#FFFFFF" stroke-width="1.6" __comx="115.061" __comy="49.197" __timestamp="0x17895ebcd74" d="M115.146 41.772 l-0.788 0.938 0.637 1.257 0.233 -0.062 0.035 -0.998 0.5 -0.628" />
    <path class="write-flat-pen" fill="#FFFFFF" stroke-width="1.6" __comx="129.301" __comy="49.197" __timestamp="0x17895ebcfa3" d="M121.235 45.704 l0.394 -0.158 0 0.013 7.502 -0.679 0.005 0.001 1.068 0.179 0.372 0.373 -0.008 0.696 -3.707 7.086 -0.032 1.538 1.922 0.764 5.396 0.5 0.408 -0.047 0.606 -0.156 2.596 -0.856 -0.025 -0.164 -2.712 -0.038 -0.561 -0.023 -0.265 -0.018 -5.072 -0.693 -0.79 -0.289 -0.021 -0.165 3.541 -7.142 -0.044 -1.537 -1.05 -0.962 -1.536 -0.225 -0.16 0.002 -7.565 0.967 -0.258 0.062 -0.394 0.515" />
    <path class="write-flat-pen" fill="#FFFFFF" stroke-width="1.6" __comx="128.283" __comy="49.197" __timestamp="0x17895ebd0b2" d="M123.221 49.986 l0.621 -0.361 0.122 -0.04 7.028 -1.651 2.672 -0.723 -0.038 -0.237 -2.792 0.165 -7.146 1.7 -0.265 0.16 -0.522 0.608" />
    <path class="write-flat-pen" fill="#FFFFFF" stroke-width="1.6" __comx="164.701" __comy="49.711" __timestamp="0x17895ebd887" d="M160.492 47.655 l-0.142 0.433 0.24 0.038 0.108 -0.023 0.905 -0.397 0.293 -0.191 3.276 -2.783 0 0 0.425 -0.431 0 0 3.497 -4.771 0 0 -1.281 -0.543 -0.802 4.222 -0.367 7.704 0.702 5.765 1.344 1.459 0.176 -0.086 -0.215 -1.744 -0.438 -5.439 0.305 -7.491 0.698 -4.138 -1.281 -0.543 0 0 -3.36 4.754 0 0 -0.317 0.341 0 0 -3.021 2.925 -0.186 0.168 -0.688 0.557 -0.038 0.039 -0.142 0.19 0.308 0.433" />
    <path class="write-flat-pen" fill="#FFFFFF" stroke-width="1.6" __comx="169.002" __comy="49.711" __timestamp="0x17895ebd983" d="M160.904 58.874 l1.017 0.597 0.416 0.02 6.244 -0.793 4.527 -0.011 0.519 0.038 0.622 0.04 2.805 0.201 0.046 -0.241 -2.684 -0.837 -0.614 -0.194 -0.598 -0.126 -4.707 -0.224 -6.241 1.061 -0.109 0.021 -0.913 -0.278" />
    <path class="write-flat-pen" fill="#FFFFFF" stroke-width="1.6" __comx="182.953" __comy="49.711" __timestamp="0x17895ebdc16" d="M177.132 44.621 l1.184 -0.107 0.256 -0.063 3.541 -1.751 0.434 -0.303 4.593 -3.789 0.569 -0.069 -0.795 -0.695 -0.533 10.261 0.665 7.712 1.529 2.332 0.309 -0.124 -0.427 -2.54 -0.54 -7.408 0.349 -10.175 -0.795 -0.695 -0.899 0.193 -4.732 4.095 -0.329 0.248 -3.271 1.922 -0.127 0.056 -1.092 0.348" />
    <path class="write-flat-pen" fill="#FFFFFF" stroke-width="1.6" __comx="189.567" __comy="49.711" __timestamp="0x17895ebdd30" d="M181.758 57.09 l-0.421 0.842 0.775 0.136 0.288 0.01 6.288 0.113 5.591 0.424 0.739 -0.008 2.752 -0.013 0.027 -0.257 -2.691 -0.576 -0.722 -0.158 -5.625 -0.746 -6.372 0.073 -0.29 0.025 -0.761 0.136 0.421 0.842" />
    <path class="write-flat-pen" fill="#FFFFFF" stroke-width="1.6" __comx="237.178" __comy="48.199" __timestamp="0x17895ebf76f" d="M227.943 36.025 l-0.149 -1.52 -0.036 -0.089 0 0 -0.842 0.332 0.083 1.22 0.052 0.39 0.763 5.323 0.39 6.84 -0.336 6.46 0.748 0.816 12.922 0.422 0.5 0.01 2.212 -0.085 0.456 -0.107 2.735 -0.655 -0.017 -0.166 -2.811 -0.076 -0.407 -0.017 -2.12 -0.16 -0.482 -0.047 -12.921 -0.681 0.748 0.816 0.252 -6.543 -0.467 -6.982 -0.947 -5.372 -0.087 -0.398 -0.356 -1.175 -0.842 0.332 0 0 -0.026 -0.074 0.391 1.3" />
    <path class="write-flat-pen" fill="#FFFFFF" stroke-width="1.6" __comx="251.017" __comy="48.199" __timestamp="0x17895ebf957" d="M245.092 51.028 l0.647 0.282 0.243 0.051 1.848 -0.252 0.334 -0.166 1.366 -1.047 0.966 -1.62 -0.114 -1.334 -1.088 -0.794 -1.452 0.176 -1.39 1.032 -1.131 1.743 -0.614 2.374 0.314 1.999 0.911 1.48 1.706 1.137 2.195 0.487 4.441 -0.998 0.404 -0.21 0.328 -0.219 2.325 -1.538 -0.113 -0.238 -2.66 0.834 -0.36 0.109 -0.29 0.093 -4.057 0.68 -1.631 -0.365 -1.219 -0.807 -0.599 -0.96 -0.234 -1.418 0.469 -1.866 0.86 -1.343 0.886 -0.672 0.551 -0.082 0.167 0.103 0.046 0.306 -0.584 1.091 -1.033 0.917 -0.086 0.059 -1.501 0.455 -0.066 0.014 -0.662 -0.024" />
    <path class="write-flat-pen" fill="#FFFFFF" stroke-width="1.6" __comx="264.918" __comy="48.199" __timestamp="0x17895ebfadd" d="M263.291 48.312 l0.399 -1.346 0.026 -0.256 -0.879 -1.302 -0.632 0.089 -1.322 0.817 -1.159 1.749 -0.663 2.314 0.104 2.326 0.792 1.761 1.459 1.33 2.03 0.7 2.183 -0.133 2.773 -1.391 0.405 -0.384 1.97 -1.891 -0.192 -0.261 -2.392 1.318 -0.387 0.199 -2.521 0.995 -1.632 0.07 -1.476 -0.509 -1.02 -0.919 -0.568 -1.231 -0.106 -1.824 0.503 -1.908 0.842 -1.383 0.821 -0.609 -0.296 0.035 0.436 0.329 0.018 -0.149 -0.119 1.349" />
    <path class="write-flat-pen" fill="#FFFFFF" stroke-width="1.6" __comx="276.181" __comy="48.199" __timestamp="0x17895ebfc23" d="M273.727 36.374 l0.225 1.755 0.078 0.428 1.257 8.428 0.139 0.942 0.78 5.215 1.18 2.777 0.493 -0.057 0.751 -0.393 0.005 -0.173 -0.729 -0.433 0.271 -0.063 -0.652 -2.008 -0.788 -5.067 -0.152 -0.949 -1.539 -8.421 -0.119 -0.438 -0.473 -1.693" />
    <path class="write-flat-pen" fill="#FFFFFF" stroke-width="1.6" __comx="277.415" __comy="48.199" __timestamp="0x17895ebfcf6" d="M270.798 48.037 l0.828 -0.376 0.224 -0.077 3.817 -1.085 5.462 -0.883 0.448 -0.067 2.862 -0.378 -0.009 -0.386 -2.877 -0.241 -0.518 -0.044 -5.658 0.735 -3.914 1.36 -0.32 0.179 -0.751 0.611" />
    <path class="write-flat-pen" fill="#FFFFFF" stroke-width="1.6" __comx="293.577" __comy="48.199" __timestamp="0x17895ebff79" d="M285.421 46.252 l0.435 -0.222 -0.215 0.087 -0.039 0.137 -0.039 -0.055 -0.095 2.282 -0.027 0.489 -0.017 2.99 0.665 2.891 0.954 1.334 1.537 0.842 1.585 0.005 1.941 -0.902 1.52 -1.669 1.076 -2.583 0 0 0.488 -2.931 0 0 -0.519 -3.035 0 0 -1.412 0.508 1.734 2.946 2.631 3.182 1.785 1.242 2.529 0.636 0.086 -0.177 -1.942 -1.54 -1.409 -1.24 -2.442 -2.966 -1.655 -2.851 -1.412 0.508 0 0 0.433 2.784 0 0 -0.43 2.492 0 0 -0.904 2.162 -1.117 1.236 -1.334 0.633 -0.845 0.011 -0.896 -0.468 -0.592 -0.798 -0.61 -2.429 -0.082 -2.799 0.001 -0.493 -0.178 -2.443 -0.123 -0.354 -0.67 -0.409 -0.326 0.121 -0.368 0.535" />
    <path class="write-flat-pen" fill="#FFFFFF" stroke-width="1.6" __comx="311.36" __comy="44.271" __timestamp="0x17895ec053c" d="M305.197 44.08 l-0.908 -0.334 -0.343 0.246 -0.561 1.183 -0.035 0.495 0.726 5.28 0.12 0.52 0 0 0.708 3.07 0 0 0.655 0.584 0 0 1.303 -0.588 0.066 -3.969 0.675 -3.202 1.133 -2.655 1.154 -1.465 0.766 -0.456 1.178 -0.097 1.375 0.504 3.47 2.68 0.159 0.113 0.083 0.054 2.33 1.581 0.117 -0.116 -1.564 -2.341 -0.06 -0.089 -0.165 -0.204 -3.564 -3.087 -1.96 -0.718 -1.898 0.157 -1.339 0.797 -1.469 1.865 -1.277 2.995 -0.737 3.507 -0.05 4.123 1.303 -0.588 0 0 -0.298 -0.233 0 0 -0.651 -2.572 0 0 -0.12 -0.464 -0.965 -5.068 -0.016 -0.193 0.179 -0.845 -0.208 0.14 0.563 -0.022" />
    <path class="write-flat-pen" fill="#FFFFFF" stroke-width="1.6" __comx="324.664" __comy="48.657" __timestamp="0x17895ec0773" d="M319.859 49.336 l0.536 0.721 0.218 0.153 1.416 0.596 0.334 0.066 2.15 -0.02 1.578 -0.718 0.915 -1.245 0.049 -1.376 -0.975 -1.134 -1.684 -0.575 -1.63 0.177 -1.846 1.246 -1.302 2.04 -0.563 2.061 0.207 1.759 0.905 1.6 1.784 1.242 2.12 0.484 2.443 -0.335 1.732 -0.952 0.235 -0.245 1.791 -1.973 -0.173 -0.227 -2.374 1.21 -0.188 0.079 -1.475 0.588 -1.915 0.237 -1.543 -0.348 -1.243 -0.854 -0.585 -1.007 -0.146 -1.144 0.415 -1.543 1.002 -1.572 1.265 -0.851 0.91 -0.097 0.965 0.328 0.317 0.36 0 0.318 -0.393 0.582 -0.947 0.492 -1.729 0.155 -0.116 -0.005 -1.301 -0.29 -0.043 0 -0.627 -0.461" />
    <path class="write-flat-pen" fill="#FFFFFF" stroke-width="1.6" __comx="339.808" __comy="46.114" __timestamp="0x17895ec09d9" d="M339.75 45.044 l0.282 -1.275 -0.328 -0.422 -1.907 -0.064 -0.307 0.148 -1.123 0.904 -0.462 1.3 0.397 1.416 5.062 3.936 1.304 1.47 0.346 0.903 -0.104 0.597 -0.593 0.671 -1.579 0.686 -2.07 0.195 -1.585 -0.325 -0.776 -0.425 -1.082 -0.944 -0.207 0.104 0.243 1.701 1.139 1.055 2.182 0.446 2.561 -0.248 2.134 -0.942 1.108 -1.292 0.212 -1.464 -0.639 -1.53 -1.609 -1.731 -4.871 -3.668 -0.184 -0.58 0.175 -0.582 0.692 -0.639 -0.06 0.024 1.184 -0.179 -0.177 -0.241 0.038 0.929" />
    <path class="write-stroke-pen" fill="none" stroke="#FFFFFF" stroke-width="1.6" stroke-linecap="round" stroke-linejoin="round" __comx="206.086" __comy="66.925" __timestamp="0x17895ec1460" d="M56.349 70.609 l299.474 -6.834" />
  </g>
</svg>
