<svg class="write-page" width="1010px" height="2505px" xmlns="http://www.w3.org/2000/svg" xmlns:xlink="http://www.w3.org/1999/xlink">
  <g class="write-content write-v3" width="1010" height="2505" xruling="30" yruling="30" marginLeft="30" papercolor="#1B1C1C" rulecolor="#3A00F9FF">
    <g class="ruleline write-std-ruling write-scale-down" fill="none" stroke="#00F9FF" stroke-opacity="0.227" stroke-width="1" shape-rendering="crispEdges" vector-effect="non-scaling-stroke">
      <rect class="pagerect" fill="#1B1C1C" stroke="none" x="0" y="0" width="1010" height="2505" />
      <path class="yrule_1" d="M0 30 l1010 0" />
      <path d="M0 60 l1010 0" />
      <path d="M0 90 l1010 0" />
      <path d="M0 120 l1010 0" />
      <path d="M0 150 l1010 0" />
      <path d="M0 180 l1010 0" />
      <path d="M0 210 l1010 0" />
      <path d="M0 240 l1010 0" />
      <path d="M0 270 l1010 0" />
      <path d="M0 300 l1010 0" />
      <path d="M0 330 l1010 0" />
      <path d="M0 360 l1010 0" />
      <path d="M0 390 l1010 0" />
      <path d="M0 420 l1010 0" />
      <path d="M0 450 l1010 0" />
      <path d="M0 480 l1010 0" />
      <path d="M0 510 l1010 0" />
      <path d="M0 540 l1010 0" />
      <path d="M0 570 l1010 0" />
      <path d="M0 600 l1010 0" />
      <path d="M0 630 l1010 0" />
      <path d="M0 660 l1010 0" />
      <path d="M0 690 l1010 0" />
      <path d="M0 720 l1010 0" />
      <path d="M0 750 l1010 0" />
      <path d="M0 780 l1010 0" />
      <path d="M0 810 l1010 0" />
      <path d="M0 840 l1010 0" />
      <path d="M0 870 l1010 0" />
      <path d="M0 900 l1010 0" />
      <path d="M0 930 l1010 0" />
      <path d="M0 960 l1010 0" />
      <path d="M0 990 l1010 0" />
      <path d="M0 1020 l1010 0" />
      <path d="M0 1050 l1010 0" />
      <path d="M0 1080 l1010 0" />
      <path d="M0 1110 l1010 0" />
      <path d="M0 1140 l1010 0" />
      <path d="M0 1170 l1010 0" />
      <path d="M0 1200 l1010 0" />
      <path d="M0 1230 l1010 0" />
      <path d="M0 1260 l1010 0" />
      <path d="M0 1290 l1010 0" />
      <path d="M0 1320 l1010 0" />
      <path d="M0 1350 l1010 0" />
      <path d="M0 1380 l1010 0" />
      <path d="M0 1410 l1010 0" />
      <path d="M0 1440 l1010 0" />
      <path d="M0 1470 l1010 0" />
      <path d="M0 1500 l1010 0" />
      <path d="M0 1530 l1010 0" />
      <path d="M0 1560 l1010 0" />
      <path d="M0 1590 l1010 0" />
      <path d="M0 1620 l1010 0" />
      <path d="M0 1650 l1010 0" />
      <path d="M0 1680 l1010 0" />
      <path d="M0 1710 l1010 0" />
      <path d="M0 1740 l1010 0" />
      <path d="M0 1770 l1010 0" />
      <path d="M0 1800 l1010 0" />
      <path d="M0 1830 l1010 0" />
      <path d="M0 1860 l1010 0" />
      <path d="M0 1890 l1010 0" />
      <path d="M0 1920 l1010 0" />
      <path d="M0 1950 l1010 0" />
      <path d="M0 1980 l1010 0" />
      <path d="M0 2010 l1010 0" />
      <path d="M0 2040 l1010 0" />
      <path d="M0 2070 l1010 0" />
      <path d="M0 2100 l1010 0" />
      <path d="M0 2130 l1010 0" />
      <path d="M0 2160 l1010 0" />
      <path d="M0 2190 l1010 0" />
      <path d="M0 2220 l1010 0" />
      <path d="M0 2250 l1010 0" />
      <path d="M0 2280 l1010 0" />
      <path d="M0 2310 l1010 0" />
      <path d="M0 2340 l1010 0" />
      <path d="M0 2370 l1010 0" />
      <path d="M0 2400 l1010 0" />
      <path d="M0 2430 l1010 0" />
      <path d="M0 2460 l1010 0" />
      <path d="M0 2490 l1010 0" />
      <path class="xrule_1" d="M30 0 l0 2505" />
      <path d="M60 0 l0 2505" />
      <path d="M90 0 l0 2505" />
      <path d="M120 0 l0 2505" />
      <path d="M150 0 l0 2505" />
      <path d="M180 0 l0 2505" />
      <path d="M210 0 l0 2505" />
      <path d="M240 0 l0 2505" />
      <path d="M270 0 l0 2505" />
      <path d="M300 0 l0 2505" />
      <path d="M330 0 l0 2505" />
      <path d="M360 0 l0 2505" />
      <path d="M390 0 l0 2505" />
      <path d="M420 0 l0 2505" />
      <path d="M450 0 l0 2505" />
      <path d="M480 0 l0 2505" />
      <path d="M510 0 l0 2505" />
      <path d="M540 0 l0 2505" />
      <path d="M570 0 l0 2505" />
      <path d="M600 0 l0 2505" />
      <path d="M630 0 l0 2505" />
      <path d="M660 0 l0 2505" />
      <path d="M690 0 l0 2505" />
      <path d="M720 0 l0 2505" />
      <path d="M750 0 l0 2505" />
      <path d="M780 0 l0 2505" />
      <path d="M810 0 l0 2505" />
      <path d="M840 0 l0 2505" />
      <path d="M870 0 l0 2505" />
      <path d="M900 0 l0 2505" />
      <path d="M930 0 l0 2505" />
      <path d="M960 0 l0 2505" />
      <path d="M990 0 l0 2505" />
      <path class="leftmargin" stroke="#FF0000" d="M30 0 l0 2505" />
    </g>
    <path class="write-flat-pen" transform="translate(-105.123,6.128)" fill="#FFFEFF" stroke-width="3" __comx="135.56" __comy="83.768" __timestamp="0x178ff404548" d="M236.742 91.747 l0.198 -0.084 0.073 -0.02 0.103 -0.084 0.107 -0.193 0.09 -0.338 0.032 -0.581 -0.053 -0.883 -0.145 -1.19 -0.225 -1.474 -0.274 -1.546 -0.32 -1.614 -0.3 -1.576 -0.301 -1.661 -0.27 -1.688 -0.228 -1.634 -0.217 -1.639 -0.182 -1.541 -0.149 -1.498 -0.109 -1.365 -0.073 -1.232 -0.019 -0.998 0.034 -0.794 0.064 -0.618 0.107 -0.492 0.13 -0.35 0.164 -0.291 0.155 -0.175 0.251 -0.166 0.544 -0.154 0.996 -0.023 1.353 0.186 1.48 0.32 3.846 1.057 0.913 0.299 1.28 0.466 0.916 0.535 0.412 0.022 1.648 0.458 0.309 -0.369 -0.74 -1.541 -0.253 -0.535 -1.287 -0.737 -1.525 -0.538 -1.008 -0.316 -3.979 -1.04 -1.64 -0.324 -1.635 -0.185 -1.481 0.088 -1.155 0.4 -0.741 0.581 -0.428 0.576 -0.296 0.624 -0.192 0.634 -0.119 0.735 -0.043 0.78 -0.002 0.905 0.059 1.091 0.121 1.284 0.159 1.396 0.204 1.525 0.238 1.561 0.274 1.648 0.287 1.647 0.333 1.709 0.364 1.673 0.363 1.577 0.386 1.597 0.351 1.512 0.327 1.439 0.27 1.145 0.2 0.819 0.121 0.495 0.062 0.249 0.041 0.09 0.039 0.006 0.022 0.016 -0.163 0.111" />
    <path class="write-flat-pen" transform="translate(-105.123,6.128)" fill="#FFFEFF" stroke-width="3" __comx="132.55" __comy="83.768" __timestamp="0x178ff404653" d="M230.088 76.725 l0.7 0.119 0.093 0.067 0.416 0.199 0.814 0.28 1.283 0.235 1.736 0.076 4.179 -0.498 2.04 -0.467 1.876 -0.546 1.075 -0.772 0.97 -0.632 -0.093 -0.274 -1.154 0.089 -1.29 0.031 -1.795 0.532 -1.911 0.448 -3.973 0.532 -1.529 -0.008 -1.126 -0.12 -0.715 -0.132 -0.391 -0.09 -0.214 -0.048 -0.817 -0.117" />
    <path class="write-flat-pen" transform="translate(-105.123,6.128)" fill="#FFFEFF" stroke-width="3" __comx="155.567" __comy="83.768" __timestamp="0x178ff4048cb" d="M259.531 67.816 l-0.006 -0.359 0.039 -0.1 0.053 -0.168 0.029 -0.135 0.019 -0.167 -0.003 -0.164 -0.05 -0.208 -0.244 -0.345 -0.61 -0.126 -0.682 0.43 -0.619 0.907 -0.539 1.373 -0.41 1.757 -0.254 2.136 -0.055 2.374 0.135 2.48 0.411 2.513 0.594 2.379 0.844 2.061 0.893 1.665 0.854 1.274 0.83 0.949 0.972 0.734 1.243 0.443 1.1 -0.204 1.334 -0.202 0.052 -0.348 -1.217 -0.582 -0.815 -0.488 -0.808 -0.279 -0.597 -0.442 -0.635 -0.709 -0.749 -1.094 -0.823 -1.494 -0.776 -1.848 -0.567 -2.177 -0.407 -2.346 -0.156 -2.322 0.016 -2.233 0.186 -1.983 0.302 -1.593 0.356 -1.184 0.296 -0.651 0.034 -0.133 -0.21 -0.089 -0.053 -0.132 0.015 -0.035 0.036 0.041 0.04 0.093 0.03 0.09 0.038 0.167 0.039 0.133 0.056 0.375" />
    <path class="write-flat-pen" transform="translate(-105.123,6.128)" fill="#FFFEFF" stroke-width="3" __comx="169.523" __comy="83.768" __timestamp="0x178ff404b34" d="M274.368 71.647 l0.028 -0.618 0.047 -0.224 0.069 -0.341 0.072 -0.394 0.05 -0.325 0.034 -0.32 0.01 -0.245 -0.013 -0.232 -0.069 -0.295 -0.305 -0.471 -0.733 -0.244 -0.882 0.302 -0.889 0.731 -0.948 1.148 -0.904 1.47 -0.818 1.8 -0.661 1.971 -0.446 2.051 -0.2 2.102 0.053 2.063 0.265 1.843 0.396 1.531 0.547 1.237 0.832 1.003 1.251 0.641 1.725 0.079 1.885 -0.565 1.77 -1.07 1.495 -1.49 1.215 -1.73 0.925 -1.818 0.649 -1.772 0.403 -1.673 0.197 -2.457 -0.5 -1.72 -0.633 -0.764 -0.873 -0.541 -1.024 -0.281 -1.137 -0.053 -1.127 0.167 -1.09 0.376 -1.025 0.615 -0.922 0.851 -0.734 1.07 -0.575 1.352 -0.299 1.517 -0.029 1.661 0.226 1.598 0.395 1.43 0.873 1.858 0.867 0.861 1.259 0.605 1.74 0.245 1.829 -0.185 1.083 -0.8 1.162 -0.744 -0.116 -0.46 -1.375 -0.105 -1.165 -0.235 -1.372 0.142 -1.095 -0.151 -0.572 -0.27 -0.294 -0.286 -0.623 -1.296 -0.31 -1.091 -0.188 -1.266 0.011 -1.274 0.203 -1.085 0.381 -0.928 0.452 -0.68 0.558 -0.532 0.621 -0.388 0.672 -0.246 0.711 -0.12 0.684 0.017 0.493 0.121 0.313 0.18 0.132 0.148 0.287 0.917 -0.128 1.908 -0.322 1.401 -0.552 1.551 -0.79 1.588 -1.018 1.478 -1.187 1.211 -1.342 0.833 -1.325 0.419 -0.981 -0.026 -0.54 -0.261 -0.427 -0.493 -0.392 -0.851 -0.349 -1.282 -0.258 -1.634 -0.072 -1.848 0.152 -1.892 0.375 -1.862 0.569 -1.813 0.704 -1.647 0.757 -1.317 0.747 -0.994 0.542 -0.529 0.183 -0.121 -0.128 -0.079 -0.039 -0.106 0.015 -0.01 0.028 0.086 0.029 0.163 0.027 0.268 0.019 0.298 0.018 0.392 0.024 0.353 0.02 0.249 0.017 0.636" />
    <path class="write-flat-pen" transform="translate(-105.123,6.128)" fill="#FFFEFF" stroke-width="3" __comx="181.479" __comy="83.768" __timestamp="0x178ff404ca2" d="M283.24 64.486 l-0.413 -0.322 -0.551 0.546 0.011 0.072 0.094 0.184 0.228 0.35 0.451 0.605 0.731 0.921 0.971 1.238 1.065 1.427 2.153 3.39 0.777 1.913 0.46 2.206 0.095 2.419 -0.337 2.563 -0.681 2.61 -0.978 2.388 -1.205 2.154 -1.286 1.719 -0.667 1.376 -0.514 0.92 0.215 0.195 0.866 -0.6 1.36 -0.857 1.379 -1.885 1.28 -2.343 1.022 -2.586 0.697 -2.811 0.327 -2.787 -0.143 -2.662 -0.542 -2.44 -0.899 -2.134 -2.294 -3.51 -1.139 -1.46 -1.034 -1.229 -0.801 -0.88 -0.527 -0.543 -0.308 -0.278 -0.143 -0.098 -0.047 -0.009 -0.551 0.546 0.428 0.301" />
    <path class="write-flat-pen" transform="translate(-105.123,6.128)" fill="#FFFEFF" stroke-width="3" __comx="442.545" __comy="87.064" __timestamp="0x178ff40526c" d="M555.52 75.268 l-0.384 -0.409 -0.08 -0.136 -0.157 -0.235 -0.197 -0.27 -0.281 -0.328 -0.377 -0.387 -0.361 -0.347 -0.428 -0.313 -0.673 -0.285 -1.084 -0.033 -1.377 0.491 -1.382 1.031 -1.114 1.284 -0.874 1.488 -0.577 1.451 -0.355 1.43 -0.147 1.322 0.229 1.919 0.468 0.839 0.82 0.598 1.102 0.16 1.16 -0.29 1.114 -0.537 1.842 -1.341 0.834 -0.801 1.164 -1.561 0.72 -1.562 0.555 -2.158 0.088 -0.113 0 0 -1.442 0.26 -0.093 -0.055 0.377 1.386 0.407 3.596 0.143 4.696 -0.321 4.721 -0.436 2.244 -0.666 2.194 -0.822 2.066 -0.977 1.818 -1.101 1.548 -1.13 1.199 -1.144 0.852 -1.231 0.578 -1.354 0.266 -1.405 -0.063 -1.45 -0.412 -1.239 -0.639 -0.892 -0.721 -0.451 -0.633 -0.121 -0.501 0.165 -0.682 0.751 -1.015 1.538 -1.213 1.038 -1.422 0.796 -0.889 -0.254 -0.39 -1.135 0.37 -1.813 0.435 -1.86 1.487 -1.204 1.658 -0.381 1.687 0.376 1.459 0.898 1.228 1.321 1.045 1.65 0.831 1.919 0.527 1.929 0.07 1.874 -0.382 1.671 -0.796 1.467 -1.104 1.359 -1.449 1.263 -1.784 1.094 -2.049 0.897 -2.266 0.719 -2.389 0.479 -2.485 0.327 -4.961 -0.163 -4.891 -0.457 -3.851 -0.653 -2.253 -0.522 -0.356 -1.442 0.26 0 0 -0.284 0.428 -0.573 2.343 -0.545 1.206 -0.931 1.266 -0.614 0.597 -1.581 1.169 -0.769 0.38 -0.588 0.155 -0.245 -0.029 -0.091 -0.061 -0.081 -0.134 -0.177 -1.321 0.096 -0.982 0.277 -1.191 0.46 -1.211 0.696 -1.239 0.858 -1.041 1 -0.812 0.836 -0.366 0.5 -0.048 0.278 0.066 0.257 0.127 0.344 0.23 0.429 0.284 0.331 0.216 0.272 0.173 0.256 0.148 0.143 0.064 0.425 0.351" />
    <path class="write-flat-pen" transform="translate(-105.123,6.128)" fill="#FFFEFF" stroke-width="3" __comx="464.817" __comy="87.064" __timestamp="0x178ff405481" d="M572.642 64.949 l-0.183 -0.447 0.01 -0.031 -0.015 -0.108 -0.153 -0.263 -0.469 -0.112 -0.491 0.268 -0.519 0.569 -0.635 1.082 -0.743 1.631 -0.821 2.25 -0.791 2.685 -0.708 2.88 -0.538 2.883 -0.297 2.652 -0.032 2.422 0.203 2.17 0.462 1.867 0.744 1.565 1.014 1.16 1.327 0.796 1.569 0.343 1.082 -0.346 1.243 -0.351 0.007 -0.339 -1.228 -0.402 -0.892 -0.386 -1.109 -0.233 -0.833 -0.49 -0.674 -0.753 -0.572 -1.174 -0.405 -1.562 -0.201 -1.945 0.007 -2.246 0.258 -2.509 0.491 -2.782 0.658 -2.809 0.722 -2.622 0.727 -2.184 0.608 -1.577 0.441 -1.007 0.23 -0.447 -0.043 -0.063 -0.279 -0.089 -0.096 -0.181 0.012 -0.021 0.039 0.062 0.231 0.474" />
    <path class="write-flat-pen" transform="translate(-105.123,6.128)" fill="#FFFEFF" stroke-width="3" __comx="479.601" __comy="87.064" __timestamp="0x178ff4056c8" d="M586.78 69.823 l-0.028 -0.855 0.046 -0.159 0.059 -0.219 0.04 -0.183 0.039 -0.305 -0.057 -0.34 -0.33 -0.521 -0.838 -0.187 -0.956 0.382 -1.062 0.848 -1.182 1.3 -1.209 1.658 -1.121 1.949 -0.939 1.966 -0.782 2.051 -0.571 2.001 -0.378 2.028 -0.144 1.97 0.124 1.84 0.371 1.581 0.693 1.297 1.101 0.981 1.515 0.463 1.817 -0.209 1.895 -0.878 1.722 -1.313 1.556 -1.687 1.346 -1.951 1.125 -2.179 0.801 -2.39 0.479 -2.425 0.14 -2.139 -0.075 -1.816 -0.256 -1.455 -0.371 -1.056 -0.544 -0.856 -0.903 -0.631 -1.434 -0.058 -1.53 0.753 -1.549 1.581 -1.338 2.02 -1.075 2.169 -0.784 2.097 -0.492 1.854 -0.179 1.668 0.125 1.52 0.499 1.459 0.903 1.236 1.279 0.939 1.648 0.544 1.881 0.076 1.249 -0.653 1.221 -0.541 -0.05 -0.451 -1.308 -0.265 -1.192 -0.386 -1.392 -0.054 -1.003 -0.329 -0.706 -0.513 -0.496 -0.672 -0.303 -0.865 -0.09 -1.025 0.131 -1.284 0.414 -1.581 0.697 -1.89 0.954 -1.947 1.134 -1.735 1.132 -1.173 0.693 -0.354 0.248 0.002 0.034 0.016 0.186 0.282 0.238 0.656 0.211 1.14 0.075 1.56 -0.113 1.89 -0.416 2.161 -0.696 2.115 -0.981 1.925 -1.179 1.731 -1.329 1.456 -1.398 1.077 -1.396 0.658 -1.079 0.135 -0.702 -0.204 -0.518 -0.45 -0.414 -0.754 -0.286 -1.172 -0.121 -1.544 0.109 -1.73 0.321 -1.839 0.503 -1.844 0.701 -1.916 0.854 -1.848 1.012 -1.823 1.071 -1.53 0.999 -1.176 0.747 -0.68 0.29 -0.183 -0.194 -0.08 -0.123 -0.228 -0.004 -0.103 0.024 0.092 0.008 0.126 -0.001 0.234 0.007 0.275 0.09 0.938" />
    <path class="write-flat-pen" transform="translate(-105.123,6.128)" fill="#FFFEFF" stroke-width="3" __comx="495.835" __comy="87.064" __timestamp="0x178ff405826" d="M601.282 63.249 l0.388 0.352 0.038 0.165 0.214 0.839 0.354 1.578 0.4 2.07 0.306 2.44 0.215 2.554 0.001 2.683 -0.232 2.749 -0.504 2.786 -0.747 2.782 -1.014 2.7 -1.211 2.536 -1.371 2.351 -0.702 1.957 -0.343 0.834 0.223 0.144 0.619 -0.656 1.515 -1.476 1.408 -2.445 1.251 -2.659 1.046 -2.836 0.767 -2.915 0.512 -2.918 0.224 -2.883 -0.034 -2.805 -0.263 -2.644 -0.395 -2.509 -0.51 -2.123 -0.495 -1.597 -0.333 -0.867 -0.184 -0.376 -0.559 -0.479" />
    <path class="write-flat-pen" transform="translate(-105.123,6.128)" fill="#FFFEFF" stroke-width="3" __comx="308.705" __comy="84.543" __timestamp="0x178ff40658c" d="M320.923 79.396 l-0.216 0.131 -0.101 0.091 -0.109 0.114 -0.076 0.087 -0.064 0.08 -0.13 0.187 -0.051 0.124 -0.039 0.301 0.094 0.269 0.214 0.233 0.291 0.152 0.401 0.113 0.474 0.062 0.569 0.026 0.666 0.011 0.809 0.016 0.964 0.038 1.009 0.032 1.106 0.048 1.194 0.016 1.28 0.019 1.319 -0.025 1.355 -0.049 2.672 -0.179 1.456 -0.107 5.487 -0.234 1.123 0.058 4.697 0.46 3.913 0.198 11.155 -0.263 17.822 0.01 7.956 0.235 7.868 0.45 8.117 0.307 14.543 0.229 2.088 0.017 8.162 -0.036 2.008 -0.06 12.277 -0.501 1.912 -0.003 9.208 0.264 7.966 0.001 5.201 0.176 9.325 0.653 3.186 0.089 3.616 -0.092 2.26 0.084 5.171 0.894 2.781 0.179 4.6 0.034 1.346 -0.236 2.263 -0.851 0.766 -0.547 0.311 -1.026 -0.569 -1.445 -0.225 -0.373 -0.779 -1.358 -0.104 -0.22 -0.267 -0.865 -0.005 -0.073 0.033 -0.323 -0.249 0.488 -0.538 0.187 -0.287 -0.137 1.399 1.413 0.415 0.474 1.249 1.245 1.055 0.76 0.796 0.334 -0.203 -0.197 0.003 0.233 -0.11 0.325 -0.732 1.321 -1.031 1.455 0.047 -0.032 0.083 0.132 -1.259 0.877 0.13 0.764 1.478 0.412 0.461 0.068 0.74 -0.492 1.36 -1.925 0.897 -1.631 0.311 -0.949 -0.081 -1.568 -0.775 -0.773 -0.992 -0.393 -0.69 -0.487 -1.074 -1.052 -0.423 -0.472 -1.73 -1.663 -0.82 -0.415 -1.172 0.382 -0.39 0.755 -0.006 1.028 0.079 0.438 0.413 1.149 0.213 0.408 0.871 1.408 0.16 0.245 0.297 0.656 0.079 -0.225 -0.032 0.04 -1.856 0.723 -1.011 0.184 -4.383 -0.007 -2.634 -0.157 -5.196 -0.879 -2.432 -0.087 -3.624 0.093 -3.103 -0.083 -9.321 -0.638 -5.263 -0.171 -7.971 0.019 -9.211 -0.233 -1.971 0.01 -12.3 0.556 -1.979 0.071 -8.131 0.085 -2.072 -0.004 -14.519 -0.173 -8.084 -0.301 -7.873 -0.458 -7.999 -0.243 -17.862 -0.023 -11.117 0.253 -3.822 -0.192 -4.7 -0.445 -1.232 -0.054 -5.579 0.297 -1.475 0.13 -2.645 0.228 -1.324 0.08 -1.288 0.065 -1.262 0.026 -1.18 0.032 -1.098 0.002 -1.014 0.019 -0.974 0.016 -0.824 0.036 -0.658 0.04 -0.524 0.025 -0.385 -0.007 -0.277 -0.036 -0.115 -0.027 -0.04 -0.008 -0.009 0.026 -0.022 -0.061 -0.009 -0.001 0.053 -0.161 0.03 -0.085 0.037 -0.108 0.04 -0.146 0.001 -0.071 0.139 -0.133" />
    <path class="write-flat-pen" transform="translate(-105.123,6.128)" fill="#FFFEFF" stroke-width="3" __comx="306.389" __comy="64.682" __timestamp="0x178ff406c0d" d="M519.114 64.03 l-0.255 -0.155 -0.216 -0.061 -0.422 -0.042 -0.558 -0.016 -0.771 -0.011 -0.849 -0.033 -0.917 -0.062 -1.029 -0.099 -1.085 -0.12 -1.187 -0.114 -1.186 -0.087 -1.279 -0.036 -1.261 -0.009 -1.303 0.004 -1.297 0.032 -1.481 0.051 -1.655 0.058 -1.811 0.089 -1.899 0.045 -1.968 -0.023 -1.943 -0.074 -1.94 -0.141 -2.05 -0.195 -2.19 -0.212 -2.259 -0.214 -4.938 -0.528 -2.629 -0.289 -5.536 -0.582 -2.948 -0.258 -9.367 -0.887 -3.325 -0.391 -13.698 -1.862 -3.571 -0.518 -7.087 -0.997 -7.057 -0.811 -13.758 -1.278 -10.103 -0.695 -9.981 -0.265 -6.68 0.024 -10.204 0.372 -16.719 0.928 -28.091 2.205 -4.466 0.218 -4.012 0.035 -9.171 -0.287 -2.014 0.038 -3.682 0.314 -0.703 1.039 0.038 1.197 0.324 0.846 0.67 0.968 2.517 2.844 0.494 0.372 0 0 1.752 -0.542 0.227 -0.665 -0.675 -1.169 -2.358 -2.429 -0.391 -0.365 -1.49 -1.427 -0.129 -0.143 -0.362 -0.458 0.363 0.912 1.194 -0.491 1.154 -0.657 1.139 -0.775 2.87 -2.366 0.317 -0.751 0.785 -1.397 -0.317 -0.405 -1.544 0.428 -0.83 0.149 -2.801 2.321 -0.958 0.658 -0.945 0.546 -3.197 1.427 0.643 1.641 0.686 0.81 0.242 0.25 1.593 1.448 0.364 0.324 2.151 2.143 0.019 0.025 0.107 -0.31 1.752 -0.542 0 0 -0.311 -0.234 -2.283 -2.571 -0.446 -0.635 -0.097 -0.241 -0.01 -0.098 -0.3 0.437 2.547 -0.233 1.885 -0.038 9.16 0.282 4.099 -0.036 4.541 -0.222 28.097 -2.22 16.674 -0.937 10.148 -0.381 6.612 -0.033 9.905 0.248 10.035 0.668 13.714 1.239 7.012 0.784 7.06 0.971 3.578 0.506 13.732 1.811 3.367 0.381 9.402 0.836 2.941 0.236 5.521 0.536 2.631 0.267 4.959 0.48 2.272 0.184 2.192 0.183 2.073 0.165 1.99 0.113 1.994 0.041 2.017 -0.01 1.947 -0.084 1.82 -0.131 1.646 -0.105 1.475 -0.098 1.276 -0.081 1.282 -0.054 1.24 -0.04 1.239 -0.013 1.148 0.042 1.172 0.069 1.095 0.074 1.063 0.045 0.96 -0.007 0.889 -0.06 0.791 -0.114 0.549 -0.11 0.378 -0.094 0.118 -0.037 0.208 0.087" />
    <path class="write-flat-pen" transform="translate(-105.123,6.128)" fill="#FFFEFF" stroke-width="3" __comx="317.533" __comy="37.916" __timestamp="0x178ff4074f7" d="M418.05 32.731 l-0.171 -0.212 -0.018 -0.055 -0.01 -0.073 0.02 -0.021 0.037 0.006 0.041 0.041 0.194 -0.022 0.41 -0.036 0.816 -0.046 1.036 -0.033 1.261 -0.028 1.212 -0.001 1.166 0.027 0.935 0.053 1.238 0.11 0.281 -0.084 1.461 -0.357 0.025 -0.255 -1.366 -0.63 -0.275 -0.138 -1.282 -0.078 -0.987 -0.025 -1.211 0.015 -1.252 0.064 -1.296 0.118 -1.079 0.156 -0.886 0.214 -0.534 0.238 -0.337 0.322 -0.069 0.267 0.041 0.175 0.061 0.105 0.088 0.087 0.061 0.06 0.21 0.203" />
    <path class="write-flat-pen" transform="translate(-105.123,6.128)" fill="#FFFEFF" stroke-width="3" __comx="318.676" __comy="41.786" __timestamp="0x178ff4075b2" d="M420.233 35.436 l-0.645 0.772 0.064 0.106 0.288 0.225 0.499 0.267 0.788 0.293 0.957 0.22 1.154 0.094 1.328 -0.076 1.426 -0.262 0.927 -0.503 1.079 -0.56 -0.047 -0.172 -1.214 0.073 -1.013 0.033 -1.309 0.282 -1.186 0.112 -1.016 -0.033 -0.841 -0.139 -0.7 -0.197 -0.412 -0.163 -0.164 -0.084 -0.018 0.005 0.312 0.427" />
    <path class="write-flat-pen" transform="translate(-105.123,6.128)" fill="#FFFEFF" stroke-width="3" __comx="216.99" __comy="135.792" __timestamp="0x178ff40873e" d="M289.076 114.011 l-0.197 -0.188 -0.021 -0.025 -0.069 -0.073 -0.115 -0.052 -0.171 0.018 -0.166 0.14 -0.088 0.191 -0.054 0.266 -0.004 0.304 0.048 0.432 0.086 0.452 0.124 0.543 0.144 0.567 0.176 0.597 0.224 0.662 0.245 0.605 0.304 0.654 0.333 0.617 0.412 0.717 0.462 0.779 0.495 0.87 0.503 0.943 1.016 1.977 0.48 0.977 1.368 2.796 0.436 0.803 1.772 3.379 0.466 1.046 1.321 2.968 1.139 2.106 2.671 4.12 0.428 0.76 3.158 5.503 0.459 0.698 5.17 8.19 0.671 0.941 2.94 4.033 3.379 4.975 4.871 6.425 1.901 2.762 4.59 7.438 5.86 10.14 7.539 11.997 5.153 7.257 0.651 0.595 1.211 0 0.613 -0.997 0.035 -1.46 -0.442 -3.351 -0.172 -1.005 -0.43 -2.736 -0.087 -0.682 -0.149 -1.7 0.004 0.016 0.027 -0.037 -0.856 1.038 -0.663 -0.407 0.068 0.112 1.854 3.773 2.712 4.488 0.269 0.575 0.001 0.079 -0.053 0.125 -0.014 0.014 -0.151 0.081 -4.036 0.775 -0.032 0.06 -1.567 1.193 0.071 0.526 1.828 0.736 0.122 0.039 4.497 -0.887 0.871 -0.478 0.6 -0.654 0.433 -1.022 -0.01 -1.17 -0.565 -1.203 -2.734 -4.508 -1.917 -3.821 -0.455 -0.649 -1.599 -1.03 -1.019 1.234 -0.072 0.99 0.019 0.223 0.214 1.771 0.112 0.749 0.487 2.773 0.183 0.972 0.461 3.129 -0.008 0.699 0.333 -0.539 0.844 0.001 0.14 0.13 -4.983 -7.017 -7.486 -11.911 -5.856 -10.131 -4.641 -7.506 -1.96 -2.847 -4.874 -6.416 -3.375 -4.954 -2.967 -4.045 -0.635 -0.881 -5.197 -8.128 -0.442 -0.659 -3.174 -5.414 -0.464 -0.803 -2.71 -4.075 -1.088 -1.963 -1.321 -2.888 -0.505 -1.096 -1.857 -3.417 -0.438 -0.776 -1.401 -2.74 -0.507 -0.985 -1.077 -1.98 -0.55 -0.963 -0.546 -0.889 -0.5 -0.767 -0.434 -0.673 -0.337 -0.545 -0.311 -0.567 -0.26 -0.523 -0.257 -0.588 -0.225 -0.542 -0.208 -0.523 -0.205 -0.505 -0.168 -0.394 -0.146 -0.346 -0.086 -0.198 -0.063 -0.136 -0.047 -0.014 -0.076 0.018 -0.084 -0.012 -0.028 -0.037 0.033 -0.015 0.015 0.002 0.23 0.144" />
    <path class="write-flat-pen" transform="translate(-105.123,6.128)" fill="#FFFEFF" stroke-width="3" __comx="281.852" __comy="235.821" __timestamp="0x178ff408b04" d="M377.945 214.747 l-0.41 0.413 -0.048 0.117 -0.013 0.026 -0.036 0.013 0.577 0.412 0.136 -0.043 0.056 -0.085 -0.059 0.116 -0.208 0.137 -0.19 0.021 0.014 0.095 0.24 0.372 0.461 0.827 0.574 1.221 0.651 1.664 0.628 2.086 1.002 4.991 0.591 5.119 0.398 8.323 0.006 0.413 -0.061 0.361 0 0 1.805 0.061 -0.072 -1.335 0.096 -1.44 0.274 -1.714 0.48 -1.684 0.627 -1.513 0.801 -1.379 0.823 -1.093 0.857 -0.866 0.81 -0.544 0.683 -0.283 0.633 -0.07 0.677 0.112 0.628 0.292 0.665 0.522 0.592 0.665 0.449 0.698 0.621 1.673 0.28 1.894 0.096 2.648 -0.072 1.268 0.165 0.392 0.455 1.624 0.428 0.057 0.866 -1.447 0.274 -0.418 0.08 -1.456 -0.112 -2.873 -0.343 -2.24 -0.798 -2.102 -0.679 -1.033 -0.845 -0.924 -1.025 -0.779 -1.129 -0.493 -1.251 -0.174 -1.2 0.169 -1.123 0.497 -1.122 0.793 -1.066 1.121 -0.952 1.304 -0.902 1.601 -0.7 1.739 -0.525 1.903 -0.287 1.916 -0.088 1.649 0.122 1.452 1.805 0.061 0 0 0.059 -0.506 -0.016 -0.583 -0.461 -8.403 -0.634 -5.243 -1.07 -5.133 -0.702 -2.223 -0.749 -1.773 -0.716 -1.316 -0.686 -0.922 -0.548 -0.466 -0.405 -0.163 -0.353 -0.006 -0.244 0.157 -0.076 0.14 0.051 -0.075 0.125 -0.037 0.577 0.412 -0.03 -0.02 -0.008 0.002 -0.031 0.054 0.263 -0.332" />
    <path class="write-flat-pen" transform="translate(-105.123,6.128)" fill="#FFFEFF" stroke-width="3" __comx="299.169" __comy="235.821" __timestamp="0x178ff408d1a" d="M403.884 216.326 l-0.412 0.333 -0.146 0.211 -0.146 0.254 -0.111 0.201 -0.139 0.227 -0.158 0.231 -0.276 0.391 -0.386 0.544 -0.495 0.738 -0.557 1.005 -0.549 1.293 -0.443 1.606 -0.312 1.867 -0.095 2.11 0.078 2.194 0.258 2.266 0.46 2.26 0.629 2.128 0.79 1.914 0.972 1.53 1.135 1.171 1.335 0.731 1.547 0.264 1.132 -0.444 1.197 -0.427 -0.019 -0.332 -1.239 -0.285 -0.973 -0.321 -1.053 -0.172 -0.839 -0.452 -0.829 -0.841 -0.802 -1.242 -0.713 -1.683 -0.602 -1.965 -0.457 -2.111 -0.272 -2.127 -0.112 -2.065 0.044 -1.957 0.23 -1.711 0.338 -1.461 0.42 -1.176 0.43 -0.943 0.393 -0.741 0.313 -0.605 0.213 -0.471 0.119 -0.312 0.089 -0.308 0.052 -0.241 0.046 -0.249 0.011 -0.1 0.292 -0.282" />
    <path class="write-flat-pen" transform="translate(-105.123,6.128)" fill="#FFFEFF" stroke-width="3" __comx="311.218" __comy="235.821" __timestamp="0x178ff408f4f" d="M415.993 222.864 l-0.169 -0.708 0.01 -0.006 0.003 -0.088 -0.01 -0.108 -0.056 -0.204 -0.236 -0.324 -0.529 -0.248 -0.766 0.123 -0.795 0.543 -0.815 0.99 -0.735 1.337 -0.624 1.644 -0.874 3.476 -0.219 1.821 -0.025 1.778 0.18 1.752 0.355 1.651 0.547 1.45 0.723 1.225 0.928 0.996 1.11 0.681 1.335 0.285 1.459 -0.175 1.439 -0.721 1.331 -1.143 1.123 -1.488 0.879 -1.634 0.613 -1.659 0.315 -1.748 -0.023 -1.839 -0.343 -1.757 -0.55 -1.568 -0.659 -1.302 -0.717 -0.924 -0.849 -0.622 -1.134 -0.249 -1.303 0.364 -1.162 0.902 -0.964 1.206 -0.781 1.298 -1.054 2.513 -0.305 2.231 0.181 1.184 0.479 1.096 0.749 1.037 1.119 0.983 1.348 0.758 1.186 -0.003 1.446 0.092 0.182 -0.432 -1.077 -0.97 -0.706 -0.798 -1.022 -0.569 -0.744 -0.645 -0.457 -0.619 -0.264 -0.588 -0.092 -0.552 0.205 -1.604 0.855 -2.094 0.609 -1.036 0.694 -0.893 0.602 -0.486 0.353 -0.111 0.15 0.024 0.236 0.163 0.411 0.513 0.514 0.985 0.466 1.285 0.292 1.416 0.032 1.449 -0.232 1.374 -0.487 1.356 -0.725 1.376 -0.886 1.197 -0.969 0.851 -0.902 0.466 -0.786 0.106 -0.685 -0.135 -0.602 -0.355 -0.613 -0.64 -0.543 -0.892 -0.451 -1.157 -0.32 -1.407 -0.175 -1.54 0.003 -1.571 0.174 -1.613 0.772 -3.281 0.513 -1.455 0.564 -1.135 0.532 -0.766 0.315 -0.314 0.033 -0.073 -0.115 -0.097 -0.056 -0.123 -0.007 -0.076 0.014 -0.011 0.02 0.014 0.017 0.06 0.247 0.77" />
    <path class="write-flat-pen" transform="translate(-105.123,6.128)" fill="#FFFEFF" stroke-width="3" __comx="321.005" __comy="235.821" __timestamp="0x178ff4090ce" d="M422.774 214.202 l-0.483 0.496 0.004 0.492 0.188 0.783 0.382 1.088 0.619 1.323 0.735 1.317 0.813 1.375 0.973 1.656 0.927 1.871 0.768 2.02 0.508 2.145 0.208 2.301 -0.174 2.49 -0.488 2.595 -0.746 2.641 -0.946 2.549 -1.064 2.344 -0.389 1.795 -0.247 0.927 0.241 0.119 0.587 -0.759 1.203 -1.424 1.079 -2.428 0.965 -2.663 0.759 -2.769 0.495 -2.747 0.169 -2.691 -0.246 -2.516 -0.577 -2.328 -0.849 -2.161 -1.011 -1.959 -1.034 -1.683 -0.85 -1.343 -0.762 -1.244 -0.664 -1.21 -0.463 -0.975 -0.286 -0.618 -0.053 -0.054 0.228 -0.271" />
    <path class="write-flat-pen" transform="translate(-105.123,6.128)" fill="#FFFEFF" stroke-width="3" __comx="200.287" __comy="182.683" __timestamp="0x178ff409591" d="M338.238 221.264 l-0.171 -0.225 -0.198 -0.252 -0.394 -0.468 -0.546 -0.652 -0.63 -0.852 -0.736 -1.095 -0.742 -1.225 -0.806 -1.374 -0.793 -1.396 -0.796 -1.476 -0.858 -1.574 -0.871 -1.679 -0.914 -1.846 -0.911 -1.912 -0.94 -1.995 -0.954 -2.07 -1.014 -2.117 -0.981 -2.081 -0.994 -2.178 -1.066 -2.237 -1.156 -2.333 -2.619 -4.81 -1.452 -2.451 -3.354 -4.979 -1.899 -2.574 -2.103 -2.661 -4.58 -5.337 -12.429 -13.454 -4.483 -5.345 -1.968 -2.672 -3.549 -5.53 -3.131 -5.414 -2.614 -5.025 -2.864 -6.263 -0.995 -0.978 -0.782 -0.883 -0.334 0.16 0.202 1.162 0.135 1.371 2.87 6.295 2.66 5.107 3.181 5.489 3.616 5.617 2.047 2.768 4.562 5.42 12.469 13.433 4.553 5.267 2.075 2.599 1.875 2.506 3.34 4.88 1.43 2.369 2.64 4.728 1.171 2.276 1.091 2.198 1.036 2.157 1.03 2.075 1.063 2.088 1.005 2.043 1.009 1.974 0.981 1.894 0.999 1.828 0.952 1.66 0.927 1.545 0.862 1.449 0.859 1.376 0.877 1.348 0.829 1.203 0.837 1.07 0.737 0.813 0.643 0.595 0.471 0.396 0.242 0.196 0.192 0.195" />
    <path class="write-flat-pen" transform="translate(-105.123,6.128)" fill="#FFFEFF" stroke-width="3" __comx="168.234" __comy="130.53" __timestamp="0x178ff40986b" d="M272.181 129.927 l-0.347 -0.708 -0.241 -0.74 -0.314 -0.947 -0.375 -0.975 -0.762 -1.584 -0.392 -0.715 -0.352 -0.627 -0.317 -0.552 -0.296 -0.494 -0.224 -0.366 -0.228 -0.366 -0.165 -0.272 -0.09 -0.152 -0.076 -0.138 -0.08 -0.147 -0.124 -0.195 -0.142 -0.164 -0.894 0.218 -0.214 0.272 0.018 0.704 0.177 0.877 0.287 1.151 0.384 1.3 0.419 1.348 1.064 3.173 0.269 0.662 0.475 1.18 1.7 -0.724 0.008 -0.008 -0.202 -0.825 -0.156 -0.859 -0.327 -2.279 -0.134 -1.23 -0.22 -2.16 -0.116 -0.887 -0.207 -1.612 0.006 0.014 -0.006 0.085 -0.354 0.171 0.301 0.039 0.83 0.261 6.564 2.961 1.631 -0.048 1.259 0.063 0.153 -0.44 -1.026 -0.733 -1.154 -1.017 -6.636 -2.928 -1.215 -0.342 -1.093 -0.065 -1.019 0.463 -0.409 1.261 0.046 0.498 0.267 1.668 0.131 0.852 0.259 2.132 0.162 1.269 0.39 2.347 0.206 0.963 0.304 1.001 0.06 0.114 1.7 -0.724 -0.516 -1.154 -0.255 -0.6 -1.096 -3.086 -0.443 -1.316 -0.423 -1.256 -0.345 -1.092 -0.245 -0.735 -0.082 -0.178 -0.091 0.031 -0.894 0.218 0.082 -0.005 0.049 0.015 0.087 0.09 0.106 0.123 0.121 0.138 0.204 0.241 0.271 0.327 0.257 0.324 0.329 0.447 0.344 0.516 0.38 0.597 0.407 0.678 0.79 1.524 0.392 0.931 0.354 0.922 0.298 0.755 0.408 0.711" />
    <path class="write-flat-pen" transform="translate(-105.123,6.128)" fill="#FFFEFF" stroke-width="3" __comx="386.639" __comy="138.907" __timestamp="0x178ff40a628" d="M537.613 110.894 l-0.324 -0.017 -0.199 -0.02 -0.434 0.076 -0.568 0.202 -0.756 0.396 -0.958 0.62 -1.055 0.789 -1.082 0.957 -1.125 1.172 -2.311 2.609 -1.161 1.298 -2.523 2.75 -2.654 3.332 -8.788 12.315 -1.229 1.714 -4.685 6.22 -2.566 3.2 -5.965 6.543 -10.491 10.844 -1.809 1.885 -3.542 3.762 -4.906 5.607 -1.62 1.888 -1.642 1.98 -4.677 6.276 -1.492 2.072 -2.998 4.178 -7.723 9.619 -1.521 1.905 -1.43 1.723 -4.972 5.327 -3.038 3.71 0.165 -0.121 0.591 0.208 0.05 0.087 -0.039 -0.468 0.218 -1.752 1.008 -3.191 0.478 -1.271 1.44 -4.17 0.372 -1.157 0.914 -3.003 -0.028 0.078 -0.696 0.814 -1.109 -0.852 0.013 0.879 -0.443 2.892 -0.712 2.791 -1.947 5.981 -0.483 2.065 0.775 0.921 0.996 0.094 5.392 -0.978 4.973 -0.684 2.546 -0.575 0.66 -0.667 1.109 -1.012 -0.167 -0.428 -1.501 0.003 -0.78 -0.107 -2.282 0.529 -4.919 0.699 -5.131 0.949 0.229 0.023 0.543 0.645 0.204 -0.875 1.933 -5.962 0.753 -2.97 0.475 -3.205 -0.086 -2.103 -1.334 -1.028 -0.867 1.013 -0.142 0.351 -0.887 3.111 -0.348 1.121 -1.377 4.14 -0.471 1.304 -1.024 3.434 -0.226 2.142 0.111 0.993 0.433 0.901 1.048 0.374 0.84 -0.586 3.144 -3.889 4.945 -5.341 1.47 -1.78 1.524 -1.923 7.707 -9.689 3.001 -4.232 1.47 -2.07 4.603 -6.261 1.592 -1.948 1.593 -1.881 4.848 -5.61 3.497 -3.753 1.793 -1.885 10.466 -10.894 5.989 -6.612 2.596 -3.263 4.684 -6.268 1.231 -1.734 8.723 -12.321 2.586 -3.286 2.477 -2.747 1.152 -1.323 2.26 -2.629 1.056 -1.145 0.989 -0.932 0.963 -0.797 0.858 -0.662 0.636 -0.459 0.439 -0.294 0.3 -0.197 0.106 -0.076 0.293 -0.051" />
    <path class="write-flat-pen" transform="translate(-105.123,6.128)" fill="#FFFEFF" stroke-width="3" __comx="406.944" __comy="184.694" __timestamp="0x178ff40a987" d="M460.963 234.51 l0.399 -0.038 0.161 0.004 0.351 -0.06 0.562 -0.239 0.82 -0.478 1.026 -0.772 1.249 -1.088 1.512 -1.465 1.72 -1.872 1.958 -2.236 2.165 -2.531 2.383 -2.786 2.598 -2.965 2.785 -3.07 2.936 -3.145 5.856 -6.219 2.968 -3.131 6.094 -6.271 3.143 -3.225 12.976 -14.016 3.236 -3.405 3.087 -3.33 5.693 -6.536 6.789 -8.49 3.615 -4.724 3.008 -4.314 8.426 -13.704 3.978 -6.161 1.939 -2.56 3.859 -4.081 1.668 -1.965 2.759 -3.634 -0.003 -0.096 0.54 -1.636 -0.268 -0.255 -1.607 0.621 -0.171 0.081 -2.804 3.669 -1.599 1.884 -3.896 4.125 -2.046 2.709 -4.02 6.248 -8.387 13.689 -2.942 4.239 -3.567 4.681 -6.732 8.458 -5.631 6.497 -3.05 3.309 -3.226 3.415 -12.925 14.049 -3.115 3.223 -6.072 6.31 -2.959 3.158 -5.82 6.263 -2.927 3.177 -2.776 3.115 -2.584 3.01 -2.356 2.823 -2.127 2.553 -1.907 2.251 -1.646 1.868 -1.426 1.459 -1.152 1.103 -0.897 0.801 -0.674 0.545 -0.402 0.326 -0.223 0.173 -0.059 0.082 -0.341 0.077" />
    <path class="write-flat-pen" transform="translate(-105.123,6.128)" fill="#FFFEFF" stroke-width="3" __comx="449.553" __comy="124.477" __timestamp="0x178ff40ac52" d="M556.248 122.187 l0.388 -0.455 0.311 -0.248 0.859 -0.732 0.406 -0.398 1.04 -1.23 0.27 -0.357 0.404 -0.556 0.121 -0.174 0.184 -0.295 0.066 -0.12 0.067 -0.153 0.055 -0.183 0.023 -0.303 -0.176 -0.468 -0.571 -0.335 -0.846 -0.025 -1.212 0.273 -1.503 0.577 -1.628 0.708 -1.484 0.675 -1.267 0.558 -1.881 0.752 -0.624 0.215 -1.147 0.337 0.761 -0.035 0.152 1.161 0.008 0.024 0.819 -0.503 1.257 -0.749 2.828 -1.772 1.334 -0.837 3.49 -1.954 0.299 -0.121 0.225 -0.02 -0.087 -0.034 0.201 0.307 0.252 1.011 0.134 1.584 -0.232 8.216 0.037 1.757 0.196 1.499 0.395 1.274 0.697 0.628 1.02 1.019 0.387 -0.177 -0.105 -1.437 0.038 -0.811 -0.302 -0.962 -0.159 -1.197 -0.038 -1.585 0.205 -8.286 -0.173 -1.881 -0.406 -1.536 -0.737 -1.06 -0.972 -0.465 -1.118 0.149 -0.668 0.288 -3.609 2.088 -1.365 0.882 -2.788 1.805 -1.243 0.782 -0.918 0.618 -0.797 0.712 0.178 1.388 1.098 -0.045 1.392 -0.478 0.681 -0.258 1.92 -0.824 1.287 -0.604 1.468 -0.711 1.571 -0.749 1.368 -0.614 0.961 -0.324 0.417 -0.081 0.04 -0.046 0.011 -0.08 0.028 0.002 0.008 0.046 -0.01 0.074 -0.02 0.068 -0.119 0.274 -0.082 0.153 -0.348 0.564 -0.234 0.344 -0.971 1.225 -0.361 0.377 -0.808 0.756 -0.322 0.299 -0.383 0.518" />
    <path class="write-flat-pen" transform="translate(-105.123,6.128)" fill="#FFFEFF" stroke-width="3" __comx="179.855" __comy="179.472" __timestamp="0x178ff40b21d" d="M280.496 171.359 l-0.284 0.595 0.012 0.349 0.117 0.481 0.263 0.675 0.442 0.907 0.644 1.092 0.799 1.183 0.86 1.189 1.621 2.236 0.75 1.083 1.818 2.608 0.435 0.535 0.413 0.22 1.273 0.725 0.189 -0.173 -0.603 -1.335 -0.158 -0.406 -0.388 -0.459 -1.832 -2.53 -0.777 -1.081 -1.676 -2.216 -0.882 -1.153 -0.819 -1.11 -0.672 -0.995 -0.494 -0.8 -0.316 -0.558 -0.163 -0.324 -0.044 -0.032 0.154 -0.405" />
    <path class="write-flat-pen" transform="translate(-105.123,6.128)" fill="#FFFEFF" stroke-width="3" __comx="177.55" __comy="189.563" __timestamp="0x178ff40b2e5" d="M278.47 182.732 l-0.479 -0.201 -0.405 0.62 0.065 0.093 0.211 0.141 0.381 0.188 0.65 0.289 0.94 0.416 1.09 0.564 1.112 0.702 1.107 0.88 1.021 0.978 0.905 0.96 0.801 0.957 0.757 0.52 1.025 0.753 0.17 -0.142 -0.555 -1.144 -0.381 -0.847 -0.858 -0.972 -0.98 -0.987 -1.111 -1.012 -1.23 -0.925 -1.241 -0.72 -1.197 -0.549 -1.009 -0.365 -0.681 -0.22 -0.36 -0.104 -0.089 -0.016 -0.008 0.021 -0.405 0.62 0.487 0.181" />
    <path class="write-flat-pen" transform="translate(-105.123,6.128)" fill="#FFFEFF" stroke-width="3" __comx="425.039" __comy="190.67" __timestamp="0x178ff40b67d" d="M524.894 192.237 l0.232 -0.665 0.258 -0.338 0.684 -0.845 0.934 -1.199 1.18 -1.521 1.334 -1.712 1.41 -1.619 1.408 -1.483 2.314 -2.46 0.807 -0.927 0.49 -0.665 0.079 -0.45 0.296 -1.405 -0.255 -0.162 -1.148 0.862 -0.347 0.219 -0.409 0.578 -0.729 0.863 -2.257 2.465 -1.407 1.529 -1.431 1.709 -1.305 1.804 -1.108 1.604 -0.811 1.306 -0.572 0.976 -0.23 0.517 -0.208 0.776" />
    <path class="write-flat-pen" transform="translate(-105.123,6.128)" fill="#FFFEFF" stroke-width="3" __comx="433.315" __comy="195.803" __timestamp="0x178ff40b83a" d="M534 197.774 l-0.124 -0.665 0.043 -0.211 0.251 -0.707 0.525 -1.128 0.826 -1.55 1.091 -1.818 1.323 -1.969 1.517 -2.033 1.638 -2.051 1.71 -1.998 0.831 -1.655 0.479 -0.849 -0.214 -0.187 -0.776 0.59 -1.536 1.057 -1.712 2.049 -1.648 2.112 -1.526 2.108 -1.327 2.066 -1.064 1.934 -0.772 1.68 -0.443 1.282 -0.19 0.885 -0.016 0.448 0.164 0.8" />
    <path class="write-flat-pen" transform="translate(-105.123,6.128)" fill="#FFFEFF" stroke-width="3" __comx="10.395" __comy="322.075" __timestamp="0x178ff41d0ba" d="M115.317 309.808 l0.071 0.282 0.159 0.522 0.177 -0.054 -0.156 -0.512 -0.032 -0.279" />
    <path class="write-flat-pen" transform="translate(-105.123,6.128)" fill="#FFFEFF" stroke-width="3" __comx="19.351" __comy="322.075" __timestamp="0x178ff41d42d" d="M116.821 302.444 l-0.21 -0.503 -0.044 -0.127 -0.039 -0.118 -0.106 -0.193 -0.383 -0.008 -0.129 0.546 -0.04 0.957 0.077 1.462 0.145 1.836 0.2 2.151 0.186 2.332 0.178 2.476 0.14 2.337 0.072 2.204 0.085 1.904 0.06 1.619 0.081 1.389 0.063 1.201 0.129 1.652 0.044 0.459 0.034 0.48 -0.045 -0.549 0.59 -0.192 1.025 0.575 -0.087 -0.415 -0.198 -0.887 -0.316 -1.351 -0.744 -3.69 -0.366 -2.133 -0.502 -4.157 -0.181 -1.727 -0.257 -4.247 -0.015 -1.38 -0.092 -4.705 -0.054 -0.849 -0.097 -1.496 -0.921 0.806 0.002 0.024 0.935 0.578 3.17 1.434 2.076 0.64 4.217 0.844 3.939 0.334 4.051 -0.021 0.648 -0.379 1.37 -0.679 -0.031 -0.449 -1.451 -0.482 -0.621 -0.29 -3.876 0.026 -3.71 -0.306 -3.981 -0.787 -1.835 -0.559 -2.929 -1.298 -0.837 -0.493 -1.368 -0.791 -1.073 0.938 0.237 2.566 0.061 0.79 0.149 4.649 0.035 1.421 0.32 4.334 0.208 1.781 0.556 4.213 0.404 2.203 0.814 3.738 0.361 1.375 0.249 0.899 0.146 0.422 1.025 0.575 0.642 -0.207 -0.059 -0.78 -0.076 -0.52 -0.062 -0.445 -0.18 -1.609 -0.096 -1.181 -0.115 -1.375 -0.102 -1.607 -0.13 -1.897 -0.123 -2.212 -0.196 -2.358 -0.244 -2.484 -0.255 -2.341 -0.286 -2.148 -0.245 -1.819 -0.207 -1.423 -0.11 -0.882 -0.054 -0.141 -0.223 -0.026 0 -0.041 0.047 0.078 0.064 0.122 0.251 0.488" />
    <path class="write-flat-pen" transform="translate(-105.123,6.128)" fill="#FFFEFF" stroke-width="3" __comx="19.619" __comy="322.075" __timestamp="0x178ff41d56a" d="M118.128 311.429 l0.378 -0.37 -0.146 0.03 0.381 0.078 0.659 0.054 0.944 0.04 1.137 0.006 1.296 -0.017 5.112 -0.175 2.418 0.246 0.439 -0.071 1.482 -0.068 0.082 -0.281 -1.211 -0.857 -0.479 -0.34 -2.683 -0.25 -5.208 0.221 -1.277 0.043 -1.115 0.04 -0.923 0.029 -0.608 0.038 -0.374 0.015 -0.415 0.022 -0.716 0.775" />
    <path class="write-flat-pen" transform="translate(-105.123,6.128)" fill="#FFFEFF" stroke-width="3" __comx="21.48" __comy="322.075" __timestamp="0x178ff41d684" d="M117.485 322.28 l0.551 0.416 0.243 0.137 0.52 0.216 0.838 0.217 1.054 0.217 1.343 0.2 1.45 0.127 1.642 0.043 1.608 -0.047 1.545 -0.083 1.561 -0.148 3.502 -0.495 1.374 -0.678 1.084 -0.47 -0.055 -0.316 -1.178 -0.078 -1.501 -0.18 -3.438 0.533 -1.488 0.169 -1.493 0.111 -1.545 0.088 -1.556 0.008 -1.372 -0.062 -1.285 -0.116 -1.027 -0.115 -0.797 -0.084 -0.49 -0.057 -0.118 0.022 -0.457 -0.298" />
    <path class="write-flat-pen" transform="translate(-105.123,6.128)" fill="#FFFEFF" stroke-width="3" __comx="39.211" __comy="322.075" __timestamp="0x178ff41d814" d="M135.326 312.125 l0.408 0.157 0.118 0.092 0.428 0.328 0.735 0.591 1.077 0.885 1.304 1.113 1.395 1.24 1.449 1.259 1.436 1.21 1.461 1.143 1.364 1.03 1.296 1.006 1.156 0.918 0.954 0.81 0.791 0.7 0.932 0.833 0.203 0.067 1.374 0.493 0.148 -0.182 -0.758 -1.247 -0.092 -0.174 -0.95 -0.786 -0.821 -0.685 -0.999 -0.806 -1.195 -0.909 -1.324 -0.991 -1.379 -1.005 -1.456 -1.099 -1.433 -1.167 -1.46 -1.225 -1.425 -1.217 -1.357 -1.092 -1.144 -0.844 -0.811 -0.548 -0.521 -0.287 -0.214 -0.086 -0.463 -0.156" />
    <path class="write-flat-pen" transform="translate(-105.123,6.128)" fill="#FFFEFF" stroke-width="3" __comx="41.188" __comy="322.075" __timestamp="0x178ff41d8ed" d="M140.864 327.603 l0.338 -0.426 0.132 -0.065 0.513 -0.529 0.836 -1.145 1.065 -1.654 1.188 -2.017 1.273 -2.25 1.327 -2.344 1.313 -2.36 1.265 -2.305 1.088 -2.075 0.928 -1.87 0.177 -1.384 0.203 -1.109 -0.283 -0.13 -0.713 0.872 -0.932 1.015 -0.885 1.849 -1.044 2.06 -1.215 2.31 -1.267 2.375 -1.276 2.368 -1.216 2.273 -1.101 2.034 -0.948 1.675 -0.675 1.162 -0.318 0.511 -0.087 0.127 -0.37 0.516" />
    <path class="write-flat-pen" transform="translate(-105.123,6.128)" fill="#FFFEFF" stroke-width="3" __comx="56.386" __comy="322.075" __timestamp="0x178ff41dae0" d="M162.052 328.764 l-0.4 0.199 -0.128 0.129 -0.088 0.124 -0.042 0.044 -0.002 -0.027 0.033 -0.084 0.208 -0.142 0.277 0.083 0.059 -0.098 0.021 -0.436 0.036 -0.736 0.064 -0.831 0.054 -0.695 0.078 -0.65 0.007 -0.018 -0.022 0.206 -0.196 0.189 -1.445 -0.516 -0.001 0.122 -0.001 0.25 -0.002 0.241 0.127 0.166 0.687 1.169 0.379 -0.014 0.604 -1.214 0.115 -0.186 -0.026 -0.279 -0.05 -0.393 -0.073 -0.227 -1.445 -0.516 -0.28 0.257 -0.071 0.481 -0.01 0.106 -0.026 0.733 0.006 0.741 0.027 0.888 0.099 0.84 0.16 0.62 0.287 0.496 0.484 0.209 0.351 -0.202 0.097 -0.163 0.029 -0.087 0.008 -0.087 -0.006 -0.074 -0.029 -0.004 0.282 -0.16" />
    <path class="write-flat-pen" transform="translate(-105.123,6.128)" fill="#FFFEFF" stroke-width="3" __comx="51.754" __comy="322.075" __timestamp="0x178ff41dbdf" d="M159.03 303.463 l-0.643 -0.533 -0.133 -0.129 -0.26 -0.26 -0.273 -0.294 -0.296 -0.345 -0.309 -0.405 -0.252 -0.374 -0.22 -0.357 -0.14 -0.249 -0.068 -0.142 -0.061 -0.07 -1.144 -1.009 -0.337 0.145 -0.035 1.552 0.067 0.199 0.161 0.233 0.213 0.276 0.308 0.373 0.364 0.396 0.441 0.418 0.413 0.33 0.358 0.265 0.335 0.233 0.164 0.101 0.646 0.51" />
    <path class="write-flat-pen" transform="translate(-105.123,6.128)" fill="#FFFEFF" stroke-width="3" __comx="109.422" __comy="322.075" __timestamp="0x178ff41e41d" d="M217.415 302.826 l-0.274 -0.414 -0.05 -0.128 -0.137 -0.272 -0.203 -0.31 -0.371 -0.415 -0.525 -0.397 -0.759 -0.408 -1.079 -0.337 -1.295 -0.203 -1.46 -0.017 -1.473 0.202 -1.322 0.385 -1.238 0.634 -1.062 0.91 -0.877 1.223 -0.633 1.447 -0.349 1.558 -0.09 1.481 0.13 1.384 0.347 1.287 0.651 1.238 1.037 1.08 1.409 0.878 1.746 0.672 5.897 1.476 1.844 0.65 1.664 0.828 1.43 1.032 1.067 1.183 0.825 1.545 0.476 1.751 0.133 1.777 -0.213 1.66 -0.524 1.399 -0.858 1.215 -1.254 1.028 -1.627 0.78 -1.961 0.389 -2.2 -0.011 -2.23 -0.402 -2.025 -0.705 -1.589 -0.848 -1.088 -0.92 -0.702 -1.055 -0.345 -1.31 -0.511 -1.102 -0.406 -1.176 -0.382 0.018 -0.294 1.209 -0.396 1.358 0.492 1.835 1.047 1.562 1.466 1.234 1.912 1.017 2.318 0.805 2.553 0.458 2.57 0.009 2.402 -0.477 2.065 -0.993 1.644 -1.348 1.156 -1.643 0.693 -1.852 0.264 -2.084 -0.163 -2.164 -0.586 -2.145 -1.044 -1.952 -1.37 -1.514 -1.73 -1.247 -1.918 -0.951 -2.046 -0.717 -5.878 -1.449 -1.471 -0.555 -1.061 -0.646 -0.698 -0.708 -0.445 -0.812 -0.267 -0.931 -0.122 -1.086 0.051 -1.196 0.256 -1.255 0.468 -1.131 0.628 -0.921 0.738 -0.666 0.908 -0.499 1.049 -0.342 1.239 -0.216 1.246 -0.044 1.112 0.096 0.908 0.184 0.634 0.22 0.441 0.207 0.345 0.221 0.223 0.172 0.187 0.158 0.086 0.085 0.295 0.412" />
    <path class="write-flat-pen" transform="translate(-105.123,6.128)" fill="#FFFEFF" stroke-width="3" __comx="132.415" __comy="322.075" __timestamp="0x178ff41e73c" d="M224.926 304.45 l-0.09 -0.597 -0.829 -0.1 -0.12 0.134 -0.013 0.483 0.091 0.859 0.29 1.338 0.527 1.685 0.667 1.918 2.404 7.029 0.729 2.495 1.66 6.047 0.693 2.096 0.41 0.811 1.574 -0.395 0.012 -0.445 -0.169 -2.586 0.08 -1.483 0.193 -1.367 0.319 -1.141 0.815 -1.617 0.29 -0.297 0.208 -0.108 0.232 -0.016 0.351 0.12 0.473 0.379 0.571 0.76 0.57 1.031 1.932 4.627 0.907 1.519 0.605 0.579 0.85 0.394 1.178 -0.009 1.31 -0.579 1.23 -1.016 1.149 -1.263 0.996 -1.373 1.234 -2.318 0.365 -1.104 0.071 -1.701 -0.349 -0.891 -0.647 -0.683 -1 -0.352 -1.179 0.169 -1.089 0.649 -0.866 0.97 -0.663 1.171 -0.47 1.349 -0.246 1.527 0.023 1.45 0.234 1.397 0.433 1.164 0.609 0.961 0.784 0.699 0.958 0.488 1.147 0.164 1.297 -0.335 1.26 -1.001 0.986 -1.463 0.683 -1.633 0.345 -1.506 0.082 -1.257 -0.169 -1.145 -0.372 -0.993 -0.542 -0.847 -1.254 -0.993 -1.488 0.013 -0.721 0.742 0.027 0.554 0.157 1.35 0.696 0.223 0.913 -1.005 0.185 0.06 -0.292 0.296 -0.225 -0.006 0.358 0.27 0.223 0.338 0.215 0.556 0.107 0.685 -0.051 0.852 -0.259 1.158 -0.524 1.268 -0.676 1.014 -0.641 0.513 -0.442 0.117 -0.374 -0.05 -0.397 -0.199 -0.359 -0.316 -0.334 -0.521 -0.29 -0.765 -0.181 -1.04 -0.026 -1.106 0.18 -1.164 0.34 -1.003 0.454 -0.82 0.501 -0.576 0.462 -0.285 0.276 -0.046 0.066 0.019 0.04 0.039 0.052 0.126 -0.038 0.994 -0.221 0.675 -1.086 2.044 -0.849 1.17 -0.978 1.075 -0.906 0.75 -0.677 0.302 -0.315 0.004 -0.141 -0.064 -0.171 -0.162 -0.702 -1.164 -1.952 -4.586 -0.704 -1.239 -0.819 -1.058 -0.95 -0.725 -1.056 -0.327 -1.003 0.114 -0.786 0.446 -0.667 0.716 -0.986 2.038 -0.379 1.429 -0.201 1.563 -0.067 1.669 0.226 2.629 0.016 0.384 1.574 -0.395 -0.379 -0.676 -0.657 -1.921 -1.688 -6.008 -0.757 -2.538 -2.473 -7.051 -0.697 -1.898 -0.562 -1.603 -0.368 -1.229 -0.228 -0.767 -0.107 -0.142 -0.099 0.089 -0.829 -0.1 0.141 0.587" />
    <path class="write-flat-pen" transform="translate(-105.123,6.128)" fill="#FFFEFF" stroke-width="3" __comx="156.312" __comy="322.075" __timestamp="0x178ff41e920" d="M255.305 320.344 l-1.018 -0.671 -0.563 -0.061 -0.589 0.405 -0.31 0.74 -0.112 1.096 0.061 1.451 0.201 1.566 0.321 1.423 0.685 1.844 0.473 0.697 1.064 0.848 1.512 0.311 0.961 -0.178 0.911 -0.486 0.853 -0.834 1.394 -2.166 -0.251 0.092 -0.038 -0.005 1.614 1.748 1.202 1.014 1.384 0.613 1.582 0.123 0.961 -0.212 0.957 -0.578 0.867 -1.142 0.524 -1.545 0.142 -1.8 -0.227 -1.737 -0.497 -1.677 -0.778 -1.715 -0.935 -1.626 -1.809 -2.617 -0.745 -0.806 -0.62 -0.181 -1.427 -0.502 -0.284 0.313 0.641 1.37 0.173 0.538 0.586 0.622 1.695 2.404 0.85 1.456 0.687 1.487 0.419 1.377 0.185 1.355 -0.097 1.327 -0.329 0.986 -0.423 0.565 -0.331 0.203 -0.337 0.077 -0.933 -0.066 -0.805 -0.348 -0.894 -0.741 -1.898 -1.997 -1.064 -0.351 -1.028 0.354 -1.606 2.594 -0.497 0.507 -0.413 0.235 -0.32 0.07 -0.735 -0.13 -0.518 -0.392 -0.204 -0.286 -0.59 -1.523 -0.295 -1.226 -0.21 -1.417 -0.099 -1.273 0.023 -0.769 0.01 -0.131 -0.248 0.149 -0.341 -0.045 0.736 0.447" />
    <path class="write-flat-pen" transform="translate(-105.123,6.128)" fill="#FFFEFF" stroke-width="3" __comx="234.502" __comy="324.331" __timestamp="0x178ff41ece5" d="M342.481 312.882 l-0.049 -0.451 0.037 -0.266 0.073 -0.478 0.022 -0.476 -0.035 -0.523 -0.146 -0.542 -0.327 -0.594 -0.571 -0.548 -0.89 -0.443 -1.11 -0.195 -1.235 0.062 -1.252 0.299 -1.233 0.512 -1.931 1.236 -0.734 0.618 -0.961 1.196 -0.259 0.851 0.038 0.933 0.44 0.972 0.882 0.877 1.233 0.665 6.592 2.03 1.409 0.667 1.149 0.792 0.856 0.852 0.523 0.816 0.307 0.964 0.025 1.124 -0.295 1.358 -0.686 1.438 -0.953 1.226 -1.227 1.016 -1.372 0.709 -1.408 0.332 -1.328 0.021 -1.215 -0.24 -0.966 -0.416 -0.671 -0.515 -0.401 -0.553 -0.224 -0.715 0.027 -0.911 0.343 -1.054 0.033 -0.968 0.195 -1.36 -0.361 -0.182 -0.974 0.969 -0.829 0.75 -0.474 1.496 -0.032 1.558 0.443 1.363 0.781 1.057 1.112 0.842 1.399 0.595 1.638 0.317 1.763 -0.031 1.863 -0.445 1.784 -0.927 1.562 -1.299 1.221 -1.576 0.875 -1.85 0.389 -1.819 -0.044 -1.649 -0.479 -1.487 -0.789 -1.216 -1.141 -1.125 -1.432 -0.975 -1.686 -0.789 -6.569 -1.962 -0.839 -0.434 -0.459 -0.433 -0.164 -0.328 -0.022 -0.265 0.058 -0.227 0.61 -0.809 0.503 -0.447 1.683 -1.142 0.965 -0.44 0.978 -0.279 0.925 -0.107 0.761 0.062 0.57 0.191 0.354 0.227 0.252 0.275 0.168 0.296 0.123 0.364 0.084 0.386 0.058 0.458 0.051 0.311 0.088 0.48" />
    <path class="write-flat-pen" transform="translate(-105.123,6.128)" fill="#FFFEFF" stroke-width="3" __comx="246.875" __comy="324.331" __timestamp="0x178ff41ee00" d="M350.795 316.428 l-0.195 0.828 0.046 0.581 0.179 1.001 0.294 1.335 0.308 1.477 0.287 1.593 0.262 2.788 0.011 0.93 -0.057 0.727 0.179 -0.267 0.27 0.193 -0.809 0.115 -0.126 0.505 0.661 0.482 0.587 0.272 0.575 -0.827 0.069 -1.17 -0.03 -1.044 -0.328 -2.894 -0.343 -1.66 -0.368 -1.495 -0.362 -1.317 -0.251 -0.926 -0.079 -0.363 0.13 -0.671" />
    <path class="write-flat-pen" transform="translate(-105.123,6.128)" fill="#FFFEFF" stroke-width="3" __comx="246.496" __comy="324.331" __timestamp="0x178ff41ee96" d="M352.176 309.965 l-0.168 -0.584 -0.785 -0.084 -0.116 0.149 -0.016 0.408 0.189 0.313 0.464 0.771 0.16 -0.034 0.103 -0.894 0.06 -0.28 -0.036 -0.06 -0.061 0.052 -0.785 -0.084 0.192 0.576" />
    <path class="write-flat-pen" transform="translate(-105.123,6.128)" fill="#FFFEFF" stroke-width="3" __comx="261.185" __comy="324.331" __timestamp="0x178ff41f026" d="M359.739 316.813 l0.041 0.461 0.029 0.32 0.071 0.618 0.105 0.867 0.127 1.143 0.174 1.544 0.181 1.7 0.181 1.766 0.166 1.515 0.147 1.127 0.127 0.747 0.116 0.459 0.428 0.754 1.023 -0.214 0.445 -1.075 0.296 -1.484 0.27 -1.926 0.293 -1.985 0.432 -1.959 0.519 -1.665 0.637 -1.462 0.679 -1.091 0.601 -0.64 0.402 -0.236 0.345 -0.026 0.509 0.234 0.654 0.753 0.611 1.228 0.495 1.581 0.371 1.707 0.368 3.495 0.066 2.781 0.346 0.795 0.457 1.317 0.376 0 0.455 -1.317 0.346 -0.822 -0.084 -2.886 -0.413 -3.679 -0.43 -1.893 -0.588 -1.806 -0.817 -1.572 -1.114 -1.219 -1.335 -0.554 -1.223 0.148 -0.939 0.603 -0.858 0.963 -0.801 1.358 -0.688 1.671 -0.53 1.829 -0.418 2.091 -0.254 2.056 -0.208 1.905 -0.195 1.333 -0.076 0.321 0.581 -0.107 0.098 0.205 -0.083 -0.249 -0.151 -0.668 -0.186 -1.082 -0.216 -1.492 -0.244 -1.759 -0.258 -1.7 -0.263 -1.541 -0.22 -1.141 -0.193 -0.862 -0.151 -0.603 -0.074 -0.294 -0.063 -0.445" />
    <path class="write-flat-pen" transform="translate(-105.123,6.128)" fill="#FFFEFF" stroke-width="3" __comx="278.21" __comy="324.331" __timestamp="0x178ff41f377" d="M383.774 303.101 l0.066 -0.253 0.033 -0.038 0.075 -0.082 0.051 -0.061 0.05 -0.109 -0.03 -0.444 -0.564 -0.038 -0.471 0.279 -0.584 0.649 -0.664 1.156 -0.689 1.797 -0.545 2.353 -0.36 2.703 -0.159 2.955 0.059 3.043 0.306 3.021 0.477 2.837 0.674 2.611 0.865 2.273 0.985 1.795 1.118 1.269 1.073 0.371 1.172 0.462 0.218 -0.272 -0.701 -1.046 -0.471 -0.871 -0.887 -0.99 -0.836 -1.498 -0.802 -2.054 -0.651 -2.434 -0.484 -2.699 -0.325 -2.892 -0.097 -2.911 0.108 -2.834 0.284 -2.577 0.437 -2.205 0.524 -1.658 0.445 -1.053 0.3 -0.579 0.04 -0.164 -0.333 -0.06 0 -0.31 0.032 -0.044 0.006 0.046 -0.017 0.132 -0.003 0.086 -0.045 0.271" />
    <path class="write-flat-pen" transform="translate(-105.123,6.128)" fill="#FFFEFF" stroke-width="3" __comx="292.935" __comy="324.331" __timestamp="0x178ff41f492" d="M392.38 317.407 l0.625 0.16 0.324 0.111 0.695 0.167 0.98 0.144 1.373 0.116 1.532 0.038 1.791 -0.06 1.832 -0.263 1.171 -0.616 1.05 -0.508 -0.056 -0.247 -1.167 -0.013 -1.27 -0.07 -1.701 0.26 -1.68 0.087 -1.468 0.023 -1.328 -0.021 -0.941 -0.011 -0.678 -0.019 -0.315 0.018 -0.618 -0.084" />
    <path class="write-flat-pen" transform="translate(-105.123,6.128)" fill="#FFFEFF" stroke-width="3" __comx="313.584" __comy="324.331" __timestamp="0x178ff41f76f" d="M418.538 311.488 l-0.046 -0.603 0.036 -0.191 0.038 -0.139 0.028 -0.093 0.027 -0.083 0.027 -0.108 0.032 -0.213 -0.02 -0.324 -0.177 -0.477 -0.497 -0.494 -0.84 -0.274 -1.169 0.093 -1.285 0.547 -1.238 0.917 -1.208 1.343 -0.952 1.627 -0.702 1.916 -0.406 2.003 -0.1 1.965 0.195 1.902 0.46 1.796 0.729 1.744 0.922 1.527 1.173 1.241 1.478 0.748 1.784 0.029 1.977 -0.668 1.969 -1.257 1.766 -1.671 1.59 -1.954 1.313 -2.293 0.989 -2.456 0.6 -2.395 0.268 -2.262 -0.151 -2.122 -0.522 -1.81 -0.849 -1.498 -1.174 -1.096 -1.369 -0.581 -1.528 -0.02 -1.532 0.65 -1.297 1.23 -1.001 1.716 -0.653 2.008 -0.3 2.224 0.008 2.3 0.345 2.178 0.613 1.853 0.994 1.505 1.335 1.063 1.629 0.58 1.709 0.054 1.134 -0.662 1.201 -0.615 -0.068 -0.436 -1.331 -0.221 -1.076 -0.317 -1.148 -0.036 -0.948 -0.336 -0.767 -0.607 -0.637 -0.959 -0.466 -1.398 -0.294 -1.829 -0.013 -1.976 0.246 -1.875 0.511 -1.597 0.718 -1.246 0.778 -0.752 0.746 -0.326 0.648 0 0.633 0.26 0.663 0.608 0.571 0.991 0.399 1.351 0.129 1.701 -0.217 1.934 -0.521 2.129 -0.87 2.197 -1.148 2.031 -1.391 1.728 -1.523 1.454 -1.594 1.031 -1.413 0.487 -0.978 -0.008 -0.763 -0.378 -0.798 -0.828 -0.748 -1.216 -0.632 -1.476 -0.404 -1.517 -0.185 -1.613 0.067 -1.68 0.325 -1.734 0.571 -1.644 0.748 -1.354 0.941 -1.117 0.916 -0.756 0.86 -0.456 0.65 -0.155 0.327 0.006 0.171 0.047 0.11 0.08 0.063 0.079 0.035 0.09 0.016 0.057 0.009 0.078 0.011 0.102 0.007 0.162 0.021 0.268 0.109 0.646" />
    <path class="write-flat-pen" transform="translate(-105.123,6.128)" fill="#FFFEFF" stroke-width="3" __comx="327.096" __comy="324.331" __timestamp="0x178ff41f8de" d="M427.789 300.45 l0.201 0.467 0.213 0.313 0.588 0.708 0.945 1.1 1.225 1.582 1.238 1.877 1.119 2.164 0.919 2.413 0.577 2.625 0.254 2.752 -0.066 2.881 -0.38 2.83 -0.654 2.679 -0.122 2.029 -0.094 0.895 0.248 0.073 0.41 -0.802 1.018 -1.804 0.661 -2.801 0.377 -2.993 0.038 -3.046 -0.301 -2.919 -0.66 -2.802 -1.028 -2.562 -1.244 -2.262 -1.365 -1.933 -1.36 -1.586 -1.074 -1.047 -0.702 -0.596 -0.223 -0.155 -0.21 -0.356" />
    <path class="write-flat-pen" transform="translate(-105.123,6.128)" fill="#FFFEFF" stroke-width="3" __comx="345.403" __comy="324.331" __timestamp="0x178ff41fdf0" d="M445.215 321.12 l0.01 -0.478 0.025 -0.034 0.082 -0.091 0.174 -0.109 0.438 -0.169 0.754 -0.163 1.131 -0.164 1.424 -0.191 1.481 -0.216 1.545 -0.303 2.56 -0.646 0.667 -0.433 1.108 -0.671 -0.063 -0.216 -1.296 0.026 -0.778 -0.014 -2.498 0.679 -1.476 0.324 -1.444 0.254 -1.426 0.26 -1.182 0.257 -0.872 0.299 -0.596 0.366 -0.308 0.362 -0.123 0.337 -0.015 0.198 0.014 0.54" />
    <path class="write-flat-pen" transform="translate(-105.123,6.128)" fill="#FFFEFF" stroke-width="3" __comx="347.865" __comy="324.331" __timestamp="0x178ff41fec9" d="M451.997 313.1 l-0.286 0.633 -0.076 0.599 -0.006 0.971 0.071 1.274 0.16 1.4 0.212 1.352 0.233 1.263 0.25 1.065 0.277 0.921 0.265 0.693 0.305 0.344 0.895 1.033 0.155 -0.076 -0.265 -1.341 -0.067 -0.418 -0.264 -0.607 -0.289 -0.84 -0.275 -1 -0.271 -1.218 -0.264 -1.313 -0.218 -1.351 -0.141 -1.226 -0.067 -0.911 0.004 -0.465 0.205 -0.558" />
    <path class="write-flat-pen" transform="translate(-105.123,6.128)" fill="#FFFEFF" stroke-width="3" __comx="366.813" __comy="324.331" __timestamp="0x178ff4200ff" d="M476.26 314.288 l-0.144 -0.412 0.008 -0.05 0.005 -0.149 -0.03 -0.198 -0.084 -0.239 -0.197 -0.317 -0.413 -0.377 -0.677 -0.359 -0.919 -0.28 -1.174 -0.126 -1.248 0.1 -1.357 0.433 -1.313 0.854 -1.16 1.277 -0.846 1.6 -0.455 1.662 -0.145 1.57 0.168 1.464 0.449 1.353 0.738 1.272 0.972 1.127 1.255 0.921 1.491 0.528 1.667 0.013 1.727 -0.41 1.597 -0.654 0.916 -0.961 0.953 -0.885 -0.174 -0.351 -1.28 0.222 -1.256 0.115 -1.384 0.574 -1.335 0.327 -1.088 0.004 -0.907 -0.305 -0.853 -0.6 -0.725 -0.808 -0.571 -0.934 -0.349 -0.975 -0.154 -1.077 0.081 -1.225 0.32 -1.335 0.615 -1.261 0.834 -0.999 0.928 -0.671 0.976 -0.378 0.945 -0.145 0.94 0.012 0.736 0.118 0.518 0.152 0.284 0.133 0.138 0.092 0.075 0.065 0.055 0.069 0.054 0.118 0.048 0.098 0.183 0.433" />
    <path class="write-flat-pen" transform="translate(-105.123,6.128)" fill="#FFFEFF" stroke-width="3" __comx="382.329" __comy="324.331" __timestamp="0x178ff420303" d="M488.885 313.817 l-0.327 -0.274 0.042 0.033 0.017 -0.081 0.01 -0.129 -0.007 -0.205 -0.043 -0.207 -0.113 -0.273 -0.28 -0.345 -0.505 -0.318 -0.807 -0.215 -0.973 -0.047 -1.082 0.108 -1.061 0.231 -1.018 0.367 -1.367 0.913 -0.491 0.716 -0.206 0.863 0.228 1.043 0.7 0.95 1.101 0.847 2.598 1.121 1.376 0.426 2.524 0.85 1.821 0.889 0.534 0.402 0.575 0.668 0.068 0.207 -0.011 0.393 -0.221 0.572 -0.566 0.703 -0.903 0.679 -1.081 0.513 -1.211 0.298 -1.123 0.112 -0.94 -0.045 -1.225 -0.315 -0.134 -0.091 -0.048 -0.069 -0.041 -0.222 -0.248 -0.42 -0.365 -1.329 -0.404 -0.055 -0.704 1.184 -0.397 0.687 0.213 1.035 0.567 0.734 0.73 0.465 1.76 0.434 1.297 0.053 1.414 -0.151 1.549 -0.389 1.45 -0.696 1.263 -0.961 0.914 -1.15 0.448 -1.192 0.02 -1.092 -0.313 -0.907 -0.977 -1.115 -0.859 -0.637 -2.111 -1.013 -2.677 -0.875 -1.307 -0.388 -2.31 -0.95 -0.728 -0.529 -0.336 -0.42 -0.079 -0.266 0.021 -0.154 0.107 -0.185 0.896 -0.658 0.717 -0.296 0.866 -0.238 0.891 -0.154 0.736 -0.046 0.512 0.044 0.219 0.056 0.1 0.039 0.052 0.028 0.046 0.049 0.064 0.12 0.061 0.139 0.088 0.168 0.105 0.156 0.464 0.356" />
    <path class="write-flat-pen" transform="translate(-105.123,6.128)" fill="#FFFEFF" stroke-width="3" __comx="398.228" __comy="325.267" __timestamp="0x178ff420932" d="M505.703 314.919 l-0.287 -0.072 -0.019 -0.033 -0.118 -0.097 -0.175 -0.119 -0.274 -0.143 -0.422 -0.147 -0.557 -0.12 -0.771 -0.033 -0.871 0.142 -0.965 0.381 -0.95 0.713 -0.836 1.049 -0.608 1.234 -0.424 1.402 -0.223 1.477 0.021 1.596 0.233 1.531 0.506 1.403 0.761 1.174 1.105 0.849 1.404 0.38 1.639 -0.179 1.702 -0.698 1.585 -0.987 0.804 -1.124 0.787 -0.972 -0.214 -0.302 -1.179 0.42 -1.284 0.355 -1.393 0.888 -1.297 0.551 -1.015 0.129 -0.709 -0.174 -0.574 -0.417 -0.494 -0.721 -0.402 -1.034 -0.222 -1.237 -0.06 -1.341 0.137 -1.235 0.295 -1.189 0.42 -1.009 0.561 -0.842 0.619 -0.578 0.654 -0.367 0.627 -0.206 0.593 -0.083 0.456 -0.003 0.359 0.027 0.24 0.038 0.177 0.035 0.151 0.031 0.1 0.018 0.352 0.022" />
    <path class="write-flat-pen" transform="translate(-105.123,6.128)" fill="#FFFEFF" stroke-width="3" __comx="412.005" __comy="325.267" __timestamp="0x178ff420b4a" d="M518.752 303.181 l-0.267 -0.12 -0.159 -0.007 -0.203 0.032 -0.259 0.104 -0.356 0.226 -0.472 0.449 -0.509 0.661 -0.558 0.888 -0.612 1.098 -0.636 1.24 -0.697 1.486 -0.635 1.786 -0.507 2.093 -0.284 2.243 -0.026 2.304 0.172 2.342 0.437 2.217 0.618 2.048 0.776 1.793 0.937 1.454 1.161 1.142 1.361 0.824 1.49 0.411 1.141 -0.276 1.263 -0.259 0.028 -0.332 -1.2 -0.468 -0.915 -0.45 -1.092 -0.295 -0.974 -0.582 -0.881 -0.849 -0.763 -1.16 -0.698 -1.56 -0.585 -1.865 -0.424 -2.028 -0.186 -2.169 -0.008 -2.142 0.228 -2.066 0.429 -1.94 0.543 -1.661 0.608 -1.427 0.558 -1.236 0.513 -1.107 0.427 -0.894 0.333 -0.657 0.271 -0.462 0.174 -0.271 0.107 -0.161 0.061 -0.102 -0.02 -0.042 0.174 0.048" />
    <path class="write-flat-pen" transform="translate(-105.123,6.128)" fill="#FFFEFF" stroke-width="3" __comx="423.871" __comy="325.267" __timestamp="0x178ff420d6b" d="M531.361 310.325 l-0.54 -0.476 -0.077 -0.108 -0.13 -0.177 -0.145 -0.191 -0.123 -0.151 -0.111 -0.129 -0.155 -0.156 -0.193 -0.146 -0.313 -0.164 -0.495 -0.125 -0.669 -0.007 -0.894 0.242 -1.062 0.589 -1.15 1.078 -1.109 1.462 -0.998 1.87 -0.763 1.983 -0.473 2.065 -0.207 2.172 0.118 2.096 0.421 1.996 0.687 1.795 0.987 1.456 1.247 0.979 1.622 0.419 1.896 -0.374 1.856 -0.986 1.69 -1.365 1.44 -1.595 1.198 -1.802 0.827 -2.041 0.428 -2.149 0.03 -2.086 -0.345 -1.893 -0.546 -1.556 -0.687 -1.248 -0.839 -0.95 -0.947 -0.635 -1.192 -0.308 -1.24 0.11 -1.203 0.561 -1.024 0.971 -0.763 1.191 -0.524 1.422 -0.231 1.495 0.028 1.523 0.3 1.486 0.583 1.387 0.887 1.186 1.258 0.942 1.526 0.468 1.634 -0.077 0.949 -0.748 1.13 -0.814 -0.126 -0.435 -1.39 -0.082 -0.941 -0.199 -0.966 0.046 -0.765 -0.233 -0.678 -0.503 -0.526 -0.697 -0.392 -0.918 -0.221 -1.062 -0.03 -1.124 0.157 -1.083 0.352 -0.987 0.479 -0.766 0.56 -0.548 0.526 -0.257 0.483 -0.054 0.475 0.113 0.416 0.268 0.506 0.558 0.495 0.88 0.441 1.229 0.288 1.525 -0.014 1.691 -0.341 1.772 -0.664 1.67 -0.989 1.508 -1.222 1.37 -1.407 1.152 -1.417 0.767 -1.155 0.239 -0.781 -0.194 -0.684 -0.524 -0.696 -1.008 -0.564 -1.434 -0.374 -1.699 -0.12 -1.804 0.162 -1.907 0.395 -1.822 0.652 -1.765 0.848 -1.666 0.902 -1.267 0.858 -0.894 0.693 -0.47 0.508 -0.219 0.313 -0.064 0.199 -0.009 0.098 0.01 0.065 0.017 0.098 0.052 0.102 0.068 0.137 0.1 0.175 0.135 0.179 0.142 0.144 0.111 0.591 0.471" />
    <path class="write-flat-pen" transform="translate(-105.123,6.128)" fill="#FFFEFF" stroke-width="3" __comx="437.602" __comy="325.267" __timestamp="0x178ff420eb9" d="M540.28 303.331 l-0.728 0.359 -0.036 0.222 0.154 0.546 0.311 0.796 0.535 1.008 0.626 1.02 0.747 1.135 0.773 1.316 0.702 1.556 0.566 1.88 0.346 1.972 0.081 2.092 -0.134 1.991 -0.358 1.962 -0.546 1.843 -0.732 1.736 -1.579 2.844 -0.261 1.029 -0.372 1.178 0.244 0.158 0.921 -0.823 0.862 -0.709 1.623 -2.987 0.772 -1.909 0.563 -2.016 0.348 -2.135 0.102 -2.156 -0.138 -2.263 -0.427 -2.137 -0.671 -2.024 -0.826 -1.672 -0.89 -1.364 -0.822 -1.107 -0.676 -0.938 -0.583 -0.896 -0.371 -0.683 -0.175 -0.358 -0.027 -0.087 0.139 0.273" />
    <path class="write-flat-pen" transform="translate(-105.123,6.128)" fill="#FFFEFF" stroke-width="3" __comx="454.521" __comy="325.267" __timestamp="0x178ff4210ac" d="M555.915 320.382 l0.122 -0.551 0.149 -0.285 0.306 -0.428 0.45 -0.428 0.625 -0.397 0.94 -0.425 1.143 -0.35 1.234 -0.218 1.153 -0.082 0.786 -0.239 1.249 -0.326 -0.001 -0.222 -1.253 -0.308 -0.844 -0.228 -1.272 0.136 -1.373 0.305 -1.266 0.487 -1.04 0.589 -0.706 0.591 -0.489 0.632 -0.284 0.599 -0.123 0.415 -0.1 0.614" />
    <path class="write-flat-pen" transform="translate(-105.123,6.128)" fill="#FFFEFF" stroke-width="3" __comx="453.893" __comy="325.267" __timestamp="0x178ff421185" d="M554.734 323.925 l0.045 -0.493 -0.121 0.13 0.259 -0.028 0.627 -0.031 0.978 0.029 1.295 0.047 1.424 0.031 1.54 -0.031 1.487 -0.127 0.996 -0.453 1.166 -0.481 -0.036 -0.26 -1.253 -0.143 -1.047 -0.167 -1.405 0.142 -1.468 0.061 -1.396 0.02 -1.31 0.023 -1.063 0.065 -0.776 0.149 -0.519 0.207 -0.344 0.31 -0.06 0.926" />
    <path class="write-flat-pen" transform="translate(-105.123,6.128)" fill="#FFFEFF" stroke-width="3" __comx="482.938" __comy="325.267" __timestamp="0x178ff421461" d="M587.445 315.082 l0.125 -0.141 0.076 0.004 0.285 -0.06 0.381 -0.149 0.402 -0.213 0.348 -0.222 0.318 -0.245 0.289 -0.297 0.262 -0.374 0.183 -0.402 0.096 -0.443 -0.067 -0.556 -0.61 -0.564 -1.011 0.063 -1.174 0.551 -1.361 0.913 -1.497 1.199 -1.374 1.327 -1.187 1.415 -0.901 1.446 -0.547 1.572 -0.056 1.748 0.511 1.765 1.124 1.659 1.596 1.304 1.873 0.879 2.097 0.44 2.102 -0.018 1.979 -0.356 1.708 -0.65 1.33 -0.811 0.518 -0.941 0.718 -1.156 -0.256 -0.313 -1.276 0.472 -0.917 0.23 -1.041 0.647 -1.345 0.522 -1.616 0.304 -1.709 0.028 -1.656 -0.328 -1.445 -0.659 -1.196 -0.95 -0.808 -1.155 -0.365 -1.172 0.015 -1.157 0.36 -1.113 0.699 -1.178 1.014 -1.273 1.22 -1.241 1.349 -1.16 1.173 -0.882 0.788 -0.474 0.155 -0.078 -0.134 -0.176 0.014 -0.101 0.013 0.149 -0.044 0.23 -0.108 0.269 -0.143 0.243 -0.192 0.245 -0.243 0.259 -0.29 0.274 -0.271 0.217 -0.216 0.14 -0.144 0.088 -0.147 0.246" />
    <path class="write-flat-pen" transform="translate(-105.123,6.128)" fill="#FFFEFF" stroke-width="3" __comx="497.337" __comy="325.267" __timestamp="0x178ff421602" d="M603.779 320.457 l0.08 -0.848 0.027 -0.13 0.003 -0.263 -0.069 -0.33 -0.146 -0.35 -0.317 -0.424 -0.506 -0.391 -0.708 -0.286 -0.868 -0.127 -1.001 0.097 -1.042 0.362 -0.967 0.67 -0.853 1.039 -0.546 1.439 -0.169 1.617 0.203 1.66 0.581 1.551 0.937 1.323 1.234 0.972 1.562 0.579 1.669 0.102 1.641 -0.444 1.412 -0.884 1.13 -1.267 0.715 -1.411 0.375 -1.473 0.029 -1.267 -0.222 -1.141 -0.728 -1.496 -1.064 -1.027 -0.832 -0.354 -0.631 0.13 -1.55 0.294 -0.096 0.431 1.276 0.927 0.323 0.344 0.277 0.111 0.498 0.465 0.445 0.882 0.129 0.628 -0.008 0.788 -0.246 1.008 -0.472 0.958 -0.736 0.843 -0.886 0.57 -1.006 0.285 -1.023 -0.051 -0.976 -0.349 -0.757 -0.58 -0.627 -0.861 -0.423 -1.079 -0.166 -1.201 0.096 -1.147 0.321 -0.92 0.468 -0.613 0.533 -0.404 0.597 -0.245 0.583 -0.1 0.479 0.021 0.35 0.085 0.208 0.096 0.133 0.096 0.072 0.065 0.061 0.067 0.036 0.026 0.02 0.018 -0.035 0.835" />
    <path class="write-flat-pen" transform="translate(-105.123,6.128)" fill="#FFFEFF" stroke-width="3" __comx="509.668" __comy="325.267" __timestamp="0x178ff42171d" d="M614.279 306.352 l-0.775 -0.342 -0.259 0.355 -0.125 0.258 -0.129 0.35 -0.089 0.444 -0.024 0.664 0.09 1.044 0.267 1.574 0.445 2.032 0.45 2.192 0.405 2.198 0.447 4.095 0.032 1.726 -0.149 2.63 -0.172 0.853 0.046 0.079 0.089 1.452 0.282 0.11 1.045 -1.011 0.141 -0.166 0.206 -1.116 0.128 -2.807 -0.055 -1.858 -0.506 -4.219 -0.447 -2.267 -0.502 -2.214 -0.51 -2.007 -0.351 -1.492 -0.183 -0.933 -0.075 -0.525 -0.014 -0.316 0.012 -0.28 -0.004 -0.14 -0.199 0.262 0.185 0.07" />
    <path class="write-flat-pen" transform="translate(-105.123,6.128)" fill="#FFFEFF" stroke-width="3" __comx="510.678" __comy="325.267" __timestamp="0x178ff4217f5" d="M609.522 317.389 l0.252 1.029 0.406 0.328 0.592 0.201 0.956 0.14 1.28 0.053 1.587 -0.029 1.772 -0.125 1.864 -0.25 1.865 -0.428 1.129 -0.756 1 -0.613 -0.087 -0.273 -1.171 0.078 -1.305 0.019 -1.73 0.443 -1.744 0.284 -1.69 0.186 -1.516 0.105 -1.187 0.034 -0.804 -0.036 -0.317 -0.053 0.029 0.051 -0.21 -0.654" />
    <path class="write-flat-pen" transform="translate(-105.123,6.128)" fill="#FFFEFF" stroke-width="3" __comx="523.234" __comy="325.267" __timestamp="0x178ff4219fa" d="M631.128 303.684 l-0.265 0.198 -0.188 0.285 -0.222 0.497 -0.211 0.581 -0.158 0.466 -0.157 0.38 -0.184 0.391 -0.254 0.434 -0.339 0.524 -0.525 0.773 -0.659 1.116 -0.753 1.579 -0.675 1.999 -0.529 2.209 -0.335 2.245 -0.155 2.181 0.042 2.114 0.264 1.873 0.436 1.636 0.692 1.381 0.905 1.042 1.217 0.699 0.967 -0.05 1.328 -0.039 0.095 -0.322 -1.093 -0.755 -0.584 -0.509 -0.777 -0.438 -0.566 -0.639 -0.525 -1.013 -0.378 -1.354 -0.254 -1.662 -0.06 -1.932 0.121 -2.04 0.288 -2.115 0.46 -2.08 0.579 -1.864 0.63 -1.474 0.547 -1.075 0.448 -0.818 0.299 -0.63 0.213 -0.567 0.126 -0.509 0.076 -0.467 0.047 -0.518 0.041 -0.601 0.038 -0.5 0.013 -0.233 0.167 -0.182" />
    <path class="write-flat-pen" transform="translate(-105.123,6.128)" fill="#FFFEFF" stroke-width="3" __comx="537.173" __comy="325.267" __timestamp="0x178ff421c1f" d="M643.605 307.66 l-0.95 0.29 -0.225 0.2 -0.131 0.12 -0.076 0.056 -0.044 0.019 -0.055 0.017 -0.104 0.037 -0.147 0.055 -0.253 0.101 -0.361 0.152 -0.572 0.283 -0.793 0.495 -0.995 0.846 -1.032 1.257 -1.003 1.633 -0.823 1.794 -1.085 3.549 -0.21 1.662 0.001 1.604 0.262 1.531 0.459 1.356 0.669 1.149 0.86 0.936 1.13 0.679 1.335 0.278 1.492 -0.123 1.524 -0.57 1.466 -0.915 1.38 -1.175 1.284 -1.444 1.121 -1.58 0.967 -1.768 0.686 -1.813 0.405 -1.862 0.023 -1.778 -0.297 -1.65 -0.532 -1.363 -0.776 -1.132 -1.159 -0.98 -1.528 -0.683 -1.736 -0.395 -1.785 -0.07 -1.592 0.309 -1.316 0.77 -1.07 1.431 -0.565 1.873 -0.107 2.001 0.263 1.911 0.581 1.712 0.773 1.419 0.991 1.262 1.194 0.996 1.313 0.686 1.301 0.294 0.872 -0.34 1.423 -0.477 0.027 -0.471 -1.36 -0.637 -0.632 -0.427 -0.81 -0.183 -0.816 -0.425 -0.811 -0.673 -0.718 -0.91 -0.585 -1.066 -0.447 -1.306 -0.207 -1.468 0.074 -1.5 0.357 -1.216 0.539 -0.733 0.57 -0.342 0.945 -0.192 1.309 0.04 1.316 0.288 1.039 0.45 0.693 0.57 0.469 0.667 0.37 0.921 0.234 1.229 -0.005 1.347 -0.312 1.493 -0.563 1.529 -0.823 1.532 -0.972 1.389 -1.101 1.254 -1.144 0.987 -1.151 0.729 -1.054 0.404 -0.905 0.082 -0.702 -0.14 -0.582 -0.341 -0.514 -0.549 -0.459 -0.775 -0.348 -1.009 -0.215 -1.204 -0.01 -1.307 0.162 -1.368 0.968 -3.271 0.7 -1.582 0.847 -1.45 0.815 -1.074 0.743 -0.72 0.598 -0.462 0.448 -0.31 0.311 -0.209 0.24 -0.171 0.163 -0.123 0.167 -0.139 0.141 -0.14 0.101 -0.128 0.085 -0.13 0.068 -0.123 -0.042 0.013 0.671 -0.23" />
    <path class="write-flat-pen" transform="translate(-105.123,6.128)" fill="#FFFEFF" stroke-width="3" __comx="548.889" __comy="325.267" __timestamp="0x178ff421d9e" d="M652.582 299.349 l-0.459 -0.397 -0.685 0.582 0.044 0.159 0.269 0.695 0.572 1.367 0.76 1.76 0.822 1.932 0.815 1.89 0.743 1.88 0.598 2.048 0.409 2.247 0.15 2.447 -0.136 2.665 -0.424 2.78 -0.745 2.916 -0.987 2.899 -1.208 2.722 -1.303 2.378 -1.346 1.943 -0.571 1.476 -0.453 0.961 0.263 0.215 0.85 -0.638 1.377 -0.915 1.434 -2.087 1.377 -2.533 1.258 -2.871 1.022 -3.046 0.762 -3.075 0.427 -2.957 0.118 -2.85 -0.19 -2.643 -0.478 -2.426 -0.68 -2.195 -0.828 -1.956 -0.879 -1.893 -0.915 -1.904 -0.871 -1.725 -0.714 -1.318 -0.421 -0.675 -0.14 -0.146 -0.685 0.582 0.465 0.389" />
    <path class="write-flat-pen" transform="translate(-105.123,6.128)" fill="#FFFEFF" stroke-width="3" __comx="566.316" __comy="325.267" __timestamp="0x178ff422185" d="M673.144 318.915 l-0.255 0.142 -0.109 0.12 -0.104 0.166 -0.061 0.129 -0.03 0.083 -0.037 0.117 -0.012 0.018 -0.014 -0.014 -0.013 -0.049 -0.016 -0.048 -0.08 -0.017 -0.215 0.008 -0.306 0.016 -0.311 0.014 -0.3 0.005 -0.206 -0.001 -0.052 -0.01 0.007 -0.028 0.27 0.12 0.187 0.44 -0.114 0.314 -0.04 0.065 0.049 -0.007 -0.042 0.03 -0.092 0.023 -0.284 -0.122 -0.076 -0.072 -0.027 -0.1 0.006 0.191 0.065 0.114 0.757 1.039 0.846 -0.227 0.134 -1.279 0.042 0.028 -0.022 -0.122 -0.072 -0.332 -0.424 -0.62 -0.571 -0.261 -0.61 0.04 -0.345 0.14 -0.29 0.19 -0.311 0.296 -0.243 0.595 0.265 0.663 0.497 0.246 0.411 0.019 0.209 -0.029 0.247 -0.054 0.339 -0.087 0.352 -0.119 0.351 -0.15 0.285 -0.171 0.185 -0.164 0.121 -0.186 0.039 -0.169 -0.003 -0.087 -0.007 -0.037 -0.017 -0.092 -0.004 -0.042 0.006 -0.101 0.018 -0.135 0.007 -0.056 0.18 -0.127" />
    <path class="write-flat-pen" transform="translate(-105.123,6.128)" fill="#FFFEFF" stroke-width="3" __comx="589.786" __comy="325.267" __timestamp="0x178ff4223ed" d="M697.97 317.95 l0.197 -0.048 -0.023 0.029 0.108 0.096 0.222 0.069 0.306 -0.019 0.363 -0.154 0.344 -0.309 0.283 -0.513 0.142 -0.637 -0.081 -0.756 -0.346 -0.745 -0.783 -0.686 -1.273 -0.354 -1.591 0.164 -1.715 0.65 -1.655 0.989 -1.486 1.152 -1.305 1.335 -1.007 1.438 -0.684 1.576 -0.299 1.692 0.103 1.542 0.476 1.411 0.915 1.175 1.342 0.893 1.67 0.503 1.756 0.167 1.853 -0.103 1.758 -0.361 1.677 -0.564 1.553 -0.791 0.752 -0.978 0.881 -0.998 -0.212 -0.355 -1.297 0.303 -1.157 0.163 -1.349 0.693 -1.408 0.48 -1.479 0.316 -1.542 0.097 -1.398 -0.117 -1.187 -0.34 -0.824 -0.527 -0.515 -0.636 -0.302 -0.837 -0.089 -1.045 0.194 -1.236 0.495 -1.197 0.788 -1.167 1.089 -1.152 1.279 -1.031 1.411 -0.884 1.346 -0.563 1.056 -0.161 0.644 0.124 0.31 0.204 0.165 0.231 0.105 0.314 0.02 0.292 -0.033 0.268 -0.039 0.161 -0.057 0.125 -0.039 0.078 -0.033 0.053 -0.081 0.028 -0.12 0 -0.302 0.1" />
    <path class="write-flat-pen" transform="translate(-105.123,6.128)" fill="#FFFEFF" stroke-width="3" __comx="604.655" __comy="325.267" __timestamp="0x178ff42259e" d="M712.296 316.514 l-0.561 0.031 0.169 0.068 -0.03 -0.076 -0.19 -0.207 -0.402 -0.254 -0.66 -0.174 -0.894 0.027 -1.112 0.353 -1.123 0.65 -1.092 0.934 -0.955 1.197 -0.731 1.494 -0.436 1.617 -0.094 1.666 0.258 1.549 0.546 1.293 0.892 1.053 1.169 0.716 1.421 0.359 1.552 -0.099 1.488 -0.495 1.348 -0.852 1.108 -1.125 0.781 -1.298 0.457 -1.313 0.134 -1.257 -0.141 -1.155 -0.371 -1.038 -0.982 -1.317 -0.713 -0.476 -1.031 -0.243 -0.389 0.203 -1.224 0.874 0.054 0.428 1.401 0.545 0.049 0.148 0.285 0.054 0.09 0.051 0.594 0.756 0.199 0.518 0.099 0.688 -0.069 0.789 -0.295 0.897 -0.535 0.921 -0.769 0.801 -0.943 0.611 -1.015 0.35 -0.993 0.074 -0.841 -0.202 -0.659 -0.394 -0.511 -0.588 -0.356 -0.814 -0.201 -1.12 0.055 -1.267 0.32 -1.267 0.547 -1.168 0.707 -0.929 0.825 -0.753 0.814 -0.528 0.723 -0.296 0.472 -0.082 0.281 0.003 0.145 0.019 0.127 0.043 0.142 0.066 0.25 0.115 0.913 -0.112" />
    <path class="write-flat-pen" transform="translate(-105.123,6.128)" fill="#FFFEFF" stroke-width="3" __comx="619.414" __comy="325.267" __timestamp="0x178ff42274f" d="M724.279 312.196 l-0.826 0.432 -0.147 0.112 -0.113 0.068 -0.132 0.069 -0.222 0.108 -0.311 0.169 -0.414 0.272 -0.482 0.425 -0.479 0.571 -0.416 0.645 -0.348 0.712 -0.306 1.293 0.07 0.828 0.732 1.316 0.813 0.66 2.674 1.273 1.597 0.935 0.582 0.546 0.46 0.649 0.331 0.779 0.17 0.847 -0.014 0.888 -0.18 0.799 -0.33 0.699 -0.456 0.575 -0.534 0.422 -0.652 0.324 -0.735 0.192 -0.721 0.053 -1.317 -0.184 -1.154 -0.4 -0.188 0.038 -1.722 0.101 -0.145 0.374 1.197 1.241 0.16 0.174 1.397 0.451 1.724 0.21 1.11 -0.099 1.1 -0.304 1.01 -0.518 0.861 -0.7 0.723 -0.932 0.505 -1.095 0.261 -1.201 0.01 -1.29 -0.257 -1.236 -0.496 -1.142 -0.695 -0.964 -0.881 -0.813 -1.858 -1.066 -2.569 -1.179 -0.389 -0.298 -0.406 -0.67 -0.027 -0.179 0.161 -0.857 0.201 -0.475 0.281 -0.508 0.311 -0.442 0.295 -0.326 0.267 -0.239 0.242 -0.196 0.23 -0.19 0.173 -0.168 0.122 -0.141 0.022 -0.045 0.681 -0.381" />
    <path class="write-flat-pen" transform="translate(-105.123,6.128)" fill="#FFFEFF" stroke-width="3" __comx="632.654" __comy="325.267" __timestamp="0x178ff422943" d="M743.103 303.984 l-0.279 -0.324 0.002 -0.036 -0.038 -0.077 -0.132 -0.145 -0.253 -0.146 -0.457 -0.063 -0.712 0.161 -0.986 0.588 -1.237 1.179 -1.334 1.742 -1.364 2.273 -1.307 2.677 -1.13 3.029 -0.788 3.257 -0.402 3.286 0.043 3.04 0.521 2.763 0.883 2.178 1.188 1.7 1.451 1.188 1.627 0.655 1.282 -0.207 1.253 -0.147 0.064 -0.365 -1.125 -0.57 -0.936 -0.6 -1.168 -0.462 -1.019 -0.825 -0.921 -1.295 -0.74 -1.796 -0.472 -2.412 -0.057 -2.748 0.35 -3.057 0.713 -3.056 1.026 -2.862 1.202 -2.554 1.23 -2.168 1.146 -1.637 0.968 -1.099 0.634 -0.551 0.325 -0.212 0.106 -0.079 0.019 -0.054 0.006 -0.05 -0.002 -0.034 0.039 0.01 0.298 0.33" />
    <path class="write-flat-pen" transform="translate(-105.123,6.128)" fill="#FFFEFF" stroke-width="3" __comx="646.339" __comy="325.267" __timestamp="0x178ff422b8b" d="M753.136 310.211 l-0.167 -0.494 0.017 0.07 0.02 -0.002 0.019 -0.002 0.037 -0.058 0.036 -0.117 -0.001 -0.472 -0.625 -0.308 -0.614 0.191 -0.692 0.456 -0.926 0.875 -1.168 1.328 -1.226 1.656 -1.217 1.923 -1.853 3.81 -0.568 1.87 -0.267 1.86 0.051 1.74 0.379 1.623 0.763 1.404 1.092 1.103 1.407 0.735 1.726 0.329 1.883 -0.161 1.863 -0.678 1.762 -1.096 1.505 -1.454 1.22 -1.663 0.881 -1.917 0.465 -2.134 0.015 -2.247 -0.402 -2.171 -0.759 -1.945 -0.977 -1.478 -1.112 -1.057 -1.259 -0.66 -1.378 -0.208 -1.421 0.308 -1.269 0.737 -1.107 1.175 -0.793 1.41 -0.487 1.542 -0.171 1.577 0.113 1.461 0.36 1.457 0.631 1.411 0.824 1.235 0.914 1.027 0.993 0.752 0.813 0.077 1.481 0.203 0.208 -0.371 -0.95 -1.154 -0.36 -0.578 -0.702 -0.533 -0.672 -0.754 -0.639 -0.957 -0.478 -1.067 -0.273 -1.094 -0.085 -1.081 0.123 -1.164 0.352 -1.125 0.55 -0.989 0.709 -0.759 0.704 -0.416 0.707 -0.16 0.639 0.09 0.685 0.35 0.731 0.682 0.73 1.086 0.619 1.549 0.342 1.782 0.001 1.836 -0.36 1.711 -0.691 1.535 -0.989 1.366 -1.221 1.196 -1.4 0.884 -1.42 0.529 -1.354 0.127 -1.183 -0.211 -0.89 -0.453 -0.696 -0.686 -0.519 -0.933 -0.29 -1.185 -0.054 -1.389 0.208 -1.562 0.469 -1.601 1.706 -3.61 1.106 -1.805 1.116 -1.581 1.033 -1.283 0.737 -0.836 0.387 -0.393 -0.091 -0.038 -0.503 -0.259 0.003 -0.393 0.024 -0.058 0.007 0.048 -0.003 0.095 0.01 0.094 0.014 0.148 0.26 0.657" />
    <path class="write-flat-pen" transform="translate(-105.123,6.128)" fill="#FFFEFF" stroke-width="3" __comx="658.798" __comy="325.267" __timestamp="0x178ff422d0c" d="M764.029 303.615 l0.165 0.497 0.056 0.221 0.163 0.486 0.246 0.703 0.326 1.045 0.34 1.374 0.286 1.729 0.175 2.063 0.007 2.427 -0.233 2.684 -0.476 2.724 -0.672 2.609 -0.847 2.375 -1.029 2.042 -1.138 1.589 -0.583 1.338 -0.501 0.978 0.233 0.202 0.896 -0.636 1.294 -0.831 1.243 -1.776 1.112 -2.261 0.874 -2.553 0.674 -2.748 0.467 -2.859 0.207 -2.826 -0.058 -2.561 -0.249 -2.184 -0.396 -1.834 -0.47 -1.449 -0.473 -1.078 -0.386 -0.698 -0.291 -0.434 -0.118 -0.148 -0.187 -0.454" />
    <path class="write-flat-pen" transform="translate(-105.123,6.128)" fill="#FFFEFF" stroke-width="3" __comx="699.034" __comy="221.527" __timestamp="0x178ff424dd2" d="M804.665 214.722 l-0.07 -0.19 -0.013 -0.056 -0.022 -0.049 -0.049 -0.073 -0.054 -0.057 -0.084 -0.057 -0.108 -0.042 -0.108 -0.018 -0.127 0.002 -0.08 0.009 -0.1 0.023 -0.148 0.048 -0.138 0.06 -0.131 0.076 -0.147 0.114 -0.144 0.158 -0.137 0.257 -0.076 0.332 0.016 0.39 0.067 0.317 0.085 0.28 0.107 0.304 0.029 0.102 0.063 0.253 0.025 0.137 0.049 0.285 0.004 0.042 0.031 0.321 0.01 0.158 0.016 0.312 0.005 0.133 0.01 0.424 0.001 0.137 0.002 0.484 0 0.142 -0.002 0.798 -0.002 0.227 -0.01 1.134 -0.002 0.23 -0.017 1.454 -0.003 0.359 -0.033 1.745 0.062 -0.001 0.07 1.199 1.079 0.229 0.551 -1.068 0.095 -0.158 -0.011 -1.942 -0.006 -0.369 -0.035 -1.459 -0.007 -0.239 -0.045 -1.144 -0.013 -0.242 -0.055 -0.814 -0.014 -0.16 -0.053 -0.5 -0.02 -0.16 -0.067 -0.446 -0.026 -0.158 -0.065 -0.338 -0.043 -0.197 -0.098 -0.361 -0.026 -0.087 -0.108 -0.305 -0.066 -0.18 -0.135 -0.299 -0.068 -0.135 -0.152 -0.274 -0.1 -0.195 -0.079 -0.179 -0.054 -0.173 -0.015 -0.098 0.002 -0.073 0.012 -0.049 0.042 -0.069 0.047 -0.061 0.064 -0.068 0.076 -0.071 0.032 -0.034 0.021 -0.022 0.045 -0.037 0.01 -0.02 0.024 -0.019 0.019 -0.013 0.021 -0.005 0.034 0.004 0.007 -0.007 0.027 0.022 0.103 0.171" />
    <path class="write-flat-pen" transform="translate(-105.123,6.128)" fill="#FFFEFF" stroke-width="3" __comx="329.99" __comy="379.524" __timestamp="0x178ff427795" d="M326.55 348.844 l-0.223 -0.347 -0.034 -0.122 -0.054 -0.217 -0.033 -0.207 -0.016 -0.198 -0.008 -0.253 -0.002 -0.273 0.002 -0.289 0.004 -0.229 0.003 -0.129 0.005 -0.133 0.006 -0.222 -0.002 -0.126 -1.196 0.134 -0.065 0.213 -0.053 0.533 -0.04 0.863 -0.027 0.996 -0.036 1.041 -0.086 2.668 -0.038 0.737 0.083 3.144 0.084 0.352 0.274 0.614 0.732 0.663 1.881 0.558 1.313 0.137 8.249 0.257 2.238 -0.089 4.775 -0.425 8.505 -1.096 6.335 -0.571 16.84 -0.714 19.989 -0.636 10.083 -0.088 12.973 0.224 9.318 -0.022 15.48 -0.536 11.845 -0.211 8.435 -0.298 5.545 -0.376 10.776 -1.115 4.808 -0.27 4.394 0.099 7.552 0.657 3.487 0.081 9.173 -0.683 8.23 0.017 3.053 -0.179 4.317 -0.621 4.896 0.005 3.415 -0.471 2.138 -0.157 1.209 0.1 3.251 0.748 1.589 0.177 1.13 -0.07 0.983 -0.42 0.636 -0.591 0.488 -0.851 0.335 -1.188 0.004 -2.669 -0.257 -1.411 -0.482 -1.357 -0.723 -0.689 -0.974 -1.033 -0.356 0.164 0.155 1.412 0.019 0.916 0.407 1.116 0.204 1.069 0.018 2.213 -0.185 0.695 -0.212 0.387 -0.165 0.162 -0.358 0.162 -0.627 0.049 -1.311 -0.134 -3.278 -0.737 -1.492 -0.118 -2.344 0.178 -3.344 0.471 -4.899 -0.002 -4.372 0.629 -2.918 0.17 -8.245 -0.017 -9.153 0.681 -3.336 -0.078 -7.553 -0.657 -4.528 -0.101 -4.925 0.276 -10.787 1.117 -5.481 0.373 -8.389 0.296 -11.845 0.208 -15.465 0.534 -9.269 0.022 -12.979 -0.224 -10.129 0.088 -20.021 0.64 -16.894 0.732 -6.414 0.587 -8.502 1.113 -4.694 0.435 -2.13 0.093 -8.126 -0.2 -1.1 -0.097 -1.375 -0.367 -0.199 -0.156 -0.075 -0.145 -0.011 -0.034 -0.129 -2.911 0.023 -0.692 0.036 -2.687 0.008 -1.056 -0.016 -1.004 -0.021 -0.848 -0.024 -0.478 -0.027 -0.176 -1.196 0.134 0.035 -0.016 0.037 0.075 0.023 0.116 0.023 0.132 0.043 0.239 0.064 0.307 0.075 0.296 0.088 0.282 0.09 0.234 0.114 0.24 0.139 0.233 0.103 0.149 0.268 0.361" />
    <path class="write-flat-pen" transform="translate(-105.123,6.128)" fill="#FFFEFF" stroke-width="3" __comx="295.855" __comy="379.524" __timestamp="0x178ff427aa4" d="M397.605 388.031 l0.015 -0.478 0.047 -0.126 0.063 -0.194 0.062 -0.202 0.058 -0.222 0.067 -0.274 0.072 -0.37 0.069 -0.473 0.048 -0.54 0.014 -0.614 -0.041 -0.688 -0.127 -0.875 -0.247 -1.182 -0.363 -1.421 -0.478 -1.738 -0.519 -1.849 -0.513 -1.835 -0.468 -1.748 -0.349 -1.505 -0.266 -2.27 0.042 -0.638 0.274 -0.872 0.18 -0.221 0.367 -0.272 0.661 -0.265 0.938 -0.168 1.27 -0.048 2.854 0.323 1.313 0.345 1.176 0.489 0.966 0.549 1.522 1.222 1.029 1.189 0.158 0.032 1.531 0.827 0.365 -0.253 -0.233 -1.723 -0.045 -0.261 -1.249 -1.433 -1.83 -1.453 -1.246 -0.696 -1.45 -0.587 -1.622 -0.407 -3.187 -0.303 -1.585 0.104 -1.291 0.276 -1.091 0.49 -0.759 0.617 -0.536 0.727 -0.402 1.448 -0.042 1.036 0.347 2.536 0.409 1.627 0.51 1.778 0.552 1.837 0.559 1.838 0.522 1.711 0.407 1.369 0.298 1.101 0.177 0.77 0.097 0.577 0.058 0.53 0.039 0.488 0.028 0.444 0.026 0.352 0.019 0.271 0.023 0.219 0.018 0.202 0.023 0.209 0.02 0.17 0.027 0.511" />
    <path class="write-flat-pen" transform="translate(-105.123,6.128)" fill="#FFFEFF" stroke-width="3" __comx="290.252" __comy="379.524" __timestamp="0x178ff427b9e" d="M388.298 375.283 l0.448 -0.417 0.061 0.014 0.538 0.017 1.041 0.124 1.419 0.191 1.74 0.198 3.733 0.271 1.911 0.041 1.75 0.017 1.229 -0.355 1.116 -0.28 -0.004 -0.244 -1.125 -0.245 -1.225 -0.316 -1.727 -0.002 -1.869 -0.022 -3.678 -0.215 -1.713 -0.152 -1.438 -0.135 -1.135 -0.055 -0.705 0.061 -0.436 0.125 -0.645 0.637" />
    <path class="write-flat-pen" transform="translate(-105.123,6.128)" fill="#FFFEFF" stroke-width="3" __comx="306.452" __comy="379.524" __timestamp="0x178ff427d60" d="M412.683 372.858 l0.244 -2.506 0.014 -0.056 0.024 -0.067 0.071 -0.123 -0.503 -0.029 -0.058 -0.027 -0.139 0.273 -0.313 0.685 -0.48 1.089 -0.594 1.483 -0.635 1.869 -0.543 1.978 -0.419 2.011 -0.195 1.891 0.061 1.709 0.304 1.595 0.556 1.495 0.784 1.272 0.995 0.969 0.946 0.274 1.238 0.394 0.163 -0.243 -0.83 -0.999 -0.494 -0.697 -0.77 -0.719 -0.622 -0.961 -0.494 -1.218 -0.3 -1.351 -0.103 -1.496 0.122 -1.729 0.326 -1.918 0.448 -1.927 0.522 -1.844 0.477 -1.489 0.364 -1.134 0.206 -0.768 0.053 -0.462 -0.067 -0.084 -0.503 -0.029 -0.004 0.156 -0.009 0.088 -0.011 0.082 -0.188 2.532" />
    <path class="write-flat-pen" transform="translate(-105.123,6.128)" fill="#FFFEFF" stroke-width="3" __comx="319.992" __comy="379.524" __timestamp="0x178ff427f75" d="M424.805 374.132 l-0.254 -0.949 -0.042 -0.214 -0.069 -0.264 -0.078 -0.227 -0.135 -0.257 -0.209 -0.265 -0.347 -0.267 -0.614 -0.178 -0.777 0.105 -0.874 0.511 -0.877 1.007 -0.732 1.402 -0.548 1.754 -0.323 1.928 -0.083 1.966 0.167 1.857 0.441 1.617 0.736 1.415 0.937 1.063 1.131 0.776 1.325 0.494 1.334 0.198 1.416 -0.101 1.4 -0.455 1.214 -0.73 1.128 -1.145 0.824 -1.558 0.454 -1.888 -0.019 -2.038 -0.395 -1.984 -0.704 -1.704 -0.88 -1.306 -0.97 -0.998 -0.94 -0.624 -1.014 -0.344 -1.098 0.057 -1.182 0.73 -0.828 1.36 -0.442 1.724 -0.106 1.754 0.125 1.656 0.298 1.424 0.874 2.294 0.635 1.001 0.67 0.757 0.779 0.524 0.962 0.227 0.628 -0.309 1.313 -0.666 -0.02 -0.428 -1.37 -0.537 -0.349 -0.262 -0.275 -0.063 -0.216 -0.144 -0.371 -0.416 -0.428 -0.668 -0.745 -1.925 -0.241 -1.115 -0.11 -1.369 0.075 -1.407 0.301 -1.223 0.39 -0.664 0.291 -0.191 0.163 -0.016 0.383 0.121 0.536 0.344 0.697 0.701 0.673 0.977 0.559 1.326 0.33 1.603 0.024 1.603 -0.327 1.41 -0.563 1.087 -0.744 0.77 -0.807 0.496 -0.961 0.324 -0.969 0.081 -0.929 -0.127 -0.922 -0.331 -0.753 -0.502 -0.64 -0.708 -0.553 -1.03 -0.361 -1.266 -0.164 -1.576 0.049 -1.74 0.252 -1.711 0.431 -1.513 0.532 -1.128 0.544 -0.713 0.375 -0.283 0.182 -0.07 0.089 -0.014 0.033 -0.006 0.062 0.037 0.068 0.068 0.066 0.095 0.096 0.181 0.076 0.165 0.301 0.928" />
    <path class="write-flat-pen" transform="translate(-105.123,6.128)" fill="#FFFEFF" stroke-width="3" __comx="328.564" __comy="379.524" __timestamp="0x178ff42808f" d="M430.839 367.178 l-0.38 0.93 0.095 0.547 0.22 0.75 0.447 0.997 0.627 1.149 0.784 1.372 0.823 1.567 0.737 1.759 0.573 1.847 0.338 1.748 0.068 1.687 -0.214 1.765 -0.518 1.755 -0.911 1.96 -1.201 2.014 -0.576 1.682 -0.39 0.957 0.252 0.173 0.753 -0.708 1.394 -1.188 1.268 -2.141 0.992 -2.157 0.581 -2.013 0.235 -2.038 -0.095 -1.945 -0.393 -1.955 -0.642 -2.003 -0.818 -1.888 -0.907 -1.642 -0.846 -1.368 -0.674 -1.063 -0.482 -0.848 -0.276 -0.579 -0.069 -0.119 0.209 -0.619" />
    <path class="write-flat-pen" transform="translate(-105.123,6.128)" fill="#FFFEFF" stroke-width="3" __comx="561.377" __comy="359.739" __timestamp="0x178ff4287b8" d="M572.102 351.343 l-0.1 -0.516 0.014 0.061 -0.009 0.071 -0.545 -0.104 -0.019 0.123 -0.004 0.24 -0.009 0.351 -0.014 0.49 -0.043 0.588 -0.053 0.72 -0.057 0.796 -0.041 0.817 -0.014 0.784 0.01 1.143 0.024 0.435 0.18 0.835 0.267 0.373 0.341 0.302 0.5 0.284 0.584 0.251 0.683 0.256 0.77 0.269 0.841 0.325 0.928 0.364 1.035 0.412 2.363 0.826 1.393 0.35 1.535 0.286 3.341 0.272 7.688 0.027 2.011 0.095 4.044 0.415 7.957 1.111 4.27 0.369 9.18 0.391 4.563 0.353 9.255 1.06 4.593 0.283 4.651 0.071 16.349 -0.551 8.741 -0.449 8.729 -0.613 6.696 -0.304 23.553 0.036 10.819 0.299 7.16 0.007 13.051 -0.276 1.534 -0.061 12.747 -0.606 0.962 -0.068 2.311 -0.22 1.666 -0.349 0.957 -0.554 0.728 -1.118 0.468 -1.86 0.893 -6.498 0.015 -1.182 -0.395 -0.704 -0.67 -1.415 -0.468 0.028 -0.497 1.484 -0.314 0.665 -0.005 0.957 -0.802 6.242 -0.323 1.383 -0.22 0.364 -0.18 0.114 -1.192 0.263 -2.159 0.22 -0.91 0.069 -12.709 0.663 -1.506 0.065 -13.006 0.328 -7.11 0.011 -10.818 -0.28 -23.626 -0.003 -6.766 0.313 -8.734 0.622 -8.705 0.457 -16.283 0.567 -4.558 -0.063 -4.498 -0.271 -9.241 -1.042 -4.633 -0.35 -9.173 -0.371 -4.181 -0.352 -7.947 -1.08 -4.131 -0.406 -2.104 -0.089 -7.661 0.03 -3.188 -0.225 -1.401 -0.242 -1.276 -0.296 -2.279 -0.741 -1.022 -0.374 -0.952 -0.337 -0.886 -0.303 -0.797 -0.236 -0.656 -0.201 -0.501 -0.17 -0.324 -0.144 -0.133 -0.088 -0.033 -0.021 -0.144 -0.46 -0.034 -0.301 -0.064 -1.098 -0.023 -0.751 -0.003 -0.792 0.006 -0.793 -0.004 -0.732 -0.019 -0.627 -0.061 -0.533 -0.071 -0.39 -0.088 -0.267 -0.067 -0.118 -0.545 -0.104 -0.032 0.107 0.019 0.156 0.146 0.552" />
    <path class="write-flat-pen" transform="translate(-105.123,6.128)" fill="#FFFEFF" stroke-width="3" __comx="536.958" __comy="390.897" __timestamp="0x178ff428b8e" d="M646.484 383.684 l0.375 0 0.086 0.031 0.178 0.006 0.235 -0.08 0.221 -0.145 0.219 -0.212 0.207 -0.285 0.157 -0.311 0.107 -0.389 0.013 -0.431 -0.194 -0.556 -0.539 -0.516 -0.823 -0.297 -1.008 -0.033 -1.076 0.19 -1.121 0.404 -1.075 0.602 -0.948 0.764 -0.817 1.011 -0.62 1.265 -0.418 1.42 -0.202 1.341 0 1.168 0.188 0.984 0.392 0.777 0.869 0.65 1.314 0.091 1.454 -0.63 1.339 -1.125 1.178 -1.33 1.532 -2.198 0.694 -1.368 0.239 -0.968 -0.197 -1.267 -1.775 -0.525 -0.614 1.843 -0.088 1.227 0.559 6.745 0.084 3.618 -0.134 1.642 -0.286 1.519 -0.4 1.26 -0.455 0.936 -0.483 0.654 -0.874 0.732 -0.516 0.18 -1.028 0.055 -1.362 -0.184 -1.473 -0.422 -1.023 -0.472 -0.57 -0.44 -0.233 -0.314 -0.082 -0.316 0.098 -0.556 0.52 -0.862 0.287 -1.027 0.531 -1.266 -0.333 -0.293 -1.188 0.688 -1.116 0.569 -0.836 1.398 -0.246 1.453 0.326 1.203 0.678 0.898 1.011 0.774 1.406 0.643 1.791 0.507 1.728 0.228 1.547 -0.09 1.185 -0.421 1.375 -1.162 0.754 -1.026 0.608 -1.26 0.485 -1.538 0.327 -1.763 0.147 -1.868 -0.099 -3.797 -0.598 -6.65 0.041 -0.812 -0.112 0.279 -1.347 -0.402 -0.053 -0.391 -0.078 0.359 -0.515 1.049 -1.371 2.003 -1.001 1.147 -1.009 0.865 -0.773 0.348 -0.304 -0.01 -0.081 -0.051 -0.085 -0.153 -0.118 -0.556 -0.015 -0.859 0.145 -1.088 0.319 -1.166 0.447 -0.966 0.561 -0.733 0.681 -0.582 0.82 -0.496 0.857 -0.347 0.783 -0.181 0.621 -0.028 0.34 0.072 0.115 0.055 0.039 0.016 0.027 0.055 0 0.158 -0.029 0.165 -0.06 0.198 -0.055 0.154 -0.031 0.101 -0.006 0.068 -0.005 0.055 -0.011 0.043 -0.354 0.033" />
    <path class="write-flat-pen" transform="translate(-105.123,6.128)" fill="#FFFEFF" stroke-width="3" __comx="554.346" __comy="390.897" __timestamp="0x178ff428d60" d="M660.247 373.758 l0.129 -0.426 0.034 -0.016 0.074 -0.063 0.085 -0.085 0.078 -0.087 0.066 -0.096 0.071 -0.163 0.036 -0.401 -0.433 -0.505 -0.727 0.052 -0.748 0.466 -0.821 0.9 -0.892 1.443 -0.826 1.848 -0.631 2.055 -0.431 2.089 -0.158 2.051 0.096 2.036 0.378 1.915 0.706 1.745 0.971 1.329 1.269 0.98 1.606 0.51 1.697 -0.023 1.083 -0.656 1.12 -0.619 -0.076 -0.353 -1.276 -0.097 -1.07 -0.187 -1.196 0.02 -0.996 -0.31 -0.798 -0.602 -0.686 -0.919 -0.57 -1.36 -0.334 -1.606 -0.105 -1.787 0.119 -1.83 0.363 -1.905 0.545 -1.89 0.696 -1.683 0.704 -1.284 0.536 -0.736 0.265 -0.285 -0.206 -0.036 -0.236 -0.314 0.038 -0.198 0.032 -0.037 0.009 0.025 -0.017 0.086 -0.028 0.12 -0.031 0.132 -0.018 0.109 -0.116 0.474" />
    <path class="write-flat-pen" transform="translate(-105.123,6.128)" fill="#FFFEFF" stroke-width="3" __comx="562.995" __comy="390.897" __timestamp="0x178ff428f75" d="M669.101 376.218 l-0.427 0.46 0.251 -0.093 0.1 -0.004 -0.097 -0.041 -0.239 -0.026 -0.333 0.06 -0.393 0.197 -0.509 0.41 -0.57 0.649 -0.635 0.843 -0.653 0.947 -0.691 0.988 -0.672 1.039 -0.623 1.184 -0.51 1.353 -0.278 1.62 0.015 1.634 0.286 1.41 0.551 1.215 0.819 0.96 1.026 0.621 1.281 0.254 1.479 -0.274 1.435 -0.871 1.218 -1.311 1.016 -1.537 0.73 -1.539 0.48 -1.527 0.219 -1.539 -0.095 -1.689 -0.393 -1.69 -0.595 -1.535 -0.71 -1.336 -0.729 -0.942 -0.843 -0.602 -1.29 -0.056 -1.244 0.974 -0.787 1.44 -0.492 1.608 -0.229 1.531 -0.04 1.457 0.387 2.266 0.427 0.976 1.03 1.111 0.857 0.274 0.533 -0.209 1.354 -0.575 0.023 -0.431 -1.285 -0.714 -0.224 -0.249 -0.038 -0.012 -0.387 -0.415 -0.172 -0.39 -0.312 -1.79 0.025 -1.11 0.18 -1.243 0.372 -1.246 0.461 -0.863 0.269 -0.223 -0.129 -0.011 0.08 0.052 0.436 0.549 0.578 1.061 0.508 1.278 0.332 1.369 0.085 1.308 -0.156 1.174 -0.377 1.236 -0.599 1.288 -0.837 1.288 -0.909 0.997 -0.884 0.55 -0.75 0.15 -0.576 -0.107 -0.47 -0.274 -0.447 -0.509 -0.36 -0.765 -0.22 -1.017 -0.031 -1.285 0.2 -1.286 0.387 -1.092 0.512 -1.027 0.588 -0.966 0.647 -0.998 0.597 -0.968 0.531 -0.828 0.399 -0.587 0.26 -0.321 0.077 -0.104 -0.04 -0.027 -0.1 -0.025 -0.028 -0.022 0.219 0.026 0.319 -0.114 0.595 -0.721" />
    <path class="write-flat-pen" transform="translate(-105.123,6.128)" fill="#FFFEFF" stroke-width="3" __comx="571.797" __comy="390.897" __timestamp="0x178ff429115" d="M674.896 372.248 l-0.102 -0.408 0.026 -0.008 0.044 -0.061 0.045 -0.061 0.046 -0.023 0.024 0.035 0.013 0.053 0.055 0.05 0.246 0.143 0.455 0.438 0.59 0.876 0.622 1.403 0.479 1.81 0.332 1.896 0.213 3.74 -0.072 1.694 -0.527 3.469 -0.403 1.405 -0.486 1.15 -0.116 0.908 -0.262 1.285 0.281 0.153 0.937 -0.918 0.743 -0.67 0.548 -1.336 0.448 -1.617 0.518 -3.675 0.057 -1.87 -0.27 -3.914 -0.387 -2.054 -0.564 -1.993 -0.781 -1.634 -0.839 -1.102 -0.848 -0.642 -0.789 -0.207 -0.61 0.135 -0.35 0.318 -0.133 0.293 -0.025 0.236 0.018 0.171 0.038 0.162 0.042 0.099 0.128 0.439" />
    <path class="write-flat-pen" transform="translate(-105.123,6.128)" fill="#FFFEFF" stroke-width="3" __comx="696.773" __comy="460.785" __timestamp="0x178ff4319f3" d="M800.714 453.907 l-0.219 -0.012 1.261 0.103 0.205 0.004 0.265 0.074 0.051 0.045 0.079 0.1 0.011 0.03 0.033 0.104 0.003 0.043 0.006 0.065 0.01 0.079 0.014 0.108 0.014 0.111 0.019 0.168 0.014 0.193 0.005 0.297 -0.026 0.422 -0.081 0.523 -0.14 0.594 -0.159 0.596 -0.338 1.123 -0.069 0.182 -0.43 0.786 -0.126 0.182 -0.381 0.607 -0.068 0.184 -0.015 -0.056 0.538 -0.339 0.259 0.155 -0.99 -0.096 -0.324 0.88 0.815 0.569 0.398 0.206 0.635 -0.397 0.095 -0.519 -0.011 0.012 0.246 -0.482 0.132 -0.222 0.45 -0.953 0.101 -0.31 0.299 -1.204 0.129 -0.656 0.096 -0.687 0.017 -0.651 -0.063 -0.539 -0.098 -0.378 -0.09 -0.238 -0.086 -0.183 -0.059 -0.111 -0.058 -0.102 -0.043 -0.073 -0.045 -0.079 -0.06 -0.094 -0.128 -0.147 -0.083 -0.075 -0.176 -0.115 -0.167 -0.075 -0.381 -0.05 -0.232 0.007 -1.252 -0.047 -0.12 0.415" />
    <path class="write-flat-pen" fill="#008000" stroke-width="3.5" __comx="352.783" __comy="52.859" __timestamp="0x178ffb035b6" d="M354.716 53.283 l-2.44 -0.541 -1.394 -0.342 -0.032 0.132 1.394 0.342 2.413 0.65" />
    <path class="write-flat-pen" fill="#008000" stroke-width="3.5" __comx="323.073" __comy="32.58" __timestamp="0x178ffb03fc2" d="M328.408 30.656 l4.483 -1.469 4.441 -1.751 0.08 0.015 -0.055 -0.439 -0.139 -0.012 -0.562 -0.002 -1.126 0.008 -1.751 -0.015 -2.389 0.01 -2.798 0.099 -6.442 0.561 -3.338 0.503 -6.486 1.5 -3.04 1.046 -2.911 1.371 -2.73 1.769 -2.422 2.223 -2.113 2.548 -1.685 2.656 -1.195 2.458 -0.817 2.325 -0.3 2.07 0.169 2.025 0.781 2.023 1.46 1.89 2.114 1.616 2.809 1.25 3.398 0.86 3.869 0.539 4.257 0.259 8.627 -0.064 4.154 -0.386 3.918 -0.656 7.041 -1.821 2.998 -1.103 4.73 -2.269 1.797 -1.145 2.507 -2.329 0.848 -1.463 0.445 -1.666 -0.003 -2.021 -0.521 -2.2 -0.958 -2.073 -1.325 -1.947 -1.589 -1.661 -1.879 -1.44 -2.284 -1.193 -2.536 -0.86 -2.858 -0.665 -3.103 -0.458 -6.424 -0.367 -8.827 0.279 -0.174 0.087 -1.816 0.835 0.015 0.377 1.876 0.692 0.173 0.073 8.729 -0.294 6.244 0.339 2.933 0.422 2.684 0.614 2.301 0.766 2.002 1.032 1.632 1.233 1.383 1.425 1.158 1.672 0.825 1.748 0.446 1.797 0.023 1.557 -0.298 1.197 -0.572 1.025 -2.159 2.067 -1.558 1.024 -4.535 2.245 -2.834 1.078 -6.876 1.85 -3.788 0.669 -4.03 0.406 -8.511 0.125 -4.153 -0.231 -3.739 -0.504 -3.209 -0.802 -2.552 -1.129 -1.842 -1.404 -1.227 -1.586 -0.64 -1.648 -0.144 -1.672 0.252 -1.784 0.739 -2.129 1.116 -2.325 1.588 -2.528 1.986 -2.428 2.262 -2.106 2.554 -1.685 2.763 -1.329 2.907 -1.033 6.366 -1.546 3.256 -0.534 6.376 -0.669 2.76 -0.175 2.374 -0.1 1.759 -0.088 1.139 -0.11 0.588 -0.091 0.152 -0.063 -0.055 -0.439 -0.139 0.031 -4.452 1.864 -4.454 1.526" />
    <path class="write-flat-pen" fill="#0000FF" stroke-width="3.5" __comx="173.38" __comy="177.014" __timestamp="0x178ffb04633" d="M189.166 180.136 l-0.246 -0.978 -0.102 -0.45 -0.143 -0.619 -0.183 -0.654 -0.251 -0.684 -0.336 -0.739 -1.042 -1.632 -0.803 -0.987 -2.105 -2.24 -2.552 -2.218 -1.507 -1 -1.691 -0.787 -1.794 -0.475 -2.074 -0.106 -2.276 0.423 -2.532 1.002 -2.591 1.447 -2.632 1.894 -2.579 2.38 -2.289 2.837 -1.868 3.2 -1.344 3.497 -0.855 3.76 -0.27 3.893 0.331 3.908 0.922 3.7 1.487 3.151 2.018 2.58 2.358 2.025 2.717 1.502 2.874 0.834 3.07 0.241 3.187 -0.414 3.142 -1.034 2.822 -1.473 2.556 -1.904 2.296 -2.397 1.92 -2.706 1.55 -2.942 1.22 -3.003 0.924 -3.067 0.635 -3.083 0.529 -5.682 -0.197 -4.128 -0.85 -2.917 -0.87 -1.203 -1.287 -0.934 -1.11 -0.122 -1.823 -0.203 -0.155 0.36 1.402 1.182 0.641 0.63 0.836 0.592 0.471 0.635 0.709 2.33 0.216 3.741 -0.465 5.436 -0.575 2.895 -0.854 2.902 -1.135 2.837 -1.435 2.752 -1.759 2.495 -2.086 2.188 -2.307 1.725 -2.552 1.336 -2.828 0.933 -2.819 0.366 -2.686 -0.211 -2.49 -0.723 -2.367 -1.308 -2.074 -1.78 -1.778 -2.268 -1.32 -2.796 -0.846 -3.377 -0.311 -3.618 0.24 -3.61 0.786 -3.494 1.232 -3.242 1.715 -2.961 2.108 -2.639 2.393 -2.229 2.452 -1.788 2.394 -1.36 2.264 -0.92 1.914 -0.376 1.703 0.07 1.489 0.378 1.453 0.659 1.326 0.861 2.44 2.071 2.064 2.106 0.753 0.862 1.027 1.436 0.324 0.594 0.274 0.579 0.23 0.575 0.224 0.582 0.175 0.43 0.351 0.944" />
    <path class="write-flat-pen" fill="#0000FF" stroke-width="3.5" __comx="437.392" __comy="183.17" __timestamp="0x178ffb04a9e" d="M448.898 185.33 l-0.202 -0.048 -0.18 -0.073 -0.4 -0.141 -0.499 -0.189 -0.501 -0.219 -0.866 -0.569 -0.396 -0.43 -0.369 -0.564 -1.248 -3.862 -1.027 -2.379 -0.742 -1.091 -1.059 -0.964 -0.94 -0.565 -1.145 -0.465 -1.368 -0.352 -1.722 -0.215 -1.991 -0.004 -2.321 0.264 -2.636 0.599 -2.749 0.963 -2.762 1.431 -2.64 1.907 -2.294 2.15 -2.016 2.454 -1.713 2.699 -1.46 2.898 -1.183 3.149 -0.818 3.134 -0.42 3.014 -0.075 2.818 0.437 2.746 1.03 2.672 1.731 2.58 2.466 2.373 3.174 1.953 3.681 1.477 4.173 0.925 4.446 0.361 4.533 -0.137 4.525 -0.604 4.26 -1.054 3.88 -1.29 3.411 -1.498 2.943 -1.56 2.457 -1.605 2.023 -1.724 1.632 -1.993 1.171 -2.441 0.498 -2.901 -0.193 -3.195 -0.867 -3.256 -1.521 -3.31 -1.962 -3.069 -2.332 -2.869 -2.433 -2.466 -2.357 -2.037 -3.856 -2.828 -1.367 -0.365 -1.649 -0.498 -0.233 0.359 1.129 1.301 0.839 1.064 3.741 2.726 2.231 1.911 2.305 2.319 2.199 2.678 1.826 2.829 1.396 2.997 0.777 2.865 0.179 2.731 -0.395 2.367 -0.922 1.951 -1.343 1.659 -1.77 1.524 -2.261 1.489 -2.786 1.491 -3.249 1.439 -3.71 1.248 -4.071 1.021 -4.311 0.589 -4.319 0.142 -4.201 -0.326 -3.887 -0.847 -3.383 -1.342 -2.863 -1.744 -2.177 -2.075 -1.508 -2.224 -0.893 -2.282 -0.389 -2.375 0.055 -2.539 0.38 -2.804 0.753 -2.94 1.101 -2.972 1.363 -2.737 1.592 -2.541 1.855 -2.297 2.111 -2.016 2.428 -1.799 2.531 -1.356 2.537 -0.948 2.455 -0.622 2.15 -0.321 1.829 -0.077 1.574 0.104 1.235 0.228 1.019 0.327 0.806 0.409 0.932 0.762 0.632 0.904 0.964 2.259 1.327 3.928 0.512 0.714 0.555 0.534 1.075 0.568 0.617 0.169 0.566 0.1 0.447 0.027 0.209 -0.006 0.218 -0.001" />
  </g>
</svg>
