<svg class="write-page" color-interpolation="linearRGB" width="982px" height="1584px" xmlns="http://www.w3.org/2000/svg" xmlns:xlink="http://www.w3.org/1999/xlink">
  <g class="write-content write-v3" width="982" height="1584" xruling="30" yruling="30" marginLeft="30" papercolor="#000000" rulecolor="#0D9D00FF">
    <g class="ruleline write-std-ruling write-scale-down" fill="none" stroke="#9D00FF" stroke-opacity="0.051" stroke-width="1" shape-rendering="crispEdges" vector-effect="non-scaling-stroke">
      <rect class="pagerect" fill="#000000" stroke="none" x="0" y="0" width="982" height="1584" />
      <path class="yrule_1" d="M0 30 l982 0" />
      <path d="M0 60 l982 0" />
      <path d="M0 90 l982 0" />
      <path d="M0 120 l982 0" />
      <path d="M0 150 l982 0" />
      <path d="M0 180 l982 0" />
      <path d="M0 210 l982 0" />
      <path d="M0 240 l982 0" />
      <path d="M0 270 l982 0" />
      <path d="M0 300 l982 0" />
      <path d="M0 330 l982 0" />
      <path d="M0 360 l982 0" />
      <path d="M0 390 l982 0" />
      <path d="M0 420 l982 0" />
      <path d="M0 450 l982 0" />
      <path d="M0 480 l982 0" />
      <path d="M0 510 l982 0" />
      <path d="M0 540 l982 0" />
      <path d="M0 570 l982 0" />
      <path d="M0 600 l982 0" />
      <path d="M0 630 l982 0" />
      <path d="M0 660 l982 0" />
      <path d="M0 690 l982 0" />
      <path d="M0 720 l982 0" />
      <path d="M0 750 l982 0" />
      <path d="M0 780 l982 0" />
      <path d="M0 810 l982 0" />
      <path d="M0 840 l982 0" />
      <path d="M0 870 l982 0" />
      <path d="M0 900 l982 0" />
      <path d="M0 930 l982 0" />
      <path d="M0 960 l982 0" />
      <path d="M0 990 l982 0" />
      <path d="M0 1020 l982 0" />
      <path d="M0 1050 l982 0" />
      <path d="M0 1080 l982 0" />
      <path d="M0 1110 l982 0" />
      <path d="M0 1140 l982 0" />
      <path d="M0 1170 l982 0" />
      <path d="M0 1200 l982 0" />
      <path d="M0 1230 l982 0" />
      <path d="M0 1260 l982 0" />
      <path d="M0 1290 l982 0" />
      <path d="M0 1320 l982 0" />
      <path d="M0 1350 l982 0" />
      <path d="M0 1380 l982 0" />
      <path d="M0 1410 l982 0" />
      <path d="M0 1440 l982 0" />
      <path d="M0 1470 l982 0" />
      <path d="M0 1500 l982 0" />
      <path d="M0 1530 l982 0" />
      <path d="M0 1560 l982 0" />
      <path class="xrule_1" d="M30 0 l0 1584" />
      <path d="M60 0 l0 1584" />
      <path d="M90 0 l0 1584" />
      <path d="M120 0 l0 1584" />
      <path d="M150 0 l0 1584" />
      <path d="M180 0 l0 1584" />
      <path d="M210 0 l0 1584" />
      <path d="M240 0 l0 1584" />
      <path d="M270 0 l0 1584" />
      <path d="M300 0 l0 1584" />
      <path d="M330 0 l0 1584" />
      <path d="M360 0 l0 1584" />
      <path d="M390 0 l0 1584" />
      <path d="M420 0 l0 1584" />
      <path d="M450 0 l0 1584" />
      <path d="M480 0 l0 1584" />
      <path d="M510 0 l0 1584" />
      <path d="M540 0 l0 1584" />
      <path d="M570 0 l0 1584" />
      <path d="M600 0 l0 1584" />
      <path d="M630 0 l0 1584" />
      <path d="M660 0 l0 1584" />
      <path d="M690 0 l0 1584" />
      <path d="M720 0 l0 1584" />
      <path d="M750 0 l0 1584" />
      <path d="M780 0 l0 1584" />
      <path d="M810 0 l0 1584" />
      <path d="M840 0 l0 1584" />
      <path d="M870 0 l0 1584" />
      <path d="M900 0 l0 1584" />
      <path d="M930 0 l0 1584" />
      <path d="M960 0 l0 1584" />
      <path class="leftmargin" stroke="#FF0000" d="M30 0 l0 1584" />
    </g>
    <path class="write-flat-pen" transform="translate(-13.494,-0.982)" fill="#FFFFFF" stroke-width="1.8" __comx="40.691" __comy="46.146" __timestamp="0x177ebc09c57" d="M51.804 34.437 l0.218 0.325 -0.046 0.012 0.021 0.302 0.039 0.258 0.174 0.715 0.082 0.39 0.597 2.337 0.209 0.744 1.075 4.975 0.639 5.965 0.061 3.608 -0.332 1.701 0.076 -0.051 0.09 -0.061 -0.004 0.077 -0.705 0.849 0.121 0.307 1.095 0.138 0.311 -0.048 0.2 -0.16 0.295 -0.297 0.545 -2.286 -0.067 -3.883 -0.678 -6.13 -1.158 -5.108 -0.242 -0.785 -0.722 -2.285 -0.137 -0.412 -0.306 -0.694 -0.112 -0.238 -0.194 -0.316 -0.136 -0.188 -0.474 -0.329" />
    <path class="write-flat-pen" transform="translate(-13.494,-0.982)" fill="#FFFFFF" stroke-width="1.8" __comx="46.487" __comy="46.146" __timestamp="0x177ebc09ec8" d="M54.609 39.367 l-0.582 -0.275 -0.116 -0.077 -0.591 -0.355 -0.202 -0.135 -0.831 -0.567 -0.085 -0.085 -0.906 -1.299 0.001 -0.021 0.015 -0.665 0.444 -1.04 1.071 -1.195 1.517 -1.042 2.224 -0.879 2.515 -0.346 2.508 0.172 1.68 0.496 1.804 1 1.355 1.316 0.693 1.104 0.554 1.581 0.105 1.142 -0.238 1.109 -0.596 1.036 -0.952 0.952 -1.925 1.183 -7.107 2.981 -1.051 0.754 0 0 -0.122 1.349 0.599 0.624 3.333 1.334 2.334 1.364 1.954 1.676 3.822 4.488 0.063 0.071 0.227 0.199 1.881 0.89 0.284 -0.299 -0.96 -1.812 -0.126 -0.162 -0.019 -0.027 -3.895 -4.618 -2.186 -1.875 -2.589 -1.512 -3.098 -1.239 -0.333 -0.345 -0.122 1.349 0 0 0.885 -0.639 7.039 -2.973 2.216 -1.369 1.26 -1.268 0.844 -1.48 0.344 -1.641 -0.156 -1.619 -0.691 -1.966 -0.909 -1.446 -1.673 -1.62 -2.175 -1.201 -2.045 -0.6 -2.875 -0.192 -2.896 0.405 -2.594 1.037 -1.839 1.281 -1.376 1.577 -0.643 1.614 0.02 1.223 0.162 0.518 1.298 1.59 0.324 0.241 1.021 0.509 0.301 0.127 0.748 0.198 0.192 0.03 0.665 0.081" />
    <path class="write-flat-pen" transform="translate(-13.494,-0.982)" fill="#FFFFFF" stroke-width="1.8" __comx="66.917" __comy="46.146" __timestamp="0x177ebc0a0b1" d="M76.356 49.6 l-0.838 0.112 -0.262 0.519 0.29 0.578 0.341 0.207 0.497 0.201 0.278 0.066 1.469 0.123 0.418 -0.029 1.586 -0.356 2.038 -1.005 1.41 -1.165 0.948 -1.374 0.052 -1.349 -1.049 -0.98 -1.787 -0.108 -1.609 0.447 -1.969 1.14 -1.196 1.15 -0.938 1.649 -0.616 2.067 -0.222 2.601 0.515 2.037 0.81 1.015 1.587 0.8 1.488 0.2 2.325 -0.567 0.502 -0.237 0.742 -0.443 0.334 -0.237 0.358 -0.283 0.322 -0.296 0.278 -0.32 1.168 -1.571 -0.192 -0.241 -1.793 0.785 -0.351 0.181 -0.324 0.178 -0.351 0.185 -0.304 0.16 -0.671 0.335 -0.292 0.123 -1.841 0.425 -0.859 -0.116 -0.969 -0.487 -0.325 -0.406 -0.349 -1.371 0.175 -2.121 0.499 -1.701 0.703 -1.256 0.853 -0.828 1.59 -0.922 1.112 -0.309 0.867 0.051 0.007 0.004 0.001 0.046 -0.52 0.764 -1.065 0.895 -1.673 0.854 -1.268 0.324 -0.191 0.024 -1.271 0.008 -0.116 -0.002 -0.347 -0.032 0.036 0.063 0.112 0.321 -0.244 0.48 0.309 -0.195" />
    <path class="write-flat-pen" transform="translate(-13.494,-0.982)" fill="#FFFFFF" stroke-width="1.8" __comx="80.644" __comy="46.146" __timestamp="0x177ebc0a20f" d="M89.349 45.302 l0.295 0.624 0.072 0.176 0.254 0.591 0.159 0.308 0.437 0.936 0.206 0.421 0.84 2.155 0.169 0.534 2.023 4.694 0.396 0.425 1.226 0.431 1.479 -1.02 0.758 -1.525 1.147 -6.094 0.037 -0.328 0.081 -1.048 0.001 -0.069 -0.004 -0.094 -0.54 -1.986 -0.3 -0.021 -0.814 1.881 -0.018 0.076 -0.01 0.045 -0.145 1.011 -0.036 0.257 -1.119 5.792 -0.441 0.89 -0.347 0.243 0.048 0.02 0.112 0.121 -1.912 -4.319 -0.174 -0.512 -0.974 -2.254 -0.267 -0.474 -0.54 -0.932 -0.217 -0.312 -0.411 -0.554 -0.156 -0.145 -0.411 -0.508" />
    <path class="write-flat-pen" transform="translate(-13.494,-0.982)" fill="#FFFFFF" stroke-width="1.8" __comx="91.227" __comy="46.146" __timestamp="0x177ebc0a2ff" d="M103.377 47.662 l-0.059 0.785 0.007 0.236 0.12 0.896 0.066 0.347 0.374 1.799 0.075 0.452 0.423 3.435 0.81 1.128 0.823 -0.459 0.111 -0.41 -0.01 -0.869 -0.159 -0.089 -0.748 0.443 -0.098 -0.04 0.597 -0.351 0.173 0.108 -0.453 -3.133 -0.112 -0.529 -0.525 -1.81 -0.108 -0.325 -0.273 -0.8 -0.049 -0.129 -0.124 -0.72" />
    <path class="write-flat-pen" transform="translate(-13.494,-0.982)" fill="#FFFFFF" stroke-width="1.8" __comx="92.228" __comy="46.146" __timestamp="0x177ebc0a395" d="M105.629 39.711 l-0.483 0.814 -0.07 0.227 -0.122 1.402 0.361 1.202 0.159 0.322 0.821 1.55 0.197 -0.059 -0.163 -1.747 -0.036 -0.332 -0.185 -1.042 0.027 -1.136 0 -0.052 0.234 -0.828" />
    <path class="write-flat-pen" transform="translate(-13.494,-0.982)" fill="#FFFFFF" stroke-width="1.8" __comx="104.566" __comy="46.146" __timestamp="0x177ebc0a539" d="M113.418 49.984 l-0.306 0.76 0.202 0.358 0.293 0.371 0.247 0.193 0.996 0.468 0.367 0.105 2.563 0.3 0.584 -0.088 1.735 -0.493 1.256 -0.796 0.919 -1.101 0.428 -1.436 -0.27 -1.251 -0.826 -1.14 -1.326 -0.882 -2.212 -0.632 -1.605 0.082 -1.517 0.757 -1.31 1.347 -0.939 1.789 -0.548 2.084 -0.252 2.662 0.35 1.818 0.787 1.546 1.284 1.345 1.463 0.71 1.806 0.223 1.894 -0.466 2.071 -1.086 0.486 -0.351 0.768 -0.705 0.251 -0.319 0.277 -0.379 0.165 -0.32 0.723 -1.744 -0.21 -0.164 -1.516 1.125 -0.235 0.193 -0.315 0.266 -0.226 0.199 -0.691 0.511 -0.348 0.219 -1.814 0.899 -1.384 0.338 -1.199 -0.145 -0.92 -0.442 -0.895 -0.929 -0.567 -1.098 -0.266 -1.333 0.204 -2.278 0.455 -1.764 0.728 -1.402 0.935 -0.966 0.943 -0.469 0.97 -0.046 1.685 0.489 0.85 0.568 0.437 0.602 0.104 0.475 -0.2 0.685 -0.523 0.637 -0.825 0.536 -1.397 0.423 -0.274 0.049 -2.252 -0.157 -0.172 -0.03 -0.828 -0.237 -0.067 -0.016 -0.222 -0.102 0.101 0.209 0.006 -0.321" />
    <path class="write-flat-pen" transform="translate(-13.494,-0.982)" fill="#FFFFFF" stroke-width="1.8" __comx="122.47" __comy="46.146" __timestamp="0x177ebc0a788" d="M127.575 47.242 l0.255 -0.121 -0.426 -0.043 -0.083 0.04 -0.031 0.003 0.118 0.404 0.043 0.185 0.179 0.903 0.064 0.349 0.401 2.59 0.058 0.409 0.394 2.846 0.649 1.194 1.103 0.644 1.261 -0.143 1.592 -1.178 1.764 -2.32 -0.346 0.164 1.483 1.43 1.814 1.165 1.638 0.488 1.818 -0.02 1.586 -0.658 1.105 -1.079 0.706 -1.421 0.273 -1.708 -0.119 -1.875 -0.717 -2.91 -1.631 -3.885 -0.237 -0.202 -1.35 -0.465 -0.293 0.284 0.423 1.364 -0.039 0.003 1.42 3.463 0.647 2.623 0.098 1.516 -0.197 1.243 -0.448 0.908 -0.642 0.63 -0.951 0.399 -1.206 0.018 -1.143 -0.336 -1.46 -0.932 -2.241 -2.16 -1.141 0.548 -1.876 2.448 -1.007 0.747 -0.204 0.025 -0.171 -0.097 -0.266 -0.479 -0.378 -2.532 -0.068 -0.43 -0.49 -2.63 -0.1 -0.408 -0.299 -0.979 -0.137 -0.314 -0.319 -0.495 -0.157 -0.187 -0.401 -0.242 -0.489 -0.052 -0.471 0.713" />
    <path class="write-flat-pen" transform="translate(-13.494,-0.982)" fill="#FFFFFF" stroke-width="1.8" __comx="149.499" __comy="46.146" __timestamp="0x177ebc0a986" d="M163.394 54.644 l-1.279 1.44 -0.017 0.02 0.105 -0.023 0.347 0.231 -0.709 0.019 -0.266 0.549 0.426 0.568 0.45 0.281 0.764 -0.635 0.074 -0.106 1.126 -1.512" />
    <path class="write-flat-pen" transform="translate(-13.494,-0.982)" fill="#FFFFFF" stroke-width="1.8" __comx="147.625" __comy="46.146" __timestamp="0x177ebc0aa36" d="M161.981 32.682 l-0.41 -1.017 -0.18 -0.239 -0.446 -0.044 -0.688 0.629 0.467 0.479 0.346 -0.061 0.276 -0.61 -0.688 0.629 0.002 0.077 -0.141 -0.188 0.542 0.821" />
    <path class="write-flat-pen" transform="translate(-13.494,-0.982)" fill="#FFFFFF" stroke-width="1.8" __comx="193.486" __comy="46.146" __timestamp="0x177ebc0ae16" d="M208.255 37.298 l0.39 -0.784 0.094 -0.132 0.292 -0.493 0.131 -0.273 0.349 -0.91 0.036 -0.231 -0.065 -1.059 -0.219 -0.448 -0.794 -0.774 -1.615 -0.324 -2.476 0.706 -2.939 1.547 -2.046 1.599 -1.768 2.066 -1.827 3.232 -0.959 2.582 -0.504 2.78 -0.182 3.752 0.467 2.944 0.907 2.631 1.376 2.25 1.247 1.245 1.636 0.882 1.963 0.458 2.217 0.048 2.434 -0.504 2.49 -0.958 3.383 -1.908 2.917 -2.309 2.129 -2.537 1.409 -2.802 0.786 -3.015 0.294 -3.442 -0.47 -2.462 -0.757 -1.645 -1.215 -1.621 -2.122 -1.906 -2.951 -1.841 -2.624 -1.074 -2.229 -0.506 -2.31 -0.075 -1.833 0.93 -0.389 0.498 -0.467 0.904 -0.179 0.545 -0.113 0.531 -0.065 0.54 -0.009 0.552 0.079 0.599 0.339 1.783 0.242 0.012 0.52 -1.739 0.137 -0.538 0.116 -0.431 0.134 -0.414 0.145 -0.393 0.159 -0.343 0.397 -0.636 0.073 -0.075 1.103 -0.527 1.689 0.062 1.919 0.437 2.346 0.96 2.689 1.678 1.875 1.683 0.996 1.327 0.586 1.273 0.383 2.005 -0.259 3.044 -0.698 2.685 -1.229 2.447 -1.876 2.24 -2.663 2.111 -3.147 1.777 -2.232 0.86 -2.093 0.435 -1.83 -0.038 -1.552 -0.36 -1.2 -0.645 -0.916 -0.912 -1.17 -1.904 -0.8 -2.301 -0.42 -2.612 0.16 -3.457 0.452 -2.516 0.855 -2.308 1.675 -2.965 1.545 -1.806 1.786 -1.398 2.642 -1.4 1.909 -0.567 0.75 0.12 0.272 0.216 -0.024 -0.069 0.124 0.58 0.015 -0.058 -0.147 0.801 -0.05 0.218 -0.136 0.501 -0.058 0.186 -0.208 0.907" />
    <path class="write-flat-pen" transform="translate(-13.494,-0.982)" fill="#FFFFFF" stroke-width="1.8" __comx="200.171" __comy="46.146" __timestamp="0x177ebc0afed" d="M205.538 53.123 l-0.627 -0.217 0.094 0.028 -0.059 -0.249 0.034 -0.002 0.129 -0.494 0.07 -0.14 0.834 -1.45 0.298 -0.396 1.045 -1.112 1.275 -0.875 0.874 -0.311 0.43 0.051 0.311 0.213 0.942 1.524 1.406 3.593 1.525 2.765 1.097 1.183 1.701 1.106 2.573 0.64 0.599 0.034 1.032 -0.096 0.435 -0.088 0.454 -0.18 1.705 -0.806 -0.059 -0.29 -1.885 -0.073 -0.425 -0.001 -0.327 -0.007 -0.888 -0.032 -0.363 -0.051 -2.156 -0.615 -1.295 -0.849 -0.815 -0.877 -1.372 -2.484 -1.418 -3.634 -1.214 -1.964 -0.957 -0.649 -1.238 -0.143 -1.456 0.523 -1.603 1.121 -1.213 1.342 -0.405 0.576 -0.838 1.694 -0.13 0.41 -0.043 0.915 0.141 0.458 0.47 0.509 0.288 0.159 0.879 0.051" />
    <path class="write-flat-pen" transform="translate(-13.494,-0.982)" fill="#FFFFFF" stroke-width="1.8" __comx="220.437" __comy="46.146" __timestamp="0x177ebc0b234" d="M228.357 46.928 l-0.784 -0.245 -0.212 0.356 -0.268 0.434 -0.079 0.178 -0.271 0.755 -0.097 0.359 -0.309 1.63 -0.062 0.521 -0.064 2.372 0.101 0.597 0.389 1.605 0.899 1.432 1.491 0.934 1.58 0.046 1.601 -0.618 1.49 -1.162 1.508 -1.991 0.873 -2.014 0.677 -2.818 0 0 0.174 -2.445 0 0 -0.748 -0.35 0 0 -1.263 0.786 -0.034 2.002 0.415 2.477 1.011 3.073 0.869 1.451 1.563 1.021 0.458 0.084 0.199 0.021 0.394 -0.045 0.071 -0.016 1.724 -0.59 -0.005 -0.439 -1.738 -0.548 -0.072 -0.014 -0.26 -0.037 -0.005 -0.01 -0.074 -0.032 -0.937 -0.649 -0.563 -0.94 -0.911 -2.757 -0.366 -2.182 0.035 -1.839 -1.263 0.786 0 0 -0.357 -0.166 0 0 -0.079 1.083 0 0 -0.606 2.526 -0.725 1.678 -1.237 1.638 -1.099 0.863 -1.025 0.402 -0.75 -0.015 -0.756 -0.463 -0.552 -0.854 -0.336 -1.273 -0.076 -0.384 -0.034 -2.15 0.023 -0.415 0.157 -1.565 0.04 -0.292 0.119 -0.737 0.019 -0.146 0.024 -0.406 -0.191 0.318 0.127 -0.037" />
    <path class="write-flat-pen" transform="translate(-13.494,-0.982)" fill="#FFFFFF" stroke-width="1.8" __comx="234.334" __comy="46.146" __timestamp="0x177ebc0b34d" d="M246.504 47.593 l-0.026 0.859 0.012 0.232 0.087 0.826 0.039 0.315 0.239 1.683 0.054 0.386 0.561 4.101 0.295 0.189 0.669 0.349 0.744 -0.95 -0.499 -0.567 0.242 0.147 -0.465 -3.504 -0.082 -0.421 -0.387 -1.681 -0.09 -0.323 -0.256 -0.78 -0.058 -0.15 -0.162 -0.788" />
    <path class="write-flat-pen" transform="translate(-13.494,-0.982)" fill="#FFFFFF" stroke-width="1.8" __comx="234.69" __comy="46.146" __timestamp="0x177ebc0b415" d="M248.687 39.864 l-0.517 -0.722 -0.124 -0.069 -0.635 1.047 0.313 0.207 1.071 0.233 0.164 -0.224 -0.526 -0.941 -0.259 -0.244 -0.635 1.047 -0.093 -0.055 0.506 0.394" />
    <path class="write-flat-pen" transform="translate(-13.494,-0.982)" fill="#FFFFFF" stroke-width="1.8" __comx="246.491" __comy="46.146" __timestamp="0x177ebc0b656" d="M252.236 42.527 l-0.477 0.874 0.06 0.106 0.092 0.054 0.357 0.125 0.149 0.043 1.019 0.201 0.374 0.053 2.801 0.145 0.442 -0.02 3.856 -0.326 0.232 0.08 -0.013 -0.022 -0.063 0.737 -2.071 4.741 -3.275 6.163 -0.134 0.25 -0.477 1.133 0.245 1.188 1.074 0.759 7.881 0.112 0.343 0.015 0.882 0.026 0.25 -0.004 0.412 -0.031 0.095 -0.016 1.917 -0.619 0.003 -0.201 -1.901 -0.668 -0.067 -0.018 -0.373 -0.069 -0.229 -0.032 -0.869 -0.1 -0.39 -0.034 -7.374 -0.141 -0.049 -0.033 0.007 0.044 0.226 -0.548 0.096 -0.181 3.258 -6.251 2.193 -5.063 0.13 -1.546 -0.572 -0.996 -1.181 -0.399 -4.181 0.386 -0.342 0.022 -2.679 -0.029 -0.309 -0.017 -1.008 -0.046 -0.155 -0.001 -0.393 0.035 -0.118 0.029 -0.093 0.092 0.4 0.874" />
    <path class="write-flat-pen" transform="translate(-13.494,-0.982)" fill="#FFFFFF" stroke-width="1.8" __comx="247.107" __comy="46.146" __timestamp="0x177ebc0b76f" d="M255.159 49.448 l1.26 -0.045 0.317 -0.019 7.203 -0.752 0.374 -0.095 1.858 -0.561 -0.014 -0.257 -1.909 -0.35 -0.409 -0.052 -7.254 0.65 -0.319 0.056 -1.235 0.219" />
    <path class="write-flat-pen" transform="translate(-13.494,-0.982)" fill="#FFFFFF" stroke-width="1.8" __comx="284.769" __comy="46.146" __timestamp="0x177ebc0bac6" d="M293.799 36.138 l-0.295 -0.913 -0.046 -0.097 -0.32 -0.447 -0.446 -0.122 -0.632 0.302 -0.221 0.295 -0.457 1.087 -0.125 0.455 -0.731 3.622 -0.099 0.563 -0.446 3.016 0.047 2.094 0.419 1.036 0.945 0.869 1.371 0.353 1.745 -0.377 3.613 -1.841 2.048 -0.718 1.316 -0.155 0.694 0.123 0.913 0.553 0.595 0.698 0.719 1.595 0.367 2.094 -0.092 2.05 -0.392 1.36 -0.89 1.544 -0.927 0.932 -1.109 0.665 -1.707 0.497 -1.834 0.145 -3.204 -0.648 -0.1 -0.035 -0.574 -0.292 -0.143 -0.089 -0.017 -0.001 -0.181 -0.132 -1.519 -0.937 -0.172 0.136 0.562 1.693 0.145 0.28 0.09 0.106 0.255 0.274 0.796 0.508 0.354 0.148 3.592 0.779 2.271 -0.178 2.104 -0.614 1.494 -0.9 1.244 -1.255 1.111 -1.932 0.508 -1.768 0.109 -2.453 -0.44 -2.503 -0.913 -2.025 -0.942 -1.107 -1.44 -0.873 -1.276 -0.225 -1.768 0.208 -2.344 0.823 -3.513 1.795 -1.114 0.244 -0.544 -0.137 -0.334 -0.303 -0.155 -0.376 -0.05 -1.631 0.39 -2.854 0.086 -0.528 0.621 -3.584 0.07 -0.344 0.242 -0.887 -0.078 0.082 -0.142 -0.001 -0.376 -0.105 0.101 -0.034 -0.031 -0.068 0.509 0.788" />
    <path class="write-flat-pen" transform="translate(-13.494,-0.982)" fill="#FFFFFF" stroke-width="1.8" __comx="289.931" __comy="46.146" __timestamp="0x177ebc0bbdb" d="M294.065 34.844 l0.365 -0.459 -0.084 0.074 0.393 0.007 0.124 0.023 1.312 0.307 0.504 0.155 3.515 0.713 8.199 0.455 0.723 -0.021 0.75 -0.033 0.714 -0.066 0.633 -0.075 0.638 -0.12 1.781 -0.399 -0.003 -0.233 -1.79 -0.356 -0.644 -0.105 -0.642 -0.054 -0.701 -0.033 -0.728 -0.04 -0.678 -0.03 -8.045 -0.529 -3.36 -0.609 -0.521 -0.132 -1.525 -0.195 -0.359 0.018 -0.643 0.178 -0.371 0.202 -0.401 0.867" />
    <path class="write-flat-pen" transform="translate(-13.494,-0.982)" fill="#FFFFFF" stroke-width="1.8" __comx="336.118" __comy="46.146" __timestamp="0x177ebc0bfb5" d="M354.651 37.3 l0.332 -1.24 0.056 -0.174 0.299 -1.458 0.016 -0.186 -0.164 -1.252 -0.726 -1.034 -1.357 -0.666 -1.967 -0.161 -2.265 0.407 -2.425 0.936 -1.594 1.11 -1.055 1.232 -0.567 1.349 0.039 1.281 0.54 1.279 1.408 1.52 2.303 1.574 5.268 2.657 2.396 1.595 1.759 1.721 0.846 1.279 0.487 1.444 0.128 1.685 -0.191 1.094 -0.712 1.701 -1.118 1.499 -1.549 1.237 -1.295 0.584 -2.429 0.542 -2.536 0.153 -2.524 -0.391 -2.275 -0.834 -1.485 -0.906 -1.015 -1.021 -0.399 -0.809 0.005 -0.15 0.552 -0.581 0.147 -0.084 0.732 -0.259 0.399 -0.108 0.437 -0.1 0.488 -0.1 0.549 -0.122 1.755 -0.466 -0.006 -0.234 -1.777 -0.374 -0.585 -0.092 -0.56 -0.023 -0.524 0.014 -0.534 0.059 -0.958 0.223 -0.546 0.234 -1.287 1.215 -0.099 1.301 0.739 1.506 1.375 1.38 1.819 1.108 2.607 0.954 2.889 0.444 2.867 -0.179 2.743 -0.616 1.661 -0.754 1.895 -1.523 1.375 -1.857 0.862 -2.083 0.255 -1.501 -0.169 -2.116 -0.633 -1.86 -1.074 -1.615 -2.004 -1.961 -2.616 -1.742 -5.259 -2.651 -2.05 -1.4 -1.074 -1.157 -0.301 -0.706 -0.021 -0.591 0.315 -0.765 0.735 -0.872 1.244 -0.883 2.081 -0.829 1.901 -0.366 1.469 0.086 0.764 0.327 0.337 0.401 0.167 0.731 0.006 -0.024 -0.102 1.384 -0.02 0.161 -0.117 1.307" />
    <path class="write-flat-pen" transform="translate(-13.494,-0.982)" fill="#FFFFFF" stroke-width="1.8" __comx="354.996" __comy="46.146" __timestamp="0x177ebc0c15f" d="M371.111 51.67 l-0.186 -0.851 -0.03 -0.084 -0.287 -0.766 -0.19 -0.327 -0.861 -0.921 -0.347 -0.233 -1.398 -0.534 -1.422 0.178 -1.11 0.865 -0.813 1.499 -0.373 1.835 0.06 1.707 0.528 1.422 1.154 1.023 1.417 0.384 1.548 -0.27 1.377 -0.753 1.44 -1.496 0.887 -1.761 0.385 -1.881 -0.223 -1.646 -0.711 -1.314 -1.174 -0.973 -0.235 -0.09 -0.203 -0.031 -1.483 0.333 -0.074 0.307 1.133 0.967 0.061 0.045 -0.113 -0.04 0.684 0.616 0.397 0.74 0.139 1.027 -0.276 1.355 -0.659 1.312 -1.065 1.109 -0.882 0.485 -0.875 0.157 -0.645 -0.169 -0.527 -0.455 -0.291 -0.75 -0.062 -1.228 0.256 -1.402 0.504 -1 0.481 -0.415 0.612 -0.117 0.915 0.277 0.101 0.05 0.759 0.62 0.115 0.125 0.425 0.604 0.02 0.017 0.391 0.718" />
    <path class="write-flat-pen" transform="translate(-13.494,-0.982)" fill="#FFFFFF" stroke-width="1.8" __comx="367.931" __comy="46.146" __timestamp="0x177ebc0c2f4" d="M380.271 34.944 l-0.471 -0.014 -0.276 0.051 -0.082 -0.158 0.01 0.537 0.031 0.416 0.169 1.814 0.138 0.82 0.436 4.311 0.094 0.992 0.763 9.031 0.589 1.518 0.427 0.28 0.441 0.08 0.3 -0.149 0.569 -0.725 -0.026 -0.117 -0.822 -0.416 0.031 -0.089 0.209 0.012 0.22 0.126 -0.27 -0.884 -0.798 -8.821 -0.11 -1.012 -0.554 -4.366 -0.179 -0.831 -0.323 -1.771 -0.108 -0.43 -0.185 -0.551 -0.146 -0.415 -0.346 0.032 -0.471 0.727" />
    <path class="write-flat-pen" transform="translate(-13.494,-0.982)" fill="#FFFFFF" stroke-width="1.8" __comx="383.775" __comy="46.146" __timestamp="0x177ebc0c50c" d="M389.069 45.931 l0.682 -0.424 0.054 -0.026 0.499 -0.311 -0.094 0.086 -0.24 0.129 -0.468 -0.394 -0.033 0.28 -0.035 0.208 -0.381 2.584 -0.056 0.569 -0.106 2.747 0.409 2.193 0.729 1.08 1.135 0.742 1.511 0.257 1.695 -0.525 1.46 -1.008 1.815 -2.16 1.142 -2.106 1.443 -3.732 0.206 -1.401 0 0 -0.347 -0.678 0 0 -1.491 -0.155 -0.518 0.642 -0.289 2.289 0.242 2.987 0.476 1.856 0.946 2.009 1.159 1.484 1.84 1.048 0.548 0.07 0.811 -0.083 0.461 -0.171 0.315 -0.203 0.382 -0.311 0.24 -0.319 0.819 -1.41 -0.123 -0.141 -1.508 0.622 -0.261 0.119 -0.299 0.108 -0.167 0.044 -0.152 0.015 -0.444 -0.01 -0.037 -0.015 -1.232 -0.732 -0.823 -1.055 -0.789 -1.675 -0.396 -1.544 -0.214 -2.651 0.203 -1.601 0.199 -0.246 -1.491 -0.155 0 0 0.086 0.169 0 0 -0.094 0.637 -1.33 3.438 -1 1.846 -1.542 1.838 -1.036 0.717 -1.027 0.32 -0.728 -0.121 -0.528 -0.341 -0.327 -0.477 -0.316 -1.639 0.073 -2.504 0.04 -0.487 0.297 -2.576 0.033 -0.395 -0.16 -1.023 -0.565 -0.481 -0.765 0.256 -0.15 0.131 -0.354 0.439 -0.029 0.035 -0.564 0.618" />
    <path class="write-flat-pen" transform="translate(-13.494,-0.982)" fill="#FFFFFF" stroke-width="1.8" __comx="399.561" __comy="46.146" __timestamp="0x177ebc0c60a" d="M411.825 34.243 l-0.3 0.942 -0.092 0.324 -0.237 1.436 -0.061 0.689 0 4.227 0.072 1.009 0.968 8.91 0.87 2.977 0.157 0.223 0.313 0.254 0.254 0.074 1.131 -0.016 0.075 -0.127 -0.527 -1.001 -0.014 -0.086 0.002 -0.072 0.074 0.095 -0.673 -2.639 -0.982 -8.746 -0.077 -0.929 -0.11 -4.117 0.017 -0.598 0.074 -1.367 0.017 -0.268 0.114 -0.962" />
    <path class="write-flat-pen" transform="translate(-13.494,-0.982)" fill="#FFFFFF" stroke-width="1.8" __comx="401.069" __comy="46.146" __timestamp="0x177ebc0c6c8" d="M405.182 44.394 l0.804 0.332 0.2 0.09 1.119 0.322 0.614 0.109 4.493 0.287 4.363 -0.355 1.148 -0.202 1.109 -0.164 1.165 -0.262 1.086 -0.22 1.11 -0.353 1.553 -0.531 -0.044 -0.27 -1.641 -0.008 -1.14 0.015 -1.114 0.042 -1.176 0.131 -1.108 0.079 -1.127 0.14 -4.198 0.282 -4.31 -0.213 -0.486 -0.06 -1.035 -0.169 -0.16 -0.024 -0.85 -0.189" />
    <path class="write-flat-pen" transform="translate(-13.494,-0.982)" fill="#FFFFFF" stroke-width="1.8" __comx="415.408" __comy="46.146" __timestamp="0x177ebc0c833" d="M427.327 45.407 l0.04 0.703 -0.003 0.181 0.032 0.538 0.031 0.322 0.089 0.845 0.054 0.492 0.137 1.102 0.073 0.62 0.431 3.481 0.049 0.494 0.482 1.849 1.238 0.53 0.285 -0.196 0.171 -0.456 0.038 -0.398 0.002 -0.446 -0.043 -0.54 -0.2 -1.368 -0.119 -0.019 -0.623 1.235 -0.208 0.472 -0.16 0.332 -0.128 0.178 0.024 -0.154 0.121 -0.101 1.238 0.53 -0.398 -1.747 -0.044 -0.401 -0.515 -3.503 -0.107 -0.637 -0.223 -1.106 -0.112 -0.501 -0.231 -0.852 -0.108 -0.324 -0.193 -0.497 -0.072 -0.161 -0.245 -0.662" />
    <path class="write-flat-pen" transform="translate(-13.494,-0.982)" fill="#FFFFFF" stroke-width="1.8" __comx="417.054" __comy="46.146" __timestamp="0x177ebc0c8b2" d="M431.925 37.872 l-1.233 -0.843 -1.067 0.524 -0.142 0.271 -0.312 1.193 0.109 0.08 1.047 -0.652 0.027 0.042 0.211 0 0.726 0.389" />
    <path class="write-flat-pen" transform="translate(-13.494,-0.982)" fill="#FFFFFF" stroke-width="1.8" __comx="427.125" __comy="46.146" __timestamp="0x177ebc0ca33" d="M442.138 46.264 l-0.455 -0.812 -0.095 -0.167 -0.667 -0.855 -0.261 -0.231 -1.543 -1.119 -1.651 -0.599 -1.103 0.32 -0.867 1.05 -0.522 1.982 0.099 2.164 0.691 2.224 1.047 1.909 1.44 1.504 1.328 0.688 1.668 0.208 1.272 -0.324 1.494 -0.928 1.116 -1.313 0.73 -1.497 0.409 -1.98 -0.065 -1.803 -0.565 -1.927 -0.793 -1.372 -1.023 -0.664 -0.582 0.013 -0.338 0.107 -0.196 0.153 -0.748 1.043 0.144 0.289 1.283 0.029 0.066 0.022 -0.04 0.039 -0.136 0.022 0.234 0.188 0.477 0.836 0.443 1.51 0.051 1.366 -0.317 1.552 -0.532 1.097 -0.79 0.935 -1.025 0.643 -0.685 0.178 -1.028 -0.123 -0.795 -0.407 -1.09 -1.124 -0.872 -1.551 -0.601 -1.846 -0.099 -1.692 0.348 -1.391 0.311 -0.387 0.114 -0.037 0.96 0.33 1.352 0.9 0.137 0.102 0.651 0.625 0.079 0.076 0.593 0.703" />
    <path class="write-flat-pen" transform="translate(-13.494,-0.982)" fill="#FFFFFF" stroke-width="1.8" __comx="440.705" __comy="46.146" __timestamp="0x177ebc0cc27" d="M446.863 42.883 l0.234 0.48 0.014 0.13 0.103 0.33 0.043 0.183 0.199 0.627 0.093 0.355 0.309 0.996 0.177 0.55 0.638 2.335 0.132 0.584 0.907 4.972 0 0 0.062 0.446 0 0 0.241 2.332 0 0 1.789 -0.066 0.266 -8.45 0.37 -3.16 0.679 -2.328 0.513 -0.799 0.277 -0.179 0.081 0.004 0.357 0.253 0.914 1.631 4.089 11.802 0.927 2.24 1.26 -0.387 -0.5 -2.403 -4.13 -11.99 -1.194 -2.125 -1.119 -0.786 -1.178 -0.054 -1.084 0.704 -0.86 1.343 -0.792 2.72 -0.398 3.384 -0.272 8.526 1.789 -0.066 0 0 -0.254 -2.363 0 0 -0.075 -0.516 0 0 -0.968 -5.041 -0.163 -0.663 -0.738 -2.401 -0.226 -0.586 -0.391 -0.955 -0.157 -0.383 -0.345 -0.627 -0.132 -0.224 -0.259 -0.296 -0.125 -0.139 -0.447 -0.427" />
    <path class="write-flat-pen" transform="translate(-13.494,-0.982)" fill="#FFFFFF" stroke-width="1.8" __comx="459.396" __comy="46.146" __timestamp="0x177ebc0cea0" d="M474.04 42.392 l0.123 -0.78 0.012 -0.025 0.111 -0.378 0.048 -0.18 0.146 -0.66 0.01 -0.228 -0.214 -0.909 -0.284 -0.406 -0.905 -0.671 -1.337 -0.232 -1.109 0.31 -1.16 0.896 -0.685 1.126 -0.201 1.412 0.395 1.325 0.871 1.127 1.74 1.239 3.784 1.927 1.73 1.179 0.866 0.961 0.4 0.978 -0.026 0.835 -0.353 0.821 -0.732 0.791 -0.999 0.561 -1.433 0.37 -1.664 0.004 -1.61 -0.451 -3.017 -1.642 -0.139 -0.104 -0.346 -0.259 -0.244 -0.199 -0.095 -0.067 -0.204 -0.137 -1.728 -0.904 -0.157 0.149 0.82 1.769 0.152 0.237 0.084 0.104 0.24 0.286 0.383 0.347 0.256 0.219 3.312 1.86 2.048 0.574 2.135 -0.007 1.874 -0.487 1.444 -0.815 1.126 -1.225 0.599 -1.413 0.039 -1.542 -0.662 -1.603 -1.212 -1.342 -1.996 -1.359 -3.772 -1.914 -1.426 -1.012 -0.517 -0.666 -0.197 -0.651 0.094 -0.686 0.33 -0.555 0.639 -0.509 0.425 -0.131 0.596 0.077 0.416 0.253 -0.01 -0.036 0.184 0.406 0.009 -0.06 0.018 0.605 0.008 0.202 0.048 0.448 0.012 0.065 0.123 0.78" />
  </g>
</svg>
