<svg class="write-page" color-interpolation="linearRGB" width="1010px" height="1628px" xmlns="http://www.w3.org/2000/svg" xmlns:xlink="http://www.w3.org/1999/xlink">
  <g class="write-content write-v3" width="1010" height="1628" xruling="30" yruling="30" marginLeft="30" papercolor="#1B1C1C" rulecolor="#3A00F9FF">
    <g class="ruleline write-std-ruling write-scale-down" fill="none" stroke="#00F9FF" stroke-opacity="0.227" stroke-width="1" shape-rendering="crispEdges" vector-effect="non-scaling-stroke">
      <rect class="pagerect" fill="#1B1C1C" stroke="none" x="0" y="0" width="1010" height="1628" />
      <path class="yrule_1" d="M0 30 l1010 0" />
      <path d="M0 60 l1010 0" />
      <path d="M0 90 l1010 0" />
      <path d="M0 120 l1010 0" />
      <path d="M0 150 l1010 0" />
      <path d="M0 180 l1010 0" />
      <path d="M0 210 l1010 0" />
      <path d="M0 240 l1010 0" />
      <path d="M0 270 l1010 0" />
      <path d="M0 300 l1010 0" />
      <path d="M0 330 l1010 0" />
      <path d="M0 360 l1010 0" />
      <path d="M0 390 l1010 0" />
      <path d="M0 420 l1010 0" />
      <path d="M0 450 l1010 0" />
      <path d="M0 480 l1010 0" />
      <path d="M0 510 l1010 0" />
      <path d="M0 540 l1010 0" />
      <path d="M0 570 l1010 0" />
      <path d="M0 600 l1010 0" />
      <path d="M0 630 l1010 0" />
      <path d="M0 660 l1010 0" />
      <path d="M0 690 l1010 0" />
      <path d="M0 720 l1010 0" />
      <path d="M0 750 l1010 0" />
      <path d="M0 780 l1010 0" />
      <path d="M0 810 l1010 0" />
      <path d="M0 840 l1010 0" />
      <path d="M0 870 l1010 0" />
      <path d="M0 900 l1010 0" />
      <path d="M0 930 l1010 0" />
      <path d="M0 960 l1010 0" />
      <path d="M0 990 l1010 0" />
      <path d="M0 1020 l1010 0" />
      <path d="M0 1050 l1010 0" />
      <path d="M0 1080 l1010 0" />
      <path d="M0 1110 l1010 0" />
      <path d="M0 1140 l1010 0" />
      <path d="M0 1170 l1010 0" />
      <path d="M0 1200 l1010 0" />
      <path d="M0 1230 l1010 0" />
      <path d="M0 1260 l1010 0" />
      <path d="M0 1290 l1010 0" />
      <path d="M0 1320 l1010 0" />
      <path d="M0 1350 l1010 0" />
      <path d="M0 1380 l1010 0" />
      <path d="M0 1410 l1010 0" />
      <path d="M0 1440 l1010 0" />
      <path d="M0 1470 l1010 0" />
      <path d="M0 1500 l1010 0" />
      <path d="M0 1530 l1010 0" />
      <path d="M0 1560 l1010 0" />
      <path d="M0 1590 l1010 0" />
      <path d="M0 1620 l1010 0" />
      <path class="xrule_1" d="M30 0 l0 1628" />
      <path d="M60 0 l0 1628" />
      <path d="M90 0 l0 1628" />
      <path d="M120 0 l0 1628" />
      <path d="M150 0 l0 1628" />
      <path d="M180 0 l0 1628" />
      <path d="M210 0 l0 1628" />
      <path d="M240 0 l0 1628" />
      <path d="M270 0 l0 1628" />
      <path d="M300 0 l0 1628" />
      <path d="M330 0 l0 1628" />
      <path d="M360 0 l0 1628" />
      <path d="M390 0 l0 1628" />
      <path d="M420 0 l0 1628" />
      <path d="M450 0 l0 1628" />
      <path d="M480 0 l0 1628" />
      <path d="M510 0 l0 1628" />
      <path d="M540 0 l0 1628" />
      <path d="M570 0 l0 1628" />
      <path d="M600 0 l0 1628" />
      <path d="M630 0 l0 1628" />
      <path d="M660 0 l0 1628" />
      <path d="M690 0 l0 1628" />
      <path d="M720 0 l0 1628" />
      <path d="M750 0 l0 1628" />
      <path d="M780 0 l0 1628" />
      <path d="M810 0 l0 1628" />
      <path d="M840 0 l0 1628" />
      <path d="M870 0 l0 1628" />
      <path d="M900 0 l0 1628" />
      <path d="M930 0 l0 1628" />
      <path d="M960 0 l0 1628" />
      <path d="M990 0 l0 1628" />
      <path class="leftmargin" stroke="#FF0000" d="M30 0 l0 1628" />
    </g>
    <path class="write-flat-pen" fill="#FFFFFF" stroke-width="1.6" __comx="64.28" __comy="47.233" __timestamp="0x178101fb281" d="M53.788 40.557 l-1.359 -1.783 -0.046 -0.114 -0.481 -2.043 0.45 -2.293 0.994 -1.602 1.7 -1.373 2.013 -0.723 2.222 -0.116 2.352 0.618 1.742 1.24 1.056 1.548 0.828 2.678 -0.041 2.686 -0.815 2.976 -1.662 3.138 -3.28 3.918 -8.337 7.939 -0.849 1.691 0.861 1.245 2.911 0.535 12.553 -0.384 7.846 0.198 0.301 -0.013 3.508 -0.104 0.027 -0.255 -3.406 -0.845 -0.332 -0.081 -7.934 -0.501 -12.442 0.381 -2.093 -0.385 0.055 0.079 0.298 -0.594 8.2 -7.809 3.445 -4.118 1.82 -3.445 0.905 -3.344 0.027 -3.139 -1.007 -3.127 -1.36 -1.944 -2.194 -1.532 -2.838 -0.726 -2.664 0.152 -2.439 0.902 -2.047 1.714 -1.194 2.054 -0.413 2.825 0.748 2.358 0.173 0.31 1.698 1.65" />
    <path class="write-flat-pen" fill="#FFFFFF" stroke-width="1.6" __comx="90.308" __comy="47.233" __timestamp="0x178101fb3ad" d="M89.642 58.842 l0.652 1.169 0.613 -0.085 0.068 -1.177 -0.123 -0.037 -0.598 1.016 0.613 -0.085 -0.793 -1.079" />
    <path class="write-flat-pen" fill="#FFFFFF" stroke-width="1.6" __comx="86.888" __comy="47.233" __timestamp="0x178101fb44b" d="M87.462 32.332 l-0.417 -1.068 -0.582 -1.279 -0.141 0.029 -0.009 1.474 0.478 1.119" />
    <path class="write-flat-pen" fill="#FFFFFF" stroke-width="1.6" __comx="195.822" __comy="47.017" __timestamp="0x178101ff1df" d="M191.818 61.036 l0.07 -0.412 0.023 -0.08 0.12 -0.619 0.041 -0.25 0.166 -1.315 0.034 -0.38 0.107 -2.178 0.003 -0.502 -0.202 -3.94 -0.066 -0.576 -2.069 -7.998 -0.509 -2.973 -0.104 -2.787 0.264 -1.633 0.647 -1.607 1.114 -1.666 1.229 -1.081 1.285 -0.642 1.526 -0.309 1.274 0.091 1.895 0.556 1.151 0.671 0.93 0.916 0.927 1.501 0.688 2.133 0.074 0.341 0.157 0.899 0.03 0.209 0.051 0.36 0.202 1.726 0.16 0.02 0.619 -1.642 0.117 -0.398 0.044 -0.308 -0.002 -1.021 -0.045 -0.487 -0.634 -2.474 -1.125 -1.862 -1.214 -1.195 -1.493 -0.87 -2.247 -0.66 -1.663 -0.119 -1.948 0.394 -1.661 0.829 -1.542 1.356 -1.322 1.978 -0.775 1.927 -0.317 1.966 0.118 3.054 0.561 3.143 2.174 7.942 0.065 0.439 0.366 3.854 0.022 0.446 0.044 2.143 0.001 0.355 -0.001 1.312 0.005 0.257 0.052 0.646 0.018 0.108 0.094 0.424" />
    <path class="write-flat-pen" fill="#FFFFFF" stroke-width="1.6" __comx="193.842" __comy="47.017" __timestamp="0x178101ff356" d="M185.924 48.957 l0.06 -0.304 -0.175 0.133 1.333 -0.089 0.438 0.005 10.045 0.216 0.712 -0.002 1.359 -0.029 0.663 -0.022 0.632 -0.042 1.626 -0.102 0.007 -0.115 -1.604 -0.286 -0.626 -0.114 -0.663 -0.089 -1.357 -0.141 -0.717 -0.057 -10.07 -0.346 -0.526 0.018 -1.563 0.289 -0.439 0.288 0.15 0.842" />
    <path class="write-flat-pen" fill="#FFFFFF" stroke-width="1.6" __comx="212.141" __comy="47.017" __timestamp="0x178101ff608" d="M212.971 57.653 l-0.026 0.579 0.014 -0.091 -0.132 0.021 0.182 -0.057 -0.185 -0.152 0.083 0.047 -0.22 -0.569 -0.008 0.146 0 0 -1.068 -0.261 -0.085 0.03 0.4 -0.06 -0.04 0.072 -0.018 0.104 -0.049 -0.097 -0.42 -1.012 -0.122 -0.001 -0.433 1.007 -0.05 0.124 -0.013 0.23 0.516 0.927 1.091 -0.147 0.246 -0.735 -1.068 -0.261 0 0 -0.012 0.188 0.632 0.947 0.211 0.144 0.594 0.101 0.226 -0.069 0.255 -0.394 0.027 -0.147 -0.151 -0.652" />
    <path class="write-flat-pen" fill="#FFFFFF" stroke-width="1.6" __comx="212.84" __comy="47.017" __timestamp="0x178101ff872" d="M212.704 36.263 l0.132 -0.417 0.017 -0.018 0.158 -0.177 -0.07 0.09 0.073 0.069 -0.229 -0.097 0.108 0.398 -0.014 -0.143 -0.118 0.196 -0.033 -0.013 0.04 -0.002 0.092 0.199 0.04 -0.043 0.209 -0.078 -0.128 -0.073 0.156 0.35 0.025 0.045 0.049 0.225 0.287 1.379 0.067 0.007 0.583 -1.289 0.094 -0.244 0.038 -0.225 -0.18 -1.125 -0.92 -0.473 -1.103 0.425 -0.678 0.942 0.405 0.958 0.964 0.359 0.922 -0.455 0.301 -0.888 -0.023 -0.327 -0.513 -0.799 -0.327 -0.144 -0.546 0.195 -0.161 0.179 -0.099 0.421 -0.003 0.097 0.018 0.448" />
    <path class="write-flat-pen" fill="#FFFFFF" stroke-width="1.6" __comx="230.662" __comy="47.017" __timestamp="0x178101ffa5d" d="M229.734 40.154 l0.406 0.032 -0.094 -0.062 0.46 1.324 0.096 0.415 0.433 2.998 0.222 5.311 -0.215 2.741 -0.534 2.496 -0.477 1.161 -0.201 0.207 0.142 0.087 -0.054 0.021 -0.139 -0.09 -0.728 -0.599 -0.058 0.038 0.259 0.907 0.088 0.257 0.204 0.238 0.401 0.171 0.956 -0.482 0.665 -1.586 0.556 -2.671 0.207 -2.879 -0.27 -5.429 -0.507 -3.091 -0.144 -0.52 -0.695 -1.489 -0.313 -0.263 -0.732 0.154" />
    <path class="write-flat-pen" fill="#FFFFFF" stroke-width="1.6" __comx="240.542" __comy="47.017" __timestamp="0x178101ffcf7" d="M234.559 43.006 l-1.037 -0.175 -0.041 -0.022 -0.893 -0.698 -0.019 -0.046 -0.415 -1.472 0.002 -0.165 0.224 -1.408 0.63 -1.409 1.009 -1.274 1.007 -0.816 1.331 -0.597 1.25 -0.17 0.956 0.149 1.359 0.639 1.255 1.003 0.978 1.205 0.631 1.367 0.31 1.59 -0.146 1.601 -0.45 1.216 -1.071 1.6 -1.076 1.028 -1.66 1.035 -1.463 0.549 -1.913 0.315 -0.527 -0.093 0 0 -0.206 -0.204 0 0 -0.438 1.239 0.486 -0.028 1.356 0.558 2.165 1.37 1.751 1.564 4.55 5.32 2.054 1.525 0.443 0.1 0.928 -0.084 0.376 -0.152 0.326 -0.21 0.286 -0.259 0.249 -0.313 0.91 -1.161 -0.046 -0.054 -1.289 0.717 -0.312 0.166 -0.253 0.101 -0.24 0.058 -0.176 0.015 -0.606 -0.066 -0.017 -0.022 -1.647 -1.388 -4.502 -5.305 -1.915 -1.709 -2.374 -1.499 -1.782 -0.73 -0.818 0.059 -0.438 1.239 0 0 0.536 0.482 0 0 1.181 0.172 2.26 -0.405 1.706 -0.649 1.891 -1.179 1.285 -1.227 1.235 -1.862 0.558 -1.535 0.168 -1.966 -0.388 -1.928 -0.772 -1.654 -1.166 -1.445 -1.49 -1.187 -1.672 -0.778 -1.331 -0.201 -1.622 0.234 -1.643 0.761 -1.231 1.022 -1.172 1.523 -0.715 1.723 -0.177 1.678 0.03 0.412 0.654 1.693 0.211 0.277 1.21 0.725 0.226 0.058 1.124 0.017" />
    <path class="write-flat-pen" fill="#FFFFFF" stroke-width="1.6" __comx="235.007" __comy="47.017" __timestamp="0x178101ffe8e" d="M234.647 37.356 l-0.26 0.335 -0.04 0.184 -0.1 0.685 -0.023 0.358 0.013 2.2 0.025 0.734 0.393 8.376 0.056 5.591 -0.004 0.315 0.012 0.531 0.205 1.703 0.082 0.009 0.555 -1.631 0.105 -0.538 0.042 -0.355 0.084 -5.656 -0.496 -8.403 -0.055 -0.726 -0.165 -2.167 -0.02 -0.322 -0.037 -0.657 -0.017 -0.055 0.059 -0.306" />
    <path class="write-flat-pen" fill="#FFFFFF" stroke-width="1.6" __comx="268.468" __comy="47.017" __timestamp="0x17810200089" d="M256.895 50.148 l0.73 -0.146 0.208 -0.014 4.64 -0.208 0.761 -0.018 12.553 -0.375 0.643 -0.09 1.198 -0.174 0.539 -0.111 0.471 -0.117 1.605 -0.39 -0.012 -0.102 -1.652 -0.021 -0.487 -0.008 -0.538 0.018 -1.203 0.024 -0.621 0.033 -12.525 0.25 -0.781 0.027 -4.689 0.386 -0.3 0.067 -0.743 0.3" />
    <path class="write-flat-pen" fill="#FFFFFF" stroke-width="1.6" __comx="277.83" __comy="47.017" __timestamp="0x1781020029f" d="M276.595 48.926 l-0.408 -0.736 -0.058 -0.108 -0.465 -0.983 -0.109 -0.21 -1.579 -2.495 0 0 -0.172 -0.203 0 0 -0.921 -1 0 0 -0.819 1.017 2.276 1.506 2.567 1.164 5.111 1.164 0.199 0.145 0.011 0.15 -2.469 5.286 -0.044 0.113 -0.08 0.254 -0.43 1.796 0.109 0.062 1.322 -1.297 0.177 -0.209 0.089 -0.13 2.806 -5.63 -0.155 -1.205 -0.958 -0.65 -5.237 -1.194 -2.353 -1.047 -2.232 -1.384 -0.819 1.017 0 0 0.971 0.897 0 0 0.104 0.11 0 0 1.655 2.308 0.107 0.165 0.621 0.938 0.102 0.12 0.53 0.645" />
    <path class="write-flat-pen" fill="#FFFFFF" stroke-width="1.6" __comx="296.361" __comy="47.017" __timestamp="0x178102004b0" d="M296.105 37.447 l-0.481 0.585 -0.074 0.283 -0.151 1.838 0.028 0.581 0.648 9.14 -0.033 5.047 0.161 -0.142 0.112 0.037 0.119 0.083 -0.086 0.015 -0.753 -0.145 -0.031 0.043 0.379 0.667 0.125 0.167 0.29 0.134 0.471 -0.105 0.319 -0.32 0.176 -5.518 -0.807 -9.186 -0.053 -0.518 -0.027 -1.714 -0.008 -0.052 0.262 -0.527" />
    <path class="write-flat-pen" fill="#FFFFFF" stroke-width="1.6" __comx="305.655" __comy="47.017" __timestamp="0x1781020070b" d="M297.238 41.375 l-0.44 -0.766 -0.048 -0.079 -0.485 -0.96 -0.009 -0.062 0.025 -1.837 0.067 -0.205 0.59 -1.237 1.011 -1.234 1.371 -0.992 1.528 -0.612 1.737 -0.242 1.214 0.136 1.538 0.555 1.278 0.887 1.03 1.147 0.459 0.979 0.323 1.623 -0.096 1.35 -0.413 1.317 -0.991 1.628 -1.006 1.051 -1.687 1.105 -1.696 0.619 -1.58 0.252 -0.327 -0.073 0.315 0.513 -0.289 0.241 0.652 -0.05 1.154 0.299 1.326 0.754 4.642 4.586 1.861 1.382 2.754 0.599 0.454 -0.061 0.85 -0.274 0.281 -0.149 0.22 -0.163 1.358 -1.022 -0.055 -0.124 -1.669 0.318 -0.237 0.039 -0.21 0.029 -0.734 0.075 -0.154 -0.007 -2.208 -0.632 -1.533 -1.148 -4.722 -4.635 -1.666 -0.942 -1.58 -0.409 -1.36 0.105 -1.047 0.866 0.678 1.111 1.213 0.247 1.979 -0.323 1.982 -0.722 1.966 -1.286 1.229 -1.288 1.153 -1.921 0.501 -1.647 0.106 -1.705 -0.405 -1.969 -0.618 -1.315 -1.275 -1.422 -1.564 -1.082 -1.867 -0.67 -1.553 -0.162 -2.072 0.307 -1.831 0.757 -1.627 1.222 -1.175 1.527 -0.632 1.487 -0.122 0.469 0.154 2.173 0.121 0.297 0.706 0.99 0.08 0.087 0.562 0.661" />
    <path class="write-flat-pen" fill="#FFFFFF" stroke-width="1.6" __comx="299.721" __comy="47.017" __timestamp="0x178102008c9" d="M300.415 35.728 l-1.046 -0.257 -0.09 1.08 -0.011 0.456 -0.241 17.581 0.049 0.159 0.551 1.585 0.131 -0.014 0.196 -1.667 0.02 -0.106 0.392 -17.531 -0.016 -0.461 -0.072 -1.074 -0.708 0.587" />
    <path class="write-flat-pen" fill="#FFFFFF" stroke-width="1.6" __comx="234.859" __comy="108.79" __timestamp="0x17810200ebe" d="M226.566 102.741 l0.212 0.921 0.105 0.251 0.695 1.218 0.291 0.414 1.984 2.369 0.5 0.544 2.802 2.761 7.596 5.977 0.205 0.124 0.449 0.245 0.098 0.044 1.583 0.809 0.067 -0.077 -1.009 -1.464 -0.085 -0.117 -0.4 -0.394 -0.168 -0.144 -7.425 -6.04 -2.799 -2.633 -0.484 -0.489 -2.069 -2.21 -0.274 -0.326 -0.782 -1.056 -0.087 -0.131 -0.345 -0.809" />
    <path class="write-flat-pen" fill="#FFFFFF" stroke-width="1.6" __comx="236.541" __comy="108.79" __timestamp="0x17810200fbc" d="M231.22 119.298 l-0.071 -0.777 0.013 -0.092 0.189 -0.763 0.134 -0.349 1.027 -2.163 0.341 -0.643 8.378 -12.838 0.334 -0.688 0.28 -0.646 0.249 -0.635 0.198 -0.6 0.518 -1.537 -0.114 -0.058 -0.934 1.327 -0.365 0.512 -0.369 0.563 -0.374 0.578 -0.384 0.602 -8.505 12.788 -0.366 0.749 -0.928 2.311 -0.128 0.496 -0.07 0.961 0.039 0.239 0.242 0.794" />
    <path class="write-flat-pen" fill="#FFFFFF" stroke-width="1.6" __comx="265.694" __comy="108.79" __timestamp="0x178102011f3" d="M265.379 101.604 l-0.114 -0.291 -0.514 0.065 -0.051 0.077 -0.082 0.431 0.006 0.256 0.06 0.953 0.037 0.399 0.348 3.773 0.05 0.637 0.549 6.741 0.35 1.951 0.538 -0.018 0.216 -1.992 -0.446 -6.779 -0.064 -0.66 -0.517 -3.783 -0.076 -0.406 -0.201 -0.932 -0.056 -0.196 -0.086 -0.272 -0.027 0.008 -0.514 0.065 0.223 0.219" />
    <path class="write-flat-pen" fill="#FFFFFF" stroke-width="1.6" __comx="278.706" __comy="108.79" __timestamp="0x17810201314" d="M265.353 109.582 l-0.005 -0.442 -0.404 0.499 0.03 0.016 0.652 0.111 0.361 0.037 3.529 0.12 0.816 -0.023 17.529 -1.389 0.721 -0.066 1.238 -0.125 0.55 -0.061 0.489 -0.071 0.425 -0.083 1.646 -0.311 -0.005 -0.132 -1.663 -0.197 -0.434 -0.054 -0.495 -0.027 -0.558 -0.018 -1.254 0.01 -0.735 0.02 -17.527 1.218 -0.762 0.037 -3.479 0.049 -0.34 0.003 -0.713 0.039 -0.083 0.024 -0.404 0.499 0.119 0.426" />
    <path class="write-flat-pen" fill="#FFFFFF" stroke-width="1.6" __comx="289.576" __comy="108.79" __timestamp="0x17810201552" d="M288.374 106.483 l-0.454 -0.628 -0.093 -0.121 -0.5 -0.62 -0.135 -0.165 -0.913 -1.147 -0.117 -0.156 -0.924 -1.562 0.041 0.101 -0.013 -0.314 0 0 -0.749 0.743 0.417 0.083 4.146 2.322 4.047 1.391 0.356 0.281 0.207 0.496 -0.006 1.124 -0.402 1.498 -0.649 1.274 -1.096 1.087 0.005 0.033 -0.077 0.071 -1.374 1.086 0.06 0.163 1.75 -0.065 0.139 -0.009 0.262 -0.078 1.601 -1.315 0.842 -1.699 0.464 -1.86 -0.035 -1.638 -0.52 -1.11 -0.852 -0.619 -4.143 -1.411 -4.28 -2.359 -0.684 -0.065 -0.749 0.743 0 0 0.085 0.462 0.068 0.171 1.179 1.635 0.186 0.204 1.058 1.059 0.171 0.157 0.607 0.52 0.108 0.088 0.569 0.509" />
    <path class="write-flat-pen" fill="#FFFFFF" stroke-width="1.6" __comx="319.765" __comy="104.663" __timestamp="0x1781020201e" d="M324.794 102.155 l0.654 -0.434 0.027 -0.002 0.932 -0.142 0.012 0.009 0.699 0.281 -0.112 -0.086 0.093 0.81 -0.044 0.129 -0.872 1.558 -1.644 1.825 -2.061 1.716 -2.706 1.741 -2.942 1.41 -2.762 0.871 -1.796 0.259 -0.851 -0.127 -0.373 -0.271 -0.201 -0.399 -0.021 -0.707 0.396 -1.323 0.645 -1.116 1.248 -1.341 1.285 -0.829 1.028 -0.293 1.11 0.049 1.219 0.469 1.297 0.983 6.732 8.221 2.114 1.518 0.452 -0.015 0.284 -0.077 0.272 -0.139 0.204 -0.176 1.026 -0.937 -0.065 -0.137 -1.374 0.206 -0.196 0.014 -0.133 -0.012 -0.089 -0.025 0.089 -0.025 -1.534 -1.277 -6.743 -8.22 -1.616 -1.206 -1.642 -0.617 -1.582 -0.058 -1.46 0.417 -1.619 1.046 -1.48 1.6 -0.805 1.41 -0.498 1.712 0.047 1.256 0.511 0.986 0.94 0.658 1.388 0.188 2.103 -0.318 2.952 -0.952 3.1 -1.496 2.835 -1.848 2.184 -1.846 1.783 -2.032 0.948 -1.866 0.112 -0.54 -0.366 -1.345 -0.316 -0.275 -1.116 -0.223 -0.22 0.028 -1.005 0.337 -0.145 0.074 -0.618 0.61" />
    <path class="write-flat-pen" fill="#FFFFFF" stroke-width="1.6" __comx="341.962" __comy="104.663" __timestamp="0x1781020249a" d="M335.443 131.283 l-0.44 1.283 0.004 -0.02 -0.184 0.197 0 0 0.668 0.173 -0.102 -2.439 0.013 -0.493 0.493 -18.169 0.006 -0.515 -0.348 -4.328 -0.002 -0.068 0.134 -0.579 0.474 -0.568 1.036 -0.522 1.599 -0.32 1.886 -0.032 1.694 0.308 1.34 0.576 0.651 0.558 0.356 0.705 0.003 0.67 -0.335 0.848 -0.742 0.823 -1.121 0.671 0 0 -1.19 0.218 0 0 0.323 1.462 1.026 -0.25 1.212 0.07 1.44 0.445 1.298 0.734 0.902 0.838 0.459 0.782 0.094 0.757 -0.21 0.725 -0.624 0.875 -1.514 1.169 -1.876 0.911 -2.119 0.469 -1.825 -0.004 -0.874 -0.28 -0.78 -0.558 -0.42 -0.662 -0.099 -1.349 0.004 -0.077 0.166 -0.439 0.107 -0.231 0.126 -0.263 0.738 -1.465 -0.106 -0.089 -1.316 0.979 -0.254 0.189 -0.254 0.243 -0.377 0.504 -0.187 0.39 -0.069 2.048 0.789 1.294 1.22 0.888 1.338 0.439 2.245 0.002 2.461 -0.563 2.173 -1.068 1.817 -1.4 0.913 -1.272 0.363 -1.283 -0.177 -1.379 -0.736 -1.243 -1.201 -1.106 -1.598 -0.89 -1.766 -0.55 -1.624 -0.096 -1.247 0.316 0.323 1.462 0 0 1.443 -0.293 0 0 1.527 -0.932 1.05 -1.191 0.521 -1.353 -0.018 -1.282 -0.642 -1.251 -1.029 -0.882 -1.687 -0.726 -1.992 -0.362 -2.159 0.046 -1.914 0.406 -1.449 0.779 -0.821 1.074 -0.178 1.083 0.029 0.248 0.507 4.258 0.004 0.449 -0.323 18.164 -0.005 0.538 0.275 2.468 0.668 0.173 0 0 0.161 -0.327 0.021 -0.078 0.275 -1.334" />
    <path class="write-flat-pen" fill="#FFFFFF" stroke-width="1.6" __comx="352.728" __comy="104.663" __timestamp="0x178102026a0" d="M347.118 83.957 l0.073 0.561 0.061 0.16 0.326 0.629 0.204 0.306 1.186 1.545 0.383 0.457 3.187 3.203 2.3 1.734 1.7 0.633 0.091 0.007 1.684 -0.115 0.025 -0.121 -1.497 -0.779 0.014 -0.009 -1.404 -0.676 -2.104 -1.609 -3.176 -3.045 -0.369 -0.396 -1.29 -1.413 -0.21 -0.235 -0.408 -0.491 -0.047 -0.048 -0.221 -0.447" />
    <path class="write-flat-pen" fill="#FFFFFF" stroke-width="1.6" __comx="353.412" __comy="104.663" __timestamp="0x17810202763" d="M348.538 94.761 l0.402 -0.63 0.099 -0.105 1.455 -1.593 0.458 -0.514 3.826 -4.585 2.723 -3.963 0.333 -0.575 0.287 -0.534 0.218 -0.511 0.661 -1.525 -0.143 -0.09 -1.087 1.257 -0.36 0.408 -0.376 0.461 -0.393 0.515 -2.825 3.816 -3.762 4.565 -0.438 0.523 -1.357 1.731 -0.138 0.221 -0.296 0.773" />
    <path class="write-flat-pen" fill="#FFFFFF" stroke-width="1.6" __comx="370.468" __comy="104.663" __timestamp="0x17810202abe" d="M365.148 109.643 l0.56 0.004 0.13 0.003 1.335 -0.013 0.378 -0.008 6.367 -0.548 0.186 -0.036 1.749 -0.312 -0.002 -0.109 -1.757 -0.262 -0.21 -0.03 -6.389 0.418 -0.375 0.032 -1.344 0.181 -0.145 0.033 -0.546 0.145" />
    <path class="write-flat-pen" fill="#FFFFFF" stroke-width="1.6" __comx="371.221" __comy="104.663" __timestamp="0x17810202b9f" d="M370.179 105.696 l0.263 0.534 0.019 0.082 0.524 1.92 0.449 4.326 0.04 0.359 0.05 0.312 0.265 1.718 0.123 0 0.267 -1.718 0.051 -0.316 0.034 -0.395 -0.304 -4.478 -0.703 -2.017 -0.092 -0.187 -0.455 -0.506" />
    <path class="write-flat-pen" fill="#FFFFFF" stroke-width="1.6" __comx="388.377" __comy="104.663" __timestamp="0x17810202e58" d="M383.667 111.667 l-0.402 -0.263 0.033 0.009 -0.157 -0.519 0.011 -0.086 0.508 -1.702 0.101 -0.19 0.849 -1.191 0.801 -0.578 0.631 -0.117 0.511 0.134 0.749 0.557 0.979 1.303 1.838 3.454 1.078 1.377 1.168 0.736 0.197 0.067 0.153 0.03 1.717 0.32 0.037 -0.08 -1.354 -1.103 -0.104 -0.089 -0.083 -0.077 -0.871 -0.704 -0.888 -1.16 -1.857 -3.436 -1.162 -1.506 -1.088 -0.784 -0.995 -0.241 -1.142 0.239 -1.141 0.874 -0.942 1.45 -0.166 0.365 -0.399 1.984 0.048 0.372 0.419 0.707 0.162 0.127 0.559 0.165" />
    <path class="write-flat-pen" fill="#FFFFFF" stroke-width="1.6" __comx="393.418" __comy="110.111" __timestamp="0x17810203034" d="M398.27 105.108 l-0.069 -0.592 -0.389 0.035 -0.26 0.131 -0.122 0.098 -0.406 0.432 -0.169 0.213 -0.931 1.25 -0.302 0.418 -4.44 7.259 -0.425 0.858 -1.345 3.473 -0.616 2.871 -0.231 3.214 0.304 3.309 0.692 3.141 0.974 2.705 1.225 2.046 0.457 0.544 0.473 0.46 0.538 0.404 0.526 0.298 0.555 0.201 1.507 0.547 0.069 -0.12 -1.234 -1.024 -0.413 -0.353 -0.366 -0.351 -0.385 -0.413 -0.34 -0.43 -0.322 -0.47 -1.015 -1.919 -0.86 -2.52 -0.639 -2.969 -0.279 -3.104 0.199 -3 0.545 -2.67 1.255 -3.319 0.367 -0.753 4.247 -7.27 0.259 -0.412 0.793 -1.348 0.12 -0.223 0.244 -0.469 0.021 -0.06 0.003 -0.091 -0.321 0.024 0.072 0.042" />
    <path class="write-flat-pen" fill="#FFFFFF" stroke-width="1.6" __comx="112.106" __comy="200.23" __timestamp="0x17810205853" d="M115.905 184.634 l-0.071 -0.722 -0.042 -0.137 -0.381 -0.781 -0.15 -0.171 -1.371 -0.763 -0.437 -0.066 -1.618 0.096 -1.799 0.541 -1.81 1.003 -1.7 1.435 -1.299 1.648 -0.987 1.94 -0.337 1.609 0.506 1.068 1.45 0.913 4.816 1.57 3.347 1.458 2.401 1.414 1.763 1.41 1.492 1.738 0.499 1.093 0.237 1.598 -0.232 1.165 -0.672 1.208 -1.219 1.229 -1.713 1.109 -2.154 0.877 -1.683 0.366 -2.8 0.116 -2.436 -0.269 -2.021 -0.565 -1.026 -0.697 -0.37 -0.512 -0.179 -0.75 0.218 -1.001 0.686 -1.068 1.586 -1.414 0.444 -0.316 1.006 -0.65 0.521 -0.319 0.579 -0.336 0.586 -0.355 1.392 -0.833 -0.041 -0.095 -1.557 0.454 -0.664 0.191 -0.651 0.226 -0.601 0.24 -1.126 0.544 -0.56 0.322 -1.886 1.46 -0.974 1.401 -0.371 1.549 0.305 1.333 0.673 0.94 1.418 0.961 2.347 0.658 2.654 0.293 3.026 -0.124 1.919 -0.42 2.383 -0.984 1.939 -1.274 1.439 -1.483 0.836 -1.568 0.284 -1.593 -0.334 -1.987 -0.667 -1.396 -1.688 -1.941 -1.921 -1.53 -2.541 -1.489 -3.468 -1.505 -4.731 -1.54 -1.037 -0.646 -0.192 -0.396 0.22 -1.069 0.858 -1.701 1.15 -1.47 1.517 -1.303 1.596 -0.922 1.56 -0.514 1.39 -0.145 0.176 0.012 1.163 0.486 0.004 -0.009 0.446 0.579 0.026 0.032 0.227 0.636" />
    <path class="write-flat-pen" fill="#FFFFFF" stroke-width="1.6" __comx="129.639" __comy="200.23" __timestamp="0x17810205a6e" d="M129.503 198.725 l-0.223 -0.228 -0.018 -0.038 -0.223 -0.322 -0.101 -0.092 -0.529 -0.273 -0.252 -0.014 -0.981 0.241 -0.284 0.174 -0.969 1.04 -0.648 1.672 -0.116 1.742 0.299 1.368 0.786 1.526 1.03 1.025 1.119 0.491 1.33 0.034 1.346 -0.435 1.515 -1.096 1.033 -1.508 0.501 -1.772 -0.01 -1.824 -0.563 -1.771 -1.04 -1.432 -1.181 -0.821 -1.541 -0.233 -0.358 0.125 -0.358 0.255 -0.134 0.157 -0.848 1.09 0.063 0.084 1.285 -0.505 0.123 -0.035 0.25 -0.05 0.015 0.024 0.981 0.281 0.752 0.574 0.765 1.099 0.435 1.372 0.011 1.427 -0.388 1.375 -0.775 1.132 -1.152 0.837 -0.925 0.304 -0.842 -0.014 -0.659 -0.278 -0.727 -0.697 -0.652 -1.184 -0.259 -1.032 0.05 -1.397 0.451 -1.343 0.669 -0.852 0.05 -0.048 0.687 -0.315 -0.011 -0.017 0.372 0.041 0.02 -0.005 0.314 0.17 0.064 0.039 0.333 0.119" />
    <path class="write-flat-pen" fill="#FFFFFF" stroke-width="1.6" __comx="139.617" __comy="200.23" __timestamp="0x17810205b95" d="M137.778 187.317 l-0.091 1.371 0.005 0.427 0.674 7.331 0.136 1.057 0.929 6.73 0.904 3.828 0.152 0.161 0.964 0.847 0.096 -0.062 -0.378 -1.226 0.003 -0.07 -0.747 -3.657 -0.947 -6.684 -0.143 -1.038 -0.838 -7.277 -0.034 -0.384 -0.082 -1.351" />
    <path class="write-flat-pen" fill="#FFFFFF" stroke-width="1.6" __comx="148.977" __comy="200.23" __timestamp="0x17810205d6d" d="M144.503 198.03 l0.192 0.363 0.013 0.053 0.331 0.707 0.137 0.275 1.017 1.964 0.248 0.473 1.716 3.003 1.096 1.321 1.103 0.524 1.123 -0.204 0.916 -0.939 0.709 -1.865 0.346 -2.665 -0.248 -4.75 -0.023 -0.184 -0.056 -0.311 -0.487 -1.81 -0.299 0.024 -0.19 1.858 -0.015 0.303 -0.003 0.168 0.07 4.641 -0.324 2.417 -0.56 1.492 -0.454 0.487 -0.353 0.081 -0.523 -0.228 -0.883 -1.032 -1.747 -2.857 -0.266 -0.453 -1.167 -1.889 -0.174 -0.263 -0.459 -0.624 -0.061 -0.082 -0.357 -0.305" />
    <path class="write-flat-pen" fill="#FFFFFF" stroke-width="1.6" __comx="161.163" __comy="200.23" __timestamp="0x17810205f24" d="M154.934 199.954 l0.377 0.446 0.13 0.097 0.838 0.468 0.253 0.089 1.852 0.228 0.397 -0.053 1.559 -0.415 1.217 -0.733 0.687 -0.945 0.142 -0.991 -0.486 -0.841 -1.006 -0.367 -1.249 0.176 -1.222 0.611 -1.034 0.997 -0.939 1.698 -0.443 1.775 0.091 1.677 0.457 1.164 0.925 1.088 1.472 0.783 1.869 0.302 2.933 -0.599 0.809 -0.35 0.79 -0.433 0.736 -0.519 1.301 -0.904 -0.085 -0.169 -1.503 0.5 -0.834 0.267 -0.806 0.258 -0.718 0.214 -2.632 0.404 -1.428 -0.25 -1.061 -0.56 -0.626 -0.725 -0.312 -0.763 -0.095 -1.277 0.329 -1.437 0.749 -1.403 0.762 -0.745 0.878 -0.443 0.755 -0.107 0.311 0.114 0.059 0.104 -0.037 0.29 -0.364 0.523 -0.863 0.558 -1.323 0.422 -0.203 0.042 -1.646 -0.051 -0.115 -0.021 -0.814 -0.276 -0.054 -0.015 -0.432 -0.29" />
    <path class="write-flat-pen" fill="#FFFFFF" stroke-width="1.6" __comx="202.847" __comy="200.23" __timestamp="0x178102061ee" d="M200.079 207.813 l0.143 0.599 0.041 0.098 0.166 0.383 0.264 0.23 0.589 -0.223 0.108 -0.368 0.003 -1.012 -0.047 -0.357 -0.652 -2.798 -0.158 -0.6 -2.311 -8.985 -0.137 -0.612 -0.401 -3.004 -0.036 -2.615 0.311 -2.202 0.613 -2.074 0.738 -1.408 0.645 -0.718 0.982 -0.58 1.256 -0.329 1.572 0.075 1.166 0.388 1.379 0.912 0.772 0.851 1.083 2.425 0.06 0.24 0.138 0.813 0.022 0.222 0.033 0.401 0.013 0.187 0.044 1.709 0.121 0.026 0.744 -1.539 0.101 -0.221 0.123 -0.477 0.046 -0.335 -0.015 -0.963 -0.06 -0.459 -1.106 -2.877 -1.076 -1.21 -1.719 -1.146 -1.576 -0.528 -2.038 -0.093 -1.702 0.459 -1.373 0.819 -0.937 1.042 -0.903 1.717 -0.696 2.335 -0.333 2.443 0.057 2.83 0.453 3.159 0.166 0.702 2.487 8.974 0.176 0.591 0.789 2.703 0.062 0.252 0.15 0.794 0.062 -0.171 0.29 -0.062 0.194 0.175 -0.211 -0.19 -0.032 -0.032 -0.273 -0.506" />
    <path class="write-flat-pen" fill="#FFFFFF" stroke-width="1.6" __comx="199.232" __comy="200.23" __timestamp="0x178102062ee" d="M190.714 195.603 l1.154 -0.614 2.512 -0.403 10.753 -0.336 0.468 -0.003 0.439 -0.015 0.445 -0.042 1.73 -0.149 0.012 -0.173 -1.692 -0.39 -0.439 -0.105 -0.438 -0.069 -0.508 -0.061 -10.883 0.217 -2.771 0.522 -1.259 0.815" />
    <path class="write-flat-pen" fill="#FFFFFF" stroke-width="1.6" __comx="215.208" __comy="200.23" __timestamp="0x178102064ca" d="M215.122 193.138 l-0.007 -0.457 -0.036 -0.109 -0.219 -0.27 -0.32 0.041 -0.373 0.235 -0.168 0.18 -0.464 0.658 -0.19 0.345 -1.022 3.095 -0.099 0.574 -0.2 2.345 0.262 2.991 0.513 2.007 0.943 1.939 1.471 1.356 0.301 0.148 0.698 0.201 0.298 0.018 0.423 -0.069 1.455 -0.374 -0.002 -0.05 -1.457 -0.281 -0.331 -0.086 -0.124 -0.061 -0.493 -0.277 -0.088 -0.07 -1.093 -1.2 -0.746 -1.644 -0.446 -1.781 -0.247 -2.773 0.163 -2.182 0.066 -0.439 0.811 -2.973 0.098 -0.244 0.296 -0.645 0.042 -0.101 0.054 -0.157 -0.223 0.021 -0.062 -0.136 -0.022 -0.073 0.158 0.373" />
    <path class="write-flat-pen" fill="#FFFFFF" stroke-width="1.6" __comx="224.504" __comy="200.23" __timestamp="0x178102065ce" d="M219.244 193.973 l0.304 1.03 0.1 0.261 1.397 2.816 0.324 0.533 2.174 3.165 1.99 2.164 1.707 1.322 1.629 0.7 0.248 -0.001 0.247 -0.071 0.091 -0.068 0.308 -0.393 -0.069 -0.23 -0.474 -0.158 0.017 -0.046 -0.035 -0.075 -0.003 -0.039 -1.305 -0.685 -1.513 -1.182 -1.878 -2.015 -2.17 -3.031 -0.303 -0.463 -1.514 -2.665 -0.101 -0.197 -0.453 -0.949" />
    <path class="write-flat-pen" fill="#FFFFFF" stroke-width="1.6" __comx="223.27" __comy="200.23" __timestamp="0x17810206699" d="M218.448 205.181 l0.487 -0.554 0.065 -0.029 1.42 -0.757 0.399 -0.217 2.384 -1.473 2.808 -2.344 1.144 -1.397 0.314 -0.497 0.258 -0.465 0.227 -0.473 0.179 -0.467 0.615 -1.579 -0.119 -0.07 -1.077 1.308 -0.315 0.376 -0.309 0.393 -0.311 0.394 -0.324 0.402 -1.128 1.207 -2.694 2.204 -2.262 1.471 -0.375 0.228 -1.403 0.928 -0.21 0.186 -0.432 0.771" />
    <path class="write-flat-pen" fill="#FFFFFF" stroke-width="1.6" __comx="234.706" __comy="200.23" __timestamp="0x178102067c2" d="M230.817 188.941 l0.925 0.642 0.162 0.13 1.621 1.491 0.291 0.312 1.297 1.557 1.146 1.954 0.654 1.72 0.426 2.487 -0.026 2.024 -0.354 2.032 -1.252 3.075 -0.288 0.493 -0.598 0.917 -0.267 0.379 -0.273 0.377 -0.975 1.325 0.07 0.069 1.32 -0.982 0.391 -0.29 0.378 -0.347 0.773 -0.866 0.408 -0.567 1.496 -3.224 0.421 -2.27 0.034 -2.242 -0.468 -2.723 -0.748 -1.931 -1.289 -2.115 -1.443 -1.617 -0.367 -0.357 -1.801 -1.429 -0.245 -0.15 -1.033 -0.521" />
    <path class="write-flat-pen" fill="#FFFFFF" stroke-width="1.6" __comx="249.29" __comy="200.23" __timestamp="0x17810206972" d="M244.264 195.786 l0.591 -0.404 7.297 0.432 0.357 -0.026 0.619 -0.069 1.708 -0.225 0.001 -0.057 -1.699 -0.284 -0.613 -0.093 -0.335 -0.043 -7.634 -0.596 -0.812 0.712" />
    <path class="write-flat-pen" fill="#FFFFFF" stroke-width="1.6" __comx="250.691" __comy="200.23" __timestamp="0x17810206a5a" d="M246.979 200.408 l0.65 0.044 0.146 0.021 4.565 0.272 0.383 -0.043 1.714 -0.185 0.005 -0.132 -1.694 -0.317 -0.367 -0.072 -4.568 -0.355 -0.201 0.014 -0.673 0.129" />
    <path class="write-flat-pen" fill="#FFFFFF" stroke-width="1.6" __comx="273.852" __comy="200.23" __timestamp="0x17810206faf" d="M267.147 208.31 l-0.84 -0.039 -0.378 0.372 0.481 0.687 0.406 0.111 6.812 -0.569 4.713 0.072 0.624 0.061 0.584 0.053 0.547 0.029 1.652 0.098 0.027 -0.133 -1.562 -0.546 -0.523 -0.186 -0.582 -0.157 -0.678 -0.146 -4.835 -0.247 -6.715 0.724 0.029 0.023 0.039 0.163 -0.314 0.307 0.546 -0.118" />
    <path class="write-flat-pen" fill="#FFFFFF" stroke-width="1.6" __comx="283.644" __comy="200.23" __timestamp="0x178102071ce" d="M272.684 207.656 l-0.379 -0.512 0.046 0.171 0.301 -0.806 0.119 -0.248 9.257 -16.887 0.097 -0.176 0.443 -0.744 -0.053 0.045 0.249 0.202 1.162 1.857 5.329 11.829 2.349 4.49 1.952 2.227 0.309 0.16 0.382 0.076 1.551 0.102 0.054 -0.158 -1.254 -0.865 -0.217 -0.174 -0.042 -0.05 -1.598 -2.071 -2.235 -4.343 -5.343 -11.891 -1.391 -2.145 -1.142 -0.792 -0.989 0.524 -0.622 1.1 -0.103 0.192 -9.13 17.019 -0.143 0.377 -0.209 1.128 0.069 0.277 0.669 0.576" />
    <path class="write-flat-pen" fill="#FFFFFF" stroke-width="1.6" __comx="295.517" __comy="200.23" __timestamp="0x17810207330" d="M286.208 209.742 l0.515 0.358 0.182 0.085 1.211 0.341 0.52 0.088 3.63 0.222 7.604 -0.823 0.562 -0.082 1.073 -0.167 0.558 -0.091 0.576 -0.09 0.546 -0.101 1.64 -0.295 -0.005 -0.107 -1.661 -0.142 -0.559 -0.05 -0.597 -0.017 -0.581 0.007 -1.095 0.049 -0.566 0.04 -7.528 0.68 -3.502 -0.102 -0.439 -0.041 -1.149 -0.162 -0.081 -0.009 -0.528 -0.202" />
    <path class="write-flat-pen" fill="#FFFFFF" stroke-width="1.6" __comx="337.438" __comy="200.23" __timestamp="0x1781020761e" d="M334.267 207.632 l0.144 0.593 0.03 0.065 0.176 0.25 0.298 -0.011 0.27 -0.285 0.071 -0.219 0.071 -0.633 -0.006 -0.314 -0.169 -1.72 -0.078 -0.54 -1.35 -6.749 -0.187 -0.758 -1.206 -4.943 -0.351 -2.709 0.095 -1.57 0.458 -1.512 0.755 -1.278 0.999 -0.912 1.384 -0.613 1.356 -0.193 1.649 0.242 1.292 0.544 1.15 0.852 0.898 1.041 0.845 1.707 0.129 0.406 0.216 0.9 0.079 0.415 0.054 0.42 0.067 0.415 0.251 1.695 0.18 0.006 0.355 -1.676 0.093 -0.424 0.054 -0.481 -0.003 -0.513 -0.105 -1.017 -0.122 -0.583 -0.86 -2.044 -1.102 -1.35 -1.424 -1.078 -1.635 -0.697 -2.057 -0.302 -1.78 0.258 -1.792 0.809 -1.338 1.229 -0.955 1.629 -0.541 1.857 -0.087 1.878 0.405 2.916 1.263 5.011 0.188 0.734 1.51 6.666 0.1 0.496 0.318 1.655 0.045 0.242 0.077 0.509 0.026 0.011 0.088 0.002 0.238 -0.004 -0.036 0.068 0.009 0.029 -0.283 -0.505" />
    <path class="write-flat-pen" fill="#FFFFFF" stroke-width="1.6" __comx="334.816" __comy="200.23" __timestamp="0x178102076fc" d="M326.491 199.529 l2.594 -0.089 0.469 0.029 9.614 0.17 0.644 -0.05 0.618 -0.066 0.585 -0.079 0.565 -0.108 1.623 -0.303 -0.006 -0.105 -1.646 -0.128 -0.569 -0.047 -0.581 -0.028 -0.612 -0.028 -0.62 -0.021 -9.573 -0.298 -0.519 -0.023 -2.647 0.267" />
    <path class="write-flat-pen" fill="#FFFFFF" stroke-width="1.6" __comx="348.937" __comy="200.23" __timestamp="0x178102078b9" d="M349.917 200.091 l-0.42 -0.441 -0.145 -0.101 -0.71 -0.169 -0.322 0.053 -1.268 0.565 -1.32 1.115 -0.775 1.139 -0.538 1.611 0.02 1.403 0.655 1.435 0.938 0.878 1.465 0.598 1.389 0.024 1.642 -0.533 1.139 -0.782 1.09 -1.422 0.641 -1.908 0.058 -1.542 -0.405 -1.211 -0.994 -1.212 -1.174 -0.63 -1.238 0.206 -0.312 0.271 -0.255 0.423 -0.094 0.276 -0.013 0.265 -0.02 1.299 0.118 0.035 0.699 -1.095 0.111 -0.146 0.081 -0.067 0.202 -0.151 -0.043 0.064 0.479 0.02 0.531 0.325 0.632 0.817 0.233 0.718 -0.038 1.073 -0.488 1.488 -0.798 1.061 -0.778 0.551 -1.222 0.416 -0.902 -0.001 -1.009 -0.388 -0.585 -0.517 -0.468 -0.942 -0.044 -0.924 0.382 -1.266 0.571 -0.886 1.06 -0.955 0.978 -0.538 0.03 -0.021 0.395 -0.026 -0.035 -0.036 0.484 0.273" />
    <path class="write-flat-pen" fill="#FFFFFF" stroke-width="1.6" __comx="364.147" __comy="200.23" __timestamp="0x17810207a4e" d="M358.694 201.267 l0.1 0.531 0.004 0.091 0.081 0.983 0.021 0.287 0.16 1.78 0.028 0.262 0.22 1.609 0.026 0.093 1.205 -0.05 0.845 -2.787 0.089 -0.332 1.059 -4.224 0.806 -2.063 0.65 -1.002 0.798 -0.625 0.407 -0.105 0.687 0.12 1.427 1.079 0.143 0.153 0.362 0.42 0.196 0.212 0.19 0.174 1.284 1.192 0.116 -0.081 -0.664 -1.622 -0.092 -0.233 -0.118 -0.258 -0.27 -0.514 -0.209 -0.326 -1.726 -1.554 -1.375 -0.265 -1.023 0.26 -1.232 0.971 -0.86 1.334 -0.892 2.289 -1.061 4.31 -0.081 0.318 -0.677 2.826 1.205 -0.05 -0.006 0.007 -0.356 -1.458 -0.043 -0.231 -0.318 -1.752 -0.057 -0.298 -0.257 -0.991 -0.051 -0.142 -0.277 -0.509" />
    <path class="write-flat-pen" fill="#FFFFFF" stroke-width="1.6" __comx="396.807" __comy="200.23" __timestamp="0x17810207c8a" d="M389.864 193.068 l0.467 0.529 0.096 0.174 0.563 1.011 0.27 0.439 1.554 2.205 0.497 0.655 5.133 6.269 2.333 2.31 1.99 1.315 0.266 0.049 0.321 -0.031 0.289 -0.121 0.089 -0.184 0.018 -0.517 -0.157 -0.127 -0.502 0.124 0.03 -0.111 0.177 -0.092 -0.014 -0.078 0.024 -0.024 -1.66 -1.245 -2.2 -2.187 -5.175 -6.127 -0.501 -0.611 -1.646 -2.083 -0.283 -0.385 -0.689 -0.947 -0.204 -0.239 -0.648 -0.462" />
    <path class="write-flat-pen" fill="#FFFFFF" stroke-width="1.6" __comx="398.499" __comy="200.23" __timestamp="0x17810207d52" d="M392.179 208.625 l0.371 -0.852 0.101 -0.136 1.049 -1.364 0.377 -0.48 9.922 -11.95 0.268 -0.395 0.235 -0.375 0.197 -0.337 0.163 -0.319 0.784 -1.519 -0.082 -0.063 -1.268 1.148 -0.265 0.237 -0.274 0.269 -0.308 0.309 -0.316 0.339 -10.02 11.895 -0.383 0.538 -0.965 1.497 -0.143 0.279 -0.269 0.994" />
    <path class="write-flat-pen" fill="#FFFFFF" stroke-width="1.6" __comx="414.14" __comy="200.23" __timestamp="0x17810207f7f" d="M415.278 209.33 l-0.706 -0.058 -0.046 -0.01 -0.609 -0.207 0.024 0 -0.396 -0.549 0.032 0.09 0.063 -0.167 0.168 -0.108 0.383 -0.03 0.206 0.118 -0.037 -0.063 0.049 -0.102 -0.326 0.094 -1.107 0.207 -0.04 0.122 1.038 0.916 1.221 -0.131 0.597 -0.975 -0.4 -0.974 -0.98 -0.487 -1.114 0.164 -0.717 0.656 -0.094 0.791 0.097 0.381 0.814 0.769 0.232 0.103 0.821 0.094 0.134 -0.01 0.713 -0.112" />
  </g>
</svg>
