<svg class="write-page" color-interpolation="linearRGB" width="1010px" height="1628px" xmlns="http://www.w3.org/2000/svg" xmlns:xlink="http://www.w3.org/1999/xlink">
  <g class="write-content write-v3" width="1010" height="1628" xruling="30" yruling="30" marginLeft="30" papercolor="#1B1C1C" rulecolor="#3A00F9FF">
    <g class="ruleline write-std-ruling write-scale-down" fill="none" stroke="#00F9FF" stroke-opacity="0.227" stroke-width="1" shape-rendering="crispEdges" vector-effect="non-scaling-stroke">
      <rect class="pagerect" fill="#1B1C1C" stroke="none" x="0" y="0" width="1010" height="1628" />
      <path class="yrule_1" d="M0 30 l1010 0" />
      <path d="M0 60 l1010 0" />
      <path d="M0 90 l1010 0" />
      <path d="M0 120 l1010 0" />
      <path d="M0 150 l1010 0" />
      <path d="M0 180 l1010 0" />
      <path d="M0 210 l1010 0" />
      <path d="M0 240 l1010 0" />
      <path d="M0 270 l1010 0" />
      <path d="M0 300 l1010 0" />
      <path d="M0 330 l1010 0" />
      <path d="M0 360 l1010 0" />
      <path d="M0 390 l1010 0" />
      <path d="M0 420 l1010 0" />
      <path d="M0 450 l1010 0" />
      <path d="M0 480 l1010 0" />
      <path d="M0 510 l1010 0" />
      <path d="M0 540 l1010 0" />
      <path d="M0 570 l1010 0" />
      <path d="M0 600 l1010 0" />
      <path d="M0 630 l1010 0" />
      <path d="M0 660 l1010 0" />
      <path d="M0 690 l1010 0" />
      <path d="M0 720 l1010 0" />
      <path d="M0 750 l1010 0" />
      <path d="M0 780 l1010 0" />
      <path d="M0 810 l1010 0" />
      <path d="M0 840 l1010 0" />
      <path d="M0 870 l1010 0" />
      <path d="M0 900 l1010 0" />
      <path d="M0 930 l1010 0" />
      <path d="M0 960 l1010 0" />
      <path d="M0 990 l1010 0" />
      <path d="M0 1020 l1010 0" />
      <path d="M0 1050 l1010 0" />
      <path d="M0 1080 l1010 0" />
      <path d="M0 1110 l1010 0" />
      <path d="M0 1140 l1010 0" />
      <path d="M0 1170 l1010 0" />
      <path d="M0 1200 l1010 0" />
      <path d="M0 1230 l1010 0" />
      <path d="M0 1260 l1010 0" />
      <path d="M0 1290 l1010 0" />
      <path d="M0 1320 l1010 0" />
      <path d="M0 1350 l1010 0" />
      <path d="M0 1380 l1010 0" />
      <path d="M0 1410 l1010 0" />
      <path d="M0 1440 l1010 0" />
      <path d="M0 1470 l1010 0" />
      <path d="M0 1500 l1010 0" />
      <path d="M0 1530 l1010 0" />
      <path d="M0 1560 l1010 0" />
      <path d="M0 1590 l1010 0" />
      <path d="M0 1620 l1010 0" />
      <path class="xrule_1" d="M30 0 l0 1628" />
      <path d="M60 0 l0 1628" />
      <path d="M90 0 l0 1628" />
      <path d="M120 0 l0 1628" />
      <path d="M150 0 l0 1628" />
      <path d="M180 0 l0 1628" />
      <path d="M210 0 l0 1628" />
      <path d="M240 0 l0 1628" />
      <path d="M270 0 l0 1628" />
      <path d="M300 0 l0 1628" />
      <path d="M330 0 l0 1628" />
      <path d="M360 0 l0 1628" />
      <path d="M390 0 l0 1628" />
      <path d="M420 0 l0 1628" />
      <path d="M450 0 l0 1628" />
      <path d="M480 0 l0 1628" />
      <path d="M510 0 l0 1628" />
      <path d="M540 0 l0 1628" />
      <path d="M570 0 l0 1628" />
      <path d="M600 0 l0 1628" />
      <path d="M630 0 l0 1628" />
      <path d="M660 0 l0 1628" />
      <path d="M690 0 l0 1628" />
      <path d="M720 0 l0 1628" />
      <path d="M750 0 l0 1628" />
      <path d="M780 0 l0 1628" />
      <path d="M810 0 l0 1628" />
      <path d="M840 0 l0 1628" />
      <path d="M870 0 l0 1628" />
      <path d="M900 0 l0 1628" />
      <path d="M930 0 l0 1628" />
      <path d="M960 0 l0 1628" />
      <path d="M990 0 l0 1628" />
      <path class="leftmargin" stroke="#FF0000" d="M30 0 l0 1628" />
    </g>
    <path class="write-flat-pen" fill="#FFFFFF" stroke-width="1.6" __comx="74.951" __comy="51.38" __timestamp="0x1781adaa1a2" d="M67.7 36.068 l0.227 -0.627 -0.366 0.116 0.302 0.598 0.061 0.247 0.852 4.953 0.105 1.049 0.214 5.798 -0.587 7.577 0 0 -0.401 1.091 0 0 1.247 -0.168 -0.375 -0.538 -0.479 -4.825 0.177 -11.464 -0.93 -4.605 0.026 -0.037 1.002 -0.341 4.472 -0.145 7.49 0.713 0.2 0.027 2.716 0.649 0.086 -0.195 -2.313 -1.563 -0.339 -0.21 -7.776 -1.022 -4.833 0.173 -1.941 0.701 -0.37 1.158 1.036 4.838 -0.146 11.385 0.543 5.278 0.597 0.84 1.247 -0.168 0 0 0.454 -1.276 0 0 0.58 -7.852 -0.29 -5.921 -0.141 -1.144 -1.129 -5.023 -0.179 -0.453 -0.897 -0.94 -0.515 0.154 -0.041 1.11" />
    <path class="write-flat-pen" fill="#FFFFFF" stroke-width="1.6" __comx="74.962" __comy="51.38" __timestamp="0x1781adaa2c0" d="M67.281 46.702 l0.344 -0.498 -0.066 0.066 2.199 -0.314 0.322 -0.017 10.186 -0.056 0.192 -0.027 2.844 -0.377 0.003 -0.105 -2.822 -0.516 -0.2 -0.036 -10.254 -0.213 -0.459 0.049 -2.381 0.63 -0.356 0.231 -0.212 0.924" />
    <path class="write-flat-pen" fill="#FFFFFF" stroke-width="1.6" __comx="77.655" __comy="51.38" __timestamp="0x1781adaa3e3" d="M69.239 55.695 l-0.573 -0.288 0.163 0.64 -0.066 0.092 0.958 0.036 0.405 0.006 14.086 -0.3 2.803 -0.484 -0.006 -0.144 -2.821 -0.248 -14.09 0.056 -0.454 0.038 -1.242 0.27 -0.105 0.131 0.163 0.64 0.639 0.053" />
    <path class="write-flat-pen" fill="#FFFFFF" stroke-width="1.6" __comx="97.177" __comy="51.38" __timestamp="0x1781adaa500" d="M91.096 43.738 l-0.501 -0.132 0.285 0.732 0.167 0.301 5.444 7.092 0.415 0.407 1.885 1.446 2.452 0.812 2.55 -0.085 0.005 -0.036 -2.346 -0.704 -2.113 -0.958 -1.699 -1.319 -0.319 -0.31 -5.591 -6.828 -0.17 -0.233 -0.5 -0.591 -0.501 0.407" />
    <path class="write-flat-pen" fill="#FFFFFF" stroke-width="1.6" __comx="97.484" __comy="51.38" __timestamp="0x1781adaa5cc" d="M92.879 56.098 l-0.366 -0.725 0.022 0.027 0.783 -1.796 0.278 -0.429 6.925 -9.077 0.459 -0.657 0.834 -1.262 1.426 -2.23 -0.036 -0.028 -1.822 1.917 -1.038 1.093 -0.549 0.592 -7.117 9.025 -0.334 0.597 -0.615 2.135 0.038 0.359 0.725 0.746" />
    <path class="write-flat-pen" fill="#FFFFFF" stroke-width="1.6" __comx="86.899" __comy="51.38" __timestamp="0x1781adaa76a" d="M61.697 64.355 l1.515 -0.159 0.667 0.007 44.493 1.796 1.454 -0.025 2.372 -0.038 0.005 -0.11 -2.359 -0.254 -1.447 -0.158 -44.512 -2.06 -0.762 0.047 -1.528 0.436" />
    <path class="write-flat-pen" fill="#FFFFFF" stroke-width="1.6" __comx="192.108" __comy="50.115" __timestamp="0x1781adaf767" d="M187.886 41.084 l0.288 0.855 0.119 0.254 1.65 2.82 0.316 0.507 3.9 5.993 2.126 1.324 0.046 -0.053 -1.52 -1.839 -3.829 -5.896 -0.334 -0.492 -1.856 -2.665 -0.14 -0.207 -0.5 -0.735" />
    <path class="write-flat-pen" fill="#FFFFFF" stroke-width="1.6" __comx="194.803" __comy="50.115" __timestamp="0x1781adaf89c" d="M200.534 39.222 l-0.331 1.691 -0.145 0.507 -2.084 6.424 -0.485 1.267 -6.284 16.358 -1.96 6.295 -0.524 4.725 0.174 0.267 0.804 0.959 0.063 -0.025 -0.077 -1.249 0.037 -0.077 0.683 -4.346 1.891 -6.175 6.071 -16.404 0.466 -1.306 1.838 -6.547 0.111 -0.568 0.101 -1.752" />
    <path class="write-flat-pen" fill="#FFFFFF" stroke-width="1.6" __comx="218.717" __comy="50.115" __timestamp="0x1781adafa7b" d="M213.186 45.292 l0.96 -0.089 0.228 0.025 7.206 0.145 2.745 -0.118 0.001 -0.034 -2.731 -0.312 -7.19 -0.309 -0.31 -0.013 -0.989 0.372" />
    <path class="write-flat-pen" fill="#FFFFFF" stroke-width="1.6" __comx="220.56" __comy="50.115" __timestamp="0x1781adafb60" d="M213.5 51.602 l0.929 -0.334 0.263 -0.034 10.411 -0.198 2.701 -0.022 0.004 -0.061 -2.689 -0.415 -10.496 -0.008 -0.417 0.094 -0.894 0.618" />
    <path class="write-flat-pen" fill="#FFFFFF" stroke-width="1.6" __comx="250.856" __comy="50.115" __timestamp="0x1781adafdd8" d="M243.454 48.238 l0.224 0.514 0.156 0.114 1.323 0.671 0.321 0.101 2.056 0.313 2.099 -0.36 1.852 -1.071 1.272 -1.612 0.415 -1.632 -0.545 -1.486 -1.594 -1.11 -2.142 -0.405 -2.163 0.387 -1.986 1.078 -1.72 1.714 -1.145 1.997 -0.668 2.565 0.215 2.089 1.126 2.015 1.956 1.384 1.954 0.553 2.47 -0.099 3.301 -1.061 5.401 -3.659 0.414 -0.41 0.811 -0.967 1.644 -2.223 -0.07 -0.069 -2.188 1.669 -0.975 0.745 -0.373 0.286 -5.297 3.3 -2.928 0.949 -2.047 0.098 -1.508 -0.409 -1.521 -1.042 -0.866 -1.485 -0.192 -1.573 0.535 -2.175 0.962 -1.707 1.464 -1.475 1.647 -0.904 1.741 -0.317 1.662 0.308 1.07 0.735 0.297 0.775 -0.244 1.037 -0.955 1.274 -1.472 0.929 -1.752 0.401 -1.872 -0.127 -0.228 -0.042 -1.337 -0.407 -0.064 -0.015 -0.377 -0.283" />
    <path class="write-flat-pen" fill="#FFFFFF" stroke-width="1.6" __comx="263.146" __comy="20.096" __timestamp="0x1781adb0d1d" d="M258.825 14.035 l0.373 0.018 -0.314 -0.175 -0.023 0.024 -0.2 0.572 -0.069 0.154 -0.881 2.316 -0.089 0.24 -0.696 1.87 0.425 1.444 5.799 -1.098 1.993 -0.014 1.624 0.513 0.823 0.773 0.357 1.038 -0.248 1.464 -1.046 1.687 -1.353 1.103 -1.958 0.795 -2.034 0.245 -1.93 -0.486 -0.065 -0.018 -0.176 -0.123 -1.871 -1.374 -0.059 0.055 1.259 1.95 0.144 0.217 0.227 0.241 2.334 0.9 2.512 -0.264 2.329 -0.935 1.695 -1.379 1.311 -2.115 0.349 -2.079 -0.585 -1.693 -1.302 -1.219 -2.131 -0.67 -2.337 0.024 -4.778 0.98 -0.01 0.058 0.477 -1.522 0.077 -0.259 0.619 -2.415 0.048 -0.236 -0.027 -0.77 -0.056 -0.11 -0.314 -0.175 -0.292 0.232" />
    <path class="write-flat-pen" fill="#FFFFFF" stroke-width="1.6" __comx="266.251" __comy="20.096" __timestamp="0x1781adb0e1f" d="M258.342 15.75 l0.221 -0.552 -0.053 0.075 1.656 -0.443 0.365 -0.05 10.763 -0.777 0.575 -0.05 2.735 -0.224 0.002 -0.12 -2.725 -0.326 -0.605 -0.072 -10.867 0.54 -0.499 0.1 -1.801 0.764 -0.219 0.231 0.009 0.838" />
    <path class="write-flat-pen" fill="#FFFFFF" stroke-width="1.6" __comx="279.169" __comy="20.096" __timestamp="0x1781adb0ff4" d="M279.213 12.815 l-0.118 0.851 -0.022 0.245 -0.161 2.476 -0.032 0.602 0 -0.005 -0.323 10.192 0.689 0.127 -0.033 -0.925 -0.053 -0.018 -0.585 0.717 0.689 0.127 0.518 -10.193 0 -0.005 -0.005 -0.604 -0.098 -2.487 -0.022 -0.249 -0.118 -0.851" />
    <path class="write-flat-pen" fill="#FFFFFF" stroke-width="1.6" __comx="286.92" __comy="20.096" __timestamp="0x1781adb11a8" d="M282.736 18.989 l0.3 1.549 0.036 0.259 0.309 3.369 0.016 0.269 0 0 0.16 1.88 0 0 1.014 0.217 2.522 -4.099 1.158 -1.266 0.479 -0.08 0.562 0.335 0.536 1.072 0.207 2.938 0.296 1.96 0.069 0.007 0.704 -1.936 -0.087 -3.28 -0.81 -1.613 -1.242 -0.738 -1.322 0.219 -1.517 1.662 -2.496 4.255 1.014 0.217 0 0 -0.286 -1.85 0 0 -0.031 -0.273 -0.58 -3.378 -0.077 -0.301 -0.577 -1.497" />
    <path class="write-flat-pen" fill="#FFFFFF" stroke-width="1.6" __comx="300.618" __comy="20.096" __timestamp="0x1781adb138d" d="M298.686 14.527 l0.014 -0.719 -0.213 -0.195 -0.681 0.177 -0.224 0.233 -1.094 2.126 -0.134 0.478 -0.5 3.677 0.272 2.88 0.838 2.392 1.268 1.718 3.277 1.335 0.427 0.018 1.098 -0.219 2.344 -0.748 -0.01 -0.053 -2.426 0.17 -1.009 -0.006 -0.193 -0.04 -2.762 -1.372 -0.951 -1.356 -0.728 -2.096 -0.266 -2.607 0.379 -3.491 0.073 -0.33 0.775 -2.053 0.012 -0.051 0.148 -0.212 -0.13 -0.13 0.228 0.504" />
    <path class="write-flat-pen" fill="#FFFFFF" stroke-width="1.6" __comx="307.508" __comy="20.096" __timestamp="0x1781adb148f" d="M303.913 15.425 l0.374 1.392 0.129 0.29 1.717 2.931 2.421 2.217 2.525 0.981 0.026 -0.045 -2.041 -1.632 -2.254 -2.085 -1.824 -2.69 -0.128 -0.218 -0.62 -1.264" />
    <path class="write-flat-pen" fill="#FFFFFF" stroke-width="1.6" __comx="307.029" __comy="20.096" __timestamp="0x1781adb154c" d="M303.133 25.337 l0.545 -1.157 0.145 -0.199 6.023 -7.238 1.422 -2.36 -0.031 -0.023 -1.866 2.007 -6.09 7.222 -0.176 0.318 -0.316 1.311" />
    <path class="write-flat-pen" fill="#FFFFFF" stroke-width="1.6" __comx="315.231" __comy="20.096" __timestamp="0x1781adb1686" d="M312.5 13.085 l0.757 0.412 0.149 0.111 1.294 1.272 0.217 0.275 1.281 2.22 0.713 2.536 -0.008 2.958 -0.554 2.34 -1.09 2.451 -0.233 0.401 -0.284 0.456 -1.424 2.267 0.06 0.047 1.856 -1.93 0.385 -0.401 0.344 -0.424 1.356 -2.515 0.644 -2.565 -0.019 -3.236 -0.868 -2.779 -1.521 -2.298 -0.323 -0.341 -1.538 -1.145 -0.245 -0.112 -0.878 -0.192" />
    <path class="write-flat-pen" fill="#FFFFFF" stroke-width="1.6" __comx="77.141" __comy="170.038" __timestamp="0x1781adb1f25" d="M69.951 155.397 l0 -0.179 0.104 -0.432 -0.589 0.051 -0.019 0.025 -0.089 0.911 -0.011 0.374 0.019 4.817 0.004 0.972 0.243 11.013 0 0 -0.276 3.018 0 0 1.244 -0.333 -0.482 -0.674 -0.619 -3.991 0.429 -13.317 -0.38 -2.998 0.2 -0.387 1.13 -0.475 12.451 -1.426 0.203 -0.019 2.648 0.009 0.04 -0.215 -2.472 -0.949 -0.368 -0.125 -12.89 1.271 -1.825 0.828 -0.566 1.271 0.463 3.286 -0.41 13.328 0.67 4.43 0.654 0.942 1.244 -0.333 0 0 0.276 -3.099 0 0 -0.372 -11.083 -0.028 -0.974 -0.292 -4.82 -0.038 -0.376 -0.166 -0.928 -0.028 -0.046 -0.589 0.051 0.147 0.419 0 0.162" />
    <path class="write-flat-pen" fill="#FFFFFF" stroke-width="1.6" __comx="77.06" __comy="170.038" __timestamp="0x1781adb2031" d="M69.098 166.036 l0.843 -0.226 0.199 -0.025 4.92 -0.723 0.658 -0.08 6.292 -0.738 0.281 -0.036 0.217 -0.03 2.812 -0.369 0.003 -0.13 -2.794 -0.482 -0.229 -0.039 -0.347 -0.033 -6.386 0.527 -0.706 0.097 -4.936 1.003 -0.311 0.099 -0.815 0.511" />
    <path class="write-flat-pen" fill="#FFFFFF" stroke-width="1.6" __comx="80.821" __comy="170.038" __timestamp="0x1781adb2139" d="M69.828 175.429 l1.224 0.337 0.49 -0.017 17.492 -1.556 2.775 -0.303 0.003 -0.137 -2.804 -0.436 -17.557 1.342 -0.358 0.054 -1.14 -0.05" />
    <path class="write-flat-pen" fill="#FFFFFF" stroke-width="1.6" __comx="98.938" __comy="170.038" __timestamp="0x1781adb224b" d="M92.424 161.153 l2.973 4.056 0.373 0.554 3.335 4.98 2.668 2.993 1.698 0.591 1.98 -0.291 0.001 -0.033 -1.808 -0.434 -1.248 -0.689 -2.443 -2.793 -3.348 -4.894 -0.403 -0.573 -3.205 -3.911" />
    <path class="write-flat-pen" fill="#FFFFFF" stroke-width="1.6" __comx="99.765" __comy="170.038" __timestamp="0x1781adb230b" d="M94.578 173.245 l0.033 -0.243 0.013 0.031 1.685 -1.646 0.486 -0.478 7.036 -6.951 1.846 -2.042 -0.063 -0.072 -2.298 1.55 -7.241 6.795 -0.483 0.526 -1.508 1.86 -0.229 0.339 0.375 0.493" />
    <path class="write-flat-pen" fill="#FFFFFF" stroke-width="1.6" __comx="93.813" __comy="170.038" __timestamp="0x1781adb2437" d="M70.141 182.988 l0.38 -0.794 1.815 -0.849 4.019 -0.834 6.186 -0.428 8.488 0.222 16.248 2.773 1.698 0.358 3.43 0.706 1.753 0.379 1.716 0.347 2.181 0.441 0.01 -0.043 -2.144 -0.596 -1.686 -0.469 -1.729 -0.478 -3.379 -0.926 -1.699 -0.452 -16.303 -3.001 -8.607 -0.214 -6.292 0.489 -4.165 0.937 -2.127 1.096 -0.373 1.105" />
    <path class="write-flat-pen" fill="#FFFFFF" stroke-width="1.6" __comx="196.618" __comy="168.257" __timestamp="0x1781adb277a" d="M191.744 161.946 l0.202 -0.36 -0.281 0 0.729 0.761 0.242 0.293 7.018 9.654 2.099 1.46 0.033 -0.034 -1.459 -2.008 -6.973 -9.664 -0.356 -0.348 -1.089 -0.719 -0.441 -0.013 -0.018 0.928" />
    <path class="write-flat-pen" fill="#FFFFFF" stroke-width="1.6" __comx="200.778" __comy="168.257" __timestamp="0x1781adb2885" d="M204.856 159.866 l-0.19 1.783 -0.061 0.562 -1.058 5.476 -1.951 6.373 -5.546 14.878 0.232 2.08 0.089 0.008 0.607 -1.872 5.722 -14.718 1.93 -6.494 0.864 -5.628 0.014 -0.624 -0.05 -1.802" />
    <path class="write-flat-pen" fill="#FFFFFF" stroke-width="1.6" __comx="224.504" __comy="168.257" __timestamp="0x1781adb2a37" d="M218.5 162.576 l1.996 -0.025 0.418 -0.003 6.895 -0.279 2.731 -0.243 0 -0.032 -2.738 -0.232 -6.908 0.094 -0.435 0.024 -1.991 0.288" />
    <path class="write-flat-pen" fill="#FFFFFF" stroke-width="1.6" __comx="225.935" __comy="168.257" __timestamp="0x1781adb2b0a" d="M219.763 168.632 l3.781 0.158 0.579 -0.015 4.838 -0.623 0.552 -0.14 2.592 -0.662 -0.006 -0.039 -2.669 0.192 -0.55 0.039 -4.814 0.383 -0.533 0.02 -3.767 0.117" />
    <path class="write-flat-pen" fill="#FFFFFF" stroke-width="1.6" __comx="268.202" __comy="165.193" __timestamp="0x1781adb4ce3" d="M258.648 168.634 l-0.1 -0.601 0.009 0.061 0.482 -0.19 0.151 -0.02 2.336 -0.175 0.437 -0.013 5.078 -0.298 3.322 -0.726 1.081 -0.974 0.7 -1.928 -0.001 -2.02 -0.822 -1.494 -1.827 -0.958 -2.246 -0.07 -2.878 0.816 -2.608 1.509 -1.69 1.669 -1.314 2.273 -0.545 2.417 0.342 2.306 0.947 1.769 2.202 1.964 2.127 0.963 3.125 0.61 2.969 -0.108 3.298 -0.837 2.742 -1.442 0.273 -0.227 0.147 -0.149 1.919 -1.979 -0.063 -0.087 -2.469 1.225 -0.168 0.08 -0.225 0.105 -2.637 1.137 -3.019 0.74 -2.654 0.097 -2.802 -0.538 -1.783 -0.796 -1.872 -1.639 -0.732 -1.331 -0.285 -1.815 0.433 -1.972 1.11 -1.947 1.437 -1.429 2.315 -1.351 2.524 -0.728 1.749 0.046 1.23 0.633 0.491 0.869 0.017 1.479 -0.502 1.443 -0.608 0.565 -2.919 0.659 -4.975 0.418 -0.466 0.04 -2.406 0.446 -0.306 0.124 -0.562 0.541 -0.056 0.251 0.397 0.65" />
    <path class="write-flat-pen" fill="#FFFFFF" stroke-width="1.6" __comx="299.08" __comy="138.617" __timestamp="0x1781adb647f" d="M305.856 130.888 l0.724 -0.735 -0.139 0.015 0.231 0.48 -0.016 0.074 -0.614 2.412 -0.225 0.556 -2.652 5.091 -2.63 3.873 -2.567 2.784 -1.907 1.308 -1.605 0.476 -1.186 -0.116 -1.047 -0.626 -0.725 -1.157 -0.375 -1.905 0.33 -2.206 0.667 -1.29 0.356 -0.117 0.876 0.411 7.622 8.111 2.225 1.726 2.433 0.789 0.181 0 2.635 -0.203 0.01 -0.087 -2.513 -0.821 -0.033 -0.026 -2.004 -0.912 -1.966 -1.532 -7.746 -8.214 -1.632 -0.76 -1.438 0.473 -1.035 2.015 -0.395 2.678 0.482 2.395 1.046 1.654 1.603 0.951 1.766 0.165 2.064 -0.632 2.195 -1.536 2.701 -2.999 2.661 -4.058 2.584 -5.275 0.243 -0.7 0.406 -2.663 -0.07 -0.405 -0.704 -0.667 -0.318 0.012 -0.663 1.069" />
    <path class="write-flat-pen" fill="#FFFFFF" stroke-width="1.6" __comx="325.829" __comy="138.617" __timestamp="0x1781adb66b0" d="M325.489 126.925 l-0.342 -0.417 0 0 -0.453 0.155 -0.324 1.43 0.028 0.575 1.277 8.95 0.114 1.001 0.634 7.958 0.789 -0.276 -0.015 -0.003 -0.302 -0.305 -0.573 0.399 0.181 0.389 -0.003 0.015 0.789 -0.276 -0.392 -8.004 -0.129 -1.052 -1.552 -8.899 -0.06 -0.454 0.069 -1.377 -0.453 0.155 0 0 0.426 0.331" />
    <path class="write-flat-pen" fill="#FFFFFF" stroke-width="1.6" __comx="334.447" __comy="138.617" __timestamp="0x1781adb687c" d="M329.27 138.182 l0.118 0.976 0.036 0.23 0.432 2.198 0.077 0.396 1.04 4.043 0.352 0.404 1.067 -0.147 1.506 -4.452 1.016 -1.841 0.435 -0.271 0.592 0.04 0.773 0.586 0.902 1.506 0.807 2.948 0.514 2.583 0.311 -0.008 0.375 -2.744 -0.806 -3.286 -1.143 -1.869 -1.276 -0.952 -1.372 -0.089 -1.059 0.66 -1.224 2.235 -1.245 3.915 0.245 -0.008 0.21 0.245 -1.224 -3.709 -0.105 -0.375 -0.678 -2.14 -0.075 -0.223 -0.385 -0.91" />
    <path class="write-flat-pen" fill="#FFFFFF" stroke-width="1.6" __comx="350.764" __comy="138.617" __timestamp="0x1781adb6ac6" d="M351.577 128.099 l-0.659 -0.39 -0.303 0.05 -1.063 0.64 -0.248 0.266 -1.744 3.26 -0.189 0.662 -0.538 3.431 0.114 3.736 0.739 3.18 1.101 2.317 2.547 1.988 0.339 0.109 0.463 0.091 2.544 0.364 0.015 -0.052 -2.327 -1.064 -0.388 -0.186 -0.148 -0.088 -2.049 -1.922 -0.893 -1.972 -0.672 -2.932 -0.125 -3.499 0.447 -3.26 0.121 -0.491 1.405 -3.177 0.085 -0.131 0.733 -0.715 0.004 -0.03 0.59 0.081" />
    <path class="write-flat-pen" fill="#FFFFFF" stroke-width="1.6" __comx="368.166" __comy="142.272" __timestamp="0x1781adb92f9" d="M361.444 137.664 l0.268 -0.234 -0.208 -0.075 1.598 1.641 0.336 0.392 5.062 5.597 3.966 2.767 2.688 0.695 0.022 -0.051 -2.284 -1.397 -3.682 -2.81 -5.087 -5.428 -0.384 -0.401 -1.885 -1.536 -0.415 -0.17 -0.283 0.864" />
    <path class="write-flat-pen" fill="#FFFFFF" stroke-width="1.6" __comx="368.212" __comy="142.272" __timestamp="0x1781adb93ed" d="M364.782 148.632 l0.835 -2.271 0.169 -0.366 4.93 -8.441 1.395 -2.42 -0.049 -0.036 -1.922 2.075 -5.056 8.468 -0.181 0.46 -0.592 2.387" />
    <path class="write-flat-pen" fill="#FFFFFF" stroke-width="1.6" __comx="385.585" __comy="142.272" __timestamp="0x1781adb95c0" d="M380.55 141.528 l1.132 0.171 0.268 0.023 5.977 -0.196 2.693 -0.742 -0.007 -0.052 -2.755 0.03 -5.914 0.304 -0.243 0.012 -1.137 0.093" />
    <path class="write-flat-pen" fill="#FFFFFF" stroke-width="1.6" __comx="386.604" __comy="142.272" __timestamp="0x1781adb969f" d="M385.121 138.248 l-0.446 -0.083 0.044 0.661 0.062 0.252 2.531 6.985 1.149 2.47 0.071 -0.024 -0.567 -2.673 -2.511 -6.984 -0.084 -0.22 -0.306 -0.578 -0.334 0.306" />
    <path class="write-flat-pen" fill="#FFFFFF" stroke-width="1.6" __comx="405.259" __comy="142.272" __timestamp="0x1781adb9a37" d="M401.494 158.878 l0.123 0.443 0.36 -0.058 0.046 -0.123 0.142 -2.098 -0.025 -0.474 -0.64 -7.109 -0.051 -0.628 -0.472 -6.954 0.152 -4.455 0.353 -0.577 0.683 -0.288 1.293 0.126 1.253 0.616 0.892 1.003 0.035 0.313 0 0 -1.512 1.373 0 0 0.317 1.146 2.974 0.602 1.539 0.779 0.399 0.605 -0.08 0.737 -0.829 0.946 -1.6 0.771 -2.205 0.42 -2.003 -0.461 -0.012 0.042 -0.203 -0.245 -0.975 -1.485 -0.048 0.018 0.238 1.792 0.114 0.443 0.238 0.372 2.583 0.889 2.695 -0.508 2.001 -0.975 1.266 -1.474 0.164 -1.611 -0.845 -1.283 -2.001 -1.019 -3.14 -0.664 0.317 1.146 0 0 1.999 -1.854 0 0 -0.193 -1.385 -1.336 -1.48 -1.694 -0.819 -1.847 -0.159 -1.34 0.587 -0.711 1.205 -0.092 4.838 0.617 7.011 0.069 0.642 0.916 7.078 0.054 0.431 0.124 2.016 -0.005 0.08 0.36 -0.058 -0.349 -0.299" />
    <path class="write-flat-pen" fill="#FFFFFF" stroke-width="1.6" __comx="419.723" __comy="142.272" __timestamp="0x1781adb9baf" d="M416.206 124.464 l0.534 0.099 0.017 0.031 2.526 3.227 0.302 0.522 1.228 2.592 0.964 3.7 0.366 4.145 -0.275 3.762 -1.282 4.454 -0.213 0.499 -0.533 1.044 -1.261 2.332 0.048 0.033 1.702 -2.045 0.736 -0.966 0.337 -0.56 1.558 -4.582 0.306 -3.981 -0.402 -4.33 -1.069 -3.873 -1.347 -2.692 -0.378 -0.614 -2.84 -3.183 -0.3 -0.189 -0.746 0.181" />
    <path class="write-flat-pen" fill="#FFFFFF" stroke-width="1.6" __comx="80.808" __comy="289.843" __timestamp="0x1781adba423" d="M72.394 276.181 l-0.129 2.395 -0.009 0.534 -0.007 7.268 0 0 -0.009 0.94 0 0 0.106 9.305 0 0 1.298 -0.046 -0.225 -4.694 1.467 -16.089 0.354 -0.715 1.211 -0.754 3.407 -0.9 6.009 -0.769 0.257 -0.03 0.58 -0.045 2.804 -0.249 0.012 -0.143 -2.729 -0.704 -0.614 -0.135 -0.377 -0.035 -6.235 0.546 -3.754 1.03 -1.76 1.176 -0.565 1.367 -1.387 16.424 0.248 4.783 1.298 -0.046 0 0 -0.297 -9.291 0 0 -0.016 -0.937 0 0 -0.253 -7.271 -0.027 -0.527 -0.139 -2.388" />
    <path class="write-flat-pen" fill="#FFFFFF" stroke-width="1.6" __comx="82.609" __comy="289.843" __timestamp="0x1781adba53f" d="M75.136 284.43 l0.916 -0.676 0.12 -0.02 11.577 -0.508 2.807 -0.398 0 -0.102 -2.825 -0.375 -11.72 0.402 -0.446 0.147 -0.902 1.022" />
    <path class="write-flat-pen" fill="#FFFFFF" stroke-width="1.6" __comx="83.879" __comy="289.843" __timestamp="0x1781adba66a" d="M73.515 295.447 l-1.025 0.697 0.162 0.544 1.262 0.312 0.49 0.003 17.544 -1.741 0.566 -0.046 2.749 -0.199 0.005 -0.111 -2.723 -0.425 -0.619 -0.095 -17.597 1.499 -0.361 0.038 -0.702 0.029 0.128 0.444 0.453 -0.559" />
    <path class="write-flat-pen" fill="#FFFFFF" stroke-width="1.6" __comx="103.198" __comy="289.843" __timestamp="0x1781adba79d" d="M96.918 283.582 l0.185 -0.66 -0.481 0.254 1.489 0.825 0.298 0.252 6.133 5.809 3.005 1.775 2.459 0.203 0.011 -0.044 -2.112 -0.984 -2.68 -1.834 -6.173 -5.677 -0.44 -0.327 -1.708 -0.624 -0.481 0.254 -0.048 0.683" />
    <path class="write-flat-pen" fill="#FFFFFF" stroke-width="1.6" __comx="104.737" __comy="289.843" __timestamp="0x1781adba85c" d="M99.712 293.34 l0.216 -0.78 0.094 -0.137 2.376 -3.218 0.489 -0.588 5.69 -6.776 0.218 -0.33 1.533 -2.305 -0.069 -0.059 -2.048 1.862 -0.292 0.264 -5.902 6.614 -0.513 0.648 -2.215 3.453 -0.142 0.335 0.007 0.947" />
    <path class="write-flat-pen" fill="#FFFFFF" stroke-width="1.6" __comx="94.431" __comy="289.843" __timestamp="0x1781adba98c" d="M70.325 303.513 l2.303 -0.916 0.901 -0.168 7.144 -0.574 10.802 -0.161 9.247 0.516 12.742 1.546 1.455 0.178 1.441 0.127 2.381 0.216 0.023 -0.141 -2.328 -0.544 -1.407 -0.332 -1.447 -0.302 -12.762 -1.802 -9.325 -0.52 -10.876 0.223 -7.215 0.729 -1.031 0.235 -2.275 1.197" />
    <path class="write-flat-pen" fill="#FFFFFF" stroke-width="1.6" __comx="190.917" __comy="289.573" __timestamp="0x1781adbc58d" d="M185.164 286.636 l0.374 0.129 0.004 0.023 1.819 1.633 0.347 0.323 6.691 6.647 2.218 1.741 0.053 -0.051 -1.667 -2.281 -6.621 -6.769 -0.403 -0.341 -2.017 -1.462 -0.211 -0.126 -0.581 0.116" />
    <path class="write-flat-pen" fill="#FFFFFF" stroke-width="1.6" __comx="196.522" __comy="289.573" __timestamp="0x1781adbc6b7" d="M200.322 283.379 l0.031 0.457 -0.02 0.113 -0.512 2.456 -0.248 0.864 -4.614 13.121 -0.454 1.232 -1.785 5.576 -0.76 4.103 0.51 2.26 0.683 0.15 0.369 -0.154 1.076 -0.562 -0.018 -0.104 -1.201 -0.178 -0.152 -0.066 0.269 0.019 -0.113 -1.355 0.705 -3.77 1.706 -5.482 0.432 -1.223 4.373 -13.258 0.227 -0.965 0.259 -2.626 -0.042 -0.291 -0.308 -0.466" />
    <path class="write-flat-pen" fill="#FFFFFF" stroke-width="1.6" __comx="224.326" __comy="289.573" __timestamp="0x1781adbc8a2" d="M218.704 283.432 l2.072 0.728 0.385 0.118 5.979 1.048 2.793 0.047 0.015 -0.141 -2.712 -0.549 -5.877 -1.234 -0.354 -0.095 -2.15 -0.46" />
    <path class="write-flat-pen" fill="#FFFFFF" stroke-width="1.6" __comx="226.913" __comy="289.573" __timestamp="0x1781adbc980" d="M221.071 289.62 l1.219 -0.143 0.23 -0.008 3.023 0.068 4.592 0.671 2.701 0.332 0.026 -0.115 -2.599 -0.858 -4.641 -0.939 -3.139 0.069 -0.311 0.044 -1.207 0.408" />
    <path class="write-flat-pen" fill="#FFFFFF" stroke-width="1.6" __comx="260.768" __comy="278.501" __timestamp="0x1781adbd28e" d="M259.093 272.907 l0.642 3.304 0.121 0.615 1.055 7.143 0.607 10.045 0.479 2.869 0.286 -0.016 0.159 -2.906 -0.584 -10.096 -1.24 -7.185 -0.155 -0.636 -0.898 -3.249" />
    <path class="write-flat-pen" fill="#FFFFFF" stroke-width="1.6" __comx="273.527" __comy="278.501" __timestamp="0x1781adbd47f" d="M266.931 285.648 l0.276 0.737 0.025 0.116 0.51 2.712 0.046 0.292 0.49 3.015 0.604 0.745 0 0 0.946 -0.091 2.309 -3.919 1.364 -1.546 0.759 -0.329 0.966 0.182 1.174 1.002 1.256 2.015 1.16 2.988 1.206 2.438 0.1 -0.026 -0.168 -2.775 -1.169 -3.182 -1.423 -2.285 -1.574 -1.346 -1.673 -0.317 -1.371 0.595 -1.624 1.856 -2.302 4.065 0.946 -0.091 0 0 -0.459 -0.475 -0.582 -2.694 -0.069 -0.312 -0.787 -2.706 -0.086 -0.193 -0.529 -0.656" />
    <path class="write-flat-pen" fill="#FFFFFF" stroke-width="1.6" __comx="293.917" __comy="278.501" __timestamp="0x1781adbd691" d="M293.43 273.256 l0.006 -0.804 -0.149 -0.228 -0.561 -0.134 -0.341 0.184 -1.171 1.404 -0.251 0.508 -0.927 2.528 -0.669 4.627 -0.088 5.417 0.622 4.152 1.424 4.505 2.522 2.919 0.485 0.269 1.258 0.438 0.451 0.073 2.505 0.394 0.011 -0.042 -2.372 -0.897 -0.381 -0.147 -1.08 -0.573 -0.276 -0.2 -2.084 -2.785 -1.216 -4.233 -0.561 -3.959 0.079 -5.231 0.597 -4.433 0.773 -2.394 0.15 -0.373 0.801 -1.339 -0.041 -0.013 0.06 -0.108 -0.057 -0.115 0.222 0.628" />
    <path class="write-flat-pen" fill="#FFFFFF" stroke-width="1.6" __comx="313.462" __comy="278.501" __timestamp="0x1781adbd92c" d="M305.568 287.437 l0.312 0.362 0.191 0.092 2.627 0.708 0.392 0.027 2.415 -0.264 1.962 -0.894 1.47 -1.348 0.177 -1.079 -1.046 -1.066 -2.208 -0.689 -2.133 -0.021 -1.893 0.789 -1.312 1.325 -0.774 1.955 0.04 1.893 0.732 2.108 1.243 1.517 1.95 1.042 2.154 0.306 2.459 -0.386 3.812 -1.679 0.382 -0.227 0.589 -0.4 2.246 -1.62 -0.033 -0.061 -2.577 1.001 -0.649 0.253 -0.365 0.146 -3.74 1.35 -2.128 0.303 -1.736 -0.251 -1.518 -0.81 -0.936 -1.134 -0.602 -1.695 -0.045 -1.436 0.564 -1.492 0.943 -0.991 1.433 -0.628 1.722 -0.007 1.797 0.519 0.501 0.461 -0.013 0.198 -1.067 1.027 -1.667 0.808 -2.183 0.321 -0.249 -0.004 -2.575 -0.423 -0.108 -0.021 -0.403 -0.116" />
    <path class="write-flat-pen" fill="#FFFFFF" stroke-width="1.6" __comx="326.642" __comy="278.501" __timestamp="0x1781adbde18" d="M324.204 264.066 l-0.139 -0.228 -0.349 0.067 -0.048 0.03 -0.423 0.442 -0.091 0.103 -1.2 1.912 -0.096 0.269 -0.087 1.215 0.716 1.089 1.929 0.783 3.456 0.396 1.577 0.605 0.876 0.933 0.225 0.838 -0.247 0.913 -0.831 0.921 -1.409 0.718 -1.9 0.372 -1.971 -0.244 -0.259 -0.081 -0.226 -0.092 -2.285 -0.966 -0.033 0.053 1.886 1.612 0.216 0.182 0.376 0.239 2.289 0.591 2.334 -0.41 1.797 -0.916 1.199 -1.341 0.408 -1.555 -0.406 -1.484 -1.302 -1.382 -2.009 -0.767 -3.455 -0.372 -1.438 -0.545 -0.32 -0.428 0.001 -0.67 0.005 -0.032 0.889 -1.916 0.053 -0.102 0.212 -0.593 0.004 -0.051 -0.349 0.067 0.262 0.057" />
    <path class="write-flat-pen" fill="#FFFFFF" stroke-width="1.6" __comx="329.865" __comy="278.501" __timestamp="0x1781adbdeee" d="M321.739 265.187 l0.597 -0.244 0.099 0.002 1.953 -0.021 0.501 0.004 10.551 -0.721 2.734 -0.483 -0.007 -0.097 -2.769 -0.092 -10.547 0.447 -0.511 0.029 -2.005 0.296 -0.244 0.082 -0.533 0.536" />
    <path class="write-flat-pen" fill="#FFFFFF" stroke-width="1.6" __comx="342.556" __comy="278.501" __timestamp="0x1781adbe054" d="M337.974 265.478 l0.265 0.403 0.066 0.12 1.243 2.054 0.286 0.447 3.412 4.85 1.686 1.445 2.185 0.669 0.019 -0.036 -1.662 -1.391 -1.391 -1.425 -3.441 -4.679 -0.305 -0.421 -1.48 -1.918 -0.15 -0.158 -0.48 -0.25" />
    <path class="write-flat-pen" fill="#FFFFFF" stroke-width="1.6" __comx="342.984" __comy="278.501" __timestamp="0x1781adbe10a" d="M337.456 275.231 l-0.261 -0.393 0.029 0.025 0.506 -0.853 0.238 -0.269 9.528 -8.679 1.77 -2.025 -0.026 -0.028 -2.147 1.611 -9.747 8.555 -0.293 0.449 -0.35 1.159 0.054 0.284 0.57 0.316" />
    <path class="write-flat-pen" fill="#FFFFFF" stroke-width="1.6" __comx="361.992" __comy="278.501" __timestamp="0x1781adbe2fe" d="M359.896 264.056 l1.245 1.017 0.189 0.284 2.48 4.998 0.302 0.897 1.024 4.161 0.551 5.796 -0.211 4.511 -0.736 4.069 -1.305 3.479 -1.922 3.021 -0.581 0.706 -1.273 1.364 -0.661 0.63 -1.846 1.754 0.029 0.035 2.067 -1.487 0.756 -0.544 1.447 -1.247 0.697 -0.712 2.185 -3.047 1.476 -3.646 0.802 -4.243 0.216 -4.671 -0.608 -5.957 -1.125 -4.268 -0.364 -1.001 -2.768 -4.995 -0.323 -0.405 -1.491 -0.866" />
    <path class="write-flat-pen" fill="#FFFFFF" stroke-width="1.6" __comx="73.535" __comy="410.786" __timestamp="0x1781adbf763" d="M72.408 394.761 l0.09 0.145 -0.026 0 0.069 0.713 0.03 0.386 0.241 3.413 0.064 0.924 0.59 9.986 0.275 8.548 0.498 -0.06 0.045 0.13 -0.542 -0.126 -0.038 0.037 0.119 0.543 0.169 0.256 0.625 -0.088 0.044 -9.289 -0.774 -10.016 -0.097 -0.938 -0.464 -3.417 -0.093 -0.42 -0.257 -0.735 -0.1 -0.192 -0.337 -0.066" />
    <path class="write-flat-pen" fill="#FFFFFF" stroke-width="1.6" __comx="80.82" __comy="410.786" __timestamp="0x1781adbf879" d="M73.868 396.579 l-0.351 -0.921 0.014 0.014 0.06 -0.318 -0.096 0.216 0.904 -0.326 0.507 -0.093 3.548 -0.4 7.032 -0.227 0.4 0.005 0.413 -0.002 0.412 0 2.316 0.024 0.025 -0.144 -2.194 -0.743 -0.415 -0.141 -0.431 -0.1 -0.47 -0.091 -7.191 0.02 -3.675 0.538 -0.7 0.19 -1.214 0.738 -0.176 0.366 0.225 0.72 0.052 0.089 0.56 0.817" />
    <path class="write-flat-pen" fill="#FFFFFF" stroke-width="1.6" __comx="81.724" __comy="410.786" __timestamp="0x1781adbf996" d="M74.481 407.086 l0.412 -0.054 0.129 0.021 1.314 0.04 0.321 0.006 9.869 -0.492 0.342 -0.071 2.293 -0.47 -0.005 -0.092 -2.331 -0.211 -0.341 -0.032 -9.863 0.301 -0.327 0.023 -1.339 0.184 -0.234 0.061 -0.434 0.256" />
    <path class="write-flat-pen" fill="#FFFFFF" stroke-width="1.6" __comx="83.406" __comy="410.786" __timestamp="0x1781adbfabf" d="M74.484 418.541 l-0.863 0.633 0.254 0.465 1.558 0.715 0.713 0.145 4.043 0.308 9.082 -0.369 0.548 -0.056 0.524 -0.061 0.594 -0.085 2.255 -0.317 -0.002 -0.106 -2.267 -0.21 -0.6 -0.057 -0.532 -0.03 -0.549 -0.015 -9.03 0.134 -3.933 -0.215 -0.562 -0.082 -1.27 -0.367 0.197 0.366 0.238 -0.355" />
    <path class="write-flat-pen" fill="#FFFFFF" stroke-width="1.6" __comx="101.526" __comy="410.786" __timestamp="0x1781adbfbdf" d="M95.226 405.377 l0.695 0.608 0.182 0.216 3.621 4.253 0.477 0.549 2.993 3.224 2.516 1.46 0.216 0.007 1.893 -0.08 0.005 -0.032 -1.783 -0.641 -0.04 -0.032 -2.138 -1.488 -2.903 -3.106 -0.477 -0.532 -3.803 -4.114 -0.273 -0.259 -0.886 -0.468" />
    <path class="write-flat-pen" fill="#FFFFFF" stroke-width="1.6" __comx="102.439" __comy="410.786" __timestamp="0x1781adbfc97" d="M97.17 415.517 l0.727 -0.918 0.229 -0.28 1.866 -2.306 0.426 -0.49 5.5 -5.952 0.324 -0.322 0.285 -0.302 1.575 -1.662 -0.061 -0.074 -1.931 1.23 -0.352 0.223 -0.418 0.291 -5.679 5.898 -0.441 0.553 -1.703 2.472 -0.202 0.331 -0.539 1.057" />
    <path class="write-flat-pen" fill="#FFFFFF" stroke-width="1.6" __comx="89.11" __comy="410.786" __timestamp="0x1781adbfdcb" d="M67.823 428.246 l3.787 -0.512 1.078 -0.043 10.657 -0.064 21.117 0.908 1.419 -0.024 1.371 -0.052 1.327 -0.099 1.927 -0.139 0 -0.119 -1.928 -0.131 -1.325 -0.093 -1.365 -0.073 -1.403 -0.062 -21.122 -1.107 -10.704 0.127 -1.146 0.071 -3.801 0.734" />
    <path class="write-flat-pen" fill="#FFFFFF" stroke-width="1.6" __comx="191.742" __comy="410.457" __timestamp="0x1781adc0172" d="M185.752 404.934 l0.383 0.085 0.021 0.042 2.736 3.044 0.42 0.497 3.074 3.935 2.871 2.566 0.209 0.112 0.185 0.076 2.085 0.842 0.03 -0.051 -1.749 -1.414 -0.14 -0.116 -0.109 -0.096 -2.601 -2.631 -3.06 -3.879 -0.461 -0.525 -2.936 -2.929 -0.306 -0.254 -0.691 0.159" />
    <path class="write-flat-pen" fill="#FFFFFF" stroke-width="1.6" __comx="195.862" __comy="410.457" __timestamp="0x1781adc0299" d="M200.218 401.856 l-0.687 2.689 -0.259 0.79 -4.093 11.426 -3.995 14.549 -0.022 0.176 -0.299 2.298 0.085 0.025 0.999 -2.091 0.079 -0.165 4.185 -14.467 3.923 -11.467 0.249 -0.852 0.481 -2.774" />
    <path class="write-flat-pen" fill="#FFFFFF" stroke-width="1.6" __comx="222.575" __comy="410.457" __timestamp="0x1781adc05c7" d="M215.761 403.493 l1.203 0.098 0.307 0.033 9.597 0.043 0.244 -0.037 2.286 -0.354 -0.001 -0.038 -2.306 -0.181 -0.23 -0.019 -9.557 -0.259 -0.321 -0.006 -1.231 0.135" />
    <path class="write-flat-pen" fill="#FFFFFF" stroke-width="1.6" __comx="221.707" __comy="410.457" __timestamp="0x1781adc06b0" d="M216.256 410.045 l-0.335 0.576 0.518 0.187 0.259 0.045 8.068 0.302 0.469 -0.043 2.256 -0.207 0.001 -0.064 -2.243 -0.312 -0.458 -0.065 -8.03 -0.431 -0.218 -0.005 -0.531 0.022 0.245 0.576" />
    <path class="write-flat-pen" fill="#FFFFFF" stroke-width="1.6" __comx="259.41" __comy="408.618" __timestamp="0x1781adc14b6" d="M257.252 399.065 l0.049 -2.713 0.013 -0.222 0.272 -1.867 0.037 -0.128 0.605 -0.837 -0.273 0.053 0.388 0.43 0.565 2.229 1.414 11.789 0.513 11.988 0.284 -0.105 0.672 0.28 -0.112 -0.076 -0.059 -0.099 -0.069 -0.21 -0.331 -1.089 -0.043 0.002 -0.221 1.117 -0.046 0.244 -0.019 0.217 -0.018 0.203 0.672 0.28 0.34 -0.133 -0.347 -12.715 -1.551 -11.91 -0.774 -2.555 -0.987 -0.797 -0.521 0.09 -0.681 1.383 -0.037 0.267 -0.057 1.931 0.011 0.242 0.161 2.713" />
    <path class="write-flat-pen" fill="#FFFFFF" stroke-width="1.6" __comx="273.084" __comy="408.618" __timestamp="0x1781adc1689" d="M267.405 408.828 l-0.584 -0.189 0.393 1.25 0.063 0.217 1.067 4.278 0.041 0.231 0.311 1.78 0 0 0.507 0.392 0 0 0.894 -0.25 1.785 -3.987 1.467 -2.292 0.813 -0.615 0.677 -0.131 0.765 0.249 0.896 0.875 0.85 1.718 0.926 3.96 0.534 2.152 0.11 -0.002 0.451 -2.275 -0.82 -4.251 -1.012 -2.054 -1.259 -1.235 -1.357 -0.445 -1.292 0.244 -1.234 0.931 -1.635 2.573 -1.763 4.103 0.894 -0.25 0 0 -0.163 -0.078 0 0 -0.287 -1.317 -0.058 -0.271 -1.301 -4.281 -0.1 -0.255 -0.601 -1.19 -0.584 0.418" />
    <path class="write-flat-pen" fill="#FFFFFF" stroke-width="1.6" __comx="292.783" __comy="408.618" __timestamp="0x1781adc1865" d="M290.793 394.602 l0.449 -1.325 0.039 -0.053 -0.009 0.02 0.189 -0.09 -0.669 -0.329 -0.041 0.042 -0.504 0.964 -0.166 0.363 -1.332 3.666 -0.736 3.72 -0.253 4.245 0.481 4.527 1.017 4.012 1.295 3.121 1.943 2.547 0.495 0.402 1.51 0.766 0.611 0.176 0.572 0.099 2.103 0.362 0.019 -0.068 -1.977 -0.805 -0.513 -0.211 -0.491 -0.236 -1.267 -0.864 -0.303 -0.305 -1.639 -2.449 -1.165 -2.925 -0.961 -3.843 -0.46 -4.335 0.228 -4.06 0.662 -3.563 1.156 -3.605 0.124 -0.352 0.304 -1.07 -0.001 -0.079 -0.669 -0.329 -0.038 0.249 -0.009 0.02 -0.031 0.108 -0.237 1.422" />
    <path class="write-flat-pen" fill="#FFFFFF" stroke-width="1.6" __comx="312.491" __comy="408.618" __timestamp="0x1781adc1adc" d="M315.873 399.205 l0.407 0.255 -0.058 -0.073 0.102 1.263 -0.042 0.277 -1.454 4.289 -0.26 0.526 -2.026 3.416 -1.814 2.188 -1.56 1.22 -1.362 0.525 -0.937 0.003 -0.696 -0.315 -0.56 -0.767 -0.188 -0.939 0.2 -1.548 0.915 -2.003 1.106 -1.349 1.149 -0.687 0.979 -0.141 1.193 0.321 1.426 0.973 1.877 1.956 4.835 6.4 0.331 0.061 1.522 -0.007 0.024 -0.066 -1.172 -0.972 0.056 -0.038 -4.505 -6.301 -2.064 -2.112 -1.748 -1.173 -1.692 -0.449 -1.533 0.219 -1.594 0.951 -1.38 1.667 -1.09 2.357 -0.256 1.99 0.296 1.467 0.963 1.313 1.313 0.586 1.495 -0.016 1.786 -0.702 1.829 -1.448 1.947 -2.409 2.038 -3.59 0.303 -0.659 1.293 -4.544 0.025 -0.509 -0.361 -1.475 -0.163 -0.258 -0.73 -0.142" />
    <path class="write-flat-pen" fill="#FFFFFF" stroke-width="1.6" __comx="336.892" __comy="408.618" __timestamp="0x1781adc1e6d" d="M330.622 407.098 l-0.235 0.11 0.059 0.465 0.091 0.054 0.844 0.268 0.357 0.073 4.546 0.327 0.488 -0.04 2.418 -0.568 1.727 -0.926 1.133 -1.198 0.622 -1.591 -0.189 -1.29 -1.047 -1.122 -1.978 -0.668 -2.009 -0.082 -2.713 0.48 -2.186 0.972 -1.717 1.527 -1.194 1.974 -0.629 2.194 -0.006 2.463 0.637 2.209 1.296 2.05 1.331 1.23 1.929 0.952 1.864 0.295 1.954 -0.272 4.179 -2.326 0.405 -0.376 0.584 -0.645 0.235 -0.317 1.364 -1.843 -0.075 -0.077 -1.877 1.317 -0.309 0.213 -0.67 0.484 -0.332 0.232 -3.944 1.976 -1.502 0.211 -1.452 -0.222 -1.573 -0.751 -1.071 -0.959 -1.132 -1.724 -0.572 -1.845 -0.035 -2.11 0.506 -1.884 1.001 -1.695 1.444 -1.295 1.889 -0.848 2.451 -0.438 1.721 0.07 1.55 0.521 0.611 0.649 0.099 0.642 -0.425 1.113 -0.851 0.919 -1.436 0.789 -2.197 0.548 -0.338 0.035 -4.446 -0.093 -0.306 -0.021 -0.834 -0.053 -0.076 0.002 0.059 0.465 0.203 -0.161" />
    <path class="write-flat-pen" fill="#FFFFFF" stroke-width="1.6" __comx="364.544" __comy="383.833" __timestamp="0x1781adc2a8c" d="M359.629 388.966 l0.054 1.071 0.009 0.286 0.176 3.305 0.029 0.489 0.165 4.188 0 0 -0.009 0.018 0 0 0.866 0.049 0.14 -11.447 -0.324 -4.626 -1.268 -5.498 0.089 -0.815 0.647 -0.933 1.192 -0.823 1.795 -0.617 2.148 -0.245 1.503 0.236 0.768 0.435 0.594 0.874 0.084 0.734 -0.323 1.055 -0.865 1.031 0 0 -2.035 1.046 0 0 0.135 1.268 1.627 0.44 1.231 0.776 0.966 1.11 0.472 1.136 0.011 1.023 -0.461 1.094 -0.746 0.753 -1.317 0.636 -1.473 0.184 -1.045 -0.254 -0.601 -0.421 -0.267 -0.628 -0.102 0.099 0.191 -0.305 0.153 -0.169 1.119 -1.127 -0.035 -0.055 -1.501 0.519 -0.288 0.108 -0.487 0.315 -0.3 0.407 0.295 1.663 1.23 0.889 1.559 0.374 1.952 -0.252 1.733 -0.846 1.094 -1.116 0.668 -1.603 -0.021 -1.57 -0.656 -1.585 -1.243 -1.431 -1.576 -0.992 -1.825 -0.494 0.135 1.268 0 0 2.274 -1.18 0 0 1.216 -1.454 0.48 -1.591 -0.158 -1.342 -0.959 -1.405 -1.253 -0.711 -1.926 -0.302 -2.475 0.286 -2.109 0.73 -1.539 1.084 -0.944 1.437 -0.086 1.355 1.45 5.569 0.376 4.49 0.013 11.406 0.866 0.049 0 0 0.003 -0.094 0 0 -0.392 -4.254 -0.054 -0.494 -0.397 -3.286 -0.041 -0.294 -0.262 -1.051" />
    <path class="write-flat-pen" fill="#FFFFFF" stroke-width="1.6" __comx="381.06" __comy="383.833" __timestamp="0x1781adc2be0" d="M374.91 376.689 l-0.385 -0.021 0.151 0.299 0.122 0.163 1.253 1.498 0.373 0.408 6.541 7.13 2.434 1.855 2.184 0.561 0.032 -0.064 -1.671 -1.352 -2.199 -1.845 -6.655 -6.925 -0.403 -0.379 -1.406 -1.334 -0.158 -0.141 -0.305 -0.162 -0.311 0.384" />
    <path class="write-flat-pen" fill="#FFFFFF" stroke-width="1.6" __comx="381.361" __comy="383.833" __timestamp="0x1781adc2caf" d="M376.185 388.11 l-0.029 -0.382 0.02 0.025 0.557 -0.72 0.229 -0.257 2.423 -2.471 0.545 -0.543 5.62 -6.16 0.286 -0.426 0.236 -0.408 1.158 -1.988 -0.107 -0.085 -1.669 1.583 -0.338 0.317 -0.334 0.334 -5.735 5.988 -0.533 0.562 -2.295 2.675 -0.244 0.369 -0.431 0.955 -0.05 0.266 0.281 0.508" />
    <path class="write-flat-pen" fill="#FFFFFF" stroke-width="1.6" __comx="397.293" __comy="383.833" __timestamp="0x1781adc2e55" d="M391.636 382.576 l0.409 -0.148 0.024 0.021 2.006 0.451 0.442 0.08 6.303 0.46 2.345 -0.206 0.003 -0.044 -2.294 -0.486 -6.25 -0.609 -0.411 -0.053 -2.077 -0.228 -0.258 0.007 -0.461 0.423" />
    <path class="write-flat-pen" fill="#FFFFFF" stroke-width="1.6" __comx="398.145" __comy="383.833" __timestamp="0x1781adc2f21" d="M396.338 379.45 l0.321 0.184 -0.034 -0.009 0.842 1.414 0.114 0.262 1.317 3.149 0.952 2.026 0.102 -0.032 -0.399 -2.222 -1.133 -3.277 -0.176 -0.352 -1.107 -1.415 -0.166 -0.129 -0.527 -0.026" />
    <path class="write-flat-pen" fill="#FFFFFF" stroke-width="1.6" __comx="413.696" __comy="383.833" __timestamp="0x1781adc3173" d="M408.721 383.332 l-0.209 -0.744 0.006 -0.07 0.335 -1.559 0.084 -0.193 1.055 -1.834 0.935 -0.926 0.404 -0.021 0.494 0.433 1.614 4.249 1.553 2.72 2.066 1.225 0.331 0.017 0.18 -0.024 1.875 -0.3 0.002 -0.042 -1.83 -0.505 -0.131 -0.041 -0.067 -0.045 -1.538 -1.123 -1.38 -2.39 -1.769 -4.393 -1.061 -0.868 -1.215 0.125 -1.248 1.341 -1.016 2.069 -0.109 0.331 -0.138 1.746 0.04 0.22 0.439 0.732" />
    <path class="write-flat-pen" fill="#FFFFFF" stroke-width="1.6" __comx="417.977" __comy="383.833" __timestamp="0x1781adc32cf" d="M422.585 376.49 l-0.346 -0.336 -0.366 0.408 -0.146 0.252 -2.486 4.723 -0.391 0.75 -2.397 4.931 -1.69 4.623 -1.032 4.62 -0.372 4.15 0.647 2.509 0.243 0.294 0.218 0.186 1.546 1.292 0.065 -0.055 -1.014 -1.741 -0.119 -0.213 -0.056 -0.143 -0.356 -2.198 0.375 -3.898 0.966 -4.485 1.566 -4.535 2.238 -4.934 0.365 -0.75 2.289 -4.826 0.103 -0.254 0.156 -0.506 -0.412 0.067" />
    <path class="write-flat-pen" fill="#FFFFFF" stroke-width="1.6" __comx="439.528" __comy="391.687" __timestamp="0x1781adc3777" d="M436.702 386.198 l-0.087 -0.533 -0.412 0.144 -0.005 0.046 0.274 0.613 0.175 0.296 1.611 2.495 0.428 0.641 1.713 2.94 1.832 4.285 0.752 2.738 0.438 3.575 -0.041 3.652 -0.741 4.417 -1.286 4.358 -2.842 5.745 -0.458 0.691 -0.916 1.312 -0.441 0.606 -0.852 1.107 -1.32 1.688 0.026 0.024 1.578 -1.454 1.017 -0.978 0.531 -0.562 1.055 -1.239 0.556 -0.721 3.114 -5.8 1.338 -4.525 0.763 -4.572 0.031 -3.814 -0.474 -3.726 -0.804 -2.884 -1.914 -4.406 -1.826 -2.993 -0.472 -0.654 -1.79 -2.373 -0.213 -0.257 -0.413 -0.436 -0.012 0.024 -0.412 0.144 0.275 0.465" />
    <path class="write-flat-pen" fill="#FFFFFF" stroke-width="1.6" __comx="85.655" __comy="530.275" __timestamp="0x1781adc74a1" d="M78.246 518.034 l-0.215 -0.092 -0.026 0.517 0.007 0.203 0.02 2.033 0.002 0.658 0.117 5.653 0.08 0.927 0 0 0.391 7.497 0 0 0.443 2.01 0 0 1.146 -0.113 0.334 -11.69 -0.134 -8.483 -0.352 -1.964 0.133 -0.345 0.482 -0.283 1.759 -0.182 5.225 0.849 0.508 0.115 1.454 0.311 0.51 0.103 0.9 0.138 2.256 0.338 0.019 -0.064 -2.086 -0.931 -0.833 -0.353 -0.482 -0.199 -1.414 -0.501 -0.554 -0.178 -5.451 -1.079 -2.287 0.253 -1.177 0.751 -0.353 1.183 0.496 2.177 0.208 8.339 -0.32 11.662 1.146 -0.113 0 0 -0.451 -1.915 0 0 -0.554 -7.414 0 0 -0.109 -0.914 -0.347 -5.612 -0.041 -0.663 -0.222 -2.045 -0.046 -0.219 -0.181 -0.491 -0.215 0.124" />
    <path class="write-flat-pen" fill="#FFFFFF" stroke-width="1.6" __comx="86.203" __comy="530.275" __timestamp="0x1781adc75d7" d="M79.523 526.657 l0.324 -0.309 -0.008 0.026 1.368 -0.221 0.362 -0.026 2.66 -0.025 6.562 0.493 0.159 -0.005 2.397 -0.039 0.015 -0.102 -2.283 -0.732 -0.176 -0.055 -6.637 -0.738 -2.777 0.136 -0.467 0.073 -1.455 0.464 -0.253 0.14 -0.27 0.613" />
    <path class="write-flat-pen" fill="#FFFFFF" stroke-width="1.6" __comx="89.13" __comy="530.275" __timestamp="0x1781adc76f2" d="M80.208 535.402 l0.392 1.072 0.39 0.207 3.27 0.824 9.713 0.575 0.452 -0.013 0.875 -0.041 0.473 -0.039 2.277 -0.186 0.001 -0.043 -2.263 -0.316 -0.467 -0.066 -0.869 -0.108 -0.436 -0.041 -9.6 -0.792 -3.132 -0.601 -0.042 -0.001 -0.462 -0.705" />
    <path class="write-flat-pen" fill="#FFFFFF" stroke-width="1.6" __comx="106.41" __comy="530.275" __timestamp="0x1781adc7817" d="M100.224 524.513 l0.805 1.24 0.264 0.376 3.278 4.315 0.424 0.491 2.119 2.07 3.148 1.672 0.248 0.007 2.076 -0.066 0.011 -0.07 -1.955 -0.702 -0.075 -0.044 -2.793 -1.681 -2.012 -1.918 -0.388 -0.43 -3.435 -4.149 -0.29 -0.341 -0.959 -1.117" />
    <path class="write-flat-pen" fill="#FFFFFF" stroke-width="1.6" __comx="107.454" __comy="530.275" __timestamp="0x1781adc78df" d="M103.009 534.127 l0.912 -0.784 0.234 -0.197 2.575 -2.426 0.455 -0.448 3.578 -3.927 0.151 -0.217 0.138 -0.217 1.251 -1.962 -0.039 -0.034 -1.756 1.527 -0.193 0.167 -0.181 0.164 -3.713 3.756 -0.435 0.449 -2.412 2.576 -0.21 0.231 -0.757 0.953" />
    <path class="write-flat-pen" fill="#FFFFFF" stroke-width="1.6" __comx="95.831" __comy="530.275" __timestamp="0x1781adc7a0a" d="M75.729 542.357 l-0.269 0.577 7.723 -0.431 1.611 -0.029 6.941 0.001 16.866 1.448 1.507 0.072 2.908 0.164 1.366 0.021 1.857 0.028 0.002 -0.027 -1.847 -0.199 -1.353 -0.146 -2.888 -0.374 -1.5 -0.156 -16.88 -1.659 -6.988 0.013 -1.639 0.04 -7.727 0.658 0.309 0.577" />
    <path class="write-flat-pen" fill="#FFFFFF" stroke-width="1.6" __comx="131.481" __comy="530.275" __timestamp="0x1781adc7b68" d="M131.846 537.28 l-0.087 -1.511 -0.195 -1.609 -0.013 -0.001 -0.397 1.595 -0.039 1.537" />
    <path class="write-flat-pen" fill="#FFFFFF" stroke-width="1.6" __comx="128.614" __comy="530.275" __timestamp="0x1781adc7be7" d="M129.304 519.428 l-0.66 -2.185 -0.646 -1.795 -0.075 0.015 0.099 1.94 0.729 2.2" />
    <path class="write-flat-pen" fill="#FFFFFF" stroke-width="1.6" __comx="199.808" __comy="530.928" __timestamp="0x1781adc827c" d="M195.702 523.545 l-0.043 0.691 0.117 0.307 2.038 3.823 0.374 0.609 3.88 5.258 1.857 0.787 0.033 -0.053 -1.384 -1.269 -3.599 -5.249 -0.357 -0.562 -2.207 -3.667 -0.094 -0.16 -0.163 -0.559" />
    <path class="write-flat-pen" fill="#FFFFFF" stroke-width="1.6" __comx="203.895" __comy="530.928" __timestamp="0x1781adc83b2" d="M208.278 520.604 l-0.532 1.824 -0.137 0.5 -4.868 15.061 -0.342 1.139 -2.932 9.249 -0.574 4.123 0.238 0.27 0.954 0.796 0.074 -0.047 -0.306 -1.205 0.056 -0.02 0.708 -3.644 2.854 -9.199 0.322 -1.144 4.657 -15.145 0.117 -0.539 0.332 -1.875" />
    <path class="write-flat-pen" fill="#FFFFFF" stroke-width="1.6" __comx="223.842" __comy="530.928" __timestamp="0x1781adc8564" d="M218.007 525.803 l9.386 -0.18 2.29 -0.306 -0.001 -0.035 -2.301 -0.141 -9.382 0.076" />
    <path class="write-flat-pen" fill="#FFFFFF" stroke-width="1.6" __comx="224.619" __comy="530.928" __timestamp="0x1781adc863d" d="M218.701 532.781 l2.109 -0.311 0.49 -0.063 6.661 -0.675 0.451 -0.069 2.252 -0.333 -0.003 -0.096 -2.269 -0.186 -0.474 -0.039 -6.722 0.512 -0.535 0.088 -2.088 0.533" />
    <path class="write-flat-pen" fill="#FFFFFF" stroke-width="1.6" __comx="268.804" __comy="518.943" __timestamp="0x1781adc90f6" d="M268.581 516.438 l-0.22 0.232 -0.021 0.146 -0.062 0.458 -0.006 0.229 0.005 0.998 0.005 0.444 0.062 4.506 0.003 0.88 -0.371 14.297 0.105 0.197 1.014 1.432 0.079 -0.028 -0.101 -1.752 0.028 -0.022 0.531 -14.112 -0.021 -0.925 -0.292 -4.531 -0.062 -0.47 -0.192 -1.001 -0.061 -0.224 -0.153 -0.406 -0.023 0.053 0.081 -0.12" />
    <path class="write-flat-pen" fill="#FFFFFF" stroke-width="1.6" __comx="282.796" __comy="523.375" __timestamp="0x1781adc9348" d="M281.108 522.542 l0.267 -0.997 0.018 -0.071 0.061 -0.941 -0.338 -0.448 -1.466 0.305 -0.372 0.286 -1.482 1.748 -1.078 2.084 -0.901 3.119 -0.352 3.214 0.261 2.207 0.825 1.962 1.05 1.262 1.525 0.963 2.234 0.573 1.855 -0.14 2.365 -0.84 2.015 -1.294 1.4 -1.552 0.822 -1.887 0.311 -2.133 -0.257 -2.103 -0.898 -2.192 -1.551 -2.312 -1.622 -1.534 -1.298 -0.274 -0.147 0.049 -0.015 0.045 -0.658 0.467 -0.015 0.234 0.592 0.549 0.076 0.051 -0.002 0.045 0.661 0.266 1.204 1.14 1.367 2.029 0.766 1.846 0.225 1.686 -0.226 1.728 -0.622 1.482 -1.088 1.234 -1.693 1.116 -2.017 0.744 -1.43 0.126 -1.802 -0.44 -1.165 -0.717 -0.793 -0.931 -0.688 -1.595 -0.234 -1.867 0.308 -2.954 0.818 -2.896 0.933 -1.866 1.257 -1.599 0.08 -0.078 0.582 -0.276 -0.209 -0.288 0.143 0.555 0.004 0.004 -0.04 1.042" />
    <path class="write-flat-pen" fill="#FFFFFF" stroke-width="1.6" __comx="307.235" __comy="501.825" __timestamp="0x1781adc9b67" d="M313.109 493.744 l-0.03 0.863 -0.059 0.192 -1.06 2.658 -0.232 0.435 -3.297 4.795 -0.409 0.446 -1.967 1.817 -1.739 1.052 -1.515 0.469 -1.288 -0.05 -0.889 -0.458 -0.64 -0.926 -0.234 -1.059 0.189 -1.358 0.585 -1.176 0.791 -0.65 0.976 -0.168 1.219 0.327 2.221 1.334 8.442 7.661 1.81 0.163 0.028 -0.072 -1.264 -1.013 -8.238 -7.775 -2.493 -1.488 -1.664 -0.445 -1.586 0.277 -1.262 1.04 -0.795 1.608 -0.244 1.791 0.345 1.523 0.968 1.38 1.417 0.72 1.777 0.055 1.853 -0.601 1.946 -1.23 2.038 -1.984 0.476 -0.552 3.173 -5.029 0.252 -0.537 0.877 -2.817 0.048 -0.316 -0.177 -0.926" />
    <path class="write-flat-pen" fill="#FFFFFF" stroke-width="1.6" __comx="329.377" __comy="501.825" __timestamp="0x1781adc9dba" d="M328.703 486.599 l-0.32 -0.216 -0.385 0.243 -0.041 0.198 0.116 3.042 0.087 0.706 1.029 7.181 0.814 8.874 0.385 -0.001 0.399 -0.279 0.009 -0.078 -0.322 -0.364 0.293 -0.012 -0.532 -8.262 -1.211 -7.188 -0.11 -0.668 -0.331 -2.936 0.001 -0.141 -0.385 0.243 0.385 0.019" />
    <path class="write-flat-pen" fill="#FFFFFF" stroke-width="1.6" __comx="337.461" __comy="501.825" __timestamp="0x1781adc9f6c" d="M338.477 499.216 l0.605 -1.278 -0.047 -0.286 -0.659 -0.86 -1.454 -0.196 -1.647 0.623 -1.142 1.053 -0.785 1.519 -0.274 1.7 0.354 1.897 0.9 1.496 1.421 0.934 1.566 0.132 1.581 -0.617 1.319 -1.23 1.114 -2.085 0.52 -2.052 -0.28 -1.523 -1.017 -1.114 -1.744 0.042 -0.303 0.196 -0.339 0.366 -1.042 1.372 0.082 0.093 1.473 -0.842 0.358 -0.172 0.012 0.024 0.914 0.151 0.374 0.475 0.146 0.884 -0.407 1.62 -0.924 1.758 -0.967 0.926 -1.068 0.438 -0.959 -0.061 -0.94 -0.584 -0.667 -1.06 -0.297 -1.481 0.201 -1.319 0.6 -1.184 0.829 -0.784 1.186 -0.488 0.801 0.049 0.324 0.302 -0.03 -0.194 -0.303 1.131" />
    <path class="write-flat-pen" fill="#FFFFFF" stroke-width="1.6" __comx="344.265" __comy="501.825" __timestamp="0x1781adca1df" d="M348.473 500.929 l0.175 -1.86 -0.082 -0.245 -0.669 -0.904 -1.201 -0.499 -1.339 0.089 -1.137 0.625 -0.842 1.146 -0.511 1.737 0.105 1.679 0.582 1.152 1.059 0.54 1.354 -0.459 1.121 -1.254 0.841 -1.699 -0.511 -0.048 0.525 6.174 -0.029 4.909 -0.395 2.096 -0.659 1.345 -0.753 0.655 -1.033 0.336 -1.396 -0.201 -1.058 -0.559 -1.101 -1.137 -0.599 -1.244 -0.13 -1.036 0.615 -1.83 0.08 -0.119 0.415 -0.411 0.226 -0.195 1.577 -1.311 -0.039 -0.068 -1.928 0.698 -0.328 0.122 -0.612 0.348 -0.347 0.291 -1.04 2.293 0.186 1.607 0.799 1.645 1.411 1.441 1.458 0.761 1.938 0.259 1.573 -0.541 1.127 -1.023 0.809 -1.742 0.411 -2.371 -0.018 -5.069 -0.662 -7.13 -1.161 -0.117 -1.096 2.267 -0.829 0.949 -0.674 0.252 -0.39 -0.176 -0.366 -0.671 -0.119 -1.314 0.381 -1.443 0.612 -0.889 0.802 -0.471 0.978 -0.099 0.879 0.308 0.558 0.618 0.022 0.033 0.061 1.748" />
    <path class="write-flat-pen" fill="#FFFFFF" stroke-width="1.6" __comx="356.215" __comy="506.668" __timestamp="0x1781adcb623" d="M354.843 515.817 l0.191 -0.784 -0.077 0.155 0.025 0.117 -0.023 0.017 0.589 1.331 0.127 0.373 1.165 6.092 0.542 1.985 0.087 -0.004 0.374 -2.097 -1.191 -6.257 -0.213 -0.502 -0.86 -1.372 -0.267 -0.237 -0.617 0.046 -0.109 0.213 0.031 0.903" />
    <path class="write-flat-pen" fill="#FFFFFF" stroke-width="1.6" __comx="364.062" __comy="506.668" __timestamp="0x1781adcb80a" d="M362.784 514.643 l-0.38 -0.081 -0.175 0.141 -0.701 0.834 -0.114 0.21 -0.576 1.699 -0.021 1.765 0.506 1.503 0.887 1.033 1.163 0.456 1.513 -0.254 1.128 -0.879 0.896 -1.584 0.397 -1.946 -0.216 -1.817 -0.759 -1.215 -1.206 -0.517 -1.113 0.395 -0.145 0.139 -1.003 1.258 0.039 0.056 1.529 -0.501 0.025 0.021 0.558 -0.032 0.432 0.207 0.407 0.634 0.188 1.333 -0.281 1.567 -0.664 1.223 -0.701 0.572 -0.915 0.181 -0.628 -0.225 -0.594 -0.654 -0.423 -1.134 -0.048 -1.453 0.383 -1.54 0.04 -0.11 0.45 -0.868 -0.032 0 0.175 -0.118" />
    <path class="write-flat-pen" fill="#FFFFFF" stroke-width="1.6" __comx="383.6" __comy="506.668" __timestamp="0x1781adcba7a" d="M383.073 489.292 l-0.395 -0.207 -0.173 0.049 -0.604 0.367 -0.187 0.195 -0.81 1.225 -0.161 0.365 -0.745 2.082 -0.388 3.016 0.247 2.925 0.783 2.936 1.379 3.081 2.081 2.225 0.397 0.208 0.646 0.232 0.296 0.063 2.129 0.436 0.022 -0.06 -1.891 -1.07 -0.227 -0.133 -0.504 -0.328 -0.19 -0.15 -1.691 -2.101 -1.24 -2.828 -0.736 -2.732 -0.25 -2.686 0.286 -2.784 0.569 -1.986 0.092 -0.283 0.561 -1.212 0.067 -0.122 0.336 -0.443 -0.056 0.002 0.303 -0.044" />
    <path class="write-flat-pen" fill="#FFFFFF" stroke-width="1.6" __comx="394.476" __comy="506.668" __timestamp="0x1781adcbbc1" d="M389.213 493.956 l-0.388 -0.139 0.071 0.595 0.123 0.253 1.06 1.613 0.351 0.45 3.396 3.833 2.312 1.884 1.752 0.739 2.237 0.193 0.011 -0.038 -1.927 -1.008 -1.503 -0.793 -2.156 -1.746 -3.446 -3.652 -0.348 -0.391 -1.183 -1.445 -0.106 -0.143 -0.266 -0.462 -0.388 0.26" />
    <path class="write-flat-pen" fill="#FFFFFF" stroke-width="1.6" __comx="394.553" __comy="506.668" __timestamp="0x1781adcbc8d" d="M391.171 503.361 l0.659 -1.496 0.153 -0.211 5.402 -6.86 1.113 -2.015 -0.064 -0.045 -1.537 1.689 -5.595 6.734 -0.208 0.34 -0.486 1.66" />
    <path class="write-flat-pen" fill="#FFFFFF" stroke-width="1.6" __comx="414.267" __comy="499.756" __timestamp="0x1781adcc750" d="M410.126 486.292 l0.255 -0.054 0.007 0.03 0.764 0.449 0.242 0.178 2.186 2.027 0.385 0.432 1.566 2.223 1.204 2.758 0.526 2.266 0.183 3.291 -0.479 3.725 -0.833 3.098 -1.723 3.009 -0.165 0.186 -0.408 0.383 -1.608 1.438 0.037 0.056 1.964 -0.935 0.537 -0.319 0.314 -0.265 2.023 -3.133 0.932 -3.303 0.51 -3.901 -0.201 -3.488 -0.584 -2.454 -1.32 -2.937 -1.722 -2.319 -0.479 -0.497 -2.406 -1.938 -0.354 -0.196 -0.93 -0.312 -0.27 -0.036 -0.289 0.358" />
    <path class="write-flat-pen" fill="#FFFFFF" stroke-width="1.6" __comx="443.491" __comy="499.756" __timestamp="0x1781adcca3b" d="M437.841 496.152 l1.741 -0.138 0.35 -0.023 6.994 0.019 2.264 0.08 0.007 -0.055 -2.235 -0.527 -7.057 -0.144 -0.395 0.051 -1.723 0.358" />
    <path class="write-flat-pen" fill="#FFFFFF" stroke-width="1.6" __comx="475.049" __comy="508.527" __timestamp="0x1781adce132" d="M469.668 505.053 l0.437 1.816 0.043 0.388 0.067 4.945 -0.04 0.56 -0.64 4.099 -0.479 1.092 0 0 0.733 -0.159 -0.26 -0.266 -0.168 -1.944 0.631 -16.703 0.297 -0.676 1.027 -0.905 1.936 -0.98 2.156 -0.538 1.578 -0.015 0.716 0.335 0.374 0.533 0.048 0.612 -0.347 0.809 -1.267 1.226 0.004 1.042 2.321 1.713 1.085 1.275 0.439 1.158 -0.101 0.753 -0.673 0.787 -1.29 0.565 -1.603 0.176 -1.747 -0.19 0.211 0.186 -0.069 0.201 -0.342 -0.452 -0.067 -0.011 -0.492 0.48 -0.022 0.438 0.337 0.272 2.159 0.437 1.989 -0.228 1.752 -0.783 1.112 -1.322 0.189 -1.465 -0.635 -1.678 -1.329 -1.565 -1.912 -1.413 -0.001 0.173 1.04 -1.034 0.559 -1.341 -0.106 -1.27 -0.77 -1.092 -1.285 -0.602 -2.019 0.025 -2.438 0.62 -2.198 1.142 -1.321 1.232 -0.424 1.135 -0.466 16.968 0.228 2.357 0.542 0.488 0.733 -0.159 0 0 0.468 -1.214 0.502 -4.258 0.019 -0.619 -0.287 -4.991 -0.079 -0.44 -0.657 -1.783" />
    <path class="write-flat-pen" fill="#FFFFFF" stroke-width="1.6" __comx="498.189" __comy="508.527" __timestamp="0x1781adce346" d="M497.482 487.384 l-0.378 0.081 -0.038 0.272 -0.041 1.185 0.015 0.486 0.362 4.298 0.105 0.949 0.967 12.426 0.758 1.304 0.072 -0.019 0.048 -1.43 -0.867 -12.377 -0.132 -0.963 -0.576 -4.256 -0.06 -0.459 -0.145 -1.136 -0.021 0.019 0.053 -0.137" />
    <path class="write-flat-pen" fill="#FFFFFF" stroke-width="1.6" __comx="507.275" __comy="508.527" __timestamp="0x1781adce500" d="M507.929 499.532 l0.301 -1.157 -0.159 -0.321 -0.956 -0.562 -1.31 0.276 -1.225 0.899 -0.821 1.423 -0.321 1.8 0.354 1.76 0.887 1.267 1.185 0.704 1.431 0.09 1.461 -0.666 1.135 -1.228 0.937 -2.043 0.28 -1.803 -0.365 -1.508 -1.205 -0.9 -0.408 0.033 -0.31 0.209 -0.804 0.848 0.02 0.041 1.119 -0.114 0.156 0.037 -0.177 0.033 0.447 0.519 0.191 0.854 -0.211 1.373 -0.763 1.7 -0.811 0.902 -0.937 0.452 -0.827 -0.031 -0.72 -0.406 -0.62 -0.842 -0.297 -1.305 0.209 -1.411 0.581 -1.096 0.857 -0.693 0.773 -0.236 0.517 0.186 -0.048 -0.114 -0.053 0.948" />
    <path class="write-flat-pen" fill="#FFFFFF" stroke-width="1.6" __comx="514.593" __comy="508.527" __timestamp="0x1781adce762" d="M519.62 498.806 l-0.741 -1.619 -0.26 -0.154 -1.127 -0.326 -1.424 0.199 -1.191 0.767 -0.826 1.249 -0.484 1.843 0.11 1.509 0.628 0.97 1.203 0.061 1.133 -1.015 0.827 -1.453 -0.421 -0.171 0.656 5.949 0.058 4.745 -0.382 2.297 -0.778 1.772 -0.861 0.878 -1.159 0.448 -1.007 -0.1 -1.029 -0.517 -1.063 -1.149 -0.566 -1.461 -0.059 -1.137 0.381 -1.332 1.459 -1.648 0.273 -0.179 0.772 -0.402 0.397 -0.167 0.407 -0.154 2.01 -0.752 -0.01 -0.043 -2.134 0.226 -0.45 0.048 -0.481 0.089 -0.917 0.279 -0.488 0.222 -1.946 1.828 -0.564 1.831 0.083 1.564 0.733 1.878 1.392 1.491 1.449 0.718 1.54 0.141 1.68 -0.672 1.187 -1.243 0.901 -2.122 0.391 -2.549 -0.107 -4.899 -0.77 -6.621 -1.037 -0.432 -1.188 2.148 -0.685 0.642 -0.288 0.003 -0.237 -0.332 -0.111 -1.11 0.363 -1.569 0.617 -1.01 0.879 -0.621 1.1 -0.203 0.913 0.212 0.029 0.01 0.852 1.347" />
    <path class="write-flat-pen" fill="#FFFFFF" stroke-width="1.6" __comx="523.651" __comy="508.527" __timestamp="0x1781adce98f" d="M523.461 514.754 l-0.408 -0.176 0.034 1.033 0.018 0.278 0.467 6.193 0.556 1.545 0.035 -0.005 0.089 -1.617 -0.491 -6.177 -0.045 -0.296 -0.258 -1.012 -0.408 0.234" />
    <path class="write-flat-pen" fill="#FFFFFF" stroke-width="1.6" __comx="529.579" __comy="508.527" __timestamp="0x1781adceb64" d="M527.857 515.228 l-0.009 -0.147 0.188 -0.226 -0.568 -0.279 -0.031 0.033 -0.487 0.911 -0.108 0.281 -0.419 2.34 0.181 2.115 0.648 1.603 0.941 0.872 1.298 0.217 1.313 -0.638 1.103 -1.427 0.719 -1.936 0.111 -1.737 -0.555 -1.284 -1.218 -0.935 -1.482 -0.035 -0.131 0.045 -0.05 0.029 -1.458 0.912 0.007 0.024 1.72 -0.045 0.045 0.001 -0.051 0.024 0.93 0.207 0.664 0.557 0.306 0.721 -0.071 1.258 -0.57 1.601 -0.799 1.078 -0.72 0.38 -0.607 -0.075 -0.532 -0.459 -0.527 -1.218 -0.207 -1.827 0.284 -2.151 0.055 -0.192 0.244 -0.901 -0.024 0.023 -0.568 -0.279 0.033 0.292 -0.009 0.265" />
    <path class="write-flat-pen" fill="#FFFFFF" stroke-width="1.6" __comx="550.251" __comy="497.98" __timestamp="0x1781adcf9b1" d="M550.429 486.609 l-0.005 -0.282 -0.416 -0.151 -0.09 0.029 -0.372 0.264 -0.114 0.125 -0.837 1.173 -0.186 0.355 -1.146 2.623 -0.852 3.762 -0.279 4.487 0.413 3.572 0.862 3.138 1.209 2.426 1.962 1.859 0.46 0.211 0.813 0.222 0.382 0.044 2.12 0.228 0.017 -0.065 -1.96 -0.841 -0.309 -0.137 -0.649 -0.348 -0.235 -0.163 -1.555 -1.746 -1.01 -2.157 -0.785 -2.927 -0.391 -3.354 0.248 -4.269 0.74 -3.571 0.962 -2.548 0.12 -0.294 0.593 -1.218 0.036 -0.086 0.141 -0.313 -0.001 -0.032 -0.416 -0.151 0.143 0.243" />
    <path class="write-flat-pen" fill="#FFFFFF" stroke-width="1.6" __comx="562.869" __comy="497.98" __timestamp="0x1781adcfaee" d="M556.59 494.937 l0.323 0.212 0.04 0.073 1.001 1.294 0.296 0.388 4.829 6.17 1.973 1.83 1.82 0.855 2.254 0.259 0.023 -0.072 -1.918 -1.044 -1.519 -0.92 -1.79 -1.688 -4.933 -5.991 -0.342 -0.381 -1.2 -1.173 -0.205 -0.163 -0.535 -0.041" />
    <path class="write-flat-pen" fill="#FFFFFF" stroke-width="1.6" __comx="564.354" __comy="497.98" __timestamp="0x1781adcfbc4" d="M560.549 505.954 l-0.053 -0.495 0.019 -0.016 0.291 -0.754 0.134 -0.253 1.662 -2.593 0.365 -0.527 4.106 -5.81 0.257 -0.435 0.244 -0.44 0.228 -0.436 1.051 -2.01 -0.024 -0.017 -1.543 1.663 -0.333 0.358 -0.337 0.367 -0.332 0.379 -4.271 5.716 -0.378 0.584 -1.513 2.79 -0.136 0.391 -0.134 0.944 0.019 0.199 0.287 0.525" />
    <path class="write-flat-pen" fill="#FFFFFF" stroke-width="1.6" __comx="577.141" __comy="497.98" __timestamp="0x1781adcfe16" d="M574.452 484.516 l0.267 -0.584 0.062 -0.068 0.713 -0.707 0.032 -0.015 1.76 -0.607 -0.16 -0.046 0.174 0.247 -0.097 0.825 -1.625 3.569 -0.219 1.453 0.735 0.86 1.966 0.348 0.12 0.011 1.855 0.458 0.037 -0.069 -1.424 -1.274 -0.205 -0.161 -1.661 -0.471 -0.105 -0.097 0.08 -0.722 1.546 -3.626 0.082 -1.464 -0.695 -0.739 -0.442 -0.139 -2.128 1.001 -0.157 0.154 -0.609 0.92 -0.081 0.181 -0.06 0.703" />
    <path class="write-flat-pen" fill="#FFFFFF" stroke-width="1.6" __comx="585.951" __comy="497.98" __timestamp="0x1781adcff86" d="M580.589 500.687 l2.032 -0.064 0.246 0.026 6.329 0.399 2.174 -0.63 -0.006 -0.045 -2.188 -0.059 -6.243 -0.555 -0.318 -0.014 -2.082 0.294" />
    <path class="write-flat-pen" fill="#FFFFFF" stroke-width="1.6" __comx="587.352" __comy="497.98" __timestamp="0x1781add0059" d="M586.088 494.723 l0.131 2.151 0.073 0.418 1.131 4.708 1.108 1.983 0.083 -0.029 -0.364 -2.197 -1.078 -4.658 -0.084 -0.362 -0.345 -2.089" />
    <path class="write-flat-pen" fill="#FFFFFF" stroke-width="1.6" __comx="601.326" __comy="497.98" __timestamp="0x1781add0290" d="M597.865 493.598 l0.653 0.406 0.282 -0.022 1.918 -0.84 0.345 -0.226 2.994 -2.682 0 0 0.24 -0.01 0 0 -0.585 -0.625 -1.132 6.812 -0.405 5.152 0.33 2.505 0.087 0.122 0.807 0.678 0.048 -0.02 0.065 -1.052 0.038 0.007 -0.116 -2.251 0.353 -5.001 0.998 -6.783 -0.585 -0.625 0 0 -0.601 0.064 0 0 -3.114 2.992 -0.227 0.171 -1.66 0.958 0.015 0.013 -0.572 -0.14" />
    <path class="write-flat-pen" fill="#FFFFFF" stroke-width="1.6" __comx="605.664" __comy="497.98" __timestamp="0x1781add039a" d="M597.466 505.557 l1.277 -0.065 0.19 0.003 10.953 -0.071 0.604 -0.045 1.225 -0.106 2.242 -0.211 0 -0.041 -2.244 -0.199 -1.227 -0.098 -0.602 -0.039 -10.971 -0.133 -0.256 0.021 -1.291 0.298" />
    <path class="write-flat-pen" fill="#FFFFFF" stroke-width="1.6" __comx="619.619" __comy="497.98" __timestamp="0x1781add055c" d="M615.784 484.151 l0.725 0.733 0.138 0.208 2.308 3.587 0.281 0.477 1.356 2.665 1.246 3.554 0.525 3.032 -0.012 2.311 -0.978 3.71 -0.266 0.599 -0.664 1.3 -0.363 0.631 -1.082 1.868 0.043 0.031 1.422 -1.625 0.494 -0.565 0.88 -1.231 0.386 -0.672 1.207 -3.89 0.024 -2.558 -0.572 -3.218 -1.346 -3.692 -1.475 -2.72 -0.326 -0.512 -2.518 -3.492 -0.221 -0.267 -0.923 -0.616" />
  </g>
</svg>
