<svg class="write-page" color-interpolation="linearRGB" width="982px" height="1584px" xmlns="http://www.w3.org/2000/svg" xmlns:xlink="http://www.w3.org/1999/xlink">
  <g class="write-content write-v3" width="982" height="1584" xruling="30" yruling="30" marginLeft="30" papercolor="#FFFFFF" rulecolor="#7F0000FF">
    <g class="ruleline write-std-ruling write-scale-down" fill="none" stroke="#0000FF" stroke-opacity="0.498" stroke-width="1" shape-rendering="crispEdges" vector-effect="non-scaling-stroke">
      <rect class="pagerect" fill="#FFFFFF" stroke="none" x="0" y="0" width="982" height="1584" />
      <path class="yrule_1" d="M0 30 l982 0" />
      <path d="M0 60 l982 0" />
      <path d="M0 90 l982 0" />
      <path d="M0 120 l982 0" />
      <path d="M0 150 l982 0" />
      <path d="M0 180 l982 0" />
      <path d="M0 210 l982 0" />
      <path d="M0 240 l982 0" />
      <path d="M0 270 l982 0" />
      <path d="M0 300 l982 0" />
      <path d="M0 330 l982 0" />
      <path d="M0 360 l982 0" />
      <path d="M0 390 l982 0" />
      <path d="M0 420 l982 0" />
      <path d="M0 450 l982 0" />
      <path d="M0 480 l982 0" />
      <path d="M0 510 l982 0" />
      <path d="M0 540 l982 0" />
      <path d="M0 570 l982 0" />
      <path d="M0 600 l982 0" />
      <path d="M0 630 l982 0" />
      <path d="M0 660 l982 0" />
      <path d="M0 690 l982 0" />
      <path d="M0 720 l982 0" />
      <path d="M0 750 l982 0" />
      <path d="M0 780 l982 0" />
      <path d="M0 810 l982 0" />
      <path d="M0 840 l982 0" />
      <path d="M0 870 l982 0" />
      <path d="M0 900 l982 0" />
      <path d="M0 930 l982 0" />
      <path d="M0 960 l982 0" />
      <path d="M0 990 l982 0" />
      <path d="M0 1020 l982 0" />
      <path d="M0 1050 l982 0" />
      <path d="M0 1080 l982 0" />
      <path d="M0 1110 l982 0" />
      <path d="M0 1140 l982 0" />
      <path d="M0 1170 l982 0" />
      <path d="M0 1200 l982 0" />
      <path d="M0 1230 l982 0" />
      <path d="M0 1260 l982 0" />
      <path d="M0 1290 l982 0" />
      <path d="M0 1320 l982 0" />
      <path d="M0 1350 l982 0" />
      <path d="M0 1380 l982 0" />
      <path d="M0 1410 l982 0" />
      <path d="M0 1440 l982 0" />
      <path d="M0 1470 l982 0" />
      <path d="M0 1500 l982 0" />
      <path d="M0 1530 l982 0" />
      <path d="M0 1560 l982 0" />
      <path class="xrule_1" d="M30 0 l0 1584" />
      <path d="M60 0 l0 1584" />
      <path d="M90 0 l0 1584" />
      <path d="M120 0 l0 1584" />
      <path d="M150 0 l0 1584" />
      <path d="M180 0 l0 1584" />
      <path d="M210 0 l0 1584" />
      <path d="M240 0 l0 1584" />
      <path d="M270 0 l0 1584" />
      <path d="M300 0 l0 1584" />
      <path d="M330 0 l0 1584" />
      <path d="M360 0 l0 1584" />
      <path d="M390 0 l0 1584" />
      <path d="M420 0 l0 1584" />
      <path d="M450 0 l0 1584" />
      <path d="M480 0 l0 1584" />
      <path d="M510 0 l0 1584" />
      <path d="M540 0 l0 1584" />
      <path d="M570 0 l0 1584" />
      <path d="M600 0 l0 1584" />
      <path d="M630 0 l0 1584" />
      <path d="M660 0 l0 1584" />
      <path d="M690 0 l0 1584" />
      <path d="M720 0 l0 1584" />
      <path d="M750 0 l0 1584" />
      <path d="M780 0 l0 1584" />
      <path d="M810 0 l0 1584" />
      <path d="M840 0 l0 1584" />
      <path d="M870 0 l0 1584" />
      <path d="M900 0 l0 1584" />
      <path d="M930 0 l0 1584" />
      <path d="M960 0 l0 1584" />
      <path class="leftmargin" stroke="#FF0000" d="M30 0 l0 1584" />
    </g>
    <path class="write-flat-pen" fill="#000000" stroke-width="1.8" __comx="87.305" __comy="50.709" __timestamp="0x1774a2ada08" d="M74.835 60.04 l-0.149 0.516 -0.029 0.116 -0.082 0.393 -0.026 0.17 -0.044 0.329 -0.018 0.152 -0.042 0.423 -0.008 0.143 -0.013 0.125 -0.015 0.115 -0.01 0.092 -0.012 0.072 0.681 0.36 0.302 -0.059 0.165 -0.37 0.076 -0.209 0.069 -0.279 0.059 -0.322 0.061 -0.394 0.059 -0.428 0.095 -0.529 0.082 -0.597 0.116 -0.67 0.237 -1.513 0.137 -0.799 0.475 -2.668 0.191 -0.944 1.943 -8.746 0.167 -0.937 0.142 -0.938 0.183 -2.6 0.032 -2.421 -0.098 -2.106 -0.33 -3.255 -0.219 -1.356 -0.3 -0.643 -1.059 -0.512 -0.629 1.046 -0.125 1.399 0.049 1.531 0.3 2.47 0.406 2.103 0.522 2.145 0.688 2.195 0.763 2.021 0.793 1.706 0.791 1.303 0.558 0.652 0.597 0.503 0.664 0.33 0.745 0.184 0.897 -0.085 0.907 -0.394 0.87 -0.659 0.788 -0.905 0.685 -1.071 0.597 -1.196 0.513 -1.334 0.857 -2.709 0.905 -3.488 1.342 -4.628 1.059 -3.35 -1.365 0.042 -0.024 -0.46 -0.147 1.717 -0.089 3.149 0.436 4.382 2.248 13.526 0.707 3.794 0.974 3.598 0.228 0.603 0.226 0.521 0.231 0.475 0.244 0.444 0.23 0.388 0.259 0.384 0.259 0.324 0.279 0.279 0.299 0.231 0.298 0.151 0.273 0.096 0.282 0.06 0.249 -0.009 0.938 -0.102 0.046 -0.168 -0.755 -0.566 -0.146 -0.117 -0.118 -0.108 -0.112 -0.122 -0.11 -0.137 -0.12 -0.172 -0.144 -0.217 -0.153 -0.257 -0.179 -0.329 -0.177 -0.354 -0.198 -0.407 -0.185 -0.422 -0.185 -0.464 -0.178 -0.504 -0.914 -3.47 -0.691 -3.714 -2.227 -13.457 -0.417 -4.219 0.088 -2.99 0.164 -1.794 -0.079 -1.332 -1.52 0.047 -1.427 4.534 -1.349 4.673 -0.892 3.47 -0.825 2.617 -0.464 1.211 -0.519 1.045 -0.566 0.892 -0.589 0.681 -0.569 0.432 -0.475 0.207 -0.346 0.034 -0.289 -0.07 -0.318 -0.156 -0.339 -0.284 -0.382 -0.443 -0.675 -1.105 -0.73 -1.564 -0.726 -1.918 -0.662 -2.097 -0.503 -2.052 -0.386 -2.007 -0.285 -2.339 -0.042 -1.355 0.086 -0.915 -0.354 0.591 -0.852 -0.412 -0.051 -0.106 0.177 1.078 0.326 3.159 0.097 2.01 -0.026 2.323 -0.175 2.486 -0.128 0.851 -0.156 0.882 -1.913 8.736 -0.19 0.983 -0.448 2.701 -0.126 0.821 -0.205 1.52 -0.101 0.694 -0.059 0.605 -0.069 0.545 -0.031 0.466 -0.021 0.392 -0.01 0.307 0 0.234 0.016 0.105 0.117 -0.23 0.267 -0.047 0.681 0.36 -0.033 0.001 -0.027 -0.01 -0.038 -0.055 -0.024 -0.081 -0.018 -0.114 -0.031 -0.395 -0.008 -0.141 -0.013 -0.32 -0.005 -0.152 0.002 -0.375 0.003 -0.089 0.079 -0.513" />
    <path class="write-flat-pen" fill="#000000" stroke-width="1.8" __comx="110.812" __comy="50.709" __timestamp="0x1774a2adcc7" d="M112.309 49.144 l0.151 -0.518 0.03 -0.057 0.107 -0.178 0.045 -0.077 0.097 -0.151 0.027 -0.045 0.082 -0.15 0.052 -0.103 0.032 -0.067 0.056 -0.132 0.036 -0.112 0.032 -0.144 0.009 -0.096 -0.001 -0.154 -0.004 -0.074 -0.02 -0.169 -0.075 -0.242 -0.107 -0.195 -0.095 -0.133 -0.149 -0.161 -0.306 -0.223 -0.237 -0.113 -0.464 -0.147 -0.325 -0.049 -0.708 0.017 -1.202 0.301 -0.892 0.366 -0.844 0.473 -0.861 0.667 -0.813 0.832 -0.692 0.97 -0.558 1.066 -0.366 1.198 -0.174 1.307 0.011 1.279 0.245 1.302 0.454 1.232 0.618 1.108 0.709 0.907 0.78 0.745 0.886 0.601 0.948 0.394 0.962 0.2 1.02 -0.009 1.094 -0.275 1.033 -0.477 0.969 -0.641 0.919 -0.808 0.835 -0.967 0.692 -1.098 0.537 -1.16 0.345 -1.238 0.17 -1.283 0.054 -1.235 -0.161 -1.249 -0.394 -1.278 -0.604 -1.178 -0.769 -1.054 -0.804 -0.88 -0.786 -0.685 -0.814 -0.536 -0.814 -0.35 -1.361 -0.238 -0.438 0 -0.677 0.134 -0.317 0.122 -0.297 0.154 -0.289 0.205 -0.249 0.235 -0.219 0.272 -0.152 0.268 -0.145 0.328 -0.084 0.322 -0.053 0.347 0.008 0.318 0.068 0.916 0.102 0.028 0.531 -0.75 0.161 -0.232 0.157 -0.222 0.141 -0.159 0.173 -0.166 0.134 -0.117 0.146 -0.106 0.145 -0.089 0.151 -0.073 0.152 -0.056 0.13 -0.035 0.41 -0.055 0.154 0.008 1.041 0.205 0.511 0.225 0.602 0.4 0.633 0.553 0.682 0.745 0.644 0.877 0.486 0.936 0.317 1.007 0.132 0.974 -0.037 1.027 -0.136 1.103 -0.273 1.009 -0.432 0.958 -0.565 0.921 -0.679 0.808 -0.751 0.681 -0.779 0.531 -0.796 0.383 -0.783 0.211 -0.682 0.015 -0.669 -0.135 -0.681 -0.282 -0.662 -0.449 -0.614 -0.586 -0.57 -0.734 -0.502 -0.911 -0.368 -1.011 -0.198 -1.054 -0.01 -1.044 0.144 -1.083 0.29 -0.951 0.447 -0.854 0.568 -0.793 0.664 -0.674 0.696 -0.536 0.672 -0.378 0.713 -0.298 0.947 -0.255 0.431 -0.03 0.109 0.007 0.287 0.059 0.058 0.012 0.133 0.054 0.023 0.002 0.026 0.01 0.041 0.024 0.041 0.027 0.033 0.044 0.015 0.022 0.03 0.046 0.01 -0.009 0.022 0.075 0.015 0.046 0.01 0.097 0.004 0.05 0.002 0.089 -0.005 0.128 -0.002 0.032 -0.029 0.181 -0.015 0.085 -0.049 0.22 -0.018 0.107 -0.075 0.555" />
    <path class="write-flat-pen" fill="#000000" stroke-width="1.8" __comx="126.663" __comy="50.709" __timestamp="0x1774a2adf1a" d="M121.645 44.744 l-0.532 -0.561 -0.119 -0.098 -0.505 -0.175 -0.549 0.243 -0.329 0.442 -0.29 0.92 -0.137 1.313 0.018 1.153 0.615 4.898 0.115 0.707 0.25 1.996 0.087 0.617 0.139 1.675 0.037 0.509 0.083 1.597 0.017 0.292 0.113 1.067 0.048 0.189 -0.021 -0.077 1.398 -0.033 0.091 -0.3 -0.021 -0.356 -0.225 -2.25 -0.054 -1.765 0.048 -1.218 0.156 -1.266 0.391 -2.019 0.504 -1.925 0.596 -1.741 0.667 -1.414 0.459 -0.714 0.632 -0.757 0.454 -0.41 0.262 -0.148 0.266 -0.048 0.208 0.049 0.375 0.213 0.511 0.466 0.565 0.704 0.868 1.343 0.82 1.484 0.98 2.039 0.645 1.564 0.66 1.971 0.344 1.465 0.352 2.582 0.022 0.328 0.037 0.573 0.012 0.202 0.009 0.152 -0.002 0.145 0.005 0.07 0.007 0.059 0.02 -0.007 0.006 0.079 0.047 -0.037 0.001 0.106 -0.237 0.722 0.052 0.066 0.758 -0.06 0.234 -0.078 0.098 -0.112 0.144 -0.154 0.06 -0.111 0.074 -0.152 0.048 -0.158 0.059 -0.23 0.03 -0.255 0.016 -0.258 0.004 -0.614 -0.011 -0.405 -0.341 -2.725 -0.376 -1.61 -0.699 -2.089 -0.683 -1.652 -1.02 -2.115 -0.861 -1.569 -0.933 -1.457 -0.684 -0.861 -0.718 -0.666 -0.707 -0.414 -0.733 -0.189 -0.857 0.137 -0.659 0.361 -0.673 0.603 -0.769 0.919 -0.568 0.885 -0.744 1.59 -0.637 1.881 -0.523 2.034 -0.393 2.126 -0.158 1.383 -0.043 1.334 0.069 1.87 0.243 2.274 0.011 0.111 0 0.096 1.398 -0.033 -0.021 -0.077 0.015 0.07 -0.135 -0.92 -0.023 -0.251 -0.13 -1.603 -0.053 -0.527 -0.186 -1.713 -0.106 -0.64 -0.294 -1.999 -0.125 -0.702 -0.653 -4.802 -0.018 -1.019 0.11 -1.134 0.184 -0.641 0.036 -0.069 -0.102 0.03 -0.069 -0.042 -0.073 -0.061 0.538 0.479" />
    <path class="write-flat-pen" fill="#000000" stroke-width="1.8" __comx="147.779" __comy="50.709" __timestamp="0x1774a2ae206" d="M151.83 31.855 l-0.442 -0.609 -0.285 -0.123 -0.472 0.145 -0.19 0.257 -0.182 0.477 -0.07 0.359 -0.093 0.867 0.02 0.542 0.093 1.257 0.059 0.725 0.379 2.531 0.133 0.913 0.399 3.094 0.548 5.553 0.298 4.307 0.454 5.424 0.258 1.493 0.217 0.686 0.586 0.644 0.883 -0.442 0.244 -0.813 0.013 -0.951 -0.118 -1.145 -0.35 -1.898 -0.769 -2.953 -0.487 -1.45 -0.401 -0.895 -0.677 -1.156 -0.523 -0.663 -0.837 -0.765 -0.666 -0.391 -0.781 -0.301 -0.871 -0.163 -0.944 -0.038 -1.027 0.162 -1.107 0.311 -1.086 0.442 -1.011 0.611 -0.847 0.755 -0.751 0.912 -0.648 1.062 -0.464 1.233 -0.232 1.266 -0.074 1.282 0.077 0.73 0.347 1.298 0.289 0.673 0.679 1.155 0.83 1.073 1.008 0.939 1.114 0.784 1.585 0.891 1.13 0.43 1.105 0.223 1.148 0.077 1.21 -0.177 1.599 -0.593 0.525 -0.295 0.516 -0.331 0.51 -0.39 0.463 -0.452 0.415 -0.501 0.391 -0.553 0.278 -0.597 0.323 -0.724 -0.092 -0.069 -0.608 0.509 -0.475 0.4 -0.475 0.377 -0.476 0.326 -0.468 0.292 -0.479 0.265 -0.485 0.25 -0.428 0.206 -1.382 0.473 -0.915 0.127 -0.899 -0.064 -0.893 -0.184 -0.917 -0.351 -1.427 -0.803 -0.974 -0.683 -0.852 -0.788 -0.707 -0.903 -0.594 -0.995 -0.218 -0.495 -0.307 -1.089 -0.062 -0.505 0.046 -1.081 0.181 -1.061 0.366 -0.999 0.526 -0.872 0.621 -0.756 0.674 -0.599 0.813 -0.483 0.918 -0.361 0.956 -0.254 0.81 -0.113 0.703 0.043 0.641 0.131 0.548 0.219 0.434 0.26 0.642 0.585 0.392 0.491 0.592 0.999 0.345 0.759 0.455 1.335 0.75 2.853 0.336 1.793 0.111 1.01 0.001 0.68 -0.009 0.062 0.571 -0.283 0.305 0.34 -0.103 -0.313 -0.234 -1.343 -0.459 -5.355 -0.297 -4.317 -0.566 -5.594 -0.436 -3.124 -0.151 -0.927 -0.429 -2.49 -0.079 -0.685 -0.148 -1.232 -0.043 -0.447 0.024 -0.757 0.021 -0.247 0.058 -0.289 -0.072 0.084 -0.137 0.017 -0.225 -0.098 0.36 0.395" />
    <path class="write-flat-pen" fill="#000000" stroke-width="1.8" __comx="166.493" __comy="50.709" __timestamp="0x1774a2ae483" d="M168.275 54.569 l0.305 -0.488 0.075 -0.108 0.215 -0.351 0.086 -0.169 0.084 -0.181 0.085 -0.207 0.073 -0.215 0.058 -0.203 0.051 -0.204 0.041 -0.19 0.037 -0.196 0.033 -0.216 0.023 -0.192 0.015 -0.219 0.006 -0.232 -0.002 -0.202 -0.011 -0.218 -0.018 -0.23 -0.04 -0.236 -0.041 -0.232 -0.147 -0.469 -0.123 -0.27 -0.417 -0.592 -0.244 -0.222 -0.587 -0.377 -0.778 -0.271 -0.944 -0.167 -1.128 -0.056 -1.197 0.135 -1.064 0.29 -0.973 0.475 -0.873 0.653 -0.743 0.796 -0.634 0.967 -0.481 1.09 -0.283 1.078 -0.142 1.098 0.003 1.144 0.15 1.062 0.275 0.949 0.526 1.164 0.461 0.69 0.687 0.674 0.595 0.352 0.757 0.211 0.892 -0.045 0.88 -0.28 0.827 -0.472 0.75 -0.62 0.692 -0.784 0.959 -1.402 0.812 -1.539 0.881 -1.996 0.34 -1 0.279 -1.417 0.089 -1.041 -0.092 -0.754 -0.366 -0.605 -1.004 -0.192 -0.505 0.818 -0.162 1.102 0.066 1.044 0.312 1.719 0.457 1.767 0.608 1.727 0.709 1.531 0.946 1.578 0.242 0.321 0.243 0.286 0.254 0.25 0.284 0.232 0.316 0.204 0.329 0.144 0.32 0.096 0.321 0.053 0.304 0.02 0.289 -0.004 0.295 -0.108 0.779 -0.355 -0.008 -0.098 -0.827 -0.22 -0.208 -0.066 -0.13 -0.069 -0.189 -0.108 -0.189 -0.125 -0.181 -0.136 -0.17 -0.139 -0.158 -0.155 -0.166 -0.182 -0.154 -0.188 -0.165 -0.228 -0.165 -0.247 -0.843 -1.47 -0.639 -1.399 -0.559 -1.597 -0.424 -1.647 -0.28 -1.573 -0.044 -0.786 0.101 -0.613 -0.239 0.392 -0.77 -0.146 -0.181 -0.295 0.03 0.252 -0.062 0.791 -0.232 1.229 -0.278 0.836 -0.816 1.89 -0.734 1.418 -0.845 1.257 -0.544 0.628 -0.551 0.466 -0.57 0.333 -0.539 0.178 -0.452 0.029 -0.332 -0.088 -0.27 -0.157 -0.451 -0.437 -0.309 -0.457 -0.432 -0.954 -0.215 -0.745 -0.119 -0.856 -0.001 -0.943 0.119 -0.906 0.231 -0.87 0.386 -0.867 0.498 -0.756 0.565 -0.603 0.654 -0.487 0.718 -0.35 0.816 -0.221 0.961 -0.108 0.913 0.044 0.737 0.126 0.507 0.168 0.347 0.208 0.045 0.034 0.278 0.342 0.048 0.078 0.137 0.307 0.048 0.147 0.057 0.175 0.039 0.158 0.04 0.178 0.03 0.155 0.029 0.187 0.021 0.168 0.012 0.153 0.01 0.188 0.005 0.172 0.002 0.172 -0.002 0.182 -0.006 0.176 -0.013 0.182 -0.023 0.181 -0.028 0.163 -0.03 0.137 -0.123 0.338 -0.05 0.107 -0.248 0.528" />
    <path class="write-flat-pen" fill="#000000" stroke-width="1.8" __comx="178.56" __comy="50.709" __timestamp="0x1774a2ae603" d="M175.82 48.714 l-0.158 -0.444 -0.006 -0.117 -0.035 -0.146 -0.002 -0.021 -0.029 -0.135 -0.026 -0.063 -0.074 -0.161 -0.079 -0.099 -0.239 -0.211 -0.64 -0.053 -0.267 0.52 -0.024 0.331 0.092 0.281 0.099 0.233 0.517 0.887 0.257 0.396 4.655 6.652 0.215 0.262 0.22 0.249 0.213 0.211 0.239 0.202 0.262 0.176 0.245 0.117 0.25 0.086 0.221 0.052 0.195 0.005 0.923 -0.041 0.029 -0.088 -0.718 -0.581 -0.117 -0.098 -0.104 -0.094 -0.122 -0.126 -0.106 -0.127 -0.126 -0.163 -0.137 -0.184 -0.135 -0.189 -0.163 -0.236 -0.168 -0.246 -4.592 -6.642 -0.241 -0.358 -0.509 -0.783 -0.067 -0.111 -0.006 0.028 -0.021 0.205 -0.242 0.469 -0.566 -0.049 -0.12 -0.122 -0.046 -0.062 0.042 0.016 -0.002 -0.016 0.072 0.089 0.02 0.026 0.07 0.073 0.06 0.077 0.23 0.451" />
    <path class="write-flat-pen" fill="#000000" stroke-width="1.8" __comx="178.811" __comy="53.997" __timestamp="0x1774a2ae744" d="M186.177 44.362 l-0.242 0.566 -0.054 0.116 -0.059 0.151 -0.095 0.261 -0.222 0.839 -0.15 0.551 -1.48 5.855 -1.681 5.797 -2.017 8.078 -1.111 3.92 -1.138 3.631 -1.192 3.397 -2.012 5.123 -1.079 2.512 -1.588 3.208 -0.238 0.501 -0.222 0.494 -0.194 0.45 -0.175 0.427 -0.131 0.359 -0.111 0.321 -0.096 0.291 -0.076 0.229 -0.07 0.189 -0.047 0.161 -0.26 0.9 0.096 0.059 0.692 -0.631 0.131 -0.124 0.14 -0.179 0.155 -0.21 0.183 -0.26 0.193 -0.289 0.2 -0.324 0.234 -0.391 0.244 -0.426 0.258 -0.47 0.264 -0.485 1.645 -3.229 1.1 -2.571 2.019 -5.169 1.201 -3.444 1.136 -3.675 1.105 -3.961 2.025 -8.07 1.701 -5.79 1.479 -5.875 0.141 -0.566 0.17 -0.839 0.054 -0.266 0.019 -0.169 -0.006 -0.062 0.17 -0.537" />
    <path class="write-flat-pen" fill="#000000" stroke-width="1.8" __comx="208.488" __comy="50.347" __timestamp="0x1774a2af86e" d="M210.835 60.051 l-1.363 -0.394 -0.067 -0.039 -0.155 -0.114 -0.064 -0.064 -0.053 -0.066 -0.03 -0.059 -0.018 -0.057 0.008 -0.029 0.021 -0.052 0.014 0.06 0.067 -0.072 -0.05 0.081 0.182 -0.098 -0.133 0.066 0.132 0.032 -0.186 -0.107 0.112 0.257 -0.01 -0.028 -0.096 0.59 -0.027 0.082 -0.25 0.518 -0.07 0.113 -0.463 0.606 -0.087 0.084 -0.196 0.134 -0.255 0.092 -0.003 -0.006 -0.087 -0.037 -0.029 -0.031 -0.074 -0.142 -0.008 -0.079 0.016 -0.089 0.086 -0.139 0.166 -0.134 0.254 -0.107 0.297 -0.052 0.235 0.034 0.153 0.074 0.11 0.107 0.079 0.152 0.002 0.046 0.067 -0.197 0.264 -0.168 0.173 0.01 -0.114 -0.069 -0.193 -0.191 -0.253 -0.382 -0.078 -0.213 -0.005 0.021 -0.157 0.23 -0.112 0.014 -0.181 -0.051 0.124 0.035 -0.042 -0.036 0.081 0.041 0.015 0.002 0.057 0.027 0.012 0.002 0.04 0.016 0.929 0.231 0.112 -0.102 -0.141 -0.952 -0.018 -0.046 -0.017 -0.03 -0.053 -0.085 -0.04 -0.05 -0.126 -0.136 -0.112 -0.087 -0.347 -0.178 -0.318 -0.086 -0.799 0.214 -0.381 0.578 -0.016 0.678 0.233 0.642 0.446 0.662 0.459 0.436 0.558 0.294 0.604 0.052 0.564 -0.35 0.233 -0.634 -0.117 -0.653 -0.294 -0.546 -0.43 -0.415 -0.546 -0.267 -0.667 -0.103 -0.672 0.105 -0.588 0.23 -0.528 0.403 -0.382 0.598 -0.096 0.596 0.083 0.568 0.352 0.6 0.443 0.357 0.591 0.182 0.493 -0.031 0.624 -0.268 0.417 -0.325 0.219 -0.242 0.516 -0.764 0.123 -0.234 0.275 -0.684 0.059 -0.258 0.072 -0.828 -0.056 -0.331 -0.403 -0.662 -0.315 -0.186 -0.666 0.022 -0.172 0.085 -0.35 0.306 -0.085 0.134 -0.097 0.326 0.006 0.229 0.108 0.255 0.106 0.146 0.112 0.1 0.111 0.084 0.126 0.07 0.119 0.062 0.231 0.096 0.132 0.044 1.412 0.337" />
    <path class="write-flat-pen" fill="#000000" stroke-width="1.8" __comx="207.89" __comy="50.347" __timestamp="0x1774a2afbb4" d="M209.091 31.583 l0.316 0.048 -0.09 -0.042 0.013 0.075 -0.022 -0.021 0.016 0.135 -0.001 0.048 -0.003 0.153 -0.011 0.061 -0.05 0.195 -0.035 0.089 -0.109 0.234 -0.054 0.073 -0.243 0.249 -0.009 -0.001 -0.364 0.155 -0.067 0.012 -0.364 0.032 -0.08 -0.012 -0.559 -0.111 -0.057 -0.019 -0.409 -0.21 0 -0.005 -0.066 -0.076 -0.033 -0.092 0.007 -0.007 0.05 -0.094 0.12 -0.11 0.274 -0.153 0.426 -0.136 0.586 -0.071 0.261 0.053 0.172 0.096 0.1 0.108 0.084 0.174 0.041 0.239 -0.06 0.335 -0.124 0.232 -0.108 0.115 -0.261 0.149 -0.128 0.032 -0.137 -0.013 -0.071 -0.037 -0.041 -0.05 -0.033 -0.093 -0.003 -0.168 0.054 -0.227 0.161 -0.302 0.185 -0.213 0.416 -0.307 0.115 -0.056 -0.036 -0.016 -0.13 -0.065 -0.048 -0.046 -0.016 -0.04 0.013 -0.017 0.03 0.008 0.045 0.051 0.052 0.1 0.05 0.14 0.064 0.164 0.313 0.852 0.204 0.007 0.37 -0.828 0.076 -0.198 0.035 -0.227 0.013 -0.221 -0.02 -0.223 -0.06 -0.216 -0.105 -0.211 -0.15 -0.186 -0.175 -0.137 -0.259 -0.122 -0.57 -0.021 -0.553 0.245 -0.668 0.502 -0.391 0.457 -0.324 0.608 -0.14 0.59 0.015 0.588 0.202 0.561 0.408 0.476 0.592 0.287 0.657 0.044 0.547 -0.151 0.605 -0.363 0.371 -0.411 0.304 -0.59 0.136 -0.791 -0.118 -0.672 -0.259 -0.535 -0.388 -0.424 -0.555 -0.314 -0.699 -0.145 -0.947 0.114 -0.689 0.223 -0.543 0.308 -0.432 0.408 -0.28 0.597 -0.014 0.642 0.319 0.619 0.375 0.326 0.185 0.102 0.605 0.248 0.227 0.046 0.668 0.079 0.262 0.008 0.565 -0.106 0.241 -0.082 0.531 -0.302 0.17 -0.147 0.328 -0.436 0.119 -0.236 0.11 -0.366 0.04 -0.197 0.017 -0.332 -0.02 -0.179 -0.061 -0.24 -0.049 -0.127 -0.117 -0.204 -0.054 -0.073 -0.178 -0.143 -0.137 -0.069 -0.468 0.027" />
    <path class="write-flat-pen" fill="#000000" stroke-width="1.8" __comx="244.083" __comy="50.347" __timestamp="0x1774a2affc8" d="M249.034 38.16 l0.151 -0.595 0.03 -0.065 0.081 -0.199 0.041 -0.09 0.07 -0.133 0.06 -0.142 0.056 -0.137 0.062 -0.159 0.063 -0.175 0.062 -0.18 0.059 -0.185 0.059 -0.204 0.107 -0.407 0.055 -0.236 0.078 -0.431 0.032 -0.227 0.052 -0.49 0.014 -0.278 -0.004 -0.509 -0.014 -0.228 -0.063 -0.434 -0.05 -0.22 -0.148 -0.41 -0.145 -0.277 -0.456 -0.54 -0.298 -0.218 -0.624 -0.299 -0.861 -0.199 -1.095 -0.056 -1.285 0.167 -1.44 0.341 -1.544 0.525 -1.612 0.741 -1.533 0.891 -1.491 1.073 -1.484 1.311 -1.467 1.54 -1.401 1.729 -1.301 1.986 -1.208 2.157 -1.028 2.199 -0.722 2.21 -0.411 2.142 -0.108 2.091 0.01 1.02 0.127 1.06 0.49 1.976 0.839 1.954 1.155 1.79 0.662 0.843 1.432 1.525 0.818 0.717 1.653 1.139 0.913 0.476 1.768 0.671 1.025 0.254 1.988 0.213 2.089 -0.038 2.064 -0.337 2.065 -0.549 2.101 -0.759 2.036 -0.946 1.983 -1.114 1.742 -1.247 0.789 -0.711 1.295 -1.518 0.588 -0.897 0.86 -1.767 0.337 -0.991 0.437 -1.947 0.149 -2.042 -0.057 -2.087 -0.378 -2.119 -0.652 -2.079 -0.425 -1.076 -1.457 -2.861 -0.976 -1.676 -1.012 -1.474 -0.999 -1.258 -0.971 -1.02 -1.041 -0.878 -1.541 -1.036 -1.441 -0.811 -1.413 -0.636 -1.79 -0.524 -0.494 -0.08 -1.356 -0.1 -0.537 0.065 -0.489 0.115 -0.526 0.198 -0.541 0.293 -0.558 0.396 -0.544 0.49 -0.532 0.6 -0.484 0.696 -0.433 0.777 -0.407 0.877 -0.374 0.956 -0.271 1.057 -0.168 0.644 0.15 0.062 0.338 -0.573 0.553 -0.923 0.482 -0.855 0.511 -0.746 0.502 -0.631 0.502 -0.532 0.505 -0.434 0.482 -0.338 0.461 -0.257 0.403 -0.172 0.358 -0.104 0.322 -0.056 0.31 -0.023 1.139 0.113 0.329 0.06 1.581 0.488 1.24 0.57 1.317 0.75 1.409 0.954 0.9 0.763 0.854 0.902 0.914 1.155 0.94 1.377 0.917 1.584 1.4 2.749 0.373 0.946 0.603 1.919 0.342 1.89 0.058 1.879 -0.124 1.838 -0.378 1.744 -0.269 0.813 -0.755 1.59 -0.468 0.73 -1.147 1.371 -0.64 0.585 -1.592 1.153 -1.851 1.048 -1.916 0.898 -1.97 0.718 -1.924 0.518 -1.877 0.31 -1.88 0.032 -1.787 -0.192 -0.832 -0.207 -1.595 -0.607 -0.747 -0.391 -1.498 -1.036 -0.692 -0.609 -1.331 -1.422 -0.574 -0.733 -1.042 -1.62 -0.735 -1.717 -0.435 -1.759 -0.105 -0.878 -0.008 -0.886 0.102 -1.934 0.376 -1.937 0.665 -2.023 0.965 -2.059 1.155 -2.057 1.228 -1.872 1.312 -1.615 1.378 -1.442 1.375 -1.21 1.367 -0.978 1.402 -0.812 1.468 -0.675 1.394 -0.475 1.286 -0.307 1.062 -0.142 0.816 0.035 0.564 0.12 0.347 0.153 0.042 0.024 0.251 0.26 0.03 0.042 0.105 0.226 0.028 0.079 0.078 0.318 0.022 0.131 0.045 0.433 0.011 0.205 -0.001 0.438 -0.005 0.185 -0.025 0.386 -0.022 0.204 -0.047 0.399 -0.024 0.192 -0.023 0.175 -0.025 0.179 -0.023 0.171 -0.023 0.155 -0.02 0.135 -0.017 0.115 -0.037 0.154 -0.022 0.138 -0.027 0.213 -0.015 0.095 -0.087 0.637" />
    <path class="write-flat-pen" fill="#000000" stroke-width="1.8" __comx="250.882" __comy="50.347" __timestamp="0x1774a2b0218" d="M242.296 59.345 l-0.44 -0.172 0.063 0.019 -0.014 -0.061 0.038 0.041 0.001 -0.111 0.011 -0.004 0.089 -0.261 0.065 -0.13 0.422 -0.614 0.162 -0.193 0.946 -0.899 0.247 -0.185 0.822 -0.517 0.778 -0.317 0.767 -0.138 0.485 0.002 0.477 0.107 0.483 0.217 0.492 0.344 0.5 0.483 1.108 1.415 2.314 3.529 0.788 1.051 2.296 2.578 1.08 1.087 0.633 0.428 0.821 0.281 0.332 0.041 0.344 -0.035 0.305 -0.077 0.338 -0.155 0.345 -0.232 0.312 -0.274 0.329 -0.348 0.282 -0.419 0.459 -0.701 -0.071 -0.07 -0.699 0.463 -0.397 0.263 -0.348 0.215 -0.296 0.129 -0.285 0.081 -0.222 0.032 -0.166 0.001 -0.162 -0.014 -0.1 -0.03 -0.559 -0.238 -0.412 -0.287 -0.978 -0.979 -2.24 -2.515 -0.739 -0.977 -2.33 -3.53 -1.185 -1.521 -0.623 -0.611 -0.659 -0.471 -0.698 -0.322 -0.731 -0.17 -0.737 -0.003 -1.008 0.19 -0.993 0.422 -0.942 0.626 -0.335 0.269 -1.003 1.037 -0.226 0.299 -0.457 0.769 -0.109 0.299 -0.085 0.477 0.02 0.226 0.104 0.32 0.117 0.176 0.263 0.191 0.107 0.037 0.497 0.109" />
    <path class="write-flat-pen" fill="#000000" stroke-width="1.8" __comx="273.685" __comy="50.347" __timestamp="0x1774a2b04d0" d="M268.576 47.782 l-0.047 -0.575 -0.134 -0.272 -0.501 -0.146 -0.288 0.283 -0.126 0.204 -0.07 0.163 -0.138 0.418 -0.073 0.3 -0.341 1.882 -0.065 0.488 -0.178 1.517 -0.044 0.519 -0.103 2.43 0.006 0.48 0.094 0.862 0.295 1.084 0.302 0.648 0.432 0.594 0.579 0.467 0.712 0.308 0.819 0.162 0.898 -0.081 0.868 -0.257 0.852 -0.416 0.843 -0.557 1.139 -0.992 0.673 -0.772 1.093 -1.563 0.703 -1.209 0.599 -1.264 0.405 -1.174 0.241 -1.073 0.168 -1.351 -0.018 -0.875 -0.341 -0.658 -0.55 -0.337 -0.633 -0.032 -0.589 0.266 -0.647 0.617 -0.584 0.908 -0.413 1.093 -0.266 1.3 -0.114 1.298 -0.008 1.276 0.097 0.911 0.287 1.251 0.371 1.06 0.469 0.89 0.419 0.534 0.866 0.658 0.272 0.119 0.224 0.073 0.266 0.066 0.305 0.012 0.262 -0.01 0.332 -0.075 0.282 -0.108 0.254 -0.133 0.269 -0.174 0.252 -0.201 0.229 -0.203 0.223 -0.22 0.223 -0.227 0.209 -0.218 0.211 -0.264 0.554 -0.708 -0.053 -0.063 -0.79 0.429 -0.291 0.16 -0.242 0.149 -0.259 0.135 -0.249 0.108 -0.244 0.081 -0.247 0.068 -0.233 0.046 -0.189 0.025 -0.167 0.009 -0.144 -0.01 -0.095 -0.022 -0.117 -0.031 -0.08 -0.037 -0.112 -0.052 -0.053 -0.033 -0.562 -0.457 -0.215 -0.276 -0.352 -0.663 -0.304 -0.868 -0.249 -1.078 -0.083 -0.734 -0.001 -1.126 0.096 -1.148 0.22 -1.093 0.312 -0.825 0.399 -0.614 0.326 -0.305 0.011 -0.002 -0.134 -0.005 -0.156 -0.094 -0.024 -0.044 0.009 0.403 -0.142 1.166 -0.201 0.917 -0.343 1.015 -0.528 1.135 -0.628 1.106 -0.994 1.457 -0.546 0.642 -0.978 0.875 -0.678 0.463 -0.655 0.336 -0.614 0.198 -0.554 0.063 -0.477 -0.084 -0.406 -0.166 -0.295 -0.229 -0.252 -0.335 -0.202 -0.421 -0.246 -0.868 -0.083 -0.692 -0.01 -0.383 0.05 -2.373 0.027 -0.475 0.133 -1.49 0.049 -0.451 0.279 -1.839 0.043 -0.247 0.076 -0.364 0.013 -0.079 -0.015 -0.029 -0.237 0.229 -0.461 -0.136 -0.125 -0.254 0.088 0.408" />
    <path class="write-flat-pen" fill="#000000" stroke-width="1.8" __comx="284.308" __comy="50.347" __timestamp="0x1774a2b05ef" d="M282.883 46.263 l0.216 0.4 -0.005 0.044 -0.006 0.042 0.027 0.157 0.069 0.237 0.049 0.235 0.332 1.69 0.07 0.514 0.316 2.508 0.187 2.536 0.029 0.623 0.046 1.176 0.021 0.533 0.19 3.236 0.151 0.245 0.217 0.217 0.522 0.138 0.237 -0.31 0.182 -0.463 -0.313 -0.339 -0.476 0.144 0.137 -0.219 0.423 0.101 0.133 0.104 0.07 0.065 -0.171 -2.992 -0.037 -0.53 -0.084 -1.179 -0.049 -0.638 -0.231 -2.573 -0.335 -2.541 -0.082 -0.561 -0.404 -1.744 -0.095 -0.306 -0.112 -0.246 -0.071 -0.159 -0.081 -0.142 -0.086 -0.086 -0.271 -0.369" />
    <path class="write-flat-pen" fill="#000000" stroke-width="1.8" __comx="285.233" __comy="50.347" __timestamp="0x1774a2b06ad" d="M285.993 42.715 l-0.094 -0.779 -0.007 -0.141 -0.052 -0.462 -0.036 0.115 -0.043 -0.044 -0.258 -0.829 -0.116 -0.047 -0.759 0.421 -0.109 0.121 -0.048 0.175 0.023 0.696 0.042 0.189 0.125 0.77" />
    <path class="write-flat-pen" fill="#000000" stroke-width="1.8" __comx="296.76" __comy="50.347" __timestamp="0x1774a2b08fc" d="M290.459 45.791 l-0.448 0.341 -0.105 0.24 0.001 0.257 0.05 0.157 0.142 0.226 0.119 0.119 0.223 0.17 0.18 0.102 0.595 0.226 0.28 0.068 1.3 0.193 0.281 0.028 2.397 0.199 0.206 0.024 0.67 0.124 0.371 0.157 0.131 0.117 0.131 0.238 0.05 0.225 -0.01 0.319 -0.101 0.419 -0.357 0.864 -0.588 1.051 -2.728 3.76 -0.226 0.287 -1.817 2.264 -0.117 0.176 -0.454 0.722 -0.165 0.56 0.17 0.617 0.45 0.426 0.823 0.269 1.01 0.075 3.664 -0.137 0.433 -0.021 0.883 -0.034 0.449 -0.016 0.451 -0.017 0.434 -0.019 0.384 -0.02 0.403 -0.026 0.387 -0.031 0.368 -0.038 0.368 -0.042 0.355 -0.045 0.324 -0.042 0.31 -0.038 0.297 -0.03 0.283 -0.054 0.895 -0.18 0.002 -0.088 -0.883 -0.23 -0.277 -0.07 -0.293 -0.052 -0.31 -0.059 -0.326 -0.061 -0.36 -0.06 -0.379 -0.051 -0.375 -0.037 -0.388 -0.03 -0.404 -0.025 -0.385 -0.019 -0.436 -0.016 -0.455 -0.012 -0.458 -0.008 -0.901 -0.003 -0.445 0.008 -3.585 0.096 -0.752 -0.055 -0.338 -0.104 0.089 0.089 0.046 0.184 -0.016 0.031 0.318 -0.544 0.066 -0.106 1.746 -2.245 0.241 -0.315 2.751 -3.869 0.66 -1.188 0.425 -1.033 0.156 -0.652 0.021 -0.622 -0.126 -0.573 -0.33 -0.607 -0.47 -0.42 -0.713 -0.296 -0.858 -0.15 -0.275 -0.029 -2.419 -0.15 -0.248 -0.017 -1.23 -0.129 -0.169 -0.029 -0.47 -0.129 -0.062 -0.02 -0.134 -0.061 -0.001 0.014 -0.03 0.008 0.03 0.102 -0.02 0.087 -0.082 0.179 0.233 -0.23" />
    <path class="write-flat-pen" fill="#000000" stroke-width="1.8" __comx="297.455" __comy="50.347" __timestamp="0x1774a2b0a04" d="M292.462 53.186 l-0.558 -0.642 0.036 0.03 0.047 0.041 -0.092 0.381 -0.09 0.102 0.146 -0.056 2.403 -0.183 0.562 -0.035 1.878 -0.219 0.684 -0.126 0.67 -0.133 0.696 -0.107 0.721 -0.171 0.682 -0.171 0.719 -0.198 0.693 -0.207 0.729 -0.205 0.7 -0.198 0.668 -0.238 0.696 -0.248 -0.018 -0.091 -0.738 0.031 -0.708 0.031 -0.717 0.077 -0.754 0.055 -0.724 0.059 -0.74 0.071 -0.701 0.08 -0.696 0.097 -0.692 0.057 -0.705 0.101 -0.646 0.092 -1.811 0.172 -0.536 0.027 -2.618 0.158 -0.673 0.244 -0.391 0.433 -0.127 0.521 0.365 0.614 0.088 0.079 0.559 0.581" />
    <path class="write-flat-pen" fill="#000000" stroke-width="1.8" __comx="327.78" __comy="50.347" __timestamp="0x1774a2b0dec" d="M323.357 41.608 l-0.449 -0.296 -0.168 -0.121 -0.146 -0.084 -0.178 -0.112 -0.316 -0.152 -0.197 -0.103 -0.319 -0.141 -0.178 -0.091 -0.25 -0.113 -0.135 -0.071 -0.336 -0.183 -0.041 -0.034 -0.342 -0.327 0.017 0.017 -0.023 -0.067 0.001 -0.099 0.057 -0.205 0.168 -0.309 0.326 -0.384 0.507 -0.426 0.677 -0.426 0.769 -0.36 1.424 -0.401 1.019 -0.142 1.64 -0.068 1.071 0.08 0.956 0.185 0.899 0.273 0.769 0.333 0.626 0.363 0.487 0.401 0.368 0.461 0.247 0.512 0.144 0.59 0.054 0.663 -0.093 0.76 -0.211 0.747 -0.304 0.703 -0.417 0.679 -0.797 0.981 -0.554 0.533 -0.87 0.65 -0.551 0.295 -0.563 0.205 -0.746 0.163 -0.68 0.063 0.115 0.025 0.077 0.094 0 0 -0.213 1.222 0.01 -0.007 0.336 -0.02 1.179 0.223 1.092 0.374 1.692 0.759 1.211 0.667 1.125 0.765 0.96 0.805 0.46 0.513 0.518 0.78 0.204 0.458 0.183 0.82 0.014 0.576 -0.112 0.571 -0.236 0.583 -0.368 0.555 -0.535 0.523 -0.697 0.453 -0.78 0.34 -0.947 0.211 -1.144 0.121 -1.227 -0.02 -1.357 -0.194 -1.388 -0.304 -1.969 -0.581 -3.317 -1.171 -0.238 -0.103 -0.254 -0.115 -0.248 -0.12 -0.234 -0.115 -0.217 -0.108 -0.177 -0.09 -0.172 -0.089 -0.159 -0.077 -0.158 -0.071 -0.148 -0.057 -0.107 -0.042 -0.178 -0.063 -1.01 -0.267 -0.069 0.079 0.389 0.969 0.084 0.169 0.082 0.125 0.126 0.158 0.134 0.152 0.157 0.15 0.184 0.154 0.206 0.151 0.241 0.157 0.25 0.151 0.277 0.157 0.287 0.148 0.317 0.152 3.425 1.232 2.073 0.608 1.508 0.329 1.525 0.215 1.436 0.02 1.344 -0.147 1.199 -0.276 1.051 -0.469 0.945 -0.625 0.773 -0.767 0.549 -0.846 0.348 -0.885 0.168 -0.9 -0.029 -0.912 -0.258 -1.13 -0.326 -0.727 -0.658 -0.989 -0.615 -0.686 -1.109 -0.931 -1.252 -0.856 -1.333 -0.741 -1.816 -0.823 -1.27 -0.445 -1.49 -0.294 -0.963 0.047 -0.373 0.231 -0.213 1.222 0 0 0.278 0.346 0.712 0.171 1.061 -0.113 0.947 -0.22 0.771 -0.292 0.752 -0.418 1.034 -0.795 0.686 -0.679 0.906 -1.151 0.514 -0.871 0.37 -0.905 0.252 -0.96 0.11 -1.027 -0.089 -0.93 -0.219 -0.851 -0.391 -0.793 -0.565 -0.706 -0.696 -0.575 -0.804 -0.468 -0.923 -0.403 -1.051 -0.324 -1.116 -0.22 -1.244 -0.095 -1.799 0.073 -1.191 0.166 -1.64 0.462 -0.963 0.456 -0.839 0.538 -0.674 0.583 -0.497 0.608 -0.309 0.61 -0.136 0.606 0.062 0.585 0.196 0.384 0.15 0.211 0.578 0.465 0.197 0.12 0.45 0.189 0.193 0.073 0.274 0.081 0.2 0.067 0.336 0.087 0.197 0.064 0.309 0.084 0.176 0.065 0.142 0.039 0.131 0.046 0.452 0.257" />
    <path class="write-flat-pen" fill="#000000" stroke-width="1.8" __comx="379.847" __comy="49.741" __timestamp="0x1774a2b46bb" d="M378.838 34.265 l0.021 -0.35 0.02 -0.007 0.017 0.078 -0.112 0.149 -0.136 0.069 -0.15 0.014 -0.103 -0.007 -0.061 -0.024 -0.003 0.039 0.034 0.101 0.036 0.119 0.066 0.181 0.066 0.231 0.107 0.319 0.085 0.351 0.131 0.455 0.093 0.477 0.133 0.573 0.126 0.625 0.091 0.711 0.142 0.796 0.201 1.694 0.105 0.888 0.173 5.096 0.002 1.049 -0.202 9.51 0.017 0.053 0.025 0.002 1.105 -0.545 0.135 0.107 0.01 0.172 -0.116 -0.113 -0.167 -0.256 -0.145 -0.322 -0.196 -0.438 -0.325 -0.709 -0.11 0.017 -0.091 0.775 -0.049 0.489 -0.006 0.409 0.01 0.352 0.009 0.306 0.13 0.379 0.183 0.134 1.105 -0.545 0.042 -0.11 0.016 -0.146 0.223 -9.507 -0.006 -1.097 -0.211 -5.19 -0.127 -0.956 -0.24 -1.739 -0.165 -0.804 -0.118 -0.73 -0.172 -0.698 -0.165 -0.57 -0.137 -0.515 -0.183 -0.484 -0.135 -0.382 -0.169 -0.349 -0.126 -0.264 -0.139 -0.215 -0.106 -0.155 -0.131 -0.142 -0.11 -0.106 -0.15 -0.104 -0.238 -0.071 -0.183 0.014 -0.187 0.086 -0.138 0.178 -0.015 0.208 0.02 0.093 0.021 0.35" />
    <path class="write-flat-pen" fill="#000000" stroke-width="1.8" __comx="389.642" __comy="49.741" __timestamp="0x1774a2b4956" d="M380.597 42.519 l-0.492 -0.273 -0.04 -0.024 -0.193 -0.106 -0.092 -0.048 -0.283 -0.171 -0.138 -0.09 -0.261 -0.166 -0.095 -0.06 -0.226 -0.158 -0.107 -0.083 -0.172 -0.154 -0.022 -0.032 -0.123 -0.18 -0.044 -0.089 -0.042 -0.104 -0.036 -0.116 -0.023 -0.114 -0.012 -0.131 0.047 -0.488 0.06 -0.245 0.246 -0.636 0.688 -1.14 0.635 -0.83 0.791 -0.846 0.937 -0.838 1.031 -0.788 1.105 -0.718 1.197 -0.608 1.207 -0.434 1.154 -0.234 1.137 -0.089 1.117 0.042 1.048 0.243 0.915 0.411 0.376 0.238 0.781 0.661 0.633 0.76 0.488 0.873 0.16 0.418 0.207 1.002 0.097 1.112 -0.079 1.14 -0.273 1.066 -0.467 1.101 -0.663 1.135 -0.788 1.062 -0.9 1.006 -1.051 0.937 -1.133 0.819 -1.224 0.724 -1.276 0.631 -1.773 0.699 -2.811 0.726 -0.105 0.016 -0.454 0.017 0 0 0.074 0.01 0 0 -0.139 1.65 0.696 0.01 1.663 0.21 1.193 0.272 1.244 0.389 1.22 0.518 0.717 0.41 1.085 0.819 1.037 0.996 0.59 0.713 2.088 3.044 0.972 1.191 0.612 0.486 0.636 0.318 0.753 0.212 0.881 0.103 1.247 -0.199 0.415 -0.13 0.407 -0.158 0.386 -0.166 0.408 -0.198 0.402 -0.219 0.374 -0.228 0.343 -0.234 0.326 -0.241 0.295 -0.242 0.277 -0.244 0.263 -0.24 0.23 -0.258 0.599 -0.706 -0.064 -0.099 -0.889 0.26 -0.322 0.1 -0.317 0.12 -0.331 0.117 -0.341 0.122 -0.366 0.14 -0.364 0.15 -0.369 0.153 -0.38 0.153 -0.372 0.141 -0.348 0.122 -0.348 0.114 -0.264 0.07 -0.917 0.122 -0.528 -0.069 -0.478 -0.137 -0.341 -0.17 -0.334 -0.264 -0.813 -0.997 -2.09 -3.048 -0.698 -0.847 -1.179 -1.132 -1.25 -0.942 -0.895 -0.511 -1.386 -0.589 -1.385 -0.434 -1.337 -0.307 -1.848 -0.235 -0.799 0.005 -0.139 1.65 0 0 0.118 0.018 0 0 0.737 -0.064 0.256 -0.049 2.956 -0.796 1.921 -0.762 1.389 -0.688 1.337 -0.795 1.255 -0.912 1.174 -1.054 1.005 -1.128 0.881 -1.191 0.752 -1.301 0.546 -1.304 0.331 -1.318 0.093 -1.401 -0.118 -1.322 -0.25 -1.212 -0.244 -0.639 -0.608 -1.096 -0.805 -0.981 -0.964 -0.824 -0.561 -0.358 -1.156 -0.525 -1.345 -0.315 -1.359 -0.051 -1.323 0.104 -1.361 0.276 -1.407 0.509 -1.358 0.694 -1.223 0.8 -1.123 0.866 -1.028 0.929 -0.888 0.955 -0.732 0.964 -0.792 1.344 -0.314 0.876 -0.093 0.468 -0.023 0.778 0.08 0.376 0.089 0.259 0.115 0.241 0.129 0.211 0.147 0.193 0.265 0.269 0.142 0.115 0.28 0.177 0.173 0.096 0.291 0.144 0.123 0.054 0.28 0.123 0.172 0.076 0.369 0.139 0.13 0.037 0.187 0.046 0.015 0.001 0.51 0.21" />
    <path class="write-flat-pen" fill="#000000" stroke-width="1.8" __comx="406.195" __comy="49.741" __timestamp="0x1774a2b4b4e" d="M399.507 54.473 l0.162 0.415 0.07 0.097 0.038 0.05 0.119 0.114 0.079 0.064 0.073 0.054 0.125 0.082 0.167 0.085 0.15 0.064 0.16 0.058 0.183 0.053 0.208 0.048 0.196 0.031 0.254 0.021 0.31 -0.012 0.288 -0.019 0.343 -0.064 0.342 -0.093 0.308 -0.112 0.347 -0.149 0.681 -0.353 0.371 -0.239 1.123 -0.946 0.292 -0.305 0.662 -0.861 0.365 -0.838 0.191 -0.752 0.037 -0.79 -0.243 -0.776 -0.541 -0.65 -0.596 -0.399 -0.983 -0.302 -0.759 -0.025 -0.751 0.168 -0.724 0.352 -0.668 0.556 -0.592 0.741 -0.503 0.923 -0.358 1.067 -0.222 1.134 -0.131 1.678 0.085 1.136 0.253 1.038 0.403 0.998 0.519 0.923 0.651 0.799 0.815 0.631 0.53 0.277 0.975 0.278 1.088 0.111 1.217 -0.181 1.189 -0.395 1.115 -0.574 0.547 -0.353 0.526 -0.382 0.495 -0.402 0.449 -0.398 0.411 -0.418 0.364 -0.444 0.313 -0.48 0.259 -0.496 0.227 -0.495 0.147 -0.496 0.226 -0.815 -0.103 -0.06 -0.599 0.597 -0.347 0.351 -0.343 0.358 -0.362 0.338 -0.369 0.312 -0.38 0.297 -0.408 0.304 -0.441 0.316 -0.477 0.334 -0.483 0.317 -0.46 0.276 -0.947 0.466 -0.938 0.307 -0.87 0.132 -0.735 -0.07 -0.672 -0.186 -0.251 -0.129 -0.553 -0.421 -0.447 -0.539 -0.404 -0.706 -0.325 -0.788 -0.197 -0.79 -0.067 -0.877 0.115 -1.46 0.185 -0.938 0.279 -0.833 0.366 -0.673 0.4 -0.501 0.391 -0.326 0.377 -0.184 0.365 -0.082 0.337 0.011 0.55 0.169 0.205 0.137 0.189 0.225 0.064 0.199 -0.013 0.343 -0.115 0.47 -0.229 0.542 -0.484 0.646 -0.174 0.189 -0.966 0.855 -0.229 0.16 -0.563 0.328 -0.257 0.131 -0.211 0.096 -0.228 0.085 -0.209 0.063 -0.197 0.038 -0.216 0.04 -0.136 0.014 -0.123 0.006 -0.155 -0.002 -0.139 -0.004 -0.122 -0.006 -0.116 -0.006 -0.126 -0.007 -0.099 -0.006 -0.056 -0.002 -0.051 0.001 -0.056 0.013 0.006 0.021 0.006 0.04 -0.153 -0.25" />
    <path class="write-flat-pen" fill="#000000" stroke-width="1.8" __comx="415.636" __comy="49.741" __timestamp="0x1774a2b4d0f" d="M410.931 50.455 l-0.104 -0.288 0.029 -0.038 0.025 -0.05 0.016 0.035 0.031 0.054 -0.009 0.103 -0.058 0.17 -0.124 0.106 -0.132 0.048 -0.053 0.028 -0.024 0.017 -0.005 0.026 0.032 0.045 0.055 0.062 0.076 0.086 0.1 0.113 0.126 0.148 0.153 0.186 0.19 0.241 0.196 0.266 0.448 0.668 0.233 0.368 0.954 1.615 0.22 0.421 0.889 2.07 0.151 0.353 0.509 1.116 0.397 0.615 0.515 0.434 0.654 0.24 0.982 -0.253 0.424 -0.368 0.514 -0.743 0.44 -1.023 0.383 -1.225 1.568 -7.078 0.105 -0.455 0.162 -0.79 0.059 -0.324 0.089 -0.566 0.031 -0.209 0.023 -0.165 0.011 -0.103 0.004 -0.076 -0.001 -0.046 -0.004 -0.012 -0.504 -1.028 -0.122 -0.026 -0.876 0.737 -0.009 0.013 -0.017 0.032 -0.029 0.074 -0.034 0.12 -0.044 0.176 -0.048 0.218 -0.113 0.548 -0.064 0.292 -0.176 0.753 -0.113 0.45 -1.574 7.019 -0.332 1.075 -0.333 0.791 -0.287 0.432 0.041 -0.031 -0.086 0.035 0.112 0.046 -0.106 -0.08 -0.204 -0.302 -0.466 -0.983 -0.149 -0.334 -0.942 -2.113 -0.273 -0.509 -1.02 -1.662 -0.276 -0.406 -0.519 -0.703 -0.263 -0.309 -0.25 -0.265 -0.216 -0.207 -0.198 -0.169 -0.178 -0.132 -0.169 -0.108 -0.155 -0.079 -0.154 -0.063 -0.181 -0.05 -0.142 -0.01 -0.201 0.009 -0.175 0.058 -0.209 0.151 -0.088 0.225 -0.015 0.133 0.033 0.127 0.021 0.058 0.054 0.05 0.053 0.045 0.13 0.309" />
    <path class="write-flat-pen" fill="#000000" stroke-width="1.8" __comx="426.391" __comy="49.741" __timestamp="0x1774a2b4e20" d="M424.791 50.712 l0.117 0.508 0.019 0.136 0.01 0.128 0.06 0.23 0.074 0.243 0.104 0.294 0.115 0.318 0.134 0.338 0.271 0.678 0.126 0.324 0.92 2.975 0.103 0.115 0.074 0.04 0.625 -0.759 -0.022 0.014 -0.534 -0.057 -0.203 0.929 0.509 0.171 0.014 0.022 0.625 -0.759 0.033 -0.055 0.026 -0.087 -0.9 -3.003 -0.168 -0.387 -0.311 -0.675 -0.154 -0.321 -0.142 -0.302 -0.141 -0.277 -0.118 -0.221 -0.113 -0.179 -0.08 -0.125 -0.081 -0.075 -0.141 -0.418" />
    <path class="write-flat-pen" fill="#000000" stroke-width="1.8" __comx="427.023" __comy="49.741" __timestamp="0x1774a2b4ec7" d="M427.101 43.032 l0.349 -0.618 -0.005 0.046 -0.211 0.215 -0.271 -0.078 -0.1 -0.128 0.031 0.001 0.05 0.021 0.075 0.054 0.095 0.099 0.116 0.127 0.58 0.624 0.109 -0.036 0.1 -0.846 0.01 -0.196 -0.021 -0.2 -0.035 -0.175 -0.049 -0.147 -0.074 -0.144 -0.201 -0.235 -0.78 -0.203 -0.499 0.472 -0.063 0.181 -0.291 0.591" />
    <path class="write-flat-pen" fill="#000000" stroke-width="1.8" __comx="436.768" __comy="49.741" __timestamp="0x1774a2b50b9" d="M430.948 52.724 l0.023 -0.41 0.024 -0.048 0.031 -0.084 0.006 0.016 0.026 0.023 -0.068 0.146 -0.073 0.098 -0.109 0.046 0.005 0.026 0.019 0.016 0.063 0.028 0.076 0.032 0.108 0.042 0.121 0.047 0.145 0.053 0.152 0.053 0.182 0.059 0.211 0.057 0.429 0.095 0.241 0.04 0.454 0.057 0.278 0.013 0.536 -0.037 0.274 -0.036 0.546 -0.148 0.275 -0.1 0.759 -0.368 0.293 -0.19 0.814 -0.69 0.206 -0.256 0.411 -0.653 0.26 -0.905 -0.031 -0.644 -0.213 -0.567 -0.456 -0.559 -0.706 -0.43 -0.794 -0.241 -0.856 -0.096 -0.878 0.171 -0.5 0.222 -0.758 0.563 -0.648 0.79 -0.519 0.973 -0.351 1.121 -0.231 1.205 -0.077 1.162 0.074 1.095 0.208 0.986 0.324 0.896 0.458 0.811 0.605 0.701 0.743 0.547 0.856 0.337 1.017 0.164 1.225 -0.149 1.177 -0.412 1.746 -0.967 0.585 -0.429 0.536 -0.474 0.48 -0.483 0.441 -0.495 0.408 -0.518 0.379 -0.538 0.34 -0.542 0.308 -0.533 0.309 -0.531 0.233 -0.512 0.323 -0.729 -0.075 -0.054 -0.589 0.537 -0.405 0.373 -0.429 0.412 -0.443 0.394 -0.466 0.391 -0.481 0.408 -0.468 0.411 -0.462 0.401 -0.47 0.397 -0.478 0.377 -0.464 0.316 -1.549 0.835 -0.875 0.309 -0.809 0.104 -0.605 -0.091 -0.485 -0.185 -0.417 -0.303 -0.375 -0.433 -0.309 -0.545 -0.237 -0.655 -0.158 -0.757 -0.056 -0.867 0.064 -0.949 0.194 -1.011 0.276 -0.881 0.368 -0.69 0.414 -0.503 0.444 -0.328 0.157 -0.069 0.44 -0.083 0.448 0.052 0.441 0.136 0.277 0.171 0.099 0.124 0.023 0.062 0.006 0.104 -0.114 0.414 -0.228 0.376 -0.047 0.063 -0.6 0.54 -0.121 0.086 -0.587 0.316 -0.136 0.058 -0.377 0.126 -0.126 0.026 -0.4 0.055 -0.137 0.005 -0.381 -0.017 -0.185 -0.013 -0.375 -0.042 -0.163 -0.022 -0.16 -0.027 -0.154 -0.026 -0.149 -0.024 -0.142 -0.022 -0.136 -0.016 -0.118 -0.012 -0.136 -0.007 -0.122 0.001 -0.207 0.026 -0.229 0.077 -0.227 0.218 -0.092 0.191 -0.007 0.219 0.006 0.059 0.031 0.084 0.024 0.048 0.023 0.41" />
    <path class="write-flat-pen" fill="#000000" stroke-width="1.8" __comx="454.345" __comy="49.741" __timestamp="0x1774a2b5343" d="M446.433 46.558 l-0.457 0.079 -0.11 0.045 -0.094 0.061 -0.085 0.06 -0.04 0.035 -0.095 0.104 -0.075 0.106 -0.067 0.115 -0.067 0.148 -0.071 0.193 -0.072 0.248 -0.069 0.304 -0.059 0.318 -0.052 0.372 -0.047 0.384 -0.095 0.824 -0.051 0.477 -0.149 1.555 -0.038 0.541 -0.035 1.656 0.056 0.564 0.178 1.371 0.08 0.452 0.403 1.196 0.335 0.675 0.434 0.583 0.589 0.44 0.753 0.303 0.861 0.1 0.873 -0.134 0.905 -0.361 0.853 -0.532 0.768 -0.633 0.682 -0.727 0.85 -1.126 0.812 -1.314 0.479 -0.967 0.183 -0.533 -0.412 0.445 -0.714 -0.338 0.919 2.116 0.623 1.18 0.588 0.861 0.715 0.728 1.152 0.574 0.59 0.064 1.309 -0.25 0.55 -0.242 0.906 -0.587 0.475 -0.442 0.783 -1.011 0.669 -1.294 0.511 -1.461 0.362 -1.542 0.219 -1.581 0.141 -2.296 -0.016 -2.039 -0.15 -1.242 -0.361 -1.548 -0.52 -1.431 -0.173 -0.331 -0.338 -0.522 -0.229 -0.261 -0.213 -0.185 -0.276 -0.204 -0.279 -0.147 -0.291 -0.102 -0.291 -0.059 -0.331 -0.016 -0.346 0.036 -0.397 0.095 -0.373 0.176 -0.779 0.476 0.006 0.052 0.862 0.301 0.324 0.101 0.253 0.118 0.196 0.103 0.163 0.096 0.127 0.077 0.109 0.071 0.073 0.058 0.122 0.11 0.077 0.077 0.066 0.084 0.22 0.355 0.08 0.157 0.439 1.224 0.313 1.35 0.125 1.045 0.014 1.877 -0.131 2.167 -0.196 1.431 -0.319 1.369 -0.435 1.254 -0.535 1.04 -0.592 0.771 -0.255 0.24 -0.655 0.431 -0.238 0.108 -0.853 0.175 -0.021 0.001 -0.62 -0.295 -0.41 -0.407 -0.454 -0.649 -0.552 -1.027 -1.137 -2.652 -1.015 -0.48 -0.685 0.745 -0.268 0.762 -0.397 0.796 -0.729 1.178 -0.744 0.991 -0.541 0.582 -0.593 0.494 -0.625 0.395 -0.581 0.237 -0.455 0.076 -0.409 -0.041 -0.34 -0.129 -0.22 -0.158 -0.203 -0.264 -0.225 -0.438 -0.344 -0.968 -0.058 -0.294 -0.197 -1.308 -0.054 -0.442 0.002 -1.521 0.025 -0.485 0.112 -1.534 0.036 -0.47 0.061 -0.826 0.025 -0.381 0.022 -0.347 0.021 -0.289 0.019 -0.28 0.012 -0.22 0.005 -0.165 -0.004 -0.107 -0.008 -0.076 -0.016 -0.056 -0.031 -0.029 -0.021 0.006 -0.038 -0.01 -0.075 0.044 -0.094 0.036 0.325 -0.077" />
  </g>
</svg>
