<svg class="write-page" color-interpolation="linearRGB" width="1010px" height="508.862px" xmlns="http://www.w3.org/2000/svg" xmlns:xlink="http://www.w3.org/1999/xlink">
  <g class="write-content write-v3" width="1010" height="508.862" xruling="30" yruling="30" marginLeft="30" papercolor="#1B1C1C" rulecolor="#0300F9FF">
    <g class="ruleline write-std-ruling write-scale-down" fill="none" stroke="#00F9FF" stroke-opacity="0.012" stroke-width="1" shape-rendering="crispEdges" vector-effect="non-scaling-stroke">
      <rect class="pagerect" fill="#1B1C1C" stroke="none" x="0" y="0" width="1010" height="508.862" />
      <path class="yrule_1" d="M0 30 l1010 0" />
      <path d="M0 60 l1010 0" />
      <path d="M0 90 l1010 0" />
      <path d="M0 120 l1010 0" />
      <path d="M0 150 l1010 0" />
      <path d="M0 180 l1010 0" />
      <path d="M0 210 l1010 0" />
      <path d="M0 240 l1010 0" />
      <path d="M0 270 l1010 0" />
      <path d="M0 300 l1010 0" />
      <path d="M0 330 l1010 0" />
      <path d="M0 360 l1010 0" />
      <path d="M0 390 l1010 0" />
      <path d="M0 420 l1010 0" />
      <path d="M0 450 l1010 0" />
      <path d="M0 480 l1010 0" />
      <path class="xrule_1" d="M30 0 l0 508.862" />
      <path d="M60 0 l0 508.862" />
      <path d="M90 0 l0 508.862" />
      <path d="M120 0 l0 508.862" />
      <path d="M150 0 l0 508.862" />
      <path d="M180 0 l0 508.862" />
      <path d="M210 0 l0 508.862" />
      <path d="M240 0 l0 508.862" />
      <path d="M270 0 l0 508.862" />
      <path d="M300 0 l0 508.862" />
      <path d="M330 0 l0 508.862" />
      <path d="M360 0 l0 508.862" />
      <path d="M390 0 l0 508.862" />
      <path d="M420 0 l0 508.862" />
      <path d="M450 0 l0 508.862" />
      <path d="M480 0 l0 508.862" />
      <path d="M510 0 l0 508.862" />
      <path d="M540 0 l0 508.862" />
      <path d="M570 0 l0 508.862" />
      <path d="M600 0 l0 508.862" />
      <path d="M630 0 l0 508.862" />
      <path d="M660 0 l0 508.862" />
      <path d="M690 0 l0 508.862" />
      <path d="M720 0 l0 508.862" />
      <path d="M750 0 l0 508.862" />
      <path d="M780 0 l0 508.862" />
      <path d="M810 0 l0 508.862" />
      <path d="M840 0 l0 508.862" />
      <path d="M870 0 l0 508.862" />
      <path d="M900 0 l0 508.862" />
      <path d="M930 0 l0 508.862" />
      <path d="M960 0 l0 508.862" />
      <path d="M990 0 l0 508.862" />
      <path class="leftmargin" stroke="#FF0000" d="M30 0 l0 508.862" />
    </g>
    <path class="write-flat-pen" fill="#FFFFFF" stroke-width="1.6" __comx="38.434" __comy="44.509" __timestamp="0x177fbd9df37" d="M37.724 34.298 l-0.182 0.291 -0.016 0.117 -0.033 0.287 0.013 0.111 0.06 0.441 0.036 0.164 0.18 0.866 0.037 0.244 0.353 4.352 0.016 0.74 -0.031 3.369 -0.552 8.591 1.051 -0.08 -0.044 -0.017 -0.063 -0.103 -0.094 -0.251 -0.252 -0.789 -0.15 -0.002 -0.274 0.782 -0.101 0.274 -0.048 0.223 -0.012 0.12 1.051 -0.08 0.683 -8.62 0.022 -3.426 -0.021 -0.802 -0.5 -4.439 -0.082 -0.328 -0.307 -0.883 -0.065 -0.152 -0.167 -0.39 -0.031 -0.053 -0.091 -0.186 -0.016 0.052 0.069 -0.199" />
    <path class="write-flat-pen" fill="#FFFFFF" stroke-width="1.6" __comx="43.455" __comy="44.509" __timestamp="0x177fbd9e061" d="M36.028 35.048 l-0.27 -0.391 -0.133 0.31 0.609 -0.132 7.477 -0.016 5.675 -0.681 0.504 -0.108 0.443 -0.093 0.422 -0.099 0.385 -0.132 1.362 -0.435 -0.031 -0.263 -1.425 -0.104 -0.409 -0.037 -0.446 0.012 -0.473 0.038 -0.491 0.059 -5.588 0.54 -7.577 0.058 -1.243 0.379 -0.406 0.817 0.766 0.94" />
    <path class="write-flat-pen" fill="#FFFFFF" stroke-width="1.6" __comx="46.933" __comy="44.509" __timestamp="0x177fbd9e1bb" d="M38.992 44.073 l0.643 -0.001 0.12 0.013 1.7 0.151 0.397 0.036 3.073 0.158 7.775 -0.748 0.3 -0.038 0.285 -0.049 0.262 -0.068 1.397 -0.344 -0.004 -0.152 -1.414 -0.264 -0.268 -0.053 -0.294 -0.029 -0.329 -0.012 -7.737 0.612 -2.987 -0.075 -0.392 -0.02 -1.74 -0.018 -0.184 0.012 -0.674 0.121" />
    <path class="write-flat-pen" fill="#FFFFFF" stroke-width="1.6" __comx="43.491" __comy="52.154" __timestamp="0x177fbd9e8c4" d="M38.389 52.283 l-0.538 -0.155 -0.089 -0.005 -0.395 0.095 -0.116 0.314 0.223 0.476 0.222 0.173 2 0.502 0.461 0.034 2.016 -0.065 4.535 -0.745 0.611 -0.127 0.566 -0.112 0.573 -0.169 1.272 -0.363 -0.026 -0.177 -1.323 0.015 -0.593 0.001 -0.584 0.041 -0.625 0.08 -4.492 0.631 -1.916 0.069 -0.348 -0.02 -1.809 -0.322 0.017 0.028 -0.094 -0.036 -0.086 0.217 0.002 -0.069 -0.041 -0.005 0.524 0.014" />
    <path class="write-flat-pen" fill="#FFFFFF" stroke-width="1.6" __comx="62.672" __comy="52.154" __timestamp="0x177fbd9ebb1" d="M58.205 46.095 l-0.075 0.466 0.045 0.179 0.268 0.694 0.147 0.276 0.87 1.276 0.314 0.39 2.813 3.145 2.119 1.94 1.028 0.448 1.425 0.005 0.056 -0.203 -1.138 -0.696 -0.757 -0.446 -1.978 -1.804 -2.84 -3.03 -0.301 -0.336 -0.926 -1.147 -0.138 -0.197 -0.356 -0.572 -0.028 -0.026 -0.062 -0.355" />
    <path class="write-flat-pen" fill="#FFFFFF" stroke-width="1.6" __comx="62.216" __comy="52.154" __timestamp="0x177fbd9ec99" d="M58.475 55.078 l0.308 -0.425 0.108 -0.079 2.522 -2.194 4.072 -4.326 0.302 -0.432 0.789 -1.094 -0.16 -0.159 -1.087 0.799 -0.433 0.309 -4.17 4.191 -2.42 2.265 -0.192 0.198 -0.258 0.609" />
    <path class="write-flat-pen" fill="#FFFFFF" stroke-width="1.6" __comx="56.367" __comy="52.154" __timestamp="0x177fbd9ee5d" d="M37.721 59.848 l-0.755 0.016 -0.095 0.023 -0.25 0.14 0.049 0.553 0.109 0.085 0.973 0.229 0.509 0.054 5.631 0.143 1.096 -0.012 19.523 -0.109 6.982 0.106 0.895 0.025 0.871 0.042 0.814 0.004 0.819 -0.018 1.201 -0.014 0.019 -0.162 -1.167 -0.285 -0.807 -0.204 -0.814 -0.119 -0.874 -0.111 -0.92 -0.076 -7.009 -0.243 -19.544 0.124 -1.086 0.024 -5.591 -0.006 -0.447 -0.016 -0.82 -0.067 -0.006 0.014 0.049 0.553 0.066 -0.139 -0.076 0.018 0.701 -0.15" />
    <path class="write-flat-pen" fill="#FFFFFF" stroke-width="1.6" __comx="82.549" __comy="52.154" __timestamp="0x177fbd9f028" d="M83.11 57.927 l-0.367 -1.333 -0.423 -1.066 -0.156 0.017 -0.176 1.177 0.26 1.403" />
    <path class="write-flat-pen" fill="#FFFFFF" stroke-width="1.6" __comx="80.774" __comy="52.154" __timestamp="0x177fbd9f0d9" d="M81.192 43.213 l-0.088 -2.101 -0.101 -1.24 -0.133 -0.02 -0.466 1.211 -0.048 2.158" />
    <path class="write-flat-pen" fill="#FFFFFF" stroke-width="1.6" __comx="118.223" __comy="49.5" __timestamp="0x177fbda4084" d="M114.796 60.242 l0.024 -0.165 0.01 -0.018 0.04 -0.217 0.008 -0.05 0.049 -0.372 0.003 -0.023 0.049 -0.447 0.002 -0.04 0.006 -0.692 -0.027 -0.232 -0.321 -1.544 -0.082 -0.308 -1.011 -4.407 -0.076 -0.443 -0.998 -6.296 -0.282 -3.223 0.033 -2.429 0.255 -1.584 0.586 -1.694 0.647 -1.033 0.839 -0.801 0.786 -0.382 1.466 -0.269 1.513 0.103 1.61 0.429 1.787 0.794 1.299 0.889 1.168 1.202 0.078 0.109 0.2 0.342 0.081 0.143 0.107 0.173 0.718 1.261 0.201 -0.059 -0.072 -1.449 -0.011 -0.23 -0.05 -0.228 -0.154 -0.454 -0.135 -0.286 -1.268 -1.502 -1.508 -1.065 -1.991 -0.901 -1.837 -0.497 -1.811 -0.124 -1.811 0.331 -1.141 0.552 -1.111 1.065 -0.814 1.307 -0.665 1.951 -0.279 1.795 -0.02 2.593 0.315 3.333 1.072 6.34 0.091 0.489 1.157 4.437 0.101 0.307 0.44 1.456 0.041 0.155 0.119 0.629 0.005 0.021 0.083 0.438 0.006 0.028 0.089 0.371 0.015 0.056 0.078 0.216 0.017 0.043 0.11 0.154" />
    <path class="write-flat-pen" fill="#FFFFFF" stroke-width="1.6" __comx="114.997" __comy="49.5" __timestamp="0x177fbda41f3" d="M106.515 49.343 l0.28 -0.154 0.022 0.008 1.293 -0.179 0.426 -0.046 12.696 -1.945 0.441 -0.054 0.444 -0.06 0.421 -0.078 1.314 -0.236 -0.003 -0.103 -1.327 -0.146 -0.429 -0.049 -0.457 -0.019 -0.482 0.003 -12.737 1.821 -0.439 0.065 -1.317 0.309 -0.19 0.062 -0.329 0.342" />
    <path class="write-flat-pen" fill="#FFFFFF" stroke-width="1.6" __comx="134.894" __comy="49.5" __timestamp="0x177fbda4415" d="M134.937 44.893 l-0.266 -0.497 -0.159 -0.116 -0.44 -0.105 -0.255 0.064 -0.708 0.486 -0.202 0.245 -0.757 1.32 -0.563 1.911 -0.274 2.244 0.044 1.881 0.422 1.943 0.701 1.733 0.943 1.363 1.099 0.897 1.45 0.501 0.365 0.03 0.582 -0.045 0.273 -0.087 1.283 -0.423 -0.016 -0.144 -1.343 -0.138 -0.23 -0.033 -0.47 -0.074 -0.192 -0.048 -1.129 -0.507 -0.821 -0.705 -0.781 -1.134 -0.622 -1.526 -0.389 -1.742 -0.05 -1.692 0.242 -2.076 0.48 -1.72 0.6 -1.181 0.064 -0.101 0.409 -0.407 -0.072 0.007 0.112 -0.046 -0.088 -0.069 0.296 0.311" />
    <path class="write-flat-pen" fill="#FFFFFF" stroke-width="1.6" __comx="146.079" __comy="49.5" __timestamp="0x177fbda4560" d="M141.334 46.252 l-0.234 0.018 -0.291 0.228 -0.173 -0.263 0.363 0.715 0.152 0.252 2.294 3.261 2.198 2.541 1.672 1.483 1.278 0.747 1.496 0.327 0.23 -0.046 0.103 -0.048 1.1 -0.577 -0.019 -0.112 -1.229 -0.175 -0.072 -0.018 -0.022 -0.026 -1.145 -0.375 -1.04 -0.626 -1.535 -1.36 -2.129 -2.437 -2.35 -3.131 -0.15 -0.208 -0.464 -0.628 -0.243 -0.381 -0.333 0.249 -0.13 0.693" />
    <path class="write-flat-pen" fill="#FFFFFF" stroke-width="1.6" __comx="145.869" __comy="49.5" __timestamp="0x177fbda4657" d="M143.971 55.369 l-0.335 -0.718 0.016 0.049 0.386 -1.226 0.107 -0.195 3.98 -6.62 0.165 -0.363 0.246 -0.652 0.095 -0.297 0.069 -0.282 0.333 -1.346 -0.071 -0.033 -0.799 1.133 -0.165 0.231 -0.166 0.25 -0.361 0.576 -0.187 0.303 -4.082 6.572 -0.165 0.343 -0.328 1.537 0.045 0.309 0.551 0.814" />
    <path class="write-flat-pen" fill="#FFFFFF" stroke-width="1.6" __comx="153.873" __comy="49.5" __timestamp="0x177fbda47aa" d="M150.773 44.291 l0.731 0.414 0.095 0.068 1.449 1.178 0.195 0.201 1.1 1.366 0.724 1.316 0.492 1.474 0.247 1.911 -0.093 1.775 -0.648 2.077 -0.054 0.117 -0.237 0.41 -0.058 0.121 -0.669 1.252 0.099 0.088 1.168 -0.807 0.137 -0.098 0.381 -0.408 0.162 -0.237 0.863 -2.29 0.115 -2.044 -0.284 -2.13 -0.576 -1.677 -0.849 -1.485 -1.247 -1.449 -0.293 -0.273 -1.629 -1.139 -0.186 -0.094 -0.819 -0.312" />
    <path class="write-flat-pen" fill="#FFFFFF" stroke-width="1.6" __comx="167.125" __comy="49.5" __timestamp="0x177fbda4949" d="M163.368 48.043 l-0.415 0.42 0.478 0.004 0.171 -0.025 2.332 -0.283 3.318 -0.186 0.226 -0.011 0.251 -0.015 0.246 -0.025 1.406 -0.133 0.007 -0.092 -1.368 -0.35 -0.246 -0.064 -0.261 -0.043 -0.259 -0.029 -3.397 0.055 -2.392 0.369 -0.168 0.043 -0.435 0.13 0.137 0.789" />
    <path class="write-flat-pen" fill="#FFFFFF" stroke-width="1.6" __comx="168.838" __comy="49.5" __timestamp="0x177fbda4a5e" d="M165.832 50.584 l-0.712 0.646 0.57 0.723 1.333 0.375 2.955 0.088 0.411 -0.023 0.405 -0.034 0.407 -0.059 1.356 -0.186 0.002 -0.109 -1.347 -0.24 -0.405 -0.075 -0.406 -0.048 -0.397 -0.033 -2.839 -0.197 -0.99 -0.229 0.041 0.101 0.132 -0.169" />
    <path class="write-flat-pen" fill="#FFFFFF" stroke-width="1.6" __comx="185.816" __comy="47.853" __timestamp="0x177fbdd3765" d="M186.623 36.489 l0.173 -0.388 -0.096 -0.332 -0.41 0.016 -0.149 0.1 -0.257 0.221 -0.129 0.144 -0.581 0.847 -0.18 0.35 -1.084 2.786 -0.655 2.731 -0.503 3.836 -0.132 3.606 0.263 2.548 0.555 2.261 0.85 2.007 1.625 2.256 0.359 0.336 0.676 0.499 0.349 0.199 0.347 0.136 1.282 0.51 0.086 -0.139 -1.03 -0.918 -0.257 -0.237 -0.256 -0.227 -0.546 -0.527 -0.237 -0.269 -1.406 -2.158 -0.748 -1.827 -0.513 -2.098 -0.248 -2.389 0.126 -3.471 0.493 -3.724 0.605 -2.611 0.959 -2.708 0.118 -0.276 0.426 -0.837 0.06 -0.115 0.109 -0.226 -0.063 0.026 -0.272 -0.013 -0.083 -0.295 -0.004 0.269" />
    <path class="write-flat-pen" fill="#FFFFFF" stroke-width="1.6" __comx="198.051" __comy="47.853" __timestamp="0x177fbdd38ea" d="M192.62 43.221 l-0.482 0.084 -0.12 0.201 -0.085 0.378 0.035 0.265 0.294 0.913 0.163 0.34 2.299 3.363 0.347 0.417 6.523 6.958 0.241 0.193 0.623 0.432 0.166 0.09 0.182 0.078 1.309 0.568 0.056 -0.081 -0.996 -1.022 -0.134 -0.14 -0.114 -0.109 -0.513 -0.498 -0.173 -0.173 -6.373 -6.998 -0.307 -0.361 -2.349 -3.198 -0.135 -0.23 -0.367 -0.764 -0.039 -0.085 -0.036 -0.155 -0.076 0.116 0.204 -0.136" />
    <path class="write-flat-pen" fill="#FFFFFF" stroke-width="1.6" __comx="198.895" __comy="47.853" __timestamp="0x177fbdd3a22" d="M194.442 56.882 l-0.08 -0.842 0.017 -0.028 0.669 -1.314 0.164 -0.231 1.552 -1.846 3.891 -3.939 1.703 -2.114 0.333 -0.467 0.586 -0.884 0.254 -0.438 0.2 -0.425 0.582 -1.213 -0.115 -0.08 -0.931 0.971 -0.324 0.331 -0.326 0.368 -0.678 0.795 -0.352 0.418 -1.756 1.984 -3.901 3.945 -1.56 1.978 -0.22 0.353 -0.617 1.527 -0.053 0.289 0.237 0.988" />
    <path class="write-flat-pen" fill="#FFFFFF" stroke-width="1.6" __comx="211.922" __comy="47.853" __timestamp="0x177fbdd3b97" d="M207.103 49.917 l1.887 0.213 0.374 -0.014 5.415 -1.341 0.312 -0.083 0.325 -0.098 1.326 -0.387 -0.014 -0.109 -1.38 -0.051 -0.35 -0.014 -0.36 0.022 -5.393 1.197 -0.241 0.014 -1.844 -0.075" />
    <path class="write-flat-pen" fill="#FFFFFF" stroke-width="1.6" __comx="222.122" __comy="47.853" __timestamp="0x177fbdd3d24" d="M221.233 43.038 l-0.119 0.894 0.034 0.246 0.536 2.532 0.077 0.357 0.324 2.136 0.097 4.748 -0.009 0.372 -0.003 0.707 0.013 0.319 0.035 0.28 0.166 1.39 0.121 0.007 0.318 -1.364 0.066 -0.27 0.055 -0.307 0.102 -0.696 0.051 -0.406 0.033 -4.866 -0.37 -2.245 -0.097 -0.393 -0.666 -2.479 -0.032 -0.118 -0.016 -0.8" />
    <path class="write-flat-pen" fill="#FFFFFF" stroke-width="1.6" __comx="228.544" __comy="47.853" __timestamp="0x177fbdd3f6d" d="M225.58 37.019 l0.442 0.432 0.069 0.1 0.779 1.226 0.184 0.326 1.293 2.876 0.194 0.517 0.918 2.861 0.641 3.038 0.325 3.18 -0.068 2.194 -0.357 1.874 -0.719 1.956 -0.522 0.869 -1.208 0.988 0.042 -0.009 -0.134 0.067 -1.191 0.593 0.032 0.155 1.346 0.065 0.2 -0.018 0.131 -0.039 1.562 -1.084 0.709 -1.111 0.8 -2.139 0.39 -2.048 0.07 -2.353 -0.359 -3.31 -0.715 -3.137 -1.008 -2.913 -0.229 -0.563 -1.438 -2.89 -0.24 -0.37 -0.92 -1.195 -0.146 -0.152 -0.565 -0.372" />
    <path class="write-flat-pen" fill="#FFFFFF" stroke-width="1.6" __comx="234.872" __comy="47.853" __timestamp="0x177fbdd4266" d="M231.861 28.008 l0.223 -0.211 0.003 0.013 0.469 -0.118 0.041 -0.002 1.284 0.012 0.046 0.016 0.392 0.224 0.208 0.334 0.019 0.601 -0.386 0.926 -1.741 1.926 -0.361 0.788 0.295 0.85 1.004 0.604 2.602 0.587 0.232 0.032 0.254 0.034 0.253 0.01 1.436 0.066 0.035 -0.131 -1.279 -0.656 -0.216 -0.115 -0.242 -0.109 -0.237 -0.083 -2.416 -0.664 -0.543 -0.309 -0.044 -0.082 0.101 -0.272 1.663 -1.993 0.486 -1.267 -0.082 -1.029 -0.481 -0.674 -0.665 -0.334 -0.248 -0.061 -1.461 0.132 -0.142 0.045 -0.497 0.272 -0.106 0.079 -0.183 0.356" />
    <path class="write-flat-pen" fill="#FFFFFF" stroke-width="1.6" __comx="249.448" __comy="47.853" __timestamp="0x177fbdd4576" d="M249.848 37.609 l-0.241 0.107 -0.054 0.063 -0.128 0.125 -0.046 0.049 -0.25 0.312 -0.074 0.104 -0.357 0.526 -0.137 0.232 -0.982 2.13 -0.165 0.455 -0.691 2.494 -0.328 2.814 0.038 2.426 0.412 2.374 0.806 2.56 1.055 2.024 1.282 1.474 0.303 0.233 0.546 0.32 0.27 0.091 1.317 0.438 0.075 -0.131 -1.047 -0.912 -0.179 -0.165 -0.409 -0.369 -0.181 -0.183 -1.059 -1.395 -0.921 -1.854 -0.744 -2.401 -0.388 -2.213 -0.047 -2.263 0.293 -2.66 0.624 -2.385 0.129 -0.388 0.827 -2.12 0.088 -0.204 0.254 -0.577 0.045 -0.121 0.127 -0.374 0.021 -0.074 0.022 -0.171 -0.025 0.014 0.107 -0.138" />
    <path class="write-flat-pen" fill="#FFFFFF" stroke-width="1.6" __comx="260.685" __comy="47.853" __timestamp="0x177fbdd46ef" d="M255.209 43.901 l0.347 1.254 0.138 0.308 1.802 3.287 0.343 0.557 1.913 2.792 1.503 1.739 1.616 1.421 1.839 1.114 0.04 0.013 0.038 0.012 1.354 0.464 0.02 -0.027 -0.868 -1.137 -0.028 -0.036 -0.043 -0.046 -1.717 -1.195 -1.508 -1.319 -1.422 -1.642 -1.906 -2.703 -0.333 -0.512 -1.89 -3.174 -0.115 -0.226 -0.456 -1.165" />
    <path class="write-flat-pen" fill="#FFFFFF" stroke-width="1.6" __comx="261.529" __comy="47.853" __timestamp="0x177fbdd47f3" d="M257.746 55.733 l-0.026 -1.018 0.025 -0.035 1.142 -1.688 0.298 -0.369 5.529 -7.953 0.242 -0.368 0.4 -0.63 0.165 -0.299 0.67 -1.187 -0.084 -0.068 -1.018 0.906 -0.261 0.23 -0.518 0.556 -0.295 0.352 -5.633 7.863 -0.302 0.398 -1.103 1.871 -0.106 0.303 0.176 1.2" />
    <path class="write-flat-pen" fill="#FFFFFF" stroke-width="1.6" __comx="272.403" __comy="47.853" __timestamp="0x177fbdd498b" d="M268.626 49.807 l0.164 -0.37 -0.08 0.091 1.008 -0.306 0.156 -0.021 1.678 -0.048 2.731 0.3 0.336 0.046 0.342 0.031 0.368 0.021 1.392 0.096 0.029 -0.124 -1.287 -0.54 -0.352 -0.15 -0.337 -0.102 -0.353 -0.099 -2.829 -0.414 -1.811 0.097 -0.293 0.055 -1.184 0.519 -0.162 0.171 -0.087 0.598" />
    <path class="write-flat-pen" fill="#FFFFFF" stroke-width="1.6" __comx="296.14" __comy="47.853" __timestamp="0x177fbdd4ec2" d="M293.27 36.12 l-0.175 0.384 -0.009 0.136 0.063 0.482 0.058 0.19 0.388 0.939 0.157 0.321 0.968 1.836 0.209 0.408 1.357 2.837 1.009 2.706 0.508 2.164 0.161 2.071 -0.138 2.1 -0.447 1.983 -1.481 3.442 -0.199 0.321 -0.669 1.025 -0.196 0.297 -0.51 0.752 -0.138 0.211 -0.232 0.371 -0.094 0.172 -0.685 1.232 0.054 0.045 1.086 -0.898 0.154 -0.127 0.322 -0.312 0.178 -0.193 0.605 -0.697 0.235 -0.289 0.767 -0.981 0.283 -0.395 1.678 -3.588 0.511 -2.194 0.145 -2.288 -0.187 -2.251 -0.563 -2.327 -1.093 -2.815 -1.456 -2.87 -0.24 -0.427 -1.083 -1.777 -0.172 -0.281 -0.48 -0.836 -0.058 -0.106 -0.144 -0.337 -0.011 0.024 0.021 -0.335" />
    <path class="write-flat-pen" fill="#FFFFFF" stroke-width="1.6" __comx="285.421" __comy="45.392" __timestamp="0x177fbdd59ef" d="M282.092 45.012 l-0.479 -0.658 0.033 0.042 0.047 -0.534 -0.028 0.07 0.522 -0.423 1.248 -0.429 1.385 -0.187 1.149 0.095 0.634 0.259 0.437 0.432 0.178 0.458 -0.016 0.61 -0.285 0.735 -0.701 0.91 -2.163 1.511 0.102 0.964 2.058 0.784 1.412 0.839 0.705 0.65 0.376 0.681 0.118 0.666 -0.15 0.787 -0.35 0.628 -0.777 0.795 -1.015 0.62 -1.386 0.423 -1.001 0.027 -0.949 -0.222 -0.562 -0.329 -0.461 -0.566 -0.013 0.052 -0.058 -0.125 -0.045 -0.121 -0.212 -1.172 -0.156 -0.027 -0.589 1.035 -0.1 0.204 -0.047 0.331 0.036 0.317 0.696 1.098 1.005 0.59 1.334 0.29 1.354 -0.066 1.703 -0.552 1.281 -0.806 0.992 -1.046 0.514 -0.961 0.207 -1.21 -0.209 -1.079 -0.574 -1.019 -0.939 -0.864 -1.606 -0.96 -1.452 -0.564 0.052 0.488 1.702 -1.244 0.886 -1.209 0.381 -1.086 -0.01 -1.021 -0.365 -0.856 -0.756 -0.714 -0.97 -0.385 -1.419 -0.113 -1.601 0.225 -1.517 0.562 -0.747 0.708 -0.152 0.301 0.108 0.968 0.112 0.177 0.628 0.622" />
    <path class="write-flat-pen" fill="#FFFFFF" stroke-width="1.6" __comx="303.053" __comy="31.472" __timestamp="0x177fbdd5d76" d="M303.335 37.023 l0.001 -0.939 -0.001 -0.172 -0.018 -1.533 -0.008 -0.32 -0.085 -2.069 -0.022 -0.359 -0.208 -3.308 -0.005 -0.196 0 0 0.218 -1.879 0 0 -1.088 -0.154 -0.135 0.669 -0.715 1.443 -1.069 1.448 -1.306 1.197 -0.378 1.122 1.166 0.473 3.154 0.092 1.895 0.293 0.211 0.053 0.5 0.145 0.235 0.068 0.209 0.052 0.23 0.041 1.427 0.267 0.049 -0.108 -1.143 -0.896 -0.183 -0.146 -0.182 -0.123 -0.231 -0.138 -0.507 -0.252 -0.309 -0.126 -2.064 -0.435 -3.03 -0.074 0.133 0.069 -0.116 0.291 1.114 -1.097 1.169 -1.628 0.813 -1.674 0.144 -0.823 -1.088 -0.154 0 0 -0.153 1.959 0 0 0.017 0.287 0.342 3.317 0.039 0.354 0.217 2.051 0.033 0.312 0.155 1.522 0.018 0.173 0.126 0.934" />
  </g>
</svg>
