<svg class="write-page" color-interpolation="linearRGB" width="1010px" height="822.057px" xmlns="http://www.w3.org/2000/svg" xmlns:xlink="http://www.w3.org/1999/xlink">
  <g class="write-content write-v3" width="1010" height="822.057" xruling="30" yruling="30" marginLeft="30" papercolor="#1B1C1C" rulecolor="#0300F9FF">
    <g class="ruleline write-std-ruling write-scale-down" fill="none" stroke="#00F9FF" stroke-opacity="0.012" stroke-width="1" shape-rendering="crispEdges" vector-effect="non-scaling-stroke">
      <rect class="pagerect" fill="#1B1C1C" stroke="none" x="0" y="0" width="1010" height="822.057" />
      <path class="yrule_1" d="M0 30 l1010 0" />
      <path d="M0 60 l1010 0" />
      <path d="M0 90 l1010 0" />
      <path d="M0 120 l1010 0" />
      <path d="M0 150 l1010 0" />
      <path d="M0 180 l1010 0" />
      <path d="M0 210 l1010 0" />
      <path d="M0 240 l1010 0" />
      <path d="M0 270 l1010 0" />
      <path d="M0 300 l1010 0" />
      <path d="M0 330 l1010 0" />
      <path d="M0 360 l1010 0" />
      <path d="M0 390 l1010 0" />
      <path d="M0 420 l1010 0" />
      <path d="M0 450 l1010 0" />
      <path d="M0 480 l1010 0" />
      <path d="M0 510 l1010 0" />
      <path d="M0 540 l1010 0" />
      <path d="M0 570 l1010 0" />
      <path d="M0 600 l1010 0" />
      <path d="M0 630 l1010 0" />
      <path d="M0 660 l1010 0" />
      <path d="M0 690 l1010 0" />
      <path d="M0 720 l1010 0" />
      <path d="M0 750 l1010 0" />
      <path d="M0 780 l1010 0" />
      <path d="M0 810 l1010 0" />
      <path class="xrule_1" d="M30 0 l0 822.057" />
      <path d="M60 0 l0 822.057" />
      <path d="M90 0 l0 822.057" />
      <path d="M120 0 l0 822.057" />
      <path d="M150 0 l0 822.057" />
      <path d="M180 0 l0 822.057" />
      <path d="M210 0 l0 822.057" />
      <path d="M240 0 l0 822.057" />
      <path d="M270 0 l0 822.057" />
      <path d="M300 0 l0 822.057" />
      <path d="M330 0 l0 822.057" />
      <path d="M360 0 l0 822.057" />
      <path d="M390 0 l0 822.057" />
      <path d="M420 0 l0 822.057" />
      <path d="M450 0 l0 822.057" />
      <path d="M480 0 l0 822.057" />
      <path d="M510 0 l0 822.057" />
      <path d="M540 0 l0 822.057" />
      <path d="M570 0 l0 822.057" />
      <path d="M600 0 l0 822.057" />
      <path d="M630 0 l0 822.057" />
      <path d="M660 0 l0 822.057" />
      <path d="M690 0 l0 822.057" />
      <path d="M720 0 l0 822.057" />
      <path d="M750 0 l0 822.057" />
      <path d="M780 0 l0 822.057" />
      <path d="M810 0 l0 822.057" />
      <path d="M840 0 l0 822.057" />
      <path d="M870 0 l0 822.057" />
      <path d="M900 0 l0 822.057" />
      <path d="M930 0 l0 822.057" />
      <path d="M960 0 l0 822.057" />
      <path d="M990 0 l0 822.057" />
      <path class="leftmargin" stroke="#FF0000" d="M30 0 l0 822.057" />
    </g>
    <path class="write-chisel-pen" fill="#8F3AC9" fill-opacity="0.255" stroke-width="60" __comx="276.841" __comy="19.054" __timestamp="0x177f61231f4" d="M40.722 18.126 l0 60 15 0 11.025 -1.092 0 -60 -15 0 -11.025 1.092 m26.025 -1.092 l-15 0 0 60 27.629 0.154 15 0 0 -60 -27.629 -0.154 m27.629 0.154 l-15 0 0 60 54.948 2.49 15 0 0 -60 -54.948 -2.49 m54.948 2.49 l-15 0 0 60 74.526 5.186 15 0 0 -60 -74.526 -5.186 m74.526 5.186 l-15 0 0 60 51.403 1.87 15 0 0 -60 -51.403 -1.87 m36.403 1.87 l0 60 15 0 13.184 -0.413 0 -60 -15 0 -13.184 0.413 m13.184 59.587 l15 0 0 -60 -6.198 -1.88 -15 0 0 60 6.198 1.88 m-6.198 -1.88 l15 0 0 -60 -49.705 -5.745 -15 0 0 60 49.705 5.745 m-49.705 -5.745 l15 0 0 -60 -41.065 -3.043 -15 0 0 60 41.065 3.043 m-41.065 -3.043 l15 0 0 -60 -40.202 -1.219 -15 0 0 60 40.202 1.219 m-25.202 -1.219 l0 -60 -15 0 -52.381 0.087 0 60 15 0 52.381 -0.087 m-52.381 0.087 l0 -60 -15 0 -52.353 1.575 0 60 15 0 52.353 -1.575 m-67.353 1.575 l15 0 0 -60 -31.401 -0.209 -15 0 0 60 31.401 0.209 m-31.401 -0.209 l15 0 0 -60 -11.551 -1.275 -15 0 0 60 11.551 1.275 m-11.551 -61.275 l0 60 15 0 5.539 -0.966 0 -60 -15 0 -5.539 0.966 m5.539 -0.966 l0 60 15 0 130.732 -0.55 0 -60 -15 0 -130.732 0.55 m145.732 -0.55 l-15 0 0 60 70.246 0.786 15 0 0 -60 -70.246 -0.786 m70.246 0.786 l-15 0 0 60 96.157 3.593 15 0 0 -60 -96.157 -3.593 m96.157 3.593 l-15 0 0 60 182.687 10.625 15 0 0 -60 -182.687 -10.625 m182.687 10.625 l-15 0 0 60 15.075 0.056 15 0 0 -60 -15.075 -0.056 m0.075 0.056 l0 60 15 0 0.985 -0.901 0 -60 -15 0 -0.985 0.901 m0.985 59.099 l15 0 0 -60 -1.042 -1.502 -15 0 0 60 1.042 1.502 m-1.042 -1.502 l15 0 0 -60 -7.201 -2.61 -15 0 0 60 7.201 2.61 m-7.201 -2.61 l15 0 0 -60 -22.169 -4.476 -15 0 0 60 22.169 4.476 m-22.169 -4.476 l15 0 0 -60 -44.519 -6.158 -15 0 0 60 44.519 6.158 m-44.519 -6.158 l15 0 0 -60 -41.675 -4.232 -15 0 0 60 41.675 4.232 m-41.675 -4.232 l15 0 0 -60 -47.661 -3.099 -15 0 0 60 47.661 3.099 m-47.661 -3.099 l15 0 0 -60 -58.601 -2.089 -15 0 0 60 58.601 2.089 m-58.601 -2.089 l15 0 0 -60 -56.784 -0.333 -15 0 0 60 56.784 0.333 m-41.784 -0.333 l0 -60 -15 0 -36.578 1.072 0 60 15 0 36.578 -1.072 m-36.578 1.072 l0 -60 -15 0 -36.497 2.655 0 60 15 0 36.497 -2.655 m-36.497 2.655 l0 -60 -15 0 -28.555 3.584 0 60 15 0 28.555 -3.584 m-28.555 3.584 l0 -60 -15 0 -14.178 2.925 0 60 15 0 14.178 -2.925 m-14.178 2.925 l0 -60 -15 0 -0.753 0.989 0 60 15 0 0.753 -0.989 m-0.753 -59.011 l-15 0 0 60 2.871 1.045 15 0 0 -60 -2.871 -1.045 m2.871 1.045 l-15 0 0 60 29.529 0.717 15 0 0 -60 -29.529 -0.717 m14.529 0.717 l0 60 15 0 86.398 -2.793 0 -60 -15 0 -86.398 2.793 m86.398 -2.793 l0 60 15 0 101.754 -1.7 0 -60 -15 0 -101.754 1.7 m116.754 -1.7 l-15 0 0 60 60.846 0.823 15 0 0 -60 -60.846 -0.823 m60.846 0.823 l-15 0 0 60 55.796 2.11 15 0 0 -60 -55.796 -2.11 m55.796 2.11 l-15 0 0 60 75.007 4.499 15 0 0 -60 -75.007 -4.499 m75.007 4.499 l-15 0 0 60 36.95 3.277 15 0 0 -60 -36.95 -3.277 m36.95 3.277 l-15 0 0 60 7.16 1.606 15 0 0 -60 -7.16 -1.606 m7.16 61.606 l0 -60 -15 0 -12.022 0.406 0 60 15 0 12.022 -0.406 m-27.022 0.406 l15 0 0 -60 -135.3 -9.242 -15 0 0 60 135.3 9.242 m-135.3 -9.242 l15 0 0 -60 -90.42 -4.856 -15 0 0 60 90.42 4.856 m-90.42 -4.856 l15 0 0 -60 -50.727 -1.416 -15 0 0 60 50.727 1.416 m-50.727 -1.416 l15 0 0 -60 -63.73 -0.153 -15 0 0 60 63.73 0.153 m-48.73 -0.153 l0 -60 -15 0 -65.23 1.59 0 60 15 0 65.23 -1.59 m-65.23 1.59 l0 -60 -15 0 -42.157 2.367 0 60 15 0 42.157 -2.367 m-42.157 2.367 l0 -60 -15 0 -13.291 1.815 0 60 15 0 13.291 -1.815 m-13.291 -58.185 l-15 0 0 60 2.931 1.303 15 0 0 -60 -2.931 -1.303 m2.931 1.303 l-15 0 0 60 18.497 1.311 15 0 0 -60 -18.497 -1.311 m18.497 1.311 l-15 0 0 60 53.305 0.903 15 0 0 -60 -53.305 -0.903 m38.305 0.903 l0 60 15 0 148.716 -0.476 0 -60 -15 0 -148.716 0.476 m163.716 -0.476 l-15 0 0 60 139.646 1.384 15 0 0 -60 -139.646 -1.384 m124.646 1.384 l0 60 15 0 90.954 -0.283 0 -60 -15 0 -90.954 0.283 m90.954 -0.283 l0 60 15 0 10.325 -0.948 0 -60 -15 0 -10.325 0.948 m10.325 59.052 l15 0 0 -60 -9.355 -2.544 -15 0 0 60 9.355 2.544 m-9.355 -2.544 l15 0 0 -60 -40.392 -5.201 -15 0 0 60 40.392 5.201 m-40.392 -5.201 l15 0 0 -60 -52.392 -4.751 -15 0 0 60 52.392 4.751 m-52.392 -4.751 l15 0 0 -60 -71.825 -4.052 -15 0 0 60 71.825 4.052 m-71.825 -4.052 l15 0 0 -60 -96.034 -3.755 -15 0 0 60 96.034 3.755 m-96.034 -3.755 l15 0 0 -60 -71.062 -1.521 -15 0 0 60 71.062 1.521 m-56.062 -1.521 l0 -60 -15 0 -59.496 0.061 0 60 15 0 59.496 -0.061 m-59.496 0.061 l0 -60 -15 0 -98.35 3.287 0 60 15 0 98.35 -3.287 m-98.35 3.287 l0 -60 -15 0 -52.44 2.903 0 60 15 0 52.44 -2.903 m-52.44 -57.097 l-15 0 0 60 1.075 1.062 15 0 0 -60 -1.075 -1.062 m1.075 1.062 l-15 0 0 60 15.449 1.96 15 0 0 -60 -15.449 -1.96 m15.449 1.96 l-15 0 0 60 65.604 2.946 15 0 0 -60 -65.604 -2.946 m65.604 2.946 l-15 0 0 60 143.673 3.716 15 0 0 -60 -143.673 -3.716 m143.673 3.716 l-15 0 0 60 81.329 0.908 15 0 0 -60 -81.329 -0.908 m66.329 0.908 l0 60 15 0 82.563 -0.602 0 -60 -15 0 -82.563 0.602 m97.563 -0.602 l-15 0 0 60 16.949 0.953 15 0 0 -60 -16.949 -0.953 m16.949 0.953 l-15 0 0 60 1.846 0.201 15 0 0 -60 -1.846 -0.201 m1.846 0.201 l-15 0 0 60 6.328 0.687 15 0 0 -60 -6.328 -0.687" />
    <path class="write-flat-pen" fill="#FFFFFF" stroke-width="1.6" __comx="46.635" __comy="49.045" __timestamp="0x177f60cb196" d="M45.56 34.095 l-0.69 0.022 0.009 0.422 0.179 1.379 0.067 0.402 1.147 6.92 0.087 1.002 0.851 15.008 0 0 1.151 -0.251 -0.326 -0.638 -0.05 -0.183 -0.165 -0.88 -0.049 -0.303 -0.095 -0.651 -0.047 -0.332 -0.074 -0.693 -0.043 -0.37 -0.185 -1.643 -0.051 0 -0.191 1.643 -0.044 0.372 -0.064 0.707 -0.019 0.351 -0.019 0.673 0.002 0.332 0.043 0.939 0.038 0.32 0.225 0.788 1.151 -0.251 0 0 -0.976 -15.018 -0.107 -1.062 -1.324 -6.943 -0.094 -0.401 -0.32 -1.3 -0.001 0.235 0.06 -0.097" />
    <path class="write-flat-pen" fill="#FFFFFF" stroke-width="1.6" __comx="53.347" __comy="49.045" __timestamp="0x177f60cb2c6" d="M43.199 34.996 l-0.778 -0.368 -0.059 -0.013 -0.097 -0.079 0.08 0.017 0 0 -0.163 0.97 0.278 0.045 0.287 -0.021 2.117 -0.264 0.782 -0.121 6.414 -0.974 7.419 -0.682 0.64 -0.035 1.135 -0.065 0.518 -0.008 0.484 -0.011 0.472 0.004 0.385 -0.001 1.677 0.01 0.019 -0.11 -1.582 -0.556 -0.376 -0.133 -0.495 -0.129 -0.508 -0.092 -0.557 -0.082 -1.184 -0.064 -0.693 -0.012 -7.524 0.525 -6.473 1.002 -0.784 0.144 -2.097 0.421 -0.259 0.076 -0.229 0.111 -0.163 0.97 0 0 0.097 0.025 0.26 -0.04 -0.037 -0.009 0.769 0.181" />
    <path class="write-flat-pen" fill="#FFFFFF" stroke-width="1.6" __comx="56.533" __comy="49.045" __timestamp="0x177f60cb42b" d="M46.66 49.201 l0.149 -0.371 -0.051 0.075 0.448 -0.155 0.241 -0.05 1.871 -0.25 0.525 -0.035 12.885 -0.528 0.461 -0.033 0.858 -0.073 0.374 -0.039 0.64 -0.079 0.283 -0.043 1.7 -0.251 0.001 -0.052 -1.695 -0.286 -0.286 -0.049 -0.647 -0.077 -0.378 -0.034 -0.863 -0.056 -0.476 -0.019 -12.936 0.395 -0.608 0.068 -1.96 0.435 -0.372 0.146 -0.563 0.374 -0.193 0.211 -0.051 0.651" />
    <path class="write-flat-pen" fill="#FFFFFF" stroke-width="1.6" __comx="58.016" __comy="49.045" __timestamp="0x177f60cb564" d="M47.179 59.363 l-0.307 0.319 0.278 0.611 0.158 0.046 0.989 0.043 0.551 -0.016 16.509 -0.998 0.584 -0.055 0.543 -0.058 0.529 -0.062 0.533 -0.068 1.614 -0.204 0 -0.04 -1.614 -0.206 -0.535 -0.069 -0.534 -0.052 -0.547 -0.044 -0.604 -0.035 -16.544 0.848 -0.537 0.063 -0.892 0.109 -0.091 0.011 0.278 0.611 0.168 -0.41" />
    <path class="write-flat-pen" fill="#FFFFFF" stroke-width="1.6" __comx="82.013" __comy="49.045" __timestamp="0x177f60cb6d9" d="M74.016 42.866 l0.396 0.504 0.194 0.257 0.934 1.16 0.397 0.481 1.904 2.284 0.544 0.624 4.192 4.649 2.507 2.321 2.547 1.569 0.256 0.107 0.386 0.119 1.71 0.422 0.027 -0.055 -1.367 -1.113 -0.317 -0.229 -0.178 -0.125 -2.334 -1.632 -2.408 -2.214 -4.257 -4.518 -0.561 -0.594 -2.024 -2.172 -0.435 -0.452 -1.055 -1.054 -0.243 -0.228 -0.5 -0.418" />
    <path class="write-flat-pen" fill="#FFFFFF" stroke-width="1.6" __comx="81.703" __comy="49.045" __timestamp="0x177f60cb7b0" d="M77.79 58.916 l-0.61 -0.528 0.004 -0.024 -0.011 -1.139 0.098 -0.396 0.99 -2.377 1.213 -2.065 4.714 -6.308 0.457 -0.61 0.417 -0.577 0.407 -0.591 0.37 -0.543 0.346 -0.505 0.881 -1.281 -0.005 -0.004 -1.127 1.072 -0.445 0.424 -0.471 0.464 -0.506 0.511 -0.488 0.52 -0.521 0.58 -4.857 6.298 -1.253 2.197 -0.949 2.552 -0.101 0.589 0.185 1.4 0.175 0.259 0.811 0.476" />
    <path class="write-flat-pen" fill="#FFFFFF" stroke-width="1.6" __comx="99.735" __comy="51.468" __timestamp="0x177f60cc216" d="M98.432 57.955 l0.482 0.49 0.367 -0.126 1.047 -0.818 0.1 -0.176 0.611 -1.226 -0.022 -0.019 -1.098 0.819 -0.094 0.056 -0.955 0.592 0.241 -0.078 -0.127 -0.092" />
    <path class="write-flat-pen" fill="#FFFFFF" stroke-width="1.6" __comx="97.459" __comy="51.468" __timestamp="0x177f60cc2ca" d="M98.505 38.702 l-0.871 -1.718 -1.178 -0.792 -0.042 0.037 0.556 1.205 0.847 1.623" />
    <path class="write-flat-pen" fill="#FFFFFF" stroke-width="1.6" __comx="75.483" __comy="51.468" __timestamp="0x177f60cc4b2" d="M37.072 73.44 l-0.277 -0.211 -0.164 -0.167 -0.117 0.669 1.155 -0.315 7.646 -0.304 1.452 -0.001 21.611 -0.106 18.705 -0.638 13.575 0.051 1.785 0.045 3.34 0.154 1.617 0.093 1.583 0.04 1.577 0.052 1.524 0.007 1.456 -0.028 1.258 -0.022 0.003 -0.073 -1.251 -0.136 -1.447 -0.16 -1.509 -0.145 -1.566 -0.184 -1.573 -0.141 -1.608 -0.175 -3.353 -0.277 -1.811 -0.096 -13.615 -0.209 -18.716 0.627 -21.595 0.259 -1.473 0.03 -7.768 0.483 -1.231 0.439 -0.117 0.669 0.205 0.114 0.277 0.211" />
    <path class="write-flat-pen" fill="#FFFFFF" stroke-width="1.6" __comx="158.917" __comy="51.468" __timestamp="0x177f60cc84f" d="M158.095 40.598 l-0.31 -1.455 -0.002 -0.104 0.063 -0.605 0.015 0.034 -0.107 0.137 -0.163 -0.078 0.338 0.927 0.143 0.546 0.474 2.303 0.557 5.297 0.47 11.346 0.034 0.094 0.051 0.083 0.269 0.582 0.066 0.006 0.376 -0.519 0.069 -0.105 0.038 -0.151 -0.348 -11.41 -0.604 -5.384 -0.562 -2.374 -0.209 -0.628 -0.596 -1.081 -0.386 -0.239 -0.367 0.307 -0.048 0.243 0.105 0.695 0.029 0.136 0.468 1.433" />
    <path class="write-flat-pen" fill="#FFFFFF" stroke-width="1.6" __comx="160.959" __comy="51.468" __timestamp="0x177f60cc99e" d="M148.874 37.763 l-1.438 -0.811 0.073 0.033 0.135 0.068 -0.29 0.306 0.806 -0.113 0.521 -0.025 6.13 -0.196 14.215 -1.385 0.839 -0.08 1.585 -0.146 0.737 -0.067 0.641 -0.066 0.594 -0.062 0.537 -0.059 1.583 -0.168 0.001 -0.055 -1.575 -0.231 -0.541 -0.08 -0.606 -0.058 -0.649 -0.047 -0.752 -0.036 -1.609 -0.014 -0.871 0.018 -14.216 1.222 -6.119 0.303 -0.629 0.073 -1.126 0.335 -0.476 0.481 0.562 0.723 0.132 0.063 1.518 0.657" />
    <path class="write-flat-pen" fill="#FFFFFF" stroke-width="1.6" __comx="164.581" __comy="51.468" __timestamp="0x177f60ccafe" d="M151.386 58.63 l-0.663 0.665 0.11 0.165 0.331 0.048 1.967 0.126 0.785 0.022 4.686 -0.144 14.594 -2.474 0.832 -0.15 0.779 -0.113 0.725 -0.107 0.716 -0.104 0.64 -0.107 1.551 -0.253 -0.003 -0.087 -1.564 -0.152 -0.65 -0.065 -0.737 -0.036 -0.749 -0.003 -0.819 0.025 -0.881 0.081 -14.559 2.309 -4.58 0.222 -0.75 0.011 -1.933 0.037 -0.047 0.017 0.019 0.099 0.117 0.748" />
    <path class="write-flat-pen" fill="#FFFFFF" stroke-width="1.6" __comx="191.302" __comy="51.468" __timestamp="0x177f60ccd91" d="M194.454 41.914 l-0.9 -0.358 -0.182 -0.045 -2.485 -0.27 -0.359 0.008 -1.699 0.263 -1.136 0.554 -0.733 0.933 -0.061 0.97 0.44 0.896 0.97 0.837 6.121 2.582 1.674 0.961 1.195 1.035 0.793 1.193 0.327 1.345 -0.116 1.016 -0.632 1.317 -0.81 0.831 -1.343 0.682 -1.9 0.426 -2.238 0.091 -2.294 -0.257 -2.411 -0.693 -1.105 -0.58 -0.889 -0.809 -0.22 -0.438 0.019 -0.5 0.001 -0.07 0.086 -0.155 0.168 -0.234 0.853 -1.109 -0.064 -0.083 -1.286 0.552 -0.309 0.136 -0.257 0.174 -0.273 0.293 -0.337 1.157 0.507 1.102 1.22 1.104 1.382 0.723 2.657 0.752 2.51 0.267 2.458 -0.118 2.173 -0.508 1.665 -0.884 1.067 -1.162 0.737 -1.706 0.108 -1.406 -0.455 -1.705 -0.997 -1.453 -1.392 -1.177 -1.825 -1.021 -6.06 -2.496 -0.719 -0.604 -0.255 -0.499 0.017 -0.441 0.417 -0.563 0.825 -0.438 1.511 -0.289 0.262 -0.016 2.419 0.098 0.121 0.012 0.915 0.195" />
    <path class="write-flat-pen" fill="#FFFFFF" stroke-width="1.6" __comx="259.21" __comy="47.563" __timestamp="0x177f60ce4f4" d="M256.369 56.319 l-0.117 1.257 -0.019 0.307 0.029 2.2 0.028 0.181 0.243 0.747 0.624 0.151 0.355 -1.058 0.024 -0.355 -0.046 -2.692 -0.024 -0.559 -0.262 -4.848 -0.072 -0.698 -0.401 -3.391 -2.413 -9.511 -0.534 -3.193 -0.116 -2.546 0.242 -0.878 0.519 -0.684 1.063 -0.703 1.623 -0.506 1.932 -0.191 1.434 0.155 1.603 0.517 2.189 1.507 0.178 0.19 0.427 0.617 0.186 0.329 0.173 0.347 0.151 0.329 0.133 0.324 0.134 0.342 0.6 1.572 0.079 -0.015 -0.001 -1.682 0 -0.385 -0.032 -0.393 -0.062 -0.409 -0.099 -0.439 -0.144 -0.464 -0.389 -0.833 -0.322 -0.465 -2.476 -1.894 -1.995 -0.653 -1.76 -0.197 -2.26 0.223 -1.994 0.625 -1.474 0.981 -0.865 1.147 -0.376 1.419 0.164 2.886 0.601 3.335 2.449 9.468 0.437 3.285 0.081 0.659 0.427 4.804 0.049 0.544 0.215 2.636 0.011 0.207 0.033 0.219 0.544 0.134 -0.191 -0.248 -0.019 -0.066 -0.191 -2.133 -0.01 -0.288 -0.037 -1.258" />
    <path class="write-flat-pen" fill="#FFFFFF" stroke-width="1.6" __comx="257.661" __comy="47.563" __timestamp="0x177f60ce625" d="M248.668 46.57 l-0.568 0.452 0.225 0.188 0.134 0.076 0.858 0.375 0.353 0.135 3.091 0.734 0.683 0.079 2.78 0.11 5.335 -0.802 0.75 -0.172 0.752 -0.182 0.707 -0.185 0.685 -0.168 0.652 -0.183 0.583 -0.16 1.535 -0.414 -0.009 -0.064 -1.59 0.018 -0.616 0.006 -0.677 0.049 -0.712 0.04 -0.742 0.089 -0.767 0.103 -0.735 0.108 -5.216 0.656 -2.627 -0.084 -0.579 -0.056 -3.008 -0.544 -0.302 -0.079 -0.874 -0.221 -0.123 -0.031 -0.291 -0.027 0.022 0.745" />
    <path class="write-flat-pen" fill="#FFFFFF" stroke-width="1.6" __comx="279.428" __comy="47.563" __timestamp="0x177f60ce8f7" d="M278.236 41.816 l-0.167 -0.195 -0.106 -0.01 -0.136 -0.01 -0.138 0.034 -0.198 0.085 -0.149 0.104 -0.309 0.284 -0.164 0.213 -0.484 0.792 -0.166 0.382 -0.761 3.797 -0.03 0.78 0.149 2.365 0.686 3.46 1.221 3.966 1.115 2.267 1.308 1.337 0.4 0.253 0.697 0.289 0.391 0.099 0.377 0.047 1.627 0.201 0.026 -0.084 -1.457 -0.751 -0.31 -0.165 -0.277 -0.163 -0.517 -0.363 -0.213 -0.191 -0.994 -1.216 -0.936 -2.041 -1.158 -3.813 -0.663 -3.309 -0.16 -2.213 0.015 -0.621 0.562 -3.628 0.072 -0.243 0.307 -0.774 0.067 -0.164 0.149 -0.294 0.042 -0.093 0.059 -0.12 0.011 -0.052 0.005 -0.053 -0.074 -0.011 0.133 0.02" />
    <path class="write-flat-pen" fill="#FFFFFF" stroke-width="1.6" __comx="291.924" __comy="47.563" __timestamp="0x177f60cea31" d="M284.966 43.815 l0.255 0.771 0.106 0.246 1.014 1.861 0.323 0.515 3.891 5.709 1.966 2.336 1.877 1.555 2.501 1.096 0.102 0.026 0.368 0.007 1.51 -0.258 0.005 -0.036 -1.356 -0.63 -0.258 -0.127 0.021 0.002 -2.209 -1.145 -1.654 -1.399 -1.859 -2.204 -3.965 -5.567 -0.322 -0.47 -1.137 -1.731 -0.114 -0.173 -0.372 -0.684" />
    <path class="write-flat-pen" fill="#FFFFFF" stroke-width="1.6" __comx="291.826" __comy="47.563" __timestamp="0x177f60ceb10" d="M288.089 58.233 l-0.113 -0.64 0.012 -0.058 0.109 -0.57 0.067 -0.208 0.847 -1.87 0.251 -0.434 1.268 -1.906 4.371 -5.258 0.288 -0.424 0.254 -0.416 0.219 -0.403 0.18 -0.402 0.701 -1.552 -0.076 -0.052 -1.183 1.225 -0.299 0.306 -0.301 0.314 -0.32 0.337 -0.33 0.352 -4.547 5.197 -1.285 2.053 -0.283 0.547 -0.751 2.08 -0.058 0.374 0.017 0.739 0.049 0.21 0.296 0.655" />
    <path class="write-flat-pen" fill="#FFFFFF" stroke-width="1.6" __comx="301.097" __comy="47.563" __timestamp="0x177f60cec60" d="M295.728 38.472 l0.37 0.408 0.15 0.172 0.459 0.484 0.284 0.285 1.008 1.021 0.352 0.37 2.912 3.448 0.375 0.53 1.461 2.309 1.345 2.942 0.603 2.219 0.143 1.587 -0.198 1.567 -0.535 1.476 -0.221 0.422 -0.553 0.849 -0.263 0.348 -0.261 0.325 -0.267 0.299 -0.261 0.275 -1.127 1.178 0.018 0.023 1.412 -0.814 0.34 -0.197 0.363 -0.244 0.36 -0.283 0.369 -0.332 0.739 -0.83 0.352 -0.515 0.736 -1.659 0.275 -1.857 -0.162 -1.844 -0.665 -2.427 -1.432 -3.112 -1.546 -2.399 -0.439 -0.599 -3.108 -3.41 -0.422 -0.381 -1.133 -0.926 -0.334 -0.246 -0.547 -0.381 -0.195 -0.125 -0.47 -0.295" />
    <path class="write-flat-pen" fill="#FFFFFF" stroke-width="1.6" __comx="322.586" __comy="47.563" __timestamp="0x177f60cee3b" d="M314.579 46.609 l1.029 0.295 0.293 0.067 3.537 0.321 8.046 -1.112 0.424 -0.087 0.726 -0.159 0.302 -0.074 1.656 -0.394 -0.005 -0.069 -1.697 -0.132 -0.319 -0.025 -0.761 -0.003 -0.442 0.021 -7.961 0.939 -3.39 -0.168 -0.238 -0.027 -1.051 -0.126" />
    <path class="write-flat-pen" fill="#FFFFFF" stroke-width="1.6" __comx="325.243" __comy="47.563" __timestamp="0x177f60cef3b" d="M318.353 53.3 l-0.777 -0.043 -0.057 -0.014 0.263 0.712 0.044 0.055 0.004 0.018 2.975 -0.088 0.678 0.004 6.469 0.218 0.751 0.027 0.77 0.043 0.723 0.04 0.73 0.037 0.702 0.021 1.577 0.052 0.013 -0.082 -1.519 -0.429 -0.679 -0.194 -0.718 -0.173 -0.721 -0.152 -0.784 -0.136 -0.781 -0.097 -6.509 -0.341 -0.738 0.005 -3.077 0.269 -0.295 0.084 -0.13 0.199 0.263 0.712 0.069 -0.016 0.782 -0.116" />
    <path class="write-flat-pen" fill="#FFFFFF" stroke-width="1.6" __comx="353.929" __comy="47.563" __timestamp="0x177f60cf119" d="M344.325 42.541 l0.521 0.505 0.135 0.178 1.519 1.66 0.448 0.458 3.199 3.279 0.588 0.634 3.908 3.894 2.469 1.94 3.829 1.726 0.279 0.053 0.389 0.035 1.866 -0.002 0.056 -0.253 -1.683 -0.792 -0.343 -0.138 -0.146 -0.058 -3.527 -1.741 -2.297 -1.788 -3.891 -3.771 -0.602 -0.618 -3.336 -3.176 -0.466 -0.429 -1.61 -1.52 -0.195 -0.196 -0.673 -0.437" />
    <path class="write-flat-pen" fill="#FFFFFF" stroke-width="1.6" __comx="353.311" __comy="47.563" __timestamp="0x177f60cf209" d="M346.584 58.116 l-0.032 -1.452 0.039 -0.071 2.421 -2.913 0.548 -0.546 9.126 -9.099 0.506 -0.68 0.418 -0.627 0.357 -0.594 0.331 -0.592 0.255 -0.54 0.686 -1.444 -0.068 -0.046 -1.093 1.166 -0.402 0.424 -0.455 0.477 -0.464 0.496 -0.49 0.541 -0.517 0.567 -9.155 8.991 -0.592 0.617 -2.452 3.221 -0.167 0.493 0.215 1.688" />
    <path class="write-flat-pen" fill="#FFFFFF" stroke-width="1.6" __comx="368.95" __comy="47.563" __timestamp="0x177f60cf4aa" d="M363.534 30.292 l0.343 -0.664 0.042 -0.034 1.019 -0.813 0.203 -0.138 2.679 -1.322 0.189 -0.047 1.069 -0.128 0.693 0.191 0.348 0.349 0.245 0.719 -0.065 0.997 -0.424 1.093 -1.268 1.793 -3.647 3.442 -0.175 0.227 -0.472 0.839 0.156 1.12 0.991 0.691 1.874 0.143 4.653 -0.602 0.322 -0.046 0.295 -0.045 0.261 -0.049 0.264 -0.05 1.738 -0.287 0.01 -0.119 -1.665 -0.575 -0.287 -0.097 -0.314 -0.062 -0.336 -0.039 -0.397 -0.017 -4.579 0.465 -1.332 -0.08 -0.145 -0.084 -0.019 -0.009 0.164 -0.34 0.042 -0.063 3.534 -3.568 1.394 -2.025 0.528 -1.404 0.079 -1.411 -0.418 -1.191 -0.762 -0.751 -1.213 -0.315 -1.365 0.197 -0.377 0.109 -2.774 1.567 -0.278 0.231 -0.973 1.002 -0.13 0.178 -0.234 0.826" />
    <path class="write-flat-pen" fill="#FFFFFF" stroke-width="1.6" __comx="414.354" __comy="47.563" __timestamp="0x177f60cfa0a" d="M413.979 44.489 l0.06 -0.344 -0.075 0.077 0 0 -0.371 -0.162 -0.029 0.353 0.003 0.283 0.123 2.185 0.047 0.675 0.651 11.661 0.062 0.052 0.277 0.341 0.027 0.002 0.314 -0.307 0.07 -0.085 -0.542 -11.723 -0.073 -0.691 -0.285 -2.175 -0.055 -0.291 -0.122 -0.342 -0.371 -0.162 0 0 -0.093 0.09 0.087 0.573" />
    <path class="write-flat-pen" fill="#FFFFFF" stroke-width="1.6" __comx="413.94" __comy="47.563" __timestamp="0x177f60cfad1" d="M414.528 37.608 l-0.879 -0.436 -0.298 0.708 0.086 0.099 0.317 0.176 0.347 0.233" />
    <path class="write-flat-pen" fill="#FFFFFF" stroke-width="1.6" __comx="424.309" __comy="47.563" __timestamp="0x177f60cfcbb" d="M419.266 44.638 l-0.188 0.437 -0.033 0.19 -0.037 1.468 0.014 0.403 0.244 3.877 0.037 0.63 0.235 4.692 0 0 0.007 0.22 0 0 0.052 0.772 0 0 1.233 -0.009 0.406 -3.602 0.729 -3.484 0.979 -2.478 0.966 -1.558 1.051 -1.101 0.697 -0.352 0.644 0.009 0.462 0.252 0.539 0.694 0.604 1.682 0.31 2.241 -0.05 6.118 0.039 0.082 0.432 1.206 0.065 0.005 0.627 -1.117 0.055 -0.112 0.227 -6.264 -0.358 -2.493 -0.733 -2.02 -0.852 -1.091 -1.011 -0.548 -1.318 -0.015 -1.205 0.609 -1.313 1.376 -1.097 1.791 -1.037 2.707 -0.756 3.661 -0.336 3.677 1.233 -0.009 0 0 -0.123 -0.724 0 0 -0.014 -0.192 0 0 -0.409 -4.695 -0.061 -0.636 -0.406 -3.858 -0.036 -0.381 -0.126 -1.421 -0.013 -0.11 0.035 -0.422" />
    <path class="write-flat-pen" fill="#FFFFFF" stroke-width="1.6" __comx="436.317" __comy="45.747" __timestamp="0x177f60cfed0" d="M433.43 53.337 l-0.03 0.306 0.39 0.241 0.113 -0.017 0.424 -0.305 0.159 -0.186 0.872 -1.297 0.213 -0.373 1.904 -4.151 0 0 -0.49 -0.824 -0.01 -0.004 -0.645 0.561 -0.145 2.232 2.604 14.534 0.052 0.558 0.102 2.965 -0.223 1.686 -0.426 0.944 -0.598 0.472 -0.613 0.12 -0.944 -0.177 -1.35 -0.92 -0.212 -0.202 -0.501 -0.597 -0.252 -0.342 -0.265 -0.408 -0.27 -0.475 -0.28 -0.543 -0.734 -1.439 -0.046 0.015 0.286 1.589 0.111 0.617 0.139 0.57 0.158 0.518 0.186 0.475 0.431 0.802 0.317 0.415 1.659 1.322 1.568 0.321 1.265 -0.258 1.164 -0.935 0.648 -1.485 0.24 -2.025 -0.145 -3.126 -0.07 -0.657 -2.753 -14.417 0.083 -2.088 -0.645 0.561 0.011 -0.003 -0.49 -0.824 0 0 -1.73 4.183 -0.163 0.326 -0.707 1.325 -0.067 0.126 -0.163 0.271 0.036 0.009 0.39 0.241 -0.11 -0.287" />
    <path class="write-flat-pen" fill="#FFFFFF" stroke-width="1.6" __comx="434.678" __comy="45.747" __timestamp="0x177f60cff78" d="M434.434 39.412 l0.679 -2.102 0.477 -1.35 -0.04 -0.025 -1.032 1.096 -0.754 2.156" />
    <path class="write-flat-pen" fill="#FFFFFF" stroke-width="1.6" __comx="450.218" __comy="45.747" __timestamp="0x177f60d01cc" d="M444.415 50.166 l-0.166 0.291 0.047 0.161 0.201 0.31 0.185 0.159 0.683 0.356 0.361 0.113 1.514 0.185 0.547 -0.047 1.556 -0.354 2.022 -0.97 1.757 -1.323 1.217 -1.454 0.625 -1.417 -0.006 -1.318 -0.602 -0.949 -1.152 -0.663 -1.75 -0.337 -2.156 0.165 -1.998 0.686 -1.18 0.782 -1.426 1.606 -1.049 1.86 -0.786 2.465 -0.186 1.755 0.228 1.604 0.64 1.451 1.105 1.281 1.521 0.86 1.848 0.404 2.12 -0.16 2.101 -0.641 2.38 -1.248 0.523 -0.372 0.492 -0.401 0.449 -0.433 0.388 -0.442 0.335 -0.462 0.963 -1.326 -0.061 -0.063 -1.354 0.923 -0.455 0.305 -0.454 0.29 -0.484 0.295 -0.501 0.291 -0.479 0.266 -2.265 1.057 -1.842 0.547 -1.758 0.135 -1.441 -0.305 -1.133 -0.623 -0.83 -0.93 -0.514 -1.085 -0.222 -1.256 0.115 -1.469 0.668 -2.234 0.909 -1.647 1.234 -1.399 0.924 -0.615 1.711 -0.585 1.845 -0.131 1.392 0.283 0.716 0.421 0.258 0.405 0.014 0.715 -0.441 1.034 -1.011 1.233 -1.545 1.202 -1.793 0.923 -1.362 0.379 -0.387 0.06 -1.365 -0.025 -0.254 -0.037 -0.631 -0.164 -0.115 -0.041 -0.214 -0.113 -0.004 0.048 -0.019 -0.205" />
    <path class="write-flat-pen" fill="#FFFFFF" stroke-width="1.6" __comx="464.682" __comy="45.747" __timestamp="0x177f60d036a" d="M465.216 43.924 l-0.319 -0.501 -0.07 -0.096 -0.486 -0.395 -0.255 -0.103 -1.421 0.068 -0.405 0.179 -1.348 0.984 -0.996 1.299 -0.979 2.121 -0.606 2.734 0.083 1.584 0.517 1.439 1.088 1.208 1.686 0.735 2.021 0.174 3.98 -1.045 0.605 -0.292 0.52 -0.297 0.462 -0.312 0.399 -0.321 1.345 -1.062 -0.104 -0.191 -1.62 0.561 -0.47 0.155 -0.494 0.167 -0.527 0.182 -0.522 0.176 -3.688 0.841 -1.559 -0.13 -1.201 -0.511 -0.714 -0.772 -0.374 -0.99 -0.088 -1.203 0.479 -2.437 0.815 -1.897 0.781 -1.089 1.08 -0.875 0.126 -0.072 1.02 -0.189 -0.023 -0.022 0.398 0.161 0.013 -0.003 0.435 0.387" />
    <path class="write-flat-pen" fill="#FFFFFF" stroke-width="1.6" __comx="477.489" __comy="45.747" __timestamp="0x177f60d0524" d="M476.453 32.4 l-0.15 0.32 -0.017 0.114 -0.038 0.73 0.006 0.302 0.078 1.267 0.035 0.556 0.305 2.833 0.112 0.846 0.391 4.671 0.339 9.246 0.118 0.217 0.393 0.488 0.417 -0.329 0.287 -0.411 -0.341 -0.488 -0.484 0.128 0.366 -0.294 0.347 0.423 0.073 0.071 -0.217 -9.132 -0.496 -4.735 -0.144 -0.866 -0.454 -2.79 -0.082 -0.543 -0.225 -1.246 -0.05 -0.276 -0.131 -0.684 -0.016 -0.032 -0.016 -0.296" />
    <path class="write-flat-pen" fill="#FFFFFF" stroke-width="1.6" __comx="479.36" __comy="45.747" __timestamp="0x177f60d062d" d="M472.175 44.537 l-0.209 -0.44 0 0 -0.217 0.623 0.083 -0.012 2.566 -0.255 8.438 -0.007 0.617 0.016 0.598 0.006 0.62 -0.005 0.586 -0.014 0.569 -0.017 1.59 -0.047 0 0 -1.57 -0.258 -0.561 -0.092 -0.575 -0.097 -0.609 -0.102 -0.591 -0.089 -0.639 -0.086 -8.527 -0.16 -2.68 0.388 -0.141 0.053 -0.217 0.623 0 0 0.345 0.343" />
    <path class="write-flat-pen" fill="#FFFFFF" stroke-width="1.6" __comx="490.893" __comy="45.747" __timestamp="0x177f60d077a" d="M489.893 44.829 l-0.047 0.587 0.014 0.224 0.103 0.809 0.05 0.329 0.466 2.738 0.059 0.449 0.412 3.162 0.082 0.102 0.907 -0.243 -0.066 -0.083 -0.126 -0.153 -0.325 -0.552 -0.03 0.002 -0.253 0.588 -0.108 0.137 -0.068 0.051 0.907 -0.243 0.063 0.068 -0.241 -2.983 -0.082 -0.501 -0.644 -2.74 -0.092 -0.33 -0.25 -0.77 -0.062 -0.158 -0.124 -0.53" />
    <path class="write-flat-pen" fill="#FFFFFF" stroke-width="1.6" __comx="491.325" __comy="45.747" __timestamp="0x177f60d0817" d="M491.305 35.222 l-0.345 0.462 -0.061 0.207 0.012 1.66 0.059 0.33 0.093 0.352 0.394 1.48 0.031 -0.004 -0.031 -1.532 -0.006 -0.35 0.008 -0.288 0.137 -1.554 0.002 -0.06 0.153 -0.463" />
    <path class="write-flat-pen" fill="#FFFFFF" stroke-width="1.6" __comx="500.403" __comy="45.747" __timestamp="0x177f60d096a" d="M495.618 43.047 l0.192 0.213 -0.021 0.009 0.127 0.356 0.059 0.154 0.399 1.118 0.129 0.375 0.944 3.109 0.129 0.434 0.726 2.139 0.705 0.937 1.095 0.261 0.899 -0.44 1.01 -1.278 1.572 -3.425 1.581 -5.039 0.025 -0.262 -0.006 -0.481 -0.006 -0.095 -0.034 -0.138 -0.465 -1.629 -0.047 -0.001 -0.53 1.609 -0.038 0.095 -0.017 0.023 -0.135 0.413 -0.046 0.141 -1.665 4.824 -1.453 3.201 -0.684 0.903 -0.148 0.089 -0.125 -0.008 -0.297 -0.352 -0.713 -1.892 -0.139 -0.415 -1.109 -3.095 -0.18 -0.408 -0.57 -1.105 -0.12 -0.179 -0.272 -0.332 -0.107 -0.106 -0.363 -0.164" />
    <path class="write-flat-pen" fill="#FFFFFF" stroke-width="1.6" __comx="512.461" __comy="45.747" __timestamp="0x177f60d0b5c" d="M506.794 45.329 l-0.017 0.388 0.018 0.076 0.193 0.438 0.11 0.129 0.47 0.403 0.229 0.126 0.701 0.279 0.345 0.083 1.359 0.016 0.479 -0.087 2.928 -1.201 0.393 -0.271 1.052 -1.006 0.713 -1.273 0.102 -1.24 -0.441 -0.894 -1.091 -0.658 -1.558 -0.058 -1.594 0.633 -1.013 0.887 -1.164 1.699 -0.779 1.822 -0.445 2.033 0.083 1.587 0.667 1.807 0.896 1.129 1.226 0.799 1.571 0.404 1.667 -0.148 1.929 -0.887 0.443 -0.366 0.373 -0.394 0.313 -0.422 0.269 -0.448 0.212 -0.436 0.712 -1.469 -0.049 -0.037 -1.227 1.077 -0.348 0.3 -0.358 0.284 -0.356 0.25 -0.368 0.234 -0.318 0.178 -1.607 0.622 -1.162 0.1 -1.075 -0.268 -0.814 -0.518 -0.605 -0.74 -0.531 -1.362 -0.081 -1.164 0.356 -1.708 0.665 -1.566 0.98 -1.433 0.69 -0.602 1.081 -0.417 0.871 0.05 0.39 0.248 0.064 0.139 -0.043 0.508 -0.443 0.806 -0.795 0.795 -0.174 0.13 -2.608 1.241 -0.241 0.068 -1.125 0.119 -0.174 -0.011 -0.628 -0.116 -0.129 -0.03 -0.442 -0.189 -0.03 -0.005 -0.248 -0.226 0.003 0.031 -0.138 -0.324" />
    <path class="write-flat-pen" fill="#FFFFFF" stroke-width="1.6" __comx="532.562" __comy="45.747" __timestamp="0x177f60d0f1f" d="M525.744 29.51 l0.062 -0.581 0.015 -0.071 0.187 -0.708 0.049 -0.136 0.496 -1.075 0.101 -0.186 1.214 -1.763 0.187 -0.205 1.197 -1.024 1.498 -0.789 1.62 -0.4 1.477 -0.053 0.891 0.206 0.986 0.599 0.721 0.986 0.44 1.549 0.084 1.413 -0.339 2.229 -2.864 8.781 -0.437 2.181 0.095 1.605 0.586 1.033 1.979 0.778 0.602 -0.038 0.496 -0.109 0.501 -0.17 0.486 -0.206 0.473 -0.241 1.415 -0.721 -0.017 -0.06 -1.582 0.144 -0.509 0.043 -0.479 0.024 -0.456 0.003 -0.393 -0.017 -0.243 -0.043 -1.172 -0.603 -0.144 -0.271 -0.063 -1.046 0.37 -1.899 2.775 -8.838 0.371 -2.498 -0.113 -1.723 -0.571 -1.942 -1.054 -1.403 -1.419 -0.847 -1.289 -0.292 -1.805 0.077 -1.918 0.501 -1.758 0.979 -1.333 1.23 -0.284 0.351 -1.148 1.986 -0.119 0.291 -0.38 1.219 -0.039 0.237 -0.027 0.818 0.016 0.123 0.084 0.581" />
    <path class="write-flat-pen" fill="#FFFFFF" stroke-width="1.6" __comx="540.582" __comy="45.747" __timestamp="0x177f60d1198" d="M540.403 52.135 l-0.121 0.3 -0.017 0.066 -0.1 0.459 -0.007 0.028 -0.112 0.305 0.043 -0.158 0.194 -0.179 0.237 0.118 -0.231 -0.338 0.229 0.23 0.014 0.283 -0.294 0.119 0.368 -0.049 -0.455 -0.307 0.08 -0.205 -0.414 0.35 0.186 0.14 -0.754 0.294 -0.04 0.121 0.43 0.686 0.339 0.19 1.414 -0.752 0.582 -1.32 -1.049 -0.726 -1.074 0.253 -0.459 0.182 -0.197 1.092 0.263 0.265 0.455 0.313 0.315 0.162 0.492 -0.31 0.086 -0.264 -0.035 -0.455 -0.005 -0.048 -0.065 -0.455 -0.01 -0.046 -0.036 -0.307" />
  </g>
</svg>
