<svg class="write-page" color-interpolation="linearRGB" width="982px" height="1584px" xmlns="http://www.w3.org/2000/svg" xmlns:xlink="http://www.w3.org/1999/xlink">
  <g class="write-content write-v3" width="982" height="1584" xruling="30" yruling="30" marginLeft="30" papercolor="#000000" rulecolor="#0D9D00FF">
    <g class="ruleline write-std-ruling write-scale-down" fill="none" stroke="#9D00FF" stroke-opacity="0.051" stroke-width="1" shape-rendering="crispEdges" vector-effect="non-scaling-stroke">
      <rect class="pagerect" fill="#000000" stroke="none" x="0" y="0" width="982" height="1584" />
      <path class="yrule_1" d="M0 30 l982 0" />
      <path d="M0 60 l982 0" />
      <path d="M0 90 l982 0" />
      <path d="M0 120 l982 0" />
      <path d="M0 150 l982 0" />
      <path d="M0 180 l982 0" />
      <path d="M0 210 l982 0" />
      <path d="M0 240 l982 0" />
      <path d="M0 270 l982 0" />
      <path d="M0 300 l982 0" />
      <path d="M0 330 l982 0" />
      <path d="M0 360 l982 0" />
      <path d="M0 390 l982 0" />
      <path d="M0 420 l982 0" />
      <path d="M0 450 l982 0" />
      <path d="M0 480 l982 0" />
      <path d="M0 510 l982 0" />
      <path d="M0 540 l982 0" />
      <path d="M0 570 l982 0" />
      <path d="M0 600 l982 0" />
      <path d="M0 630 l982 0" />
      <path d="M0 660 l982 0" />
      <path d="M0 690 l982 0" />
      <path d="M0 720 l982 0" />
      <path d="M0 750 l982 0" />
      <path d="M0 780 l982 0" />
      <path d="M0 810 l982 0" />
      <path d="M0 840 l982 0" />
      <path d="M0 870 l982 0" />
      <path d="M0 900 l982 0" />
      <path d="M0 930 l982 0" />
      <path d="M0 960 l982 0" />
      <path d="M0 990 l982 0" />
      <path d="M0 1020 l982 0" />
      <path d="M0 1050 l982 0" />
      <path d="M0 1080 l982 0" />
      <path d="M0 1110 l982 0" />
      <path d="M0 1140 l982 0" />
      <path d="M0 1170 l982 0" />
      <path d="M0 1200 l982 0" />
      <path d="M0 1230 l982 0" />
      <path d="M0 1260 l982 0" />
      <path d="M0 1290 l982 0" />
      <path d="M0 1320 l982 0" />
      <path d="M0 1350 l982 0" />
      <path d="M0 1380 l982 0" />
      <path d="M0 1410 l982 0" />
      <path d="M0 1440 l982 0" />
      <path d="M0 1470 l982 0" />
      <path d="M0 1500 l982 0" />
      <path d="M0 1530 l982 0" />
      <path d="M0 1560 l982 0" />
      <path class="xrule_1" d="M30 0 l0 1584" />
      <path d="M60 0 l0 1584" />
      <path d="M90 0 l0 1584" />
      <path d="M120 0 l0 1584" />
      <path d="M150 0 l0 1584" />
      <path d="M180 0 l0 1584" />
      <path d="M210 0 l0 1584" />
      <path d="M240 0 l0 1584" />
      <path d="M270 0 l0 1584" />
      <path d="M300 0 l0 1584" />
      <path d="M330 0 l0 1584" />
      <path d="M360 0 l0 1584" />
      <path d="M390 0 l0 1584" />
      <path d="M420 0 l0 1584" />
      <path d="M450 0 l0 1584" />
      <path d="M480 0 l0 1584" />
      <path d="M510 0 l0 1584" />
      <path d="M540 0 l0 1584" />
      <path d="M570 0 l0 1584" />
      <path d="M600 0 l0 1584" />
      <path d="M630 0 l0 1584" />
      <path d="M660 0 l0 1584" />
      <path d="M690 0 l0 1584" />
      <path d="M720 0 l0 1584" />
      <path d="M750 0 l0 1584" />
      <path d="M780 0 l0 1584" />
      <path d="M810 0 l0 1584" />
      <path d="M840 0 l0 1584" />
      <path d="M870 0 l0 1584" />
      <path d="M900 0 l0 1584" />
      <path d="M930 0 l0 1584" />
      <path d="M960 0 l0 1584" />
      <path class="leftmargin" stroke="#FF0000" d="M30 0 l0 1584" />
    </g>
    <path class="write-chisel-pen" fill="#8F3AC9" fill-opacity="0.318" stroke-width="34" __comx="333.368" __comy="48.089" __timestamp="0x177d04538b6" d="M449.698 72.017 l8.5 0 0 -34 -15.23 -0.914 -8.5 0 0 34 15.23 0.914 m-15.23 -0.914 l8.5 0 0 -34 -75.628 -0.337 -8.5 0 0 34 75.628 0.337 m-75.628 -0.337 l8.5 0 0 -34 -20.238 -0.874 -8.5 0 0 34 20.238 0.874 m-20.238 -0.874 l8.5 0 0 -34 -71.403 -6.533 -8.5 0 0 34 71.403 6.533 m-71.403 -6.533 l8.5 0 0 -34 -23.823 -1.14 -8.5 0 0 34 23.823 1.14 m-23.823 -1.14 l8.5 0 0 -34 -21.574 -0.301 -8.5 0 0 34 21.574 0.301 m-13.074 -0.301 l0 -34 -8.5 0 -15.131 0.465 0 34 8.5 0 15.131 -0.465 m-15.131 0.465 l0 -34 -8.5 0 -13.338 1.244 0 34 8.5 0 13.338 -1.244 m-13.338 1.244 l0 -34 -8.5 0 -14.976 2.321 0 34 8.5 0 14.976 -2.321 m-14.976 2.321 l0 -34 -8.5 0 -10.674 2.411 0 34 8.5 0 10.674 -2.411 m-10.674 2.411 l0 -34 -8.5 0 -5.384 2.028 0 34 8.5 0 5.384 -2.028 m-5.384 2.028 l0 -34 -8.5 0 -2.503 1.678 0 34 8.5 0 2.503 -1.678 m-2.503 1.678 l0 -34 -8.5 0 -0.83 1.267 0 34 8.5 0 0.83 -1.267 m-0.83 1.267 l0 -34 -8.5 0 -0.053 1.904 0 34 8.5 0 0.053 -1.904 m-0.053 -32.096 l-8.5 0 0 34 2.115 2.573 8.5 0 0 -34 -2.115 -2.573 m2.115 2.573 l-8.5 0 0 34 4.682 2.372 8.5 0 0 -34 -4.682 -2.372 m4.682 2.372 l-8.5 0 0 34 7.089 1.871 8.5 0 0 -34 -7.089 -1.871 m7.089 1.871 l-8.5 0 0 34 8.676 1.3 8.5 0 0 -34 -8.676 -1.3 m8.676 1.3 l-8.5 0 0 34 15.462 1.12 8.5 0 0 -34 -15.462 -1.12 m15.462 1.12 l-8.5 0 0 34 23.893 0.635 8.5 0 0 -34 -23.893 -0.635 m15.393 0.635 l0 34 8.5 0 34.684 -0.019 0 -34 -8.5 0 -34.684 0.019 m34.684 -0.019 l0 34 8.5 0 91.674 -2.424 0 -34 -8.5 0 -91.674 2.424 m91.674 -2.424 l0 34 8.5 0 46.832 -0.689 0 -34 -8.5 0 -46.832 0.689 m55.332 -0.689 l-8.5 0 0 34 29.733 0.273 8.5 0 0 -34 -29.733 -0.273 m29.733 0.273 l-8.5 0 0 34 47.756 1.595 8.5 0 0 -34 -47.756 -1.595 m47.756 1.595 l-8.5 0 0 34 34.321 0.295 8.5 0 0 -34 -34.321 -0.295 m25.821 0.295 l0 34 8.5 0 14.012 -0.472 0 -34 -8.5 0 -14.012 0.472 m14.012 -0.472 l0 34 8.5 0 16.765 -1.462 0 -34 -8.5 0 -16.765 1.462 m16.765 -1.462 l0 34 8.5 0 8.069 -1.282 0 -34 -8.5 0 -8.069 1.282 m8.069 -1.282 l0 34 8.5 0 1.459 -0.764 0 -34 -8.5 0 -1.459 0.764 m1.459 33.236 l8.5 0 0 -34 -0.717 -0.95 -8.5 0 0 34 0.717 0.95 m-0.717 -0.95 l8.5 0 0 -34 -5.678 -1.644 -8.5 0 0 34 5.678 1.644 m-5.678 -1.644 l8.5 0 0 -34 -10.799 -1.627 -8.5 0 0 34 10.799 1.627 m-10.799 -1.627 l8.5 0 0 -34 -26.979 -2.613 -8.5 0 0 34 26.979 2.613 m-26.979 -2.613 l8.5 0 0 -34 -53.55 -3.418 -8.5 0 0 34 53.55 3.418 m-53.55 -3.418 l8.5 0 0 -34 -45.386 -2.35 -8.5 0 0 34 45.386 2.35 m-45.386 -2.35 l8.5 0 0 -34 -56.562 -2.004 -8.5 0 0 34 56.562 2.004 m-56.562 -2.004 l8.5 0 0 -34 -27.936 -0.405 -8.5 0 0 34 27.936 0.405 m-19.436 -0.405 l0 -34 -8.5 0 -54.018 0.274 0 34 8.5 0 54.018 -0.274 m-54.018 0.274 l0 -34 -8.5 0 -32.556 1.523 0 34 8.5 0 32.556 -1.523 m-32.556 1.523 l0 -34 -8.5 0 -28.212 2.317 0 34 8.5 0 28.212 -2.317 m-28.212 2.317 l0 -34 -8.5 0 -27.006 3.083 0 34 8.5 0 27.006 -3.083 m-27.006 3.083 l0 -34 -8.5 0 -13.852 2.17 0 34 8.5 0 13.852 -2.17 m-13.852 2.17 l0 -34 -8.5 0 -7.057 1.758 0 34 8.5 0 7.057 -1.758 m-7.057 1.758 l0 -34 -8.5 0 -1.11 0.763 0 34 8.5 0 1.11 -0.763 m-1.11 -33.237 l-8.5 0 0 34 0.726 0.761 8.5 0 0 -34 -0.726 -0.761 m0.726 0.761 l-8.5 0 0 34 3.808 0.664 8.5 0 0 -34 -3.808 -0.664 m3.808 0.664 l-8.5 0 0 34 14.689 0.344 8.5 0 0 -34 -14.689 -0.344 m6.189 0.344 l0 34 8.5 0 72.706 -1.756 0 -34 -8.5 0 -72.706 1.756 m72.706 -1.756 l0 34 8.5 0 68.349 -0.758 0 -34 -8.5 0 -68.349 0.758 m76.849 -0.758 l-8.5 0 0 34 74.657 0.227 8.5 0 0 -34 -74.657 -0.227 m74.657 0.227 l-8.5 0 0 34 57.855 0.861 8.5 0 0 -34 -57.855 -0.861 m57.855 0.861 l-8.5 0 0 34 83.287 0.26 8.5 0 0 -34 -83.287 -0.26 m74.787 0.26 l0 34 8.5 0 56.737 -0.613 0 -34 -8.5 0 -56.737 0.613 m56.737 -0.613 l0 34 8.5 0 24.9 -0.798 0 -34 -8.5 0 -24.9 0.798 m24.9 -0.798 l0 34 8.5 0 6.884 -0.766 0 -34 -8.5 0 -6.884 0.766 m6.884 -0.766 l0 34 8.5 0 1.732 -0.677 0 -34 -8.5 0 -1.732 0.677 m1.732 33.323 l8.5 0 0 -34 -0.393 -0.821 -8.5 0 0 34 0.393 0.821 m-0.393 -0.821 l8.5 0 0 -34 -5.728 -1.811 -8.5 0 0 34 5.728 1.811 m-5.728 -1.811 l8.5 0 0 -34 -15.731 -2.733 -8.5 0 0 34 15.731 2.733 m-15.731 -2.733 l8.5 0 0 -34 -16.888 -1.941 -8.5 0 0 34 16.888 1.941 m-16.888 -1.941 l8.5 0 0 -34 -35.998 -2.746 -8.5 0 0 34 35.998 2.746 m-35.998 -2.746 l8.5 0 0 -34 -25.599 -1.378 -8.5 0 0 34 25.599 1.378 m-25.599 -1.378 l8.5 0 0 -34 -45.465 -1.234 -8.5 0 0 34 45.465 1.234 m-45.465 -1.234 l8.5 0 0 -34 -38.407 -0.267 -8.5 0 0 34 38.407 0.267 m-29.907 -0.267 l0 -34 -8.5 0 -27.588 0.412 0 34 8.5 0 27.588 -0.412 m-27.588 0.412 l0 -34 -8.5 0 -26.161 1.306 0 34 8.5 0 26.161 -1.306 m-26.161 1.306 l0 -34 -8.5 0 -30.934 2.372 0 34 8.5 0 30.934 -2.372 m-30.934 2.372 l0 -34 -8.5 0 -24.304 2.549 0 34 8.5 0 24.304 -2.549 m-24.304 2.549 l0 -34 -8.5 0 -16.215 2.597 0 34 8.5 0 16.215 -2.597 m-16.215 2.597 l0 -34 -8.5 0 -8.096 1.91 0 34 8.5 0 8.096 -1.91 m-8.096 1.91 l0 -34 -8.5 0 -2.258 1.074 0 34 8.5 0 2.258 -1.074 m-2.258 1.074 l0 -34 -8.5 0 -0.407 1.169 0 34 8.5 0 0.407 -1.169 m-0.407 -32.831 l-8.5 0 0 34 1.537 1.297 8.5 0 0 -34 -1.537 -1.297 m1.537 1.297 l-8.5 0 0 34 4.264 0.964 8.5 0 0 -34 -4.264 -0.964 m4.264 0.964 l-8.5 0 0 34 10.074 0.717 8.5 0 0 -34 -10.074 -0.717 m10.074 0.717 l-8.5 0 0 34 243.63 1.695 8.5 0 0 -34 -243.63 -1.695 m235.13 1.695 l0 34 8.5 0 42.154 -0.192 0 -34 -8.5 0 -42.154 0.192 m42.154 -0.192 l0 34 8.5 0 16.633 -0.617 0 -34 -8.5 0 -16.633 0.617 m16.633 -0.617 l0 34 8.5 0 10.681 -1.1 0 -34 -8.5 0 -10.681 1.1 m10.681 -1.1 l0 34 8.5 0 4.768 -1.005 0 -34 -8.5 0 -4.768 1.005 m4.768 -1.005 l0 34 8.5 0 0.771 -0.856 0 -34 -8.5 0 -0.771 0.856 m0.771 33.144 l8.5 0 0 -34 -0.844 -1.388 -8.5 0 0 34 0.844 1.388 m-0.844 -1.388 l8.5 0 0 -34 -3.842 -1.742 -8.5 0 0 34 3.842 1.742 m-3.842 -1.742 l8.5 0 0 -34 -10.718 -2.617 -8.5 0 0 34 10.718 2.617 m-10.718 -2.617 l8.5 0 0 -34 -15.276 -2.457 -8.5 0 0 34 15.276 2.457 m-15.276 -2.457 l8.5 0 0 -34 -19.28 -2.101 -8.5 0 0 34 19.28 2.101 m-19.28 -2.101 l8.5 0 0 -34 -29.844 -2.355 -8.5 0 0 34 29.844 2.355 m-29.844 -2.355 l8.5 0 0 -34 -16.518 -0.755 -8.5 0 0 34 16.518 0.755 m-16.518 -0.755 l8.5 0 0 -34 -34.748 -0.443 -8.5 0 0 34 34.748 0.443 m-26.248 -0.443 l0 -34 -8.5 0 -54.178 0.288 0 34 8.5 0 54.178 -0.288 m-54.178 0.288 l0 -34 -8.5 0 -18.171 0.676 0 34 8.5 0 18.171 -0.676 m-18.171 0.676 l0 -34 -8.5 0 -44.073 2.855 0 34 8.5 0 44.073 -2.855 m-44.073 2.855 l0 -34 -8.5 0 -32.402 2.913 0 34 8.5 0 32.402 -2.913 m-32.402 2.913 l0 -34 -8.5 0 -34.115 4.195 0 34 8.5 0 34.115 -4.195 m-34.115 4.195 l0 -34 -8.5 0 -20.426 3.379 0 34 8.5 0 20.426 -3.379 m-20.426 3.379 l0 -34 -8.5 0 -10.441 2.326 0 34 8.5 0 10.441 -2.326 m-10.441 2.326 l0 -34 -8.5 0 -9.79 2.947 0 34 8.5 0 9.79 -2.947 m-9.79 2.947 l0 -34 -8.5 0 -0.924 0.913 0 34 8.5 0 0.924 -0.913 m-0.924 -33.087 l-8.5 0 0 34 1.354 0.803 8.5 0 0 -34 -1.354 -0.803 m1.354 0.803 l-8.5 0 0 34 7.508 0.596 8.5 0 0 -34 -7.508 -0.596 m-0.992 0.596 l0 34 8.5 0 16.519 -0.389 0 -34 -8.5 0 -16.519 0.389 m16.519 -0.389 l0 34 8.5 0 21.793 -1.487 0 -34 -8.5 0 -21.793 1.487 m21.793 -1.487 l0 34 8.5 0 156.527 -15.785 0 -34 -8.5 0 -156.527 15.785 m156.527 -15.785 l0 34 8.5 0 8.414 -1.34 0 -34 -8.5 0 -8.414 1.34 m8.414 -1.34 l0 34 8.5 0 2.981 -0.992 0 -34 -8.5 0 -2.981 0.992 m2.981 -0.992 l0 34 8.5 0 0.373 -0.8 0 -34 -8.5 0 -0.373 0.8 m0.373 33.2 l8.5 0 0 -34 -1.552 -1.166 -8.5 0 0 34 1.552 1.166 m-1.552 -1.166 l8.5 0 0 -34 -4.69 -1.089 -8.5 0 0 34 4.69 1.089 m-4.69 -1.089 l8.5 0 0 -34 -16.995 -1.623 -8.5 0 0 34 16.995 1.623 m-16.995 -1.623 l8.5 0 0 -34 -24.151 -1.321 -8.5 0 0 34 24.151 1.321 m-24.151 -1.321 l8.5 0 0 -34 -46.02 -1.32 -8.5 0 0 34 46.02 1.32 m-46.02 -1.32 l8.5 0 0 -34 -44.754 -0.509 -8.5 0 0 34 44.754 0.509 m-36.254 -0.509 l0 -34 -8.5 0 -65.41 0.161 0 34 8.5 0 65.41 -0.161 m-65.41 0.161 l0 -34 -8.5 0 -151.056 4.241 0 34 8.5 0 151.056 -4.241 m-151.056 4.241 l0 -34 -8.5 0 -38.202 0.227 0 34 8.5 0 38.202 -0.227 m-46.702 0.227 l8.5 0 0 -34 -18.155 -1.024 -8.5 0 0 34 18.155 1.024 m-18.155 -1.024 l8.5 0 0 -34 -8.904 -1.143 -8.5 0 0 34 8.904 1.143 m-8.904 -1.143 l8.5 0 0 -34 -5.682 -1.392 -8.5 0 0 34 5.682 1.392 m-5.682 -35.392 l0 34 8.5 0 0.186 -0.568 0 -34 -8.5 0 -0.186 0.568 m0.186 -0.568 l0 34 8.5 0 4.775 -0.515 0 -34 -8.5 0 -4.775 0.515 m13.275 -0.515 l-8.5 0 0 34 73.164 0.186 8.5 0 0 -34 -73.164 -0.186 m64.664 0.186 l0 34 8.5 0 85.457 -2.122 0 -34 -8.5 0 -85.457 2.122 m85.457 -2.122 l0 34 8.5 0 30.012 -0.008 0 -34 -8.5 0 -30.012 0.008 m38.512 -0.008 l-8.5 0 0 34 20.337 0.716 8.5 0 0 -34 -20.337 -0.716 m20.337 34.716 l0 -34 -8.5 0 -37.188 0.83 0 34 8.5 0 37.188 -0.83 m-45.688 0.83 l8.5 0 0 -34 -124.392 -0.158 -8.5 0 0 34 124.392 0.158 m-115.892 -0.158 l0 -34 -8.5 0 -34.029 0.74 0 34 8.5 0 34.029 -0.74 m-34.029 0.74 l0 -34 -8.5 0 -28.279 1.576 0 34 8.5 0 28.279 -1.576 m-28.279 1.576 l0 -34 -8.5 0 -23.453 2.141 0 34 8.5 0 23.453 -2.141 m-23.453 2.141 l0 -34 -8.5 0 -10.53 1.625 0 34 8.5 0 10.53 -1.625 m-10.53 1.625 l0 -34 -8.5 0 -2.35 0.873 0 34 8.5 0 2.35 -0.873 m-2.35 0.873 l0 -34 -8.5 0 -0.548 1.154 0 34 8.5 0 0.548 -1.154 m-0.548 -32.846 l-8.5 0 0 34 0.978 1.123 8.5 0 0 -34 -0.978 -1.123 m0.978 1.123 l-8.5 0 0 34 5.315 1.664 8.5 0 0 -34 -5.315 -1.664 m5.315 1.664 l-8.5 0 0 34 12.075 1.797 8.5 0 0 -34 -12.075 -1.797 m12.075 1.797 l-8.5 0 0 34 15.525 1.483 8.5 0 0 -34 -15.525 -1.483 m15.525 1.483 l-8.5 0 0 34 31.845 1.528 8.5 0 0 -34 -31.845 -1.528 m31.845 1.528 l-8.5 0 0 34 25.532 0.203 8.5 0 0 -34 -25.532 -0.203 m17.032 0.203 l0 34 8.5 0 31.346 -0.983 0 -34 -8.5 0 -31.346 0.983 m31.346 -0.983 l0 34 8.5 0 57.521 -3.924 0 -34 -8.5 0 -57.521 3.924 m57.521 -3.924 l0 34 8.5 0 10.816 -1.434 0 -34 -8.5 0 -10.816 1.434 m10.816 -1.434 l0 34 8.5 0 1.173 -0.585 0 -34 -8.5 0 -1.173 0.585 m1.173 33.415 l8.5 0 0 -34 -0.832 -0.548 -8.5 0 0 34 0.832 0.548 m-0.832 -0.548 l8.5 0 0 -34 -5.403 -0.55 -8.5 0 0 34 5.403 0.55 m-5.403 -0.55 l8.5 0 0 -34 -16.599 -0.105 -8.5 0 0 34 16.599 0.105 m-8.099 -0.105 l0 -34 -8.5 0 -13.419 0.872 0 34 8.5 0 13.419 -0.872 m-13.419 0.872 l0 -34 -8.5 0 -32.013 3.277 0 34 8.5 0 32.013 -3.277 m-32.013 3.277 l0 -34 -8.5 0 -44.405 6.129 0 34 8.5 0 44.405 -6.129 m-44.405 6.129 l0 -34 -8.5 0 -27.596 4.455 0 34 8.5 0 27.596 -4.455 m-27.596 4.455 l0 -34 -8.5 0 -22.792 4.552 0 34 8.5 0 22.792 -4.552 m-22.792 4.552 l0 -34 -8.5 0 -7.825 2.044 0 34 8.5 0 7.825 -2.044 m-7.825 2.044 l0 -34 -8.5 0 -1.28 0.795 0 34 8.5 0 1.28 -0.795 m-1.28 0.795 l0 -34 -8.5 0 -0.054 0.735 0 34 8.5 0 0.054 -0.735 m-0.054 -33.265 l-8.5 0 0 34 1.527 0.724 8.5 0 0 -34 -1.527 -0.724 m1.527 0.724 l-8.5 0 0 34 7.683 0.854 8.5 0 0 -34 -7.683 -0.854 m7.683 0.854 l-8.5 0 0 34 31.258 1.322 8.5 0 0 -34 -31.258 -1.322 m31.258 1.322 l-8.5 0 0 34 39.373 0.384 8.5 0 0 -34 -39.373 -0.384 m30.873 0.384 l0 34 8.5 0 99.293 -2.419 0 -34 -8.5 0 -99.293 2.419 m99.293 -2.419 l0 34 8.5 0 17.006 -0.84 0 -34 -8.5 0 -17.006 0.84 m17.006 -0.84 l0 34 8.5 0 5.421 -0.866 0 -34 -8.5 0 -5.421 0.866 m5.421 -0.866 l0 34 8.5 0 1.689 -0.765 0 -34 -8.5 0 -1.689 0.765 m1.689 33.235 l8.5 0 0 -34 -0.028 -0.898 -8.5 0 0 34 0.028 0.898 m-0.028 -0.898 l8.5 0 0 -34 -1.956 -1.112 -8.5 0 0 34 1.956 1.112 m-1.956 -1.112 l8.5 0 0 -34 -6.658 -1.541 -8.5 0 0 34 6.658 1.541 m-6.658 -1.541 l8.5 0 0 -34 -18.511 -1.914 -8.5 0 0 34 18.511 1.914 m-18.511 -1.914 l8.5 0 0 -34 -24.095 -0.585 -8.5 0 0 34 24.095 0.585 m-15.595 -0.585 l0 -34 -8.5 0 -34.065 0.186 0 34 8.5 0 34.065 -0.186 m-34.065 0.186 l0 -34 -8.5 0 -35.208 1.643 0 34 8.5 0 35.208 -1.643 m-35.208 1.643 l0 -34 -8.5 0 -73.305 2.325 0 34 8.5 0 73.305 -2.325 m-81.805 2.325 l8.5 0 0 -34 -16.072 -0.045 -8.5 0 0 34 16.072 0.045 m-16.072 -0.045 l8.5 0 0 -34 -8.949 -0.746 -8.5 0 0 34 8.949 0.746 m-8.949 -34.746 l0 34 8.5 0 2.604 -0.536 0 -34 -8.5 0 -2.604 0.536 m2.604 -0.536 l0 34 8.5 0 71.707 -1.925 0 -34 -8.5 0 -71.707 1.925 m71.707 -1.925 l0 34 8.5 0 49.63 -2.324 0 -34 -8.5 0 -49.63 2.324 m49.63 -2.324 l0 34 8.5 0 55.901 -3.609 0 -34 -8.5 0 -55.901 3.609 m55.901 -3.609 l0 34 8.5 0 10.771 -1.252 0 -34 -8.5 0 -10.771 1.252 m10.771 -1.252 l0 34 8.5 0 0.473 -0.44 0 -34 -8.5 0 -0.473 0.44 m0.473 33.56 l8.5 0 0 -34 -0.737 -0.852 -8.5 0 0 34 0.737 0.852 m-0.737 -0.852 l8.5 0 0 -34 -5.291 -1.252 -8.5 0 0 34 5.291 1.252 m-5.291 -1.252 l8.5 0 0 -34 -13.243 -0.866 -8.5 0 0 34 13.243 0.866 m-13.243 -0.866 l8.5 0 0 -34 -34.325 -0.057 -8.5 0 0 34 34.325 0.057 m-25.825 -0.057 l0 -34 -8.5 0 -23.16 0.689 0 34 8.5 0 23.16 -0.689 m-23.16 0.689 l0 -34 -8.5 0 -82.716 5.722 0 34 8.5 0 82.716 -5.722 m-82.716 5.722 l0 -34 -8.5 0 -14.85 0.587 0 34 8.5 0 14.85 -0.587 m-23.35 0.587 l8.5 0 0 -34 -10.849 -0.182 -8.5 0 0 34 10.849 0.182 m-10.849 -0.182 l8.5 0 0 -34 -2.43 -0.588 -8.5 0 0 34 2.43 0.588 m-2.43 -34.588 l0 34 8.5 0 0.882 -0.747 0 -34 -8.5 0 -0.882 0.747 m0.882 -0.747 l0 34 8.5 0 5.62 -0.843 0 -34 -8.5 0 -5.62 0.843 m5.62 -0.843 l0 34 8.5 0 24.675 -0.956 0 -34 -8.5 0 -24.675 0.956 m24.675 -0.956 l0 34 8.5 0 106.285 -2.149 0 -34 -8.5 0 -106.285 2.149 m106.285 -2.149 l0 34 8.5 0 53.581 -0.278 0 -34 -8.5 0 -53.581 0.278 m62.081 -0.278 l-8.5 0 0 34 67.051 1.334 8.5 0 0 -34 -67.051 -1.334 m67.051 1.334 l-8.5 0 0 34 60.098 0.214 8.5 0 0 -34 -60.098 -0.214 m51.598 0.214 l0 34 8.5 0 68.723 -0.74 0 -34 -8.5 0 -68.723 0.74 m68.723 -0.74 l0 34 8.5 0 22.905 -0.781 0 -34 -8.5 0 -22.905 0.781 m22.905 -0.781 l0 34 8.5 0 12.83 -1.081 0 -34 -8.5 0 -12.83 1.081 m12.83 -1.081 l0 34 8.5 0 11.011 -1.69 0 -34 -8.5 0 -11.011 1.69 m11.011 -1.69 l0 34 8.5 0 1.537 -0.685 0 -34 -8.5 0 -1.537 0.685 m1.537 33.315 l8.5 0 0 -34 -0.06 -0.547 -8.5 0 0 34 0.06 0.547 m-0.06 -0.547 l8.5 0 0 -34 -2.769 -0.784 -8.5 0 0 34 2.769 0.784 m-2.769 -0.784 l8.5 0 0 -34 -15.969 -0.373 -8.5 0 0 34 15.969 0.373 m-7.469 -0.373 l0 -34 -8.5 0 -20.404 0.642 0 34 8.5 0 20.404 -0.642 m-20.404 0.642 l0 -34 -8.5 0 -53.712 3.119 0 34 8.5 0 53.712 -3.119 m-53.712 3.119 l0 -34 -8.5 0 -105.235 4.693 0 34 8.5 0 105.235 -4.693 m-113.735 4.693 l8.5 0 0 -34 -2.898 -0.075 -8.5 0 0 34 2.898 0.075 m-2.898 -34.075 l0 34 8.5 0 1.119 -0.666 0 -34 -8.5 0 -1.119 0.666 m1.119 -0.666 l0 34 8.5 0 7.396 -1.175 0 -34 -8.5 0 -7.396 1.175 m7.396 -1.175 l0 34 8.5 0 16.324 -1.346 0 -34 -8.5 0 -16.324 1.346 m16.324 -1.346 l0 34 8.5 0 25.732 -1.15 0 -34 -8.5 0 -25.732 1.15 m25.732 -1.15 l0 34 8.5 0 41.408 -0.919 0 -34 -8.5 0 -41.408 0.919 m49.908 -0.919 l-8.5 0 0 34 37.899 0.129 8.5 0 0 -34 -37.899 -0.129 m37.899 0.129 l-8.5 0 0 34 81.17 2.018 8.5 0 0 -34 -81.17 -2.018 m72.67 2.018 l0 34 8.5 0 18.283 -0.024 0 -34 -8.5 0 -18.283 0.024 m18.283 -0.024 l0 34 8.5 0 11.488 -0.823 0 -34 -8.5 0 -11.488 0.823 m11.488 -0.823 l0 34 8.5 0 9.281 -1.497 0 -34 -8.5 0 -9.281 1.497 m9.281 -1.497 l0 34 8.5 0 1.885 -0.827 0 -34 -8.5 0 -1.885 0.827 m1.885 -0.827 l0 34 8.5 0 0.421 -0.829 0 -34 -8.5 0 -0.421 0.829 m0.421 33.171 l8.5 0 0 -34 -0.658 -1.115 -8.5 0 0 34 0.658 1.115 m-0.658 -1.115 l8.5 0 0 -34 -2.433 -1.219 -8.5 0 0 34 2.433 1.219 m-2.433 -1.219 l8.5 0 0 -34 -4.243 -1.041 -8.5 0 0 34 4.243 1.041 m-4.243 -1.041 l8.5 0 0 -34 -9.092 -0.872 -8.5 0 0 34 9.092 0.872 m-9.092 -0.872 l8.5 0 0 -34 -24.277 -0.635 -8.5 0 0 34 24.277 0.635 m-24.277 -0.635 l8.5 0 0 -34 -121.715 -0.534 -8.5 0 0 34 121.715 0.534 m-121.715 -34.534 l0 34 8.5 0 88.314 -4.161 0 -34 -8.5 0 -88.314 4.161 m88.314 -4.161 l0 34 8.5 0 26.193 -0.735 0 -34 -8.5 0 -26.193 0.735 m34.693 -0.735 l-8.5 0 0 34 76.202 0.245 8.5 0 0 -34 -76.202 -0.245 m67.702 0.245 l0 34 8.5 0 7.929 -0.438 0 -34 -8.5 0 -7.929 0.438 m7.929 -0.438 l0 34 8.5 0 3.297 -0.681 0 -34 -8.5 0 -3.297 0.681 m3.297 33.319 l8.5 0 0 -34 -0.163 -0.61 -8.5 0 0 34 0.163 0.61 m-0.163 -0.61 l8.5 0 0 -34 -4.266 -0.872 -8.5 0 0 34 4.266 0.872 m-4.266 -0.872 l8.5 0 0 -34 -11.608 -0.744 -8.5 0 0 34 11.608 0.744 m-11.608 -0.744 l8.5 0 0 -34 -87.413 -1.086 -8.5 0 0 34 87.413 1.086 m-78.913 -1.086 l0 -34 -8.5 0 -22 0.165 0 34 8.5 0 22 -0.165 m-22 0.165 l0 -34 -8.5 0 -9.892 0.621 0 34 8.5 0 9.892 -0.621 m-9.892 0.621 l0 -34 -8.5 0 -2.218 0.618 0 34 8.5 0 2.218 -0.618 m-2.218 -33.382 l-8.5 0 0 34 2.664 0.84 8.5 0 0 -34 -2.664 -0.84 m2.664 0.84 l-8.5 0 0 34 13.169 1.589 8.5 0 0 -34 -13.169 -1.589 m13.169 1.589 l-8.5 0 0 34 24.619 1.919 8.5 0 0 -34 -24.619 -1.919 m24.619 1.919 l-8.5 0 0 34 16.803 0.512 8.5 0 0 -34 -16.803 -0.512 m8.303 0.512 l0 34 8.5 0 59.786 -1.622 0 -34 -8.5 0 -59.786 1.622 m59.786 -1.622 l0 34 8.5 0 24.863 -0.174 0 -34 -8.5 0 -24.863 0.174 m33.363 -0.174 l-8.5 0 0 34 57.082 1.526 8.5 0 0 -34 -57.082 -1.526 m57.082 35.526 l0 -34 -8.5 0 -11.585 1.485 0 34 8.5 0 11.585 -1.485 m-11.585 1.485 l0 -34 -8.5 0 -21.538 1.635 0 34 8.5 0 21.538 -1.635 m-21.538 1.635 l0 -34 -8.5 0 -34.05 1.579 0 34 8.5 0 34.05 -1.579 m-42.55 -32.421 l0 34 8.5 0 25.814 -4.168 0 -34 -8.5 0 -25.814 4.168 m25.814 -4.168 l0 34 8.5 0 18.902 -2.152 0 -34 -8.5 0 -18.902 2.152 m18.902 -2.152 l0 34 8.5 0 9.379 -0.519 0 -34 -8.5 0 -9.379 0.519 m17.879 -0.519 l-8.5 0 0 34 0.514 0.424 8.5 0 0 -34 -0.514 -0.424 m0.514 34.424 l0 -34 -8.5 0 -2.035 1.158 0 34 8.5 0 2.035 -1.158 m-2.035 1.158 l0 -34 -8.5 0 -28.89 6.252 0 34 8.5 0 28.89 -6.252 m-28.89 6.252 l0 -34 -8.5 0 -3.133 1.14 0 34 8.5 0 3.133 -1.14 m-3.133 -32.86 l-8.5 0 0 34 0.433 0.492 8.5 0 0 -34 -0.433 -0.492 m-8.067 0.492 l0 34 8.5 0 35.604 -0.33 0 -34 -8.5 0 -35.604 0.33 m44.104 -0.33 l-8.5 0 0 34 4.88 0.382 8.5 0 0 -34 -4.88 -0.382 m4.88 0.382 l-8.5 0 0 34 0.805 0.698 8.5 0 0 -34 -0.805 -0.698 m0.805 34.698 l0 -34 -8.5 0 -0.368 1.067 0 34 8.5 0 0.368 -1.067 m-0.368 1.067 l0 -34 -8.5 0 -1.664 1.359 0 34 8.5 0 1.664 -1.359 m-1.664 1.359 l0 -34 -8.5 0 -12.518 5.772 0 34 8.5 0 12.518 -5.772 m-12.518 5.772 l0 -34 -8.5 0 -2.988 1.982 0 34 8.5 0 2.988 -1.982 m-2.988 1.982 l0 -34 -8.5 0 -0.409 1.041 0 34 8.5 0 0.409 -1.041 m-0.409 -32.959 l-8.5 0 0 34 0.766 1.252 8.5 0 0 -34 -0.766 -1.252 m0.766 1.252 l-8.5 0 0 34 2.551 1.138 8.5 0 0 -34 -2.551 -1.138 m2.551 1.138 l-8.5 0 0 34 25.941 2.972 8.5 0 0 -34 -25.941 -2.972 m25.941 36.972 l0 -34 -8.5 0 -10.574 1.08 0 34 8.5 0 10.574 -1.08 m-10.574 1.08 l0 -34 -8.5 0 -28.637 4.427 0 34 8.5 0 28.637 -4.427 m-37.137 -29.573 l0 34 8.5 0 28.698 -2.989 0 -34 -8.5 0 -28.698 2.989 m28.698 -2.989 l0 34 8.5 0 4.76 -0.965 0 -34 -8.5 0 -4.76 0.965 m4.76 33.035 l8.5 0 0 -34 -0.283 -0.495 -8.5 0 0 34 0.283 0.495 m-0.283 -0.495 l8.5 0 0 -34 -5.15 -0.444 -8.5 0 0 34 5.15 0.444 m3.35 -0.444 l0 -34 -8.5 0 -40.636 2.832 0 34 8.5 0 40.636 -2.832 m-40.636 2.832 l0 -34 -8.5 0 -24.075 1.105 0 34 8.5 0 24.075 -1.105 m-24.075 1.105 l0 -34 -8.5 0 -74.086 1.564 0 34 8.5 0 74.086 -1.564 m-74.086 1.564 l0 -34 -8.5 0 -35.954 0.101 0 34 8.5 0 35.954 -0.101 m-44.454 0.101 l8.5 0 0 -34 -27.756 -0.974 -8.5 0 0 34 27.756 0.974 m-27.756 -0.974 l8.5 0 0 -34 -32.114 -2.121 -8.5 0 0 34 32.114 2.121 m-32.114 -2.121 l8.5 0 0 -34 -32.298 -2.907 -8.5 0 0 34 32.298 2.907 m-32.298 -2.907 l8.5 0 0 -34 -41.893 -5.257 -8.5 0 0 34 41.893 5.257 m-41.893 -5.257 l8.5 0 0 -34 -27.577 -2.651 -8.5 0 0 34 27.577 2.651 m-27.577 -2.651 l8.5 0 0 -34 -31.53 -1.31 -8.5 0 0 34 31.53 1.31 m-23.03 -1.31 l0 -34 -8.5 0 -31.041 0.027 0 34 8.5 0 31.041 -0.027 m-31.041 0.027 l0 -34 -8.5 0 -30.047 1.209 0 34 8.5 0 30.047 -1.209 m-30.047 1.209 l0 -34 -8.5 0 -85.069 6.32 0 34 8.5 0 85.069 -6.32 m-85.069 6.32 l0 -34 -8.5 0 -41.67 2.43 0 34 8.5 0 41.67 -2.43 m-41.67 2.43 l0 -34 -8.5 0 -23.385 0.313 0 34 8.5 0 23.385 -0.313 m-31.885 -33.687 l0 34 8.5 0 66.953 -0.278 0 -34 -8.5 0 -66.953 0.278 m66.953 -0.278 l0 34 8.5 0 20.929 -0.707 0 -34 -8.5 0 -20.929 0.707 m20.929 -0.707 l0 34 8.5 0 55.585 -4.056 0 -34 -8.5 0 -55.585 4.056 m55.585 -4.056 l0 34 8.5 0 37.16 -2.027 0 -34 -8.5 0 -37.16 2.027 m37.16 -2.027 l0 34 8.5 0 32.854 -1 0 -34 -8.5 0 -32.854 1 m41.354 -1 l-8.5 0 0 34 13.917 0.306 8.5 0 0 -34 -13.917 -0.306 m13.917 0.306 l-8.5 0 0 34 9.778 0.832 8.5 0 0 -34 -9.778 -0.832 m9.778 0.832 l-8.5 0 0 34 3.007 0.38 8.5 0 0 -34 -3.007 -0.38 m3.007 0.38 l-8.5 0 0 34 2.922 0.205 8.5 0 0 -34 -2.922 -0.205 m2.922 0.205 l-8.5 0 0 34 2.651 0.186 8.5 0 0 -34 -2.651 -0.186" />
    <path class="write-flat-pen" fill="#FFFFFF" stroke-width="1.8" __comx="67.464" __comy="52.066" __timestamp="0x177d043cead" d="M75.35 36.527 l0.231 -0.799 0.045 -0.114 0.133 -0.318 0.07 -0.18 0.129 -0.38 0.075 -0.248 0.156 -0.683 0.038 -0.264 0.033 -0.816 -0.035 -0.269 -0.226 -0.745 -0.144 -0.287 -0.701 -0.868 -0.28 -0.218 -0.794 -0.451 -1.091 -0.3 -1.363 -0.121 -1.82 0.19 -1.394 0.358 -2.195 0.838 -1.66 0.895 -1.589 1.152 -1.473 1.371 -1.381 1.623 -1.269 1.898 -1.057 2.014 -0.869 2.157 -0.65 2.248 -0.435 2.252 -0.157 2.175 0.06 2.032 0.345 1.978 0.604 1.868 0.86 1.723 1.141 1.6 1.363 1.411 1.414 1.146 1.504 0.9 1.584 0.609 1.61 0.324 1.603 0.096 1.712 -0.199 1.677 -0.477 1.562 -0.717 1.527 -0.973 1.392 -1.187 1.222 -1.336 0.543 -0.684 0.499 -0.686 0.44 -0.688 0.364 -0.675 0.276 -0.68 0.116 -0.687 0.152 -0.922 -0.383 -0.18 -0.615 0.704 -0.439 0.492 -0.386 0.535 -0.393 0.566 -0.437 0.59 -0.487 0.608 -0.511 0.605 -1.138 1.205 -1.231 1.039 -1.331 0.845 -1.336 0.613 -1.417 0.404 -1.425 0.168 -1.334 -0.078 -1.353 -0.271 -1.312 -0.503 -1.276 -0.76 -1.241 -1.002 -1.203 -1.244 -0.989 -1.388 -0.743 -1.489 -0.528 -1.632 -0.305 -1.74 -0.055 -1.824 0.144 -1.988 0.402 -2.076 0.605 -2.091 0.804 -1.998 0.975 -1.859 1.165 -1.741 1.252 -1.474 1.323 -1.234 1.413 -1.025 1.464 -0.789 2.002 -0.766 1.181 -0.305 1.535 -0.166 1.056 0.085 0.758 0.193 0.525 0.274 0.048 0.031 0.516 0.565 0.019 0.022 0.199 0.49 0.012 0.027 0.042 0.628 -0.003 0.147 -0.059 0.613 -0.03 0.205 -0.057 0.364 -0.03 0.166 -0.067 0.366 -0.018 0.155 -0.137 0.824" />
    <path class="write-flat-pen" fill="#FFFFFF" stroke-width="1.8" __comx="88.003" __comy="52.066" __timestamp="0x177d043d0db" d="M87.868 48.61 l0.019 -0.472 0.018 -0.082 0.025 -0.195 -0.008 -0.166 -0.06 -0.293 -0.107 -0.24 -0.245 -0.337 -0.179 -0.154 -0.363 -0.229 -0.336 -0.131 -0.909 -0.107 -0.442 0.036 -1.253 0.388 -1.166 0.722 -0.687 0.749 -0.525 0.942 -0.304 1.083 -0.184 1.847 0.184 1.423 0.44 1.341 0.687 1.299 1.303 1.645 1.415 1.198 1.046 0.577 1.529 0.356 1.218 -0.061 1.223 -0.384 1.15 -0.67 1.044 -0.928 0.866 -1.06 0.922 -1.685 0.426 -1.288 0.234 -1.788 -0.081 -1.176 -0.36 -1.18 -0.639 -1.091 -0.899 -0.952 -1.046 -0.783 -1.551 -0.83 -1.922 -0.574 -0.298 -0.038 -0.468 -0.02 -0.245 0.06 -0.074 0.04 -0.847 0.69 0.089 0.422 1.053 0.291 0.032 0.017 0.021 0.024 0.239 0.05 0.135 0.029 1.642 0.533 1.29 0.71 0.825 0.63 0.665 0.714 0.44 0.758 0.247 0.808 0.058 0.816 -0.188 1.464 -0.325 0.993 -0.77 1.416 -0.683 0.839 -0.818 0.733 -0.843 0.499 -0.842 0.272 -0.778 0.046 -1.085 -0.244 -0.706 -0.387 -1.173 -0.987 -1.122 -1.394 -0.56 -1.044 -0.355 -1.067 -0.145 -1.093 0.148 -1.529 0.213 -0.771 0.341 -0.619 0.414 -0.459 0.813 -0.52 0.903 -0.312 0.145 -0.023 0.604 0.011 0.072 0.007 0.204 0.07 0.019 -0.007 0.146 0.088 0.045 0.02 0.091 0.097 0.037 0.037 0.069 0.116 0.028 0.044 0.075 0.458" />
    <path class="write-flat-pen" fill="#FFFFFF" stroke-width="1.8" __comx="105.712" __comy="52.066" __timestamp="0x177d043d396" d="M96.447 52.174 l0.214 -0.28 -0.191 0.109 -0.108 0.045 -0.074 0.004 0.056 0.076 0 0.023 0.198 0.308 0.092 0.187 0.337 0.991 0.125 0.4 0.467 1.927 0.118 0.535 0.688 4.693 0.234 0.405 0 0 0.274 0.162 0 0 1.217 -0.523 0.137 -0.529 -0.285 -4.601 0.002 -3.072 0.128 -1.074 0.593 -2.563 0.447 -1.149 0.509 -0.795 0.423 -0.381 0.354 -0.138 0.144 -0.004 0.416 0.171 0.279 0.247 0.547 0.799 0.536 1.194 0.37 1.337 0.634 6.062 0.17 0.439 0 0 1.368 0.337 0.45 -0.386 0.308 -1.61 0.128 -3.646 0.184 -1.32 0.296 -1.012 0.319 -0.636 0.326 -0.337 0.235 -0.107 0.321 -0.033 0.422 0.107 0.54 0.319 0.999 0.983 0.592 0.852 0.792 1.546 0.583 1.661 0.608 2.69 0.169 2.25 0.016 0.345 0.014 0.321 0.009 0.266 0.015 0.197 0.04 0.196 0.198 1.133 0.49 0.102 0.634 -0.96 0.132 -0.249 0.061 -0.314 0.036 -0.333 0.016 -0.369 0.004 -0.405 -0.149 -2.426 -0.654 -2.914 -0.652 -1.864 -0.895 -1.751 -0.745 -1.076 -1.252 -1.247 -0.929 -0.56 -0.958 -0.249 -0.908 0.088 -0.798 0.359 -0.742 0.767 -0.505 1.014 -0.373 1.281 -0.217 1.533 -0.13 3.603 -0.168 0.888 0.009 -0.004 1.368 0.337 0 0 -0.089 -0.222 -0.652 -5.966 -0.441 -1.594 -0.646 -1.452 -0.752 -1.098 -0.647 -0.576 -1.008 -0.421 -0.802 0.014 -0.929 0.357 -0.831 0.746 -0.726 1.135 -0.549 1.424 -0.641 2.772 -0.151 1.267 0.006 3.228 0.295 4.397 -0.062 0.283 1.217 -0.523 0 0 0.105 0.065 0 0 0.144 0.25 -0.704 -4.435 -0.148 -0.609 -0.537 -1.986 -0.169 -0.474 -0.457 -1.11 -0.232 -0.359 -0.363 -0.403 -0.197 -0.171 -0.346 -0.16 -0.288 -0.066 -0.303 0.059 -0.286 0.15 -0.305 0.636" />
    <path class="write-flat-pen" fill="#FFFFFF" stroke-width="1.8" __comx="121.604" __comy="52.066" __timestamp="0x177d043d62b" d="M120.388 72.17 l-0.082 0.805 0.008 0.146 0.142 0.481 0.533 0.304 0.582 -0.28 0.187 -0.333 0.116 -0.376 0.047 -0.287 0 -1.34 -0.076 -0.533 -0.744 -3.283 -0.208 -0.69 -1.186 -3.507 -0.205 -0.69 -0.713 -2.83 -0.349 -2.078 -0.171 -2.591 0.069 -2.341 0.196 -1.34 0.55 -2.158 0.385 -0.825 0.378 -0.462 0.298 -0.197 0.455 -0.13 0.739 0.026 0.947 0.278 1.173 0.603 0.668 0.518 0.494 0.637 0.173 0.459 0.128 0.984 -0.098 0.832 -0.434 1.476 -0.643 1.439 -0.775 1.255 -0.764 0.9 -0.645 0.501 -0.951 0.306 0.208 0.039 -0.004 0.023 0.069 0.106 -0.03 0.09 -0.125 -0.082 -0.563 -0.64 -0.227 0.027 -0.397 0.754 -0.077 0.323 0.114 0.415 0.283 0.325 0.45 0.246 0.41 0.072 1.632 -0.468 1.038 -0.801 0.962 -1.134 0.903 -1.459 0.739 -1.646 0.507 -1.725 0.139 -1.186 -0.183 -1.392 -0.336 -0.882 -0.781 -1.007 -0.961 -0.748 -1.457 -0.75 -1.307 -0.386 -1.222 -0.045 -0.968 0.272 -0.738 0.485 -0.681 0.831 -0.541 1.167 -0.609 2.399 -0.222 1.526 -0.072 2.522 0.189 2.759 0.385 2.229 0.756 2.927 0.231 0.754 1.231 3.498 0.193 0.609 0.773 3.157 0.064 0.374 0.063 1.133 -0.001 0.107 -0.006 0.149 0.11 -0.181 0.436 -0.202 0.476 0.273 0.009 0.145 0.004 0.101 -0.02 -0.738" />
    <path class="write-flat-pen" fill="#FFFFFF" stroke-width="1.8" __comx="133.817" __comy="52.066" __timestamp="0x177d043d805" d="M133.392 49.945 l-0.045 -0.622 0.014 -0.054 0.023 -0.107 0.017 -0.087 0.034 -0.233 -0.002 -0.124 -0.1 -0.405 -0.314 -0.366 -0.63 -0.116 -0.419 0.149 -0.652 0.487 -0.278 0.271 -0.853 0.963 -0.855 1.306 -0.762 1.634 -0.324 1.184 -0.192 1.705 0.066 1.192 0.301 1.121 0.719 1.402 0.987 1.106 0.852 0.512 1.023 0.291 1.15 -0.07 1.139 -0.408 1.112 -0.731 1.069 -0.995 0.948 -1.171 0.781 -1.292 0.818 -1.937 0.446 -1.838 0.113 -1.552 -0.179 -1.012 -0.405 -0.944 -0.64 -0.873 -0.847 -0.744 -1.224 -0.723 -1.043 -0.34 -1.313 -0.062 -0.447 0.162 -0.448 0.336 -0.218 0.275 -0.147 0.28 -0.103 0.323 -0.042 0.362 0.089 0.333 0.4 0.936 0.37 0.017 0.483 -0.896 0.113 -0.174 0.071 -0.079 0.069 -0.085 0.048 -0.044 0.012 0.006 0.1 -0.051 -0.102 0.041 0.736 0.054 0.641 0.215 0.917 0.543 0.578 0.508 0.407 0.556 0.245 0.572 0.106 0.597 -0.084 1.188 -0.376 1.558 -0.712 1.691 -0.651 1.084 -0.792 0.985 -0.869 0.816 -0.813 0.543 -0.711 0.26 -0.611 0.041 -0.524 -0.145 -0.436 -0.258 -0.671 -0.745 -0.54 -1.045 -0.211 -0.776 -0.051 -0.873 0.157 -1.434 0.248 -0.922 0.641 -1.403 0.715 -1.117 0.722 -0.852 0.166 -0.176 0.356 -0.321 -0.185 0.058 -0.289 -0.069 -0.234 -0.279 0.006 -0.086 0.001 -0.075 0.051 0.228 0.026 0.107 0.04 0.134 0.028 0.084 0.117 0.63" />
    <path class="write-flat-pen" fill="#FFFFFF" stroke-width="1.8" __comx="145.559" __comy="52.066" __timestamp="0x177d043d9da" d="M146.031 45.851 l-0.446 -0.645 -0.06 -0.096 -0.214 -0.267 -0.129 -0.137 -0.362 -0.297 -0.195 -0.119 -0.794 -0.343 -0.362 -0.089 -1.243 -0.137 -0.854 0.169 -0.753 0.462 -0.533 0.822 -0.218 1.033 0.157 1.077 0.436 0.888 0.781 0.813 1.155 0.68 3.51 1.101 1.607 0.657 0.802 0.461 0.602 0.51 0.394 0.607 0.202 0.653 0.035 0.712 -0.21 0.769 -0.275 0.473 -0.829 0.799 -1.098 0.616 -1.431 0.406 -1.898 0.162 -0.866 -0.066 -0.341 -0.107 -0.139 -0.108 0.021 0.112 0.006 0.08 -0.026 0.031 -0.022 -0.035 -0.015 -0.143 0.011 -1.027 -0.462 -0.23 -0.813 0.627 -0.177 0.183 -0.122 0.278 -0.067 0.374 0.041 0.265 0.124 0.453 0.773 0.689 0.881 0.275 1.204 0.088 2.203 -0.189 1.788 -0.511 1.469 -0.831 1.157 -1.131 0.499 -0.884 0.321 -1.251 -0.078 -1.189 -0.344 -1.068 -0.658 -0.998 -0.904 -0.76 -1.03 -0.588 -1.775 -0.72 -3.396 -1.06 -0.796 -0.47 -0.446 -0.465 -0.208 -0.425 -0.077 -0.531 0.094 -0.448 0.163 -0.257 0.186 -0.119 0.325 -0.071 0.902 0.075 0.152 0.028 0.61 0.205 0.045 0.014 0.266 0.144 0.066 0.039 0.191 0.125 0.019 0.006 0.506 0.592" />
    <path class="write-flat-pen" fill="#FFFFFF" stroke-width="1.8" __comx="155.18" __comy="52.066" __timestamp="0x177d043dacb" d="M153.609 50.093 l0.08 0.694 0.019 0.236 0.023 0.286 0.088 0.391 0.091 0.386 0.104 0.436 0.233 0.938 0.111 0.454 0.533 2.536 0.293 3.012 0.004 -0.021 0.005 0.006 0.596 1.012 0.326 0.005 0.625 -0.995 0.006 -0.02 0.004 -0.059 -0.252 -3.187 -0.61 -2.664 -0.143 -0.492 -0.294 -0.933 -0.145 -0.436 -0.14 -0.386 -0.128 -0.313 -0.083 -0.241 -0.093 -0.197 -0.136 -0.629" />
    <path class="write-flat-pen" fill="#FFFFFF" stroke-width="1.8" __comx="154.761" __comy="52.066" __timestamp="0x177d043db6a" d="M154.488 41.314 l-0.285 0.576 -0.048 0.14 -0.085 0.418 -0.022 0.213 -0.012 0.778 0.036 0.34 0.113 0.354 0.327 0.96 0.319 -0.004 0.305 -0.967 0.105 -0.337 0.05 -0.303 0.058 -0.747 0.005 -0.182 -0.012 -0.344 -0.024 0.026 0.166 -0.504" />
    <path class="write-flat-pen" fill="#FFFFFF" stroke-width="1.8" __comx="164.997" __comy="52.066" __timestamp="0x177d043dd34" d="M158.987 49.048 l-0.288 0.884 -0.034 0.2 -0.024 0.39 0.035 0.306 0.162 0.906 0.11 0.424 1.023 3.56 0.132 0.505 1.007 3.797 0.184 0.268 0.637 0.47 1.017 -0.296 0.56 -1.218 0.302 -2.251 0.205 -4.791 0.384 -2.221 0.388 -1.255 0.446 -0.915 0.396 -0.514 0.256 -0.17 0.186 -0.044 0.165 0.053 0.415 0.445 0.498 1.049 0.447 1.506 1.716 8.941 0.129 0.341 0.134 0.276 0.136 0.226 0.142 0.17 0.16 0.104 1.041 0.414 0.302 -0.256 -0.237 -1.095 -0.015 -0.102 0.001 -0.044 -0.038 -0.115 -0.062 -0.183 -0.05 -0.174 -1.672 -8.912 -0.511 -1.719 -0.669 -1.412 -0.9 -0.971 -1.053 -0.347 -0.968 0.225 -0.759 0.505 -0.678 0.884 -0.579 1.194 -0.46 1.488 -0.424 2.442 -0.202 4.826 -0.251 1.922 -0.119 0.28 0.541 -0.155 0.27 0.203 0.142 0.208 -0.975 -3.502 -0.141 -0.522 -1.077 -3.551 -0.105 -0.359 -0.198 -0.812 -0.038 -0.151 -0.025 -0.193 -0.011 -0.01 0.177 -0.797" />
    <path class="write-flat-pen" fill="#FFFFFF" stroke-width="1.8" __comx="179.739" __comy="54.573" __timestamp="0x177d043dfd5" d="M179.561 52.294 l0.196 -0.703 0.021 -0.019 0.078 -0.14 0.054 -0.167 0.059 -0.455 -0.069 -0.35 -0.592 -0.683 -0.336 -0.155 -0.699 -0.165 -1.513 0.246 -1.443 0.515 -0.912 0.544 -0.685 0.711 -0.48 0.862 -0.274 0.94 -0.061 1.079 0.227 1.158 0.507 1.164 0.65 0.951 0.798 0.714 1.002 0.413 0.858 0.061 0.904 -0.224 0.916 -0.477 1.159 -0.955 0.859 -1.099 0.602 -1.091 0.441 -1.37 0.09 -1.245 0 0 -1.513 -0.613 -0.196 0.222 -0.26 1.69 -0.062 2.491 0.903 9.767 0.134 4.034 -0.12 2.196 -0.271 1.792 -0.47 1.726 -0.407 0.768 -0.28 0.282 -0.375 0.194 -0.886 0.183 -0.968 -0.121 -0.559 -0.216 -0.766 -0.537 -0.289 -0.332 -0.267 -0.621 -0.044 -0.399 0.117 -0.539 0.343 -0.713 0.614 -0.825 2.025 -1.837 0.614 -0.478 0.683 -0.509 0.716 -0.512 0.729 -0.518 0.776 -0.519 0.814 -0.527 0.829 -0.543 0.844 -0.55 0.843 -0.583 0.788 -0.708 0.619 -0.532 -0.213 -0.395 -0.786 0.223 -1.035 0.273 -0.955 0.425 -0.92 0.469 -0.884 0.493 -0.861 0.499 -0.834 0.521 -0.768 0.522 -0.744 0.516 -0.719 0.526 -0.689 0.53 -2.21 1.999 -0.823 1.104 -0.51 1.061 -0.224 1.035 0.108 0.959 0.488 1.126 0.62 0.706 1.125 0.784 0.967 0.372 1.481 0.183 1.417 -0.297 0.841 -0.439 0.66 -0.669 0.621 -1.177 0.546 -2.018 0.295 -1.978 0.124 -2.359 -0.15 -4.163 -0.898 -9.716 0.054 -2.282 0.148 -1.091 -0.137 0.154 -1.513 -0.613 0 0 -0.044 1.034 -0.322 1.012 -0.456 0.829 -0.663 0.845 -0.883 0.721 -0.581 0.3 -0.447 0.11 -0.317 -0.023 -0.481 -0.198 -0.429 -0.383 -0.443 -0.648 -0.371 -0.848 -0.155 -0.77 0.032 -0.679 0.16 -0.578 0.275 -0.51 0.376 -0.396 0.581 -0.349 1.15 -0.417 1.05 -0.184 0.231 0.043 -0.108 -0.053 0.123 0.088 -0.052 -0.268 0.029 0.119 0.017 -0.015 -0.014 0.142 -0.011 0.096 -0.117 0.757" />
    <path class="write-flat-pen" fill="#FFFFFF" stroke-width="1.8" __comx="218.902" __comy="51.133" __timestamp="0x177d043f5fc" d="M212.548 49.036 l-0.042 -0.434 -0.138 0.324 -0.069 0.09 -0.031 0.021 0.572 0.029 0.316 0.029 4.498 0.46 0.717 0.046 0 0 4.367 0.091 0 0 5.136 -0.239 0 0 -0.302 -1.487 -0.799 0.285 -1.066 0.678 -0.365 0.782 -0.311 3.364 -0.256 1.377 -0.539 1.604 -0.58 1.171 -0.732 1.05 -0.893 0.877 -0.651 0.427 -1.097 0.43 -1.311 0.223 -1.361 0.053 -1.361 -0.203 -1.436 -0.531 -1.422 -0.774 -1.09 -0.865 -0.443 -0.522 -0.448 -0.949 -0.183 -1.036 0.011 -0.738 0.19 -0.794 0.371 -0.841 0.62 -0.887 1.398 -1.52 2.422 -2.232 4.294 -3.622 2.127 -1.976 2.386 -2.489 1.387 -1.749 0.966 -1.603 0.608 -1.383 0.266 -1.311 0.01 -1.289 -0.297 -0.907 -0.556 -0.828 -0.856 -0.769 -1.071 -0.642 -1.746 -0.698 -1.626 -0.347 -1.447 -0.03 -1.054 0.263 -1.084 0.497 -1.107 0.78 -0.986 1.061 -0.894 1.397 -0.756 1.581 -0.577 1.756 -0.387 1.861 -0.183 2.88 0.123 2.04 0.392 2.074 0.854 3.057 1.048 2.894 4.553 9.812 0.299 0.52 0.285 0.477 0.305 0.482 0.307 0.457 0.312 0.45 0.322 0.413 0.361 0.392 0.366 0.288 0.76 0.58 0.23 -0.159 -0.274 -0.916 -0.138 -0.441 -0.222 -0.461 -0.222 -0.433 -0.243 -0.47 -0.258 -0.476 -0.26 -0.482 -0.253 -0.474 -0.251 -0.472 -4.456 -9.714 -1.002 -2.771 -0.819 -2.93 -0.362 -1.903 -0.117 -1.835 0.16 -2.663 0.344 -1.657 0.515 -1.569 0.669 -1.394 0.763 -1.187 0.771 -0.828 0.845 -0.595 0.809 -0.372 0.695 -0.174 1.072 0.023 1.332 0.292 1.483 0.612 0.811 0.502 0.572 0.53 0.302 0.465 0.133 0.422 -0.011 0.847 -0.199 0.97 -0.49 1.114 -0.85 1.416 -1.266 1.602 -2.294 2.396 -2.062 1.912 -4.294 3.618 -2.5 2.306 -1.525 1.655 -0.782 1.118 -0.503 1.136 -0.27 1.131 -0.014 1.091 0.255 1.421 0.645 1.358 0.699 0.821 1.339 1.057 1.66 0.901 1.72 0.628 1.694 0.243 1.631 -0.079 1.585 -0.296 1.401 -0.583 0.908 -0.619 1.095 -1.093 0.887 -1.263 0.682 -1.376 0.609 -1.814 0.289 -1.562 0.269 -3.17 0.053 -0.124 0.532 -0.349 0.633 -0.239 -0.302 -1.487 0 0 -5.082 0.264 0 0 -4.283 -0.086 0 0 -0.662 -0.04 -4.504 -0.387 -0.391 -0.015 -0.737 0.042 -0.282 0.066 -0.408 0.274 -0.181 0.409 0.232 0.818" />
    <path class="write-flat-pen" fill="#FFFFFF" stroke-width="1.8" __comx="256.201" __comy="51.133" __timestamp="0x177d043fb39" d="M255.14 40.188 l0.457 -0.803 -0.098 0.1 -0.057 0.053 -0.212 -0.019 0.031 0.063 0.024 0.068 0.306 1.037 0.111 0.476 0.569 4.345 0.064 0.865 0.26 3.802 0.091 5.22 -0.133 5.193 0.003 0.007 0.016 -0.02 0.115 -0.186 0.201 -0.077 -0.477 0.469 0.571 0.876 0.621 -0.247 0.277 -0.126 0.178 -0.395 0.033 -0.154 0.008 -0.078 0.195 -5.251 -0.092 -5.301 -0.27 -3.848 -0.07 -0.919 -0.647 -4.471 -0.163 -0.605 -0.437 -1.222 -0.264 -0.411 -0.544 -0.398 -0.499 -0.068 -0.47 0.208 -0.249 0.229 -0.48 1.073" />
    <path class="write-flat-pen" fill="#FFFFFF" stroke-width="1.8" __comx="263.795" __comy="51.133" __timestamp="0x177d043fcf0" d="M256.23 43.033 l-0.359 -0.906 -0.047 -0.146 -0.199 -0.503 -0.062 -0.144 -0.256 -0.719 -0.029 -0.109 -0.199 -1.212 -0.004 -0.12 0.053 -0.584 0.341 -0.924 0.502 -0.804 0.762 -0.799 0.943 -0.621 0.779 -0.284 1.621 -0.215 1.158 0.063 1.236 0.273 2.064 0.744 2.146 1.062 1.316 0.841 1.22 0.985 1.058 1.133 0.871 1.274 0.699 1.448 0.462 1.593 0.165 1.748 -0.062 1.84 -0.357 1.82 -0.549 1.773 -0.712 1.732 -1.345 2.451 -1.052 1.461 -1.145 1.254 -1.248 1.021 -1.256 0.732 -1.254 0.519 -1.218 0.295 -1.635 0.149 -0.981 -0.076 -0.542 -0.26 0.121 0.19 0.004 0.061 -0.014 0.058 -0.029 -0.001 -0.023 -0.079 0.016 -0.241 0.127 -0.946 -0.302 -0.2 -0.821 0.486 -0.29 0.222 -0.187 0.314 -0.095 0.346 0.004 0.34 0.101 0.369 0.245 0.373 1.207 0.638 1.462 0.125 1.908 -0.16 1.476 -0.351 1.489 -0.614 1.476 -0.861 1.451 -1.188 1.297 -1.422 1.171 -1.629 1.445 -2.626 0.781 -1.894 0.6 -1.936 0.403 -2.048 0.07 -2.091 -0.194 -2.021 -0.549 -1.889 -0.82 -1.695 -1.02 -1.489 -1.232 -1.316 -1.389 -1.121 -1.476 -0.943 -2.317 -1.148 -2.261 -0.82 -1.485 -0.327 -1.46 -0.079 -1.969 0.26 -1.148 0.419 -1.277 0.844 -1.015 1.075 -0.684 1.109 -0.471 1.313 -0.067 0.93 0.022 0.34 0.282 1.406 0.086 0.26 0.353 0.815 0.097 0.177 0.234 0.431 0.063 0.119 0.421 0.891" />
    <path class="write-flat-pen" fill="#FFFFFF" stroke-width="1.8" __comx="280.645" __comy="51.133" __timestamp="0x177d043ff07" d="M279.657 54.261 l-0.496 -0.575 0.064 0.069 0.125 0.201 -0.118 0.407 -0.2 0.159 -0.059 0.029 0.254 0.021 0.182 0.013 0.781 0.03 0.349 0.007 1.046 -0.101 1.437 -0.474 0.962 -0.577 0.738 -0.75 0.471 -0.844 0.258 -1.086 -0.14 -0.946 -0.569 -0.864 -0.807 -0.544 -1.435 -0.36 -1.221 -0.055 -1.242 0.175 -1.161 0.364 -1.044 0.574 -0.898 0.803 -0.747 1.037 -0.567 1.206 -0.339 1.282 -0.125 1.279 0.08 1.269 0.497 1.683 0.828 1.564 1.064 1.269 0.902 0.666 1.047 0.421 1.638 0.147 0.71 -0.123 0.683 -0.199 0.658 -0.285 0.665 -0.369 0.624 -0.453 0.59 -0.542 0.48 -0.628 0.51 -0.679 -0.175 -0.227 -0.788 0.318 -0.709 0.286 -0.654 0.326 -0.597 0.288 -0.581 0.246 -0.529 0.183 -0.518 0.12 -0.417 0.054 -1.178 -0.134 -0.617 -0.255 -0.563 -0.419 -0.816 -0.975 -0.662 -1.252 -0.391 -1.333 -0.057 -0.938 0.101 -1.002 0.267 -0.996 0.434 -0.92 0.544 -0.756 0.61 -0.546 0.72 -0.396 0.861 -0.271 0.942 -0.133 0.887 0.041 0.975 0.244 0.275 0.181 0.179 0.26 0.047 0.252 -0.112 0.549 -0.234 0.453 -0.423 0.452 -0.623 0.391 -1.095 0.39 -0.784 0.105 -0.263 0.008 -0.782 0.031 -0.216 0.014 -0.353 0.051 -0.252 0.057 -0.389 0.266 -0.149 0.497 0.194 0.365 0.085 0.094 0.605 0.53" />
    <path class="write-flat-pen" fill="#FFFFFF" stroke-width="1.8" __comx="296.971" __comy="51.133" __timestamp="0x177d0440091" d="M297.734 50.868 l0.27 -0.537 0.103 -0.107 0.069 -0.091 0.085 -0.108 0.127 -0.206 0.096 -0.146 0.131 -0.26 0.064 -0.146 0.164 -0.414 0.083 -0.298 -0.03 -1.005 -0.36 -0.452 -0.805 -0.391 -1.211 0.168 -1.393 0.641 -0.959 0.723 -1.197 1.376 -0.71 1.159 -0.531 1.297 -0.474 2.019 -0.169 2.611 0.281 1.88 0.394 1.129 0.627 0.963 0.806 0.711 1.027 0.426 1.285 0.176 1.41 -0.204 2.047 -0.828 0.734 -0.434 0.633 -0.428 0.613 -0.479 0.547 -0.487 0.475 -0.487 0.374 -0.574 0.516 -0.795 -0.281 -0.322 -0.857 0.405 -0.603 0.28 -0.545 0.349 -0.565 0.392 -0.582 0.387 -0.578 0.347 -0.608 0.33 -1.763 0.675 -0.973 0.136 -0.825 -0.114 -0.557 -0.231 -0.415 -0.366 -0.385 -0.591 -0.271 -0.778 -0.228 -1.537 0.152 -2.283 0.413 -1.745 0.427 -1.041 0.561 -0.917 0.983 -1.132 0.665 -0.505 0.995 -0.466 0.452 -0.074 -0.001 -0.011 -0.217 -0.275 0.035 0.213 0.006 0.006 -0.091 0.356 -0.026 0.106 -0.051 0.191 -0.055 0.15 -0.064 0.244 -0.044 0.154 -0.017 0.135 -0.009 0.138 -0.182 0.604" />
    <path class="write-flat-pen" fill="#FFFFFF" stroke-width="1.8" __comx="307.988" __comy="51.133" __timestamp="0x177d044023e" d="M309.4 51.261 l0.164 -0.701 0.031 -0.037 0.139 -0.346 0.051 -0.214 0.069 -0.596 -0.032 -0.321 -0.303 -0.673 -0.778 -0.56 -1.099 -0.022 -1.31 0.513 -1.295 0.915 -0.727 0.814 -0.588 0.988 -0.562 1.704 -0.245 2.259 0.07 1.64 0.252 1.059 0.571 1.328 0.571 0.761 0.733 0.534 0.929 0.309 1.124 -0.064 1.137 -0.439 1.061 -0.717 0.953 -0.923 0.854 -1.12 0.967 -1.811 0.628 -1.826 0.3 -1.62 -0.034 -1.397 -0.343 -1.052 -0.941 -1.419 -0.284 -0.295 -0.635 -0.455 -0.204 -0.098 -0.453 -0.087 -0.329 0.042 -0.288 0.135 -0.147 0.19 -0.318 0.844 0.241 0.34 0.901 -0.023 0.052 0.049 -0.099 0.067 -0.148 0.028 0 0.023 -0.109 -0.051 0.373 0.3 0.069 0.078 0.706 1.103 0.186 0.583 0.022 0.954 -0.242 1.31 -0.537 1.569 -0.829 1.561 -0.686 0.901 -0.745 0.724 -0.766 0.52 -0.692 0.269 -0.512 0.031 -0.352 -0.115 -0.301 -0.217 -0.289 -0.383 -0.434 -0.997 -0.184 -0.749 -0.064 -1.342 0.203 -1.95 0.438 -1.357 0.403 -0.688 0.485 -0.55 0.966 -0.691 0.807 -0.326 0.252 -0.004 0.013 -0.004 0.027 0.026 -0.006 -0.094 0 0.363 0.002 0.05 -0.027 0.208 -0.033 0.112 -0.142 0.86" />
    <path class="write-flat-pen" fill="#FFFFFF" stroke-width="1.8" __comx="323.371" __comy="51.133" __timestamp="0x177d0440484" d="M313.143 49.364 l0.548 0.488 -0.024 -0.019 0.261 0.491 0.093 0.189 0.759 1.72 0.138 0.374 0.819 3.532 0.049 0.405 0.21 2.447 0 0 0 0.014 0 0 -0.011 0.214 0 0 1.731 -0.002 -0.031 -5.244 0.109 -1.106 0.447 -2.055 0.605 -1.787 0.537 -0.9 0.515 -0.541 0.335 -0.181 0.155 -0.02 0.2 0.097 0.361 0.502 0.226 0.644 0.403 2.283 0.374 4.894 0.279 1.279 0.743 0.588 0.971 -0.224 0.611 -0.756 1.994 -5.293 0.942 -2.004 0.612 -0.933 0.474 -0.487 0.269 -0.123 0.121 0.01 0.295 0.181 0.418 0.563 0.397 0.956 0.489 1.854 1.179 7.383 0.059 0.277 0.151 0.463 0.103 0.195 0.207 0.121 0.808 0.311 0.523 -0.441 -0.171 -0.849 0.054 -0.06 0.067 0.119 -0.059 -0.267 -0.031 -0.174 -1.165 -7.44 -0.541 -2.055 -0.524 -1.267 -0.749 -1.012 -0.934 -0.577 -1.001 -0.096 -1.003 0.455 -0.827 0.847 -0.776 1.181 -1.025 2.182 -1.919 5.092 -0.046 0.059 0.455 -0.104 0.421 0.334 -0.119 -0.541 -0.379 -4.858 -0.445 -2.508 -0.356 -1.018 -0.77 -1.072 -1.074 -0.518 -0.997 0.128 -0.867 0.468 -0.845 0.884 -0.735 1.231 -0.696 2.059 -0.488 2.252 -0.127 1.3 0.058 5.338 1.731 -0.002 0 0 -0.008 -0.235 0 0 -0.002 -0.1 0 0 -0.261 -2.536 -0.07 -0.521 -0.913 -3.708 -0.202 -0.519 -0.856 -1.793 -0.152 -0.261 -0.354 -0.516 -0.129 -0.175 -0.755 -0.574" />
    <path class="write-flat-pen" fill="#FFFFFF" stroke-width="1.8" __comx="341.259" __comy="51.133" __timestamp="0x177d04406b5" d="M338.347 68.644 l-0.259 0.534 -0.041 0.051 -0.114 0.122 0.044 -0.083 0.033 -0.092 0.219 -0.083 0.247 0.016 0.177 0.098 0.065 0.053 0.002 -0.052 -0.021 -0.148 -0.035 -0.23 -0.084 -0.649 -0.037 -0.38 -0.148 -2.163 -0.033 -0.614 -0.116 -2.916 -0.042 -0.796 -0.676 -8.829 0.048 -1.752 0.332 -1.396 0.564 -1.376 0.473 -0.722 0.535 -0.528 0.577 -0.355 0.58 -0.166 0.629 -0.018 0.632 0.167 0.848 0.479 1.131 0.943 0.595 0.694 0.242 0.458 0.231 0.893 0.026 1.089 -0.18 0.815 -0.591 1.371 -0.762 1.239 -0.846 0.983 -0.566 0.457 -0.724 0.389 -0.777 0.121 0.178 0.071 -0.035 -0.002 0.052 0.123 -0.032 0.038 -0.05 -0.093 -0.046 -0.258 -0.101 -0.932 -0.353 -0.122 -0.656 0.67 -0.243 0.31 -0.121 0.433 0.036 0.512 0.243 0.442 0.467 0.392 0.473 0.178 1.513 -0.19 1.151 -0.61 0.82 -0.66 1.043 -1.209 0.904 -1.467 0.708 -1.643 0.261 -1.187 -0.036 -1.503 -0.332 -1.288 -0.429 -0.815 -0.819 -0.958 -1.37 -1.139 -1.184 -0.666 -1.094 -0.29 -1.105 0.031 -1.025 0.296 -0.951 0.587 -0.81 0.8 -0.667 1.02 -0.676 1.659 -0.402 1.705 -0.051 2.024 0.709 8.899 0.046 0.769 0.154 2.92 0.046 0.642 0.203 2.204 0.062 0.445 0.144 0.72 0.085 0.302 0.095 0.268 0.133 0.253 0.189 0.234 0.305 0.19 0.355 0.033 0.309 -0.109 0.236 -0.267 0.077 -0.133 0.069 -0.28 0.014 -0.098 0.156 -0.567" />
    <path class="write-flat-pen" fill="#FFFFFF" stroke-width="1.8" __comx="352.637" __comy="51.133" __timestamp="0x177d0440863" d="M353.054 48.402 l0.626 -0.722 0.049 -0.059 0.282 -0.392 0.11 -0.205 0.249 -0.708 -0.013 -0.426 -0.344 -0.663 -0.444 -0.293 -0.939 -0.154 -1.214 0.288 -1.281 0.644 -1.225 1.008 -0.731 0.962 -0.596 1.138 -0.529 1.7 -0.234 1.741 0.032 1.728 0.447 1.582 0.513 0.929 0.667 0.749 0.798 0.509 0.962 0.294 1.15 0.026 1.236 -0.337 1.165 -0.604 1.546 -1.297 0.943 -1.099 1.066 -1.709 0.508 -1.146 0.446 -1.582 0.152 -1.461 -0.13 -1.002 -0.555 -1.346 -0.799 -1.044 -1.21 -0.977 -0.27 -0.139 -0.456 -0.169 -0.301 -0.018 -0.193 0.035 -0.077 0.035 -0.735 0.702 0.05 0.357 0.9 0.473 0.015 0.022 -0.015 0.025 -0.076 0.009 0.149 0.084 0.042 0.028 0.899 0.76 0.527 0.703 0.375 0.919 0.073 0.566 -0.114 1.104 -0.369 1.315 -0.405 0.918 -0.927 1.491 -0.76 0.889 -1.284 1.083 -0.826 0.431 -0.81 0.225 -0.655 -0.011 -0.505 -0.15 -0.395 -0.249 -0.38 -0.422 -0.325 -0.582 -0.334 -1.174 -0.028 -1.373 0.196 -1.466 0.439 -1.413 0.456 -0.872 0.521 -0.688 0.92 -0.761 0.932 -0.474 0.697 -0.177 0.259 0.025 -0.202 -0.137 -0.006 -0.053 -0.004 -0.231 -0.073 0.342 -0.008 0.033 -0.152 0.305 0.009 -0.006 -0.556 0.754" />
    <path class="write-flat-pen" fill="#FFFFFF" stroke-width="1.8" __comx="363.06" __comy="51.133" __timestamp="0x177d0440a33" d="M365.199 46.068 l0.306 -0.572 0.054 -0.05 0.125 -0.153 0.076 -0.127 0.149 -0.298 0.038 -0.137 0.039 -0.426 -0.063 -0.259 -0.25 -0.39 -0.311 -0.242 -0.704 -0.16 -0.358 0.006 -1.671 0.386 -0.938 0.428 -0.587 0.548 -0.309 0.765 0.207 0.918 0.672 0.816 3.211 2.253 0.891 0.786 0.554 0.713 0.236 0.574 0.103 0.626 -0.102 0.735 -0.295 0.684 -0.548 0.648 -0.499 0.336 -0.651 0.26 -1.206 0.237 -1.348 0.055 -1.111 -0.17 -0.959 -0.336 -0.286 -0.189 -0.208 -0.319 0.006 0.143 0.022 -0.196 0.036 -0.103 0.103 -0.183 0.174 -0.246 0.211 -0.265 0.243 -0.297 0.252 -0.383 0.564 -0.868 -0.247 -0.314 -0.975 0.346 -0.462 0.18 -0.39 0.264 -0.338 0.29 -0.305 0.318 -0.24 0.316 -0.212 0.383 -0.156 0.649 0.035 0.506 0.591 1.011 0.792 0.537 1.327 0.464 1.441 0.217 1.651 -0.072 1.498 -0.302 0.973 -0.398 0.846 -0.582 0.859 -1.034 0.476 -1.139 0.15 -1.222 -0.19 -1.061 -0.4 -0.952 -0.788 -1.014 -1.078 -0.953 -3.103 -2.176 -0.276 -0.333 -0.006 -0.022 -0.026 0.062 0.119 -0.111 0.544 -0.253 1.345 -0.341 0.014 -0.006 0.185 0.007 -0.16 -0.13 -0.013 -0.062 -0.049 -0.205 0.034 0.06 0.026 -0.089 -0.031 0.211 -0.002 0.045 -0.04 0.149 -0.036 0.118 -0.231 0.656" />
    <path class="write-flat-pen" fill="#FFFFFF" stroke-width="1.8" __comx="372.221" __comy="51.133" __timestamp="0x177d0440b12" d="M371.798 46.851 l-0.025 0.742 -0.039 0.264 -0.039 0.348 -0.033 0.371 -0.056 0.891 -0.018 0.471 -0.05 1.616 -0.009 0.594 -0.055 2.574 -0.171 2.278 1.486 -0.24 -0.029 0.01 -0.061 -0.046 -0.097 -0.184 -0.113 -0.265 -0.161 -0.338 -0.378 -0.732 -0.148 0.01 -0.272 0.778 -0.111 0.369 -0.059 0.318 -0.035 0.286 0.008 0.268 0.032 0.149 1.486 -0.24 0.255 -2.333 0.031 -2.646 -0.004 -0.598 -0.011 -1.611 -0.008 -0.461 -0.012 -0.878 -0.011 -0.372 -0.02 -0.357 -0.028 -0.282 -0.025 -0.754" />
    <path class="write-flat-pen" fill="#FFFFFF" stroke-width="1.8" __comx="374.2" __comy="51.133" __timestamp="0x177d0440b9b" d="M373.41 42.452 l0.797 -0.188 -0.402 -0.243 0.16 0.233 0.031 0.048 0.05 0.123 0.06 0.144 0.094 0.185 0.471 0.889 0.253 -0.014 0.368 -0.936 0.071 -0.23 0.018 -0.226 -0.005 -0.202 -0.042 -0.286 -0.395 -0.802 -0.512 -0.31 -1.409 0.44" />
    <path class="write-flat-pen" fill="#FFFFFF" stroke-width="1.8" __comx="382.652" __comy="51.133" __timestamp="0x177d0440d53" d="M376.916 44.719 l-0.052 0.56 -0.031 0.134 -0.054 0.364 -0.025 0.25 -0.021 0.586 0 0.315 0.015 0.735 0.019 0.429 0.059 0.936 0.065 0.498 0.103 1.43 0.029 0.481 0.109 2.486 0.024 0.43 0.042 3.01 0 0 -0.002 0.025 0 0 -0.061 0.25 0 0 1.692 0.192 0.04 -0.89 0.476 -2.459 0.499 -1.801 0.697 -1.83 0.865 -1.726 0.625 -0.955 1.033 -1.157 0.835 -0.613 0.423 -0.163 0.661 -0.088 0.546 0.136 0.259 0.18 0.457 0.641 0.309 0.965 0.223 1.607 0.057 2.485 -0.218 2.433 -0.036 0.314 -0.051 0.605 -0.017 0.3 -0.006 0.248 0.003 0.236 0.02 0.207 0.055 0.187 0.419 1.09 0.375 0.022 0.545 -1.033 0.076 -0.17 0.048 -0.179 0.043 -0.214 0.04 -0.232 0.045 -0.281 0.085 -0.578 0.05 -0.329 0.261 -2.563 -0.058 -2.688 -0.257 -1.854 -0.434 -1.365 -0.786 -1.111 -0.77 -0.538 -1.18 -0.298 -1.199 0.157 -0.834 0.322 -1.172 0.859 -1.242 1.392 -0.752 1.149 -0.947 1.896 -0.755 1.989 -0.537 1.948 -0.507 2.664 -0.02 1.028 1.692 0.192 0 0 0.063 -0.376 0 0 0.009 -0.207 0 0 -0.09 -3.101 -0.032 -0.456 -0.163 -2.493 -0.046 -0.51 -0.167 -1.486 -0.091 -0.496 -0.113 -0.88 -0.053 -0.41 -0.09 -0.715 -0.038 -0.293 -0.067 -0.543 -0.025 -0.226 -0.054 -0.364 -0.031 -0.134 -0.052 -0.56" />
    <path class="write-flat-pen" fill="#FFFFFF" stroke-width="1.8" __comx="391.565" __comy="49.893" __timestamp="0x177d0440ff0" d="M397.655 50.093 l0.56 -0.827 0.113 -0.158 0.264 -0.437 0.073 -0.148 0.262 -0.569 0.065 -0.207 0.131 -0.717 -0.203 -0.776 -0.673 -0.64 -1.071 -0.301 -1.391 0.078 -1.506 0.426 -0.933 0.458 -0.854 0.655 -0.763 0.879 -0.571 1.002 -0.513 1.543 -0.241 1.662 -0.027 2.046 0.228 1.277 0.406 1.011 0.68 0.72 0.761 0.359 0.95 -0.008 0.946 -0.399 0.874 -0.723 0.727 -0.89 0.885 -1.492 0.899 -2.009 0 0 0.425 -1.383 0 0 0.411 -2.39 0 0 -1.736 -0.034 0.572 4.336 0.28 4.038 0.011 3.047 -0.173 3.239 -0.617 4.298 -0.543 2.588 -0.711 2.375 -0.963 2.179 -1.048 1.798 -0.703 0.875 -0.752 0.677 -0.784 0.479 -0.857 0.267 -0.93 0.091 -0.968 -0.162 -0.988 -0.429 -0.841 -0.609 -0.641 -0.738 -0.475 -0.947 -0.224 -1.132 0.009 -1.155 0.314 -1.024 0.564 -0.913 1.357 -1.368 0.513 -0.401 0.586 -0.404 0.593 -0.37 0.635 -0.365 0.638 -0.35 0.674 -0.352 0.683 -0.37 0.654 -0.416 0.602 -0.51 0.669 -0.569 -0.147 -0.325 -0.869 0.125 -0.784 0.116 -0.741 0.225 -0.736 0.269 -0.738 0.31 -0.705 0.336 -0.704 0.37 -0.671 0.396 -0.675 0.448 -0.653 0.498 -1.595 1.585 -0.798 1.285 -0.46 1.496 -0.014 1.601 0.306 1.551 0.686 1.368 0.926 1.065 1.168 0.844 1.37 0.593 1.42 0.236 1.35 -0.134 1.244 -0.391 1.113 -0.683 0.981 -0.885 0.875 -1.092 1.163 -2 1.046 -2.374 0.761 -2.555 0.567 -2.717 0.628 -4.435 0.172 -3.368 -0.017 -3.154 -0.289 -4.148 -0.572 -4.39 -1.736 -0.034 0 0 -0.391 2.28 0 0 -0.358 1.175 0 0 -0.81 1.821 -0.763 1.296 -0.536 0.66 -0.545 0.455 -0.394 0.169 -0.212 0.004 -0.11 -0.05 -0.233 -0.244 -0.22 -0.542 -0.169 -0.94 0.024 -1.769 0.202 -1.401 0.41 -1.238 0.402 -0.708 0.538 -0.622 0.58 -0.446 0.641 -0.314 1.177 -0.333 0.923 -0.056 0.398 0.104 0.03 0.018 -0.002 -0.039 -0.031 0.264 -0.004 0.029 -0.176 0.49 -0.032 0.09 -0.161 0.374 -0.058 0.121 -0.5 0.854" />
    <path class="write-flat-pen" fill="#FFFFFF" stroke-width="1.8" __comx="442.494" __comy="49.893" __timestamp="0x177d0441604" d="M441.274 37.355 l0.06 -0.697 0.031 -0.148 0.085 -0.416 0.033 -0.144 0.095 -0.417 0.027 -0.086 0.092 -0.192 -0.062 0.137 -0.203 0.232 -0.459 -0.062 -0.146 -0.09 0.002 0.042 0.105 0.244 0.122 0.31 0.309 0.928 0.163 0.536 0.719 3.168 0.387 3.08 0.242 3.478 0.036 3.533 -0.205 3.135 -0.801 4.909 0.8 -0.261 0.379 0.349 -0.082 -0.009 -0.261 -0.351 -0.469 -0.708 -0.428 0.091 -0.139 0.838 -0.069 0.547 0.144 0.554 0.603 0.531 1.003 -0.332 1.014 -5.961 0.215 -3.284 -0.036 -3.648 -0.251 -3.576 -0.407 -3.213 -0.783 -3.312 -0.207 -0.624 -0.382 -0.998 -0.194 -0.396 -0.182 -0.308 -0.189 -0.278 -0.374 -0.281 -0.593 -0.087 -0.444 0.442 -0.105 0.221 -0.07 0.413 -0.014 0.174 -0.012 0.446 -0.005 0.166 0.007 0.451 0.008 0.18 0.02 0.72" />
    <path class="write-flat-pen" fill="#FFFFFF" stroke-width="1.8" __comx="449.567" __comy="49.893" __timestamp="0x177d0441720" d="M442.167 36.285 l-0.584 -0.816 0.013 0.01 0.153 0.208 -0.088 0.502 -0.187 0.19 -0.068 0.039 0.398 -0.054 0.297 -0.031 13.339 -0.469 0.602 -0.036 0.55 -0.033 0.524 -0.038 0.469 -0.063 0.41 -0.124 1.005 -0.308 0.01 -0.462 -0.99 -0.352 -0.424 -0.142 -0.492 -0.057 -0.534 -0.028 -0.568 -0.013 -0.616 0.002 -13.423 0.433 -0.425 0.063 -0.578 0.132 -0.318 0.133 -0.403 0.374 -0.114 0.625 0.272 0.401 0.045 0.046 0.61 0.73" />
    <path class="write-flat-pen" fill="#FFFFFF" stroke-width="1.8" __comx="451.505" __comy="49.893" __timestamp="0x177d044184f" d="M445.591 46.356 l-0.814 0.434 -0.156 0.092 -0.383 0.251 -0.051 0.039 -0.256 0.204 -0.196 0.386 0.073 0.635 0.502 0.338 0.424 0.089 0.382 -0.02 1.393 -0.09 0.601 -0.036 8.386 -0.122 0.555 -0.011 0.512 -0.016 0.482 -0.023 0.447 -0.033 0.392 -0.055 0.372 -0.114 1.005 -0.334 0.014 -0.403 -0.979 -0.404 -0.378 -0.141 -0.416 -0.066 -0.457 -0.033 -0.482 -0.022 -0.512 -0.015 -0.566 -0.011 -8.442 0.094 -0.658 0.047 -1.408 0.135 -0.176 0.029 0.094 0.033 0.364 0.251 0.06 0.539 -0.147 0.281 -0.015 -0.019 0.001 -0.005 0.28 -0.269 0.063 -0.06 0.733 -0.464" />
    <path class="write-flat-pen" fill="#FFFFFF" stroke-width="1.8" __comx="469.561" __comy="49.893" __timestamp="0x177d0441abf" d="M465.041 51.066 l0.043 -0.847 0.017 -0.121 0.04 -0.361 0.011 -0.122 0.031 -0.421 -0.006 -0.154 -0.041 -0.224 -1.484 -0.085 -0.074 0.139 -0.193 0.875 -0.06 0.344 -0.311 2.245 -0.113 2.199 0.146 2.003 0.263 1.232 0.571 1.273 0.754 0.693 0.785 0.311 0.919 -0.008 0.873 -0.308 0.869 -0.582 1.169 -1.195 0.746 -1.013 0.869 -1.692 0.663 -1.779 1.119 -3.951 0.145 -1.126 -0.172 -0.862 -0.794 -0.848 -1.174 0.596 -0.395 1.153 -0.15 1.773 0.167 2.136 0.4 1.598 0.577 1.504 0.854 1.65 1.221 1.49 0.355 0.211 0.28 0.119 0.347 0.104 0.423 0.021 0.36 -0.066 0.289 -0.173 0.842 -0.647 -0.107 -0.434 -1.046 -0.183 -0.214 -0.05 -0.095 -0.033 -0.09 -0.035 -0.084 -0.045 -0.104 -0.06 -0.015 -0.018 -0.903 -1.151 -0.726 -1.41 -0.501 -1.317 -0.337 -1.355 -0.144 -1.85 0.122 -1.417 0.097 -0.278 -0.628 0.319 -0.443 -0.473 0.018 0.092 -0.091 0.713 -1.06 3.76 -0.598 1.619 -0.756 1.478 -0.59 0.805 -0.957 0.983 -0.539 0.363 -0.395 0.141 -0.295 0.004 -0.176 -0.069 -0.26 -0.237 -0.353 -0.783 -0.204 -0.94 -0.14 -1.781 0.091 -2.022 0.278 -2.15 0.046 -0.299 0.105 -0.674 -0.024 0.029 -1.484 -0.085 0.039 0.021 -0.002 -0.086 0.033 0.372 0.011 0.121 0.04 0.361 0.017 0.121 0.043 0.847" />
    <path class="write-flat-pen" fill="#FFFFFF" stroke-width="1.8" __comx="482.255" __comy="49.893" __timestamp="0x177d0441c60" d="M476.959 48.689 l-0.11 0.535 -0.053 0.079 -0.055 0.13 -0.043 0.147 -0.036 0.188 -0.025 0.255 -0.011 0.268 0.005 0.342 0.071 0.763 0.049 0.443 0.29 1.781 0.072 0.437 0.452 2.895 0.052 0.357 0.258 1.442 0.705 1.054 1.15 -0.232 0.532 -0.766 0.502 -1.723 0.574 -3.896 0.415 -1.85 0.571 -1.531 0.527 -0.911 0.473 -0.504 0.457 -0.231 0.413 -0.061 0.223 0.053 0.303 0.187 0.579 0.713 0.292 0.636 0.309 1.276 0.184 2.028 -0.121 4.914 0.019 0.263 0.116 0.492 0.199 0.307 0.358 0.279 0.337 -0.022 0.76 -0.212 0.136 -0.678 -0.619 -0.489 0.143 -0.061 0.205 0.135 0.092 0.123 -0.007 -0.104 -0.001 -0.063 0.147 -4.941 -0.204 -2.261 -0.38 -1.568 -0.455 -0.993 -0.906 -1.119 -0.799 -0.494 -0.83 -0.198 -1.032 0.152 -0.99 0.501 -0.824 0.878 -0.703 1.215 -0.664 1.784 -0.451 2.033 -0.559 3.844 -0.384 1.337 0.031 -0.04 0.673 -0.134 0.137 0.211 -0.2 -1.059 -0.052 -0.339 -0.494 -2.909 -0.082 -0.446 -0.328 -1.741 -0.063 -0.406 -0.122 -0.71 -0.04 -0.273 -0.032 -0.224 -0.033 -0.204 -0.027 -0.151 -0.032 -0.128 -0.041 -0.096 -0.04 -0.049 0.03 -0.533" />
    <path class="write-flat-pen" fill="#FFFFFF" stroke-width="1.8" __comx="496.05" __comy="49.893" __timestamp="0x177d0441de0" d="M495.649 51.057 l0.643 -0.502 0.042 -0.024 0.216 -0.129 0.101 -0.087 0.208 -0.176 0.186 -0.199 0.256 -0.383 0.105 -0.208 0.197 -0.575 0.05 -0.343 -0.092 -0.701 -0.546 -0.688 -0.969 -0.33 -0.888 0.043 -1.289 0.385 -0.911 0.5 -0.808 0.715 -0.656 0.896 -0.448 1.05 -0.314 1.651 -0.005 1.136 0.233 1.075 0.444 1.037 0.909 1.272 0.786 0.67 0.899 0.466 1.074 0.255 1.159 0.037 2.147 -0.58 0.553 -0.279 0.499 -0.295 0.442 -0.32 0.386 -0.335 0.364 -0.39 0.248 -0.44 0.504 -0.964 -0.364 -0.376 -0.979 0.473 -0.419 0.206 -0.372 0.251 -0.342 0.228 -0.361 0.222 -0.407 0.215 -0.361 0.168 -1.737 0.45 -0.724 -0.025 -0.691 -0.164 -0.529 -0.274 -0.469 -0.399 -0.672 -0.941 -0.301 -0.707 -0.156 -0.723 0.003 -0.782 0.246 -1.306 0.293 -0.69 0.425 -0.581 0.519 -0.46 0.577 -0.317 0.908 -0.275 0.347 -0.02 0.18 0.053 -0.056 -0.081 0.01 0.001 0.009 -0.028 -0.083 0.341 -0.008 0.033 -0.107 0.221 -0.043 0.07 -0.136 0.17 -0.024 0.039 -0.139 0.153 -0.044 0.054 -0.583 0.534" />
    <path class="write-flat-pen" fill="#FFFFFF" stroke-width="1.8" __comx="507.001" __comy="49.893" __timestamp="0x177d0441f32" d="M504.334 38.543 l0.653 -0.417 -0.229 0.044 0.163 0.066 -0.016 0.003 0.817 0.923 0.179 0.299 0.702 1.453 0.727 1.957 0.806 3.329 0.386 2.857 0.254 4.396 0.046 3.014 0.006 0.227 0.019 0.271 0.041 0.009 0.276 1.051 0.404 0.113 0.779 -0.758 0.092 -0.176 0.039 -0.489 0.005 -0.256 -0.008 -3.062 -0.257 -4.503 -0.411 -3.01 -0.863 -3.511 -0.805 -2.123 -0.793 -1.587 -0.312 -0.498 -1.14 -1.189 -0.42 -0.222 -0.674 -0.111 -0.386 0.068 -0.895 0.68" />
    <path class="write-flat-pen" fill="#FFFFFF" stroke-width="1.8" __comx="509.672" __comy="49.893" __timestamp="0x177d044200e" d="M505.067 49.152 l-0.042 -0.873 -0.113 0.29 0.323 -0.206 0.115 -0.031 1.046 -0.148 6.289 -0.295 0.505 -0.059 0.482 -0.097 0.432 -0.086 0.445 -0.107 0.465 -0.199 0.96 -0.436 -0.044 -0.436 -1.028 -0.237 -0.496 -0.103 -0.475 -0.013 -0.483 0.027 -0.463 0.052 -0.415 0.026 -6.336 0.264 -1.254 0.188 -0.501 0.154 -0.91 0.676 -0.204 0.51 0.118 1.257" />
    <path class="write-flat-pen" fill="#FFFFFF" stroke-width="1.8" __comx="521.304" __comy="49.893" __timestamp="0x177d0442149" d="M519.826 48.601 l-0.164 0.712 -0.032 0.145 -0.021 0.176 -0.008 0.209 0.003 0.256 0.016 0.314 0.102 0.823 0.066 0.465 1.197 6.067 0.49 1.34 0.774 0.305 0.547 -0.359 0.211 -0.463 -0.036 -0.482 -0.157 -0.706 -0.173 -0.052 -0.522 0.501 -0.237 0.181 -0.061 -0.087 0.35 -0.251 0.589 0.225 -0.172 -0.586 -1.211 -5.921 -0.08 -0.431 -0.155 -0.774 -0.047 -0.261 -0.042 -0.22 -0.032 -0.143 -0.023 -0.082 -0.02 -0.027 0.079 -0.657" />
    <path class="write-flat-pen" fill="#FFFFFF" stroke-width="1.8" __comx="521.091" __comy="49.893" __timestamp="0x177d04421e0" d="M521.062 39.74 l-0.477 0.736 -0.11 0.242 -0.302 1.262 -0.033 2.292 0.083 0.579 0.168 0.563 0.188 0.51 0.265 0.501 0.42 0.78 0.2 -0.049 0.013 -0.886 0.006 -0.56 -0.048 -0.519 -0.046 -0.507 -0.01 -0.447 0.107 -2.096 0.196 -1.059 0.014 -0.075 0.346 -0.709" />
    <path class="write-flat-pen" fill="#FFFFFF" stroke-width="1.8" __comx="530.477" __comy="49.893" __timestamp="0x177d0442355" d="M532.828 50.819 l-0.128 -0.84 -0.014 -0.15 -0.043 -0.306 -0.058 -0.222 -0.174 -0.564 -0.133 -0.28 -0.449 -0.58 -0.852 -0.501 -1.207 -0.276 -0.98 0.084 -0.941 0.351 -0.842 0.639 -0.653 0.862 -0.427 1.009 -0.252 1.128 -0.109 1.706 0.323 1.606 0.539 1.437 0.744 1.193 0.95 0.927 1.082 0.479 0.902 0.107 0.966 -0.198 0.956 -0.446 0.878 -0.673 0.779 -0.903 0.877 -1.592 0.544 -1.764 0.283 -2.115 -0.115 -1.104 -0.491 -1.498 -0.586 -0.952 -1.25 -1.239 -0.355 -0.195 -0.559 -0.191 -0.318 -0.012 -0.288 0.039 -0.264 0.092 -0.242 0.154 -0.199 0.215 -0.081 0.232 -0.093 0.937 0.259 0.202 0.886 -0.318 0.107 -0.009 -0.001 0.051 -0.028 0.042 -0.039 0.028 0.002 0.014 -0.059 0.006 0.192 0.088 0.023 0.018 0.916 0.941 0.366 0.603 0.366 1.123 0.074 0.708 -0.232 1.763 -0.443 1.455 -0.697 1.278 -0.539 0.634 -0.582 0.454 -0.597 0.285 -0.494 0.107 -0.371 -0.039 -0.568 -0.245 -0.589 -0.565 -0.556 -0.872 -0.444 -1.15 -0.265 -1.257 0.074 -1.359 0.185 -0.857 0.287 -0.684 0.394 -0.519 0.472 -0.358 0.507 -0.19 0.507 -0.045 0.724 0.156 0.391 0.211 0.181 0.199 0.033 0.047 0.201 0.44 0.062 0.13 0.085 0.216 0.046 0.115 0.209 0.809" />
    <path class="write-flat-pen" fill="#FFFFFF" stroke-width="1.8" __comx="544.546" __comy="49.893" __timestamp="0x177d044250c" d="M538.659 47.237 l-0.761 0.279 -0.161 0.288 -0.058 0.124 -0.049 0.128 -0.043 0.153 -0.038 0.203 -0.023 0.242 -0.01 0.302 0.049 0.663 0.031 0.39 0.292 1.779 0.128 0.516 0.919 3.785 0.092 0.305 0.348 1.129 0.765 0.979 1.203 -0.617 0.386 -1.139 0.541 -4.235 0.874 -3.672 0.451 -1.327 0.57 -1.023 0.619 -0.66 0.354 -0.209 0.398 -0.104 0.359 0.026 0.386 0.161 0.462 0.375 0.749 1.056 0.693 1.577 0.552 1.739 0.563 2.905 0.479 4.287 0.056 0.294 0.14 0.418 0.082 0.162 0.062 0.079 1.013 0.561 0.312 -0.162 0.13 -1.135 0.005 -0.038 -0.003 -0.038 -0.052 -0.236 -0.019 -0.145 -0.456 -4.31 -0.594 -3.078 -0.611 -1.927 -0.803 -1.829 -0.993 -1.402 -0.848 -0.688 -0.884 -0.372 -0.941 -0.071 -0.926 0.242 -0.785 0.466 -0.94 1.002 -0.755 1.353 -0.531 1.558 -0.914 3.847 -0.52 4.158 -0.097 0.305 0.705 -0.358 0.309 0.403 -0.267 -0.816 -0.08 -0.253 -0.951 -3.736 -0.122 -0.46 -0.317 -1.653 -0.045 -0.341 -0.098 -0.602 -0.026 -0.212 -0.023 -0.179 -0.019 -0.148 -0.022 -0.106 -0.026 -0.047 -0.036 0.03 -0.136 0.231 0.305 -0.121" />
    <path class="write-flat-pen" fill="#FFFFFF" stroke-width="1.8" __comx="560.168" __comy="49.893" __timestamp="0x177d04426df" d="M561.024 45.067 l0.027 -0.747 0.01 -0.141 -0.012 -0.252 -0.034 -0.173 -0.124 -0.331 -0.148 -0.216 -0.344 -0.337 -0.271 -0.159 -0.671 -0.23 -0.325 -0.062 -0.952 -0.05 -1.059 0.206 -0.984 0.516 -0.762 0.858 -0.392 1.003 -0.07 0.821 0.294 1.076 0.701 1.061 0.704 0.711 1.234 0.884 3.962 1.782 1.03 0.616 0.505 0.458 0.288 0.469 0.131 0.538 -0.067 0.718 -0.363 0.799 -0.583 0.706 -0.819 0.547 -0.877 0.265 -1.025 0.039 -0.686 -0.155 -1.052 -0.448 -1.05 -0.746 -0.173 -0.147 -0.349 -0.32 -0.144 -0.136 -0.131 -0.119 -0.122 -0.11 -0.178 -0.123 -1.01 -0.563 -0.3 0.21 0.183 1.141 0.053 0.206 0.1 0.209 0.161 0.23 0.171 0.212 0.383 0.411 0.266 0.247 1.267 0.935 1.38 0.592 1.07 0.239 1.482 -0.062 1.34 -0.413 1.243 -0.841 0.886 -1.087 0.569 -1.277 0.113 -1.291 -0.264 -1.077 -0.557 -0.907 -0.813 -0.737 -1.261 -0.756 -3.897 -1.752 -0.977 -0.699 -0.482 -0.487 -0.455 -0.69 -0.142 -0.516 0.022 -0.269 0.188 -0.485 0.349 -0.395 0.486 -0.259 0.616 -0.129 0.641 0.012 0.115 0.014 0.428 0.105 -0.017 -0.02 0.129 0.075 -0.02 -0.047 0.063 0.058 0.014 -0.007 0.057 0.086 0.019 0.01 0.037 0.714" />
    <path class="write-stroke-pen" fill="none" stroke="#FFFFFF" stroke-width="1.8" stroke-linecap="round" stroke-linejoin="round" __comx="320.44" __comy="66.424" __timestamp="0x177d0444571" d="M41.842 68.488 l557.196 -3.528" />
  </g>
</svg>
