<svg class="write-page" width="1010px" height="1628px" xmlns="http://www.w3.org/2000/svg" xmlns:xlink="http://www.w3.org/1999/xlink">
  <g class="write-content write-v3" width="1010" height="1628" xruling="30" yruling="30" marginLeft="30" papercolor="#1B1C1C" rulecolor="#3A00F9FF">
    <g class="ruleline write-std-ruling write-scale-down" fill="none" stroke="#00F9FF" stroke-opacity="0.227" stroke-width="1" shape-rendering="crispEdges" vector-effect="non-scaling-stroke">
      <rect class="pagerect" fill="#1B1C1C" stroke="none" x="0" y="0" width="1010" height="1628" />
      <path class="yrule_1" d="M0 30 l1010 0" />
      <path d="M0 60 l1010 0" />
      <path d="M0 90 l1010 0" />
      <path d="M0 120 l1010 0" />
      <path d="M0 150 l1010 0" />
      <path d="M0 180 l1010 0" />
      <path d="M0 210 l1010 0" />
      <path d="M0 240 l1010 0" />
      <path d="M0 270 l1010 0" />
      <path d="M0 300 l1010 0" />
      <path d="M0 330 l1010 0" />
      <path d="M0 360 l1010 0" />
      <path d="M0 390 l1010 0" />
      <path d="M0 420 l1010 0" />
      <path d="M0 450 l1010 0" />
      <path d="M0 480 l1010 0" />
      <path d="M0 510 l1010 0" />
      <path d="M0 540 l1010 0" />
      <path d="M0 570 l1010 0" />
      <path d="M0 600 l1010 0" />
      <path d="M0 630 l1010 0" />
      <path d="M0 660 l1010 0" />
      <path d="M0 690 l1010 0" />
      <path d="M0 720 l1010 0" />
      <path d="M0 750 l1010 0" />
      <path d="M0 780 l1010 0" />
      <path d="M0 810 l1010 0" />
      <path d="M0 840 l1010 0" />
      <path d="M0 870 l1010 0" />
      <path d="M0 900 l1010 0" />
      <path d="M0 930 l1010 0" />
      <path d="M0 960 l1010 0" />
      <path d="M0 990 l1010 0" />
      <path d="M0 1020 l1010 0" />
      <path d="M0 1050 l1010 0" />
      <path d="M0 1080 l1010 0" />
      <path d="M0 1110 l1010 0" />
      <path d="M0 1140 l1010 0" />
      <path d="M0 1170 l1010 0" />
      <path d="M0 1200 l1010 0" />
      <path d="M0 1230 l1010 0" />
      <path d="M0 1260 l1010 0" />
      <path d="M0 1290 l1010 0" />
      <path d="M0 1320 l1010 0" />
      <path d="M0 1350 l1010 0" />
      <path d="M0 1380 l1010 0" />
      <path d="M0 1410 l1010 0" />
      <path d="M0 1440 l1010 0" />
      <path d="M0 1470 l1010 0" />
      <path d="M0 1500 l1010 0" />
      <path d="M0 1530 l1010 0" />
      <path d="M0 1560 l1010 0" />
      <path d="M0 1590 l1010 0" />
      <path d="M0 1620 l1010 0" />
      <path class="xrule_1" d="M30 0 l0 1628" />
      <path d="M60 0 l0 1628" />
      <path d="M90 0 l0 1628" />
      <path d="M120 0 l0 1628" />
      <path d="M150 0 l0 1628" />
      <path d="M180 0 l0 1628" />
      <path d="M210 0 l0 1628" />
      <path d="M240 0 l0 1628" />
      <path d="M270 0 l0 1628" />
      <path d="M300 0 l0 1628" />
      <path d="M330 0 l0 1628" />
      <path d="M360 0 l0 1628" />
      <path d="M390 0 l0 1628" />
      <path d="M420 0 l0 1628" />
      <path d="M450 0 l0 1628" />
      <path d="M480 0 l0 1628" />
      <path d="M510 0 l0 1628" />
      <path d="M540 0 l0 1628" />
      <path d="M570 0 l0 1628" />
      <path d="M600 0 l0 1628" />
      <path d="M630 0 l0 1628" />
      <path d="M660 0 l0 1628" />
      <path d="M690 0 l0 1628" />
      <path d="M720 0 l0 1628" />
      <path d="M750 0 l0 1628" />
      <path d="M780 0 l0 1628" />
      <path d="M810 0 l0 1628" />
      <path d="M840 0 l0 1628" />
      <path d="M870 0 l0 1628" />
      <path d="M900 0 l0 1628" />
      <path d="M930 0 l0 1628" />
      <path d="M960 0 l0 1628" />
      <path d="M990 0 l0 1628" />
      <path class="leftmargin" stroke="#FF0000" d="M30 0 l0 1628" />
    </g>
    <path class="write-flat-pen" fill="#FFFFFF" stroke-width="1.6" __comx="67.02" __comy="45.934" __timestamp="0x1786c2b196b" d="M65.568 36.515 l0.251 0.8 0.054 0.216 0.387 1.55 0.117 0.552 0.608 3.246 0.089 0.976 0.146 4.152 -0.294 4.223 -0.53 2.502 0.024 0 0.126 0.147 0.003 0.094 -0.221 -0.433 -0.632 -1.431 -0.186 0.035 -0.065 1.582 0.022 0.603 0.173 0.49 1.23 0.571 0.848 -1.037 0.608 -2.932 0.269 -4.402 -0.253 -4.265 -0.139 -1.076 -0.819 -3.289 -0.184 -0.586 -0.615 -1.523 -0.117 -0.239 -0.464 -0.731" />
    <path class="write-flat-pen" fill="#FFFFFF" stroke-width="1.6" __comx="68.304" __comy="45.934" __timestamp="0x1786c2b1a8c" d="M57.199 37.763 l-0.402 -1.278 -0.129 0.238 0.685 -0.384 2.617 -0.478 17.008 -1.033 0.746 -0.096 0.695 -0.104 0.59 -0.117 2.235 -0.423 -0.011 -0.244 -2.264 -0.22 -0.605 -0.063 -0.716 -0.021 -0.749 0.007 -17.114 0.839 -2.965 0.628 -1.109 0.766 -0.345 0.586 0.851 1.799" />
    <path class="write-flat-pen" fill="#FFFFFF" stroke-width="1.6" __comx="81.429" __comy="45.934" __timestamp="0x1786c2b1cd8" d="M75.436 46.066 l0.269 1.414 0.068 0.329 0.743 3.195 0.106 0.478 0.763 4.471 0 0 1.196 -0.641 0.125 0.116 -0.914 -4.114 -0.141 -2.523 0.463 -2.134 0.715 -1.436 0.841 -0.825 1.171 -0.507 1.027 0.021 1.188 0.489 2.189 2.187 0.17 0.224 0.367 0.477 1.465 1.819 0.175 -0.097 -0.758 -2.209 -0.218 -0.586 -0.199 -0.385 -2.325 -2.666 -1.731 -0.747 -1.643 -0.046 -1.738 0.745 -1.227 1.202 -0.911 1.836 -0.542 2.521 0.171 2.854 1.103 4.625 0.176 0.167 1.196 -0.641 0 0 -0.996 -4.455 -0.141 -0.512 -0.969 -3.142 -0.102 -0.319 -0.473 -1.362" />
    <path class="write-flat-pen" fill="#FFFFFF" stroke-width="1.6" __comx="90.272" __comy="45.934" __timestamp="0x1786c2b1dd6" d="M88.721 47.951 l0.18 1.552 0.05 0.334 0.653 3.517 0.11 0.603 0.967 4.728 1.122 0.073 -0.002 -0.188 -0.122 -0.302 -0.398 -0.762 -0.163 0.012 -0.278 0.813 -0.091 0.111 -0.048 -0.046 1.122 0.073 -0.819 -4.763 -0.134 -0.616 -0.864 -3.473 -0.08 -0.312 -0.391 -1.505" />
    <path class="write-flat-pen" fill="#FFFFFF" stroke-width="1.6" __comx="90.958" __comy="45.934" __timestamp="0x1786c2b1e77" d="M90.591 40.432 l-0.444 3.155 0.401 3.1 0.196 0.485 0.853 2.093 0.171 -0.047 -0.336 -2.235 -0.061 -0.451 -0.236 -2.943 0.223 -3.074" />
    <path class="write-flat-pen" fill="#FFFFFF" stroke-width="1.6" __comx="100.055" __comy="50.219" __timestamp="0x1786c2b20c6" d="M100.403 49.518 l-0.192 -1.751 -0.03 -0.191 -0.475 -1.162 -1.021 -0.556 -1.514 0.366 -1.378 1.26 -0.882 1.75 -0.464 2.392 0.079 2.006 0.595 1.321 1.127 0.775 1.29 -0.047 1.585 -0.984 1.405 -1.78 0 0 1.378 -3.411 0 0 -1.27 -0.116 1.633 8.355 0.49 4.619 -0.139 3.686 -0.586 2.58 -0.899 2.074 -0.81 1.047 -1.195 0.772 -0.884 0.133 -0.923 -0.263 -0.881 -0.775 -0.606 -1.309 -0.269 -2.003 0.277 -2.405 0.765 -2.332 1.541 -2.788 3.024 -3.403 0.445 -0.36 1.359 -0.921 0.387 -0.222 0.791 -0.406 1.998 -0.994 -0.036 -0.108 -2.206 0.392 -0.914 0.205 -0.515 0.184 -1.559 0.826 -0.62 0.427 -3.396 3.467 -1.768 3.052 -0.866 2.637 -0.319 2.765 0.328 2.44 0.849 1.835 1.406 1.236 1.604 0.456 1.568 -0.237 1.713 -1.108 1.098 -1.423 1.03 -2.399 0.627 -2.875 0.104 -3.943 -0.571 -4.785 -1.769 -8.393 -1.27 -0.116 0 0 -1.302 3.237 0 0 -1.143 1.449 -1.088 0.678 -0.505 0.022 -0.471 -0.316 -0.349 -0.754 -0.074 -1.603 0.398 -2.071 0.692 -1.387 0.963 -0.895 0.744 -0.206 0.267 0.11 0.337 0.636 0.018 0.054 0.411 1.703" />
    <path class="write-flat-pen" fill="#FFFFFF" stroke-width="1.6" __comx="112.039" __comy="50.219" __timestamp="0x1786c2b228c" d="M111.043 53.563 l0.297 -1.265 0.038 -0.146 0.179 -1.777 -0.468 -0.463 -1.095 -0.054 -1.217 0.751 -0.991 1.365 -0.701 2.153 -0.113 2.235 0.534 1.682 1.091 1.244 1.353 0.56 1.837 -0.264 1.832 -1.13 1.902 -2.097 1.108 -2.362 0.478 -2.398 -0.112 -1.919 -0.808 -1.722 -1.388 -1.197 -1.736 -0.597 -1.468 0.253 -1.232 0.885 -0.811 1.847 0.002 0.429 0.128 0.512 0.15 0.269 0.949 1.571 0.138 -0.044 -0.124 -1.831 0.001 -0.204 0.031 -0.31 0.029 -0.042 0.697 -1.163 0.649 -0.418 0.721 -0.111 1.062 0.368 0.897 0.773 0.532 1.134 0.082 1.407 -0.4 2.006 -0.923 1.969 -1.588 1.754 -1.357 0.842 -1.082 0.163 -0.621 -0.247 -0.652 -0.717 -0.378 -1.108 0.043 -1.772 0.523 -1.772 0.678 -0.986 0.632 -0.43 0.206 -0.032 -0.27 -0.274 0.071 1.161 -0.006 0.097 -0.073 1.315" />
    <path class="write-flat-pen" fill="#FFFFFF" stroke-width="1.6" __comx="125.225" __comy="50.219" __timestamp="0x1786c2b2421" d="M120.124 48.134 l-0.219 0.756 -0.038 0.195 -0.111 1.007 -0.017 0.349 -0.038 3.616 0.016 0.367 0.191 2.061 0 0 0.211 0.431 0 0 1.49 -0.22 1.358 -7.844 0.66 -1.882 0.796 -1.15 0.553 -0.35 0.465 -0.004 0.994 0.736 0.816 1.505 0.78 2.664 1.385 7.342 0.189 0.179 0.963 0.599 0.118 -0.066 0 -1.135 0.062 -0.049 -1.157 -7.234 -0.854 -2.914 -1.066 -1.967 -1.709 -1.266 -1.457 0.011 -1.214 0.768 -1.104 1.595 -0.776 2.212 -1.366 7.978 1.49 -0.22 0 0 -0.088 -0.168 0 0 -0.188 -1.734 -0.02 -0.306 -0.187 -3.581 -0.027 -0.326 -0.085 -0.969 -0.019 -0.135 -0.015 -0.746" />
    <path class="write-flat-pen" fill="#FFFFFF" stroke-width="1.6" __comx="141.769" __comy="50.219" __timestamp="0x1786c2b26a6" d="M141.268 46.263 l-0.56 -0.884 -0.344 -0.22 -1.487 0.134 -0.442 0.23 -1.348 1.062 -1.139 1.654 -0.782 2.368 -0.02 2.276 0.605 1.783 1.423 1.915 1.521 0.973 2.025 0.381 2.226 -0.489 2.11 -1.199 1.664 -1.636 1.064 -1.916 0.607 -2.605 -0.074 -1.857 -0.624 -1.813 -1.255 -1.626 -1.821 -1.211 -1.519 -0.382 -1.564 0.214 -1.485 0.866 -1.326 1.738 -0.654 2.73 0.03 0.488 0.319 1.049 0.197 0.33 1.12 1.807 0.132 -0.051 -0.384 -2.092 -0.042 -0.289 -0.058 -0.886 0.022 -0.181 0.727 -2.193 0.989 -1.223 0.946 -0.551 0.943 -0.129 0.952 0.239 1.372 0.912 0.933 1.209 0.462 1.342 0.056 1.406 -0.507 2.177 -0.843 1.519 -1.35 1.327 -1.717 0.976 -1.671 0.368 -1.401 -0.262 -1.016 -0.648 -1.109 -1.478 -0.454 -1.297 -0.022 -1.779 0.585 -1.967 0.856 -1.351 1.038 -0.929 0.13 -0.091 0.865 -0.258 -0.124 -0.093 0.619 0.594" />
    <path class="write-flat-pen" fill="#FFFFFF" stroke-width="1.6" __comx="166.194" __comy="50.219" __timestamp="0x1786c2b2a55" d="M149.166 45.826 l0.016 0.507 0.019 0.121 0.269 1.125 0.072 0.329 0.818 3.92 0.077 0.464 0 0 0.636 4.54 0 0 1.566 -0.085 0.226 -4.627 0.705 -4.351 0.768 -2.051 0.598 -0.815 0.198 -0.078 0.143 0.068 0.564 1.057 1.432 8.602 0.911 1.574 1.423 -0.651 0.845 -1.891 1.506 -7.228 0.936 -2.719 0.594 -0.828 0.376 -0.193 0.323 0.069 0.647 0.698 0.767 2.1 0.647 9.595 0.537 1.697 1.165 0.764 1.558 -0.266 2.001 -1.581 1.841 -2.457 1.597 -3.459 0.947 -3.21 0.376 -3.214 -0.457 -1.478 -1.152 -1.051 -1.313 0.296 -0.861 1.291 -0.447 2.571 0.353 3.009 1.225 3.695 1.219 2.291 1.156 1.224 1.619 0.781 1.802 0.083 1.641 -0.617 1.197 -1.147 0.838 -1.872 0.098 -0.512 0.04 -0.523 -0.067 -0.546 -0.276 -2.134 -0.191 -0.012 -0.531 2.085 -0.128 0.453 -0.137 0.369 -0.131 0.31 -0.807 1.425 -0.77 0.721 -1.029 0.387 -1.146 -0.053 -1.059 -0.51 -0.805 -0.853 -1.054 -1.981 -1.131 -3.412 -0.307 -2.616 0.349 -2.009 0.319 -0.478 -0.124 0.028 0.214 0.196 0.229 0.739 -0.321 2.743 -0.876 2.967 -1.477 3.2 -1.614 2.155 -1.517 1.199 -0.535 0.091 -0.162 -0.106 -0.307 -0.971 -0.649 -9.631 -0.956 -2.617 -1.21 -1.306 -1.376 -0.294 -1.227 0.631 -0.955 1.332 -1.045 3.036 -1.491 7.158 -0.528 1.182 0.448 -0.205 -0.037 -0.064 -1.427 -8.574 -0.935 -1.754 -1.247 -0.592 -1.274 0.502 -1.002 1.366 -0.901 2.407 -0.743 4.598 -0.207 4.72 1.566 -0.085 0 0 -0.782 -4.538 0 0 -0.106 -0.515 -1.046 -3.927 -0.126 -0.374 -0.491 -1.081 -0.044 -0.066 -0.203 -0.419" />
    <path class="write-flat-pen" fill="#FFFFFF" stroke-width="1.6" __comx="194.87" __comy="50.219" __timestamp="0x1786c2b2c8a" d="M190.192 31.859 l-0.073 1.012 -0.022 0.237 -0.14 1.742 -0.054 0.596 -0.536 6.075 -0.046 1.118 0.04 6.264 0.494 5.393 0.746 1.907 1.078 1.141 1.709 0.586 2.108 -0.274 2.689 -1.375 0.363 -0.296 0.551 -0.602 0.177 -0.29 1.14 -1.921 -0.13 -0.116 -1.783 1.345 -0.222 0.156 -0.568 0.382 -0.238 0.139 -2.428 1.034 -1.491 0.184 -0.984 -0.338 -0.593 -0.628 -0.55 -1.407 -0.468 -5.101 -0.059 -6.163 0.032 -1.057 0.308 -6.077 0.009 -0.631 -0.069 -1.784 -0.029 -0.264 -0.138 -1.015" />
    <path class="write-flat-pen" fill="#FFFFFF" stroke-width="1.6" __comx="192.833" __comy="50.219" __timestamp="0x1786c2b2d6a" d="M187.044 44.018 l-0.722 -0.353 0 0 -0.259 1.27 0.119 0.03 3.651 0.336 5.855 -0.393 0.658 -0.104 0.605 -0.117 0.581 -0.146 2.22 -0.546 -0.016 -0.177 -2.281 -0.149 -0.595 -0.043 -0.611 -0.015 -0.643 -0.001 -5.758 0.157 -3.564 -0.143 -0.11 0.011 -0.259 1.27 0 0 0.791 0.144" />
    <path class="write-flat-pen" fill="#FFFFFF" stroke-width="1.6" __comx="208.031" __comy="50.219" __timestamp="0x1786c2b2f04" d="M202.457 47.656 l-0.358 1.467 -0.062 0.362 -0.209 1.925 -0.027 0.402 0.037 2.024 0.444 0.805 0 0 1.123 0.179 0.767 -0.62 1.415 -8.501 0.713 -2.455 0.622 -0.897 0.641 -0.351 0.647 0.039 1.294 0.731 2.136 1.958 0.196 0.174 0.379 0.307 1.892 1.452 0.153 -0.132 -1.155 -2.082 -0.252 -0.435 -0.195 -0.261 -2.185 -2.271 -1.798 -1.015 -1.476 -0.089 -1.377 0.754 -0.986 1.422 -0.812 2.799 -1.291 8.045 -0.3 0.295 1.123 0.179 0 0 -0.326 -0.46 -0.161 -1.609 -0.007 -0.336 -0.007 -1.894 0.007 -0.311 0.134 -1.474" />
    <path class="write-flat-pen" fill="#FFFFFF" stroke-width="1.6" __comx="219.43" __comy="50.219" __timestamp="0x1786c2b305f" d="M217.073 45.383 l-0.05 -0.202 0.129 -0.016 -0.911 -0.13 -0.009 0.049 0.059 0.752 0.058 0.366 0.936 4.082 0.209 0.738 1.275 3.786 1.934 2.607 0.553 0.062 0.276 -0.111 1.099 -0.6 -0.013 -0.129 -1.197 -0.367 -0.094 -0.074 0.2 -0.014 -1.321 -2.097 -1.219 -3.534 -0.204 -0.677 -1.142 -3.985 -0.102 -0.331 -0.269 -0.754 -0.053 -0.085 -0.911 -0.13 0.032 0.126 -0.092 0.627" />
    <path class="write-flat-pen" fill="#FFFFFF" stroke-width="1.6" __comx="216.432" __comy="50.303" __timestamp="0x1786c2b3168" d="M226.937 42.89 l-0.166 1.039 -0.052 0.206 -0.418 1.701 -0.177 0.633 -3.354 8.89 -2.618 5.71 -3.285 5.684 -3.384 4.828 -4.272 5.219 -0.61 0.723 -1.564 2.003 -0.428 0.636 -0.368 0.629 -0.322 0.651 -1.019 2.026 0.243 0.16 1.452 -1.742 0.461 -0.543 0.443 -0.536 0.463 -0.547 1.662 -1.857 0.641 -0.692 4.479 -5.157 3.473 -4.938 3.358 -5.811 2.672 -5.833 3.311 -9.058 0.172 -0.768 0.227 -1.823 0.006 -0.279 -0.014 -1.08" />
    <path class="write-stroke-pen" fill="none" stroke="#FFFFFF" stroke-width="1.6" stroke-linecap="round" stroke-linejoin="round" __comx="144.46" __comy="62.63" __timestamp="0x1786c2b3d7e" d="M48.432 65.93 l192.056 -6.066" />
    <path class="write-flat-pen" fill="#FFFFFF" stroke-width="1.6" __comx="70.531" __comy="137.288" __timestamp="0x1786c2c187d" d="M69.563 126.732 l-0.136 0.731 0.001 0.174 0.039 1.039 0.027 0.45 0.316 3.461 0.081 0.874 0.248 4.792 -0.084 6.425 0.021 0.179 0.203 2.444 0.308 0.031 0.686 -2.354 0.061 -0.216 0.302 -6.531 -0.337 -4.89 -0.117 -0.916 -0.549 -3.441 -0.083 -0.448 -0.236 -1.014 -0.033 -0.095 -0.077 -0.669" />
    <path class="write-flat-pen" fill="#FFFFFF" stroke-width="1.6" __comx="70.878" __comy="137.288" __timestamp="0x1786c2c19a7" d="M57.934 127.584 l-0.044 -0.292 -0.182 0.233 1.046 -0.357 0.525 -0.111 7.523 -0.885 1.165 -0.114 13.026 -1.685 0.593 -0.056 0.545 -0.034 0.508 -0.036 2.275 -0.131 0.022 -0.23 -2.211 -0.552 -0.522 -0.132 -0.61 -0.079 -0.695 -0.019 -13.09 1.526 -1.171 0.122 -7.591 1.123 -0.68 0.209 -1.209 0.678 -0.333 0.397 0.524 0.746" />
    <path class="write-flat-pen" fill="#FFFFFF" stroke-width="1.6" __comx="84.031" __comy="137.288" __timestamp="0x1786c2c1be8" d="M83.499 139.088 l0.076 -1.201 -0.081 -0.291 -1.174 -0.817 -0.487 0.078 -1.535 0.723 -1.209 1.246 -0.928 1.828 -0.529 2.423 0.183 2.008 0.799 1.914 1.392 1.411 1.481 0.612 1.887 -0.07 1.977 -0.945 2.31 -2.105 1.712 -2.37 0.836 -2.024 0.221 -2.05 -0.556 -1.566 -1.139 -1.079 -2.072 -0.763 -1.991 -0.147 -1.81 0.453 -1.417 1.272 -0.144 0.262 -0.062 0.181 -0.666 2.013 0.19 0.109 1.409 -1.585 0.108 -0.114 0.063 -0.051 1.146 -0.804 1.292 -0.269 1.56 0.136 1.592 0.595 0.658 0.625 0.326 0.911 -0.155 1.504 -0.684 1.67 -1.521 2.108 -2.033 1.868 -1.51 0.743 -1.284 0.069 -0.948 -0.369 -1.036 -1.004 -0.663 -1.472 -0.185 -1.611 0.422 -2.087 0.749 -1.548 0.917 -1.008 1.182 -0.653 -0.033 -0.007 0.703 0.28 -0.022 -0.105 0.139 1.087" />
    <path class="write-flat-pen" fill="#FFFFFF" stroke-width="1.6" __comx="100.108" __comy="137.288" __timestamp="0x1786c2c1e3f" d="M100.47 124.912 l-0.313 -0.503 -0.649 0.233 -0.023 0.113 0.266 1.861 0.142 0.673 2.601 13.062 0.13 0.81 0 0 0.698 3.567 0 0 0.509 0.626 0 0 1.179 -0.594 -0.484 -2.197 -1.348 -2.357 -1.543 -1.268 -1.707 -0.623 -1.77 -0.078 -1.918 0.651 -1.442 1.139 -1.431 1.898 -0.774 1.913 -0.13 1.703 0.428 1.67 0.975 1.515 1.309 0.983 1.756 0.533 2.069 -0.167 2.223 -0.823 3.543 -2.39 0.468 -0.403 0.723 -0.694 0.281 -0.328 1.512 -1.751 -0.112 -0.133 -1.979 1.199 -0.362 0.215 -0.813 0.548 -0.451 0.314 -3.462 2.112 -1.89 0.683 -1.592 0.131 -1.245 -0.372 -0.901 -0.666 -0.723 -1.094 -0.329 -1.214 0.083 -1.251 0.615 -1.542 1.212 -1.606 1.114 -0.877 1.443 -0.49 1.292 0.057 1.279 0.47 1.16 0.956 1.127 1.949 0.468 1.987 1.179 -0.594 0 0 -0.318 -0.336 0 0 -0.662 -3.2 0 0 -0.137 -0.813 -2.836 -13.055 -0.175 -0.664 -0.464 -1.702 -0.016 -0.014 -0.649 0.233 0.475 0.354" />
    <path class="write-flat-pen" fill="#FFFFFF" stroke-width="1.6" __comx="114.708" __comy="137.288" __timestamp="0x1786c2c1ff8" d="M113.226 138.588 l-0.316 -1.54 -0.54 -0.177 -1.258 0.227 -1.838 1.463 -0.94 1.483 -0.555 2.094 0.172 1.877 0.901 1.917 1.606 1.592 1.998 0.875 1.754 0.153 1.933 -0.434 2.482 -1.333 1.499 -1.316 1.162 -1.762 0.352 -1.427 -0.218 -1.65 -0.9 -1.345 -1.641 -1.056 -4.006 -0.78 -0.725 0.059 -1.807 0.449 -0.586 0.26 -0.517 0.309 -1.915 1.138 0.072 0.173 2.156 -0.562 0.554 -0.138 0.519 -0.121 1.678 -0.223 0.458 0.002 3.52 0.864 1.126 0.752 0.52 0.783 0.135 1.001 -0.215 0.885 -0.896 1.37 -1.208 1.069 -2.141 1.166 -1.503 0.358 -1.287 -0.09 -1.549 -0.64 -1.273 -1.205 -0.738 -1.463 -0.16 -1.407 0.425 -1.685 0.711 -1.153 1.416 -1.206 0.682 -0.203 -0.281 -0.098 0.372 0.92" />
    <path class="write-flat-pen" fill="#FFFFFF" stroke-width="1.6" __comx="133.967" __comy="137.288" __timestamp="0x1786c2c2353" d="M134.704 144.452 l-0.205 0.7 -0.035 0.094 -0.437 1.161 -0.001 -0.011 -0.52 0.597 0.334 -0.053 -0.007 -0.053 0.037 0.045 -0.065 0.082 0.036 0.028 -0.056 -0.048 0.305 -0.481 -0.042 0.071 -1.183 -0.461 -0.115 0.11 0.607 1.415 1.281 0.543 0.742 -1.126 -0.664 -1.141 -1.246 -0.32 -0.92 0.848 0.202 1.197 0.884 0.417 0.495 -0.073 0.674 -1.227 0.033 -0.119 0.227 -1.255 0.014 -0.138 0 -0.749" />
    <path class="write-flat-pen" fill="#FFFFFF" stroke-width="1.6" __comx="133.947" __comy="137.288" __timestamp="0x1786c2c242a" d="M135.437 137.94 l-0.383 -1.506 -0.08 -0.322 -0.417 -2.311 -0.072 -0.552 -0.865 -9.377 -0.092 -0.413 -0.492 -2.359 -0.279 0.014 -0.254 2.397 -0.049 0.438 0.669 9.463 0.117 0.642 0.643 2.36 0.143 0.356 0.579 1.441" />
  </g>
</svg>
