<svg class="write-page" width="1010px" height="1628px" xmlns="http://www.w3.org/2000/svg" xmlns:xlink="http://www.w3.org/1999/xlink">
  <g class="write-content write-v3" width="1010" height="1628" xruling="30" yruling="30" marginLeft="30" papercolor="#1B1C1C" rulecolor="#3A00F9FF">
    <g class="ruleline write-std-ruling write-scale-down" fill="none" stroke="#00F9FF" stroke-opacity="0.227" stroke-width="1" shape-rendering="crispEdges" vector-effect="non-scaling-stroke">
      <rect class="pagerect" fill="#1B1C1C" stroke="none" x="0" y="0" width="1010" height="1628" />
      <path class="yrule_1" d="M0 30 l1010 0" />
      <path d="M0 60 l1010 0" />
      <path d="M0 90 l1010 0" />
      <path d="M0 120 l1010 0" />
      <path d="M0 150 l1010 0" />
      <path d="M0 180 l1010 0" />
      <path d="M0 210 l1010 0" />
      <path d="M0 240 l1010 0" />
      <path d="M0 270 l1010 0" />
      <path d="M0 300 l1010 0" />
      <path d="M0 330 l1010 0" />
      <path d="M0 360 l1010 0" />
      <path d="M0 390 l1010 0" />
      <path d="M0 420 l1010 0" />
      <path d="M0 450 l1010 0" />
      <path d="M0 480 l1010 0" />
      <path d="M0 510 l1010 0" />
      <path d="M0 540 l1010 0" />
      <path d="M0 570 l1010 0" />
      <path d="M0 600 l1010 0" />
      <path d="M0 630 l1010 0" />
      <path d="M0 660 l1010 0" />
      <path d="M0 690 l1010 0" />
      <path d="M0 720 l1010 0" />
      <path d="M0 750 l1010 0" />
      <path d="M0 780 l1010 0" />
      <path d="M0 810 l1010 0" />
      <path d="M0 840 l1010 0" />
      <path d="M0 870 l1010 0" />
      <path d="M0 900 l1010 0" />
      <path d="M0 930 l1010 0" />
      <path d="M0 960 l1010 0" />
      <path d="M0 990 l1010 0" />
      <path d="M0 1020 l1010 0" />
      <path d="M0 1050 l1010 0" />
      <path d="M0 1080 l1010 0" />
      <path d="M0 1110 l1010 0" />
      <path d="M0 1140 l1010 0" />
      <path d="M0 1170 l1010 0" />
      <path d="M0 1200 l1010 0" />
      <path d="M0 1230 l1010 0" />
      <path d="M0 1260 l1010 0" />
      <path d="M0 1290 l1010 0" />
      <path d="M0 1320 l1010 0" />
      <path d="M0 1350 l1010 0" />
      <path d="M0 1380 l1010 0" />
      <path d="M0 1410 l1010 0" />
      <path d="M0 1440 l1010 0" />
      <path d="M0 1470 l1010 0" />
      <path d="M0 1500 l1010 0" />
      <path d="M0 1530 l1010 0" />
      <path d="M0 1560 l1010 0" />
      <path d="M0 1590 l1010 0" />
      <path d="M0 1620 l1010 0" />
      <path class="xrule_1" d="M30 0 l0 1628" />
      <path d="M60 0 l0 1628" />
      <path d="M90 0 l0 1628" />
      <path d="M120 0 l0 1628" />
      <path d="M150 0 l0 1628" />
      <path d="M180 0 l0 1628" />
      <path d="M210 0 l0 1628" />
      <path d="M240 0 l0 1628" />
      <path d="M270 0 l0 1628" />
      <path d="M300 0 l0 1628" />
      <path d="M330 0 l0 1628" />
      <path d="M360 0 l0 1628" />
      <path d="M390 0 l0 1628" />
      <path d="M420 0 l0 1628" />
      <path d="M450 0 l0 1628" />
      <path d="M480 0 l0 1628" />
      <path d="M510 0 l0 1628" />
      <path d="M540 0 l0 1628" />
      <path d="M570 0 l0 1628" />
      <path d="M600 0 l0 1628" />
      <path d="M630 0 l0 1628" />
      <path d="M660 0 l0 1628" />
      <path d="M690 0 l0 1628" />
      <path d="M720 0 l0 1628" />
      <path d="M750 0 l0 1628" />
      <path d="M780 0 l0 1628" />
      <path d="M810 0 l0 1628" />
      <path d="M840 0 l0 1628" />
      <path d="M870 0 l0 1628" />
      <path d="M900 0 l0 1628" />
      <path d="M930 0 l0 1628" />
      <path d="M960 0 l0 1628" />
      <path d="M990 0 l0 1628" />
      <path class="leftmargin" stroke="#FF0000" d="M30 0 l0 1628" />
    </g>
    <path class="write-flat-pen" fill="#FFFFFF" stroke-width="1.6" __comx="103.837" __comy="47.744" __timestamp="0x1786bd9e48d" d="M104.35 34.865 l0.499 -1.09 0.062 -0.202 0.529 -2.637 -0.072 -0.349 -0.743 -1.038 -1.568 -0.086 -2.018 0.982 -2.266 2.155 -2.021 3.237 -1.912 5.301 -0.833 5.111 0.12 3.617 0.873 3.183 1.673 2.579 2.482 1.628 2.252 0.501 2.673 -0.377 2.834 -1.454 2.547 -2.388 1.976 -2.931 1.572 -4.053 0.657 -3.978 -0.176 -3.077 -1.058 -3.054 -1.539 -2.313 -2.377 -2.1 -2.78 -1.414 -2.041 -0.131 -1.466 1.353 -0.196 2.099 0.361 2.747 0.306 -0.001 0.345 -2.662 0.412 -1.491 0.733 -0.547 1.135 0.108 2.343 1.191 2.09 1.841 1.324 1.992 0.932 2.677 0.16 2.705 -0.598 3.666 -1.448 3.76 -1.788 2.66 -2.272 2.138 -2.433 1.249 -2.169 0.311 -1.739 -0.38 -2.015 -1.309 -1.403 -2.133 -0.784 -2.808 -0.124 -3.315 0.775 -4.855 1.798 -5.057 1.828 -2.999 1.974 -1.953 1.552 -0.837 0.776 -0.035 0.397 0.408 0.004 -0.025 -0.163 2.491 -0.018 0.167 -0.17 1.167" />
    <path class="write-flat-pen" fill="#FFFFFF" stroke-width="1.6" __comx="111.392" __comy="47.744" __timestamp="0x1786bd9e683" d="M105.392 47.87 l-0.965 0.092 0.557 0.36 0.024 0.019 1.085 -2.42 -0.167 0.101 0.245 0.04 4.259 6.679 2.216 2.419 3.098 0.655 2.981 -0.749 -0.03 -0.266 -2.873 -0.086 -2.435 -0.784 -1.859 -2.035 -4.602 -7.102 -1.287 -0.075 -0.569 0.324 -1.014 3.2 0.052 0.212 0.557 0.36 0.871 -0.425" />
    <path class="write-flat-pen" fill="#FFFFFF" stroke-width="1.6" __comx="128.985" __comy="47.744" __timestamp="0x1786bd9e8d1" d="M121.873 47.541 l-0.569 1.066 -0.042 0.369 -0.164 4.976 0.563 2.128 1.218 1.194 2 0.068 1.991 -1.362 1.792 -2.692 0 0 1.177 -3.299 0 0 0.383 -3.146 0 0 -1.458 -0.142 -0.216 2.789 0.599 2.935 1.251 2.226 1.767 1.274 1.781 0.168 1.714 -1.401 1.211 -2.388 -0.107 -0.081 -1.877 1.662 -1.323 0.71 -0.842 -0.118 -1.176 -0.852 -0.983 -1.73 -0.523 -2.5 0.185 -2.584 -1.458 -0.142 0 0 -0.351 2.987 0 0 -1.056 2.982 0 0 -1.531 2.32 -1.374 0.957 -1.003 -0.011 -0.587 -0.542 -0.469 -1.582 -0.099 -4.764 -0.004 -0.193 0.221 -1.04" />
    <path class="write-flat-pen" fill="#FFFFFF" stroke-width="1.6" __comx="139.679" __comy="47.744" __timestamp="0x1786bd9e9e5" d="M137.977 48.108 l0.728 2.064 0.075 0.305 1.015 5.221 0.773 0.45 0 0 0.79 -0.212 0.023 -1.214 -0.217 -0.076 -0.742 0.962 0.79 -0.212 0 0 -0.229 -0.408 -1.167 -4.779 -0.135 -0.396 -1.048 -1.993" />
    <path class="write-flat-pen" fill="#FFFFFF" stroke-width="1.6" __comx="139.854" __comy="47.744" __timestamp="0x1786bd9ea79" d="M140.376 38.617 l-1.254 0.824 -0.214 2.129 1.034 2.241 0.245 -0.076 -0.352 -2.255 0.174 -1.547 0.791 -0.773" />
    <path class="write-flat-pen" fill="#FFFFFF" stroke-width="1.6" __comx="152.565" __comy="47.744" __timestamp="0x1786bd9ec60" d="M144.112 44.859 l4.219 -0.743 0.435 -0.077 4.187 -0.604 1.069 0.256 0.372 0.584 -0.208 1.367 -3.211 6.721 -0.617 2.659 1.045 1.472 6.338 0.681 3.463 -0.724 -0.019 -0.308 -3.401 -0.3 -5.506 -0.819 -0.255 -0.34 0.394 -1.828 3.105 -6.821 0.261 -2.083 -0.969 -1.412 -1.81 -0.411 -4.444 0.686 -0.474 0.093 -4.165 1.081" />
    <path class="write-flat-pen" fill="#FFFFFF" stroke-width="1.6" __comx="155.709" __comy="47.744" __timestamp="0x1786bd9ed69" d="M150.029 49.306 l-0.445 -0.097 -0.683 -0.198 0.263 0.834 0.489 -0.433 10.089 -2.804 3.253 -1.097 -0.059 -0.254 -3.42 0.442 -10.473 2.7 -0.617 0.762 0.263 0.834 0.704 0.103 0.445 0.097" />
    <path class="write-flat-pen" fill="#FFFFFF" stroke-width="1.6" __comx="183.114" __comy="39.686" __timestamp="0x1786bda12e1" d="M184.142 40.181 l1.221 -1.055 0.105 -0.157 0.314 -1.122 -0.689 -1.367 -1.636 -0.808 -2.378 0.004 -2.298 1.076 -1.515 1.62 -1.212 2.818 -0.31 3.215 0.471 2.219 1.176 1.697 1.993 0.978 1.901 -0.095 2.394 -1.161 2.248 -2.274 1.41 -2.737 0.565 -2.688 0 0 -0.375 -1.034 0 0 -1.337 -0.03 -0.512 1.229 0.8 10.72 0.785 3.282 0.94 0.754 2.085 0.803 0.196 -0.315 -1.532 -1.447 -0.384 -0.533 -0.628 -2.77 -0.802 -10.261 0.377 -0.912 -1.337 -0.03 0 0 0.238 0.648 0 0 -0.441 2.097 -1.223 2.367 -1.922 1.94 -1.909 0.925 -1.236 0.063 -1.324 -0.649 -0.801 -1.151 -0.369 -1.72 0.257 -2.778 1.009 -2.402 1.153 -1.271 1.781 -0.889 1.809 -0.077 1.096 0.444 0.465 0.662 -0.044 0.666 0.023 -0.022 -0.916 1.228" />
    <path class="write-flat-pen" fill="#FFFFFF" stroke-width="1.6" __comx="149.479" __comy="69.097" __timestamp="0x1786bda1d03" d="M80.922 72.241 l-0.878 -0.249 0 0 0.254 0.511 0.246 -0.446 2.408 -0.653 34.003 -0.207 26.378 -1.11 31.619 -0.043 12.703 -0.636 19.539 -1.982 3.243 -0.404 3.237 -0.424 3.273 -0.483 2.407 -0.351 -0.017 -0.171 -2.428 0.141 -3.303 0.187 -3.258 0.219 -3.255 0.274 -19.529 1.743 -12.644 0.621 -31.615 0.062 -26.381 1.151 -34.119 0.431 -2.897 0.925 -0.305 0.863 0.254 0.511 0 0 0.89 0.202" />
  </g>
</svg>
