<svg class="write-page" width="1896px" height="1056px" xmlns="http://www.w3.org/2000/svg" xmlns:xlink="http://www.w3.org/1999/xlink">
  <g class="write-content write-v3" width="1896" height="1056" xruling="45" yruling="45" marginLeft="35" papercolor="#DFE9DC" rulecolor="#4534A4EC">
    <g class="ruleline write-std-ruling write-scale-down" fill="none" stroke="#34A4EC" stroke-opacity="0.271" stroke-width="1" shape-rendering="crispEdges" vector-effect="non-scaling-stroke">
      <rect class="pagerect" fill="#DFE9DC" stroke="none" x="0" y="0" width="1896" height="1056" />
      <path class="yrule_1" d="M0 45 l1896 0" />
      <path d="M0 90 l1896 0" />
      <path d="M0 135 l1896 0" />
      <path d="M0 180 l1896 0" />
      <path d="M0 225 l1896 0" />
      <path d="M0 270 l1896 0" />
      <path d="M0 315 l1896 0" />
      <path d="M0 360 l1896 0" />
      <path d="M0 405 l1896 0" />
      <path d="M0 450 l1896 0" />
      <path d="M0 495 l1896 0" />
      <path d="M0 540 l1896 0" />
      <path d="M0 585 l1896 0" />
      <path d="M0 630 l1896 0" />
      <path d="M0 675 l1896 0" />
      <path d="M0 720 l1896 0" />
      <path d="M0 765 l1896 0" />
      <path d="M0 810 l1896 0" />
      <path d="M0 855 l1896 0" />
      <path d="M0 900 l1896 0" />
      <path d="M0 945 l1896 0" />
      <path d="M0 990 l1896 0" />
      <path d="M0 1035 l1896 0" />
      <path class="xrule_1" d="M45 0 l0 1056" />
      <path d="M90 0 l0 1056" />
      <path d="M135 0 l0 1056" />
      <path d="M180 0 l0 1056" />
      <path d="M225 0 l0 1056" />
      <path d="M270 0 l0 1056" />
      <path d="M315 0 l0 1056" />
      <path d="M360 0 l0 1056" />
      <path d="M405 0 l0 1056" />
      <path d="M450 0 l0 1056" />
      <path d="M495 0 l0 1056" />
      <path d="M540 0 l0 1056" />
      <path d="M585 0 l0 1056" />
      <path d="M630 0 l0 1056" />
      <path d="M675 0 l0 1056" />
      <path d="M720 0 l0 1056" />
      <path d="M765 0 l0 1056" />
      <path d="M810 0 l0 1056" />
      <path d="M855 0 l0 1056" />
      <path d="M900 0 l0 1056" />
      <path d="M945 0 l0 1056" />
      <path d="M990 0 l0 1056" />
      <path d="M1035 0 l0 1056" />
      <path d="M1080 0 l0 1056" />
      <path d="M1125 0 l0 1056" />
      <path d="M1170 0 l0 1056" />
      <path d="M1215 0 l0 1056" />
      <path d="M1260 0 l0 1056" />
      <path d="M1305 0 l0 1056" />
      <path d="M1350 0 l0 1056" />
      <path d="M1395 0 l0 1056" />
      <path d="M1440 0 l0 1056" />
      <path d="M1485 0 l0 1056" />
      <path d="M1530 0 l0 1056" />
      <path d="M1575 0 l0 1056" />
      <path d="M1620 0 l0 1056" />
      <path d="M1665 0 l0 1056" />
      <path d="M1710 0 l0 1056" />
      <path d="M1755 0 l0 1056" />
      <path d="M1800 0 l0 1056" />
      <path d="M1845 0 l0 1056" />
      <path d="M1890 0 l0 1056" />
      <path class="leftmargin" stroke="#FF0000" d="M35 0 l0 1056" />
    </g>
    <path class="write-flat-pen" fill="#000000" stroke-width="4" __comx="259.056" __comy="138.891" __timestamp="0x1768d8df661" d="M259.051 138.889 l0 0.01 0.01 0 0 -0.01" />
  </g>
</svg>
