<svg class="write-page" width="772px" height="1250px" xmlns="http://www.w3.org/2000/svg" xmlns:xlink="http://www.w3.org/1999/xlink">
  <g class="write-content write-v3" width="772" height="1250" xruling="0" yruling="40" marginLeft="100" papercolor="#FFFFFF" rulecolor="#9F0000FF">
    <g class="ruleline write-std-ruling write-scale-down" fill="none" stroke="#0000FF" stroke-opacity="0.624" stroke-width="1" shape-rendering="crispEdges" vector-effect="non-scaling-stroke">
      <rect class="pagerect" fill="#FFFFFF" stroke="none" x="0" y="0" width="772" height="1250" />
      <path class="yrule_1" d="M0 40 l772 0" />
      <path d="M0 80 l772 0" />
      <path d="M0 120 l772 0" />
      <path d="M0 160 l772 0" />
      <path d="M0 200 l772 0" />
      <path d="M0 240 l772 0" />
      <path d="M0 280 l772 0" />
      <path d="M0 320 l772 0" />
      <path d="M0 360 l772 0" />
      <path d="M0 400 l772 0" />
      <path d="M0 440 l772 0" />
      <path d="M0 480 l772 0" />
      <path d="M0 520 l772 0" />
      <path d="M0 560 l772 0" />
      <path d="M0 600 l772 0" />
      <path d="M0 640 l772 0" />
      <path d="M0 680 l772 0" />
      <path d="M0 720 l772 0" />
      <path d="M0 760 l772 0" />
      <path d="M0 800 l772 0" />
      <path d="M0 840 l772 0" />
      <path d="M0 880 l772 0" />
      <path d="M0 920 l772 0" />
      <path d="M0 960 l772 0" />
      <path d="M0 1000 l772 0" />
      <path d="M0 1040 l772 0" />
      <path d="M0 1080 l772 0" />
      <path d="M0 1120 l772 0" />
      <path d="M0 1160 l772 0" />
      <path d="M0 1200 l772 0" />
      <path d="M0 1240 l772 0" />
      <path class="leftmargin" stroke="#FF0000" d="M100 0 l0 1250" />
    </g>
    <path class="write-flat-pen" fill="#000000" stroke-width="1.6" __comx="136.554" __comy="63.899" __timestamp="0x1768d4bc6c3" d="M134.641 53.097 l0.799 -1.229 0.169 -0.381 0.446 -1.208 0.069 -0.266 0.276 -0.853 -0.821 0.241 -0.059 -0.015 0.771 7.666 0.12 2.652 0 0 0.322 2.821 0.521 18.836 0 0 1.237 -0.068 -0.181 -1.597 -0.176 -1.239 -0.16 -1.146 -0.193 -1.196 -0.182 -1.056 -0.154 0.003 -0.143 1.062 -0.148 1.212 -0.061 1.196 0.077 1.269 0.084 1.595 1.237 -0.068 0 0 -0.525 -18.89 -0.333 -2.832 0 0 -0.132 -2.65 -1.006 -8.021 -0.221 -0.188 -0.821 0.241 -0.046 0.904 -0.014 0.255 -0.156 1.239 -0.067 0.373 -0.561 1.325" />
    <path class="write-flat-pen" fill="#000000" stroke-width="1.6" __comx="143.739" __comy="63.899" __timestamp="0x1768d4bc7fd" d="M123.447 47.254 l-0.3 -0.486 0.001 0.21 0.386 -0.14 0.558 -0.101 17.18 -0.03 2.41 -0.341 4.495 -0.67 12.11 -3.088 1.382 -0.487 1.464 -0.294 1.043 -0.383 0.969 -0.37 -0.031 -0.146 -1.036 0.053 -1.07 0.063 -1.558 0.035 -1.477 0.417 -12.042 2.961 -4.429 0.662 -2.322 0.329 -17.222 0.222 -0.811 0.242 -0.734 0.544 -0.075 0.563 0.802 0.562" />
    <path class="write-flat-pen" fill="#000000" stroke-width="1.6" __comx="155.822" __comy="63.899" __timestamp="0x1768d4bca6f" d="M149.576 67.652 l-0.016 0.356 0.128 0.175 0.435 0.42 0.425 0.207 1.819 0.418 1.72 -0.071 1.914 -0.691 1.785 -1.13 1.501 -1.418 1.374 -2.011 0.437 -1.49 -0.165 -0.952 -0.821 -0.954 -1.493 -0.461 -2.303 -0.155 -2.872 0.488 -2.786 1.082 -2.271 1.641 -1.63 2.264 -1.028 2.614 -0.374 2.816 0.22 2.613 0.848 2.171 1.504 1.877 2.174 1.397 2.682 0.564 2.943 -0.135 2.898 -0.859 3.709 -1.597 2.316 -1.443 0.433 -0.342 0.309 -0.31 0.899 -0.958 -0.092 -0.137 -1.227 0.468 -0.391 0.16 -0.473 0.223 -2.31 1.275 -3.587 1.504 -2.689 0.784 -2.636 0.111 -2.303 -0.486 -1.81 -1.161 -1.259 -1.569 -0.716 -1.825 -0.199 -2.299 0.331 -2.535 0.912 -2.334 1.42 -1.984 1.981 -1.439 2.526 -0.989 2.612 -0.468 2.029 0.117 1.044 0.322 0.399 0.46 0.07 0.375 -0.303 1.063 -1.192 1.77 -1.327 1.27 -1.586 1.024 -1.645 0.622 -1.439 0.112 -1.655 -0.212 -0.3 -0.071 -0.451 -0.185 -0.076 -0.002 -0.191 -0.157" />
    <path class="write-flat-pen" fill="#000000" stroke-width="1.6" __comx="175.619" __comy="63.899" __timestamp="0x1768d4bcc5b" d="M174.758 62.927 l0.483 -0.975 0.053 -0.253 -0.543 -0.834 -1.448 -0.105 -1.98 0.625 -1.714 1.03 -0.757 0.932 0.188 0.898 0.885 0.754 4.665 1.432 2.644 1.144 2.138 1.466 1.488 1.678 0.583 1.3 0.253 1.906 -0.428 1.342 -1.141 1.558 -1.962 1.596 -3.725 2.018 -3.292 1.221 -1.434 0.281 -0.056 -0.033 0.055 -0.725 1.722 -3.313 0.747 -1.288 0.826 -1.24 0.623 -0.92 -0.309 -0.258 -0.793 0.779 -1.108 1.08 -0.92 1.294 -1.974 3.511 -0.156 1.74 1.12 0.666 1.99 -0.397 3.463 -1.293 3.884 -2.139 2.148 -1.777 1.334 -1.833 0.556 -1.768 -0.311 -2.325 -0.723 -1.612 -1.694 -1.915 -2.335 -1.624 -2.802 -1.233 -4.498 -1.377 -0.398 -0.334 0.004 0.036 0.274 -0.355 1.412 -0.901 1.661 -0.598 0.836 -0.03 0.199 0.134 0.031 -0.129 -0.196 1.012" />
    <path class="write-flat-pen" fill="#000000" stroke-width="1.6" __comx="191.339" __comy="63.899" __timestamp="0x1768d4bcd76" d="M187.16 47.061 l0.417 0.328 0.088 0.172 1.023 3.828 0.258 1.291 0.852 15.017 0.587 4.071 0.875 2.659 1.919 2.545 0.631 0.386 0.453 0.151 1.227 0.345 0.027 -0.049 -0.932 -0.869 -0.305 -0.275 -0.351 -0.399 -1.591 -2.38 -0.777 -2.389 -0.564 -3.917 -0.905 -15.047 -0.299 -1.417 -1.295 -4.005 -0.407 -0.403 -0.689 -0.174" />
    <path class="write-flat-pen" fill="#000000" stroke-width="1.6" __comx="193.977" __comy="63.899" __timestamp="0x1768d4bce61" d="M183.938 64.565 l0.799 -0.685 0.521 -0.247 3.309 -1.003 8.478 -1.906 4.052 -1.313 1.196 -0.462 1.264 -0.389 0.996 -0.313 -0.026 -0.153 -1.043 0.038 -1.369 0.064 -1.297 0.298 -4.052 1.171 -8.487 1.892 -3.422 1.126 -0.716 0.422 -0.736 0.959" />
    <path class="write-flat-pen" fill="#000000" stroke-width="1.6" __comx="207.939" __comy="63.899" __timestamp="0x1768d4bcfeb" d="M206.605 64.418 l-0.134 1.171 -0.025 0.837 0.082 3.33 0.057 1.34 0.473 5.662 0.528 1.233 1.082 0.189 0.586 -1.23 0.18 -1.896 -0.026 -0.998 -0.095 -1.045 -0.114 -1.088 -0.053 -0.002 -0.201 1.076 -0.178 1.021 -0.182 0.945 -0.312 1.69 -0.196 0.37 0.241 0.042 -0.247 -0.564 -0.556 -5.474 -0.097 -1.322 -0.308 -3.311 -0.092 -0.815 -0.134 -1.16" />
    <path class="write-flat-pen" fill="#000000" stroke-width="1.6" __comx="209.458" __comy="63.899" __timestamp="0x1768d4bd086" d="M208.665 56.257 l-0.053 -0.403 -0.73 0.275 0.045 0.202 1.639 3.254 0.692 0.963 0.663 0.912 0.111 -0.063 -0.442 -1.037 -0.46 -1.067 -1.441 -3.259 -0.062 -0.138 -0.73 0.275 0.263 0.311" />
    <path class="write-flat-pen" fill="#000000" stroke-width="1.6" __comx="220.909" __comy="63.899" __timestamp="0x1768d4bd211" d="M215.667 69.235 l-0.259 0.334 -0.123 0.359 -0.07 1.238 0.037 0.597 0.838 6.847 0 0 0.813 0.386 0.342 -0.203 0.382 -2.082 -0.077 -10.115 0.218 -1.474 0.595 -1.403 0.367 -0.301 0.419 -0.027 0.732 0.425 0.959 1.195 1.352 2.81 3.313 10.168 0.933 1.069 0.166 -0.07 -0.098 -1.37 -3.235 -10.226 -1.438 -3.005 -1.179 -1.469 -1.227 -0.708 -1.138 0.072 -0.889 0.71 -0.768 1.813 -0.248 1.714 0.133 10.102 -0.254 1.502 0.082 -0.044 0.813 0.386 0 0 -1.058 -6.804 -0.088 -0.549 -0.155 -1.144 -0.019 -0.271 0.038 -0.37" />
    <path class="write-flat-pen" fill="#000000" stroke-width="1.6" __comx="235.187" __comy="75.831" __timestamp="0x1768d4bd45f" d="M239.408 69.33 l0.138 -1.498 0.007 -0.391 -0.311 -1.807 -0.265 -0.523 -0.884 -1.013 -2.418 -1.28 -1.751 -0.341 -1.456 0.347 -1.245 1.083 -0.867 1.713 -0.488 2.929 0.094 1.99 0.778 2.515 0.75 1.025 1.701 0.787 1.426 0.041 1.297 -0.529 0 0 1.263 -1.405 0 0 0.808 -2.885 0 0 -1.063 0.003 1.671 5.909 1.362 6.593 0.811 5.666 0.375 6.873 -0.237 2.05 -0.567 1.392 -0.872 0.771 -1.717 0.194 -2.69 -1.072 -1.349 -0.937 -2.461 -2.474 -0.832 -1.311 -0.939 -2.349 -0.232 -2.014 0.24 -1.661 0.848 -1.543 0.285 -0.327 0.831 -0.911 -0.124 -0.169 -1.118 0.52 -0.536 0.277 -1.196 1.781 -0.327 2.012 0.273 2.304 1.043 2.569 0.952 1.489 2.624 2.609 1.53 1.049 3.038 1.194 2.287 -0.24 1.318 -1.126 0.737 -1.751 0.275 -2.288 -0.358 -7.016 -0.818 -5.75 -1.379 -6.666 -1.686 -5.946 -1.063 0.003 0 0 -0.725 2.642 0 0 -0.925 1.027 0 0 -0.853 0.344 -0.971 -0.031 -1.238 -0.576 -0.474 -0.647 -0.685 -2.205 -0.085 -1.734 0.43 -2.654 0.687 -1.385 0.883 -0.786 0.984 -0.247 1.391 0.25 2.175 1.068 0.761 0.76 0.2 0.314 0.509 1.596 0.054 0.324 0.165 1.481" />
    <path class="write-flat-pen" fill="#000000" stroke-width="1.6" __comx="280.943" __comy="75.831" __timestamp="0x1768d4bd780" d="M280.282 69.048 l0.118 -0.515 -0.011 -0.14 -0.571 0.222 -0.072 0.219 -0.014 0.703 0.693 6.586 0.152 2.182 0.258 2.314 0 0 0.106 10.383 -0.733 9.105 1.191 -0.042 -0.122 -0.502 -0.054 -0.831 0.124 -1.119 0.195 -1.45 0.116 -0.95 -0.069 -0.018 -0.37 0.883 -0.552 1.365 -0.421 1.169 -0.08 1.029 0.047 0.607 1.191 -0.042 0.752 -9.16 -0.133 -10.499 0 0 -0.273 -2.349 -0.165 -2.185 -0.896 -6.574 -0.133 -0.655 -0.088 -0.193 -0.571 0.222 0.024 -0.098 0.132 0.338" />
    <path class="write-flat-pen" fill="#000000" stroke-width="1.6" __comx="287.123" __comy="75.831" __timestamp="0x1768d4bd918" d="M279.425 69.777 l-0.858 -0.403 -0.153 -0.076 -0.603 -0.409 -0.232 -0.232 -0.395 -0.572 -0.286 -1.107 0.125 -1.199 0.913 -2.346 1.014 -1.529 1.553 -1.619 1.95 -1.499 2.044 -1.116 2.224 -0.788 2.406 -0.288 2.482 0.203 2.281 0.833 1.752 1.274 1.148 1.734 0.41 2.475 -0.245 2.833 -0.982 3.032 -1.551 3.103 -1.871 2.493 -2.234 1.914 -2.492 1.261 -2.11 0.562 -1.975 0.057 -0.43 -0.234 -0.066 -0.64 0.165 -0.366 0.415 -0.575 0.717 -0.976 -0.24 -0.253 -1.013 0.664 -0.688 0.471 -0.522 0.705 -0.022 1.717 1.362 0.781 2.483 -0.065 2.387 -0.633 2.754 -1.391 2.46 -2.109 2.029 -2.697 1.655 -3.292 1.063 -3.267 0.271 -3.146 -0.48 -2.913 -1.429 -2.169 -2.094 -1.524 -2.623 -0.954 -2.791 -0.224 -2.681 0.322 -2.459 0.875 -2.222 1.22 -2.103 1.629 -1.69 1.785 -1.137 1.751 -0.977 2.65 -0.107 1.593 0.501 1.49 0.67 0.747 0.43 0.302 0.825 0.306 0.223 0.042 0.935 0.158" />
    <path class="write-flat-pen" fill="#000000" stroke-width="1.6" __comx="307.284" __comy="75.831" __timestamp="0x1768d4bdad0" d="M302.033 73.225 l0.274 -0.036 0.05 0.028 0.816 0.052 0.516 0.016 4.068 -0.574 0.812 -0.191 2.531 -1.185 1.847 -1.422 0.754 -0.988 0.519 -1.615 -0.212 -1.318 -0.832 -1.178 -1.722 -0.795 -2.607 -0.545 -2.87 0.066 -1.441 0.397 -2.431 1.649 -1.019 1.205 -1.611 3.043 -0.948 3.236 -0.18 4.351 0.942 2.534 1.573 1.868 1.26 0.777 2.747 0.621 1.575 0.046 3.022 -0.893 2.709 -1.759 2.58 -2.943 0.476 -1.039 0.339 -0.79 0.29 -0.824 0.358 -1.092 -0.066 -0.036 -0.729 0.889 -0.533 0.677 -0.535 0.688 -0.531 0.875 -2.481 2.612 -2.425 1.544 -2.644 0.772 -1.239 -0.038 -2.409 -0.546 -0.893 -0.551 -1.292 -1.53 -0.776 -2.071 0.151 -3.929 0.862 -2.959 1.479 -2.808 0.813 -0.967 2.108 -1.438 1.086 -0.303 2.567 -0.067 2.327 0.481 1.292 0.59 0.477 0.666 0.124 0.74 -0.354 1.136 -0.522 0.698 -1.606 1.261 -2.291 1.113 -0.651 0.167 -3.931 0.756 -0.472 0.048 -0.858 0.181 -0.183 0.076 -0.232 0.3" />
    <path class="write-flat-pen" fill="#000000" stroke-width="1.6" __comx="326.416" __comy="75.831" __timestamp="0x1768d4bdcb8" d="M318.482 64.543 l0.304 -0.399 -0.098 0.084 0.529 0.387 0.087 0.209 0.564 3.797 0.018 1.043 0 0 -0.457 7.883 0 0 1.218 0.312 0.736 -1.504 1.181 -4.59 0.779 -6.196 0.645 -2.821 0.765 -1.678 0.579 -0.537 0.314 -0.06 0.674 0.408 1.011 1.708 1.055 3.108 4.54 18.503 0.651 1.562 1.053 0.12 -0.033 -0.171 0.098 -0.506 -0.451 -0.305 -0.433 0.28 -0.171 0.033 1.053 0.12 -0.536 -1.517 -4.476 -18.494 -1.12 -3.298 -1.259 -2.114 -1.397 -0.847 -1.2 0.222 -1.061 0.984 -0.936 2.047 -0.681 3.022 -0.759 6.181 -1.112 4.387 -0.662 1.395 1.218 0.312 0 0 0.378 -7.935 0 0 -0.042 -1.176 -0.796 -4.02 -0.366 -0.582 -1.205 -0.457 -0.399 0.239 -0.141 0.722" />
    <path class="write-flat-pen" fill="#000000" stroke-width="1.6" __comx="93.022" __comy="330.298" __timestamp="0x1768d4bffdc" d="M92.962 330.267 l0 0.012 0 0.007 0 0.01 0 0.022 0.012 0.039 0.108 0.356 0.001 0 -0.089 -0.361 -0.009 -0.036 0 -0.019 0 -0.01 0 -0.007 0 -0.012" />
    <path class="write-flat-pen" fill="#000000" stroke-width="1.6" __comx="166.452" __comy="228.154" __timestamp="0x1768d4c039e" d="M92.787 331.374 l-0.473 0.379 0.249 0.208 0.892 -0.37 0.313 -0.255 2.264 -2.551 5.651 -9 14.454 -21.424 3.679 -4.857 22.064 -32.13 6.298 -9.916 15.946 -22.815 18.696 -27.94 12.157 -19.281 5.835 -8.7 12.116 -15.101 1.302 -1.739 11.402 -16.209 8.81 -13.609 5.526 -9.986 0.623 -1.069 -0.059 -0.046 -0.897 0.894 -5.676 9.916 -8.754 13.611 -11.49 16.118 -1.323 1.696 -12.321 14.972 -5.964 8.681 -12.19 19.264 -18.674 27.925 -15.948 22.83 -6.281 9.933 -22.009 32.117 -3.671 4.868 -14.406 21.508 -5.578 8.989 -2.094 2.554 -0.201 0.212 -0.46 0.438 0.23 0.193 -0.001 -0.281" />
    <path class="write-flat-pen" fill="#000000" stroke-width="1.6" __comx="240.955" __comy="242.001" __timestamp="0x1768d4c0a0c" d="M166.66 340.526 l-1.02 0.925 0.007 -0.014 0 0 -0.223 0.031 0 0 0.452 0.195 0 -0.159 1.225 -2.251 10.536 -16.509 12.15 -16.913 14.387 -20.793 11.131 -16.495 4.522 -7.366 16.866 -24.207 22.649 -33.63 19.706 -30.051 6.983 -11.251 15.151 -23.376 14.947 -20.887 0.761 -1.408 -0.602 -0.407 -1.017 1.218 -15.002 20.863 -15.164 23.412 -6.976 11.253 -19.656 30.059 -22.653 33.608 -16.881 24.225 -4.516 7.38 -11.075 16.499 -14.331 20.814 -12.156 16.93 -10.559 16.576 -1.285 2.655 0.22 0.444 0.452 0.195 0 0 0.273 -0.182 0 0 0.076 -0.081 0.792 -1.151" />
    <path class="write-flat-pen" fill="#000000" stroke-width="1.6" __comx="302.904" __comy="264.477" __timestamp="0x1768d4c0ff3" d="M235.857 354.371 l-0.368 0.099 0.076 0.032 -0.034 -0.552 0.014 0.003 1.575 -3.058 0.295 -0.447 3.859 -6.702 11.495 -16.041 19.538 -28.883 8.515 -11.605 4.863 -7.29 43.071 -59.478 18.318 -25.781 9.825 -14.445 5.77 -9.091 7.755 -13.171 0.308 -1.393 -0.439 -0.165 -0.66 1.178 -7.808 13.031 -5.805 9.031 -9.823 14.414 -18.338 25.747 -43.078 59.493 -4.858 7.29 -8.479 11.627 -19.445 28.955 -11.427 16.126 -3.811 6.755 -0.302 0.48 -1.371 3.288 -0.01 0.184 0.382 0.54 0.076 0.032 0.325 -0.198" />
    <path class="write-flat-pen" fill="#000000" stroke-width="1.6" __comx="380.681" __comy="264.913" __timestamp="0x1768d4c15a0" d="M318.087 342.874 l-1.552 0.877 -1.435 1.308 -0.456 0.098 0.041 0.038 0.175 -0.776 1.579 -2.479 0.331 -0.479 5.888 -8.237 0.835 -1.226 6.878 -9.347 9.612 -13.878 23.167 -31.901 11.423 -15.099 20.905 -28.727 19.047 -27.234 9.365 -12.469 22.249 -31.164 0.605 -1.408 -0.604 -0.333 -0.84 1.213 -22.226 31.095 -9.368 12.472 -19.084 27.216 -20.936 28.68 -11.424 15.101 -23.046 32.017 -9.538 13.926 -6.848 9.373 -0.834 1.24 -5.66 8.402 -0.307 0.521 -1.339 2.666 -0.075 0.824 0.041 0.038 0.47 -0.108 1.434 -1.326 1.527 -0.912" />
    <path class="write-flat-pen" fill="#000000" stroke-width="1.6" __comx="547.526" __comy="197.439" __timestamp="0x1768d4c1bc9" d="M551.187 197.573 l-6.913 2.089 -1.515 0.322 0 0 -0.221 -0.166 0 0.001 1.449 -0.826 3.478 -1.254 2.16 -0.685 2.235 -0.615 0.656 -0.18 0 -0.001 -0.656 0.18 -2.235 0.615 -2.16 0.685 -3.478 1.254 -1.449 0.826 0 0.001 0.222 0.166 0 0 1.516 -0.322 6.913 -2.089" />
    <path class="write-flat-pen" fill="#000000" stroke-width="1.6" __comx="584.235" __comy="193.583" __timestamp="0x1768d4c1c81" d="M586.798 193.412 l-1.131 0.25 -1.443 0.198 -1.004 0.211 -0.517 0.102 -1.032 0.203 0 0.001 1.032 -0.203 0.517 -0.102 1.004 -0.211 1.443 -0.198 1.131 -0.25" />
    <path class="write-flat-pen" fill="#000000" stroke-width="1.6" __comx="465.203" __comy="257.866" __timestamp="0x1768d4c481d" d="M453.371 275.355 l1.161 -2.878 0.629 -1.346 2.685 -5.479 5.21 -9.606 4.784 -7.841 7.95 -11.263 0.349 -0.448 0.199 -0.211 0.783 -0.826 -0.051 -0.062 -0.966 0.603 -0.27 0.173 -0.464 0.429 -8.161 11.188 -4.805 7.885 -5.158 9.677 -2.537 5.578 -0.549 1.405 -0.874 2.993" />
    <path class="write-flat-pen" fill="#000000" stroke-width="1.6" __comx="470.814" __comy="257.866" __timestamp="0x1768d4c493b" d="M461.814 274.268 l1.84 -4.052 0.759 -1.435 4.672 -9.069 1.04 -2.123 2.131 -4.247 3.288 -5.328 2.583 -3.533 0.654 -0.883 0.515 -0.783 0.574 -0.882 -0.018 -0.014 -0.724 0.764 -0.637 0.677 -0.773 0.788 -2.803 3.43 -3.336 5.386 -2.137 4.289 -1.025 2.132 -4.416 9.193 -0.676 1.49 -1.567 4.178" />
    <path class="write-flat-pen" fill="#000000" stroke-width="1.6" __comx="482.108" __comy="257.866" __timestamp="0x1768d4c4abe" d="M466.58 281.638 l0.349 -0.572 0.448 -0.703 2.005 -3.689 0.826 -1.723 3.954 -8.696 5.409 -10.817 3.226 -5.521 3.442 -4.88 10.207 -12.844 0 0 0.86 -0.595 -0.706 -0.183 0.092 0.145 -0.297 1.514 -0.372 1.156 -0.439 1.295 -0.445 1.26 -0.466 1.258 -0.531 1.231 -0.38 0.885 0.001 0.001 0.454 -0.849 0.633 -1.187 0.606 -1.202 0.606 -1.197 0.598 -1.243 0.51 -1.167 0.528 -1.875 -0.228 -0.474 -0.706 -0.183 -1.014 0.652 0 0 -10.339 12.982 -3.47 4.951 -3.246 5.598 -5.378 10.89 -3.863 8.75 -0.782 1.723 -1.776 3.788 -0.326 0.801 -0.051 0.7" />
    <path class="write-flat-pen" fill="#000000" stroke-width="1.6" __comx="486.87" __comy="257.866" __timestamp="0x1768d4c4bfa" d="M473.521 281.973 l-0.461 0.711 -0.087 0.093 0 0 0.395 0.267 0.435 -0.171 0.425 -0.571 2.734 -5.1 0.889 -1.874 4.067 -8.588 6.248 -11.359 3.919 -6.448 6.18 -9.21 1.513 -1.804 0.368 -0.14 -0.732 -0.411 0.34 1.136 -0.089 0.707 -0.183 0.905 -0.217 1.143 -0.213 1.239 -0.131 1.338 -0.099 1.032 0.085 0.015 0.25 -1.006 0.319 -1.289 0.394 -1.173 0.372 -1.097 0.302 -0.905 0.223 -0.928 -0.245 -1.374 -0.732 -0.411 -0.693 0.21 -1.781 2.097 -6.235 9.284 -3.944 6.495 -6.254 11.427 -4.031 8.646 -0.861 1.867 -2.517 5.144 -0.242 0.481 -0.169 0.296 0.395 0.267 0 0 -0.033 -0.099 0.21 -0.792" />
    <path class="write-flat-pen" fill="#000000" stroke-width="1.6" __comx="496.403" __comy="257.866" __timestamp="0x1768d4c4d27" d="M481.38 287.233 l-0.391 0.846 0.138 0.293 0.512 0.059 0.759 -0.529 0.672 -0.903 2.925 -4.814 14.566 -30.186 4.151 -7.989 6.53 -11.461 -0.423 -0.235 0.215 0.246 0.207 0.837 0.22 0.877 0.105 -0.005 0.133 -0.895 0.117 -0.975 -0.195 -0.85 -0.852 -0.419 -7.129 12.293 -4.171 8.029 -14.461 30.204 -2.769 4.81 -0.523 0.829 -0.536 0.614 0.512 0.059 -0.059 0.015 0.113 -0.626" />
    <path class="write-flat-pen" fill="#000000" stroke-width="1.6" __comx="504.513" __comy="261.904" __timestamp="0x1768d4c4e97" d="M489.197 297.374 l-1.26 0.736 -0.094 0.001 0.498 0.417 0.234 -1.284 0.28 -0.958 5.279 -13.689 3.595 -8.49 2.735 -5.431 14.475 -23.264 3.062 -5.471 2.154 -4.76 1.316 -4.48 0 0 -1.166 -0.352 -0.635 2.374 -0.461 1.585 -0.534 1.664 -0.548 1.797 -0.507 1.953 -0.47 2.049 -0.522 2.239 -0.157 0.677 0.001 0 0.207 -0.663 0.681 -2.195 0.682 -1.979 0.721 -1.866 0.705 -1.728 0.651 -1.638 0.554 -1.581 0.795 -2.334 -1.166 -0.352 0 0 -1.343 4.382 -2.106 4.628 -3.028 5.394 -14.465 23.303 -2.775 5.521 -3.599 8.559 -5.155 13.821 -0.263 1.107 -0.016 1.388 0.498 0.417 0.204 -0.082 1.225 -1.009" />
    <path class="write-flat-pen" fill="#000000" stroke-width="1.6" __comx="509.857" __comy="269.483" __timestamp="0x1768d4c4fdf" d="M494.768 297.697 l-1.833 5.32 -0.717 2.194 -0.835 4.547 -0.053 0.702 0.037 1.075 0.727 0.979 1.456 -0.349 1.6 -1.769 1.83 -3.22 6.308 -15.846 4.074 -9.094 8.822 -16.98 3.297 -7.04 5.287 -13.81 1.745 -3.762 0 0 1.381 -2.077 -1.044 0.053 0.197 0.197 0.19 1.034 0.021 0.902 0.04 1.192 0.077 1.293 0.077 1.072 0.126 0.01 0.24 -1.048 0.275 -1.27 0.199 -1.196 0.092 -1.008 -0.139 -1.502 -0.389 -0.509 -1.044 0.053 -1.459 2.151 0 0 -1.81 3.897 -5.288 13.807 -3.268 6.97 -8.816 16.996 -4.081 9.164 -6.22 15.823 -1.69 3.063 -1.242 1.48 -0.478 0.188 -0.208 -0.186 -0.078 -0.738 0.012 -0.613 0.58 -4.504 0.61 -2.182 1.588 -5.395" />
    <path class="write-flat-pen" fill="#000000" stroke-width="1.6" __comx="523.236" __comy="270.879" __timestamp="0x1768d4c5166" d="M509.138 313.79 l-2.296 1.966 0 0 0.8 0.063 0.005 -0.037 0.067 -1.048 3.476 -12.111 4.082 -11.38 4.73 -11.49 9.09 -19.583 7.963 -19.138 2.202 -6.061 0 0 0.744 -3.937 -0.967 -0.736 -0.525 0.28 -2.513 7.691 -0.632 2.215 -1.445 5.365 -0.629 3.058 -0.596 3.202 -0.103 0.541 0.175 0.045 0.168 -0.524 1.01 -3.098 0.879 -2.98 1.628 -5.29 0.672 -2.176 2.463 -7.105 0.049 -0.003 -0.967 -0.736 -0.733 3.827 0 0 -2.16 5.925 -7.945 19.082 -9.083 19.59 -4.749 11.55 -4.083 11.462 -3.445 12.334 0.014 1.629 0.299 0.33 0.8 0.063 0 0 2.179 -2.095" />
    <path class="write-flat-pen" fill="#000000" stroke-width="1.6" __comx="543.794" __comy="286.596" __timestamp="0x1768d4c52d3" d="M524.373 335.524 l0.037 0.817 0 0 0.901 0.239 0.634 -0.746 0.351 -1.054 1.429 -9.986 1.837 -9.039 1.813 -6.17 2.34 -6.581 4.345 -10.487 8.063 -17.891 13.657 -26.205 2.241 -4.877 -0.002 0.004 1.147 -3.482 -1.221 -0.138 0.089 0.445 0.037 0.891 0.034 1.26 0.098 1.671 0.064 0.979 0.187 0.012 0.188 -0.963 0.31 -1.647 0.183 -1.269 0.081 -0.986 -0.019 -0.532 -1.221 -0.138 -1.245 3.378 -0.002 0.004 -2.2 4.775 -13.667 26.207 -8.084 17.95 -4.348 10.547 -2.366 6.651 -1.823 6.269 -1.828 9.143 -1.31 9.944 -0.218 0.795 -0.387 0.691 0.901 0.239 0 0 -0.123 -0.808" />
    <path class="write-flat-pen" fill="#000000" stroke-width="1.6" __comx="557.804" __comy="287.672" __timestamp="0x1768d4c5473" d="M540.678 343.54 l-1.817 3.247 -0.094 0.39 -0.01 0.047 -0.074 0.413 1.105 0.108 0.144 -0.471 3.143 -9.903 0.89 -2.983 4.572 -14.692 2.988 -7.954 10.326 -24.473 4.257 -11.26 2.236 -7.404 1.627 -7.239 1.571 -10.656 1.158 -5.794 3.226 -10.573 0.132 -0.35 -0.686 -0.223 0.337 2.706 0.01 1.67 -0.157 1.99 0.092 2.398 0.173 2.396 0.054 0.728 0.132 0.002 0.081 -0.726 0.26 -2.385 0.225 -2.345 0.279 -1.988 0.066 -1.794 -0.316 -3.68 -1.365 -0.423 -0.626 1.565 -3.257 10.693 -1.191 5.893 -1.575 10.639 -1.607 7.138 -2.207 7.31 -4.234 11.19 -10.293 24.488 -3.003 8.019 -4.579 14.74 -0.875 2.989 -3.004 9.976 -0.095 0.521 1.105 0.108 -0.103 -0.289 -0.01 0.047 0.039 -0.253 1.542 -3.248" />
    <path class="write-flat-pen" fill="#000000" stroke-width="1.6" __comx="588.204" __comy="289.454" __timestamp="0x1768d4c5636" d="M567.692 354.151 l-3.331 3.876 0 0 -0.156 0.338 -0.167 0.194 0 0 1.005 0.514 1.22 -3.249 0.798 -2.229 8.977 -24.091 5.228 -15.17 3.809 -12.791 5.414 -22.239 3.417 -12.519 3.69 -11.713 3.913 -9.971 2.451 -5.195 -0.001 0.002 8.472 -15.684 -1.158 -0.606 -0.199 0.473 -0.307 0.95 -0.318 1.27 -0.167 1.574 -0.107 1.051 0.298 0.07 0.373 -0.988 0.546 -1.448 0.449 -1.156 0.368 -0.824 0.233 -0.385 -1.158 -0.606 -8.601 15.661 -0.001 0.002 -2.483 5.275 -3.931 10.066 -3.733 11.779 -3.428 12.566 -5.386 22.229 -3.794 12.727 -5.205 15.129 -8.903 24.112 -0.783 2.248 -1.067 3.305 1.005 0.514 0 0 0.186 -0.312 0.127 -0.306 0 0 3.062 -3.905" />
    <path class="write-flat-pen" fill="#000000" stroke-width="1.6" __comx="628.404" __comy="288.271" __timestamp="0x1768d4c5827" d="M595.646 373.389 l-1.301 0.789 0.362 0.303 0.27 -1.549 0.69 -3.019 1.678 -6.752 3.465 -10.211 13.867 -35.266 15.998 -36.065 10.635 -25.347 3.995 -8.482 11.622 -20.665 4.813 -8.005 1.286 -2.801 0.224 -1.844 -0.612 -1.008 -1.672 -0.513 -3.991 1.035 -0.893 0.348 -0.533 0.388 -1.046 0.801 0.151 0.303 1.27 -0.351 0.56 -0.156 0.809 -0.202 3.622 -0.779 0.812 0.276 0.086 0.159 -0.153 1.151 -1.185 2.522 -4.801 7.949 -11.639 20.739 -4.028 8.556 -10.669 25.35 -15.972 36.095 -13.821 35.352 -3.471 10.3 -1.69 6.824 -0.652 3.108 -0.176 2.182 0.7 0.615 1.869 -1.451" />
  </g>
</svg>
