<svg class="write-page" color-interpolation="linearRGB" width="1010px" height="1628px" xmlns="http://www.w3.org/2000/svg" xmlns:xlink="http://www.w3.org/1999/xlink">
  <g class="write-content write-v3" width="1010" height="1628" xruling="30" yruling="30" marginLeft="30" papercolor="#1B1C1C" rulecolor="#3A00F9FF">
    <g class="ruleline write-std-ruling write-scale-down" fill="none" stroke="#00F9FF" stroke-opacity="0.227" stroke-width="1" shape-rendering="crispEdges" vector-effect="non-scaling-stroke">
      <rect class="pagerect" fill="#1B1C1C" stroke="none" x="0" y="0" width="1010" height="1628" />
      <path class="yrule_1" d="M0 30 l1010 0" />
      <path d="M0 60 l1010 0" />
      <path d="M0 90 l1010 0" />
      <path d="M0 120 l1010 0" />
      <path d="M0 150 l1010 0" />
      <path d="M0 180 l1010 0" />
      <path d="M0 210 l1010 0" />
      <path d="M0 240 l1010 0" />
      <path d="M0 270 l1010 0" />
      <path d="M0 300 l1010 0" />
      <path d="M0 330 l1010 0" />
      <path d="M0 360 l1010 0" />
      <path d="M0 390 l1010 0" />
      <path d="M0 420 l1010 0" />
      <path d="M0 450 l1010 0" />
      <path d="M0 480 l1010 0" />
      <path d="M0 510 l1010 0" />
      <path d="M0 540 l1010 0" />
      <path d="M0 570 l1010 0" />
      <path d="M0 600 l1010 0" />
      <path d="M0 630 l1010 0" />
      <path d="M0 660 l1010 0" />
      <path d="M0 690 l1010 0" />
      <path d="M0 720 l1010 0" />
      <path d="M0 750 l1010 0" />
      <path d="M0 780 l1010 0" />
      <path d="M0 810 l1010 0" />
      <path d="M0 840 l1010 0" />
      <path d="M0 870 l1010 0" />
      <path d="M0 900 l1010 0" />
      <path d="M0 930 l1010 0" />
      <path d="M0 960 l1010 0" />
      <path d="M0 990 l1010 0" />
      <path d="M0 1020 l1010 0" />
      <path d="M0 1050 l1010 0" />
      <path d="M0 1080 l1010 0" />
      <path d="M0 1110 l1010 0" />
      <path d="M0 1140 l1010 0" />
      <path d="M0 1170 l1010 0" />
      <path d="M0 1200 l1010 0" />
      <path d="M0 1230 l1010 0" />
      <path d="M0 1260 l1010 0" />
      <path d="M0 1290 l1010 0" />
      <path d="M0 1320 l1010 0" />
      <path d="M0 1350 l1010 0" />
      <path d="M0 1380 l1010 0" />
      <path d="M0 1410 l1010 0" />
      <path d="M0 1440 l1010 0" />
      <path d="M0 1470 l1010 0" />
      <path d="M0 1500 l1010 0" />
      <path d="M0 1530 l1010 0" />
      <path d="M0 1560 l1010 0" />
      <path d="M0 1590 l1010 0" />
      <path d="M0 1620 l1010 0" />
      <path class="xrule_1" d="M30 0 l0 1628" />
      <path d="M60 0 l0 1628" />
      <path d="M90 0 l0 1628" />
      <path d="M120 0 l0 1628" />
      <path d="M150 0 l0 1628" />
      <path d="M180 0 l0 1628" />
      <path d="M210 0 l0 1628" />
      <path d="M240 0 l0 1628" />
      <path d="M270 0 l0 1628" />
      <path d="M300 0 l0 1628" />
      <path d="M330 0 l0 1628" />
      <path d="M360 0 l0 1628" />
      <path d="M390 0 l0 1628" />
      <path d="M420 0 l0 1628" />
      <path d="M450 0 l0 1628" />
      <path d="M480 0 l0 1628" />
      <path d="M510 0 l0 1628" />
      <path d="M540 0 l0 1628" />
      <path d="M570 0 l0 1628" />
      <path d="M600 0 l0 1628" />
      <path d="M630 0 l0 1628" />
      <path d="M660 0 l0 1628" />
      <path d="M690 0 l0 1628" />
      <path d="M720 0 l0 1628" />
      <path d="M750 0 l0 1628" />
      <path d="M780 0 l0 1628" />
      <path d="M810 0 l0 1628" />
      <path d="M840 0 l0 1628" />
      <path d="M870 0 l0 1628" />
      <path d="M900 0 l0 1628" />
      <path d="M930 0 l0 1628" />
      <path d="M960 0 l0 1628" />
      <path d="M990 0 l0 1628" />
      <path class="leftmargin" stroke="#FF0000" d="M30 0 l0 1628" />
    </g>
    <path class="write-flat-pen" fill="#FFFFFF" stroke-width="1.6" __comx="104.06" __comy="30.244" __timestamp="0x178183b1b3b" d="M104.426 27.258 l-0.849 -0.216 -0.298 0.067 -1.672 1.199 -0.374 0.531 -1.403 2.984 -0.807 3.403 -0.387 5.753 0.362 6.167 1.082 6.404 1.044 2.941 2.798 3.829 0.515 0.46 2.016 1.319 0.588 0.257 2.409 1.049 0.034 -0.063 -2.197 -1.44 -0.5 -0.331 -1.787 -1.461 -0.371 -0.392 -2.45 -3.761 -0.902 -2.712 -1.035 -6.24 -0.35 -6.022 0.358 -5.578 0.712 -3.204 1.203 -2.852 0.208 -0.353 1.259 -1.221 0.011 -0.024 0.74 -0.06" />
    <path class="write-flat-pen" fill="#FFFFFF" stroke-width="1.6" __comx="123.158" __comy="30.244" __timestamp="0x178183b1e21" d="M119.422 47.181 l-1.162 0.164 -0.234 0.376 0.687 0.818 0.358 0.096 1.975 -0.038 1.951 -0.833 1.404 -1.311 0.65 -1.464 -0.514 -1.39 -1.785 -0.309 -2.34 0.699 -2.236 1.372 -1.727 1.798 -1.125 2.051 -0.469 2.222 0.413 2.128 1.137 1.8 1.483 1.009 2.159 0.505 2.494 -0.324 5.347 -2.567 0.566 -0.392 0.91 -0.721 2.093 -1.744 -0.086 -0.135 -2.467 1.151 -1.037 0.504 -0.539 0.286 -5.179 2.249 -2.032 0.264 -1.662 -0.378 -1.036 -0.694 -0.853 -1.334 -0.322 -1.602 0.354 -1.762 0.931 -1.728 1.482 -1.552 1.942 -1.201 1.885 -0.578 0.779 0.11 0.112 0.237 -0.321 0.801 -1.058 1.037 -1.564 0.738 -1.643 0.174 -0.006 0.015 -0.327 -0.126 -0.165 0.255 0.856 -0.349" />
    <path class="write-flat-pen" fill="#FFFFFF" stroke-width="1.6" __comx="138.978" __comy="30.244" __timestamp="0x178183b27db" d="M135.217 15.553 l-0.502 -0.054 0.143 0.13 0.174 -0.637 0.047 -0.072 1.04 -1.166 1.497 -0.727 1.031 -0.026 0.66 0.335 0.621 0.913 0.157 1.199 -0.425 1.616 -2.184 2.153 0 0 0.234 1.036 2.989 1.064 1.231 0.836 0.472 0.776 -0.055 0.545 -0.676 0.813 -1.456 0.698 -2.518 0.404 -1.525 -0.164 -0.171 0.004 -0.296 0.401 -0.024 -0.046 0.435 -0.815 -0.075 -0.099 -0.904 0.191 -0.187 0.076 -0.383 0.54 1.092 1.001 2.073 0.234 2.881 -0.471 1.877 -0.915 1.096 -1.344 0.12 -1.357 -0.839 -1.366 -1.593 -1.078 -3.144 -1.112 0.234 1.036 0 0 2.389 -2.42 0.535 -2.172 -0.253 -1.698 -0.962 -1.368 -1.185 -0.576 -1.557 0.075 -1.867 1.012 -1.11 1.547 -0.101 0.312 0.054 1.006 0.221 0.214 0.728 -0.236" />
    <path class="write-flat-pen" fill="#FFFFFF" stroke-width="1.6" __comx="152.716" __comy="30.244" __timestamp="0x178183b28fb" d="M147.392 16.581 l-0.202 -0.374 -0.06 -0.176 -0.491 0.504 0.061 0.178 1.887 2.92 0.417 0.507 2.852 3.006 2.286 1.537 1.961 0.538 0.254 -0.016 2.432 -0.239 0.003 -0.065 -2.392 -0.498 -0.133 -0.037 -1.63 -0.675 -2.041 -1.419 -2.791 -2.854 -0.378 -0.431 -2.039 -2.673 -0.07 -0.099 -0.491 0.504 0.171 -0.074 -0.059 0.081" />
    <path class="write-flat-pen" fill="#FFFFFF" stroke-width="1.6" __comx="151.53" __comy="30.244" __timestamp="0x178183b2996" d="M147.554 23.921 l0.661 -1.509 0.191 -0.303 2.546 -3.378 3.191 -3.371 1.855 -1.984 -0.104 -0.119 -2.237 1.582 -3.46 3.248 -2.482 3.582 -0.214 0.423 -0.438 1.658" />
    <path class="write-flat-pen" fill="#FFFFFF" stroke-width="1.6" __comx="177.457" __comy="30.244" __timestamp="0x178183b32af" d="M170.175 48.656 l2.356 0.919 0.73 0.101 8.841 0.096 2.638 -0.274 -0.003 -0.062 -2.639 -0.04 -8.79 -0.341 -0.643 -0.072 -2.387 -0.638" />
    <path class="write-flat-pen" fill="#FFFFFF" stroke-width="1.6" __comx="203.15" __comy="30.244" __timestamp="0x178183b349e" d="M195.924 47.311 l-0.197 0.351 0.755 0.224 0.242 0.045 4.575 0.109 0.473 -0.121 1.948 -0.819 1.557 -1.369 0.425 -1.111 -0.405 -1.289 -1.504 -0.901 -1.963 -0.205 -2.394 0.447 -2.081 1.093 -1.35 1.33 -1.073 2.18 -0.344 1.978 0.481 2.489 1.062 1.654 1.631 1.204 2.238 0.71 2.681 -0.026 4.658 -1.515 0.826 -0.448 0.758 -0.467 0.666 -0.479 2.122 -1.521 -0.066 -0.115 -2.38 1.074 -0.735 0.329 -0.785 0.346 -0.779 0.324 -4.471 1.257 -2.314 0.022 -1.869 -0.578 -1.304 -0.944 -0.837 -1.274 -0.429 -2.06 0.253 -1.621 0.894 -1.887 1.098 -1.1 1.798 -0.951 2.087 -0.391 1.583 0.161 0.975 0.573 0.19 0.573 -0.201 0.551 -1.236 1.119 -1.723 0.767 -0.289 0.083 -4.413 0.167 -0.205 -0.009 -0.787 0.04 0.155 0.351" />
    <path class="write-flat-pen" fill="#FFFFFF" stroke-width="1.6" __comx="218.421" __comy="30.244" __timestamp="0x178183b3603" d="M213.103 22.717 l8.102 -0.913 2.596 -0.425 -0.008 -0.085 -2.635 0.038 -8.116 0.821" />
    <path class="write-flat-pen" fill="#FFFFFF" stroke-width="1.6" __comx="231.86" __comy="30.244" __timestamp="0x178183b382c" d="M228.335 14.288 l0.252 -0.698 0.002 0.019 2.341 -1.319 0.248 -0.082 1.483 -0.318 0.972 0.184 0.569 0.536 0.209 0.86 -0.276 1.362 -1.958 2.394 -0.095 1.182 4.213 2.472 0.578 0.784 -0.073 0.598 -1.07 1.4 -2.022 1.327 -2.354 0.731 -2.329 0.195 -1.207 -0.292 -1.168 -0.909 -0.033 -0.003 -0.075 -0.157 -0.742 -1.785 -0.101 0.019 -0.056 1.932 -0.001 0.246 0.088 0.352 1.46 1.478 1.729 0.439 2.687 -0.229 2.664 -0.839 2.338 -1.58 1.361 -1.877 0.109 -1.391 -1.016 -1.305 -3.799 -2.222 0.007 -0.129 1.886 -2.355 0.348 -1.873 -0.376 -1.385 -1.03 -0.922 -1.465 -0.248 -1.724 0.424 -0.391 0.149 -2.367 1.651 -0.161 0.208 -0.022 0.916" />
    <path class="write-flat-pen" fill="#FFFFFF" stroke-width="1.6" __comx="246.5" __comy="30.244" __timestamp="0x178183b3944" d="M242.924 15.478 l-0.697 0.473 -0.13 0.307 0.368 3.265 0.245 0.588 1.476 2.49 2.169 2.345 1.977 1.112 2.563 0.84 0.008 -0.017 -2.212 -1.477 -1.738 -1.182 -2 -2.198 -1.444 -2.328 -0.194 -0.421 -0.598 -2.96 -0.004 -0.046 0.421 -0.568" />
    <path class="write-flat-pen" fill="#FFFFFF" stroke-width="1.6" __comx="245.675" __comy="30.244" __timestamp="0x178183b39da" d="M242.423 24.823 l0.669 -2.104 0.209 -0.448 2.017 -3.499 2.577 -3.685 1.5 -2.245 -0.071 -0.058 -1.89 1.943 -2.866 3.558 -1.956 3.652 -0.209 0.55 -0.448 2.215" />
    <path class="write-flat-pen" fill="#FFFFFF" stroke-width="1.6" __comx="269.73" __comy="61.981" __timestamp="0x178183b3acf" d="M269.822 62.018 l-0.163 -0.092 -0.02 0.02 0.092 0.163" />
    <path class="write-flat-pen" fill="#FFFFFF" stroke-width="1.6" __comx="263.278" __comy="33.504" __timestamp="0x178183b3c33" d="M259.547 27.589 l0.284 -0.289 0.848 0.693 1.734 2.751 1.804 4.481 1.372 5.534 0.805 6.619 0.029 5.158 -0.517 3.274 -0.892 2.554 -2.125 2.94 -0.365 0.332 -0.39 0.309 -2.035 1.599 0.041 0.064 2.306 -1.175 0.47 -0.24 0.513 -0.347 2.488 -2.987 0.997 -2.793 0.548 -3.45 -0.029 -5.302 -0.813 -6.744 -1.422 -5.666 -1.927 -4.611 -1.974 -2.899 -1.628 -1.037 -0.574 0.908" />
    <path class="write-flat-pen" fill="#FFFFFF" stroke-width="1.6" __comx="285.96" __comy="16.294" __timestamp="0x178183b50f0" d="M281.505 17.489 l-0.744 -1.071 0.003 -0.03 0.165 -1.079 0.062 -0.079 0.954 -0.794 1.71 -0.612 2.183 -0.189 0.673 0.258 0.434 0.574 0.032 1.224 -0.77 1.984 -5.173 6.34 -0.485 1.453 1.362 0.871 6.049 -0.598 0.546 -0.07 0.567 -0.079 2.679 -0.36 -0.001 -0.16 -2.683 -0.333 -0.583 -0.074 -0.59 -0.03 -5.657 0.355 -0.165 -0.083 0.072 -0.293 5.081 -6.354 0.892 -2.381 -0.073 -1.81 -0.855 -1.098 -1.207 -0.446 -2.572 0.275 -1.98 0.818 -1.088 1.116 -0.174 0.368 0.067 1.381 0.1 0.197 0.995 0.955" />
    <path class="write-flat-pen" fill="#FFFFFF" stroke-width="1.6" __comx="316.521" __comy="44.891" __timestamp="0x178183b7845" d="M309.745 45.607 l1.482 -0.423 0.35 -0.018 8.679 -0.321 0.538 -0.076 2.672 -0.377 -0.004 -0.053 -2.699 -0.015 -0.532 -0.004 -8.692 0.089 -0.476 0.044 -1.487 0.715" />
    <path class="write-flat-pen" fill="#FFFFFF" stroke-width="1.6" __comx="319.602" __comy="47.408" __timestamp="0x178183b791b" d="M315.317 48.392 l1.832 -0.773 0.304 -0.056 4.026 -0.455 2.608 -0.312 -0.004 -0.107 -2.638 -0.109 -4.1 0.264 -0.433 0.1 -1.795 1.05" />
    <path class="write-flat-pen" fill="#FFFFFF" stroke-width="1.6" __comx="352.888" __comy="29.35" __timestamp="0x178183b89f0" d="M348.154 48.983 l0.286 0.305 0.164 0.046 1.702 0.081 0.409 -0.086 2.52 -0.996 2.08 -1.477 1.202 -1.665 -0.295 -1.442 -1.558 -0.717 -2.15 0.176 -2.865 1.017 -1.762 1.266 -1.343 1.964 -0.494 1.98 0.372 2.272 1.314 2.012 1.446 1.068 2.385 0.787 2.223 -0.051 2.716 -0.891 0.591 -0.333 0.497 -0.364 2.136 -1.562 -0.082 -0.148 -2.453 0.995 -0.542 0.215 -0.526 0.193 -2.524 0.63 -1.831 -0.001 -1.974 -0.659 -1.09 -0.8 -1.048 -1.579 -0.314 -1.741 0.346 -1.52 1.066 -1.629 1.44 -1.067 2.562 -0.93 1.709 -0.155 0.79 0.347 0.1 0.427 -0.803 1.152 -1.818 1.347 -2.301 1.038 -0.245 0.075 -1.541 0.172 -0.014 0.014 -0.325 -0.041" />
    <path class="write-flat-pen" fill="#FFFFFF" stroke-width="1.6" __comx="366.013" __comy="15.586" __timestamp="0x178183baaa2" d="M366.983 12.803 l-0.466 -1.022 -0.463 -0.041 -1.411 0.859 -0.299 0.35 -1.581 2.57 -1.056 3.009 -0.494 3.697 0.302 2.333 1.015 2.103 1.436 1.187 1.772 0.473 1.896 -0.325 1.546 -0.978 1.177 -1.638 0.46 -1.801 -0.327 -1.442 -1.136 -1.191 -1.514 -0.272 -1.663 0.587 -1.537 1.419 -0.766 1.571 0.084 1.879 1.321 1.602 0.435 0.22 0.387 0.119 2.218 0.67 0.081 -0.163 -1.873 -1.365 -0.28 -0.213 -0.15 -0.146 -0.719 -1.206 0.013 -1.064 0.49 -0.977 1.099 -1.012 0.987 -0.349 0.629 0.111 0.507 0.526 0.158 0.677 -0.294 1.175 -0.836 1.177 -1.046 0.673 -1.287 0.234 -1.163 -0.292 -0.967 -0.772 -0.807 -1.609 -0.278 -1.93 0.393 -3.401 0.884 -2.803 1.336 -2.483 0.14 -0.203 0.945 -0.841 -0.157 -0.031 0.5 0.567" />
    <path class="write-flat-pen" fill="#FFFFFF" stroke-width="1.6" __comx="378.171" __comy="20.373" __timestamp="0x178183babca" d="M373.439 19.605 l0.201 0.289 0.014 0.044 1.088 1.454 0.293 0.346 5.301 4.741 2.534 1.166 0.031 -0.049 -2.07 -1.767 -5.159 -4.727 -0.278 -0.286 -1.264 -1.265 -0.091 -0.095 -0.438 -0.111" />
    <path class="write-flat-pen" fill="#FFFFFF" stroke-width="1.6" __comx="377.625" __comy="22.411" __timestamp="0x178183bac59" d="M374.099 28.058 l3.191 -5.103 0.542 -0.709 2.14 -2.787 1.556 -2.085 -0.082 -0.071 -1.848 1.84 -2.33 2.657 -0.573 0.755 -2.972 5.281" />
    <path class="write-flat-pen" fill="#FFFFFF" stroke-width="1.6" __comx="405.633" __comy="34.953" __timestamp="0x178183bc55a" d="M399.841 46.626 l-0.164 0.334 0.42 0.116 0.206 0.009 8.561 0.192 2.728 -0.151 0.003 -0.069 -2.711 -0.387 -8.591 -0.209 -0.218 0.033 -0.405 0.132 0.17 0.334" />
    <path class="write-flat-pen" fill="#FFFFFF" stroke-width="1.6" __comx="405.828" __comy="34.953" __timestamp="0x178183bc638" d="M404.275 42.448 l-0.087 2.711 0.062 0.566 1.517 5.481 1.615 2.145 0.086 -0.051 -1.057 -2.366 -1.421 -5.358 -0.078 -0.472 -0.19 -2.664" />
    <path class="write-flat-pen" transform="translate(-21.046,0.272)" fill="#FFFFFF" stroke-width="1.6" __comx="445.44" __comy="35.225" __timestamp="0x178183bce33" d="M459.589 49.845 l0.877 0.199 0.185 0.024 2.468 0.102 0.481 -0.052 2.353 -0.572 2.055 -1.197 0.957 -1.211 0.14 -1.397 -1.116 -1.229 -1.895 -0.218 -2.116 0.835 -1.882 1.751 -1.393 2.236 -0.725 2.591 0.251 1.896 1.107 1.715 1.606 0.935 2.173 0.401 4.467 -1.122 0.698 -0.37 1.074 -0.788 2.03 -1.646 -0.057 -0.089 -2.343 1.131 -1.156 0.528 -0.59 0.221 -4.15 0.839 -1.7 -0.315 -1.159 -0.666 -0.803 -1.22 -0.197 -1.368 0.58 -2.193 1.193 -1.976 1.597 -1.509 1.648 -0.66 1.2 0.128 0.518 0.549 -0.042 0.604 -0.618 0.832 -1.733 1.091 -2.142 0.63 -0.373 0.065 -2.397 0.152 -0.161 0.008 -0.889 0.052" />
    <path class="write-flat-pen" transform="translate(-21.046,0.272)" fill="#FFFFFF" stroke-width="1.6" __comx="458.913" __comy="21.066" __timestamp="0x178183c09cb" d="M473.662 20.481 l0.74 0.881 0.368 0.116 8.759 0.074 2.726 -0.267 -0.001 -0.088 -2.725 -0.214 -8.672 -0.144 -0.151 -0.022 -0.808 -0.585" />
    <path class="write-flat-pen" transform="translate(-21.046,0.272)" fill="#FFFFFF" stroke-width="1.6" __comx="472.739" __comy="21.066" __timestamp="0x178183c0beb" d="M490.915 15.307 l0.598 -0.838 0.048 -0.073 0.245 -0.477 -0.618 -0.414 -0.137 0.076 -1.457 2.776 -0.138 0.536 -0.349 2.497 0.269 2.433 0.989 2.125 1.534 1.224 2.02 0.44 1.934 -0.42 1.592 -1.065 0.902 -1.349 0.114 -1.583 -0.841 -1.221 -1.341 -0.641 -1.788 0.088 -1.606 0.796 -0.731 1.241 0.594 1.437 0.321 0.239 0.258 0.124 1.707 0.795 0.052 -0.073 -1.297 -1.365 -0.159 -0.176 -0.042 -0.09 -0.118 -0.738 0.293 -0.435 1.051 -0.516 1.211 -0.062 0.752 0.361 0.4 0.585 -0.059 0.812 -0.579 0.865 -1.186 0.795 -1.435 0.317 -1.474 -0.313 -1.091 -0.855 -0.803 -1.677 -0.26 -2.091 0.266 -2.3 0.082 -0.371 1.069 -2.588 -0.065 0.026 -0.618 -0.414 0.04 0.463 -0.001 0.017 -0.355 0.97" />
    <path class="write-flat-pen" transform="translate(-21.046,0.272)" fill="#FFFFFF" stroke-width="1.6" __comx="484.669" __comy="21.066" __timestamp="0x178183c0d0c" d="M502.055 17.425 l0.154 0.795 0.091 0.235 1.612 2.882 0.265 0.363 2.582 2.58 2.458 1.408 0.158 -0.215 -2.016 -1.889 -2.47 -2.501 -0.21 -0.268 -1.8 -2.678 -0.103 -0.16 -0.392 -0.673" />
    <path class="write-flat-pen" transform="translate(-21.046,0.272)" fill="#FFFFFF" stroke-width="1.6" __comx="485.763" __comy="21.066" __timestamp="0x178183c0daf" d="M502.831 25.54 l0.899 -1.495 0.177 -0.215 5.293 -4.981 2.007 -1.857 -0.053 -0.072 -2.407 1.383 -5.424 5.01 -0.23 0.345 -0.681 1.673" />
    <path class="write-flat-pen" fill="#FFFFFF" stroke-width="1.6" __comx="162.374" __comy="71.645" __timestamp="0x178183c46a6" d="M119.278 67.643 l-0.548 2.76 -0.041 0.371 -0.184 5.571 -0.015 0.47 -0.064 4.713 0.45 2.271 1.039 1.213 1.567 0.619 9.174 -0.398 19.192 1.239 23.676 -0.144 26.168 1.455 2.538 -0.186 1.278 -0.853 0.816 -1.946 1.815 -12.028 0.001 -0.07 0.181 -2.761 -0.077 -0.019 -1.121 2.53 -0.043 0.105 -2.052 11.879 -0.574 1.463 -0.658 0.482 -2.12 0.186 -26.125 -1.396 -23.671 0.18 -19.213 -1.248 -9.002 0.417 -1.107 -0.419 -0.699 -0.787 -0.418 -1.89 -0.097 -4.605 -0.007 -0.465 -0.09 -5.552 0.019 -0.335 0.271 -2.784" />
    <path class="write-flat-pen" fill="#FFFFFF" stroke-width="1.6" __comx="124.675" __comy="155.176" __timestamp="0x178183c5567" d="M117.753 157.583 l0.749 -1.35 0.182 -0.193 1.427 -1.227 2.03 -0.987 2.007 -0.39 1.895 0.213 1.374 0.671 0.947 1.158 0.475 1.393 -0.104 1.888 -1.019 2.548 -2.289 3.544 -8.184 8.066 -0.712 1.433 0.995 1.136 11.819 0.055 0.327 -0.001 0.318 -0.007 2.815 -0.048 0.016 -0.116 -2.694 -0.818 -0.31 -0.095 -0.388 -0.093 -11.243 -0.322 0.048 0.073 0.165 -0.371 8.012 -8.1 2.381 -3.79 1.088 -2.853 0.083 -2.298 -0.643 -1.772 -1.245 -1.463 -1.755 -0.816 -2.224 -0.205 -2.266 0.495 -2.203 1.176 -1.455 1.433 -0.248 0.321 -0.537 1.548" />
    <path class="write-flat-pen" fill="#FFFFFF" stroke-width="1.6" __comx="139.708" __comy="155.176" __timestamp="0x178183c56dc" d="M139.892 166.951 l-0.103 -0.837 -0.011 0.088 -0.912 0.21 0.316 0.533 1.398 0.633 0.079 -0.082 -0.621 -1.299 -0.35 -0.383 -0.912 0.21 -0.021 0.148 0.437 0.986" />
    <path class="write-flat-pen" fill="#FFFFFF" stroke-width="1.6" __comx="162.384" __comy="155.176" __timestamp="0x178183c59d6" d="M156.076 168.668 l-0.575 0.676 0.103 0.324 0.786 0.548 0.354 0.095 2.541 0.041 2.381 -0.671 2.427 -1.432 1.032 -1.272 0.285 -1.412 -0.646 -1.228 -1.323 -0.593 -2.462 0.203 -2.211 0.941 -1.777 1.624 -0.998 1.766 -0.576 2.479 0.264 2.263 0.939 1.832 1.775 1.325 1.89 0.397 2.151 -0.39 3.785 -2.264 0.549 -0.488 0.836 -0.914 1.745 -2.046 -0.095 -0.105 -2.194 1.543 -0.983 0.691 -0.508 0.345 -3.615 1.895 -1.649 0.289 -1.318 -0.274 -1.27 -0.938 -0.685 -1.316 -0.224 -1.775 0.455 -2.063 0.78 -1.424 1.439 -1.35 1.81 -0.784 1.93 -0.17 0.634 0.275 0.246 0.447 -0.127 0.683 -0.695 0.876 -2.094 1.276 -2.077 0.653 -2.285 0.154 -0.143 -0.008 -0.588 -0.166 0.045 0.177 0.204 -0.568" />
    <path class="write-flat-pen" fill="#FFFFFF" stroke-width="1.6" __comx="168.839" __comy="155.176" __timestamp="0x178183c5c78" d="M163.498 141.417 l0.415 -1.147 0.086 -0.158 2.425 -2.95 0.17 -0.122 1.441 -0.712 1.015 -0.016 0.663 0.437 0.429 0.858 -0.048 1.223 -1.263 1.928 0 0 0.304 0.852 2.891 0.929 0.979 0.737 0.329 0.756 -0.162 0.878 -0.921 1.105 -1.614 0.937 -1.876 0.473 -1.559 -0.106 -1.054 -0.379 -1.023 -0.579 -0.075 0.057 0.425 1.33 1.378 0.846 2.027 0.139 2.253 -0.582 1.95 -1.173 1.229 -1.557 0.236 -1.548 -0.616 -1.342 -1.376 -1.021 -3.072 -0.986 0.304 0.852 0 0 1.413 -2.203 0.04 -1.818 -0.716 -1.352 -1.189 -0.739 -1.559 0.067 -1.694 0.899 -0.331 0.259 -2.332 3.286 -0.106 0.294 -0.184 1.255" />
    <path class="write-flat-pen" fill="#FFFFFF" stroke-width="1.6" __comx="182.428" __comy="155.176" __timestamp="0x178183c5d7a" d="M178.036 136.09 l-0.388 1.24 -0.045 0.365 0.516 3.084 0.251 0.558 1.227 1.864 2.052 1.675 2.875 1.046 2.719 0.307 0.011 -0.042 -2.461 -1.066 -2.579 -1.198 -1.821 -1.456 -1.154 -1.629 -0.193 -0.374 -0.74 -2.822 -0.009 -0.228 0.115 -1.249" />
    <path class="write-flat-pen" fill="#FFFFFF" stroke-width="1.6" __comx="180.04" __comy="155.176" __timestamp="0x178183c5e17" d="M176.475 147.492 l1.226 -2.714 0.317 -0.567 4.558 -6.392 1.588 -2.116 -0.085 -0.077 -1.986 1.797 -4.825 6.316 -0.345 0.677 -1.006 2.852" />
    <path class="write-flat-pen" fill="#FFFFFF" stroke-width="1.6" __comx="192.995" __comy="155.176" __timestamp="0x178183c629d" d="M192.615 168.751 l0.04 0.932 0.042 0.092 0.461 -0.322 -0.244 -0.581 -0.349 0.24 0.517 0.669 0.254 -0.035 -0.92 -0.371 -0.007 0.013 0.054 0.769 0.916 0.19 0.163 -0.187 0.039 -0.572 -0.038 -0.307 -0.011 -0.02 -0.92 -0.371 -0.077 0.245 0.517 0.669 -0.339 0.233 -0.015 -0.258 0.461 -0.322 -0.006 0.021 -0.27 -0.775" />
    <path class="write-flat-pen" fill="#FFFFFF" stroke-width="1.6" __comx="211.744" __comy="155.176" __timestamp="0x178183c64c7" d="M210.207 158.056 l-0.22 -0.804 -0.478 -0.131 -0.85 0.804 -0.182 0.395 -0.859 2.862 -0.367 4.802 0.269 4.178 0.943 4.384 1.187 2.535 2.578 2.423 0.463 0.211 0.989 0.262 2.539 0.413 0.019 -0.064 -2.321 -1.048 -0.839 -0.426 -0.249 -0.162 -2.139 -2.329 -0.998 -2.223 -0.889 -4.155 -0.273 -3.996 0.286 -4.601 0.658 -2.729 0.058 -0.201 0.26 -0.499 -0.301 -0.093 0.301 0.378" />
    <path class="write-flat-pen" fill="#FFFFFF" stroke-width="1.6" __comx="222.092" __comy="155.176" __timestamp="0x178183c65b5" d="M216.123 171.226 l1.127 0.417 0.326 0.09 3.123 0.479 4.376 -0.453 0.405 -0.124 2.581 -0.8 -0.01 -0.049 -2.687 0.281 -0.381 0.038 -4.26 0.232 -3.014 -0.339 -0.293 -0.05 -1.184 -0.155" />
    <path class="write-flat-pen" fill="#FFFFFF" stroke-width="1.6" __comx="235.732" __comy="155.176" __timestamp="0x178183c6782" d="M230.759 170.171 l0.812 -0.235 0.161 -0.06 1.565 -0.79 0.259 -0.159 1.705 -1.292 0.966 -1.577 -0.25 -1.371 -1.325 -0.482 -1.939 0.468 -1.503 1.096 -1.085 1.635 -0.585 2.225 0.337 2.126 1.07 1.863 1.311 1.082 2.188 0.804 2.389 -0.05 2.559 -1.063 0.445 -0.363 0.341 -0.361 1.745 -1.859 -0.046 -0.057 -2.182 1.318 -0.392 0.233 -0.368 0.182 -2.33 0.694 -1.931 -0.004 -1.748 -0.642 -0.958 -0.782 -0.847 -1.441 -0.273 -1.62 0.446 -1.765 0.836 -1.279 1.119 -0.824 1.343 -0.342 0.355 0.105 0.081 0.276 -0.573 1.087 -1.428 1.267 -0.191 0.146 -1.394 0.982 -0.119 0.079 -0.692 0.479" />
    <path class="write-flat-pen" fill="#FFFFFF" stroke-width="1.6" __comx="238.506" __comy="155.176" __timestamp="0x178183c68da" d="M233.476 143.338 l7.426 -0.091 2.638 -0.377 -0.001 -0.017 -2.653 -0.105 -7.416 0.035" />
    <path class="write-flat-pen" fill="#FFFFFF" stroke-width="1.6" __comx="248.822" __comy="155.176" __timestamp="0x178183c6b1a" d="M245.311 137.453 l0.857 -1.154 0.12 -0.084 1.455 -0.754 1.249 -0.159 0.808 0.36 0.399 0.606 0.085 1.203 -0.426 1.176 -1.216 1.179 0 0 0.115 0.805 3.315 1.748 0.734 0.801 0.072 0.526 -0.374 0.749 -1.115 0.841 -1.842 0.644 -4.027 0.169 -1.856 -0.317 -0.025 0.057 1.68 1.254 4.445 0.024 2.194 -0.795 1.455 -1.152 0.593 -1.326 -0.225 -1.166 -1.095 -1.12 -3.46 -1.825 0.115 0.805 0 0 1.387 -1.342 0.559 -1.605 -0.155 -1.666 -0.724 -1.021 -1.302 -0.523 -1.637 0.274 -1.586 0.959 -0.245 0.217 -0.687 1.395" />
    <path class="write-flat-pen" fill="#FFFFFF" stroke-width="1.6" __comx="263.146" __comy="155.176" __timestamp="0x178183c6c76" d="M256.406 138.197 l1.125 1.393 0.21 0.225 2.99 2.891 0.471 0.416 2.438 1.768 3.519 1.193 0.25 -0.019 2.475 -0.294 0.002 -0.067 -2.452 -0.45 -0.105 -0.031 -3.158 -1.326 -2.302 -1.623 -0.435 -0.363 -3.149 -2.677 -0.211 -0.18 -1.31 -1.192" />
    <path class="write-flat-pen" fill="#FFFFFF" stroke-width="1.6" __comx="261.222" __comy="155.176" __timestamp="0x178183c6d16" d="M257.501 145.863 l0.708 -1.034 0.219 -0.265 5.223 -5.379 1.747 -1.991 -0.075 -0.08 -2.102 1.628 -5.408 5.292 -0.258 0.377 -0.509 1.204" />
    <path class="write-flat-pen" fill="#FFFFFF" stroke-width="1.6" __comx="283.973" __comy="154.101" __timestamp="0x178183c6efd" d="M280.513 147.905 l1.4 2.99 0.328 0.665 2.321 5.564 1.342 4.798 0.566 4.034 -0.047 4.092 -0.723 3.726 -2.51 5.37 -0.421 0.597 -0.492 0.62 -1.609 2.018 0.055 0.052 1.937 -1.705 0.613 -0.54 0.572 -0.62 2.837 -5.463 0.744 -3.958 0.007 -4.256 -0.615 -4.162 -1.401 -4.904 -2.425 -5.615 -0.363 -0.682 -1.634 -2.871" />
    <path class="write-flat-pen" fill="#FFFFFF" stroke-width="1.6" __comx="108.884" __comy="229.298" __timestamp="0x178183c7394" d="M103.58 225.919 l0.576 0.181 0.266 0.113 2.888 0.991 3.639 0.383 0.592 -0.034 2.643 -0.156 0.002 -0.083 -2.632 -0.288 -0.555 -0.063 -3.495 -0.596 -2.821 -0.898 -0.36 -0.12 -0.703 0.075" />
    <path class="write-flat-pen" fill="#FFFFFF" stroke-width="1.6" __comx="112.481" __comy="229.298" __timestamp="0x178183c743a" d="M108.36 229.697 l1.834 -0.361 3.997 0.192 2.53 0.112 0.007 -0.059 -2.496 -0.469 -4.087 -0.459 -1.911 0.492" />
    <path class="write-flat-pen" fill="#FFFFFF" stroke-width="1.6" __comx="140.297" __comy="209.596" __timestamp="0x178183c8032" d="M134.418 227.092 l9.138 -0.162 2.628 -0.296 -0.003 -0.096 -2.636 -0.124 -9.133 0.018" />
    <path class="write-flat-pen" fill="#FFFFFF" stroke-width="1.6" __comx="168.785" __comy="209.596" __timestamp="0x178183c83e9" d="M162.502 219.94 l-0.32 -1.88 0.027 -0.134 0.591 -1.265 1.161 -0.966 2.307 -0.819 3.476 -0.525 2.116 0.145 1.077 0.593 0.699 1.059 0.271 1.848 -0.406 2.662 -1.414 3.865 -2.488 4.578 -2.774 3.761 -5.131 5.403 -0.752 1.494 0.58 1.454 1.638 0.569 8.653 -2.017 0.507 -0.095 1.052 -0.191 0.547 -0.1 2.709 -0.479 -0.005 -0.121 -2.741 -0.232 -0.577 -0.049 -1.11 0.007 -0.59 0.038 -8.356 1.701 -0.612 -0.206 -0.094 -0.218 0.346 -0.728 4.943 -5.398 2.82 -3.93 2.529 -4.752 1.454 -4.069 0.422 -2.951 -0.359 -2.258 -0.997 -1.48 -1.526 -0.834 -2.478 -0.161 -3.693 0.603 -2.545 0.987 -1.399 1.275 -0.624 1.596 -0.034 0.388 0.623 1.949" />
    <path class="write-flat-pen" fill="#FFFFFF" stroke-width="1.6" __comx="199.499" __comy="209.596" __timestamp="0x178183c8676" d="M194.008 230.303 l0.226 1.168 0.347 0.208 2.758 -0.03 0.461 -0.153 2.091 -1.116 1.206 -1.36 0.386 -1.652 -0.74 -1.244 -1.388 -0.59 -2.375 0.175 -2.263 0.987 -1.898 1.772 -0.976 1.747 -0.54 2.353 0.333 1.874 1.178 1.848 1.863 1.433 2.502 0.899 2.748 0.112 4.246 -1.229 0.719 -0.389 0.627 -0.438 2.169 -1.51 -0.089 -0.166 -2.461 0.963 -0.686 0.263 -0.649 0.235 -4.018 0.903 -2.334 -0.125 -2.101 -0.754 -1.504 -1.147 -0.915 -1.41 -0.257 -1.337 0.405 -1.911 0.767 -1.418 1.576 -1.503 1.864 -0.83 1.867 -0.153 0.756 0.31 0.305 0.486 -0.189 0.906 -0.854 1.018 -1.799 1.059 -0.237 0.096 -2.384 0.268 0.08 0.06 -0.396 -0.813" />
    <path class="write-flat-pen" fill="#FFFFFF" stroke-width="1.6" __comx="214.445" __comy="209.596" __timestamp="0x178183c89f8" d="M211.784 199.36 l-0.378 -1.144 0.01 -0.062 0.568 -1.627 0.129 -0.207 1.039 -1.202 1.472 -0.892 1.153 -0.186 0.514 0.202 0.357 0.553 -0.036 1.011 -2.071 3.308 0.072 1.06 2.514 2.072 0.586 0.933 0.051 0.915 -0.55 1.314 -1.003 0.94 -1.466 0.631 -1.672 0.155 -1.328 -0.324 -0.798 -0.691 -0.049 -0.035 -0.04 -0.11 -0.465 -1.633 -0.066 0.003 -0.328 1.666 -0.028 0.181 0.036 0.41 1.098 1.304 1.874 0.484 2.082 -0.207 1.832 -0.82 1.314 -1.285 0.713 -1.798 -0.099 -1.461 -0.84 -1.323 -2.269 -1.883 -0.011 -0.21 2.017 -3.267 0.032 -1.659 -0.756 -1.116 -1.111 -0.409 -1.632 0.3 -1.74 1.147 -1.09 1.463 -0.179 0.372 -0.358 1.868 0.03 0.238 0.65 1.121" />
    <path class="write-flat-pen" fill="#FFFFFF" stroke-width="1.6" __comx="226.801" __comy="209.596" __timestamp="0x178183c8ae5" d="M223.206 196.536 l0.227 4.069 0.187 0.551 1.374 2.546 1.566 1.606 1.457 0.581 2.369 0.173 0.01 -0.044 -2.14 -0.834 -1.159 -0.633 -1.356 -1.404 -1.342 -2.344 -0.144 -0.379 -0.493 -3.939" />
    <path class="write-flat-pen" fill="#FFFFFF" stroke-width="1.6" __comx="225.564" __comy="209.596" __timestamp="0x178183c8b91" d="M222.572 207.051 l1.627 -3.028 0.293 -0.42 2.624 -3.249 0.262 -0.305 1.769 -2.033 -0.041 -0.043 -2.152 1.623 -0.352 0.267 -2.867 3.164 -0.349 0.527 -1.407 3.21" />
    <path class="write-flat-pen" fill="#FFFFFF" stroke-width="1.6" __comx="235.099" __comy="209.596" __timestamp="0x178183c8c6f" d="M231.725 203.015 l4.424 -1.053 2.442 -0.509 -0.006 -0.05 -2.515 0.108 -4.464 0.981" />
    <path class="write-flat-pen" fill="#FFFFFF" stroke-width="1.6" __comx="245.533" __comy="209.596" __timestamp="0x178183c8eb5" d="M242.815 196.055 l0.822 -1.153 0.064 -0.037 1.528 -0.651 1.41 -0.112 0.642 0.301 0.477 0.727 0.056 1.084 -1.74 3.047 0.124 0.869 2.234 1.978 0.788 1.356 0.019 0.934 -0.455 0.973 -1.193 0.929 -2.031 0.608 -1.474 -0.071 -1.74 -0.851 -1.594 -1.372 -0.069 0.052 0.998 2.074 2.044 1.324 1.992 0.111 2.461 -0.769 1.572 -1.295 0.634 -1.5 -0.092 -1.474 -1.063 -1.696 -2.085 -1.823 -0.024 -0.161 1.692 -3.012 -0.104 -1.635 -0.788 -1.162 -1.122 -0.5 -1.804 0.193 -1.702 0.836 -0.249 0.196 -0.667 1.427" />
    <path class="write-flat-pen" fill="#FFFFFF" stroke-width="1.6" __comx="256.499" __comy="209.596" __timestamp="0x178183c8faf" d="M252.875 195.906 l-0.443 1.267 0.38 1.691 1.509 2.619 3.685 2.806 2.531 0.993 0.027 -0.051 -2.178 -1.519 -3.355 -2.844 -1.407 -2.336 -0.374 -1.343 0.245 -1.103" />
    <path class="write-flat-pen" fill="#FFFFFF" stroke-width="1.6" __comx="255.313" __comy="209.596" __timestamp="0x178183c904e" d="M252.143 207.277 l1.436 -2.976 3.652 -5.36 0.469 -0.71 1.438 -2.16 -0.108 -0.087 -1.801 1.869 -0.608 0.63 -3.836 5.368 -1.296 3.132" />
    <path class="write-flat-pen" fill="#FFFFFF" stroke-width="1.6" __comx="111.826" __comy="285.219" __timestamp="0x178183c94bd" d="M105.56 283.826 l9.832 0.363 2.699 -0.123 0.002 -0.071 -2.686 -0.258 -9.823 -0.47" />
    <path class="write-flat-pen" fill="#FFFFFF" stroke-width="1.6" __comx="116.547" __comy="285.219" __timestamp="0x178183c9560" d="M111.977 286.483 l-0.459 0.648 7.438 0.965 2.615 -0.1 0.006 -0.152 -2.57 -0.317 -7.391 -1.103 0.245 0.764" />
    <path class="write-flat-pen" fill="#FFFFFF" stroke-width="1.6" __comx="143.611" __comy="285.219" __timestamp="0x178183c96a6" d="M138.413 284.811 l-0.303 0.3 -0.269 0.191 0.157 0.785 1.481 0.641 5.414 0.114 0.993 -0.107 0.948 -0.146 2.547 -0.387 -0.01 -0.146 -2.576 -0.034 -0.954 -0.015 -0.954 0.001 -5.186 -0.304 -1.341 -0.507 0.157 0.785 0.193 -0.267 0.303 -0.3" />
    <path class="write-flat-pen" fill="#FFFFFF" stroke-width="1.6" __comx="162.535" __comy="285.219" __timestamp="0x178183c9873" d="M155.495 282.514 l-0.554 -1.189 0.008 -0.051 0.373 -1.148 1.351 -1.441 2.063 -1.313 2.383 -0.714 1.758 0.029 1.533 0.5 1.369 1.076 0.758 1.218 0.513 2.057 -0.175 2.725 -0.8 2.951 -1.734 3.776 -1.716 2.44 -4.274 3.4 -0.275 1.628 2.757 0.627 5.254 -0.059 0.791 -0.071 0.756 -0.094 0.727 -0.118 2.668 -0.423 -0.006 -0.163 -2.691 -0.238 -0.734 -0.068 -0.756 -0.041 -0.766 -0.031 -5.072 -0.177 -1.272 -0.276 -0.063 0.257 3.891 -3.286 1.87 -2.684 1.808 -3.981 0.834 -3.174 0.183 -3.031 -0.602 -2.42 -0.965 -1.559 -1.698 -1.35 -1.915 -0.625 -2.13 -0.024 -2.718 0.839 -2.296 1.539 -1.529 1.803 -0.361 1.575 0.059 0.403 0.879 1.213" />
    <path class="write-flat-pen" fill="#FFFFFF" stroke-width="1.6" __comx="193.654" __comy="285.219" __timestamp="0x178183c9a52" d="M186.964 297.54 l0.837 0.081 0.148 0.029 1.501 0.241 0.363 0.045 2.152 0.068 2.491 -0.663 2.042 -1.336 1.118 -1.551 0.531 -1.982 -0.449 -1.594 -1.073 -0.935 -1.747 -0.387 -2.019 0.333 -1.865 0.947 -1.791 1.745 -1.153 2.106 -0.427 2.344 0.576 2.3 1.166 1.539 2.257 1.243 2.226 0.292 3.036 -0.77 0.757 -0.422 0.627 -0.45 2.096 -1.501 -0.071 -0.132 -2.406 0.925 -0.689 0.259 -0.672 0.221 -2.726 0.442 -1.711 -0.26 -1.748 -0.972 -0.802 -1.057 -0.441 -1.71 0.304 -1.821 0.912 -1.74 1.481 -1.468 1.492 -0.766 1.558 -0.264 1.165 0.252 0.523 0.451 0.257 0.867 -0.355 1.413 -0.828 1.186 -1.664 1.148 -2.136 0.666 -1.964 0.098 -0.326 -0.002 -1.521 0.01 -0.188 0.008 -0.858 0.161" />
    <path class="write-flat-pen" fill="#FFFFFF" stroke-width="1.6" __comx="212.229" __comy="285.219" __timestamp="0x178183c9c54" d="M213.7 262.833 l-0.135 -1.468 -0.115 -0.236 -0.76 -0.807 -1.306 -0.267 -1.474 0.524 -1.25 1.307 -0.735 1.73 -0.011 1.824 0.774 1.714 1.191 0.814 1.656 0.088 1.749 -0.703 1.89 -1.735 1.012 -1.889 0.358 -2.058 -0.565 -1.739 -2.326 -1.208 -0.455 0.088 -2.041 0.52 0.008 0.134 2.09 0.262 0.146 0.05 1.479 1.033 0.303 0.957 -0.255 1.532 -0.798 1.514 -1.545 1.445 -1.271 0.536 -1.04 -0.029 -0.641 -0.416 -0.554 -1.167 -0.023 -1.345 0.53 -1.36 0.909 -1.03 0.984 -0.413 0.807 0.092 0.566 0.46 0.025 0.022 0.371 1.309" />
    <path class="write-flat-pen" fill="#FFFFFF" stroke-width="1.6" __comx="256.675" __comy="285.219" __timestamp="0x178183c9e12" d="M251.041 286.864 l8.651 -0.919 2.677 -0.453 -0.009 -0.113 -2.723 -0.024 -8.656 0.95" />
    <path class="write-flat-pen" fill="#FFFFFF" stroke-width="1.6" __comx="260.006" __comy="285.219" __timestamp="0x178183c9ec7" d="M253.292 289.753 l10.793 2.868 2.616 0.349 0.018 -0.087 -2.526 -0.711 -10.728 -3.047" />
    <path class="write-flat-pen" fill="#FFFFFF" stroke-width="1.6" __comx="288.414" __comy="285.219" __timestamp="0x178183ca011" d="M283.555 286.884 l0.511 -0.626 0.094 -0.043 2.522 -0.93 3.863 -0.658 0.542 -0.051 2.665 -0.222 0.003 -0.149 -2.654 -0.33 -0.609 -0.074 -4.07 0.521 -2.658 1.135 -0.312 0.224 -0.379 0.927" />
    <path class="write-flat-pen" fill="#FFFFFF" stroke-width="1.6" __comx="306.131" __comy="285.219" __timestamp="0x178183ca1e2" d="M298.186 280.094 l1.832 -2.881 0.068 -0.055 1.418 -0.791 1.242 0.01 0.899 0.48 0.834 1.078 0.559 1.745 0.128 2.323 -0.482 2.972 -1.195 3.48 -1.528 2.822 -2.326 2.88 -0.351 1.365 1.07 1.173 2.218 0.493 8.031 -0.965 0.521 -0.104 0.886 -0.218 2.657 -0.705 -0.014 -0.115 -2.749 -0.047 -0.915 0.003 -0.521 0.029 -7.82 0.726 -1.594 -0.332 -0.335 -0.322 0.071 -0.424 2.163 -2.787 1.616 -3.004 1.243 -3.671 0.504 -3.194 -0.151 -2.592 -0.674 -2.07 -1.115 -1.418 -1.366 -0.701 -1.795 0.046 -1.703 1.052 -0.243 0.229 -1.671 3.145" />
    <path class="write-flat-pen" fill="#FFFFFF" stroke-width="1.6" __comx="515.347" __comy="45.113" __timestamp="0x178183caa24" d="M509.171 46.194 l0.384 -0.378 0.108 -0.004 9.664 -1.014 2.526 -0.674 -0.022 -0.118 -2.578 0.271 -9.724 0.836 -0.406 0.144 -0.284 0.74" />
    <path class="write-flat-pen" fill="#FFFFFF" stroke-width="1.6" __comx="539.034" __comy="40.459" __timestamp="0x178183cacf8" d="M531.488 42.137 l-0.385 -0.534 0.018 0.007 0.184 -1.149 0.092 -0.19 1.121 -1.559 1.805 -1.465 1.752 -0.769 2.245 -0.358 1.355 0.231 1.339 0.762 0.676 0.893 0.197 1.036 -0.44 1.495 -1.537 2.309 -8.847 8.877 -1.116 1.7 0.599 1.325 2.068 0.508 11.503 -0.47 0.608 0.02 0.619 -0.005 2.755 -0.012 0.022 -0.16 -2.651 -0.749 -0.593 -0.17 -0.691 -0.162 -11.417 0.199 -1.188 -0.266 0.009 0.056 0.577 -0.929 8.729 -8.966 1.667 -2.598 0.524 -1.958 -0.334 -1.562 -0.982 -1.276 -1.712 -0.97 -1.735 -0.291 -2.569 0.431 -2.003 0.927 -1.96 1.727 -1.103 1.843 -0.126 0.395 0.05 1.39 0.091 0.186 0.644 0.409" />
    <path class="write-flat-pen" fill="#FFFFFF" stroke-width="1.6" __comx="97.271" __comy="334.06" __timestamp="0x178183cdc7f" d="M94.797 328.377 l-0.871 -0.79 -0.384 0.055 -1.88 1.49 -0.388 0.668 -0.907 2.45 -0.589 4.98 0.148 5.952 0.803 4.434 1.614 4.264 2.366 3.946 2.595 2.886 2.823 1.651 0.723 0.231 0.697 0.149 3.178 0.681 0.037 -0.12 -3.006 -1.237 -0.631 -0.263 -0.576 -0.273 -2.456 -1.731 -2.295 -2.758 -2.19 -3.77 -1.521 -4.033 -0.761 -4.202 -0.149 -5.749 0.493 -4.745 0.724 -2.25 0.207 -0.426 1.335 -1.436 -0.187 0.018 0.784 0.319" />
    <path class="write-flat-pen" fill="#FFFFFF" stroke-width="1.6" __comx="115.627" __comy="334.06" __timestamp="0x178183cde4b" d="M107.665 350.247 l1.225 0.646 0.259 0.096 5.464 0.335 0.643 -0.176 2.4 -1.19 1.654 -1.612 0.653 -1.878 -0.47 -1.627 -1.622 -0.982 -2.99 0.173 -2.846 1.153 -1.796 1.44 -1.669 2.502 -0.696 2.383 0.329 2.54 1.515 2.275 2.447 1.439 2.554 0.455 4.399 -0.834 0.839 -0.359 0.743 -0.405 2.885 -1.569 -0.068 -0.165 -3.148 0.938 -0.784 0.229 -0.754 0.196 -4.098 0.522 -2.06 -0.383 -1.946 -1.136 -1.16 -1.719 -0.269 -1.919 0.533 -1.906 1.413 -2.169 1.471 -1.198 2.461 -1.006 2.373 -0.154 0.866 0.5 0.248 0.766 -0.4 1.249 -1.293 1.318 -2.117 1.118 -0.377 0.117 -5.209 0.02 -0.152 -0.031 -1.32 -0.335" />
    <path class="write-flat-pen" fill="#FFFFFF" stroke-width="1.6" __comx="125.75" __comy="334.06" __timestamp="0x178183ce0bb" d="M120.127 322.175 l0.387 -3.217 0.022 -0.057 0.77 -1.286 1.293 -0.886 1.388 -0.253 1.234 0.326 0.55 0.748 -0.075 1.401 -4.493 7.091 -0.302 1.535 1.059 0.977 6.265 0.091 3.334 -0.15 0.009 -0.089 -3.273 -0.826 -5.827 -0.283 -0.205 -0.174 0.109 -0.621 4.453 -7.203 0.051 -2.105 -1.059 -1.319 -1.821 -0.399 -1.777 0.433 -1.484 1.227 -0.721 1.564 -0.039 0.171 -0.044 3.293" />
    <path class="write-flat-pen" fill="#FFFFFF" stroke-width="1.6" __comx="137.552" __comy="334.06" __timestamp="0x178183ce1c8" d="M132.177 318.086 l0.859 2.369 0.261 0.434 2.289 2.868 2.203 1.681 2.886 0.433 2.252 -1.067 -0.009 -0.028 -2.287 0.289 -2.434 -0.557 -1.953 -1.44 -2.281 -2.663 -0.223 -0.327 -1.148 -2.176" />
    <path class="write-flat-pen" fill="#FFFFFF" stroke-width="1.6" __comx="137.651" __comy="334.06" __timestamp="0x178183ce257" d="M133.984 327.018 l1.318 -3.216 0.346 -0.658 3.967 -6.093 2.052 -2.628 -0.094 -0.087 -2.498 2.293 -4.079 6.141 -0.356 0.753 -1.008 3.372" />
    <path class="write-flat-pen" fill="#FFFFFF" stroke-width="1.6" __comx="171.721" __comy="334.06" __timestamp="0x178183ce59e" d="M166.603 344.925 l-0.372 0.051 0.04 0.719 0.193 0.056 7.642 -1.874 3.105 -1.071 -0.041 -0.165 -3.245 0.501 -7.482 1.811 -0.034 0.013 0.04 0.719 0.337 -0.168" />
    <path class="write-flat-pen" fill="#FFFFFF" stroke-width="1.6" __comx="198.565" __comy="329.684" __timestamp="0x178183ce811" d="M192.892 351.589 l1.472 0.195 0.29 -0.04 3.426 -1.676 0.273 -0.273 0.835 -1.298 -0.107 -1.647 -1.391 -0.987 -2.079 0.287 -2.076 1.183 -1.76 2.001 -1.04 2.407 -0.197 2.689 0.765 2.073 1.735 1.571 2.099 0.661 2.599 -0.225 3.993 -1.839 1.215 -0.937 1.445 -1.4 2.204 -2.331 -0.077 -0.087 -2.582 1.885 -1.602 1.124 -1.174 0.71 -3.766 1.485 -2.091 0.155 -1.537 -0.477 -1.264 -1.114 -0.566 -1.46 0.128 -2.167 0.839 -2.019 1.465 -1.695 1.669 -0.97 1.351 -0.211 0.543 0.351 0.083 0.701 -0.522 0.911 -0.067 0.08 -3.018 1.846 -0.1 0.036 -1.405 0.137" />
    <path class="write-flat-pen" fill="#FFFFFF" stroke-width="1.6" __comx="204.945" __comy="329.684" __timestamp="0x178183ce96a" d="M199.245 326.969 l7.996 1.22 3.393 0.12 0.011 -0.088 -3.317 -0.688 -8.007 -1.091" />
    <path class="write-flat-pen" fill="#FFFFFF" stroke-width="1.6" __comx="219.353" __comy="329.684" __timestamp="0x178183ceb7a" d="M211.519 322.801 l1.234 -1.379 0.168 -0.115 2.736 -1.399 2.715 -0.686 1.039 0.173 0.547 0.569 0.078 0.927 -3.819 7.558 -0.117 1.811 7.412 0.667 0.515 -0.035 3.356 -0.232 0.004 -0.092 -3.328 -0.496 -0.478 -0.074 -6.194 -0.844 -0.025 -0.41 3.76 -7.655 -0.183 -1.598 -1.072 -1.021 -1.556 -0.196 -2.967 0.87 -2.762 1.655 -0.25 0.213 -1.016 1.637" />
    <path class="write-flat-pen" fill="#FFFFFF" stroke-width="1.6" __comx="233.698" __comy="329.684" __timestamp="0x178183cec92" d="M227.839 317.637 l0.352 1.509 0.214 0.395 2.177 2.637 5.714 3.898 3.246 1.155 0.015 -0.031 -2.858 -1.812 -5.49 -3.904 -2.15 -2.41 -0.167 -0.254 -0.65 -1.326" />
    <path class="write-flat-pen" fill="#FFFFFF" stroke-width="1.6" __comx="232.187" __comy="329.684" __timestamp="0x178183ced1e" d="M228.575 327.661 l0.978 -2.45 4.848 -6.534 1.957 -2.709 -0.078 -0.068 -2.402 2.353 -5.074 6.556 -0.787 2.658" />
    <path class="write-flat-pen" fill="#FFFFFF" stroke-width="1.6" __comx="252.349" __comy="338.217" __timestamp="0x178183cefb3" d="M247.413 322.493 l0.234 -1.156 -0.374 0.285 1.698 0.431 0.367 0.284 2.928 2.915 2.5 3.633 2.08 4.551 0.964 3.812 0.317 5.352 -0.628 4.661 -1.914 6.102 -2.372 4.984 -2.51 3.788 -2.994 3.209 -2.431 2.145 0.061 0.091 2.973 -1.509 3.311 -3.184 2.67 -3.922 2.479 -5.133 1.978 -6.29 0.673 -4.89 -0.311 -5.602 -1.023 -4.05 -2.196 -4.758 -2.683 -3.798 -3.204 -2.925 -0.654 -0.421 -1.979 -0.122 -0.374 0.285 -0.043 1.179" />
    <path class="write-flat-pen" fill="#FFFFFF" stroke-width="1.6" __comx="271.824" __comy="338.217" __timestamp="0x178183cf214" d="M266.298 317.384 l1.504 -1.19 0.114 -0.063 1.85 -0.793 1.273 0.018 0.94 0.63 0.558 1.331 -0.157 1.965 -3.673 5.996 0.878 0.975 4.337 -0.574 0.596 -0.121 3.122 -0.617 -0.014 -0.185 -3.18 -0.132 -0.622 -0.027 -3.725 0.277 0.186 0.238 3.235 -5.469 0.157 -2.521 -0.838 -1.87 -1.507 -0.926 -1.789 0.063 -2.011 1.069 -0.2 0.146 -1.324 1.473" />
    <path class="write-flat-pen" fill="#FFFFFF" stroke-width="1.6" __comx="316.536" __comy="338.217" __timestamp="0x178183cf76f" d="M307.651 342.339 l2.476 0.188 0.457 0.052 4.689 -0.03 6.817 -1.168 3.332 -0.73 -0.014 -0.106 -3.412 0.18 -6.802 0.887 -4.582 0.152 -0.447 -0.026 -2.509 0.159" />
    <path class="write-flat-pen" fill="#FFFFFF" stroke-width="1.6" __comx="319.631" __comy="338.217" __timestamp="0x178183cf851" d="M313.795 346.477 l8.382 1.008 3.287 -0.089 0.004 -0.085 -3.248 -0.366 -8.369 -0.947" />
    <path class="write-flat-pen" fill="#FFFFFF" stroke-width="1.6" __comx="121.491" __comy="409.847" __timestamp="0x178183d03a4" d="M121.583 409.777 l-0.154 0 -0.047 0.024 -0.028 0.028 -0.015 0.027 -0.009 0.025 -0.007 0.034 0.002 0.035 0.006 0.027 0.007 0.021 0.01 0.021 0.294 0.605 0.019 -0.006 -0.09 -0.667 -0.002 -0.017 0 -0.005 0.001 -0.003 0.001 0.009 -0.003 0.014 -0.004 0.01 -0.01 0.017 -0.024 0.024 -0.043 0.021 0.095 0" />
    <path class="write-flat-pen" fill="#FFFFFF" stroke-width="1.6" __comx="93.395" __comy="434.271" __timestamp="0x178183d13c7" d="M94.4 417.233 l-0.524 -1.683 -0.344 -0.255 -1.028 0.146 -1.268 1.674 -1.121 3.302 -0.754 6.261 -0.056 7.933 0.754 6.349 2.557 7.522 0.555 0.786 1.813 1.639 2.413 1.939 0.089 -0.097 -2.114 -2.241 -1.516 -1.787 -0.375 -0.648 -2.173 -7.381 -0.695 -6.153 0.051 -7.783 0.654 -6.081 0.92 -3.065 0.828 -1.333 0.309 -0.152 -0.094 -0.086 0.757 1.346" />
    <path class="write-flat-pen" fill="#FFFFFF" stroke-width="1.6" __comx="112.496" __comy="434.271" __timestamp="0x178183d16ec" d="M113.735 436.02 l-0.022 -1.807 -0.086 -0.34 -1.47 -2.821 -0.354 -0.333 -1.87 -0.886 -2.527 0.256 -1.759 1.099 -1.406 1.881 -1.049 3.151 -0.279 3.712 0.639 2.515 1.253 1.741 1.749 0.97 2.391 -0.035 2.35 -1.219 1.964 -2.351 0 0 1.497 -3.26 -1.331 -0.043 1.713 4.361 3.035 3.324 0.517 0.197 0.45 0.08 2.899 0.494 0.038 -0.123 -2.671 -1.23 -0.352 -0.168 -0.207 -0.139 -2.498 -3.156 -1.576 -4.159 -1.331 -0.043 -1.428 3.078 0 0 -1.655 1.975 -1.783 0.929 -1.661 0.034 -1.133 -0.621 -0.913 -1.255 -0.527 -2.023 0.245 -3.306 0.92 -2.77 1.107 -1.497 1.261 -0.812 1.852 -0.243 1.412 0.569 0.092 0.066 1.623 2.406 0.073 0.16 0.36 1.69" />
    <path class="write-flat-pen" fill="#FFFFFF" stroke-width="1.6" __comx="130.56" __comy="434.271" __timestamp="0x178183d17ed" d="M125.181 437.929 l1.967 0.641 5.575 -0.833 3.216 -0.935 -0.026 -0.125 -3.3 0.413 -5.41 0.624 -1.864 -0.376" />
    <path class="write-flat-pen" fill="#FFFFFF" stroke-width="1.6" __comx="131.913" __comy="434.271" __timestamp="0x178183d1899" d="M129.306 431.764 l1.238 6.007 2.416 6.196 1.49 2.987 0.071 -0.03 -1.073 -3.148 -2.081 -6.245 -1.411 -5.912" />
    <path class="write-flat-pen" fill="#FFFFFF" stroke-width="1.6" __comx="150.284" __comy="434.271" __timestamp="0x178183d1af5" d="M142.313 427.987 l-0.769 0.101 1.965 4.951 0.419 0.808 3.502 7.761 1.062 1.114 0 0 0.946 -0.135 2.671 -5.034 1.133 -1.175 1.018 -0.228 1.37 0.541 1.365 1.653 0.847 2.428 0.027 2.283 -0.818 2.04 -1.139 1.154 -1.748 0.668 -1.59 -0.115 -1.587 -0.81 -1.186 -1.637 -0.983 -2.4 -0.046 0.011 0.214 2.725 1.174 2.186 2.072 1.117 2.116 0.154 2.24 -0.876 1.476 -1.523 0.959 -2.488 -0.071 -2.692 -0.991 -2.772 -1.662 -2.021 -1.938 -0.792 -1.693 0.348 -1.512 1.521 -2.763 5.176 0.946 -0.135 0 0 -0.948 -0.949 -3.542 -7.558 -0.433 -0.789 -2.268 -4.776 -0.334 0.598" />
    <path class="write-flat-pen" fill="#FFFFFF" stroke-width="1.6" __comx="163.184" __comy="434.271" __timestamp="0x178183d1c35" d="M157.65 419.485 l1.116 1.945 0.26 0.421 4.705 8.215 2.391 5.534 1.123 4.572 0.331 5.073 -0.552 3.899 -1.386 2.973 -1.847 2.4 0.051 0.051 2.461 -1.967 1.787 -3.113 0.627 -4.198 -0.347 -5.292 -1.176 -4.761 -2.486 -5.671 -4.999 -8.147 -0.303 -0.42 -1.383 -1.766" />
    <path class="write-flat-pen" fill="#FFFFFF" stroke-width="1.6" __comx="170.52" __comy="434.271" __timestamp="0x178183d1e16" d="M164.195 413.951 l3.023 -2.967 0.156 -0.085 1.927 -0.673 0.957 0.146 0.447 0.49 0.082 0.919 -1.983 4.144 -0.017 1.723 1.525 1.005 3.399 0.1 0.476 -0.055 3.112 -0.365 0.001 -0.115 -3.101 -0.446 -0.443 -0.067 -2.999 -0.373 -0.646 -0.407 -0.028 -0.723 1.871 -4.232 -0.197 -1.602 -0.992 -1.003 -1.581 -0.194 -2.231 0.837 -0.349 0.209 -2.869 3.305" />
    <path class="write-flat-pen" fill="#FFFFFF" stroke-width="1.6" __comx="190.118" __comy="434.271" __timestamp="0x178183d1f81" d="M183.18 435.422 l1.727 -0.954 0.326 -0.082 8.788 -0.717 3.304 0.113 0.007 -0.056 -3.294 -0.704 -8.959 0.523 -0.524 0.173 -1.648 1.292" />
    <path class="write-flat-pen" fill="#FFFFFF" stroke-width="1.6" __comx="191.815" __comy="434.271" __timestamp="0x178183d2036" d="M187.157 438.767 l0.318 0.959 5.882 0.121 3.115 -0.334 -0.003 -0.076 -3.113 -0.078 -5.415 -0.296 -0.27 -0.503" />
    <path class="write-flat-pen" fill="#FFFFFF" stroke-width="1.6" __comx="216.411" __comy="434.271" __timestamp="0x178183d22a7" d="M215.882 439.162 l1.766 -1.771 0.079 -0.147 0.314 -1.396 -0.712 -1.182 -1.512 -0.552 -2.899 0.441 -2.231 1.281 -1.638 2.005 -1.119 2.756 -0.18 2.748 0.574 1.924 1.261 1.472 2.064 0.693 1.925 -0.31 2.322 -1.353 3.257 -3.637 0.667 -0.274 0.633 0.5 2.726 4.967 0.443 0.042 1.434 -0.083 0.016 -0.066 -1.236 -0.732 0.044 -0.055 -2.408 -4.916 -1.445 -1.141 -1.641 0.675 -3.315 3.712 -1.937 1.137 -1.379 0.226 -1.435 -0.479 -0.867 -0.998 -0.448 -1.451 0.123 -2.333 0.948 -2.423 1.372 -1.722 1.856 -1.102 2.435 -0.453 1.008 0.275 0.491 0.59 -0.062 1.041 0.003 0.009 -1.458 1.942" />
    <path class="write-flat-pen" fill="#FFFFFF" stroke-width="1.6" __comx="226.004" __comy="434.271" __timestamp="0x178183d242d" d="M221.549 412.627 l-0.138 -1.939 0.035 -0.084 0.822 -1.2 1.386 -0.717 1.102 0.028 0.916 0.579 0.466 0.935 -0.037 1.767 -2.404 5.046 -0.002 1.831 1.399 1.008 2.929 0.173 0.359 -0.027 3.082 -0.235 0.007 -0.119 -3.033 -0.594 -0.328 -0.067 -2.52 -0.414 -0.55 -0.412 -0.012 -0.851 2.334 -5.049 0.026 -2.348 -0.779 -1.509 -1.509 -0.914 -1.743 0.012 -1.85 1.088 -0.898 1.653 -0.071 0.393 0.493 2.048" />
    <path class="write-flat-pen" fill="#FFFFFF" stroke-width="1.6" __comx="285.819" __comy="434.271" __timestamp="0x178183d2b66" d="M279.482 437.653 l9.256 0.24 3.415 0.061 0.005 -0.047 -3.382 -0.606 -9.275 -0.292" />
    <path class="write-flat-pen" fill="#FFFFFF" stroke-width="1.6" __comx="285.937" __comy="434.271" __timestamp="0x178183d2c21" d="M283.33 430.813 l1.314 7.362 0.206 0.66 1.613 3.917 2.001 2.576 0.081 -0.05 -1.395 -2.871 -1.448 -3.875 -0.191 -0.583 -1.647 -7.245" />
    <path class="write-flat-pen" fill="#FFFFFF" stroke-width="1.6" __comx="305.583" __comy="434.271" __timestamp="0x178183d2e50" d="M296.926 430.571 l1.07 -1.592 0.217 -0.209 2.432 -1.973 2.765 -1.325 1.673 -0.219 1.427 0.515 0.987 1.103 0.637 2.173 -0.236 2.838 -1.389 3.857 -1.867 2.964 -7.245 6.92 -0.866 1.618 0.633 1.428 1.91 0.772 10.293 -0.589 0.684 -0.121 1.268 -0.279 3.33 -0.798 -0.011 -0.088 -3.421 0.073 -1.29 0.033 -0.648 0.027 -9.947 0.239 -1.065 -0.419 -0.112 -0.228 0.405 -0.796 7.115 -6.955 2.014 -3.23 1.473 -4.158 0.242 -3.245 -0.816 -2.656 -1.398 -1.515 -1.991 -0.682 -2.134 0.318 -3.004 1.556 -2.429 2.248 -0.285 0.337 -0.834 1.831" />
    <path class="write-flat-pen" fill="#FFFFFF" stroke-width="1.6" __comx="320.892" __comy="434.271" __timestamp="0x178183d3007" d="M320.797 440.156 l0.302 -1.282 0.038 -0.283 -0.294 -1.492 -1.208 -0.789 -1.711 0.25 -1.708 1.417 -1.328 2.482 -0.52 2.627 0.427 1.806 1.296 1.183 1.568 0.167 2.048 -0.883 2.761 -2.945 0.169 -0.04 2.376 4.076 2.353 0.953 0.05 -0.078 -1.636 -1.587 -2.453 -4.882 -1.549 0.352 -2.858 3.027 -1.468 0.633 -0.78 -0.082 -0.665 -0.606 -0.269 -1.12 0.412 -2.153 1.098 -2.099 1.224 -1.069 0.933 -0.199 0.527 0.247 0.335 0.889 0.01 0.127 0.018 1.301" />
    <path class="write-flat-pen" fill="#FFFFFF" stroke-width="1.6" __comx="333.67" __comy="434.271" __timestamp="0x178183d31f4" d="M327.383 420.202 l-0.724 1.104 -0.03 0.448 2.479 6.808 0.425 0.844 2.935 7.246 1.315 4.79 0 0 0.145 2.637 0 0 1.304 -0.017 0.048 -1.661 0.802 -1.983 1.021 -0.967 0.853 -0.163 0.819 0.373 0.631 0.973 -0.002 1.481 -0.594 1.239 -1.554 1.303 -3.043 0.879 -2.768 0.222 -0.012 0.117 2.865 0.795 3.572 -0.817 2.001 -1.677 0.838 -1.768 -0.012 -2.159 -1.045 -1.605 -1.531 -0.703 -1.633 0.305 -1.506 1.422 -0.995 2.462 -0.06 1.893 1.304 -0.017 0 0 -0.164 -2.773 0 0 -1.37 -4.997 -3.015 -7.355 -0.432 -0.832 -2.717 -6.455 -0.02 -0.077 0.355 -1.072" />
    <path class="write-flat-pen" fill="#FFFFFF" stroke-width="1.6" __comx="360.502" __comy="328.079" __timestamp="0x178183d4a75" d="M354.169 344.722 l-0.673 0.707 0.217 0.322 2.261 0.603 0.511 -0.007 3.689 -0.603 1.988 -1.06 0.604 -1.201 -0.646 -1.266 -2.302 -0.691 -2.555 0.261 -2.634 1.126 -1.643 1.666 -1.149 2.577 -0.141 2.393 0.722 2.265 1.617 1.808 1.895 0.826 2.8 -0.102 2.97 -1.138 4.079 -2.844 0.655 -0.577 0.542 -0.542 2.332 -2.328 -0.067 -0.08 -2.706 1.88 -0.619 0.428 -0.679 0.459 -4.102 2.486 -2.662 0.963 -2.293 0.078 -1.364 -0.59 -1.25 -1.385 -0.579 -1.772 0.096 -1.928 0.941 -2.175 1.302 -1.356 2.24 -0.987 2.148 -0.238 1.638 0.459 0.197 0.343 -0.188 0.415 -1.528 0.858 -3.444 0.693 -0.349 0.029 -2.024 -0.225 0.083 0.144 0.21 -0.599" />
    <path class="write-flat-pen" fill="#FFFFFF" stroke-width="1.6" __comx="200.806" __comy="384.049" __timestamp="0x178183d6b55" d="M200.048 393.838 l-0.056 -0.683 0.043 -0.38 1.9 -16.833 0.256 -3.299 -0.044 -0.006 -0.697 3.242 -2.029 16.847 0.002 0.513 0.414 0.674" />
    <path class="write-flat-pen" fill="#FFFFFF" stroke-width="1.6" __comx="202.991" __comy="371.249" __timestamp="0x178183d6d5b" d="M201.14 370.715 l0.169 -0.738 0 0 -0.471 -0.146 -2.012 3.498 -0.19 0.228 -1.804 1.875 0 0 -0.786 0.21 0 0 0.652 0.575 0.253 -1.344 1.109 -1.63 1.867 -1.303 1.945 -0.554 1.522 0.205 3.857 2.149 2.921 1.719 0.115 -0.159 -2.568 -2.271 -3.949 -2.521 -1.985 -0.261 -2.342 0.688 -2.166 1.542 -1.334 1.991 -0.251 1.575 0.652 0.575 0 0 1.018 -0.342 0 0 1.924 -2.162 0.249 -0.325 1.747 -3.727 -0.471 -0.146 0 0 -0.016 0.757" />
    <path class="write-flat-pen" fill="#FFFFFF" stroke-width="1.6" __comx="93.194" __comy="390.481" __timestamp="0x178183db63b" d="M103.975 365.556 l-1.478 -1.058 -1.981 -0.108 -2.55 0.9 -3.854 2.652 -4.377 4.103 -3.678 4.431 -3.131 5.242 -4.42 9.887 -3.919 10.829 -3.844 13.494 -2.324 11.528 -1.197 11.659 -0.101 11.406 0.965 8.311 1.983 8.119 2.04 5.562 4.15 8.505 4.417 6.553 4.277 4.842 5.76 4.776 7.213 4.167 4.512 1.654 5.487 0.892 5.155 0.075 1.718 -0.182 1.523 -0.244 2.946 -0.471 -0.007 -0.07 -2.981 0.12 -1.529 0.06 -1.678 0.012 -5.041 -0.312 -5.3 -0.969 -4.311 -1.616 -7.038 -4.076 -5.618 -4.651 -4.167 -4.718 -4.33 -6.422 -4.099 -8.376 -2.015 -5.443 -2.003 -7.98 -0.99 -8.174 0.092 -11.291 1.213 -11.558 2.294 -11.441 3.804 -13.426 3.849 -10.779 4.328 -9.831 3.011 -5.177 3.526 -4.413 4.232 -4.119 3.718 -2.633 2.371 -0.877 1.75 0.04 1.429 0.894" />
    <path class="write-flat-pen" fill="#FFFFFF" stroke-width="1.6" __comx="121.747" __comy="485.303" __timestamp="0x178183db82d" d="M120.959 501.84 l-1.507 -2.309 0 0 -0.28 -0.339 0 0 -2.762 -3.71 0 0 -0.641 0.717 3.25 2.059 5.838 1.498 1.017 0.682 0.825 1.6 -0.209 4.829 -0.409 3.22 0.127 0.034 1.295 -3.092 0.348 -5.245 -1.14 -2.107 -1.413 -0.921 -5.864 -1.477 -3.15 -1.912 -0.641 0.717 0 0 2.976 3.568 0 0 0.297 0.312 0 0 1.763 2.083" />
    <path class="write-flat-pen" fill="#FFFFFF" stroke-width="1.6" __comx="163.809" __comy="485.303" __timestamp="0x178183dbab7" d="M155.098 490.25 l-0.842 -1.521 -0.164 -1.734 0.701 -1.948 1.495 -1.813 2.052 -1.336 2.07 -0.576 1.99 0.181 1.533 0.739 1.249 1.46 0.463 1.526 -0.143 2.175 -1.694 4.607 -2.563 4.781 -5.705 7.251 -0.332 1.536 2.16 0.941 12.002 1.127 0.774 0.044 0.71 0.002 3.436 0.013 0.016 -0.139 -3.353 -0.747 -0.68 -0.154 -0.763 -0.164 -11.781 -1.372 -0.952 -0.378 0.004 -0.14 5.509 -7.141 2.642 -4.957 1.766 -4.859 0.153 -2.568 -0.612 -1.966 -1.578 -1.828 -1.95 -0.927 -2.413 -0.198 -2.43 0.719 -2.29 1.585 -1.605 2.143 -0.658 2.316 0.355 2.012 1.049 1.544" />
    <path class="write-flat-pen" fill="#FFFFFF" stroke-width="1.6" __comx="199.464" __comy="485.303" __timestamp="0x178183dbd12" d="M192.003 498.593 l1.244 0.512 0.223 0.049 2.965 -0.262 0.508 -0.187 2.018 -1.214 1.65 -1.965 0.375 -1.576 -0.79 -1.186 -2.025 -0.037 -3.263 1.444 -2.998 2.225 -1.733 2.386 -0.69 2.487 0.64 2.401 1.876 2.111 2.782 1.332 2.64 0.377 3.916 -0.596 4.171 -1.724 0.666 -0.42 0.602 -0.453 2.66 -2.002 -0.063 -0.105 -3.014 1.415 -0.661 0.307 -0.635 0.276 -4.068 1.374 -3.575 0.491 -2.224 -0.314 -2.338 -1.105 -1.482 -1.645 -0.486 -1.723 0.488 -1.916 1.438 -2.066 2.71 -2.055 2.891 -1.297 1.149 0 0.189 0.252 -0.17 0.845 -1.318 1.685 -1.745 1.177 -0.321 0.145 -2.733 0.559 -0.117 -0.003 -1.303 -0.178" />
    <path class="write-flat-pen" fill="#FFFFFF" stroke-width="1.6" __comx="212.339" __comy="485.303" __timestamp="0x178183dbf4c" d="M205.499 468.378 l1.325 -1.47 0.087 -0.04 2.743 -1.081 2.199 -0.284 0.854 0.338 0.473 0.72 0.007 1.146 -0.78 1.867 -4.55 5.121 -0.579 1.614 0.86 1.366 2.442 0.743 5.259 0.172 0.261 -0.02 3.421 -0.262 0.006 -0.096 -3.368 -0.654 -0.255 -0.05 -5.078 -0.455 -1.802 -0.543 -0.246 -0.372 0.254 -0.758 4.409 -5.17 0.902 -2.288 -0.05 -1.712 -0.872 -1.268 -1.446 -0.539 -2.599 0.41 -2.836 1.341 -0.251 0.164 -1.138 1.8" />
    <path class="write-flat-pen" fill="#FFFFFF" stroke-width="1.6" __comx="225.464" __comy="485.303" __timestamp="0x178183dc045" d="M219.721 468.862 l1.091 2.496 0.352 0.434 2.101 1.975 4.667 1.786 3.269 -0.083 0.005 -0.056 -3.078 -0.671 -4.33 -1.827 -1.997 -1.741 -0.273 -0.297 -1.353 -2.249" />
    <path class="write-flat-pen" fill="#FFFFFF" stroke-width="1.6" __comx="225.28" __comy="485.303" __timestamp="0x178183dc0df" d="M220.298 477.764 l0.906 -1.852 0.289 -0.414 6.868 -7.762 2.265 -2.507 -0.096 -0.103 -2.677 2.113 -6.977 7.789 -0.328 0.548 -0.611 2.046" />
    <path class="write-flat-pen" fill="#FFFFFF" stroke-width="1.6" __comx="251.405" __comy="484.438" __timestamp="0x178183dc449" d="M249.543 481.054 l-0.343 0.1 -0.126 0.115 -0.951 1.133 -0.255 0.442 -1.613 4.123 -1.27 6.662 -0.243 6.077 0.772 5.762 1.407 4.719 1.595 2.901 2.637 2.659 2.92 1.459 0.838 0.22 3.124 0.813 0.03 -0.085 -2.939 -1.335 -0.726 -0.334 -2.566 -1.615 -2.309 -2.516 -1.421 -2.655 -1.327 -4.499 -0.738 -5.553 0.23 -5.872 1.174 -6.482 1.359 -4.04 0.155 -0.358 0.646 -1.247 0.029 -0.089 0.1 -0.286" />
    <path class="write-flat-pen" fill="#FFFFFF" stroke-width="1.6" __comx="269.965" __comy="484.438" __timestamp="0x178183dc5ca" d="M261.658 501.71 l2.768 0.627 0.595 0.101 9.909 0.402 3.344 -0.33 -0.001 -0.043 -3.337 -0.108 -9.833 -0.705 -0.556 -0.073 -2.816 -0.303" />
    <path class="write-flat-pen" fill="#FFFFFF" stroke-width="1.6" __comx="294.127" __comy="484.438" __timestamp="0x178183dc7f8" d="M285.198 499.769 l2.126 0.797 0.43 0.081 2.535 0.14 2.867 -0.684 3.012 -1.575 1.489 -1.687 0.445 -1.633 -0.783 -1.41 -2.269 -0.383 -3.152 0.881 -2.927 1.754 -1.714 1.767 -1.41 2.65 -0.43 2.751 0.599 2.769 1.162 1.831 1.865 1.385 2.367 0.748 2.804 -0.095 5.717 -2.563 0.568 -0.467 2.553 -2.118 -0.085 -0.127 -2.929 1.559 -0.569 0.296 -5.535 2.137 -2.346 0.074 -1.953 -0.61 -1.509 -1.105 -0.929 -1.434 -0.528 -2.321 0.34 -2.327 1.214 -2.332 1.483 -1.541 2.658 -1.597 2.75 -0.77 1.463 0.245 0.293 0.511 -0.235 0.936 -1.158 1.366 -2.688 1.504 -2.602 0.734 -2.372 0.017 -0.343 -0.033 -2.169 -0.48" />
    <path class="write-flat-pen" fill="#FFFFFF" stroke-width="1.6" __comx="307.444" __comy="484.438" __timestamp="0x178183dc972" d="M302.424 471.577 l-0.204 0.378 0.773 0.115 0.318 0.011 6.065 -0.237 3.322 -0.306 -0.001 -0.123 -3.335 -0.265 -6.07 0.155 -0.333 0.021 -0.77 0.23 0.194 0.418" />
    <path class="write-flat-pen" fill="#FFFFFF" stroke-width="1.6" __comx="322.727" __comy="484.438" __timestamp="0x178183dcb97" d="M316.246 467.625 l1.766 -1.157 0.162 -0.099 2.27 -1.216 1.129 -0.051 0.241 0.34 -0.174 1.663 -3.623 7.767 -0.091 1.502 1.521 1.265 6.475 0.326 3.385 -0.693 -0.012 -0.149 -3.377 -0.157 -5.984 -0.565 -0.778 -0.588 -0.01 -0.673 3.499 -7.776 0.122 -2.242 -0.85 -0.895 -1.7 0.226 -2.326 1.47 -0.179 0.136 -1.564 1.44" />
    <path class="write-flat-pen" fill="#FFFFFF" stroke-width="1.6" __comx="335.198" __comy="484.438" __timestamp="0x178183dcc99" d="M330.195 468.955 l0.715 1.528 0.214 0.343 2.256 2.918 3.525 2.292 3.268 0.847 0.029 -0.073 -2.86 -1.61 -3.287 -2.206 -2.296 -2.648 -0.211 -0.273 -0.976 -1.342" />
    <path class="write-flat-pen" fill="#FFFFFF" stroke-width="1.6" __comx="334.697" __comy="484.438" __timestamp="0x178183dcd2d" d="M330.427 477.43 l1.79 -2.834 0.38 -0.502 4.404 -4.759 2.355 -2.403 -0.038 -0.045 -2.759 1.983 -4.599 4.695 -0.416 0.602 -1.508 3.045" />
    <path class="write-flat-pen" fill="#FFFFFF" stroke-width="1.6" __comx="350.91" __comy="481.449" __timestamp="0x178183dcf5c" d="M349.929 473.595 l0.374 2.629 0.187 0.587 3.805 10.214 1.072 4.614 0.265 4.566 -0.386 3.186 -1.316 3.976 -3.422 5.661 -0.689 0.843 -2.015 2.358 -0.66 0.74 -2.166 2.427 0.031 0.031 2.423 -2.17 0.746 -0.667 2.219 -2.195 0.799 -0.849 3.793 -5.672 1.44 -4.215 0.412 -3.418 -0.297 -4.776 -1.15 -4.781 -4.07 -10.18 -0.195 -0.509 -0.686 -2.507" />
    <path class="write-flat-pen" fill="#FFFFFF" stroke-width="1.6" __comx="147.625" __comy="558.803" __timestamp="0x178183dd42b" d="M139.665 554.234 l3.051 0.525 9.595 -1.142 3.273 -0.469 -0.004 -0.054 -3.312 0.035 -9.539 0.807 -2.989 -0.266" />
    <path class="write-flat-pen" fill="#FFFFFF" stroke-width="1.6" __comx="151.716" __comy="558.803" __timestamp="0x178183dd4d3" d="M147.752 556.308 l-0.959 0.824 0.75 1.258 1.767 0.928 4.249 0.473 3.075 -0.013 0.003 -0.059 -3.037 -0.338 -4.063 -0.756 -1.473 -0.79 -0.378 -0.577 0.482 -0.493" />
    <path class="write-flat-pen" fill="#FFFFFF" stroke-width="1.6" __comx="186.681" __comy="558.803" __timestamp="0x178183dd6f6" d="M178.014 554.317 l0.488 -1.443 2.459 -2.634 2.552 -1.664 3.158 -0.974 2.402 0.008 1.617 0.805 0.893 1.163 0.396 1.84 -0.434 2.462 -1.431 3.133 -3.183 4.68 -7.889 9.559 -0.608 1.896 1.586 0.809 10.478 -2.602 0.673 -0.135 1.354 -0.263 3.319 -0.646 -0.009 -0.096 -3.385 -0.036 -1.4 0.015 -0.756 0.058 -10.103 2.232 -0.114 -0.038 0.151 -0.557 7.645 -9.496 3.231 -4.83 1.481 -3.371 0.429 -2.807 -0.54 -2.235 -1.192 -1.475 -2.013 -0.94 -2.727 0.053 -3.359 1.095 -2.695 1.801 -2.561 2.865 -0.406 1.622" />
    <path class="write-flat-pen" fill="#FFFFFF" stroke-width="1.6" __comx="224.194" __comy="558.803" __timestamp="0x178183dd926" d="M215.853 563.098 l1.814 0.713 0.524 -0.076 2.84 -0.997 3.186 -2.151 1.79 -2.094 0.3 -1.527 -0.661 -1.282 -1.834 -0.455 -2.571 0.766 -2.576 1.643 -2.203 2.419 -1.381 2.626 -0.728 3.031 0.597 2.334 1.443 1.509 2.297 0.926 3.058 0.066 7.937 -2.473 0.729 -0.326 0.571 -0.261 3.053 -1.387 -0.042 -0.126 -3.272 0.734 -0.625 0.14 -0.745 0.214 -7.787 2.101 -2.596 -0.053 -1.8 -0.71 -1.015 -1.032 -0.462 -1.677 0.569 -2.577 1.204 -2.364 1.979 -2.195 2.299 -1.47 2.1 -0.633 1.004 0.244 0.231 0.444 -0.157 0.83 -1.474 1.767 -2.904 2.077 -2.582 1.103 -0.247 0.067 -1.719 -0.353" />
    <path class="write-flat-pen" fill="#FFFFFF" stroke-width="1.6" __comx="165.438" __comy="559.025" __timestamp="0x178183ddca2" d="M162.221 558.949 l-0.173 -0.088 0.028 0.012 0.024 0.021 -0.173 0.335 0.002 0.013 0.016 0.016 0.064 0.033 0.08 0.036 0.137 0.052 0.17 0.058 0.242 0.093 0.296 0.093 0.369 0.096 0.402 0.087 0.484 0.086 0.593 0.07 0.65 0.045 0.672 0.006 2.951 0.026 0.006 -0.081 -2.921 -0.418 -0.656 -0.095 -0.627 -0.093 -0.568 -0.092 -0.463 -0.085 -0.388 -0.075 -0.354 -0.072 -0.278 -0.063 -0.256 -0.066 -0.191 -0.033 -0.138 -0.021 -0.085 -0.011 -0.073 -0.005 -0.046 -0.001 -0.031 0.008 -0.173 0.335 0.026 0.023 0.033 0.014 0.173 0.087" />
    <path class="write-flat-pen" fill="#FFFFFF" stroke-width="1.6" __comx="244.569" __comy="532.064" __timestamp="0x178183dea72" d="M238.951 530.184 l-0.241 -1.272 0.044 -0.106 0.819 -1.267 1.08 -0.661 1.558 -0.123 1.731 0.617 1.138 1.022 0.587 1.331 -0.214 1.589 -1.225 1.912 -3.41 3.174 -0.426 1.591 7.254 1.697 3.379 0.038 0.016 -0.118 -3.211 -0.861 -5.876 -1.682 -0.018 -0.01 3.181 -3.102 1.394 -2.266 0.23 -2.133 -0.844 -1.774 -1.468 -1.256 -2.111 -0.702 -1.96 0.221 -1.368 0.945 -0.819 1.579 -0.076 0.361 0.596 1.336" />
    <path class="write-flat-pen" fill="#FFFFFF" stroke-width="1.6" __comx="257.977" __comy="532.064" __timestamp="0x178183deb7a" d="M253.647 531.233 l-0.304 -0.56 0 0 -0.477 0.462 2.708 2.443 0.492 0.392 3.803 2.324 3.231 1.016 0.039 -0.089 -2.87 -1.674 -3.611 -2.415 -0.453 -0.344 -2.916 -2.17 -0.477 0.462 0 0 0.463 0.438" />
    <path class="write-flat-pen" fill="#FFFFFF" stroke-width="1.6" __comx="257.871" __comy="532.064" __timestamp="0x178183dec19" d="M254.403 538.608 l1.489 -3.43 0.333 -0.526 3.077 -3.654 2.313 -2.291 -0.052 -0.061 -2.655 1.956 -3.22 3.657 -0.378 0.632 -1.184 3.611" />
    <path class="write-flat-pen" fill="#FFFFFF" stroke-width="1.6" __comx="269.014" __comy="532.064" __timestamp="0x178183ded01" d="M265.627 533.053 l3.929 -0.706 2.939 -0.358 -0.006 -0.14 -3.002 -0.089 -3.955 0.794" />
    <path class="write-flat-pen" fill="#FFFFFF" stroke-width="1.6" __comx="285.737" __comy="532.064" __timestamp="0x178183def39" d="M279.019 527.958 l1.63 -2.387 0.175 -0.14 1.797 -0.895 1.277 -0.013 0.853 0.486 0.6 1.141 -0.175 1.805 -0.948 1.923 -5.07 4.938 -0.487 1.233 0.371 0.782 1.163 0.411 8.926 -1.569 0.295 -0.043 3.377 -0.445 -0.001 -0.089 -3.389 -0.342 -0.364 -0.033 -8.737 1.25 -0.885 -0.278 0.371 0.782 0.357 -1.009 4.957 -4.951 1.091 -2.274 0.179 -2.307 -0.927 -1.632 -1.34 -0.698 -1.722 0.086 -1.997 1.132 -0.307 0.289 -1.401 2.652" />
    <path class="write-flat-pen" fill="#FFFFFF" stroke-width="1.6" __comx="296.764" __comy="532.064" __timestamp="0x178183df044" d="M291.663 527.297 l1.873 2.334 0.34 0.326 4.861 3.799 3.098 1.425 0.03 -0.05 -2.69 -2.012 -4.766 -3.789 -0.304 -0.264 -2.104 -2.073" />
    <path class="write-flat-pen" fill="#FFFFFF" stroke-width="1.6" __comx="297.408" __comy="532.064" __timestamp="0x178183df0dc" d="M293.338 535.613 l2.468 -3.635 3.999 -4.552 2.133 -2.624 -0.083 -0.08 -2.532 2.257 -4.151 4.516 -2.293 3.824" />
    <path class="write-flat-pen" fill="#FFFFFF" stroke-width="1.6" __comx="147.682" __comy="617.137" __timestamp="0x178183df32e" d="M140.304 614.632 l-0.025 -0.559 0.925 -0.39 2.369 -0.093 8.916 1.051 3.437 0.144 0.01 -0.072 -3.356 -0.752 -8.969 -1.364 -2.649 0.194 -1.536 0.866 0.296 1.087" />
    <path class="write-flat-pen" fill="#FFFFFF" stroke-width="1.6" __comx="150.526" __comy="617.137" __timestamp="0x178183df3c6" d="M146.95 617.532 l-0.504 0.495 5.078 0.531 3.07 0.032 0.011 -0.132 -3.023 -0.48 -5.057 -0.639 0.112 0.808" />
    <path class="write-flat-pen" fill="#FFFFFF" stroke-width="1.6" __comx="176.753" __comy="617.137" __timestamp="0x178183df4ee" d="M172.061 618.869 l0.47 -0.701 0.019 0.01 2.447 -0.828 3.697 -0.681 3.204 -0.506 -0.008 -0.124 -3.268 -0.081 -3.888 0.361 -2.61 1.095 -0.272 0.234 -0.242 1.035" />
    <path class="write-flat-pen" fill="#FFFFFF" stroke-width="1.6" __comx="196.85" __comy="617.137" __timestamp="0x178183df71c" d="M188.627 612.545 l-0.337 -1.874 0.039 -0.097 1.102 -1.731 2.297 -2.1 2.816 -1.632 2.165 -0.554 1.724 0.126 1.406 0.728 1.158 1.631 0.626 2.277 -0.105 2.374 -1.09 3.425 -2.165 4.028 -3.061 3.88 -6.682 6.344 -0.533 1.194 0.48 1.009 1.091 0.326 10.741 -2.343 0.835 -0.1 1.749 -0.109 3.352 -0.089 0.018 -0.293 -3.336 -0.497 -1.811 -0.17 -0.975 0.017 -10.515 2.025 -0.74 -0.199 0.48 1.009 0.38 -0.94 6.454 -6.29 3.173 -4.056 2.262 -4.242 1.162 -3.706 0.115 -2.743 -0.743 -2.684 -1.473 -2.057 -1.909 -0.977 -2.184 -0.146 -2.518 0.678 -3.035 1.844 -2.413 2.374 -1.091 2.05 -0.086 0.426 0.702 1.99" />
    <path class="write-flat-pen" fill="#FFFFFF" stroke-width="1.6" __comx="377.565" __comy="317.031" __timestamp="0x178183e12c8" d="M381.878 324.843 l-1.392 0.842 0.084 -0.027 -0.455 -0.556 -1.128 -5.896 -0.488 -6.157 0 0 0.603 -3.873 0 0 -0.975 -0.398 -3.923 5.385 -1.636 3.196 0.536 1.447 5.854 0.004 0.383 -0.071 3.222 -0.613 -0.007 -0.104 -3.276 -0.156 -0.344 -0.02 -4.968 -0.262 -0.076 -0.159 1.3 -2.664 3.814 -5.349 -0.975 -0.398 0 0 -0.589 4 0 0 0.563 6.337 1.401 6.151 0.963 0.775 0.331 -0.058 1.32 -1.185" />
    <path class="write-flat-pen" fill="#FFFFFF" stroke-width="1.6" __comx="393.994" __comy="316.519" __timestamp="0x178183e13df" d="M388.69 315.572 l0.739 0.46 0.204 0.194 4.147 4.315 2.345 1.457 3.143 1.078 0.029 -0.065 -2.825 -1.639 -2.134 -1.513 -4.255 -4.122 -0.33 -0.258 -0.961 -0.18" />
    <path class="write-flat-pen" fill="#FFFFFF" stroke-width="1.6" __comx="394.399" __comy="318.39" __timestamp="0x178183e1471" d="M392.141 323.401 l0.499 -2.457 2.72 -4.79 1.755 -2.728 -0.071 -0.053 -2.147 2.473 -2.94 4.856 -0.276 2.629" />
    <path class="write-flat-pen" fill="#FFFFFF" stroke-width="1.6" __comx="426.647" __comy="337.445" __timestamp="0x178183e4fad" d="M419.967 342.619 l1.222 0.775 0.488 0.051 8.415 -0.392 3.235 -0.315 -0.005 -0.118 -3.249 -0.06 -8.384 0.254 -0.342 -0.011 -1.268 -0.419" />
    <path class="write-flat-pen" fill="#FFFFFF" stroke-width="1.6" __comx="452.559" __comy="337.445" __timestamp="0x178183e51b6" d="M443.32 335.9 l-0.141 -1.008 0.837 -1.286 1.615 -1.094 1.995 -0.473 2.134 0.24 2.026 1.027 1.117 1.422 0.605 2.364 -0.375 2.607 -1.316 3.177 -2.764 4.186 -5.831 5.94 0 0 0.498 1.091 13.748 -0.841 0.893 0.013 0.858 -0.012 3.35 -0.042 0.01 -0.124 -3.296 -0.6 -0.842 -0.155 -0.955 -0.149 -13.835 0.623 0.498 1.091 0 0 5.804 -6.116 2.856 -4.383 1.381 -3.417 0.378 -2.956 -0.762 -2.752 -1.396 -1.735 -2.377 -1.186 -2.472 -0.251 -2.302 0.605 -1.824 1.372 -0.896 1.72 0.383 1.196" />
    <path class="write-flat-pen" fill="#FFFFFF" stroke-width="1.6" __comx="510.653" __comy="337.445" __timestamp="0x178183e5479" d="M507.04 345.043 l-0.161 0.29 0.15 0.183 0.161 0.025 2.134 -0.317 0.466 -0.188 2.152 -1.415 1.579 -2.078 0.365 -1.868 -0.722 -1.158 -1.794 -0.483 -2.465 0.403 -3.029 1.532 -2.576 2.305 -1.731 2.681 -0.799 2.962 0.302 2.227 1.033 1.562 1.9 1.17 2.693 0.47 3.96 -0.48 5.749 -2.024 0.626 -0.311 0.569 -0.33 2.933 -1.701 -0.053 -0.116 -3.21 1.092 -0.609 0.205 -0.609 0.203 -5.683 1.666 -3.636 0.414 -2.242 -0.386 -1.431 -0.869 -0.709 -1.053 -0.236 -1.657 0.66 -2.51 1.514 -2.369 2.316 -2.08 2.7 -1.372 2 -0.337 1.057 0.272 0.212 0.322 -0.194 1.122 -1.249 1.741 -1.843 1.359 -0.276 0.14 -1.888 0.589 -0.054 0.018 -0.162 0.149 0.129 0.29" />
    <path class="write-flat-pen" fill="#FFFFFF" stroke-width="1.6" __comx="528.955" __comy="337.445" __timestamp="0x178183e56a8" d="M523.467 319.829 l3.146 -0.984 4.764 -0.875 3.194 -0.577 -0.008 -0.065 -3.249 0.195 -4.867 0.683 -3.105 1.276" />
    <path class="write-flat-pen" fill="#FFFFFF" stroke-width="1.6" __comx="553.399" __comy="313.818" __timestamp="0x178183e5930" d="M553.971 321.748 l-0.144 1.963 0.508 -0.016 0.02 -0.036 0.096 -3.911 -0.003 -0.742 0 0 -0.765 -12.844 0 0 -0.55 -0.937 0 0 -0.814 -0.068 -5.993 7.219 -0.293 1.517 1.959 0.811 8.864 -0.31 0.5 -0.042 3.41 -0.28 0.001 -0.096 -3.401 -0.37 -0.511 -0.056 -8.643 -0.028 -0.895 -0.34 0.035 -0.333 5.735 -7.061 -0.814 -0.068 0 0 0.415 0.742 0 0 0.852 12.581 0 0 0.024 0.721 0.24 3.915 0.024 0.043 0.508 -0.016 -0.182 -1.96" />
    <path class="write-flat-pen" fill="#FFFFFF" stroke-width="1.6" __comx="571.252" __comy="312.208" __timestamp="0x178183e5a6e" d="M566.085 310.546 l1.394 2.802 0.346 0.519 2.813 3.668 2.708 2.04 3.046 1.048 0.025 -0.054 -2.695 -1.61 -2.484 -2.024 -2.804 -3.517 -0.334 -0.461 -1.678 -2.603" />
    <path class="write-flat-pen" fill="#FFFFFF" stroke-width="1.6" __comx="572.088" __comy="311.955" __timestamp="0x178183e5b01" d="M567.261 317.653 l0.741 -1.925 0.29 -0.4 6.777 -7.033 2.245 -2.441 -0.069 -0.073 -2.567 2.116 -6.987 6.943 -0.36 0.573 -0.472 2.12" />
    <path class="write-flat-pen" fill="#FFFFFF" stroke-width="1.6" __comx="481.33" __comy="345.809" __timestamp="0x178183e6fb3" d="M475.098 347.024 l0.227 -0.091 0.064 -0.034 0.043 -0.015 0.087 -0.026 0.153 -0.039 0.203 -0.048 0.288 -0.058 0.351 -0.067 0.41 -0.074 0.476 -0.087 0.55 -0.122 0.537 -0.105 0.599 -0.109 0.673 -0.144 0.651 -0.122 0.642 -0.115 0.563 -0.099 0.541 -0.096 0.518 -0.094 0.49 -0.092 0.455 -0.083 0.397 -0.068 0.371 -0.067 3.327 -0.598 -0.009 -0.069 -3.372 0.23 -0.38 0.026 -0.409 0.044 -0.467 0.062 -0.497 0.077 -0.519 0.083 -0.543 0.09 -0.565 0.097 -0.646 0.116 -0.661 0.128 -0.671 0.15 -0.593 0.116 -0.547 0.116 -0.546 0.134 -0.465 0.099 -0.411 0.09 -0.355 0.084 -0.297 0.078 -0.214 0.067 -0.167 0.059 -0.11 0.047 -0.078 0.04 -0.053 0.039 -0.194 0.084" />
    <path class="write-flat-pen" fill="#FFFFFF" stroke-width="1.6" __comx="482.627" __comy="342.344" __timestamp="0x178183e7074" d="M479.501 340.087 l1.155 4.042 3.255 6.556 1.766 2.825 0.075 -0.041 -1.397 -3.01 -3.038 -6.588 -1.29 -3.945" />
    <path class="write-flat-pen" fill="#FFFFFF" stroke-width="1.6" __comx="360.797" __comy="430.115" __timestamp="0x178183e7cb4" d="M354.34 436.579 l3.225 0.306 0.367 -0.03 5.901 -0.171 3.422 -0.213 0 -0.019 -3.428 -0.246 -5.93 0.18 -0.349 0.055 -3.203 0.021" />
    <path class="write-flat-pen" fill="#FFFFFF" stroke-width="1.6" __comx="363.448" __comy="430.115" __timestamp="0x178183e7d81" d="M361.095 428.89 l-0.083 1.983 3.328 9.003 1.5 2.993 0.045 -0.019 -1.144 -3.133 -3.196 -8.939 -0.101 -1.89" />
    <path class="write-flat-pen" fill="#FFFFFF" stroke-width="1.6" __comx="384.499" __comy="430.115" __timestamp="0x178183e7fa4" d="M379.971 423.756 l-1.1 0.03 -1.07 1.456 -0.589 3.369 0.607 7.63 0.871 3.855 1.038 1 1.606 -0.362 3.599 -3.169 2.054 -1.04 1.946 -0.164 1.137 0.58 0.641 0.977 0.123 1.443 -0.825 2.086 -1.715 1.902 -1.839 0.98 -2.116 0.205 -1.635 -0.655 -0.932 -1.031 -0.525 -2.015 0.008 -2.679 -0.09 -0.011 -0.672 2.716 0.341 2.452 1.254 1.442 2.101 0.84 2.571 -0.269 2.16 -1.183 1.924 -2.183 0.943 -2.463 -0.178 -1.892 -0.907 -1.37 -1.585 -0.812 -2.388 0.192 -2.329 1.165 -3.515 3.08 -0.872 0.201 -0.478 -0.446 -0.839 -3.512 -0.704 -7.462 0.457 -3.137 0.736 -1.165 0.819 -0.104" />
    <path class="write-flat-pen" fill="#FFFFFF" stroke-width="1.6" __comx="397.372" __comy="430.115" __timestamp="0x178183e8145" d="M392.874 415.561 l0.841 -3.22 0.057 -0.065 1.131 -0.963 0.587 -0.039 0.376 0.45 0.215 3.01 0.877 1.494 2.639 0.289 2.747 -0.71 -0.012 -0.113 -2.715 -0.124 -1.952 -0.393 -0.481 -0.794 -0.288 -3.107 -1.01 -1.069 -1.399 0.201 -1.342 1.305 -0.2 0.285 -0.543 3.466" />
  </g>
</svg>
