<svg class="write-page" width="1630px" height="840px" xmlns="http://www.w3.org/2000/svg" xmlns:xlink="http://www.w3.org/1999/xlink">
  <g class="write-content write-v3" width="1630" height="840" xruling="30" yruling="30" marginLeft="30" papercolor="#1B1C1C" rulecolor="#3A00F9FF">
    <g class="ruleline write-std-ruling write-scale-down" fill="none" stroke="#00F9FF" stroke-opacity="0.227" stroke-width="1" shape-rendering="crispEdges" vector-effect="non-scaling-stroke">
      <rect class="pagerect" fill="#1B1C1C" stroke="none" x="0" y="0" width="1630" height="840" />
      <path class="yrule_1" d="M0 30 l1630 0" />
      <path d="M0 60 l1630 0" />
      <path d="M0 90 l1630 0" />
      <path d="M0 120 l1630 0" />
      <path d="M0 150 l1630 0" />
      <path d="M0 180 l1630 0" />
      <path d="M0 210 l1630 0" />
      <path d="M0 240 l1630 0" />
      <path d="M0 270 l1630 0" />
      <path d="M0 300 l1630 0" />
      <path d="M0 330 l1630 0" />
      <path d="M0 360 l1630 0" />
      <path d="M0 390 l1630 0" />
      <path d="M0 420 l1630 0" />
      <path d="M0 450 l1630 0" />
      <path d="M0 480 l1630 0" />
      <path d="M0 510 l1630 0" />
      <path d="M0 540 l1630 0" />
      <path d="M0 570 l1630 0" />
      <path d="M0 600 l1630 0" />
      <path d="M0 630 l1630 0" />
      <path d="M0 660 l1630 0" />
      <path d="M0 690 l1630 0" />
      <path d="M0 720 l1630 0" />
      <path d="M0 750 l1630 0" />
      <path d="M0 780 l1630 0" />
      <path d="M0 810 l1630 0" />
      <path class="xrule_1" d="M30 0 l0 840" />
      <path d="M60 0 l0 840" />
      <path d="M90 0 l0 840" />
      <path d="M120 0 l0 840" />
      <path d="M150 0 l0 840" />
      <path d="M180 0 l0 840" />
      <path d="M210 0 l0 840" />
      <path d="M240 0 l0 840" />
      <path d="M270 0 l0 840" />
      <path d="M300 0 l0 840" />
      <path d="M330 0 l0 840" />
      <path d="M360 0 l0 840" />
      <path d="M390 0 l0 840" />
      <path d="M420 0 l0 840" />
      <path d="M450 0 l0 840" />
      <path d="M480 0 l0 840" />
      <path d="M510 0 l0 840" />
      <path d="M540 0 l0 840" />
      <path d="M570 0 l0 840" />
      <path d="M600 0 l0 840" />
      <path d="M630 0 l0 840" />
      <path d="M660 0 l0 840" />
      <path d="M690 0 l0 840" />
      <path d="M720 0 l0 840" />
      <path d="M750 0 l0 840" />
      <path d="M780 0 l0 840" />
      <path d="M810 0 l0 840" />
      <path d="M840 0 l0 840" />
      <path d="M870 0 l0 840" />
      <path d="M900 0 l0 840" />
      <path d="M930 0 l0 840" />
      <path d="M960 0 l0 840" />
      <path d="M990 0 l0 840" />
      <path d="M1020 0 l0 840" />
      <path d="M1050 0 l0 840" />
      <path d="M1080 0 l0 840" />
      <path d="M1110 0 l0 840" />
      <path d="M1140 0 l0 840" />
      <path d="M1170 0 l0 840" />
      <path d="M1200 0 l0 840" />
      <path d="M1230 0 l0 840" />
      <path d="M1260 0 l0 840" />
      <path d="M1290 0 l0 840" />
      <path d="M1320 0 l0 840" />
      <path d="M1350 0 l0 840" />
      <path d="M1380 0 l0 840" />
      <path d="M1410 0 l0 840" />
      <path d="M1440 0 l0 840" />
      <path d="M1470 0 l0 840" />
      <path d="M1500 0 l0 840" />
      <path d="M1530 0 l0 840" />
      <path d="M1560 0 l0 840" />
      <path d="M1590 0 l0 840" />
      <path d="M1620 0 l0 840" />
      <path class="leftmargin" stroke="#FF0000" d="M30 0 l0 840" />
    </g>
    <path class="write-stroke-pen" fill="none" stroke="#FFFFFF" stroke-width="1.2" stroke-linecap="round" stroke-linejoin="round" __comx="68.816" __comy="37.83" __timestamp="0x17a86c67475" d="M66.749 34.022 l0 -0.035 -0.002 -0.041 -0.004 -0.056 -0.004 -0.027 -0.006 -0.029 -0.008 -0.031 -0.011 -0.032 -0.016 -0.039 -0.016 -0.034 -0.022 -0.036 -0.029 -0.041 -0.066 -0.067 -0.031 -0.03 -0.037 -0.032 -0.088 -0.06 -0.099 -0.052 -0.052 -0.024 -0.183 -0.053 -0.131 -0.025 -0.194 -0.003 -0.194 0.007 -0.261 0.049 -0.23 0.05 -0.326 0.121 -0.297 0.14 -0.336 0.193 -0.317 0.212 -0.353 0.269 -0.343 0.299 -0.38 0.391 -0.37 0.45 -0.367 0.504 -0.355 0.576 -0.331 0.638 -0.296 0.675 -0.248 0.753 -0.253 0.862 -0.194 0.905 -0.159 0.995 -0.12 1.05 -0.083 1.074 -0.05 1.128 -0.008 1.241 0.097 1.213 0.17 1.263 0.253 1.239 0.289 1.171 0.358 1.211 0.391 1.152 0.437 1.132 0.473 1.06 0.514 0.992 0.503 0.84 0.506 0.712 0.497 0.609 0.445 0.452 0.506 0.423 0.531 0.347 0.568 0.261 0.673 0.211 0.696 0.13 0.812 -0.012 0.846 -0.142 0.82 -0.261 0.883 -0.426 0.845 -0.527 0.814 -0.61 0.785 -0.682 0.711 -0.711 0.642 -0.739 0.597 -0.762 0.541 -0.782 0.459 -0.776 0.373 -0.731 0.314 -0.736 0.215 -0.682 0.154 -0.646 0.109 -0.658 0.054 -0.645 -0.032 -0.633 -0.088 -0.579 -0.131 -0.537 -0.185 -0.488 -0.25 -0.456 -0.31 -0.411 -0.396 -0.379 -0.445 -0.298 -0.579 -0.273 -0.586 -0.201 -0.634 -0.148 -0.625 -0.094 -0.564 -0.036 -0.696 0.06 -0.605 0.114 -0.615 0.192 -0.601 0.26 -0.566 0.35 -0.547 0.464 -0.494 0.547 -0.439 0.662 -0.352 0.697 -0.308 0.755 -0.23 0.841 -0.178 0.888 -0.14 0.898 -0.09 0.931 -0.035 0.851 0.003 0.83 0.097 0.838 0.133 0.766 0.147 0.661 0.159 0.57 0.194 0.527 0.176 0.384 0.198 0.353 0.224 0.311 0.227 0.235 0.27 0.21 0.334 0.191 0.365 0.118 1.395 0.45" />
    <path class="write-stroke-pen" fill="none" stroke="#FFFFFF" stroke-width="1.2" stroke-linecap="round" stroke-linejoin="round" __comx="69.824" __comy="29.771" __timestamp="0x17a86c6766e" d="M72.245 28.476 l-0.056 -0.1 -0.084 -0.133 -0.144 -0.231 -0.149 -0.222 -0.157 -0.224 -0.171 -0.25 -0.191 -0.276 -0.191 -0.281 -0.199 -0.285 -0.208 -0.292 -0.24 -0.318 -0.242 -0.303 -0.276 -0.329 -0.291 -0.323 -0.285 -0.289 -0.332 -0.306 -0.349 -0.282 -0.338 -0.222 -0.4 -0.213 -0.464 -0.2 -0.498 -0.159 -0.642 -0.144 -0.71 -0.08 -0.774 0.029 -0.817 0.114 -0.795 0.211 -0.828 0.317 -0.406 0.187 -0.539 0.302 -0.58 0.386 -0.676 0.528 -0.699 0.624 -0.807 0.806 -0.81 0.944 -0.912 1.171 -0.879 1.257 -0.847 1.354 -0.798 1.45 -0.78 1.564 -0.717 1.655 -0.651 1.704 -0.578 1.75 -0.503 1.801 -0.412 1.851 -0.344 1.879 -0.269 1.875 -0.149 1.872 -0.104 1.908 -0.04 1.906 0.03 1.907 0.222 1.836 0.282 1.831 0.363 1.785 0.434 1.708 0.505 1.636 0.571 1.539 0.623 1.44 0.664 1.32 0.712 1.23 0.763 1.103 0.944 1.124 1.896 1.753 1.659 1.085 1.459 0.637 1.081 0.222 1.211 0.1 1.282 -0.128 1.361 -0.307 1.467 -0.492 1.47 -0.641 1.54 -0.833 1.489 -0.982 1.506 -1.14 1.486 -1.291 1.469 -1.41 1.484 -1.527 1.422 -1.566 1.398 -1.644 1.288 -1.627 1.215 -1.653 1.137 -1.653 1.056 -1.699 0.954 -1.696 0.839 -1.691 0.751 -1.751 0.589 -1.683 0.484 -1.697 0.364 -1.645 0.182 -1.652 0.119 -1.641 0.053 -1.71 -0.092 -1.746 -0.209 -1.688 -0.386 -1.772 -0.527 -1.743 -0.634 -1.66 -0.783 -1.654 -0.882 -1.549 -0.929 -1.391 -1.037 -1.334 -1.064 -1.201 -1.081 -1.06 -1.133 -0.953 -1.036 -0.777 -0.942 -0.643 -0.859 -0.516 -0.768 -0.412 -0.632 -0.281 -0.666 -0.209 -0.636 -0.136 -1.535 -0.327" />
  </g>
</svg>
