<svg class="write-page" width="1010px" height="1628px" xmlns="http://www.w3.org/2000/svg" xmlns:xlink="http://www.w3.org/1999/xlink">
  <g class="write-content write-v3" width="1010" height="1628" xruling="30" yruling="30" marginLeft="30" papercolor="#1B1C1C" rulecolor="#3A00F9FF">
    <g class="ruleline write-std-ruling write-scale-down" fill="none" stroke="#00F9FF" stroke-opacity="0.227" stroke-width="1" shape-rendering="crispEdges" vector-effect="non-scaling-stroke">
      <rect class="pagerect" fill="#1B1C1C" stroke="none" x="0" y="0" width="1010" height="1628" />
      <path class="yrule_1" d="M0 30 l1010 0" />
      <path d="M0 60 l1010 0" />
      <path d="M0 90 l1010 0" />
      <path d="M0 120 l1010 0" />
      <path d="M0 150 l1010 0" />
      <path d="M0 180 l1010 0" />
      <path d="M0 210 l1010 0" />
      <path d="M0 240 l1010 0" />
      <path d="M0 270 l1010 0" />
      <path d="M0 300 l1010 0" />
      <path d="M0 330 l1010 0" />
      <path d="M0 360 l1010 0" />
      <path d="M0 390 l1010 0" />
      <path d="M0 420 l1010 0" />
      <path d="M0 450 l1010 0" />
      <path d="M0 480 l1010 0" />
      <path d="M0 510 l1010 0" />
      <path d="M0 540 l1010 0" />
      <path d="M0 570 l1010 0" />
      <path d="M0 600 l1010 0" />
      <path d="M0 630 l1010 0" />
      <path d="M0 660 l1010 0" />
      <path d="M0 690 l1010 0" />
      <path d="M0 720 l1010 0" />
      <path d="M0 750 l1010 0" />
      <path d="M0 780 l1010 0" />
      <path d="M0 810 l1010 0" />
      <path d="M0 840 l1010 0" />
      <path d="M0 870 l1010 0" />
      <path d="M0 900 l1010 0" />
      <path d="M0 930 l1010 0" />
      <path d="M0 960 l1010 0" />
      <path d="M0 990 l1010 0" />
      <path d="M0 1020 l1010 0" />
      <path d="M0 1050 l1010 0" />
      <path d="M0 1080 l1010 0" />
      <path d="M0 1110 l1010 0" />
      <path d="M0 1140 l1010 0" />
      <path d="M0 1170 l1010 0" />
      <path d="M0 1200 l1010 0" />
      <path d="M0 1230 l1010 0" />
      <path d="M0 1260 l1010 0" />
      <path d="M0 1290 l1010 0" />
      <path d="M0 1320 l1010 0" />
      <path d="M0 1350 l1010 0" />
      <path d="M0 1380 l1010 0" />
      <path d="M0 1410 l1010 0" />
      <path d="M0 1440 l1010 0" />
      <path d="M0 1470 l1010 0" />
      <path d="M0 1500 l1010 0" />
      <path d="M0 1530 l1010 0" />
      <path d="M0 1560 l1010 0" />
      <path d="M0 1590 l1010 0" />
      <path d="M0 1620 l1010 0" />
      <path class="xrule_1" d="M30 0 l0 1628" />
      <path d="M60 0 l0 1628" />
      <path d="M90 0 l0 1628" />
      <path d="M120 0 l0 1628" />
      <path d="M150 0 l0 1628" />
      <path d="M180 0 l0 1628" />
      <path d="M210 0 l0 1628" />
      <path d="M240 0 l0 1628" />
      <path d="M270 0 l0 1628" />
      <path d="M300 0 l0 1628" />
      <path d="M330 0 l0 1628" />
      <path d="M360 0 l0 1628" />
      <path d="M390 0 l0 1628" />
      <path d="M420 0 l0 1628" />
      <path d="M450 0 l0 1628" />
      <path d="M480 0 l0 1628" />
      <path d="M510 0 l0 1628" />
      <path d="M540 0 l0 1628" />
      <path d="M570 0 l0 1628" />
      <path d="M600 0 l0 1628" />
      <path d="M630 0 l0 1628" />
      <path d="M660 0 l0 1628" />
      <path d="M690 0 l0 1628" />
      <path d="M720 0 l0 1628" />
      <path d="M750 0 l0 1628" />
      <path d="M780 0 l0 1628" />
      <path d="M810 0 l0 1628" />
      <path d="M840 0 l0 1628" />
      <path d="M870 0 l0 1628" />
      <path d="M900 0 l0 1628" />
      <path d="M930 0 l0 1628" />
      <path d="M960 0 l0 1628" />
      <path d="M990 0 l0 1628" />
      <path class="leftmargin" stroke="#FF0000" d="M30 0 l0 1628" />
    </g>
    <path class="write-flat-pen" fill="#FFFFFF" stroke-width="1.6" __comx="85.736" __comy="46.708" __timestamp="0x179ae8e9508" d="M85.132 37.314 l-0.077 -0.331 -0.011 -0.082 -0.002 -0.011 -0.003 -0.021 -0.004 -0.017 -0.002 -0.013 -0.003 -0.016 -0.009 -0.039 -0.017 -0.054 -0.067 -0.118 -0.206 -0.112 -0.296 0.044 -0.168 0.248 -0.055 0.152 -0.037 0.146 -0.035 0.173 -0.027 0.254 -0.01 0.33 0.009 0.451 0.068 0.585 0.076 0.669 0.148 0.848 0.143 1.031 0.203 1.17 0.152 1.267 0.133 1.374 0.184 1.414 0.138 1.553 0.119 1.587 0.093 1.615 0.077 1.576 0.067 1.497 0.035 1.353 0.02 1.299 0.013 1.135 0.011 0.942 0.011 0.855 0.011 0.667 0.011 0.548 0.011 0.393 0.007 0.278 0.004 0.081 0.004 0.053 0.038 0.187 0.061 0.133 0.094 0.078 0.318 0.59 0.174 0.035 0.521 -0.422 0.136 -0.133 0.076 -0.246 0.043 -0.207 0.005 -0.054 0.005 -0.081 0.014 -0.287 0.009 -0.403 0.009 -0.549 0.007 -0.668 0.004 -0.858 0 -0.946 -0.007 -1.142 -0.019 -1.312 -0.035 -1.378 -0.07 -1.516 -0.08 -1.586 -0.098 -1.636 -0.128 -1.613 -0.154 -1.597 -0.203 -1.422 -0.158 -1.369 -0.194 -1.325 -0.249 -1.185 -0.196 -1.034 -0.206 -0.835 -0.134 -0.639 -0.133 -0.537 -0.073 -0.382 -0.055 -0.285 -0.038 -0.201 -0.027 -0.142 -0.028 -0.082 -0.031 0.02 -0.118 0.152 -0.276 0.04 -0.163 -0.094 -0.05 -0.092 0.002 -0.018 0.002 -0.011 0.003 0 0.004 0.004 0.002 0.001 0.007 0.015 0.003 0.005 0.027 0.065 0.093 0.328" />
    <path class="write-flat-pen" fill="#FFFFFF" stroke-width="1.6" __comx="84.492" __comy="46.708" __timestamp="0x179ae8e95fc" d="M69.465 37.631 l-0.414 -0.219 -0.08 -0.075 -0.063 -0.04 -0.111 -0.068 -0.025 -0.02 -0.036 -0.028 -0.042 -0.031 -0.003 -0.004 -0.004 -0.007 0.036 0.019 0.065 0.035 0.125 0.238 -0.091 0.364 -0.126 0.118 0.102 -0.007 0.278 -0.03 0.504 -0.05 1.583 -0.117 1.747 -0.108 1.808 -0.101 1.608 -0.166 1.503 -0.11 1.612 -0.18 1.603 -0.138 1.658 -0.209 1.525 -0.145 1.713 -0.222 1.687 -0.234 1.606 -0.238 1.626 -0.255 1.491 -0.186 1.459 -0.297 1.377 -0.239 1.46 -0.346 1.427 -0.371 1.372 -0.324 1.884 -0.434 -0.022 -0.173 -1.932 0.052 -1.43 0.033 -1.482 0.143 -1.464 0.135 -1.402 0.11 -1.458 0.211 -1.479 0.134 -1.659 0.232 -1.6 0.23 -1.674 0.232 -1.679 0.218 -1.522 0.145 -1.651 0.209 -1.591 0.138 -1.603 0.181 -1.498 0.114 -1.597 0.173 -1.781 0.118 -1.773 0.148 -1.635 0.199 -0.572 0.117 -0.402 0.113 -0.318 0.15 -0.325 0.252 -0.127 0.48 0.172 0.345 0.197 0.168 0.08 0.047 0.044 0.022 0.021 0.01 0.046 0.019 0.063 0.027 0.069 0.028 0.117 0.036 0.001 -0.006 0.105 0.046 0.463 0.233" />
    <path class="write-flat-pen" fill="#FFFFFF" stroke-width="1.6" __comx="104.221" __comy="46.708" __timestamp="0x179ae8e981c" d="M99.454 52.925 l-0.243 -0.011 -0.022 -0.007 -0.027 -0.008 -0.023 -0.006 -0.025 -0.007 -0.018 -0.005 -0.009 -0.003 -0.009 -0.003 -0.02 -0.006 -0.01 -0.003 -0.012 -0.007 -0.012 -0.011 -0.001 -0.008 0.003 -0.007 0.023 -0.004 0.005 -0.031 0.106 0.062 0.095 0.198 -0.042 0.171 -0.018 0.057 0.04 0.004 0.132 -0.039 0.198 -0.081 0.168 -0.055 0.271 -0.084 0.319 -0.125 0.302 -0.101 0.479 -0.19 0.413 -0.175 0.447 -0.197 0.527 -0.239 0.497 -0.243 0.564 -0.291 0.584 -0.322 0.544 -0.33 0.562 -0.36 0.519 -0.364 0.498 -0.354 0.475 -0.347 0.478 -0.357 0.418 -0.331 0.371 -0.316 0.317 -0.282 0.185 -0.182 0.261 -0.253 0.067 -0.069 0.084 -0.088 0.17 -0.197 0.045 -0.054 0.069 -0.088 0.141 -0.232 0.081 -0.154 0.106 -0.372 0.022 -0.338 -0.071 -0.366 -0.218 -0.384 -0.369 -0.322 -0.489 -0.225 -0.614 -0.094 -0.643 -0.036 -0.771 0.093 -0.803 0.163 -0.842 0.237 -0.746 0.27 -0.865 0.38 -0.751 0.39 -0.758 0.471 -0.787 0.564 -0.716 0.596 -0.693 0.687 -0.628 0.737 -0.554 0.78 -0.445 0.78 -0.381 0.781 -0.283 0.748 -0.222 0.721 -0.183 0.7 -0.14 0.677 -0.107 0.688 -0.064 0.655 0.011 0.689 0.027 0.562 0.114 0.622 0.128 0.475 0.168 0.429 0.205 0.372 0.336 0.468 0.441 0.413 0.544 0.352 0.664 0.279 0.786 0.15 0.783 0.029 0.804 -0.075 0.887 -0.191 0.848 -0.27 0.838 -0.339 0.882 -0.414 0.829 -0.426 0.811 -0.471 0.833 -0.508 0.746 -0.497 0.688 -0.52 0.654 -0.535 0.59 -0.536 0.546 -0.57 1.467 -1.533 -0.029 -0.035 -1.792 1.136 -0.65 0.409 -0.66 0.371 -0.723 0.384 -0.732 0.395 -0.762 0.399 -0.846 0.44 -0.798 0.416 -0.794 0.379 -0.836 0.376 -0.756 0.298 -0.731 0.23 -0.734 0.158 -0.622 0.058 -0.576 -0.02 -0.526 -0.1 -0.404 -0.169 -0.326 -0.209 -0.241 -0.225 -0.203 -0.281 -0.119 -0.213 -0.106 -0.265 -0.093 -0.339 -0.087 -0.467 -0.023 -0.442 -0.011 -0.584 0.05 -0.532 0.093 -0.612 0.123 -0.605 0.164 -0.634 0.198 -0.648 0.242 -0.644 0.33 -0.681 0.385 -0.68 0.473 -0.673 0.546 -0.645 0.604 -0.604 0.627 -0.525 0.707 -0.509 0.67 -0.419 0.661 -0.345 0.779 -0.345 0.652 -0.238 0.743 -0.212 0.697 -0.145 0.593 -0.075 0.455 0.022 0.356 0.05 0.13 0.057 0.042 0.033 -0.009 -0.019 -0.005 -0.032 0 0.015 -0.025 0.093 0.005 -0.008 -0.076 0.127 -0.006 0.007 -0.025 0.03 -0.138 0.161 -0.055 0.058 -0.049 0.05 -0.25 0.243 -0.164 0.162 -0.28 0.25 -0.34 0.292 -0.383 0.304 -0.457 0.344 -0.462 0.342 -0.485 0.351 -0.49 0.351 -0.522 0.344 -0.504 0.316 -0.541 0.312 -0.532 0.292 -0.464 0.245 -0.499 0.25 -0.429 0.214 -0.388 0.193 -0.432 0.21 -0.301 0.134 -0.306 0.164 -0.254 0.123 -0.217 0.123 -0.195 0.143 -0.143 0.106 -0.125 0.119 -0.11 0.152 -0.071 0.243 0.119 0.276 0.125 0.075 0.104 0.026 0.077 0.012 0.046 0.002 0.042 -0.002 0.051 -0.007 0.031 -0.007 0.01 -0.003 0.02 -0.006 0.009 -0.003 0.009 -0.003 0.018 -0.005 0.025 -0.007 0.023 -0.006 0.027 -0.008 0.022 -0.007 0.243 -0.011" />
    <path class="write-flat-pen" fill="#FFFFFF" stroke-width="1.6" __comx="121.131" __comy="46.708" __timestamp="0x179ae8e99de" d="M118.533 46.816 l-0.224 -0.236 -0.005 -0.044 -0.023 -0.036 0.002 -0.006 0.003 -0.005 0.015 0.006 -0.007 -0.07 -0.009 -0.033 -0.015 -0.051 -0.034 -0.116 -0.014 -0.04 -0.01 -0.037 -0.045 -0.137 -0.023 -0.058 -0.046 -0.097 -0.106 -0.169 -0.028 -0.048 -0.046 -0.074 -0.048 -0.075 -0.052 -0.078 -0.052 -0.072 -0.073 -0.094 -0.073 -0.083 -0.059 -0.061 -0.061 -0.059 -0.066 -0.059 -0.081 -0.065 -0.108 -0.073 -0.101 -0.058 -0.117 -0.055 -0.155 -0.054 -0.202 -0.034 -0.136 -0.01 -0.212 0.029 -0.177 0.048 -0.223 0.136 -0.169 0.137 -0.147 0.276 -0.063 0.138 -0.04 0.302 -0.005 0.169 0.051 0.282 0.038 0.15 0.135 0.278 0.141 0.213 0.181 0.213 0.221 0.206 0.279 0.207 0.259 0.162 0.345 0.17 0.415 0.167 0.459 0.147 0.501 0.129 0.542 0.112 0.519 0.09 0.522 0.077 0.522 0.073 0.497 0.073 0.497 0.076 0.426 0.074 0.505 0.118 0.425 0.097 0.484 0.142 0.357 0.106 0.477 0.187 0.34 0.15 0.307 0.15 0.298 0.169 0.203 0.142 0.338 0.258 0.213 0.207 0.201 0.235 0.173 0.244 0.144 0.253 0.136 0.299 0.112 0.306 0.079 0.319 0.027 0.38 -0.023 0.38 -0.075 0.42 -0.142 0.459 -0.217 0.488 -0.281 0.496 -0.348 0.494 -0.402 0.477 -0.46 0.472 -0.548 0.476 -0.624 0.46 -0.636 0.399 -0.7 0.371 -0.658 0.264 -0.729 0.236 -0.705 0.177 -0.69 0.125 -0.635 0.085 -0.483 0.033 -0.538 -0.033 -0.434 -0.064 -0.41 -0.101 -0.363 -0.117 -0.286 -0.124 -0.197 -0.113 -0.181 -0.13 -0.143 -0.129 -0.148 -0.166 -0.11 -0.149 -0.104 -0.183 -0.071 -0.159 -0.052 -0.257 -0.018 -0.252 0.022 -0.311 0.071 -0.377 0.126 -0.446 0.162 -0.476 0.204 -0.519 0.28 -0.645 0.831 -1.894 -0.051 -0.033 -1.361 1.557 -0.475 0.543 -0.374 0.473 -0.328 0.475 -0.277 0.511 -0.196 0.511 -0.111 0.508 -0.022 0.476 0.058 0.544 0.149 0.417 0.183 0.365 0.211 0.306 0.258 0.3 0.277 0.255 0.322 0.232 0.346 0.199 0.441 0.19 0.49 0.157 0.539 0.132 0.577 0.084 0.71 0.043 0.639 -0.045 0.722 -0.099 0.779 -0.144 0.809 -0.207 0.831 -0.275 0.784 -0.323 0.821 -0.446 0.729 -0.469 0.715 -0.541 0.636 -0.569 0.534 -0.566 0.471 -0.579 0.417 -0.617 0.341 -0.631 0.268 -0.641 0.18 -0.634 0.09 -0.596 0.019 -0.56 -0.058 -0.595 -0.139 -0.504 -0.163 -0.42 -0.191 -0.401 -0.214 -0.364 -0.253 -0.348 -0.286 -0.328 -0.319 -0.305 -0.426 -0.322 -0.28 -0.194 -0.39 -0.221 -0.369 -0.18 -0.391 -0.173 -0.558 -0.22 -0.415 -0.123 -0.526 -0.155 -0.463 -0.106 -0.54 -0.127 -0.479 -0.083 -0.515 -0.079 -0.506 -0.074 -0.522 -0.073 -0.5 -0.074 -0.48 -0.083 -0.489 -0.101 -0.432 -0.11 -0.374 -0.118 -0.322 -0.127 -0.239 -0.115 -0.156 -0.095 -0.176 -0.127 -0.11 -0.098 -0.081 -0.09 -0.05 -0.071 -0.038 -0.068 0.005 0.025 -0.025 -0.103 -0.003 0.036 -0.002 -0.036 -0.035 0.074 -0.003 -0.011 -0.104 0.083 -0.007 -0.004 -0.078 0.019 0.002 -0.007 -0.05 -0.005 0.043 -0.002 -0.007 -0.007 0.02 0.004 0.022 0.007 0.037 0.018 0.025 0.014 0.032 0.021 0.033 0.024 0.032 0.024 0.043 0.036 0.05 0.047 0.041 0.041 0.053 0.056 0.053 0.056 0.05 0.054 0.04 0.044 0.1 0.099 0.015 0.011 0.021 0.026 0.082 0.12 0.033 0.046 0.024 0.03 0.076 0.098 0.034 0.037 0.012 0.011 0.079 0.102 0.045 0.049 0.024 0.021 0.021 0.017 0.002 -0.009 0.048 0.041 0.293 0.281" />
    <path class="write-flat-pen" fill="#FFFFFF" stroke-width="1.6" __comx="135.971" __comy="46.708" __timestamp="0x179ae8e9ab3" d="M131.872 29.296 l-0.335 0.547 -0.09 0.205 -0.09 0.271 -0.08 0.353 -0.065 0.388 -0.061 0.481 -0.044 0.64 -0.012 0.753 0.079 0.956 0.086 1.07 0.192 1.229 0.222 1.327 0.267 1.407 0.328 1.509 0.351 1.522 0.384 1.581 0.376 1.56 0.389 1.56 0.379 1.549 0.355 1.413 0.353 1.355 0.335 1.197 0.32 1.041 0.308 0.95 0.3 0.815 0.29 0.72 0.269 0.59 0.289 0.551 0.299 0.499 0.315 0.444 0.321 0.381 0.302 0.313 0.281 0.23 0.215 0.144 0.081 0.044 1.982 1.053 0.085 -0.097 -1.311 -1.822 -0.046 -0.068 -0.135 -0.173 -0.172 -0.221 -0.205 -0.281 -0.24 -0.34 -0.236 -0.377 -0.237 -0.433 -0.241 -0.489 -0.23 -0.53 -0.263 -0.674 -0.279 -0.771 -0.294 -0.913 -0.311 -1.012 -0.327 -1.166 -0.35 -1.335 -0.356 -1.401 -0.383 -1.547 -0.394 -1.557 -0.383 -1.555 -0.394 -1.573 -0.362 -1.503 -0.342 -1.48 -0.287 -1.372 -0.25 -1.302 -0.22 -1.17 -0.122 -1.024 -0.12 -0.897 -0.03 -0.665 -0.002 -0.581 0.019 -0.432 0.027 -0.342 0.035 -0.281 0.037 -0.185 0.02 -0.087 0.273 -0.48" />
    <path class="write-flat-pen" fill="#FFFFFF" stroke-width="1.6" __comx="137.252" __comy="46.708" __timestamp="0x179ae8e9b71" d="M125.086 46.707 l0.588 0.009 0.099 0.024 0.313 0.091 0.506 0.095 0.601 0.102 0.696 0.091 0.866 0.076 0.936 0.056 1.104 0.021 1.177 -0.02 1.219 -0.147 1.2 -0.184 1.24 -0.227 1.279 -0.281 1.299 -0.311 1.33 -0.345 1.316 -0.361 1.307 -0.374 1.294 -0.391 1.341 -0.417 1.395 -0.453 1.348 -0.5 1.878 -0.68 -0.058 -0.246 -1.985 0.229 -1.435 0.154 -1.464 0.249 -1.391 0.314 -1.314 0.34 -1.307 0.348 -1.307 0.347 -1.31 0.338 -1.273 0.307 -1.24 0.278 -1.195 0.228 -1.156 0.19 -1.122 0.151 -1.081 0.04 -1.056 0.008 -0.896 -0.022 -0.828 -0.035 -0.653 -0.048 -0.576 -0.061 -0.454 -0.051 -0.346 -0.065 -0.238 -0.012 -0.649 0.009" />
  </g>
</svg>
