<svg class="write-page" width="1010px" height="1628px" xmlns="http://www.w3.org/2000/svg" xmlns:xlink="http://www.w3.org/1999/xlink">
  <g class="write-content write-v3" width="1010" height="1628" xruling="30" yruling="30" marginLeft="30" papercolor="#1B1C1C" rulecolor="#3A00F9FF">
    <g class="ruleline write-std-ruling write-scale-down" fill="none" stroke="#00F9FF" stroke-opacity="0.227" stroke-width="1" shape-rendering="crispEdges" vector-effect="non-scaling-stroke">
      <rect class="pagerect" fill="#1B1C1C" stroke="none" x="0" y="0" width="1010" height="1628" />
      <path class="yrule_1" d="M0 30 l1010 0" />
      <path d="M0 60 l1010 0" />
      <path d="M0 90 l1010 0" />
      <path d="M0 120 l1010 0" />
      <path d="M0 150 l1010 0" />
      <path d="M0 180 l1010 0" />
      <path d="M0 210 l1010 0" />
      <path d="M0 240 l1010 0" />
      <path d="M0 270 l1010 0" />
      <path d="M0 300 l1010 0" />
      <path d="M0 330 l1010 0" />
      <path d="M0 360 l1010 0" />
      <path d="M0 390 l1010 0" />
      <path d="M0 420 l1010 0" />
      <path d="M0 450 l1010 0" />
      <path d="M0 480 l1010 0" />
      <path d="M0 510 l1010 0" />
      <path d="M0 540 l1010 0" />
      <path d="M0 570 l1010 0" />
      <path d="M0 600 l1010 0" />
      <path d="M0 630 l1010 0" />
      <path d="M0 660 l1010 0" />
      <path d="M0 690 l1010 0" />
      <path d="M0 720 l1010 0" />
      <path d="M0 750 l1010 0" />
      <path d="M0 780 l1010 0" />
      <path d="M0 810 l1010 0" />
      <path d="M0 840 l1010 0" />
      <path d="M0 870 l1010 0" />
      <path d="M0 900 l1010 0" />
      <path d="M0 930 l1010 0" />
      <path d="M0 960 l1010 0" />
      <path d="M0 990 l1010 0" />
      <path d="M0 1020 l1010 0" />
      <path d="M0 1050 l1010 0" />
      <path d="M0 1080 l1010 0" />
      <path d="M0 1110 l1010 0" />
      <path d="M0 1140 l1010 0" />
      <path d="M0 1170 l1010 0" />
      <path d="M0 1200 l1010 0" />
      <path d="M0 1230 l1010 0" />
      <path d="M0 1260 l1010 0" />
      <path d="M0 1290 l1010 0" />
      <path d="M0 1320 l1010 0" />
      <path d="M0 1350 l1010 0" />
      <path d="M0 1380 l1010 0" />
      <path d="M0 1410 l1010 0" />
      <path d="M0 1440 l1010 0" />
      <path d="M0 1470 l1010 0" />
      <path d="M0 1500 l1010 0" />
      <path d="M0 1530 l1010 0" />
      <path d="M0 1560 l1010 0" />
      <path d="M0 1590 l1010 0" />
      <path d="M0 1620 l1010 0" />
      <path class="xrule_1" d="M30 0 l0 1628" />
      <path d="M60 0 l0 1628" />
      <path d="M90 0 l0 1628" />
      <path d="M120 0 l0 1628" />
      <path d="M150 0 l0 1628" />
      <path d="M180 0 l0 1628" />
      <path d="M210 0 l0 1628" />
      <path d="M240 0 l0 1628" />
      <path d="M270 0 l0 1628" />
      <path d="M300 0 l0 1628" />
      <path d="M330 0 l0 1628" />
      <path d="M360 0 l0 1628" />
      <path d="M390 0 l0 1628" />
      <path d="M420 0 l0 1628" />
      <path d="M450 0 l0 1628" />
      <path d="M480 0 l0 1628" />
      <path d="M510 0 l0 1628" />
      <path d="M540 0 l0 1628" />
      <path d="M570 0 l0 1628" />
      <path d="M600 0 l0 1628" />
      <path d="M630 0 l0 1628" />
      <path d="M660 0 l0 1628" />
      <path d="M690 0 l0 1628" />
      <path d="M720 0 l0 1628" />
      <path d="M750 0 l0 1628" />
      <path d="M780 0 l0 1628" />
      <path d="M810 0 l0 1628" />
      <path d="M840 0 l0 1628" />
      <path d="M870 0 l0 1628" />
      <path d="M900 0 l0 1628" />
      <path d="M930 0 l0 1628" />
      <path d="M960 0 l0 1628" />
      <path d="M990 0 l0 1628" />
      <path class="leftmargin" stroke="#FF0000" d="M30 0 l0 1628" />
    </g>
    <path class="write-flat-pen" fill="#FFFFFF" stroke-width="1.6" __comx="110.066" __comy="46.675" __timestamp="0x178f0a75a31" d="M107.789 36.865 l0.895 -4.206 -0.057 0.113 -0.163 0.088 0 0 0.661 2.673 2.514 31.558 1.308 0.016 -0.064 -0.608 -0.087 -0.59 -0.309 -2.106 -0.177 -0.003 -0.381 2.094 -0.106 0.541 -0.182 0.536 1.308 0.016 -2.491 -31.691 -1.142 -3.789 0 0 -1.337 0.294 -0.29 0.479 -0.507 4.487" />
    <path class="write-flat-pen" fill="#FFFFFF" stroke-width="1.6" __comx="113.951" __comy="46.675" __timestamp="0x178f0a75b46" d="M96.511 33.075 l-2.685 -0.333 0 0 -0.408 1.134 0.239 0.209 4.021 1.088 11.029 0.594 18.643 -2.914 1.796 -0.502 1.648 -0.545 3.689 -1.211 -0.06 -0.238 -3.823 0.681 -1.7 0.298 -1.776 0.325 -18.492 2.549 -10.737 -0.52 -3.667 -0.812 -0.054 -0.011 -0.408 1.134 0 0 2.704 -0.077" />
    <path class="write-flat-pen" fill="#FFFFFF" stroke-width="1.6" __comx="149.073" __comy="46.675" __timestamp="0x178f0a75e42" d="M126.575 46.716 l0.358 -0.686 0 0 -0.855 -0.026 1.032 4.843 0.117 0.639 1.35 4.754 1.894 3.062 1.945 1.17 2.827 -0.239 3.212 -2.181 2.857 -3.623 2.509 -5.05 1.354 -5.273 -0.134 -3.142 -1.039 -0.621 0 0 -1.056 0.299 -1.13 2.173 -0.68 3.858 0.363 2.803 1.226 2.325 2.007 1.54 2.839 0.653 3.343 -0.786 3.72 -2.424 2.891 -3.07 2.061 -3.572 0 0 0.314 -1.9 0 0 -1.311 -0.653 -1.08 1.133 -1.429 4.439 -0.259 3.795 1.073 2.187 2.348 1.116 2.557 -0.25 3.358 -1.667 3.115 -2.675 2.425 -3.984 0.066 -0.17 1.411 -3.923 -0.068 -0.034 -2.297 3.48 -0.065 0.091 -2.623 3.509 -2.848 2.362 -2.921 1.452 -1.826 0.181 -1.453 -0.685 -0.651 -1.309 0.192 -3.185 1.248 -3.927 0.836 -0.879 -1.311 -0.653 0 0 -0.265 1.626 0 0 -1.828 3.18 -2.643 2.81 -3.345 2.18 -2.74 0.647 -2.174 -0.498 -1.485 -1.135 -0.948 -1.79 -0.301 -2.305 0.6 -3.403 1.027 -1.966 -1.056 0.299 0 0 0.34 0.203 0.093 2.106 -1.26 4.903 -2.365 4.772 -2.611 3.327 -2.694 1.849 -1.973 0.184 -1.248 -0.74 -1.63 -2.588 -1.355 -4.487 -0.129 -0.614 -1.455 -4.773 -0.855 -0.026 0 0 -0.113 0.765" />
    <path class="write-flat-pen" fill="#FFFFFF" stroke-width="1.6" __comx="177.647" __comy="46.675" __timestamp="0x178f0a75fc4" d="M173.28 43.813 l1.508 -2.445 0.127 -0.287 0.142 -2.092 -0.506 -0.401 -1.643 0.009 -1.629 1.542 -0.423 2.023 1.217 1.665 6.743 1.905 2.677 1.413 1.107 1.383 0.192 1.239 -0.648 1.394 -1.62 1.303 -2.657 0.946 -0.468 -0.075 -0.286 -1.285 0.091 -0.33 0.26 -0.596 1.251 -2.827 -0.059 -0.037 -1.97 2.382 -0.439 0.534 -0.403 0.622 0.08 2.899 2.089 0.358 3.303 -1.179 2.118 -1.709 1.001 -2.173 -0.342 -2.13 -1.584 -1.955 -3.112 -1.638 -6.407 -1.78 -0.537 -0.694 0.156 -0.951 0.882 -0.965 0.728 -0.153 -0.217 -0.189 0.241 1.427 -0.034 0.143 -1.115 2.606" />
    <path class="write-flat-pen" fill="#FFFFFF" stroke-width="1.6" __comx="196.986" __comy="46.675" __timestamp="0x178f0a7617d" d="M194.081 31.035 l-0.374 5.173 0.054 0.899 1.846 14.784 1.155 3.767 1.436 1.459 2.064 -0.235 1.378 -2.604 0.521 -3.513 -0.566 -2.78 -1.463 -2.005 -1.994 -0.998 -2.408 0.103 -2.61 1.432 -2.449 2.696 -2.132 4.192 -0.817 3.385 0.55 2.129 1.566 1.507 2.805 0.504 9.26 -3.457 0.568 -0.311 3.784 -2.071 -0.127 -0.291 -4.094 1.359 -0.575 0.186 -8.949 2.94 -1.915 -0.342 -0.895 -0.858 -0.342 -1.309 0.667 -2.825 1.932 -3.854 2.13 -2.355 2.069 -1.135 1.65 -0.067 1.298 0.656 1.032 1.431 0.428 2.178 -0.454 2.97 -0.858 1.625 -0.466 0.058 -0.63 -0.631 -1.023 -3.268 -2.023 -14.59 -0.074 -0.788 -0.047 -5.115" />
    <path class="write-flat-pen" fill="#FFFFFF" stroke-width="1.6" __comx="213.726" __comy="46.675" __timestamp="0x178f0a762fd" d="M213.293 48.672 l-0.255 -2.133 -0.136 -0.327 -1.284 -1.278 -1.794 -0.057 -1.711 1.254 -1.371 2.548 -0.567 3.293 1.005 1.771 2.078 0.2 3.879 -2.917 0.646 -0.052 1.724 4.033 1.451 1.043 1.868 -0.801 0.368 -0.346 2.088 -2.07 -0.031 -0.045 -2.666 1.239 -0.315 0.13 -1.062 0.217 -0.464 -0.357 -2.023 -4.609 -2.131 0.175 -3.77 2.805 -0.728 -0.063 -0.372 -0.631 0.401 -2.552 1.067 -2.1 1.071 -0.857 0.886 -0.039 0.89 0.703 0.024 0.021 0.643 1.934" />
    <path class="write-flat-pen" fill="#FFFFFF" stroke-width="1.6" __comx="227.905" __comy="46.675" __timestamp="0x178f0a7641b" d="M224.401 47.715 l0.208 -0.662 -0.689 0.218 0.061 0.13 2.439 5.128 0.281 0.368 1.991 1.628 2.227 -0.6 1.041 -2.023 -0.041 -0.032 -1.522 1.192 -1.363 0.089 -1.439 -1.135 -0.13 -0.16 -2.792 -4.879 -0.134 -0.145 -0.689 0.218 0.204 0.664" />
    <path class="write-flat-pen" fill="#FFFFFF" stroke-width="1.6" __comx="231.293" __comy="50.109" __timestamp="0x178f0a764ff" d="M233.871 41.735 l-0.005 0.985 -0.091 0.474 -3.757 15.923 -0.37 1.574 -1.834 10.639 0.684 4.115 0.279 -0.013 0.308 -4.018 1.949 -10.438 0.353 -1.548 3.349 -16.073 0.037 -0.665 -0.376 -1.05" />
    <path class="write-flat-pen" fill="#FFFFFF" stroke-width="1.6" __comx="281.844" __comy="50.109" __timestamp="0x178f0a76799" d="M268.12 54.42 l-0.402 4.307 -0.018 0.295 0 0 0.177 0.72 0 0 0.827 0.125 1.729 -2.127 3.045 -7.675 5.279 -17.463 1.034 -5.441 -0.294 -2.246 -1.332 -1.164 -1.486 1.035 -0.995 3.528 0.298 5.416 1.5 5.492 3.106 6.943 3.498 5.255 2.525 2.403 5.469 1.741 3.911 -0.428 -0.001 -0.334 -3.71 -0.406 -4.841 -1.917 -2.158 -2.061 -3.339 -5.001 -3.033 -6.709 -1.468 -5.221 -0.336 -5.026 0.747 -2.855 0.231 -0.182 0.185 0.153 0.204 1.547 -0.981 5.168 -5.22 17.356 -2.88 7.515 -1.445 2.14 0.827 0.125 0 0 -0.267 -0.538 0 0 -0.012 -0.14 -0.007 -4.313" />
    <path class="write-flat-pen" fill="#FFFFFF" stroke-width="1.6" __comx="281.148" __comy="50.109" __timestamp="0x178f0a76860" d="M274.016 45.984 l1.028 1.597 2.662 1.106 6.446 0.291 4.128 -0.445 -0.007 -0.226 -4.108 -0.173 -6.219 -0.511 -2.258 -0.852 -0.972 -1.273" />
    <path class="write-flat-pen" fill="#FFFFFF" stroke-width="1.6" __comx="302.154" __comy="50.109" __timestamp="0x178f0a76a2f" d="M300.329 60.895 l-1.734 4.282 0 0 0.694 -0.3 0.226 0.083 -0.792 -19.747 0.324 -0.995 1.078 -0.388 2.757 0.505 1.896 1.075 0.657 1.196 -0.22 1.263 -1.284 1.558 -3.486 1.879 0.538 0.927 0.962 -1.225 -0.094 -0.135 -1.483 0.477 0.538 0.927 3.96 -1.662 1.71 -2.14 0.32 -2.136 -1.124 -1.93 -2.431 -1.357 -3.336 -0.589 -2.015 0.742 -0.581 1.834 1.073 20.627 0.389 0.154 0.694 -0.3 0 0 1.349 -4.418" />
    <path class="write-flat-pen" fill="#FFFFFF" stroke-width="1.6" __comx="315.931" __comy="50.109" __timestamp="0x178f0a76b4a" d="M312.328 51.348 l-0.402 2.521 -0.04 0.176 0 0 -0.532 1.437 0 0 0.962 -0.096 -0.293 -0.772 0.365 -4.11 1.198 -4.216 0.415 -0.304 3.711 1.281 3.258 1.751 0.14 -0.205 -2.904 -2.466 -4.411 -2.022 -1.482 1.089 -1.29 4.857 -0.267 4.61 0.638 0.993 0.962 -0.096 0 0 0.345 -1.552 0 0 0.026 -0.265 -0.003 -2.581" />
    <path class="write-flat-pen" fill="#FFFFFF" stroke-width="1.6" __comx="323.455" __comy="50.109" __timestamp="0x178f0a76c15" d="M322.89 52.679 l-0.245 1.363 1.539 1.347 0.08 -0.069 -0.928 -1.502 -0.03 -1.103" />
    <path class="write-flat-pen" fill="#FFFFFF" stroke-width="1.6" __comx="356.657" __comy="50.109" __timestamp="0x178f0a76f24" d="M348.508 39.659 l-1.849 -0.204 0.175 0.162 0.195 -0.907 1.563 -1.801 2.649 -1.692 3.886 -1.132 2.319 0.091 0.978 0.631 0.766 1.498 -0.084 2.511 -1.38 3.616 -2.407 3.711 -8.569 8.769 -1.386 2.459 0.902 1.609 11.932 -1.491 5.514 0.173 4.161 0.522 0.078 -0.307 -4.035 -1.555 -5.774 -0.439 -11.007 1.377 0.062 0.111 0.842 -1.498 8.486 -8.776 2.535 -4.001 1.459 -4.01 0.047 -3.106 -1.135 -2.106 -1.587 -0.986 -2.879 -0.099 -4.256 1.273 -2.92 1.95 -1.768 2.282 -0.04 1.616 0.339 0.334 2.189 -0.206" />
    <path class="write-flat-pen" fill="#FFFFFF" stroke-width="1.6" __comx="378.861" __comy="50.109" __timestamp="0x178f0a770f4" d="M375.383 45.883 l1.023 -2.601 -0.005 -0.269 -0.622 -1.326 -1.734 0.259 -1.66 2.682 -0.65 3.091 0.386 3.771 1.245 3.174 2.206 2.167 2.552 0.755 2.712 -0.35 2.919 -1.676 1.464 -2.182 0.768 -3.303 -0.352 -2.529 -1.663 -3.043 -2.244 -2.136 -5.418 -1.699 -2.168 0.421 -0.013 0.186 1.918 0.707 4.846 1.77 1.82 1.723 1.42 2.572 0.28 1.961 -0.63 2.75 -1.103 1.653 -2.342 1.348 -2.091 0.271 -1.885 -0.547 -1.722 -1.666 -1.085 -2.682 -0.393 -3.351 0.503 -2.66 1.166 -2.041 0.318 -0.111 0.226 0.311 -0.001 -0.137 -0.561 2.563" />
    <path class="write-flat-pen" fill="#FFFFFF" stroke-width="1.6" __comx="246.644" __comy="94.235" __timestamp="0x178f0a77378" d="M71.426 94.006 l58.755 1.334 21.901 1.285 58.752 5.335 18.956 0.891 27.252 -0.151 116.375 -7.481 31.303 -1.426 7.636 -0.395 7.553 -0.328 1.951 -0.081 -0.004 -0.239 -1.953 -0.022 -7.568 -0.099 -7.655 0.158 -31.334 1.092 -116.353 7.456 -27.179 0.221 -18.897 -0.84 -58.762 -5.107 -21.94 -1.162 -58.771 -1.273" />
  </g>
</svg>
