<svg class="write-page" color-interpolation="linearRGB" width="1584px" height="982px" xmlns="http://www.w3.org/2000/svg" xmlns:xlink="http://www.w3.org/1999/xlink">
  <g class="write-content write-v3" width="1584" height="982" xruling="30" yruling="30" marginLeft="30" papercolor="#FFFFFF" rulecolor="#7F0000FF">
    <g class="ruleline write-std-ruling write-scale-down" fill="none" stroke="#0000FF" stroke-opacity="0.498" stroke-width="1" shape-rendering="crispEdges" vector-effect="non-scaling-stroke">
      <rect class="pagerect" fill="#FFFFFF" stroke="none" x="0" y="0" width="1584" height="982" />
      <path class="yrule_1" d="M0 30 l1584 0" />
      <path d="M0 60 l1584 0" />
      <path d="M0 90 l1584 0" />
      <path d="M0 120 l1584 0" />
      <path d="M0 150 l1584 0" />
      <path d="M0 180 l1584 0" />
      <path d="M0 210 l1584 0" />
      <path d="M0 240 l1584 0" />
      <path d="M0 270 l1584 0" />
      <path d="M0 300 l1584 0" />
      <path d="M0 330 l1584 0" />
      <path d="M0 360 l1584 0" />
      <path d="M0 390 l1584 0" />
      <path d="M0 420 l1584 0" />
      <path d="M0 450 l1584 0" />
      <path d="M0 480 l1584 0" />
      <path d="M0 510 l1584 0" />
      <path d="M0 540 l1584 0" />
      <path d="M0 570 l1584 0" />
      <path d="M0 600 l1584 0" />
      <path d="M0 630 l1584 0" />
      <path d="M0 660 l1584 0" />
      <path d="M0 690 l1584 0" />
      <path d="M0 720 l1584 0" />
      <path d="M0 750 l1584 0" />
      <path d="M0 780 l1584 0" />
      <path d="M0 810 l1584 0" />
      <path d="M0 840 l1584 0" />
      <path d="M0 870 l1584 0" />
      <path d="M0 900 l1584 0" />
      <path d="M0 930 l1584 0" />
      <path d="M0 960 l1584 0" />
      <path class="xrule_1" d="M30 0 l0 982" />
      <path d="M60 0 l0 982" />
      <path d="M90 0 l0 982" />
      <path d="M120 0 l0 982" />
      <path d="M150 0 l0 982" />
      <path d="M180 0 l0 982" />
      <path d="M210 0 l0 982" />
      <path d="M240 0 l0 982" />
      <path d="M270 0 l0 982" />
      <path d="M300 0 l0 982" />
      <path d="M330 0 l0 982" />
      <path d="M360 0 l0 982" />
      <path d="M390 0 l0 982" />
      <path d="M420 0 l0 982" />
      <path d="M450 0 l0 982" />
      <path d="M480 0 l0 982" />
      <path d="M510 0 l0 982" />
      <path d="M540 0 l0 982" />
      <path d="M570 0 l0 982" />
      <path d="M600 0 l0 982" />
      <path d="M630 0 l0 982" />
      <path d="M660 0 l0 982" />
      <path d="M690 0 l0 982" />
      <path d="M720 0 l0 982" />
      <path d="M750 0 l0 982" />
      <path d="M780 0 l0 982" />
      <path d="M810 0 l0 982" />
      <path d="M840 0 l0 982" />
      <path d="M870 0 l0 982" />
      <path d="M900 0 l0 982" />
      <path d="M930 0 l0 982" />
      <path d="M960 0 l0 982" />
      <path d="M990 0 l0 982" />
      <path d="M1020 0 l0 982" />
      <path d="M1050 0 l0 982" />
      <path d="M1080 0 l0 982" />
      <path d="M1110 0 l0 982" />
      <path d="M1140 0 l0 982" />
      <path d="M1170 0 l0 982" />
      <path d="M1200 0 l0 982" />
      <path d="M1230 0 l0 982" />
      <path d="M1260 0 l0 982" />
      <path d="M1290 0 l0 982" />
      <path d="M1320 0 l0 982" />
      <path d="M1350 0 l0 982" />
      <path d="M1380 0 l0 982" />
      <path d="M1410 0 l0 982" />
      <path d="M1440 0 l0 982" />
      <path d="M1470 0 l0 982" />
      <path d="M1500 0 l0 982" />
      <path d="M1530 0 l0 982" />
      <path d="M1560 0 l0 982" />
      <path class="leftmargin" stroke="#FF0000" d="M30 0 l0 982" />
    </g>
    <path class="write-flat-pen" fill="#000000" stroke-width="1.6" __comx="51.002" __comy="17.597" __timestamp="0x176ea89aaf0" d="M49.766 11.528 l0.051 -0.37 0.035 -0.139 0.034 -0.114 0.041 -0.154 0.048 -0.16 0.058 -0.194 0.051 -0.198 0.068 -0.266 0.098 -0.479 0.083 -0.47 0.067 -0.403 0.044 -0.354 0.045 -0.312 0.03 -0.245 0.033 -0.215 0.028 -0.145 0.038 -0.2 0.038 -0.149 0.044 -0.144 0.002 0.007 0.029 -0.037 -0.056 0.112 -0.135 0.132 -0.307 0.056 -0.199 -0.078 -0.031 -0.019 0.075 0.144 0.082 0.263 0.126 0.384 0.097 0.503 0.137 0.612 0.304 2.264 0.069 0.901 0.127 1.987 0.061 2.107 -0.009 2.148 -0.08 2.007 -0.461 3.742 -0.099 0.465 -0.119 0.689 -0.035 0.196 -0.032 0.16 0.008 -0.011 0.032 -0.041 0.136 -0.108 0.412 -0.112 0.333 0.27 -0.045 0.14 -0.124 -0.09 -0.394 -0.357 -0.066 0.014 -0.221 0.483 -0.06 0.22 0.037 0.332 0.417 0.322 0.507 -0.15 0.244 -0.243 0.084 -0.158 0.04 -0.099 0.074 -0.25 0.055 -0.243 0.136 -0.675 0.115 -0.506 0.492 -3.867 0.087 -2.095 0.01 -2.2 -0.063 -2.158 -0.133 -2.023 -0.076 -0.954 -0.336 -2.372 -0.16 -0.657 -0.127 -0.575 -0.174 -0.47 -0.153 -0.4 -0.217 -0.325 -0.226 -0.265 -0.446 -0.198 -0.426 0.072 -0.3 0.262 -0.107 0.201 -0.062 0.224 -0.013 0.077 -0.02 0.181 -0.018 0.201 -0.009 0.225 -0.008 0.159 -0.007 0.249 0 0.249 -0.007 0.313 0 0.35 -0.011 0.393 -0.009 0.475 -0.002 0.482 0.005 0.274 0.01 0.198 0.004 0.196 0.006 0.177 0.01 0.158 0.003 0.118 0.006 0.154 -0.006 0.378" />
    <path class="write-flat-pen" fill="#000000" stroke-width="1.6" __comx="53.494" __comy="17.597" __timestamp="0x176ea89ac3c" d="M40.439 8.2 l-0.21 -0.423 0.006 -0.017 0.005 -0.02 0.006 -0.019 0.001 -0.066 0.001 -0.022 0.004 -0.024 0.005 -0.023 0.008 -0.081 0.014 0.073 0.033 -0.034 0.014 0.006 0.023 0.005 0.06 -0.028 0.14 -0.058 0.219 -0.06 0.353 -0.069 0.425 -0.053 0.534 -0.042 2.18 -0.073 1.477 -0.039 2.983 -0.111 2.944 -0.303 2.511 -0.362 4.428 -0.804 2.134 -0.38 1.523 -0.246 1.16 -0.095 0.804 -0.081 0.655 -0.057 0.597 -0.049 0.616 0.006 0.585 0.052 0.523 0.04 0.647 0.052 0.044 -0.127 -0.54 -0.359 -0.464 -0.301 -0.606 -0.253 -0.7 -0.211 -0.7 -0.081 -0.714 -0.025 -0.835 0.028 -1.222 0.061 -1.601 0.231 -2.156 0.362 -4.411 0.782 -2.457 0.357 -2.866 0.301 -2.928 0.119 -1.476 0.045 -2.224 0.093 -0.606 0.061 -0.514 0.081 -0.47 0.117 -0.385 0.141 -0.337 0.196 -0.255 0.223 -0.229 0.327 -0.057 0.243 -0.044 0.247 0.021 0.188 0.055 0.176 0.03 0.074 0.031 0.066 0.024 0.043 0.059 0.1 0.039 0.05 0.03 0.034 0.032 0.03 0.239 0.407" />
    <path class="write-flat-pen" fill="#000000" stroke-width="1.6" __comx="68.85" __comy="17.597" __timestamp="0x176ea89aee7" d="M61.542 21.336 l-0.282 0.169 -0.039 0.018 -0.055 0.03 -0.084 0.066 -0.039 0.035 -0.081 0.093 -0.032 0.044 -0.08 0.132 -0.026 0.057 -0.071 0.225 -0.005 0.188 0.006 0.22 0.084 0.239 0.129 0.269 0.135 0.175 0.242 0.26 0.491 0.354 0.499 0.208 0.474 0.141 0.431 0.078 0.419 0.047 0.454 0.032 0.913 -0.066 0.514 -0.073 1.531 -0.565 0.497 -0.226 0.938 -0.521 0.881 -0.645 0.73 -0.658 0.599 -0.66 0.484 -0.679 0.262 -0.587 0.191 -0.686 -0.059 -0.657 -0.23 -0.473 -0.45 -0.428 -0.406 -0.207 -0.787 -0.191 -0.996 -0.026 -1.233 0.187 -1.264 0.363 -1.097 0.43 -0.941 0.534 -0.448 0.35 -0.73 0.78 -0.452 0.838 -0.254 0.78 -0.204 0.991 -0.14 1.674 0.098 1.114 0.177 0.835 0.217 0.677 0.479 0.863 0.655 0.783 0.748 0.66 0.477 0.319 1.056 0.413 0.593 0.115 1.237 0.091 0.683 -0.031 0.752 -0.183 1.365 -0.485 0.691 -0.314 0.657 -0.309 0.675 -0.349 0.614 -0.358 0.583 -0.34 0.569 -0.348 0.525 -0.352 0.469 -0.35 0.465 -0.394 0.397 -0.365 0.371 -0.425 0.435 -0.509 -0.071 -0.103 -0.632 0.221 -0.522 0.187 -0.479 0.2 -0.543 0.225 -0.519 0.229 -0.553 0.264 -0.586 0.286 -0.607 0.306 -0.606 0.321 -0.633 0.307 -0.633 0.285 -0.63 0.28 -1.236 0.434 -0.534 0.13 -0.446 0.02 -1.058 -0.077 -0.37 -0.071 -0.776 -0.302 -0.257 -0.171 -0.588 -0.515 -0.491 -0.583 -0.339 -0.606 -0.15 -0.462 -0.144 -0.671 -0.081 -0.895 0.117 -1.457 0.167 -0.822 0.185 -0.572 0.298 -0.548 0.519 -0.555 0.27 -0.211 0.752 -0.427 0.933 -0.364 1.104 -0.315 1.005 -0.15 0.702 0.022 0.46 0.116 0.055 0.029 0.095 0.091 -0.009 -0.018 0.011 0.108 -0.085 0.316 -0.153 0.352 -0.342 0.491 -0.484 0.546 -0.614 0.564 -0.742 0.552 -0.803 0.455 -0.395 0.184 -1.334 0.511 -0.317 0.051 -0.766 0.072 -0.329 -0.014 -0.351 -0.027 -0.319 -0.043 -0.347 -0.081 -0.317 -0.102 -0.312 -0.172 -0.161 -0.116 -0.051 -0.03 -0.091 -0.094 -0.039 -0.022 -0.032 -0.041 -0.03 -0.029 -0.025 -0.035 -0.011 0.01 -0.001 -0.088 -0.009 0.001 0.003 -0.064 -0.008 -0.005 0.004 -0.055 -0.017 -0.005 -0.014 -0.004 0.228 -0.172" />
    <path class="write-flat-pen" fill="#000000" stroke-width="1.6" __comx="82.173" __comy="17.597" __timestamp="0x176ea89b0cc" d="M81.734 19.782 l0.105 -0.232 0.11 -0.101 0.087 -0.122 0.066 -0.1 0.057 -0.074 0.09 -0.098 0.109 -0.187 0.069 -0.121 0.041 -0.072 0.104 -0.222 0.034 -0.086 0.065 -0.197 0.024 -0.083 0.044 -0.177 0.015 -0.069 0.032 -0.194 0.007 -0.072 0.007 -0.232 -0.037 -0.288 -0.096 -0.256 -0.144 -0.263 -0.097 -0.133 -0.194 -0.192 -0.191 -0.145 -0.398 -0.2 -0.302 -0.096 -0.916 -0.159 -0.393 -0.03 -0.416 -0.005 -1.191 0.163 -0.931 0.231 -0.458 0.196 -0.536 0.358 -0.325 0.403 -0.205 0.631 0.091 0.677 0.344 0.645 0.562 0.618 0.84 0.615 0.99 0.5 1.574 0.599 2.42 0.722 1.759 0.588 1.009 0.434 0.492 0.284 0.398 0.3 0.191 0.212 0.228 0.51 0.027 0.133 0.005 0.117 -0.031 0.128 -0.211 0.423 -0.16 0.201 -0.566 0.51 -0.342 0.225 -0.937 0.457 -0.484 0.176 -1.068 0.281 -1.621 0.237 -1.883 0.097 -0.269 -0.018 -0.324 -0.07 -0.244 -0.05 -0.251 -0.094 -0.224 -0.096 -0.174 -0.083 -0.161 -0.083 -0.139 -0.082 -0.216 -0.148 -0.205 -0.161 -0.6 -0.485 -0.108 0.054 0.029 0.77 0.046 0.34 0.156 0.349 0.152 0.258 0.257 0.266 0.274 0.204 0.309 0.177 0.397 0.187 0.364 0.096 0.432 0.109 0.474 0.043 2.054 -0.089 1.778 -0.26 1.216 -0.321 0.622 -0.228 1.094 -0.536 0.516 -0.343 0.74 -0.675 0.332 -0.428 0.349 -0.732 0.103 -0.508 -0.036 -0.434 -0.093 -0.388 -0.401 -0.843 -0.436 -0.47 -0.576 -0.427 -0.64 -0.365 -1.141 -0.486 -1.837 -0.611 -2.391 -0.712 -1.456 -0.556 -0.82 -0.415 -0.63 -0.463 -0.346 -0.382 -0.139 -0.264 -0.012 -0.104 0.025 -0.074 0.025 -0.03 0.247 -0.165 0.231 -0.1 0.745 -0.186 1.013 -0.143 0.268 0 0.286 0.018 0.769 0.112 0.119 0.03 0.201 0.082 0.03 0.014 0.065 0.048 -0.008 -0.017 0.08 0.105 0.024 0.029 0.023 0.052 0.015 0.09 0.003 0.005 0.003 0.148 0.001 0.034 -0.005 0.154 -0.001 0.052 -0.011 0.161 -0.002 0.042 -0.03 0.199 -0.01 0.062 -0.023 0.131 -0.02 0.141 -0.044 0.135 -0.028 0.163 -0.008 0.11 -0.004 0.112 -0.022 0.161 -0.054 0.292" />
    <path class="write-flat-pen" fill="#000000" stroke-width="1.6" __comx="104.547" __comy="17.597" __timestamp="0x176ea89b31a" d="M100.888 8.81 l-0.056 -0.295 -0.013 -0.063 -0.017 -0.069 -0.02 -0.06 -0.023 -0.049 -0.026 -0.052 -0.026 -0.045 -0.018 -0.031 -0.027 -0.038 -0.042 -0.05 -0.067 -0.067 -0.13 -0.078 -0.189 -0.052 -0.148 -0.008 -0.277 0.083 -0.216 0.145 -0.157 0.166 -0.137 0.191 -0.129 0.235 -0.112 0.251 -0.102 0.297 -0.099 0.346 -0.084 0.374 -0.151 0.848 -0.066 0.52 -0.669 8.563 -0.102 2.192 0.005 1.947 0.192 1.165 0.363 0.986 0.459 0.881 0.586 0.864 0.38 0.453 0.82 0.758 0.51 0.363 1.032 0.519 1.158 0.331 1.274 0.153 1.371 0.005 0.714 -0.128 0.621 -0.151 0.607 -0.205 0.553 -0.226 0.549 -0.286 0.513 -0.337 0.469 -0.364 0.406 -0.401 0.349 -0.404 0.258 -0.43 0.333 -0.577 -0.068 -0.066 -0.569 0.346 -0.404 0.247 -0.41 0.247 -0.444 0.236 -0.476 0.226 -0.492 0.224 -0.487 0.189 -0.491 0.156 -0.535 0.148 -0.539 0.108 -0.562 0.084 -1.174 -0.022 -1.089 -0.136 -0.929 -0.266 -0.823 -0.412 -0.354 -0.249 -0.694 -0.635 -0.28 -0.331 -0.506 -0.738 -0.386 -0.73 -0.29 -0.78 -0.153 -0.928 -0.004 -1.804 0.1 -2.137 0.648 -8.516 0.051 -0.464 0.119 -0.8 0.056 -0.322 0.064 -0.296 0.056 -0.233 0.053 -0.179 0.053 -0.159 0.034 -0.097 0.007 -0.045 -0.023 -0.018 -0.064 -0.011 -0.089 -0.009 -0.002 -0.038 -0.05 -0.042 0.015 -0.015 0.015 -0.008 0.012 -0.004 0.018 0.002 0.022 0.001 0.023 0.002 0.014 -0.004 0.022 0.002 0.029 0.006 0.008 -0.017 0.09 0.242" />
    <path class="write-flat-pen" fill="#000000" stroke-width="1.6" __comx="100.949" __comy="17.597" __timestamp="0x176ea89b3f0" d="M92.709 18.935 l-0.406 -0.376 0.016 -0.006 0.297 0.348 -0.306 0.481 -0.141 0.074 0.148 0.011 0.318 0.005 0.461 0.023 0.561 0.016 0.619 0.03 2.388 0.062 3.903 -0.026 1.053 -0.058 1.065 -0.156 1.085 -0.087 1.096 -0.165 1.111 -0.141 1.103 -0.243 1.073 -0.294 1.071 -0.303 1.055 -0.408 0.441 -0.167 -0.028 -0.132 -0.47 0.027 -1.121 0.053 -1.098 0.095 -1.097 0.093 -1.073 0.102 -1.101 0.051 -1.087 0.108 -1.096 0.054 -1.057 0.135 -0.963 0.043 -3.852 0.017 -2.357 -0.047 -0.628 -0.018 -0.574 0.005 -0.494 0.004 -0.383 0.033 -0.33 0.05 -0.355 0.148 -0.374 0.577 0.319 0.374 0.07 0.044 0.434 0.364" />
    <path class="write-flat-pen" transform="translate(51.605,-54.176)" fill="#000000" stroke-width="1.6" __comx="156.302" __comy="25.001" __timestamp="0x176ea89c1c0" d="M103.553 85.455 l0.015 1.028 0.06 0.609 0.02 0.198 0.033 0.279 0.011 0.149 0.016 0.214 0.011 0.178 0.002 0.195 0.002 0.054 -0.003 0.104 -0.008 0.152 -0.009 0.088 -0.017 0.155 -0.015 0.087 -0.01 0.024 -0.019 0.026 -0.021 -0.002 -0.038 -0.027 0.109 -0.249 0.421 -0.132 0.257 0.148 0.059 0.039 0.001 -0.043 -0.025 -0.108 -0.042 -0.153 -0.05 -0.2 -0.07 -0.289 -0.076 -0.326 -0.084 -0.378 -0.129 -0.472 -0.097 -0.477 -0.142 -0.524 -0.116 -0.568 -0.167 -0.609 -0.155 -0.565 -0.16 -0.59 -0.166 -0.589 -0.118 -0.577 -0.189 -0.624 -0.13 -0.664 -0.172 -0.694 -0.401 -2.162 -0.174 -0.775 -1.312 -5.611 -0.197 -0.761 -1.38 -5.366 -0.153 -0.523 -0.506 -1.772 -0.316 -1.48 -0.115 -0.827 -0.048 -0.848 0.022 -0.325 0.066 -0.264 0.233 -0.495 0.231 -0.293 0.376 -0.339 0.514 -0.348 0.634 -0.339 0.836 -0.356 0.843 -0.265 0.872 -0.181 1.027 -0.113 1.062 -0.036 1.124 0.145 1.114 0.317 1.075 0.433 0.5 0.253 0.977 0.682 0.396 0.357 0.729 0.846 0.527 0.892 0.2 0.464 0.132 0.506 0.16 0.553 0.094 0.53 0.066 0.498 0.058 0.521 0.05 0.464 0.048 0.428 0.046 0.375 0.034 0.362 0.043 0.349 0.032 0.272 0.033 0.26 0.033 0.223 0.038 0.199 0.037 0.151 0.036 0.119 0.027 0.018 0.029 0.211 0.084 0.783 0.095 0.034 0.566 -0.548 0.19 -0.236 0.053 -0.157 0.052 -0.192 0.039 -0.192 0.029 -0.221 0.021 -0.235 0.013 -0.279 0.002 -0.302 -0.012 -0.356 -0.009 -0.376 -0.028 -0.401 -0.031 -0.427 -0.036 -0.471 -0.048 -0.546 -0.063 -0.553 -0.106 -0.65 -0.172 -0.616 -0.152 -0.604 -0.283 -0.668 -0.643 -1.102 -0.882 -1.032 -0.543 -0.492 -1.149 -0.804 -0.66 -0.335 -1.216 -0.491 -1.307 -0.373 -1.368 -0.178 -1.251 0.041 -1.163 0.127 -1.024 0.213 -0.993 0.312 -0.973 0.414 -0.769 0.412 -0.674 0.456 -0.558 0.504 -0.427 0.542 -0.376 0.8 -0.137 0.552 -0.037 0.563 0.058 1.011 0.133 0.947 0.342 1.588 0.527 1.827 0.148 0.502 1.383 5.34 0.194 0.744 1.317 5.584 0.169 0.741 0.417 2.18 0.182 0.702 0.145 0.701 0.199 0.629 0.123 0.562 0.189 0.633 0.169 0.583 0.167 0.565 0.165 0.559 0.126 0.564 0.152 0.523 0.109 0.479 0.148 0.487 0.096 0.359 0.104 0.351 0.108 0.319 0.098 0.249 0.095 0.195 0.089 0.159 0.103 0.147 0.145 0.156 0.323 0.195 0.504 -0.15 0.136 -0.301 -0.003 -0.171 -0.011 -0.104 -0.019 -0.091 -0.014 -0.059 -0.031 -0.099 -0.045 -0.161 -0.03 -0.096 -0.048 -0.159 -0.038 -0.114 -0.016 -0.047 -0.052 -0.185 -0.052 -0.179 -0.057 -0.204 -0.038 -0.149 -0.078 -0.272 -0.043 -0.183 -0.102 -0.582 -0.019 -1.012" />
    <path class="write-flat-pen" transform="translate(51.605,-54.176)" fill="#000000" stroke-width="1.6" __comx="154.537" __comy="25.001" __timestamp="0x176ea89c2e0" d="M95.597 76.174 l-0.316 -0.055 -0.039 -0.035 0.013 -0.017 0.028 0.001 0.03 -0.011 0.208 0.137 0.024 0.323 -0.148 0.256 -0.086 0.087 0.091 0.027 0.212 0.02 0.35 0.001 0.44 -0.024 0.486 -0.039 0.561 -0.04 0.579 -0.049 1.287 -0.071 0.68 -0.028 4.221 -0.108 0.747 -0.059 0.706 -0.069 0.68 -0.077 0.634 -0.084 0.589 -0.092 0.612 -0.11 0.581 -0.114 0.634 -0.124 0.616 -0.111 0.617 -0.164 0.602 -0.163 -0.005 -0.101 -0.616 -0.097 -0.627 -0.097 -0.625 -0.058 -0.66 -0.053 -0.612 -0.018 -0.629 0.009 -0.592 0.02 -0.632 0.029 -0.676 0.036 -0.696 0.04 -0.71 0.038 -4.205 0.095 -0.707 0.034 -1.324 0.093 -0.598 0.066 -0.568 0.064 -0.492 0.071 -0.418 0.067 -0.323 0.057 -0.234 0.052 -0.186 0.064 -0.308 0.146 -0.158 0.27 0.02 0.374 0.233 0.156 0.089 0.019 0.061 0.013 0.084 0 0.08 -0.02 0.315 0.031" />
    <path class="write-flat-pen" transform="translate(51.605,-54.176)" fill="#000000" stroke-width="1.6" __comx="172.923" __comy="25.001" __timestamp="0x176ea89c540" d="M120.822 72.331 l0.148 -0.173 0.041 0.001 0.037 -0.017 0.023 0 0.084 -0.02 0.05 -0.022 0.058 -0.026 0.057 -0.023 0.132 -0.058 0.07 -0.047 0.072 -0.046 0.068 -0.045 0.052 -0.032 0.042 -0.023 0.026 -0.014 0.074 -0.047 0.055 -0.046 0.065 -0.062 0.096 -0.131 0.078 -0.224 0.002 -0.608 -0.804 -0.154 -0.36 0.225 -0.169 0.137 -0.192 0.176 -0.232 0.243 -0.259 0.274 -1.249 1.394 -0.402 0.451 -0.809 1.019 -0.742 1.151 -0.608 1.257 -0.257 0.738 -0.33 1.596 -0.094 0.843 -0.09 2.453 0.197 1.62 0.448 1.516 0.558 1.343 0.809 1.257 0.927 1.015 0.974 0.778 0.549 0.325 0.605 0.259 0.576 0.139 0.612 0.086 0.652 0.032 0.594 -0.012 0.701 -0.064 0.658 -0.188 0.572 -0.216 0.593 -0.279 0.502 -0.284 0.501 -0.403 0.493 -0.403 -0.051 -0.101 -0.617 0.159 -0.596 0.153 -0.508 0.12 -0.594 0.106 -0.551 0.084 -0.551 0.068 -0.564 -0.014 -0.516 -0.037 -0.554 -0.065 -0.489 -0.096 -0.4 -0.115 -0.412 -0.191 -0.384 -0.238 -0.804 -0.656 -0.767 -0.846 -0.672 -1.047 -0.477 -1.153 -0.388 -1.327 -0.165 -1.386 0.088 -2.283 0.082 -0.721 0.298 -1.436 0.197 -0.567 0.533 -1.1 0.654 -1.018 0.735 -0.934 0.372 -0.422 1.227 -1.398 0.245 -0.277 0.199 -0.234 0.134 -0.153 0.061 -0.08 -0.18 0.098 -0.728 -0.142 0.003 -0.566 0.053 -0.105 0.062 -0.075 0.02 -0.002 0.017 -0.004 -0.023 0.045 -0.024 0.035 -0.039 0.057 -0.039 0.063 -0.036 0.064 -0.03 0.057 -0.009 0.029 -0.075 0.101 -0.038 0.061 -0.019 0.037 -0.012 0.026 -0.066 0.083 -0.029 0.047 0 0.016 -0.049 0.067 -0.178 0.238" />
    <path class="write-flat-pen" transform="translate(51.605,-54.176)" fill="#000000" stroke-width="1.6" __comx="183.512" __comy="25.001" __timestamp="0x176ea89c661" d="M125.852 72.871 l-0.359 -0.332 -0.136 -0.064 -0.25 -0.027 -0.215 0.134 -0.085 0.079 -0.105 0.154 -0.047 0.126 -0.053 0.311 0.055 0.348 0.092 0.342 0.17 0.456 0.24 0.496 0.298 0.529 0.358 0.589 0.37 0.558 0.43 0.624 0.482 0.634 0.474 0.587 1.1 1.346 0.57 0.679 2.363 2.683 1.584 1.901 0.974 1.078 1.385 1.257 0.426 0.327 0.403 0.29 0.37 0.245 0.323 0.217 0.313 0.194 0.257 0.16 0.243 0.152 0.13 0.057 0.152 0.093 0.145 0.068 0.022 -0.003 0.029 0.002 0.027 0.005 0.78 0.205 0.044 -0.04 -0.116 -0.799 -0.015 -0.043 -0.038 -0.067 -0.051 -0.068 -0.092 -0.119 -0.15 -0.188 -0.162 -0.129 -0.192 -0.171 -0.257 -0.205 -0.293 -0.218 -0.305 -0.233 -0.348 -0.253 -0.361 -0.278 -0.363 -0.29 -1.284 -1.183 -0.906 -1.008 -1.577 -1.897 -2.371 -2.683 -0.559 -0.658 -1.109 -1.327 -0.47 -0.561 -0.463 -0.585 -0.42 -0.58 -0.366 -0.519 -0.354 -0.54 -0.294 -0.47 -0.233 -0.406 -0.178 -0.354 -0.113 -0.241 -0.068 -0.124 -0.038 -0.03 -0.032 0.071 -0.048 0.039 -0.069 0.062 -0.132 0.068 -0.219 -0.025 -0.108 -0.053 0.285 0.21" />
    <path class="write-flat-pen" transform="translate(51.605,-54.176)" fill="#000000" stroke-width="1.6" __comx="182.437" __comy="25.001" __timestamp="0x176ea89c742" d="M125.629 87.235 l-0.38 -0.129 -0.101 -0.096 -0.079 -0.06 -0.01 -0.019 -0.004 -0.014 0.005 -0.018 0.042 0.02 0.132 0.122 0.069 0.224 0 0.103 0.098 -0.061 0.223 -0.17 0.353 -0.268 0.469 -0.371 0.533 -0.444 0.584 -0.514 1.228 -1.156 0.643 -0.623 1.993 -2.066 1.369 -1.664 1.217 -1.727 0.555 -0.878 0.526 -0.874 0.471 -0.839 0.44 -0.765 0.386 -0.728 0.316 -0.652 0.274 -0.637 0.234 -0.621 0.161 -0.605 0.158 -0.614 -0.114 -0.064 -0.443 0.454 -0.433 0.449 -0.41 0.507 -0.427 0.536 -0.422 0.59 -0.449 0.677 -0.488 0.742 -0.5 0.822 -0.527 0.839 -0.539 0.832 -1.173 1.649 -1.297 1.579 -1.93 2.014 -0.615 0.604 -1.192 1.149 -0.546 0.499 -0.5 0.44 -0.444 0.386 -0.355 0.321 -0.272 0.286 -0.213 0.306 -0.115 0.364 0.085 0.411 0.182 0.177 0.081 0.052 0.095 0.039 0.058 0.019 0.068 0.02 0.111 0.015 0.183 0.034 0.466 0.079" />
    <path class="write-flat-pen" transform="translate(51.605,-54.176)" fill="#000000" stroke-width="1.6" __comx="196.271" __comy="25.001" __timestamp="0x176ea89c970" d="M140.78 69.812 l-0.023 -0.106 -0.259 0.267 -0.116 0.043 0.009 0.042 0.106 0.095 0.142 0.085 0.19 0.145 0.246 0.179 0.277 0.202 0.323 0.253 0.392 0.315 0.449 0.379 0.483 0.409 0.49 0.437 0.497 0.443 0.96 0.915 0.432 0.465 0.426 0.486 0.787 1.06 0.629 1.086 0.457 1.185 0.115 0.62 0.145 1.392 -0.014 1.32 -0.319 1.316 -0.47 1.319 -0.266 0.598 -0.649 1.172 -0.789 1.151 -0.445 0.561 -0.449 0.518 -0.488 0.51 -0.465 0.449 -0.455 0.416 -0.427 0.393 -0.364 0.336 -0.307 0.303 -0.279 0.269 -0.188 0.192 -0.145 0.133 -0.113 0.099 -0.044 0.051 -0.488 0.607 0.045 0.081 0.773 -0.092 0.063 -0.009 0.154 -0.046 0.241 -0.095 0.283 -0.163 0.35 -0.225 0.357 -0.259 0.399 -0.289 0.47 -0.358 0.505 -0.398 0.53 -0.456 0.558 -0.534 0.512 -0.552 0.512 -0.614 0.876 -1.237 0.722 -1.282 0.317 -0.703 0.517 -1.44 0.377 -1.545 0.016 -1.563 -0.162 -1.529 -0.152 -0.804 -0.549 -1.408 -0.731 -1.247 -0.877 -1.165 -0.484 -0.54 -0.482 -0.505 -1.023 -0.944 -0.524 -0.45 -0.517 -0.439 -0.515 -0.409 -0.488 -0.375 -0.442 -0.311 -0.383 -0.249 -0.338 -0.189 -0.299 -0.15 -0.313 -0.138 -0.21 -0.041 -0.203 -0.044 -0.17 0.008 -0.243 0.033 -0.268 0.276 0.21 0.514" />
    <path class="write-flat-pen" transform="translate(51.605,-54.176)" fill="#000000" stroke-width="1.6" __comx="215.521" __comy="25.001" __timestamp="0x176ea89cb39" d="M156.893 77.431 l0.016 -0.23 0.014 -0.008 0.026 0.014 -0.028 0.091 0.005 0.042 0.027 0.016 0.068 0.008 0.107 0.006 0.163 0.007 0.226 0.009 0.294 0.004 0.356 -0.007 0.433 -0.025 0.427 -0.035 0.494 -0.046 0.505 -0.05 0.557 -0.045 2.578 -0.102 0.664 -0.02 2.58 -0.108 0.607 -0.062 0.543 -0.059 0.522 -0.054 0.527 -0.058 0.506 -0.055 0.482 -0.061 0.417 -0.047 0.336 -0.032 0.355 -0.052 0.701 -0.106 0.009 -0.091 -0.666 -0.242 -0.35 -0.122 -0.352 -0.073 -0.442 -0.073 -0.508 -0.047 -0.525 -0.029 -0.547 -0.007 -0.542 0.007 -0.56 0.027 -0.587 0.038 -2.549 0.095 -0.668 0.023 -2.615 0.138 -0.599 0.069 -0.517 0.076 -0.491 0.077 -0.416 0.07 -0.411 0.07 -0.336 0.056 -0.288 0.051 -0.245 0.051 -0.2 0.056 -0.156 0.059 -0.132 0.068 -0.114 0.082 -0.127 0.145 -0.044 0.127 0.017 0.103 0.014 0.032 0.016 0.23" />
    <path class="write-flat-pen" transform="translate(51.605,-54.176)" fill="#000000" stroke-width="1.6" __comx="215.324" __comy="25.001" __timestamp="0x176ea89cc37" d="M157.092 82.09 l-0.418 -0.011 -0.123 0.041 -0.098 0.065 -0.238 0.372 0.367 0.292 0.131 0.069 0.113 0.049 0.146 0.046 0.195 0.041 0.25 0.035 0.337 0.03 0.343 0.034 0.427 0.041 0.955 0.088 0.602 0.028 3.895 0.016 0.65 0.013 0.705 0.019 0.656 0.015 0.67 0.01 0.666 -0.02 0.666 -0.02 0.671 -0.051 0.666 -0.071 0.666 -0.071 0.64 -0.126 0.592 -0.118 -0.001 -0.089 -0.595 -0.1 -0.638 -0.107 -0.659 -0.077 -0.658 -0.083 -0.652 -0.078 -0.659 -0.079 -0.656 -0.055 -0.651 -0.066 -0.66 -0.057 -0.717 -0.048 -0.675 -0.032 -3.89 -0.034 -0.555 -0.02 -0.939 -0.06 -0.445 -0.018 -0.375 -0.004 -0.351 0.017 -0.233 0.019 -0.17 0.022 -0.107 0.024 -0.043 0.027 0.038 0.045 0.316 0.259 -0.23 0.36 -0.087 0.056 -0.104 0.033 0.266 -0.011" />
    <path class="write-flat-pen" transform="translate(51.605,-54.176)" fill="#000000" stroke-width="1.6" __comx="243.871" __comy="25.001" __timestamp="0x176ea89d02f" d="M180.963 75.134 l-0.03 -0.281 -0.002 -0.055 -0.003 -0.054 -0.004 -0.041 -0.03 -0.116 -0.144 -0.168 -0.264 -0.022 -0.198 0.076 -0.135 0.187 -0.038 0.072 -0.078 0.219 -0.033 0.191 -0.017 0.233 0.005 0.264 0.025 0.334 0.076 0.365 0.06 0.37 0.107 0.437 0.075 0.441 0.209 1.08 0.122 0.568 0.472 3.019 0.234 2.504 0.022 1.68 -0.03 0.454 -0.094 0.912 -0.194 1.206 -0.052 0.164 0.102 -0.131 0.366 -0.107 0.172 0.139 -0.015 -0.033 -0.131 -0.524 -0.126 -1.461 -0.03 -3.652 0.204 -3.524 0.259 -2.24 0.304 -1.326 0.339 -1.114 0.403 -1.001 0.465 -0.853 0.751 -1.1 0.454 -0.523 0.366 -0.307 0.342 -0.17 0.378 -0.087 0.148 -0.007 0.211 0.042 0.474 0.175 0.521 0.302 0.536 0.387 0.532 0.478 0.504 0.589 0.492 0.711 0.433 0.749 0.559 1.232 0.263 0.807 0.242 1.118 0.179 1.351 0.053 1.394 -0.017 1.481 -0.095 0.794 -0.167 0.797 -0.04 0.086 0.239 -0.184 0.435 0.093 0.098 0.131 -0.039 -0.122 -0.042 -0.34 0.02 -0.309 0.113 -0.512 0.699 -2.445 2 -5.317 0.667 -1.475 0.461 -0.864 0.477 -0.746 0.509 -0.639 0.755 -0.824 0.562 -0.486 0.302 -0.152 0.21 -0.052 0.303 0.054 0.465 0.237 0.206 0.151 0.581 0.587 0.285 0.375 0.616 0.985 0.559 1.19 0.48 1.407 0.615 2.446 0.166 0.797 0.102 0.86 0.182 0.881 0.214 1.631 0.192 2.206 0.22 4.194 0.026 0.494 0.042 0.466 0.051 0.396 0.064 0.375 0.073 0.32 0.068 0.248 0.074 0.237 0.096 0.224 0.354 0.735 0.123 -0.004 0.301 -0.758 0.08 -0.236 0.05 -0.259 0.033 -0.282 0.01 -0.338 0.001 -0.365 -0.005 -0.378 -0.006 -0.437 -0.001 -0.493 -0.206 -4.238 -0.198 -2.264 -0.225 -1.715 -0.181 -0.872 -0.102 -0.86 -0.186 -0.889 -0.638 -2.532 -0.525 -1.539 -0.631 -1.34 -0.698 -1.115 -0.383 -0.502 -0.729 -0.734 -0.392 -0.286 -0.76 -0.386 -0.816 -0.145 -0.665 0.166 -0.604 0.305 -0.759 0.657 -0.844 0.923 -0.585 0.737 -0.547 0.857 -0.509 0.956 -0.704 1.561 -2.03 5.417 -0.722 2.545 -0.143 0.663 -0.032 0.552 0.079 0.605 0.153 0.464 0.354 0.478 0.722 0.156 0.559 -0.43 0.246 -0.551 0.207 -1.007 0.109 -0.929 0.015 -1.59 -0.059 -1.494 -0.198 -1.472 -0.272 -1.241 -0.31 -0.946 -0.622 -1.362 -0.496 -0.855 -0.566 -0.814 -0.61 -0.71 -0.655 -0.586 -0.653 -0.468 -0.683 -0.393 -0.686 -0.251 -0.481 -0.094 -0.437 0.022 -0.653 0.153 -0.629 0.316 -0.57 0.481 -0.574 0.665 -0.83 1.222 -0.533 0.982 -0.451 1.129 -0.367 1.216 -0.328 1.445 -0.268 2.352 -0.201 3.607 0.041 3.747 0.146 1.617 0.197 0.766 0.207 0.404 0.568 0.463 0.689 -0.2 0.301 -0.385 0.15 -0.482 0.208 -1.342 0.08 -0.981 0.02 -0.526 -0.053 -1.769 -0.251 -2.585 -0.498 -3.091 -0.137 -0.593 -0.231 -1.056 -0.098 -0.471 -0.128 -0.434 -0.08 -0.355 -0.095 -0.323 -0.047 -0.247 -0.036 -0.208 -0.024 -0.161 -0.016 -0.096 -0.018 -0.091 -0.023 0.033 -0.067 0.054 -0.176 0.066 -0.177 -0.027 -0.115 -0.138 0.019 -0.018 0.015 0.008 0.025 0.017 0.013 -0.002 0.065 0.25" />
    <path class="write-flat-pen" transform="translate(51.605,-54.176)" fill="#000000" stroke-width="1.6" __comx="273.331" __comy="25.001" __timestamp="0x176ea89d26b" d="M214.808 72.992 l-0.017 -0.331 0.002 -0.136 -0.005 -0.072 -0.012 -0.128 -0.015 -0.076 -0.014 -0.064 -0.029 -0.136 -0.021 -0.074 -0.015 -0.056 -0.027 -0.1 -0.027 -0.056 -0.056 -0.118 -0.172 -0.224 -0.287 -0.018 -0.457 0.73 0.01 0.119 0.07 0.187 0.144 0.281 0.211 0.321 0.274 0.388 0.351 0.425 0.415 0.484 0.45 0.522 0.527 0.578 1.168 1.297 0.601 0.679 5.453 6.666 1.005 1.113 1.374 1.292 0.431 0.366 0.398 0.323 0.347 0.271 0.348 0.28 0.324 0.247 0.277 0.191 0.275 0.175 0.286 0.181 0.151 0.073 0.191 0.103 0.044 0.02 0.057 0.019 0.045 0.007 0.044 0.006 0.826 0.168 0.044 -0.048 -0.226 -0.812 -0.032 -0.065 -0.053 -0.073 -0.043 -0.057 -0.032 -0.039 -0.197 -0.194 -0.142 -0.111 -0.233 -0.197 -0.251 -0.198 -0.231 -0.187 -0.28 -0.239 -0.334 -0.293 -0.339 -0.285 -0.371 -0.319 -0.39 -0.345 -1.297 -1.246 -0.941 -1.051 -5.451 -6.663 -0.631 -0.703 -1.192 -1.294 -0.531 -0.561 -0.455 -0.499 -0.429 -0.463 -0.338 -0.368 -0.267 -0.325 -0.205 -0.248 -0.14 -0.182 -0.071 -0.079 -0.053 -0.037 -0.457 0.73 -0.217 -0.023 -0.137 -0.182 0.052 0.015 -0.012 -0.03 0.057 0.064 0.035 0.041 0.035 0.039 0.076 0.102 0.034 0.039 0.024 0.025 0.054 0.082 0.025 0.031 0.043 0.078 0.056 0.306" />
    <path class="write-flat-pen" transform="translate(51.605,-54.176)" fill="#000000" stroke-width="1.6" __comx="274.055" __comy="25.001" __timestamp="0x176ea89d35e" d="M217.434 90.493 l-0.231 -0.164 -0.008 -0.074 -0.042 -0.084 -0.007 -0.063 0 -0.028 -0.006 -0.081 -0.001 -0.066 -0.001 -0.101 0.013 -0.084 0.056 -0.21 0.101 -0.284 0.165 -0.38 0.232 -0.477 0.309 -0.544 0.393 -0.666 0.428 -0.744 0.479 -0.827 0.991 -1.692 0.584 -0.889 1.929 -2.807 2.403 -3.956 0.588 -0.922 0.574 -0.903 0.56 -0.875 0.512 -0.846 0.468 -0.866 0.438 -0.844 0.321 -0.833 0.203 -0.517 -0.141 -0.093 -0.396 0.39 -0.637 0.617 -0.628 0.713 -0.618 0.764 -0.598 0.776 -0.623 0.844 -0.618 0.894 -0.623 0.931 -2.411 3.932 -1.91 2.793 -0.609 0.938 -0.997 1.74 -0.472 0.843 -0.412 0.754 -0.377 0.69 -0.313 0.62 -0.231 0.578 -0.156 0.495 -0.085 0.445 -0.012 0.443 0.066 0.282 0.082 0.201 0.082 0.149 0.123 0.166 0.072 0.067 0.118 0.104 0.117 0.047 0.108 0.061 0.369 0.162" />
    <path class="write-flat-pen" transform="translate(51.605,-54.176)" fill="#000000" stroke-width="1.6" __comx="293.249" __comy="25.001" __timestamp="0x176ea89d558" d="M233.78 79.938 l-0.389 -0.006 -0.161 0.055 -0.124 0.114 -0.077 0.107 -0.065 0.24 0.037 0.205 0.083 0.214 0.111 0.155 0.196 0.223 0.22 0.164 0.295 0.218 0.366 0.224 0.359 0.154 0.501 0.238 0.48 0.152 0.585 0.213 0.658 0.151 1.443 0.198 1.598 0.058 2.386 -0.037 2.935 -0.184 0.71 -0.044 0.69 -0.04 0.678 -0.048 0.68 -0.073 0.609 -0.08 0.547 -0.088 0.551 -0.127 0.64 -0.146 -0.004 -0.14 -0.648 -0.108 -0.556 -0.095 -0.544 -0.063 -0.61 -0.069 -0.681 -0.047 -0.676 -0.039 -0.707 -0.02 -0.737 0.005 -2.925 0.156 -2.329 0.041 -1.507 -0.045 -1.333 -0.167 -0.537 -0.113 -0.547 -0.185 -0.436 -0.123 -0.463 -0.198 -0.318 -0.115 -0.279 -0.142 -0.292 -0.169 -0.163 -0.081 -0.131 -0.089 -0.042 -0.017 -0.039 -0.012 -0.005 0.067 -0.041 0.065 -0.046 0.05 -0.065 0.036 -0.135 0.043 0.252 -0.006" />
    <path class="write-flat-pen" transform="translate(51.605,-54.176)" fill="#000000" stroke-width="1.6" __comx="292.925" __comy="25.001" __timestamp="0x176ea89d6b8" d="M239.848 74.926 l-0.193 -0.246 -0.031 -0.064 -0.035 -0.107 -0.05 -0.091 -0.04 -0.11 -0.014 -0.044 -0.033 -0.107 -0.02 -0.072 -0.005 -0.03 -0.006 -0.019 0.037 0.015 0.024 0.073 -0.706 0.512 -0.078 0.006 -0.029 0.005 0.09 0.126 0.169 0.232 0.192 0.264 0.241 0.344 0.285 0.408 0.272 0.411 0.619 1.034 0.296 0.589 0.309 0.676 0.549 1.563 0.433 1.641 0.333 1.613 0.296 2.448 0.058 0.712 0.067 0.688 0.06 0.597 0.062 0.542 0.063 0.462 0.061 0.34 0.064 0.265 0.057 0.175 0.033 0.08 0.026 0.058 0.04 0.048 0.568 0.441 0.043 -0.014 0.201 -0.69 0.015 -0.029 0.012 -0.003 0.012 -0.039 0.014 -0.15 0.009 -0.25 0.001 -0.329 -0.007 -0.455 -0.015 -0.541 -0.025 -0.604 -0.041 -0.689 -0.041 -0.738 -0.285 -2.54 -0.345 -1.708 -0.453 -1.734 -0.592 -1.676 -0.353 -0.757 -0.339 -0.656 -0.684 -1.096 -0.316 -0.447 -0.317 -0.417 -0.276 -0.351 -0.236 -0.274 -0.226 -0.242 -0.162 -0.147 -0.204 -0.165 -0.174 -0.028 -0.706 0.512 0.026 0.167 0.113 0.158 0.007 0.007 0.036 0.051 0.073 0.089 0.115 0.132 0.071 0.063 0.14 0.114 0.116 0.054 0.122 0.068 0.089 0.019 0.214 0.16" />
    <path class="write-flat-pen" transform="translate(51.605,-54.176)" fill="#000000" stroke-width="1.6" __comx="320.497" __comy="25.001" __timestamp="0x176ea89d9f6" d="M258.364 64.379 l-0.02 -0.304 -0.002 -0.066 -0.01 -0.136 -0.019 -0.093 -0.015 -0.035 -0.031 -0.08 -0.11 -0.133 -0.225 -0.082 -0.319 0.045 -0.187 0.339 -0.044 0.259 0.039 0.237 0.037 0.251 0.141 0.369 0.17 0.376 0.2 0.431 0.233 0.491 0.291 0.571 0.308 0.606 0.353 0.637 1.14 2.069 0.384 0.772 0.757 1.656 0.688 1.678 0.623 1.718 0.573 1.771 0.642 2.573 0.237 1.441 0.186 1.778 0.073 2.457 -0.001 0.177 -0.02 0.279 -0.007 0.009 0.089 -0.126 0.272 -0.113 0.133 0.037 -0.105 -0.112 -0.144 -0.252 -0.166 -0.463 -0.11 -0.695 0.004 -0.819 0.256 -0.942 0.425 -1.048 0.584 -1.084 0.74 -1.019 0.426 -0.48 0.447 -0.41 1.053 -0.788 1.204 -0.664 1.24 -0.561 1.215 -0.407 0.556 -0.101 1.698 -0.131 0.968 0.125 0.986 0.352 0.852 0.371 0.674 0.356 0.515 0.368 0.156 0.159 0.286 0.467 0.171 0.597 0.089 1.107 -0.133 0.665 -0.12 0.292 -0.435 0.717 -0.712 0.781 -1.026 0.827 -1.237 0.799 -1.435 0.732 -1.536 0.603 -1.613 0.497 -0.809 0.195 -1.681 0.259 -2.48 0.162 -0.784 0.021 -1.273 0.051 -0.567 0.012 -0.463 0.028 -0.389 0.019 -0.335 0.016 -0.3 0.017 -0.199 0.015 -0.166 0.008 -0.093 0.01 -0.057 0.015 -0.061 0.016 -0.099 -0.001 -0.156 -0.067 -0.623 -0.321 -0.053 0.036 0.071 0.697 0.065 0.257 0.173 0.248 0.196 0.164 0.242 0.128 0.267 0.062 0.259 0.035 0.246 0.012 0.306 0.01 0.345 0.005 0.408 -0.001 0.452 -0.012 0.559 0.002 1.282 -0.029 0.806 -0.012 2.576 -0.151 1.807 -0.277 0.913 -0.22 1.708 -0.526 1.655 -0.645 1.567 -0.796 1.366 -0.882 1.172 -0.949 0.88 -0.974 0.562 -0.938 0.214 -0.527 0.196 -1.002 -0.125 -1.452 -0.27 -0.922 -0.476 -0.767 -0.356 -0.363 -0.695 -0.496 -0.804 -0.426 -0.943 -0.415 -1.174 -0.428 -1.271 -0.175 -1.925 0.139 -0.734 0.13 -1.388 0.459 -1.364 0.61 -1.348 0.738 -1.196 0.892 -0.559 0.512 -0.525 0.592 -0.841 1.158 -0.668 1.244 -0.486 1.206 -0.328 1.215 -0.004 1.132 0.15 0.949 0.258 0.718 0.303 0.524 0.494 0.506 0.721 0.223 0.586 -0.239 0.3 -0.406 0.124 -0.42 0.023 -0.495 -0.003 -0.241 -0.097 -2.526 -0.196 -1.867 -0.25 -1.538 -0.663 -2.677 -0.596 -1.842 -0.649 -1.767 -0.718 -1.727 -0.787 -1.698 -0.413 -0.818 -1.178 -2.088 -0.355 -0.615 -0.313 -0.583 -0.304 -0.553 -0.251 -0.469 -0.232 -0.421 -0.197 -0.337 -0.138 -0.233 -0.073 -0.165 -0.058 -0.068 -0.037 0.085 -0.138 0.219 -0.294 0.04 -0.141 -0.068 -0.077 -0.1 0.015 -0.017 -0.004 -0.017 0.036 0.015 0.059 0.06 0.019 0.007 0.057 0.261" />
    <path class="write-stroke-pen" fill="none" stroke="#000000" stroke-width="1.6" stroke-linecap="round" stroke-linejoin="round" __comx="156.352" __comy="108.99" __timestamp="0x176ea8a4969" d="M156.262 81.877 l0.181 164.275" />
    <path class="write-stroke-pen" fill="none" stroke="#000000" stroke-width="1.6" stroke-linecap="round" stroke-linejoin="round" __comx="261.198" __comy="196.233" __timestamp="0x176ea8a54a3" d="M89.939 196.032 l342.52 2.801" />
    <path class="write-stroke-pen" fill="none" stroke="#0000FF" stroke-width="1.6" stroke-linecap="round" stroke-linejoin="round" __comx="217.736" __comy="163.582" __timestamp="0x176ea8a6842" d="M77.439 222.297 l280.594 -116.896" />
    <path class="write-flat-pen" fill="#000000" stroke-width="1.6" __comx="158.686" __comy="82.163" __timestamp="0x176ea8a79b2" d="M157.595 83.564 l0.34 -1.119 0.024 -0.077 0.109 -0.409 0.019 -0.104 0.029 -0.266 0 -0.099 -0.009 -0.225 -0.008 -0.059 -0.028 -0.171 -0.046 -0.128 -0.103 -0.177 -0.234 -0.189 -0.415 0.059 -0.232 0.159 -0.182 0.225 -0.153 0.277 -0.142 0.318 -0.348 0.845 -0.245 0.538 -1.754 3.782 -0.323 0.602 -1.575 2.422 -0.427 0.564 -1.658 2.229 -0.365 0.509 -1.295 1.866 -0.169 0.279 -0.307 0.419 1.017 -0.154 0.346 0.265 0.273 -0.868 0.212 -0.552 0.578 -1.804 1.263 -3.4 4.04 -8.716 0.332 -0.916 0.151 -0.786 -0.103 -0.546 -0.295 -0.475 -0.503 -0.392 -0.751 -0.11 -0.633 0.406 -0.267 0.589 0.083 0.607 0.35 0.725 0.669 0.838 0.994 0.976 3.516 3.025 1.954 1.928 1.82 2.119 1.934 2.562 0.417 0.576 0.43 0.586 0.439 0.585 0.453 0.582 0.47 0.548 0.551 0.563 0.602 0.454 0.879 0.644 0.226 -0.206 -0.561 -0.934 -0.368 -0.61 -0.366 -0.627 -0.352 -0.598 -0.388 -0.619 -0.401 -0.613 -0.408 -0.605 -0.417 -0.605 -1.963 -2.63 -1.893 -2.205 -2.036 -2.007 -3.515 -3.028 -0.892 -0.879 -0.506 -0.634 -0.172 -0.356 0.008 0.062 -0.098 0.216 -0.218 0.138 -0.199 -0.031 -0.019 -0.018 0.009 0.009 0.001 -0.009 -0.07 0.391 -0.265 0.745 -4.023 8.715 -1.292 3.486 -0.573 1.799 -0.214 0.566 -0.537 1.857 0.422 0.324 1.017 -0.154 0.311 -0.476 0.166 -0.286 1.235 -1.84 0.345 -0.496 1.615 -2.24 0.442 -0.603 1.593 -2.526 0.356 -0.684 1.728 -3.841 0.247 -0.575 0.318 -0.88 0.1 -0.289 0.067 -0.181 0.013 -0.054 -0.087 0.044 -0.231 0.017 -0.174 -0.145 0.025 -0.024 0.007 -0.021 0.057 0.077 0.009 0.009 0.07 0.166 0.016 0.041 0.04 0.206 0.007 0.054 -0.022 0.385 -0.008 0.058 -0.263 1.133" />
    <path class="write-flat-pen" fill="#000000" stroke-width="1.6" __comx="429.801" __comy="193.372" __timestamp="0x176ea8a7f89" d="M432.903 198.226 l-0.727 -0.04 -0.207 -0.002 -0.532 -0.021 -0.071 -0.005 -0.309 -0.024 -0.236 -0.034 -0.186 -0.047 -0.234 -0.074 -0.201 -0.091 -0.101 -0.058 -0.079 -0.055 -0.18 -0.156 -0.076 -0.07 -0.147 -0.159 -0.089 -0.099 -0.219 -0.255 -0.11 -0.155 -0.144 -0.221 -0.191 -0.274 -0.13 -0.217 -0.227 -0.347 -0.134 -0.235 -0.232 -0.346 -0.151 -0.272 -0.19 -0.311 -0.125 -0.244 -0.139 -0.325 -0.152 -0.385 -0.181 -0.387 -0.391 -1.012 -0.101 -0.286 -0.539 -1.538 -0.1 -0.315 -0.391 -1.227 -0.472 -0.952 -0.991 -1.507 -0.617 -0.504 -1.171 0.303 0.104 1.147 0.972 1.607 1.236 1.7 1.003 1.138 1.086 1.036 1.167 0.906 1.131 0.728 4.625 2.666 1.885 0.908 -0.292 -0.289 0.153 -0.438 -0.253 0.272 -1.98 1.629 -0.81 0.766 -1.86 2.088 -1.846 1.889 -0.026 0.028 -0.042 0.052 -0.831 1.318 0.75 0.688 1.241 -0.942 0.027 -0.023 0.009 -0.008 1.881 -1.915 1.839 -2.068 0.719 -0.683 2.019 -1.665 0.547 -0.593 0.285 -0.815 -0.607 -0.601 -2.07 -1 -4.54 -2.62 -1.039 -0.67 -1.048 -0.814 -0.977 -0.933 -0.908 -1.031 -1.151 -1.586 -0.746 -1.236 0.051 0.565 -0.918 0.237 -0.196 -0.16 0.808 1.222 0.377 0.757 0.358 1.111 0.109 0.338 0.559 1.56 0.113 0.311 0.434 1.081 0.193 0.393 0.156 0.365 0.187 0.396 0.193 0.337 0.223 0.325 0.188 0.294 0.269 0.343 0.156 0.223 0.28 0.346 0.179 0.227 0.257 0.274 0.204 0.218 0.211 0.195 0.34 0.251 0.148 0.092 0.242 0.142 0.151 0.067 0.29 0.12 0.175 0.043 0.154 0.029 0.275 0.036 0.296 0.016 0.232 -0.002 0.273 -0.018 0.323 -0.037 0.074 -0.009 0.535 -0.061 0.199 -0.026 0.717 -0.04" />
  </g>
</svg>
