<svg class="write-page" color-interpolation="linearRGB" width="982px" height="1584px" xmlns="http://www.w3.org/2000/svg" xmlns:xlink="http://www.w3.org/1999/xlink">
  <g class="write-content write-v3" width="982" height="1584" xruling="30" yruling="30" marginLeft="30" papercolor="#FFFFFF" rulecolor="#7F0000FF">
    <g class="ruleline write-std-ruling write-scale-down" fill="none" stroke="#0000FF" stroke-opacity="0.498" stroke-width="1" shape-rendering="crispEdges" vector-effect="non-scaling-stroke">
      <rect class="pagerect" fill="#FFFFFF" stroke="none" x="0" y="0" width="982" height="1584" />
      <path class="yrule_1" d="M0 30 l982 0" />
      <path d="M0 60 l982 0" />
      <path d="M0 90 l982 0" />
      <path d="M0 120 l982 0" />
      <path d="M0 150 l982 0" />
      <path d="M0 180 l982 0" />
      <path d="M0 210 l982 0" />
      <path d="M0 240 l982 0" />
      <path d="M0 270 l982 0" />
      <path d="M0 300 l982 0" />
      <path d="M0 330 l982 0" />
      <path d="M0 360 l982 0" />
      <path d="M0 390 l982 0" />
      <path d="M0 420 l982 0" />
      <path d="M0 450 l982 0" />
      <path d="M0 480 l982 0" />
      <path d="M0 510 l982 0" />
      <path d="M0 540 l982 0" />
      <path d="M0 570 l982 0" />
      <path d="M0 600 l982 0" />
      <path d="M0 630 l982 0" />
      <path d="M0 660 l982 0" />
      <path d="M0 690 l982 0" />
      <path d="M0 720 l982 0" />
      <path d="M0 750 l982 0" />
      <path d="M0 780 l982 0" />
      <path d="M0 810 l982 0" />
      <path d="M0 840 l982 0" />
      <path d="M0 870 l982 0" />
      <path d="M0 900 l982 0" />
      <path d="M0 930 l982 0" />
      <path d="M0 960 l982 0" />
      <path d="M0 990 l982 0" />
      <path d="M0 1020 l982 0" />
      <path d="M0 1050 l982 0" />
      <path d="M0 1080 l982 0" />
      <path d="M0 1110 l982 0" />
      <path d="M0 1140 l982 0" />
      <path d="M0 1170 l982 0" />
      <path d="M0 1200 l982 0" />
      <path d="M0 1230 l982 0" />
      <path d="M0 1260 l982 0" />
      <path d="M0 1290 l982 0" />
      <path d="M0 1320 l982 0" />
      <path d="M0 1350 l982 0" />
      <path d="M0 1380 l982 0" />
      <path d="M0 1410 l982 0" />
      <path d="M0 1440 l982 0" />
      <path d="M0 1470 l982 0" />
      <path d="M0 1500 l982 0" />
      <path d="M0 1530 l982 0" />
      <path d="M0 1560 l982 0" />
      <path class="xrule_1" d="M30 0 l0 1584" />
      <path d="M60 0 l0 1584" />
      <path d="M90 0 l0 1584" />
      <path d="M120 0 l0 1584" />
      <path d="M150 0 l0 1584" />
      <path d="M180 0 l0 1584" />
      <path d="M210 0 l0 1584" />
      <path d="M240 0 l0 1584" />
      <path d="M270 0 l0 1584" />
      <path d="M300 0 l0 1584" />
      <path d="M330 0 l0 1584" />
      <path d="M360 0 l0 1584" />
      <path d="M390 0 l0 1584" />
      <path d="M420 0 l0 1584" />
      <path d="M450 0 l0 1584" />
      <path d="M480 0 l0 1584" />
      <path d="M510 0 l0 1584" />
      <path d="M540 0 l0 1584" />
      <path d="M570 0 l0 1584" />
      <path d="M600 0 l0 1584" />
      <path d="M630 0 l0 1584" />
      <path d="M660 0 l0 1584" />
      <path d="M690 0 l0 1584" />
      <path d="M720 0 l0 1584" />
      <path d="M750 0 l0 1584" />
      <path d="M780 0 l0 1584" />
      <path d="M810 0 l0 1584" />
      <path d="M840 0 l0 1584" />
      <path d="M870 0 l0 1584" />
      <path d="M900 0 l0 1584" />
      <path d="M930 0 l0 1584" />
      <path d="M960 0 l0 1584" />
      <path class="leftmargin" stroke="#FF0000" d="M30 0 l0 1584" />
    </g>
    <path class="write-flat-pen" fill="#000000" stroke-width="1.8" __comx="67.499" __comy="49.973" __timestamp="0x1772223943c" d="M68.004 36.469 l0.178 -0.945 0.027 -0.029 0.055 -0.01 -0.28 -0.008 -0.023 0.006 -0.022 0.205 -0.012 0.248 -0.028 0.75 -0.017 0.503 -0.037 1.241 -0.019 0.794 -0.036 1.811 -0.016 1.009 -0.033 2.122 -0.039 1.137 -0.118 2.36 -0.133 1.21 -0.176 2.398 -0.146 1.125 -0.571 4.851 -0.069 0.718 -0.226 2.752 0.024 0.069 0.925 -0.419 0.223 0.163 -0.11 0.156 -0.107 -0.309 -0.092 -0.507 -0.086 -0.692 -0.119 -0.876 -0.015 -0.001 -0.18 0.865 -0.134 0.689 -0.11 0.525 -0.089 0.353 -0.087 0.463 0.248 0.179 0.925 -0.419 0.047 -0.094 0.259 -2.784 0.056 -0.705 0.497 -4.839 0.125 -1.157 0.117 -2.416 0.1 -1.227 0.049 -2.404 0.006 -1.155 -0.033 -2.132 -0.017 -1.01 -0.04 -1.812 -0.024 -0.796 -0.053 -1.245 -0.031 -0.509 -0.071 -0.76 -0.043 -0.273 -0.093 -0.293 -0.06 -0.052 -0.28 -0.008 -0.018 0.092 -0.011 0.099 -0.065 0.977" />
    <path class="write-flat-pen" fill="#000000" stroke-width="1.8" __comx="73.495" __comy="49.973" __timestamp="0x17722239579" d="M59.479 38.614 l-1.462 -0.403 -0.151 -0.038 -0.529 -0.165 -0.023 -0.014 -0.162 -0.126 0.074 0.079 0.062 -0.062 0.142 -0.113 0.952 -0.517 0.684 -0.277 1.838 -0.564 1.047 -0.229 1.148 -0.211 1.219 -0.172 1.27 -0.094 1.37 -0.152 1.348 -0.067 1.38 -0.039 2.668 -0.028 1.341 0.009 10.289 -0.092 1.187 -0.071 1.176 -0.105 1.119 -0.191 1.052 -0.157 1.043 -0.222 0.951 -0.204 -0.012 -0.199 -0.969 -0.089 -1.064 -0.096 -1.083 -0.019 -1.12 0.033 -1.139 -0.008 -1.166 -0.005 -10.274 0.043 -1.352 0.021 -2.691 0.097 -1.405 0.078 -1.397 0.112 -1.381 0.199 -1.282 0.14 -1.271 0.226 -1.178 0.258 -1.095 0.279 -1.896 0.66 -0.758 0.35 -1.044 0.663 -0.318 0.343 -0.14 0.569 0.226 0.32 0.404 0.157 0.095 0.02 0.577 0.069 0.151 0.016 1.478 0.284" />
    <path class="write-flat-pen" fill="#000000" stroke-width="1.8" __comx="87.754" __comy="49.973" __timestamp="0x17722239861" d="M80.681 47.741 l0.075 -0.334 0.001 0.024 0.042 0.022 -0.168 0.211 -0.286 -0.124 -0.067 -0.072 -0.024 0.024 -0.017 0.103 -0.015 0.152 -0.02 0.225 -0.028 0.289 -0.04 0.332 -0.104 0.723 -0.092 0.408 -0.287 1.327 -0.088 0.453 -0.296 1.491 -0.075 0.511 -0.139 1.743 0.002 0.483 0.098 0.892 0.374 1.15 0.682 1.095 0.655 0.622 0.851 0.501 0.948 0.294 1.146 0.152 1.303 -0.193 1.247 -0.452 1.17 -0.667 1.142 -0.869 1.041 -1.024 0.847 -1.049 0.703 -1.112 0.799 -1.698 0.66 -1.972 0.402 -2.621 0.004 -0.278 -0.088 -0.722 -0.454 -0.763 -0.996 0.014 -0.457 0.906 -0.226 1.441 -0.074 1.878 0.081 1.619 0.339 2.031 0.346 1.337 0.441 1.045 0.528 0.767 0.641 0.508 0.354 0.168 0.389 0.08 0.399 -0.002 0.399 -0.094 0.388 -0.192 0.351 -0.267 0.296 -0.344 0.674 -0.871 -0.07 -0.098 -1.043 0.354 -0.368 0.129 -0.276 0.062 -0.22 0.005 -0.159 -0.027 -0.135 -0.043 -0.098 -0.05 -0.062 -0.048 -0.339 -0.299 -0.321 -0.467 -0.343 -0.802 -0.305 -1.166 -0.325 -1.88 -0.082 -1.466 0.061 -1.724 0.177 -1.124 -0.049 0.104 -0.761 0.012 -0.152 -0.248 0.031 0.308 -0.003 0.07 -0.413 2.378 -0.613 1.754 -0.731 1.522 -0.605 0.951 -0.731 0.907 -0.903 0.891 -0.977 0.75 -0.957 0.559 -0.968 0.365 -0.931 0.152 -0.806 -0.091 -0.662 -0.188 -0.563 -0.31 -0.407 -0.363 -0.514 -0.773 -0.303 -0.836 -0.095 -0.672 -0.012 -0.355 0.074 -1.649 0.048 -0.44 0.232 -1.475 0.068 -0.449 0.217 -1.331 0.072 -0.464 0.042 -0.803 -0.003 -0.38 -0.024 -0.333 -0.04 -0.267 -0.046 -0.19 -0.054 -0.152 -0.058 -0.116 -0.103 -0.15 -0.334 -0.152 -0.182 0.228 -0.008 0.138 -0.006 0.056 0.038 0.374" />
    <path class="write-flat-pen" fill="#000000" stroke-width="1.8" __comx="103.674" __comy="49.973" __timestamp="0x17722239a1a" d="M98.739 51.364 l-0.353 0.31 -0.086 0.112 -0.113 0.178 -0.075 0.189 -0.039 0.265 0.004 0.119 0.068 0.35 0.056 0.145 0.258 0.414 0.182 0.185 0.419 0.311 0.297 0.152 0.878 0.28 0.43 0.059 0.812 -0.035 1.183 -0.304 1.142 -0.557 1.015 -0.683 0.899 -0.808 0.577 -0.752 0.397 -0.896 0.075 -0.777 -0.202 -0.633 -0.44 -0.567 -0.675 -0.427 -1.153 -0.316 -0.937 -0.043 -0.9 0.161 -0.804 0.31 -0.768 0.468 -0.722 0.626 -0.588 0.724 -0.672 1.296 -0.276 0.989 -0.197 1.492 0.09 1.472 0.247 1.004 0.529 1.252 0.511 0.744 0.675 0.665 0.851 0.473 1.495 0.333 0.679 -0.038 0.617 -0.103 0.632 -0.168 0.624 -0.225 0.59 -0.267 0.564 -0.316 0.527 -0.355 0.514 -0.406 0.494 -0.422 0.453 -0.477 0.752 -0.815 -0.063 -0.085 -0.997 0.485 -0.573 0.285 -0.55 0.277 -0.554 0.254 -0.528 0.215 -0.535 0.196 -0.535 0.167 -0.547 0.14 -0.528 0.096 -0.485 0.049 -0.403 0.001 -1.078 -0.274 -0.476 -0.271 -0.422 -0.416 -0.343 -0.493 -0.429 -0.993 -0.189 -0.75 -0.084 -1.19 0.147 -1.246 0.195 -0.741 0.519 -1.032 0.406 -0.511 0.528 -0.464 0.548 -0.335 0.55 -0.209 0.601 -0.104 0.608 0.033 0.78 0.222 0.267 0.173 0.117 0.155 0.028 0.092 -0.023 0.235 -0.225 0.518 -0.382 0.508 -0.715 0.658 -0.841 0.584 -0.917 0.47 -0.901 0.261 -0.548 0.049 -0.205 -0.015 -0.692 -0.163 -0.13 -0.047 -0.294 -0.159 -0.048 -0.025 -0.187 -0.184 0.002 0.026 -0.098 -0.164 -0.005 0.035 -0.039 -0.103 -0.017 -0.039 0.002 -0.109 -0.014 -0.015 0.223 -0.318" />
    <path class="write-flat-pen" fill="#000000" stroke-width="1.8" __comx="115.307" __comy="49.973" __timestamp="0x17722239d51" d="M118.895 47.489 l0.042 -0.406 0.024 -0.085 0.043 -0.176 0.023 -0.127 0.023 -0.16 -0.001 -0.075 -0.007 -0.201 -0.023 -0.1 -0.05 -0.17 -0.061 -0.117 -0.14 -0.204 -0.18 -0.17 -0.268 -0.177 -0.21 -0.085 -0.349 -0.085 -0.233 -0.021 -0.62 0.05 -0.282 0.051 -1.576 0.555 -0.187 0.096 -0.668 0.518 -0.446 0.587 -0.25 0.792 0.032 0.613 0.36 0.774 0.563 0.631 1.542 1.21 2.106 1.447 0.952 0.778 0.519 0.577 0.37 0.589 0.213 0.603 0.081 0.638 -0.072 0.451 -0.194 0.491 -0.323 0.483 -0.481 0.464 -0.592 0.345 -0.729 0.24 -0.926 0.172 -1.593 0.097 -1.014 -0.123 -1.397 -0.374 -0.718 -0.305 -0.894 -0.567 -0.223 -0.185 -0.215 -0.2 -0.178 -0.184 -0.136 -0.167 -0.14 -0.193 -0.129 -0.194 -0.127 -0.214 -0.122 -0.229 -0.131 -0.278 -0.116 -0.274 -0.086 -0.336 -0.302 -1.106 -0.036 -0.002 -0.397 1.075 -0.118 0.406 -0.029 0.423 0.019 0.4 0.051 0.353 0.093 0.353 0.127 0.324 0.156 0.311 0.19 0.303 0.249 0.307 0.274 0.29 0.339 0.31 1.098 0.731 0.956 0.414 1.625 0.437 1.282 0.155 1.849 -0.119 1.138 -0.221 0.998 -0.344 0.902 -0.548 0.732 -0.736 0.494 -0.784 0.296 -0.819 0.107 -0.841 -0.159 -1.01 -0.342 -0.898 -0.534 -0.824 -0.681 -0.749 -1.087 -0.885 -2.112 -1.456 -1.382 -1.111 -0.314 -0.369 -0.131 -0.305 0.002 -0.04 0.092 -0.271 0.164 -0.215 0.392 -0.311 -0.027 0.013 1.362 -0.531 0.113 -0.03 0.434 -0.083 0.027 -0.009 0.173 0.003 0.019 -0.009 0.109 0.02 0.039 -0.003 0.055 0.01 -0.003 -0.03 0.05 0.033 0.011 -0.01 0.067 0.088 0.011 -0.002 0.047 0.109 0.037 0.097 0.051 0.15 0.024 0.077 0.042 0.406" />
    <path class="write-flat-pen" fill="#000000" stroke-width="1.8" __comx="134.22" __comy="49.973" __timestamp="0x1772223a075" d="M139.272 35.16 l-0.167 0.324 -0.043 0.078 -0.114 0.233 -0.07 0.162 -0.156 0.411 -0.095 0.297 -0.182 0.702 -0.088 0.457 -0.161 1.069 -0.068 0.647 -0.106 1.474 -0.044 0.858 -0.109 2.794 -0.045 0.993 -0.195 3.131 -0.078 0.987 -0.284 2.801 -0.075 0.828 -0.386 4.505 -0.015 0.291 -0.005 0.773 0.218 0.419 0 0 1.177 0.178 0.324 -0.291 0.39 -1.374 0.184 -1.322 0.076 -1.95 -0.169 -1.236 -0.434 -0.975 -0.72 -0.833 -0.711 -0.501 -1.18 -0.513 -0.96 -0.226 -1.522 -0.145 -1.105 0.078 -0.964 0.216 -0.857 0.35 -0.796 0.515 -0.954 0.897 -0.534 0.688 -0.541 0.994 -0.333 1.099 -0.063 0.85 0.154 0.845 0.375 0.831 0.55 0.735 0.728 0.65 0.957 0.482 1.113 0.306 1.253 0.15 1.819 -0.111 1.805 -0.492 0.606 -0.214 0.549 -0.223 0.486 -0.216 0.455 -0.214 0.415 -0.212 0.408 -0.226 0.364 -0.218 0.338 -0.228 0.321 -0.242 0.255 -0.24 0.868 -0.875 -0.059 -0.103 -1.192 0.311 -0.324 0.093 -0.349 0.117 -0.355 0.109 -0.385 0.121 -0.43 0.147 -0.421 0.15 -0.457 0.163 -0.478 0.173 -0.515 0.178 -0.537 0.165 -1.615 0.402 -1.521 0.085 -0.994 -0.119 -0.848 -0.232 -0.632 -0.314 -0.457 -0.403 -0.356 -0.468 -0.23 -0.496 -0.088 -0.457 0.032 -0.479 0.232 -0.783 0.401 -0.744 0.382 -0.492 0.764 -0.717 0.557 -0.358 0.603 -0.244 0.723 -0.159 0.859 -0.055 1.286 0.13 0.718 0.173 0.902 0.396 0.421 0.298 0.441 0.511 0.248 0.557 0.122 0.877 -0.061 1.736 -0.149 1.145 -0.223 0.865 0.003 0.01 1.177 0.178 0 0 -0.056 -0.065 -0.006 -0.35 0.009 -0.232 0.324 -4.484 0.06 -0.82 0.232 -2.815 0.06 -1.015 0.13 -3.157 0.022 -1.009 0.035 -2.794 0.018 -0.844 0.047 -1.454 0.032 -0.618 0.079 -1.046 0.039 -0.427 0.087 -0.681 0.042 -0.282 0.064 -0.418 0.024 -0.163 0.032 -0.25 0.007 -0.082 0.059 -0.355" />
    <path class="write-flat-pen" fill="#000000" stroke-width="1.8" __comx="147.953" __comy="49.973" __timestamp="0x1772223a281" d="M150.439 52.931 l0.127 -0.432 0.036 -0.071 0.065 -0.176 0.041 -0.149 0.061 -0.271 0.021 -0.234 -0.002 -0.347 -0.036 -0.266 -0.193 -0.53 -0.158 -0.23 -0.507 -0.454 -0.32 -0.171 -1.173 -0.326 -0.445 -0.032 -0.813 0.067 -1.261 0.399 -0.825 0.444 -1.007 0.822 -0.56 0.673 -0.569 1.025 -0.331 1.102 -0.121 1.082 0.129 1.099 0.264 0.86 0.408 0.67 0.501 0.455 0.846 0.41 0.814 0.075 0.855 -0.195 0.771 -0.394 0.981 -0.807 0.877 -0.957 1.382 -2.095 -0.111 0.09 -0.385 -0.068 -0.067 -0.071 0.177 0.456 0.55 2.318 0.491 1.388 0.065 0.135 0.186 0.312 0.154 0.186 0.06 0.072 0.179 0.153 0.08 0.067 0.225 0.121 0.129 0.07 0.285 0.028 1.075 -0.064 0.044 -0.113 -0.75 -0.773 -0.099 -0.122 0.034 0.005 -0.076 -0.117 0.01 -0.005 -0.063 -0.113 0.002 -0.009 -0.066 -0.13 -0.086 -0.208 -0.009 -0.032 -0.402 -1.272 -0.56 -2.356 -0.323 -0.814 -0.466 -0.511 -0.792 -0.143 -0.612 0.486 -1.456 2.186 -0.731 0.775 -0.778 0.619 -0.454 0.223 -0.426 0.093 -0.285 -0.027 -0.391 -0.186 -0.17 -0.151 -0.194 -0.311 -0.174 -0.539 -0.104 -0.785 0.074 -0.771 0.233 -0.817 0.413 -0.764 0.374 -0.458 0.782 -0.648 0.578 -0.32 0.973 -0.329 0.544 -0.061 0.204 0.006 0.912 0.199 0.06 0.021 0.303 0.214 -0.006 -0.023 0.149 0.255 0.033 0.082 0.062 0.243 0.03 0.14 0.029 0.217 0.016 0.118 0.02 0.137 0.007 0.058 -0.05 0.454" />
    <path class="write-flat-pen" fill="#000000" stroke-width="1.8" __comx="158.132" __comy="49.973" __timestamp="0x1772223a386" d="M155.59 49.066 l-0.124 0.558 -0.028 0.139 -0.044 0.391 -0.002 0.272 0.064 0.611 0.04 0.362 0.167 0.806 0.131 0.441 0.573 1.557 0.711 1.384 1.052 1.395 0.207 0.171 0.203 0.141 0.209 0.116 0.221 0.093 0.265 0.079 0.354 0.012 0.247 -0.06 1.035 -0.346 0.001 -0.127 -1.027 -0.37 -0.165 -0.065 -0.135 -0.076 -0.072 -0.066 -0.099 -0.086 -0.099 -0.094 -0.113 -0.115 -0.066 -0.076 -0.869 -1.238 -0.641 -1.221 -0.577 -1.438 -0.128 -0.358 -0.204 -0.699 -0.07 -0.314 -0.135 -0.547 -0.03 -0.173 -0.036 -0.328 -0.014 -0.082 0.026 -0.537" />
    <path class="write-flat-pen" fill="#000000" stroke-width="1.8" __comx="160.372" __comy="51.956" __timestamp="0x1772223a484" d="M164.917 47.401 l-0.166 0.543 -0.06 0.143 -0.068 0.191 -0.073 0.235 -0.074 0.26 -0.081 0.317 -0.079 0.335 -0.086 0.406 -0.182 0.912 -0.13 0.572 -0.462 2.632 -0.533 2.353 -0.731 2.603 -0.971 2.759 -1.5 3.485 -1.877 3.864 -0.338 0.697 -0.311 0.638 -0.297 0.622 -0.278 0.606 -0.255 0.589 -0.251 0.62 -0.222 0.597 -0.204 0.58 -0.191 0.535 -0.172 0.533 -0.337 1.074 0.096 0.051 0.698 -0.883 0.351 -0.455 0.306 -0.5 0.316 -0.53 0.317 -0.544 0.327 -0.568 0.313 -0.548 0.323 -0.573 0.335 -0.598 0.344 -0.626 0.37 -0.696 1.942 -3.883 1.533 -3.564 1.004 -2.849 0.751 -2.686 0.535 -2.43 0.423 -2.652 0.107 -0.578 0.125 -0.951 0.046 -0.408 0.037 -0.331 0.033 -0.316 0.025 -0.261 0.019 -0.238 0.01 -0.193 0.002 -0.148 0.076 -0.56" />
    <path class="write-flat-pen" fill="#000000" stroke-width="1.8" __comx="105.652" __comy="69.059" __timestamp="0x1772223a6a5" d="M53.319 72.005 l-0.642 0.134 -0.155 0.183 0.054 0.258 0.583 0.392 0.358 0.098 1.592 0.234 0.78 0.056 1.869 0.073 1.139 0.003 2.608 -0.066 1.523 -0.046 5.504 -0.318 2.092 -0.151 7.085 -0.62 2.627 -0.254 8.434 -1.008 3.022 -0.43 16.477 -2.48 6.651 -0.917 3.224 -0.365 6.235 -0.504 2.954 -0.084 5.656 -0.102 2.646 0.015 7.233 0.668 2.172 0.319 2.06 0.354 1.908 0.375 4.908 1.329 1.423 0.46 1.297 0.43 1.281 0.341 0.812 0.219 0.055 -0.153 -0.767 -0.346 -1.21 -0.55 -1.292 -0.46 -1.429 -0.496 -4.916 -1.439 -1.929 -0.431 -2.069 -0.411 -2.2 -0.366 -7.287 -0.751 -2.696 -0.053 -5.675 0.034 -2.988 0.059 -6.283 0.445 -3.26 0.327 -6.685 0.855 -16.479 2.521 -3.003 0.449 -8.402 1.071 -2.609 0.276 -7.066 0.7 -2.077 0.177 -5.482 0.411 -1.509 0.079 -2.595 0.134 -1.117 0.035 -1.85 0.007 -0.754 -0.013 -1.557 -0.119 -0.272 -0.048 -0.574 -0.274 0.054 0.258 0.059 -0.106 0.52 -0.126" />
  </g>
</svg>
