<svg class="write-page" width="1630px" height="840px" xmlns="http://www.w3.org/2000/svg" xmlns:xlink="http://www.w3.org/1999/xlink">
  <g class="write-content write-v3" width="1630" height="840" xruling="30" yruling="30" marginLeft="30" papercolor="#1B1C1C" rulecolor="#3A00F9FF">
    <g class="ruleline write-std-ruling write-scale-down" fill="none" stroke="#00F9FF" stroke-opacity="0.227" stroke-width="1" shape-rendering="crispEdges" vector-effect="non-scaling-stroke">
      <rect class="pagerect" fill="#1B1C1C" stroke="none" x="0" y="0" width="1630" height="840" />
      <path class="yrule_1" d="M0 30 l1630 0" />
      <path d="M0 60 l1630 0" />
      <path d="M0 90 l1630 0" />
      <path d="M0 120 l1630 0" />
      <path d="M0 150 l1630 0" />
      <path d="M0 180 l1630 0" />
      <path d="M0 210 l1630 0" />
      <path d="M0 240 l1630 0" />
      <path d="M0 270 l1630 0" />
      <path d="M0 300 l1630 0" />
      <path d="M0 330 l1630 0" />
      <path d="M0 360 l1630 0" />
      <path d="M0 390 l1630 0" />
      <path d="M0 420 l1630 0" />
      <path d="M0 450 l1630 0" />
      <path d="M0 480 l1630 0" />
      <path d="M0 510 l1630 0" />
      <path d="M0 540 l1630 0" />
      <path d="M0 570 l1630 0" />
      <path d="M0 600 l1630 0" />
      <path d="M0 630 l1630 0" />
      <path d="M0 660 l1630 0" />
      <path d="M0 690 l1630 0" />
      <path d="M0 720 l1630 0" />
      <path d="M0 750 l1630 0" />
      <path d="M0 780 l1630 0" />
      <path d="M0 810 l1630 0" />
      <path class="xrule_1" d="M30 0 l0 840" />
      <path d="M60 0 l0 840" />
      <path d="M90 0 l0 840" />
      <path d="M120 0 l0 840" />
      <path d="M150 0 l0 840" />
      <path d="M180 0 l0 840" />
      <path d="M210 0 l0 840" />
      <path d="M240 0 l0 840" />
      <path d="M270 0 l0 840" />
      <path d="M300 0 l0 840" />
      <path d="M330 0 l0 840" />
      <path d="M360 0 l0 840" />
      <path d="M390 0 l0 840" />
      <path d="M420 0 l0 840" />
      <path d="M450 0 l0 840" />
      <path d="M480 0 l0 840" />
      <path d="M510 0 l0 840" />
      <path d="M540 0 l0 840" />
      <path d="M570 0 l0 840" />
      <path d="M600 0 l0 840" />
      <path d="M630 0 l0 840" />
      <path d="M660 0 l0 840" />
      <path d="M690 0 l0 840" />
      <path d="M720 0 l0 840" />
      <path d="M750 0 l0 840" />
      <path d="M780 0 l0 840" />
      <path d="M810 0 l0 840" />
      <path d="M840 0 l0 840" />
      <path d="M870 0 l0 840" />
      <path d="M900 0 l0 840" />
      <path d="M930 0 l0 840" />
      <path d="M960 0 l0 840" />
      <path d="M990 0 l0 840" />
      <path d="M1020 0 l0 840" />
      <path d="M1050 0 l0 840" />
      <path d="M1080 0 l0 840" />
      <path d="M1110 0 l0 840" />
      <path d="M1140 0 l0 840" />
      <path d="M1170 0 l0 840" />
      <path d="M1200 0 l0 840" />
      <path d="M1230 0 l0 840" />
      <path d="M1260 0 l0 840" />
      <path d="M1290 0 l0 840" />
      <path d="M1320 0 l0 840" />
      <path d="M1350 0 l0 840" />
      <path d="M1380 0 l0 840" />
      <path d="M1410 0 l0 840" />
      <path d="M1440 0 l0 840" />
      <path d="M1470 0 l0 840" />
      <path d="M1500 0 l0 840" />
      <path d="M1530 0 l0 840" />
      <path d="M1560 0 l0 840" />
      <path d="M1590 0 l0 840" />
      <path d="M1620 0 l0 840" />
      <path class="leftmargin" stroke="#FF0000" d="M30 0 l0 840" />
    </g>
    <path class="write-stroke-pen" fill="none" stroke="#FFFFFF" stroke-width="1.2" stroke-linecap="round" stroke-linejoin="round" __comx="71.607" __comy="49.738" __timestamp="0x17a50384ad5" d="M70.537 46.558 l0 -0.001 0 -0.004 0.004 -0.01 0.007 -0.013 0.009 -0.013 0.039 -0.032 0.01 -0.007 0.017 -0.011 0.023 -0.014 0.021 -0.011 0.023 -0.011 0.025 -0.011 0.081 -0.027 0.031 -0.009 0.039 -0.009 0.04 -0.005 0.048 -0.002 0.05 0.002 0.1 0.024 0.041 0.013 0.051 0.02 0.095 0.061 0.039 0.03 0.089 0.097 0.033 0.04 0.082 0.136 0.027 0.051 0.053 0.149 0.019 0.071 0.024 0.147 0.007 0.077 0.001 0.181 -0.003 0.069 -0.017 0.154 -0.013 0.074 -0.016 0.07 -0.023 0.082 -0.056 0.137 -0.025 0.056 -0.071 0.118 -0.038 0.055 -0.102 0.113 -0.046 0.046 -0.123 0.093 -0.056 0.036 -0.124 0.059 -0.061 0.023 -0.14 0.024 -0.05 0.006 -0.126 -0.007 -0.059 -0.007 -0.117 -0.033 -0.058 -0.019 -0.116 -0.061 -0.036 -0.021 -0.11 -0.095 -0.03 -0.029 -0.093 -0.118 -0.029 -0.042 -0.073 -0.158 -0.021 -0.057 -0.038 -0.158 -0.003 -0.148 0.006 -0.144 0.035 -0.143 0.017 -0.058 0.1 -0.208 0.067 -0.1 0.084 -0.104 0.093 -0.096 0.103 -0.091 0.124 -0.089 0.122 -0.078 0.125 -0.069 0.132 -0.062 0.138 -0.056 0.164 -0.057 0.15 -0.046 0.155 -0.039 0.163 -0.032 0.188 -0.026 0.176 -0.014 0.165 0.007 0.21 0.017 0.085 0.012 0.166 0.046 0.076 0.026 0.15 0.073 0.06 0.034 0.125 0.094 0.039 0.032 0.107 0.112 0.033 0.037 0.093 0.128 0.029 0.042 0.037 0.059 0.027 0.047 0.036 0.077 0.036 0.128 0.014 0.074 -0.001 0.136 -0.02 0.111 -0.037 0.1 -0.052 0.09 -0.076 0.091 -0.079 0.073 -0.09 0.066 -0.048 0.029 -0.136 0.057 -0.121 0.035 -0.071 0.014 -0.165 0.018 -0.136 -0.007 -0.132 -0.01 -0.066 -0.009 -0.131 -0.036 -0.055 -0.016 -0.043 -0.014 -0.055 -0.02 -0.047 -0.02 -0.043 -0.021 -0.041 -0.023 -0.04 -0.025 -0.05 -0.037 -0.071 -0.072 -0.025 -0.031 -0.037 -0.095 -0.249 -0.642" />
    <path class="write-stroke-pen" fill="none" stroke="#FFFFFF" stroke-width="1.2" stroke-linecap="round" stroke-linejoin="round" __comx="100.631" __comy="49.738" __timestamp="0x17a50384eb2" d="M90.717 58.566 l0.001 0.001 0.002 0.001 0.004 0.001 0.003 -0.001 0.003 -0.002 0.003 -0.003 0.004 -0.007 0.004 -0.01 0.01 -0.05 0.003 -0.018 0.011 -0.096 0.003 -0.027 0.009 -0.124 0.002 -0.034 0.008 -0.164 0.005 -0.115 0.004 -0.123 0.005 -0.167 0.004 -0.176 0.011 -0.208 0.011 -0.256 0.023 -0.317 0.034 -0.35 0.046 -0.407 0.054 -0.44 0.061 -0.472 0.104 -0.555 0.086 -0.525 0.139 -0.641 0.111 -0.58 0.179 -0.706 0.147 -0.71 0.21 -0.783 0.204 -0.772 0.202 -0.771 0.191 -0.716 0.198 -0.743 0.203 -0.77 0.149 -0.697 0.201 -0.767 0.148 -0.696 0.181 -0.707 0.142 -0.672 0.172 -0.703 0.129 -0.673 0.146 -0.647 0.114 -0.624 0.138 -0.626 0.102 -0.547 0.088 -0.502 0.076 -0.477 0.064 -0.429 0.055 -0.38 0.045 -0.381 0.032 -0.332 0.024 -0.283 0.019 -0.26 0.014 -0.211 0.004 -0.068 0.011 -0.264 0.001 -0.051 0.001 -0.072 0.001 -0.045 0 -0.031 0 -0.061 -0.003 -0.135 -0.002 -0.059 -0.009 -0.109 -0.011 -0.061 -0.014 -0.016 -0.017 0.033 -0.016 0.095 -0.015 0.168 -0.013 0.232 0 0.314 0.012 0.396 0.065 0.521 0.062 0.577 0.11 0.674 0.155 0.699 0.184 0.751 0.212 0.789 0.234 0.796 0.253 0.821 0.264 0.8 0.298 0.811 0.302 0.754 0.367 0.824 0.387 0.813 0.428 0.863 0.44 0.839 0.452 0.831 0.429 0.769 0.424 0.709 0.431 0.681 0.412 0.624 0.404 0.581 0.408 0.557 0.37 0.493 0.368 0.475 0.346 0.419 0.34 0.38 0.334 0.342 0.33 0.305 0.348 0.282 0.315 0.21 0.311 0.182 0.295 0.151 0.274 0.116 0.281 0.099 0.29 0.078 0.349 0.038 0.313 -0.003 0.328 -0.051 0.329 -0.103 0.328 -0.161 0.275 -0.209 0.353 -0.328 0.271 -0.356 0.318 -0.475 0.241 -0.485 0.254 -0.581 0.189 -0.578 0.163 -0.624 0.188 -0.709 0.129 -0.718 0.094 -0.781 0.078 -0.758 0.054 -0.788 0.051 -0.763 0.036 -0.791 0.024 -0.791 0.032 -0.765 0.037 -0.766 0.025 -0.737 0.033 -0.768 0.021 -0.711 0.029 -0.687 0.019 -0.632 0.026 -0.582 0.018 -0.529 0.012 -0.48 0.008 -0.404 0.006 -0.355 0.001 -0.307 -0.002 -0.234 -0.005 -0.211 -0.006 -0.095 -0.018 -0.196 -0.009 -0.064 -0.011 -0.062 -0.013 -0.06 -0.022 -0.077 -0.058 -0.143 -0.06 -0.093 -0.076 -0.06 -0.096 -0.002 -0.098 0.07 -0.105 0.143 -0.103 0.21 -0.405 0.828" />
    <path class="write-stroke-pen" fill="none" stroke="#FFFFFF" stroke-width="1.2" stroke-linecap="round" stroke-linejoin="round" __comx="119.655" __comy="49.738" __timestamp="0x17a503850ed" d="M119.017 49.752 l0 -0.001 0 -0.002 0.002 -0.005 0.003 -0.007 0.005 -0.008 0.005 -0.011 0.008 -0.016 0.006 -0.015 0.008 -0.016 0.008 -0.019 0.011 -0.025 0.009 -0.023 0.008 -0.024 0.012 -0.031 0.01 -0.028 0.009 -0.03 0.01 -0.029 0.01 -0.032 0.01 -0.033 0.01 -0.035 0.009 -0.036 0.009 -0.038 0.009 -0.039 0.008 -0.04 0.008 -0.042 0.005 -0.028 0.007 -0.044 0.005 -0.029 0.005 -0.03 0.005 -0.03 0.004 -0.034 0.004 -0.035 0.002 -0.056 0 -0.044 -0.001 -0.03 -0.005 -0.055 -0.007 -0.044 -0.009 -0.042 -0.017 -0.054 -0.021 -0.052 -0.059 -0.091 -0.032 -0.04 -0.119 -0.074 -0.09 -0.036 -0.155 -0.008 -0.145 0.025 -0.172 0.062 -0.189 0.099 -0.205 0.137 -0.218 0.177 -0.208 0.196 -0.216 0.233 -0.189 0.25 -0.237 0.328 -0.178 0.3 -0.216 0.374 -0.154 0.323 -0.149 0.363 -0.141 0.398 -0.128 0.43 -0.106 0.437 -0.089 0.444 -0.067 0.423 -0.053 0.427 -0.028 0.436 0.029 0.464 0.033 0.379 0.099 0.43 0.116 0.386 0.137 0.346 0.173 0.35 0.175 0.291 0.199 0.252 0.223 0.227 0.259 0.211 0.274 0.176 0.312 0.154 0.379 0.095 0.383 0.024 0.446 -0.048 0.428 -0.117 0.481 -0.202 0.484 -0.265 0.462 -0.32 0.452 -0.385 0.427 -0.433 0.354 -0.421 0.322 -0.439 0.303 -0.474 0.222 -0.44 0.227 -0.482 0.167 -0.44 0.141 -0.452 0.105 -0.434 0.083 -0.442 0.059 -0.396 0.045 -0.375 0.029 -0.382 0.005 -0.342 -0.033 -0.344 -0.038 -0.287 -0.08 -0.309 -0.097 -0.265 -0.088 -0.179 -0.146 -0.255 -0.122 -0.164 -0.14 -0.153 -0.152 -0.141 -0.161 -0.122 -0.134 -0.087 -0.144 -0.076 -0.154 -0.064 -0.17 -0.04 -0.189 -0.029 -0.183 0.005 -0.194 0.031 -0.154 0.053 -0.15 0.078 -0.147 0.109 -0.14 0.142 -0.111 0.147 -0.089 0.147 -0.081 0.179 -0.053 0.154 -0.044 0.184 -0.014 0.213 -0.001 0.153 0.035 0.198 0.056 0.192 0.055 0.129 0.513 1.196" />
    <path class="write-stroke-pen" fill="none" stroke="#FFFFFF" stroke-width="1.2" stroke-linecap="round" stroke-linejoin="round" __comx="130.667" __comy="49.738" __timestamp="0x17a50385298" d="M125.604 49.009 l0 -0.003 0 -0.025 0 -0.007 0 -0.008 0 -0.009 0 -0.01 0.001 -0.01 0.002 -0.01 0.004 -0.009 0.005 -0.01 0.013 -0.013 0.015 -0.007 0.033 0.011 0.017 0.01 0.046 0.051 0.045 0.066 0.087 0.124 0.073 0.136 0.08 0.177 0.084 0.216 0.12 0.282 0.102 0.289 0.098 0.311 0.093 0.327 0.141 0.421 0.105 0.365 0.105 0.403 0.094 0.387 0.09 0.393 0.077 0.37 0.072 0.375 0.061 0.328 0.055 0.306 0.054 0.309 0.039 0.257 0.028 0.209 0.025 0.211 0.01 0.091 0.021 0.213 0.004 0.045 0.006 0.069 0.002 0.023 0.002 0.023 0.006 0.064 0.013 0.141 0.004 0.049 0.005 0.107 0.001 0.066 -0.001 0.043 -0.004 0.011 -0.011 -0.031 -0.018 -0.077 -0.024 -0.126 -0.027 -0.189 -0.027 -0.227 -0.029 -0.296 -0.022 -0.304 -0.023 -0.327 -0.018 -0.344 -0.015 -0.359 -0.011 -0.346 -0.009 -0.331 0.001 -0.365 0.014 -0.349 0.024 -0.353 0.07 -0.391 0.06 -0.324 0.11 -0.379 0.127 -0.377 0.1 -0.318 0.166 -0.405 0.146 -0.327 0.156 -0.317 0.156 -0.273 0.17 -0.265 0.187 -0.257 0.154 -0.179 0.233 -0.26 0.203 -0.187 0.177 -0.142 0.206 -0.143 0.211 -0.123 0.241 -0.113 0.255 -0.089 0.312 -0.054 0.243 -0.022 0.348 0.034 0.278 0.063 0.298 0.116 0.298 0.164 0.336 0.247 0.305 0.278 0.288 0.32 0.279 0.367 0.219 0.367 0.228 0.414 0.19 0.425 0.15 0.392 0.141 0.428 0.157 0.441 0.108 0.383 0.103 0.395 0.082 0.347 0.077 0.351 0.063 0.304 0.053 0.304 0.046 0.26 0.033 0.208 0.035 0.215 0.014 0.091 0.032 0.236 0.013 0.082 0.026 0.187 0.01 0.064 0.015 0.081 0.016 0.081 0.013 0.067 0.017 0.081 0.009 0.045 0.011 0.049 0.409 1.752" />
    <path class="write-stroke-pen" fill="none" stroke="#FFFFFF" stroke-width="1.2" stroke-linecap="round" stroke-linejoin="round" __comx="143.245" __comy="49.738" __timestamp="0x17a50385383" d="M139.667 49.232 l0 -0.001 0.002 -0.003 0.024 -0.014 0.013 -0.008 0.072 -0.029 0.064 -0.018 0.079 -0.022 0.088 -0.019 0.113 -0.019 0.14 -0.019 0.17 -0.018 0.202 -0.017 0.195 -0.014 0.226 -0.013 0.257 -0.012 0.245 -0.01 0.322 -0.01 0.354 -0.009 0.337 -0.007 0.368 -0.006 0.323 -0.004 0.301 -0.003 0.33 -0.003 0.307 -0.002 0.309 -0.002 0.286 0.002 0.236 0.001 1.792 0.01" />
    <path class="write-stroke-pen" fill="none" stroke="#FFFFFF" stroke-width="1.2" stroke-linecap="round" stroke-linejoin="round" __comx="170.811" __comy="49.738" __timestamp="0x17a503856f1" d="M163.387 44.75 l0 0 -0.001 0 -0.001 0 -0.002 0.004 -0.005 0.04 0.003 0.05 0.012 0.075 0.04 0.114 0.036 0.113 0.045 0.147 0.08 0.207 0.084 0.247 0.116 0.285 0.112 0.32 0.18 0.421 0.147 0.413 0.227 0.542 0.212 0.51 0.222 0.543 0.222 0.55 0.222 0.555 0.215 0.534 0.225 0.561 0.169 0.508 0.215 0.55 0.153 0.459 0.168 0.454 0.128 0.39 0.106 0.346 0.121 0.341 0.087 0.292 0.069 0.233 0.058 0.189 0.025 0.077 0.032 0.096 0.027 0.077 0.017 0.047 0.008 0.021 0.022 0.058 0.062 0.139 0.049 0.093 0.06 0.078 0.053 0.034 0.05 -0.013 0.042 -0.068 0.025 -0.125 0.016 -0.165 0.001 -0.22 -0.018 -0.273 -0.027 -0.279 -0.07 -0.334 -0.059 -0.309 -0.088 -0.336 -0.087 -0.357 -0.084 -0.369 -0.088 -0.383 -0.084 -0.386 -0.078 -0.368 -0.084 -0.447 -0.068 -0.424 -0.062 -0.455 -0.047 -0.431 -0.026 -0.41 -0.012 -0.412 0.004 -0.365 0.049 -0.437 0.039 -0.331 0.102 -0.423 0.113 -0.384 0.132 -0.37 0.149 -0.365 0.193 -0.397 0.187 -0.337 0.2 -0.309 0.231 -0.311 0.249 -0.286 0.232 -0.244 0.211 -0.188 0.276 -0.243 0.226 -0.172 0.291 -0.213 0.278 -0.163 0.295 -0.152 0.274 -0.117 0.305 -0.106 0.336 -0.095 0.318 -0.07 0.353 -0.051 0.413 0 0.394 0.044 0.422 0.089 0.449 0.136 0.424 0.174 0.381 0.188 0.381 0.227 0.352 0.245 0.338 0.273 0.325 0.293 0.314 0.309 0.28 0.295 0.287 0.315 0.258 0.302 0.24 0.292 0.226 0.288 0.176 0.26 0.982 1.447" />
    <path class="write-stroke-pen" fill="none" stroke="#FFFFFF" stroke-width="1.2" stroke-linecap="round" stroke-linejoin="round" __comx="181.788" __comy="49.738" __timestamp="0x17a503858d1" d="M179.308 51.262 l0 -0.001 0 -0.002 0 -0.004 0 -0.005 0.001 -0.005 0.003 -0.008 0.006 -0.008 0.009 -0.008 0.007 -0.005 0.015 -0.011 0.015 -0.009 0.057 -0.027 0.02 -0.01 0.074 -0.033 0.025 -0.012 0.098 -0.037 0.04 -0.016 0.147 -0.051 0.116 -0.038 0.14 -0.044 0.149 -0.044 0.161 -0.049 0.226 -0.086 0.182 -0.059 0.197 -0.063 0.258 -0.104 0.198 -0.074 0.235 -0.104 0.207 -0.087 0.268 -0.131 0.189 -0.088 0.326 -0.184 0.262 -0.16 0.26 -0.17 0.299 -0.212 0.25 -0.191 0.246 -0.2 0.174 -0.164 0.242 -0.23 0.176 -0.194 0.15 -0.185 0.188 -0.233 0.128 -0.187 0.121 -0.198 0.085 -0.157 0.077 -0.161 0.069 -0.165 0.025 -0.064 0.073 -0.241 0.024 -0.102 0.025 -0.27 0.004 -0.084 -0.013 -0.164 -0.041 -0.218 -0.061 -0.169 -0.095 -0.172 -0.131 -0.169 -0.167 -0.155 -0.225 -0.15 -0.27 -0.128 -0.342 -0.099 -0.457 -0.04 -0.47 -0.006 -0.529 0.067 -0.549 0.116 -0.539 0.155 -0.514 0.194 -0.477 0.224 -0.424 0.244 -0.449 0.317 -0.383 0.326 -0.412 0.429 -0.37 0.439 -0.338 0.482 -0.308 0.505 -0.207 0.422 -0.225 0.487 -0.166 0.467 -0.117 0.403 -0.098 0.437 -0.07 0.392 -0.02 0.411 0.023 0.408 0.068 0.404 0.108 0.388 0.145 0.373 0.179 0.358 0.194 0.314 0.217 0.302 0.27 0.306 0.256 0.233 0.345 0.28 0.347 0.219 0.369 0.191 0.405 0.164 0.418 0.129 0.454 0.107 0.44 0.07 0.477 0.014 0.419 0 0.466 -0.049 0.423 -0.05 0.453 -0.109 0.355 -0.106 0.385 -0.137 0.34 -0.14 0.31 -0.151 1.535 -0.745" />
    <path class="write-stroke-pen" fill="none" stroke="#FFFFFF" stroke-width="1.2" stroke-linecap="round" stroke-linejoin="round" __comx="195.513" __comy="49.738" __timestamp="0x17a50385c8a" d="M201.741 48.811 l-0.003 -0.041 -0.002 -0.05 -0.006 -0.09 -0.004 -0.088 -0.007 -0.116 -0.005 -0.116 -0.01 -0.13 -0.015 -0.14 -0.022 -0.153 -0.025 -0.143 -0.03 -0.149 -0.017 -0.072 -0.053 -0.198 -0.025 -0.077 -0.084 -0.203 -0.028 -0.061 -0.105 -0.201 -0.034 -0.061 -0.131 -0.178 -0.108 -0.128 -0.113 -0.116 -0.152 -0.126 -0.145 -0.1 -0.191 -0.109 -0.222 -0.103 -0.254 -0.092 -0.315 -0.078 -0.366 -0.029 -0.353 -0.004 -0.439 0.056 -0.407 0.082 -0.406 0.117 -0.446 0.168 -0.412 0.195 -0.397 0.228 -0.416 0.275 -0.356 0.272 -0.343 0.293 -0.358 0.344 -0.305 0.337 -0.228 0.305 -0.272 0.383 -0.176 0.3 -0.16 0.315 -0.137 0.302 -0.121 0.306 -0.105 0.31 -0.086 0.292 -0.073 0.295 -0.062 0.299 -0.043 0.281 -0.03 0.283 -0.019 0.285 -0.005 0.243 0.004 0.243 0.032 0.275 0.024 0.185 0.051 0.209 0.028 0.103 0.092 0.25 0.025 0.061 0.102 0.181 0.091 0.129 0.104 0.115 0.132 0.111 0.197 0.098 0.162 0.057 0.286 0.013 0.201 -0.025 0.24 -0.07 0.251 -0.119 0.234 -0.144 0.232 -0.177 0.238 -0.216 0.219 -0.224 0.227 -0.258 0.179 -0.246 0.245 -0.337 0.166 -0.268 0.201 -0.322 0.139 -0.26 0.131 -0.272 0.152 -0.297 0.099 -0.228 0.091 -0.219 0.077 -0.196 0.03 -0.074 0.068 -0.176 0.016 -0.041 0.023 -0.058 0.016 -0.041 0.017 -0.04 0.008 -0.019 0.008 -0.019 0.024 -0.053 0.03 -0.062 0.056 -0.097 0.057 -0.075 0.057 -0.045 0.055 -0.014 0.065 0.026 0.063 0.064 0.066 0.098 0.072 0.139 0.111 0.195 0.09 0.201 0.121 0.253 0.107 0.261 0.144 0.316 0.129 0.333 0.203 0.453 0.157 0.423 0.209 0.51 0.165 0.49 0.199 0.542 0.161 0.53 0.201 0.602 0.155 0.588 0.138 0.625 0.16 0.651 0.117 0.68 0.095 0.658 0.089 0.663 0.061 0.633 0.046 0.664 0.025 0.638 -0.002 0.615 -0.022 0.644 -0.073 0.665 -0.073 0.665 -0.131 0.655 -0.141 0.598 -0.163 0.561 -0.173 0.509 -0.187 0.469 -0.21 0.453 -0.214 0.405 -0.244 0.409 -0.244 0.365 -0.273 0.349 -0.302 0.333 -0.346 0.291 -0.399 0.297 -0.405 0.231 -0.449 0.199 -0.464 0.159 -0.502 0.127 -0.514 0.085 -0.55 0.049 -0.568 -0.026 -0.572 -0.071 -0.546 -0.1 -0.546 -0.125 -0.504 -0.141 -0.487 -0.164 -0.406 -0.155 -0.382 -0.161 -0.318 -0.151 -0.29 -0.158 -0.241 -0.142 -0.191 -0.137 -0.155 -0.125 -0.14 -0.127 -0.141 -0.147 -0.113 -0.134 -0.102 -0.139 -0.103 -0.164 -0.08 -0.16 -0.076 -0.247 -0.041 -0.184 -0.01 -0.306 0.034 -0.288 0.077 -0.297 0.135 -0.334 0.183 -0.339 0.258 -0.368 0.318 -0.378 0.366 -0.376 0.456 -0.41 0.461 -0.382 0.486 -0.386 1.291 -1.027" />
    <path class="write-stroke-pen" fill="none" stroke="#FFFFFF" stroke-width="1.2" stroke-linecap="round" stroke-linejoin="round" __comx="212.634" __comy="49.738" __timestamp="0x17a50385e72" d="M205.257 46.211 l0 0 -0.001 0 -0.001 0 -0.001 0 0.001 0.001 0.003 0.003 0.008 0.007 0.008 0.009 0.013 0.014 0.032 0.046 0.048 0.049 0.051 0.08 0.023 0.035 0.067 0.121 0.052 0.1 0.054 0.11 0.095 0.167 0.075 0.167 0.073 0.183 0.081 0.234 0.082 0.268 0.081 0.303 0.071 0.335 0.075 0.397 0.07 0.407 0.072 0.466 0.067 0.472 0.054 0.502 0.056 0.535 0.044 0.562 0.045 0.566 0.048 0.594 0.045 0.54 0.046 0.541 0.051 0.517 0.049 0.438 0.096 0.504 0.076 0.407 0.068 0.359 0.11 0.397 0.072 0.275 0.092 0.262 0.039 0.104 0.131 0.25 0.094 0.148 0.131 0.16 0.164 0.151 0.222 0.128 0.271 0.077 0.3 0.009 0.337 -0.073 0.372 -0.163 0.4 -0.265 0.411 -0.348 0.436 -0.438 0.418 -0.5 0.407 -0.557 0.395 -0.621 0.351 -0.613 0.346 -0.638 0.308 -0.609 0.287 -0.612 0.265 -0.615 0.238 -0.574 0.191 -0.577 0.221 -0.606 0.155 -0.507 0.167 -0.516 0.12 -0.438 0.096 -0.372 0.077 -0.323 0.068 -0.302 0.049 -0.252 0.035 -0.206 0.028 -0.183 0.01 -0.067 0.028 -0.236 0.006 -0.08 0.002 -0.097 -0.002 -0.076 -0.007 -0.081 -0.011 -0.077 -0.019 -0.087 -0.069 -0.157 -0.026 -0.047 -0.075 -0.075 -0.072 -0.029 -0.115 0.015 -0.089 0.052 -0.101 0.109 -0.097 0.147 -0.094 0.193 -0.086 0.224 -0.08 0.267 -0.07 0.29 -0.057 0.309 -0.047 0.324 -0.03 0.34 -0.01 0.329 0.004 0.337 0.047 0.387 0.047 0.34 0.094 0.4 0.073 0.316 0.134 0.412 0.138 0.361 0.145 0.348 0.156 0.337 0.181 0.339 0.19 0.314 0.21 0.303 0.194 0.251 0.175 0.19 0.175 0.169 0.198 0.166 0.224 0.16 0.231 0.136 0.24 0.117 0.3 0.106 0.306 0.051 0.214 0.021 0.33 -0.031 0.244 -0.056 0.264 -0.102 0.203 -0.116 0.282 -0.201 1.19 -0.849" />
    <path class="write-stroke-pen" fill="none" stroke="#FFFFFF" stroke-width="1.2" stroke-linecap="round" stroke-linejoin="round" __comx="222.577" __comy="49.738" __timestamp="0x17a50385f5b" d="M220.98 35.886 l0 0.003 0 0.051 0 0.095 0 0.183 0 0.245 0.011 0.345 0.021 0.407 0.038 0.513 0.042 0.564 0.058 0.693 0.064 0.735 0.071 0.801 0.077 0.891 0.078 0.92 0.077 0.918 0.08 1.004 0.081 1.056 0.08 1.079 0.079 1.102 0.073 1.01 0.071 0.955 0.114 0.889 0.083 0.79 0.116 0.736 0.094 0.666 0.11 0.564 0.086 0.465 0.123 0.434 0.118 0.351 0.107 0.27 0.107 0.231 0.03 0.06 0.132 0.195 0.035 0.049 0.938 1.282" />
    <path class="write-stroke-pen" fill="none" stroke="#FFFFFF" stroke-width="1.2" stroke-linecap="round" stroke-linejoin="round" __comx="235.007" __comy="49.738" __timestamp="0x17a503862a0" d="M237.123 49.009 l0 -0.019 0 -0.006 -0.003 -0.063 -0.003 -0.022 -0.01 -0.075 -0.005 -0.023 -0.014 -0.081 -0.004 -0.023 -0.007 -0.034 -0.021 -0.113 -0.006 -0.027 -0.024 -0.127 -0.006 -0.031 -0.009 -0.045 -0.027 -0.142 -0.007 -0.034 -0.026 -0.134 -0.007 -0.036 -0.031 -0.161 -0.008 -0.038 -0.012 -0.055 -0.012 -0.056 -0.031 -0.152 -0.008 -0.035 -0.021 -0.076 -0.019 -0.065 -0.022 -0.064 -0.024 -0.064 -0.034 -0.078 -0.074 -0.129 -0.009 -0.015 -0.087 -0.115 -0.045 -0.053 -0.149 -0.131 -0.153 -0.1 -0.187 -0.084 -0.27 -0.056 -0.27 -0.011 -0.298 0.027 -0.344 0.074 -0.352 0.121 -0.369 0.163 -0.399 0.209 -0.45 0.28 -0.443 0.309 -0.448 0.346 -0.407 0.347 -0.383 0.356 -0.379 0.364 -0.357 0.37 -0.324 0.354 -0.292 0.345 -0.271 0.347 -0.203 0.303 -0.24 0.371 -0.159 0.289 -0.156 0.325 -0.12 0.283 -0.105 0.286 -0.093 0.291 -0.073 0.271 -0.058 0.25 -0.043 0.261 -0.009 0.284 0.003 0.209 0.046 0.291 0.047 0.176 0.091 0.252 0.104 0.197 0.128 0.185 0.174 0.185 0.213 0.168 0.215 0.132 0.254 0.114 0.322 0.075 0.323 0.045 0.414 -0.016 0.441 -0.064 0.434 -0.104 0.435 -0.149 0.432 -0.182 0.42 -0.212 0.434 -0.245 0.423 -0.267 0.364 -0.26 0.372 -0.287 0.319 -0.273 0.309 -0.288 0.288 -0.29 0.268 -0.292 0.247 -0.294 0.239 -0.294 0.236 -0.308 0.174 -0.262 0.202 -0.297 0.136 -0.242 0.117 -0.231 0.099 -0.214 0.094 -0.237 0.061 -0.172 0.021 -0.063 0.059 -0.199 0.006 -0.021 0.014 -0.059 0.015 -0.074 0.011 -0.079 0.005 -0.057 -0.01 -0.158 -0.007 -0.056 -0.037 -0.119 -0.036 -0.084 -0.027 -0.041 -0.059 -0.039 -0.051 -0.004 -0.054 0.021 -0.067 0.059 -0.073 0.097 -0.074 0.136 -0.07 0.178 -0.067 0.223 -0.056 0.247 -0.043 0.248 -0.039 0.285 -0.021 0.327 -0.004 0.317 0.01 0.326 0.063 0.378 0.054 0.305 0.101 0.369 0.113 0.344 0.083 0.263 0.151 0.358 0.14 0.291 0.139 0.253 0.143 0.233 0.142 0.193 0.169 0.215 0.154 0.164 0.145 0.132 0.152 0.117 0.179 0.116 0.247 0.101 0.253 0.056 0.295 0.01 0.315 -0.052 1.341 -0.224" />
    <path class="write-stroke-pen" fill="none" stroke="#FFFFFF" stroke-width="1.2" stroke-linecap="round" stroke-linejoin="round" __comx="249.974" __comy="49.738" __timestamp="0x17a5038640e" d="M244.947 51.411 l0 0.041 0 0.076 0 0.157 0 0.184 0 0.182 0.011 0.208 0.017 0.222 0.012 0.195 0.016 0.188 0.012 0.171 0.015 0.16 0.007 0.077 0.02 0.187 0.006 0.043 0.011 0.07 0.008 0.042 0.008 0.037 0.009 0.036 0.014 0.048 0.015 0.046 0.052 0.116 0.042 0.064 0.057 0.042 0.059 0.004 0.068 -0.044 0.069 -0.096 0.075 -0.162 0.075 -0.206 0.074 -0.257 0.078 -0.31 0.079 -0.379 0.076 -0.427 0.067 -0.425 0.068 -0.49 0.061 -0.478 0.067 -0.516 0.066 -0.496 0.065 -0.476 0.093 -0.458 0.07 -0.372 0.067 -0.355 0.105 -0.372 0.082 -0.3 0.115 -0.334 0.091 -0.274 0.144 -0.338 0.083 -0.201 0.164 -0.311 0.131 -0.225 0.048 -0.08 0.21 -0.291 0.133 -0.156 0.177 -0.173 0.171 -0.144 0.157 -0.113 0.184 -0.112 0.171 -0.089 0.219 -0.097 0.204 -0.077 0.233 -0.072 0.218 -0.052 0.268 -0.047 0.253 -0.028 0.255 -0.015 0.281 -0.003 0.337 0.013 0.328 0.043 0.329 0.048 0.402 0.091 0.302 0.069 0.369 0.116 0.322 0.096 0.344 0.13 1.614 0.611" />
    <path class="write-stroke-pen" fill="none" stroke="#FFFFFF" stroke-width="1.2" stroke-linecap="round" stroke-linejoin="round" __comx="286.351" __comy="49.738" __timestamp="0x17a503866e5" d="M288.748 47.573 l0.004 -0.004 0.041 -0.037 0.044 -0.027 0.02 -0.014 0.071 -0.039 0.022 -0.013 0.03 -0.018 0.038 -0.024 0.033 -0.023 0.033 -0.025 0.076 -0.072 0.026 -0.025 0.069 -0.084 0.016 -0.021 0.061 -0.098 0.014 -0.024 0.054 -0.109 0.013 -0.03 0.041 -0.123 0.014 -0.052 0.013 -0.175 0.001 -0.053 -0.005 -0.074 -0.051 -0.213 -0.054 -0.132 -0.082 -0.135 -0.154 -0.169 -0.168 -0.132 -0.244 -0.135 -0.271 -0.111 -0.336 -0.101 -0.406 -0.078 -0.452 -0.047 -0.506 0.023 -0.543 0.069 -0.532 0.107 -0.512 0.132 -0.545 0.168 -0.539 0.202 -0.48 0.202 -0.508 0.252 -0.45 0.265 -0.419 0.282 -0.4 0.316 -0.391 0.379 -0.362 0.407 -0.306 0.408 -0.238 0.405 -0.224 0.405 -0.167 0.382 -0.132 0.371 -0.107 0.38 -0.082 0.362 -0.059 0.371 -0.009 0.422 0.033 0.407 0.086 0.436 0.126 0.427 0.167 0.432 0.223 0.441 0.264 0.42 0.317 0.412 0.362 0.375 0.414 0.356 0.388 0.26 0.483 0.288 0.492 0.221 0.537 0.185 0.603 0.154 0.614 0.111 0.677 0.086 0.63 0.037 0.655 -0.029 0.577 -0.038 0.618 -0.098 0.572 -0.119 0.597 -0.144 0.578 -0.162 0.576 -0.178 0.533 -0.186 0.515 -0.205 1.577 -0.626" />
    <path class="write-stroke-pen" fill="none" stroke="#FFFFFF" stroke-width="1.2" stroke-linecap="round" stroke-linejoin="round" __comx="301.819" __comy="49.738" __timestamp="0x17a50386901" d="M297.365 47.845 l0 -0.019 -0.001 -0.006 -0.005 -0.047 -0.001 -0.011 -0.003 -0.02 -0.009 -0.065 -0.003 -0.018 -0.003 -0.019 -0.004 -0.02 -0.005 -0.021 -0.005 -0.022 -0.003 -0.009 -0.009 -0.028 -0.012 -0.029 -0.009 -0.018 -0.01 -0.018 -0.02 -0.029 -0.033 -0.034 -0.074 -0.045 -0.071 -0.019 -0.05 -0.005 -0.106 0.028 -0.122 0.056 -0.096 0.07 -0.119 0.129 -0.126 0.175 -0.123 0.217 -0.127 0.266 -0.11 0.266 -0.098 0.282 -0.101 0.341 -0.086 0.355 -0.073 0.391 -0.061 0.427 -0.046 0.411 -0.029 0.446 -0.012 0.451 0.006 0.432 0.054 0.474 0.046 0.4 0.085 0.425 0.066 0.327 0.1 0.357 0.065 0.23 0.13 0.321 0.088 0.175 0.138 0.215 0.137 0.176 0.164 0.171 0.157 0.134 0.206 0.141 0.225 0.114 0.291 0.078 0.281 0.024 0.295 -0.023 0.335 -0.079 0.368 -0.152 0.368 -0.219 0.352 -0.265 0.365 -0.324 0.352 -0.363 0.35 -0.408 0.329 -0.4 0.3 -0.405 0.289 -0.408 0.253 -0.379 0.246 -0.401 0.216 -0.367 0.173 -0.343 0.193 -0.384 0.156 -0.355 0.141 -0.362 0.159 -0.367 0.12 -0.313 0.099 -0.275 0.096 -0.278 0.079 -0.234 0.072 -0.212 0.027 -0.078 0.022 -0.065 0.021 -0.065 0.02 -0.065 0.014 -0.049 0.018 -0.078 0.012 -0.062 0.011 -0.154 0.001 -0.036 -0.001 -0.053 -0.006 -0.068 -0.01 -0.064 -0.018 -0.068 -0.04 -0.091 -0.026 -0.042 -0.069 -0.053 -0.052 -0.014 -0.065 0.015 -0.066 0.043 -0.079 0.086 -0.079 0.127 -0.08 0.171 -0.08 0.216 -0.066 0.222 -0.055 0.242 -0.043 0.238 -0.03 0.253 -0.018 0.263 -0.007 0.25 0.004 0.26 0.035 0.286 0.033 0.26 0.066 0.283 0.053 0.219 0.115 0.307 0.109 0.236 0.136 0.244 0.14 0.197 0.177 0.203 0.19 0.18 0.221 0.171 0.214 0.137 0.267 0.136 0.28 0.114 0.293 0.089 0.329 0.068 0.401 0.011 0.322 -0.027 0.302 -0.054 1.542 -0.274" />
    <path class="write-stroke-pen" fill="none" stroke="#FFFFFF" stroke-width="1.2" stroke-linecap="round" stroke-linejoin="round" __comx="315.463" __comy="49.738" __timestamp="0x17a50386a6b" d="M310.636 51.831 l0 0.019 -0.006 0.051 -0.018 0.106 -0.027 0.139 -0.026 0.163 -0.024 0.17 -0.028 0.19 -0.027 0.203 -0.02 0.176 -0.019 0.204 -0.015 0.192 -0.013 0.198 -0.01 0.161 -0.009 0.164 -0.008 0.167 -0.001 0.073 -0.002 0.17 0.001 0.058 0.001 0.062 0.003 0.058 0.004 0.058 0.001 0.02 0.007 0.059 0.006 0.038 0.013 0.065 0.019 0.069 0.055 0.132 0.049 0.072 0.056 0.04 0.099 -0.002 0.075 -0.049 0.087 -0.113 0.075 -0.142 0.08 -0.206 0.079 -0.259 0.063 -0.288 0.061 -0.315 0.052 -0.356 0.041 -0.374 0.043 -0.39 0.036 -0.424 0.028 -0.434 0.022 -0.441 0.018 -0.447 0.015 -0.479 0.011 -0.482 0.009 -0.458 0.016 -0.411 0.021 -0.386 0.027 -0.34 0.035 -0.341 0.039 -0.317 0.064 -0.316 0.052 -0.258 0.088 -0.304 0.052 -0.182 0.097 -0.262 0.068 -0.184 0.104 -0.209 0.125 -0.223 0.1 -0.149 0.124 -0.155 0.151 -0.158 0.163 -0.145 0.188 -0.137 0.179 -0.109 0.208 -0.106 0.198 -0.08 0.23 -0.069 0.214 -0.046 0.246 -0.031 0.272 -0.015 0.275 0.002 0.314 0.034 0.247 0.033 0.327 0.074 0.247 0.058 0.358 0.115 0.329 0.122 0.288 0.122 0.309 0.153 0.286 0.162 0.291 0.194 0.279 0.211 0.27 0.226 0.262 0.246 0.238 0.242 0.244 0.268 0.196 0.263 0.2 0.273 1.024 1.398" />
    <path class="write-stroke-pen" fill="none" stroke="#FFFFFF" stroke-width="1.2" stroke-linecap="round" stroke-linejoin="round" __comx="324.526" __comy="49.738" __timestamp="0x17a50386bc1" d="M319.971 46.409 l0 -0.019 0 -0.009 0 -0.049 0 -0.011 0 -0.012 0.001 -0.013 0.003 -0.014 0.01 -0.018 0.026 -0.006 0.053 0.02 0.048 0.045 0.056 0.08 0.106 0.151 0.097 0.184 0.14 0.26 0.12 0.294 0.152 0.37 0.127 0.369 0.121 0.414 0.174 0.517 0.126 0.46 0.164 0.532 0.132 0.528 0.15 0.539 0.125 0.516 0.144 0.522 0.116 0.47 0.136 0.478 0.094 0.369 0.132 0.42 0.085 0.296 0.1 0.282 0.068 0.201 0.098 0.21 0.047 0.097 0.117 0.187 0.025 0.039 0.103 0.13 0.054 0.06 0.234 0.149 0.136 0.051 0.252 0.009 0.212 -0.074 0.298 -0.202 0.284 -0.293 0.295 -0.413 0.277 -0.456 0.265 -0.527 0.197 -0.518 0.283 -0.64 0.243 -0.615 0.233 -0.612 0.24 -0.692 0.173 -0.629 0.195 -0.666 0.153 -0.641 0.177 -0.588 0.127 -0.486 0.162 -0.511 0.112 -0.411 0.134 -0.427 0.101 -0.367 0.082 -0.322 0.076 -0.305 0.066 -0.26 0.062 -0.238 0.089 -0.27 0.026 -0.076 0.067 -0.224 0.024 -0.077 0.057 -0.184 0.013 -0.043 0.516 -1.716" />
    <path class="write-stroke-pen" fill="none" stroke="#FFFFFF" stroke-width="1.2" stroke-linecap="round" stroke-linejoin="round" __comx="334.168" __comy="49.738" __timestamp="0x17a50386d6f" d="M331.137 48.439 l0 0 0 0.001 0 0.001 0 0.005 0.002 0.007 0.003 0.008 0.006 0.01 0.035 0.028 0.01 0.008 0.062 0.032 0.023 0.011 0.085 0.033 0.086 0.026 0.097 0.024 0.106 0.021 0.148 0.024 0.162 0.016 0.172 0.008 0.204 -0.002 0.297 -0.042 0.258 -0.041 0.323 -0.087 0.268 -0.07 0.339 -0.131 0.248 -0.09 0.353 -0.17 0.314 -0.163 0.307 -0.176 0.288 -0.18 0.269 -0.183 0.276 -0.213 0.253 -0.219 0.195 -0.201 0.226 -0.24 0.158 -0.197 0.138 -0.191 0.136 -0.214 0.114 -0.2 0.099 -0.202 0.071 -0.163 0.062 -0.168 0.024 -0.073 0.045 -0.18 0.014 -0.073 0.011 -0.167 0.001 -0.081 -0.032 -0.2 -0.046 -0.142 -0.074 -0.14 -0.119 -0.144 -0.175 -0.136 -0.242 -0.113 -0.328 -0.065 -0.394 -0.037 -0.466 0.038 -0.465 0.082 -0.508 0.129 -0.468 0.162 -0.469 0.195 -0.43 0.221 -0.428 0.269 -0.407 0.314 -0.372 0.338 -0.353 0.374 -0.333 0.409 -0.312 0.444 -0.27 0.434 -0.203 0.401 -0.206 0.419 -0.147 0.368 -0.119 0.378 -0.091 0.361 -0.062 0.373 -0.011 0.42 0.029 0.383 0.061 0.381 0.094 0.389 0.126 0.367 0.154 0.358 0.18 0.346 0.201 0.317 0.223 0.304 0.221 0.239 0.308 0.292 0.311 0.228 0.376 0.214 0.418 0.176 0.485 0.149 0.503 0.097 0.584 0.009 0.533 -0.044 0.551 -0.098 0.59 -0.159 0.571 -0.201 0.551 -0.254 1.477 -0.682" />
    <path class="write-stroke-pen" fill="none" stroke="#FFFFFF" stroke-width="1.2" stroke-linecap="round" stroke-linejoin="round" __comx="346.135" __comy="49.738" __timestamp="0x17a50386f12" d="M347.132 41.086 l-0.023 0 -0.037 0 -0.081 0 -0.105 0.003 -0.115 0.008 -0.13 0.013 -0.144 0.018 -0.177 0.027 -0.19 0.033 -0.2 0.039 -0.235 0.051 -0.257 0.078 -0.2 0.06 -0.27 0.114 -0.168 0.073 -0.183 0.105 -0.096 0.058 -0.178 0.131 -0.133 0.112 -0.067 0.06 -0.153 0.168 -0.038 0.045 -0.117 0.166 -0.032 0.049 -0.087 0.167 -0.05 0.142 -0.043 0.161 -0.015 0.165 -0.004 0.147 0.031 0.184 0.049 0.15 0.069 0.144 0.084 0.132 0.124 0.149 0.144 0.139 0.174 0.135 0.208 0.128 0.226 0.117 0.218 0.095 0.253 0.096 0.241 0.083 0.271 0.084 0.279 0.079 0.313 0.085 0.294 0.078 0.338 0.109 0.296 0.091 0.339 0.121 0.303 0.106 0.363 0.151 0.292 0.135 0.301 0.155 0.278 0.158 0.24 0.151 0.173 0.129 0.248 0.197 0.168 0.158 0.188 0.209 0.166 0.218 0.138 0.209 0.128 0.235 0.102 0.222 0.089 0.258 0.059 0.247 0.018 0.308 -0.017 0.278 -0.055 0.283 -0.099 0.289 -0.132 0.278 -0.199 0.308 -0.209 0.24 -0.271 0.276 -0.27 0.215 -0.327 0.241 -0.349 0.206 -0.394 0.219 -0.424 0.186 -0.391 0.142 -0.427 0.129 -0.409 0.102 -0.416 0.081 -0.396 0.062 -0.352 0.037 -0.359 0.018 -0.336 0.002 -0.332 -0.031 -0.251 -0.02 -0.239 -0.026 -0.24 -0.032 -0.188 -0.027 -0.195 -0.033 -0.08 -0.015 -0.093 -0.021 -0.092 -0.023 -0.189 -0.066 -1.617 -0.564" />
    <path class="write-stroke-pen" fill="none" stroke="#FFFFFF" stroke-width="1.2" stroke-linecap="round" stroke-linejoin="round" __comx="364.706" __comy="49.738" __timestamp="0x17a50387467" d="M364.789 56.387 l-0.019 0 -0.014 0.001 -0.062 0.012 -0.027 0.008 -0.029 0.012 -0.032 0.017 -0.027 0.016 -0.023 0.016 -0.014 0.011 -0.016 0.014 -0.007 0.006 -0.007 0.007 -0.007 0.007 -0.021 0.021 -0.039 0.027 -0.014 0.019 -0.006 -0.026 0.036 -0.07 0.039 -0.102 0.108 -0.219 0.379 -0.769" />
    <path class="write-stroke-pen" fill="none" stroke="#FFFFFF" stroke-width="1.2" stroke-linecap="round" stroke-linejoin="round" __comx="366.336" __comy="49.738" __timestamp="0x17a50387519" d="M367.364 36.926 l-0.055 0 -0.072 0 -0.133 0 -0.158 0.036 -0.133 0.05 -0.159 0.085 -0.111 0.08 -0.159 0.13 -0.116 0.119 -0.098 0.12 -0.098 0.145 -0.081 0.139 -0.072 0.147 -0.058 0.137 -0.553 1.312" />
    <path class="write-stroke-pen" fill="none" stroke="#FFFFFF" stroke-width="1.2" stroke-linecap="round" stroke-linejoin="round" __comx="417.438" __comy="49.905" __timestamp="0x17a503886f8" d="M416.411 38.461 l0 0 0 0.004 0 0.054 0 0.098 0.014 0.175 0.058 0.282 0.06 0.363 0.066 0.43 0.075 0.536 0.123 0.659 0.103 0.711 0.101 0.813 0.094 0.851 0.136 0.899 0.109 0.966 0.091 1.052 0.087 1.107 0.082 1.099 0.077 1.066 0.073 1.008 0.06 0.924 0.053 0.846 0.049 0.797 0.028 0.665 0.018 0.565 0.011 0.467 0.016 0.372 0.022 0.306 0.026 0.26 0.024 0.209 0.013 0.098 0.015 0.098 0.014 0.079 0.01 0.048 0.013 0.059 0.035 0.142 0.028 0.095 0.028 0.073 0.025 0.041 0.03 0.007 0.026 -0.035 0.16 -0.216" />
    <path class="write-stroke-pen" fill="none" stroke="#FFFFFF" stroke-width="1.2" stroke-linecap="round" stroke-linejoin="round" __comx="423.468" __comy="49.905" __timestamp="0x17a5038899d" d="M415.99 40.789 l-0.014 -0.043 -0.045 -0.07 -0.074 -0.1 -0.08 -0.098 -0.031 -0.037 -0.119 -0.149 -0.064 -0.096 -0.068 -0.121 -0.069 -0.148 -0.07 -0.178 -0.061 -0.189 -0.052 -0.181 -0.05 -0.208 -0.043 -0.216 -0.032 -0.227 -0.017 -0.215 0.011 -0.265 0.017 -0.217 0.053 -0.279 0.052 -0.261 0.103 -0.324 0.12 -0.309 0.147 -0.318 0.164 -0.315 0.208 -0.332 0.251 -0.35 0.27 -0.322 0.308 -0.32 0.345 -0.317 0.342 -0.247 0.425 -0.285 0.416 -0.217 0.483 -0.196 0.471 -0.143 0.534 -0.119 0.491 -0.077 0.531 -0.039 0.563 0.026 0.504 0.041 0.546 0.095 0.475 0.109 0.506 0.142 0.465 0.158 0.461 0.178 0.478 0.214 0.428 0.218 0.444 0.26 0.379 0.255 0.35 0.266 0.323 0.282 0.295 0.292 0.21 0.252 0.266 0.334 0.18 0.29 0.169 0.328 0.145 0.362 0.118 0.373 0.095 0.382 0.076 0.416 0.044 0.401 -0.013 0.456 -0.03 0.427 -0.102 0.486 -0.127 0.438 -0.162 0.445 -0.214 0.482 -0.217 0.413 -0.245 0.398 -0.273 0.382 -0.302 0.366 -0.332 0.349 -0.351 0.332 -0.358 0.306 -0.356 0.271 -0.346 0.22 -0.393 0.241 -0.36 0.18 -0.35 0.153 -0.306 0.113 -0.288 0.093 -0.269 0.077 -0.224 0.056 -0.202 0.044 -0.205 0.04 -0.079 0.013 -0.099 0.012 -0.092 0.007 -0.077 0.003 -0.066 -0.001 -0.06 -0.003 -0.149 -0.027 -0.059 -0.014 -0.063 -0.019 -0.134 -0.081 -0.031 -0.023 -0.054 -0.081 -0.014 -0.095 0.024 -0.083 0.057 -0.083 0.085 -0.082 0.135 -0.094 0.163 -0.091 0.219 -0.095 0.243 -0.078 0.285 -0.069 0.283 -0.053 0.298 -0.044 0.334 -0.039 0.324 -0.022 0.359 -0.006 0.395 0.014 0.436 0.06 0.393 0.057 0.438 0.098 0.435 0.124 0.377 0.125 0.408 0.154 0.373 0.163 0.4 0.198 0.386 0.216 0.385 0.251 0.401 0.294 0.401 0.327 0.357 0.325 0.355 0.368 0.324 0.391 0.246 0.378 0.251 0.423 0.192 0.405 0.161 0.397 0.15 0.432 0.128 0.437 0.096 0.416 0.081 0.448 0.059 0.453 0.034 0.432 0.013 0.438 -0.031 0.446 -0.035 0.383 -0.081 0.418 -0.099 0.387 -0.12 0.373 -0.162 0.384 -0.17 0.34 -0.219 0.355 -0.246 0.324 -0.287 0.318 -0.321 0.274 -0.43 0.33 -0.473 0.279 -0.536 0.299 -0.528 0.228 -0.591 0.236 -0.604 0.191 -0.642 0.163 -0.677 0.142 -0.707 0.118 -0.682 0.087 -0.685 0.069 -0.687 0.049 -0.606 0.031 -0.584 0.009 -0.508 -0.011 -0.481 -0.064 -0.4 -0.057 -0.38 -0.097 -0.293 -0.095 -0.297 -0.123 -0.242 -0.12 -0.217 -0.137 -0.246 -0.179 -0.189 -0.176 -0.197 -0.231 -0.157 -0.228 -0.152 -0.284 -0.119 -0.301 -0.072 -0.378 -0.017 -0.394 0.042 -0.461 0.09 -0.464 0.149 -0.506 0.196 -0.513 0.27 -0.561 0.318 -0.561 0.37 -0.58 0.416 -0.601 0.931 -1.345" />
    <path class="write-stroke-pen" fill="none" stroke="#FFFFFF" stroke-width="1.2" stroke-linecap="round" stroke-linejoin="round" __comx="450.43" __comy="49.905" __timestamp="0x17a50388d1d" d="M439.957 54.679 l-0.005 0.024 -0.01 0.045 -0.017 0.084 -0.02 0.096 -0.016 0.087 -0.017 0.097 -0.008 0.05 -0.018 0.143 -0.007 0.057 -0.014 0.142 -0.004 0.047 -0.011 0.135 -0.002 0.06 -0.002 0.05 0 0.061 0.005 0.087 0.007 0.073 0.04 0.159 0.01 0.035 0.062 0.133 0.068 0.107 0.105 0.119 0.179 0.116 0.188 0.079 0.308 0.036 0.337 -0.025 0.41 -0.094 0.463 -0.167 0.531 -0.249 0.576 -0.344 0.616 -0.422 0.66 -0.511 0.675 -0.567 0.714 -0.622 0.726 -0.667 0.723 -0.696 0.676 -0.718 0.701 -0.809 0.653 -0.828 0.638 -0.866 0.588 -0.86 0.529 -0.795 0.534 -0.827 0.468 -0.761 0.46 -0.772 0.436 -0.788 0.372 -0.711 0.343 -0.69 0.328 -0.675 0.296 -0.642 0.281 -0.625 0.242 -0.587 0.222 -0.57 0.163 -0.504 0.173 -0.513 0.108 -0.408 0.087 -0.368 0.071 -0.323 0.051 -0.274 0.038 -0.254 0.02 -0.216 -0.01 -0.22 -0.022 -0.23 -0.063 -0.232 -0.066 -0.159 -0.081 -0.139 -0.122 -0.15 -0.142 -0.128 -0.192 -0.105 -0.204 -0.058 -0.258 -0.008 -0.285 0.056 -0.339 0.135 -0.374 0.224 -0.389 0.309 -0.411 0.409 -0.424 0.514 -0.41 0.575 -0.418 0.673 -0.412 0.744 -0.393 0.805 -0.377 0.89 -0.329 0.868 -0.303 0.899 -0.282 0.905 -0.248 0.85 -0.254 0.888 -0.196 0.896 -0.22 0.924 -0.161 0.898 -0.136 0.879 -0.114 0.8 -0.1 0.803 -0.066 0.805 -0.043 0.781 -0.005 0.816 0.079 0.788 0.073 0.726 0.165 0.698 0.193 0.63 0.219 0.553 0.256 0.503 0.305 0.476 0.368 0.446 0.427 0.399 0.48 0.313 0.566 0.266 0.592 0.189 0.617 0.115 0.67 0.004 0.677 -0.088 0.715 -0.175 0.726 -0.252 0.743 -0.337 0.681 -0.368 0.689 -0.43 0.633 -0.444 0.573 -0.458 0.521 -0.468 0.457 -0.464 0.372 -0.435 0.33 -0.428 0.23 -0.378 0.854 -1.405" />
    <path class="write-stroke-pen" fill="none" stroke="#FFFFFF" stroke-width="1.2" stroke-linecap="round" stroke-linejoin="round" __comx="468.311" __comy="49.905" __timestamp="0x17a5038912f" d="M465.138 56.882 l0 -0.001 0 -0.002 0 -0.006 0 -0.009 0 -0.011 0 -0.013 0 -0.016 0.002 -0.021 0.002 -0.02 0.004 -0.026 0.014 -0.074 0.006 -0.026 0.008 -0.026 0.011 -0.035 0.029 -0.095 0.015 -0.041 0.041 -0.109 0.063 -0.111 0.06 -0.112 0.074 -0.108 0.082 -0.132 0.097 -0.126 0.104 -0.152 0.149 -0.167 0.161 -0.185 0.128 -0.127 0.187 -0.179 0.162 -0.135 0.173 -0.128 0.182 -0.121 0.205 -0.12 0.211 -0.103 0.197 -0.082 0.181 -0.066 0.164 -0.053 0.063 -0.018 0.222 -0.047 0.072 -0.012 0.233 -0.007 0.07 0.001 0.161 0.022 0.091 0.018 0.159 0.054 0.074 0.03 0.174 0.102 0.123 0.096 0.122 0.124 0.118 0.154 0.103 0.169 0.094 0.202 0.066 0.206 0.047 0.235 0.014 0.313 -0.002 0.265 -0.039 0.35 -0.049 0.349 -0.105 0.414 -0.111 0.36 -0.144 0.382 -0.158 0.359 -0.186 0.368 -0.219 0.403 -0.233 0.393 -0.214 0.347 -0.232 0.358 -0.231 0.337 -0.217 0.305 -0.235 0.315 -0.219 0.283 -0.223 0.281 -0.217 0.263 -0.212 0.245 -0.218 0.242 -0.212 0.225 -0.218 0.221 -0.232 0.231 -0.208 0.204 -0.207 0.207 -0.194 0.194 -0.094 0.094 -0.207 0.21 -0.07 0.071 -0.146 0.158 -0.072 0.075 -0.148 0.141 -0.052 0.051 -0.084 0.081 -0.076 0.071 -0.061 0.057 -0.062 0.057 -0.063 0.056 -0.038 0.035 -0.024 0.022 -0.024 0.022 -0.017 0.016 -0.017 0.016 -0.046 0.046 -0.104 0.129 -0.041 0.052 -0.065 0.118 -0.018 0.036 -0.006 0.077 0.026 0.041 0.08 0.017 0.11 0.006 0.193 -0.037 0.184 -0.033 0.274 -0.091 0.247 -0.074 0.32 -0.129 0.324 -0.138 0.311 -0.115 0.402 -0.175 0.373 -0.133 0.44 -0.164 0.392 -0.113 0.407 -0.106 0.362 -0.085 0.316 -0.061 0.296 -0.048 0.326 -0.04 0.282 -0.022 0.288 -0.009 0.305 0.026 0.234 0.026 0.327 0.078 0.293 0.09 0.23 0.074 0.313 0.133 0.218 0.089 1.579 0.643" />
    <path class="write-stroke-pen" fill="none" stroke="#FFFFFF" stroke-width="1.2" stroke-linecap="round" stroke-linejoin="round" __comx="491.415" __comy="32.599" __timestamp="0x17a503899b1" d="M492.573 29.152 l0 -0.003 -0.001 -0.003 -0.002 -0.007 -0.003 -0.008 -0.001 -0.003 -0.006 -0.009 -0.002 -0.003 -0.006 -0.006 -0.003 -0.003 -0.012 -0.009 -0.009 -0.006 -0.01 -0.006 -0.018 -0.008 -0.027 -0.006 -0.036 -0.003 -0.108 0.022 -0.038 0.011 -0.126 0.059 -0.044 0.022 -0.123 0.093 -0.159 0.126 -0.122 0.117 -0.177 0.172 -0.215 0.224 -0.23 0.266 -0.259 0.341 -0.282 0.399 -0.307 0.493 -0.299 0.553 -0.315 0.633 -0.307 0.687 -0.286 0.717 -0.306 0.815 -0.286 0.859 -0.269 0.94 -0.262 1 -0.202 1.039 -0.22 1.11 -0.159 1.116 -0.14 1.204 -0.112 1.225 -0.098 1.278 -0.066 1.358 -0.033 1.318 0.007 1.375 0.113 1.351 0.163 1.286 0.189 1.258 0.236 1.214 0.298 1.199 0.318 1.112 0.391 1.064 0.46 1.001 0.463 0.881 0.503 0.79 0.539 0.72 0.562 0.636 0.599 0.551 0.669 0.506 0.671 0.405 0.675 0.29 0.704 0.229 1.491 0.484" />
    <path class="write-stroke-pen" fill="none" stroke="#FFFFFF" stroke-width="1.2" stroke-linecap="round" stroke-linejoin="round" __comx="514.366" __comy="40.619" __timestamp="0x17a5038a069" d="M518.422 40.12 l0 -0.029 0.005 -0.04 0.01 -0.065 0.016 -0.074 0.022 -0.086 0.024 -0.094 0.012 -0.041 0.043 -0.168 0.031 -0.12 0.015 -0.052 0.048 -0.182 0.016 -0.057 0.044 -0.158 0.013 -0.05 0.037 -0.164 0.008 -0.035 0.029 -0.151 0.007 -0.037 0.009 -0.059 0.008 -0.068 0.004 -0.067 0.001 -0.079 -0.017 -0.147 -0.01 -0.062 -0.04 -0.128 -0.023 -0.059 -0.093 -0.149 -0.079 -0.096 -0.103 -0.097 -0.116 -0.087 -0.146 -0.082 -0.196 -0.076 -0.234 -0.056 -0.329 -0.011 -0.34 0.031 -0.38 0.073 -0.407 0.121 -0.44 0.169 -0.452 0.21 -0.512 0.276 -0.518 0.314 -0.563 0.368 -0.588 0.407 -0.593 0.434 -0.627 0.486 -0.627 0.514 -0.626 0.541 -0.636 0.587 -0.622 0.598 -0.559 0.577 -0.497 0.564 -0.481 0.581 -0.437 0.588 -0.39 0.59 -0.346 0.591 -0.303 0.594 -0.235 0.609 -0.191 0.602 -0.15 0.609 -0.105 0.59 -0.058 0.602 0.032 0.624 0.119 0.658 0.199 0.665 0.287 0.681 0.371 0.673 0.459 0.689 0.541 0.653 0.617 0.62 0.671 0.558 0.707 0.486 0.742 0.417 0.722 0.323 0.757 0.24 0.803 0.18 0.815 0.118 0.881 0.081 0.859 0.025 0.859 -0.072 0.767 -0.116 0.752 -0.166 0.705 -0.201 0.636 -0.224 0.584 -0.24 0.533 -0.264 0.444 -0.261 0.397 -0.271 0.337 -0.278 0.294 -0.288 0.243 -0.305 0.199 -0.306 0.893 -1.37" />
    <path class="write-stroke-pen" fill="none" stroke="#FFFFFF" stroke-width="1.2" stroke-linecap="round" stroke-linejoin="round" __comx="513.522" __comy="43.082" __timestamp="0x17a5038a1c7" d="M512.554 41.036 l-0.002 -0.002 -0.003 -0.005 -0.003 -0.005 -0.001 -0.002 -0.003 -0.002 -0.008 0.013 -0.001 0.032 0.008 0.065 0.019 0.109 0.057 0.182 0.046 0.22 0.055 0.274 0.062 0.322 0.067 0.369 0.069 0.435 0.067 0.479 0.065 0.52 0.066 0.585 0.062 0.594 0.064 0.683 0.047 0.712 0.033 0.714 0.023 0.715 0.016 0.716 0.011 0.689 0.007 0.635 -0.002 0.638 -0.013 0.559 -0.022 0.561 -0.022 0.535 -0.021 0.483 -0.016 0.459 -0.011 0.408 0 0.361 0.007 0.287 0.014 0.244 0.02 0.221 0.051 0.233 0.022 0.093 0.07 0.2 0.023 0.06 0.097 0.175 0.088 0.125 0.847 1.204" />
    <path class="write-stroke-pen" fill="none" stroke="#FFFFFF" stroke-width="1.2" stroke-linecap="round" stroke-linejoin="round" __comx="531.094" __comy="41.193" __timestamp="0x17a5038ae98" d="M529.861 38.833 l-0.001 -0.001 -0.003 -0.005 -0.005 -0.008 -0.005 -0.01 -0.004 -0.008 -0.005 -0.009 -0.002 -0.004 -0.005 -0.01 -0.004 -0.002 0.004 0.023 0.041 0.074 0.037 0.095 0.046 0.138 0.097 0.237 0.078 0.24 0.129 0.37 0.108 0.398 0.159 0.524 0.134 0.541 0.166 0.632 0.124 0.701 0.109 0.717 0.154 0.852 0.098 0.83 0.087 0.921 0.073 0.919 0.045 0.888 0.029 0.889 0.017 0.805 0.011 0.753 0.007 0.73 0.004 0.624 -0.003 0.602 -0.002 0.525 -0.002 0.45 -0.001 0.376 -0.001 0.329 0 0.207 0 0.089 0 0.185 0 0.022 0.001 0.043 0.003 0.058 0.018 0.156 0.022 0.105 0.068 0.109 0.056 0.037 0.111 -0.028 0.092 -0.092 0.417 -0.418" />
    <path class="write-stroke-pen" fill="none" stroke="#FFFFFF" stroke-width="1.2" stroke-linecap="round" stroke-linejoin="round" __comx="537.172" __comy="41.193" __timestamp="0x17a5038b05f" d="M530.06 42.448 l-0.004 -0.004 -0.019 -0.034 -0.015 -0.02 -0.031 -0.051 -0.014 -0.023 -0.039 -0.089 -0.012 -0.029 -0.039 -0.113 -0.011 -0.034 -0.039 -0.164 -0.009 -0.048 0.002 -0.236 0.006 -0.147 0.014 -0.159 0.058 -0.245 0.042 -0.166 0.102 -0.266 0.112 -0.24 0.135 -0.258 0.202 -0.322 0.232 -0.314 0.277 -0.332 0.305 -0.323 0.333 -0.326 0.365 -0.331 0.378 -0.323 0.418 -0.326 0.43 -0.314 0.431 -0.292 0.455 -0.281 0.442 -0.258 0.415 -0.199 0.516 -0.247 0.45 -0.174 0.485 -0.153 0.491 -0.117 0.445 -0.083 0.477 -0.069 0.459 -0.036 0.524 0.021 0.512 0.039 0.538 0.099 0.509 0.125 0.468 0.146 0.44 0.162 0.415 0.187 0.418 0.222 0.384 0.241 0.354 0.255 0.339 0.29 0.249 0.273 0.272 0.329 0.213 0.327 0.162 0.32 0.133 0.334 0.109 0.345 0.09 0.354 0.065 0.364 0.019 0.406 -0.004 0.4 -0.079 0.484 -0.114 0.426 -0.177 0.454 -0.241 0.465 -0.271 0.431 -0.371 0.483 -0.405 0.459 -0.457 0.45 -0.486 0.411 -0.552 0.408 -0.557 0.358 -0.592 0.332 -0.631 0.316 -0.611 0.277 -0.598 0.217 -0.634 0.227 -0.555 0.151 -0.595 0.136 -0.571 0.102 -0.577 0.076 -0.554 0.054 -0.56 -0.008 -0.424 -0.015 -0.514 -0.079 -0.36 -0.082 -0.315 -0.093 -0.285 -0.107 -0.183 -0.09 -0.231 -0.131 -0.155 -0.11 -0.131 -0.109 -0.118 -0.115 -0.106 -0.122 -0.042 -0.055 -0.113 -0.193 -0.062 -0.177 -0.037 -0.154 0.004 -0.194 0.039 -0.19 0.057 -0.137 0.1 -0.149 0.13 -0.141 0.137 -0.116 0.92 -0.784" />
    <path class="write-stroke-pen" fill="none" stroke="#FFFFFF" stroke-width="1.2" stroke-linecap="round" stroke-linejoin="round" __comx="534.789" __comy="41.193" __timestamp="0x17a5038b1a7" d="M533.229 38.164 l0 -0.001 0 -0.002 0 -0.001 0 0.021 0 0.043 0 0.081 0 0.117 0.008 0.173 0.017 0.253 0.025 0.305 0.033 0.377 0.028 0.448 0.04 0.499 0.046 0.566 0.05 0.633 0.059 0.672 0.065 0.706 0.12 0.76 0.097 0.758 0.139 0.835 0.108 0.839 0.099 0.87 0.136 0.884 0.098 0.805 0.086 0.755 0.118 0.722 0.075 0.645 0.068 0.574 0.099 0.551 0.076 0.47 0.097 0.433 0.076 0.349 0.092 0.322 0.066 0.23 0.081 0.203 0.07 0.177 0.102 0.188 0.031 0.052 0.816 1.369" />
    <path class="write-stroke-pen" fill="none" stroke="#FFFFFF" stroke-width="1.2" stroke-linecap="round" stroke-linejoin="round" __comx="555.659" __comy="28.32" __timestamp="0x17a5038b8d8" d="M551.428 28.731 l0 0 -0.001 -0.001 -0.004 -0.005 -0.005 -0.007 -0.004 -0.009 -0.01 -0.042 -0.002 -0.011 -0.002 -0.023 0 -0.077 0.002 -0.024 0.01 -0.084 0.005 -0.029 0.011 -0.045 0.033 -0.131 0.05 -0.108 0.06 -0.15 0.024 -0.056 0.113 -0.205 0.028 -0.05 0.132 -0.202 0.027 -0.04 0.135 -0.183 0.04 -0.052 0.136 -0.147 0.106 -0.127 0.142 -0.141 0.058 -0.057 0.174 -0.144 0.137 -0.105 0.139 -0.096 0.14 -0.084 0.15 -0.083 0.15 -0.073 0.058 -0.026 0.246 -0.084 0.179 -0.044 0.226 -0.023 0.081 -0.004 0.274 0.019 0.094 0.012 0.248 0.06 0.092 0.027 0.254 0.103 0.089 0.04 0.192 0.119 0.171 0.101 0.163 0.122 0.129 0.111 0.065 0.059 0.166 0.186 0.119 0.162 0.105 0.172 0.093 0.181 0.09 0.209 0.073 0.221 0.059 0.253 0.025 0.279 0.005 0.264 -0.034 0.334 -0.037 0.267 -0.093 0.361 -0.077 0.288 -0.141 0.372 -0.158 0.358 -0.158 0.325 -0.18 0.336 -0.184 0.314 -0.207 0.323 -0.224 0.314 -0.21 0.282 -0.23 0.292 -0.2 0.249 -0.217 0.261 -0.185 0.219 -0.143 0.182 -0.169 0.188 -0.165 0.209 -0.135 0.155 -0.136 0.171 -0.072 0.087 -0.128 0.164 -0.051 0.063 -0.051 0.064 -0.031 0.039 -0.031 0.04 -0.02 0.025 -0.014 0.018 -0.013 0.018 -0.028 0.04 -0.034 0.052 -0.03 0.05 -0.056 0.124 -0.012 0.029 -0.027 0.108 -0.009 0.047 0.01 0.098 0.007 0.032 0.062 0.075 0.087 0.033 0.088 0.023 0.137 0.014 0.171 -0.018 0.172 -0.02 0.21 -0.03 0.208 -0.035 0.24 -0.043 0.253 -0.048 0.263 -0.052 0.269 -0.051 0.274 -0.043 0.305 -0.039 0.287 -0.031 0.317 -0.028 0.272 -0.02 0.276 -0.018 0.258 -0.008 0.264 0.003 0.314 0.014 0.291 0.022 0.312 0.027 1.767 0.154" />
    <path class="write-stroke-pen" fill="none" stroke="#FFFFFF" stroke-width="1.2" stroke-linecap="round" stroke-linejoin="round" __comx="575.747" __comy="29.223" __timestamp="0x17a5038baf4" d="M571.31 24.819 l0.005 0.024 0.016 0.062 0.07 0.156 0.072 0.216 0.141 0.297 0.169 0.327 0.21 0.381 0.258 0.411 0.324 0.485 0.364 0.496 0.387 0.496 0.445 0.535 0.47 0.549 0.504 0.577 0.523 0.624 0.488 0.601 0.462 0.609 0.435 0.611 0.413 0.6 0.404 0.619 0.413 0.673 0.383 0.688 0.352 0.69 0.342 0.724 0.324 0.749 0.286 0.744 0.221 0.785 0.176 0.823 0.117 0.855 0.08 0.916 0.023 0.919 -0.09 0.974 -0.167 1.017 -0.243 1.023 -0.307 1.07 -0.37 1.124 -0.387 1.082 -0.414 1.128 -0.43 1.128 -0.471 1.162 -0.516 1.238 -0.554 1.266 -0.602 1.247 -0.607 1.223 -0.638 1.207 -0.622 1.14 -0.594 1.099 -0.674 1.249" />
    <path class="write-stroke-pen" fill="none" stroke="#FFFFFF" stroke-width="1.2" stroke-linecap="round" stroke-linejoin="round" __comx="168.203" __comy="160.096" __timestamp="0x17a510f3393" d="M147.191 169.988 l-0.009 -0.305 -0.006 -0.564 0.018 -1.005 0.115 -0.968 0.193 -0.927 0.269 -0.964 0.319 -0.91 0.392 -0.911 0.462 -0.881 0.497 -0.807 0.576 -0.8 0.621 -0.767 0.659 -0.738 0.733 -0.732 0.777 -0.716 0.836 -0.716 0.916 -0.724 0.981 -0.735 1.009 -0.725 1.1 -0.727 1.139 -0.724 1.219 -0.691 1.268 -0.638 1.218 -0.574 1.243 -0.537 1.253 -0.516 1.252 -0.491 1.241 -0.439 1.28 -0.424 1.218 -0.373 1.167 -0.338 1.145 -0.314 1.093 -0.285 1.123 -0.26 1.145 -0.179 1.142 -0.209 1.065 -0.132 1.018 -0.094 0.969 -0.054 0.949 -0.023 0.931 0.024 0.884 0.124 0.798 0.176 0.776 0.251 0.755 0.338 0.732 0.437 0.706 0.545 0.629 0.627 0.576 0.745 0.504 0.846 0.437 1.022 0.286 1.089 0.206 1.226 0.138 1.289 0.074 1.347 -0.061 1.441 -0.164 1.549 -0.269 1.6 -0.344 1.614 -0.406 1.635 -0.452 1.682 -0.498 1.706 -0.507 1.664 -0.535 1.694 -0.527 1.603 -0.517 1.574 -0.504 1.496 -0.488 1.443 -0.448 1.359 -0.413 1.258 -0.375 1.18 -0.355 1.163 -0.317 1.11 -0.275 1.059 -0.193 1.027 -0.19 0.918 -0.124 0.907 -0.083 0.864 -0.062 0.874 -0.039 0.852 0.043 0.819 0.053 0.803 0.138 0.819 0.164 0.792 0.189 0.771 0.218 0.776 0.434 1.544" />
    <path class="write-stroke-pen" fill="none" stroke="#FFFFFF" stroke-width="1.2" stroke-linecap="round" stroke-linejoin="round" __comx="184.449" __comy="239.144" __timestamp="0x17a510f3451" d="M179.033 241.742 l-0.19 0 -0.214 0 -0.275 0 -0.16 0.003 -0.043 0.001 -0.014 0 -0.027 0.001 -0.113 0.003 -0.042 -0.005 0.066 -0.024 0.252 -0.095 0.477 -0.163 0.736 -0.261 0.926 -0.34 1.123 -0.432 1.214 -0.505 1.313 -0.589 1.374 -0.666 1.414 -0.71 1.432 -0.738 1.507 -0.778 1.153 -0.595" />
  </g>
</svg>
