<svg class="write-page" width="1010px" height="1628px" xmlns="http://www.w3.org/2000/svg" xmlns:xlink="http://www.w3.org/1999/xlink">
  <g class="write-content write-v3" width="1010" height="1628" xruling="30" yruling="30" marginLeft="30" papercolor="#1B1C1C" rulecolor="#3A00F9FF">
    <g class="ruleline write-std-ruling write-scale-down" fill="none" stroke="#00F9FF" stroke-opacity="0.227" stroke-width="1" shape-rendering="crispEdges" vector-effect="non-scaling-stroke">
      <rect class="pagerect" fill="#1B1C1C" stroke="none" x="0" y="0" width="1010" height="1628" />
      <path class="yrule_1" d="M0 30 l1010 0" />
      <path d="M0 60 l1010 0" />
      <path d="M0 90 l1010 0" />
      <path d="M0 120 l1010 0" />
      <path d="M0 150 l1010 0" />
      <path d="M0 180 l1010 0" />
      <path d="M0 210 l1010 0" />
      <path d="M0 240 l1010 0" />
      <path d="M0 270 l1010 0" />
      <path d="M0 300 l1010 0" />
      <path d="M0 330 l1010 0" />
      <path d="M0 360 l1010 0" />
      <path d="M0 390 l1010 0" />
      <path d="M0 420 l1010 0" />
      <path d="M0 450 l1010 0" />
      <path d="M0 480 l1010 0" />
      <path d="M0 510 l1010 0" />
      <path d="M0 540 l1010 0" />
      <path d="M0 570 l1010 0" />
      <path d="M0 600 l1010 0" />
      <path d="M0 630 l1010 0" />
      <path d="M0 660 l1010 0" />
      <path d="M0 690 l1010 0" />
      <path d="M0 720 l1010 0" />
      <path d="M0 750 l1010 0" />
      <path d="M0 780 l1010 0" />
      <path d="M0 810 l1010 0" />
      <path d="M0 840 l1010 0" />
      <path d="M0 870 l1010 0" />
      <path d="M0 900 l1010 0" />
      <path d="M0 930 l1010 0" />
      <path d="M0 960 l1010 0" />
      <path d="M0 990 l1010 0" />
      <path d="M0 1020 l1010 0" />
      <path d="M0 1050 l1010 0" />
      <path d="M0 1080 l1010 0" />
      <path d="M0 1110 l1010 0" />
      <path d="M0 1140 l1010 0" />
      <path d="M0 1170 l1010 0" />
      <path d="M0 1200 l1010 0" />
      <path d="M0 1230 l1010 0" />
      <path d="M0 1260 l1010 0" />
      <path d="M0 1290 l1010 0" />
      <path d="M0 1320 l1010 0" />
      <path d="M0 1350 l1010 0" />
      <path d="M0 1380 l1010 0" />
      <path d="M0 1410 l1010 0" />
      <path d="M0 1440 l1010 0" />
      <path d="M0 1470 l1010 0" />
      <path d="M0 1500 l1010 0" />
      <path d="M0 1530 l1010 0" />
      <path d="M0 1560 l1010 0" />
      <path d="M0 1590 l1010 0" />
      <path d="M0 1620 l1010 0" />
      <path class="xrule_1" d="M30 0 l0 1628" />
      <path d="M60 0 l0 1628" />
      <path d="M90 0 l0 1628" />
      <path d="M120 0 l0 1628" />
      <path d="M150 0 l0 1628" />
      <path d="M180 0 l0 1628" />
      <path d="M210 0 l0 1628" />
      <path d="M240 0 l0 1628" />
      <path d="M270 0 l0 1628" />
      <path d="M300 0 l0 1628" />
      <path d="M330 0 l0 1628" />
      <path d="M360 0 l0 1628" />
      <path d="M390 0 l0 1628" />
      <path d="M420 0 l0 1628" />
      <path d="M450 0 l0 1628" />
      <path d="M480 0 l0 1628" />
      <path d="M510 0 l0 1628" />
      <path d="M540 0 l0 1628" />
      <path d="M570 0 l0 1628" />
      <path d="M600 0 l0 1628" />
      <path d="M630 0 l0 1628" />
      <path d="M660 0 l0 1628" />
      <path d="M690 0 l0 1628" />
      <path d="M720 0 l0 1628" />
      <path d="M750 0 l0 1628" />
      <path d="M780 0 l0 1628" />
      <path d="M810 0 l0 1628" />
      <path d="M840 0 l0 1628" />
      <path d="M870 0 l0 1628" />
      <path d="M900 0 l0 1628" />
      <path d="M930 0 l0 1628" />
      <path d="M960 0 l0 1628" />
      <path d="M990 0 l0 1628" />
      <path class="leftmargin" stroke="#FF0000" d="M30 0 l0 1628" />
    </g>
    <path class="write-flat-pen" fill="#FFFFFF" stroke-width="1.6" __comx="246.683" __comy="191.725" __timestamp="0x178fc7fc6f1" d="M147.83 271.742 l0.788 -0.198 0.236 -0.151 15.946 -12.995 1.337 -1.136 37.298 -33.564 16.241 -14.079 18.604 -15.258 23.55 -18.259 20.846 -15.455 48.909 -34.801 2.692 -1.975 5.137 -3.836 2.444 -1.835 2.339 -1.816 1.388 -1.077 -0.031 -0.042 -1.441 1.005 -2.429 1.692 -2.504 1.749 -5.276 3.64 -2.741 1.902 -49.077 34.582 -20.846 15.492 -23.542 18.306 -18.613 15.287 -16.245 14.108 -37.164 33.71 -1.323 1.129 -15.753 13.195 -0.176 0.138 -0.647 0.424" />
    <path class="write-flat-pen" fill="#FFFFFF" stroke-width="1.6" __comx="252.81" __comy="266.516" __timestamp="0x178fc7fcb24" d="M142.168 273.785 l4.821 -0.686 0.644 -0.1 7.031 -0.788 13.988 -0.688 18.075 -1.926 12.565 -0.724 38.476 0.167 50.624 -2.358 13.118 -1.039 24.932 -3.263 9.78 -0.854 11.864 -0.249 1.426 -0.021 5.819 -0.138 1.444 -0.089 2.997 -0.303 1.421 -0.176 2.331 -0.287 -0.003 -0.044 -2.348 0.057 -1.429 0.034 -2.998 0.067 -1.426 -0.009 -5.808 -0.113 -1.431 -0.03 -11.924 -0.009 -9.86 0.845 -24.927 3.273 -13.063 1.046 -50.567 2.502 -38.479 -0.055 -12.62 0.766 -18.066 1.986 -13.986 0.787 -7.06 0.924 -0.658 0.118 -4.776 0.955" />
    <path class="write-flat-pen" fill="#FFFFFF" stroke-width="1.6" __comx="343.842" __comy="141.348" __timestamp="0x178fc7fcfd8" d="M344.139 117.755 l-0.685 0.413 -0.136 0.233 -0.783 2.485 -0.1 0.541 -1.538 24.102 -0.01 1.145 0.086 9.677 1.133 21.142 0.832 35.886 2.771 46.491 0.032 0.744 0.118 2.258 0.05 0.767 0.13 1.479 0.25 2.657 0.059 -0.001 0.184 -2.663 0.088 -1.478 0.048 -0.763 0.106 -2.26 0.025 -0.773 -2.492 -46.512 -0.889 -35.882 -1.14 -21.132 -0.106 -9.638 0.003 -1.102 1.257 -24.035 0.058 -0.45 0.484 -2.44 0.008 -0.06 0.422 -0.511" />
    <path class="write-flat-pen" fill="#FFFFFF" stroke-width="1.6" __comx="200.722" __comy="240.954" __timestamp="0x178fc7fd535" d="M193.842 237.009 l0.432 0.108 0.034 0.028 1.045 0.521 0.309 0.172 3.865 2.89 0.628 0.641 2.651 3.393 1.541 2.869 1.121 3.258 0.665 4.378 0.121 4.822 -0.641 5.331 -0.061 0.299 -0.085 0.402 -0.616 2.555 0.052 0.022 1.397 -2.244 0.216 -0.393 0.166 -0.389 0.933 -5.501 -0.12 -5.023 -0.695 -4.585 -1.194 -3.482 -1.658 -3.068 -2.808 -3.52 -0.777 -0.759 -4.19 -2.78 -0.451 -0.179 -1.225 -0.307 -0.17 -0.011 -0.498 0.138" />
    <path class="write-flat-pen" fill="#FFFFFF" stroke-width="1.6" __comx="206.81" __comy="249.327" __timestamp="0x178fc7fd651" d="M198.415 250.915 l3.834 -0.668 0.766 -0.051 6.773 -0.571 1.083 -0.208 1.023 -0.247 1.032 -0.307 2.488 -0.732 -0.033 -0.172 -2.581 0.249 -1.064 0.099 -1.024 0.111 -1.042 0.102 -6.747 0.373 -0.855 0.067 -3.863 0.959" />
    <path class="write-flat-pen" fill="#FFFFFF" stroke-width="1.6" __comx="233.387" __comy="228.77" __timestamp="0x178fc7fdee2" d="M231.526 229.449 l0.616 -1.251 0.032 -0.271 -0.393 -1.324 -0.284 -0.265 -1.291 -0.591 -1.678 0.204 -1.945 1.295 -1.673 2.377 -1.071 3.095 -0.406 3.537 0.306 2.797 0.985 2.763 1.606 2.436 2.067 1.761 2.364 0.924 2.835 0.1 2.919 -1.023 2.748 -2.115 2.142 -2.781 1.01 -2.158 0.928 -4.232 -0.16 -3.061 -0.742 -2.116 -1.684 -2.49 -1.914 -1.682 -2.654 -1.35 -2.434 -0.52 -1.827 0.257 -1.613 0.991 -1.236 1.926 -0.308 1.997 0.421 2.337 2.621 4.536 0.66 0.685 0.66 0.58 0.682 0.485 2.103 1.492 0.065 -0.072 -1.715 -1.926 -0.531 -0.602 -0.503 -0.641 -0.473 -0.65 -2.221 -4.357 -0.324 -1.879 0.233 -1.461 0.9 -1.389 1.078 -0.656 1.275 -0.176 1.996 0.429 2.317 1.185 1.628 1.443 1.459 2.182 0.598 1.736 0.127 2.645 -0.858 3.867 -0.873 1.851 -1.922 2.49 -2.396 1.847 -2.417 0.854 -2.294 -0.072 -1.894 -0.731 -1.725 -1.451 -1.406 -2.104 -0.885 -2.431 -0.287 -2.467 0.354 -3.227 0.936 -2.775 1.388 -2.043 1.46 -1.056 1.068 -0.219 0.904 0.266 0.001 -0.022 0.494 0.862 0.016 0.016 -0.328 1.252" />
    <path class="write-flat-pen" fill="#FFFFFF" stroke-width="1.6" __comx="284.619" __comy="248.792" __timestamp="0x178fc7fea6a" d="M284.403 248.473 l0.19 -0.551 -0.097 -0.253 -0.788 -0.741 -0.324 -0.135 -1.532 -0.248 -1.655 0.553 -1.161 1.211 -0.847 2.071 -0.129 2.44 0.514 1.739 0.965 1.108 1.519 0.517 1.772 -0.429 1.755 -1.484 0 0 1.281 -2.341 0 0 0.586 -3.164 -1.399 0.13 1.575 4.268 2.115 2.6 0.584 -0.007 1.819 -0.193 0.034 -0.269 -1.715 -0.636 -0.035 -0.084 -1.475 -2.141 -1.538 -4.049 -1.399 0.13 -0.484 2.951 0 0 -1.035 1.924 0 0 -1.306 1.121 -1.077 0.268 -0.81 -0.267 -0.544 -0.612 -0.376 -1.241 0.091 -1.996 0.651 -1.656 0.766 -0.843 1.09 -0.428 1.156 0.075 0.084 0.013 0.663 0.338 -0.037 -0.123 0.08 0.376" />
    <path class="write-flat-pen" fill="#FFFFFF" stroke-width="1.6" __comx="331.178" __comy="196.368" __timestamp="0x178fc7fed41" d="M330.5 196.479 l-0.249 -1.156 -0.103 -0.172 -1.25 -0.892 -0.384 -0.07 -1.324 0.209 -1.36 1.155 -1.02 2.18 -0.302 2.118 0.33 2.247 0.962 2.071 1.678 1.573 1.88 0.67 2.092 -0.082 2.788 -1.071 1.671 -1.249 1.365 -1.889 0.575 -2.076 -0.331 -2.238 -0.985 -1.599 -1.76 -1.367 -3.643 -0.774 -0.539 0.066 -0.776 0.205 -0.351 0.141 -2.409 0.986 0.019 0.08 2.593 -0.222 0.335 -0.025 0.708 -0.019 0.306 0.017 3.095 0.894 1.276 1.032 0.668 1.112 0.232 1.613 -0.411 1.505 -1.058 1.49 -1.313 0.997 -2.361 0.926 -1.568 0.078 -1.34 -0.458 -1.275 -1.166 -0.779 -1.632 -0.293 -1.849 0.219 -1.734 0.774 -1.779 0.86 -0.819 0.798 -0.212 -0.006 -0.013 1.043 0.465 -0.041 -0.076 0.475 0.974" />
    <path class="write-flat-pen" fill="#FFFFFF" stroke-width="1.6" __comx="269.317" __comy="181.767" __timestamp="0x178fc7ff356" d="M261.731 179.115 l0.093 0.36 0.025 0.068 0.078 0.322 0.053 0.144 0.463 1.206 0.128 0.335 3.818 13.818 0.14 0.194 0 0 1.414 -0.296 0.895 -4.064 1.201 -2.958 0.831 -1.028 0.73 -0.321 0.682 0.118 1.159 0.851 1.159 1.573 0.948 2.802 0.038 0.07 0.387 2.538 0.145 0.01 0.723 -2.463 0.063 -0.302 -0.848 -3.375 -1.471 -1.998 -1.659 -1.218 -1.527 -0.264 -1.528 0.671 -1.224 1.516 -1.34 3.304 -0.909 4.201 1.414 -0.296 0 0 0.023 0.033 -4.037 -13.568 -0.224 -0.428 -0.739 -1.147 -0.139 -0.154 -0.309 -0.265 -0.054 -0.009 -0.208 -0.191" />
    <path class="write-flat-pen" fill="#FFFFFF" stroke-width="1.6" __comx="388.654" __comy="183.48" __timestamp="0x178fc802f40" d="M383.484 193.463 l-0.415 3.073 -0.032 0.27 -0.001 0.015 -0.112 1.49 0 0 0.972 0.091 0.064 -0.238 0.503 -5.407 -0.453 -16.327 0.28 -1.593 0.79 -0.898 1.537 -0.599 1.63 -0.073 2.085 0.558 1.4 0.87 1.027 1.29 0.399 1.455 -0.205 1.771 -1.178 2.471 -1.255 1.499 -1.796 1.241 -1.526 0.473 -1.302 -0.059 -0.21 -0.047 -0.328 -0.151 -1.961 -0.95 -0.018 0.025 1.519 1.563 0.306 0.306 0.386 0.254 1.705 0.322 1.99 -0.544 2.131 -1.445 1.48 -1.768 1.338 -2.825 0.248 -2.243 -0.55 -1.95 -1.337 -1.663 -1.753 -1.081 -2.46 -0.646 -2.034 0.103 -2.004 0.81 -1.189 1.399 -0.329 2.044 0.504 16.379 -0.373 5.292 -0.023 0.182 0.972 0.091 0 0 -0.164 -1.451 -0.001 0.015 0.01 -0.265 0.136 -3.094" />
    <path class="write-flat-pen" fill="#FFFFFF" stroke-width="1.6" __comx="221.924" __comy="138.953" __timestamp="0x178fc803356" d="M221.445 137.221 l-0.293 -1.855 -0.169 -0.283 -1.159 -0.952 -1.519 -0.213 -1.433 0.491 -1.469 1.308 -1.486 2.701 -1.383 4.164 -0.398 2.906 0.477 1.543 1.253 0.671 1.652 -0.494 2.056 -1.786 2.326 -2.986 1.621 -3.007 0 0 0.3 -1.533 0 0 -1.111 -0.496 -0.777 0.997 -0.936 3.828 -0.782 7.192 -0.164 7.431 0.457 3.428 0.965 2.732 1.269 1.337 1.527 0.313 1.904 -0.865 1.856 -2.026 1.714 -2.918 2.128 -5.351 1.838 -8.132 -0.068 -0.374 -0.025 -0.084 -0.791 -2.556 -0.106 0.011 -0.258 2.664 -0.009 0.071 -0.027 0.166 -1.968 7.787 -2.041 5.151 -1.569 2.697 -1.543 1.709 -1.211 0.572 -0.647 -0.12 -0.77 -0.795 -0.833 -2.313 -0.436 -3.18 0.143 -7.269 0.74 -7.054 0.824 -3.491 0.59 -0.802 -1.111 -0.496 0 0 -0.252 1.349 0 0 -1.477 2.751 -2.191 2.807 -1.766 1.528 -0.905 0.266 -0.349 -0.188 -0.243 -0.79 0.345 -2.519 1.303 -3.953 1.308 -2.441 1.119 -1.053 0.958 -0.385 1.01 0.053 0.914 0.577 0.031 0.023 0.519 1.656" />
    <path class="write-flat-pen" fill="#FFFFFF" stroke-width="1.6" __comx="256.941" __comy="302.044" __timestamp="0x178fc80525d" d="M178.849 309.608 l0.349 -0.544 0.069 -0.081 1.248 -1.426 0.143 -0.143 1.291 -0.995 0.75 -0.109 0.547 0.377 0.704 1.61 1.62 14.779 0.889 4.581 0.897 1.454 1.396 0.333 1.342 -0.887 1.379 -2.413 1.745 -5.276 5.403 -23.212 0.353 -0.51 0.641 -0.169 8.804 2.183 5.327 0.836 5.346 0.262 10.958 -0.479 30.931 -2.585 22.73 -3.038 11.703 -0.979 9.811 -0.098 24.247 1.382 5.001 0.749 0.832 -0.828 -0.057 -0.413 0 0 -1.46 0.123 0.265 6.19 0.022 0.652 0.042 1.272 0.018 0.575 0.019 0.535 0.087 2.701 0.081 0.007 0.543 -2.647 0.11 -0.533 0.094 -0.584 0.165 -1.282 0.06 -0.694 -0.038 -6.228 -1.46 0.123 0 0 0.063 0.412 0.832 -0.828 -5.067 -0.759 -24.363 -1.402 -9.914 0.102 -11.794 0.976 -22.73 3.047 -30.867 2.56 -10.858 0.485 -5.196 -0.263 -5.185 -0.816 -9.122 -2.236 -1.53 0.436 -0.771 1.192 -5.373 23.419 -1.677 5.094 -1.143 2.035 -0.604 0.417 -0.339 -0.065 -0.518 -0.798 -0.868 -4.299 -1.75 -14.887 -0.943 -2.03 -1.159 -0.73 -1.387 0.26 -1.481 1.269 -0.199 0.232 -1.081 1.646 -0.078 0.172 -0.114 0.683" />
    <path class="write-flat-pen" fill="#FFFFFF" stroke-width="1.6" __comx="207.027" __comy="319.878" __timestamp="0x178fc80797b" d="M208.173 319.902 l0.112 -1.762 0.035 -0.172 0.38 -1.678 0.018 -0.127 -0.162 -1.213 -1.278 -0.489 -1.986 0.896 -2.085 1.998 -2.181 3.263 -1.301 3.132 -0.514 2.657 0.265 1.949 0.859 0.877 1.368 0.034 1.843 -1.348 2.604 -3.565 1.868 -3.558 0 0 0.711 -2.46 0 0 -0.378 -0.681 0 0 -1.321 0.094 -0.745 1.872 -0.677 5.352 -0.047 6.537 0 0 0.621 8.884 0 0 0.54 2.307 0 0 1.439 0.218 3.264 -5.432 3.42 -7.042 -0.18 -1.505 -0.143 -0.28 -1.214 -2.056 -0.076 0.024 0.17 2.381 -0.01 0.147 -0.096 0.957 -3.275 6.611 -3.208 5.388 1.439 0.218 0 0 -0.549 -2.173 0 0 -0.642 -8.696 0 0 0.042 -6.391 0.631 -5.081 0.664 -1.703 -1.321 0.094 0 0 0.09 0.142 0 0 -0.493 1.735 0 0 -1.736 3.343 -2.404 3.308 -1.275 0.938 -0.316 -0.007 -0.132 -0.134 -0.171 -1.257 0.441 -2.29 1.189 -2.876 2.013 -3.033 1.793 -1.769 1.291 -0.668 0.212 0.003 0.151 0.387 0.008 -0.036 -0.104 1.719 -0.005 0.228 0.165 1.795" />
    <path class="write-flat-pen" fill="#FFFFFF" stroke-width="1.6" __comx="218.125" __comy="308.235" __timestamp="0x178fc807b97" d="M213.993 309.914 l-0.225 -1.023 0.012 0.014 0.247 -0.837 0.03 -0.025 1.743 -1.533 0.094 -0.045 1.154 -0.38 0.586 0.111 0.164 0.256 -0.062 0.892 -0.945 2.119 -2.598 3.916 -0.309 1.582 1.203 0.913 4.98 -0.121 0.309 0.01 2.639 0.263 0.063 -0.215 -2.369 -1.194 -0.45 -0.211 -4.638 -0.123 0.004 0.008 0.054 -0.312 2.448 -3.8 1.046 -2.517 0.015 -1.679 -0.864 -1.012 -1.413 -0.16 -1.506 0.591 -0.305 0.18 -1.772 1.946 -0.12 0.295 -0.032 1.086 0.029 0.129 0.505 0.982" />
    <path class="write-flat-pen" fill="#FFFFFF" stroke-width="1.6" __comx="239.706" __comy="314.095" __timestamp="0x178fc808900" d="M233.625 314.7 l-0.956 0.042 -0.101 0.117 0 0 0.376 0.508 0.732 -0.059 0.359 -0.077 4.938 -0.915 4.683 -0.325 0.462 0.019 2.701 0.155 0.027 -0.152 -2.591 -0.781 -0.538 -0.158 -4.889 0.057 -5.03 1.136 -0.373 0.132 -0.656 0.31 0.376 0.508 0 0 -0.088 0.095 0.635 -0.243" />
    <path class="write-flat-pen" fill="#FFFFFF" stroke-width="1.6" __comx="262.102" __comy="325.241" __timestamp="0x178fc80f186" d="M256.938 339.21 l-0.222 0.994 0.004 -0.04 0.56 0.126 0.042 -0.893 0.009 -0.313 -0.003 -5.309 -0.01 -0.794 0.018 -7.444 0.55 -5.569 1.044 -5.089 0.619 -0.815 0.906 -0.482 1.512 -0.116 2.114 0.541 1.567 0.903 0.762 0.991 0.269 1.198 -0.354 1.569 -1.053 1.624 -1.53 1.344 -2.137 1.112 -1.438 0.323 -1.003 -0.381 -0.05 0.019 -0.247 -0.461 -0.721 -1.774 -0.105 0.017 -0.111 1.95 0.04 0.691 0.211 0.539 1.785 1.021 2.173 -0.484 2.474 -1.304 1.82 -1.612 1.307 -2.031 0.483 -2.164 -0.421 -1.852 -1.148 -1.488 -2.004 -1.156 -2.556 -0.649 -2.072 0.167 -1.465 0.798 -0.993 1.352 -1.071 5.492 -0.512 5.714 0.125 7.524 0.034 0.805 0.269 5.304 0.03 0.349 0.238 0.897 0.56 0.126 0.035 -0.091 -0.008 -1.149" />
    <path class="write-flat-pen" fill="#FFFFFF" stroke-width="1.6" __comx="279.138" __comy="302.215" __timestamp="0x178fc80f89b" d="M274.618 303.233 l0.144 -0.832 0.036 -0.056 0.744 -1.19 0.015 -0.012 0.868 -0.837 0.399 -0.061 0.298 0.325 0.133 1.34 -0.425 1.844 -1.112 1.89 -1.351 1.295 -2.667 1.331 -0.226 1.656 3.318 0.504 9.193 -0.814 2.818 -0.802 -0.013 -0.193 -2.908 -0.402 -9.033 0.607 -1.611 -0.233 -0.101 0.686 2.113 -1.119 1.621 -1.631 1.261 -2.284 0.44 -2.291 -0.328 -2.001 -1.158 -0.909 -1.197 0.39 -0.983 1.19 -0.072 0.113 -0.544 1.4 -0.041 0.178 0.114 0.914" />
  </g>
</svg>
