<svg class="write-page" color-interpolation="linearRGB" width="982px" height="1584px" xmlns="http://www.w3.org/2000/svg" xmlns:xlink="http://www.w3.org/1999/xlink">
  <g class="write-content write-v3" width="982" height="1584" xruling="30" yruling="30" marginLeft="30" papercolor="#000000" rulecolor="#0D9D00FF">
    <g class="ruleline write-std-ruling write-scale-down" fill="none" stroke="#9D00FF" stroke-opacity="0.051" stroke-width="1" shape-rendering="crispEdges" vector-effect="non-scaling-stroke">
      <rect class="pagerect" fill="#000000" stroke="none" x="0" y="0" width="982" height="1584" />
      <path class="yrule_1" d="M0 30 l982 0" />
      <path d="M0 60 l982 0" />
      <path d="M0 90 l982 0" />
      <path d="M0 120 l982 0" />
      <path d="M0 150 l982 0" />
      <path d="M0 180 l982 0" />
      <path d="M0 210 l982 0" />
      <path d="M0 240 l982 0" />
      <path d="M0 270 l982 0" />
      <path d="M0 300 l982 0" />
      <path d="M0 330 l982 0" />
      <path d="M0 360 l982 0" />
      <path d="M0 390 l982 0" />
      <path d="M0 420 l982 0" />
      <path d="M0 450 l982 0" />
      <path d="M0 480 l982 0" />
      <path d="M0 510 l982 0" />
      <path d="M0 540 l982 0" />
      <path d="M0 570 l982 0" />
      <path d="M0 600 l982 0" />
      <path d="M0 630 l982 0" />
      <path d="M0 660 l982 0" />
      <path d="M0 690 l982 0" />
      <path d="M0 720 l982 0" />
      <path d="M0 750 l982 0" />
      <path d="M0 780 l982 0" />
      <path d="M0 810 l982 0" />
      <path d="M0 840 l982 0" />
      <path d="M0 870 l982 0" />
      <path d="M0 900 l982 0" />
      <path d="M0 930 l982 0" />
      <path d="M0 960 l982 0" />
      <path d="M0 990 l982 0" />
      <path d="M0 1020 l982 0" />
      <path d="M0 1050 l982 0" />
      <path d="M0 1080 l982 0" />
      <path d="M0 1110 l982 0" />
      <path d="M0 1140 l982 0" />
      <path d="M0 1170 l982 0" />
      <path d="M0 1200 l982 0" />
      <path d="M0 1230 l982 0" />
      <path d="M0 1260 l982 0" />
      <path d="M0 1290 l982 0" />
      <path d="M0 1320 l982 0" />
      <path d="M0 1350 l982 0" />
      <path d="M0 1380 l982 0" />
      <path d="M0 1410 l982 0" />
      <path d="M0 1440 l982 0" />
      <path d="M0 1470 l982 0" />
      <path d="M0 1500 l982 0" />
      <path d="M0 1530 l982 0" />
      <path d="M0 1560 l982 0" />
      <path class="xrule_1" d="M30 0 l0 1584" />
      <path d="M60 0 l0 1584" />
      <path d="M90 0 l0 1584" />
      <path d="M120 0 l0 1584" />
      <path d="M150 0 l0 1584" />
      <path d="M180 0 l0 1584" />
      <path d="M210 0 l0 1584" />
      <path d="M240 0 l0 1584" />
      <path d="M270 0 l0 1584" />
      <path d="M300 0 l0 1584" />
      <path d="M330 0 l0 1584" />
      <path d="M360 0 l0 1584" />
      <path d="M390 0 l0 1584" />
      <path d="M420 0 l0 1584" />
      <path d="M450 0 l0 1584" />
      <path d="M480 0 l0 1584" />
      <path d="M510 0 l0 1584" />
      <path d="M540 0 l0 1584" />
      <path d="M570 0 l0 1584" />
      <path d="M600 0 l0 1584" />
      <path d="M630 0 l0 1584" />
      <path d="M660 0 l0 1584" />
      <path d="M690 0 l0 1584" />
      <path d="M720 0 l0 1584" />
      <path d="M750 0 l0 1584" />
      <path d="M780 0 l0 1584" />
      <path d="M810 0 l0 1584" />
      <path d="M840 0 l0 1584" />
      <path d="M870 0 l0 1584" />
      <path d="M900 0 l0 1584" />
      <path d="M930 0 l0 1584" />
      <path d="M960 0 l0 1584" />
      <path class="leftmargin" stroke="#FF0000" d="M30 0 l0 1584" />
    </g>
    <path class="write-flat-pen" fill="#FFFFFF" stroke-width="1.8" __comx="198.118" __comy="56.154" __timestamp="0x177b66d90db" d="M205.616 42.697 l0 -0.22 0.114 -0.106 -0.56 -0.259 -0.051 0.013 -0.194 0.104 -0.154 0.126 -0.309 0.361 -0.198 0.267 -0.729 1.131 -0.283 0.427 -1.672 2.314 -0.372 0.483 -3.403 3.682 -0.491 0.456 -2.296 1.807 -1.814 1.114 -1.877 0.775 -1.542 0.358 -0.874 0.017 -0.266 -0.111 -0.313 -0.408 -0.101 -0.491 0.101 -0.729 0.75 -2.105 0.881 -1.591 1.428 -1.846 1.174 -1.054 1.457 -0.86 1.161 -0.289 0.54 0.065 1.073 0.467 1.184 0.934 3.579 4.385 2.464 2.557 1.369 0.823 1.335 0.404 0.373 0.046 0.347 0.011 0.377 -0.054 0.297 -0.064 0.325 -0.157 1.275 -0.806 -0.054 -0.233 -1.5 -0.167 -0.263 -0.021 -0.174 -0.024 -0.246 -0.027 -0.181 -0.038 -0.191 -0.047 -1.016 -0.36 -1.009 -0.617 -2.264 -2.349 -3.668 -4.46 -1.497 -1.177 -1.493 -0.65 -1.086 -0.132 -1.695 0.42 -1.811 1.064 -1.414 1.263 -1.603 2.065 -1.014 1.821 -0.859 2.398 -0.164 1.188 0.237 1.155 0.825 1.074 1.012 0.418 1.406 -0.036 1.843 -0.443 2.118 -0.89 2.002 -1.244 2.408 -1.93 0.581 -0.552 3.424 -3.847 0.417 -0.574 1.609 -2.435 0.283 -0.495 0.605 -1.207 0.132 -0.275 0.164 -0.385 0.056 -0.145 0.01 -0.162 -0.033 -0.004 -0.56 -0.259 0.109 0.111 0 0.23" />
    <path class="write-flat-pen" fill="#FFFFFF" stroke-width="1.8" __comx="229.657" __comy="56.154" __timestamp="0x177b66d963e" d="M225.99 64.94 l0.061 3.198 -0.003 0.222 -0.042 0.917 -0.01 0.162 -0.006 -0.039 0.978 -0.081 0.076 -0.434 -0.008 -0.368 -0.559 -5.833 -0.061 -0.81 -0.441 -7.265 -0.022 -0.566 -0.327 -3.629 -1.11 -4.148 -0.013 -0.614 0.144 -0.283 0.575 -0.434 0.943 -0.359 1.136 -0.164 1.294 0.114 1.063 0.321 0.816 0.506 0.507 0.631 0.277 0.736 0.048 0.918 -0.252 0.954 -0.529 0.859 -0.78 0.633 0 0 -0.853 0.384 -0.93 0.088 0 0 -0.164 1.611 3.057 0.862 0.316 0.113 2.363 1.037 0.981 0.671 0.3 0.465 0.032 0.294 -0.175 0.5 -0.599 0.637 -1.473 0.799 -1.384 0.393 -2.065 0.233 -0.853 -0.135 -0.496 -0.305 -0.017 0.03 -0.086 -0.102 -0.072 -0.093 -0.087 -0.253 -0.367 -1.174 -0.169 -0.012 -0.53 1.11 -0.134 0.413 0.022 0.368 0.076 0.379 0.218 0.406 1.001 0.777 1.455 0.241 2.423 -0.279 1.684 -0.487 1.857 -1.021 1 -1.092 0.385 -1.175 -0.14 -1.011 -0.677 -1.016 -1.355 -0.921 -2.539 -1.118 -0.406 -0.15 -3.077 -0.961 -0.164 1.611 0 0 1.216 -0.098 1.308 -0.597 0 0 1.159 -0.952 0.798 -1.306 0.378 -1.438 -0.078 -1.428 -0.458 -1.217 -0.844 -1.056 -1.238 -0.771 -1.432 -0.435 -1.654 -0.149 -1.509 0.217 -1.335 0.511 -1.068 0.816 -0.49 1.002 0.05 1.216 1.201 4.183 0.37 3.455 0.033 0.544 0.573 7.28 0.079 0.834 0.696 5.808 0.036 0.316 0.094 0.405 0.978 -0.081 -0.006 -0.039 -0.038 -0.035 -0.144 -0.866 -0.028 -0.22 -0.286 -3.185" />
    <path class="write-flat-pen" fill="#FFFFFF" stroke-width="1.8" __comx="256.999" __comy="50.388" __timestamp="0x177b66d9e18" d="M252.04 52.082 l-0.361 -0.3 0.057 0.031 -0.036 -0.323 0.002 -0.101 0.041 -0.941 0.037 -0.179 0.472 -1.618 0.432 -0.827 0.03 -0.019 -0.124 -0.004 0.434 0.569 1.445 3.492 1.267 2.309 1.466 1.934 2.081 1.287 0.536 0.145 0.443 0.082 0.471 0.046 0.5 0.011 0.476 -0.026 0.459 -0.088 1.445 -0.342 0.003 -0.172 -1.433 -0.387 -0.424 -0.102 -0.397 -0.092 -0.416 -0.115 -0.382 -0.114 -0.346 -0.116 -0.289 -0.114 -1.633 -1.087 -1.224 -1.617 -1.177 -2.133 -1.543 -3.583 -0.989 -1.243 -1.131 -0.075 -0.733 0.596 -0.624 1.262 -0.449 1.869 -0.041 0.38 0.112 1.152 0.075 0.266 0.231 0.454 0.185 0.242 0.658 0.283" />
    <path class="write-flat-pen" fill="#FFFFFF" stroke-width="1.8" __comx="262.362" __comy="50.214" __timestamp="0x177b66d9fbd" d="M266.226 44.916 l-0.368 0.331 -0.103 0.066 -0.221 0.228 -0.14 0.151 -0.311 0.422 -0.156 0.255 -0.487 0.794 -0.297 0.522 -1.908 3.749 -0.443 0.957 -1.607 4.076 -1.324 4.501 -0.614 3.455 -0.279 4.612 0.149 2.208 0.549 2.637 1.104 2.679 0.405 0.597 0.416 0.479 0.448 0.388 0.453 0.295 0.494 0.169 1.384 0.376 0.122 -0.204 -0.982 -1.045 -0.301 -0.309 -0.248 -0.285 -0.27 -0.346 -0.263 -0.396 -0.245 -0.435 -0.921 -2.439 -0.49 -2.385 -0.133 -1.988 0.261 -4.412 0.563 -3.279 1.233 -4.36 1.528 -3.981 0.407 -0.9 1.794 -3.761 0.248 -0.52 0.398 -0.859 0.102 -0.269 0.165 -0.426 0.067 -0.17 0.062 -0.23 0.019 -0.062 0.269 -0.452" />
    <path class="write-flat-pen" fill="#FFFFFF" stroke-width="1.8" __comx="287.978" __comy="37.172" __timestamp="0x177b66da3e8" d="M289.535 36.287 l0.358 -0.859 0.072 -0.159 0.181 -0.523 0.066 -0.27 0.134 -0.681 0.012 -0.111 0.015 -0.766 -0.071 -0.305 -0.34 -0.802 -0.339 -0.345 -0.886 -0.473 -1.179 0.062 -1.328 0.512 -1.347 0.943 -1.136 1.219 -0.899 1.673 -0.51 1.691 0.009 1.13 0.454 1.403 1.011 1.301 4.085 3.121 1.765 1.74 1.311 1.901 0.705 1.544 0.371 1.524 0.151 2.48 -0.191 1.237 -0.479 1.172 -0.459 0.571 -0.816 0.488 -1.292 0.256 -1.567 -0.119 -1.688 -0.479 -1.042 -0.535 -0.524 -0.539 -0.291 -0.603 -0.043 -0.418 0.19 -0.673 0.544 -0.887 1.972 -2.208 2.079 -1.885 0.193 -0.136 0.423 -0.293 0.125 -0.081 0.227 -0.14 0.111 -0.071 1.218 -0.659 -0.021 -0.187 -1.334 -0.37 -0.263 -0.029 -0.461 0.089 -0.291 0.1 -0.559 0.288 -0.335 0.196 -2.295 1.982 -2.155 2.376 -0.757 1.212 -0.353 1.215 0.102 1.05 0.544 1.132 0.917 0.943 1.446 0.742 2.02 0.572 1.976 0.148 1.816 -0.366 1.332 -0.808 0.799 -1.011 0.634 -1.591 0.235 -1.614 -0.191 -2.804 -0.446 -1.817 -0.83 -1.819 -1.481 -2.151 -1.949 -1.926 -3.997 -3.056 -0.701 -0.9 -0.287 -0.882 -0.005 -0.624 0.387 -1.291 0.718 -1.339 0.87 -0.939 1.04 -0.74 0.904 -0.371 0.499 -0.055 0.32 0.126 0.006 -0.014 0.269 0.412 0.03 0.037 0.108 0.55 0.007 0.022 0.03 0.644 0.006 0.224 -0.011 0.488 -0.012 0.139 -0.148 0.918" />
    <path class="write-flat-pen" fill="#FFFFFF" fill-opacity="0.133" stroke-width="1.8" __comx="378.899" __comy="54.612" __timestamp="0x177b66db0ad" d="M382.811 42.775 l0.291 0.302 -0.038 -0.003 0.035 0.385 0.003 0.174 -0.061 0.964 -0.056 0.33 -0.567 1.624 -0.175 0.365 -1.019 1.777 -0.26 0.384 -1.178 1.483 -0.934 0.836 -1.176 0.699 -1.649 0.569 -1.887 0.347 -2.056 0.047 -0.928 -0.208 -0.506 -0.306 -0.235 -0.323 -0.126 -0.597 0.15 -0.829 0.498 -0.948 0.825 -0.963 0.909 -0.699 1.029 -0.46 0.867 -0.159 0.991 0.23 0.626 0.396 0.871 0.994 1.777 3.464 1.511 2.273 1.04 1.009 2.192 1.025 0.512 0.136 0.907 0.159 0.44 0.044 0.461 0.025 0.462 -0.001 0.485 -0.022 0.48 -0.034 0.448 -0.068 1.46 -0.261 0.006 -0.145 -1.432 -0.387 -0.434 -0.106 -0.456 -0.088 -0.449 -0.095 -0.414 -0.093 -0.411 -0.096 -0.372 -0.091 -0.798 -0.224 -0.331 -0.114 -1.809 -0.918 -0.721 -0.707 -1.356 -2.055 -1.826 -3.564 -1.16 -1.328 -1.062 -0.674 -1.596 -0.377 -1.402 0.25 -1.395 0.613 -1.21 0.919 -1.068 1.236 -0.713 1.343 -0.26 1.412 0.268 1.282 0.657 0.894 1.041 0.617 1.398 0.299 2.39 -0.073 2.137 -0.407 1.921 -0.679 1.449 -0.883 1.139 -1.054 1.259 -1.677 0.311 -0.498 0.986 -1.931 0.203 -0.502 0.506 -1.848 0.041 -0.523 -0.067 -1.12 -0.075 -0.317 -0.231 -0.52 -0.164 -0.21 -0.514 -0.282" />
    <path class="write-flat-pen" fill="#FFFFFF" fill-opacity="0.133" stroke-width="1.8" __comx="405.136" __comy="54.612" __timestamp="0x177b66db4df" d="M400.565 67.906 l-0.756 1.793 0.006 -0.03 -0.238 0.092 0.138 -0.078 0.075 -0.066 0.157 0.066 -0.07 -0.258 -0.019 -0.121 -0.146 -1.002 -0.03 -0.387 -0.181 -6.676 0.046 -0.692 1.552 -9.116 0.177 -2.528 0.119 -0.265 0.318 -0.221 1.25 -0.369 2.232 -0.214 1.196 0.092 1.117 0.349 0.525 0.36 0.367 0.561 0.039 0.288 -0.249 0.706 -0.681 0.768 -0.782 0.497 -1.2 0.43 0 0 -1.462 0.246 0 0 -0.233 -0.064 0 0 0.011 1.571 0.555 -0.211 2.122 -0.122 2 0.205 1.542 0.407 0.516 0.303 0.137 0.196 -0.006 0.284 -0.319 0.595 -0.826 0.826 -1.218 0.776 -1.522 0.625 -2.179 0.509 -1.815 0.169 -0.424 -0.115 0.062 0.119 -0.005 0.093 -0.059 0.029 -0.057 -0.05 -0.007 -0.199 0.021 -1.075 -0.137 -0.068 -0.84 0.672 -0.227 0.247 -0.154 0.371 -0.025 0.443 0.123 0.39 0.342 0.446 1.18 0.436 2.3 -0.217 2.426 -0.578 1.784 -0.749 1.491 -0.973 1.114 -1.148 0.602 -1.174 -0.004 -1.202 -0.644 -0.898 -1.007 -0.587 -1.877 -0.492 -2.249 -0.232 -2.483 0.122 -0.786 0.261 0.011 1.571 0 0 0.627 0.226 0 0 2.029 -0.347 0 0 1.515 -0.549 1.136 -0.727 1.05 -1.192 0.488 -1.395 -0.145 -1.058 -0.751 -1.152 -1.004 -0.689 -1.536 -0.481 -1.529 -0.12 -2.537 0.243 -1.666 0.494 -0.922 0.651 -0.414 0.96 -0.178 2.735 -1.48 9.129 -0.049 0.849 0.291 6.803 0.068 0.504 0.289 1.138 0.142 0.325 0.407 0.5 0.325 0.175 0.454 -0.049 0.186 -0.101 0.277 -0.39 0.064 -0.126 0.563 -1.937" />
    <path class="write-flat-pen" fill="#FFFFFF" fill-opacity="0.133" stroke-width="1.8" __comx="433.01" __comy="54.612" __timestamp="0x177b66db72d" d="M428.977 54.207 l-0.447 -0.054 0.077 -0.001 -0.135 -0.263 0.004 -0.037 -0.129 -0.956 0.009 -0.209 0.279 -1.24 0.404 -0.81 0.096 -0.061 0.192 0.043 0.78 0.658 3.988 4.918 1.641 1.633 0.974 0.494 0.281 0.074 0.243 0.015 1.584 -0.053 0.073 -0.25 -1.31 -0.891 -0.162 -0.103 -0.108 -0.073 -0.654 -0.426 -1.444 -1.438 -4.111 -4.888 -1.151 -0.957 -1.12 -0.231 -0.88 0.625 -0.586 1.314 -0.238 1.549 0.025 0.445 0.315 1.159 0.156 0.279 0.481 0.384 0.285 0.093 0.634 -0.14" />
    <path class="write-flat-pen" fill="#FFFFFF" fill-opacity="0.133" stroke-width="1.8" __comx="439.624" __comy="54.612" __timestamp="0x177b66db8e0" d="M442.295 50.536 l0.44 -0.852 0.057 -0.066 0.188 -0.129 0.009 0.019 0 0 -0.984 -0.575 -0.071 -0.002 -0.057 0.044 -0.219 0.306 -0.167 0.246 -0.897 1.488 -0.288 0.494 -1.723 3.733 -1.081 3.224 -0.829 3.821 -0.439 4.124 -0.089 3.88 0.448 2.973 0.256 0.676 0.256 0.542 0.309 0.539 0.327 0.466 0.366 0.396 1.033 1.023 0.174 -0.102 -0.391 -1.4 -0.153 -0.487 -0.164 -0.473 -0.165 -0.522 -0.153 -0.504 -0.141 -0.517 -0.334 -2.705 0.086 -3.679 0.41 -3.969 0.778 -3.648 1.016 -3.06 1.621 -3.607 0.242 -0.44 0.809 -1.528 0.138 -0.278 0.14 -0.359 0.05 -0.144 -0.019 -0.137 -0.984 -0.575 0 0 -0.018 0.052 -0.118 0.334 -0.056 0.178 -0.255 0.954" />
    <path class="write-flat-pen" fill="#FFFFFF" fill-opacity="0.133" stroke-width="1.8" __comx="464.983" __comy="54.612" __timestamp="0x177b66dbd0c" d="M470.234 40.465 l-0.243 -0.446 -0.082 -0.156 -0.157 -0.303 -0.092 -0.179 -0.33 -0.534 -0.073 -0.102 -0.628 -0.732 -0.242 -0.192 -0.929 -0.485 -1.162 -0.18 -1.277 0.205 -1.246 0.644 -1.352 1.239 -0.758 1.175 -0.415 1.262 -0.204 1.865 0.259 1.546 0.599 1.219 0.888 1.04 4.264 2.516 1.127 0.879 0.651 0.812 0.6 1.256 0.253 1.161 -0.097 1.127 -0.358 0.832 -0.641 0.756 -0.87 0.54 -1.211 0.361 -1.523 0.15 -1.658 -0.13 -1.279 -0.388 -0.963 -0.587 -0.398 -0.501 -0.236 -0.626 -0.028 -0.58 0.138 -0.438 0.487 -0.575 0.723 -0.451 3.009 -0.779 0.283 -0.043 1.366 -0.211 0.298 -0.045 0.599 -0.094 0.315 -0.054 0.578 -0.122 0.281 -0.063 0.267 -0.058 0.273 -0.08 1.466 -0.5 -0.008 -0.109 -1.523 -0.283 -0.271 -0.041 -0.267 -0.03 -0.304 -0.027 -0.597 -0.025 -0.32 -0.006 -0.62 0.007 -0.33 0.014 -1.405 0.125 -0.383 0.043 -3.368 0.796 -1.188 0.713 -0.901 1.043 -0.338 1.071 0.06 1.162 0.436 1.131 0.762 0.944 1.415 0.844 1.664 0.491 1.989 0.141 1.828 -0.194 1.572 -0.484 1.268 -0.805 0.952 -1.15 0.536 -1.301 0.117 -1.621 -0.355 -1.565 -0.76 -1.579 -0.88 -1.094 -1.352 -1.051 -4.125 -2.435 -0.59 -0.692 -0.41 -0.837 -0.185 -1.107 0.161 -1.488 0.298 -0.921 0.535 -0.851 1.041 -0.996 0.847 -0.474 0.821 -0.166 0.738 0.072 0.663 0.265 0.08 0.041 0.635 0.522 0.053 0.044 0.439 0.407 0.152 0.143 0.298 0.229 0.148 0.097 0.395 0.303" />
    <path class="write-flat-pen" fill="#078799" stroke-width="1.8" __comx="195.911" __comy="113.696" __timestamp="0x177b66dc5f0" d="M197.872 99.971 l0.534 -0.24 -0.064 0.029 0.279 0.046 0.03 0.035 0.357 0.274 -0.005 0.02 0.51 1.374 0.033 0.333 -0.11 1.398 -0.772 2.2 -0.237 0.544 -1.251 2.441 -1.012 1.463 -1.376 1.358 -1.023 0.55 -1.112 0.298 -1.04 0.046 -0.914 -0.203 -0.528 -0.312 -0.362 -0.483 -0.267 -0.817 0.002 -1.034 0.279 -1.012 0.631 -1.054 0.551 -0.49 0.997 -0.413 1.076 -0.016 1.077 0.394 1.137 0.813 4.009 4.848 1.218 0.997 0.371 0.185 0.328 0.131 0.313 0.101 0.364 0.086 0.305 0.037 1.61 0.118 0.106 -0.31 -1.345 -0.892 -0.242 -0.151 -0.271 -0.157 -0.223 -0.139 -0.241 -0.151 -0.181 -0.127 -0.944 -0.87 -4.058 -4.907 -1.493 -1.061 -1.565 -0.569 -1.683 0.023 -1.538 0.631 -0.947 0.835 -0.877 1.459 -0.399 1.438 -0.003 1.515 0.43 1.324 0.72 0.962 1.035 0.612 1.382 0.305 1.436 -0.068 1.466 -0.4 1.391 -0.758 1.642 -1.636 1.145 -1.689 1.275 -2.611 0.262 -0.656 0.752 -2.467 0.052 -1.715 -0.099 -0.631 -0.797 -1.675 -0.291 -0.28 -0.721 -0.305 -0.334 -0.033 -0.486 0.14 -0.11 0.046 -0.493 0.481" />
    <path class="write-flat-pen" fill="#078799" stroke-width="1.8" __comx="228.146" __comy="113.696" __timestamp="0x177b66dcac3" d="M221.211 136.052 l-0.041 0.932 0.187 0.135 0 0 0.6 -0.36 0.095 -0.221 0.019 -0.181 0.014 -0.93 -0.019 -0.473 -0.355 -7.204 -0.03 -0.865 -0.271 -10.189 0.092 -4.177 0.159 -0.785 0.361 -0.651 1.069 -0.971 1.078 -0.601 1.262 -0.361 1.068 -0.041 0.889 0.247 0.466 0.326 0.29 0.435 0.126 0.693 -0.132 0.785 -0.399 0.81 -0.541 0.532 -0.661 0.331 -0.66 0.101 -0.048 -0.022 0.121 0.257 -0.134 0.234 0.298 -0.137 1.29 -0.162 5.451 0.306 1.452 0.31 0.294 0.262 0.135 0.336 -0.038 0.554 -0.398 0.7 -0.741 0.71 -1.501 0.805 -1.452 0.408 -1.9 0.218 -2.193 -0.315 0.173 0.204 0.095 0.257 -0.059 0.144 -0.287 -0.672 -0.644 -0.042 -0.371 0.629 -0.065 0.243 0.149 0.36 0.314 0.331 2.852 0.497 2.252 -0.267 1.745 -0.499 1.843 -1.006 1.056 -1.033 0.676 -1.219 0.076 -1.271 -0.417 -1.003 -0.877 -0.766 -1.965 -0.412 -5.704 -0.339 -1.662 0.19 -1.011 0.436 -0.531 0.95 0.498 1.056 1.048 0.414 1.341 -0.226 1.097 -0.577 0.881 -0.91 0.586 -1.254 0.186 -1.267 -0.253 -1.243 -0.621 -0.904 -0.896 -0.618 -1.347 -0.372 -1.471 0.055 -1.594 0.458 -1.371 0.767 -1.368 1.249 -0.582 1.057 -0.228 1.131 -0.081 4.342 0.319 10.231 0.039 0.886 0.499 7.22 0.054 0.471 0.124 0.904 0.034 0.139 0.087 0.193 0.6 -0.36 0 0 0.166 0.124 -0.123 -0.489" />
    <path class="write-flat-pen" fill="#078799" stroke-width="1.8" __comx="254.434" __comy="113.696" __timestamp="0x177b66dcd23" d="M249.701 114.433 l-0.298 -0.564 -0.015 -0.079 -0.175 -0.675 -0.034 -0.175 -0.158 -1.208 -0.015 -0.284 0.135 -2.062 0.054 -0.316 0.392 -1.43 0.372 -0.65 0.153 -0.088 0.091 0.013 0.408 0.338 2.631 4.897 1.257 1.888 1.596 1.533 2.319 1.268 0.327 0.095 0.479 0.079 0.208 0.003 1.568 -0.097 0.045 -0.184 -1.344 -0.814 -0.152 -0.086 -0.369 -0.182 -0.164 -0.088 -2.004 -1.214 -1.343 -1.29 -1.13 -1.689 -2.754 -5.085 -0.989 -0.806 -1.043 -0.093 -0.892 0.574 -0.607 1.163 -0.373 1.694 -0.051 0.458 0.013 2.218 0.062 0.41 0.335 1.277 0.1 0.248 0.366 0.663 0.091 0.141 0.487 0.507" />
    <path class="write-flat-pen" fill="#078799" stroke-width="1.8" __comx="262.9" __comy="113.696" __timestamp="0x177b66dcec1" d="M266.236 105.285 l-0.389 0.586 -0.149 0.21 -0.345 0.566 -0.187 0.369 -0.76 1.464 -0.286 0.575 -1.332 2.676 -0.374 0.814 -1.424 3.524 -0.331 0.968 -0.812 2.822 -0.494 2.796 -0.205 3.602 0.129 1.701 0.577 2.357 0.897 1.862 0.379 0.544 0.793 0.892 0.454 0.388 0.448 0.303 0.413 0.201 0.44 0.122 1.367 0.322 0.066 -0.131 -1.069 -0.911 -0.313 -0.259 -0.251 -0.227 -0.278 -0.31 -0.293 -0.369 -0.602 -0.867 -0.248 -0.42 -0.723 -1.655 -0.494 -2.089 -0.112 -1.472 0.18 -3.411 0.435 -2.636 0.731 -2.728 0.285 -0.908 1.292 -3.504 0.327 -0.784 1.206 -2.724 0.249 -0.6 0.611 -1.552 0.124 -0.388 0.205 -0.592 0.088 -0.247 0.192 -0.695" />
    <path class="write-flat-pen" fill="#078799" stroke-width="1.8" __comx="290.995" __comy="113.696" __timestamp="0x177b66dd2ce" d="M293.551 98.15 l-0.04 -0.96 -0.039 -0.255 -0.262 -0.793 -0.152 -0.289 -0.574 -0.692 -0.306 -0.216 -1.478 -0.361 -0.58 0.101 -1.716 0.667 -1.245 0.918 -1.011 1.21 -0.845 1.697 -0.502 1.726 -0.058 1.275 0.338 0.95 1.009 0.86 3.653 1.254 1.719 0.937 1.272 1.087 1.136 1.498 0.536 1.053 0.648 2.244 0.135 1.752 -0.136 1.646 -0.469 1.485 -0.748 1.295 -1.107 1.09 -1.379 0.699 -1.682 0.332 -1.545 -0.049 -0.664 -0.199 -0.882 -0.577 -0.63 -0.851 -0.348 -1.079 -0.064 -1.19 0.187 -0.973 0.522 -1.091 0.499 -0.536 1.05 -0.542 1.423 -0.273 2.469 -0.111 2.785 0.234 0.283 0.039 0.65 0.137 0.348 0.093 0.314 0.091 0.293 0.093 0.294 0.092 1.466 0.407 0.09 -0.145 -1.023 -1.126 -0.248 -0.242 -0.307 -0.222 -0.338 -0.21 -0.422 -0.211 -0.76 -0.263 -0.413 -0.093 -2.962 -0.34 -2.707 0.095 -1.787 0.322 -1.545 0.772 -0.898 0.941 -0.749 1.534 -0.273 1.409 0.09 1.633 0.511 1.565 0.988 1.327 1.353 0.883 1.123 0.335 1.969 0.058 2.108 -0.425 1.825 -0.937 1.453 -1.449 0.944 -1.663 0.565 -1.847 0.14 -1.966 -0.177 -2.046 -0.746 -2.547 -0.673 -1.318 -1.331 -1.752 -1.533 -1.311 -1.988 -1.086 -3.499 -1.191 -0.454 -0.377 -0.093 -0.248 0.026 -0.775 0.391 -1.419 0.672 -1.43 0.756 -0.956 0.93 -0.724 1.39 -0.603 0.176 -0.046 1.004 0.137 0.009 -0.011 0.504 0.416 0.1 0.112 0.381 0.587 0.063 0.13 0.246 0.887" />
    <path class="write-flat-pen" fill="#5CCFDF" fill-opacity="1" stroke-width="1.8" __comx="377.118" __comy="114.211" __timestamp="0x177b66ddc77" d="M379.314 102.717 l0.478 -0.495 0.184 0.136 -0.063 -0.052 0.144 0.598 0.016 0.203 0.014 1.198 -0.027 0.286 -0.29 1.569 -0.092 0.332 -0.887 2.142 -0.2 0.352 -0.828 1.189 -1.228 1.259 -0.966 0.645 -0.925 0.345 -1.339 0.195 -0.991 -0.148 -0.921 -0.414 -0.433 -0.447 -0.198 -0.445 -0.033 -0.659 0.186 -0.642 0.423 -0.579 0.592 -0.308 0.831 -0.039 0.814 0.278 1.196 0.791 1.608 1.541 2.759 3.409 1.323 1.164 1.416 0.491 0.43 0.053 0.44 0.008 0.427 -0.068 0.291 -0.065 0.288 -0.101 1.393 -0.594 -0.018 -0.178 -1.482 -0.308 -0.281 -0.045 -0.262 -0.029 -0.319 -0.036 -0.277 -0.059 -0.221 -0.061 -0.973 -0.413 -0.99 -0.891 -2.758 -3.373 -1.8 -1.693 -1.482 -0.978 -1.286 -0.445 -1.48 0.054 -1.253 0.625 -0.833 1.117 -0.345 1.188 0.067 1.24 0.448 0.983 0.855 0.866 1.409 0.621 1.446 0.202 1.735 -0.273 1.247 -0.48 1.245 -0.847 1.418 -1.485 0.914 -1.379 0.267 -0.51 0.847 -2.361 0.1 -0.487 0.176 -1.711 -0.004 -0.417 -0.181 -1.308 -0.088 -0.335 -0.368 -0.723 -0.205 -0.24 -0.833 -0.086 -0.65 0.797" />
    <path class="write-flat-pen" fill="#5CCFDF" fill-opacity="1" stroke-width="1.8" __comx="408.803" __comy="114.211" __timestamp="0x177b66de09d" d="M404.66 131.757 l-0.156 -0.274 0.042 0.016 0.024 -0.239 0.004 -0.123 -0.02 -0.404 -0.014 -0.214 -0.066 -0.99 -0.025 -0.408 -0.433 -4.748 -0.067 -0.722 -0.627 -7.447 -0.009 -0.51 0.115 -2.996 0.332 -1.717 0.482 -1.007 0.633 -0.772 0.852 -0.618 1.05 -0.38 1.064 -0.09 0.605 0.167 0.492 0.374 0.284 0.563 0.124 0.708 -0.269 1.125 -0.377 0.637 -0.554 0.502 -0.238 0.089 -0.219 -0.034 0.256 0.248 -0.186 0.666 0.334 -0.101 1.801 0.136 3.646 0.829 0.597 0.294 -0.014 -0.035 -0.145 0.41 -1.059 1.15 -1.755 1.231 -1.665 0.849 -1.313 0.421 -0.871 0.083 -0.323 -0.1 -0.406 -0.404 -0.013 0.005 -0.047 -0.135 -0.04 -0.118 -0.029 -0.207 0.004 -0.242 0.017 -0.274 0.032 -1.361 -0.171 -0.067 -0.905 1.017 -0.197 0.269 -0.17 0.36 -0.124 0.458 -0.001 0.364 0.044 0.399 0.175 0.453 0.882 0.983 1.087 0.348 1.406 -0.135 1.622 -0.525 1.891 -0.976 1.998 -1.413 1.41 -1.551 0.439 -1.282 -0.395 -1.169 -1.401 -0.68 -3.949 -0.909 -2.224 -0.188 -1.557 0.433 -0.344 1.243 0.878 0.847 1.217 0.163 0.948 -0.379 0.961 -0.905 0.613 -1.079 0.382 -1.7 -0.234 -1.273 -0.563 -1.111 -1.042 -0.792 -1.19 -0.328 -1.57 0.131 -1.472 0.53 -1.212 0.878 -0.892 1.089 -0.658 1.377 -0.386 2.05 -0.099 3.168 0.017 0.611 0.733 7.5 0.08 0.73 0.559 4.734 0.058 0.424 0.202 1.025 0.071 0.245 0.144 0.391 0.059 0.138 0.159 0.272 0.095 0.144 0.381 0.257" />
    <path class="write-flat-pen" fill="#5CCFDF" fill-opacity="1" stroke-width="1.8" __comx="436.271" __comy="114.211" __timestamp="0x177b66de357" d="M432.711 114.851 l-0.602 -0.124 0.004 -0.017 -0.186 -0.149 0.016 -0.011 -0.184 -0.236 0.026 0.007 -0.149 -0.302 -0.029 -0.116 -0.138 -0.61 -0.001 -0.052 0.135 -1.37 0.029 -0.099 0.982 -2.016 0.62 -0.816 0.674 -0.46 0.213 -0.038 0.264 0.085 0.392 0.38 2.721 5.799 1.474 2.549 1.082 1.164 0.273 0.164 0.288 0.13 0.392 0.072 0.292 -0.036 1.294 -0.434 0.025 -0.222 -1.165 -0.711 -0.136 -0.084 -0.072 -0.071 -0.061 -0.062 -0.023 -0.031 -0.781 -0.902 -1.355 -2.326 -2.851 -5.998 -0.896 -0.866 -1.039 -0.334 -0.983 0.177 -1.197 0.823 -0.882 1.175 -1.092 2.337 -0.095 0.404 -0.064 1.726 0.077 0.327 0.294 0.754 0.182 0.313 0.403 0.412 0.117 0.091 0.415 0.2 0.138 0.046 0.336 0.03 0.115 0.007 0.677 -0.057" />
    <path class="write-flat-pen" fill="#5CCFDF" fill-opacity="1" stroke-width="1.8" __comx="443.139" __comy="114.211" __timestamp="0x177b66de4a9" d="M445.694 108.385 l-0.358 0.74 -0.105 0.183 -0.299 0.528 -0.149 0.33 -0.353 0.833 -0.157 0.499 -0.341 1.157 -0.152 0.645 -0.479 2.276 -0.151 0.848 -0.709 3.726 -0.201 0.979 -2.02 10.69 -0.052 0.476 -0.026 0.425 -0.002 0.374 0.013 0.383 0.079 0.423 0.069 0.318 0.161 0.371 0.644 1.28 0.124 -0.026 0.085 -1.431 0.015 -0.336 0.031 -0.242 0.045 -0.332 0.071 -0.277 0.076 -0.329 0.087 -0.375 0.1 -0.429 2.099 -10.653 0.188 -0.993 0.622 -3.771 0.119 -0.85 0.353 -2.272 0.096 -0.62 0.214 -1.158 0.079 -0.475 0.184 -0.843 0.062 -0.325 0.14 -0.569 0.045 -0.219 0.196 -0.802" />
    <path class="write-flat-pen" fill="#5CCFDF" fill-opacity="1" stroke-width="1.8" __comx="466.734" __comy="114.211" __timestamp="0x177b66de886" d="M470.307 99.992 l0.167 -0.746 0.049 -0.11 0.189 -0.446 0.06 -0.164 0.21 -0.575 0.059 -0.231 0.079 -0.788 -0.056 -0.301 -0.627 -0.934 -0.477 -0.263 -1.199 -0.159 -1.604 0.561 -1.628 1.176 -1.497 1.542 -1.592 2.207 -1.072 1.996 -0.645 1.884 -0.088 1.34 0.443 1.029 0.968 0.918 4.804 1.503 1.708 0.77 1.034 0.716 0.766 0.863 0.499 0.998 0.29 1.378 -0.127 1.068 -0.386 1.019 -0.667 0.936 -0.95 0.693 -1.137 0.422 -1.634 0.223 -0.854 -0.093 -0.649 -0.273 -0.542 -0.458 -0.301 -0.522 -0.153 -0.831 0.179 -1.109 0.51 -1.128 0.652 -0.835 1.034 -0.808 0.856 -0.376 1.466 -0.264 0.634 0.047 0.948 0.429 0.07 0.048 0.324 0.304 0.124 0.136 0.127 0.151 0.124 0.167 0.137 0.178 0.964 1.115 0.128 -0.05 -0.051 -1.473 -0.028 -0.243 -0.067 -0.276 -0.104 -0.28 -0.156 -0.314 -0.387 -0.507 -0.28 -0.282 -1.415 -0.739 -1.167 -0.106 -1.882 0.328 -1.237 0.536 -1.373 1.063 -0.911 1.161 -0.689 1.523 -0.261 1.628 0.266 1.412 0.603 1.03 0.97 0.81 1.116 0.464 1.306 0.136 2.021 -0.287 1.524 -0.574 1.349 -0.992 0.946 -1.328 0.537 -1.41 0.182 -1.544 -0.393 -1.855 -0.695 -1.384 -1.043 -1.175 -1.321 -0.916 -1.937 -0.876 -4.533 -1.416 -0.443 -0.418 -0.153 -0.351 0.045 -0.724 0.527 -1.549 0.956 -1.78 1.46 -2.02 1.312 -1.356 1.316 -0.963 1.021 -0.38 0.537 0.039 -0.083 -0.055 0.319 0.334 -0.028 -0.166 0.06 0.532 0.001 0.107 -0.053 0.589 -0.01 0.177 -0.019 0.488 -0.005 0.17 0.017 0.802" />
    <path class="write-flat-pen" fill="#E30641" stroke-width="1.8" __comx="196.702" __comy="173.203" __timestamp="0x177b66dfee5" d="M204.4 161.221 l0.09 -0.166 0.227 -0.061 -0.432 -0.588 -0.09 0.026 -0.154 0.106 -0.104 0.097 -0.174 0.205 -0.099 0.155 -0.255 0.439 -0.13 0.271 -0.464 1.097 -0.217 0.496 -1.533 3.252 -0.282 0.509 -1.392 2.049 -1.231 1.363 -1.32 1.08 -1.35 0.771 -1.381 0.432 -2.239 0.317 -0.99 -0.082 -0.582 -0.234 -0.371 -0.393 -0.297 -0.823 -0.027 -1.151 0.317 -1.265 0.566 -1.222 1.073 -1.467 0.729 -0.538 1.054 -0.334 0.819 0.071 1.002 0.457 1.243 0.945 1.283 1.351 1.229 1.809 1.002 2.048 1.571 4.181 0.923 1.781 0.873 0.878 0.27 0.152 0.336 0.116 0.223 0.01 1.303 -0.204 0.051 -0.179 -1 -0.861 -0.067 -0.072 -0.098 -0.103 -0.02 -0.039 -0.534 -0.637 -0.766 -1.505 -1.558 -4.17 -1.089 -2.223 -1.371 -2.016 -1.469 -1.541 -1.494 -1.131 -1.42 -0.648 -1.421 -0.127 -1.623 0.508 -1.153 0.842 -1.325 1.797 -0.706 1.509 -0.417 1.633 0.031 1.648 0.503 1.409 0.862 0.915 1.158 0.466 1.431 0.117 2.56 -0.372 1.679 -0.533 1.623 -0.935 1.518 -1.254 1.38 -1.55 1.475 -2.221 0.336 -0.63 1.477 -3.375 0.208 -0.559 0.36 -1.146 0.074 -0.254 0.138 -0.471 0.031 -0.157 0.027 -0.208 -0.014 -0.062 -0.076 0.002 -0.074 0.017 -0.432 -0.588 -0.073 0.224 -0.175 0.271" />
    <path class="write-flat-pen" fill="#E30641" stroke-width="1.8" __comx="227.99" __comy="173.203" __timestamp="0x177b66e0323" d="M223.643 179.455 l0.096 4.689 0.007 0.507 -0.041 1.645 -0.019 0.258 -0.127 0.616 0.151 -0.427 0.53 0.02 0.099 0.145 -0.703 -3.421 -0.051 -0.642 -0.264 -7.337 -0.001 -0.704 -0.096 -9.789 0.149 -1.24 0.152 -0.305 0.21 -0.155 0.608 -0.127 1.471 0.167 1.79 0.526 1.498 0.707 0.549 0.496 0.288 0.635 0.036 0.517 -0.267 0.956 -0.42 0.64 -0.812 0.741 -0.93 0.464 0 0 -0.246 0.04 0 0 0.161 0.171 0 0 -0.44 1.406 1.072 -0.222 1.025 0.056 1.384 0.418 1.094 0.638 0.762 0.776 0.313 0.666 0.063 0.57 -0.179 0.687 -0.45 0.698 -0.852 0.676 -1.228 0.553 -1.416 0.339 -1.895 0.126 -0.857 -0.166 0.041 0.056 0.089 0.091 0.042 0.174 -0.044 0.094 -0.503 -0.618 -0.502 0.062 -0.336 0.723 -0.028 0.219 0.16 0.373 0.162 0.152 0.253 0.202 1.39 0.341 2.282 -0.149 1.712 -0.41 1.565 -0.712 1.229 -0.989 0.735 -1.165 0.309 -1.244 -0.137 -1.14 -0.551 -1.16 -1.112 -1.13 -1.449 -0.846 -1.754 -0.535 -1.43 -0.089 -1.283 0.243 -0.44 1.406 0 0 0.446 0.466 0 0 1.369 -0.222 0 0 1.369 -0.686 1.14 -1.044 0.676 -1.037 0.41 -1.488 -0.083 -1.106 -0.562 -1.218 -0.987 -0.889 -1.838 -0.866 -2.051 -0.599 -1.876 -0.216 -1.224 0.253 -0.825 0.606 -0.462 0.923 -0.189 1.638 0.155 9.891 0.009 0.728 0.371 7.394 0.072 0.773 0.892 3.671 0.326 0.564 1.048 0.107 0.23 -0.62 -0.013 -0.843 -0.02 -0.309 -0.139 -1.664 -0.05 -0.51 -0.314 -4.675" />
    <path class="write-flat-pen" fill="#E30641" stroke-width="1.8" __comx="256.172" __comy="173.203" __timestamp="0x177b66e05ea" d="M251.598 172.574 l-0.333 0.239 0.011 -0.035 0.03 -0.143 0.286 -0.042 0.221 0.073 0.089 0.069 0.008 -0.271 0.014 -0.057 0.288 -1.44 0.104 -0.314 0.637 -1.564 0.694 -1.038 0.29 -0.213 0.179 -0.031 0.547 0.248 0.775 0.817 2.853 5.418 1.235 1.539 0.279 0.187 0.309 0.138 0.055 0.018 1.544 0.281 0.102 -0.162 -0.929 -1.265 -0.027 -0.033 -0.186 -0.187 -0.05 -0.07 -0.982 -1.318 -2.933 -5.461 -1.131 -1.183 -1.246 -0.571 -1.011 0.167 -0.809 0.595 -0.929 1.403 -0.697 1.777 -0.143 0.48 -0.212 1.742 0.052 0.334 0.205 0.489 0.195 0.255 0.354 0.161 0.319 -0.044 0.19 -0.26 0.023 -0.053 0.144 -0.326" />
    <path class="write-flat-pen" fill="#E30641" stroke-width="1.8" __comx="262.335" __comy="173.203" __timestamp="0x177b66e078a" d="M265.96 166.375 l-0.216 -0.737 -0.535 -0.104 -0.342 0.29 -0.177 0.216 -0.532 1.013 -0.218 0.503 -1.485 3.805 -0.369 0.936 -1.444 4.052 -0.339 1.096 -0.894 3.509 -0.5 3.634 -0.197 4.779 0.23 3.061 0.446 1.732 0.965 2.007 0.4 0.58 0.435 0.523 0.481 0.47 0.499 0.383 0.481 0.251 1.302 0.605 0.134 -0.162 -0.839 -1.165 -0.299 -0.393 -0.312 -0.414 -0.311 -0.468 -0.308 -0.492 -0.272 -0.477 -0.796 -1.801 -0.363 -1.446 -0.214 -2.822 0.173 -4.608 0.454 -3.472 0.827 -3.395 0.301 -1.036 1.336 -4.03 0.343 -0.925 1.375 -3.838 0.171 -0.481 0.345 -0.978 0.03 -0.114 -0.136 0.052 -0.45 -0.095 0.147 0.215" />
    <path class="write-flat-pen" fill="#E30641" stroke-width="1.8" __comx="284.721" __comy="173.203" __timestamp="0x177b66e0b2d" d="M287.938 157.757 l0.095 -0.657 0.013 -0.056 0.062 -0.351 -0.038 -0.18 -0.145 -0.346 -0.198 -0.219 -0.39 -0.283 -0.273 -0.102 -0.684 -0.114 -0.409 0.038 -1.333 0.327 -0.408 0.136 -2.093 0.997 -1.763 1.264 -0.941 1.21 -0.567 1.291 -0.219 1.456 0.207 1 0.793 1.199 4.591 2.961 1.813 1.486 1.168 1.331 1.079 1.779 0.454 1.182 0.309 1.68 -0.089 0.781 -0.372 0.796 -0.74 0.76 -1.16 0.597 -1.625 0.43 -2.079 0.191 -1.027 -0.137 -0.77 -0.334 -0.432 -0.531 -0.155 -0.521 0.089 -0.757 0.347 -0.801 0.689 -0.915 1.306 -1.15 1.659 -1.083 1.865 -0.681 0.124 -0.028 0.689 -0.097 0.188 -0.016 0.229 0.004 0.198 0 0.257 0.023 0.197 0.007 1.555 -0.047 0.06 -0.198 -1.265 -0.905 -0.173 -0.106 -0.308 -0.143 -0.278 -0.085 -0.323 -0.081 -0.369 -0.038 -0.854 0.027 -0.34 0.046 -2.222 0.751 -1.944 1.258 -1.539 1.347 -0.925 1.224 -0.534 1.231 -0.158 1.375 0.365 1.203 0.93 1.12 1.378 0.588 1.457 0.191 2.416 -0.224 1.946 -0.516 1.577 -0.813 1.138 -1.173 0.611 -1.316 0.145 -1.313 -0.383 -2.085 -0.564 -1.474 -1.236 -2.041 -1.36 -1.552 -1.998 -1.638 -4.366 -2.822 -0.409 -0.62 -0.077 -0.372 0.14 -0.923 0.388 -0.884 0.655 -0.846 1.435 -1.04 1.856 -0.921 0.26 -0.097 1.152 -0.363 0.118 -0.031 0.37 -0.011 -0.005 -0.02 0.179 0.038 -0.004 -0.043 0.072 0.008 -0.009 -0.082 0.107 0.18 0.013 0.017 0.095 0.657" />
    <path class="write-flat-pen" fill="#F7638B" fill-opacity="1" stroke-width="1.8" __comx="377.838" __comy="172.892" __timestamp="0x177b66e136b" d="M380.041 162.363 l0.438 -0.277 -0.012 0.034 0.329 0.037 -0.122 0 0.306 0.223 -0.046 -0.022 0.409 1.121 -0.013 0.258 -0.264 1.436 -0.616 1.663 -1.291 2.409 -1.579 2.246 -1.379 1.485 -1.109 0.768 -0.677 0.205 -0.602 -0.068 -0.381 -0.243 -0.328 -0.531 -0.142 -0.777 0.137 -0.887 0.495 -1.082 0.534 -0.617 0.697 -0.416 0.943 -0.218 0.743 0.055 1.194 0.394 1.145 0.736 0.994 1.058 1.919 3.347 0.268 0.328 0.323 0.295 0.231 0.16 0.217 0.097 1.46 0.454 0.115 -0.149 -0.806 -1.299 -0.102 -0.149 -0.075 -0.122 -0.147 -0.247 -0.132 -0.229 -1.914 -3.485 -1.284 -1.35 -1.498 -0.951 -1.585 -0.519 -1.193 -0.088 -1.438 0.332 -1.147 0.685 -0.864 0.997 -0.686 1.508 -0.209 1.389 0.256 1.355 0.699 1.107 1.021 0.634 1.307 0.131 1.227 -0.391 1.444 -1.02 1.555 -1.701 1.677 -2.422 1.364 -2.599 0.669 -1.902 0.256 -1.689 -0.006 -0.671 -0.759 -1.586 -0.315 -0.275 -0.741 -0.267 -0.208 -0.005 -0.513 0.168 -0.214 0.11 -0.436 0.526" />
    <path class="write-flat-pen" fill="#F7638B" fill-opacity="1" stroke-width="1.8" __comx="409.953" __comy="172.892" __timestamp="0x177b66e1757" d="M404.356 183.078 l0.275 3.225 0.051 0.422 0.167 1.906 0.018 0.284 0.017 0.677 -0.007 0.211 -0.01 0.18 1.202 0.032 0.084 -0.145 0.035 -0.525 -0.016 -0.405 -0.614 -6.475 -0.095 -0.931 -0.571 -5.19 -0.31 -5.239 0.123 -0.875 0.251 -0.449 0.636 -0.558 0.769 -0.337 1.02 -0.173 0.902 0.084 1.213 0.423 0.88 0.568 0.591 0.693 0.344 0.758 0.119 0.813 -0.116 0.562 -0.406 0.71 -0.528 0.443 -0.866 0.322 -0.551 0.026 -0.377 -0.135 0.067 0.074 -0.046 0.349 -0.003 -0.007 1.166 -0.177 1.74 0.101 1.701 0.387 0.949 0.437 0.636 0.543 0.408 0.712 0.11 0.608 -0.109 0.569 -0.383 0.631 -0.629 0.527 -1.343 0.558 -1.308 0.228 -1.741 -0.018 -0.785 -0.184 0.057 0.046 0.017 0.031 -0.096 -0.019 -1.278 -0.315 -0.108 0.113 0.369 1.263 0.121 0.188 0.126 0.104 0.157 0.103 1.176 0.367 2.124 0.022 1.648 -0.294 1.753 -0.741 1.032 -0.882 0.671 -1.131 0.213 -1.166 -0.221 -1.188 -0.695 -1.203 -1.027 -0.874 -1.311 -0.603 -2 -0.458 -2.045 -0.128 -1.64 0.231 -1.034 0.566 -0.151 1.292 0.749 0.805 1.089 0.386 1.153 -0.061 1.386 -0.524 0.978 -0.833 0.679 -1.209 0.219 -1.113 -0.203 -1.333 -0.54 -1.181 -0.9 -1.055 -1.251 -0.809 -1.592 -0.556 -1.321 -0.125 -1.439 0.244 -1.194 0.524 -1.043 0.917 -0.545 0.968 -0.192 1.352 0.348 5.45 0.633 5.22 0.103 0.92 0.721 6.449 0.05 0.35 0.058 0.235 0.057 -0.068 1.202 0.032 -0.083 -0.07 -0.054 -0.106 -0.138 -0.652 -0.056 -0.288 -0.354 -1.891 -0.081 -0.411 -0.48 -3.187" />
    <path class="write-flat-pen" fill="#F7638B" fill-opacity="1" stroke-width="1.8" __comx="435.689" __comy="172.892" __timestamp="0x177b66e1999" d="M432.611 172.445 l-0.479 -0.002 -0.082 -0.026 -0.219 -0.062 -0.016 -0.021 -0.175 -0.107 0.01 -0.032 -0.045 -0.09 0.004 -0.048 -0.1 -0.343 0.006 -0.056 0.145 -1.142 0.043 -0.171 0.77 -1.659 0.644 -0.869 0.266 -0.182 0.211 -0.025 0.366 0.185 3.144 5.044 1.936 2.439 0.296 0.189 0.201 0.1 0.324 0.095 0.265 -0.009 1.26 -0.339 0.037 -0.173 -1.011 -0.824 -0.094 -0.085 -0.049 -0.067 -0.038 -0.048 -0.037 -0.047 -1.688 -2.21 -3.355 -5.366 -1.25 -0.632 -1.137 0.141 -0.841 0.584 -0.906 1.247 -0.881 1.99 -0.092 0.443 -0.088 1.471 0.103 0.447 0.354 0.63 0.288 0.294 0.366 0.184 0.275 0.076 0.423 -0.034 0.12 -0.024 0.251 -0.105 0.111 -0.051 0.466 -0.19" />
    <path class="write-flat-pen" fill="#F7638B" fill-opacity="1" stroke-width="1.8" __comx="443.244" __comy="172.892" __timestamp="0x177b66e1b0e" d="M446.356 167.588 l-0.777 0.078 -0.178 0.309 -0.126 0.18 -0.074 0.157 -0.124 0.327 -0.072 0.243 -0.301 1.037 -0.113 0.4 -3.619 9.818 -0.589 2.132 -0.379 2.65 0.026 2.733 1.005 2.885 0.338 0.549 0.316 0.456 0.362 0.44 0.405 0.385 0.458 0.355 0.483 0.299 0.465 0.174 1.343 0.437 0.079 -0.126 -0.985 -1.012 -0.307 -0.306 -0.299 -0.336 -0.287 -0.378 -0.251 -0.367 -0.237 -0.391 -0.232 -0.419 -0.213 -0.407 -0.808 -2.511 -0.017 -2.349 0.347 -2.424 0.542 -1.968 3.544 -9.862 0.11 -0.496 0.198 -1.104 0.023 -0.26 0.017 -0.306 -0.004 -0.115 -0.025 -0.124 -0.138 0.222 0.222 -0.058" />
    <path class="write-flat-pen" fill="#F7638B" fill-opacity="1" stroke-width="1.8" __comx="467.274" __comy="172.892" __timestamp="0x177b66e1e75" d="M471.674 157.809 l-0.287 -0.845 -0.073 -0.184 -0.216 -0.56 -0.138 -0.276 -0.422 -0.721 -0.19 -0.262 -0.595 -0.675 -0.32 -0.308 -1.437 -0.83 -0.382 -0.117 -1.213 -0.107 -1.079 0.389 -0.8 0.767 -0.706 1.59 -0.336 2.094 0.065 2.659 0.343 1.555 0.953 2.331 1.006 1.722 1.409 1.617 3.327 2.515 1.045 1.055 0.48 0.947 0.104 0.758 -0.158 0.647 -0.464 0.774 -0.894 0.901 -1.282 0.816 -1.907 0.752 -2.409 0.492 -1.63 0.061 -0.527 -0.186 -0.246 -0.258 -0.253 -0.654 -0.027 -0.663 0.335 -1.398 1.024 -2.269 0.979 -1.579 0.986 -1.131 1.013 -0.785 0.791 -0.318 1.052 0.011 0.101 0.032 0.443 0.278 0.165 0.152 0.27 0.271 0.2 0.242 0.275 0.329 0.222 0.308 0.257 0.331 0.227 0.293 0.913 1.113 0.12 -0.054 -0.233 -1.42 -0.085 -0.399 -0.147 -0.413 -0.134 -0.401 -0.215 -0.45 -0.192 -0.365 -0.294 -0.406 -0.27 -0.333 -0.692 -0.534 -0.551 -0.252 -1.732 -0.08 -1.361 0.525 -1.354 1.033 -1.202 1.365 -1.122 1.8 -1.143 2.53 -0.43 1.804 0.053 1.206 0.497 1.26 0.795 0.81 1.239 0.417 2.098 -0.099 2.688 -0.572 2.19 -0.878 1.574 -1.009 1.168 -1.184 0.697 -1.171 0.29 -1.207 -0.191 -1.351 -0.726 -1.43 -1.315 -1.326 -3.285 -2.48 -1.19 -1.368 -0.867 -1.483 -0.853 -2.089 -0.275 -1.256 -0.051 -2.343 0.278 -1.727 0.48 -1.094 0.305 -0.302 0.407 -0.159 0.688 0.034 0.059 0.012 1.178 0.578 0.175 0.136 0.597 0.527 0.154 0.152 0.498 0.567 0.154 0.184 0.34 0.458 0.102 0.129 0.427 0.739" />
    <path class="write-flat-pen" fill="#FB7C07" stroke-width="1.8" __comx="196.672" __comy="232.814" __timestamp="0x177b66e2807" d="M202.499 220.497 l0.123 -0.603 0.041 -0.06 0.177 -0.262 -0.021 0.065 0.026 0.071 -0.489 0.043 -0.101 -0.037 -0.022 -0.035 -0.239 1.677 -0.099 0.411 -1.221 3.21 -1.927 3.997 -1.345 2.139 -1.416 1.741 -1.369 1.261 -1.208 0.711 -1.455 0.385 -0.891 -0.125 -0.436 -0.247 -0.396 -0.466 -0.407 -1.113 -0.128 -1.405 0.271 -1.772 0.514 -1.607 0.674 -1.249 0.78 -0.93 0.81 -0.527 0.931 -0.251 1.053 0.067 1.415 0.564 1.475 0.951 1.578 1.422 1.491 1.955 1.285 2.282 1.83 4.343 0.049 0.086 0.141 0.131 1.105 0.636 0.161 -0.095 -0.023 -1.275 -0.013 -0.131 0.012 0.009 -1.776 -4.424 -1.395 -2.469 -1.664 -2.16 -1.797 -1.601 -1.724 -1.095 -1.798 -0.703 -1.565 -0.096 -1.427 0.383 -1.221 0.793 -1.041 1.235 -0.823 1.524 -0.598 1.87 -0.32 2.089 0.162 1.807 0.575 1.581 0.769 0.904 0.955 0.536 1.515 0.2 1.969 -0.541 1.531 -0.914 1.568 -1.455 1.542 -1.905 1.433 -2.299 1.972 -4.148 1.235 -3.386 0.124 -0.594 0.15 -1.977 -0.097 -0.402 -0.507 -0.666 -0.633 0.049 -0.349 0.457 -0.063 0.149 -0.046 0.435 -0.002 0.165 0.047 0.66" />
    <path class="write-flat-pen" fill="#FB7C07" stroke-width="1.8" __comx="228.197" __comy="232.814" __timestamp="0x177b66e2c3e" d="M222.959 246.192 l0.173 2.985 0.007 0.38 -0.045 1.397 -0.003 -0.004 -0.084 0.179 -0.032 -0.027 0.783 -0.252 0.101 -0.009 0.07 0.08 -0.26 -1.183 -0.074 -0.448 -0.72 -6.186 -0.095 -0.904 -0.567 -6.59 -0.196 -5.251 0.094 -4.42 0.141 -0.478 0.397 -0.471 0.705 -0.353 1.63 -0.271 1.613 0.028 1.621 0.378 0.666 0.344 0.404 0.453 0.231 0.58 0.031 0.783 -0.286 0.827 -0.524 0.703 -0.62 0.4 -0.836 0.233 0 0 -0.373 -0.054 0 0 0.491 1.424 -0.125 0.117 1.119 0.074 1.97 0.527 1.795 0.884 1.6 1.087 0.454 0.564 0.082 0.359 -0.122 0.294 -0.637 0.577 -1.246 0.636 -1.577 0.49 -5.311 1.025 -0.278 0.195 -0.148 0.155 -0.319 0.441 0.338 0.881 0.569 -0.093 0.62 -0.303 -0.049 -0.752 -0.655 -0.22 0.459 -0.085 0.329 0.858 -0.248 0.357 -0.021 0.055 -0.029 0.051 5.148 -0.927 1.809 -0.567 1.572 -0.81 1.079 -0.995 0.446 -1.143 -0.306 -1.227 -0.845 -1.031 -1.891 -1.283 -2.037 -1.008 -2.267 -0.619 -2.074 -0.185 -0.445 0.458 0.491 1.424 0 0 0.737 0.117 0 0 1.442 -0.403 1.097 -0.712 0.86 -1.168 0.467 -1.383 -0.069 -1.391 -0.459 -1.116 -0.811 -0.893 -1.123 -0.573 -1.993 -0.455 -1.937 -0.031 -2.023 0.336 -1.231 0.615 -0.839 0.994 -0.304 1.022 -0.089 4.692 0.227 5.339 0.623 6.641 0.108 0.93 0.837 6.228 0.115 0.549 0.444 1.327 0.202 0.342 0.28 0.092 0.783 -0.252 0.038 -0.178 -0.041 -0.415 -0.003 -0.048 -0.165 -1.414 -0.053 -0.394 -0.402 -2.969" />
    <path class="write-flat-pen" fill="#FB7C07" stroke-width="1.8" __comx="255.794" __comy="232.814" __timestamp="0x177b66e2f1b" d="M252.064 229.019 l-0.614 -0.174 -0.188 0.074 -0.421 0.234 -0.156 0.139 -0.362 0.353 -0.028 0.022 -0.13 0.066 0.148 -0.124 0.298 -0.055 0.346 0.307 0.021 -0.169 0.009 -0.017 0.258 -0.97 0.606 -1.178 0.576 -0.696 0.528 -0.349 0.637 -0.176 0.61 0.064 0.999 0.434 0.937 0.722 0.863 1.146 2.48 4.775 0.227 0.315 0.418 0.534 0.207 0.211 0.096 0.097 0.259 0.173 1.389 0.716 0.125 -0.117 -0.619 -1.435 -0.106 -0.218 -0.02 -0.057 -0.115 -0.223 -0.308 -0.562 -0.152 -0.256 -2.451 -4.851 -1.087 -1.444 -1.281 -0.988 -1.426 -0.621 -1.185 -0.126 -1.204 0.333 -0.961 0.637 -0.85 1.039 -0.755 1.529 -0.282 1.309 -0.011 0.348 0.2 0.81 0.438 0.394 0.661 -0.051 0.313 -0.227 0.213 -0.323 0.04 -0.074 0.208 -0.415 0.043 -0.097 0.169 -0.274 -0.091 0.025 0.434 -0.068" />
    <path class="write-flat-pen" fill="#FB7C07" stroke-width="1.8" __comx="263.686" __comy="232.814" __timestamp="0x177b66e3090" d="M265.249 223.761 l-0.335 0.439 -0.082 0.206 -0.269 0.865 -0.115 0.461 -0.947 3.594 -0.219 0.874 -1.186 4.896 -0.179 1.084 -0.75 4.486 -0.262 4.594 0.077 3.201 0.293 1.966 1.509 4.166 0.342 0.533 0.345 0.436 0.376 0.375 0.411 0.319 0.425 0.236 0.406 0.143 1.319 0.409 0.058 -0.099 -0.998 -0.955 -0.282 -0.263 -0.257 -0.263 -0.232 -0.31 -0.224 -0.35 -0.223 -0.391 -0.203 -0.403 -1.329 -3.94 -0.26 -1.737 -0.079 -3.052 0.228 -4.462 0.669 -4.427 0.145 -1.044 1.037 -4.873 0.197 -0.871 0.802 -3.651 0.07 -0.48 0.114 -0.868 0.004 -0.111 0.144 -0.437" />
    <path class="write-flat-pen" fill="#FB7C07" stroke-width="1.8" __comx="287.74" __comy="232.814" __timestamp="0x177b66e3448" d="M289.222 220.503 l-0.006 -0.509 0.02 -0.112 0.045 -0.384 0.005 -0.183 -0.004 -0.326 -0.016 -0.211 -0.078 -0.57 -0.033 -0.136 -0.197 -0.689 -0.056 -0.139 -0.481 -0.945 -0.148 -0.197 -0.935 -0.76 -1.239 -0.283 -1.155 0.225 -1.428 0.717 -1.462 1.121 -0.794 1.032 -0.293 1.005 0.244 0.93 0.808 0.808 4.236 1.477 2.14 1.004 1.38 1.036 1.225 1.37 0.877 1.442 0.672 1.749 0.296 1.713 0.009 1.726 -0.372 1.795 -0.684 1.654 -0.996 1.436 -1.271 1.144 -1.453 0.727 -1.328 0.294 -0.998 -0.018 -0.668 -0.295 -0.539 -0.636 -0.346 -1.085 -0.032 -1.543 0.378 -1.602 0.674 -1.438 1.015 -1.435 1.013 -0.892 0.574 -0.256 1.213 0.014 0.099 0.029 0.672 0.374 0.208 0.14 0.652 0.488 0.223 0.165 0.446 0.323 0.184 0.118 0.45 0.281 1.367 0.691 0.079 -0.092 -0.879 -1.243 -0.326 -0.418 -0.133 -0.159 -0.341 -0.415 -0.197 -0.221 -0.606 -0.622 -0.277 -0.241 -0.788 -0.548 -0.465 -0.22 -1.887 -0.129 -1.177 0.493 -1.376 1.187 -1.23 1.719 -0.818 1.739 -0.464 1.99 0.05 2.008 0.533 1.643 1.019 1.185 1.337 0.58 1.534 0.021 1.722 -0.386 1.837 -0.926 1.579 -1.428 1.205 -1.744 0.811 -1.964 0.438 -2.119 -0.011 -2.039 -0.348 -2.009 -0.781 -2.04 -1.028 -1.703 -1.434 -1.612 -1.65 -1.24 -2.371 -1.122 -3.952 -1.384 -0.211 -0.211 -0.009 -0.034 0.073 -0.25 0.466 -0.605 1.16 -0.893 1.079 -0.549 0.586 -0.123 0.538 0.105 0.51 0.369 -0.037 -0.054 0.479 0.74 0.019 0.027 0.28 0.58 0.033 0.061 0.191 0.469 0.065 0.16 0.112 0.281 0.062 0.147 0.147 0.345 0.053 0.115 0.173 0.49" />
    <path class="write-flat-pen" fill="#FFAF66" fill-opacity="1" stroke-width="1.8" __comx="377.941" __comy="233.413" __timestamp="0x177b66e3dff" d="M379.932 222.967 l0.226 -0.602 0.045 -0.024 0.267 -0.322 0.012 0.002 0.18 -0.116 -0.319 0.18 -0.309 -0.075 -0.127 -0.246 -0.021 1.029 -0.048 0.349 -0.378 1.593 -1.532 4.033 -1.288 2.599 -1.689 2.714 -0.9 0.988 -0.794 0.519 -0.681 0.221 -0.587 -0.034 -0.56 -0.308 -0.483 -0.727 -0.278 -1.14 0.056 -1.331 0.338 -1.434 0.866 -2.063 0.757 -1.141 0.399 -0.327 0.687 -0.251 0.707 0.024 1.132 0.46 1.124 0.771 1.272 1.289 1.555 2.047 2.642 4.615 1.358 1.575 0.391 0.232 0.598 0.226 0.423 0.032 0.33 -0.007 0.444 -0.172 1.172 -0.618 -0.023 -0.169 -1.295 -0.282 -0.314 -0.068 -0.102 -0.055 -0.167 -0.084 -0.292 -0.194 -0.074 -0.069 -1.047 -1.319 -2.618 -4.587 -1.691 -2.223 -1.465 -1.481 -1.41 -0.967 -1.582 -0.642 -1.339 -0.046 -1.27 0.463 -0.821 0.674 -0.984 1.488 -0.98 2.341 -0.404 1.728 -0.073 1.731 0.405 1.662 0.88 1.322 1.265 0.689 1.287 0.067 1.192 -0.396 1.154 -0.763 1.14 -1.261 1.802 -2.917 1.347 -2.75 1.571 -4.224 0.385 -1.793 0.054 -0.545 -0.089 -1.428 -0.238 -0.495 -0.797 -0.303 -0.476 0.258 -0.306 0.487 -0.048 0.106 -0.113 0.403 -0.062 0.161 -0.05 0.787" />
    <path class="write-flat-pen" fill="#FFAF66" fill-opacity="1" stroke-width="1.8" __comx="406.138" __comy="233.413" __timestamp="0x177b66e420d" d="M401.308 248.204 l-0.079 1.027 -0.02 0.222 -0.062 0.769 -0.006 0.032 -0.083 0.15 -0.021 -0.056 0 0 1.072 -0.116 0.03 -0.079 -0.001 -0.101 -0.224 -1.088 -0.08 -0.491 -0.57 -5.168 -0.052 -0.791 -0.239 -5.182 -0.008 -0.591 -0.093 -5.567 0.165 -0.899 0.29 -0.45 0.598 -0.406 1.1 -0.275 0.918 -0.011 1.384 0.357 0.966 0.55 0.437 0.46 0.318 0.779 -0.048 0.658 -0.367 0.726 -0.586 0.539 -0.772 0.354 -0.686 0.112 0.353 0.124 0.037 1.044 0.688 -0.229 2.124 -0.272 2.26 -0.011 0.71 0.188 0.385 0.304 0.186 0.35 0.073 0.557 -0.182 0.683 -0.571 0.895 -0.928 0.894 -1.515 0.946 -1.178 0.414 -1.407 0.217 -1.152 -0.215 0.014 0.029 -0.036 0.003 -0.054 0.009 -0.05 0.011 -0.058 -0.043 -0.041 -0.153 -0.212 -1.089 -0.133 -0.035 -0.719 0.845 -0.144 0.242 -0.075 0.352 0.031 0.379 0.177 0.451 0.282 0.302 0.345 0.26 1.781 0.395 1.872 -0.29 1.507 -0.534 1.822 -1.149 1.195 -1.162 0.817 -1.29 0.327 -1.262 -0.162 -1.186 -0.496 -0.927 -0.934 -0.736 -1.26 -0.336 -2.586 0.008 -2.378 0.295 -2.094 0.647 0.053 1.446 1.174 0.409 1.35 -0.225 1.228 -0.571 1.01 -0.938 0.658 -1.31 0.101 -1.399 -0.591 -1.448 -0.831 -0.879 -1.385 -0.792 -1.828 -0.472 -1.348 0.017 -1.592 0.399 -1.139 0.777 -0.661 1.029 -0.257 1.401 0.112 5.739 0.014 0.621 0.32 5.225 0.071 0.843 0.681 5.239 0.119 0.584 0.347 1.13 0.104 0.265 0.167 0.155 1.072 -0.116 0 0 0.007 -0.14 -0.087 -0.341 -0.009 -0.048 -0.133 -0.759 -0.031 -0.211 -0.119 -1.021" />
    <path class="write-flat-pen" fill="#FFAF66" fill-opacity="1" stroke-width="1.8" __comx="434.792" __comy="233.413" __timestamp="0x177b66e446f" d="M432.337 231.316 l-0.693 -0.158 -0.037 -0.037 -0.277 -0.256 -0.037 -0.076 -0.155 -0.302 -0.006 -0.057 -0.075 -0.443 0.017 -0.061 0.264 -0.842 0.067 -0.092 0.485 -0.481 0.907 -0.504 0.689 -0.174 0.41 0.07 0.438 0.293 0.852 1.218 2.258 5.631 0.584 0.763 0.122 0.112 0.282 0.138 1.404 0.194 0.109 -0.165 -0.696 -1.197 -0.094 -0.14 0.065 0.056 -0.328 -0.544 -2.264 -5.633 -1.148 -1.618 -0.985 -0.643 -1.083 -0.175 -1.22 0.318 -1.282 0.738 -0.734 0.784 -0.268 0.444 -0.268 1.293 0.032 0.447 0.283 0.708 0.155 0.241 0.388 0.38 0.241 0.169 0.568 0.2 0.213 0.021 0.765 -0.029" />
    <path class="write-flat-pen" fill="#FFAF66" fill-opacity="1" stroke-width="1.8" __comx="441.732" __comy="233.413" __timestamp="0x177b66e45c8" d="M444.347 226.632 l0.162 -0.692 -0.905 -0.306 -0.065 0.067 -0.205 0.51 -0.082 0.266 -0.573 1.927 -0.205 0.628 -1.213 3.657 -0.283 0.905 -1.162 4.841 -0.199 1.097 -0.498 4.292 -0.166 4.709 0.623 4.401 0.125 0.411 0.222 0.458 0.19 0.308 0.223 0.283 0.214 0.205 0.226 0.149 1.28 0.678 0.103 -0.095 -0.57 -1.331 -0.092 -0.197 -0.063 -0.155 -0.075 -0.214 -0.079 -0.239 -0.103 -0.338 -0.04 -0.226 -0.51 -4.179 0.153 -4.507 0.451 -4.182 0.169 -1.008 1.054 -4.771 0.245 -0.853 1.104 -3.688 0.191 -0.668 0.455 -2.007 0.045 -0.293 0.001 -0.38 -0.058 0.056 -0.905 -0.306 0.032 0.71" />
    <path class="write-flat-pen" fill="#FFAF66" fill-opacity="1" stroke-width="1.8" __comx="465.499" __comy="233.413" __timestamp="0x177b66e49a6" d="M469.034 218.753 l0.161 -0.551 0.057 -0.103 0.153 -0.302 0.026 -0.117 0.033 -0.382 -0.07 -0.273 -0.19 -0.397 -0.227 -0.26 -0.618 -0.464 -0.261 -0.133 -1.292 -0.418 -0.359 -0.084 -2.676 -0.353 -1.413 0.17 -0.766 0.869 0.162 1.188 4.766 4.562 1.398 1.675 1.059 1.79 0.503 1.33 0.418 2.074 0.115 1.976 -0.14 1.262 -0.427 1.294 -0.711 1.195 -1.009 1.02 -1.197 0.726 -1.309 0.478 -1.623 0.24 -0.822 -0.064 -0.647 -0.248 -0.443 -0.374 -0.383 -0.69 -0.228 -1.06 0.043 -1.276 0.35 -1.257 0.809 -1.5 0.77 -0.89 0.812 -0.542 1.105 -0.369 0.436 -0.005 0.588 0.22 1.119 1.187 0.117 0.206 0.424 0.867 0.1 0.217 0.198 0.429 0.12 0.189 0.191 0.276 1.152 1.051 0.147 -0.071 -0.096 -1.532 -0.074 -0.332 -0.057 -0.174 -0.109 -0.395 -0.09 -0.274 -0.397 -0.979 -0.228 -0.456 -1.503 -1.688 -1.274 -0.505 -1.052 -0.001 -1.603 0.527 -1.214 0.806 -1.057 1.22 -0.998 1.848 -0.458 1.657 -0.052 1.709 0.338 1.531 0.678 1.2 0.926 0.765 1.164 0.431 1.266 0.085 1.984 -0.309 1.625 -0.604 1.515 -0.927 1.298 -1.32 0.908 -1.534 0.537 -1.638 0.172 -1.579 -0.132 -2.235 -0.467 -2.325 -0.602 -1.596 -1.203 -2.033 -1.545 -1.852 -4.397 -4.225 0.023 0.17 -0.175 0.197 0.566 -0.075 2.403 0.261 0.238 0.044 1.156 0.277 0.072 0.02 0.472 0.23 0.051 0.014 0.127 0.105 0.026 -0.015 0.075 0.111 0.016 -0.028 0.03 0.284 0.002 0.137 -0.015 0.601" />
    <path class="write-flat-pen" fill="#2B6700" stroke-width="1.8" __comx="194.477" __comy="292.095" __timestamp="0x177b66e63e3" d="M197.884 278.519 l0.266 -1.245 -0.017 0.06 0.209 -0.086 -0.069 0.068 0.064 0.076 -0.093 0.01 0.152 0.222 -0.002 0.03 0.362 1.639 0.005 0.219 -0.229 1.305 -1.137 2.917 -1.061 1.959 -1.817 2.531 -1.439 1.422 -1.334 0.913 -1.144 0.394 -0.972 0.028 -0.718 -0.286 -0.625 -0.608 -0.445 -0.971 -0.257 -1.488 0.07 -1.534 0.375 -1.476 0.574 -1.166 0.736 -0.759 0.535 -0.31 0.92 -0.219 1.007 0.153 1.039 0.54 1.043 0.923 1.304 1.718 4.261 7.778 0.919 1.132 0.302 0.22 0.227 0.129 0.261 0.112 0.25 0.059 1.487 0.192 0.074 -0.145 -1.027 -1.092 -0.146 -0.143 -0.121 -0.126 -0.103 -0.117 -0.103 -0.127 -0.672 -0.968 -4.268 -7.778 -1.485 -1.929 -1.31 -1.147 -1.441 -0.746 -1.566 -0.24 -1.442 0.341 -0.925 0.531 -1.067 1.092 -0.76 1.538 -0.459 1.792 -0.091 1.867 0.312 1.864 0.651 1.438 1.071 1.044 1.327 0.524 1.549 -0.052 1.576 -0.55 1.626 -1.12 1.631 -1.622 1.942 -2.729 1.142 -2.143 1.185 -3.171 0.244 -1.616 -0.032 -0.523 -0.572 -1.952 -0.239 -0.348 -0.586 -0.423 -0.407 -0.076 -0.467 0.155 -0.17 0.133 -0.204 0.354 -0.065 0.143 -0.071 1.406" />
    <path class="write-flat-pen" fill="#2B6700" stroke-width="1.8" __comx="227.322" __comy="292.095" __timestamp="0x177b66e6848" d="M224.775 312.373 l-0.163 1.11 -0.011 -0.015 -0.134 0.076 0.611 -0.174 0.074 0.012 -0.114 -0.449 -0.079 -0.32 -1.504 -6.724 -0.216 -1.371 -0.555 -8.948 -0.029 -0.597 -0.315 -3.498 -1.204 -4.363 0.012 -0.376 0.073 -0.081 0.485 -0.189 2.035 -0.134 3.101 0.159 1.234 0.337 0.632 0.384 0.4 0.533 0.195 0.714 -0.1 0.654 -0.332 0.619 -0.686 0.672 0 0 -0.864 0.451 0 0 -0.807 0.137 0 0 0.167 1.562 1.364 -0.097 1.754 0.253 1.585 0.501 0.934 0.517 0.617 0.607 0.409 0.832 0.138 1.007 -0.194 0.863 -0.567 0.905 -0.972 0.833 -1.438 0.607 -1.618 0.313 -1.956 0.034 -0.824 -0.167 -0.578 -0.331 -0.127 -0.157 -0.029 0.029 -0.019 -0.026 0.012 -0.139 0.029 -0.117 0.133 -0.26 0.141 -0.221 0.671 -1.04 -0.097 -0.118 -1.151 0.454 -0.314 0.152 -0.339 0.281 -0.213 0.225 -0.193 0.329 -0.098 0.286 -0.039 0.533 0.46 0.923 1.175 0.703 1.258 0.253 2.268 -0.047 1.914 -0.381 1.81 -0.78 1.325 -1.16 0.815 -1.337 0.293 -1.387 -0.223 -1.513 -0.634 -1.271 -0.942 -0.924 -1.239 -0.688 -1.837 -0.591 -2.023 -0.317 -1.522 0.058 0.167 1.562 0 0 1.064 -0.165 0 0 1.3 -0.683 0 0 1.022 -1.012 0.567 -1.075 0.18 -1.255 -0.38 -1.316 -0.767 -0.993 -1.069 -0.638 -1.598 -0.431 -3.355 -0.167 -2.356 0.163 -1.043 0.41 -0.673 0.769 -0.026 1.148 1.273 4.443 0.336 3.335 0.035 0.579 0.699 9.007 0.242 1.471 1.68 6.772 0.152 0.409 0.397 0.665 0.168 0.076 0.611 -0.174 0.006 -0.238 0 -0.106 -0.046 -1.144" />
    <path class="write-flat-pen" fill="#2B6700" stroke-width="1.8" __comx="253.083" __comy="292.095" __timestamp="0x177b66e6a81" d="M249.461 291.549 l-0.239 0.779 -0.024 0.029 -0.221 0.331 -0.036 0.03 -0.263 0.241 0.03 -0.055 -0.078 -0.043 0.263 -0.024 -0.026 -0.106 0.014 -0.009 -0.208 -1.166 0.095 -1.786 0.341 -1.396 0.733 -1.741 0.412 -0.465 0.214 -0.076 0.386 0.092 0.571 0.452 0.998 1.379 2.039 4.408 1.364 2.231 0.272 0.346 0.458 0.456 0.302 0.252 0.47 0.29 0.249 0.106 1.405 0.495 0.064 -0.091 -0.935 -1.16 -0.145 -0.173 -0.278 -0.344 -0.164 -0.24 -0.309 -0.452 -0.164 -0.272 -1.208 -2.163 -2.07 -4.477 -1.21 -1.674 -1.001 -0.8 -1.158 -0.293 -1.046 0.348 -0.869 0.969 -0.885 2.102 -0.4 1.67 -0.079 2.137 0.366 1.529 0.229 0.416 0.666 0.492 0.579 -0.011 0.461 -0.381 0.101 -0.138 0.183 -0.443 0.041 -0.133 0.072 -0.45 0.013 -0.095 0.042 -0.851" />
    <path class="write-flat-pen" fill="#2B6700" stroke-width="1.8" __comx="262.842" __comy="292.095" __timestamp="0x177b66e6c22" d="M265.526 283.319 l0.081 -0.475 0.049 0 0 0 -0.786 -0.107 -0.075 0.005 -0.046 0.04 -0.181 0.389 -0.097 0.288 -0.667 2.017 -0.218 0.648 -2.312 7.484 -1.224 5.56 -0.354 3.772 0.03 2.967 1.065 3.908 0.38 0.737 0.808 1.159 0.483 0.519 0.51 0.448 0.55 0.407 0.593 0.367 0.608 0.287 1.212 0.55 0.05 -0.075 -0.976 -0.905 -0.48 -0.437 -0.464 -0.44 -0.409 -0.459 -0.374 -0.47 -0.341 -0.486 -0.623 -1.101 -0.248 -0.568 -0.876 -3.632 -0.006 -2.711 0.341 -3.606 1.184 -5.416 2.191 -7.449 0.199 -0.659 0.538 -2.102 0.047 -0.309 0.049 -0.44 -0.009 -0.139 -0.068 -0.07 -0.786 -0.107 0 0 0.036 0.073 0.065 0.534" />
    <path class="write-flat-pen" fill="#2B6700" stroke-width="1.8" __comx="288.933" __comy="292.095" __timestamp="0x177b66e6ff7" d="M292.061 276.768 l0.041 -0.844 -0.008 -0.1 -0.059 -0.552 -0.066 -0.303 -0.246 -0.605 -0.123 -0.246 -0.508 -0.727 -0.225 -0.235 -0.987 -0.678 -0.372 -0.156 -1.499 -0.349 -1.453 0.048 -1.517 0.472 -1.272 0.795 -0.924 1.087 -0.647 1.435 -0.392 2.144 0.149 1.547 0.616 1.453 1.052 1.412 1.767 1.622 4.555 2.899 1.54 1.338 1.099 1.351 0.915 1.578 0.528 1.689 0.226 2.096 -0.142 1.217 -0.456 1.073 -0.467 0.583 -0.995 0.686 -1.452 0.442 -1.781 0.152 -1.509 -0.209 -1.126 -0.435 -0.821 -0.601 -0.504 -0.722 -0.25 -0.861 0.054 -1.001 0.313 -0.913 0.464 -0.625 0.589 -0.433 1.086 -0.354 1.654 -0.126 3.027 0.184 0.393 0.014 0.765 0.019 0.39 0.003 0.343 0.003 0.334 0.005 0.361 0.011 1.508 0.009 0.032 -0.124 -1.322 -0.726 -0.36 -0.177 -0.37 -0.12 -0.363 -0.103 -0.415 -0.092 -0.781 -0.126 -0.404 -0.049 -3.133 -0.278 -1.954 0.119 -1.516 0.472 -0.997 0.72 -0.763 1.017 -0.467 1.363 -0.076 1.497 0.405 1.373 0.812 1.149 1.205 0.875 1.493 0.574 1.866 0.254 2.122 -0.184 1.844 -0.565 1.384 -0.961 0.742 -0.935 0.62 -1.479 0.182 -1.611 -0.264 -2.418 -0.624 -1.998 -1.06 -1.835 -1.26 -1.551 -1.725 -1.505 -4.527 -2.901 -1.553 -1.43 -0.845 -1.143 -0.444 -1.055 -0.102 -1.084 0.321 -1.735 0.476 -1.052 0.618 -0.727 0.889 -0.559 1.12 -0.361 1.049 -0.058 1.203 0.217 0.141 0.043 0.815 0.435 0.085 0.061 0.507 0.515 0.105 0.131 0.326 0.44 0.101 0.176 0.228 0.45 0.019 0.023 0.158 0.782" />
    <path class="write-flat-pen" fill="#9FF562" fill-opacity="1" stroke-width="1.8" __comx="375.46" __comy="291.916" __timestamp="0x177b66e7a2b" d="M380.917 277.482 l0.218 -0.745 0.045 -0.051 0.267 -0.261 -0.009 0.036 0.228 -0.071 -0.151 0.07 0.139 0.113 -0.13 -0.088 0.307 0.673 0.014 0.089 0.024 1.053 -0.338 1.21 -1.17 2.314 -1.588 2.263 -1.997 2.234 -1.593 1.332 -1.667 0.929 -1.349 0.445 -1.569 0.208 -0.961 -0.1 -0.696 -0.309 -0.426 -0.399 -0.242 -0.544 0.01 -0.796 0.324 -0.986 0.623 -1.024 1.086 -1.145 0.976 -0.649 1.107 -0.422 1.116 -0.163 1.039 0.154 0.839 0.38 0.84 0.7 0.857 1.114 0.734 1.413 1.249 3.426 0.98 1.795 1.016 0.981 0.39 0.227 0.355 0.155 0.319 0.104 0.357 0.073 0.291 0.008 1.506 -0.125 0.043 -0.157 -1.234 -0.872 -0.197 -0.126 -0.206 -0.135 -0.188 -0.134 -0.23 -0.163 -0.168 -0.134 -0.677 -0.726 -0.797 -1.475 -1.254 -3.408 -0.859 -1.641 -1.067 -1.377 -1.163 -0.959 -1.259 -0.565 -1.513 -0.223 -1.54 0.225 -1.454 0.553 -1.289 0.858 -1.339 1.411 -0.816 1.34 -0.463 1.411 -0.023 1.418 0.525 1.191 0.88 0.831 1.203 0.533 1.425 0.143 1.92 -0.263 1.645 -0.551 1.935 -1.092 1.797 -1.513 2.137 -2.397 1.707 -2.445 1.275 -2.578 0.415 -1.614 -0.098 -1.45 -0.115 -0.418 -0.629 -1.035 -0.332 -0.248 -0.794 -0.133 -0.375 0.138 -0.409 0.421 -0.082 0.134 -0.173 0.477 -0.038 0.203 -0.052 0.828" />
    <path class="write-flat-pen" fill="#9FF562" fill-opacity="1" stroke-width="1.8" __comx="406.663" __comy="291.916" __timestamp="0x177b66e7df9" d="M403.714 303.689 l-0.175 1.622 -0.047 0.355 -0.142 0.94 -0.041 0.232 -0.166 0.61 -0.038 -0.01 0.284 -0.465 0.667 0.377 -0.032 -0.347 -0.037 -0.313 -0.494 -5.944 -0.038 -0.85 -0.29 -7.427 -0.847 -7.393 0.05 -0.455 0.097 -0.114 0.565 -0.226 1.183 -0.085 1.688 0.22 1.407 0.476 0.889 0.532 0.478 0.513 0.157 0.392 -0.022 0.372 -0.224 0.444 -0.501 0.474 -0.907 0.472 0 0 -0.974 0.252 0 0 -0.608 -0.048 0 0 0.05 1.674 0.621 -0.107 2.051 0.314 1.442 0.54 0.556 0.395 0.476 0.721 0.242 0.862 0.001 0.901 -0.337 1.017 -0.567 0.857 -0.814 0.682 -1.08 0.495 -1.203 0.196 -1.175 -0.212 -1.138 -0.693 -0.02 -0.001 -0.109 -0.119 -0.085 -0.084 -0.057 -0.04 -0.055 -0.068 -0.041 -0.106 -0.267 -1.099 -0.121 -0.026 -0.69 0.896 -0.109 0.214 -0.05 0.333 0.019 0.328 0.104 0.354 0.154 0.31 0.213 0.307 1.617 1.093 1.795 0.334 1.721 -0.283 1.494 -0.695 1.169 -0.995 0.813 -1.253 0.48 -1.486 -0.012 -1.396 -0.382 -1.324 -0.792 -1.184 -0.977 -0.69 -1.794 -0.675 -2.464 -0.401 -0.878 0.117 0.05 1.674 0 0 0.901 0.087 0 0 1.447 -0.381 0 0 1.284 -0.678 0.882 -0.844 0.505 -1.022 0.056 -1.088 -0.413 -1.022 -0.849 -0.912 -1.243 -0.748 -1.733 -0.589 -2.02 -0.264 -1.611 0.114 -1.193 0.475 -0.704 0.824 -0.123 1.157 0.882 7.517 0.353 7.371 0.051 0.888 0.608 6.019 0.088 0.442 0.318 0.884 0.769 0.44 0.444 -0.675 0.05 -0.3 0 -0.747 -0.008 -0.263 -0.033 -0.956 -0.011 -0.36 -0.013 -1.631" />
    <path class="write-flat-pen" fill="#9FF562" fill-opacity="1" stroke-width="1.8" __comx="433.195" __comy="291.916" __timestamp="0x177b66e8021" d="M428.714 293.322 l-0.207 -0.371 0.021 -0.051 -0.001 -0.194 0.003 -0.117 -0.002 -0.401 0.012 -0.222 0.056 -0.547 0.066 -0.292 0.553 -1.623 0.113 -0.314 0.699 -1.289 0.563 -0.572 0.202 -0.054 0.349 0.119 0.753 0.79 2.554 5.069 1.141 1.71 1.313 1.074 0.272 0.112 0.166 0.057 0.438 0.019 0.232 -0.059 1.151 -0.522 0 -0.131 -1.149 -0.527 -0.111 -0.06 -0.14 -0.092 0.026 -0.004 -0.049 -0.048 -0.947 -0.88 -0.965 -1.453 -2.625 -5.188 -1.181 -1.239 -1.174 -0.405 -1.092 0.296 -1.014 1.055 -0.83 1.613 -0.147 0.455 -0.487 1.777 -0.051 0.496 0.043 0.703 0.061 0.336 0.162 0.482 0.089 0.184 0.158 0.231 0.123 0.148 0.417 0.319" />
    <path class="write-flat-pen" fill="#9FF562" fill-opacity="1" stroke-width="1.8" __comx="440.508" __comy="291.916" __timestamp="0x177b66e8190" d="M442.671 284.622 l-0.311 0.653 -0.081 0.181 -0.198 0.459 -0.144 0.307 -0.325 0.769 -0.167 0.45 -0.588 1.615 -0.178 0.625 -0.948 4.069 -0.155 0.846 -0.948 4.914 -0.63 5.098 -0.201 6.684 0.107 0.705 0.249 1.112 0.187 0.52 0.214 0.496 0.25 0.464 0.287 0.435 0.305 0.387 0.315 0.353 0.354 0.305 1.082 0.883 0.06 -0.05 -0.657 -1.232 -0.209 -0.38 -0.182 -0.369 -0.164 -0.394 -0.144 -0.421 -0.127 -0.429 -0.115 -0.455 -0.097 -0.436 -0.137 -1.015 -0.053 -0.547 0.277 -6.488 0.594 -4.984 0.871 -4.887 0.135 -0.825 0.824 -4.037 0.13 -0.572 0.448 -1.625 0.112 -0.457 0.2 -0.789 0.087 -0.35 0.084 -0.525 0.021 -0.188 0.114 -0.702" />
    <path class="write-flat-pen" fill="#9FF562" fill-opacity="1" stroke-width="1.8" __comx="466.009" __comy="291.916" __timestamp="0x177b66e8525" d="M469.534 280.619 l-0.342 -1.076 -0.112 -0.259 -0.248 -0.574 -0.037 -0.08 -0.226 -0.465 -0.106 -0.233 -0.385 -0.734 -0.09 -0.15 -0.742 -0.916 -0.21 -0.168 -0.993 -0.436 -1.179 0.097 -1.326 0.693 -1.111 1.095 -1.127 1.842 -0.623 1.94 -0.272 2.074 0.127 1.139 0.618 1.2 1.136 0.971 4.02 1.226 1.538 0.696 1.143 0.941 0.627 0.869 0.514 1.167 0.279 1.454 -0.026 1.476 -0.25 0.918 -0.778 1.421 -0.662 0.721 -1.283 0.84 -1.039 0.373 -1.693 0.252 -0.871 -0.061 -0.982 -0.359 -0.6 -0.543 -0.382 -0.79 -0.133 -1.019 0.178 -0.968 0.451 -0.979 0.749 -0.971 0.683 -0.551 0.985 -0.439 2.118 -0.326 0.259 -0.015 2.059 -0.032 0.24 -0.007 0.665 -0.038 0.19 -0.024 0.207 -0.032 1.557 -0.377 0.014 -0.107 -1.422 -0.77 -0.253 -0.081 -0.252 -0.043 -0.692 -0.054 -0.246 -0.01 -2.094 -0.053 -0.375 0.009 -2.44 0.302 -1.418 0.603 -1.033 0.813 -1.005 1.291 -0.627 1.362 -0.263 1.457 0.215 1.571 0.663 1.342 1.106 0.982 1.523 0.545 1.296 0.085 2.041 -0.312 1.382 -0.503 1.62 -1.071 0.939 -1.028 0.966 -1.776 0.353 -1.311 0.03 -1.857 -0.348 -1.809 -0.662 -1.501 -0.856 -1.185 -1.479 -1.219 -1.838 -0.831 -3.795 -1.151 -0.628 -0.532 -0.329 -0.637 -0.069 -0.636 0.229 -1.726 0.519 -1.606 0.922 -1.493 0.793 -0.775 0.81 -0.428 0.436 -0.048 0.429 0.162 -0.075 -0.062 0.644 0.659 0.031 0.035 0.458 0.634 0.149 0.216 0.338 0.428 0.048 0.057 0.379 0.469 0.129 0.165 0.499 0.944" />
    <path class="write-flat-pen" fill="#FFFFFF" fill-opacity="0.133" stroke-width="1.8" __comx="691.246" __comy="0.562" __timestamp="0x177b68321f9" d="M691.251 0.792 l0.001 -0.112 0.001 -0.005 0.002 0.005 0.005 -0.002 0.006 -0.013 0.006 -0.014 0.007 -0.015 0.007 -0.016 0.008 -0.016 0.002 0.003 0.004 -0.002 0.004 -0.004 -0.002 0.012 -0.005 0.011 -0.007 0.011 -0.01 0.011 -0.021 0.017 -0.023 0.01 -0.012 0.003 0.02 -0.004 0.036 -0.018 0.017 -0.017 0.181 -0.284 -0.022 -0.032 -0.329 0.071 0.002 -0.006 0.021 -0.011 0.004 -0.001 -0.018 0.005 -0.037 0.016 -0.026 0.021 -0.019 0.02 -0.012 0.018 -0.016 0.028 -0.008 0.03 -0.003 0.019 -0.003 0.029 0 0.018 0.004 0.017 0.004 0.014 0.003 0.012 0.003 0.01 0.002 0.007 0 0.023 0.002 0.019 0.001 0.005 0.001 0.112" />
  </g>
</svg>
