<svg class="write-page" color-interpolation="linearRGB" width="1010px" height="1628px" xmlns="http://www.w3.org/2000/svg" xmlns:xlink="http://www.w3.org/1999/xlink">
  <g class="write-content write-v3" width="1010" height="1628" xruling="30" yruling="30" marginLeft="30" papercolor="#1B1C1C" rulecolor="#0300F9FF">
    <g class="ruleline write-std-ruling write-scale-down" fill="none" stroke="#00F9FF" stroke-opacity="0.012" stroke-width="1" shape-rendering="crispEdges" vector-effect="non-scaling-stroke">
      <rect class="pagerect" fill="#1B1C1C" stroke="none" x="0" y="0" width="1010" height="1628" />
      <path class="yrule_1" d="M0 30 l1010 0" />
      <path d="M0 60 l1010 0" />
      <path d="M0 90 l1010 0" />
      <path d="M0 120 l1010 0" />
      <path d="M0 150 l1010 0" />
      <path d="M0 180 l1010 0" />
      <path d="M0 210 l1010 0" />
      <path d="M0 240 l1010 0" />
      <path d="M0 270 l1010 0" />
      <path d="M0 300 l1010 0" />
      <path d="M0 330 l1010 0" />
      <path d="M0 360 l1010 0" />
      <path d="M0 390 l1010 0" />
      <path d="M0 420 l1010 0" />
      <path d="M0 450 l1010 0" />
      <path d="M0 480 l1010 0" />
      <path d="M0 510 l1010 0" />
      <path d="M0 540 l1010 0" />
      <path d="M0 570 l1010 0" />
      <path d="M0 600 l1010 0" />
      <path d="M0 630 l1010 0" />
      <path d="M0 660 l1010 0" />
      <path d="M0 690 l1010 0" />
      <path d="M0 720 l1010 0" />
      <path d="M0 750 l1010 0" />
      <path d="M0 780 l1010 0" />
      <path d="M0 810 l1010 0" />
      <path d="M0 840 l1010 0" />
      <path d="M0 870 l1010 0" />
      <path d="M0 900 l1010 0" />
      <path d="M0 930 l1010 0" />
      <path d="M0 960 l1010 0" />
      <path d="M0 990 l1010 0" />
      <path d="M0 1020 l1010 0" />
      <path d="M0 1050 l1010 0" />
      <path d="M0 1080 l1010 0" />
      <path d="M0 1110 l1010 0" />
      <path d="M0 1140 l1010 0" />
      <path d="M0 1170 l1010 0" />
      <path d="M0 1200 l1010 0" />
      <path d="M0 1230 l1010 0" />
      <path d="M0 1260 l1010 0" />
      <path d="M0 1290 l1010 0" />
      <path d="M0 1320 l1010 0" />
      <path d="M0 1350 l1010 0" />
      <path d="M0 1380 l1010 0" />
      <path d="M0 1410 l1010 0" />
      <path d="M0 1440 l1010 0" />
      <path d="M0 1470 l1010 0" />
      <path d="M0 1500 l1010 0" />
      <path d="M0 1530 l1010 0" />
      <path d="M0 1560 l1010 0" />
      <path d="M0 1590 l1010 0" />
      <path d="M0 1620 l1010 0" />
      <path class="xrule_1" d="M30 0 l0 1628" />
      <path d="M60 0 l0 1628" />
      <path d="M90 0 l0 1628" />
      <path d="M120 0 l0 1628" />
      <path d="M150 0 l0 1628" />
      <path d="M180 0 l0 1628" />
      <path d="M210 0 l0 1628" />
      <path d="M240 0 l0 1628" />
      <path d="M270 0 l0 1628" />
      <path d="M300 0 l0 1628" />
      <path d="M330 0 l0 1628" />
      <path d="M360 0 l0 1628" />
      <path d="M390 0 l0 1628" />
      <path d="M420 0 l0 1628" />
      <path d="M450 0 l0 1628" />
      <path d="M480 0 l0 1628" />
      <path d="M510 0 l0 1628" />
      <path d="M540 0 l0 1628" />
      <path d="M570 0 l0 1628" />
      <path d="M600 0 l0 1628" />
      <path d="M630 0 l0 1628" />
      <path d="M660 0 l0 1628" />
      <path d="M690 0 l0 1628" />
      <path d="M720 0 l0 1628" />
      <path d="M750 0 l0 1628" />
      <path d="M780 0 l0 1628" />
      <path d="M810 0 l0 1628" />
      <path d="M840 0 l0 1628" />
      <path d="M870 0 l0 1628" />
      <path d="M900 0 l0 1628" />
      <path d="M930 0 l0 1628" />
      <path d="M960 0 l0 1628" />
      <path d="M990 0 l0 1628" />
      <path class="leftmargin" stroke="#FF0000" d="M30 0 l0 1628" />
    </g>
    <path class="write-flat-pen" fill="#FFFFFF" stroke-width="1.6" __comx="83.652" __comy="48.023" __timestamp="0x177fae83718" d="M82.553 36.895 l0.079 0.925 0.056 0.299 0.298 2.529 0.097 0.796 0.552 8.538 0.029 9.15 0.065 0.14 0.362 0.814 0.052 0.001 0.385 -0.803 0.069 -0.141 0.152 -9.197 -0.719 -8.606 -0.143 -0.831 -0.522 -2.534 -0.104 -0.299 -0.265 -0.866" />
    <path class="write-flat-pen" fill="#FFFFFF" stroke-width="1.6" __comx="83.03" __comy="48.023" __timestamp="0x177fae83827" d="M70.255 40.101 l1.689 -0.87 3.309 -0.686 4.661 -0.353 10.41 -0.182 1.318 -0.046 1.32 -0.083 1.29 -0.176 1.96 -0.264 -0.008 -0.119 -1.978 -0.016 -1.289 -0.014 -1.302 -0.034 -1.314 -0.048 -10.451 -0.069 -4.768 0.381 -3.5 0.807 -1.753 1.044" />
    <path class="write-flat-pen" fill="#FFFFFF" stroke-width="1.6" __comx="101.239" __comy="48.023" __timestamp="0x177fae83a34" d="M102.143 40.513 l0.194 -0.913 -0.251 -0.313 -0.891 0.252 -0.281 0.251 -1.451 2.294 -1.101 3.458 -0.521 4.457 0.084 3.576 0.611 3.136 1.101 2.637 2.028 1.652 0.469 0.141 0.446 0.039 2.035 0.169 0.026 -0.12 -1.921 -0.692 -0.366 -0.138 -0.25 -0.13 -1.605 -1.534 -0.913 -2.335 -0.552 -2.944 -0.074 -3.406 0.497 -4.278 0.986 -3.254 1.198 -2.159 0.051 -0.074 0.201 -0.204 -0.22 -0.276 0.049 0.666" />
    <path class="write-flat-pen" fill="#FFFFFF" stroke-width="1.6" __comx="114.235" __comy="48.023" __timestamp="0x177fae83b3d" d="M107.872 45.677 l1.92 2.445 0.361 0.423 4.532 5.005 3.246 2.81 0.288 0.17 0.204 0.093 2.112 0.96 0.063 -0.101 -1.783 -1.483 -0.158 -0.134 -0.2 -0.169 -3.043 -2.88 -4.542 -4.916 -0.36 -0.399 -2.086 -2.294" />
    <path class="write-flat-pen" fill="#FFFFFF" stroke-width="1.6" __comx="113.994" __comy="48.023" __timestamp="0x177fae83bfb" d="M109.653 57.526 l1.893 -3.134 0.394 -0.473 5.393 -6.334 0.336 -0.492 1.291 -1.875 -0.124 -0.107 -1.67 1.547 -0.438 0.403 -5.521 6.242 -0.445 0.556 -1.734 3.317" />
    <path class="write-flat-pen" fill="#FFFFFF" stroke-width="1.6" __comx="125.037" __comy="48.023" __timestamp="0x177fae83d27" d="M121.582 39.149 l1.526 0.815 1.29 1.282 1.415 2.189 1.032 2.547 0.583 2.904 0.079 2.86 -0.374 2.687 -0.867 2.771 -0.849 1.438 -1.277 1.747 0.069 0.069 1.789 -1.338 1.132 -1.498 0.963 -2.971 0.396 -2.852 -0.089 -3.026 -0.631 -3.074 -1.133 -2.702 -1.566 -2.315 -1.5 -1.387 -1.696 -0.753" />
    <path class="write-flat-pen" fill="#FFFFFF" stroke-width="1.6" __comx="143.299" __comy="48.023" __timestamp="0x177fae83e8c" d="M138.052 44.898 l2.043 -0.301 5.521 0.14 0.373 0.011 0.388 0.003 2.297 0.022 0.009 -0.075 -2.241 -0.501 -0.38 -0.086 -0.392 -0.071 -5.637 -0.334 -2.113 0.476" />
    <path class="write-flat-pen" fill="#FFFFFF" stroke-width="1.6" __comx="146.22" __comy="48.023" __timestamp="0x177fae83f5f" d="M141.074 50.046 l-0.345 0.716 8.776 -0.393 2.231 -0.231 -0.001 -0.127 -2.242 -0.213 -8.791 0.249 0.371 0.716" />
    <path class="write-flat-pen" fill="#FFFFFF" stroke-width="1.6" __comx="175.486" __comy="32.419" __timestamp="0x177fae84a93" d="M173.595 24.291 l0.922 1.324 0.128 0.299 1.045 3.279 0.591 3.662 0.302 4.555 0.02 0.209 0.191 2.368 0.138 0.006 0.404 -2.341 0.04 -0.242 -0.101 -4.66 -0.646 -3.795 -1.213 -3.359 -0.216 -0.416 -1.16 -1.251" />
    <path class="write-flat-pen" fill="#FFFFFF" stroke-width="1.6" __comx="185.075" __comy="32.419" __timestamp="0x177fae84c78" d="M183.247 26.005 l-0.377 -0.898 -0.215 -0.161 -1.537 0.233 -0.298 0.271 -0.797 1.344 -0.063 1.245 0.548 0.93 1.211 0.637 3.199 0.635 2.064 0.817 1.288 0.954 0.715 1.103 0.134 0.86 -0.244 0.883 -0.698 0.773 -1.275 0.574 -1.388 0.083 -2.063 -0.647 -0.255 -0.099 -2.062 -0.853 -0.07 0.119 1.755 1.378 0.276 0.212 2.262 0.926 1.795 -0.072 1.667 -0.741 1.013 -1.135 0.36 -1.348 -0.215 -1.298 -0.938 -1.442 -1.546 -1.149 -2.279 -0.904 -3.149 -0.616 -0.828 -0.424 -0.257 -0.416 0.017 -0.709 0.555 -1.051 0.008 -0.02 0.952 -0.333 -0.142 -0.109 0.502 0.659" />
    <path class="write-flat-pen" fill="#FFFFFF" stroke-width="1.6" __comx="187.862" __comy="32.419" __timestamp="0x177fae84d4e" d="M179.031 25.396 l2.927 -0.666 0.435 -0.007 11.824 -0.114 0.363 -0.052 2.296 -0.323 -0.002 -0.113 -2.308 -0.222 -0.357 -0.036 -11.833 -0.09 -0.556 0.028 -2.97 0.913" />
    <path class="write-flat-pen" fill="#FFFFFF" stroke-width="1.6" __comx="181.604" __comy="32.419" __timestamp="0x177fae84e93" d="M169.709 42.37 l-0.414 0.622 1.22 0.141 0.473 0.037 6.788 0.296 11.152 -1.727 1.04 -0.227 0.984 -0.222 0.931 -0.209 2.03 -0.449 -0.016 -0.116 -2.076 0.115 -0.964 0.052 -1.014 0.125 -1.043 0.145 -11.08 1.482 -6.692 -0.201 -0.479 -0.012 -1.238 0.076 0.266 0.751" />
    <path class="write-flat-pen" fill="#FFFFFF" stroke-width="1.6" __comx="176.338" __comy="51.139" __timestamp="0x177fae8502a" d="M175.86 47.478 l-0.461 -0.196 0.061 1.083 0.04 0.291 0.938 6.737 0.233 2.09 0.096 0.006 0.514 -2.131 -1.08 -6.819 -0.067 -0.29 -0.276 -1.041 -0.461 0.268" />
    <path class="write-flat-pen" fill="#FFFFFF" stroke-width="1.6" __comx="183.113" __comy="51.139" __timestamp="0x177fae851d5" d="M182.758 49.14 l-0.571 -0.812 -1.373 0.312 -1.053 0.873 -0.693 1.371 -0.371 2.126 0.229 1.901 0.854 1.98 1.039 1.07 1.458 0.563 1.915 -0.335 1.368 -0.873 1.357 -1.701 0.613 -1.736 -0.097 -1.552 -0.637 -1.063 -1.18 -0.744 -1.197 -0.068 -1.657 0.638 0.013 0.081 1.654 0.118 0.826 0.201 0.752 0.524 0.359 0.636 0.056 1.072 -0.479 1.354 -1.123 1.422 -1.029 0.669 -1.41 0.261 -0.97 -0.366 -0.749 -0.762 -0.725 -1.663 -0.197 -1.601 0.308 -1.833 0.516 -1.067 0.706 -0.636 0.605 -0.222 0.319 0.31" />
    <path class="write-flat-pen" fill="#FFFFFF" stroke-width="1.6" __comx="189.636" __comy="51.139" __timestamp="0x177fae85361" d="M191.01 49.643 l-0.385 -0.592 -0.321 -0.112 -1.887 0.544 -0.363 0.29 -0.993 1.216 -0.779 2.113 -0.221 2.379 0.386 1.717 0.832 1.151 1.317 0.534 1.63 -0.42 1.43 -1.288 1.051 -1.816 0.502 -2.045 -0.246 -1.566 -0.895 -1.179 -1.514 -0.609 -1.858 0.215 -0.011 0.118 1.63 0.538 1.039 0.601 0.524 0.761 0.144 1.066 -0.409 1.662 -0.868 1.522 -1.079 0.987 -0.996 0.267 -0.676 -0.265 -0.514 -0.701 -0.301 -1.322 0.18 -2.066 0.644 -1.827 0.783 -1.023 0.133 -0.12 1.406 -0.617 -0.117 -0.052 0.394 0.297" />
    <path class="write-flat-pen" fill="#FFFFFF" stroke-width="1.6" __comx="198.415" __comy="51.139" __timestamp="0x177fae854e1" d="M198.153 49.402 l0.579 -0.967 -0.023 -0.303 -1.043 -0.723 -0.433 0.115 -1.322 0.873 -1.008 1.382 -0.776 2.23 -0.14 1.823 0.479 2.045 0.778 1.175 1.343 0.835 1.762 0.042 1.44 -0.62 1.44 -1.295 1.145 -1.895 0.469 -1.748 -0.265 -1.618 -0.839 -1.173 -2.294 -0.8 -0.261 0.055 -0.134 0.058 -1.633 0.752 0.022 0.098 1.797 -0.026 0.109 0.003 -0.018 0.021 1.665 0.78 0.464 0.687 0.174 1.102 -0.358 1.343 -0.96 1.611 -1.16 1.065 -1.033 0.462 -1.213 -0.008 -0.896 -0.532 -0.555 -0.808 -0.412 -1.695 0.112 -1.527 0.667 -1.967 0.797 -1.139 1.011 -0.759 -0.078 0.012 0.53 0.17 -0.015 -0.217 -0.294 0.904" />
    <path class="write-flat-pen" fill="#FFFFFF" stroke-width="1.6" __comx="221.955" __comy="51.139" __timestamp="0x177fae8569f" d="M214.318 42.36 l4.188 3.705 0.545 0.543 8.453 9.284 2.063 1.121 0.024 -0.03 -1.483 -1.731 -8.363 -9.312 -0.6 -0.577 -4.362 -3.551" />
    <path class="write-flat-pen" fill="#FFFFFF" stroke-width="1.6" __comx="222.028" __comy="51.139" __timestamp="0x177fae85760" d="M216.569 56.171 l4.39 -4.931 0.555 -0.618 4.574 -5.238 0.388 -0.499 0.351 -0.495 1.309 -1.832 -0.105 -0.095 -1.693 1.484 -0.458 0.398 -0.459 0.438 -4.722 5.109 -0.558 0.631 -4.223 5.087" />
    <path class="write-flat-pen" fill="#FFFFFF" stroke-width="1.6" __comx="258.124" __comy="51.139" __timestamp="0x177fae85fdf" d="M251.565 51.307 l2.942 -0.031 7.382 0.672 0.517 -0.011 2.292 -0.044 0.009 -0.122 -2.263 -0.368 -0.5 -0.083 -7.411 -0.833 -2.99 0.19" />
    <path class="write-flat-pen" fill="#FFFFFF" stroke-width="1.6" __comx="257.047" __comy="51.139" __timestamp="0x177fae860c6" d="M255.501 47.94 l0.101 2.175 1.763 6.47 1.113 2.007 0.113 -0.046 -0.592 -2.173 -1.612 -6.392 -0.24 -2.093" />
    <path class="write-flat-pen" fill="#FFFFFF" stroke-width="1.6" __comx="278.299" __comy="51.139" __timestamp="0x177fae86252" d="M277.43 39.677 l0.016 3.126 0.058 0.574 0.84 13.36 0.483 2.269 0.152 -0.01 0.189 -2.311 -0.82 -13.384 -0.076 -0.564 -0.243 -3.085" />
    <path class="write-flat-pen" fill="#FFFFFF" stroke-width="1.6" __comx="287.467" __comy="51.139" __timestamp="0x177fae86430" d="M288.017 44.941 l-0.141 -0.981 -0.268 -0.25 -1.66 0.252 -0.373 0.241 -1.301 1.196 -1.196 1.932 -0.769 2.256 -0.325 2.803 0.398 2.324 0.835 1.826 1.128 1.176 1.311 0.572 1.524 -0.017 1.575 -0.606 1.852 -1.46 1.359 -1.837 0.736 -2.004 0.248 -2.248 -0.365 -1.896 -1.132 -2.15 -1.559 -1.684 -1.513 -0.694 -1.837 0.356 -0.316 0.234 -0.325 0.398 -1.054 1.555 0.093 0.095 1.552 -1.021 0.354 -0.212 0.076 -0.018 1.253 -0.071 0.916 0.463 1.259 1.376 0.962 1.821 0.299 1.505 -0.198 1.892 -0.605 1.686 -1.13 1.566 -1.553 1.264 -1.189 0.482 -1.051 0.034 -0.874 -0.357 -0.849 -0.852 -0.711 -1.509 -0.368 -2.022 0.273 -2.536 0.68 -2.042 1.038 -1.733 1.105 -1.092 0.147 -0.112 1.082 -0.357 -0.149 -0.146 0.3 0.719" />
    <path class="write-flat-pen" fill="#FFFFFF" stroke-width="1.6" __comx="298.31" __comy="51.139" __timestamp="0x177fae86646" d="M298.246 42.967 l-0.628 -1.246 -0.17 -0.161 -1.136 -0.655 -1.24 0.031 -1.066 0.835 -0.672 1.478 -0.091 1.609 0.516 1.38 1.344 1.332 3.923 2.416 1.959 1.706 0.956 1.503 0.335 1.219 -0.129 0.971 -0.528 0.674 -1.034 0.438 -1.017 0.002 -0.984 -0.443 -0.618 -0.903 -0.126 -1.024 0.394 -2.118 3.455 -9.342 0.488 -3.478 -0.059 -0.545 -0.294 -0.96 -0.792 -2.017 -0.098 0.025 0.258 2.133 0.07 0.921 -0.017 0.383 -0.678 3.233 -3.523 9.318 -0.431 2.416 0.208 1.5 0.995 1.393 1.516 0.655 1.493 -0.021 1.503 -0.661 0.869 -1.151 0.179 -1.482 -0.443 -1.581 -1.128 -1.766 -2.145 -1.863 -3.899 -2.392 -1.098 -1.08 -0.364 -0.956 0.056 -1.201 0.469 -1.098 0.609 -0.531 0.692 -0.081 0.899 0.395 0.029 0.014 0.759 1.038" />
    <path class="write-flat-pen" fill="#FFFFFF" stroke-width="1.6" __comx="81.842" __comy="134.959" __timestamp="0x177fae8a712" d="M80.243 126.841 l0.311 0.928 0.05 0.19 0.468 1.931 0.135 0.571 0.653 4.101 0.385 6.048 -0.144 5.584 0.84 -0.317 -0.086 -0.015 -0.128 -0.095 -0.683 -0.7 -0.11 0.054 0.14 0.968 0.057 0.281 0.106 0.184 0.84 -0.317 0.366 -5.642 -0.44 -6.175 -0.824 -4.181 -0.192 -0.616 -0.697 -1.899 -0.105 -0.222 -0.522 -0.858" />
    <path class="write-flat-pen" fill="#FFFFFF" stroke-width="1.6" __comx="81.895" __comy="134.959" __timestamp="0x177fae8a81d" d="M70.906 128.479 l0.536 -0.419 0.044 -0.003 1.98 -0.552 0.53 -0.121 4.703 -0.733 9.317 -0.684 0.831 -0.118 1.597 -0.234 0.79 -0.159 2.162 -0.425 -0.014 -0.175 -2.202 -0.065 -0.807 -0.027 -1.624 0.042 -0.825 0.052 -9.372 0.514 -4.803 0.845 -0.614 0.174 -2.004 0.79 -0.235 0.13 -0.502 0.685" />
    <path class="write-flat-pen" fill="#FFFFFF" stroke-width="1.6" __comx="100.912" __comy="134.959" __timestamp="0x177fae8a9e6" d="M96.507 127.961 l0.311 0.171 0.134 0.027 1.037 0.055 0.317 -0.01 4.728 -0.515 2.281 -0.495 -0.013 -0.166 -2.338 -0.126 -4.74 0.399 -0.292 0.04 -0.981 0.147 -0.049 0.019 -0.3 0.031" />
    <path class="write-flat-pen" fill="#FFFFFF" stroke-width="1.6" __comx="107.223" __comy="134.959" __timestamp="0x177fae8aac1" d="M106.118 121.76 l1.575 8.323 0.489 2.223 0.129 -0.013 0.019 -2.302 -1.522 -8.359" />
    <path class="write-flat-pen" fill="#FFFFFF" stroke-width="1.6" __comx="122.546" __comy="134.959" __timestamp="0x177fae8acdf" d="M122.66 126.724 l-0.609 -0.571 -0.408 0.143 -0.929 0.849 -0.286 0.423 -1.304 2.805 -0.765 3.435 -0.291 4.874 0.282 2.958 0.879 3.4 1.296 2.766 2.398 2.453 0.509 0.269 0.905 0.327 0.442 0.08 2.188 0.391 0.055 -0.166 -1.991 -0.988 -0.357 -0.184 -0.75 -0.413 -0.291 -0.2 -2.01 -2.304 -1.123 -2.485 -0.818 -3.182 -0.26 -2.749 0.269 -4.667 0.674 -3.216 1.095 -2.665 0.153 -0.286 0.555 -0.779 -0.226 0.068 0.358 0.116" />
    <path class="write-flat-pen" fill="#FFFFFF" stroke-width="1.6" __comx="134.685" __comy="134.959" __timestamp="0x177fae8ae05" d="M127.963 133.654 l0.767 1.049 0.215 0.304 6.239 7.873 3.514 3.147 0.248 0.107 0.175 0.051 2.224 0.646 0.061 -0.124 -1.875 -1.359 -0.132 -0.098 -0.09 -0.074 -3.204 -3.151 -6.333 -7.674 -0.251 -0.294 -0.933 -0.937" />
    <path class="write-flat-pen" fill="#FFFFFF" stroke-width="1.6" __comx="134.939" __comy="134.959" __timestamp="0x177fae8aef9" d="M131.469 147.12 l-0.386 -1.913 0.02 -0.116 0.58 -1.487 4.569 -6.025 2.068 -3.58 0.328 -0.711 0.276 -0.664 0.228 -0.639 0.757 -2.096 -0.135 -0.067 -1.207 1.874 -0.368 0.566 -0.364 0.607 -0.382 0.636 -2.214 3.382 -4.637 6.132 -0.609 1.832 -0.026 0.454 0.659 2.037" />
    <path class="write-flat-pen" fill="#FFFFFF" stroke-width="1.6" __comx="143.904" __comy="134.959" __timestamp="0x177fae8b04a" d="M139.448 130.408 l3.014 1.612 0.361 0.298 1.693 1.734 1.364 2.109 0.948 2.429 0.411 2.493 -0.05 2.531 -1.402 4.788 -0.208 0.444 -0.422 0.868 -0.992 2.039 0.123 0.079 1.442 -1.76 0.596 -0.797 0.308 -0.516 1.664 -4.963 0.062 -2.794 -0.448 -2.712 -1.042 -2.642 -1.511 -2.283 -1.858 -1.812 -0.504 -0.383 -3.208 -1.454" />
    <path class="write-flat-pen" fill="#FFFFFF" stroke-width="1.6" __comx="165.333" __comy="137.223" __timestamp="0x177fae8c1fb" d="M160.755 137.389 l6.863 0.536 2.284 -0.054 0.01 -0.128 -2.248 -0.401 -6.859 -0.568" />
    <path class="write-flat-pen" fill="#FFFFFF" stroke-width="1.6" __comx="167.36" __comy="142.523" __timestamp="0x177fae8c30d" d="M162.206 143.266 l0.544 -0.258 0.085 -0.007 3.037 -0.277 4.643 -0.085 2.3 -0.144 0.009 -0.175 -2.287 -0.375 -4.718 -0.188 -3.144 0.48 -0.257 0.096 -0.519 0.505" />
    <path class="write-flat-pen" fill="#FFFFFF" stroke-width="1.6" __comx="204.03" __comy="133.317" __timestamp="0x177fae96a88" d="M202.986 121.571 l-0.047 0.946 0.033 0.256 0.754 4.709 0.37 4.719 0.464 2.363 0.212 -0.005 0.35 -2.406 -0.287 -4.811 -0.968 -4.737 -0.053 -0.197 -0.153 -0.877" />
    <path class="write-flat-pen" fill="#FFFFFF" stroke-width="1.6" __comx="210.337" __comy="133.317" __timestamp="0x177fae96c4c" d="M210.63 123.192 l-0.72 -0.17 -0.253 0.096 -1.602 1.424 -0.233 0.362 -0.983 2.301 -0.321 2.128 0.288 1.362 0.891 1.207 1.373 0.528 1.366 -0.209 1.594 -0.916 1.365 -1.583 0.718 -1.71 0.04 -1.41 -0.685 -1.192 -1.889 -0.647 -1.925 0.401 -0.002 0.172 1.722 0.446 1.224 0.616 0.278 0.519 -0.022 0.824 -0.541 1.314 -1.089 1.281 -1.206 0.713 -0.823 0.142 -0.761 -0.273 -0.553 -0.717 -0.21 -0.912 0.239 -1.795 0.835 -2.123 0.111 -0.196 1.251 -1.403 -0.069 0.014 0.544 -0.059" />
    <path class="write-flat-pen" fill="#FFFFFF" stroke-width="1.6" __comx="218.002" __comy="133.317" __timestamp="0x177fae96de9" d="M219.994 121.49 l-1.317 0.177 -0.274 0.111 -2.027 1.161 -1.346 1.437 -0.727 1.733 -0.199 1.879 0.403 1.675 0.783 1.1 1.271 0.681 1.585 -0.08 1.537 -0.84 1.162 -1.304 0.832 -1.804 0.223 -1.901 -0.54 -1.401 -1.022 -0.88 -1.837 -0.083 -1.386 1.02 0.044 0.104 1.481 -0.19 1.219 0.24 0.51 0.475 0.321 0.865 -0.163 1.429 -0.672 1.48 -0.907 1.031 -1.125 0.631 -1.009 0.064 -0.769 -0.399 -0.518 -0.707 -0.327 -1.282 0.145 -1.541 0.576 -1.431 1.089 -1.236 1.792 -1.177 0.138 -0.075 1.186 -0.374" />
    <path class="write-flat-pen" fill="#FFFFFF" stroke-width="1.6" __comx="226.202" __comy="133.317" __timestamp="0x177fae96f5c" d="M227.247 122.061 l-0.198 -0.665 -0.254 -0.138 -1.352 0.037 -0.333 0.116 -1.511 0.863 -0.984 1.281 -0.489 1.59 0.148 1.681 0.681 1.187 1.239 0.813 1.691 0.094 1.744 -0.783 1.432 -1.282 0.956 -1.625 0.261 -1.589 -0.63 -1.226 -2.165 -0.788 -0.535 0.02 -0.89 0.181 -1.994 0.518 0.016 0.138 2.048 0.046 0.846 0.036 0.298 0.042 1.493 0.746 0.208 0.479 -0.167 0.959 -0.733 1.261 -1.133 1.037 -1.291 0.601 -1.076 -0.042 -0.749 -0.467 -0.434 -0.715 -0.129 -1.209 0.345 -1.202 0.713 -0.985 1.217 -0.785 0.13 -0.061 0.997 -0.219 -0.142 -0.083 0.294 0.35" />
    <path class="write-flat-pen" fill="#FFFFFF" stroke-width="1.6" __comx="215.831" __comy="133.317" __timestamp="0x177fae97099" d="M197.242 137.355 l4.486 -1.414 0.973 -0.202 4.682 -0.631 23.798 -1.108 0.658 -0.043 0.602 -0.066 2.21 -0.235 0 -0.135 -2.211 -0.219 -0.602 -0.062 -0.673 -0.037 -23.871 0.892 -4.76 0.696 -1.056 0.243 -4.462 1.652" />
    <path class="write-flat-pen" fill="#FFFFFF" stroke-width="1.6" __comx="209.657" __comy="133.317" __timestamp="0x177fae972fb" d="M209.827 136.828 l-0.222 0.605 -0.041 0.227 -0.265 2.824 -0.039 0.512 -0.22 5.432 0.319 1.199 0.224 0.004 0.361 -1.175 0.261 -5.412 0.019 -0.509 0.041 -2.824 -0.003 -0.184 0.015 -0.611" />
    <path class="write-flat-pen" fill="#FFFFFF" stroke-width="1.6" __comx="217.855" __comy="133.317" __timestamp="0x177fae97515" d="M216.959 138.398 l-0.536 0.133 -0.147 0.087 -0.827 0.632 -0.143 0.144 -1.288 1.998 0.096 0.464 0.651 0.745 3.867 1.038 1.216 0.657 0.608 0.852 0.071 0.861 -0.481 0.936 -1.074 0.783 -1.551 0.474 -1.608 -0.024 -0.032 0.02 -1.809 -0.571 -0.055 0.092 1.366 1.317 0.205 0.161 2.07 0.276 1.987 -0.603 1.483 -1.093 0.767 -1.523 -0.141 -1.55 -0.976 -1.352 -1.595 -0.856 -3.687 -0.936 -0.246 -0.238 0.051 0.254 0.827 -1.662 0.043 -0.064 0.624 -0.746 0.04 -0.056 0.392 -0.282" />
    <path class="write-flat-pen" fill="#FFFFFF" stroke-width="1.6" __comx="220.588" __comy="133.317" __timestamp="0x177fae975ee" d="M214.929 138.331 l1.276 -0.197 0.177 0.012 7.679 0.07 2.353 -0.337 -0.003 -0.168 -2.348 -0.248 -7.664 -0.264 -0.3 0.006 -1.336 0.445" />
    <path class="write-flat-pen" fill="#FFFFFF" stroke-width="1.6" __comx="195.622" __comy="139.121" __timestamp="0x177fae97800" d="M197.354 121.659 l-1.181 0.219 -0.264 0.178 -0.949 1.109 -1.473 4.017 -0.87 4.248 -0.348 5.091 0.159 5.181 0.633 3.951 0.91 2.576 1.75 2.128 0.649 0.487 0.69 0.399 1.843 1.068 0.073 -0.105 -1.644 -1.354 -0.594 -0.493 -0.523 -0.479 -1.478 -2.058 -0.759 -2.391 -0.574 -3.818 -0.155 -5.072 0.334 -4.979 0.816 -4.128 1.288 -3.869 0.708 -1.009 0.074 -0.074 1.004 -0.396" />
    <path class="write-flat-pen" fill="#FFFFFF" stroke-width="1.6" __comx="238.025" __comy="139.121" __timestamp="0x177fae979ec" d="M233.181 119.914 l0.604 0.918 0.252 0.267 3.313 3.392 0.531 0.631 1.947 2.948 1.113 2.488 0.665 2.71 0.208 2.688 -0.488 3.615 -1.378 4.505 -1.541 3.287 -2.315 3.436 -0.438 0.573 -0.44 0.581 -1.326 1.736 0.1 0.092 1.626 -1.458 0.553 -0.494 0.533 -0.554 2.558 -3.412 1.66 -3.409 1.442 -4.657 0.511 -3.812 -0.23 -2.885 -0.723 -2.881 -1.209 -2.639 -2.065 -3.037 -0.607 -0.695 -3.505 -3.261 -0.25 -0.21 -0.735 -0.755" />
    <path class="write-flat-pen" fill="#FFFFFF" stroke-width="1.6" __comx="249.212" __comy="139.121" __timestamp="0x177fae97beb" d="M251.627 121.865 l-1.838 1.16 -0.356 0.391 -1.394 2.109 -1.225 3.105 -0.693 3.108 -0.422 4.681 0.127 3.602 0.793 5.287 1.149 3.779 2.197 3.122 0.409 0.303 0.39 0.215 1.904 1.047 0.056 -0.08 -1.642 -1.424 -0.313 -0.275 -0.268 -0.265 -1.88 -3.041 -1.018 -3.599 -0.766 -5.164 -0.135 -3.483 0.374 -4.561 0.628 -2.986 1.11 -2.979 1.25 -2.028 0.24 -0.293 1.633 -1.29" />
    <path class="write-flat-pen" fill="#FFFFFF" stroke-width="1.6" __comx="264.889" __comy="139.121" __timestamp="0x177fae97e53" d="M259.241 133.93 l-0.597 -0.04 0.237 0.587 0.161 0.28 2.36 3.74 0.507 0.769 4.434 6.861 2.576 2.427 2.142 0.56 0.072 -0.152 -1.639 -1.235 -2.291 -2.307 -4.419 -6.735 -0.527 -0.762 -2.541 -3.61 -0.182 -0.247 -0.404 -0.471 -0.429 0.501" />
    <path class="write-flat-pen" fill="#FFFFFF" stroke-width="1.6" __comx="264.342" __comy="139.121" __timestamp="0x177fae97f32" d="M258.774 148.122 l3.33 -3.054 0.617 -0.54 5.95 -6.043 0.354 -0.488 0.271 -0.436 1.201 -1.92 -0.107 -0.086 -1.627 1.576 -0.364 0.349 -0.392 0.393 -6.033 5.859 -0.604 0.543 -3.185 3.238" />
    <path class="write-flat-pen" fill="#FFFFFF" stroke-width="1.6" __comx="284.267" __comy="139.121" __timestamp="0x177fae98212" d="M277.975 141.193 l1.279 -0.354 0.274 -0.021 8.884 0.762 2.297 0.057 0.019 -0.151 -2.251 -0.503 -8.963 -0.909 -0.432 0.073 -1.275 0.593" />
    <path class="write-flat-pen" fill="#FFFFFF" stroke-width="1.6" __comx="297.856" __comy="139.121" __timestamp="0x177fae983c1" d="M298.783 129.642 l-0.588 0.836 -0.128 0.389 -1.563 15.97 0.18 2.283 0.125 0.01 0.554 -2.217 1.42 -15.912 0.054 -0.255 0.374 -0.862" />
    <path class="write-flat-pen" fill="#FFFFFF" stroke-width="1.6" __comx="307.948" __comy="139.121" __timestamp="0x177fae985a3" d="M306.884 136.436 l0.284 -1.553 -0.721 -0.782 -1.748 0.604 -1.497 1.181 -1.247 1.7 -0.809 2.096 -0.326 2.217 0.281 2.325 0.687 1.695 1.483 1.727 1.918 0.952 1.85 0.183 1.912 -0.422 1.893 -0.981 2.028 -1.774 1.391 -2.067 0.73 -2.091 0.083 -2.074 -0.541 -1.657 -1.27 -1.709 -1.599 -1.15 -1.973 -0.308 -0.319 0.088 -0.149 0.075 -1.695 0.909 0.041 0.146 1.92 -0.111 0.12 0 0.067 0.017 1.436 0.409 1.168 0.901 0.99 1.378 0.385 1.208 -0.058 1.617 -0.589 1.73 -1.179 1.778 -1.758 1.567 -1.584 0.848 -1.536 0.362 -1.414 -0.119 -1.493 -0.715 -1.209 -1.366 -0.575 -1.354 -0.269 -2.007 0.275 -1.933 0.706 -1.834 1.058 -1.463 1.219 -1.002 0.943 -0.404 0.005 -0.065 -0.09 1.119" />
    <path class="write-flat-pen" fill="#FFFFFF" stroke-width="1.6" __comx="325.037" __comy="131.869" __timestamp="0x177fae98d16" d="M326.384 130.396 l-0.795 -0.087 -0.155 0.003 -2.048 0.25 -0.322 0.082 -1.543 0.666 -1.246 1.212 -0.83 1.725 0.049 1.436 0.741 1.3 1.694 1.365 4.562 2.136 1.608 1.092 1.022 1.25 0.368 0.981 -0.048 1.258 -0.459 0.87 -0.721 0.549 -0.908 0.2 -0.836 -0.215 -0.814 -0.706 -0.577 -1.188 -0.305 -1.707 0.126 -2.007 2.711 -8.723 0.094 -0.57 0.083 -1.07 -0.021 -0.511 -0.095 -2.323 -0.19 -0.015 -0.469 2.278 -0.101 0.47 -0.232 0.986 -0.127 0.475 -2.951 8.762 -0.124 2.332 0.389 2.029 0.787 1.566 1.242 1.045 1.402 0.336 1.439 -0.345 1.116 -0.884 0.677 -1.336 0.049 -1.741 -0.517 -1.363 -1.244 -1.518 -1.816 -1.236 -4.525 -2.11 -1.429 -1.146 -0.508 -0.877 -0.038 -0.895 0.616 -1.323 0.954 -0.979 1.276 -0.627 0.201 -0.067 1.936 -0.464 0.099 -0.024 0.761 -0.123" />
    <path class="write-flat-pen" fill="#FFFFFF" stroke-width="1.6" __comx="336.794" __comy="128.28" __timestamp="0x177fae98f0c" d="M332.331 124.291 l1.184 0.863 0.199 0.183 3.045 3.653 0.324 0.519 1.474 2.815 1.063 2.998 0.487 3.134 -0.052 2.309 -1.027 4.393 -0.219 0.613 -0.507 1.239 -0.269 0.606 -0.901 2.006 0.103 0.06 1.296 -1.777 0.407 -0.558 0.68 -1.216 0.31 -0.676 1.26 -4.533 0.071 -2.541 -0.526 -3.343 -1.15 -3.169 -1.588 -2.897 -0.406 -0.606 -3.303 -3.608 -0.306 -0.243 -1.354 -0.698" />
  </g>
</svg>
