<svg class="write-page" color-interpolation="linearRGB" width="1010px" height="1628px" xmlns="http://www.w3.org/2000/svg" xmlns:xlink="http://www.w3.org/1999/xlink">
  <g class="write-content write-v3" width="1010" height="1628" xruling="30" yruling="30" marginLeft="30" papercolor="#1B1C1C" rulecolor="#3D00F9FF">
    <g class="ruleline write-std-ruling write-scale-down" fill="none" stroke="#00F9FF" stroke-opacity="0.239" stroke-width="1" shape-rendering="crispEdges" vector-effect="non-scaling-stroke">
      <rect class="pagerect" fill="#1B1C1C" stroke="none" x="0" y="0" width="1010" height="1628" />
      <path class="yrule_1" d="M0 30 l1010 0" />
      <path d="M0 60 l1010 0" />
      <path d="M0 90 l1010 0" />
      <path d="M0 120 l1010 0" />
      <path d="M0 150 l1010 0" />
      <path d="M0 180 l1010 0" />
      <path d="M0 210 l1010 0" />
      <path d="M0 240 l1010 0" />
      <path d="M0 270 l1010 0" />
      <path d="M0 300 l1010 0" />
      <path d="M0 330 l1010 0" />
      <path d="M0 360 l1010 0" />
      <path d="M0 390 l1010 0" />
      <path d="M0 420 l1010 0" />
      <path d="M0 450 l1010 0" />
      <path d="M0 480 l1010 0" />
      <path d="M0 510 l1010 0" />
      <path d="M0 540 l1010 0" />
      <path d="M0 570 l1010 0" />
      <path d="M0 600 l1010 0" />
      <path d="M0 630 l1010 0" />
      <path d="M0 660 l1010 0" />
      <path d="M0 690 l1010 0" />
      <path d="M0 720 l1010 0" />
      <path d="M0 750 l1010 0" />
      <path d="M0 780 l1010 0" />
      <path d="M0 810 l1010 0" />
      <path d="M0 840 l1010 0" />
      <path d="M0 870 l1010 0" />
      <path d="M0 900 l1010 0" />
      <path d="M0 930 l1010 0" />
      <path d="M0 960 l1010 0" />
      <path d="M0 990 l1010 0" />
      <path d="M0 1020 l1010 0" />
      <path d="M0 1050 l1010 0" />
      <path d="M0 1080 l1010 0" />
      <path d="M0 1110 l1010 0" />
      <path d="M0 1140 l1010 0" />
      <path d="M0 1170 l1010 0" />
      <path d="M0 1200 l1010 0" />
      <path d="M0 1230 l1010 0" />
      <path d="M0 1260 l1010 0" />
      <path d="M0 1290 l1010 0" />
      <path d="M0 1320 l1010 0" />
      <path d="M0 1350 l1010 0" />
      <path d="M0 1380 l1010 0" />
      <path d="M0 1410 l1010 0" />
      <path d="M0 1440 l1010 0" />
      <path d="M0 1470 l1010 0" />
      <path d="M0 1500 l1010 0" />
      <path d="M0 1530 l1010 0" />
      <path d="M0 1560 l1010 0" />
      <path d="M0 1590 l1010 0" />
      <path d="M0 1620 l1010 0" />
      <path class="xrule_1" d="M30 0 l0 1628" />
      <path d="M60 0 l0 1628" />
      <path d="M90 0 l0 1628" />
      <path d="M120 0 l0 1628" />
      <path d="M150 0 l0 1628" />
      <path d="M180 0 l0 1628" />
      <path d="M210 0 l0 1628" />
      <path d="M240 0 l0 1628" />
      <path d="M270 0 l0 1628" />
      <path d="M300 0 l0 1628" />
      <path d="M330 0 l0 1628" />
      <path d="M360 0 l0 1628" />
      <path d="M390 0 l0 1628" />
      <path d="M420 0 l0 1628" />
      <path d="M450 0 l0 1628" />
      <path d="M480 0 l0 1628" />
      <path d="M510 0 l0 1628" />
      <path d="M540 0 l0 1628" />
      <path d="M570 0 l0 1628" />
      <path d="M600 0 l0 1628" />
      <path d="M630 0 l0 1628" />
      <path d="M660 0 l0 1628" />
      <path d="M690 0 l0 1628" />
      <path d="M720 0 l0 1628" />
      <path d="M750 0 l0 1628" />
      <path d="M780 0 l0 1628" />
      <path d="M810 0 l0 1628" />
      <path d="M840 0 l0 1628" />
      <path d="M870 0 l0 1628" />
      <path d="M900 0 l0 1628" />
      <path d="M930 0 l0 1628" />
      <path d="M960 0 l0 1628" />
      <path d="M990 0 l0 1628" />
      <path class="leftmargin" stroke="#FF0000" d="M30 0 l0 1628" />
    </g>
    <path class="write-flat-pen" fill="#FFFFFF" stroke-width="1.6" __comx="77.449" __comy="36.838" __timestamp="0x1780395a4d0" d="M79.876 34.124 l0.75 -0.72 -0.277 -0.378 -1.589 -0.608 -0.434 0.01 -2.441 0.51 -2.558 1.422 -2.138 2.185 -1.345 2.659 -0.428 2.603 0.47 1.695 1.353 1.273 2.104 0.422 0 0 2.773 -0.534 0 0 0.854 -0.777 0 0 -0.71 -1.231 -2.022 0.636 -2.43 1.779 -2.224 2.667 -1.332 2.854 -0.156 2.19 0.845 1.846 1.761 1.303 2.347 0.577 2.564 -0.244 3.364 -1.28 5.266 -3.536 2.562 -2.577 -0.216 -0.283 -3.121 1.764 -5.176 3.287 -3.024 1.148 -2.11 0.205 -1.811 -0.441 -1.214 -0.894 -0.53 -1.15 0.107 -1.538 1.133 -2.433 1.982 -2.385 2.084 -1.539 1.79 -0.571 -0.71 -1.231 0 0 -0.549 0.504 0 0 -2.091 0.404 0 0 -1.42 -0.284 -0.761 -0.711 -0.284 -1 0.332 -2.077 1.13 -2.286 1.82 -1.931 2.191 -1.318 2.135 -0.604 0.16 -0.027 1.28 0.18 -0.167 -0.242 -0.158 0.503" />
    <path class="write-flat-pen" fill="#FFFFFF" stroke-width="1.6" __comx="91.412" __comy="55.834" __timestamp="0x1780395a8bd" d="M84.675 60.318 l-0.284 0.884 0.3 0.322 2.426 0.351 0.458 -0.208 2.358 -1.72 1.787 -2.395 2.227 -4.795 0.463 -2.605 -0.755 -1.274 -1.481 0.139 -1.86 2.389 -1.697 4.213 -0.865 4.167 0.156 2.365 0.881 1.718 1.597 0.887 1.737 -0.135 2.179 -1.249 2.522 -3.094 1.612 -3.01 -0.323 -0.224 -2.215 2.506 -2.556 2.637 -1.677 0.943 -0.946 0.08 -0.807 -0.435 -0.547 -1.032 -0.14 -1.859 0.764 -3.856 1.541 -3.929 1.363 -1.785 0.044 -0.01 0.069 0.107 -0.335 1.948 -2.059 4.542 -1.557 2.184 -2.051 1.649 -0.091 0.057 -1.902 0.03 0.102 0.128 -0.1 -0.592" />
    <path class="write-flat-pen" transform="translate(53.233,1.764)" fill="#FFFFFF" stroke-width="1.6" __comx="126.118" __comy="110.395" __timestamp="0x1780395d0a0" d="M71.616 101.381 l0.547 -0.394 -0.779 -0.024 0.02 0.057 1.081 3.195 0.112 0.548 0.566 4.99 -0.145 7.302 -0.117 2.786 0.256 0.062 1.208 -2.667 0.288 -7.553 -0.699 -5.159 -0.176 -0.709 -1.469 -3.292 -0.126 -0.142 -0.779 -0.024 -0.286 0.611" />
    <path class="write-flat-pen" transform="translate(53.233,1.764)" fill="#FFFFFF" stroke-width="1.6" __comx="137.113" __comy="110.395" __timestamp="0x1780395d1be" d="M83.334 97.77 l-0.707 3.366 -0.054 0.635 -0.201 10.215 0.84 5.292 1.841 2.446 0.335 -0.179 -0.903 -2.684 -0.635 -4.971 0.054 -10.067 0.022 -0.541 0.37 -3.358" />
    <path class="write-flat-pen" transform="translate(53.233,1.764)" fill="#FFFFFF" stroke-width="1.6" __comx="132.584" __comy="110.395" __timestamp="0x1780395d303" d="M65.462 101.301 l0.966 -0.483 0.207 -0.011 10.492 -0.629 12.571 -2.782 0.88 -0.325 3.177 -1.159 -0.084 -0.328 -3.344 0.504 -0.904 0.13 -12.499 2.507 -10.42 0.831 -0.54 0.094 -1.018 0.924" />
    <path class="write-flat-pen" transform="translate(53.233,1.764)" fill="#FFFFFF" stroke-width="1.6" __comx="137.097" __comy="110.395" __timestamp="0x1780395d571" d="M70.577 121.188 l-0.767 -0.728 -0.156 0.481 0.914 -0.46 2.15 -0.219 10.22 1.108 6.401 0.009 5.697 -0.821 0.84 -0.195 3.388 -0.769 -0.047 -0.365 -3.473 0.115 -0.859 0.024 -5.631 0.581 -6.236 -0.046 -10.314 -1.051 -2.573 0.368 -1.422 0.949 -0.247 0.734 1.684 0.925" />
    <path class="write-flat-pen" transform="translate(53.233,1.764)" fill="#FFFFFF" stroke-width="1.6" __comx="160.165" __comy="110.395" __timestamp="0x1780395db8f" d="M101.954 108.422 l6.595 0.091 3.308 0.159 0.052 -0.335 -3.276 -0.865 -6.673 0.003" />
    <path class="write-flat-pen" transform="translate(53.233,1.764)" fill="#FFFFFF" stroke-width="1.6" __comx="171.966" __comy="110.395" __timestamp="0x1780395dde9" d="M117.346 98.813 l0.181 0.358 0.009 0.067 0.713 2.991 0.673 12.177 0.309 3.353 0.309 0.012 0.578 -3.374 -0.691 -12.358 -0.948 -3.142 -0.176 -0.338 -0.576 -0.234" />
    <path class="write-flat-pen" transform="translate(53.233,1.764)" fill="#FFFFFF" stroke-width="1.6" __comx="184.208" __comy="110.395" __timestamp="0x1780395e06f" d="M124.629 102.075 l-0.202 -1.423 0.006 0.043 0.86 -1.437 1.696 -1.442 1.924 -0.812 1.686 -0.071 1.104 0.45 0.981 1.291 0.203 1.309 0 0 -0.492 1.787 0 0 -2.937 2.97 0 0 0.568 1.185 1.716 -0.168 1.958 0.633 1.879 1.322 1.05 1.459 0.439 1.815 -0.322 1.649 -1.315 1.836 -1.655 1.095 -2.497 0.64 -1.967 -0.215 -2.174 -1.043 -2.411 -1.101 -0.122 0.163 1.829 2.071 2.462 1.309 2.488 0.269 2.98 -0.773 2.067 -1.382 1.632 -2.304 0.431 -2.246 -0.574 -2.374 -1.344 -1.873 -2.243 -1.584 -2.438 -0.791 -2.007 0.202 0.568 1.185 0 0 3.159 -3.25 0 0 0.649 -2.412 0 0 -0.313 -1.929 -1.423 -1.836 -1.71 -0.673 -2.201 0.12 -2.302 1.021 -1.942 1.777 -0.891 1.865 -0.027 0.321 0.57 1.513" />
    <path class="write-flat-pen" fill="#FFFFFF" stroke-width="1.6" __comx="76.8" __comy="167.948" __timestamp="0x1780395ecee" d="M69.112 164.16 l-0.034 5.718 0.007 0.495 0 0 -0.081 3.083 0 0 -0.387 0.561 0 0 1.199 0.418 1.167 -10.144 0.1 -5.988 -0.5 -1.99 0 0 -1.049 -0.727 -0.48 1.339 3.692 0.445 8.728 -0.49 3.608 -0.52 -0.01 -0.384 -3.639 -0.337 -8.633 0.19 -3.586 -0.357 -0.48 1.339 0.636 0.374 0 0 0.347 1.282 -0.078 5.739 -1.116 10.084 1.199 0.418 0 0 0.518 -0.886 0 0 0.026 -3.453 0 0 -0.017 -0.519 -0.314 -5.71" />
    <path class="write-flat-pen" fill="#FFFFFF" stroke-width="1.6" __comx="78.359" __comy="167.948" __timestamp="0x1780395ede0" d="M71.798 166.35 l9.859 -1.163 3.387 -0.866 -0.029 -0.231 -3.492 0.012 -9.849 1.208" />
    <path class="write-flat-pen" fill="#FFFFFF" stroke-width="1.6" __comx="77.356" __comy="167.948" __timestamp="0x1780395eed5" d="M69.466 172.096 l0.604 1.236 3.262 0.762 8.381 0.068 3.534 -0.417 0 -0.232 -3.522 -0.417 -8.243 -0.309 -2.672 -0.483 -0.521 -0.689" />
    <path class="write-flat-pen" fill="#FFFFFF" stroke-width="1.6" __comx="96.392" __comy="167.948" __timestamp="0x1780395efd4" d="M90.23 163.852 l3.121 4.193 5.775 5.114 3.263 1.522 0.165 -0.265 -2.714 -2.207 -5.529 -5.059 -3.239 -3.955" />
    <path class="write-flat-pen" fill="#FFFFFF" stroke-width="1.6" __comx="95.901" __comy="167.948" __timestamp="0x1780395f095" d="M89.802 175.522 l10.72 -9.792 2.194 -2.75 -0.255 -0.251 -2.698 2.214 -10.677 9.797" />
    <path class="write-flat-pen" fill="#FFFFFF" stroke-width="1.6" __comx="67.615" __comy="110.766" __timestamp="0x17803960447" d="M69.12 94.838 l-1.817 6.356 -0.186 1.192 -1.781 16.55 1.034 3.059 0.244 -0.047 -0.15 -3.058 1.798 -16.356 0.156 -1.113 1.476 -6.382" />
    <path class="write-flat-pen" fill="#FFFFFF" stroke-width="1.6" __comx="74.034" __comy="110.766" __timestamp="0x17803960551" d="M67.66 98.511 l-0.475 -0.715 0 0 -0.426 0.974 11.553 -0.616 3.479 -0.416 -0.004 -0.312 -3.506 -0.324 -11.578 0.482 -0.426 0.974 0 0 0.623 0.59" />
    <path class="write-flat-pen" fill="#FFFFFF" stroke-width="1.6" __comx="76.361" __comy="110.766" __timestamp="0x1780396067b" d="M68.238 107.868 l1.75 0.146 0.344 -0.005 10.621 -0.809 3.544 -0.437 0 -0.282 -3.586 -0.431 -10.663 0.713 -0.308 0.036 -1.716 0.201" />
    <path class="write-flat-pen" fill="#FFFFFF" stroke-width="1.6" __comx="76.724" __comy="110.766" __timestamp="0x178039607a3" d="M66.961 119.495 l1.746 -0.36 0.361 -0.011 14.192 -0.045 3.507 -0.054 0.028 -0.266 -3.472 -0.797 -14.298 -0.248 -0.573 0.053 -1.797 0.738" />
    <path class="write-flat-pen" fill="#FFFFFF" stroke-width="1.6" __comx="96.321" __comy="110.766" __timestamp="0x17803960911" d="M90.118 104.964 l1.18 2.824 0.288 0.443 4.163 5.446 3.265 3.084 3.055 2.209 0.453 -0.535 -2.649 -2.628 -3.124 -3.033 -4.167 -5.267 -0.233 -0.326 -1.447 -2.598" />
    <path class="write-flat-pen" fill="#FFFFFF" stroke-width="1.6" __comx="97.482" __comy="110.766" __timestamp="0x178039609d1" d="M93.017 115.685 l2.922 -3.177 0.467 -0.418 4.219 -4.289 2.072 -2.923 -0.246 -0.226 -2.719 2.292 -4.255 4.177 -0.495 0.467 -2.718 3.457" />
    <path class="write-flat-pen" fill="#FFFFFF" stroke-width="1.6" __comx="83.735" __comy="110.766" __timestamp="0x17803960b05" d="M64.42 124.89 l1.989 -0.077 0.657 -0.016 31.546 -0.868 1.364 -0.116 3.17 -0.259 -0.001 -0.252 -3.172 -0.234 -1.375 -0.106 -31.58 0.677 -0.708 0.063 -1.985 0.403" />
    <path class="write-flat-pen" fill="#FFFFFF" stroke-width="1.6" __comx="87.809" __comy="178.193" __timestamp="0x17803960d7a" d="M64.654 177.301 l-0.814 1.332 0.401 1.229 2.125 1.124 3.1 0.447 17.552 -1.203 9.261 -0.123 9.559 0.909 1.4 0.181 1.369 0.162 3.13 0.379 0.041 -0.206 -3.035 -0.854 -1.336 -0.379 -1.421 -0.318 -9.642 -1.196 -9.382 0.091 -17.461 1.307 -2.804 -0.304 -1.677 -0.728 -0.241 -0.46 0.461 -1.081" />
    <path class="write-flat-pen" fill="#FFFFFF" stroke-width="1.6" __comx="126.786" __comy="170.36" __timestamp="0x17803962060" d="M125.035 161.794 l-0.96 0.002 1.39 5.382 0.204 0.677 2.187 8.08 1.427 3.312 0.216 -0.063 -0.588 -3.543 -2.11 -8.112 -0.222 -0.687 -1.717 -5.275 -0.505 0.682" />
    <path class="write-flat-pen" fill="#FFFFFF" stroke-width="1.6" __comx="134.969" __comy="170.36" __timestamp="0x17803962154" d="M132.523 162.896 l-0.649 1.698 -0.041 0.483 0.598 4 2.922 6.841 2.543 2.033 0.21 -0.202 -1.791 -2.468 -2.774 -6.531 -0.738 -3.733 -0.005 -0.274 0.296 -1.688" />
    <path class="write-flat-pen" fill="#FFFFFF" stroke-width="1.6" __comx="130.746" __comy="170.36" __timestamp="0x17803962228" d="M124.519 170.407 l-0.597 0.471 10.323 -1.583 3.472 -0.749 -0.04 -0.336 -3.568 0.098 -10.332 1.634 0.076 1.138" />
    <path class="write-flat-pen" fill="#FFFFFF" stroke-width="1.6" __comx="132.644" __comy="170.36" __timestamp="0x17803962326" d="M126.491 172.166 l-0.394 -0.019 -0.66 -0.141 -0.05 1.003 4.033 0.328 6.549 -0.887 0.592 -0.145 3.34 -0.81 -0.019 -0.146 -3.436 0.061 -0.604 0.009 -6.464 0.659 -3.939 -0.073 -0.05 1.003 0.671 -0.075 0.394 0.019" />
    <path class="write-flat-pen" fill="#FFFFFF" stroke-width="1.6" __comx="158.605" __comy="162.513" __timestamp="0x17803962d4d" d="M148.41 164.056 l-0.37 -2.341 0.031 -0.145 0.562 -1.549 1.224 -1.334 2.277 -0.993 2.736 -0.36 3.252 0.338 2.252 0.808 1.158 1.189 0.541 1.494 -0.075 1.855 -0.862 2.282 -1.964 2.912 -3.769 3.538 -6.492 4.543 -1.307 1.71 0.835 1.387 18.849 0.545 1.743 -0.544 1.103 -2.622 -0.037 -0.441 -0.068 -0.326 -0.632 -2.712 -0.111 0.008 -0.243 2.77 -0.029 0.299 -0.032 0.145 -0.969 1.681 -0.919 0.242 -17.801 -0.512 0.094 0.17 0.546 -0.746 6.327 -4.551 3.921 -3.728 2.116 -3.168 0.981 -2.621 0.087 -2.316 -0.727 -1.986 -1.558 -1.593 -2.676 -0.953 -3.554 -0.359 -3.058 0.425 -2.654 1.218 -1.484 1.754 -0.54 1.893 -0.037 0.407 0.74 2.428" />
    <path class="write-flat-pen" fill="#FFFFFF" stroke-width="1.6" __comx="193.781" __comy="170.118" __timestamp="0x17803964478" d="M193.93 160.379 l-0.809 2.35 -0.076 0.457 -0.149 12.844 0.809 2.456 0.273 -0.032 0.224 -2.498 -0.044 -12.696 0.024 -0.318 0.482 -2.362" />
    <path class="write-flat-pen" fill="#FFFFFF" stroke-width="1.6" __comx="204.125" __comy="170.118" __timestamp="0x17803964596" d="M202.902 160.96 l0.024 4.129 0.038 0.656 0.814 11.393 1.36 3.155 0.211 -0.055 -0.333 -3.303 -0.767 -11.281 -0.057 -0.64 -0.36 -4.097" />
    <path class="write-flat-pen" fill="#FFFFFF" stroke-width="1.6" __comx="198.633" __comy="170.118" __timestamp="0x1780396470d" d="M185.052 160.35 l1.25 1.345 0.698 0.27 4.66 1.044 4.946 0.258 12.274 -1.964 3.334 -0.999 -0.051 -0.267 -3.446 0.3 -12.174 1.619 -4.718 -0.219 -4.504 -0.898 -0.425 -0.135 -1.305 -0.954" />
    <path class="write-flat-pen" fill="#FFFFFF" stroke-width="1.6" __comx="203.364" __comy="170.118" __timestamp="0x1780396491c" d="M188.199 179.568 l3.153 -0.08 0.689 0.026 13.175 1.834 9.515 0.024 0.532 -0.142 3.331 -0.912 -0.036 -0.23 -3.45 0.148 -0.455 0.012 -9.335 -0.275 -13.188 -1.668 -0.814 0.003 -3.183 0.402" />
    <path class="write-flat-pen" fill="#FFFFFF" stroke-width="1.6" __comx="222.091" __comy="170.118" __timestamp="0x17803964bdf" d="M219.425 171.334 l-0.324 0.862 3.347 -0.892 2.862 -0.797 -0.036 -0.228 -3.016 0.137 -3.386 0.934 0.553 0.862" />
    <path class="write-flat-pen" fill="#FFFFFF" stroke-width="1.6" __comx="240.424" __comy="170.118" __timestamp="0x17803964fb7" d="M233.714 165.204 l-0.481 -1.476 0.008 -0.049 0.504 -1.96 0.964 -1.255 1.109 -0.607 1.231 -0.012 1.371 0.696 1.01 1.282 0.586 1.905 -0.166 2.679 -0.905 2.642 -1.804 2.868 -4.207 3.345 -0.774 1.766 2.016 1.042 8.102 0.73 3.181 -0.38 1.776 -1.474 1.451 -3.366 -0.089 -3.342 -0.256 -0.037 -0.999 2.983 -1.37 2.792 -1.15 0.948 -2.565 0.278 -7.648 -0.652 -0.513 -0.234 0.034 -0.154 4.057 -3.316 2.006 -3.201 1.017 -2.968 0.186 -3.114 -0.742 -2.384 -1.359 -1.713 -1.943 -0.963 -1.894 0.053 -1.612 0.946 -1.199 1.734 -0.389 2.403 0.056 0.346 0.852 1.466" />
    <path class="write-flat-pen" fill="#FFFFFF" stroke-width="1.6" __comx="254.139" __comy="170.118" __timestamp="0x178039651d3" d="M254.309 158.257 l-0.346 0.852 -0.054 0.303 -0.496 5.942 -0.047 1 0.017 10.958 0.805 3.517 0.32 -0.033 0.087 -3.543 0.138 -10.87 0.028 -0.968 0.151 -5.93 -0.002 -0.239 -0.002 -0.872" />
    <path class="write-flat-pen" fill="#FFFFFF" stroke-width="1.6" __comx="46.051" __comy="163.684" __timestamp="0x17803966069" d="M45.881 165.05 l0.261 0.051 -0.237 -0.115 0.047 0.348 -0.051 -0.024 -0.304 -0.152 -0.252 -0.532 0.113 -0.297 0.328 -0.119 0.317 0.157 0.202 0.512 -0.152 0.28 -0.127 0.024 0.027 0.022 0.027 -0.125 -0.127 0.06 0.21 0.219 -0.003 0.156 0.357 -0.155 -0.573 -0.526 -0.523 -1.35 0.109 -0.445 0.15 -0.089 0.422 0.15 0.605 0.852 0.022 0.514 -0.06 0.149 -1.132 0.481 -0.011 0.217 1.534 0.612 1.159 -0.738 -0.07 -1.727 -1.124 -1.582 -1.493 -0.528 -1.273 0.734 -0.374 1.496 0.805 2.114 1.531 1.385 1.424 -0.601 -0.049 -1.732 -1.314 -1.31 -1.459 0.633 -0.304 1.607 1.076 1.073 1.52 -0.393 0.708 -1.429 -0.684 -1.567 -1.309 -0.587 -1.406 0.559 -0.468 1.39 0.755 1.445 1.54 0.509 0.944 -1.137 -0.594 -1.175 -0.392 -0.201 -0.53 0.361" />
    <path class="write-flat-pen" fill="#FFFFFF" stroke-width="1.6" __comx="44.781" __comy="104.817" __timestamp="0x1780396661d" d="M44.472 106.891 l0.378 -1.25 -0.008 0.042 1.178 -0.97 0 0 -1.002 -0.478 -0.009 -0.022 -0.68 1.079 -0.629 0.334 -0.271 -0.089 -0.165 -0.371 0.184 -0.547 0.75 -0.542 0.94 0.027 0.778 0.553 0.31 0.728 0.021 -0.078 -0.154 -0.009 -0.541 -0.503 -0.109 -0.603 -0.049 0.059 -0.024 -0.003 0.38 0.839 -0.063 0.789 0.045 -0.028 -0.556 -0.251 -0.037 -0.023 0.225 -0.316 1.682 -0.955 -0.072 -0.262 -2.165 0.106 -1.432 0.961 0.637 1.588 1.905 0.944 1.251 -0.964 0.144 -1.866 -0.856 -1.863 -1.621 -0.412 -1.019 1.23 0.323 1.802 1.343 1.246 1.813 0.024 0.544 -1.505 -0.743 -1.647 -1.485 -1.026 -1.868 -0.039 -1.515 1.106 -0.506 1.527 0.693 1.474 1.478 0.404 1.429 -0.87 0.845 -1.674 0.014 -0.212 -1.002 -0.478 0 0 -1.054 1.33 -0.069 0.202 -0.048 1.388" />
    <path class="write-flat-pen" fill="#FFFFFF" stroke-width="1.6" __comx="44.942" __comy="42.788" __timestamp="0x17803966d11" d="M46.716 44.288 l-0.367 -1.681 -0.003 -0.029 -0.9 -0.024 -0.505 1.1 0.117 -0.189 -0.02 -0.023 -0.11 -0.169 0.103 -0.976 0.501 -0.679 0.074 -0.006 0.265 0.381 -0.008 1.328 -0.612 1.198 -0.497 0.252 -0.36 -0.113 -0.275 -0.51 0.072 -1.029 0.57 -0.916 0.308 -0.072 0.432 0.371 0.433 1.548 -0.189 1.862 -0.437 0.727 -0.668 0.266 -0.487 -0.188 -0.318 -0.554 0.134 -0.821 0.654 -0.722 0.916 -0.301 0.38 0.155 -0.015 -0.04 -0.052 0.05 -0.835 0.076 -2.25 -0.207 -0.124 0.36 2.137 1.301 1.721 0.055 1.211 -1.173 -0.503 -1.615 -1.617 -0.643 -1.858 0.606 -1.258 1.373 -0.304 1.846 0.886 1.536 1.601 0.605 1.725 -0.712 0.881 -1.479 0.246 -2.505 -0.653 -2.278 -1.377 -1.176 -1.691 0.384 -1.119 1.786 -0.131 1.866 0.794 1.458 1.569 0.487 1.501 -0.789 0.958 -1.983 -0.032 -2.154 -1.067 -1.442 -1.53 0.21 -1.082 1.498 -0.167 1.954 1.179 1.344 1.269 -0.589 0.187 -0.297 0.221 -1.374 -0.9 -0.024 0.019 0.064 0.705 1.611" />
  </g>
</svg>
