<svg class="write-page" color-interpolation="linearRGB" width="1010px" height="1628px" xmlns="http://www.w3.org/2000/svg" xmlns:xlink="http://www.w3.org/1999/xlink">
  <g class="write-content write-v3" width="1010" height="1628" xruling="30" yruling="30" marginLeft="30" papercolor="#1B1C1C" rulecolor="#3A00F9FF">
    <g class="ruleline write-std-ruling write-scale-down" fill="none" stroke="#00F9FF" stroke-opacity="0.227" stroke-width="1" shape-rendering="crispEdges" vector-effect="non-scaling-stroke">
      <rect class="pagerect" fill="#1B1C1C" stroke="none" x="0" y="0" width="1010" height="1628" />
      <path class="yrule_1" d="M0 30 l1010 0" />
      <path d="M0 60 l1010 0" />
      <path d="M0 90 l1010 0" />
      <path d="M0 120 l1010 0" />
      <path d="M0 150 l1010 0" />
      <path d="M0 180 l1010 0" />
      <path d="M0 210 l1010 0" />
      <path d="M0 240 l1010 0" />
      <path d="M0 270 l1010 0" />
      <path d="M0 300 l1010 0" />
      <path d="M0 330 l1010 0" />
      <path d="M0 360 l1010 0" />
      <path d="M0 390 l1010 0" />
      <path d="M0 420 l1010 0" />
      <path d="M0 450 l1010 0" />
      <path d="M0 480 l1010 0" />
      <path d="M0 510 l1010 0" />
      <path d="M0 540 l1010 0" />
      <path d="M0 570 l1010 0" />
      <path d="M0 600 l1010 0" />
      <path d="M0 630 l1010 0" />
      <path d="M0 660 l1010 0" />
      <path d="M0 690 l1010 0" />
      <path d="M0 720 l1010 0" />
      <path d="M0 750 l1010 0" />
      <path d="M0 780 l1010 0" />
      <path d="M0 810 l1010 0" />
      <path d="M0 840 l1010 0" />
      <path d="M0 870 l1010 0" />
      <path d="M0 900 l1010 0" />
      <path d="M0 930 l1010 0" />
      <path d="M0 960 l1010 0" />
      <path d="M0 990 l1010 0" />
      <path d="M0 1020 l1010 0" />
      <path d="M0 1050 l1010 0" />
      <path d="M0 1080 l1010 0" />
      <path d="M0 1110 l1010 0" />
      <path d="M0 1140 l1010 0" />
      <path d="M0 1170 l1010 0" />
      <path d="M0 1200 l1010 0" />
      <path d="M0 1230 l1010 0" />
      <path d="M0 1260 l1010 0" />
      <path d="M0 1290 l1010 0" />
      <path d="M0 1320 l1010 0" />
      <path d="M0 1350 l1010 0" />
      <path d="M0 1380 l1010 0" />
      <path d="M0 1410 l1010 0" />
      <path d="M0 1440 l1010 0" />
      <path d="M0 1470 l1010 0" />
      <path d="M0 1500 l1010 0" />
      <path d="M0 1530 l1010 0" />
      <path d="M0 1560 l1010 0" />
      <path d="M0 1590 l1010 0" />
      <path d="M0 1620 l1010 0" />
      <path class="xrule_1" d="M30 0 l0 1628" />
      <path d="M60 0 l0 1628" />
      <path d="M90 0 l0 1628" />
      <path d="M120 0 l0 1628" />
      <path d="M150 0 l0 1628" />
      <path d="M180 0 l0 1628" />
      <path d="M210 0 l0 1628" />
      <path d="M240 0 l0 1628" />
      <path d="M270 0 l0 1628" />
      <path d="M300 0 l0 1628" />
      <path d="M330 0 l0 1628" />
      <path d="M360 0 l0 1628" />
      <path d="M390 0 l0 1628" />
      <path d="M420 0 l0 1628" />
      <path d="M450 0 l0 1628" />
      <path d="M480 0 l0 1628" />
      <path d="M510 0 l0 1628" />
      <path d="M540 0 l0 1628" />
      <path d="M570 0 l0 1628" />
      <path d="M600 0 l0 1628" />
      <path d="M630 0 l0 1628" />
      <path d="M660 0 l0 1628" />
      <path d="M690 0 l0 1628" />
      <path d="M720 0 l0 1628" />
      <path d="M750 0 l0 1628" />
      <path d="M780 0 l0 1628" />
      <path d="M810 0 l0 1628" />
      <path d="M840 0 l0 1628" />
      <path d="M870 0 l0 1628" />
      <path d="M900 0 l0 1628" />
      <path d="M930 0 l0 1628" />
      <path d="M960 0 l0 1628" />
      <path d="M990 0 l0 1628" />
      <path class="leftmargin" stroke="#FF0000" d="M30 0 l0 1628" />
    </g>
    <path class="write-flat-pen" fill="#FFFFFF" stroke-width="1.6" __comx="43.277" __comy="22.237" __timestamp="0x17803a76abf" d="M41.441 8.851 l-0.253 1.405 -0.001 0.45 2.42 15.565 1.481 1.829 0.277 -0.141 -0.513 -2.092 -2.482 -15.282 -0.036 -0.308 -0.025 -1.354" />
    <path class="write-flat-pen" fill="#FFFFFF" stroke-width="1.6" __comx="49.917" __comy="22.237" __timestamp="0x17803a76c7b" d="M42.745 13.154 l-0.55 -0.579 0.132 0.268 0.899 -1.446 0.442 -0.307 1.985 -0.924 2.555 -0.476 2.257 0.196 2.213 0.727 1.909 1.181 1.434 1.578 0.738 1.488 0.47 2.511 -0.327 2.926 -0.99 2.97 -1.475 2.577 -1.73 1.814 -1.694 0.919 -1.327 0.246 -0.804 -0.2 -0.531 -0.517 -0.11 -0.617 0.004 -0.021 0.6 -2.397 -1.455 -0.372 -0.623 2.391 -0.087 0.337 0.242 1.43 1.184 1.158 1.534 0.382 1.894 -0.354 2.118 -1.154 2.015 -2.132 1.627 -2.875 1.074 -3.267 0.347 -3.303 -0.564 -2.919 -0.921 -1.846 -1.709 -1.874 -2.227 -1.377 -2.536 -0.834 -2.622 -0.222 -2.927 0.568 -2.246 1.102 -0.78 0.589 -1.061 2.303 0.214 0.455 0.93 0.536" />
    <path class="write-flat-pen" fill="#FFFFFF" stroke-width="1.6" __comx="65.458" __comy="22.237" __timestamp="0x17803a76e2f" d="M60.211 26.009 l0.686 -0.618 0.15 -0.05 4.099 -2.066 0.346 -0.256 1.349 -1.381 0.593 -1.605 -0.617 -1.227 -1.366 -0.439 -1.673 0.669 -1.506 1.69 -0.933 2.014 -0.168 2.054 0.631 2.037 1.412 1.454 1.814 0.662 3.523 -0.648 0.42 -0.251 2.33 -1.447 -0.147 -0.341 -2.652 0.698 -0.315 0.065 -2.997 0.338 -1.108 -0.415 -0.914 -0.931 -0.443 -1.398 0.107 -1.492 0.705 -1.58 1.11 -1.281 0.862 -0.355 0.296 0.089 0.075 0.132 -0.259 0.752 -1.039 1.115 -0.172 0.136 -3.858 2.251 -0.309 0.176 -0.625 0.954" />
    <path class="write-flat-pen" fill="#FFFFFF" stroke-width="1.6" __comx="80.813" __comy="22.237" __timestamp="0x17803a76fd2" d="M76.697 27.173 l-0.386 0.839 -0.019 0.04 -0.003 0.012 0.787 -0.145 0.185 0.054 0.022 -0.002 0.266 -4.791 -1.417 -9.945 0.059 -1.941 0.521 -0.695 0.96 -0.47 1.537 -0.125 2.216 0.46 2.891 1.201 2.435 1.155 0.208 -0.303 -2.036 -1.915 -3.021 -1.563 -2.595 -0.568 -2.049 0.168 -1.545 0.77 -1.006 1.379 -0.041 2.537 1.493 9.933 -0.039 4.639 -0.013 0.37 0.244 0.141 0.787 -0.145 -0.003 0.012 0.001 -0.044 0.121 -0.892" />
    <path class="write-flat-pen" fill="#FFFFFF" stroke-width="1.6" __comx="78.283" __comy="22.237" __timestamp="0x17803a770be" d="M71.485 20.878 l0.925 -0.197 0.151 -0.013 10.042 -1.84 2.781 -0.653 -0.029 -0.305 -2.899 -0.118 -10.126 1.753 -0.241 0.072 -0.908 0.473" />
    <path class="write-flat-pen" fill="#FFFFFF" stroke-width="1.6" __comx="92.332" __comy="22.237" __timestamp="0x17803a77283" d="M95.152 17.088 l-1.018 -1.551 -0.244 -0.171 -1.13 -0.435 -1.481 0.283 -1.177 0.979 -0.581 1.563 0.483 1.343 1.677 1.123 4.189 1.503 0.993 0.773 0.123 0.438 -0.266 0.716 -1.142 0.934 -2.874 1.046 -3.616 0.722 -2.774 0.607 0.028 0.304 2.873 0.091 3.81 -0.482 3.204 -1.138 1.588 -1.302 0.531 -1.444 -0.354 -1.254 -1.495 -1.158 -4.242 -1.507 -1.214 -0.793 -0.202 -0.526 0.289 -0.849 0.682 -0.609 0.875 -0.217 0.739 0.219 0.002 -0.007 1.127 1.254" />
    <path class="write-flat-pen" fill="#FFFFFF" stroke-width="1.6" __comx="74.409" __comy="22.237" __timestamp="0x17803a773e9" d="M44.028 34.361 l-0.95 -0.197 -0.18 0.281 0.238 0.65 1.155 0.605 1.031 0.289 5.738 0.869 10.888 0.312 36.69 -2.594 1.719 -0.03 1.618 -0.029 1.541 -0.011 2.382 -0.004 0.022 -0.279 -2.352 -0.375 -1.546 -0.253 -1.651 -0.1 -1.768 -0.044 -36.682 2.314 -10.745 -0.283 -5.614 -0.725 -0.901 -0.191 -1.172 -0.339 0.238 0.65 -0.139 0.203 0.394 -0.098" />
    <path class="write-flat-pen" fill="#FFFFFF" stroke-width="1.6" __comx="69.381" __comy="80.61" __timestamp="0x17803a778b8" d="M68.792 78.103 l0.386 -0.609 -0.04 0.06 0.358 -0.196 0.001 0.062 -0.027 0.18 -0.313 0.414 -0.604 0.247 0.228 0.089 0.012 -0.015 0.749 -0.737 0.663 -0.237 -0.232 -0.155 -0.034 0.158 -0.355 0.259 1.145 0.371 -0.138 -0.193 0.099 -1.033 -0.276 -0.18 -1.231 1.002 0.15 0.807 1.145 0.371 0.794 -0.638 0.204 -1.589 -1.066 -0.729 -1.627 0.571 -1.312 1.294 -0.185 1.494 1.265 0.571 1.479 -0.717 0.71 -1.153 -0.263 -1.323 -1.189 -0.273 -0.759 0.66 -0.096 0.131 -0.175 0.827" />
    <path class="write-flat-pen" fill="#FFFFFF" stroke-width="1.6" __comx="92.52" __comy="80.61" __timestamp="0x17803a77b76" d="M91.258 67.154 l0.481 2.11 0.121 0.421 0.701 3.758 0.104 4.19 -0.511 3.884 -0.963 3.374 0 0 1.204 0.105 -0.205 -0.806 0.009 -0.402 0.127 -1.824 -0.202 -0.049 -0.722 1.679 -0.217 0.528 -0.015 1.002 1.204 0.105 0 0 0.994 -3.463 0.502 -4.077 -0.179 -4.381 -0.881 -3.877 -0.164 -0.45 -0.736 -2.021" />
    <path class="write-flat-pen" fill="#FFFFFF" stroke-width="1.6" __comx="98.587" __comy="80.61" __timestamp="0x17803a77c7d" d="M92.244 70.43 l-0.093 -1.104 -0.149 0.191 1.029 -0.358 10.348 -0.659 2.805 -0.717 -0.065 -0.42 -2.842 0.155 -10.514 0.441 -1.422 0.636 -0.352 0.426 0.452 1.571" />
    <path class="write-flat-pen" fill="#FFFFFF" stroke-width="1.6" __comx="100.631" __comy="80.61" __timestamp="0x17803a77d8e" d="M92.883 76.667 l1.012 0.018 0.237 0.008 11.468 0.404 2.84 -0.524 -0.02 -0.274 -2.838 -0.111 -11.458 -0.368 -0.295 0.035 -1.009 0.233" />
    <path class="write-flat-pen" fill="#FFFFFF" stroke-width="1.6" __comx="99.297" __comy="80.61" __timestamp="0x17803a77fbc" d="M90.135 84.196 l0.147 1.127 0.36 0.282 1.989 0.8 3.613 0.377 8.862 -0.959 0.677 -0.157 2.675 -0.612 -0.023 -0.207 -2.744 -0.001 -0.686 -0.004 -8.76 0.689 -3.352 -0.282 -1.753 -0.572 0.037 0.044 -0.318 -0.709" />
    <path class="write-flat-pen" fill="#FFFFFF" stroke-width="1.6" __comx="116.167" __comy="80.61" __timestamp="0x17803a7810d" d="M109.538 76.893 l1.931 1.927 0.336 0.358 8.356 6.813 2.513 1.392 0.123 -0.161 -1.985 -2.053 -8.27 -6.795 -0.331 -0.324 -2.138 -1.749" />
    <path class="write-flat-pen" fill="#FFFFFF" stroke-width="1.6" __comx="116.843" __comy="80.61" __timestamp="0x17803a781cb" d="M112.703 87.568 l0.655 -1.806 7.106 -9.328 1.471 -2.368 -0.246 -0.194 -1.961 1.986 -7.406 9.359 -0.569 2.049" />
    <path class="write-flat-pen" fill="#FFFFFF" stroke-width="1.6" __comx="131.126" __comy="80.61" __timestamp="0x17803a7835f" d="M131.918 77.464 l0.072 -1.576 -0.238 -0.337 -1.066 -0.44 -1.955 0.628 -1.413 1.245 -1.173 2.001 -0.552 2.348 0.124 2.037 0.858 2.003 1.464 1.238 2.173 0.565 3.833 -1.047 0.417 -0.3 2.198 -1.619 -0.173 -0.303 -2.514 1.065 -0.337 0.129 -3.41 0.713 -1.551 -0.423 -0.992 -0.839 -0.651 -1.499 -0.117 -1.616 0.434 -1.984 0.942 -1.688 1.058 -0.991 1.338 -0.528 0.477 0.106 -0.091 -0.14 0.18 1.276" />
    <path class="write-flat-pen" fill="#FFFFFF" stroke-width="1.6" __comx="139.958" __comy="80.61" __timestamp="0x17803a784f2" d="M135.331 82.606 l1.526 -0.007 0.291 -0.057 2.304 -0.732 1.501 -1.08 0.776 -1.345 -0.178 -1.302 -1.089 -0.902 -1.554 -0.28 -1.68 0.544 -1.339 1.372 -0.822 1.892 -0.188 2.386 0.523 2.123 1.032 1.599 1.661 1.095 1.947 0.107 2.686 -1.45 0.417 -0.438 0.323 -0.418 1.569 -2.037 -0.072 -0.076 -2.114 1.463 -0.413 0.281 -0.367 0.229 -2.315 1.041 -1.201 -0.083 -1.104 -0.725 -0.756 -1.153 -0.436 -1.681 0.114 -1.952 0.602 -1.49 0.935 -1.003 1.087 -0.367 0.937 0.163 0.481 0.395 0.063 0.427 -0.433 0.778 -1.133 0.861 -2.049 0.78 -0.169 0.052 -1.431 0.275" />
    <path class="write-flat-pen" fill="#FFFFFF" stroke-width="1.6" __comx="150.172" __comy="80.61" __timestamp="0x17803a788b7" d="M147.33 99.766 l0.086 0.232 0.538 1.602 0.563 0.282 0 0 0.49 -0.376 -0.229 -3.37 -0.115 -0.502 -1.363 -6.891 -0.444 -4.533 0.225 -2.65 0.616 -1.682 0.747 -0.829 1.246 -0.6 1.74 -0.169 0.998 0.275 0.644 0.586 0.315 0.963 -0.186 1.281 -0.664 1.173 -1.235 1.053 -0.701 0.241 -0.293 -0.062 -0.504 -0.966 -0.249 0.027 -0.238 1.481 1.022 0.996 1.63 -0.544 1.603 -1.376 0.896 -1.592 0.264 -1.829 -0.518 -1.584 -1.131 -1.032 -1.536 -0.425 -2.217 0.215 -1.69 0.819 -1.083 1.218 -0.737 2.091 -0.206 2.937 0.53 4.698 1.539 6.934 0.124 0.449 0.48 3.274 0.49 -0.376 0 0 -0.354 -0.069 -0.541 -1.311 -0.086 -0.232" />
    <path class="write-flat-pen" fill="#FFFFFF" stroke-width="1.6" __comx="161.188" __comy="80.61" __timestamp="0x17803a789df" d="M159.695 70.86 l0.959 4.575 0.18 0.738 0.671 4.246 0.223 7.832 0.393 0.944 0.148 0.001 0.411 -0.949 -0.028 -7.933 -0.764 -4.366 -0.21 -0.77 -1.224 -4.502" />
    <path class="write-flat-pen" fill="#FFFFFF" stroke-width="1.6" __comx="164.366" __comy="80.61" __timestamp="0x17803a78aa9" d="M157.097 81.048 l3.57 0.289 7.761 -0.948 0.502 -0.126 2.705 -0.666 -0.022 -0.187 -2.785 -0.008 -0.512 -0.004 -7.683 0.729 -3.486 -0.066" />
    <path class="write-flat-pen" fill="#FFFFFF" stroke-width="1.6" __comx="172.993" __comy="80.61" __timestamp="0x17803a78b88" d="M172.612 81.718 l-0.417 2.238 -0.014 0.352 0.615 2.413 0.99 -0.201 0.021 -0.123 -0.295 -0.422 -0.279 -1.769 -0.005 -0.178 0.136 -2.218" />
    <path class="write-flat-pen" fill="#FFFFFF" stroke-width="1.6" __comx="175.317" __comy="80.61" __timestamp="0x17803a78c13" d="M175.391 74.666 l-0.764 1.93 0.022 2.199 0.222 0.028 0.555 -2.039 0.58 -1.903" />
    <path class="write-flat-pen" fill="#FFFFFF" stroke-width="1.6" __comx="180.636" __comy="80.61" __timestamp="0x17803a78d90" d="M182.359 81.872 l-2.271 -1.742 -0.423 -0.111 -1.462 -0.018 -1.46 0.853 -0.843 1.448 -0.131 1.613 0.549 1.546 1.218 1.293 1.611 0.73 1.971 0.047 2.14 -0.782 1.459 -1.374 0.786 -1.701 -0.101 -1.606 -0.903 -1.414 -1.567 -0.29 -0.604 0.992 0.057 0.087 0.738 0.108 0.511 0.271 0.409 0.681 0.05 0.905 -0.527 1.139 -1.054 0.997 -1.624 0.601 -1.431 -0.028 -1.116 -0.496 -0.85 -0.882 -0.373 -1.007 0.067 -1.035 0.508 -0.909 0.858 -0.528 0.967 -0.021 0.064 0.01 2.242 1.394" />
    <path class="write-flat-pen" fill="#FFFFFF" stroke-width="1.6" __comx="190.811" __comy="80.61" __timestamp="0x17803a78f10" d="M186.82 80.37 l-0.52 -0.243 -0.097 0.435 -0.004 0.176 0.035 1.899 0.019 0.414 0.245 3.806 0.487 0.893 0 0 1.066 0.152 0.817 -0.743 2.128 -4.301 1.111 -1.435 0.486 -0.171 0.464 0.201 0.568 0.955 0.628 3.784 0.833 0.435 0.193 -0.115 0.142 -0.727 -0.409 -3.864 -0.966 -1.6 -1.401 -0.6 -1.409 0.495 -1.458 1.881 -2.069 4.206 -0.603 0.597 1.066 0.152 0 0 -0.394 -0.608 -0.417 -3.493 -0.052 -0.41 -0.297 -1.886 -0.041 -0.163 -0.153 -0.401 -0.52 0.278" />
    <path class="write-flat-pen" fill="#FFFFFF" stroke-width="1.6" __comx="200.786" __comy="80.61" __timestamp="0x17803a790db" d="M203.326 82.776 l-1.551 -1.718 -0.399 -0.18 -2.061 -0.574 -1.462 0.217 -1.276 1.104 -0.716 1.888 0.114 1.784 0.853 1.383 1.441 0.514 1.52 -0.606 1.469 -1.509 -0.002 0.019 1.158 2.791 1.511 1.076 0.388 -0.084 1.399 -0.574 -0.009 -0.116 -1.471 -0.353 0.067 -0.059 -0.726 -0.763 -1.501 -3.364 -1.424 0.213 -1.589 1.615 -0.805 0.294 -0.525 -0.201 -0.427 -0.699 -0.076 -1.159 0.484 -1.306 0.723 -0.644 0.812 -0.135 1.724 0.424 0.108 0.039 1.582 1.359" />
    <path class="write-flat-pen" fill="#FFFFFF" stroke-width="1.6" __comx="209.646" __comy="80.61" __timestamp="0x17803a791bc" d="M209.764 68.368 l-0.379 2.066 -0.074 0.516 -0.675 12.253 0.905 2.746 0.338 -0.048 0.117 -2.761 0.497 -12.098 0.031 -0.476 0.133 -2.086" />
    <path class="write-flat-pen" fill="#FFFFFF" stroke-width="1.6" __comx="244.537" __comy="80.61" __timestamp="0x17803a7978f" d="M240.048 76.116 l-0.77 -0.872 -0.192 -0.132 -3.106 -0.876 -0.338 0.035 -1.058 0.393 -0.573 1.174 1.052 1.452 3.518 2.655 1.292 1.514 0.651 1.797 -0.055 1.891 -0.786 2.126 -0.952 1.173 -1.258 0.697 -1.258 0.154 -0.783 -0.268 -0.656 -0.762 -0.102 -1.034 0.482 -1.345 1.16 -1.398 1.793 -1.15 2.772 -0.955 3.512 -0.55 3.965 0.065 1.377 -0.48 0.791 -1.229 -0.664 -1.289 -1.282 -0.458 -1.393 0.514 -1.224 1.431 -0.819 2.521 0.236 2.329 0.871 1.574 1.582 1.098 2.118 0.364 3.167 -0.992 0.448 -0.328 0.354 -0.345 1.891 -1.842 -0.125 -0.173 -2.347 1.208 -0.408 0.203 -0.311 0.144 -2.74 0.66 -1.479 -0.275 -1.042 -0.725 -0.569 -1.017 -0.194 -1.735 0.615 -1.979 0.795 -0.961 0.59 -0.234 0.323 0.107 0.08 0.137 -0.125 0.213 -0.727 0.267 -3.841 -0.068 -3.739 0.555 -3.047 1.016 -2.12 1.338 -1.464 1.742 -0.675 1.872 0.186 1.785 1.201 1.364 1.435 0.469 1.82 -0.249 1.69 -0.973 1.217 -1.552 0.892 -2.524 0.044 -2.323 -0.813 -2.216 -1.524 -1.779 -3.502 -2.61 -0.574 -0.744 0.06 -0.179 0.507 -0.223 0.017 -0.007 2.871 0.535 0.043 0.012 0.903 0.621" />
    <path class="write-flat-pen" fill="#FFFFFF" stroke-width="1.6" __comx="260.712" __comy="80.61" __timestamp="0x17803a79887" d="M259.697 69.749 l0.143 0.724 0.001 0.159 0.183 3.336 0.027 0.718 0.485 12.874 1.036 2.153 0.154 -0.037 -0.029 -2.275 -0.445 -12.77 -0.056 -0.751 -0.461 -3.354 -0.06 -0.265 -0.398 -0.727" />
    <path class="write-flat-pen" fill="#FFFFFF" stroke-width="1.6" __comx="260.257" __comy="80.61" __timestamp="0x17803a79946" d="M255.238 80.48 l7.734 -2.056 2.569 -1.092 -0.052 -0.193 -2.768 0.338 -7.75 1.982" />
    <path class="write-flat-pen" fill="#FFFFFF" stroke-width="1.6" __comx="117.318" __comy="130.711" __timestamp="0x17803a7b35d" d="M106.521 128.64 l0.401 -0.494 -0.772 -0.031 -0.021 -0.014 -0.015 1.684 -0.026 0.494 -0.999 10.88 0.199 3.1 0.708 1.228 1.377 0.694 1.728 -0.276 2.194 -1.47 3.789 -4.548 0.376 -0.225 0.351 0.253 2.164 3.491 1.604 1.678 1.988 1.043 1.908 0.205 1.715 -0.502 1.563 -1.229 1.33 -2.015 1.019 -3.129 0.444 -4.014 -0.355 -3.255 -0.878 -2.764 -1.24 -1.924 -1.662 -0.94 -1.487 1.572 -0.032 0.426 0.028 1.919 0.249 0.052 0.79 -1.749 0.063 -0.029 0.594 -0.361 0.376 0.24 0.928 1.448 0.773 2.427 0.329 2.939 -0.398 3.696 -0.903 2.792 -1.081 1.65 -1.144 0.91 -1.159 0.347 -1.343 -0.135 -1.539 -0.793 -1.35 -1.387 -2.25 -3.583 -1.319 -0.956 -1.378 0.817 -3.812 4.583 -1.769 1.197 -0.985 0.164 -0.614 -0.302 -0.348 -0.593 -0.185 -2.679 0.824 -10.832 -0.006 -0.586 -0.273 -1.852 -0.056 -0.102 -0.772 -0.031 -0.151 0.618" />
    <path class="write-flat-pen" fill="#FFFFFF" stroke-width="1.6" __comx="140.613" __comy="132.505" __timestamp="0x17803a7b600" d="M128.724 127.66 l0.649 3.782 0.151 0.693 0.951 4.956 0.586 6.647 0 0 -0.255 3.678 0 0 1.353 0.081 0.099 -1.631 1.096 -3.399 1.439 -2.813 1.141 -1.217 0.383 -0.079 0.477 0.262 2.592 5.779 1.324 1.777 1.487 0.812 1.789 0.07 1.912 -0.786 1.655 -1.502 1.159 -1.879 0.747 -2.671 -0.153 -2.061 -0.883 -1.238 -1.437 -0.184 -1.13 1.027 -0.831 2.15 -0.39 3.064 0.261 2.673 0.869 2.264 1.201 1.216 1.61 0.516 2.291 -1.23 0.217 -0.273 0.167 -0.27 1.252 -2.025 -0.113 -0.1 -1.867 1.477 -0.239 0.185 -0.103 0.065 -1.701 0.672 -0.742 -0.261 -0.749 -0.761 -0.699 -1.806 -0.241 -2.325 0.327 -2.743 0.643 -1.692 0.419 -0.381 0.211 0.029 0.307 0.437 0.103 1.435 -0.632 2.248 -0.956 1.544 -1.329 1.206 -1.407 0.581 -1.163 -0.04 -0.942 -0.507 -1.065 -1.41 -2.761 -6.013 -1.271 -0.707 -1.266 0.245 -1.576 1.646 -1.594 3.072 -1.195 3.668 -0.096 1.808 1.353 0.081 0 0 0.21 -3.782 0 0 -0.648 -6.809 -1.045 -5.025 -0.173 -0.693 -0.918 -3.712" />
    <path class="write-flat-pen" fill="#FFFFFF" stroke-width="1.6" __comx="157.949" __comy="141.466" __timestamp="0x17803a7b780" d="M153.222 140.489 l-0.107 1.462 -0.007 0.288 -0.039 3.428 0.001 0.382 0 0 0.093 1.95 0 0 1.236 0.227 1.81 -3.879 1.678 -2.4 1.045 -0.825 0.63 -0.106 0.545 0.271 0.677 0.977 0.558 2.2 0.239 3.217 0.421 2.004 0.192 0.01 0.637 -2.014 -0.119 -3.429 -0.674 -2.568 -1.033 -1.456 -1.252 -0.595 -1.379 0.248 -1.455 1.155 -1.851 2.654 -1.846 3.989 1.236 0.227 0 0 -0.186 -1.915 0 0 -0.017 -0.354 -0.226 -3.426 -0.028 -0.283 -0.162 -1.449" />
    <path class="write-flat-pen" fill="#FFFFFF" stroke-width="1.6" __comx="200.759" __comy="128.702" __timestamp="0x17803a7c179" d="M200.657 126.349 l0.666 -0.489 0.035 -0.023 0.056 -0.056 0.179 -0.177 -0.716 -0.472 -0.132 0.078 -1.227 1.562 -0.307 0.565 -1.447 3.574 -0.922 4.299 -0.214 4.367 0.537 3.218 1.176 3.054 1.366 1.899 2.059 1.46 0.473 0.148 2.556 0.764 0.095 -0.209 -2.254 -1.428 -0.308 -0.208 -1.677 -1.43 -1.112 -1.634 -1.051 -2.776 -0.489 -2.939 0.195 -4.112 0.845 -4.092 1.294 -3.449 0.216 -0.455 0.896 -1.527 -0.004 -0.025 -0.716 -0.472 0.106 0.082 0.056 -0.056 -0.017 0.03 -0.47 0.683" />
    <path class="write-flat-pen" fill="#FFFFFF" stroke-width="1.6" __comx="216.281" __comy="143.376" __timestamp="0x17803a7c99d" d="M208.547 159.055 l-0.276 1.13 0.066 0.16 0.698 0.031 0.613 -0.714 0.166 -0.4 2.853 -12.557 0.032 -0.368 0.44 -3.552 0.704 -2.067 1.074 -1.623 1.442 -1.075 1.86 -0.629 2.209 -0.106 1.163 0.358 0.851 0.783 0.356 1.058 -0.196 1.554 -0.726 1.552 -1.112 1.204 -1.557 0.88 -2.267 0.507 -1.003 -0.122 -0.421 -0.426 -0.276 0.848 0.092 -0.094 0.872 -0.853 -0.058 -0.141 -1.219 0.008 -0.132 -0.002 -0.276 0.848 0.552 1.158 1.939 0.245 2.723 -0.606 1.944 -1.095 1.425 -1.534 0.921 -1.966 0.269 -2.114 -0.581 -1.732 -1.371 -1.264 -1.726 -0.532 -2.67 0.132 -2.274 0.771 -1.829 1.373 -1.304 2 -0.787 2.39 -0.42 3.726 -0.023 0.303 -2.546 12.451 -0.068 0.229 -0.337 0.754 0.698 0.031 0.02 0.074 -0.003 -0.918" />
    <path class="write-flat-pen" fill="#FFFFFF" stroke-width="1.6" __comx="229.048" __comy="143.376" __timestamp="0x17803a7cc00" d="M220.79 154.34 l0.792 0.519 0.324 0.028 1.829 -0.402 2.321 -1.378 2.301 -2.208 1.997 -2.856 1.294 -2.861 -0.328 -1.454 -1.232 -0.397 -1.502 1.024 -1.613 2.514 -0.807 2.508 -0.067 2.037 0.731 1.871 1.546 1.289 1.836 0.446 2.37 -0.358 2.425 -1.296 0.288 -0.262 2.012 -1.875 -0.107 -0.16 -2.498 1.151 -0.28 0.119 -2.257 0.937 -1.878 0.238 -1.225 -0.303 -0.995 -0.823 -0.493 -1.234 0.036 -1.534 0.667 -2.145 1.339 -2.13 0.7 -0.492 -0.157 -0.056 0.061 0.242 -1.042 2.338 -1.83 2.667 -2.074 2.06 -2.007 1.298 -1.473 0.488 0.021 0.016 -0.728 -0.199" />
    <path class="write-flat-pen" fill="#FFFFFF" stroke-width="1.6" __comx="242.156" __comy="143.376" __timestamp="0x17803a7cd7a" d="M239.515 126.266 l1.589 2.562 0.289 0.441 2.147 3.706 1.141 2.889 0.582 3.35 -0.034 2.644 -0.69 3.462 -1.226 3.023 -3.261 3.927 -0.269 0.267 -2.022 1.905 0.153 0.21 2.433 -1.342 0.436 -0.246 3.643 -4.038 1.366 -3.33 0.736 -3.703 0.028 -2.885 -0.643 -3.596 -1.26 -3.089 -2.328 -3.756 -0.333 -0.452 -1.813 -2.404" />
    <path class="write-flat-pen" fill="#FFFFFF" stroke-width="1.6" __comx="269.07" __comy="143.376" __timestamp="0x17803a7cfb1" d="M269.689 140.265 l-0.853 -0.393 0.007 1.789 0.003 0.377 -0.479 6.084 -0.224 2.028 0.19 0.066 1.14 -1.86 0.523 -6.296 -0.032 -0.468 -0.277 -1.789 -0.853 0.461" />
    <path class="write-flat-pen" fill="#FFFFFF" stroke-width="1.6" __comx="273.03" __comy="143.376" __timestamp="0x17803a7d064" d="M273.511 131.972 l-1.207 0.914 -0.271 1.713 0.186 0.066 0.781 -1.263 1.026 -0.73" />
    <path class="write-flat-pen" fill="#FFFFFF" stroke-width="1.6" __comx="281.846" __comy="143.376" __timestamp="0x17803a7d1f1" d="M282.815 136.365 l-1.943 -0.883 -1.319 0.145 -0.951 0.929 -0.162 1.477 0.76 1.618 4.442 4.04 1.016 1.462 0.25 1.071 -0.285 0.952 -0.851 0.664 -1.672 0.358 -1.928 -0.246 -1.335 -0.534 -1.223 -0.398 -0.18 0.215 0.733 1.236 1.612 0.844 2.387 0.294 2.215 -0.495 1.426 -1.158 0.452 -1.718 -0.434 -1.623 -1.258 -1.744 -4.377 -3.953 -0.522 -1.093 0.069 -0.726 0.355 -0.373 0.628 -0.102 1.724 0.639" />
    <path class="write-flat-pen" fill="#FFFFFF" stroke-width="1.6" __comx="323.893" __comy="143.143" __timestamp="0x17803a7e306" d="M324.176 140.678 l1.171 -1.319 0.069 -0.2 -0.165 -1.18 -0.273 -0.254 -1.304 -0.41 -2.259 0.524 -1.855 1.087 -1.906 2.049 -1.062 1.961 -0.385 2.015 0.393 1.739 1.095 1.395 1.819 0.833 1.777 0.071 2.258 -0.704 2.061 -1.448 1.982 -2.373 1.012 -2.108 0.161 -1.64 -0.666 -1.164 -1.351 -0.23 -1.013 1.259 -0.222 1.846 0.618 2.152 2.505 2.821 0.371 0.16 2.451 0.972 0.117 -0.201 -2.062 -1.644 -0.157 -0.146 -2.046 -2.59 -0.459 -1.629 0.15 -1.206 0.29 -0.359 -0.03 -0.005 0.146 0.254 -0.097 0.986 -0.843 1.744 -1.771 2.103 -1.748 1.223 -1.836 0.575 -1.283 -0.047 -1.291 -0.582 -0.72 -0.903 -0.278 -1.183 0.283 -1.555 0.876 -1.651 1.655 -1.817 1.529 -0.943 1.793 -0.521 0.856 0.137 -0.093 -0.097 0.301 0.668 0.032 -0.077 -0.888 1.391" />
    <path class="write-flat-pen" fill="#FFFFFF" stroke-width="1.6" __comx="353.253" __comy="143.143" __timestamp="0x17803a7e553" d="M356.425 141.392 l0.464 -1.181 0.057 -0.221 -0.241 -2.049 -0.43 -0.379 -1.719 -0.492 -2.244 0.39 -2.086 1.151 -1.735 1.846 -0.99 2.117 -0.308 2.264 0.334 1.797 1.072 1.943 1.446 1.12 2.07 0.658 4.178 -0.599 0.635 -0.321 2.389 -1.224 -0.103 -0.278 -2.611 0.621 -0.567 0.122 -3.781 0.309 -1.55 -0.526 -1.024 -0.805 -0.827 -1.496 -0.256 -1.358 0.241 -1.839 0.795 -1.74 1.425 -1.558 1.7 -0.985 1.761 -0.371 1.243 0.255 -0.038 -0.051 0.413 1.471 0.002 0.051 -0.187 1.23" />
    <path class="write-flat-pen" fill="#FFFFFF" stroke-width="1.6" __comx="362.454" __comy="143.143" __timestamp="0x17803a7e71b" d="M363.684 142.113 l0.719 -1.931 -0.227 -0.532 -1.307 -0.232 -1.904 0.823 -1.893 1.632 -1.432 2.092 -0.584 1.907 0.158 1.631 0.931 1.481 1.386 0.774 2.368 -0.052 2.42 -1.112 1.853 -1.629 1.106 -1.741 0.576 -2.28 -0.539 -1.79 -1.388 -1.236 -1.682 -0.466 -1.476 0.388 -0.793 1.194 -0.014 0.301 0.101 1.788 0.178 0.034 0.755 -1.624 0.047 -0.019 0.497 -0.484 0.675 -0.133 1.007 0.299 0.839 0.756 0.31 1.027 -0.422 1.675 -0.873 1.377 -1.541 1.363 -1.963 0.908 -1.694 0.043 -0.745 -0.41 -0.576 -0.898 -0.114 -1.035 0.42 -1.461 1.186 -1.812 1.591 -1.445 1.403 -0.68 0.418 0.001 -0.146 -0.351 -0.35 1.646" />
    <path class="write-flat-pen" fill="#FFFFFF" stroke-width="1.6" __comx="375.271" __comy="143.143" __timestamp="0x17803a7e96d" d="M368.967 141.113 l-0.443 3.148 -0.041 0.368 0 0 -0.238 3.797 0 0 1.347 0.272 2.69 -7.253 0.95 -1.481 0.004 0.001 0.201 0.148 0.551 1.62 0 0 0.298 5.355 0 0 0.494 0.604 0 0 1.251 -0.165 2.484 -5.457 0.938 -1.274 0.254 -0.106 0.302 0.129 0.52 1.106 0.29 2.818 -0.348 6.786 0.87 1.48 0.245 -0.062 0.109 -1.527 0.603 -6.701 -0.331 -3.194 -0.865 -1.84 -1.389 -0.593 -1.204 0.501 -1.271 1.726 -2.562 5.589 1.251 -0.165 0 0 -0.192 -0.226 0 0 -0.319 -5.066 0 0 -0.775 -2.237 -1.148 -0.815 -1.176 0.356 -1.316 2.055 -2.716 7.408 1.347 0.272 0 0 0.103 -3.776 0 0 0.021 -0.338 0.166 -3.169" />
    <path class="write-flat-pen" fill="#FFFFFF" stroke-width="1.6" __comx="389.648" __comy="143.143" __timestamp="0x17803a7eb57" d="M386.086 155.208 l-0.852 0.952 0.776 -0.036 0.106 0.1 0.15 -11.443 0.045 -0.519 0.722 -3.561 0.719 -1.596 0.893 -0.971 0.901 -0.343 1.225 0.226 1.101 0.719 0.815 1.311 0.219 1.46 -0.394 1.676 -0.928 1.546 -1.487 1.289 -1.114 0.451 -0.483 -0.034 -0.225 -0.198 -0.285 -1.343 -0.304 -0.031 -0.587 1.568 0.469 1.315 1.627 0.168 1.654 -0.673 1.831 -1.595 1.152 -1.929 0.502 -2.153 -0.303 -2.012 -1.132 -1.821 -1.598 -1.043 -1.89 -0.346 -1.575 0.608 -1.258 1.389 -0.853 1.95 -0.715 3.796 -0.046 0.645 0.13 11.88 0.17 0.173 0.776 -0.036 0.647 -1.101" />
    <path class="write-flat-pen" fill="#FFFFFF" stroke-width="1.6" __comx="398.929" __comy="143.143" __timestamp="0x17803a7ed57" d="M400.193 140.491 l-0.361 -1.798 -1.322 -0.88 -1.884 0.004 -1.424 0.67 -1.346 1.447 -0.971 2.215 -0.243 2.258 0.473 1.855 0.994 1.201 1.324 0.488 1.819 -0.402 1.515 -1.297 1.251 -2.375 0.637 -2.641 0 0 -0.12 -1.457 0 0 -1.291 -0.104 -0.395 1.477 0.448 3.26 1.068 2.882 1.248 1.387 1.257 0.381 0.414 -0.089 1.932 -0.523 -0.009 -0.168 -1.975 -0.323 -0.181 -0.058 -0.659 -0.344 -0.822 -0.981 -0.922 -2.506 -0.414 -2.846 0.284 -1.231 -1.291 -0.104 0 0 0.111 1.243 0 0 -0.564 2.267 -1.081 1.982 -1.071 0.887 -1.087 0.229 -0.589 -0.217 -0.559 -0.668 -0.343 -1.31 0.177 -1.806 0.768 -1.834 0.997 -1.131 0.938 -0.481 1.261 -0.056 0.706 0.392 0.453 1.328" />
    <path class="write-flat-pen" fill="#FFFFFF" stroke-width="1.6" __comx="407.945" __comy="143.143" __timestamp="0x17803a7ee63" d="M407.153 130.435 l-0.33 0.797 -0.052 0.208 -0.355 2.28 -0.062 0.655 -0.277 5.639 0.369 4.93 1.412 2.866 1.847 0.741 0.109 -0.15 -1.025 -1.346 -0.966 -2.461 -0.368 -4.61 0.119 -5.55 0.02 -0.62 0.089 -2.263 0.001 -0.148 0.08 -0.815" />
    <path class="write-flat-pen" fill="#FFFFFF" stroke-width="1.6" __comx="408.487" __comy="143.143" __timestamp="0x17803a7ef38" d="M402.178 140.542 l4.407 -1.557 0.468 -0.176 4.982 -1.145 0.36 -0.082 2.814 -0.563 -0.016 -0.288 -2.86 -0.244 -0.458 -0.036 -5.227 0.984 -0.574 0.226 -4.307 1.818" />
    <path class="write-flat-pen" fill="#FFFFFF" stroke-width="1.6" __comx="415.346" __comy="143.143" __timestamp="0x17803a7f02d" d="M414.92 140.008 l-0.798 1.104 -0.109 0.33 -0.047 3.631 0.112 0.474 1.167 2.191 0.475 -0.033 0.995 -0.336 0.012 -0.157 -0.929 -0.489 0.173 -0.057 -0.691 -1.558 -0.056 -0.203 -0.22 -3.339 0.005 -0.079 0.503 -1.135" />
    <path class="write-flat-pen" fill="#FFFFFF" stroke-width="1.6" __comx="416.982" __comy="143.143" __timestamp="0x17803a7f0bf" d="M417.294 132.444 l-0.86 0.374 -0.131 1.121 0.191 0.089 0.627 -0.508 0.54 -0.24" />
    <path class="write-flat-pen" fill="#FFFFFF" stroke-width="1.6" __comx="427.262" __comy="143.143" __timestamp="0x17803a7f44f" d="M421.93 128.625 l-0.17 -0.727 0 0 -0.884 0.162 -0.029 2.646 0.089 0.69 1.105 6.584 0.623 7.72 0 0 0.112 0.44 0 0 1.24 0.175 2.085 -3.451 1.558 -1.701 1.463 -0.917 1.082 -0.193 0.99 0.291 0.782 0.827 0.31 1.076 -0.159 1.267 -0.887 1.621 -1.143 0.964 -1.404 0.546 -1.582 0.004 -1.359 -0.553 -0.636 -0.662 -0.052 -1.254 -0.006 -0.081 0.783 -1.845 -0.19 -0.133 -1.464 1.368 -0.268 0.294 -0.241 2.176 1.251 1.339 1.908 0.774 2.128 -0.014 1.865 -0.736 1.512 -1.295 1.122 -2.089 0.214 -1.806 -0.487 -1.659 -1.26 -1.328 -1.645 -0.49 -1.66 0.29 -1.85 1.15 -1.786 1.935 -2.138 3.583 1.24 0.175 0 0 -0.091 -0.322 0 0 -0.673 -7.654 -1.214 -6.604 -0.096 -0.608 -0.233 -2.576 -0.884 0.162 0 0 0.303 0.682" />
    <path class="write-flat-pen" fill="#FFFFFF" stroke-width="1.6" __comx="436.235" __comy="143.143" __timestamp="0x17803a7f557" d="M435.226 130.532 l-0.915 -0.386 0.477 3.763 0.129 0.709 1.606 11.508 1.463 2.057 0.18 -0.084 -0.572 -2.288 -1.481 -11.391 -0.151 -0.722 -0.741 -3.7 -0.915 0.535" />
    <path class="write-flat-pen" fill="#FFFFFF" stroke-width="1.6" __comx="446.552" __comy="143.143" __timestamp="0x17803a7f6de" d="M441.118 142.796 l0.633 1.22 0.337 0.19 1.803 0.407 2.089 -0.441 1.899 -1.172 1.324 -1.581 0.47 -1.784 -0.793 -1.238 -1.797 -0.538 -1.938 0.341 -1.846 1.186 -1.485 2.049 -0.867 2.496 -0.062 1.797 0.64 1.654 1.141 1.083 2.121 0.723 2.626 -0.221 2.216 -0.951 0.468 -0.355 2.124 -1.624 -0.106 -0.19 -2.498 0.952 -0.473 0.17 -2.029 0.647 -2.146 0.14 -1.56 -0.526 -0.701 -0.65 -0.445 -1.095 0.021 -1.316 0.703 -2.134 1.207 -1.714 1.422 -0.928 1.393 -0.243 1.057 0.324 0.23 0.373 -0.261 0.965 -1.004 1.212 -1.531 0.978 -1.63 0.41 -1.44 -0.194 0.021 0.026 -0.718 -0.849" />
    <path class="write-flat-pen" fill="#FFFFFF" stroke-width="1.6" __comx="483.703" __comy="143.143" __timestamp="0x17803a7fd7d" d="M486.034 139.694 l0.451 -1.48 0.049 -0.154 0.174 -1.089 -0.665 -0.918 -1.65 -0.002 0 0 -5.672 2.468 0 0 0.204 1.368 3.211 0.42 2.431 0.848 2.206 1.427 1.013 1.257 0.514 1.599 -0.141 1.185 -0.727 1.205 -1.602 1.12 -2.185 0.656 -2.864 0.239 -1.473 -0.234 0.108 0.269 0.496 -0.749 0.252 -0.25 0.337 -0.345 1.612 -1.614 -0.147 -0.204 -2.04 1.022 -0.443 0.218 -0.425 0.261 -1.409 1.465 0.667 1.314 2.407 0.398 3.213 -0.29 2.564 -0.792 2.043 -1.463 1.022 -1.758 0.194 -1.801 -0.69 -2.145 -1.321 -1.646 -2.541 -1.652 -2.736 -0.96 -3.363 -0.428 0.204 1.368 0 0 5.377 -2.528 0 0 0.842 -0.109 0.158 0.09 0.013 0.636 -0.018 0.113 -0.18 1.553" />
    <path class="write-flat-pen" fill="#FFFFFF" stroke-width="1.6" __comx="491.618" __comy="143.143" __timestamp="0x17803a7fe61" d="M487.807 139.678 l1.138 1.172 0.117 0.165 4.181 7.256 2.013 1.295 0.173 -0.171 -1.158 -1.912 -4.238 -7.139 -0.257 -0.297 -1.397 -1.028" />
    <path class="write-flat-pen" fill="#FFFFFF" stroke-width="1.6" __comx="494.363" __comy="143.143" __timestamp="0x17803a7ff63" d="M496.807 139.74 l-1.268 5.973 -0.265 0.782 -3.632 10.202 -0.786 4.288 0.756 2.489 0.295 -0.034 0.194 -2.401 0.892 -3.967 3.579 -10.131 0.287 -0.885 1.012 -6.114" />
    <path class="write-flat-pen" fill="#FFFFFF" stroke-width="1.6" __comx="506.15" __comy="143.143" __timestamp="0x17803a8020c" d="M508.68 139.094 l-0.945 -1.443 -0.448 -0.148 -1.537 0.035 -1.707 0.92 -1.32 1.554 -0.33 1.469 0.752 1.218 4.184 1.305 1.089 0.71 0.517 0.796 0.008 0.74 -0.574 1.071 -1.403 1.236 -2.194 1.098 -1.225 0.22 -0.14 -0.043 -0.222 -0.697 -0.004 -0.26 0.204 -2.015 -0.239 -0.073 -0.953 1.787 -0.225 0.466 0.13 1.819 1.298 0.531 1.845 -0.343 2.538 -1.299 1.716 -1.551 0.834 -1.623 -0.037 -1.485 -0.893 -1.359 -1.486 -0.969 -3.884 -1.208 -0.207 -0.321 0.124 -0.628 0.923 -1.168 1.225 -0.76 1.08 -0.144 -0.025 -0.025 0.964 1.024" />
    <path class="write-flat-pen" fill="#FFFFFF" stroke-width="1.6" __comx="515.547" __comy="143.143" __timestamp="0x17803a802f4" d="M514.329 130.263 l-0.296 0.908 -0.07 0.363 -0.17 3.414 0.016 0.826 0.259 10.524 1.178 5.695 1.803 1.989 0.252 -0.161 -0.927 -2.276 -0.923 -5.396 -0.344 -10.416 -0.042 -0.8 -0.094 -3.337 0 -0.279 0.07 -0.911" />
    <path class="write-flat-pen" fill="#FFFFFF" stroke-width="1.6" __comx="515.42" __comy="143.143" __timestamp="0x17803a803c8" d="M508.879 141.929 l2.92 -0.828 7.228 -1.194 0.53 -0.116 2.733 -0.571 -0.017 -0.22 -2.789 -0.134 -0.579 -0.028 -7.403 1.001 -2.951 1.08" />
    <path class="write-flat-pen" fill="#FFFFFF" stroke-width="1.6" __comx="524.97" __comy="143.143" __timestamp="0x17803a80541" d="M521.853 144.155 l2.326 -0.389 0.383 -0.137 1.885 -1.003 1.326 -1.387 0.396 -1.4 -0.794 -1.296 -1.666 -0.29 -1.728 0.709 -1.484 1.457 -1.248 2.279 -0.476 2.466 0.445 2.281 1.109 1.662 1.763 0.854 2.498 -0.569 0.529 -0.373 0.369 -0.381 1.685 -1.746 -0.142 -0.187 -2.135 1.155 -0.416 0.215 -0.336 0.144 -1.844 0.247 -0.958 -0.506 -0.724 -1.092 -0.351 -1.713 0.348 -1.976 1.005 -1.923 1.128 -1.144 1.117 -0.47 0.69 0.116 0.177 0.283 -0.145 0.527 -0.945 1.015 -1.603 0.905 -0.216 0.088 -2.184 0.632" />
    <path class="write-flat-pen" fill="#FFFFFF" stroke-width="1.6" __comx="538.056" __comy="143.143" __timestamp="0x17803a807cc" d="M531.974 139.503 l-0.65 1.831 -0.091 0.324 -0.988 6.7 0.119 0.266 0 0 1.143 0.228 0.713 -0.668 2.121 -5.671 0.656 -0.893 0.15 0.001 0.532 0.552 1.142 5.409 0 0 0.761 0.83 0 0 1.18 -0.109 0.954 -1.583 1.698 -5.192 1.03 -1.905 0.648 -0.452 0.29 0.061 0.496 0.677 0.519 2.184 -0.097 8.678 0.661 0.571 0.676 -0.45 -0.048 -0.495 0.279 -8.469 -0.688 -2.652 -1.051 -1.321 -1.377 -0.189 -1.321 0.962 -1.236 2.266 -1.783 5.108 -0.913 1.412 1.18 -0.109 0 0 -0.488 -0.535 0 0 -1.215 -5.404 -1.264 -1.263 -1.434 0.05 -1.164 1.592 -2.115 5.518 -0.472 0.438 1.143 0.228 0 0 0.046 0.104 0.653 -6.272 0.043 -0.248 0.393 -1.879" />
    <path class="write-flat-pen" fill="#FFFFFF" stroke-width="1.6" __comx="552.141" __comy="143.143" __timestamp="0x17803a80925" d="M551.511 145.043 l0.492 1.08 0.029 0.121 0.414 3.269 -0.002 0.376 -1.018 4.904 -0.869 2.541 0.181 0.094 1.639 -2.282 1.348 -5.118 -0.017 -0.631 -0.712 -3.423 -0.13 -0.28 -0.767 -1.008" />
    <path class="write-flat-pen" fill="#FFFFFF" stroke-width="1.6" __comx="598.413" __comy="140.905" __timestamp="0x17803a836f0" d="M595.153 127.036 l0.397 0.215 -0.107 -0.131 0.2 1.52 0.002 0.328 -0.678 4.763 -0.164 0.694 -1.284 5.87 -0.182 3.506 0.54 1.885 1.161 1.517 1.882 1.017 3.36 0.097 0.606 -0.19 2.602 -0.835 -0.079 -0.422 -2.728 0.166 -0.477 0.013 -2.844 -0.318 -1.269 -0.739 -0.765 -1.03 -0.382 -1.345 0.156 -3.114 1.198 -5.752 0.161 -0.77 0.427 -4.983 -0.054 -0.529 -0.525 -1.715 -0.212 -0.291 -0.802 -0.056" />
    <path class="write-flat-pen" fill="#FFFFFF" stroke-width="1.6" __comx="595.113" __comy="140.905" __timestamp="0x17803a83806" d="M588.046 138.069 l1.983 -0.376 9.075 0.064 0.531 -0.097 2.789 -0.506 -0.014 -0.238 -2.829 -0.171 -0.498 -0.035 -9.188 -0.259 -2.091 0.602" />
    <path class="write-flat-pen" fill="#FFFFFF" stroke-width="1.6" __comx="615.014" __comy="140.905" __timestamp="0x17803a83a78" d="M604.956 129.439 l-0.224 0.527 0.034 0.241 0.319 2.112 0.08 0.576 1.425 12.781 0.562 1.357 0 0 1.072 0.335 0.802 -0.534 2.045 -4.383 0.933 -1.156 -0.165 -0.002 1.351 4.06 0.892 1.314 1.522 0.771 1.613 -0.103 1.88 -0.977 1.529 -1.658 0.749 -1.792 -0.345 -0.81 0 0 -1.114 -0.233 -0.813 0.73 -0.439 1.924 0.409 1.738 1.041 1.282 2.037 0.873 0.509 0.037 2.568 0.154 0.069 -0.322 -2.406 -0.912 -0.336 -0.144 -1.529 -0.834 -0.613 -0.787 -0.261 -1.096 0.248 -1.168 0.464 -0.451 -1.114 -0.233 0 0 0.123 0.264 -0.426 1.024 -1.202 1.299 -1.409 0.734 -0.95 0.065 -0.876 -0.437 -0.592 -0.863 -1.623 -4.801 -1.438 0.017 -1.451 1.756 -2.004 4.136 -0.474 0.293 1.072 0.335 0 0 -0.478 -1.176 -1.622 -12.588 -0.125 -0.625 -0.579 -2.098 -0.037 -0.046 -0.042 -0.372" />
    <path class="write-flat-pen" fill="#FFFFFF" stroke-width="1.6" __comx="647.963" __comy="140.905" __timestamp="0x17803a83d8c" d="M652.773 139.343 l0.611 -1.443 0.065 -0.218 0.112 -1.14 -0.702 -1.122 -1.783 -0.614 -2.085 0.228 -1.76 0.855 -0.962 1.176 -0.204 1.478 0.708 1.333 4.061 2.085 1.067 0.997 0.459 1.006 0.016 1.487 -0.502 1.085 -1.166 1.005 -1.651 0.554 -1.706 0.014 -1.918 -0.596 -1.395 -0.956 -0.315 -0.468 0.002 -0.319 0.071 -0.125 0.314 -0.235 1.558 -1.069 -0.099 -0.232 -1.851 0.381 -0.479 0.102 -0.641 0.332 -0.5 1.387 0.809 1.33 1.85 1.27 2.372 0.728 2.189 -0.031 2.154 -0.749 1.61 -1.43 0.745 -1.681 -0.051 -2.109 -0.707 -1.526 -1.417 -1.319 -3.851 -1.966 -0.299 -0.548 0.079 -0.655 0.517 -0.659 1.279 -0.654 1.588 -0.233 1.191 0.302 0.397 0.454 0.038 0.726 -0.014 0.108 -0.352 1.493" />
    <path class="write-flat-pen" fill="#FFFFFF" stroke-width="1.6" __comx="663.006" __comy="140.905" __timestamp="0x17803a83ffd" d="M656.229 139.032 l-0.629 2.72 -0.037 0.301 0 0 -0.644 5.208 0 0 1.358 0.407 2.887 -5.554 1.343 -1.792 0.163 -0.067 0.225 0.138 0.479 1.451 0.094 5.254 0.573 0.953 0 0 1.24 0.135 1.047 -1.092 2.53 -5.47 0.499 -0.611 -0.356 -0.099 0.304 1.071 0.022 5.994 1.166 2.281 0.444 0.16 1.998 0.501 0.157 -0.312 -1.594 -1.304 0.03 -0.049 -0.653 -1.623 -0.024 -5.867 -0.603 -2.11 -1.447 -0.4 -1.264 1.535 -2.523 5.402 -0.867 0.902 1.24 0.135 0 0 -0.367 -0.588 -0.143 -5.063 -0.745 -2.186 -1.344 -0.795 -1.221 0.512 -1.661 2.212 -2.909 5.683 1.358 0.407 0 0 0.465 -5.234 0 0 0.016 -0.258 0.347 -2.718" />
    <path class="write-flat-pen" fill="#FFFFFF" stroke-width="1.6" __comx="674.987" __comy="140.905" __timestamp="0x17803a8419f" d="M677.612 142.353 l-1.082 -1.062 -0.339 -0.126 -1.719 -0.187 -1.819 0.514 -1.321 1.079 -0.897 1.819 0.03 1.757 0.857 1.288 1.371 0.517 1.573 -0.393 0 0 1.944 -1.954 0 0 -1.258 -0.443 0.372 3.55 0.827 1.716 1.416 0.356 0.378 -0.144 1.595 -0.795 -0.039 -0.19 -1.78 -0.098 -0.076 -0.051 -0.431 -0.268 -0.416 -0.94 -0.376 -3.297 -1.258 -0.443 0 0 -1.66 1.65 0 0 -0.718 0.174 -0.485 -0.182 -0.356 -0.523 -0.034 -0.97 0.574 -1.243 0.839 -0.736 1.294 -0.428 1.334 0.043 -0.001 -0.012 1.084 0.722" />
    <path class="write-flat-pen" fill="#FFFFFF" stroke-width="1.6" __comx="683.941" __comy="140.905" __timestamp="0x17803a8427d" d="M682.946 132.452 l-0.72 1.859 -0.094 0.487 -0.313 5.734 0.391 4.729 0.761 2.333 1.107 0.756 1.911 0.309 0.072 -0.178 -1.436 -1.042 -0.519 -0.606 -0.568 -1.836 -0.404 -4.496 0.098 -5.595 0.037 -0.348 0.449 -1.86" />
    <path class="write-flat-pen" fill="#FFFFFF" stroke-width="1.6" __comx="689.141" __comy="140.905" __timestamp="0x17803a84352" d="M687.276 132.786 l-0.44 2.658 -0.043 0.577 0.248 4.029 0.96 4.21 1.295 2.36 1.958 2.019 0.236 -0.175 -1.303 -2.391 -1.006 -2.237 -0.92 -3.97 -0.344 -3.859 0.008 -0.473 0.172 -2.653" />
    <path class="write-flat-pen" fill="#FFFFFF" stroke-width="1.6" __comx="696.488" __comy="140.905" __timestamp="0x17803a844cc" d="M691.727 142.638 l1.186 0.837 1.919 0.114 2.258 -0.66 1.916 -1.218 1.056 -1.415 -0.152 -1.389 -1.454 -0.324 -1.442 0.653 -1.495 1.525 -1.01 2.135 -0.078 1.636 0.642 1.208 1.492 0.799 2.274 -0.351 0.305 -0.167 2.104 -1.227 -0.061 -0.16 -2.388 0.48 -0.209 0.029 -1.76 0.069 -0.783 -0.44 -0.299 -0.544 0.024 -1.031 0.762 -1.748 1.164 -1.254 0.885 -0.418 0.279 0.063 0.006 0.124 -0.672 0.869 -1.601 1.012 -1.908 0.581 -1.432 -0.032 -1.003 -0.573" />
    <path class="write-flat-pen" fill="#FFFFFF" stroke-width="1.6" __comx="705.967" __comy="140.905" __timestamp="0x17803a84644" d="M707.843 140.878 l-0.392 -1.418 -0.135 -0.237 -1.255 -1.306 -1.307 -0.441 -1.022 0.711 0.375 1.399 3.43 3.143 0.838 1.29 0.281 1.411 -0.322 1.314 -0.89 0.991 -1.152 0.498 -1.175 0.035 -1.063 -0.45 -0.682 -0.821 -0.326 -1.719 -0.001 -0.317 0.119 -2.426 -0.197 -0.041 -0.867 2.268 -0.165 0.464 0.135 2.306 1.098 1.443 1.685 0.72 1.761 -0.066 1.673 -0.751 1.292 -1.501 0.422 -1.941 -0.441 -1.921 -1.092 -1.591 -3.336 -2.974 -0.109 -0.317 -0.073 0.024 0.587 0.147 1.107 0.964 0.054 0.064 0.615 1.244" />
    <path class="write-flat-pen" fill="#FFFFFF" stroke-width="1.6" __comx="714.507" __comy="140.905" __timestamp="0x17803a84718" d="M714.637 130.885 l-0.65 2.809 -0.097 0.662 -0.359 6.848 0.501 5.502 1.248 2.429 0.201 -0.061 -0.282 -2.591 -0.395 -5.304 0.224 -6.728 0.057 -0.589 0.378 -2.826" />
    <path class="write-flat-pen" fill="#FFFFFF" stroke-width="1.6" __comx="716.22" __comy="140.905" __timestamp="0x17803a847cb" d="M710.334 139.036 l1.454 0.008 0.363 0.006 7.333 -0.5 2.694 -0.66 -0.038 -0.295 -2.741 0.034 -7.298 0.31 -0.379 0.032 -1.459 0.269" />
    <path class="write-flat-pen" fill="#FFFFFF" stroke-width="1.6" __comx="746.223" __comy="140.905" __timestamp="0x17803a84b5f" d="M740.524 150.403 l0.58 0.375 0.125 -0.539 0.017 -0.224 -0.095 -3.8 -0.061 -0.68 -0.946 -6.694 -0.085 -4.004 0.521 -3.234 0.991 -2.401 1.378 -1.795 1.605 -1.115 1.733 -0.596 1.763 -0.075 1.524 0.453 1.181 0.886 1.553 2.594 0.121 0.233 1.152 2.465 0.208 -0.062 -0.377 -2.695 -0.059 -0.374 -1.517 -3.078 -1.589 -1.268 -2.008 -0.624 -2.225 0.086 -2.13 0.73 -1.961 1.365 -1.629 2.138 -1.105 2.746 -0.533 3.53 0.133 4.213 1.06 6.733 0.076 0.623 0.357 3.731 0.02 0.207 0.153 0.541 0.708 -0.263" />
    <path class="write-flat-pen" fill="#FFFFFF" stroke-width="1.6" __comx="741.869" __comy="140.905" __timestamp="0x17803a84c33" d="M735.11 139.217 l10.734 -0.232 2.804 -0.557 -0.023 -0.265 -2.83 -0.071 -10.706 0.263" />
    <path class="write-flat-pen" fill="#FFFFFF" stroke-width="1.6" __comx="752.152" __comy="140.905" __timestamp="0x17803a84d07" d="M751.205 142.04 l-0.574 3.639 0.205 2.22 0.935 0.876 1.173 -0.859 0.185 -0.494 0.54 -1.614 -0.118 -0.066 -1.087 1.31 -0.206 0.209 -0.337 0.072 0.033 0.016 -0.201 -1.653 0.392 -3.528" />
    <path class="write-flat-pen" fill="#FFFFFF" stroke-width="1.6" __comx="755.675" __comy="140.905" __timestamp="0x17803a84d9d" d="M755.725 131.804 l-0.866 2.345 0.056 3.154 0.749 2.514 0.169 -0.029 -0.124 -2.548 0.124 -2.927 0.659 -2.254" />
    <path class="write-flat-pen" fill="#FFFFFF" stroke-width="1.6" __comx="762.781" __comy="140.905" __timestamp="0x17803a84f26" d="M759.834 143.31 l-0.666 0.91 -0.12 0.186 -0.909 2.364 0.031 0.491 0 0 0.329 0.387 0 0 1.015 -0.206 2.196 -5.364 0.947 -1.428 0.094 -0.03 0.181 0.138 0.586 1.666 0.59 4.811 1.266 1.939 0.505 0.002 1.522 -0.242 0.025 -0.181 -1.398 -0.648 0.091 -0.056 -0.661 -1.279 -0.604 -4.664 -0.787 -2.181 -1.075 -0.81 -1.204 0.414 -1.264 1.929 -2.159 5.524 1.015 -0.206 0 0 -0.087 -0.032 0 0 0.003 0.16 0.553 -2.15 0.051 -0.123 0.439 -1.033" />
    <path class="write-flat-pen" fill="#FFFFFF" stroke-width="1.6" __comx="771.064" __comy="140.905" __timestamp="0x17803a8505d" d="M771.212 142.072 l-1.12 3.446 -0.06 0.362 0.177 1.77 0.911 0.666 0.07 -0.041 -0.009 -0.908 0.057 -1.417 0.023 -0.177 0.836 -3.45" />
    <path class="write-flat-pen" fill="#FFFFFF" stroke-width="1.6" __comx="773.682" __comy="140.905" __timestamp="0x17803a850f3" d="M773.763 135.575 l-0.706 0.607 0.887 0.556 0.177 -0.152 0.13 -0.327 0.056 -0.08" />
    <path class="write-flat-pen" fill="#FFFFFF" stroke-width="1.6" __comx="780.434" __comy="140.905" __timestamp="0x17803a851be" d="M779.866 130.987 l-0.167 4.295 0.008 0.716 0.324 13.087 0.385 2.787 0.151 0.006 0.604 -2.781 -0.16 -13.128 -0.028 -0.699 -0.102 -4.276" />
    <path class="write-flat-pen" fill="#FFFFFF" stroke-width="1.6" __comx="780.727" __comy="140.905" __timestamp="0x17803a85281" d="M777.209 142.058 l0.371 -0.767 1.514 -0.375 3.05 0.054 0.407 -0.008 2.656 -0.03 0.016 -0.134 -2.574 -0.657 -0.421 -0.107 -3.256 -0.331 -2.234 0.622 -0.508 1.322" />
    <path class="write-flat-pen" fill="#FFFFFF" stroke-width="1.6" __comx="789.907" __comy="140.905" __timestamp="0x17803a853c9" d="M786.426 142.41 l1.092 0.893 0.34 0.07 1.629 -0.109 1.624 -0.825 1.054 -1.307 0.037 -1.309 -1.012 -0.703 -1.409 0.301 -1.397 1.214 -1.12 1.917 -0.436 1.995 0.252 1.658 0.985 1.547 2.436 0.994 0.485 -0.05 2.397 -0.317 0.006 -0.233 -2.379 -0.434 -0.258 -0.068 -1.798 -0.918 -0.629 -0.992 -0.189 -1.155 0.314 -1.58 0.882 -1.597 0.997 -0.906 0.619 -0.143 0.094 0.06 -0.002 0.309 -0.652 0.842 -1.21 0.667 -1.284 0.178 -0.021 0.007 -1.082 -0.554" />
    <path class="write-flat-pen" fill="#FFFFFF" stroke-width="1.6" __comx="815.318" __comy="140.905" __timestamp="0x17803a85771" d="M816.136 139.184 l1.137 -2.089 0.104 -0.252 0.316 -1.313 -0.517 -1.124 -1.346 -0.385 -1.776 0.599 -1.536 1.377 -0.795 1.709 0.31 1.425 1.383 1.141 4.273 1.472 1.226 0.822 0.256 0.548 -0.116 0.983 -0.686 1.136 -1.242 0.925 -1.866 0.557 -2.354 0.051 -0.96 -0.298 -0.092 -0.094 0.647 -0.86 0.237 -0.154 0.396 -0.254 1.907 -1.21 -0.065 -0.148 -2.181 0.585 -0.458 0.121 -0.472 0.164 -1.744 1.674 1.023 1.337 1.574 0.488 2.756 -0.067 2.262 -0.687 1.631 -1.227 0.962 -1.603 0.188 -1.637 -0.571 -1.213 -1.671 -1.116 -4.214 -1.447 -0.861 -0.703 -0.13 -0.564 0.491 -1.088 1.142 -1.053 1.178 -0.44 0.515 0.1 0.2 0.309 -0.128 0.908 -0.046 0.152 -0.872 2.17" />
    <path class="write-flat-pen" fill="#FFFFFF" stroke-width="1.6" __comx="829.754" __comy="140.905" __timestamp="0x17803a85905" d="M822.539 141.409 l0.163 0.819 0.484 0.106 3.686 -0.759 0.571 -0.252 2.759 -1.656 1.668 -1.731 0.061 -1.455 -1.179 -0.59 -2.163 0.592 -1.824 1.279 -1.904 2.249 -1.008 2.308 -0.015 1.729 0.75 1.562 1.718 1.185 2.493 0.49 2.538 -0.412 3.135 -1.532 0.354 -0.293 2.143 -1.798 -0.132 -0.212 -2.559 1.13 -0.352 0.146 -2.986 1.211 -2.109 0.305 -1.953 -0.39 -1.166 -0.796 -0.453 -0.92 -0.007 -1.116 0.785 -1.875 1.638 -1.984 1.485 -1.061 1.458 -0.405 -0.019 -0.011 -0.002 0.124 -1.202 1.266 -2.531 1.566 -0.393 0.187 -3.313 0.954 0.218 0.058 -0.23 -0.241" />
    <path class="write-flat-pen" fill="#FFFFFF" stroke-width="1.6" __comx="840.569" __comy="140.905" __timestamp="0x17803a859fa" d="M840.634 129.105 l-0.169 1.385 -0.049 0.34 -0.51 5.197 -0.058 0.827 -0.416 7.488 0.789 2.266 1.396 0.417 0.085 -0.121 -0.56 -0.952 -0.367 -1.763 0.343 -7.265 0.038 -0.816 0.23 -5.205 0.007 -0.365 -0.099 -1.416" />
    <path class="write-flat-pen" fill="#FFFFFF" stroke-width="1.6" __comx="841.915" __comy="140.905" __timestamp="0x17803a85aaf" d="M834.318 139.117 l12.562 -1.354 2.733 -0.473 -0.016 -0.261 -2.789 -0.139 -12.59 1.273" />
    <path class="write-flat-pen" fill="#FFFFFF" stroke-width="1.6" __comx="869.052" __comy="143.93" __timestamp="0x17803a86128" d="M872.736 138.865 l-0.359 -0.788 -0.379 -0.051 -3.174 0.502 -0.182 0.062 -1.166 0.673 0.203 1.14 2.786 2.136 0.992 1.273 0.437 1.437 -0.268 0.969 -0.912 0.841 -1.778 0.649 -1.892 0.157 -0.646 -0.221 -0.048 -0.017 0.29 -0.71 0.128 -0.183 1.268 -1.507 -0.079 -0.101 -1.763 0.878 -0.349 0.192 -0.989 1.29 0.469 1.274 1.534 0.554 2.392 -0.219 2.208 -0.845 1.365 -1.325 0.426 -1.707 -0.635 -2.01 -1.239 -1.588 -2.545 -1.927 0.023 0.192 0.3 -0.198 -0.01 0.002 2.901 -0.73 -0.18 -0.032 0.35 0.284" />
    <path class="write-flat-pen" fill="#FFFFFF" stroke-width="1.6" __comx="876.886" __comy="143.93" __timestamp="0x17803a861ef" d="M877.403 147.357 l-1.367 0.476 0 0 0.759 0.961 0.367 -0.638 0.822 -1.45 -0.302 -0.265 -1.356 1.033 -0.539 0.555 0.759 0.961 0 0 1.273 -0.689" />
    <path class="write-flat-pen" fill="#FFFFFF" stroke-width="1.6" __comx="887.052" __comy="143.93" __timestamp="0x17803a8631d" d="M888.398 131.895 l-0.638 -0.4 -0.253 0.473 -0.07 0.208 -0.683 2.54 -0.151 0.63 -1.587 6.491 -0.483 4.494 0.284 1.786 0.932 1.466 1.491 0.486 0.404 -0.099 1.924 -0.607 -0.022 -0.244 -2.002 -0.249 -0.13 -0.051 -0.731 -0.369 -0.512 -0.84 -0.209 -1.316 0.433 -4.224 1.42 -6.452 0.121 -0.645 0.436 -2.587 0.024 -0.207 -0.009 -0.529 -0.638 0.247" />
    <path class="write-flat-pen" fill="#FFFFFF" stroke-width="1.6" __comx="887.102" __comy="143.93" __timestamp="0x17803a8641a" d="M882.555 141.284 l1.057 -0.225 0.16 -0.021 5.384 -0.807 2.724 -0.395 0.002 -0.186 -2.799 -0.46 -5.504 0.852 -0.241 0.074 -1.017 0.493" />
    <path class="write-flat-pen" fill="#FFFFFF" stroke-width="1.6" __comx="892.456" __comy="143.93" __timestamp="0x17803a86504" d="M891.83 146.21 l-0.337 0.932 0.106 0.307 0.325 0.4 1.355 0.432 0.14 -0.2 -0.746 -1.037 -0.122 -0.15 0.047 0.155 0 -0.679" />
  </g>
</svg>
