<svg class="write-page" color-interpolation="linearRGB" width="1010px" height="633.898px" xmlns="http://www.w3.org/2000/svg" xmlns:xlink="http://www.w3.org/1999/xlink">
  <g class="write-content write-v3" width="1010" height="633.898" xruling="30" yruling="30" marginLeft="30" papercolor="#1B1C1C" rulecolor="#3A00F9FF">
    <g class="ruleline write-std-ruling write-scale-down" fill="none" stroke="#00F9FF" stroke-opacity="0.227" stroke-width="1" shape-rendering="crispEdges" vector-effect="non-scaling-stroke">
      <rect class="pagerect" fill="#1B1C1C" stroke="none" x="0" y="0" width="1010" height="633.898" />
      <path class="yrule_1" d="M0 30 l1010 0" />
      <path d="M0 60 l1010 0" />
      <path d="M0 90 l1010 0" />
      <path d="M0 120 l1010 0" />
      <path d="M0 150 l1010 0" />
      <path d="M0 180 l1010 0" />
      <path d="M0 210 l1010 0" />
      <path d="M0 240 l1010 0" />
      <path d="M0 270 l1010 0" />
      <path d="M0 300 l1010 0" />
      <path d="M0 330 l1010 0" />
      <path d="M0 360 l1010 0" />
      <path d="M0 390 l1010 0" />
      <path d="M0 420 l1010 0" />
      <path d="M0 450 l1010 0" />
      <path d="M0 480 l1010 0" />
      <path d="M0 510 l1010 0" />
      <path d="M0 540 l1010 0" />
      <path d="M0 570 l1010 0" />
      <path d="M0 600 l1010 0" />
      <path d="M0 630 l1010 0" />
      <path class="xrule_1" d="M30 0 l0 633.898" />
      <path d="M60 0 l0 633.898" />
      <path d="M90 0 l0 633.898" />
      <path d="M120 0 l0 633.898" />
      <path d="M150 0 l0 633.898" />
      <path d="M180 0 l0 633.898" />
      <path d="M210 0 l0 633.898" />
      <path d="M240 0 l0 633.898" />
      <path d="M270 0 l0 633.898" />
      <path d="M300 0 l0 633.898" />
      <path d="M330 0 l0 633.898" />
      <path d="M360 0 l0 633.898" />
      <path d="M390 0 l0 633.898" />
      <path d="M420 0 l0 633.898" />
      <path d="M450 0 l0 633.898" />
      <path d="M480 0 l0 633.898" />
      <path d="M510 0 l0 633.898" />
      <path d="M540 0 l0 633.898" />
      <path d="M570 0 l0 633.898" />
      <path d="M600 0 l0 633.898" />
      <path d="M630 0 l0 633.898" />
      <path d="M660 0 l0 633.898" />
      <path d="M690 0 l0 633.898" />
      <path d="M720 0 l0 633.898" />
      <path d="M750 0 l0 633.898" />
      <path d="M780 0 l0 633.898" />
      <path d="M810 0 l0 633.898" />
      <path d="M840 0 l0 633.898" />
      <path d="M870 0 l0 633.898" />
      <path d="M900 0 l0 633.898" />
      <path d="M930 0 l0 633.898" />
      <path d="M960 0 l0 633.898" />
      <path d="M990 0 l0 633.898" />
      <path class="leftmargin" stroke="#FF0000" d="M30 0 l0 633.898" />
    </g>
    <path class="write-flat-pen" fill="#FFFFFF" stroke-width="1.6" __comx="286.66" __comy="320.018" __timestamp="0x178153584e4" d="M277.784 326.28 l-0.075 1.403 0.187 0.15 0.62 -0.214 1.865 -5.571 0.261 -0.978 0 0 3.567 -14.851 0 0 -1.227 0.068 1.776 4.997 4.593 8.741 3.468 4.898 2.689 1.915 0.104 -0.105 -1.872 -2.585 -3.275 -4.799 -4.512 -8.589 -1.764 -4.904 -1.227 0.068 0 0 -3.457 14.864 0 0 -0.237 0.947 -1.526 5.648 0.62 -0.214 0.101 0.089 -0.236 -1.009" />
    <path class="write-flat-pen" fill="#FFFFFF" stroke-width="1.6" __comx="285.331" __comy="320.018" __timestamp="0x178153585d6" d="M278.249 322.144 l5.392 0.917 5.301 -0.138 3.472 -0.538 -0.019 -0.232 -3.488 0.031 -5.206 -0.024 -5.361 -0.643" />
    <path class="write-flat-pen" fill="#FFFFFF" stroke-width="1.6" __comx="298.49" __comy="320.018" __timestamp="0x178153586b2" d="M297.364 322.136 l0.496 5.011 0.059 0.322 0.325 1.316 1.29 2.801 0.082 -0.026 -0.535 -3.004 -0.28 -1.274 -0.056 -0.278 -0.836 -4.94" />
    <path class="write-flat-pen" fill="#FFFFFF" stroke-width="1.6" __comx="330.144" __comy="320.018" __timestamp="0x17815358a8a" d="M317.495 317.666 l-0.245 0.018 -0.704 0.018 0 0 0.046 0.717 0.12 0.034 11.548 2.146 10.568 0.221 0.62 -0.098 0.952 -0.176 3.34 -0.68 -0.01 -0.077 -3.399 0.236 -0.961 0.073 -0.57 0.043 -10.435 -0.538 -11.538 -1.91 -0.142 0.001 0.046 0.717 0 0 0.623 -0.329 0.165 -0.006" />
    <path class="write-flat-pen" fill="#FFFFFF" stroke-width="1.6" __comx="339.735" __comy="320.018" __timestamp="0x17815358c6a" d="M338.759 316.504 l-2.464 -1.173 -0.014 -0.016 0 0 -0.904 -0.955 0 0 -0.456 0.868 6.083 1.443 2.039 0.924 0.479 0.786 -0.36 4.659 0.822 2.587 0.12 -0.015 0.163 -2.591 0.516 -4.941 -0.914 -1.433 -2.488 -1.11 -6.239 -1.299 -0.456 0.868 0 0 1.064 0.871 0 0 0.147 0.095 2.68 0.887" />
    <path class="write-flat-pen" fill="#FFFFFF" stroke-width="1.6" __comx="356.722" __comy="320.018" __timestamp="0x17815358d7f" d="M355.156 310.484 l0.598 4.157 0.113 0.524 1.451 7.321 0.679 3.297 0.131 -0.01 0.161 -3.42 -1.464 -7.393 -0.125 -0.516 -0.931 -4.075" />
    <path class="write-flat-pen" fill="#FFFFFF" stroke-width="1.6" __comx="361.652" __comy="320.018" __timestamp="0x17815358fda" d="M355.573 311.232 l0.377 -2.068 0.026 -0.035 1.044 -1.322 1.457 -0.878 1.774 -0.321 1.323 0.361 1.018 0.999 0.371 1.135 -0.206 1.077 0 0 -1.833 1.502 0 0 0.215 1.086 2.502 0.762 2.154 1.424 1.039 1.612 0.199 1.445 -0.492 1.396 -1.443 1.505 -2.093 0.987 -1.964 0.274 -0.839 -0.469 -0.078 0.151 -0.149 -1.487 -0.05 -0.01 -0.708 1.316 -0.137 0.447 1.592 1.428 2.714 -0.377 2.489 -1.189 1.787 -1.895 0.667 -1.954 -0.298 -2.018 -1.337 -2.055 -2.517 -1.668 -2.67 -0.827 0.215 1.086 0 0 2.178 -1.797 0 0 0.342 -1.839 -0.576 -1.722 -1.471 -1.422 -1.901 -0.496 -2.253 0.452 -1.781 1.167 -1.117 1.637 -0.122 0.273 -0.049 2.268" />
    <path class="write-flat-pen" fill="#FFFFFF" stroke-width="1.6" __comx="373.215" __comy="320.018" __timestamp="0x178153591fd" d="M373.42 322.979 l0.843 -0.715 0.065 -0.225 -0.646 -1.429 -0.395 -0.167 -1.431 0.01 -1.233 1.111 -0.391 1.654 0.62 1.73 1.461 1.113 1.843 0.067 1.305 -0.903 0.735 -1.758 -0.344 -1.832 -1.105 -1.302 -2.399 -1.518 -0.11 0.124 1.722 2.127 0.721 1.084 0.188 1.169 -0.45 1.064 -0.647 0.462 -1.03 -0.016 -0.879 -0.638 -0.415 -1.058 0.192 -0.994 0.649 -0.67 0.847 -0.103 -0.068 -0.04 0.656 0.796 0.039 -0.121 -0.499 0.84" />
    <path class="write-flat-pen" fill="#FFFFFF" stroke-width="1.6" __comx="293.227" __comy="163.116" __timestamp="0x1781535aaf9" d="M284.559 179.042 l0.363 1.239 0.399 0.18 1.499 -2.027 0.144 -0.395 4.399 -14.141 0 0 1.654 -7.232 0 0 -0.297 -0.819 0 0 -1.204 0.199 -0.13 2.806 1.789 6.699 2.656 6.797 4.048 6.125 1.904 1.366 0.114 -0.105 -1.135 -1.942 -3.766 -6.039 -2.589 -6.607 -1.732 -6.437 0.085 -2.613 -1.204 0.199 0 0 0.196 0.464 0 0 -1.519 6.842 0 0 -4.204 14.141 -0.082 0.276 -0.867 1.679 0.286 0.133 -0.564 -0.893" />
    <path class="write-flat-pen" fill="#FFFFFF" stroke-width="1.6" __comx="293.914" __comy="163.116" __timestamp="0x1781535abe5" d="M286.829 172.79 l10.653 1.13 3.509 -0.146 0.008 -0.15 -3.451 -0.537 -10.643 -1.042" />
    <path class="write-flat-pen" fill="#FFFFFF" stroke-width="1.6" __comx="305.132" __comy="163.116" __timestamp="0x1781535ace3" d="M304.321 174.474 l-0.114 3.047 0.021 0.399 0.575 3.761 1.164 2.287 0.09 -0.031 -0.458 -2.45 -0.531 -3.66 -0.033 -0.343 -0.221 -3.018" />
    <path class="write-flat-pen" fill="#FFFFFF" stroke-width="1.6" __comx="303.189" __comy="163.116" __timestamp="0x1781535ae83" d="M303.26 146.866 l-0.117 0.058 -0.027 0.028 -0.011 0.023 -0.005 0.01 -0.005 0.011 -0.006 0.015 -0.005 0.016 -0.006 0.018 -0.006 0.021 -0.005 0.022 -0.005 0.023 -0.005 0.028 -0.001 0.033 -0.036 0.987 0.066 0.007 0.188 -0.97 0.005 -0.024 0.003 -0.016 0.004 -0.018 0.004 -0.015 0.004 -0.013 0.004 -0.013 0.003 -0.01 0.003 -0.007 0.003 -0.007 0.002 -0.004 -0.007 0.014 -0.024 0.024 0.084 -0.042" />
    <path class="write-flat-pen" fill="#FFFFFF" stroke-width="1.6" __comx="304.829" __comy="163.116" __timestamp="0x1781535b17e" d="M306.175 146.866 l-0.085 -1.65 -0.142 -0.261 -0.96 -0.735 -1.403 0.165 -1.235 1.279 -0.472 1.801 0.476 1.636 1.097 0.747 0 0 1.873 -0.819 -0.706 -0.401 0.244 1.975 0.877 1.118 1.998 1.009 0.045 -0.06 -1.414 -1.558 -0.531 -0.885 -0.216 -1.724 -0.706 -0.401 -1.362 0.604 0 0 -0.345 -0.231 -0.311 -1.029 0.321 -1.306 0.81 -0.91 0.766 -0.163 0.654 0.36 0.023 0.012 0.392 1.474" />
    <path class="write-flat-pen" fill="#FFFFFF" stroke-width="1.6" __comx="311.756" __comy="163.116" __timestamp="0x1781535b386" d="M308.615 143.024 l0.604 2.554 0.073 0.214 0.74 1.696 2.47 0.008 1.039 0.484 0.294 0.56 -0.159 0.495 -0.262 0.101 -0.075 -0.067 0.087 -0.839 0.812 -1.745 -0.045 -0.033 -1.552 1.421 -0.437 1.564 1.009 0.906 1.3 -0.56 0.385 -1.353 -0.655 -1.196 -1.535 -0.702 -2.109 0.062 -0.548 -1.113 -0.064 -0.16 -0.927 -2.432" />
    <path class="write-flat-pen" fill="#FFFFFF" stroke-width="1.6" __comx="300.428" __comy="78.503" __timestamp="0x1781535c41d" d="M292.017 86.734 l-0.136 1.045 0.459 0.249 0.127 -0.06 1.881 -3.196 0.262 -0.576 2.857 -8.164 0 0 1.7 -7.303 0 0 -1.096 0.074 3.329 8.908 2.357 4.467 2.483 2.577 2.656 1.144 0.078 -0.124 -2.064 -1.826 -2.177 -2.462 -2.253 -4.262 -3.337 -8.825 -1.096 0.074 0 0 -1.63 7.26 0 0 -2.736 8.101 -0.215 0.514 -1.479 3.17 0.038 -0.005 0.459 0.249 -0.196 -1.035" />
    <path class="write-flat-pen" fill="#FFFFFF" stroke-width="1.6" __comx="301.077" __comy="80.023" __timestamp="0x1781535c4e9" d="M294.085 80.181 l2.267 0.51 0.499 0.042 7.819 -0.139 3.399 -0.435 -0.006 -0.117 -3.412 -0.111 -7.779 -0.03 -0.436 -0.015 -2.28 -0.181" />
    <path class="write-flat-pen" fill="#FFFFFF" stroke-width="1.6" __comx="313.251" __comy="81.99" __timestamp="0x1781535c5b8" d="M312.863 79.15 l0.248 11.138 0.329 3.327 0.095 -0.003 0.105 -3.336 -0.041 -11.135" />
    <path class="write-flat-pen" fill="#FFFFFF" stroke-width="1.6" __comx="300.754" __comy="117.419" __timestamp="0x1781535c758" d="M300.548 100.545 l0.033 5.926 0.008 0.801 -0.359 12.213 -0.095 3.487 0.076 0.009 0.751 -3.44 0.412 -12.264 -0.025 -0.826 -0.383 -5.919" />
    <path class="write-flat-pen" fill="#FFFFFF" stroke-width="1.6" __comx="301.721" __comy="117.419" __timestamp="0x1781535c940" d="M298.365 122.693 l-0.589 0.001 0 0 -0.891 -2.618 0 0 -0.957 0.29 0.401 2.09 1.771 3.414 1.128 0.735 1.689 -0.093 4.239 -2.854 2.359 -2.348 -0.111 -0.14 -2.781 1.738 -4.087 2.429 -1.001 0.076 -0.569 -0.343 -1.615 -2.984 -0.439 -1.927 -0.957 0.29 0 0 1.377 3.01 0 0 1.109 -0.229" />
    <path class="write-flat-pen" fill="#FFFFFF" stroke-width="1.6" __comx="377.32" __comy="74.095" __timestamp="0x17815360a9d" d="M377.237 71.874 l-0.527 -0.224 -0.161 3.523 0.017 0.741 0.653 11.399 0.706 3.388 0.136 -0.013 0.031 -3.443 -0.672 -11.369 -0.031 -0.716 -0.175 -3.509 -0.476 0.276" />
    <path class="write-flat-pen" fill="#FFFFFF" stroke-width="1.6" __comx="381.032" __comy="74.452" __timestamp="0x17815360d21" d="M373.872 75.882 l0.525 -1.617 2.002 -2.262 1.953 -1.219 2.45 -0.693 2.047 0.195 1.608 0.783 0.844 1.086 0.164 1.141 -0.452 1.342 -1.284 1.372 -2.722 1.372 0.218 1.275 4.617 2.715 1.399 1.436 0.427 1.367 -0.295 1.209 -1.216 1.309 -2.392 1.15 -2.681 0.489 -1.462 -0.382 -0.568 -0.862 -0.117 0.024 -0.085 1.499 2.126 0.945 3.157 -0.58 2.735 -1.321 1.565 -1.705 0.428 -1.818 -0.614 -1.928 -1.697 -1.738 -4.278 -2.53 0.023 0.1 2.142 -1.078 1.598 -1.712 0.612 -1.848 -0.256 -1.714 -1.202 -1.528 -2.034 -0.98 -2.464 -0.225 -2.799 0.822 -2.194 1.431 -2.133 2.632 -0.367 1.873" />
    <path class="write-flat-pen" fill="#FFFFFF" stroke-width="1.6" __comx="394.773" __comy="82.315" __timestamp="0x17815360e70" d="M394.456 81.888 l-1.88 0.208 -0.275 0.137 -1.301 1.227 -0.542 1.758 0.432 1.608 1.149 1.062 2.158 0.305 2.321 -0.843 1.792 -1.552 0.779 -1.631 -0.289 -1.543 -1.341 -0.947 -2.351 -0.882 -0.056 0.106 1.991 1.4 0.835 0.853 0.107 0.854 -0.549 1.122 -1.471 1.283 -1.886 0.7 -1.589 -0.197 -0.726 -0.634 -0.334 -1.066 0.323 -1.321 0.975 -1.098 0.083 -0.059 1.712 -0.526" />
    <path class="write-flat-pen" fill="#FFFFFF" stroke-width="1.6" __comx="347.21" __comy="79.553" __timestamp="0x17815361339" d="M333.993 79.882 l3.874 0.051 0.694 0.044 18.392 0.092 3.487 -0.209 0.002 -0.13 -3.481 -0.32 -18.377 -0.262 -0.71 -0.023 -3.895 0.283" />
    <path class="write-flat-pen" fill="#FFFFFF" stroke-width="1.6" __comx="358.533" __comy="77.507" __timestamp="0x1781536154b" d="M356.145 79.575 l-1.34 -2.932 -0.02 -0.061 -0.629 -1.736 0 0 -0.61 0.672 7.632 2.294 1.212 0.774 0.214 0.58 -1.747 3.9 -1.421 2.816 0.158 0.11 2.209 -2.386 2.043 -4.397 -0.522 -1.383 -1.675 -1.055 -7.819 -2.222 -0.61 0.672 0 0 0.746 1.683 0.042 0.099 1.668 2.815" />
    <path class="write-flat-pen" fill="#8F3AC9" stroke-width="1.6" __comx="349.599" __comy="137.687" __timestamp="0x178153621ff" d="M328.865 166.494 l12.788 -16.818 1.312 -1.701 11.002 -14.426 14.305 -17.643 0.686 -0.941 1.849 -2.528 -0.103 -0.086 -2.152 2.276 -0.803 0.847 -14.556 17.463 -10.98 14.464 -1.302 1.714 -12.52 17.026" />
    <path class="write-flat-pen" fill="#8F3AC9" stroke-width="1.6" __comx="365.045" __comy="109.594" __timestamp="0x178153624ca" d="M368.19 110.579 l-1.499 -0.558 -0.363 0.072 -5.998 3.046 -0.106 0.041 -0.712 0.028 0 0 0.549 0.599 0.14 -0.768 2.256 -2.559 2.96 -2.301 1.566 -0.627 0.704 0.225 0.783 1.092 1.037 7.914 1.407 2.875 0.142 -0.047 -0.571 -3.048 -0.912 -8.126 -1.184 -1.631 -1.451 -0.455 -2.087 0.844 -3.155 2.48 -2.508 2.89 -0.152 1.081 0.549 0.599 0 0 0.878 -0.081 0.3 -0.133 5.8 -3.331 0.125 -0.046 1.434 0.197" />
    <path class="write-flat-pen" fill="#FFFFFF" stroke-width="1.6" __comx="331.827" __comy="241.267" __timestamp="0x17815363dc5" d="M330.447 260.683 l0.191 -6.334 0.14 -1.251 2.65 -29.389 0.297 -3.058 -0.101 -0.015 -0.585 3.026 -2.985 29.364 -0.123 1.285 0.142 6.371" />
    <path class="write-flat-pen" fill="#FFFFFF" stroke-width="1.6" __comx="332.887" __comy="220.757" __timestamp="0x17815363fda" d="M331.544 219.172 l-3.836 6.933 0.002 -0.005 0 0 -0.376 0.31 0 0 0.611 0.382 0.621 -2.176 1.875 -3.29 1.085 -0.964 0.953 -0.123 1.022 0.643 2.704 3.443 2.249 2.37 0.1 -0.08 -1.799 -2.717 -2.664 -3.665 -1.43 -0.862 -1.493 0.218 -1.365 1.222 -1.976 3.499 -0.606 2.283 0.611 0.382 0 0 0.425 -0.394 0 0 0.071 -0.106 3.546 -7.131" />
    <path class="write-flat-pen" fill="#FFFFFF" stroke-width="1.6" __comx="468.193" __comy="130.594" __timestamp="0x178153645f5" d="M449.178 130.658 l2.485 -0.199 0.692 0.08 11.313 1.603 9.434 0.57 9.814 -0.392 1.189 -0.133 3.153 -0.352 -0.006 -0.09 -3.172 0.046 -1.187 0.016 -9.776 0.103 -9.368 -0.587 -11.315 -1.48 -0.789 -0.055 -2.517 0.524" />
    <path class="write-flat-pen" transform="translate(13.835,-8.79)" fill="#FFFFFF" stroke-width="1.6" __comx="501.437" __comy="118.191" __timestamp="0x178153647db" d="M484.678 127.757 l-1.316 -2.068 0.036 -0.433 0.802 -0.13 2.679 0.929 3.674 2.141 0.808 1.052 0.206 1.253 -1.29 3.936 -1.159 3.051 0.135 0.07 1.852 -2.772 1.412 -4.217 -0.321 -1.696 -1.075 -1.333 -3.901 -2.24 -2.973 -0.98 -1.563 0.363 0.053 1.204 1.582 2.118" />
    <path class="write-flat-pen" fill="#8F3AC9" stroke-width="1.6" __comx="331.623" __comy="293.233" __timestamp="0x17815366ac8" d="M324.604 292.263 l-0.005 -1.148 0.127 -0.004 1.101 1.394 1.512 3.545 0 0 1.729 8.047 0 0 1.045 -0.236 -0.585 -2.616 0.116 -2.645 0.741 -2.225 0.941 -1.123 0.97 -0.392 0.968 0.23 1.587 1.418 2.349 3.93 1.89 2.792 0.089 -0.046 -1.195 -3.171 -2.271 -4.2 -1.923 -1.727 -1.579 -0.377 -1.551 0.623 -1.259 1.491 -0.857 2.574 -0.122 2.948 0.646 2.754 1.045 -0.236 0 0 -1.879 -8.11 0 0 -1.709 -3.695 -1.684 -1.796 -0.779 0.588 0.181 1.439" />
    <path class="write-flat-pen" fill="#8F3AC9" stroke-width="1.6" __comx="370.099" __comy="147.206" __timestamp="0x17815367548" d="M364.185 145.719 l0.089 -2.074 -0.596 0.229 -0.011 0.009 2.383 7.434 0.138 0.555 0 0 1.019 6.588 0 0 1.156 0.024 0.768 -3.625 1.032 -2.18 0.91 -0.782 0.81 -0.041 1.297 0.986 1.339 2.203 1.064 4.309 -0.09 2.185 0.116 0.029 0.989 -2.202 -0.952 -4.773 -1.555 -2.569 -1.826 -1.394 -1.665 0.075 -1.428 1.218 -1.204 2.548 -0.757 3.777 1.156 0.024 0 0 -1.141 -6.617 0 0 -0.171 -0.639 -2.765 -7.481 -0.093 -0.089 -0.596 0.229 0.261 2.06" />
    <path class="write-flat-pen" fill="#8F3AC9" stroke-width="1.6" __comx="369.883" __comy="140.539" __timestamp="0x17815367662" d="M364.55 141.605 l0.517 -0.834 1.566 -0.406 5.841 0.157 3.28 -0.028 0.008 -0.141 -3.256 -0.42 -5.972 -0.421 -1.992 0.617 -0.539 1.191" />
    <path class="write-flat-pen" fill="#FFFFFF" stroke-width="1.6" __comx="346.326" __comy="55.351" __timestamp="0x1781536829d" d="M339.98 53.97 l0.19 -1.732 0.015 0.009 -0.647 -0.038 1.522 3.359 0.177 0.646 0 0 1.602 10.231 0 0 0.702 0.884 0 0 1.094 -0.225 1.56 -5.397 0.651 -0.848 -0.961 0.057 4.319 4.161 2.913 1.316 0.076 -0.124 -2.395 -1.938 -4.002 -4.31 -0.961 0.057 -0.807 1.039 -1.605 5.64 1.094 -0.225 0 0 -0.517 -0.611 0 0 -1.687 -9.95 0 0 -0.24 -0.804 -1.868 -3.3 -0.647 -0.038 -0.102 0.185 0.122 1.947" />
    <path class="write-flat-pen" fill="#FFFFFF" stroke-width="1.6" __comx="354.603" __comy="440.648" __timestamp="0x17815368b3c" d="M359.316 443 l0.412 -3.383 0.034 -0.293 0.04 -2.488 -0.71 -1.526 -1.507 -0.793 -1.943 0.373 -1.835 1.511 -1.331 2.468 -0.34 2.371 0.514 2.169 1.272 1.38 1.418 0.174 1.652 -0.96 0 0 1.893 -3.619 0 0 -1.148 -0.193 1.36 9.236 0.163 4.837 -0.481 2.816 -1.058 2.141 -1.209 1.002 -1.769 0.581 -2.054 -0.107 -1.858 -0.858 -0.869 -1.009 0.133 -2.497 0.199 -0.487 1.16 -2.655 -0.148 -0.085 -1.703 2.344 -0.415 0.586 -0.516 3.173 1.334 1.691 2.357 1.109 2.561 0.129 2.239 -0.746 1.609 -1.347 1.248 -2.567 0.514 -3.131 -0.191 -5.034 -1.394 -9.301 -1.148 -0.193 0 0 -1.719 3.315 0 0 -0.997 0.585 -0.578 -0.069 -0.764 -0.823 -0.395 -1.643 0.268 -1.943 1.104 -2.099 1.425 -1.213 1.296 -0.297 0.917 0.415 0.554 1.008 0.113 2.247 -0.012 0.263 -0.081 3.41" />
    <path class="write-flat-pen" fill="#FFFFFF" stroke-width="1.6" __comx="367.262" __comy="440.648" __timestamp="0x17815368c04" d="M367.475 445.958 l-0.679 1.244 -0.387 0.757 0.062 0.067 0.866 -0.393 0.779 -1.309" />
    <path class="write-flat-pen" fill="#FFFFFF" stroke-width="1.6" __comx="368.29" __comy="440.648" __timestamp="0x17815368cbe" d="M367.951 425.545 l-0.139 0.775 0.51 1.235 0.09 -0.012 0.179 -1.189 0.178 -0.623" />
    <path class="write-flat-pen" fill="#FFFFFF" stroke-width="1.6" __comx="380.618" __comy="440.648" __timestamp="0x17815368dde" d="M380.618 428.33 l-0.531 4.869 0.009 0.835 0.224 10.914 0.466 3.438 0.102 -0.004 0.178 -3.454 -0.086 -10.907 -0.018 -0.796 0.188 -4.855" />
    <path class="write-flat-pen" fill="#FFFFFF" stroke-width="1.6" __comx="384.541" __comy="440.648" __timestamp="0x1781536900b" d="M378.763 431.535 l0.162 -0.936 1.106 -0.916 1.8 -0.581 1.87 0.058 1.359 0.588 0.536 0.758 0.034 1.089 -0.809 1.761 0 0 -3.013 3.12 0 0 0.37 0.936 3.494 0.16 1.987 0.669 1.371 1.137 0.679 1.296 0.104 1.892 -0.739 2.043 -1.67 1.827 -2.062 1.214 -2.414 0.607 -1.235 -0.47 -0.868 -1.243 -0.17 0.065 0.309 1.835 1.823 1.081 3.013 -0.767 2.35 -1.41 1.921 -2.142 0.868 -2.481 -0.159 -2.353 -0.904 -1.683 -1.689 -1.393 -2.312 -0.784 -3.64 -0.203 0.37 0.936 0 0 3.139 -3.259 0 0 0.989 -2.169 -0.061 -1.675 -0.912 -1.265 -1.832 -0.769 -2.257 -0.03 -2.133 0.778 -1.382 1.369 -0.011 1.263" />
    <path class="write-flat-pen" fill="#FFFFFF" stroke-width="1.6" __comx="406.139" __comy="440.648" __timestamp="0x178153691a1" d="M399.376 440.875 l10.135 -0.133 3.394 -0.423 -0.004 -0.073 -3.406 -0.036 -10.123 -0.016" />
    <path class="write-flat-pen" fill="#FFFFFF" stroke-width="1.6" __comx="413.098" __comy="440.648" __timestamp="0x1781536934f" d="M410.169 438.597 l-0.759 -0.837 0.019 -0.707 0.342 -0.308 1.401 0.044 4.501 1.852 0.842 0.866 -0.014 1.021 -1.962 4.27 0.044 2.569 0.133 0.022 0.84 -2.27 2.156 -4.315 -0.015 -1.785 -1.371 -1.364 -4.942 -1.968 -2.068 0.043 -0.838 1.005 0.194 1.383 1.108 0.895" />
    <path class="write-flat-pen" fill="#FFFFFF" stroke-width="1.6" __comx="423.839" __comy="440.648" __timestamp="0x1781536944c" d="M422.934 430.415 l1.051 14.59 0.296 2.187 0.074 0.002 0.388 -2.208 -1.015 -14.627" />
    <path class="write-flat-pen" fill="#FFFFFF" stroke-width="1.6" __comx="429.35" __comy="440.648" __timestamp="0x1781536965f" d="M425.503 428.807 l0.924 -0.846 1.812 -0.287 1.839 0.32 0.885 0.654 0.56 1.163 -0.121 1.497 -0.939 1.701 0 0 -2.508 1.542 0 0 0.354 0.954 1.643 -0.272 1.5 0.431 0.921 1.031 0.212 1.65 -0.794 2.278 -1.486 2.133 -1.818 1.499 -1.312 0.482 -0.591 -0.112 -1.239 -0.805 -0.124 0.114 0.838 1.45 1.089 0.564 1.923 -0.66 2.098 -1.738 1.654 -2.407 0.897 -2.691 -0.342 -2.231 -1.364 -1.466 -2.001 -0.569 -1.871 0.296 0.354 0.954 0 0 2.742 -1.683 0 0 1.181 -2.136 0.16 -2.001 -0.799 -1.646 -1.297 -0.941 -2.256 -0.347 -2.237 0.47 -1.011 1.152" />
    <path class="write-flat-pen" fill="#FFFFFF" stroke-width="1.6" __comx="393.015" __comy="449.717" __timestamp="0x178153760bf" d="M394.722 449.118 l-1.436 -0.628 -0.216 0.036 -1.376 0.779 -1.367 2.171 -0.423 2.231 0.557 1.655 1.406 1.017 1.482 -0.092 1.521 -1.037 1.156 -1.97 0.097 -1.649 -0.673 -1.859 0.394 -1.555 -0.083 -0.043 -1.179 1.508 0.412 2.072 -0.047 1.206 -0.878 1.55 -1.077 0.755 -0.83 0.066 -0.861 -0.599 -0.398 -1.105 0.292 -1.83 1.071 -1.942 1.03 -0.774 -0.041 0 1.396 0.26" />
    <path class="write-flat-pen" fill="#FFFFFF" stroke-width="1.6" __comx="438.65" __comy="444.814" __timestamp="0x178153763f4" d="M438.956 442.721 l-1.006 3.336 -0.014 0.61 0.593 6.389 0.644 3.402 0.144 -0.016 -0.101 -3.453 -0.501 -6.354 -0.007 -0.483 0.657 -3.329" />
    <path class="write-flat-pen" transform="translate(260.436,-3.043)" fill="#FFFFFF" stroke-width="1.6" __comx="553.664" __comy="160.073" __timestamp="0x1781535aaf9" d="M284.559 179.042 l0.363 1.239 0.399 0.18 1.499 -2.027 0.144 -0.395 4.399 -14.141 0 0 1.654 -7.232 0 0 -0.297 -0.819 0 0 -1.204 0.199 -0.13 2.806 1.789 6.699 2.656 6.797 4.048 6.125 1.904 1.366 0.114 -0.105 -1.135 -1.942 -3.766 -6.039 -2.589 -6.607 -1.732 -6.437 0.085 -2.613 -1.204 0.199 0 0 0.196 0.464 0 0 -1.519 6.842 0 0 -4.204 14.141 -0.082 0.276 -0.867 1.679 0.286 0.133 -0.564 -0.893" />
    <path class="write-flat-pen" transform="translate(260.436,-3.043)" fill="#FFFFFF" stroke-width="1.6" __comx="554.35" __comy="160.073" __timestamp="0x1781535abe5" d="M286.829 172.79 l10.653 1.13 3.509 -0.146 0.008 -0.15 -3.451 -0.537 -10.643 -1.042" />
    <path class="write-flat-pen" transform="translate(260.436,-3.043)" fill="#FFFFFF" stroke-width="1.6" __comx="565.568" __comy="160.073" __timestamp="0x1781535ace3" d="M304.321 174.474 l-0.114 3.047 0.021 0.399 0.575 3.761 1.164 2.287 0.09 -0.031 -0.458 -2.45 -0.531 -3.66 -0.033 -0.343 -0.221 -3.018" />
    <path class="write-flat-pen" transform="translate(260.436,-3.043)" fill="#FFFFFF" stroke-width="1.6" __comx="563.626" __comy="160.073" __timestamp="0x1781535ae83" d="M303.26 146.866 l-0.117 0.058 -0.027 0.028 -0.011 0.023 -0.005 0.01 -0.005 0.011 -0.006 0.015 -0.005 0.016 -0.006 0.018 -0.006 0.021 -0.005 0.022 -0.005 0.023 -0.005 0.028 -0.001 0.033 -0.036 0.987 0.066 0.007 0.188 -0.97 0.005 -0.024 0.003 -0.016 0.004 -0.018 0.004 -0.015 0.004 -0.013 0.004 -0.013 0.003 -0.01 0.003 -0.007 0.003 -0.007 0.002 -0.004 -0.007 0.014 -0.024 0.024 0.084 -0.042" />
    <path class="write-flat-pen" transform="translate(260.436,-3.043)" fill="#FFFFFF" stroke-width="1.6" __comx="565.266" __comy="160.073" __timestamp="0x1781535b17e" d="M306.175 146.866 l-0.085 -1.65 -0.142 -0.261 -0.96 -0.735 -1.403 0.165 -1.235 1.279 -0.472 1.801 0.476 1.636 1.097 0.747 0 0 1.873 -0.819 -0.706 -0.401 0.244 1.975 0.877 1.118 1.998 1.009 0.045 -0.06 -1.414 -1.558 -0.531 -0.885 -0.216 -1.724 -0.706 -0.401 -1.362 0.604 0 0 -0.345 -0.231 -0.311 -1.029 0.321 -1.306 0.81 -0.91 0.766 -0.163 0.654 0.36 0.023 0.012 0.392 1.474" />
    <path class="write-flat-pen" transform="translate(260.436,-3.043)" fill="#FFFFFF" stroke-width="1.6" __comx="572.192" __comy="160.073" __timestamp="0x1781535b386" d="M308.615 143.024 l0.604 2.554 0.073 0.214 0.74 1.696 2.47 0.008 1.039 0.484 0.294 0.56 -0.159 0.495 -0.262 0.101 -0.075 -0.067 0.087 -0.839 0.812 -1.745 -0.045 -0.033 -1.552 1.421 -0.437 1.564 1.009 0.906 1.3 -0.56 0.385 -1.353 -0.655 -1.196 -1.535 -0.702 -2.109 0.062 -0.548 -1.113 -0.064 -0.16 -0.927 -2.432" />
    <path class="write-flat-pen" transform="translate(260.436,-3.043)" fill="#FFFFFF" stroke-width="1.6" __comx="560.865" __comy="75.46" __timestamp="0x1781535c41d" d="M292.017 86.734 l-0.136 1.045 0.459 0.249 0.127 -0.06 1.881 -3.196 0.262 -0.576 2.857 -8.164 0 0 1.7 -7.303 0 0 -1.096 0.074 3.329 8.908 2.357 4.467 2.483 2.577 2.656 1.144 0.078 -0.124 -2.064 -1.826 -2.177 -2.462 -2.253 -4.262 -3.337 -8.825 -1.096 0.074 0 0 -1.63 7.26 0 0 -2.736 8.101 -0.215 0.514 -1.479 3.17 0.038 -0.005 0.459 0.249 -0.196 -1.035" />
    <path class="write-flat-pen" transform="translate(260.436,-3.043)" fill="#FFFFFF" stroke-width="1.6" __comx="561.513" __comy="76.98" __timestamp="0x1781535c4e9" d="M294.085 80.181 l2.267 0.51 0.499 0.042 7.819 -0.139 3.399 -0.435 -0.006 -0.117 -3.412 -0.111 -7.779 -0.03 -0.436 -0.015 -2.28 -0.181" />
    <path class="write-flat-pen" transform="translate(260.436,-3.043)" fill="#FFFFFF" stroke-width="1.6" __comx="573.688" __comy="78.947" __timestamp="0x1781535c5b8" d="M312.863 79.15 l0.248 11.138 0.329 3.327 0.095 -0.003 0.105 -3.336 -0.041 -11.135" />
    <path class="write-flat-pen" transform="translate(260.436,-3.043)" fill="#FFFFFF" stroke-width="1.6" __comx="561.191" __comy="114.376" __timestamp="0x1781535c758" d="M300.548 100.545 l0.033 5.926 0.008 0.801 -0.359 12.213 -0.095 3.487 0.076 0.009 0.751 -3.44 0.412 -12.264 -0.025 -0.826 -0.383 -5.919" />
    <path class="write-flat-pen" transform="translate(260.436,-3.043)" fill="#FFFFFF" stroke-width="1.6" __comx="562.157" __comy="114.376" __timestamp="0x1781535c940" d="M298.365 122.693 l-0.589 0.001 0 0 -0.891 -2.618 0 0 -0.957 0.29 0.401 2.09 1.771 3.414 1.128 0.735 1.689 -0.093 4.239 -2.854 2.359 -2.348 -0.111 -0.14 -2.781 1.738 -4.087 2.429 -1.001 0.076 -0.569 -0.343 -1.615 -2.984 -0.439 -1.927 -0.957 0.29 0 0 1.377 3.01 0 0 1.109 -0.229" />
    <path class="write-flat-pen" transform="translate(260.436,-3.043)" fill="#FFFFFF" stroke-width="1.6" __comx="637.757" __comy="71.052" __timestamp="0x17815360a9d" d="M377.237 71.874 l-0.527 -0.224 -0.161 3.523 0.017 0.741 0.653 11.399 0.706 3.388 0.136 -0.013 0.031 -3.443 -0.672 -11.369 -0.031 -0.716 -0.175 -3.509 -0.476 0.276" />
    <path class="write-flat-pen" transform="translate(260.436,-3.043)" fill="#FFFFFF" stroke-width="1.6" __comx="641.468" __comy="71.409" __timestamp="0x17815360d21" d="M373.872 75.882 l0.525 -1.617 2.002 -2.262 1.953 -1.219 2.45 -0.693 2.047 0.195 1.608 0.783 0.844 1.086 0.164 1.141 -0.452 1.342 -1.284 1.372 -2.722 1.372 0.218 1.275 4.617 2.715 1.399 1.436 0.427 1.367 -0.295 1.209 -1.216 1.309 -2.392 1.15 -2.681 0.489 -1.462 -0.382 -0.568 -0.862 -0.117 0.024 -0.085 1.499 2.126 0.945 3.157 -0.58 2.735 -1.321 1.565 -1.705 0.428 -1.818 -0.614 -1.928 -1.697 -1.738 -4.278 -2.53 0.023 0.1 2.142 -1.078 1.598 -1.712 0.612 -1.848 -0.256 -1.714 -1.202 -1.528 -2.034 -0.98 -2.464 -0.225 -2.799 0.822 -2.194 1.431 -2.133 2.632 -0.367 1.873" />
    <path class="write-flat-pen" transform="translate(260.436,-3.043)" fill="#FFFFFF" stroke-width="1.6" __comx="655.21" __comy="79.272" __timestamp="0x17815360e70" d="M394.456 81.888 l-1.88 0.208 -0.275 0.137 -1.301 1.227 -0.542 1.758 0.432 1.608 1.149 1.062 2.158 0.305 2.321 -0.843 1.792 -1.552 0.779 -1.631 -0.289 -1.543 -1.341 -0.947 -2.351 -0.882 -0.056 0.106 1.991 1.4 0.835 0.853 0.107 0.854 -0.549 1.122 -1.471 1.283 -1.886 0.7 -1.589 -0.197 -0.726 -0.634 -0.334 -1.066 0.323 -1.321 0.975 -1.098 0.083 -0.059 1.712 -0.526" />
    <path class="write-flat-pen" transform="translate(260.436,-3.043)" fill="#FFFFFF" stroke-width="1.6" __comx="607.646" __comy="76.51" __timestamp="0x17815361339" d="M333.993 79.882 l3.874 0.051 0.694 0.044 18.392 0.092 3.487 -0.209 0.002 -0.13 -3.481 -0.32 -18.377 -0.262 -0.71 -0.023 -3.895 0.283" />
    <path class="write-flat-pen" transform="translate(260.436,-3.043)" fill="#FFFFFF" stroke-width="1.6" __comx="618.97" __comy="74.464" __timestamp="0x1781536154b" d="M356.145 79.575 l-1.34 -2.932 -0.02 -0.061 -0.629 -1.736 0 0 -0.61 0.672 7.632 2.294 1.212 0.774 0.214 0.58 -1.747 3.9 -1.421 2.816 0.158 0.11 2.209 -2.386 2.043 -4.397 -0.522 -1.383 -1.675 -1.055 -7.819 -2.222 -0.61 0.672 0 0 0.746 1.683 0.042 0.099 1.668 2.815" />
    <path class="write-flat-pen" transform="translate(260.436,-3.043)" fill="#8F3AC9" stroke-width="1.6" __comx="610.035" __comy="134.644" __timestamp="0x178153621ff" d="M328.865 166.494 l12.788 -16.818 1.312 -1.701 11.002 -14.426 14.305 -17.643 0.686 -0.941 1.849 -2.528 -0.103 -0.086 -2.152 2.276 -0.803 0.847 -14.556 17.463 -10.98 14.464 -1.302 1.714 -12.52 17.026" />
    <path class="write-flat-pen" transform="translate(260.436,-3.043)" fill="#8F3AC9" stroke-width="1.6" __comx="625.481" __comy="106.551" __timestamp="0x178153624ca" d="M368.19 110.579 l-1.499 -0.558 -0.363 0.072 -5.998 3.046 -0.106 0.041 -0.712 0.028 0 0 0.549 0.599 0.14 -0.768 2.256 -2.559 2.96 -2.301 1.566 -0.627 0.704 0.225 0.783 1.092 1.037 7.914 1.407 2.875 0.142 -0.047 -0.571 -3.048 -0.912 -8.126 -1.184 -1.631 -1.451 -0.455 -2.087 0.844 -3.155 2.48 -2.508 2.89 -0.152 1.081 0.549 0.599 0 0 0.878 -0.081 0.3 -0.133 5.8 -3.331 0.125 -0.046 1.434 0.197" />
    <path class="write-flat-pen" transform="translate(260.436,-3.043)" fill="#8F3AC9" stroke-width="1.6" __comx="630.535" __comy="144.164" __timestamp="0x17815367548" d="M364.185 145.719 l0.089 -2.074 -0.596 0.229 -0.011 0.009 2.383 7.434 0.138 0.555 0 0 1.019 6.588 0 0 1.156 0.024 0.768 -3.625 1.032 -2.18 0.91 -0.782 0.81 -0.041 1.297 0.986 1.339 2.203 1.064 4.309 -0.09 2.185 0.116 0.029 0.989 -2.202 -0.952 -4.773 -1.555 -2.569 -1.826 -1.394 -1.665 0.075 -1.428 1.218 -1.204 2.548 -0.757 3.777 1.156 0.024 0 0 -1.141 -6.617 0 0 -0.171 -0.639 -2.765 -7.481 -0.093 -0.089 -0.596 0.229 0.261 2.06" />
    <path class="write-flat-pen" transform="translate(260.436,-3.043)" fill="#8F3AC9" stroke-width="1.6" __comx="630.319" __comy="137.496" __timestamp="0x17815367662" d="M364.55 141.605 l0.517 -0.834 1.566 -0.406 5.841 0.157 3.28 -0.028 0.008 -0.141 -3.256 -0.42 -5.972 -0.421 -1.992 0.617 -0.539 1.191" />
    <path class="write-flat-pen" transform="translate(260.436,-3.043)" fill="#FFFFFF" stroke-width="1.6" __comx="606.762" __comy="52.308" __timestamp="0x1781536829d" d="M339.98 53.97 l0.19 -1.732 0.015 0.009 -0.647 -0.038 1.522 3.359 0.177 0.646 0 0 1.602 10.231 0 0 0.702 0.884 0 0 1.094 -0.225 1.56 -5.397 0.651 -0.848 -0.961 0.057 4.319 4.161 2.913 1.316 0.076 -0.124 -2.395 -1.938 -4.002 -4.31 -0.961 0.057 -0.807 1.039 -1.605 5.64 1.094 -0.225 0 0 -0.517 -0.611 0 0 -1.687 -9.95 0 0 -0.24 -0.804 -1.868 -3.3 -0.647 -0.038 -0.102 0.185 0.122 1.947" />
    <path class="write-flat-pen" fill="#FFFFFF" stroke-width="1.6" __comx="756.462" __comy="78.423" __timestamp="0x17815379bf2" d="M753.761 68.599 l2.53 6.793 0.252 0.919 1.856 12.143 0.403 2.389 0.117 -0.004 0.243 -2.455 -1.855 -12.238 -0.29 -1 -2.869 -6.7" />
    <path class="write-flat-pen" fill="#FFFFFF" stroke-width="1.6" __comx="761.528" __comy="78.423" __timestamp="0x17815379e6f" d="M754.52 68.313 l-0.836 -0.295 0.089 -0.34 1.101 -1.08 2.434 -1.201 2.66 -0.523 1.944 0.186 1.278 0.728 0.675 1.098 0.028 1.347 -0.701 1.477 -1.725 1.606 0.149 1.117 4.313 2.988 2.081 2.139 0.897 1.945 0.085 1.4 -0.641 1.784 -1.401 1.535 -1.852 0.886 -2.457 0.376 -3.486 -0.627 -1.101 -0.508 -0.087 0.088 0.713 1.295 3.925 0.973 2.85 -0.445 2.215 -1.073 1.702 -1.889 0.782 -2.232 -0.122 -1.847 -1.071 -2.313 -2.29 -2.361 -3.979 -2.769 -0.002 -0.022 1.442 -1.36 0.897 -1.923 -0.054 -1.917 -0.99 -1.593 -1.734 -0.981 -2.342 -0.215 -2.956 0.612 -2.684 1.408 -1.367 1.517 0.005 1.289 1.47 0.287" />
    <path class="write-flat-pen" fill="#FFFFFF" stroke-width="1.6" __comx="776.033" __comy="78.423" __timestamp="0x17815379f36" d="M775.516 78.709 l-0.133 8.294 1.209 2.971 0.091 -0.026 -0.497 -3.054 0 -8.18" />
    <path class="write-flat-pen" fill="#8F3AC9" stroke-width="1.6" __comx="705.425" __comy="74.786" __timestamp="0x1781537b49b" d="M685.032 74.081 l-1.701 0.176 -0.336 0.597 0 0 0.174 0.428 2.127 0.927 8.321 1.233 11.805 0.683 16.843 -0.207 1.195 -0.066 1.194 -0.084 3.202 -0.223 -0.002 -0.11 -3.207 -0.115 -1.198 -0.044 -1.192 -0.01 -16.809 -0.097 -11.739 -0.657 -8.206 -1.089 -2.1 -0.735 0.174 0.428 0 0 0.107 -0.388 1.403 -0.257" />
    <path class="write-flat-pen" fill="#8F3AC9" stroke-width="1.6" __comx="730.461" __comy="73.604" __timestamp="0x1781537b6df" d="M727.025 76.856 l0.309 -1.589 0.01 -0.26 -0.781 -3.889 -0.103 -0.172 -0.951 -0.973 -0.736 0.476 0 0 -0.076 0.787 1.421 1.498 3.123 1.302 5.209 1.003 0.325 0.263 -2.032 3.675 -1.4 3.014 0.369 0.218 1.97 -2.693 2.541 -4.51 -1.307 -1 -5.359 -1.027 -2.819 -1.159 -1.296 -1.307 -0.076 0.787 0 0 0.039 -0.065 0.338 0.284 -0.027 -0.048 1.07 3.606 0.018 0.168 0.017 1.59" />
    <path class="write-flat-pen" fill="#8F3AC9" stroke-width="1.6" __comx="714.232" __comy="46.497" __timestamp="0x1781537ba87" d="M713.796 46.523 l-0.08 -2.833 -0.215 -0.289 -1.222 -0.719 -1.664 0.227 -1.597 1.212 -1.024 1.995 -0.053 1.82 0.945 1.291 1.614 0.281 1.666 -0.746 0 0 1.754 -1.893 0 0 0.788 -1.917 0 0 -1.154 -0.135 1.461 9.373 -0.082 3.053 -0.505 1.132 -1.106 0.9 -0.796 0.112 -0.171 -0.15 0.103 -0.853 0.944 -1.318 3.675 -2.008 0.336 -0.118 3.111 -1.003 -0.03 -0.151 -3.259 0.256 -0.491 0.046 -4.21 1.952 -1.366 1.834 -0.237 1.935 1.211 0.984 1.736 -0.28 1.6 -1.346 0.708 -1.647 0.058 -3.411 -1.5 -9.477 -1.154 -0.135 0 0 -0.699 1.72 0 0 -1.434 1.566 0 0 -1.115 0.51 -0.804 -0.129 -0.448 -0.592 0.018 -1.178 0.766 -1.571 1.162 -0.944 1.073 -0.208 0.828 0.394 -0.034 -0.055 0.402 2.557" />
    <path class="write-flat-pen" fill="#8F3AC9" stroke-width="1.6" __comx="400.287" __comy="277.88" __timestamp="0x1781537c7bd" d="M394.466 276.712 l0.164 -3.047 0.022 -0.009 0 0 -0.477 0.049 0.6 0.777 1.137 4.562 0.961 7.872 0 0 0.039 5.863 0 0 1.069 -0.021 -0.042 -2.101 0.882 -3.302 1.394 -2.684 1.215 -1.207 0.927 -0.288 0.934 0.391 1.03 1.601 1.185 5.574 0.84 3.143 0.155 -0.02 0.018 -3.293 -1.181 -5.82 -1.313 -2.055 -1.609 -0.69 -1.571 0.483 -1.531 1.518 -1.527 2.946 -0.95 3.573 0.075 2.259 1.069 -0.021 0 0 -0.11 -5.919 0 0 -1.05 -7.979 -1.325 -4.786 -0.882 -0.791 -0.477 0.049 0 0 -0.084 0.163 0.163 3.21" />
    <path class="write-flat-pen" fill="#8F3AC9" stroke-width="1.6" __comx="402.59" __comy="234.669" __timestamp="0x1781537c9d0" d="M403.675 250.217 l-0.773 -2.498 -0.076 -0.659 -0.801 -26.536 -0.015 -3.312 -0.101 -0.006 -0.404 3.309 0.549 26.607 0.119 0.783 1.117 2.46" />
    <path class="write-flat-pen" fill="#8F3AC9" stroke-width="1.6" __comx="402.426" __comy="216.629" __timestamp="0x1781537cbe4" d="M400.922 218.81 l-0.021 -0.245 -0.029 -1.403 -0.561 -0.223 0.561 0.223 -0.561 -0.223 -1.27 1.034 0 0 -3.378 5.407 0 0 0.853 0.476 5.103 -9.958 0.499 -0.361 0.459 0.494 2.561 6.567 1.451 2.02 2.519 1.983 0.1 -0.103 -1.992 -2.4 -1.182 -1.964 -2.575 -6.659 -1.213 -1.286 -1.419 1.031 -5.181 10.191 0.853 0.476 0 0 3.184 -5.382 0 0 1.079 -1.064 -0.561 -0.223 0.561 0.223 -0.561 -0.223 0.211 1.387 0.021 0.245" />
    <path class="write-flat-pen" fill="#8F3AC9" stroke-width="1.6" __comx="399.414" __comy="190.083" __timestamp="0x1781537cef8" d="M394.196 187.86 l0.291 -0.929 -0.688 0.078 0.022 0.105 1.436 9.29 0.081 0.55 0 0 0.689 3.163 0 0 1.123 0.03 1.322 -4.555 1.091 -1.876 0.936 -0.592 0.772 0.046 0.901 0.703 0.978 2.091 0.949 5.77 0.942 0.041 -0.022 -0.133 -0.041 -0.216 -0.23 -1.032 -0.064 -0.006 -0.432 0.965 -0.078 0.149 -0.066 0.056 0.942 0.041 -0.725 -5.984 -1.174 -2.52 -1.426 -1.118 -1.542 -0.097 -1.526 0.959 -1.319 2.271 -1.302 4.721 1.123 0.03 0 0 -0.734 -3.112 0 0 -0.083 -0.521 -1.795 -9.311 -0.078 -0.16 -0.688 0.078 0.032 0.973" />
    <path class="write-flat-pen" fill="#8F3AC9" stroke-width="1.6" __comx="400.994" __comy="179.798" __timestamp="0x1781537d020" d="M391.837 180.006 l3.273 -0.082 0.593 0.098 11.048 1.818 3.423 0.082 0.022 -0.239 -3.353 -0.527 -10.986 -2.074 -0.713 -0.097 -3.352 0.426" />
    <path class="write-flat-pen" fill="#8F3AC9" stroke-width="1.6" __comx="439.985" __comy="196.265" __timestamp="0x1781537d5f7" d="M428.067 196.183 l3.862 1.157 16.535 0.386 3.44 -0.25 -0.001 -0.111 -3.432 -0.214 -16.43 -0.584 -3.84 -0.891" />
    <path class="write-flat-pen" fill="#8F3AC9" stroke-width="1.6" __comx="450.755" __comy="194.976" __timestamp="0x1781537d7bc" d="M448.429 195.93 l-1.209 -2.925 -0.165 0.594 6.197 1.676 0.715 0.541 0.199 0.918 -0.617 3.298 -0.296 3.291 0.287 0.058 1.009 -3.146 0.765 -3.511 -0.348 -1.551 -1.223 -0.916 -7.363 -1.834 -0.186 0.67 1.678 3.104" />
    <path class="write-flat-pen" fill="#8F3AC9" stroke-width="1.6" __comx="471.788" __comy="197.449" __timestamp="0x1781537e42b" d="M474.617 197.477 l1.238 -1.49 0.117 -0.308 0.3 -1.591 -0.568 -1.286 -1.331 -0.533 -2.1 0.373 -1.804 1.148 -1.382 2.02 -0.59 2.308 0.236 2.054 1.01 1.258 1.501 0.186 0 0 1.748 -1.198 0 0 2.205 -4.829 0 0 -1.115 -0.211 0.666 13.115 -0.32 3.818 -0.632 1.722 -1.168 1.241 -1.03 0.409 -1.385 -0.219 -0.996 -0.847 -0.568 -1.48 0.121 -1.491 2.367 -4.264 0.371 -0.504 2.018 -2.69 -0.159 -0.143 -2.463 2.29 -0.522 0.488 -2.86 4.412 -0.219 2.082 0.784 2.096 1.55 1.312 2.119 0.318 1.63 -0.668 1.528 -1.66 0.76 -2.135 0.304 -4.071 -0.73 -13.193 -1.115 -0.211 0 0 -2.059 4.545 0 0 -1.122 0.783 0 0 -0.619 -0.069 -0.529 -0.643 -0.189 -1.53 0.477 -1.93 1.135 -1.697 1.438 -0.948 1.625 -0.34 0.759 0.247 0.389 0.697 -0.099 1.315 -0.039 0.179 -0.9 1.614" />
    <path class="write-flat-pen" fill="#8F3AC9" stroke-width="1.6" __comx="485.808" __comy="187.671" __timestamp="0x1781537e6cd" d="M478.53 183.752 l0.71 0.647 0.082 0.196 1.485 4.863 0 0 0.819 6.026 0 0 -0.449 8.942 0 0 1.191 0.312 2.608 -5.117 1.946 -2.553 1.025 -0.589 0.874 0.015 1 0.615 1.061 1.632 1.192 4.853 0.383 0.544 0.14 0.013 0.489 -0.621 -1.055 -5.27 -1.33 -2.051 -1.518 -0.942 -1.554 -0.037 -1.549 0.875 -2.18 2.839 -2.656 5.222 1.191 0.312 0 0 0.311 -9.052 0 0 -0.958 -6.2 0 0 -1.75 -4.934 -0.233 -0.409 -1.046 -0.488" />
    <path class="write-flat-pen" fill="#8F3AC9" stroke-width="1.6" __comx="486.661" __comy="177.7" __timestamp="0x1781537e7f4" d="M475.492 178.337 l3.409 -0.482 15.713 0.383 3.329 -0.098 0.008 -0.182 -3.312 -0.391 -15.802 -0.635 -3.468 0.69" />
    <path class="write-flat-pen" fill="#D534A9" stroke-width="1.6" __comx="610.964" __comy="161.665" __timestamp="0x17815386226" d="M600.296 177.192 l8.12 1.129 4.804 -0.01 5.242 -1.224 3.17 -1.15 -0.032 -0.111 -3.273 0.71 -5.194 0.891 -4.656 -0.031 -8.082 -0.972" />
    <path class="write-flat-pen" fill="#D534A9" stroke-width="1.6" __comx="643.488" __comy="161.665" __timestamp="0x178153862fa" d="M637.006 171.552 l4.141 -0.408 5.858 -1.95 3.045 -1.351 -0.025 -0.068 -3.181 0.936 -5.871 1.596 -4.049 0.548" />
    <path class="write-flat-pen" fill="#D534A9" stroke-width="1.6" __comx="677.608" __comy="161.665" __timestamp="0x17815386423" d="M660.54 163.352 l5.245 -0.652 0.424 -0.056 8.649 -2.812 0.349 -0.157 0.385 -0.188 0.303 -0.138 0.402 -0.2 0.308 -0.145 0.446 -0.222 0.336 -0.156 0.384 -0.189 0.336 -0.154 0.369 -0.176 0.304 -0.134 0.421 -0.192 0.332 -0.139 0.346 -0.137 0.428 -0.179 0.365 -0.141 0.379 -0.139 0.432 -0.169 0.432 -0.154 0.459 -0.175 0.433 -0.151 0.501 -0.19 0.372 -0.132 0.486 -0.183 0.469 -0.165 0.527 -0.2 0.5 -0.175 0.515 -0.201 0.465 -0.17 0.565 -0.225 0.436 -0.164 0.598 -0.254 0.529 -0.232 0.566 -0.258 0.618 -0.288 0.587 -0.284 0.624 -0.313 0.534 -0.293 3.043 -1.669 -0.03 -0.064 -3.217 1.301 -0.561 0.226 -0.64 0.263 -0.6 0.246 -0.628 0.262 -0.569 0.241 -0.528 0.222 -0.584 0.245 -0.43 0.162 -0.562 0.228 -0.463 0.175 -0.51 0.208 -0.494 0.184 -0.524 0.212 -0.465 0.176 -0.483 0.198 -0.37 0.145 -0.494 0.208 -0.428 0.169 -0.454 0.196 -0.427 0.175 -0.426 0.191 -0.371 0.158 -0.367 0.164 -0.42 0.202 -0.338 0.156 -0.333 0.16 -0.414 0.212 -0.3 0.148 -0.364 0.189 -0.332 0.163 -0.381 0.194 -0.334 0.156 -0.447 0.217 -0.309 0.136 -0.405 0.184 -0.307 0.124 -0.392 0.167 -0.332 0.127 -8.672 2.456 -0.369 0.056 -5.198 0.993" />
    <path class="write-flat-pen" fill="#D534A9" stroke-width="1.6" __comx="709.447" __comy="161.665" __timestamp="0x178153864ab" d="M707.867 144.56 l1.764 -1.675 1.768 -1.832 -0.049 -0.056 -2.041 1.531 -1.814 1.629" />
    <path class="write-flat-pen" fill="#D534A9" stroke-width="1.6" __comx="720.966" __comy="131.358" __timestamp="0x17815386529" d="M719.647 133.562 l1.543 -2.138 1.561 -2.141 -0.081 -0.07 -1.888 1.886 -1.6 2.12" />
    <path class="write-flat-pen" fill="#D534A9" stroke-width="1.6" __comx="731.466" __comy="121.959" __timestamp="0x17815386595" d="M730.301 123.41 l1.126 -1.198 1.512 -1.649 -0.048 -0.052 -1.749 1.414 -1.149 1.192" />
    <path class="write-flat-pen" fill="#D534A9" stroke-width="1.6" __comx="745.925" __comy="102.601" __timestamp="0x178153868e1" d="M741.253 112.634 l5.66 -7.116 3.466 -5.452 0.395 -1.473 -0.831 -0.869 -2.606 0.02 -4.638 1.401 0.187 0.205 2.447 -2.596 1.938 -1.257 0.243 0.177 1.785 9.325 1.506 3.075 0.116 -0.044 -0.894 -3.231 -1.567 -9.746 -1.186 -0.762 -2.585 1.695 -3.091 3.313 0.77 0.936 5.106 -1.695 2.212 -0.142 0.483 0.382 -0.162 1.135 -3.346 5.423 -5.732 7.035" />
    <path class="write-flat-pen" fill="#D534A9" stroke-width="1.6" __comx="718.014" __comy="169.549" __timestamp="0x1781538ae62" d="M719.814 169.527 l1.324 0.165 1.27 -1.072 0.626 -1.71 -0.223 -1.695 -1.099 -1.328 -1.596 -0.397 -1.661 0.891 -1.192 2.112 -0.837 3.927 0.342 2.004 1.045 0.66 1.516 -0.845 0 0 1.852 -3.928 0 0 -1.134 -0.163 1.369 9.172 0.298 6.248 -0.391 2.981 -0.988 2.224 -1.271 1.06 -1.489 0.201 -1.173 -0.444 -1.3 -1.423 -0.701 -1.97 0.079 -1.971 0.959 -2.278 3.131 -3.245 0.527 -0.417 0.566 -0.444 2.652 -2.066 -0.078 -0.121 -2.987 1.543 -0.652 0.336 -0.659 0.398 -3.584 3.262 -1.246 2.71 -0.138 2.505 0.876 2.512 1.728 1.895 1.839 0.688 2.252 -0.321 1.821 -1.547 1.175 -2.715 0.399 -3.301 -0.371 -6.428 -1.457 -9.223 -1.134 -0.163 0 0 -1.677 3.59 0 0 -0.572 0.325 -0.015 -0.007 -0.219 -1.268 0.743 -3.539 0.93 -1.682 0.987 -0.555 0.849 0.183 0.723 0.808 0.224 1.175 -0.366 1.343 -0.797 0.884 -1.067 0.021" />
    <path class="write-flat-pen" fill="#D534A9" stroke-width="1.6" __comx="734.089" __comy="160.769" __timestamp="0x1781538b083" d="M729.587 156.207 l0.123 4.934 0 0 0.067 0.792 0 0 0.714 16.039 0 0 1.278 0.174 1.399 -4.126 1.381 -2.401 0.811 -0.529 0.472 0.057 0.699 0.895 0.951 4.624 0.583 2.06 0.122 -0.005 0.404 -2.181 -0.838 -5.047 -1.222 -1.573 -1.479 -0.192 -1.487 0.954 -1.612 2.788 -1.428 4.255 1.278 0.174 0 0 -1.046 -16.044 0 0 -0.093 -0.792 0 0 -0.445 -4.895" />
    <path class="write-flat-pen" fill="#D534A9" stroke-width="1.6" __comx="727.257" __comy="150.703" __timestamp="0x1781538b1b6" d="M708.421 157.749 l3.265 -0.113 0.984 -0.166 4.952 -1.274 7.586 -2.985 17.006 -8.229 1.069 -0.536 2.859 -1.427 -0.058 -0.138 -3.024 1.033 -1.149 0.391 -17.135 7.914 -7.482 2.985 -4.835 1.333 -0.898 0.184 -3.192 0.443" />
    <path class="write-flat-pen" fill="#D534A9" stroke-width="1.6" __comx="678.507" __comy="219.729" __timestamp="0x1781538b8b8" d="M648.099 248.434 l19.711 -17.96 1.681 -1.48 22 -18.972 14.381 -11.692 1.081 -0.887 2.355 -1.927 -0.078 -0.107 -2.563 1.64 -1.191 0.761 -14.617 11.451 -21.983 19.031 -1.681 1.504 -19.49 18.213" />
    <path class="write-flat-pen" fill="#D534A9" stroke-width="1.6" __comx="705.236" __comy="193.678" __timestamp="0x1781538baf8" d="M706.313 193.381 l-2.205 -0.743 -0.341 -0.037 0 0 -2.984 0.499 0 0 0.014 0.99 3.543 0.648 2.313 1.019 1.005 0.963 0.969 2.447 0.939 3.061 0.125 -0.021 -0.153 -3.276 -0.894 -2.849 -1.36 -1.279 -2.629 -1.127 -3.691 -0.578 0.014 0.99 0 0 2.836 -0.66 0 0 0.16 0.002 2.221 0.406" />
    <path class="write-flat-pen" fill="#FFFFFF" stroke-width="1.6" __comx="596.345" __comy="320.546" __timestamp="0x1781538ca73" d="M588.696 331.27 l0.444 -3.312 0 0 0.1 -0.477 0 0 5.391 -18.874 0 0 -1.124 -0.113 0.211 2.992 1.496 5.439 2.365 5.471 2.201 3.358 1.59 1.137 3.04 1.296 0.062 -0.107 -2.59 -1.95 -1.303 -1.109 -2.013 -3.153 -2.283 -5.318 -1.429 -5.258 -0.203 -2.88 -1.124 -0.113 0 0 -5.096 18.996 0 0 -0.086 0.556 0 0 -0.124 3.376" />
    <path class="write-flat-pen" fill="#FFFFFF" stroke-width="1.6" __comx="596.87" __comy="320.546" __timestamp="0x1781538cb51" d="M589.942 321.347 l2.295 -0.228 8.26 1.386 3.376 0.339 0.019 -0.107 -3.284 -0.846 -8.341 -1.688 -2.422 0.327" />
    <path class="write-flat-pen" fill="#FFFFFF" stroke-width="1.6" __comx="611.69" __comy="320.546" __timestamp="0x1781538cc21" d="M611.074 324.943 l0.355 8.93 0.83 3.11 0.047 -0.007 -0.138 -3.178 -0.513 -8.884" />
    <path class="write-flat-pen" fill="#FFFFFF" stroke-width="1.6" __comx="640.115" __comy="320.546" __timestamp="0x1781538cf90" d="M640.109 311.294 l-0.698 6.546 0.364 8.207 0.994 0.266 0.05 -0.081 -0.36 -0.58 -0.166 -7.788 0.48 -6.511" />
    <path class="write-flat-pen" fill="#FFFFFF" stroke-width="1.6" __comx="644.371" __comy="320.546" __timestamp="0x1781538d1a1" d="M638.952 310.757 l1.179 -1.055 2.931 -1.056 1.598 -0.097 0.464 0.413 0.012 0.982 -2.884 3.61 0.041 1.152 4.456 2.263 1.863 1.543 0.624 1.34 -0.031 1.185 -0.706 1.336 -1.187 0.805 -2.899 0.189 -1.545 -0.243 -0.038 0.079 1.381 1.138 3.474 -0.024 1.692 -1.166 0.942 -1.83 0.023 -1.708 -0.858 -1.783 -2.148 -1.762 -3.991 -2.034 -0.001 -0.118 2.878 -3.599 -0.021 -1.851 -1.168 -1.022 -2.199 0.165 -3.221 1.285 -1.214 1.3" />
    <path class="write-flat-pen" fill="#FFFFFF" stroke-width="1.6" __comx="656.005" __comy="320.546" __timestamp="0x1781538d2fe" d="M656.321 320.95 l-1.941 1.252 -0.268 0.211 -1.058 1.438 -0.207 1.653 0.682 1.407 1.501 0.779 1.695 -0.149 1.613 -1.05 0.825 -1.663 -0.423 -1.337 -1.496 -1.965 -0.104 0.053 0.662 2.265 0.128 0.849 -0.504 0.985 -1.098 0.729 -1.073 0.11 -0.887 -0.437 -0.402 -0.775 0.098 -1.072 0.77 -1.151 0.141 -0.126 1.723 -1.508" />
    <path class="write-flat-pen" fill="#FFFFFF" stroke-width="1.6" __comx="695.539" __comy="320.546" __timestamp="0x1781538d69f" d="M696.093 311.572 l-0.427 3.132 -0.053 0.549 -1.09 8.453 0.704 -0.157 -0.638 -0.366 -0.076 0.049 0.068 0.732 0.704 -0.157 1.168 -8.47 0.022 -0.573 0.089 -3.153" />
    <path class="write-flat-pen" fill="#FFFFFF" stroke-width="1.6" __comx="700.162" __comy="320.546" __timestamp="0x1781538d8ac" d="M694.407 310.366 l0.277 -0.832 1.773 -0.819 2.797 -0.531 1.157 0.23 0.309 0.375 -0.076 0.665 -1.731 1.809 0.346 1.206 4.249 2.276 1.485 1.386 0.44 1.056 -0.146 1.674 -1.063 1.757 -1.963 1.455 -1.898 0.563 -1.587 -0.098 -1.545 -0.731 -2.286 -1.64 -0.075 0.079 1.835 2.271 1.733 1.13 2.051 0.177 2.31 -0.673 2.315 -1.726 1.314 -2.195 0.18 -2.229 -0.653 -1.541 -1.776 -1.651 -3.942 -2.124 -0.024 -0.098 1.541 -1.615 0.167 -1.545 -0.894 -1.059 -1.778 -0.329 -3.141 0.677 -2.194 1.222 -0.197 1.273" />
    <path class="write-flat-pen" fill="#FFFFFF" stroke-width="1.6" __comx="711.271" __comy="320.546" __timestamp="0x1781538d969" d="M711.785 315.392 l-1.12 8.476 -0.615 3.298 0.147 0.042 1.237 -3.182 1.06 -8.543" />
    <path class="write-flat-pen" fill="#D534A9" stroke-width="1.6" __comx="623.613" __comy="318.469" __timestamp="0x1781538e305" d="M618.159 318.824 l3.925 0.509 3.693 -0.41 3.291 -0.793 -0.022 -0.128 -3.349 0.343 -3.614 0.339 -3.881 -0.284" />
    <path class="write-flat-pen" fill="#D534A9" stroke-width="1.6" __comx="629.126" __comy="316.816" __timestamp="0x1781538e4ad" d="M627.278 317.142 l-0.115 -0.211 -0.63 -1.278 0 0 -0.643 0.461 0.085 0.121 4.767 2.196 0.669 0.702 0.056 1.15 0.423 1.956 0.088 -0.001 0.364 -1.964 0.04 -1.538 -1.082 -1.104 -4.813 -2.052 0.028 0.048 -0.643 0.461 0 0 0.922 1.087 0.096 0.179" />
    <path class="write-flat-pen" fill="#D534A9" stroke-width="1.6" __comx="676.141" __comy="318.099" __timestamp="0x1781538e978" d="M668.051 318.198 l3.658 0.908 9.066 -0.315 3.455 -0.481 -0.007 -0.101 -3.477 -0.014 -8.97 0.168 -3.628 -0.628" />
    <path class="write-flat-pen" fill="#D534A9" stroke-width="1.6" __comx="683.311" __comy="315.631" __timestamp="0x1781538eb45" d="M681.572 316.584 l-0.806 -2.555 -0.008 0.055 0 0 -0.53 0.295 3.332 1.084 1.384 0.93 0.703 1.231 0.063 1.21 -0.905 1.795 -1.601 2.436 0.083 0.069 2.159 -2.058 1.281 -2 -0.093 -1.745 -0.947 -1.635 -1.703 -1.129 -3.509 -0.996 -0.53 0.295 0 0 -0.049 0.209 1.228 2.681" />
    <path class="write-flat-pen" fill="#D534A9" stroke-width="1.6" __comx="671.891" __comy="299.248" __timestamp="0x1781538ef47" d="M673.349 298.747 l-0.269 -1.61 -0.173 -0.147 -1.145 -0.361 -1.247 0.697 -0.582 1.517 0.683 1.245 1.993 -0.374 0.547 0.664 0.665 3.028 -0.096 2.254 -0.67 1.235 -1.106 0.82 -1.466 0.284 -0.474 -0.182 -0.297 -0.512 -0.219 -1.588 -0.092 -0.008 -0.519 1.686 0.246 1.205 1.216 0.58 2.075 -0.401 1.506 -1.136 0.892 -1.688 0.081 -2.649 -0.781 -3.405 -1.113 -1.311 -1.878 0.388 -0.145 -0.223 0.264 -0.829 0.64 -0.445 0.71 0.118 -0.096 -0.084 0.55 1.316" />
    <path class="write-flat-pen" fill="#D534A9" stroke-width="1.6" __comx="622.651" __comy="294.214" __timestamp="0x1781538f298" d="M616.768 292.577 l0.265 -0.672 0 0 -0.462 0.052 1.111 2.362 0.114 0.416 1.721 7.493 1.063 0.782 1.471 -1.43 1.154 -0.38 1.534 0.288 1.195 0.924 1.113 1.991 1.733 2.637 0.102 -0.048 -0.957 -3.023 -1.093 -2.301 -1.609 -1.253 -2.096 -0.394 -1.685 0.56 -0.977 0.975 0.001 0.028 -1.84 -7.076 -0.168 -0.516 -1.446 -2.279 -0.462 0.052 0 0 -0.129 0.711" />
    <path class="write-flat-pen" fill="#D534A9" stroke-width="1.6" __comx="506.422" __comy="300.06" __timestamp="0x1781538fba7" d="M452.715 302.504 l-0.619 -0.154 0 0 0.055 0.55 3.178 -0.997 0.992 -0.15 11.259 -0.937 35.771 0.303 10.913 -0.414 22.573 -2.156 14.899 -0.573 2.293 0.11 4.063 0.394 2.786 0.304 0.013 -0.087 -2.757 -0.519 -4.049 -0.651 -2.335 -0.211 -14.97 0.281 -22.583 2.082 -10.861 0.418 -35.798 -0.327 -11.334 1.067 -1.105 0.199 -3.145 1.329 0.055 0.55 0 0 0.637 0.042" />
    <path class="write-flat-pen" fill="#D534A9" stroke-width="1.6" __comx="558.078" __comy="294.197" __timestamp="0x1781538fdfa" d="M560.83 297.226 l-2.456 -1.769 -0.17 -0.16 -4.263 -4.918 0 0 -0.066 -0.081 0 0 -0.827 0.862 2.323 1.979 4.961 2.446 1.165 1.078 0.326 1.257 -0.579 4.017 -0.068 3.417 0.22 0.036 1.04 -3.261 0.732 -4.282 -0.521 -1.884 -1.587 -1.443 -4.994 -2.451 -2.251 -1.83 -0.827 0.862 0 0 0.076 0.076 0 0 4.555 4.723 0.266 0.214 2.682 1.52" />
  </g>
</svg>
