<svg class="write-page" color-interpolation="linearRGB" width="982px" height="1584px" xmlns="http://www.w3.org/2000/svg" xmlns:xlink="http://www.w3.org/1999/xlink">
  <g class="write-content write-v3" width="982" height="1584" xruling="30" yruling="30" marginLeft="30" papercolor="#FFFFFF" rulecolor="#7F0000FF">
    <g class="ruleline write-std-ruling write-scale-down" fill="none" stroke="#0000FF" stroke-opacity="0.498" stroke-width="1" shape-rendering="crispEdges" vector-effect="non-scaling-stroke">
      <rect class="pagerect" fill="#FFFFFF" stroke="none" x="0" y="0" width="982" height="1584" />
      <path class="yrule_1" d="M0 30 l982 0" />
      <path d="M0 60 l982 0" />
      <path d="M0 90 l982 0" />
      <path d="M0 120 l982 0" />
      <path d="M0 150 l982 0" />
      <path d="M0 180 l982 0" />
      <path d="M0 210 l982 0" />
      <path d="M0 240 l982 0" />
      <path d="M0 270 l982 0" />
      <path d="M0 300 l982 0" />
      <path d="M0 330 l982 0" />
      <path d="M0 360 l982 0" />
      <path d="M0 390 l982 0" />
      <path d="M0 420 l982 0" />
      <path d="M0 450 l982 0" />
      <path d="M0 480 l982 0" />
      <path d="M0 510 l982 0" />
      <path d="M0 540 l982 0" />
      <path d="M0 570 l982 0" />
      <path d="M0 600 l982 0" />
      <path d="M0 630 l982 0" />
      <path d="M0 660 l982 0" />
      <path d="M0 690 l982 0" />
      <path d="M0 720 l982 0" />
      <path d="M0 750 l982 0" />
      <path d="M0 780 l982 0" />
      <path d="M0 810 l982 0" />
      <path d="M0 840 l982 0" />
      <path d="M0 870 l982 0" />
      <path d="M0 900 l982 0" />
      <path d="M0 930 l982 0" />
      <path d="M0 960 l982 0" />
      <path d="M0 990 l982 0" />
      <path d="M0 1020 l982 0" />
      <path d="M0 1050 l982 0" />
      <path d="M0 1080 l982 0" />
      <path d="M0 1110 l982 0" />
      <path d="M0 1140 l982 0" />
      <path d="M0 1170 l982 0" />
      <path d="M0 1200 l982 0" />
      <path d="M0 1230 l982 0" />
      <path d="M0 1260 l982 0" />
      <path d="M0 1290 l982 0" />
      <path d="M0 1320 l982 0" />
      <path d="M0 1350 l982 0" />
      <path d="M0 1380 l982 0" />
      <path d="M0 1410 l982 0" />
      <path d="M0 1440 l982 0" />
      <path d="M0 1470 l982 0" />
      <path d="M0 1500 l982 0" />
      <path d="M0 1530 l982 0" />
      <path d="M0 1560 l982 0" />
      <path class="xrule_1" d="M30 0 l0 1584" />
      <path d="M60 0 l0 1584" />
      <path d="M90 0 l0 1584" />
      <path d="M120 0 l0 1584" />
      <path d="M150 0 l0 1584" />
      <path d="M180 0 l0 1584" />
      <path d="M210 0 l0 1584" />
      <path d="M240 0 l0 1584" />
      <path d="M270 0 l0 1584" />
      <path d="M300 0 l0 1584" />
      <path d="M330 0 l0 1584" />
      <path d="M360 0 l0 1584" />
      <path d="M390 0 l0 1584" />
      <path d="M420 0 l0 1584" />
      <path d="M450 0 l0 1584" />
      <path d="M480 0 l0 1584" />
      <path d="M510 0 l0 1584" />
      <path d="M540 0 l0 1584" />
      <path d="M570 0 l0 1584" />
      <path d="M600 0 l0 1584" />
      <path d="M630 0 l0 1584" />
      <path d="M660 0 l0 1584" />
      <path d="M690 0 l0 1584" />
      <path d="M720 0 l0 1584" />
      <path d="M750 0 l0 1584" />
      <path d="M780 0 l0 1584" />
      <path d="M810 0 l0 1584" />
      <path d="M840 0 l0 1584" />
      <path d="M870 0 l0 1584" />
      <path d="M900 0 l0 1584" />
      <path d="M930 0 l0 1584" />
      <path d="M960 0 l0 1584" />
      <path class="leftmargin" stroke="#FF0000" d="M30 0 l0 1584" />
    </g>
    <path class="write-flat-pen" fill="#000000" stroke-width="1.8" __comx="776.664" __comy="31.989" __timestamp="0x177834718bc" d="M776.739 31.986 l-0.004 0 -0.003 0.001 -0.002 0.001 -0.143 0.038 0 0.001 0.144 -0.034 0.002 -0.001 0.002 -0.001 0.003 0" />
    <path class="write-flat-pen" fill="#000000" stroke-width="1.8" __comx="778.119" __comy="67.607" __timestamp="0x17783472e4f" d="M776.403 36.043 l-0.001 -0.001 0.005 0.583 0.002 0.012 0.165 2.663 0.009 0.123 0.351 10.032 -0.093 9.239 -0.673 17.871 -0.335 19.055 -0.081 17.76 0.181 30.172 0.821 32.551 0.755 22.371 2.205 51.116 0 0 0.007 0.29 0.231 10.087 0 0 0.814 -0.025 -0.517 -13.024 -0.038 -0.666 -0.593 -15.739 -1.546 -31.38 -1.375 -36.799 -0.54 -28.909 -0.146 -36.859 0.317 -23.804 0.962 -26.798 0.011 -0.496 -0.238 -8.315 -0.015 -0.317 -0.223 -2.183 0 0 -0.997 0.098 0.541 5.869 0.046 0.608 0.177 12.233 -0.004 0.697 -0.665 22.863 -0.353 25.519 -0.018 17.806 0.233 25.738 0.553 25.492 1.433 38.12 0.951 16.292 0.969 27.502 0 0 0.005 0.105 0.077 3.605 0 0 0.901 -0.028 -0.587 -14.485 -0.045 -1.06 -1.747 -36.293 -1.563 -44.625 -0.426 -17.373 -0.36 -30.477 0.028 -18.24 0.525 -26.161 0.63 -12.552 0.214 -13.599 0 -0.071 -0.072 -0.956 -0.26 -1.296 -0.017 -0.001 -0.444 1.271 -0.073 0.986 0.001 0.068 -0.033 13.58 -0.536 12.552 -0.416 26.175 -0.018 18.247 0.327 30.484 0.393 17.38 1.47 44.635 1.661 36.298 0.038 1.056 0.41 14.49 0.901 -0.028 0 0 -0.12 -3.614 -0.006 -0.11 0 0 -1.151 -27.497 -0.968 -16.291 -1.5 -38.107 -0.635 -25.482 -0.299 -25.732 0.04 -17.801 0.398 -25.511 0.805 -22.861 0.011 -0.71 0.001 -12.264 -0.034 -0.639 -0.385 -5.888 -0.997 0.098 0 0 0.291 2.15 0.023 0.28 0.413 8.277 -0.004 0.47 -0.77 26.803 -0.248 23.815 0.151 36.866 0.496 28.918 1.338 36.809 1.568 31.378 0.5 15.744 0.032 0.665 0.334 13.024 0.814 -0.025 0 0 -0.368 -10.083 -0.01 -0.295 0 0 -2.401 -51.11 -0.827 -22.364 -0.894 -32.544 -0.218 -30.167 0.092 -17.756 0.36 -19.049 0.747 -17.87 0.148 -9.255 -0.359 -10.055 -0.015 -0.137 -0.379 -2.656 -0.006 -0.024 -0.232 -0.535 -0.001 0.001" />
    <path class="write-flat-pen" fill="#000000" stroke-width="1.8" __comx="801.972" __comy="94.535" __timestamp="0x17783473928" d="M805.735 43.786 l0.056 -0.203 0 0 -0.076 -0.003 -0.054 3.135 -0.002 0.272 -0.079 3.434 -1.283 14.373 -0.725 17.04 -0.285 19.388 0.261 21.728 0.454 13.775 0.745 14.502 0.322 12.073 1.055 19.354 0.47 12.945 2.107 42.279 0.511 19.929 0.004 0.697 -0.235 7.571 -0.045 0.648 -0.523 4.415 -0.168 1.058 -0.826 3.193 -1.157 3.118 -1.036 2.095 -1.712 2.841 -0.596 0.835 -1.268 1.621 -0.632 0.736 -0.631 0.714 -0.624 0.681 -1.253 1.21 -0.613 0.522 -2.187 1.461 -1.778 0.952 0 0.001 1.838 -0.844 2.315 -1.295 0.688 -0.473 1.403 -1.083 0.715 -0.626 0.713 -0.656 0.722 -0.697 1.42 -1.563 0.689 -0.864 1.85 -2.882 1.104 -2.201 1.178 -3.252 0.795 -3.326 0.15 -1.141 0.393 -4.474 0.028 -0.688 0.075 -7.604 -0.016 -0.717 -0.696 -19.936 -2.25 -42.275 -0.515 -12.944 -1.125 -19.349 -0.377 -12.071 -0.793 -14.501 -0.484 -13.769 -0.298 -21.723 0.291 -19.383 0.762 -17.031 1.38 -14.37 0.076 -3.448 -0.001 -0.278 -0.17 -3.134 -0.076 -0.003 0 0 0.019 0.21" />
    <path class="write-flat-pen" fill="#000000" stroke-width="1.8" __comx="802.609" __comy="122.917" __timestamp="0x17783474aff" d="M809.286 246.66 l-2.221 -34.204 -0.04 -1.01 -1.408 -28.577 -1.815 -43.084 -0.801 -33.993 -0.035 -18.442 0.329 -16.139 0.994 -26.709 0.011 -0.822 0.043 -6.17 0.001 -0.444 -0.068 -3.932 -0.022 -0.58 -0.582 -5.114 -0.086 -0.419 -0.617 -2.079 -1.555 -3.397 -1.407 -2.451 0 0 -1.556 -2.133 -1.891 -1.967 0 0 -0.693 0.552 2.249 3.368 0.422 0.635 1.433 2.288 1.551 2.928 1.029 2.509 0.926 3.168 1.049 5.087 0.156 1.828 0.317 5.826 0.018 0.922 -0.572 24.14 -0.051 0.743 -0.347 6.603 -0.429 27.508 0.009 11.17 0.618 26.197 1.663 49.214 0.069 1.337 0 0 1.245 29.836 0 0 1.095 18.183 0 0 0.603 -0.02 -0.056 -3.333 -1.163 -20.662 -0.746 -21.062 -1.193 -25.635 -0.524 -20.083 -0.769 -20.114 -0.314 -14.337 -0.036 -26.69 0.197 -11.65 0.938 -15.778 0.586 -17.535 0 0 -0.001 -0.082 -0.054 -1.569 0 0 -0.58 0.012 -0.364 20.689 -0.045 0.936 -0.649 11.991 -0.296 9.227 -0.245 23.619 0.098 15.927 0.697 19.732 0.362 17.973 1.156 27.102 0.515 16.88 0 0 1.294 27.694 0 0 0.465 6.209 0 0 0.755 -0.041 -0.51 -12.464 -0.969 -17.055 -2.266 -57.939 -0.041 -1.746 -1.015 -37.832 -0.084 -19.635 0.255 -11.078 1.479 -32.89 0.007 -0.524 0.107 -8.232 0.001 -0.294 -0.048 -3.377 0 0 -0.018 -0.433 -0.369 -2.676 0 0 -1.004 0.106 0.338 4.521 0.057 0.582 0.238 7.136 0 0.808 -0.514 15.708 -0.035 1.036 -0.908 25.744 -0.173 15.903 0.376 27.112 1.345 41.558 0.073 1.894 1.269 33.245 2.106 39.151 0.502 0.247 0.003 -0.017 0.202 -0.25 -0.247 -0.358 -0.306 0.1 -0.017 -0.003 0.502 0.247 -1.962 -39.154 -1.397 -33.236 -0.083 -1.892 -1.536 -41.545 -0.466 -27.101 0.154 -15.894 0.986 -25.736 0.046 -1.035 0.712 -15.709 0.017 -0.827 -0.057 -7.175 -0.037 -0.599 -0.177 -4.52 -1.004 0.106 0 0 0.452 2.621 0.033 0.379 0 0 0.214 3.351 0.01 0.279 0.078 8.225 0 0.513 -1.273 32.892 -0.232 11.086 0.064 19.642 0.917 37.837 0.034 1.748 2.071 57.955 0.933 17.057 0.413 12.461 0.755 -0.041 0 0 -0.435 -6.201 0 0 -1.363 -27.676 0 0 -0.578 -16.877 -1.269 -27.095 -0.451 -17.968 -0.772 -19.727 -0.143 -15.918 0.204 -23.613 0.32 -9.219 0.707 -11.985 0.052 -0.942 0.568 -20.69 -0.58 0.012 0 0 0.143 1.553 0.002 0.06 0 0 -0.373 17.525 -0.878 15.782 -0.174 11.656 0.015 26.694 0.284 14.341 0.742 20.115 0.456 20.086 1.117 25.64 0.687 21.066 1.102 20.657 -0.014 3.321 0.603 -0.02 0 0 -1.086 -18.178 0 0 -1.34 -29.83 0 0 -0.074 -1.335 -1.872 -49.2 -0.707 -26.19 -0.028 -11.166 0.428 -27.502 0.372 -6.596 0.055 -0.746 0.788 -24.147 0.003 -0.938 -0.128 -5.849 -0.09 -1.885 -0.896 -5.198 -0.855 -3.28 -0.997 -2.639 -1.572 -3.035 -1.504 -2.319 -0.453 -0.638 -2.367 -3.288 -0.693 0.552 0 0 1.741 2.019 1.432 2.075 0 0 1.326 2.379 1.528 3.276 0.629 1.95 0.077 0.328 0.729 5.018 0.042 0.539 0.24 3.911 0.02 0.433 0.134 6.161 0.003 0.812 -0.786 26.711 -0.245 16.144 0.049 18.446 0.746 33.999 1.801 43.088 1.396 28.577 0.043 1.012 2.452 34.192" />
    <path class="write-flat-pen" fill="#000000" stroke-width="1.8" __comx="832.63" __comy="50.333" __timestamp="0x177834754be" d="M833.208 46.355 l-0.16 3.513 -0.644 6.939 -0.231 5.106 -0.034 1.048 -0.032 1.132 -0.054 1.916 0.001 0 0.076 -1.915 0.045 -1.132 0.038 -1.048 0.253 -5.104 0.655 -6.939 0.089 -3.518" />
    <path class="write-flat-pen" fill="#000000" stroke-width="1.8" __comx="834.446" __comy="180.763" __timestamp="0x1778347579d" d="M833.429 174.631 l0.474 18.92 0.875 15.225 0 0 0.154 7.964 0 0 0.856 15.429 0 0 0.047 -0.002 -0.816 -16.768 -0.376 -13.655 -1.035 -18.295 -0.389 -10.702 -0.061 -1.62 -0.049 -1.61 -0.052 -1.703 -0.001 0 0.052 1.703 0.049 1.61 0.061 1.62 0.387 10.702 1.019 18.296 0.365 13.655 0.799 16.769 0.047 -0.002 0 0 -0.878 -15.427 0 0 -0.162 -7.964 0 0 -0.888 -15.225 -0.478 -18.92" />
    <path class="write-flat-pen" fill="#000000" stroke-width="1.8" __comx="831.669" __comy="47.82" __timestamp="0x17783475a43" d="M831.047 60.987 l0.392 -4.202 0.134 -5.691 0.485 -5.196 0 0 0.146 -8.38 0 0 -0.104 -2.354 0 0 -0.15 0.009 0.25 3.343 -0.048 3.862 -0.48 7.424 -0.402 10.475 -0.057 1.165 -0.092 1.888 0.001 0 0.092 -1.888 0.057 -1.165 0.417 -10.474 0.518 -7.423 0.085 -3.866 -0.191 -3.35 -0.15 0.009 0 0 0.145 2.348 0 0 -0.064 8.377 0 0 -0.467 5.197 -0.126 5.691 -0.391 4.202" />
    <path class="write-flat-pen" fill="#000000" stroke-width="1.8" __comx="834.252" __comy="142.258" __timestamp="0x17783475d8f" d="M831.158 121.232 l0.229 7.387 0.956 12.841 0.795 14.787 0.609 17.918 0.952 16.368 0.406 16.659 0.834 14.054 0.295 10.766 0.502 7.35 0 0 0.126 5.248 0 0 0.231 1.776 0 0 0.252 -0.019 -0.592 -16.425 -0.724 -11.324 -0.955 -28.395 -1.289 -22.838 -0.65 -15.249 -0.058 -1.677 -0.067 -1.721 -0.072 -1.761 -0.054 -1.754 -0.046 -1.796 -0.078 -1.705 -0.097 -1.753 -0.104 -1.751 -0.097 -1.633 -0.001 0 0.097 1.633 0.104 1.751 0.097 1.753 0.078 1.705 0.046 1.796 0.054 1.754 0.072 1.761 0.067 1.721 0.058 1.677 0.641 15.25 1.25 22.839 0.91 28.398 0.702 11.325 0.456 16.427 0.252 -0.019 0 0 -0.193 -1.767 0 0 -0.139 -5.24 0 0 -0.535 -7.349 -0.327 -10.764 -0.867 -14.052 -0.449 -16.657 -1.003 -16.366 -0.661 -17.916 -0.82 -14.786 -0.963 -12.841 -0.229 -7.386" />
    <path class="write-flat-pen" fill="#000000" stroke-width="1.8" __comx="832.502" __comy="78.42" __timestamp="0x17783476140" d="M831.345 61.245 l0.106 -7.608 0.768 -9.359 0.127 -3.467 0.001 -6.404 0 0 -0.375 -4.598 -0.353 0.034 0.223 2.008 -0.003 15.237 -0.011 1.139 -0.218 7.267 -1.522 20.295 -0.364 7.792 -0.052 7.857 0.574 31.951 0.416 9.674 0.614 6.098 0.934 16.963 0.667 22.695 1.332 24.379 0.411 14.887 0.274 3.622 0.028 0.284 0.013 0.138 0.037 0.332 0.011 0.103 0.011 0.105 0.017 0.125 0.013 0.103 0.013 0.103 0.004 0.034 0.004 0.034 0.004 0.034 0.004 0.034 0.004 0.033 0.004 0.033 0.261 2.164 0.01 -0.001 -0.112 -2.177 -0.002 -0.035 -0.003 -0.035 -0.003 -0.034 -0.003 -0.034 -0.003 -0.034 -0.003 -0.034 -0.011 -0.104 -0.011 -0.104 -0.014 -0.124 -0.009 -0.103 -0.01 -0.104 -0.033 -0.331 -0.011 -0.137 -0.026 -0.283 -0.266 -3.616 -0.423 -14.885 -1.406 -24.376 -0.729 -22.692 -0.965 -16.962 -0.62 -6.097 -0.422 -9.673 -0.575 -31.951 0.052 -7.857 0.364 -7.792 1.542 -20.294 0.251 -7.267 0.019 -1.139 0.229 -15.25 -0.157 -2.028 -0.353 0.034 0.539 4.574 0 0 0.118 6.393 -0.094 3.465 -0.736 9.361 -0.102 7.609" />
    <path class="write-flat-pen" fill="#000000" stroke-width="1.8" __comx="864.806" __comy="32.487" __timestamp="0x177834769aa" d="M864.809 34.365 l0.258 -4.037 -0.02 0.001 0.032 0.258 0.004 0.206 -0.004 0.298 -0.011 0.371 -0.026 0.477 -0.078 1.083 -0.098 1.006 -0.094 0.907 -0.07 0.685 -0.193 1.877 0.001 0 0.195 -1.876 0.071 -0.684 0.096 -0.907 0.101 -1.006 0.081 -1.083 0.029 -0.477 0.013 -0.372 0.005 -0.299 -0.002 -0.207 -0.032 -0.259 -0.02 0.001 -0.239 4.038" />
    <path class="write-flat-pen" fill="#000000" stroke-width="1.8" __comx="866.391" __comy="177.963" __timestamp="0x17783476cd0" d="M865.515 169.196 l0.35 17.364 0.868 18.408 0.087 10.342 0 0 0.568 8.759 0 0 0.124 3.612 0 0 0.089 -0.004 -0.277 -4.346 -0.18 -11.14 -0.867 -15.269 -0.656 -25.928 -0.351 -7.758 -0.09 -1.714 -0.001 0 0.09 1.714 0.351 7.758 0.642 25.929 0.846 15.269 0.154 11.141 0.249 4.349 0.089 -0.004 0 0 -0.121 -3.614 0 0 -0.593 -8.757 0 0 -0.111 -10.341 -0.902 -18.407 -0.36 -17.364" />
    <path class="write-flat-pen" fill="#000000" stroke-width="1.8" __comx="864.488" __comy="36.569" __timestamp="0x17783476ef7" d="M864.474 39.538 l-0.093 -2.22 0.233 -2.975 -0.011 -0.002 -0.045 0.169 -0.021 0.173 -0.017 0.218 -0.019 0.232 -0.024 0.288 -0.021 0.344 -0.018 0.402 -0.076 1.664 0.001 0 0.079 -1.664 0.019 -0.402 0.022 -0.344 0.024 -0.288 0.02 -0.232 0.018 -0.218 0.022 -0.172 0.047 -0.168 -0.011 -0.002 -0.224 2.976 0.094 2.22" />
    <path class="write-flat-pen" fill="#000000" stroke-width="1.8" __comx="866.466" __comy="177.862" __timestamp="0x1778347725f" d="M864.994 165.016 l0.344 3.911 0.488 23.433 0.775 12.552 0.281 14.525 0 0 0.693 11.122 0 0 0.2 9.545 0 0 0.162 -0.003 -0.35 -16.45 -1.11 -19.53 -0.594 -26.811 -0.324 -7.545 -0.107 -1.945 -0.086 -1.57 -0.001 0 0.086 1.57 0.107 1.945 0.322 7.545 0.567 26.812 1.067 19.531 0.261 16.45 0.162 -0.003 0 0 -0.242 -9.546 0 0 -0.73 -11.121 0 0 -0.313 -14.524 -0.799 -12.551 -0.515 -23.432 -0.344 -3.911" />
    <path class="write-flat-pen" fill="#000000" stroke-width="1.8" __comx="864.386" __comy="33.898" __timestamp="0x17783477437" d="M864.139 37.135 l0 0 0.495 -3.024 -0.027 -3.181 -0.021 -0.003 -0.074 0.253 -0.021 0.223 -0.021 0.349 -0.027 0.876 -0.016 0.888 -0.01 0.863 -0.006 0.778 -0.014 1.82 0.001 0 0.016 -1.82 0.007 -0.778 0.011 -0.863 0.018 -0.888 0.031 -0.875 0.023 -0.348 0.023 -0.221 0.078 -0.25 -0.021 -0.003 0.042 3.18 -0.49 3.025 0 0" />
    <path class="write-flat-pen" fill="#000000" stroke-width="1.8" __comx="866.631" __comy="179.555" __timestamp="0x177834776ad" d="M865.292 164.82 l-0.003 10.826 1.092 23.375 0.208 15.34 0.717 12.238 0.236 12.015 0.429 5.507 0.001 0 -0.256 -5.515 -0.284 -12.013 -0.752 -12.236 -0.244 -15.338 -1.14 -23.374 -0.003 -10.826" />
    <path class="write-flat-pen" fill="#000000" stroke-width="1.8" __comx="890.429" __comy="80.51" __timestamp="0x177834789d4" d="M888.167 114.075 l-0.497 -12.966 -0.641 -9.634 -0.394 -9.463 -0.037 -5.515 0.219 -4.727 1.563 -18.026 1.942 -13.32 0.624 -8.464 0.03 -0.63 0.397 -6.011 0 0 0.008 -0.105 0.059 -1.668 0 0 -0.561 -0.003 0.212 3.912 -0.015 0.592 -1.188 16.4 -0.077 1.006 -0.302 3.112 -1.335 8.207 -0.851 6.687 -0.26 4.074 -0.322 14.414 0.195 20.152 0.246 5.138 1.589 16.351 1.478 11.928 0.921 10.641 1.546 27.673 0.085 1.558 0.301 9.603 0 0 0.009 10.68 0 0 0.958 25.861 0 0 0.22 2.346 0 0 0.581 -0.041 -1.507 -32.697 -0.575 -20.348 -0.681 -13.093 -1.694 -17.748 -0.859 -11.845 -1.36 -11.633 -0.845 -9.336 -0.503 -14.982 -0.242 -17.854 0.328 -6.508 0.967 -7.455 0.844 -11.602 1.249 -8.772 0 0 0.716 -10.146 0.123 -4.29 0 0 -0.433 -0.007 -0.015 6.834 -0.089 1.536 -0.856 6.874 -1.366 15.086 -1.104 8.179 -0.5 5.2 -0.323 6.851 0.076 9.902 0.269 3.697 0.237 15.021 0.194 4.328 2.908 26.565 2.658 34.616 0.038 1.242 0.598 25.502 0.029 0.894 0 0 0.583 16.53 0 0 0.416 5.532 0 0 0.546 -0.028 -0.391 -14.448 -1.459 -38.178 -0.931 -15.553 -1.679 -14.129 -1.058 -11.079 -1.386 -19.757 -0.597 -5.268 -0.678 -8.842 -0.179 -4.926 0.031 -10.294 0.212 -3.597 0.063 -0.72 0.044 -0.684 0.044 -0.571 0.053 -0.616 0.055 -0.582 0.04 -0.543 0.03 -0.506 0.021 -0.431 0.016 -0.394 0.014 -0.435 0.074 -2.281 -0.3 -0.01 -0.084 2.281 -0.016 0.434 -0.017 0.392 -0.022 0.428 -0.031 0.502 -0.042 0.537 -0.057 0.58 -0.056 0.619 -0.046 0.574 -0.046 0.682 -0.065 0.72 -0.221 3.61 -0.048 10.31 0.173 4.94 0.667 8.857 0.589 5.268 1.352 19.757 1.036 11.091 1.649 14.124 0.904 15.536 1.416 38.171 0.378 14.445 0.546 -0.028 0 0 -0.416 -5.522 0 0 -0.64 -16.518 0 0 -0.037 -0.891 -0.805 -25.495 -0.051 -1.248 -2.878 -34.605 -2.928 -26.563 -0.184 -4.327 -0.225 -15.022 -0.271 -3.696 -0.073 -9.9 0.326 -6.849 0.494 -5.198 1.119 -8.177 1.432 -15.079 0.939 -6.868 0.115 -1.547 0.216 -6.836 -0.433 -0.007 0 0 -0.015 4.283 -0.627 10.134 0 0 -1.279 8.768 -0.869 11.601 -0.983 7.457 -0.343 6.529 0.208 17.868 0.475 14.998 0.828 9.354 1.334 11.632 0.828 11.843 1.651 17.746 0.654 13.077 0.546 20.347 1.484 32.703 0.581 -0.041 0 0 -0.232 -2.328 0 0 -1.032 -25.833 0 0 -0.104 -10.677 0 0 -0.38 -9.61 -0.098 -1.561 -1.765 -27.661 -0.963 -10.639 -1.497 -11.926 -1.586 -16.35 -0.234 -5.137 -0.185 -20.15 0.322 -14.413 0.256 -4.071 0.863 -6.683 1.367 -8.204 0.32 -3.114 0.084 -1.007 1.409 -16.389 0.034 -0.61 -0.007 -3.93 -0.561 -0.003 0 0 -0.065 1.66 -0.005 0.102 0 0 -0.191 6.028 -0.011 0.628 -0.408 8.467 -1.853 13.328 -1.547 18.028 -0.221 4.728 0.035 5.516 0.395 9.464 0.649 9.633 0.508 12.965" />
    <path class="write-flat-pen" fill="#000000" stroke-width="1.8" __comx="921.524" __comy="50.59" __timestamp="0x177834791e8" d="M921.837 49.074 l0.363 1.306 0.166 2.015 -0.219 1.633 -0.423 1.352 -0.301 0.746 -0.743 1.845 0.001 0 0.743 -1.845 0.301 -0.746 0.423 -1.352 0.219 -1.633 -0.166 -2.015 -0.363 -1.306" />
    <path class="write-flat-pen" fill="#000000" stroke-width="1.8" __comx="918.996" __comy="69.351" __timestamp="0x1778347922b" d="M918.734 66.339 l0.391 6.029 0.132 6.851 -0.214 4.36 0.001 0 0.214 -4.36 -0.132 -6.852 -0.391 -6.029" />
    <path class="write-flat-pen" fill="#000000" stroke-width="1.8" __comx="917.61" __comy="93.867" __timestamp="0x1778347924a" d="M917.629 93.53 l-0.008 0.259 -0.008 0.443 -0.006 0.622 -0.015 1.455 0.001 0 0.015 -1.455 0.006 -0.622 0.008 -0.443 0.008 -0.259" />
    <path class="write-flat-pen" fill="#000000" stroke-width="1.8" __comx="923.563" __comy="99.853" __timestamp="0x17783479ce5" d="M923.063 142.243 l-0.088 4.723 0.279 2.482 1.269 5.16 0.573 3.412 0.848 12.197 1.144 9.774 0.374 5.23 0.119 10.101 0.806 8.744 0.181 10.79 0.333 5.464 0 0 0.03 10.09 0 0 0.331 -0.009 -0.118 -2.617 0.121 -8.679 -0.88 -16.476 -0.354 -16.192 -0.295 -5.384 -1.179 -11.042 -0.988 -7.305 -1.564 -16.281 -0.966 -5.889 -1.333 -4.948 -1.476 -6.919 -0.703 -4.536 -0.573 -6.254 -0.159 -6.242 0.374 -9.698 0.031 -6.959 -0.595 -9.807 -0.091 -5.344 0.143 -2.761 0.735 -5.477 1.372 -7.009 1.304 -5.248 0.547 -3.188 0.372 -4.599 0.263 -1.402 1.557 -3.488 0.345 -1.169 0.027 -1.729 0.986 -3.364 0.17 -1.239 -0.029 -2.302 0.415 -2.818 0 0 0.029 -2.919 0 0 -0.322 0.019 0.185 1.198 -0.993 5.965 -0.718 8.162 -0.698 3.881 -0.852 2.756 -1.81 4.696 -1.167 4.391 -0.402 2.571 -0.488 6.093 -0.292 16.848 -0.87 20.359 -0.095 5.827 0.39 6.92 1.293 8.518 2.34 10.569 0.538 3.395 0.645 7.871 2.48 19.753 0.724 8.678 0.46 9.482 0.146 7.318 1.022 14.538 0 0 0.461 23.202 0 0 -0.185 6.076 0 0 0.549 0.012 0.194 -10.011 -0.463 -14.202 -0.14 -11.726 -0.339 -7.839 -1.793 -22.07 -0.636 -11.426 -0.994 -8.887 -0.893 -5.048 -1.098 -4.507 -0.997 -3.171 -0.94 -4.261 -0.423 -3.479 -0.452 -12.899 -0.53 -8.678 -0.992 -9.884 -0.438 -10.946 0.029 -6.4 0.422 -5.94 1.115 -8.267 1.986 -9.411 0.372 -2.689 0.245 -5.097 0.229 -1.338 1.769 -3.891 0.238 -0.977 -0.211 -2.384 -0.216 0.018 0.182 2.347 -0.227 0.915 -1.787 3.895 -0.242 1.386 -0.259 5.1 -0.375 2.666 -2 9.409 -1.127 8.286 -0.429 5.96 -0.035 6.418 0.428 10.964 0.98 9.888 0.516 8.667 0.428 12.912 0.418 3.514 0.936 4.298 0.99 3.178 1.082 4.484 0.88 5.023 0.978 8.862 0.613 11.421 1.753 22.07 0.324 7.822 0.119 11.723 0.441 14.194 -0.182 9.997 0.549 0.012 0 0 0.132 -6.089 0 0 -0.498 -23.225 0 0 -1.045 -14.537 -0.192 -7.312 -0.537 -9.489 -0.79 -8.683 -2.658 -19.734 -0.675 -7.869 -0.552 -3.395 -2.353 -10.567 -1.297 -8.517 -0.39 -6.919 0.096 -5.827 0.906 -20.358 0.306 -16.846 0.479 -6.09 0.397 -2.567 1.175 -4.383 1.821 -4.691 0.862 -2.76 0.714 -3.886 0.774 -8.155 1.094 -5.979 -0.113 -1.243 -0.322 0.019 0 0 0 2.899 0 0 -0.362 2.825 0.081 2.306 -0.141 1.216 -0.949 3.379 -0.016 1.731 -0.337 1.147 -1.572 3.489 -0.302 1.418 -0.379 4.6 -0.549 3.174 -1.31 5.245 -1.381 7.018 -0.742 5.49 -0.146 2.775 0.086 5.355 0.585 9.805 -0.038 6.949 -0.385 9.701 0.152 6.257 0.568 6.269 0.7 4.551 1.469 6.934 1.324 4.944 0.953 5.868 1.546 16.279 0.979 7.308 1.162 11.032 0.287 5.372 0.333 16.193 0.867 16.47 -0.12 8.678 0.14 2.627 0.331 -0.009 0 0 -0.081 -10.097 0 0 -0.342 -5.466 -0.191 -10.794 -0.837 -8.742 -0.172 -10.097 -0.404 -5.236 -1.194 -9.769 -0.909 -12.192 -0.588 -3.412 -1.284 -5.157 -0.282 -2.481 0.085 -4.723" />
    <path class="write-flat-pen" fill="#000000" stroke-width="1.8" __comx="959.025" __comy="47.378" __timestamp="0x1778347a553" d="M960.288 62.77 l-0.089 -0.948 -1.39 -5.174 -1.26 -3.849 -1.012 -4.422 -0.564 -3.467 0 0 -0.854 -13.397 0 0 -0.306 -2.257 0 0 -0.252 0.024 0.813 13.479 0.562 4.905 1.016 4.666 5.547 17.165 0.227 1.236 0.338 1.357 0.424 1.699 0.001 0 -0.423 -1.7 -0.338 -1.358 -0.226 -1.237 -5.491 -17.18 -0.988 -4.665 -0.543 -4.9 -0.667 -13.484 -0.252 0.024 0 0 0.3 2.249 0 0 1.043 13.378 0 0 0.573 3.471 1.023 4.424 1.273 3.846 1.418 5.164 0.095 0.946" />
    <path class="write-flat-pen" fill="#000000" stroke-width="1.8" __comx="957.755" __comy="85.795" __timestamp="0x1778347ab86" d="M956.602 138.531 l-1.09 13.895 -0.228 9.39 0.021 9.689 0 0 0.772 21.66 0 0 2.304 42.414 0 0 0.329 -0.016 -0.464 -11.691 -1.76 -31.621 -0.666 -18.91 -0.196 -12.191 0.149 -6.78 0.708 -6.415 0.759 -4.594 4.694 -18.42 1.567 -8.259 1.112 -8.798 1.032 -9.443 0.185 -4.832 -0.04 -6.94 -0.71 -10.007 -1.003 -5.541 -0.807 -3.306 -3.613 -10.507 -2.595 -6.728 -1.271 -4.531 -0.631 -3.16 -0.646 -5.319 -0.799 -13.833 -0.042 -0.561 -0.728 -7.323 -0.057 -0.721 -0.332 -3.691 -0.058 -0.791 -0.697 -6.383 0 0 -0.09 -0.611 -1.008 -5.008 0 0 -1.023 0.167 0.196 0.964 0.091 0.484 0.459 2.803 0.128 0.897 0.885 6.814 0.184 0.992 1.048 9.062 0.943 13.946 0.598 6.315 1.386 7.021 2.806 8.492 2.173 5.944 2.665 9.522 1.007 6.86 0.465 5.001 0.2 5.195 -0.076 5.264 -0.379 5.202 -0.957 7.613 -1.911 9.225 -2.243 8.29 -2.738 11.292 -1.032 5.535 -0.726 5.684 -0.631 9.761 -0.161 14.165 0.163 9.917 0.574 13.964 0.08 1.547 0.075 1.467 0.073 1.433 0.071 1.355 0.071 1.321 0.071 1.286 0.069 1.207 0.073 1.259 0.072 1.218 0.071 1.178 0.043 1.182 0.07 1.191 0.07 1.143 0.044 1.189 0.054 1.107 0.063 1.152 0.039 1.151 0.054 1.199 0.062 1.194 0.038 1.191 0.054 1.237 0.087 1.996 0.289 -0.012 -0.085 -1.996 -0.052 -1.236 -0.037 -1.192 -0.061 -1.196 -0.053 -1.196 -0.039 -1.152 -0.063 -1.154 -0.053 -1.105 -0.044 -1.191 -0.07 -1.147 -0.07 -1.188 -0.043 -1.182 -0.072 -1.181 -0.072 -1.218 -0.073 -1.258 -0.069 -1.207 -0.071 -1.286 -0.071 -1.321 -0.071 -1.354 -0.073 -1.433 -0.075 -1.467 -0.081 -1.545 -0.585 -13.958 -0.201 -9.91 0.077 -14.158 0.567 -9.758 0.698 -5.683 1.01 -5.536 2.709 -11.297 2.233 -8.293 1.905 -9.227 0.955 -7.613 0.379 -5.202 0.076 -5.264 -0.2 -5.195 -0.464 -5.001 -1.004 -6.861 -2.645 -9.529 -2.155 -5.951 -2.742 -8.504 -1.321 -7.018 -0.569 -6.306 -0.809 -13.96 -0.957 -9.094 -0.169 -0.996 -0.688 -6.824 -0.083 -0.909 -0.297 -2.836 -0.053 -0.486 -0.048 -0.973 -1.023 0.167 0 0 0.989 4.99 0.095 0.57 0 0 0.849 6.332 0.083 0.784 0.487 3.681 0.092 0.717 0.897 7.3 0.049 0.549 1.008 13.824 0.698 5.329 0.641 3.175 1.294 4.544 2.645 6.716 3.583 10.505 0.801 3.293 0.996 5.526 0.702 9.991 0.035 6.929 -0.188 4.82 -1.038 9.434 -1.117 8.789 -1.572 8.245 -4.716 18.418 -0.766 4.61 -0.717 6.432 -0.156 6.796 0.183 12.199 0.645 18.916 1.725 31.624 0.468 11.688 0.329 -0.016 0 0 -2.411 -42.406 0 0 -0.882 -21.652 0 0 -0.067 -9.686 0.191 -9.39 1.062 -13.896" />
    <path class="write-flat-pen" fill="#000000" stroke-width="1.8" __comx="871.439" __comy="155.064" __timestamp="0x1778347ec84" d="M767.828 154.405 l-0.951 -0.072 -0.051 -0.004 -0.212 -0.047 -0.258 0.111 0.106 0.452 0.265 0.087 0.289 0.078 0.152 0.024 1.031 0.082 0.256 0.015 20.541 0.744 16.409 0.231 0.71 0.003 20.832 0.122 0.973 0.007 19.711 0.239 1.009 0.007 13.94 0.192 9.934 0.365 10.111 0.652 31.139 3.554 8.318 0.709 7.05 0.38 0 0 5.51 0.056 0 0 7.091 -0.264 0 0 -0.022 -0.452 -4.964 0.317 -8.889 0.076 -6.045 -0.214 -9.661 -0.888 -13.843 -1.68 -12.255 -1.233 -13.271 -1.019 -16.192 -0.691 -1.566 -0.058 -17.548 -0.423 -1.785 -0.054 -13.623 -0.254 -1.587 -0.012 -10.779 -0.14 -1.439 -0.008 -11.774 -0.239 -1.182 -0.019 -13.387 -0.267 0 0 -0.886 -0.012 -9.372 -0.256 0 0 -0.003 1.633 10.747 -0.26 0.85 -0.008 14.796 -0.019 1.195 0.007 13.543 0 1.414 -0.006 14.249 -0.029 1.371 -0.006 13.434 0.108 1.345 0.029 19.305 0.336 1.533 0.033 8.801 0.364 12.066 0.797 28.305 3.15 6.616 0.569 6.193 0.27 7.971 0.061 6.616 -0.242 8.289 -0.633 4.881 -0.59 6.411 -1.348 0 0 6.534 -1.124 0 0 8.396 -0.559 0 0 -0.035 -1.113 -2.996 -0.038 -3.752 0.274 -7.196 1.352 -0.84 0.179 -4.665 0.972 -6.208 0.807 -7.332 0.601 -11.664 0.311 -7.9 -0.055 -8.383 -0.621 -20.486 -2.585 -17.733 -1.358 -1.978 -0.124 -14.831 -0.742 -2.127 -0.084 -14.681 -0.436 -1.708 -0.034 -14.647 -0.284 -1.564 -0.015 -17.506 -0.136 -1.159 -0.003 -14.478 -0.005 0 0 -1.01 -0.003 -10.96 -0.018 0 0 0.015 1.66 7.836 -0.178 0.929 -0.006 11.26 -0.046 1.365 -0.006 11.648 -0.117 1.485 -0.044 11.356 -0.1 1.771 -0.009 12.341 -0.014 1.743 0.024 16.36 0.281 1.894 0.038 11.432 0.404 18.985 1.27 22.428 2.622 5.967 0.497 8.426 0.38 8.335 0.063 6.651 -0.222 6.83 -0.521 0 0 5.795 -0.733 0 0 7.359 -1.548 0 0 -0.206 -0.837 -3.629 1.041 -4.121 0.859 -5.094 0.704 -7.675 0.631 -6.259 0.247 -9.984 0.002 -3.918 -0.18 -9.301 -0.904 -17.697 -2.174 -13.491 -1.135 -17.243 -0.931 -1.9 -0.044 -17 -0.457 -1.905 -0.018 -12.278 -0.251 -1.678 -0.028 -13.685 -0.074 -1.413 -0.004 -15.142 0.092 -0.921 0 -15.195 -0.097 0 0 -0.321 -0.003 -2.614 -0.047 0 0 -0.005 1.645 10.944 -0.151 1.121 -0.004 11.981 0.054 1.505 0.001 12.959 -0.047 1.589 0.011 14.019 -0.004 1.829 0.012 16.427 0.169 1.816 0.033 16.448 0.441 1.431 0.079 14.779 0.851 10.41 0.941 1.031 0.091 2.004 0.16 0.979 0.085 2.076 0.183 1.933 0.181 0.001 -0.005 -1.916 -0.317 -2.056 -0.337 -0.971 -0.165 -1.989 -0.302 -1.029 -0.15 -10.411 -1.126 -14.786 -0.978 -1.444 -0.095 -16.461 -0.589 -1.825 -0.048 -16.432 -0.31 -1.835 -0.028 -14.018 -0.115 -1.591 -0.026 -12.963 -0.062 -1.499 -0.012 -11.984 -0.141 -1.136 -0.003 -10.953 0.078 -0.005 1.645 0 0 2.625 0.039 0.331 0 0 0 15.201 0.017 0.931 -0.006 15.139 -0.186 1.405 -0.004 13.677 -0.035 1.669 0.013 12.284 0.131 1.901 0.001 16.995 0.31 1.886 0.025 17.222 0.769 13.469 1.046 17.7 2.099 9.33 0.869 3.95 0.17 10.011 -0.022 6.284 -0.241 7.708 -0.594 5.145 -0.643 4.186 -0.811 3.674 -0.989 -0.206 -0.837 0 0 -7.317 1.587 0 0 -5.738 0.768 0 0 -6.791 0.569 -6.62 0.255 -8.307 -0.051 -8.4 -0.38 -5.942 -0.497 -22.427 -2.683 -19.009 -1.373 -11.448 -0.5 -1.902 -0.054 -16.36 -0.43 -1.753 -0.042 -12.352 -0.109 -1.776 -0.009 -11.373 -0.014 -1.486 0.03 -11.631 0.02 -1.361 -0.006 -11.262 -0.036 -0.943 0 -7.85 0.104 0.015 1.66 0 0 10.96 -0.019 1.012 -0.003 0 0 14.477 -0.078 1.154 -0.003 17.502 0.035 1.557 0.006 14.643 0.17 1.702 0.018 14.672 0.312 2.116 0.065 14.826 0.594 1.965 0.101 17.716 1.2 20.498 2.467 8.424 0.602 7.934 0.056 11.694 -0.285 7.371 -0.559 6.265 -0.738 4.71 -0.905 0.833 -0.16 7.154 -1.184 3.654 -0.215 2.953 0.023 -0.035 -1.113 0 0 -8.439 0.678 0 0 -6.587 1.212 0 0 -6.375 1.417 -4.822 0.614 -8.252 0.69 -6.583 0.298 -7.943 -0.045 -6.167 -0.252 -6.593 -0.567 -28.305 -3.205 -12.086 -0.868 -8.817 -0.43 -1.543 -0.043 -19.3 -0.493 -1.349 -0.044 -13.447 -0.243 -1.377 -0.007 -14.249 -0.103 -1.413 -0.006 -13.535 -0.112 -1.197 -0.018 -14.809 -0.078 -0.867 0.004 -10.759 0.182 -0.003 1.633 0 0 9.385 0.192 0.892 0.005 0 0 13.385 0.174 1.183 0.01 11.783 0.133 1.445 -0.007 10.778 0.014 1.583 -0.006 13.612 0.112 1.782 0.035 17.549 0.261 1.559 0.041 16.185 0.512 13.259 0.925 12.248 1.176 13.85 1.628 9.683 0.854 6.067 0.208 8.91 -0.078 4.977 -0.296 -0.022 -0.452 0 0 -7.08 0.274 0 0 -5.491 -0.041 0 0 -7.035 -0.37 -8.305 -0.709 -31.139 -3.595 -10.126 -0.686 -9.944 -0.432 -13.948 -0.271 -1.009 -0.012 -19.707 -0.42 -0.976 -0.016 -20.832 -0.288 -0.706 -0.009 -16.392 -0.38 -20.541 -0.688 -0.272 0.004 -1.037 0.068 -0.142 0.02 -0.225 0.061 0.129 0.061 0.078 0.389 -0.239 0.102 0.106 -0.124 0.018 -0.016 0.926 -0.134" />
    <path class="write-flat-pen" fill="#000000" stroke-width="1.8" __comx="859.423" __comy="121.409" __timestamp="0x17783480198" d="M910.855 125.027 l-2.499 -0.165 -24.1 -3.364 -0.635 -0.074 -12.487 -1.14 -1.103 -0.08 -8.423 -0.411 -1.106 -0.018 -9.807 -0.15 -1.071 -0.014 -9.528 -0.212 -1.048 -0.043 -12.433 -0.129 -1.234 -0.005 -11.459 -0.106 -1.347 -0.017 -11.794 -0.133 -1.346 -0.008 -12.218 -0.186 -1.149 -0.035 -11.049 -0.247 -0.97 -0.024 -12.932 -0.143 -0.711 -0.002 -9.456 0.058 0 0 -0.112 0.003 -1.031 0.024 0 0 0.029 1.765 5.86 -0.085 0.847 -0.003 10.472 -0.03 0.953 0.009 8.399 0.168 1.08 0.025 10.91 0.291 1.36 0.034 12.106 0.18 1.513 0.014 10.81 0.032 1.52 -0.004 11.072 0.035 1.604 -0.003 12.554 0.027 1.524 0.013 15.558 0.226 1.682 0.038 8.185 0.286 13.556 0.958 7.807 0.847 8.164 1.179 13.934 2.554 5.374 0.739 4.701 0.391 6.594 0.259 16.565 0.086 15.948 -0.891 3.326 -0.503 4.948 -1.24 0 0 0.083 -0.035 0.194 -0.084 0 0 -0.285 -0.869 -4.75 1.115 -0.793 0.145 -5.405 0.75 -5.759 0.49 -10.108 0.355 -7.279 0.018 -8.416 -0.25 -7.965 -0.7 -6.183 -0.834 -17.131 -3.031 -9.959 -1.472 -17.554 -1.419 -1.863 -0.094 -12.984 -0.349 -1.863 -0.058 -13.469 -0.293 -1.934 -0.033 -11.169 -0.25 -1.823 -0.032 -12.521 -0.142 -1.699 -0.006 -14.545 -0.311 -1.294 -0.017 -13.251 -0.331 -0.844 -0.031 -13.423 -0.194 -0.476 -0.009 -8.633 -0.122 0 0 -0.286 -0.01 -1.849 -0.083 0 0 -0.03 1.782 6.611 -0.079 0.769 -0.002 11.324 -0.009 1.198 0.005 9.161 0.103 1.34 0.024 11.471 0.104 1.545 0.016 12.6 0.014 1.685 0.013 11.913 0.012 1.79 0.025 11.246 0.129 1.857 0.024 11.171 0.154 1.9 0.029 15.383 0.372 1.797 0.085 7.683 0.494 10.778 1.124 14.56 2.465 13.459 1.997 6.749 0.663 8.641 0.477 0 0 7.66 0.153 11.801 -0.223 0 0 -0.049 -0.779 -2.352 0.336 -1.544 0.386 0.001 0.023 1.593 0.183 2.383 -0.151 -0.049 -0.779 0 0 -11.785 0.303 -7.632 -0.153 0 0 -8.609 -0.521 -6.711 -0.7 -13.43 -2.017 -14.585 -2.407 -10.812 -1.166 -7.701 -0.553 -1.813 -0.103 -15.393 -0.527 -1.905 -0.046 -11.169 -0.289 -1.858 -0.046 -11.244 -0.249 -1.797 -0.042 -11.916 -0.124 -1.686 -0.027 -12.598 -0.102 -1.539 -0.027 -11.464 -0.179 -1.338 -0.032 -9.172 -0.165 -1.21 -0.013 -11.331 -0.036 -0.778 -0.001 -6.619 0.049 -0.03 1.782 0 0 1.859 0.077 0.314 0.009 0 0 8.647 0.086 0.476 0.007 13.41 0.144 0.836 0.025 13.272 0.264 1.297 0.009 14.554 0.225 1.707 -0.004 12.512 0.045 1.816 0.015 11.171 0.145 1.935 0.013 13.463 0.156 1.86 0.041 12.979 0.205 1.838 0.072 17.524 1.265 9.928 1.422 17.138 3.022 6.221 0.798 8.004 0.647 8.445 0.238 7.299 -0.055 10.129 -0.381 5.792 -0.434 5.448 -0.654 0.826 -0.136 4.802 -0.949 -0.285 -0.869 0 0 -0.193 0.09 -0.016 0.009 0 0 -4.795 1.382 -3.247 0.544 -15.889 1.004 -16.537 -0.075 -6.571 -0.27 -4.671 -0.404 -5.342 -0.766 -13.936 -2.54 -8.191 -1.136 -7.825 -0.86 -13.57 -1.044 -8.197 -0.366 -1.689 -0.055 -15.56 -0.387 -1.529 -0.034 -12.558 -0.183 -1.603 -0.016 -11.072 -0.174 -1.521 -0.015 -10.803 -0.141 -1.505 -0.027 -12.092 -0.284 -1.352 -0.044 -10.908 -0.377 -1.085 -0.035 -8.41 -0.236 -0.973 -0.015 -10.483 -0.026 -0.857 -0.002 -5.869 0.046 0.029 1.765 0 0 1.038 -0.021 0.1 -0.003 0 0 9.429 -0.098 0.696 -0.001 12.914 0.087 0.962 0.018 11.046 0.176 1.155 0.028 12.239 0.101 1.35 -0.003 11.79 0.035 1.349 0.004 11.465 -0.007 1.233 -0.005 12.415 -0.002 1.043 0.027 9.545 0.06 1.075 -0.001 9.807 -0.009 1.095 -0.002 8.411 0.237 1.091 0.059 12.492 0.949 0.627 0.067 24.133 3.145 2.512 0.013" />
    <path class="write-flat-pen" fill="#000000" stroke-width="1.8" __comx="868.902" __comy="100.642" __timestamp="0x17783480d42" d="M864.925 102.036 l-19.779 -0.615 -1.858 -0.036 -12.273 -0.308 -1.842 -0.023 -11.034 -0.154 -1.779 -0.014 -8.225 -0.145 -1.467 -0.016 -8.813 -0.128 -1.412 -0.014 -10.181 -0.06 -1.057 -0.005 -11.479 -0.184 -0.885 -0.007 -10.26 -0.256 -0.699 -0.008 -4.874 -0.097 0 0 -0.377 -0.005 -2.53 -0.144 0 0 -0.026 1.716 6.844 -0.197 0.723 -0.004 8.874 0.232 1.254 0.036 8.113 0.28 1.467 0.062 9.628 0.239 1.725 0.039 10.724 0.211 1.786 0.046 9.475 0.209 1.939 0.028 11.736 0.151 1.931 0.024 12.133 0.176 1.915 0.046 17.957 0.316 2.007 0.041 15.902 0.485 14.158 0.234 6.72 -0.315 21.072 -2.328 19.705 -1.336 15.245 -0.367 1.323 0.003 8.725 0.077 0.799 0.009 6.604 0.425 0.487 0.068 3.064 0.632 0.21 0.072 4.649 2.41 0.102 0.058 -0.021 -0.012 0.745 -1.076 -1.096 -0.866 -0.335 -0.187 -1.937 -0.936 -0.637 -0.263 -3.398 -0.782 -0.802 -0.122 -5.941 -0.542 -1.188 -0.047 -10.529 -0.199 -1.696 -0.002 -9.078 0.019 -9.544 0.318 -7.242 0.484 -12.759 1.275 -8.405 1.063 -9.653 0.919 -6.806 0.336 -7.828 0.045 -22.207 -0.724 -1.737 -0.063 -12.083 -0.273 -1.622 -0.049 -7.992 -0.229 -1.476 -0.06 -8.121 -0.212 -1.34 -0.03 -11.779 -0.157 -0.991 -0.007 -13.483 -0.13 -0.293 -0.001 -4.857 -0.02 -2.856 -0.534 -6.658 -0.385 -0.433 -0.019 -9.965 -0.115 -0.317 -0.001 -3.808 0.19 -0.332 1.603 0.165 0.068 0.318 0.014 0.31 -0.012 0.487 -0.029 0.632 -0.047 0.767 -0.067 1.016 -0.081 1.098 -0.085 1.335 -0.092 1.427 -0.056 1.796 -0.081 0.001 -0.028 -1.785 -0.216 -1.422 -0.163 -1.332 -0.162 -1.095 -0.138 -1.021 -0.121 -0.767 -0.082 -0.618 -0.067 -0.458 -0.055 -0.244 -0.04 0.022 -0.017 0.108 0.04 -0.332 1.603 3.77 -0.15 0.27 -0.001 9.933 0.058 0.397 0.015 6.551 0.307 2.901 0.501 4.995 -0.019 0.288 -0.001 13.482 0.027 0.989 -0.002 11.77 0.037 1.334 0.014 8.114 0.09 1.476 0.034 7.999 0.093 1.624 0.027 12.083 0.119 1.732 0.041 22.223 0.556 7.852 -0.077 6.831 -0.347 9.671 -0.967 8.4 -1.118 12.739 -1.344 7.228 -0.492 9.53 -0.327 9.07 0.004 1.689 0.022 10.512 0.394 1.162 0.073 5.877 0.719 0.738 0.142 3.247 0.899 0.516 0.243 1.821 1.013 0.204 0.134 0.933 0.893 0.745 -1.076 -0.021 -0.012 -0.08 -0.041 -4.815 -2.348 -0.375 -0.107 -3.187 -0.516 -0.554 -0.059 -6.669 -0.279 -0.822 0.01 -8.726 0.095 -1.333 0.017 -15.257 0.561 -19.715 1.415 -21.076 2.228 -6.69 0.343 -14.14 -0.212 -15.898 -0.553 -2.009 -0.059 -17.951 -0.495 -1.915 -0.07 -12.134 -0.344 -1.931 -0.05 -11.732 -0.305 -1.934 -0.057 -9.466 -0.337 -1.788 -0.068 -10.723 -0.334 -1.722 -0.057 -9.611 -0.334 -1.459 -0.075 -8.12 -0.361 -1.262 -0.046 -8.9 -0.3 -0.768 -0.001 -6.865 0.141 -0.026 1.716 0 0 2.571 0.136 0.412 0 0 0 4.876 0.038 0.693 0 10.262 0.176 0.892 0 11.482 0.09 1.065 -0.005 10.178 -0.047 1.407 -0.003 8.816 0.001 1.467 -0.012 8.227 -0.004 1.779 -0.013 11.032 0.01 1.838 -0.001 12.273 0.138 1.856 0.011 19.78 0.425" />
  </g>
</svg>
