<svg class="write-page" width="1010px" height="1628px" xmlns="http://www.w3.org/2000/svg" xmlns:xlink="http://www.w3.org/1999/xlink">
  <g class="write-content write-v3" width="1010" height="1628" xruling="30" yruling="30" marginLeft="30" papercolor="#1B1C1C" rulecolor="#3A00F9FF">
    <g class="ruleline write-std-ruling write-scale-down" fill="none" stroke="#00F9FF" stroke-opacity="0.227" stroke-width="1" shape-rendering="crispEdges" vector-effect="non-scaling-stroke">
      <rect class="pagerect" fill="#1B1C1C" stroke="none" x="0" y="0" width="1010" height="1628" />
      <path class="yrule_1" d="M0 30 l1010 0" />
      <path d="M0 60 l1010 0" />
      <path d="M0 90 l1010 0" />
      <path d="M0 120 l1010 0" />
      <path d="M0 150 l1010 0" />
      <path d="M0 180 l1010 0" />
      <path d="M0 210 l1010 0" />
      <path d="M0 240 l1010 0" />
      <path d="M0 270 l1010 0" />
      <path d="M0 300 l1010 0" />
      <path d="M0 330 l1010 0" />
      <path d="M0 360 l1010 0" />
      <path d="M0 390 l1010 0" />
      <path d="M0 420 l1010 0" />
      <path d="M0 450 l1010 0" />
      <path d="M0 480 l1010 0" />
      <path d="M0 510 l1010 0" />
      <path d="M0 540 l1010 0" />
      <path d="M0 570 l1010 0" />
      <path d="M0 600 l1010 0" />
      <path d="M0 630 l1010 0" />
      <path d="M0 660 l1010 0" />
      <path d="M0 690 l1010 0" />
      <path d="M0 720 l1010 0" />
      <path d="M0 750 l1010 0" />
      <path d="M0 780 l1010 0" />
      <path d="M0 810 l1010 0" />
      <path d="M0 840 l1010 0" />
      <path d="M0 870 l1010 0" />
      <path d="M0 900 l1010 0" />
      <path d="M0 930 l1010 0" />
      <path d="M0 960 l1010 0" />
      <path d="M0 990 l1010 0" />
      <path d="M0 1020 l1010 0" />
      <path d="M0 1050 l1010 0" />
      <path d="M0 1080 l1010 0" />
      <path d="M0 1110 l1010 0" />
      <path d="M0 1140 l1010 0" />
      <path d="M0 1170 l1010 0" />
      <path d="M0 1200 l1010 0" />
      <path d="M0 1230 l1010 0" />
      <path d="M0 1260 l1010 0" />
      <path d="M0 1290 l1010 0" />
      <path d="M0 1320 l1010 0" />
      <path d="M0 1350 l1010 0" />
      <path d="M0 1380 l1010 0" />
      <path d="M0 1410 l1010 0" />
      <path d="M0 1440 l1010 0" />
      <path d="M0 1470 l1010 0" />
      <path d="M0 1500 l1010 0" />
      <path d="M0 1530 l1010 0" />
      <path d="M0 1560 l1010 0" />
      <path d="M0 1590 l1010 0" />
      <path d="M0 1620 l1010 0" />
      <path class="xrule_1" d="M30 0 l0 1628" />
      <path d="M60 0 l0 1628" />
      <path d="M90 0 l0 1628" />
      <path d="M120 0 l0 1628" />
      <path d="M150 0 l0 1628" />
      <path d="M180 0 l0 1628" />
      <path d="M210 0 l0 1628" />
      <path d="M240 0 l0 1628" />
      <path d="M270 0 l0 1628" />
      <path d="M300 0 l0 1628" />
      <path d="M330 0 l0 1628" />
      <path d="M360 0 l0 1628" />
      <path d="M390 0 l0 1628" />
      <path d="M420 0 l0 1628" />
      <path d="M450 0 l0 1628" />
      <path d="M480 0 l0 1628" />
      <path d="M510 0 l0 1628" />
      <path d="M540 0 l0 1628" />
      <path d="M570 0 l0 1628" />
      <path d="M600 0 l0 1628" />
      <path d="M630 0 l0 1628" />
      <path d="M660 0 l0 1628" />
      <path d="M690 0 l0 1628" />
      <path d="M720 0 l0 1628" />
      <path d="M750 0 l0 1628" />
      <path d="M780 0 l0 1628" />
      <path d="M810 0 l0 1628" />
      <path d="M840 0 l0 1628" />
      <path d="M870 0 l0 1628" />
      <path d="M900 0 l0 1628" />
      <path d="M930 0 l0 1628" />
      <path d="M960 0 l0 1628" />
      <path d="M990 0 l0 1628" />
      <path class="leftmargin" stroke="#FF0000" d="M30 0 l0 1628" />
    </g>
    <path class="write-flat-pen" fill="#FFFFFF" stroke-width="3" __comx="84.408" __comy="75.391" __timestamp="0x1787eee59a6" d="M69.479 52.198 l-0.567 -1.818 0.006 -0.006 0.087 -0.347 0.017 0.195 0 0 -1.869 0.238 0.03 0.62 0.03 0.263 0.793 4.195 0.155 0.936 1.423 11.826 0.502 10.579 -0.439 9.265 0.873 2.091 2.752 0.951 22.637 0.105 0.687 -0.144 1.127 -0.432 3.997 -1.806 -0.072 -0.318 -4.359 0.086 -1.068 0.006 -0.433 -0.025 -21.992 -0.466 -1.024 -0.354 -0.095 -0.227 0.413 -8.733 -0.522 -10.836 -1.571 -12.009 -0.221 -1.085 -1.235 -4.216 -0.153 -0.379 -0.421 -0.575 -1.869 0.238 0 0 0.016 0.202 0.406 0.66 0.038 0.074 0.967 1.668" />
    <path class="write-flat-pen" fill="#FFFFFF" stroke-width="3" __comx="113.318" __comy="75.391" __timestamp="0x1787eee5bcd" d="M106.392 78.774 l0.202 0.798 0.193 0.175 0.658 0.471 0.362 0.136 1.807 0.229 0.667 -0.112 3.602 -1.608 0.661 -0.544 2.265 -2.63 1.095 -2.968 -0.833 -2.473 -2.637 -1.279 -3.297 0.515 -3.174 2.032 -2.417 3.117 -1.275 3.503 -0.182 3.239 0.878 3.097 2.171 3.045 3.453 1.907 3.336 0.528 5.108 -1.869 0.465 -0.44 0.403 -0.493 2.646 -3.201 -0.204 -0.264 -3.764 1.754 -0.564 0.254 -0.193 0.053 -4.138 1.13 -2.105 -0.333 -2.395 -1.323 -1.474 -2.067 -0.599 -2.113 0.129 -2.295 0.963 -2.647 1.811 -2.339 2.208 -1.419 1.758 -0.283 0.69 0.322 0.121 0.317 -0.525 1.541 -1.693 2.146 -0.215 0.21 -2.864 1.703 -0.115 0.065 -1.335 0.196 -0.052 0.03 -0.511 -0.018 0.136 0.13 -0.447 -0.362" />
    <path class="write-flat-pen" fill="#FFFFFF" stroke-width="3" __comx="135.383" __comy="75.391" __timestamp="0x1787eee5dc8" d="M137.126 71.918 l0.679 -1.508 0.05 -0.432 -0.717 -1.471 -0.695 -0.325 -4.014 -0.062 -0.711 0.237 -2.262 1.332 -1.299 2.259 0.443 2.179 1.998 1.746 6.769 2.491 1.933 1.337 0.647 1.162 -0.029 0.974 -0.789 1.232 -2.065 1.241 -2.581 0.611 -2.22 -0.143 -1.796 -1.044 0.017 0.636 -0.148 -0.172 -0.201 -2.169 -0.297 -0.108 -1.589 1.649 -0.343 0.639 0.058 1.011 3.27 2.495 3.505 0.222 3.47 -0.83 3.06 -1.862 1.582 -2.547 0.007 -2.608 -1.427 -2.384 -2.78 -1.857 -6.638 -2.388 -0.944 -0.796 -0.084 -0.292 0.418 -0.819 1.399 -0.925 0.093 -0.047 3.167 -0.327 -0.266 -0.144 0.425 0.282 0.038 -0.273 -0.217 1.473" />
    <path class="write-flat-pen" fill="#FFFFFF" stroke-width="3" __comx="154.978" __comy="75.391" __timestamp="0x1787eee5fa5" d="M156.706 66.851 l-1.851 -0.592 -0.341 -0.065 -3.268 0.273 -0.532 0.27 -1.599 1.428 -0.437 2.434 1.703 2.265 6.604 3.086 1.503 1.245 0.436 1.148 -0.219 1.141 -1.029 1.38 -1.826 1.195 -3.348 0.981 -2.533 0.075 0.477 0.74 -0.094 0.288 -0.886 -1.086 -0.682 0.05 -0.72 1.203 -0.077 0.517 0.66 0.965 4.248 0.257 4.227 -1.246 2.638 -1.74 1.742 -2.373 0.466 -2.656 -1.074 -2.624 -2.411 -1.89 -6.349 -2.863 -0.646 -0.776 0.025 -0.448 0.644 -0.685 -0.138 0.062 2.516 -0.594 -0.005 -0.022 1.861 0.177" />
    <path class="write-flat-pen" fill="#FFFFFF" stroke-width="3" __comx="176.595" __comy="75.391" __timestamp="0x1787eee62b3" d="M179.525 73.5 l0.372 -0.767 0.01 -0.176 0.021 -0.77 -0.103 -0.332 -0.652 -1.302 -0.469 -0.451 -3.34 -1.193 -0.914 0.099 -2.295 0.859 -2.378 2.391 -1.479 3.322 -0.399 4.015 0.782 3.09 1.783 2.612 2.675 1.693 3.373 0.465 3.348 -0.933 2.838 -2.079 1.79 -2.946 0.806 -3.826 -0.594 -3.369 -1.882 -3.41 -4.156 -2.439 -0.736 0.249 -0.106 0.078 -1.698 1.693 0.069 0.207 2.374 0.338 0.04 0.029 -0.407 0.167 2.358 1.786 1.278 2.315 0.406 2.306 -0.581 2.757 -1.214 1.998 -1.915 1.404 -2.223 0.62 -2.114 -0.29 -1.605 -1.013 -1.14 -1.663 -0.534 -2.073 0.275 -3.036 1.028 -2.44 1.531 -1.657 1.384 -0.618 0.029 -0.022 2.469 0.495 -0.056 -0.092 0.745 0.715 0.043 -0.005 0.278 0.421 0.014 -0.09 0.065 0.698" />
    <path class="write-flat-pen" fill="#FFFFFF" stroke-width="3" __comx="196.51" __comy="75.391" __timestamp="0x1787eee6499" d="M186.244 70.107 l-0.312 1.033 0.099 0.428 0.625 1.849 0.194 0.474 1.662 4.507 0.177 0.611 -0.015 -0.047 1.164 5.384 0 0 2.842 -0.457 -0.002 -0.131 0.384 -3.944 1.083 -3.333 1.631 -2.493 1.121 -0.757 0.948 -0.106 1.321 0.583 1.79 1.995 2.414 5.021 1.091 3.913 0.042 0.118 0.078 0.604 0.551 4.232 0.262 0.027 1.416 -4.036 0.195 -0.63 0.083 -0.528 -0.868 -4.696 -2.746 -5.711 -2.507 -2.794 -2.653 -1.17 -2.485 0.28 -2.231 1.509 -2.175 3.337 -1.294 4.037 -0.364 4.509 0.031 0.356 2.842 -0.457 0 0 -1.596 -5.353 -0.015 -0.047 -0.241 -0.674 -2.112 -4.494 -0.275 -0.475 -0.958 -1.585 -0.052 -0.006 -0.073 -0.742" />
    <path class="write-flat-pen" fill="#FFFFFF" stroke-width="3" __comx="241.611" __comy="75.391" __timestamp="0x1787eee672e" d="M241.089 58.668 l-1.234 -0.459 -0.07 0.524 -0.002 0.292 0.048 1.852 0.027 0.866 0.239 6.016 0.044 1.47 0.325 18.445 -0.131 1.078 0 0 2.202 -0.157 -0.096 0 -0.316 -0.461 -0.203 -0.453 -0.969 -2.407 -0.249 0.031 -0.341 2.572 -0.072 0.583 0.011 0.956 0.104 0.36 2.202 -0.157 0 0 0.83 -1.437 -0.601 -19.059 -0.111 -1.534 -0.665 -6.036 -0.139 -0.899 -0.383 -1.878 -0.117 -0.408 -0.356 -0.501 -1.234 0.797" />
    <path class="write-flat-pen" fill="#FFFFFF" stroke-width="3" __comx="252.206" __comy="75.391" __timestamp="0x1787eee68de" d="M245.674 60.762 l-1.282 -0.759 0.031 -0.002 -0.461 -0.598 0.145 0.153 0.055 -0.935 0.031 0.019 0.92 -1.609 1.922 -1.79 2.653 -1.415 3.165 -0.73 2.824 0.196 2.002 0.914 1.097 1.148 0.893 2.163 0.019 2.937 -0.916 2.935 -1.735 2.76 -2.16 2.04 -2.908 1.545 -4.187 0.803 1.058 2.336 -0.001 -0.104 0.033 -0.193 0.525 -1.603 -0.215 -0.277 -1.683 0.108 -0.236 0.016 -0.142 0.014 1.058 2.336 4.743 -0.548 3.718 -1.975 2.732 -2.58 2.146 -3.413 1.171 -3.754 -0.027 -3.989 -1.333 -3.223 -1.887 -1.969 -3.024 -1.373 -3.814 -0.251 -3.983 0.955 -3.323 1.859 -2.443 2.508 -1.034 2.441 -0.103 0.723 0.473 1.734 0.346 0.447 1.102 0.578 0.157 0.052 1.45 0.386" />
    <path class="write-flat-pen" fill="#FFFFFF" stroke-width="3" __comx="270.205" __comy="75.391" __timestamp="0x1787eee6a6c" d="M269.967 55.751 l-0.677 1.1 -0.141 0.407 -0.366 1.539 -0.119 0.802 -0.327 3.876 -0.031 1.234 0.308 17.928 0.843 3.852 0.267 0.297 2.164 1.408 0.219 -0.13 -0.19 -2.574 0.115 0.041 -0.432 -3.202 -0.633 -17.669 -0.054 -1.157 -0.082 -3.792 -0.01 -0.717 -0.001 -1.462 -0.012 -0.216 0.237 -1.121" />
    <path class="write-flat-pen" fill="#FFFFFF" stroke-width="3" __comx="287.11" __comy="75.391" __timestamp="0x1787eee6c7a" d="M289.324 79.146 l0.576 -1.193 0.112 -0.206 0.565 -1.351 0.062 -0.286 -0.179 -2.517 -0.514 -0.697 -1.659 -1.184 -2.514 -0.071 -2.602 1.384 -2.217 2.627 -1.425 3.504 -0.342 3.723 1.012 2.694 2.056 1.494 2.733 -0.206 2.51 -1.904 3.123 -5.774 0.516 -0.3 -2.156 -0.762 2.577 6.163 0.56 0.289 2.738 0.745 0.178 -0.239 -1.503 -2.407 0.165 -0.005 -1.912 -5.614 -2.156 -0.762 -1.245 0.724 -3.215 5.946 -1.288 0.978 -0.755 0.058 -0.44 -0.318 -0.457 -1.21 0.232 -2.603 1.067 -2.672 1.533 -1.871 1.434 -0.828 0.967 -0.052 0.716 0.375 -0.115 -0.186 0.434 1.45 0.034 -0.135 -0.126 1.328 -0.019 0.19 -0.212 1.32" />
    <path class="write-flat-pen" fill="#FFFFFF" stroke-width="3" __comx="306.053" __comy="75.391" __timestamp="0x1787eee6e48" d="M299.637 72.943 l-1.004 0.907 -0.159 0.38 -0.444 1.809 -0.046 0.586 0.333 4.661 0.073 0.431 0.807 2.79 2.689 0.487 2.074 -6.852 1.672 -3.136 0.894 -0.745 0.796 -0.15 1.123 0.568 1.316 2.031 1.654 7.652 1.24 2.708 0.097 0.002 1.37 -2.942 -1.529 -8.567 -2.073 -3.196 -2.756 -1.392 -2.561 0.488 -1.939 1.621 -2.078 3.926 -1.34 4.745 1.469 0.29 -0.398 -0.979 -0.047 -0.18 -0.719 -4.364 -0.026 -0.316 0.026 -1.593 -0.048 0.037 0.493 -0.924" />
    <path class="write-flat-pen" fill="#FFFFFF" stroke-width="3" __comx="327.592" __comy="75.439" __timestamp="0x1787eee75e7" d="M316.836 70.93 l-1.067 0.118 -0.182 0.548 -0.184 1.04 0.023 0.442 0.258 2.425 0.127 0.668 1.173 6.592 0.054 0.209 0 0 0.439 1.07 0 0 2.681 -0.166 1.72 -5.413 1.983 -3.644 2.238 -2.361 2.137 -1.268 2.099 -0.41 0.956 0.351 1.036 1.239 0.753 2.447 -0.362 10.102 1.384 2.907 2.304 -0.886 0.553 -0.475 0.405 -0.456 0.386 -0.511 0.333 -0.548 1.701 -2.828 -0.126 -0.124 -2.791 1.76 -0.498 0.301 -0.456 0.249 -0.407 0.199 -0.248 0.072 0.414 -0.286 0.071 0.025 0.355 -9.9 -1.08 -3.51 -1.939 -2.318 -2.495 -0.916 -3.43 0.671 -2.941 1.747 -2.794 2.952 -2.306 4.257 -1.696 5.734 2.681 -0.166 0 0 -0.414 -0.836 0 0 0.019 0.079 -1.586 -6.467 -0.189 -0.628 -0.625 -2.268 -0.091 -0.262 -0.189 -0.715 -0.128 0.335 0.224 -0.289" />
    <path class="write-flat-pen" fill="#FFFFFF" stroke-width="3" __comx="345.813" __comy="75.439" __timestamp="0x1787eee78af" d="M345.615 72.788 l-0.593 1.201 -0.078 0.315 -0.315 1.984 -0.043 0.556 0.196 7.355 -0.176 0.103 0.408 1.945 1.895 -0.332 0.091 -9.061 -0.027 -0.483 -0.098 -1.889 -0.028 -0.074 0.192 -1.143" />
    <path class="write-flat-pen" fill="#FFFFFF" stroke-width="3" __comx="348.9" __comy="75.439" __timestamp="0x1787eee795a" d="M349.443 67.967 l0.133 -1.579 0.368 -1.749 -0.359 -0.231 -1.686 1.442 -0.045 2.039" />
    <path class="write-flat-pen" fill="#FFFFFF" stroke-width="3" __comx="361.315" __comy="75.439" __timestamp="0x1787eee7b23" d="M354.685 71.383 l-0.214 1.915 -0.021 0.413 -0.015 2.948 0.001 0.728 0.069 5.613 0.001 0.58 0 0 0.212 3.169 0 0 2.746 0.014 0.976 -7.636 1.218 -4.486 1.33 -2.473 0.756 -0.609 0.308 -0.024 0.71 0.478 1.176 2.122 1.619 10.758 1.415 3.242 0.289 -0.021 0.934 -3.492 -1.36 -11.446 -1.802 -3.248 -2.178 -1.464 -2.274 0.183 -1.946 1.573 -1.775 3.313 -1.343 5.039 -0.799 7.878 2.746 0.014 0 0 -0.435 -3.052 0 0 -0.031 -0.511 -0.495 -5.619 -0.075 -0.737 -0.382 -2.915 -0.052 -0.358 -0.199 -1.884" />
    <path class="write-flat-pen" fill="#FFFFFF" stroke-width="3" __comx="378.677" __comy="77.49" __timestamp="0x1787eee7d96" d="M380.355 77.725 l0.595 -1.969 0.084 -0.24 0.599 -3.116 -0.147 -0.747 -1.307 -2.2 -2.155 -0.796 -2.44 0.894 -2.178 2.79 -1.52 4.252 -0.366 4.145 1.117 2.256 2.25 0.786 2.371 -1.114 0 0 2.307 -2.897 0 0 1.625 -3.822 0 0 -2.777 -0.517 0.523 19.534 -0.383 7.627 -0.533 1.383 -0.643 0.44 -1.264 0.003 -2.299 -0.938 -1.366 -1.28 -0.038 -0.429 0.953 -1.414 6.784 -3.984 0.963 -0.46 1.089 -0.528 1.042 -0.502 1.058 -0.548 3.724 -1.905 -0.083 -0.25 -4.123 0.706 -1.183 0.197 -1.161 0.253 -1.208 0.313 -1.211 0.366 -7.774 4.066 -1.951 2.893 0.23 2.63 2.607 2.443 3.36 1.371 2.781 -0.006 2.175 -1.49 1.041 -2.701 0.411 -8.226 -0.633 -19.65 -2.777 -0.517 0 0 -1.44 3.47 0 0 -1.649 2.058 0 0 -0.709 0.33 -0.047 -0.013 -0.254 -0.492 0.231 -2.995 1.21 -3.513 1.399 -1.867 0.801 -0.343 0.441 0.109 0.751 1.01 0.005 -0.067 -0.113 2.653 -0.021 0.183 -0.21 2.091" />
    <path class="write-stroke-pen" fill="none" stroke="#FFFFFF" stroke-width="1.6" stroke-linecap="round" stroke-linejoin="round" __comx="227.846" __comy="97.189" __timestamp="0x1787eef04d5" d="M46.394 99.695 l362.903 -4.479" />
  </g>
</svg>
