<svg class="write-page" width="1010px" height="1628px" xmlns="http://www.w3.org/2000/svg" xmlns:xlink="http://www.w3.org/1999/xlink">
  <g class="write-content write-v3" width="1010" height="1628" xruling="30" yruling="30" marginLeft="30" papercolor="#1B1C1C" rulecolor="#3A00F9FF">
    <g class="ruleline write-std-ruling write-scale-down" fill="none" stroke="#00F9FF" stroke-opacity="0.227" stroke-width="1" shape-rendering="crispEdges" vector-effect="non-scaling-stroke">
      <rect class="pagerect" fill="#1B1C1C" stroke="none" x="0" y="0" width="1010" height="1628" />
      <path class="yrule_1" d="M0 30 l1010 0" />
      <path d="M0 60 l1010 0" />
      <path d="M0 90 l1010 0" />
      <path d="M0 120 l1010 0" />
      <path d="M0 150 l1010 0" />
      <path d="M0 180 l1010 0" />
      <path d="M0 210 l1010 0" />
      <path d="M0 240 l1010 0" />
      <path d="M0 270 l1010 0" />
      <path d="M0 300 l1010 0" />
      <path d="M0 330 l1010 0" />
      <path d="M0 360 l1010 0" />
      <path d="M0 390 l1010 0" />
      <path d="M0 420 l1010 0" />
      <path d="M0 450 l1010 0" />
      <path d="M0 480 l1010 0" />
      <path d="M0 510 l1010 0" />
      <path d="M0 540 l1010 0" />
      <path d="M0 570 l1010 0" />
      <path d="M0 600 l1010 0" />
      <path d="M0 630 l1010 0" />
      <path d="M0 660 l1010 0" />
      <path d="M0 690 l1010 0" />
      <path d="M0 720 l1010 0" />
      <path d="M0 750 l1010 0" />
      <path d="M0 780 l1010 0" />
      <path d="M0 810 l1010 0" />
      <path d="M0 840 l1010 0" />
      <path d="M0 870 l1010 0" />
      <path d="M0 900 l1010 0" />
      <path d="M0 930 l1010 0" />
      <path d="M0 960 l1010 0" />
      <path d="M0 990 l1010 0" />
      <path d="M0 1020 l1010 0" />
      <path d="M0 1050 l1010 0" />
      <path d="M0 1080 l1010 0" />
      <path d="M0 1110 l1010 0" />
      <path d="M0 1140 l1010 0" />
      <path d="M0 1170 l1010 0" />
      <path d="M0 1200 l1010 0" />
      <path d="M0 1230 l1010 0" />
      <path d="M0 1260 l1010 0" />
      <path d="M0 1290 l1010 0" />
      <path d="M0 1320 l1010 0" />
      <path d="M0 1350 l1010 0" />
      <path d="M0 1380 l1010 0" />
      <path d="M0 1410 l1010 0" />
      <path d="M0 1440 l1010 0" />
      <path d="M0 1470 l1010 0" />
      <path d="M0 1500 l1010 0" />
      <path d="M0 1530 l1010 0" />
      <path d="M0 1560 l1010 0" />
      <path d="M0 1590 l1010 0" />
      <path d="M0 1620 l1010 0" />
      <path class="xrule_1" d="M30 0 l0 1628" />
      <path d="M60 0 l0 1628" />
      <path d="M90 0 l0 1628" />
      <path d="M120 0 l0 1628" />
      <path d="M150 0 l0 1628" />
      <path d="M180 0 l0 1628" />
      <path d="M210 0 l0 1628" />
      <path d="M240 0 l0 1628" />
      <path d="M270 0 l0 1628" />
      <path d="M300 0 l0 1628" />
      <path d="M330 0 l0 1628" />
      <path d="M360 0 l0 1628" />
      <path d="M390 0 l0 1628" />
      <path d="M420 0 l0 1628" />
      <path d="M450 0 l0 1628" />
      <path d="M480 0 l0 1628" />
      <path d="M510 0 l0 1628" />
      <path d="M540 0 l0 1628" />
      <path d="M570 0 l0 1628" />
      <path d="M600 0 l0 1628" />
      <path d="M630 0 l0 1628" />
      <path d="M660 0 l0 1628" />
      <path d="M690 0 l0 1628" />
      <path d="M720 0 l0 1628" />
      <path d="M750 0 l0 1628" />
      <path d="M780 0 l0 1628" />
      <path d="M810 0 l0 1628" />
      <path d="M840 0 l0 1628" />
      <path d="M870 0 l0 1628" />
      <path d="M900 0 l0 1628" />
      <path d="M930 0 l0 1628" />
      <path d="M960 0 l0 1628" />
      <path d="M990 0 l0 1628" />
      <path class="leftmargin" stroke="#FF0000" d="M30 0 l0 1628" />
    </g>
    <path class="write-flat-pen" fill="#FFFFFF" stroke-width="3" __comx="84.408" __comy="75.391" __timestamp="0x1787eee59a6" d="M69.479 52.198 l-0.567 -1.818 0.006 -0.006 0.087 -0.347 0.017 0.195 0 0 -1.869 0.238 0.03 0.62 0.03 0.263 0.793 4.195 0.155 0.936 1.423 11.826 0.502 10.579 -0.439 9.265 0.873 2.091 2.752 0.951 22.637 0.105 0.687 -0.144 1.127 -0.432 3.997 -1.806 -0.072 -0.318 -4.359 0.086 -1.068 0.006 -0.433 -0.025 -21.992 -0.466 -1.024 -0.354 -0.095 -0.227 0.413 -8.733 -0.522 -10.836 -1.571 -12.009 -0.221 -1.085 -1.235 -4.216 -0.153 -0.379 -0.421 -0.575 -1.869 0.238 0 0 0.016 0.202 0.406 0.66 0.038 0.074 0.967 1.668" />
    <path class="write-flat-pen" fill="#FFFFFF" stroke-width="3" __comx="113.318" __comy="75.391" __timestamp="0x1787eee5bcd" d="M106.392 78.774 l0.202 0.798 0.193 0.175 0.658 0.471 0.362 0.136 1.807 0.229 0.667 -0.112 3.602 -1.608 0.661 -0.544 2.265 -2.63 1.095 -2.968 -0.833 -2.473 -2.637 -1.279 -3.297 0.515 -3.174 2.032 -2.417 3.117 -1.275 3.503 -0.182 3.239 0.878 3.097 2.171 3.045 3.453 1.907 3.336 0.528 5.108 -1.869 0.465 -0.44 0.403 -0.493 2.646 -3.201 -0.204 -0.264 -3.764 1.754 -0.564 0.254 -0.193 0.053 -4.138 1.13 -2.105 -0.333 -2.395 -1.323 -1.474 -2.067 -0.599 -2.113 0.129 -2.295 0.963 -2.647 1.811 -2.339 2.208 -1.419 1.758 -0.283 0.69 0.322 0.121 0.317 -0.525 1.541 -1.693 2.146 -0.215 0.21 -2.864 1.703 -0.115 0.065 -1.335 0.196 -0.052 0.03 -0.511 -0.018 0.136 0.13 -0.447 -0.362" />
    <path class="write-flat-pen" fill="#FFFFFF" stroke-width="3" __comx="135.383" __comy="75.391" __timestamp="0x1787eee5dc8" d="M137.126 71.918 l0.679 -1.508 0.05 -0.432 -0.717 -1.471 -0.695 -0.325 -4.014 -0.062 -0.711 0.237 -2.262 1.332 -1.299 2.259 0.443 2.179 1.998 1.746 6.769 2.491 1.933 1.337 0.647 1.162 -0.029 0.974 -0.789 1.232 -2.065 1.241 -2.581 0.611 -2.22 -0.143 -1.796 -1.044 0.017 0.636 -0.148 -0.172 -0.201 -2.169 -0.297 -0.108 -1.589 1.649 -0.343 0.639 0.058 1.011 3.27 2.495 3.505 0.222 3.47 -0.83 3.06 -1.862 1.582 -2.547 0.007 -2.608 -1.427 -2.384 -2.78 -1.857 -6.638 -2.388 -0.944 -0.796 -0.084 -0.292 0.418 -0.819 1.399 -0.925 0.093 -0.047 3.167 -0.327 -0.266 -0.144 0.425 0.282 0.038 -0.273 -0.217 1.473" />
    <path class="write-flat-pen" fill="#FFFFFF" stroke-width="3" __comx="154.978" __comy="75.391" __timestamp="0x1787eee5fa5" d="M156.706 66.851 l-1.851 -0.592 -0.341 -0.065 -3.268 0.273 -0.532 0.27 -1.599 1.428 -0.437 2.434 1.703 2.265 6.604 3.086 1.503 1.245 0.436 1.148 -0.219 1.141 -1.029 1.38 -1.826 1.195 -3.348 0.981 -2.533 0.075 0.477 0.74 -0.094 0.288 -0.886 -1.086 -0.682 0.05 -0.72 1.203 -0.077 0.517 0.66 0.965 4.248 0.257 4.227 -1.246 2.638 -1.74 1.742 -2.373 0.466 -2.656 -1.074 -2.624 -2.411 -1.89 -6.349 -2.863 -0.646 -0.776 0.025 -0.448 0.644 -0.685 -0.138 0.062 2.516 -0.594 -0.005 -0.022 1.861 0.177" />
    <path class="write-flat-pen" fill="#FFFFFF" stroke-width="3" __comx="176.595" __comy="75.391" __timestamp="0x1787eee62b3" d="M179.525 73.5 l0.372 -0.767 0.01 -0.176 0.021 -0.77 -0.103 -0.332 -0.652 -1.302 -0.469 -0.451 -3.34 -1.193 -0.914 0.099 -2.295 0.859 -2.378 2.391 -1.479 3.322 -0.399 4.015 0.782 3.09 1.783 2.612 2.675 1.693 3.373 0.465 3.348 -0.933 2.838 -2.079 1.79 -2.946 0.806 -3.826 -0.594 -3.369 -1.882 -3.41 -4.156 -2.439 -0.736 0.249 -0.106 0.078 -1.698 1.693 0.069 0.207 2.374 0.338 0.04 0.029 -0.407 0.167 2.358 1.786 1.278 2.315 0.406 2.306 -0.581 2.757 -1.214 1.998 -1.915 1.404 -2.223 0.62 -2.114 -0.29 -1.605 -1.013 -1.14 -1.663 -0.534 -2.073 0.275 -3.036 1.028 -2.44 1.531 -1.657 1.384 -0.618 0.029 -0.022 2.469 0.495 -0.056 -0.092 0.745 0.715 0.043 -0.005 0.278 0.421 0.014 -0.09 0.065 0.698" />
    <path class="write-flat-pen" fill="#FFFFFF" stroke-width="3" __comx="196.51" __comy="75.391" __timestamp="0x1787eee6499" d="M186.244 70.107 l-0.312 1.033 0.099 0.428 0.625 1.849 0.194 0.474 1.662 4.507 0.177 0.611 -0.015 -0.047 1.164 5.384 0 0 2.842 -0.457 -0.002 -0.131 0.384 -3.944 1.083 -3.333 1.631 -2.493 1.121 -0.757 0.948 -0.106 1.321 0.583 1.79 1.995 2.414 5.021 1.091 3.913 0.042 0.118 0.078 0.604 0.551 4.232 0.262 0.027 1.416 -4.036 0.195 -0.63 0.083 -0.528 -0.868 -4.696 -2.746 -5.711 -2.507 -2.794 -2.653 -1.17 -2.485 0.28 -2.231 1.509 -2.175 3.337 -1.294 4.037 -0.364 4.509 0.031 0.356 2.842 -0.457 0 0 -1.596 -5.353 -0.015 -0.047 -0.241 -0.674 -2.112 -4.494 -0.275 -0.475 -0.958 -1.585 -0.052 -0.006 -0.073 -0.742" />
    <path class="write-flat-pen" fill="#FFFFFF" stroke-width="3" __comx="241.611" __comy="75.391" __timestamp="0x1787eee672e" d="M241.089 58.668 l-1.234 -0.459 -0.07 0.524 -0.002 0.292 0.048 1.852 0.027 0.866 0.239 6.016 0.044 1.47 0.325 18.445 -0.131 1.078 0 0 2.202 -0.157 -0.096 0 -0.316 -0.461 -0.203 -0.453 -0.969 -2.407 -0.249 0.031 -0.341 2.572 -0.072 0.583 0.011 0.956 0.104 0.36 2.202 -0.157 0 0 0.83 -1.437 -0.601 -19.059 -0.111 -1.534 -0.665 -6.036 -0.139 -0.899 -0.383 -1.878 -0.117 -0.408 -0.356 -0.501 -1.234 0.797" />
    <path class="write-flat-pen" fill="#FFFFFF" stroke-width="3" __comx="252.206" __comy="75.391" __timestamp="0x1787eee68de" d="M245.674 60.762 l-1.282 -0.759 0.031 -0.002 -0.461 -0.598 0.145 0.153 0.055 -0.935 0.031 0.019 0.92 -1.609 1.922 -1.79 2.653 -1.415 3.165 -0.73 2.824 0.196 2.002 0.914 1.097 1.148 0.893 2.163 0.019 2.937 -0.916 2.935 -1.735 2.76 -2.16 2.04 -2.908 1.545 -4.187 0.803 1.058 2.336 -0.001 -0.104 0.033 -0.193 0.525 -1.603 -0.215 -0.277 -1.683 0.108 -0.236 0.016 -0.142 0.014 1.058 2.336 4.743 -0.548 3.718 -1.975 2.732 -2.58 2.146 -3.413 1.171 -3.754 -0.027 -3.989 -1.333 -3.223 -1.887 -1.969 -3.024 -1.373 -3.814 -0.251 -3.983 0.955 -3.323 1.859 -2.443 2.508 -1.034 2.441 -0.103 0.723 0.473 1.734 0.346 0.447 1.102 0.578 0.157 0.052 1.45 0.386" />
    <path class="write-flat-pen" fill="#FFFFFF" stroke-width="3" __comx="270.205" __comy="75.391" __timestamp="0x1787eee6a6c" d="M269.967 55.751 l-0.677 1.1 -0.141 0.407 -0.366 1.539 -0.119 0.802 -0.327 3.876 -0.031 1.234 0.308 17.928 0.843 3.852 0.267 0.297 2.164 1.408 0.219 -0.13 -0.19 -2.574 0.115 0.041 -0.432 -3.202 -0.633 -17.669 -0.054 -1.157 -0.082 -3.792 -0.01 -0.717 -0.001 -1.462 -0.012 -0.216 0.237 -1.121" />
    <path class="write-flat-pen" fill="#FFFFFF" stroke-width="3" __comx="287.11" __comy="75.391" __timestamp="0x1787eee6c7a" d="M289.324 79.146 l0.576 -1.193 0.112 -0.206 0.565 -1.351 0.062 -0.286 -0.179 -2.517 -0.514 -0.697 -1.659 -1.184 -2.514 -0.071 -2.602 1.384 -2.217 2.627 -1.425 3.504 -0.342 3.723 1.012 2.694 2.056 1.494 2.733 -0.206 2.51 -1.904 3.123 -5.774 0.516 -0.3 -2.156 -0.762 2.577 6.163 0.56 0.289 2.738 0.745 0.178 -0.239 -1.503 -2.407 0.165 -0.005 -1.912 -5.614 -2.156 -0.762 -1.245 0.724 -3.215 5.946 -1.288 0.978 -0.755 0.058 -0.44 -0.318 -0.457 -1.21 0.232 -2.603 1.067 -2.672 1.533 -1.871 1.434 -0.828 0.967 -0.052 0.716 0.375 -0.115 -0.186 0.434 1.45 0.034 -0.135 -0.126 1.328 -0.019 0.19 -0.212 1.32" />
    <path class="write-flat-pen" fill="#FFFFFF" stroke-width="3" __comx="306.053" __comy="75.391" __timestamp="0x1787eee6e48" d="M299.637 72.943 l-1.004 0.907 -0.159 0.38 -0.444 1.809 -0.046 0.586 0.333 4.661 0.073 0.431 0.807 2.79 2.689 0.487 2.074 -6.852 1.672 -3.136 0.894 -0.745 0.796 -0.15 1.123 0.568 1.316 2.031 1.654 7.652 1.24 2.708 0.097 0.002 1.37 -2.942 -1.529 -8.567 -2.073 -3.196 -2.756 -1.392 -2.561 0.488 -1.939 1.621 -2.078 3.926 -1.34 4.745 1.469 0.29 -0.398 -0.979 -0.047 -0.18 -0.719 -4.364 -0.026 -0.316 0.026 -1.593 -0.048 0.037 0.493 -0.924" />
    <path class="write-flat-pen" fill="#FFFFFF" stroke-width="3" __comx="327.592" __comy="75.439" __timestamp="0x1787eee75e7" d="M316.836 70.93 l-1.067 0.118 -0.182 0.548 -0.184 1.04 0.023 0.442 0.258 2.425 0.127 0.668 1.173 6.592 0.054 0.209 0 0 0.439 1.07 0 0 2.681 -0.166 1.72 -5.413 1.983 -3.644 2.238 -2.361 2.137 -1.268 2.099 -0.41 0.956 0.351 1.036 1.239 0.753 2.447 -0.362 10.102 1.384 2.907 2.304 -0.886 0.553 -0.475 0.405 -0.456 0.386 -0.511 0.333 -0.548 1.701 -2.828 -0.126 -0.124 -2.791 1.76 -0.498 0.301 -0.456 0.249 -0.407 0.199 -0.248 0.072 0.414 -0.286 0.071 0.025 0.355 -9.9 -1.08 -3.51 -1.939 -2.318 -2.495 -0.916 -3.43 0.671 -2.941 1.747 -2.794 2.952 -2.306 4.257 -1.696 5.734 2.681 -0.166 0 0 -0.414 -0.836 0 0 0.019 0.079 -1.586 -6.467 -0.189 -0.628 -0.625 -2.268 -0.091 -0.262 -0.189 -0.715 -0.128 0.335 0.224 -0.289" />
    <path class="write-flat-pen" fill="#FFFFFF" stroke-width="3" __comx="345.813" __comy="75.439" __timestamp="0x1787eee78af" d="M345.615 72.788 l-0.593 1.201 -0.078 0.315 -0.315 1.984 -0.043 0.556 0.196 7.355 -0.176 0.103 0.408 1.945 1.895 -0.332 0.091 -9.061 -0.027 -0.483 -0.098 -1.889 -0.028 -0.074 0.192 -1.143" />
    <path class="write-flat-pen" fill="#FFFFFF" stroke-width="3" __comx="348.9" __comy="75.439" __timestamp="0x1787eee795a" d="M349.443 67.967 l0.133 -1.579 0.368 -1.749 -0.359 -0.231 -1.686 1.442 -0.045 2.039" />
    <path class="write-flat-pen" fill="#FFFFFF" stroke-width="3" __comx="361.315" __comy="75.439" __timestamp="0x1787eee7b23" d="M354.685 71.383 l-0.214 1.915 -0.021 0.413 -0.015 2.948 0.001 0.728 0.069 5.613 0.001 0.58 0 0 0.212 3.169 0 0 2.746 0.014 0.976 -7.636 1.218 -4.486 1.33 -2.473 0.756 -0.609 0.308 -0.024 0.71 0.478 1.176 2.122 1.619 10.758 1.415 3.242 0.289 -0.021 0.934 -3.492 -1.36 -11.446 -1.802 -3.248 -2.178 -1.464 -2.274 0.183 -1.946 1.573 -1.775 3.313 -1.343 5.039 -0.799 7.878 2.746 0.014 0 0 -0.435 -3.052 0 0 -0.031 -0.511 -0.495 -5.619 -0.075 -0.737 -0.382 -2.915 -0.052 -0.358 -0.199 -1.884" />
    <path class="write-flat-pen" fill="#FFFFFF" stroke-width="3" __comx="378.677" __comy="77.49" __timestamp="0x1787eee7d96" d="M380.355 77.725 l0.595 -1.969 0.084 -0.24 0.599 -3.116 -0.147 -0.747 -1.307 -2.2 -2.155 -0.796 -2.44 0.894 -2.178 2.79 -1.52 4.252 -0.366 4.145 1.117 2.256 2.25 0.786 2.371 -1.114 0 0 2.307 -2.897 0 0 1.625 -3.822 0 0 -2.777 -0.517 0.523 19.534 -0.383 7.627 -0.533 1.383 -0.643 0.44 -1.264 0.003 -2.299 -0.938 -1.366 -1.28 -0.038 -0.429 0.953 -1.414 6.784 -3.984 0.963 -0.46 1.089 -0.528 1.042 -0.502 1.058 -0.548 3.724 -1.905 -0.083 -0.25 -4.123 0.706 -1.183 0.197 -1.161 0.253 -1.208 0.313 -1.211 0.366 -7.774 4.066 -1.951 2.893 0.23 2.63 2.607 2.443 3.36 1.371 2.781 -0.006 2.175 -1.49 1.041 -2.701 0.411 -8.226 -0.633 -19.65 -2.777 -0.517 0 0 -1.44 3.47 0 0 -1.649 2.058 0 0 -0.709 0.33 -0.047 -0.013 -0.254 -0.492 0.231 -2.995 1.21 -3.513 1.399 -1.867 0.801 -0.343 0.441 0.109 0.751 1.01 0.005 -0.067 -0.113 2.653 -0.021 0.183 -0.21 2.091" />
    <path class="write-stroke-pen" fill="none" stroke="#FFFFFF" stroke-width="1.6" stroke-linecap="round" stroke-linejoin="round" __comx="227.846" __comy="97.189" __timestamp="0x1787eef04d5" d="M46.394 99.695 l362.903 -4.479" />
    <path class="write-flat-pen" fill="#FFFFFF" stroke-width="3" __comx="63.092" __comy="192.801" __timestamp="0x1787f04810d" d="M61.313 171.413 l-0.176 1.797 -0.031 0.336 -0.017 2.131 0.011 0.812 0.314 8.324 0.057 1.444 0.705 15.656 1.027 4.98 1.66 -0.132 0.232 -5.026 -0.631 -15.602 -0.06 -1.445 -0.411 -8.313 -0.046 -0.805 -0.182 -2.076 -0.031 -0.284 -0.176 -1.797" />
    <path class="write-flat-pen" fill="#FFFFFF" stroke-width="3" __comx="64.156" __comy="192.801" __timestamp="0x1787f04820e" d="M46.503 172.12 l-1.552 2.566 1.363 0.401 0.646 0.134 16.015 1.644 2.458 0.062 11.082 -0.073 1.214 -0.055 1.101 -0.094 4.513 -0.665 0.018 -1.097 -4.488 -0.816 -1.132 -0.132 -1.241 -0.036 -11.033 -0.02 -2.307 -0.058 -15.8 -1.505 -0.51 -0.078 -1.387 -0.153 1.04 2.566" />
    <path class="write-flat-pen" fill="#FFFFFF" stroke-width="3" __comx="63.562" __comy="192.801" __timestamp="0x1787f048333" d="M48.666 206.143 l1.685 -0.25 0.078 0.008 6.44 0.289 2.149 0.102 11.907 0.023 1.322 -0.118 1.194 -0.143 1.192 -0.223 4.368 -1.15 -0.078 -0.97 -4.496 -0.434 -1.206 -0.029 -1.188 0.04 -1.207 0.063 -11.731 -0.058 -2.096 -0.098 -6.58 -0.218 -0.426 0.031 -1.869 0.475" />
    <path class="write-flat-pen" fill="#FFFFFF" stroke-width="3" __comx="92.566" __comy="192.801" __timestamp="0x1787f04854b" d="M81.757 200.761 l-1.424 -2.177 -0.097 -0.124 -1.743 1.647 0.014 0.151 1.215 8.331 0.064 0.346 0 0 0.571 1.262 0 0 2.735 -0.003 4.241 -9.439 1.43 -1.949 -0.348 0.078 0.168 0.19 1.105 4.718 1.803 2.354 2.723 -0.452 5.294 -5.76 0.956 -0.58 0.045 0.014 2.087 4.574 0.245 0.513 0.246 0.418 2.747 3.483 0.809 -0.387 -0.989 -4.324 -0.148 -0.404 -0.194 -0.502 -2.622 -5.827 -2.619 -0.83 -2.484 1.508 -4.883 5.313 0.074 -0.012 -0.315 -0.411 -1.13 -4.825 -1.839 -2.085 -2.481 0.552 -2.285 3.114 -4.371 9.728 2.735 -0.003 0 0 -0.42 -0.929 0 0 0.011 0.062 -1.283 -8.281 -0.034 -0.159 -1.743 1.647 0.14 -0.073 -0.569 0.389" />
    <path class="write-flat-pen" fill="#FFFFFF" stroke-width="3" __comx="117.287" __comy="201.772" __timestamp="0x1787f0486e7" d="M114.334 224.232 l-0.554 -2.612 0.009 -0.38 0.389 -11.539 0.072 -1.298 0.802 -6.845 0.98 -2.994 0.361 -0.323 0.347 -0.008 1.594 1.171 1.719 2.568 0.571 2.012 -0.227 1.137 -0.591 0.722 -5.2 1.657 1.667 2.264 -0.158 0.182 -0.151 0.023 0.715 -1.437 -0.671 -0.998 -1.6 0.12 -0.377 0.176 -0.198 0.239 1.667 2.264 6.061 -1.899 1.631 -1.992 0.515 -2.581 -0.898 -3.164 -2.276 -3.399 -2.841 -2.087 -2.475 0.056 -1.787 1.598 -1.324 4.045 -0.846 7.235 -0.079 1.428 -0.313 11.627 0.012 0.788 0.853 2.907" />
    <path class="write-flat-pen" fill="#FFFFFF" stroke-width="3" __comx="132.448" __comy="201.772" __timestamp="0x1787f048851" d="M132.813 204.141 l-0.375 -3.284 -0.01 -0.178 -0.075 -2.964 -1.395 -0.652 0 0 -2.029 0.819 -1.446 3.741 -0.729 5.184 0.475 2.69 1.586 2.163 2.825 0.669 3.001 -1.428 2.236 -2.936 1.263 -3.725 -0.008 -3.4 -1.323 -2.02 -2.279 -0.481 -1.828 1.412 -0.329 0.673 -0.089 0.435 0.13 3.04 0.705 0.224 1.862 -2.406 0.102 -0.164 -0.06 0.158 0.23 -0.153 -0.276 -0.058 0.156 0.239 0.005 2.01 -0.945 2.788 -1.498 1.967 -1.391 0.662 -0.723 -0.171 -0.52 -0.709 -0.271 -1.534 0.615 -4.372 1.32 -3.42 -2.029 0.819 0 0 -0.278 -0.133 0.046 1.177 0.027 0.336 0.54 3.361" />
    <path class="write-flat-pen" fill="#FFFFFF" stroke-width="3" __comx="150.613" __comy="201.772" __timestamp="0x1787f048976" d="M142.182 204.542 l-0.239 2.381 0.025 0.198 0.037 0.235 0.157 0.458 2.706 -0.701 0.012 -0.077 0.927 -8.178 0.098 -0.286 1.317 -2.487 1.726 -1.701 3.944 -1.625 0.513 -0.098 0.748 -0.085 0.812 -0.107 4.319 -1.005 -0.009 -0.731 -4.341 -0.903 -0.873 -0.087 -0.954 0.006 -1.006 0.133 -4.834 1.947 -2.479 2.443 -1.642 3.104 -0.283 0.824 -0.904 8.642 0.005 0.201 2.706 -0.701 -0.064 0.081 0.037 0.235 0.009 0.093 -0.096 -2.135" />
    <path class="write-flat-pen" fill="#FFFFFF" stroke-width="3" __comx="167.553" __comy="201.772" __timestamp="0x1787f048a6d" d="M163.506 181.069 l0.631 2.14 0.151 0.449 1.263 4.429 0.297 1.217 2.968 21.264 1.847 3.005 0.612 -0.146 0.325 -3.382 -2.908 -21.298 -0.379 -1.441 -1.527 -4.546 -0.237 -0.501 -0.93 -1.991" />
    <path class="write-flat-pen" fill="#FFFFFF" stroke-width="3" __comx="166.84" __comy="201.772" __timestamp="0x1787f048b26" d="M156.547 199.455 l4.717 2.002 1.058 0.344 7.876 1.151 1.361 0.001 1.173 -0.095 4.37 -0.658 0.03 -0.726 -4.302 -1.013 -1.144 -0.19 -1.195 -0.135 -7.482 -1.232 -0.731 -0.233 -4.672 -1.819" />
    <path class="write-flat-pen" fill="#FFFFFF" stroke-width="3" __comx="186.713" __comy="201.772" __timestamp="0x1787f048cea" d="M186.085 202.478 l1.335 -1.197 0.255 -0.288 0.818 -1.188 0.236 -0.665 -0.103 -2.571 -0.457 -0.772 -1.787 -1.283 -2.532 0.854 -2.26 3.231 -1.436 4.735 -0.043 3.81 1.694 2.276 3.001 -0.373 2.249 -2.313 2.035 -3.816 0.271 -0.12 -2.046 -0.943 1.666 5.54 0.335 0.56 0.206 0.264 3.077 2.812 0.716 -0.475 -1.392 -3.929 -0.104 -0.204 -0.089 -0.194 -1.541 -5.23 -2.046 -0.943 -1.215 0.539 -2.321 4.352 -1.218 1.252 -0.222 0.028 -0.046 -0.062 0.027 -2.37 1.173 -3.871 1.421 -2.041 0.163 -0.064 0.06 0.021 -0.211 -0.361 0.192 1.337 0.048 -0.068 -0.358 0.999 -0.033 0.132 -0.903 1.404" />
    <path class="write-flat-pen" fill="#FFFFFF" stroke-width="3" __comx="206.418" __comy="201.772" __timestamp="0x1787f048e4f" d="M198.504 198.549 l-1.006 3.29 -0.011 0.607 0 0 0.461 3.61 0 0 1.179 0.915 0 0 2.321 -0.698 2.117 -6.1 1.499 -2.441 0.784 -0.462 0.705 0.075 1.28 0.979 1.871 2.805 2.114 5.389 2.116 4.383 1.415 -0.43 -0.714 -4.928 -2.254 -5.807 -2.329 -3.491 -2.345 -1.793 -2.528 -0.268 -2.281 1.344 -2.061 3.355 -2.216 6.412 2.321 -0.698 0 0 -0.216 -0.151 0 0 -0.313 -2.179 0 0 -0.005 -0.02 0.714 -2.979" />
    <path class="write-flat-pen" fill="#FFFFFF" stroke-width="3" __comx="227.333" __comy="201.772" __timestamp="0x1787f048f95" d="M226.405 198.617 l1.389 -1.541 0.165 -0.187 1.031 -1.573 0.152 -0.591 -0.284 -1.948 -2.038 -1.431 -2.724 0.535 -2.389 2.267 -1.737 3.791 -0.384 3.454 0.868 3.072 2.335 2.423 3.488 1.086 4.232 -0.693 0.87 -0.419 0.608 -0.42 3.097 -2.841 -0.309 -0.572 -4.074 1.031 -0.576 0.22 -0.444 0.15 -3.18 0.473 -2.086 -0.649 -1.278 -1.327 -0.504 -1.783 0.266 -2.392 1.294 -2.827 1.338 -1.275 0.636 -0.135 -0.001 -0.024 0.063 0.127 0.094 -0.358 -0.536 1.198 -0.034 0.074 -1.099 1.771" />
    <path class="write-flat-pen" fill="#FFFFFF" stroke-width="3" __comx="245.793" __comy="201.772" __timestamp="0x1787f049106" d="M238.561 202.384 l2.422 0.247 0.426 0.027 6.089 -1.034 0.754 -0.464 1.85 -2.025 0.703 -2.425 -0.565 -2.524 -1.673 -1.91 -2.48 -0.756 -2.988 1.262 -1.944 2.177 -1.435 3.466 -0.253 3.949 1.129 3.278 1.797 2.137 4.268 1.814 1.202 0.113 1.114 -0.133 4.046 -0.987 -0.01 -0.768 -4.071 -0.88 -0.914 -0.106 -0.579 -0.116 -3.217 -1.411 -0.981 -1.167 -0.752 -2.182 0.183 -2.853 1.05 -2.536 1.156 -1.294 1.365 -0.577 0.621 0.189 0.606 0.692 0.231 1.029 -0.293 1.02 -1.091 1.209 0.083 -0.049 -5.209 1.014 -0.107 0.007 -2.421 0.028" />
    <path class="write-flat-pen" fill="#FFFFFF" stroke-width="3" __comx="275.187" __comy="168.548" __timestamp="0x1787f0492f7" d="M265.558 171.675 l1.907 -1.833 0.202 -0.167 1.956 -1.521 0.374 -0.251 2.756 -1.306 3.519 -0.719 3.099 0.194 2.12 0.785 1.281 1.229 0.778 2.03 -0.24 3.067 -3.881 10.116 0.229 0.841 1.724 3.012 0.8 -0.177 0.295 -3.458 0.046 0.015 3.743 -9.678 0.327 -4.179 -1.261 -3.289 -2.215 -2.125 -3.119 -1.154 -3.938 -0.245 -4.271 0.881 -3.289 1.603 -0.665 0.475 -2.021 1.811 -0.29 0.315 -1.743 2.067" />
    <path class="write-flat-pen" fill="#FFFFFF" stroke-width="3" __comx="289.669" __comy="206.082" __timestamp="0x1787f049383" d="M288.72 205.445 l-0.801 1.841 1.637 2.009 1.23 -1.066 -0.312 -1.333 -1.576 -0.408 1.637 2.009 0.885 -1.802" />
    <path class="write-flat-pen" fill="#FFFFFF" stroke-width="3" __comx="104.311" __comy="289.585" __timestamp="0x1787f049d94" d="M103.153 274.573 l-0.193 -1.196 0.09 -0.296 -2.571 0.658 0 0.098 0.384 1.596 0.202 0.722 3.96 18.969 2.275 4.156 0.891 -0.266 -0.337 -4.605 -3.931 -18.979 -0.267 -0.841 -0.582 -1.58 -0.071 -0.113 -2.571 0.658 0.187 0.246 0.186 1.153" />
    <path class="write-flat-pen" fill="#FFFFFF" stroke-width="3" __comx="121.564" __comy="289.585" __timestamp="0x1787f049f22" d="M113.111 268.402 l1.609 -0.365 -0.342 -0.172 4.378 3.353 3.671 3.973 3.18 4.828 1.503 3.734 0.644 4.028 -0.254 3.898 -1.595 4.957 -4.174 5.437 -0.592 0.527 -0.613 0.544 -3.156 3.362 0.689 0.926 4.128 -2.054 0.765 -0.48 0.937 -0.752 4.711 -6.094 1.869 -5.808 0.3 -4.605 -0.751 -4.694 -1.741 -4.326 -3.481 -5.285 -4.017 -4.345 -4.808 -3.639 -0.925 -0.475 -2.69 0.84" />
    <path class="write-flat-pen" fill="#FFFFFF" stroke-width="3" __comx="166.127" __comy="289.585" __timestamp="0x1787f04a568" d="M165.742 277.718 l0.269 -1.396 -0.33 0.654 -0.441 0.223 -0.604 -0.551 0.933 4.457 0.024 0.791 -0.639 13.786 -0.003 0.539 0.022 0.4 0.592 4.602 0.733 0.051 1.224 -4.476 0.078 -0.396 0.071 -0.557 0.839 -13.924 -0.047 -1.201 -1.373 -5.467 -0.938 -0.872 -1.962 0.436 -0.448 0.871 0.123 1.948" />
    <path class="write-flat-pen" fill="#FFFFFF" stroke-width="3" __comx="174.135" __comy="289.585" __timestamp="0x1787f04a770" d="M164.937 279.067 l-0.19 -3.278 -0.068 0.174 1.902 -2.188 3.247 -2.241 3.381 -1.375 2.486 -0.257 0.993 0.409 0.615 0.796 0.193 1.519 -0.527 1.906 -1.598 2.33 -5.451 3.415 0 0 -0.315 2.275 3.42 3.784 5.436 10.934 1.782 2.06 2.563 0.599 0.644 -0.156 2.889 -1.647 -0.093 -0.55 -3.27 -0.608 -0.06 -0.038 -1.031 -0.285 -0.909 -1.051 -5.451 -10.964 -3.698 -4.09 -0.315 2.275 0 0 5.97 -3.758 2.219 -3.26 0.809 -2.961 -0.376 -2.908 -1.594 -2.056 -2.415 -0.991 -3.648 0.386 -4.067 1.679 -3.793 2.69 -2.31 2.83 -0.381 0.859 0.558 3.994" />
    <path class="write-flat-pen" fill="#FFFFFF" stroke-width="3" __comx="195.948" __comy="289.585" __timestamp="0x1787f04a911" d="M187.551 290.241 l1.265 1.448 0.592 0.261 3.875 0.543 0.926 -0.134 3.197 -1.025 2.546 -1.847 1.246 -2.221 -0.433 -2.404 -2.187 -1.303 -2.724 0.523 -2.452 2.092 -1.785 2.933 -1.01 3.992 0.617 3.381 1.749 1.992 2.443 0.758 3.838 -0.901 0.789 -0.419 1.082 -0.75 0.461 -0.42 2.76 -3.109 -0.271 -0.395 -3.894 1.456 -0.484 0.228 -1.01 0.486 -0.404 0.17 -2.739 0.564 -0.876 -0.277 -0.646 -0.736 -0.352 -1.925 0.738 -2.925 1.299 -2.141 1.486 -1.273 0.836 -0.164 0.052 0.027 0.009 0.024 -0.403 0.737 -1.636 1.215 -2.515 0.853 -0.317 0.056 -3.172 -0.23 0.183 0.097 -1.151 -0.849" />
    <path class="write-flat-pen" fill="#FFFFFF" stroke-width="3" __comx="219.61" __comy="289.585" __timestamp="0x1787f04ab12" d="M207.039 285.792 l-0.8 2.701 -0.057 0.563 0.313 4.444 0.085 0.592 0.717 2.975 2.076 2.003 2.338 -1.863 2.362 -7.337 0.956 -1.185 0 0 -2.597 -0.487 1.683 5.293 1.826 2.291 3.043 0.003 6.322 -5.984 0.777 -0.314 -0.023 -0.012 2.54 6.849 3.395 2.766 1.042 -0.881 -1.825 -3.408 -2.735 -7.44 -2.222 -1.179 -2.599 1.05 -5.866 5.552 -0.403 0 -0.582 -0.73 -1.515 -4.765 -2.597 -0.487 0 0 -1.306 1.619 -2.255 7.006 0.424 -0.337 0.436 0.424 -0.499 -1.995 -0.058 -0.368 -0.441 -4.112 -0.006 -0.112 0.468 -2.551" />
    <path class="write-flat-pen" fill="#FFFFFF" stroke-width="3" __comx="240.617" __comy="289.585" __timestamp="0x1787f04abc1" d="M238.338 292.065 l-0.488 3.796 2.324 2.626 3.14 -0.653 0.07 -1.029 -1.854 -0.992 -0.629 -0.876 0.225 -2.558" />
    <path class="write-flat-pen" fill="#FFFFFF" stroke-width="3" __comx="245.417" __comy="289.585" __timestamp="0x1787f04ac4c" d="M247.163 280.256 l-2.195 0.064 -0.725 0.277 -0.805 1.71 2.205 1.272 0.943 -0.894 0.159 -0.885 -0.466 1.016 -0.665 0.254 1.782 -0.306" />
    <path class="write-flat-pen" fill="#FFFFFF" stroke-width="3" __comx="258.204" __comy="289.585" __timestamp="0x1787f04adb4" d="M250.948 286.643 l-0.415 2.857 -0.045 0.469 -0.199 3.374 -0.018 0.651 0.252 3.537 1.309 1.243 0 0 2.159 -0.11 1.674 -1.932 2.677 -6.214 1.053 -1.285 -0.564 -0.056 0.436 0.832 0.976 5.878 1.398 2.575 3.485 2.371 1.011 -1.03 -2.111 -3.12 -0.903 -1.769 -0.975 -5.87 -1.41 -2.692 -2.646 -0.262 -2.338 2.855 -2.66 6.177 -1.367 1.585 2.159 -0.11 0 0 -0.48 -0.443 -0.198 -2.248 0 -0.492 0.011 -3.335 -0.003 -0.393 0.094 -2.83" />
    <path class="write-flat-pen" fill="#FFFFFF" stroke-width="3" __comx="291.596" __comy="289.585" __timestamp="0x1787f04b00d" d="M283.488 274.51 l-0.316 3.874 0.002 0.654 0.004 12.622 0 0 0 0.655 0 0 0.391 2.795 0 0 2.727 -1.049 -1.463 -2.157 -2.491 -1.587 -2.726 -0.223 -2.749 1.266 -1.758 2.316 -0.298 2.66 1.124 2.773 2.473 2.196 3.563 1.333 3.962 0.363 4.049 -0.885 3.729 -2.212 3.612 -3.696 2.944 -4.473 1.28 -3.638 -0.588 -1.333 0 0 -2.242 -0.617 -1.367 0.973 -1.356 3.552 -0.328 3.91 0.933 3.943 1.758 2.797 4.437 2.685 0.98 0.116 4.394 -0.06 0.213 -1.247 -4.125 -1.514 -0.403 -0.12 -3.331 -2.054 -1.118 -1.779 -0.708 -2.993 0.252 -3.011 0.881 -2.307 0.628 -0.447 -2.242 -0.617 0 0 0.109 0.247 -0.764 2.171 -2.584 3.925 -3.134 3.208 -2.973 1.764 -3.123 0.683 -3.1 -0.284 -2.663 -0.996 -1.531 -1.359 -0.575 -1.418 0.121 -1.083 0.805 -1.061 1.354 -0.625 1.203 0.096 1.341 0.854 1.111 1.646 2.727 -1.049 0 0 -0.363 -2.589 0 0 -0.001 -0.451 0 0 -0.092 -12.644 -0.017 -0.569 0.101 -3.784" />
    <path class="write-flat-pen" fill="#FFFFFF" stroke-width="3" __comx="319.247" __comy="289.585" __timestamp="0x1787f04b137" d="M311.089 296.654 l-1.491 3.059 -0.092 0.409 0 0 0.047 0.892 0 0 2.764 0.559 5.036 -9.392 1.568 -1.822 1.697 -0.891 1.819 -0.132 2.156 0.838 0.171 0.071 3.977 1.08 0.247 -0.391 -2.689 -3.124 -0.361 -0.264 -3.025 -1.253 -3.137 0.228 -2.756 1.448 -2.158 2.507 -5.142 9.713 2.764 0.559 0 0 -0.074 -0.446 0 0 -0.07 0.308 1.151 -2.889" />
    <path class="write-flat-pen" fill="#FFFFFF" stroke-width="3" __comx="333.445" __comy="289.585" __timestamp="0x1787f04b2c3" d="M339.697 291.095 l-0.179 -2.086 -0.152 -0.595 -2.418 -2.667 -1.167 -0.172 -2.125 0.685 -1.841 2.46 -0.447 3.053 0.898 2.936 2.418 3.286 0.073 0.399 -0.139 0.148 -3.246 0.521 -4.178 0.978 0.019 1.17 4.419 0.835 4.471 -0.702 1.878 -2.003 -0.474 -2.568 -2.528 -3.429 -0.554 -1.804 0.239 -1.636 0.816 -1.094 0.557 -0.184 -0.548 -0.082 1.322 1.31 -0.058 -0.258 0.404 1.874" />
    <path class="write-flat-pen" fill="#FFFFFF" stroke-width="3" __comx="110.609" __comy="366.703" __timestamp="0x1787f04f9e8" d="M98.964 371.709 l0.007 -2.16 0.063 -0.108 1.405 -2.809 0.238 -0.366 4.656 -5.324 0.309 -0.229 1.914 -0.928 1.227 0.031 0.809 0.678 0.517 1.277 0.03 2.493 -1.175 4.038 -2.746 5.145 -7.129 8.739 -0.269 2.575 4.176 1.332 14.669 1.458 0.891 0.052 0.921 0.001 4.911 -0.339 0.101 -1.414 -4.813 -1.033 -0.902 -0.129 -0.845 -0.084 -14.319 -1.465 -1.551 -0.495 -0.078 0.744 6.748 -8.272 3.03 -5.679 1.383 -4.769 -0.054 -3.507 -1.029 -2.489 -2.197 -1.794 -2.966 -0.034 -2.784 1.385 -0.78 0.595 -4.846 5.886 -0.404 0.725 -1.232 3.289 -0.119 0.685 0.483 2.478" />
    <path class="write-flat-pen" fill="#FFFFFF" stroke-width="3" __comx="125.022" __comy="358.499" __timestamp="0x1787f04fb8b" d="M117.26 354.172 l-0.231 -1.604 -0.505 0.748 0.966 0.012 0.298 0.101 5.901 3.394 0.946 0.855 3.907 4.699 2.174 4.036 1.29 4.163 0.603 5.949 -0.599 4.592 -1.874 5.705 -3.67 6.32 -0.786 1.007 -0.805 1.052 -2.53 3.693 0.793 0.751 3.551 -2.726 1.063 -0.92 1.064 -1.191 4.055 -6.746 2.065 -6.28 0.678 -5.215 -0.671 -6.589 -1.465 -4.725 -2.459 -4.554 -4.257 -5.078 -1.357 -1.205 -6.593 -3.578 -1.17 -0.264 -2.474 0.474 -0.739 1.072 0.998 2.589" />
    <path class="write-flat-pen" fill="#FFFFFF" stroke-width="3" __comx="164.008" __comy="377.665" __timestamp="0x1787f05045c" d="M165.232 363.546 l0.238 -1.803 -0.028 0.156 -1.968 -0.114 -0.026 0.564 -0.008 0.194 0.184 6.863 -0.006 1.183 -0.351 8.949 -1.041 6.308 -0.677 1.717 0.562 0.673 2.545 -0.971 1.482 -7.412 0.326 -9.21 -0.004 -1.301 -0.45 -7.001 -0.088 -0.529 -0.436 -0.687 -1.968 -0.114 -0.092 0.294 0.277 2.256" />
    <path class="write-flat-pen" fill="#FFFFFF" stroke-width="3" __comx="181.395" __comy="377.665" __timestamp="0x1787f05071e" d="M162.44 367.59 l-1.824 -1.231 0.24 0.702 1.22 -2.81 0.352 -0.456 3.785 -4.09 3.129 -2.314 2.522 -1.025 1.742 -0.002 1.061 0.639 0.869 1.48 0.271 2.3 -0.582 2.801 -1.659 3.501 -2.19 2.774 -2.605 2.061 -2.969 1.139 0 0 -0.376 2.588 13.227 10.167 3.353 1.766 2.991 0.434 2.887 -0.761 2.77 -2.036 1.858 -2.712 0.895 -3.183 -0.404 -2.759 -1.617 -2.374 -2.62 -1.478 -2.606 0.037 -2.472 1.676 -1.452 3.126 -0.212 3.151 0.967 3.973 2.119 3.255 2.341 1.946 4.073 1.571 5.932 -0.18 1.274 -0.35 1.087 -0.391 0.972 -0.501 3.901 -2.382 -0.459 -1.122 -4.453 1.031 -0.953 0.286 -0.924 0.272 -0.864 0.208 -4.994 0.115 -3.053 -1.178 -1.613 -1.341 -1.592 -2.446 -0.736 -3.026 0.144 -2.133 0.867 -1.867 1.041 -0.706 0.897 -0.013 1.303 0.735 0.833 1.224 0.211 1.444 -0.588 2.092 -1.291 1.884 -1.9 1.397 -1.744 0.46 -1.875 -0.272 -2.669 -1.406 -13.025 -10.01 -0.376 2.588 0 0 3.396 -1.306 3.235 -2.566 2.613 -3.318 1.951 -4.131 0.746 -3.626 -0.408 -3.397 -1.57 -2.662 -2.413 -1.451 -3.145 0.005 -3.402 1.39 -3.646 2.72 -4.014 4.462 -0.646 0.892 -1.472 4.103 0.378 1.137 2.907 1.385" />
    <path class="write-flat-pen" fill="#FFFFFF" stroke-width="3" __comx="211.379" __comy="377.665" __timestamp="0x1787f050809" d="M205.651 361.994 l1.043 5.74 0.287 1.053 5.742 21.932 2.015 5.053 2.368 -0.848 -1.607 -5.066 -5.775 -21.825 -0.293 -0.973 -1.292 -5.581" />
    <path class="write-flat-pen" fill="#FFFFFF" stroke-width="3" __comx="208.837" __comy="377.665" __timestamp="0x1787f0508c8" d="M198.397 375.958 l1.813 -0.867 0.145 -0.012 14.977 -1.504 1.056 -0.295 4.093 -1.486 -0.057 -0.415 -4.342 -0.328 -1.042 -0.007 -15.115 1.302 -0.713 0.178 -2.022 1.34" />
    <path class="write-flat-pen" fill="#FFFFFF" stroke-width="3" __comx="229.655" __comy="377.665" __timestamp="0x1787f050a39" d="M218.549 377.377 l-1.34 3.45 0.003 0.805 1.237 4.912 0.371 0.597 1.778 1.673 2.447 -0.038 1.771 -1.909 1.968 -11.208 0.778 -1.743 1.198 -0.92 1.819 -0.334 3.349 0.946 0.437 0.227 1.874 1.23 0.544 0.409 1.051 0.83 0.502 0.388 3.535 2.46 0.229 -0.216 -2.256 -3.668 -0.392 -0.559 -0.937 -1.101 -0.615 -0.618 -1.993 -1.558 -0.839 -0.498 -4.319 -1.339 -3.238 0.579 -2.379 1.826 -1.238 2.776 -1.876 10.706 -0.303 0.335 0.02 0.011 -0.644 -0.569 0.059 0.1 -1.234 -4.122 -0.018 -0.003 0.863 -3.113" />
    <path class="write-flat-pen" fill="#FFFFFF" stroke-width="3" __comx="246.715" __comy="377.665" __timestamp="0x1787f050b8b" d="M244.347 382.468 l0.843 0.6 0.397 -0.125 0.702 -0.385 0.214 -0.278 0.514 -0.881 0.136 -0.409 0.289 -1.616 -0.03 -0.666 -1.056 -2.93 -0.637 -0.674 -2.11 -1.327 -2.83 -0.2 -2.766 1.681 -1.685 2.581 -1.202 4.25 0.046 4.473 1.362 4.198 2.475 3.154 2.567 1.515 3.305 0.623 3.609 -0.692 3.56 -2.113 2.832 -2.905 2.462 -4.04 0.96 -3.727 -0.479 -3.412 -1.619 -2.663 -3.549 -1.902 -0.808 -0.043 -0.896 0.178 -2.917 1.833 0.136 0.562 3.273 0.338 0.476 0.014 -0.109 0.006 2.25 1.261 0.878 1.445 0.311 2.211 -0.7 2.718 -2.053 3.369 -2.318 2.378 -2.768 1.643 -2.534 0.486 -2.229 -0.42 -1.628 -0.961 -1.797 -2.29 -1.056 -3.255 -0.037 -3.583 0.96 -3.395 1.063 -1.63 1.37 -0.835 1.138 0.075 1.172 0.717 -0.022 -0.03 0.828 1.937 0.021 0.017 0.026 1.256 0.013 0.148 -0.026 0.724 0.072 -0.017 0.051 0.336 0.326 -0.097 -0.613 0.192" />
    <path class="write-flat-pen" fill="#FFFFFF" stroke-width="3" __comx="269.098" __comy="377.665" __timestamp="0x1787f050d27" d="M266.788 378.555 l0.953 -2.07 0.151 -0.55 -0.399 -2.773 -0.465 -0.695 -2.095 -1.716 -2.748 -0.676 -2.207 1.318 -0.02 2.771 1.693 2.129 10.457 5.159 2.265 1.783 0.694 1.197 0.117 1.487 -0.757 1.631 -1.726 1.345 -2.069 0.605 -1.526 -0.144 -0.441 -0.397 -0.247 0.68 -0.15 -2.368 -1.127 -0.355 -1.479 1.856 -0.359 1.035 2.468 2.438 3.152 0.298 3.171 -0.928 2.75 -2.143 1.393 -3.004 -0.236 -2.951 -1.326 -2.279 -2.962 -2.329 -10.136 -5.001 -0.618 -0.777 -0.001 -0.033 -0.287 0.169 0.927 0.213 1.283 0.983 -0.11 -0.175 0.405 1.577 0.053 -0.142 -0.57 2.048" />
    <path class="write-flat-pen" fill="#FFFFFF" stroke-width="3" __comx="303.903" __comy="377.665" __timestamp="0x1787f050fd5" d="M281.053 395.179 l-1.271 3.385 -0.043 0.098 -0.743 1.008 2.269 -0.128 0.183 0.213 -0.018 -5.235 0.014 -1.155 0.204 -9.883 0.791 -5.145 1.43 -3.998 1.129 -1.138 1.491 -0.495 1.42 0.21 1.899 1.144 1.423 1.7 0.803 2.147 0.034 2.12 -0.721 2.16 -1.721 2.229 0 0 -4.263 3.52 0 0 1.303 2.616 3.81 -0.909 8.052 -3.435 7.016 -3.924 4.028 -3.144 0.997 -2.351 -1.045 -2.476 -2.661 -1.078 -2.896 0.955 -2.188 2.679 -0.954 3.178 0.228 3.252 1.497 3.006 2.254 1.975 3.854 1.467 3.593 0.179 4.181 -0.94 7.815 -4.198 1.121 -0.883 0.817 -0.765 3.12 -3.384 -0.726 -0.929 -4.039 2.208 -0.916 0.588 -0.961 0.672 -7.285 3.854 -3.387 0.761 -2.711 -0.135 -2.906 -1.106 -1.404 -1.23 -0.968 -1.944 -0.148 -2.111 0.624 -2.08 1.257 -1.539 1.02 -0.337 0.489 0.198 0.071 0.164 -0.197 0.476 -3.225 2.54 -6.679 3.724 -7.681 3.254 -3.564 0.85 1.303 2.616 0 0 4.522 -3.734 0 0 2.236 -2.897 1.044 -3.128 -0.051 -3.15 -1.167 -3.113 -2.08 -2.475 -2.846 -1.703 -2.715 -0.394 -2.835 0.953 -2.084 2.115 -1.741 4.885 -0.861 5.619 -0.189 10.095 -0.007 1.215 0.227 6.122 0.35 0.446 2.269 -0.128 0.584 -1.378 0.094 -0.346 0.837 -3.522" />
    <path class="write-flat-pen" fill="#FFFFFF" stroke-width="3" __comx="336.928" __comy="377.665" __timestamp="0x1787f051127" d="M326.292 379.152 l1.619 -0.96 0.164 -0.088 1.597 -1.071 0.288 -0.256 0.977 -1.797 -0.734 -1.534 -3.274 -0.095 -0.9 0.415 -2.09 1.61 -1.801 3.112 -0.277 3.114 1.116 2.552 2.379 2.017 4.506 1.432 5.377 -0.092 4.609 -1.26 6.274 -3.143 1.34 -0.896 1.171 -0.939 3.361 -2.977 -0.643 -0.983 -4.076 1.884 -1.31 0.683 -1.241 0.728 -5.927 2.861 -3.978 1.066 -4.515 0.063 -3.467 -1.102 -1.391 -1.179 -0.53 -1.212 0.15 -1.689 1.171 -2.029 1.353 -1.052 -0.018 0.006 0.838 -0.052 -0.605 -1.272 0.039 0.229 0.147 -0.125 -1.244 1.278 -0.121 0.12 -1.322 1.406" />
    <path class="write-flat-pen" fill="#FFFFFF" stroke-width="3" __comx="350.403" __comy="377.665" __timestamp="0x1787f05122e" d="M348.28 356.622 l0.085 2.544 0.039 0.551 0.442 4.813 0.119 1.329 0.559 12.897 -0.383 10.018 0.148 4.683 1.3 0.189 1.498 -4.599 0.439 -10.296 -0.574 -13.094 -0.133 -1.417 -0.557 -4.821 -0.072 -0.506 -0.288 -2.485" />
    <path class="write-flat-pen" fill="#FFFFFF" stroke-width="3" __comx="350.758" __comy="377.665" __timestamp="0x1787f0512f8" d="M336.146 370.73 l7.051 2.189 8.058 0.974 7.62 -0.364 1.266 -0.225 1.221 -0.359 4.009 -1.44 -0.056 -0.374 -4.255 -0.202 -1.213 0.006 -1.142 0.011 -7.331 0.138 -7.613 -0.891 -6.87 -1.961" />
    <path class="write-flat-pen" fill="#FFFFFF" stroke-width="3" __comx="363.092" __comy="377.665" __timestamp="0x1787f0513ec" d="M361.274 371.718 l-0.538 2.318 -0.084 0.438 -0.413 3.101 -0.072 0.852 -0.235 7.547 0.159 0.832 1.334 2.465 2.877 -0.921 0.669 -0.959 0.345 -0.872 0.935 -3.096 -0.656 -0.389 -2.267 2.306 -0.514 0.577 -0.12 0.053 0.18 -0.141 0.003 -0.015 -0.02 -0.095 0.025 -7.197 0.015 -0.772 0.077 -3.06 0.005 -0.388 0.073 -2.353" />
    <path class="write-flat-pen" fill="#FFFFFF" stroke-width="3" __comx="368.345" __comy="377.665" __timestamp="0x1787f051492" d="M368.392 359.661 l-2.589 0.672 -0.091 1.358 2.102 2.988 2.852 2.306 0.311 -0.231 -1.346 -3.345 -1.433 -2.387 -0.074 1.063 0.919 -0.541" />
    <path class="write-flat-pen" fill="#FFFFFF" stroke-width="3" __comx="378.613" __comy="377.665" __timestamp="0x1787f05156f" d="M371.131 376.29 l-0.441 2.281 -0.059 0.503 0.346 3.009 0.448 0.718 2.105 1.449 1.144 0.109 4.053 -1.634 0.86 -0.697 3.779 -4.298 3.231 -6.336 -0.006 -0.572 -0.871 -3.937 -0.982 -0.024 -1.061 3.89 -0.017 -0.105 -2.792 5.385 -3.36 3.843 -0.329 0.273 -2.969 1.315 0.23 0.036 -1.162 -0.593 0.114 0.211 -0.601 -2.189 -0.027 -0.224 -0.062 -2.283" />
    <path class="write-flat-pen" fill="#FFFFFF" stroke-width="3" __comx="399.044" __comy="377.665" __timestamp="0x1787f0516c9" d="M387.134 379.415 l2.256 0.349 0.381 0.035 3.303 0.104 0.802 -0.023 4.352 -0.563 3.709 -1.521 1.385 -2.185 -1.663 -2.317 -3.483 -0.24 -3.59 1.421 -3.037 2.656 -1.907 3.72 -0.219 2.865 1.099 2.402 4.735 2.378 1.785 0.131 7.667 -1.25 2.271 -0.881 3.974 -1.635 -0.392 -1.312 -4.22 0.811 -2.209 0.456 -7.182 1.028 -0.892 -0.102 -3.26 -1.78 -0.342 -0.778 0.121 -1.501 1.374 -2.675 2.217 -1.939 2.479 -0.982 1.401 0.097 -0.336 -0.468 0.206 -0.324 -2.468 1.02 -3.824 0.526 -0.597 0.028 -3.2 0.062 -0.277 0.011 -2.219 -0.026" />
    <path class="write-flat-pen" fill="#FFFFFF" stroke-width="3" __comx="427.787" __comy="377.665" __timestamp="0x1787f051863" d="M430.643 357.348 l-1.179 2.625 -0.174 0.664 -5.749 23.781 -0.755 4.528 1.049 0.383 2.394 -4.101 5.683 -23.98 0.092 -0.512 0.786 -2.577" />
    <path class="write-flat-pen" fill="#FFFFFF" stroke-width="3" __comx="451.469" __comy="377.665" __timestamp="0x1787f051b09" d="M428.585 367.612 l0.485 -2.222 -0.034 0.116 1.761 -2.018 0.297 -0.228 4.637 -2.606 5.299 -1.905 4.955 -0.878 3.109 0.126 1.295 0.703 0.56 0.876 0.121 1.561 -0.76 2.342 -2.437 3.658 -3.768 3.663 -4.891 3.389 -6.334 2.786 0 0 -0.693 1.151 0 0 1.053 2.256 10.764 1.687 12.422 4.784 3.162 0.356 2.648 -1.153 2.561 -2.533 1.927 -3.395 0.657 -3.145 -0.603 -2.628 -2.02 -2.117 -2.799 -0.066 -2.237 1.359 -1.991 2.747 -0.864 2.968 0.389 4.095 1.446 2.974 2.945 3.093 3.234 1.717 5.857 1.081 1.367 -0.162 4.556 -0.937 -0.09 -1.482 -4.635 -0.378 -1.011 -0.017 -5.04 -0.969 -2.401 -1.274 -2.288 -2.402 -1.005 -2.067 -0.283 -2.984 0.558 -1.917 1.331 -1.836 0.97 -0.59 0.679 0.016 0.593 0.621 0.272 1.184 -0.427 2.042 -1.491 2.626 -1.868 1.847 -1.398 0.609 -1.982 -0.223 -12.36 -4.76 -11.08 -1.736 1.053 2.256 0 0 0.202 -0.336 0 0 5.727 -2.519 5.331 -3.696 4.174 -4.059 2.842 -4.267 1.07 -3.299 -0.225 -2.901 -1.381 -2.159 -2.586 -1.405 -4.13 -0.167 -5.526 0.981 -5.777 2.09 -5.032 2.905 -0.708 0.582 -2.025 2.655 -0.235 0.564 -0.202 2.643" />
    <path class="write-flat-pen" fill="#FFFFFF" stroke-width="3" __comx="484.636" __comy="377.665" __timestamp="0x1787f051cbb" d="M492.85 375.537 l-1.389 -1.819 -0.515 -0.409 -3.624 -1.001 -1.012 0.08 -3.107 0.954 -3.386 2.626 -2.406 3.531 -0.989 3.346 0.904 2.611 2.148 1.293 3.433 -0.221 5.701 -2.946 -0.245 0.018 0.484 2.471 1.815 2.778 1.452 -0.552 -0.396 -3.038 -0.907 -4.844 -3.033 0.22 -5.689 2.941 -1.87 0.12 -0.412 -0.248 -0.233 -0.674 0.583 -1.973 1.874 -2.753 2.58 -2.007 2.272 -0.716 0.192 -0.02 2.624 0.591 -0.157 -0.137 1.399 1.423" />
    <path class="write-flat-pen" fill="#FFFFFF" stroke-width="3" __comx="504.432" __comy="377.665" __timestamp="0x1787f051e45" d="M506.399 372.93 l-0.329 -1.889 -0.33 -0.482 -1.29 -1.013 -0.501 -0.202 -2.125 -0.31 -2.374 1.337 -1.272 2.348 0.077 2.812 1.597 2.509 7.513 3.816 0.53 0.55 -0.018 0.251 -0.978 1 -2.662 1.205 -3.132 0.177 0.194 0.195 -2.665 -1.032 -0.753 0.946 1.601 2.367 0.651 0.559 4.827 -0.247 3.69 -1.671 2.14 -2.189 0.193 -2.681 -1.811 -1.876 -7.235 -3.67 -0.715 -1.121 -0.037 -1.189 0.479 -0.906 0.77 -0.468 0.832 0.054 -0.097 -0.049 0.82 0.371 -0.167 -0.266 0.597 1.333" />
    <path class="write-flat-pen" fill="#FFFFFF" stroke-width="3" __comx="521.75" __comy="377.665" __timestamp="0x1787f051fb8" d="M526.936 375.16 l-0.926 -1.646 -0.166 -0.225 -1.089 -1.182 -0.385 -0.298 -3.105 -1.431 -2.566 0.141 -2.493 1.552 -1.91 2.959 -1.002 3.903 0.117 3.937 1.125 3.372 1.948 2.428 2.397 1.23 3.001 0.063 3.096 -1.274 2.594 -2.311 1.665 -2.812 0.967 -3.958 -0.396 -2.826 -1.618 -2.141 -0.549 -0.287 -3.537 -1.003 -0.551 0.952 2.629 2.569 -0.005 0.029 0.767 1.058 0.21 1.495 -0.725 2.966 -1.201 2.027 -1.864 1.661 -2.045 0.841 -1.684 -0.035 -1.212 -0.622 -1.212 -1.51 -0.815 -2.444 -0.091 -3.071 0.775 -3.021 1.281 -1.987 1.272 -0.796 1.078 -0.068 2.18 0.93 -0.002 -0.012 1.004 0.813 0.017 -0.008 1.135 1.344" />
    <path class="write-flat-pen" fill="#FFFFFF" stroke-width="3" __comx="538.149" __comy="377.665" __timestamp="0x1787f05212e" d="M532.998 372.765 l-1.365 2.266 -0.192 0.497 -1.608 7.029 0.057 3.858 2.434 1.386 2.902 -2.23 3.356 -4.323 1.761 -1.36 0.079 -0.005 0.005 0.008 -0.05 7.386 0.907 2.816 0.577 0.663 0.489 0.362 3.405 1.814 0.709 -0.81 -2.249 -3.135 -0.252 -0.287 -0.028 -0.06 -0.556 -1.815 0.052 -7.803 -1.431 -2.233 -2.757 0.157 -2.799 2.161 -3.354 4.32 -1.016 0.781 0.788 0.449 -0.027 -1.788 1.436 -6.498 0.032 -0.106 1.101 -2.157" />
    <path class="write-flat-pen" fill="#FFFFFF" stroke-width="3" __comx="561.393" __comy="377.665" __timestamp="0x1787f052296" d="M562.973 378.302 l0.14 -2.353 0.014 -0.248 -0.099 -2.448 -0.284 -0.732 -1.599 -1.694 -2.496 -0.057 -2.072 1.785 -0.644 2.627 0.786 2.75 2.858 4.025 5.226 5.044 0.688 1.312 -0.192 0.903 -1.201 1.09 -5.644 1.678 -4.304 0.73 -0.015 1.427 4.735 0.826 6.737 -1.978 2.426 -2.203 0.618 -2.908 -1.416 -2.7 -5.374 -5.187 -2.4 -3.378 -0.426 -1.491 0.226 -0.924 0.475 -0.413 0.113 -0.004 0.369 0.36 -0.082 -0.222 0.233 1.886 0.014 0.142 0.14 2.353" />
    <path class="write-flat-pen" fill="#FFFFFF" stroke-width="3" __comx="57.971" __comy="496.642" __timestamp="0x1787f05e232" d="M50.193 478.92 l-0.027 -1.195 0.037 0.15 0.263 -0.457 -0.014 0.125 0.742 -0.77 0.013 0.015 4.272 -1.639 0.153 -0.006 1.906 0.262 1.268 0.767 0.651 0.989 0.249 1.618 -0.648 2.575 -1.837 3.024 -3.866 3.811 -0.389 2.639 9.008 3.331 3.092 1.923 1.15 1.723 0.404 2.214 -0.412 1.943 -1.544 2.546 -2.141 1.976 -2.621 1.36 -2.991 0.467 -2.664 -0.557 -3.329 -2.279 -0.163 -0.169 -3.343 -3.153 -1.142 0.873 2.167 4.052 0.406 0.576 4.198 2.912 3.791 0.793 4.017 -0.626 3.413 -1.771 2.748 -2.536 2.027 -3.344 0.64 -3.02 -0.621 -3.407 -1.854 -2.779 -3.902 -2.427 -7.012 -2.593 -0.112 0.762 3.415 -3.366 2.265 -3.729 0.906 -3.603 -0.445 -2.867 -1.393 -2.101 -2.388 -1.418 -2.791 -0.359 -0.919 0.053 -5.146 2.179 -0.541 0.538 -0.883 1.419 -0.13 0.446 0.022 1.021 0.05 0.259 0.577 1.189" />
    <path class="write-flat-pen" fill="#FFFFFF" stroke-width="3" __comx="108.476" __comy="496.642" __timestamp="0x1787f05e485" d="M92.452 484.855 l1.434 -0.738 -0.638 -0.021 0.19 0.353 -0.026 0.018 0.467 2.301 0.073 0.729 0.073 9.832 0 0 -0.038 0.944 0 0 -0.126 5.638 0 0 2.995 -0.08 -1.83 -24.066 0.17 -0.666 0.661 -0.435 25.203 -1.628 4.418 -0.527 0.085 -1.357 -4.504 -1.085 -26.185 1.655 -2.296 1.509 -0.58 2.27 1.868 24.558 2.995 -0.08 0 0 0.124 -5.611 0 0 0.039 -0.995 0 0 -0.16 -10.067 -0.142 -1.055 -0.773 -2.752 -0.416 -0.714 -1.323 -0.964 -0.946 -0.046 -1.872 1.538" />
    <path class="write-flat-pen" fill="#FFFFFF" stroke-width="3" __comx="109.069" __comy="496.642" __timestamp="0x1787f05e566" d="M97.226 489.609 l3.939 0.657 0.704 0.082 14.254 -0.501 4.79 -1.005 -0.054 -1.202 -4.84 -0.569 -14.039 0.349 -0.46 -0.041 -3.919 -0.442" />
    <path class="write-flat-pen" fill="#FFFFFF" stroke-width="3" __comx="109.831" __comy="496.642" __timestamp="0x1787f05e63b" d="M96.178 496.926 l-0.523 2.839 3.493 2.104 0.996 0.278 18.903 2.565 4.787 -0.01 0.174 -1.069 -4.564 -1.53 -18.725 -2.775 -0.483 -0.117 -1.696 -0.836 0.093 -1.061" />
    <path class="write-flat-pen" fill="#FFFFFF" stroke-width="3" __comx="134.139" __comy="496.642" __timestamp="0x1787f05e71d" d="M123.708 492.621 l1.274 0.35 -0.088 -0.032 3.509 3.533 0.775 0.794 10.155 9.203 4.474 2.257 0.764 -1.102 -3.529 -3.293 -9.84 -9.162 -0.755 -0.761 -3.806 -3.539 -0.621 -0.424 -1.974 -0.128" />
    <path class="write-flat-pen" fill="#FFFFFF" stroke-width="3" __comx="138.277" __comy="496.642" __timestamp="0x1787f05e7c8" d="M130.299 509.072 l1.316 -2.762 0.274 -0.32 13.582 -11.39 3.165 -3.568 -0.704 -0.871 -4.165 2.359 -13.937 11.465 -0.661 0.869 -1.252 3.19" />
    <path class="write-flat-pen" fill="#FFFFFF" stroke-width="3" __comx="155.891" __comy="496.642" __timestamp="0x1787f05e98a" d="M155.968 499.57 l1.504 -1.076 0.256 -0.236 0.844 -1.697 -0.037 -0.799 -0.825 -1.872 -2.221 -1.348 -2.949 0.221 -2.226 1.607 -1.742 2.827 -0.826 3.383 0.736 2.471 2.211 1.352 2.815 -0.472 4.252 -3.104 -0.565 0.028 1.873 4.964 0.637 0.515 0.449 0.215 3.482 0.931 0.4 -0.656 -2.424 -2.667 -0.204 -0.183 0.148 0.101 -2.312 -6.326 -2.528 0.127 -4.402 3.215 -1.011 0.171 -0.275 -0.167 -0.177 -0.592 0.52 -2.138 1.179 -1.922 1.061 -0.775 1.175 -0.104 0.666 0.372 0.301 0.537 -0.011 -0.379 -0.152 0.723 0.171 -0.152 -1.196 1.338" />
    <path class="write-flat-pen" fill="#FFFFFF" stroke-width="3" __comx="181.474" __comy="496.642" __timestamp="0x1787f05eb63" d="M171.331 496.667 l-0.879 1.772 -0.107 0.268 -0.914 2.898 -0.115 0.536 -0.53 3.934 0 0 0.546 1.73 0 0 2.228 0.815 1.315 -0.828 3.192 -8.053 0.673 -0.909 -0.974 -0.511 0.868 3.524 1.641 1.918 2.791 0.161 6.649 -4.015 0.881 -0.19 0.121 0.073 0.381 1.062 0.066 4.372 0.891 3.3 0.278 0.479 0.265 0.368 3.045 3.043 0.518 -0.3 -1.122 -4.156 -0.163 -0.372 -0.057 -0.147 -0.662 -2.623 -0.068 -4.506 -0.907 -2.531 -2.05 -1.245 -2.539 0.547 -6.283 3.794 -0.587 -0.034 -0.347 -0.405 -1.02 -4.144 -2.499 -1.311 -2.435 3.29 -2.975 7.507 -0.486 0.307 2.228 0.815 0 0 -0.35 -1.094 0 0 0.402 -3.168 0.063 -0.322 0.713 -2.779 0.025 -0.129 0.595 -1.783" />
    <path class="write-flat-pen" fill="#FFFFFF" stroke-width="3" __comx="205.52" __comy="499.295" __timestamp="0x1787f05ecd4" d="M201.376 526.137 l-0.663 -1.167 0.057 0.078 -0.087 -2.226 0.019 -0.845 0.621 -14.626 0.912 -6.897 1.196 -3.624 1.276 -1.81 1.236 -0.687 1.364 -0.011 1.422 0.74 1.043 1.367 0.382 1.657 -0.293 1.283 -1.023 1.306 -1.764 0.97 -2.625 0.482 -1.682 -0.458 0.033 0.106 -2.548 -1.888 -0.932 0.72 1.184 2.941 0.51 0.723 3.294 0.932 3.784 -0.694 2.728 -1.5 1.815 -2.317 0.596 -2.608 -0.683 -2.959 -1.844 -2.415 -2.681 -1.387 -2.869 0.028 -2.498 1.389 -1.926 2.733 -1.422 4.314 -0.963 7.312 -0.539 14.819 0.012 1.029 0.338 2.551 0.197 0.626 1.287 1.356" />
    <path class="write-flat-pen" fill="#FFFFFF" stroke-width="3" __comx="224.94" __comy="499.295" __timestamp="0x1787f05eda4" d="M225.166 475.201 l-2.031 3.454 -0.252 0.961 -0.635 6.067 0.282 8.947 1.034 5.821 0.255 0.635 0.206 0.37 2.728 3.478 0.548 -0.24 -0.711 -4.363 -0.091 -0.308 -0.084 -0.319 -0.894 -5.377 -0.27 -8.537 0.569 -5.649 0.088 -0.368 1.724 -3.174" />
    <path class="write-flat-pen" fill="#FFFFFF" stroke-width="3" __comx="240.384" __comy="499.295" __timestamp="0x1787f05ef0a" d="M229.758 500.632 l2.146 0.83 0.51 0.127 5.513 0.392 0.91 -0.076 3.902 -0.927 2.506 -1.651 1.441 -2.59 -0.247 -2.588 -1.559 -1.948 -2.767 -0.726 -2.943 1.046 -2.194 2.031 -1.206 2.592 -0.009 3.008 1.385 2.64 2.283 1.689 3.984 1.073 1.217 0.093 1.158 -0.056 1.016 -0.137 4.207 -0.941 -0.008 -0.724 -4.228 -0.845 -0.995 -0.114 -1 -0.068 -0.827 -0.109 -3.188 -0.913 -1.282 -0.95 -0.72 -1.372 0.005 -1.605 0.679 -1.46 1.308 -1.211 1.49 -0.53 0.913 0.239 0.379 0.474 0.073 0.768 -0.63 1.133 -1.451 0.956 -3.169 0.757 -0.467 0.041 -5.07 -0.268 -0.153 -0.021 -2.084 -0.567" />
    <path class="write-flat-pen" fill="#FFFFFF" stroke-width="3" __comx="263.395" __comy="499.295" __timestamp="0x1787f05f062" d="M269.192 494.214 l-1.006 -5.114 -0.107 -0.242 0 0 -2.863 0.569 -0.075 2.822 1.301 4.263 5.617 8.297 0.172 0.896 -0.214 0.261 -1.233 0.447 -3.693 -0.23 -10.302 -2.334 -0.484 -0.019 -4.858 0.455 -0.1 1.25 4.724 1.221 0.266 0.041 10.324 2.365 4.558 0.284 2.595 -0.941 1.627 -1.987 -0.554 -2.882 -5.71 -8.433 -1.028 -3.365 0.057 -2.336 -2.863 0.569 0 0 -0.022 -0.051 1.045 4.778" />
    <path class="write-flat-pen" fill="#FFFFFF" stroke-width="3" __comx="163.261" __comy="530.738" __timestamp="0x1787f05f1f0" d="M43.321 530.695 l14.235 3.291 12.349 1.897 15.564 0.86 67.739 -2.451 36.737 -0.607 45.272 0.715 7.57 0.173 22.585 0.781 7.678 0.202 7.631 -0.09 2.467 -0.018 0.052 -1.277 -2.458 -0.218 -7.597 -0.707 -7.668 -0.44 -22.597 -1.046 -7.602 -0.217 -45.333 -0.83 -36.817 0.603 -67.635 2.552 -15.296 -0.816 -12.116 -1.851 -14.179 -3.093" />
    <path class="write-flat-pen" fill="#FFFFFF" stroke-width="3" __comx="130.488" __comy="613.317" __timestamp="0x1787f05f9aa" d="M130.926 612.625 l-0.489 0.833 0.053 -0.154 -0.563 0.29 0.078 -0.096 -1.056 0.086 0.369 0.068 -0.083 -0.149 0.037 -0.064 0.426 -0.475 0.557 -0.156 0.502 0.219 0.694 1.064 0.05 0.697 0.137 -0.177 0.349 0.036 -0.136 -0.239 -0.363 0.508 0.165 -0.289 1.21 -2.704 -0.665 -0.605 -2.578 1.458 -0.426 0.36 -0.693 1.011 1.458 3.277 2.912 0.335 1.694 -1.994 -0.258 -2.676 -1.596 -2.406 -2.275 -0.966 -2.388 0.71 -1.61 1.927 -0.031 2.444 1.701 1.305 0.862 0.185 1.971 -0.683 0.435 -0.334 0.565 -0.962 0.109 -0.262 -0.034 -1.176" />
    <path class="write-flat-pen" fill="#FFFFFF" stroke-width="3" __comx="158.248" __comy="613.317" __timestamp="0x1787f05fb47" d="M160.384 600.571 l-0.831 1.036 -0.173 0.361 -0.489 1.343 -0.222 0.704 -1.199 5.432 -0.311 1.525 -0.001 0.007 -2.495 16.534 2.556 0.802 -0.007 -0.265 -0.156 -1.548 -0.743 -0.363 -1.316 0.83 -0.213 0.158 2.556 0.802 2.643 -16.455 -0.001 0.007 0.279 -1.485 0.953 -5.402 0.13 -0.662 0.185 -1.358 -0.017 -0.133 0.324 -1.078" />
    <path class="write-flat-pen" fill="#FFFFFF" stroke-width="3" __comx="169.314" __comy="613.317" __timestamp="0x1787f05fcd3" d="M160.499 604.058 l-1.574 -2.086 0.093 0.399 1.347 -3.164 0.354 -0.397 3.02 -2.385 3.559 -1.594 5.067 -1.06 4.439 -0.003 1.451 0.554 0.932 1.05 0.23 1.373 -0.624 2.122 -1.812 2.787 -3.567 3.432 -3.586 2.246 -3.207 1.136 -2.617 -0.213 1.28 1.929 -0.01 -0.097 -0.121 -1.554 -1.621 -0.521 -1.004 1.192 -0.065 0.073 1.28 1.929 3.264 0.307 4.134 -1.465 4.129 -2.587 4.037 -3.889 2.234 -3.444 0.939 -3.202 -0.487 -2.898 -1.988 -2.24 -2.651 -1.013 -5.3 0.002 -5.686 1.192 -4.193 1.887 -3.509 2.806 -0.854 0.99 -1.664 4.44 0.222 1.095 2.276 2.445" />
    <path class="write-flat-pen" fill="#FFFFFF" stroke-width="3" __comx="181.879" __comy="613.317" __timestamp="0x1787f05fe99" d="M185.257 619.228 l1.017 -1.93 0.14 -0.437 -0.011 -2.339 -0.42 -0.754 -2.159 -1.566 -2.632 -0.132 -2.762 1.255 -2.418 2.572 -1.643 3.646 -0.358 3.088 0.963 2.347 2.46 1.509 3.324 -0.178 2.858 -1.302 0 0 2.853 -2.654 -2.521 -1.111 -0.048 5.586 1.503 3.866 0.674 0.391 3.176 0.905 0.492 -0.758 -2.117 -2.535 0.171 0.065 -0.896 -2.47 0.044 -5.023 -2.521 -1.111 -2.496 2.322 0 0 -1.899 0.865 -1.825 0.098 -0.83 -0.509 -0.299 -0.726 0.215 -1.858 1.244 -2.768 1.67 -1.785 1.57 -0.727 1.063 0.032 0.987 0.635 -0.209 -0.384 0.205 1.236 0.054 -0.126 -0.614 1.922" />
    <path class="write-flat-pen" fill="#FFFFFF" stroke-width="3" __comx="199.91" __comy="613.317" __timestamp="0x1787f05ff5d" d="M200.522 614.583 l-1.381 1.732 -0.226 0.537 -0.911 3.47 -0.134 0.78 -0.466 4.65 0.804 2.318 0.703 0.317 1.976 0.128 0.508 -0.917 -1.156 -1.608 0.342 0.118 -0.182 -0.689 0.357 -3.946 0.087 -0.592 0.652 -3.253 0.012 -0.1 0.907 -1.675" />
    <path class="write-flat-pen" fill="#FFFFFF" stroke-width="3" __comx="207.139" __comy="613.317" __timestamp="0x1787f05ffd6" d="M207.682 604.088 l-2.28 2.325 -0.415 3.265 0.578 0.23 1.773 -2.238 1.951 -2.014" />
    <path class="write-flat-pen" fill="#FFFFFF" stroke-width="3" __comx="228.44" __comy="616.853" __timestamp="0x1787f060277" d="M223.265 616.709 l-2.131 -4.524 -0.658 -0.607 -2.884 -1.543 -2.851 -0.118 -2.783 1.41 -2.112 2.589 -1.404 3.9 -0.191 3.837 1.083 2.33 2.308 1.224 2.773 -0.645 3.42 -3.165 -0.362 0.098 -0.116 -0.207 -0.353 4.147 -1.525 5.369 -2.339 5.124 0 0 -1.075 1.295 0 0 -0.507 0.11 0 0 1.182 2.692 18.044 -12.734 5.897 -4.936 2.616 -3.279 0.864 -2.582 -0.96 -2.864 -2.973 0.19 -2.25 2.304 -1.41 3.151 -0.389 3.513 0.758 3.48 2.046 3.341 3.087 1.899 5.189 0.427 1.074 -0.303 4.296 -1.704 -0.378 -1.563 -4.6 0.446 -0.625 0.107 -3.994 -0.34 -1.866 -1.148 -1.406 -2.296 -0.546 -2.504 0.283 -2.558 1 -2.235 1.071 -1.097 -0.479 0.031 -0.092 -0.276 -0.377 1.125 -2.097 2.628 -5.571 4.663 -17.943 12.663 1.182 2.692 0 0 1.519 -0.328 0 0 1.992 -2.399 0 0 2.6 -5.695 1.666 -5.866 0.45 -5.326 -1.429 -2.636 -2.631 0.686 -3.387 3.15 -0.923 0.218 -0.447 -0.236 -0.354 -0.763 0.134 -2.665 1.082 -3.008 1.394 -1.713 1.536 -0.783 1.415 0.05 1.98 1.028 -0.009 -0.015 2.085 3.943" />
    <path class="write-flat-pen" fill="#FFFFFF" stroke-width="3" __comx="324.695" __comy="615.389" __timestamp="0x1787f06bac6" d="M305.705 614.132 l0.811 -1.956 0.027 0.01 2.639 -2.454 0.444 -0.313 4.081 -2.244 4.102 -1.142 3.173 -0.003 1.998 0.825 5.755 6.248 2.793 1.717 3.107 0.509 5.966 -2.268 1.006 -0.794 0.726 -0.739 2.844 -3.234 -0.447 -0.565 -3.802 2.024 -0.834 0.495 -0.734 0.438 -4.997 1.691 -1.815 -0.3 -1.984 -1.208 -5.954 -6.371 -3.088 -1.25 -4.105 0.024 -4.77 1.386 -4.437 2.616 -0.712 0.561 -2.662 3.038 -0.254 0.474 -0.371 2.379" />
    <path class="write-flat-pen" fill="#FFFFFF" stroke-width="3" __comx="370.587" __comy="615.389" __timestamp="0x1787f06bb83" d="M370.576 611.718 l-0.594 1.109 -0.594 1.757 0.202 0.137 1.421 -1.212 0.775 -1.009" />
    <path class="write-flat-pen" fill="#FFFFFF" stroke-width="3" __comx="369.659" __comy="615.389" __timestamp="0x1787f06bd5a" d="M360.909 602.297 l0.858 -0.016 -0.426 -0.053 0.192 0.487 -0.056 -0.018 0.294 2.509 -0.013 0.558 -1.913 9.417 0 0 -0.158 0.576 0 0 -0.55 2.659 0 0 2.778 0.891 3.385 -7.405 2.889 -4.334 2.449 -2.244 0.874 -0.31 0.134 0.077 0.468 1.416 -0.183 7.955 0.706 3.268 2.087 2.127 0.814 0.374 0.717 0.141 3.74 0.285 0.186 -0.54 -3.122 -2.08 -0.456 -0.263 -0.168 -0.146 -1.093 -1.301 -0.438 -2.142 0.194 -8.122 -0.976 -2.968 -2.293 -1.353 -2.756 0.972 -3.165 2.898 -3.219 4.838 -3.448 7.641 2.778 0.891 0 0 0.48 -2.573 0 0 0.154 -0.585 0 0 1.761 -9.839 -0.048 -1.054 -0.75 -2.952 -0.33 -0.572 -1.161 -0.767 -0.531 -0.071 -1.072 0.736" />
    <path class="write-flat-pen" fill="#FFFFFF" stroke-width="3" __comx="387.688" __comy="615.389" __timestamp="0x1787f06bf11" d="M390.046 612.561 l-0.394 -0.795 0.611 -0.375 0.169 -0.149 0.817 -1.512 -0.307 -1.198 -2.388 -1.239 -1.069 0.126 -2.671 1.158 -2.608 2.507 -1.658 2.991 -0.744 3.453 0.64 2.547 1.828 1.729 3.047 0.371 3.129 -1.077 3.616 -2.779 2.338 -3.106 1.168 -3.624 -0.534 -2.797 -1.733 -2.058 -3.357 -1.239 -4.174 0.561 -0.093 0.661 3.532 1.642 2.298 0.904 0.725 0.862 0.243 1.274 -0.778 2.414 -1.789 2.377 -2.904 2.233 -2.013 0.695 -1.384 -0.166 -0.48 -0.452 -0.26 -1.026 0.502 -2.341 1.222 -2.22 1.898 -1.853 1.782 -0.83 -0.182 0.012 0.62 0.168 -0.214 -0.863 0.016 0.383 0.075 -0.058 -1.114 1.784 1.255 1.753" />
    <path class="write-flat-pen" fill="#FFFFFF" stroke-width="3" __comx="428.037" __comy="615.389" __timestamp="0x1787f06c1a8" d="M435.17 613.447 l0.185 -2.295 -0.101 -0.582 -1.85 -3.171 -0.705 -0.566 -2.411 -1.191 -2.927 -0.04 -2.896 1.477 -2.206 2.699 -1.439 3.822 -0.101 3.508 1.363 2.145 2.291 0.949 2.721 -0.311 4.729 -2.602 -0.937 -0.279 -0.869 5.048 0.914 2.528 1.04 0.417 0.535 -0.029 2.244 -0.801 0.058 -0.58 -2.039 -1.232 -0.074 -0.091 0.552 0.201 -0.164 -0.654 1.188 -6.908 -2.792 -0.833 -5.307 2.927 -1.375 0.16 -0.715 -0.294 -0.375 -0.586 0.058 -2.106 1.091 -2.909 1.502 -1.858 1.701 -0.892 1.571 -0.012 1.588 0.719 0.102 0.065 1.589 2.235 0 -0.106 0.232 2.048" />
    <path class="write-flat-pen" fill="#FFFFFF" stroke-width="3" __comx="450.104" __comy="615.389" __timestamp="0x1787f06c319" d="M446.493 611.141 l-2.166 1.834 -0.376 0.523 -2.354 4.912 0.092 1.14 1.784 1.786 3.174 -1.928 4.914 -5.103 2.715 -1.956 0.101 -0.006 -0.193 -0.3 -1.507 6.769 1.403 3.109 1.762 -0.693 0.912 -0.792 0.399 -0.55 1.457 -2.727 -0.459 -0.465 -2.746 1.421 -0.414 0.252 -0.552 0.281 1.208 -0.483 0.174 0.335 1.564 -7.026 -1.436 -2.233 -2.723 0.17 -3.636 2.622 -4.831 5.022 -0.842 0.52 0.634 0.643 0.058 0.723 1.781 -4.059 0.046 -0.092 1.759 -1.822" />
    <path class="write-flat-pen" fill="#FFFFFF" stroke-width="3" __comx="472.141" __comy="615.389" __timestamp="0x1787f06c3c8" d="M472.632 597.8 l0.227 2.907 -0.022 0.413 -1.923 9.56 -0.33 1.153 -1.785 6.936 0.169 4.648 0.536 0.108 1.935 -4.135 1.921 -6.789 0.355 -1.262 1.768 -9.987 -0.035 -0.844 -0.62 -3.024" />
    <path class="write-flat-pen" fill="#FFFFFF" stroke-width="3" __comx="469.587" __comy="615.389" __timestamp="0x1787f06c475" d="M462.053 614.105 l2.353 -1.424 0.227 -0.013 7.026 -0.004 1.258 -0.047 1.318 -0.143 4.28 -0.667 0.011 -0.701 -4.257 -0.805 -1.306 -0.185 -1.263 -0.102 -7.188 -0.156 -1.084 0.112 -2.785 2.059" />
    <path class="write-flat-pen" fill="#FFFFFF" stroke-width="3" __comx="481.745" __comy="615.389" __timestamp="0x1787f06c534" d="M482.824 614.539 l-3.596 4.575 -0.245 0.698 -0.232 2.321 1.503 1.572 0.8 -0.052 2.044 -0.824 0.021 -0.531 -1.972 -0.984 0.295 -0.072 0.141 -0.007 0.08 -0.841 -0.005 -0.004 3.082 -4.432" />
    <path class="write-flat-pen" fill="#FFFFFF" stroke-width="3" __comx="492.233" __comy="615.389" __timestamp="0x1787f06c5b4" d="M492.382 604.131 l-1.727 1.928 -0.253 2.829 0.292 0.133 1.826 -1.722 1.544 -1.617" />
    <path class="write-flat-pen" fill="#FFFFFF" stroke-width="3" __comx="497.988" __comy="615.389" __timestamp="0x1787f06c6b0" d="M504.487 615.464 l-0.043 -1.848 -0.26 -0.617 -1.641 -1.347 -0.725 -0.304 -3.389 -0.682 -3.258 0.506 -2.696 1.502 -2.057 2.624 -0.489 2.69 1.016 2.685 2.041 1.77 6.012 1.327 0.921 -0.03 1.419 -0.158 0.661 -0.166 4.052 -1.402 -0.046 -0.425 -4.258 -0.503 -0.594 -0.031 -1.29 -0.055 -0.546 -0.026 -4.942 -1.242 -0.915 -0.807 -0.458 -1.216 0.209 -1.157 1.232 -1.579 1.711 -0.962 2.231 -0.367 2.634 0.454 0.154 0.045 0.965 0.54 -0.145 -0.368 0.358 1.41" />
    <path class="write-flat-pen" fill="#FFFFFF" stroke-width="3" __comx="514.651" __comy="615.389" __timestamp="0x1787f06c7a2" d="M515.429 615.708 l-0.984 1.75 -0.201 0.344 -1.033 2.216 -0.257 0.631 -0.944 3.874 0.379 0.541 1.312 0.753 0.774 -0.392 0.17 -1.503 0.25 0.286 0.746 -2.705 0.162 -0.468 0.762 -2.235 0.114 -0.347 0.613 -1.936" />
    <path class="write-flat-pen" fill="#FFFFFF" stroke-width="3" __comx="520.987" __comy="615.389" __timestamp="0x1787f06c820" d="M521.257 605.75 l-2.244 2.626 -0.124 3.343 0.554 0.172 1.648 -2.347 1.994 -2.183" />
    <path class="write-flat-pen" fill="#FFFFFF" stroke-width="3" __comx="529.73" __comy="615.389" __timestamp="0x1787f06c9b1" d="M520.921 630.171 l-1.383 3.817 0.196 0.57 2.522 0.094 3.731 -7.894 0.364 -1.118 2.136 -6.356 1.839 -3.268 1.475 -1.195 1.862 -0.53 1.193 0.294 1.284 1.118 0.779 1.782 -0.054 1.874 -1.043 2.335 -1.304 1.238 -1.735 0.703 -0.363 -0.059 -0.195 -0.345 -0.187 0.394 0.048 -0.183 0.53 -2.831 -0.565 -0.355 -2.319 1.709 -0.288 0.352 -0.444 1.047 1.41 2.926 2.722 0.442 3.04 -1.232 2.147 -2.039 1.526 -3.424 0.08 -3.141 -1.326 -3.002 -2.332 -2.025 -2.657 -0.655 -3.208 0.912 -2.39 1.939 -2.245 4.016 -2.197 6.647 -0.311 0.968 -3.484 7.818 2.522 0.094 0.101 0.314 0.794 -3.028" />
    <path class="write-flat-pen" fill="#FFFFFF" stroke-width="3" __comx="548.127" __comy="615.389" __timestamp="0x1787f06cb26" d="M551.647 619.912 l0.513 -1.82 0.058 -0.394 -0.301 -2.276 -0.32 -0.68 -1.637 -1.931 -2.36 -0.786 -2.545 0.799 -1.793 2.204 -0.707 3.152 0.725 2.682 2.278 1.777 4.302 -1.08 -0.076 -0.026 0.282 0.96 0.113 5.422 0.79 0.779 0.526 0.142 2.006 -0.398 0.195 -0.474 -1.145 -1.695 0.088 -0.038 0.483 0.462 -0.066 -4.659 -0.828 -2.814 -2.219 -0.789 -3.763 0.946 -0.336 -0.263 -0.27 -1.003 0.389 -1.744 0.781 -0.969 0.778 -0.258 0.694 0.206 0.91 0.988 0.003 -0.018 0.393 1.497 0.027 -0.065 -0.123 1.784" />
    <path class="write-flat-pen" fill="#FFFFFF" stroke-width="3" __comx="569.353" __comy="615.389" __timestamp="0x1787f06cbee" d="M570.666 600.259 l-1.763 2.931 -0.353 0.864 -2.045 9.385 -0.764 9.568 0.082 0.727 0.162 0.741 1.782 4.013 0.528 -0.088 0.386 -4.321 -0.012 -0.637 -0.009 -0.427 0.81 -9.138 1.866 -8.993 0.167 -0.476 1.46 -2.875" />
    <path class="write-flat-pen" fill="#FFFFFF" stroke-width="3" __comx="564.723" __comy="615.389" __timestamp="0x1787f06cc97" d="M559.056 614.783 l0.171 -0.169 -1.18 -0.129 9.353 2.34 0.971 0.102 4.348 0.116 0.135 -0.56 -3.921 -1.881 -0.888 -0.347 -9.457 -2.554 -1.556 -0.177 -0.438 2.744" />
    <path class="write-flat-pen" fill="#FFFFFF" stroke-width="3" __comx="577.699" __comy="615.389" __timestamp="0x1787f06cd4f" d="M576.73 615.315 l-0.359 2.106 -0.016 0.402 -0.05 7.506 1.51 3.965 0.629 -0.068 0.649 -4.052 -0.104 -7.379 -0.028 -0.278 0.018 -1.996" />
    <path class="write-flat-pen" fill="#FFFFFF" stroke-width="3" __comx="590.346" __comy="615.389" __timestamp="0x1787f06cde5" d="M592.053 607.293 l-2.207 -0.555 -0.852 0.633 -0.355 1.201 0.682 2.468 0.615 0.058 1.102 -1.969 0.146 -0.12 -0.659 0.487 1.157 0.009" />
    <path class="write-flat-pen" fill="#FFFFFF" stroke-width="3" __comx="592.966" __comy="615.389" __timestamp="0x1787f06cf6e" d="M595.48 622.426 l2.454 -0.534 -0.209 -1.822 -1.843 -1.565 -0.73 -0.29 -2.648 -0.274 -2.538 1.091 -2.044 2.285 -0.76 2.817 0.868 2.071 2.232 1.135 0 0 2.626 -0.443 4.831 -4.606 0 0 -2.517 -1.191 -0.157 2.887 0.354 0.695 0.491 0.517 2.711 1.413 0.168 -0.139 -0.818 -2.851 -0.116 -0.342 0.121 0.186 0.22 -2.142 -2.517 -1.191 0 0 -4.168 3.976 -0.752 0.124 0 0 -0.374 -0.194 -0.047 -0.115 0.308 -1.143 1.129 -1.27 1.225 -0.54 1.485 0.123 -0.049 -0.025 0.735 0.462 -0.181 -1.605 -0.134 0.181" />
    <path class="write-flat-pen" fill="#FFFFFF" stroke-width="3" __comx="608.631" __comy="615.389" __timestamp="0x1787f06d08e" d="M602.202 626.072 l0.732 -0.217 -0.915 0.023 -0.436 -0.374 0.086 0.398 1.457 0.987 1.103 -0.314 3.29 -3.115 0.272 -0.285 1.827 -1.613 0.847 -0.285 0.177 0.088 0.624 1.507 0.995 6.832 0.724 0.515 2.337 0.644 0.64 -0.819 -1.191 -2.112 0.27 0.16 -0.861 -6.019 -1.198 -2.894 -2.301 -1.14 -2.599 0.88 -2.37 2.111 -0.317 0.337 -2.657 2.674 0.74 -0.205 0.419 0.391 0.07 0.334 -0.689 -0.823 -0.957 0.023 -1.022 0.92" />
    <path class="write-flat-pen" fill="#FFFFFF" stroke-width="3" __comx="134.591" __comy="703.627" __timestamp="0x1787f06da35" d="M133.19 707.274 l0.632 -1.56 0.081 -0.076 1.118 -1.136 -0.106 0.122 0.25 0.056 -1.748 -1.754 0.024 -0.087 -1.493 1.291 0.517 -0.209 -0.047 -0.034 0 0 0.978 1.94 0.534 -1.303 1.23 -1.097 0.163 -0.029 0.023 0.021 0.106 0.845 -0.452 1.281 -0.185 0.149 0.883 0.521 -0.077 0.776 -0.92 -1.787 -0.841 -0.045 -1.105 1.679 -0.092 1.058 2.501 1.418 2.387 -2.01 0.942 -2.728 -0.364 -2.727 -2.016 -1.607 -2.309 0.431 -2.358 2.124 -0.756 1.963 0.978 1.94 0 0 0.968 0.238 0.899 -0.358 1.996 -2.128 0.117 -0.25 -1.748 -1.754 -0.315 0.377 -0.224 0.234 -0.946 1.77 -0.117 0.423 -0.092 1.811" />
    <path class="write-flat-pen" fill="#FFFFFF" stroke-width="3" __comx="164.435" __comy="703.627" __timestamp="0x1787f06de0e" d="M164.581 684.931 l-0.825 1.828 -0.061 0.427 -0.14 2.51 -0.001 0.787 0.084 6.311 0.011 1.275 -0.45 10.902 -0.59 4.005 0.659 -0.181 -0.923 1.215 0.346 0.91 1.497 0.295 0.83 -0.246 1.122 -5.685 0.387 -11.187 -0.035 -1.376 -0.333 -6.336 -0.065 -0.765 -0.224 -2.381 -0.027 -0.085 0.305 -1.726" />
    <path class="write-flat-pen" fill="#FFFFFF" stroke-width="3" __comx="178.363" __comy="703.627" __timestamp="0x1787f06df8e" d="M184.844 688.799 l-1.279 0.318 -0.255 0.176 -0.479 0.233 -0.229 0.135 -1.068 0.706 -0.469 0.313 -4.333 2.784 -0.818 0.492 -7.338 4.776 -2.131 2.393 0.387 2.469 2.625 2.128 9.55 4.115 4.084 2.454 2.475 2.39 -0.003 -0.012 3.598 3.31 1.121 -0.895 -2.434 -4.241 -0.099 -0.131 -2.808 -2.809 -4.562 -2.742 -9.355 -4.031 -1.407 -1.141 0.011 0.071 0.921 -1.034 6.956 -4.534 0.821 -0.498 4.38 -2.942 0.534 -0.417 1.025 -0.922 0.246 -0.266 0.335 -0.504 -0.129 0.055 0.757 -0.394" />
    <path class="write-flat-pen" fill="#FFFFFF" stroke-width="3" __comx="197.999" __comy="703.627" __timestamp="0x1787f06e114" d="M190.019 706.796 l1.079 1.076 0.368 0.186 1.633 0.467 0.733 0.041 4.88 -1.064 0.863 -0.399 2.386 -1.656 1.497 -2.542 -0.953 -2.595 -3.117 -0.721 -3.301 1.262 -3.073 2.555 -2.188 3.332 -1.057 3.563 0.275 2.977 1.485 2.463 3.115 1.821 5.345 0.245 0.963 -0.257 1.344 -0.554 0.577 -0.349 3.354 -2.583 -0.183 -0.419 -4.175 0.706 -0.54 0.139 -1.172 0.291 -0.439 0.078 -4.193 -0.252 -1.827 -1.068 -0.738 -1.222 -0.161 -1.721 0.766 -2.59 1.698 -2.597 2.347 -1.964 1.994 -0.771 0.681 0.152 -0.075 -0.212 -0.458 0.796 -1.641 1.168 -0.364 0.177 -4.206 1.116 -0.17 0.021 -1.245 -0.076 0.076 0.066 -1.139 -0.533" />
    <path class="write-flat-pen" fill="#FFFFFF" stroke-width="3" __comx="213.534" __comy="703.627" __timestamp="0x1787f06e1d9" d="M212.478 704.431 l-0.759 1.397 -0.176 0.455 -0.577 2.144 -0.124 0.716 -0.303 4.061 1.012 3.328 1.752 0.817 0.968 -0.176 0.538 -0.383 1.719 -1.787 -0.165 -0.362 -2.476 0.128 -0.279 -0.01 0.202 -0.093 0.07 -0.061 -0.519 -1.741 0.098 -3.479 0.044 -0.552 0.216 -2.072 0.02 -0.324 0.253 -1.472" />
    <path class="write-flat-pen" fill="#FFFFFF" stroke-width="3" __comx="219.449" __comy="703.627" __timestamp="0x1787f06e25a" d="M220.323 693.997 l-1.706 0.179 -0.31 1.599 0.419 0.319 0.973 -0.086 0.891 -0.205" />
    <path class="write-flat-pen" fill="#FFFFFF" stroke-width="3" __comx="234.646" __comy="703.627" __timestamp="0x1787f06e32c" d="M234.515 687.742 l-0.872 1.674 -0.188 0.529 -0.624 3.544 -0.081 1.059 -0.102 9.922 1.219 9.275 2.131 4.182 0.556 -0.13 0.091 -4.548 -1.051 -8.954 0.002 -9.652 0.039 -0.876 0.318 -3.307 0.03 -0.253 0.478 -1.685" />
    <path class="write-flat-pen" fill="#FFFFFF" stroke-width="3" __comx="234.478" __comy="703.627" __timestamp="0x1787f06e3eb" d="M226.986 707.588 l0.331 -1.347 -0.347 0.423 3.188 -0.757 0.708 -0.075 6.18 -0.868 1.204 -0.325 1.133 -0.374 1.078 -0.47 3.828 -1.948 -0.118 -0.417 -4.281 0.342 -1.121 0.15 -1.099 0.166 -1.085 0.161 -6.064 0.693 -0.908 0.105 -4.104 1.228 -0.689 0.799 -0.152 2.197" />
    <path class="write-flat-pen" fill="#FFFFFF" stroke-width="3" __comx="256.687" __comy="703.627" __timestamp="0x1787f06e558" d="M249.152 687.394 l-1.314 0.806 -0.198 0.57 -0.209 1.299 0.033 0.582 0.362 3.63 0.099 0.875 0.793 14.026 0.973 3.458 2.111 1.131 5.906 -4.146 1.159 -0.333 0.731 0.286 2.599 3.651 0.259 0.429 0.267 0.43 2.713 3.367 0.505 -0.23 -0.752 -4.258 -0.169 -0.528 -0.304 -0.705 -3.182 -4.62 -2.526 -0.983 -2.611 0.758 -4.807 3.368 0.639 0.342 -0.542 -1.918 -0.855 -13.793 -0.132 -0.972 -0.57 -3.594 -0.078 -0.362 -0.137 -0.846 -0.135 0.341 0.499 -0.693" />
    <path class="write-flat-pen" fill="#FFFFFF" stroke-width="3" __comx="326.804" __comy="700.003" __timestamp="0x1787f0707f3" d="M309.623 703.656 l0.798 -1.412 -0.176 0.146 7.528 -1.528 1.388 -0.206 11.609 -1.677 5.474 -0.165 1.515 0.475 3.245 2.862 1.02 0.079 3.417 -0.149 0.114 -0.578 -3.105 -1.435 -0.293 -0.18 -3.026 -2.961 -2.518 -0.794 -6.078 0.191 -11.762 1.765 -1.484 0.241 -7.909 1.997 -0.705 0.485 -0.62 2.23" />
    <path class="write-flat-pen" fill="#FFFFFF" stroke-width="3" __comx="403.304" __comy="706.055" __timestamp="0x1787f078d93" d="M396.458 721.259 l-1.421 0.677 0.82 0.691 -0.091 -1.819 0.084 -0.678 1.401 -8.342 0.28 -1.28 2.557 -9.457 2.799 -7.462 0.131 -0.087 0.596 0.127 2.722 2.512 2.922 4.087 1.113 2.634 -0.149 0.843 -0.678 0.727 -2.37 0.962 -7.118 0.338 0.189 0.072 0.073 0.118 -1.517 -0.141 -0.748 1.299 0.883 1.242 0.25 0.22 0.615 0.166 8.026 -0.342 3.464 -1.417 1.722 -1.875 0.427 -2.571 -1.582 -3.729 -3.287 -4.602 -3.543 -3.268 -2.597 -0.557 -1.979 1.295 -3.171 8.511 -2.554 9.683 -0.297 1.435 -1.201 8.552 -0.057 1.07 0.595 2.856 1.088 0.933 2.553 -2.033" />
    <path class="write-flat-pen" fill="#FFFFFF" stroke-width="3" __comx="423.488" __comy="706.055" __timestamp="0x1787f078f0c" d="M427.219 707.14 l0.304 -3.148 0.026 -0.415 -0.261 -2.223 -1.774 -1.842 -2.547 0.25 -2.306 1.926 -2.035 3.549 -0.714 3.136 0.646 2.631 2.123 1.668 3.093 -0.236 2.745 -1.895 1.917 -2.908 0.626 -2.663 -0.512 -2.748 -1.641 -2.21 -2.498 -1.213 -0.4 -0.031 -2.178 0.747 -0.109 0.61 1.784 1.457 -0.031 0.035 1.452 0.758 0.8 1.077 0.269 1.445 -0.359 1.53 -1.303 1.979 -1.601 1.113 -1.139 0.1 -0.421 -0.315 -0.243 -0.962 0.459 -2.031 1.549 -2.724 1.213 -1.036 0.288 -0.047 0.199 0.159 0.206 1.06 0.008 0.167 0.036 3.148" />
    <path class="write-flat-pen" fill="#FFFFFF" stroke-width="3" __comx="443.023" __comy="706.055" __timestamp="0x1787f079086" d="M445.775 698.464 l-2.38 -1.835 -0.409 -0.204 -2.315 -0.758 -2.67 0.543 -1.503 1.966 0.485 2.562 7.728 5.727 1.459 1.669 0.302 1.003 -0.238 1.103 -0.93 1.043 -1.726 0.773 -3.169 -0.146 0.034 0.03 -1.824 0.648 -0.189 0.804 1.346 1.391 0.215 0.073 4.154 0.233 2.972 -1.334 1.88 -2.123 0.546 -2.636 -0.728 -2.34 -2.093 -2.379 -7.08 -5.215 -0.04 -0.163 0.053 -0.091 0.896 -0.223 1.463 0.38 0.037 0.005 2.375 1.447" />
    <path class="write-flat-pen" fill="#FFFFFF" stroke-width="3" __comx="461.414" __comy="706.055" __timestamp="0x1787f07916e" d="M461.195 712.783 l-1.732 2.781 2.179 1.54 0.432 -0.747 0.132 -0.458 0.292 -2.446 -0.381 -0.2 -1.848 1.629 -0.184 0.143 -0.496 0.361 2.179 1.54 1.598 -2.861" />
    <path class="write-flat-pen" fill="#FFFFFF" stroke-width="3" __comx="465.357" __comy="706.055" __timestamp="0x1787f0791e2" d="M466.641 698.529 l0.149 -3.602 -0.179 -3.322 -0.808 -0.191 -1.703 3.14 -0.177 3.856" />
    <path class="write-flat-pen" fill="#FFFFFF" stroke-width="3" __comx="525.953" __comy="706.055" __timestamp="0x1787f079694" d="M516.16 700.241 l1.733 -1.348 0.315 -0.503 0.299 -1.824 -0.323 -0.857 -2.555 -2.001 -0.793 -0.265 -2.723 -0.367 -2.919 0.833 -1.764 1.683 -0.284 2.386 1.611 2.53 6.22 5.256 1.43 1.919 0.119 0.839 -0.573 1.129 -1.352 0.992 -2.25 0.604 0 0 -1.773 -0.189 0 0 -0.476 -0.452 0 0 -0.861 2.578 9.171 -1.057 5.318 -1.333 4.816 -2.138 2.5 -2.136 0.875 -2.622 -0.809 -2.274 -2.006 -1.443 -2.694 0.128 -2.128 1.304 -1.746 2.575 -0.558 2.69 0.808 3.459 1.843 2.443 3.524 2.33 7.561 1.821 1.383 0.057 2.418 -0.242 1.077 -0.28 4.166 -1.438 -0.094 -0.692 -4.398 -0.274 -1.008 0.004 -2.159 0.016 -0.947 -0.077 -6.78 -1.685 -2.659 -1.758 -1.151 -1.525 -0.513 -2.197 0.303 -1.46 1.049 -1.547 0.92 -0.564 0.88 -0.042 0.397 0.285 0.148 0.417 -0.284 0.851 -1.534 1.311 -4.18 1.855 -4.876 1.222 -8.976 1.035 -0.861 2.578 0 0 1.213 1.153 0 0 3.34 0.355 0 0 3.333 -0.895 2.382 -1.75 1.321 -2.615 -0.369 -2.526 -2.09 -2.8 -6.134 -5.184 -0.796 -1.248 0.03 -0.264 0.456 -0.438 1.62 -0.473 1.844 0.222 0.085 0.022 1.653 1.108 -0.171 -0.475 0.09 0.675 0.163 -0.238 -1.179 1.435" />
    <path class="write-flat-pen" fill="#FFFFFF" stroke-width="3" __comx="555.079" __comy="706.055" __timestamp="0x1787f0797a1" d="M555.689 687.366 l-1.517 4.607 -0.173 0.983 -0.856 8.779 -0.113 1.584 -0.972 14.828 0.133 0.508 0.15 0.238 1.465 1.194 0.357 -0.091 0.716 -1.749 0.044 -0.176 0.032 -0.074 1.04 -14.473 0.103 -1.554 0.697 -8.664 0.097 -0.709 1.211 -4.506" />
    <path class="write-flat-pen" fill="#FFFFFF" stroke-width="3" __comx="558.886" __comy="706.055" __timestamp="0x1787f079845" d="M544.305 707.482 l1.416 0.18 0.151 0.062 2.236 0.567 0.847 0.174 15.521 2.24 1.621 0.014 1.603 -0.078 1.685 -0.304 4.084 -0.913 -0.029 -0.518 -4.16 -0.454 -1.622 -0.12 -1.465 -0.138 -1.439 -0.158 -15.313 -2.427 -0.785 -0.132 -2.334 -0.35 -0.417 -0.02 -1.602 0.183" />
    <path class="write-flat-pen" fill="#FFFFFF" stroke-width="3" __comx="574.209" __comy="706.055" __timestamp="0x1787f079964" d="M572.081 690.76 l0.559 2.977 0.03 0.408 0.292 6.551 0.018 1.165 0.464 12.554 0.088 0.504 0.095 0.377 1.619 4.381 0.751 -0.106 0.339 -4.658 -0.01 -0.369 -0.021 -0.357 -0.355 -12.401 -0.025 -1.199 -0.453 -6.686 -0.095 -0.649 -0.876 -3.067" />
    <path class="write-flat-pen" fill="#FFFFFF" stroke-width="3" __comx="575.605" __comy="706.055" __timestamp="0x1787f079a25" d="M565.827 709.263 l2.38 -0.366 0.345 0.038 11.96 1.258 0.815 -0.044 4.534 -0.585 0.046 -0.722 -4.422 -1.162 -0.743 -0.145 -11.95 -1.37 -0.797 -0.037 -2.694 0.749" />
    <path class="write-flat-pen" fill="#FFFFFF" stroke-width="3" __comx="586.694" __comy="706.055" __timestamp="0x1787f079ad7" d="M587.941 705.685 l-2.782 3.899 -1.771 4.736 -0.099 3.235 1.708 2.372 0.745 -0.229 0.226 -2.46 0.247 -2.325 1.447 -4.038 2.438 -3.709" />
    <path class="write-flat-pen" fill="#FFFFFF" stroke-width="3" __comx="596.204" __comy="706.055" __timestamp="0x1787f079b65" d="M598.042 694.107 l-2.687 0.048 -0.988 2.229 0.375 0.391 1.573 -0.231 1.725 0.052" />
    <path class="write-flat-pen" fill="#FFFFFF" stroke-width="3" __comx="601.678" __comy="706.055" __timestamp="0x1787f079ca8" d="M598.055 708.88 l-2.18 2.702 -0.273 0.421 -1.647 3.074 1.016 2.076 0.841 0.175 8.146 -7.983 0.111 -0.074 1.695 -0.792 0.391 0.044 0.079 0.131 -1.225 6.368 0.136 0.602 1.505 3.335 1.135 -0.206 0.237 -3.651 0.016 -0.061 1.361 -6.943 -1.431 -2.389 -2.706 -0.307 -2.663 1.246 -0.539 0.357 -7.196 7.153 0.675 0.142 1.016 2.076 1.425 -3.061 0.132 -0.244 1.841 -2.81" />
    <path class="write-flat-pen" fill="#FFFFFF" stroke-width="3" __comx="620.485" __comy="710.263" __timestamp="0x1787f079e5f" d="M628.614 711.756 l-1.265 -3.673 -0.287 -0.497 -1.533 -1.879 -2.323 -0.539 -2.4 1.116 -2.036 2.561 -0.884 2.788 0.745 2.508 3.968 2.744 0.927 1.364 0.219 1.296 -0.589 2.664 -2.032 3.71 -2.721 3.17 -1.613 0.993 -0.871 0.033 -0.307 -0.213 -0.132 -0.663 0.349 -0.8 2.076 -1.771 0.432 -0.271 0.655 -0.44 3.352 -2.748 -0.473 -0.891 -4.154 1.238 -0.745 0.303 -0.732 0.363 -2.878 2.368 -1.01 2.311 0.554 2.775 2.124 1.475 2.66 -0.1 2.683 -1.652 3.23 -3.763 2.388 -4.36 0.807 -3.653 -0.425 -2.517 -1.609 -2.369 -3.563 -2.46 -0.185 -0.615 0.438 -1.387 1.252 -1.58 0.828 -0.389 0.338 0.073 0.757 0.902 0.043 0.067 1.336 3.37" />
    <path class="write-flat-pen" fill="#FFFFFF" stroke-width="3" __comx="668.31" __comy="710.263" __timestamp="0x1787f07a19a" d="M659.263 705.834 l1.142 -0.578 -1.848 -1.608 -0.042 0.016 -1.038 1.294 -0.432 0.582 -3.403 5.833 -0.282 0.823 -0.262 2.473 0.941 2.112 2.314 1.584 3.359 0.289 4.533 -1.161 4.521 -2.589 4.288 -3.634 0 0 1.579 -2.264 0 0 -1.091 -2.352 -1.545 -0.144 -2.047 3.51 -0.859 3.818 0.41 3.256 1.524 2.448 2.663 1.673 3.532 0.324 0.864 -0.148 1.314 -0.393 0.603 -0.291 3.517 -2.29 -0.168 -0.498 -4.185 0.312 -0.537 0.094 -1.107 0.187 -0.382 0.041 -2.456 -0.256 -1.477 -0.928 -0.811 -1.303 -0.262 -2.083 0.642 -2.853 0.849 -1.456 -0.361 -0.034 -1.091 -2.352 0 0 -1.355 1.943 0 0 -3.78 3.204 -3.93 2.25 -3.646 0.934 -2.066 -0.177 -0.964 -0.659 -0.27 -0.603 0.138 -1.339 0.078 -0.234 3.097 -5.523 0.336 -0.51 0.929 -1.59 0.062 -0.189 -1.848 -1.608 -0.933 0.876" />
    <path class="write-flat-pen" fill="#FFFFFF" stroke-width="3" __comx="688.973" __comy="710.263" __timestamp="0x1787f07a324" d="M683.002 719.323 l-2.39 2.391 -0.36 0.406 -1.973 2.794 -0.257 0.52 -0.312 2.439 1.787 1.309 2.953 -3.067 0.614 -1.057 5.332 -13.477 2.368 -4.286 1.602 -1.66 1.33 -0.588 1.152 0.16 1.054 0.808 1.149 2.295 0.152 1.975 -0.619 2.101 -1.509 1.978 -1.251 0.752 -3.086 0.203 -0.267 -0.037 -0.834 -0.165 -4.182 -0.26 -0.187 0.553 3.524 2.345 0.957 0.377 0.777 0.177 4.214 -0.242 2.372 -1.427 2.193 -2.874 0.931 -3.16 -0.239 -3.111 -1.722 -3.44 -2.231 -1.709 -2.781 -0.386 -2.647 1.171 -2.285 2.368 -2.653 4.801 -5.316 13.451 -0.326 0.567 -0.904 1.03 1.567 1.15 -0.079 -0.376 -0.037 0.048 1.521 -2.735 0.211 -0.313 1.98 -2.687" />
    <path class="write-flat-pen" fill="#FFFFFF" stroke-width="3" __comx="726.858" __comy="710.263" __timestamp="0x1787f07a4b7" d="M728.525 689.545 l0.113 2.396 -0.007 0.386 -0.052 2.847 -0.052 0.835 -2.374 11.84 -0.344 1.111 -2.762 7.571 -0.804 3.613 0.47 0.287 2.99 -2.615 2.947 -7.892 0.414 -1.339 2.372 -12.225 0.037 -1.141 -0.133 -2.982 -0.055 -0.516 -0.44 -2.441" />
    <path class="write-flat-pen" fill="#FFFFFF" stroke-width="3" __comx="732.265" __comy="710.263" __timestamp="0x1787f07a6e7" d="M718.551 702.684 l2.349 2.382 0.965 0.377 4.962 0.954 7.415 0.116 6.493 -1.049 -0.069 0.008 1.352 -0.002 -0.237 -0.214 -0.284 -0.229 -0.068 0.442 2.77 -0.119 0.067 -0.701 -2.206 -2.544 -1.176 -0.223 -3.149 0.615 -3.061 2.146 -1.958 2.954 -0.287 2.923 1.777 2.06 2.953 0.553 5.106 -0.928 0.043 0.012 0.221 0.929 0.342 0.49 0.287 0.237 2.505 0.862 0.316 -0.305 -0.773 -2.534 -0.032 -0.094 0.137 0.177 -0.459 -2.158 -2.439 -0.692 -5.247 0.954 -1.376 -0.258 -0.251 -0.291 0.088 -0.902 1.232 -1.861 2.077 -1.462 1.964 -0.401 -0.367 -0.072 0.827 0.804 0.052 -0.509 2.77 -0.119 -0.364 -1.341 -0.284 -0.229 -0.512 -0.436 -2.469 -0.376 -0.277 0.045 -6.238 0.863 -6.924 -0.091 -4.48 -0.783 -0.197 -0.061 -2.092 -1.82" />
    <path class="write-flat-pen" fill="#FFFFFF" stroke-width="3" __comx="758.067" __comy="710.263" __timestamp="0x1787f07a855" d="M762.325 706.582 l-0.586 -1.93 -0.243 -0.384 -1.459 -1.423 -0.652 -0.288 -2.24 -0.092 -1.798 1.718 0.401 2.681 4.465 5.119 0.404 0.958 -0.225 0.614 -1.368 0.899 -1.458 0.263 -1.45 -0.397 -0.777 -1.142 -0.063 0.416 0.024 -0.4 -0.132 -2.854 -0.221 -0.093 -2.185 1.995 -0.352 0.742 -0.117 0.938 1.938 2.993 3.199 0.875 2.73 -0.492 2.708 -1.781 0.971 -2.653 -1.049 -2.491 -4.211 -4.822 -0.05 -0.292 -0.222 0.198 0.446 -0.021 -0.266 -0.122 1.021 0.735 -0.079 -0.147 0.817 1.525" />
    <path class="write-flat-pen" fill="#FFFFFF" stroke-width="3" __comx="778.855" __comy="710.263" __timestamp="0x1787f07aa27" d="M778.477 694.286 l-2.144 2.29 -0.387 0.608 -7.862 14.524 0 0 -0.325 1.904 0 0 1.965 1.671 2.275 -0.782 0 0 11.159 -9.396 0 0 0.762 -1.546 0 0 -2.063 -1.978 -3.356 1.827 -2.667 2.678 -1.33 2.914 0.047 2.656 1.654 2.57 2.789 1.667 4.599 0.734 0.907 -0.09 0.724 -0.103 0.717 -0.198 4.009 -1.662 -0.101 -0.635 -4.326 -0.338 -0.644 0.018 -0.611 0.013 -0.541 0.017 -3.683 -0.624 -1.696 -1.014 -0.812 -1.262 -0.02 -1.123 0.824 -1.806 1.979 -1.988 2.973 -1.62 -2.063 -1.978 0 0 -0.48 0.983 0 0 -10.25 8.629 0 0 -1.747 0.596 1.965 1.671 0 0 0.242 -1.418 0 0 7.537 -14.036 0.194 -0.327 1.854 -2.213" />
    <path class="write-flat-pen" fill="#FFFFFF" stroke-width="3" __comx="797.852" __comy="710.263" __timestamp="0x1787f07abc0" d="M807.479 700.699 l-2.791 -1.703 -0.394 -0.191 -2.26 -0.446 -2.175 1.064 -1.357 2.6 0.147 3.472 1.938 5.182 -0.023 0.488 -0.448 0.46 -2.168 0.618 -5.239 0.046 -4.394 0.548 -0.091 0.632 4.281 1.794 5.871 -0.024 3.331 -0.949 1.801 -1.85 0.103 -2.24 -1.986 -5.311 -0.093 -2.194 0.529 -1.017 0.388 -0.193 0.9 0.167 -0.055 -0.028 2.762 1.521" />
    <path class="write-flat-pen" fill="#FFFFFF" stroke-width="3" __comx="132.565" __comy="794.894" __timestamp="0x1787f07c391" d="M128.697 793.513 l1.55 0.065 0.151 0.026 1.227 0.114 0.164 -0.039 0.414 -1.911 -0.404 -0.627 -0.295 -0.019 0.827 0.27 -0.403 1.081 0.254 -0.062 0.221 0.1 0.07 0.198 -0.164 0.499 -0.749 0.557 0 0 2.033 2.179 0.61 -0.75 -0.143 0.008 2.533 -1.911 -0.243 -0.751 -3.172 -0.065 -0.661 0.176 -1.191 1.333 2.033 2.179 0 0 1.523 -1.147 0.745 -2.462 -0.973 -2.296 -2.328 -0.96 -2.552 0.813 -1.108 2.774 2.244 0.876 -0.202 -0.015 -0.067 -0.311 0.414 -1.911 0.084 -0.012 -0.887 0.341 -0.177 0.046 -1.536 0.512" />
    <path class="write-flat-pen" fill="#FFFFFF" stroke-width="3" __comx="160.826" __comy="794.894" __timestamp="0x1787f07c52f" d="M170.01 786.419 l0.817 -3.503 -0.109 0.274 0.248 -0.031 -1.039 -0.271 0.391 0.84 0.086 0.406 0.433 7.687 -0.06 1.473 -1.224 10.175 -1.142 4.565 -0.225 0.174 -1.003 -0.089 -3.378 -2.299 -8.894 -8.398 -0.576 -0.582 -1.663 -1.684 -0.434 -0.431 -0.358 -0.347 -3.513 -2.943 -0.549 0.433 2.044 4.102 0.297 0.483 0.444 0.572 1.609 1.826 0.622 0.664 9.083 8.65 4.224 2.874 2.953 0.263 1.976 -1.532 1.439 -5.755 1.259 -10.482 0.068 -1.745 -0.543 -8.107 -0.29 -1.073 -1.319 -2.007 -1.414 -0.379 -1.503 1.588 -0.184 0.447 -0.407 3.857" />
    <path class="write-flat-pen" fill="#FFFFFF" stroke-width="3" __comx="175.239" __comy="794.894" __timestamp="0x1787f07c601" d="M161.88 783.46 l0.248 -1.998 -0.174 0.402 1.296 -0.923 4.399 -0.812 6.447 0.11 7.111 1.162 1.335 0.275 2.727 0.575 1.378 0.206 4.419 0.414 0.221 -0.815 -4.024 -1.872 -1.319 -0.524 -2.737 -0.792 -1.437 -0.343 -7.398 -1.279 -6.974 -0.119 -5.377 1.01 -2.403 1.843 -0.334 0.751 -0.089 2.529" />
    <path class="write-flat-pen" fill="#FFFFFF" stroke-width="3" __comx="192.861" __comy="794.894" __timestamp="0x1787f07c778" d="M183.105 799.428 l2.348 0.495 0.425 0.086 2.889 0.386 0.811 0.057 4.511 -0.29 4.012 -1.308 2.025 -1.686 0.861 -2.703 -1.768 -2.416 -2.676 -0.815 -3.068 0.46 -3.142 1.594 -3.478 3.197 -2.087 3.393 -0.807 3.481 0.565 3.19 1.529 2.209 2.671 1.578 3.51 0.536 3.639 -0.472 1.186 -0.343 1.071 -0.418 0.941 -0.536 3.542 -2.473 -0.286 -0.673 -4.24 0.827 -0.938 0.261 -0.916 0.243 -0.918 0.212 -3.037 0.347 -2.528 -0.387 -1.605 -0.948 -0.782 -1.13 -0.344 -1.942 0.558 -2.406 1.612 -2.621 2.867 -2.635 2.34 -1.188 1.917 -0.287 1.071 0.326 0.279 0.38 -0.132 0.419 -0.911 0.763 -3.116 1.034 -3.959 0.332 -0.571 -0.017 -2.804 -0.15 -0.374 -0.019 -2.383 -0.168" />
    <path class="write-flat-pen" fill="#FFFFFF" stroke-width="3" __comx="213.752" __comy="794.894" __timestamp="0x1787f07c8ea" d="M220.015 793.743 l-0.864 -2.508 -0.456 -0.517 -2.25 -1.311 -3.335 -0.45 -2.297 0.958 -1.371 2.072 0.188 2.605 1.591 2.391 5.857 3.804 0.564 0.731 -0.01 0.194 -0.668 0.831 -2.397 1.34 -3.847 1.022 -1.375 -0.171 0.158 0.655 -1.502 -1.38 -0.823 0.276 -0.367 2.006 0.312 1.115 3.78 0.554 4.798 -1.274 3.236 -1.809 1.642 -2.044 0.114 -2.271 -1.554 -2.012 -5.764 -3.745 -0.809 -1.217 -0.058 -0.798 0.303 -0.459 0.707 -0.297 1.958 0.253 1.357 0.741 -0.211 -0.245 0.848 1.939" />
    <path class="write-flat-pen" fill="#FFFFFF" stroke-width="3" __comx="241.481" __comy="794.894" __timestamp="0x1787f07cb48" d="M237.117 790.798 l-2.71 -0.856 -0.561 -0.084 -3.659 0.034 -3.251 1.15 -1.444 2.148 0.688 2.99 6.911 6.83 0.848 1.528 -0.08 0.479 -0.704 0.796 0 0 -3.743 1.71 0 0 0.208 2.806 2.974 0.857 5.563 0.15 5.565 -1.106 4.138 -1.744 2.905 -2.218 1.825 -2.809 0.427 -2.504 -1.171 -2.618 -2.307 -1.092 -2.883 0.755 -2.228 2.146 -1.306 2.849 -0.113 3.4 0.893 2.192 2.361 2.195 5.39 1.503 0.997 -0.032 0.722 -0.122 4.104 -1.325 -0.045 -0.668 -4.245 -0.761 -0.634 -0.03 -0.488 -0.032 -4.289 -1.223 -1.344 -1.25 -0.402 -0.986 0.072 -2.159 0.818 -1.785 1.255 -1.209 1.07 -0.28 0.318 0.151 0.347 0.775 -0.169 0.996 -1.204 1.855 -2.189 1.672 -3.505 1.477 -4.936 0.98 -4.845 -0.131 -2.606 -0.751 0.208 2.806 0 0 4.322 -1.975 0 0 1.696 -1.917 0.395 -2.362 -1.568 -2.818 -6.595 -6.521 -0.202 -0.875 0.166 -0.249 1.86 -0.667 2.958 -0.1 0.147 0.007 2.566 0.606" />
    <path class="write-flat-pen" fill="#FFFFFF" stroke-width="3" __comx="76.369" __comy="793.525" __timestamp="0x1787f07d2ae" d="M73.696 818.444 l-1.662 -2.842 -0.348 -0.596 -2.011 -3.547 -0.47 -0.855 -6.376 -12.207 -4.948 -11.353 -1.312 -4.33 -0.888 0.789 7.679 3.668 6.2 2.126 8.499 1.114 7.055 -0.053 10.588 -1.254 3.895 -1.392 -0.469 -2.904 -3.734 -1.095 -4.897 -0.013 -6.518 1.461 -4.862 2.158 -5.935 4.16 -4.032 4.183 -3.62 5.439 0 0 -4.194 8.444 0 0 -4.235 11.262 0 0 2.843 0.95 5.385 -18.356 6.354 -25.517 1.406 -8.474 0.495 -0.672 0 0 -2.214 0.223 2.429 2.197 7.411 10.244 5.951 9.651 5.791 13.182 0.868 2.754 0.886 2.857 1.01 2.716 1.458 3.47 0.783 -0.193 -0.323 -3.75 -0.373 -2.892 -0.644 -2.993 -0.857 -3.002 -5.935 -13.546 -6.118 -9.923 -7.66 -10.589 -2.663 -2.408 -2.214 0.223 0 0 -0.921 1.251 -1.504 9.065 -6.311 25.341 -5.367 18.297 2.843 0.95 0 0 4.182 -11.119 0 0 4.042 -8.138 0 0 3.365 -5.056 3.644 -3.78 5.46 -3.827 4.325 -1.919 5.9 -1.322 4.135 0.011 1.509 0.442 -0.231 -1.427 -1.226 0.438 -10.087 1.195 -6.682 0.05 -7.995 -1.048 -5.752 -1.973 -9.32 -4.452 -2.036 1.809 1.919 6.335 5.062 11.612 6.487 12.323 0.531 0.916 2.215 3.514 0.418 0.605 1.906 2.693" />
    <path class="write-flat-pen" fill="#FFFFFF" stroke-width="3" __comx="360.613" __comy="797.494" __timestamp="0x1787f0887d7" d="M350.74 784.698 l2.187 -5.607 -0.051 -1.127 -2.632 -1.959 -1.041 -0.048 -4.063 0.34 -4.05 1.387 -2.24 1.804 -0.97 2.64 1.103 2.6 9.464 4.838 1.858 1.564 0.992 1.983 0.044 2.106 -0.826 2.484 -2.241 3.31 -3.168 2.959 -2.142 1.061 -0.717 -0.041 -0.216 -0.196 0 -0.006 1.2 -1.488 2.147 -1.3 5.014 -1.597 16.315 -1.847 4.878 -1.175 2.589 -1.518 1.315 -2.318 -1.349 -2.456 -3.009 -0.743 -3.104 1.039 -2.503 2.298 -1.643 3.34 -0.097 2.936 1.02 2.204 2.399 1.966 6.215 1.505 1.424 -0.015 2.302 -0.206 1.167 -0.192 1.042 -0.31 3.992 -1.532 -0.074 -0.472 -4.269 -0.243 -1.002 0.009 -1.048 0.003 -2.18 0.027 -0.991 -0.024 -5.203 -1.302 -1.341 -1.099 -0.431 -0.933 0.052 -1.578 1.11 -2.255 1.618 -1.486 1.673 -0.561 0.89 0.218 -0.083 -0.157 -0.093 0.178 -1.516 0.91 -4.26 1.071 -16.413 1.828 -5.636 1.75 -2.91 1.743 -2.213 2.728 0.017 2.394 1.975 1.795 2.57 0.147 3.248 -1.609 3.735 -3.493 2.657 -3.936 1.113 -3.366 -0.071 -3.291 -1.568 -3.134 -2.589 -2.18 -8.8 -4.501 -0.218 -0.514 0.276 -0.755 1.188 -0.961 3.213 -1.122 3.517 -0.364 0.016 -0.01 1.005 0.566 -0.026 -0.691 -1.668 5.231" />
    <path class="write-flat-pen" fill="#FFFFFF" stroke-width="3" __comx="398.967" __comy="797.494" __timestamp="0x1787f088950" d="M387.145 800.911 l4.582 -0.251 0.464 -0.03 6.093 -0.422 0.642 -0.071 5.086 -1.653 0.658 -0.815 0.316 -2.263 -2.306 -1.971 -4.158 -1.024 -3.46 0.236 -3.005 1.3 -2.112 2.195 -1.185 2.777 0.099 3.227 1.209 2.643 2.284 2.268 6.962 2.267 1.598 0.127 1.445 -0.025 1.505 -0.095 1.622 -0.289 1.599 -0.476 3.897 -1.403 -0.074 -0.465 -4.14 -0.128 -1.602 0.032 -1.462 0.03 -1.353 -0.052 -1.288 -0.05 -1.141 -0.127 -5.959 -1.976 -1.394 -1.384 -0.73 -1.596 -0.06 -1.961 0.709 -1.663 1.313 -1.365 1.979 -0.857 2.481 -0.172 3.025 0.734 0.555 0.454 0.037 -0.14 0.384 -0.473 -3.961 1.483 -0.32 0.054 -6.019 0.749 -0.471 0.06 -4.543 0.706" />
    <path class="write-flat-pen" fill="#FFFFFF" stroke-width="3" __comx="451.006" __comy="797.494" __timestamp="0x1787f088b6d" d="M440.357 808.994 l-0.234 -1.36 0.012 0.162 0.562 -1.154 0.212 -0.43 2.179 -4.318 0.658 -1.261 7.016 -13.33 0 0 5.944 -9.166 0 0 -2.738 -1.064 -1.191 7.12 -0.199 7.832 0.881 5.741 1.624 4.322 3.361 3.98 0.774 0.477 0.627 0.268 4.218 1.199 0.407 -0.751 -3.306 -2.881 -0.458 -0.321 -0.279 -0.216 -2.716 -3.287 -1.335 -3.552 -0.793 -5.168 0.187 -7.354 1.156 -6.912 -2.738 -1.064 0 0 -6.019 9.281 0 0 -7.077 13.462 -0.672 1.304 -2.109 4.458 -0.224 0.562 -0.461 1.515 -0.087 0.687 0.736 1.85" />
    <path class="write-flat-pen" fill="#FFFFFF" stroke-width="3" __comx="454.615" __comy="797.494" __timestamp="0x1787f088c37" d="M443.411 795.845 l6.206 2.782 1.304 0.251 8.469 0.55 1.04 -0.036 0.972 -0.105 4.403 -0.689 0.013 -0.701 -4.375 -0.851 -0.962 -0.14 -0.962 -0.082 -8.229 -0.725 -0.859 -0.159 -6.042 -2.404" />
    <path class="write-flat-pen" fill="#FFFFFF" stroke-width="3" __comx="474.519" __comy="797.494" __timestamp="0x1787f088df3" d="M466.847 809.057 l-2.068 2.986 -0.338 0.614 -1.613 4.714 0.187 0.986 0.66 0.82 0 0 2.011 0.122 1.488 -1.278 2.046 -4.798 2.779 -10.96 2.098 -5.357 1.452 -1.887 1.838 -1.079 1.544 -0.228 2.069 0.503 1.336 1.022 0.835 1.494 0.031 2.067 -0.717 1.686 -2.105 2.417 -2.392 1.566 -2.261 0.63 -1.256 -0.334 0.276 1.198 -0.174 0.322 -0.242 -1.613 -1.138 -0.44 -1.264 1.031 -0.246 0.506 0.323 1.389 3.72 1.056 3.516 -0.979 3.129 -2.048 2.69 -3.088 1.151 -2.708 -0.051 -3.459 -1.507 -2.697 -2.33 -1.783 -3.25 -0.79 -2.7 0.398 -2.844 1.671 -2.067 2.688 -2.321 5.931 -2.739 10.933 -1.659 4.006 -0.945 0.901 2.011 0.122 0 0 -0.246 -0.213 0.071 0.413 1.054 -3.947 0.158 -0.369 1.666 -3.118" />
    <path class="write-flat-pen" fill="#FFFFFF" stroke-width="3" __comx="503.173" __comy="800.182" __timestamp="0x1787f08909e" d="M482.964 818.261 l-2.12 2.094 0.358 -0.415 0.205 -0.114 1.3 1.793 0.103 -0.308 4.737 -12.999 0.386 -1.027 2.854 -6.178 2.932 -4.484 2.067 -2.037 2.287 -1.144 2.068 -0.252 1.95 0.551 1.735 1.218 0.94 1.564 0.024 1.758 -0.732 1.62 -2.272 2.415 -2.728 1.71 -3.294 1.082 0 0 -1.318 -0.107 0 0 0.988 2.505 0.522 -0.573 13.292 -4.499 4.892 -2.375 1.979 -1.831 0.903 -2.473 -0.608 -2.729 -1.984 -1.715 -2.608 0.164 -2.155 1.868 -1.26 2.842 -0.177 3.306 0.966 3.161 2.326 3.088 3.631 1.941 4.611 -0.195 1.114 -0.476 1.637 -1.049 0.784 -0.693 0.65 -0.747 2.415 -3.312 -0.24 -0.28 -3.64 1.886 -0.769 0.471 -0.688 0.401 -1.424 0.703 -0.467 0.166 -3.282 0.097 -2.332 -1.247 -1.61 -2.137 -0.657 -2.147 0.119 -2.225 0.765 -1.726 0.883 -0.765 0.374 -0.023 0.306 0.265 0.201 0.903 -0.353 0.967 -1.12 1.036 -4.322 2.098 -13.848 4.687 -1.044 1.147 0.988 2.505 0 0 1.922 0.156 0 0 4.217 -1.385 3.364 -2.109 2.879 -3.06 1.213 -2.685 -0.045 -3.235 -1.685 -2.803 -2.673 -1.876 -3.022 -0.853 -3.181 0.39 -3.174 1.589 -2.633 2.595 -3.227 4.937 -2.986 6.48 -0.43 1.15 -4.665 13.158 -0.099 0.418 1.3 1.793 1.04 -0.076 0.446 -0.514 1.835 -2.341" />
    <path class="write-flat-pen" fill="#FFFFFF" stroke-width="3" __comx="530.264" __comy="800.182" __timestamp="0x1787f0891e9" d="M529.482 791.935 l-1.657 -0.099 -0.553 0.312 -1.078 1.029 -0.309 0.53 -1.442 3.365 -0.241 0.695 -1.427 5.247 0.351 3.637 2.989 0.024 4.929 -6.722 1.82 -1.638 0.981 -0.278 0.172 0.064 0.693 1.212 0.067 9.273 0.156 0.47 2.102 3.223 0.581 -0.162 0.135 -3.846 -0.003 -0.1 -0.044 -9.664 -1.622 -2.836 -2.109 -0.79 -2.599 0.737 -2.568 2.311 -4.204 5.734 1.244 0.01 -0.043 -0.41 1.223 -4.641 0.174 -0.532 1.197 -3.214 0.055 -0.154 0.436 -0.732 -0.291 0.141 1.016 -0.286" />
    <path class="write-flat-pen" fill="#FFFFFF" stroke-width="3" __comx="552.276" __comy="800.182" __timestamp="0x1787f0893a2" d="M557.79 782.895 l0.889 -0.653 -0.447 0.214 0.313 0.218 -0.363 -0.199 0.487 0.931 -0.016 0.013 -0.231 4.408 -0.182 0.848 -3.163 11.997 0.407 -0.243 -2.855 -1.291 -3.237 -0.449 -3.347 0.907 -2.094 1.746 -0.951 2.405 0.814 2.698 2.067 1.603 3.673 1.039 5.666 -0.012 0.971 -0.177 0.8 -0.211 0.666 -0.259 3.898 -2.079 -0.158 -0.601 -4.416 0.108 -0.634 0.083 -0.675 0.093 -0.681 0.081 -5.02 -0.025 -2.713 -0.768 -0.849 -0.659 -0.236 -0.782 0.286 -0.723 1.003 -0.836 2.124 -0.575 2.202 0.305 3.889 1.758 1.99 -1.188 3.487 -13.252 0.247 -1.168 0.152 -5.19 -0.31 -0.877 -1.221 -1.573 -0.651 -0.379 -1.525 0.069 -0.5 0.238 -0.801 1.36" />
    <path class="write-flat-pen" fill="#FFFFFF" stroke-width="3" __comx="568.999" __comy="800.182" __timestamp="0x1787f08945f" d="M569.906 798.052 l-1.774 2.863 -0.338 0.663 -2.117 5.807 0.107 3.164 0.893 0.502 1.998 0.058 0.313 -0.461 -0.789 -1.837 0.443 0.196 0.04 -1.119 1.841 -5.142 0.201 -0.423 1.596 -2.845" />
    <path class="write-flat-pen" fill="#FFFFFF" stroke-width="3" __comx="574.858" __comy="800.182" __timestamp="0x1787f0894ed" d="M577.242 787.807 l-3.389 0.108 -1.531 2.627 0.642 3.333 0.842 0.081 1.201 -2.505 0.532 -0.684 1.854 -0.177" />
    <path class="write-flat-pen" fill="#FFFFFF" stroke-width="3" __comx="584.82" __comy="800.182" __timestamp="0x1787f0895cb" d="M580.176 794.239 l1.587 1.475 0.08 0.144 1.729 3.875 3.26 11.049 1.794 2.729 0.183 -0.034 0.655 -3.318 -3.169 -11.438 -2.031 -4.257 -0.466 -0.635 -2.045 -1.509" />
    <path class="write-flat-pen" fill="#FFFFFF" stroke-width="3" __comx="585.952" __comy="800.182" __timestamp="0x1787f089656" d="M578.088 809.605 l0.79 -1.428 0.069 -0.037 1.099 -1.033 0.575 -0.505 12.273 -11.134 0.774 -1.027 2.355 -3.845 -0.648 -0.596 -3.634 2.67 -0.868 0.759 -12.232 10.999 -0.628 0.602 -1.133 1.296 -0.309 0.435 -0.689 1.845" />
    <path class="write-flat-pen" fill="#FFFFFF" stroke-width="3" __comx="318.854" __comy="909.928" __timestamp="0x1787f0a090c" d="M6.863 930.955 l0.592 0.198 0.353 -0.034 0.915 -0.264 0.441 -0.204 2.6 -1.515 0.788 -0.516 18.51 -12.03 26.458 -16.039 17.027 -9.128 17.412 -7.96 10.882 -4.08 14.092 -3.891 9.072 -1.556 12.304 -0.42 7.21 0.922 6.617 1.794 5.881 2.569 5.18 3.269 6.936 6.351 3.726 4.821 4.554 8.227 7.929 21.22 2.778 5.775 3.824 5.415 5.305 4.895 6.888 3.951 8.6 2.816 10.343 1.619 11.758 0.362 12.856 -0.864 20.945 -2.771 61.894 -11.138 22.824 -3.401 21.356 -2.079 18.976 -0.326 10.97 0.775 14.765 2.341 13.239 3.316 16.291 5.284 15.363 6.303 34.962 17.256 12.857 5.642 14.88 4.777 11.779 2.629 13.638 1.776 33.195 0.872 9.697 -0.318 10.418 -0.505 10.993 -0.902 11.729 -1.418 1.412 -0.163 -0.055 -0.765 -1.421 0.039 -11.8 0.261 -10.984 0.436 -10.382 0.314 -9.606 0.209 -32.962 -1.017 -13.354 -1.754 -11.516 -2.573 -14.605 -4.689 -12.658 -5.551 -35.029 -17.201 -15.575 -6.334 -16.499 -5.302 -13.462 -3.322 -15.008 -2.322 -11.203 -0.771 -19.199 0.337 -21.528 2.092 -22.939 3.362 -61.885 11.059 -20.792 2.752 -12.629 0.85 -11.446 -0.352 -9.946 -1.559 -8.109 -2.661 -6.36 -3.655 -4.851 -4.481 -3.518 -4.98 -2.63 -5.448 -8.073 -21.246 -4.79 -8.552 -4.002 -5.145 -7.298 -6.632 -5.555 -3.47 -6.237 -2.699 -6.968 -1.868 -7.582 -0.952 -12.672 0.439 -9.361 1.601 -14.322 3.947 -11.07 4.147 -17.567 8.023 -17.162 9.186 -26.561 16.087 -18.467 12.252 -0.773 0.588 -2.319 1.89 -0.319 0.315 -0.575 0.669 -0.117 0.213 -0.312 0.462" />
    <path class="write-flat-pen" fill="#FFFFFF" stroke-width="3" __comx="769.195" __comy="970.956" __timestamp="0x1787f0a0972" d="M769.256 969.907 l-2.187 2.194 0.627 1.467 0.808 0.703 2.227 1.41 0.559 -0.456 -0.932 -2.466 -0.248 -0.592 0.319 0.667 0.891 -0.814" />
    <path class="write-flat-pen" fill="#FFFFFF" stroke-width="3" __comx="193.114" __comy="1007.092" __timestamp="0x1787f0a0cee" d="M179.278 1004.254 l0.507 -0.779 0.623 -0.902 -1.735 -0.291 0.284 0.798 -5.718 12.423 0 0 -0.642 1.154 0 0 -5.43 9.468 0 0 2.257 1.203 7.106 -13.915 8.771 -15.142 10.267 -15.576 0.951 -0.743 2.934 -0.264 14.225 1.044 0.752 0.039 4.523 0.045 0.131 -0.684 -4.218 -1.634 -0.846 -0.268 -14.582 -1.331 -3.992 0.374 -1.937 1.54 -10.461 16.072 -8.809 15.285 -7.094 13.998 2.257 1.203 0 0 5.213 -9.618 0 0 0.643 -1.274 0 0 5.546 -13.242 -0.268 -1.418 -1.735 -0.291 -0.572 0.935 -0.507 0.779" />
    <path class="write-flat-pen" fill="#FFFFFF" stroke-width="3" __comx="187.795" __comy="1007.092" __timestamp="0x1787f0a0db8" d="M175.506 1005.467 l3.811 -0.982 15.848 -1.355 1.023 -0.135 4.552 -0.684 -0.026 -1.009 -4.582 -0.445 -1.089 -0.08 -16.175 1.127 -4.019 1.163" />
    <path class="write-flat-pen" fill="#FFFFFF" stroke-width="3" __comx="197.968" __comy="1007.092" __timestamp="0x1787f0a0e8c" d="M199.703 1015.458 l-2.582 6.116 -0.26 0.712 -2.226 6.657 -0.328 4.768 1.169 0.25 1.623 -4.35 2.129 -6.526 0.214 -0.662 2.187 -6.22" />
    <path class="write-flat-pen" fill="#FFFFFF" stroke-width="3" __comx="214.716" __comy="1007.092" __timestamp="0x1787f0a0f18" d="M216.092 994.446 l-2.435 2.015 -0.369 0.579 -1.531 2.93 0.439 0.385 2.707 -1.898 0.37 -0.263 2.403 -1.668" />
    <path class="write-flat-pen" fill="#FFFFFF" stroke-width="3" __comx="226.183" __comy="1023.634" __timestamp="0x1787f0a107b" d="M207.791 1021.839 l-2.954 7.561 -0.391 3.833 2.596 0.526 8.579 -7.618 3.017 -1.861 0.725 0.052 0.13 0.166 -0.372 8.533 0.825 3.35 2.487 1.789 2.854 0.066 3.383 -1.17 5.422 -3.34 8.532 -6.868 1.451 -1.368 1.192 -1.344 2.652 -3.194 -0.537 -0.599 -3.463 2.29 -1.448 1.023 -1.507 1.182 -8.474 6.589 -5.024 3.088 -2.619 0.907 -1.489 -0.032 -0.956 -0.684 -0.493 -1.974 0.288 -9.279 -1.672 -1.706 -2.576 -0.098 -3.868 2.448 -7.722 7.178 0.561 0.115 0.137 -1.486 2.651 -7.359" />
    <path class="write-flat-pen" fill="#FFFFFF" stroke-width="3" __comx="188.673" __comy="1039.751" __timestamp="0x1787f0a1181" d="M147.543 1034.01 l5.785 2.101 28.948 14.639 13.096 5.687 20.082 6.791 5.607 1.541 5.857 1.232 2.665 0.541 0.22 -0.745 -2.532 -0.992 -5.577 -2.141 -5.455 -1.848 -19.856 -6.978 -12.921 -5.618 -29.062 -14.622 -5.988 -2.052" />
  </g>
</svg>
