<svg class="write-page" width="1010px" height="1628px" xmlns="http://www.w3.org/2000/svg" xmlns:xlink="http://www.w3.org/1999/xlink">
  <g class="write-content write-v3" width="1010" height="1628" xruling="30" yruling="30" marginLeft="30" papercolor="#1B1C1C" rulecolor="#3A00F9FF">
    <g class="ruleline write-std-ruling write-scale-down" fill="none" stroke="#00F9FF" stroke-opacity="0.227" stroke-width="1" shape-rendering="crispEdges" vector-effect="non-scaling-stroke">
      <rect class="pagerect" fill="#1B1C1C" stroke="none" x="0" y="0" width="1010" height="1628" />
      <path class="yrule_1" d="M0 30 l1010 0" />
      <path d="M0 60 l1010 0" />
      <path d="M0 90 l1010 0" />
      <path d="M0 120 l1010 0" />
      <path d="M0 150 l1010 0" />
      <path d="M0 180 l1010 0" />
      <path d="M0 210 l1010 0" />
      <path d="M0 240 l1010 0" />
      <path d="M0 270 l1010 0" />
      <path d="M0 300 l1010 0" />
      <path d="M0 330 l1010 0" />
      <path d="M0 360 l1010 0" />
      <path d="M0 390 l1010 0" />
      <path d="M0 420 l1010 0" />
      <path d="M0 450 l1010 0" />
      <path d="M0 480 l1010 0" />
      <path d="M0 510 l1010 0" />
      <path d="M0 540 l1010 0" />
      <path d="M0 570 l1010 0" />
      <path d="M0 600 l1010 0" />
      <path d="M0 630 l1010 0" />
      <path d="M0 660 l1010 0" />
      <path d="M0 690 l1010 0" />
      <path d="M0 720 l1010 0" />
      <path d="M0 750 l1010 0" />
      <path d="M0 780 l1010 0" />
      <path d="M0 810 l1010 0" />
      <path d="M0 840 l1010 0" />
      <path d="M0 870 l1010 0" />
      <path d="M0 900 l1010 0" />
      <path d="M0 930 l1010 0" />
      <path d="M0 960 l1010 0" />
      <path d="M0 990 l1010 0" />
      <path d="M0 1020 l1010 0" />
      <path d="M0 1050 l1010 0" />
      <path d="M0 1080 l1010 0" />
      <path d="M0 1110 l1010 0" />
      <path d="M0 1140 l1010 0" />
      <path d="M0 1170 l1010 0" />
      <path d="M0 1200 l1010 0" />
      <path d="M0 1230 l1010 0" />
      <path d="M0 1260 l1010 0" />
      <path d="M0 1290 l1010 0" />
      <path d="M0 1320 l1010 0" />
      <path d="M0 1350 l1010 0" />
      <path d="M0 1380 l1010 0" />
      <path d="M0 1410 l1010 0" />
      <path d="M0 1440 l1010 0" />
      <path d="M0 1470 l1010 0" />
      <path d="M0 1500 l1010 0" />
      <path d="M0 1530 l1010 0" />
      <path d="M0 1560 l1010 0" />
      <path d="M0 1590 l1010 0" />
      <path d="M0 1620 l1010 0" />
      <path class="xrule_1" d="M30 0 l0 1628" />
      <path d="M60 0 l0 1628" />
      <path d="M90 0 l0 1628" />
      <path d="M120 0 l0 1628" />
      <path d="M150 0 l0 1628" />
      <path d="M180 0 l0 1628" />
      <path d="M210 0 l0 1628" />
      <path d="M240 0 l0 1628" />
      <path d="M270 0 l0 1628" />
      <path d="M300 0 l0 1628" />
      <path d="M330 0 l0 1628" />
      <path d="M360 0 l0 1628" />
      <path d="M390 0 l0 1628" />
      <path d="M420 0 l0 1628" />
      <path d="M450 0 l0 1628" />
      <path d="M480 0 l0 1628" />
      <path d="M510 0 l0 1628" />
      <path d="M540 0 l0 1628" />
      <path d="M570 0 l0 1628" />
      <path d="M600 0 l0 1628" />
      <path d="M630 0 l0 1628" />
      <path d="M660 0 l0 1628" />
      <path d="M690 0 l0 1628" />
      <path d="M720 0 l0 1628" />
      <path d="M750 0 l0 1628" />
      <path d="M780 0 l0 1628" />
      <path d="M810 0 l0 1628" />
      <path d="M840 0 l0 1628" />
      <path d="M870 0 l0 1628" />
      <path d="M900 0 l0 1628" />
      <path d="M930 0 l0 1628" />
      <path d="M960 0 l0 1628" />
      <path d="M990 0 l0 1628" />
      <path class="leftmargin" stroke="#FF0000" d="M30 0 l0 1628" />
    </g>
    <path class="write-flat-pen" fill="#FFFFFF" stroke-width="3" __comx="84.408" __comy="75.391" __timestamp="0x1787eee59a6" d="M69.479 52.198 l-0.567 -1.818 0.006 -0.006 0.087 -0.347 0.017 0.195 0 0 -1.869 0.238 0.03 0.62 0.03 0.263 0.793 4.195 0.155 0.936 1.423 11.826 0.502 10.579 -0.439 9.265 0.873 2.091 2.752 0.951 22.637 0.105 0.687 -0.144 1.127 -0.432 3.997 -1.806 -0.072 -0.318 -4.359 0.086 -1.068 0.006 -0.433 -0.025 -21.992 -0.466 -1.024 -0.354 -0.095 -0.227 0.413 -8.733 -0.522 -10.836 -1.571 -12.009 -0.221 -1.085 -1.235 -4.216 -0.153 -0.379 -0.421 -0.575 -1.869 0.238 0 0 0.016 0.202 0.406 0.66 0.038 0.074 0.967 1.668" />
    <path class="write-flat-pen" fill="#FFFFFF" stroke-width="3" __comx="113.318" __comy="75.391" __timestamp="0x1787eee5bcd" d="M106.392 78.774 l0.202 0.798 0.193 0.175 0.658 0.471 0.362 0.136 1.807 0.229 0.667 -0.112 3.602 -1.608 0.661 -0.544 2.265 -2.63 1.095 -2.968 -0.833 -2.473 -2.637 -1.279 -3.297 0.515 -3.174 2.032 -2.417 3.117 -1.275 3.503 -0.182 3.239 0.878 3.097 2.171 3.045 3.453 1.907 3.336 0.528 5.108 -1.869 0.465 -0.44 0.403 -0.493 2.646 -3.201 -0.204 -0.264 -3.764 1.754 -0.564 0.254 -0.193 0.053 -4.138 1.13 -2.105 -0.333 -2.395 -1.323 -1.474 -2.067 -0.599 -2.113 0.129 -2.295 0.963 -2.647 1.811 -2.339 2.208 -1.419 1.758 -0.283 0.69 0.322 0.121 0.317 -0.525 1.541 -1.693 2.146 -0.215 0.21 -2.864 1.703 -0.115 0.065 -1.335 0.196 -0.052 0.03 -0.511 -0.018 0.136 0.13 -0.447 -0.362" />
    <path class="write-flat-pen" fill="#FFFFFF" stroke-width="3" __comx="135.383" __comy="75.391" __timestamp="0x1787eee5dc8" d="M137.126 71.918 l0.679 -1.508 0.05 -0.432 -0.717 -1.471 -0.695 -0.325 -4.014 -0.062 -0.711 0.237 -2.262 1.332 -1.299 2.259 0.443 2.179 1.998 1.746 6.769 2.491 1.933 1.337 0.647 1.162 -0.029 0.974 -0.789 1.232 -2.065 1.241 -2.581 0.611 -2.22 -0.143 -1.796 -1.044 0.017 0.636 -0.148 -0.172 -0.201 -2.169 -0.297 -0.108 -1.589 1.649 -0.343 0.639 0.058 1.011 3.27 2.495 3.505 0.222 3.47 -0.83 3.06 -1.862 1.582 -2.547 0.007 -2.608 -1.427 -2.384 -2.78 -1.857 -6.638 -2.388 -0.944 -0.796 -0.084 -0.292 0.418 -0.819 1.399 -0.925 0.093 -0.047 3.167 -0.327 -0.266 -0.144 0.425 0.282 0.038 -0.273 -0.217 1.473" />
    <path class="write-flat-pen" fill="#FFFFFF" stroke-width="3" __comx="154.978" __comy="75.391" __timestamp="0x1787eee5fa5" d="M156.706 66.851 l-1.851 -0.592 -0.341 -0.065 -3.268 0.273 -0.532 0.27 -1.599 1.428 -0.437 2.434 1.703 2.265 6.604 3.086 1.503 1.245 0.436 1.148 -0.219 1.141 -1.029 1.38 -1.826 1.195 -3.348 0.981 -2.533 0.075 0.477 0.74 -0.094 0.288 -0.886 -1.086 -0.682 0.05 -0.72 1.203 -0.077 0.517 0.66 0.965 4.248 0.257 4.227 -1.246 2.638 -1.74 1.742 -2.373 0.466 -2.656 -1.074 -2.624 -2.411 -1.89 -6.349 -2.863 -0.646 -0.776 0.025 -0.448 0.644 -0.685 -0.138 0.062 2.516 -0.594 -0.005 -0.022 1.861 0.177" />
    <path class="write-flat-pen" fill="#FFFFFF" stroke-width="3" __comx="176.595" __comy="75.391" __timestamp="0x1787eee62b3" d="M179.525 73.5 l0.372 -0.767 0.01 -0.176 0.021 -0.77 -0.103 -0.332 -0.652 -1.302 -0.469 -0.451 -3.34 -1.193 -0.914 0.099 -2.295 0.859 -2.378 2.391 -1.479 3.322 -0.399 4.015 0.782 3.09 1.783 2.612 2.675 1.693 3.373 0.465 3.348 -0.933 2.838 -2.079 1.79 -2.946 0.806 -3.826 -0.594 -3.369 -1.882 -3.41 -4.156 -2.439 -0.736 0.249 -0.106 0.078 -1.698 1.693 0.069 0.207 2.374 0.338 0.04 0.029 -0.407 0.167 2.358 1.786 1.278 2.315 0.406 2.306 -0.581 2.757 -1.214 1.998 -1.915 1.404 -2.223 0.62 -2.114 -0.29 -1.605 -1.013 -1.14 -1.663 -0.534 -2.073 0.275 -3.036 1.028 -2.44 1.531 -1.657 1.384 -0.618 0.029 -0.022 2.469 0.495 -0.056 -0.092 0.745 0.715 0.043 -0.005 0.278 0.421 0.014 -0.09 0.065 0.698" />
    <path class="write-flat-pen" fill="#FFFFFF" stroke-width="3" __comx="196.51" __comy="75.391" __timestamp="0x1787eee6499" d="M186.244 70.107 l-0.312 1.033 0.099 0.428 0.625 1.849 0.194 0.474 1.662 4.507 0.177 0.611 -0.015 -0.047 1.164 5.384 0 0 2.842 -0.457 -0.002 -0.131 0.384 -3.944 1.083 -3.333 1.631 -2.493 1.121 -0.757 0.948 -0.106 1.321 0.583 1.79 1.995 2.414 5.021 1.091 3.913 0.042 0.118 0.078 0.604 0.551 4.232 0.262 0.027 1.416 -4.036 0.195 -0.63 0.083 -0.528 -0.868 -4.696 -2.746 -5.711 -2.507 -2.794 -2.653 -1.17 -2.485 0.28 -2.231 1.509 -2.175 3.337 -1.294 4.037 -0.364 4.509 0.031 0.356 2.842 -0.457 0 0 -1.596 -5.353 -0.015 -0.047 -0.241 -0.674 -2.112 -4.494 -0.275 -0.475 -0.958 -1.585 -0.052 -0.006 -0.073 -0.742" />
    <path class="write-flat-pen" fill="#FFFFFF" stroke-width="3" __comx="241.611" __comy="75.391" __timestamp="0x1787eee672e" d="M241.089 58.668 l-1.234 -0.459 -0.07 0.524 -0.002 0.292 0.048 1.852 0.027 0.866 0.239 6.016 0.044 1.47 0.325 18.445 -0.131 1.078 0 0 2.202 -0.157 -0.096 0 -0.316 -0.461 -0.203 -0.453 -0.969 -2.407 -0.249 0.031 -0.341 2.572 -0.072 0.583 0.011 0.956 0.104 0.36 2.202 -0.157 0 0 0.83 -1.437 -0.601 -19.059 -0.111 -1.534 -0.665 -6.036 -0.139 -0.899 -0.383 -1.878 -0.117 -0.408 -0.356 -0.501 -1.234 0.797" />
    <path class="write-flat-pen" fill="#FFFFFF" stroke-width="3" __comx="252.206" __comy="75.391" __timestamp="0x1787eee68de" d="M245.674 60.762 l-1.282 -0.759 0.031 -0.002 -0.461 -0.598 0.145 0.153 0.055 -0.935 0.031 0.019 0.92 -1.609 1.922 -1.79 2.653 -1.415 3.165 -0.73 2.824 0.196 2.002 0.914 1.097 1.148 0.893 2.163 0.019 2.937 -0.916 2.935 -1.735 2.76 -2.16 2.04 -2.908 1.545 -4.187 0.803 1.058 2.336 -0.001 -0.104 0.033 -0.193 0.525 -1.603 -0.215 -0.277 -1.683 0.108 -0.236 0.016 -0.142 0.014 1.058 2.336 4.743 -0.548 3.718 -1.975 2.732 -2.58 2.146 -3.413 1.171 -3.754 -0.027 -3.989 -1.333 -3.223 -1.887 -1.969 -3.024 -1.373 -3.814 -0.251 -3.983 0.955 -3.323 1.859 -2.443 2.508 -1.034 2.441 -0.103 0.723 0.473 1.734 0.346 0.447 1.102 0.578 0.157 0.052 1.45 0.386" />
    <path class="write-flat-pen" fill="#FFFFFF" stroke-width="3" __comx="270.205" __comy="75.391" __timestamp="0x1787eee6a6c" d="M269.967 55.751 l-0.677 1.1 -0.141 0.407 -0.366 1.539 -0.119 0.802 -0.327 3.876 -0.031 1.234 0.308 17.928 0.843 3.852 0.267 0.297 2.164 1.408 0.219 -0.13 -0.19 -2.574 0.115 0.041 -0.432 -3.202 -0.633 -17.669 -0.054 -1.157 -0.082 -3.792 -0.01 -0.717 -0.001 -1.462 -0.012 -0.216 0.237 -1.121" />
    <path class="write-flat-pen" fill="#FFFFFF" stroke-width="3" __comx="287.11" __comy="75.391" __timestamp="0x1787eee6c7a" d="M289.324 79.146 l0.576 -1.193 0.112 -0.206 0.565 -1.351 0.062 -0.286 -0.179 -2.517 -0.514 -0.697 -1.659 -1.184 -2.514 -0.071 -2.602 1.384 -2.217 2.627 -1.425 3.504 -0.342 3.723 1.012 2.694 2.056 1.494 2.733 -0.206 2.51 -1.904 3.123 -5.774 0.516 -0.3 -2.156 -0.762 2.577 6.163 0.56 0.289 2.738 0.745 0.178 -0.239 -1.503 -2.407 0.165 -0.005 -1.912 -5.614 -2.156 -0.762 -1.245 0.724 -3.215 5.946 -1.288 0.978 -0.755 0.058 -0.44 -0.318 -0.457 -1.21 0.232 -2.603 1.067 -2.672 1.533 -1.871 1.434 -0.828 0.967 -0.052 0.716 0.375 -0.115 -0.186 0.434 1.45 0.034 -0.135 -0.126 1.328 -0.019 0.19 -0.212 1.32" />
    <path class="write-flat-pen" fill="#FFFFFF" stroke-width="3" __comx="306.053" __comy="75.391" __timestamp="0x1787eee6e48" d="M299.637 72.943 l-1.004 0.907 -0.159 0.38 -0.444 1.809 -0.046 0.586 0.333 4.661 0.073 0.431 0.807 2.79 2.689 0.487 2.074 -6.852 1.672 -3.136 0.894 -0.745 0.796 -0.15 1.123 0.568 1.316 2.031 1.654 7.652 1.24 2.708 0.097 0.002 1.37 -2.942 -1.529 -8.567 -2.073 -3.196 -2.756 -1.392 -2.561 0.488 -1.939 1.621 -2.078 3.926 -1.34 4.745 1.469 0.29 -0.398 -0.979 -0.047 -0.18 -0.719 -4.364 -0.026 -0.316 0.026 -1.593 -0.048 0.037 0.493 -0.924" />
    <path class="write-flat-pen" fill="#FFFFFF" stroke-width="3" __comx="327.592" __comy="75.439" __timestamp="0x1787eee75e7" d="M316.836 70.93 l-1.067 0.118 -0.182 0.548 -0.184 1.04 0.023 0.442 0.258 2.425 0.127 0.668 1.173 6.592 0.054 0.209 0 0 0.439 1.07 0 0 2.681 -0.166 1.72 -5.413 1.983 -3.644 2.238 -2.361 2.137 -1.268 2.099 -0.41 0.956 0.351 1.036 1.239 0.753 2.447 -0.362 10.102 1.384 2.907 2.304 -0.886 0.553 -0.475 0.405 -0.456 0.386 -0.511 0.333 -0.548 1.701 -2.828 -0.126 -0.124 -2.791 1.76 -0.498 0.301 -0.456 0.249 -0.407 0.199 -0.248 0.072 0.414 -0.286 0.071 0.025 0.355 -9.9 -1.08 -3.51 -1.939 -2.318 -2.495 -0.916 -3.43 0.671 -2.941 1.747 -2.794 2.952 -2.306 4.257 -1.696 5.734 2.681 -0.166 0 0 -0.414 -0.836 0 0 0.019 0.079 -1.586 -6.467 -0.189 -0.628 -0.625 -2.268 -0.091 -0.262 -0.189 -0.715 -0.128 0.335 0.224 -0.289" />
    <path class="write-flat-pen" fill="#FFFFFF" stroke-width="3" __comx="345.813" __comy="75.439" __timestamp="0x1787eee78af" d="M345.615 72.788 l-0.593 1.201 -0.078 0.315 -0.315 1.984 -0.043 0.556 0.196 7.355 -0.176 0.103 0.408 1.945 1.895 -0.332 0.091 -9.061 -0.027 -0.483 -0.098 -1.889 -0.028 -0.074 0.192 -1.143" />
    <path class="write-flat-pen" fill="#FFFFFF" stroke-width="3" __comx="348.9" __comy="75.439" __timestamp="0x1787eee795a" d="M349.443 67.967 l0.133 -1.579 0.368 -1.749 -0.359 -0.231 -1.686 1.442 -0.045 2.039" />
    <path class="write-flat-pen" fill="#FFFFFF" stroke-width="3" __comx="361.315" __comy="75.439" __timestamp="0x1787eee7b23" d="M354.685 71.383 l-0.214 1.915 -0.021 0.413 -0.015 2.948 0.001 0.728 0.069 5.613 0.001 0.58 0 0 0.212 3.169 0 0 2.746 0.014 0.976 -7.636 1.218 -4.486 1.33 -2.473 0.756 -0.609 0.308 -0.024 0.71 0.478 1.176 2.122 1.619 10.758 1.415 3.242 0.289 -0.021 0.934 -3.492 -1.36 -11.446 -1.802 -3.248 -2.178 -1.464 -2.274 0.183 -1.946 1.573 -1.775 3.313 -1.343 5.039 -0.799 7.878 2.746 0.014 0 0 -0.435 -3.052 0 0 -0.031 -0.511 -0.495 -5.619 -0.075 -0.737 -0.382 -2.915 -0.052 -0.358 -0.199 -1.884" />
    <path class="write-flat-pen" fill="#FFFFFF" stroke-width="3" __comx="378.677" __comy="77.49" __timestamp="0x1787eee7d96" d="M380.355 77.725 l0.595 -1.969 0.084 -0.24 0.599 -3.116 -0.147 -0.747 -1.307 -2.2 -2.155 -0.796 -2.44 0.894 -2.178 2.79 -1.52 4.252 -0.366 4.145 1.117 2.256 2.25 0.786 2.371 -1.114 0 0 2.307 -2.897 0 0 1.625 -3.822 0 0 -2.777 -0.517 0.523 19.534 -0.383 7.627 -0.533 1.383 -0.643 0.44 -1.264 0.003 -2.299 -0.938 -1.366 -1.28 -0.038 -0.429 0.953 -1.414 6.784 -3.984 0.963 -0.46 1.089 -0.528 1.042 -0.502 1.058 -0.548 3.724 -1.905 -0.083 -0.25 -4.123 0.706 -1.183 0.197 -1.161 0.253 -1.208 0.313 -1.211 0.366 -7.774 4.066 -1.951 2.893 0.23 2.63 2.607 2.443 3.36 1.371 2.781 -0.006 2.175 -1.49 1.041 -2.701 0.411 -8.226 -0.633 -19.65 -2.777 -0.517 0 0 -1.44 3.47 0 0 -1.649 2.058 0 0 -0.709 0.33 -0.047 -0.013 -0.254 -0.492 0.231 -2.995 1.21 -3.513 1.399 -1.867 0.801 -0.343 0.441 0.109 0.751 1.01 0.005 -0.067 -0.113 2.653 -0.021 0.183 -0.21 2.091" />
    <path class="write-stroke-pen" fill="none" stroke="#FFFFFF" stroke-width="1.6" stroke-linecap="round" stroke-linejoin="round" __comx="227.846" __comy="97.189" __timestamp="0x1787eef04d5" d="M46.394 99.695 l362.903 -4.479" />
    <path class="write-flat-pen" fill="#FFFFFF" stroke-width="3" __comx="63.092" __comy="192.801" __timestamp="0x1787f04810d" d="M61.313 171.413 l-0.176 1.797 -0.031 0.336 -0.017 2.131 0.011 0.812 0.314 8.324 0.057 1.444 0.705 15.656 1.027 4.98 1.66 -0.132 0.232 -5.026 -0.631 -15.602 -0.06 -1.445 -0.411 -8.313 -0.046 -0.805 -0.182 -2.076 -0.031 -0.284 -0.176 -1.797" />
    <path class="write-flat-pen" fill="#FFFFFF" stroke-width="3" __comx="64.156" __comy="192.801" __timestamp="0x1787f04820e" d="M46.503 172.12 l-1.552 2.566 1.363 0.401 0.646 0.134 16.015 1.644 2.458 0.062 11.082 -0.073 1.214 -0.055 1.101 -0.094 4.513 -0.665 0.018 -1.097 -4.488 -0.816 -1.132 -0.132 -1.241 -0.036 -11.033 -0.02 -2.307 -0.058 -15.8 -1.505 -0.51 -0.078 -1.387 -0.153 1.04 2.566" />
    <path class="write-flat-pen" fill="#FFFFFF" stroke-width="3" __comx="63.562" __comy="192.801" __timestamp="0x1787f048333" d="M48.666 206.143 l1.685 -0.25 0.078 0.008 6.44 0.289 2.149 0.102 11.907 0.023 1.322 -0.118 1.194 -0.143 1.192 -0.223 4.368 -1.15 -0.078 -0.97 -4.496 -0.434 -1.206 -0.029 -1.188 0.04 -1.207 0.063 -11.731 -0.058 -2.096 -0.098 -6.58 -0.218 -0.426 0.031 -1.869 0.475" />
    <path class="write-flat-pen" fill="#FFFFFF" stroke-width="3" __comx="92.566" __comy="192.801" __timestamp="0x1787f04854b" d="M81.757 200.761 l-1.424 -2.177 -0.097 -0.124 -1.743 1.647 0.014 0.151 1.215 8.331 0.064 0.346 0 0 0.571 1.262 0 0 2.735 -0.003 4.241 -9.439 1.43 -1.949 -0.348 0.078 0.168 0.19 1.105 4.718 1.803 2.354 2.723 -0.452 5.294 -5.76 0.956 -0.58 0.045 0.014 2.087 4.574 0.245 0.513 0.246 0.418 2.747 3.483 0.809 -0.387 -0.989 -4.324 -0.148 -0.404 -0.194 -0.502 -2.622 -5.827 -2.619 -0.83 -2.484 1.508 -4.883 5.313 0.074 -0.012 -0.315 -0.411 -1.13 -4.825 -1.839 -2.085 -2.481 0.552 -2.285 3.114 -4.371 9.728 2.735 -0.003 0 0 -0.42 -0.929 0 0 0.011 0.062 -1.283 -8.281 -0.034 -0.159 -1.743 1.647 0.14 -0.073 -0.569 0.389" />
    <path class="write-flat-pen" fill="#FFFFFF" stroke-width="3" __comx="117.287" __comy="201.772" __timestamp="0x1787f0486e7" d="M114.334 224.232 l-0.554 -2.612 0.009 -0.38 0.389 -11.539 0.072 -1.298 0.802 -6.845 0.98 -2.994 0.361 -0.323 0.347 -0.008 1.594 1.171 1.719 2.568 0.571 2.012 -0.227 1.137 -0.591 0.722 -5.2 1.657 1.667 2.264 -0.158 0.182 -0.151 0.023 0.715 -1.437 -0.671 -0.998 -1.6 0.12 -0.377 0.176 -0.198 0.239 1.667 2.264 6.061 -1.899 1.631 -1.992 0.515 -2.581 -0.898 -3.164 -2.276 -3.399 -2.841 -2.087 -2.475 0.056 -1.787 1.598 -1.324 4.045 -0.846 7.235 -0.079 1.428 -0.313 11.627 0.012 0.788 0.853 2.907" />
    <path class="write-flat-pen" fill="#FFFFFF" stroke-width="3" __comx="132.448" __comy="201.772" __timestamp="0x1787f048851" d="M132.813 204.141 l-0.375 -3.284 -0.01 -0.178 -0.075 -2.964 -1.395 -0.652 0 0 -2.029 0.819 -1.446 3.741 -0.729 5.184 0.475 2.69 1.586 2.163 2.825 0.669 3.001 -1.428 2.236 -2.936 1.263 -3.725 -0.008 -3.4 -1.323 -2.02 -2.279 -0.481 -1.828 1.412 -0.329 0.673 -0.089 0.435 0.13 3.04 0.705 0.224 1.862 -2.406 0.102 -0.164 -0.06 0.158 0.23 -0.153 -0.276 -0.058 0.156 0.239 0.005 2.01 -0.945 2.788 -1.498 1.967 -1.391 0.662 -0.723 -0.171 -0.52 -0.709 -0.271 -1.534 0.615 -4.372 1.32 -3.42 -2.029 0.819 0 0 -0.278 -0.133 0.046 1.177 0.027 0.336 0.54 3.361" />
    <path class="write-flat-pen" fill="#FFFFFF" stroke-width="3" __comx="150.613" __comy="201.772" __timestamp="0x1787f048976" d="M142.182 204.542 l-0.239 2.381 0.025 0.198 0.037 0.235 0.157 0.458 2.706 -0.701 0.012 -0.077 0.927 -8.178 0.098 -0.286 1.317 -2.487 1.726 -1.701 3.944 -1.625 0.513 -0.098 0.748 -0.085 0.812 -0.107 4.319 -1.005 -0.009 -0.731 -4.341 -0.903 -0.873 -0.087 -0.954 0.006 -1.006 0.133 -4.834 1.947 -2.479 2.443 -1.642 3.104 -0.283 0.824 -0.904 8.642 0.005 0.201 2.706 -0.701 -0.064 0.081 0.037 0.235 0.009 0.093 -0.096 -2.135" />
    <path class="write-flat-pen" fill="#FFFFFF" stroke-width="3" __comx="167.553" __comy="201.772" __timestamp="0x1787f048a6d" d="M163.506 181.069 l0.631 2.14 0.151 0.449 1.263 4.429 0.297 1.217 2.968 21.264 1.847 3.005 0.612 -0.146 0.325 -3.382 -2.908 -21.298 -0.379 -1.441 -1.527 -4.546 -0.237 -0.501 -0.93 -1.991" />
    <path class="write-flat-pen" fill="#FFFFFF" stroke-width="3" __comx="166.84" __comy="201.772" __timestamp="0x1787f048b26" d="M156.547 199.455 l4.717 2.002 1.058 0.344 7.876 1.151 1.361 0.001 1.173 -0.095 4.37 -0.658 0.03 -0.726 -4.302 -1.013 -1.144 -0.19 -1.195 -0.135 -7.482 -1.232 -0.731 -0.233 -4.672 -1.819" />
    <path class="write-flat-pen" fill="#FFFFFF" stroke-width="3" __comx="186.713" __comy="201.772" __timestamp="0x1787f048cea" d="M186.085 202.478 l1.335 -1.197 0.255 -0.288 0.818 -1.188 0.236 -0.665 -0.103 -2.571 -0.457 -0.772 -1.787 -1.283 -2.532 0.854 -2.26 3.231 -1.436 4.735 -0.043 3.81 1.694 2.276 3.001 -0.373 2.249 -2.313 2.035 -3.816 0.271 -0.12 -2.046 -0.943 1.666 5.54 0.335 0.56 0.206 0.264 3.077 2.812 0.716 -0.475 -1.392 -3.929 -0.104 -0.204 -0.089 -0.194 -1.541 -5.23 -2.046 -0.943 -1.215 0.539 -2.321 4.352 -1.218 1.252 -0.222 0.028 -0.046 -0.062 0.027 -2.37 1.173 -3.871 1.421 -2.041 0.163 -0.064 0.06 0.021 -0.211 -0.361 0.192 1.337 0.048 -0.068 -0.358 0.999 -0.033 0.132 -0.903 1.404" />
    <path class="write-flat-pen" fill="#FFFFFF" stroke-width="3" __comx="206.418" __comy="201.772" __timestamp="0x1787f048e4f" d="M198.504 198.549 l-1.006 3.29 -0.011 0.607 0 0 0.461 3.61 0 0 1.179 0.915 0 0 2.321 -0.698 2.117 -6.1 1.499 -2.441 0.784 -0.462 0.705 0.075 1.28 0.979 1.871 2.805 2.114 5.389 2.116 4.383 1.415 -0.43 -0.714 -4.928 -2.254 -5.807 -2.329 -3.491 -2.345 -1.793 -2.528 -0.268 -2.281 1.344 -2.061 3.355 -2.216 6.412 2.321 -0.698 0 0 -0.216 -0.151 0 0 -0.313 -2.179 0 0 -0.005 -0.02 0.714 -2.979" />
    <path class="write-flat-pen" fill="#FFFFFF" stroke-width="3" __comx="227.333" __comy="201.772" __timestamp="0x1787f048f95" d="M226.405 198.617 l1.389 -1.541 0.165 -0.187 1.031 -1.573 0.152 -0.591 -0.284 -1.948 -2.038 -1.431 -2.724 0.535 -2.389 2.267 -1.737 3.791 -0.384 3.454 0.868 3.072 2.335 2.423 3.488 1.086 4.232 -0.693 0.87 -0.419 0.608 -0.42 3.097 -2.841 -0.309 -0.572 -4.074 1.031 -0.576 0.22 -0.444 0.15 -3.18 0.473 -2.086 -0.649 -1.278 -1.327 -0.504 -1.783 0.266 -2.392 1.294 -2.827 1.338 -1.275 0.636 -0.135 -0.001 -0.024 0.063 0.127 0.094 -0.358 -0.536 1.198 -0.034 0.074 -1.099 1.771" />
    <path class="write-flat-pen" fill="#FFFFFF" stroke-width="3" __comx="245.793" __comy="201.772" __timestamp="0x1787f049106" d="M238.561 202.384 l2.422 0.247 0.426 0.027 6.089 -1.034 0.754 -0.464 1.85 -2.025 0.703 -2.425 -0.565 -2.524 -1.673 -1.91 -2.48 -0.756 -2.988 1.262 -1.944 2.177 -1.435 3.466 -0.253 3.949 1.129 3.278 1.797 2.137 4.268 1.814 1.202 0.113 1.114 -0.133 4.046 -0.987 -0.01 -0.768 -4.071 -0.88 -0.914 -0.106 -0.579 -0.116 -3.217 -1.411 -0.981 -1.167 -0.752 -2.182 0.183 -2.853 1.05 -2.536 1.156 -1.294 1.365 -0.577 0.621 0.189 0.606 0.692 0.231 1.029 -0.293 1.02 -1.091 1.209 0.083 -0.049 -5.209 1.014 -0.107 0.007 -2.421 0.028" />
    <path class="write-flat-pen" fill="#FFFFFF" stroke-width="3" __comx="275.187" __comy="168.548" __timestamp="0x1787f0492f7" d="M265.558 171.675 l1.907 -1.833 0.202 -0.167 1.956 -1.521 0.374 -0.251 2.756 -1.306 3.519 -0.719 3.099 0.194 2.12 0.785 1.281 1.229 0.778 2.03 -0.24 3.067 -3.881 10.116 0.229 0.841 1.724 3.012 0.8 -0.177 0.295 -3.458 0.046 0.015 3.743 -9.678 0.327 -4.179 -1.261 -3.289 -2.215 -2.125 -3.119 -1.154 -3.938 -0.245 -4.271 0.881 -3.289 1.603 -0.665 0.475 -2.021 1.811 -0.29 0.315 -1.743 2.067" />
    <path class="write-flat-pen" fill="#FFFFFF" stroke-width="3" __comx="289.669" __comy="206.082" __timestamp="0x1787f049383" d="M288.72 205.445 l-0.801 1.841 1.637 2.009 1.23 -1.066 -0.312 -1.333 -1.576 -0.408 1.637 2.009 0.885 -1.802" />
    <path class="write-flat-pen" fill="#FFFFFF" stroke-width="3" __comx="104.311" __comy="289.585" __timestamp="0x1787f049d94" d="M103.153 274.573 l-0.193 -1.196 0.09 -0.296 -2.571 0.658 0 0.098 0.384 1.596 0.202 0.722 3.96 18.969 2.275 4.156 0.891 -0.266 -0.337 -4.605 -3.931 -18.979 -0.267 -0.841 -0.582 -1.58 -0.071 -0.113 -2.571 0.658 0.187 0.246 0.186 1.153" />
    <path class="write-flat-pen" fill="#FFFFFF" stroke-width="3" __comx="121.564" __comy="289.585" __timestamp="0x1787f049f22" d="M113.111 268.402 l1.609 -0.365 -0.342 -0.172 4.378 3.353 3.671 3.973 3.18 4.828 1.503 3.734 0.644 4.028 -0.254 3.898 -1.595 4.957 -4.174 5.437 -0.592 0.527 -0.613 0.544 -3.156 3.362 0.689 0.926 4.128 -2.054 0.765 -0.48 0.937 -0.752 4.711 -6.094 1.869 -5.808 0.3 -4.605 -0.751 -4.694 -1.741 -4.326 -3.481 -5.285 -4.017 -4.345 -4.808 -3.639 -0.925 -0.475 -2.69 0.84" />
    <path class="write-flat-pen" fill="#FFFFFF" stroke-width="3" __comx="166.127" __comy="289.585" __timestamp="0x1787f04a568" d="M165.742 277.718 l0.269 -1.396 -0.33 0.654 -0.441 0.223 -0.604 -0.551 0.933 4.457 0.024 0.791 -0.639 13.786 -0.003 0.539 0.022 0.4 0.592 4.602 0.733 0.051 1.224 -4.476 0.078 -0.396 0.071 -0.557 0.839 -13.924 -0.047 -1.201 -1.373 -5.467 -0.938 -0.872 -1.962 0.436 -0.448 0.871 0.123 1.948" />
    <path class="write-flat-pen" fill="#FFFFFF" stroke-width="3" __comx="174.135" __comy="289.585" __timestamp="0x1787f04a770" d="M164.937 279.067 l-0.19 -3.278 -0.068 0.174 1.902 -2.188 3.247 -2.241 3.381 -1.375 2.486 -0.257 0.993 0.409 0.615 0.796 0.193 1.519 -0.527 1.906 -1.598 2.33 -5.451 3.415 0 0 -0.315 2.275 3.42 3.784 5.436 10.934 1.782 2.06 2.563 0.599 0.644 -0.156 2.889 -1.647 -0.093 -0.55 -3.27 -0.608 -0.06 -0.038 -1.031 -0.285 -0.909 -1.051 -5.451 -10.964 -3.698 -4.09 -0.315 2.275 0 0 5.97 -3.758 2.219 -3.26 0.809 -2.961 -0.376 -2.908 -1.594 -2.056 -2.415 -0.991 -3.648 0.386 -4.067 1.679 -3.793 2.69 -2.31 2.83 -0.381 0.859 0.558 3.994" />
    <path class="write-flat-pen" fill="#FFFFFF" stroke-width="3" __comx="195.948" __comy="289.585" __timestamp="0x1787f04a911" d="M187.551 290.241 l1.265 1.448 0.592 0.261 3.875 0.543 0.926 -0.134 3.197 -1.025 2.546 -1.847 1.246 -2.221 -0.433 -2.404 -2.187 -1.303 -2.724 0.523 -2.452 2.092 -1.785 2.933 -1.01 3.992 0.617 3.381 1.749 1.992 2.443 0.758 3.838 -0.901 0.789 -0.419 1.082 -0.75 0.461 -0.42 2.76 -3.109 -0.271 -0.395 -3.894 1.456 -0.484 0.228 -1.01 0.486 -0.404 0.17 -2.739 0.564 -0.876 -0.277 -0.646 -0.736 -0.352 -1.925 0.738 -2.925 1.299 -2.141 1.486 -1.273 0.836 -0.164 0.052 0.027 0.009 0.024 -0.403 0.737 -1.636 1.215 -2.515 0.853 -0.317 0.056 -3.172 -0.23 0.183 0.097 -1.151 -0.849" />
    <path class="write-flat-pen" fill="#FFFFFF" stroke-width="3" __comx="219.61" __comy="289.585" __timestamp="0x1787f04ab12" d="M207.039 285.792 l-0.8 2.701 -0.057 0.563 0.313 4.444 0.085 0.592 0.717 2.975 2.076 2.003 2.338 -1.863 2.362 -7.337 0.956 -1.185 0 0 -2.597 -0.487 1.683 5.293 1.826 2.291 3.043 0.003 6.322 -5.984 0.777 -0.314 -0.023 -0.012 2.54 6.849 3.395 2.766 1.042 -0.881 -1.825 -3.408 -2.735 -7.44 -2.222 -1.179 -2.599 1.05 -5.866 5.552 -0.403 0 -0.582 -0.73 -1.515 -4.765 -2.597 -0.487 0 0 -1.306 1.619 -2.255 7.006 0.424 -0.337 0.436 0.424 -0.499 -1.995 -0.058 -0.368 -0.441 -4.112 -0.006 -0.112 0.468 -2.551" />
    <path class="write-flat-pen" fill="#FFFFFF" stroke-width="3" __comx="240.617" __comy="289.585" __timestamp="0x1787f04abc1" d="M238.338 292.065 l-0.488 3.796 2.324 2.626 3.14 -0.653 0.07 -1.029 -1.854 -0.992 -0.629 -0.876 0.225 -2.558" />
    <path class="write-flat-pen" fill="#FFFFFF" stroke-width="3" __comx="245.417" __comy="289.585" __timestamp="0x1787f04ac4c" d="M247.163 280.256 l-2.195 0.064 -0.725 0.277 -0.805 1.71 2.205 1.272 0.943 -0.894 0.159 -0.885 -0.466 1.016 -0.665 0.254 1.782 -0.306" />
    <path class="write-flat-pen" fill="#FFFFFF" stroke-width="3" __comx="258.204" __comy="289.585" __timestamp="0x1787f04adb4" d="M250.948 286.643 l-0.415 2.857 -0.045 0.469 -0.199 3.374 -0.018 0.651 0.252 3.537 1.309 1.243 0 0 2.159 -0.11 1.674 -1.932 2.677 -6.214 1.053 -1.285 -0.564 -0.056 0.436 0.832 0.976 5.878 1.398 2.575 3.485 2.371 1.011 -1.03 -2.111 -3.12 -0.903 -1.769 -0.975 -5.87 -1.41 -2.692 -2.646 -0.262 -2.338 2.855 -2.66 6.177 -1.367 1.585 2.159 -0.11 0 0 -0.48 -0.443 -0.198 -2.248 0 -0.492 0.011 -3.335 -0.003 -0.393 0.094 -2.83" />
    <path class="write-flat-pen" fill="#FFFFFF" stroke-width="3" __comx="291.596" __comy="289.585" __timestamp="0x1787f04b00d" d="M283.488 274.51 l-0.316 3.874 0.002 0.654 0.004 12.622 0 0 0 0.655 0 0 0.391 2.795 0 0 2.727 -1.049 -1.463 -2.157 -2.491 -1.587 -2.726 -0.223 -2.749 1.266 -1.758 2.316 -0.298 2.66 1.124 2.773 2.473 2.196 3.563 1.333 3.962 0.363 4.049 -0.885 3.729 -2.212 3.612 -3.696 2.944 -4.473 1.28 -3.638 -0.588 -1.333 0 0 -2.242 -0.617 -1.367 0.973 -1.356 3.552 -0.328 3.91 0.933 3.943 1.758 2.797 4.437 2.685 0.98 0.116 4.394 -0.06 0.213 -1.247 -4.125 -1.514 -0.403 -0.12 -3.331 -2.054 -1.118 -1.779 -0.708 -2.993 0.252 -3.011 0.881 -2.307 0.628 -0.447 -2.242 -0.617 0 0 0.109 0.247 -0.764 2.171 -2.584 3.925 -3.134 3.208 -2.973 1.764 -3.123 0.683 -3.1 -0.284 -2.663 -0.996 -1.531 -1.359 -0.575 -1.418 0.121 -1.083 0.805 -1.061 1.354 -0.625 1.203 0.096 1.341 0.854 1.111 1.646 2.727 -1.049 0 0 -0.363 -2.589 0 0 -0.001 -0.451 0 0 -0.092 -12.644 -0.017 -0.569 0.101 -3.784" />
    <path class="write-flat-pen" fill="#FFFFFF" stroke-width="3" __comx="319.247" __comy="289.585" __timestamp="0x1787f04b137" d="M311.089 296.654 l-1.491 3.059 -0.092 0.409 0 0 0.047 0.892 0 0 2.764 0.559 5.036 -9.392 1.568 -1.822 1.697 -0.891 1.819 -0.132 2.156 0.838 0.171 0.071 3.977 1.08 0.247 -0.391 -2.689 -3.124 -0.361 -0.264 -3.025 -1.253 -3.137 0.228 -2.756 1.448 -2.158 2.507 -5.142 9.713 2.764 0.559 0 0 -0.074 -0.446 0 0 -0.07 0.308 1.151 -2.889" />
    <path class="write-flat-pen" fill="#FFFFFF" stroke-width="3" __comx="333.445" __comy="289.585" __timestamp="0x1787f04b2c3" d="M339.697 291.095 l-0.179 -2.086 -0.152 -0.595 -2.418 -2.667 -1.167 -0.172 -2.125 0.685 -1.841 2.46 -0.447 3.053 0.898 2.936 2.418 3.286 0.073 0.399 -0.139 0.148 -3.246 0.521 -4.178 0.978 0.019 1.17 4.419 0.835 4.471 -0.702 1.878 -2.003 -0.474 -2.568 -2.528 -3.429 -0.554 -1.804 0.239 -1.636 0.816 -1.094 0.557 -0.184 -0.548 -0.082 1.322 1.31 -0.058 -0.258 0.404 1.874" />
  </g>
</svg>
