<svg class="write-page" width="1010px" height="1628px" xmlns="http://www.w3.org/2000/svg" xmlns:xlink="http://www.w3.org/1999/xlink">
  <g class="write-content write-v3" width="1010" height="1628" xruling="30" yruling="30" marginLeft="30" papercolor="#1B1C1C" rulecolor="#3A00F9FF">
    <g class="ruleline write-std-ruling write-scale-down" fill="none" stroke="#00F9FF" stroke-opacity="0.227" stroke-width="1" shape-rendering="crispEdges" vector-effect="non-scaling-stroke">
      <rect class="pagerect" fill="#1B1C1C" stroke="none" x="0" y="0" width="1010" height="1628" />
      <path class="yrule_1" d="M0 30 l1010 0" />
      <path d="M0 60 l1010 0" />
      <path d="M0 90 l1010 0" />
      <path d="M0 120 l1010 0" />
      <path d="M0 150 l1010 0" />
      <path d="M0 180 l1010 0" />
      <path d="M0 210 l1010 0" />
      <path d="M0 240 l1010 0" />
      <path d="M0 270 l1010 0" />
      <path d="M0 300 l1010 0" />
      <path d="M0 330 l1010 0" />
      <path d="M0 360 l1010 0" />
      <path d="M0 390 l1010 0" />
      <path d="M0 420 l1010 0" />
      <path d="M0 450 l1010 0" />
      <path d="M0 480 l1010 0" />
      <path d="M0 510 l1010 0" />
      <path d="M0 540 l1010 0" />
      <path d="M0 570 l1010 0" />
      <path d="M0 600 l1010 0" />
      <path d="M0 630 l1010 0" />
      <path d="M0 660 l1010 0" />
      <path d="M0 690 l1010 0" />
      <path d="M0 720 l1010 0" />
      <path d="M0 750 l1010 0" />
      <path d="M0 780 l1010 0" />
      <path d="M0 810 l1010 0" />
      <path d="M0 840 l1010 0" />
      <path d="M0 870 l1010 0" />
      <path d="M0 900 l1010 0" />
      <path d="M0 930 l1010 0" />
      <path d="M0 960 l1010 0" />
      <path d="M0 990 l1010 0" />
      <path d="M0 1020 l1010 0" />
      <path d="M0 1050 l1010 0" />
      <path d="M0 1080 l1010 0" />
      <path d="M0 1110 l1010 0" />
      <path d="M0 1140 l1010 0" />
      <path d="M0 1170 l1010 0" />
      <path d="M0 1200 l1010 0" />
      <path d="M0 1230 l1010 0" />
      <path d="M0 1260 l1010 0" />
      <path d="M0 1290 l1010 0" />
      <path d="M0 1320 l1010 0" />
      <path d="M0 1350 l1010 0" />
      <path d="M0 1380 l1010 0" />
      <path d="M0 1410 l1010 0" />
      <path d="M0 1440 l1010 0" />
      <path d="M0 1470 l1010 0" />
      <path d="M0 1500 l1010 0" />
      <path d="M0 1530 l1010 0" />
      <path d="M0 1560 l1010 0" />
      <path d="M0 1590 l1010 0" />
      <path d="M0 1620 l1010 0" />
      <path class="xrule_1" d="M30 0 l0 1628" />
      <path d="M60 0 l0 1628" />
      <path d="M90 0 l0 1628" />
      <path d="M120 0 l0 1628" />
      <path d="M150 0 l0 1628" />
      <path d="M180 0 l0 1628" />
      <path d="M210 0 l0 1628" />
      <path d="M240 0 l0 1628" />
      <path d="M270 0 l0 1628" />
      <path d="M300 0 l0 1628" />
      <path d="M330 0 l0 1628" />
      <path d="M360 0 l0 1628" />
      <path d="M390 0 l0 1628" />
      <path d="M420 0 l0 1628" />
      <path d="M450 0 l0 1628" />
      <path d="M480 0 l0 1628" />
      <path d="M510 0 l0 1628" />
      <path d="M540 0 l0 1628" />
      <path d="M570 0 l0 1628" />
      <path d="M600 0 l0 1628" />
      <path d="M630 0 l0 1628" />
      <path d="M660 0 l0 1628" />
      <path d="M690 0 l0 1628" />
      <path d="M720 0 l0 1628" />
      <path d="M750 0 l0 1628" />
      <path d="M780 0 l0 1628" />
      <path d="M810 0 l0 1628" />
      <path d="M840 0 l0 1628" />
      <path d="M870 0 l0 1628" />
      <path d="M900 0 l0 1628" />
      <path d="M930 0 l0 1628" />
      <path d="M960 0 l0 1628" />
      <path d="M990 0 l0 1628" />
      <path class="leftmargin" stroke="#FF0000" d="M30 0 l0 1628" />
    </g>
    <path class="write-flat-pen" fill="#FFFFFF" stroke-width="1.6" __comx="74.395" __comy="48.795" __timestamp="0x178b363e078" d="M74.64 46.518 l0.375 -0.852 -0.148 0.081 0.593 0.604 -0.023 -0.039 -0.09 0.818 -0.278 0.228 -0.402 -0.127 -0.623 -0.761 -0.236 -0.903 0.082 -0.115 0.552 -0.062 0.18 0.137 -0.017 0.06 -0.404 0.3 0 0 0.954 0.683 0.012 -0.392 -0.034 -0.033 1 -1.114 -0.058 -0.09 -1.429 0.447 -0.306 0.142 -0.344 0.642 0.954 0.683 0 0 0.814 -0.645 0.082 -1.265 -1.101 -0.757 -1.511 0.178 -0.677 0.995 0.477 1.654 1.06 1.176 1.307 0.26 0.833 -0.947 -0.014 -1.302 -0.116 -0.317 -1.177 -0.694 -0.296 0.147 -0.178 1.13" />
    <path class="write-flat-pen" fill="#FFFFFF" stroke-width="1.6" __comx="97.524" __comy="48.795" __timestamp="0x178b363e26e" d="M99.578 39.952 l0.514 -1.34 0.022 -0.116 -0.083 -1.247 -0.131 -0.268 -1.415 -1.249 -0.503 -0.198 -1.896 -0.326 -2.246 0.591 -1.73 1.351 -1.537 2.165 -1.162 2.766 -0.588 3.2 0.012 3.258 0.735 4.273 1.188 3.495 1.322 2.086 1.762 1.482 2.107 0.815 2.355 0.057 4.304 -1.927 0.633 -0.526 1.028 -1.073 0.422 -0.57 1.536 -2.082 -0.063 -0.057 -1.913 1.743 -0.498 0.45 -1.113 0.857 -0.547 0.353 -4.027 1.529 -1.843 -0.087 -1.674 -0.668 -1.421 -1.208 -1.12 -1.771 -1.1 -3.237 -0.691 -4.052 -0.004 -3.013 0.542 -2.925 1.036 -2.494 1.318 -1.895 1.345 -1.09 1.715 -0.515 1.537 0.165 0.242 0.067 1.291 0.83 0.005 -0.022 0.311 0.982 0.007 -0.004 -0.24 1.377" />
    <path class="write-flat-pen" fill="#FFFFFF" stroke-width="1.6" __comx="112.861" __comy="48.795" __timestamp="0x178b363e465" d="M105.631 35.665 l0.027 1.749 0.059 0.464 1.603 7.845 0.176 0.966 0 0 1.036 9.961 0 0 0.533 0.789 0 0 1.155 -0.196 1.402 -5.261 1.606 -3.945 1.226 -1.828 0.86 -0.501 0.496 0.107 0.657 0.855 0.613 2.365 0.515 7.646 0.754 1.516 0.633 -0.005 0.397 -0.395 0.711 -0.969 -0.029 -0.038 -1.093 0.418 -0.229 0 0.349 -0.027 -0.204 -0.803 -0.548 -7.551 -0.724 -2.721 -1.093 -1.414 -1.412 -0.305 -1.529 0.884 -1.462 2.172 -1.691 4.134 -1.45 5.33 1.155 -0.196 0 0 -0.36 -0.52 0 0 -1.129 -9.676 0 0 -0.206 -1.024 -1.867 -7.778 -0.082 -0.405 -0.285 -1.696" />
    <path class="write-flat-pen" fill="#FFFFFF" stroke-width="1.6" __comx="126.856" __comy="48.795" __timestamp="0x178b363e643" d="M128.959 46.47 l-2.21 0.224 -0.365 0.111 -1.969 0.909 -1.57 1.492 -1.047 2.205 -0.45 2.464 0.27 1.907 0.946 1.191 1.318 0.432 1.644 -0.351 1.624 -1.064 1.653 -1.969 1.148 -2.266 0 0 0.346 -2.14 0 0 -1.14 -0.296 -0.657 1.696 -0.262 3.031 0.471 1.653 1.14 0.949 0.299 0.09 0.286 0.014 1.92 0.045 0.009 -0.04 -1.739 -0.815 -0.187 -0.097 -0.025 -0.046 -0.596 -0.756 -0.306 -1.12 0.209 -2.638 0.547 -1.556 -1.14 -0.296 0 0 -0.288 1.963 0 0 -1.009 1.976 -1.475 1.709 -1.301 0.818 -1.099 0.216 -0.644 -0.216 -0.503 -0.633 -0.203 -1.373 0.357 -2.12 0.843 -1.894 1.244 -1.271 1.709 -0.887 0.224 -0.083 2.09 -0.486" />
    <path class="write-flat-pen" fill="#FFFFFF" stroke-width="1.6" __comx="138.176" __comy="48.795" __timestamp="0x178b363e72b" d="M136.941 48.876 l-0.13 2.139 0.039 0.48 0.883 4.989 0.902 1.246 0.373 -0.167 0.533 -0.455 -0.01 -0.035 -0.693 -0.106 0.136 -0.099 -0.302 -0.747 -1.041 -4.749 -0.065 -0.401 -0.128 -2.094" />
    <path class="write-flat-pen" fill="#FFFFFF" stroke-width="1.6" __comx="138.278" __comy="48.795" __timestamp="0x178b363e7c2" d="M138.026 39.354 l-0.009 3.819 0.46 2.37 0.06 -0.008 -0.196 -2.38 0.149 -3.79" />
    <path class="write-flat-pen" fill="#FFFFFF" stroke-width="1.6" __comx="149.62" __comy="48.795" __timestamp="0x178b363e91d" d="M146.335 56.276 l-0.366 1.263 0.248 -0.197 -0.358 -0.469 -0.787 -2.821 -0.323 -3.339 0.254 -2.42 0.529 -1.173 0.609 -0.472 0.82 -0.029 1.367 0.729 1.346 1.501 1.398 2.582 2.48 6.222 1.86 1.313 0.063 -0.059 -1.054 -1.797 -2.242 -6.191 -1.538 -2.761 -1.596 -1.74 -1.837 -0.943 -1.482 0.095 -1.071 0.884 -0.669 1.58 -0.221 2.687 0.393 3.516 0.971 3.083 1.029 0.867 0.377 -0.29 0.139 -1.558" />
    <path class="write-flat-pen" fill="#FFFFFF" stroke-width="1.6" __comx="175.52" __comy="48.795" __timestamp="0x178b363ebba" d="M167.109 34.506 l0.93 1.71 0.257 0.529 2.56 6.356 0.299 0.942 1.432 5.553 0 0 0.687 5.201 0 0 -0.048 3.453 0 0 1.202 -0.235 -0.464 -1.103 -0.094 -2.211 0.573 -2.431 1.232 -2.652 1.148 -1.383 0.886 -0.427 0.775 0.135 0.924 0.874 1.297 2.835 1.657 6.709 0.343 0.169 1.192 0.367 0.036 -0.049 -0.707 -1.027 0.04 -0.053 -1.373 -6.522 -1.481 -3.154 -1.367 -1.273 -1.508 -0.26 -1.471 0.703 -1.42 1.703 -1.358 2.904 -0.647 2.713 0.092 2.602 0.542 1.312 1.202 -0.235 0 0 0.008 -3.542 0 0 -0.787 -5.348 0 0 -1.582 -5.616 -0.347 -0.999 -2.83 -6.319 -0.326 -0.557 -1.177 -1.582" />
    <path class="write-flat-pen" fill="#FFFFFF" stroke-width="1.6" __comx="188.989" __comy="48.795" __timestamp="0x178b363ecb9" d="M186.955 35.559 l0.102 4.453 0.082 0.891 2.591 18.508 1.22 1.773 0.074 -0.031 -0.387 -1.993 -2.591 -18.369 -0.109 -0.849 -0.366 -4.414" />
    <path class="write-flat-pen" fill="#FFFFFF" stroke-width="1.6" __comx="188.426" __comy="48.795" __timestamp="0x178b363ed97" d="M181.503 48.803 l1.616 -0.185 0.327 0.008 8.182 0.458 0.555 0.042 0.57 0.031 2.726 0.15 0.009 -0.061 -2.646 -0.671 -0.551 -0.14 -0.573 -0.136 -8.241 -0.671 -0.456 0.015 -1.654 0.463" />
    <path class="write-flat-pen" fill="#FFFFFF" stroke-width="1.6" __comx="200.58" __comy="48.795" __timestamp="0x178b363eea0" d="M195.837 47.255 l2.561 4.264 4.491 4.707 2.399 1.33 0.034 -0.048 -2.003 -1.771 -4.197 -4.771 -2.695 -4.084" />
    <path class="write-flat-pen" fill="#FFFFFF" stroke-width="1.6" __comx="205.419" __comy="52.15" __timestamp="0x178b363ef61" d="M206.631 44.517 l-3.322 25.86 -0.05 1.117 -0.046 1.924 -0.037 2.492 0.047 0.004 0.409 -2.458 0.306 -1.896 0.18 -1.087 3.544 -25.819" />
    <path class="write-flat-pen" fill="#FFFFFF" stroke-width="1.6" __comx="240.637" __comy="52.15" __timestamp="0x178b363f210" d="M241.155 51.46 l0.327 -0.652 -0.102 -0.373 -1.362 -0.957 -0.604 -0.051 -1.792 0.381 -1.777 1.303 -1.286 1.989 -0.6 2.188 0.202 2.263 1.026 1.942 1.426 1.069 1.886 0.528 2.227 -0.262 2.222 -0.913 2.252 -1.624 1.415 -1.714 0.695 -1.768 -0.222 -1.703 -1.256 -1.317 -1.981 -0.689 -1.735 0.421 -0.251 0.261 -0.156 0.322 -0.492 1.506 0.046 0.029 1.138 -1.055 0.182 -0.128 -0.003 0.048 1.159 -0.084 1.362 0.498 0.753 0.782 0.134 0.951 -0.489 1.273 -1.173 1.439 -1.994 1.449 -1.925 0.799 -1.815 0.222 -1.432 -0.394 -1.028 -0.761 -0.792 -1.482 -0.175 -1.806 0.481 -1.81 1.056 -1.672 1.398 -1.072 1.401 -0.375 0.214 -0.006 1.047 0.473 -0.011 -0.105 -0.003 0.519" />
    <path class="write-flat-pen" fill="#FFFFFF" stroke-width="1.6" __comx="259.331" __comy="52.15" __timestamp="0x178b363f361" d="M255.512 58.131 l-0.932 -0.403 -0.02 -0.039 -1.226 -2.083 -0.227 -0.554 -0.903 -2.883 -0.736 -4.487 -0.115 -4.292 0.556 -3.254 0.985 -2.613 1.227 -1.733 1.336 -0.966 1.607 -0.45 2.137 0.153 2.975 1.144 2.672 1.801 0.436 0.37 1.134 1.085 0.295 0.333 0.259 0.328 1.64 2.088 0.038 -0.025 -1.263 -2.336 -0.209 -0.385 -0.27 -0.41 -1.001 -1.284 -0.458 -0.486 -2.709 -2.101 -3.246 -1.363 -2.552 -0.233 -2.066 0.548 -1.723 1.224 -1.466 2.056 -1.088 2.901 -0.586 3.516 0.16 4.515 0.844 4.655 1.058 2.986 0.319 0.668 1.546 2.114 0.261 0.203 1.174 0.184" />
    <path class="write-flat-pen" fill="#FFFFFF" stroke-width="1.6" __comx="255.945" __comy="52.15" __timestamp="0x178b363f41e" d="M248.319 48.26 l1.621 -0.606 8.764 -0.55 0.881 -0.079 1.716 -0.166 2.592 -0.284 -0.002 -0.057 -2.604 -0.101 -1.724 -0.059 -0.891 -0.014 -8.959 0.33 -1.717 0.835" />
    <path class="write-flat-pen" fill="#FFFFFF" stroke-width="1.6" __comx="291.452" __comy="52.15" __timestamp="0x178b363f60c" d="M291.426 49.039 l0.871 -1.357 0.107 -0.248 -0.052 -1.393 -0.368 -0.343 -1.29 -0.327 -1.791 0.597 -1.773 1.585 -1.437 2.33 -0.928 2.731 -0.149 2.595 0.504 1.832 1.085 1.543 1.836 1.083 3.372 0.238 1.014 -0.193 1.866 -0.586 0.882 -0.354 0.845 -0.398 2.27 -1.068 -0.018 -0.047 -2.394 0.749 -0.881 0.274 -0.882 0.243 -1.853 0.356 -0.869 0.082 -2.972 -0.418 -1.353 -0.874 -0.793 -1.17 -0.385 -1.428 0.128 -2.218 0.819 -2.44 1.252 -2.073 1.436 -1.344 1.253 -0.497 0.772 0.083 -0.062 -0.079 0.241 0.853 -0.008 0.068 -0.606 1.448" />
    <path class="write-flat-pen" fill="#FFFFFF" stroke-width="1.6" __comx="305.637" __comy="52.15" __timestamp="0x178b363f7bb" d="M307.949 49.243 l-1.184 -2.1 -0.395 -0.21 -1.371 -0.191 -1.921 0.597 -1.885 1.346 -1.411 1.954 -0.965 2.809 -0.08 2.353 0.702 2.22 1.482 1.599 1.665 0.652 2.165 -0.121 2.251 -0.951 1.924 -1.484 2.008 -2.553 1.228 -2.81 0.376 -2.463 -0.522 -2.052 -1.024 -1.531 -2.18 -0.938 -0.418 0.113 -0.585 0.445 -1.243 1.332 0.029 0.038 1.587 -0.791 0.522 -0.159 -0.032 0.039 1.471 0.877 0.694 1.09 0.387 1.597 -0.314 2.042 -1.083 2.512 -1.799 2.31 -1.665 1.299 -1.9 0.818 -1.686 0.109 -1.166 -0.444 -1.125 -1.192 -0.578 -1.77 0.05 -1.981 0.844 -2.49 1.198 -1.674 1.582 -1.152 1.519 -0.506 0.963 0.094 -0.004 -0.009 1.267 1.722" />
    <path class="write-flat-pen" fill="#FFFFFF" stroke-width="1.6" __comx="322.978" __comy="52.15" __timestamp="0x178b363fa18" d="M314.697 47.408 l-1.105 1.397 -0.151 0.443 -1.95 7.557 0 0 -0.075 0.303 0 0 -0.356 1.245 0 0 1.286 0.395 2.732 -7.854 1.814 -3.676 1.419 -1.873 1.221 -0.825 0.552 -0.003 0.766 0.649 0.644 1.596 0.326 2.454 -0.2 4.645 0.369 0.895 0 0 1.117 0.268 0.95 -0.813 3.602 -6.536 1.842 -2.426 1.346 -1.001 0.721 -0.144 0.752 0.29 0.713 1.016 0.475 1.941 -0.02 4.028 -0.809 6.222 0.306 2.369 0.064 0.007 0.837 -2.219 0.998 -6.276 0.014 -4.298 -0.591 -2.357 -1.108 -1.563 -1.509 -0.582 -1.415 0.28 -1.75 1.303 -2.018 2.66 -3.562 6.375 -0.76 0.638 1.117 0.268 0 0 -0.257 -0.603 0.159 -4.455 -0.378 -2.742 -0.842 -2.065 -1.409 -1.187 -1.462 0.013 -1.745 1.179 -1.632 2.154 -1.913 3.866 -2.747 7.939 1.286 0.395 0 0 0.32 -1.275 0 0 0.072 -0.322 0 0 1.671 -7.589 0.07 -0.279 0.799 -1.426" />
    <path class="write-flat-pen" fill="#FFFFFF" stroke-width="1.6" __comx="343.206" __comy="52.15" __timestamp="0x178b363fbfd" d="M340.007 71.171 l-0.249 -2.734 -0.043 -0.593 -0.391 -4.268 -0.122 -1.044 -0.739 -7.938 -0.002 -4.863 0.478 -2.786 1.011 -2.414 0.828 -0.757 1.086 -0.361 1.668 0.106 1.725 0.734 1.426 1.189 0.794 1.276 0.365 1.628 -0.311 2.03 -0.979 2.189 -1.51 1.885 -1.689 1.25 -1.758 0.661 -0.745 -0.032 -0.232 -0.112 -0.046 0.03 -0.047 -0.465 0.051 -0.359 0.296 -1.808 -0.04 -0.014 -0.886 1.604 -0.207 0.387 -0.208 0.656 0.018 0.476 0.687 0.889 1.566 0.113 2.201 -0.845 1.966 -1.478 1.702 -2.166 1.085 -2.512 0.331 -2.434 -0.493 -2.04 -1.015 -1.594 -1.705 -1.414 -2.067 -0.88 -2.095 -0.135 -1.541 0.511 -1.202 1.103 -1.145 2.781 -0.496 3.016 0.06 5.013 0.921 7.986 0.164 1.046 0.631 4.229 0.087 0.593 0.494 2.708" />
    <path class="write-flat-pen" fill="#FFFFFF" stroke-width="1.6" __comx="351.117" __comy="52.15" __timestamp="0x178b363fcde" d="M350.642 36.493 l-0.642 4.526 -0.076 18.554 0.573 1.224 0.406 0.185 0.31 -0.04 1.093 -0.232 0.004 -0.05 -1.044 -0.399 -0.113 -0.073 0.076 -0.009 -0.195 -0.81 -0.057 -18.292 0.455 -4.49" />
    <path class="write-flat-pen" fill="#FFFFFF" stroke-width="1.6" __comx="362.148" __comy="52.15" __timestamp="0x178b363fe4f" d="M354.938 51.878 l0.331 1.089 0.293 0.258 2.471 0.399 0.506 -0.166 1.804 -1.082 1.38 -1.663 0.51 -1.592 -0.5 -1.279 -1.153 -0.599 -1.446 0.165 -1.996 1.429 -1.674 2.427 -1.169 3.002 -0.166 2.31 0.778 2.208 1.238 1.415 1.833 0.99 2.289 0.477 4.831 -0.838 0.744 -0.326 1.282 -0.779 0.571 -0.436 0.54 -0.478 1.932 -1.71 -0.027 -0.037 -2.216 1.321 -0.603 0.358 -0.582 0.308 -1.303 0.529 -0.613 0.185 -4.512 0.539 -1.859 -0.405 -1.452 -0.777 -0.921 -1.03 -0.627 -1.702 0.106 -1.848 1.008 -2.7 1.454 -2.14 1.565 -1.117 0.757 -0.079 0.4 0.22 0.159 0.433 -0.308 0.938 -1.077 1.34 -1.478 0.977 -0.137 0.06 -1.993 -0.073 0.04 0.051 -0.5 -0.798" />
    <path class="write-flat-pen" fill="#FFFFFF" stroke-width="1.6" __comx="374.72" __comy="52.15" __timestamp="0x178b363ff39" d="M368.349 44.927 l0.437 1.349 0.18 0.361 4.257 5.737 0.471 0.56 4.774 4.244 2.595 1.069 0.029 -0.047 -2.059 -1.769 -4.487 -4.316 -0.416 -0.478 -4.417 -5.49 -0.155 -0.245 -0.647 -1.211" />
    <path class="write-flat-pen" fill="#FFFFFF" stroke-width="1.6" __comx="374.968" __comy="52.15" __timestamp="0x178b363ffe7" d="M370.645 58.475 l0.733 -1.82 0.263 -0.527 6.913 -12.228 0.17 -0.343 0.117 -0.27 1.08 -2.491 -0.04 -0.022 -1.574 2.212 -0.165 0.231 -0.224 0.307 -7.146 12.157 -0.269 0.635 -0.488 1.956" />
    <path class="write-flat-pen" fill="#FFFFFF" stroke-width="1.6" __comx="387.954" __comy="52.15" __timestamp="0x178b3640172" d="M382.127 55.901 l2.178 -1.563 0.245 -0.168 2.3 -1.893 1.198 -1.86 0.241 -1.656 -0.91 -1.144 -1.597 -0.295 -1.717 0.814 -1.592 1.781 -0.927 1.993 -0.111 1.937 0.58 1.496 1.5 1.308 3.617 0.622 0.704 -0.069 1.915 -0.33 0.724 -0.169 1.459 -0.339 2.537 -0.639 -0.007 -0.041 -2.597 0.29 -1.487 0.145 -0.719 0.062 -1.897 0.049 -0.551 -0.01 -3.108 -0.757 -0.99 -0.891 -0.362 -0.937 0.077 -1.407 0.734 -1.595 1.29 -1.437 1.099 -0.508 0.688 0.138 0.236 0.31 -0.115 0.807 -0.902 1.486 -2.015 1.864 -0.212 0.171 -2.025 1.786" />
    <path class="write-flat-pen" fill="#FFFFFF" stroke-width="1.6" __comx="393.988" __comy="52.15" __timestamp="0x178b36402d1" d="M403.277 47.462 l-1.066 -1.055 -0.453 -0.333 -2.107 -1.206 -2.207 -0.545 -1.416 0.366 -0.972 0.924 -0.073 1.179 1.176 1.039 4.573 1.703 1.505 1.002 0.611 0.977 0.206 1.281 -0.398 1.414 -1.075 1.298 -1.943 1.047 -2.899 0.535 -6.011 -0.525 -0.706 -0.096 -1.452 -0.162 -0.707 -0.067 -1.582 -0.216 -2.618 -0.363 -0.009 0.04 2.527 0.78 1.542 0.465 0.697 0.184 1.409 0.368 0.735 0.175 6.226 0.777 3.305 -0.607 2.351 -1.297 1.389 -1.74 0.488 -1.965 -0.36 -1.776 -0.914 -1.345 -1.828 -1.164 -4.53 -1.633 -0.696 -0.568 -0.006 -0.325 0.508 -0.532 0.972 -0.307 1.925 0.372 2.056 1.026 0.435 0.258 1.219 0.825" />
    <path class="write-flat-pen" fill="#FFFFFF" stroke-width="1.6" __comx="73.181" __comy="108.071" __timestamp="0x178b36406a1" d="M71.944 108.476 l0.469 -0.222 0.91 0.556 0.804 1.083 -0.018 0.394 -0.197 0.112 -0.679 -0.078 -0.534 -0.508 -0.127 -0.531 0.215 -0.493 0.403 -0.22 -0.174 -0.033 0 0 -0.036 0.044 1.065 -0.558 -0.195 -0.159 -0.145 0.145 -0.194 0.074 0.054 -0.073 0.951 -0.871 -0.041 -0.097 -1.288 0.069 -0.176 0.023 -0.401 0.208 -0.248 1.227 0.921 0.59 1.065 -0.558 -0.021 -0.965 0 0 -1.264 -0.433 -1.244 0.762 -0.482 1.256 0.374 1.225 1.108 0.908 1.419 0.029 0.786 -0.704 -0.123 -1.089 -1.131 -1.325 -1.391 -0.641 -0.652 0.526" />
    <path class="write-flat-pen" fill="#FFFFFF" stroke-width="1.6" __comx="108.352" __comy="99.24" __timestamp="0x178b3640849" d="M107.976 96.947 l-0.152 3.766 0.005 0.718 0.242 7.352 0.742 2.526 0.068 -0.011 -0.082 -2.584 -0.193 -7.304 -0.028 -0.704 -0.11 -3.757" />
    <path class="write-flat-pen" fill="#FFFFFF" stroke-width="1.6" __comx="113.251" __comy="101.786" __timestamp="0x178b36408f0" d="M113.442 99.708 l-0.975 4.358 -0.046 4.57 0.429 2.62 0.113 -0.008 0.046 -2.623 0.261 -4.463 0.812 -4.322" />
    <path class="write-flat-pen" fill="#FFFFFF" stroke-width="1.6" __comx="171.768" __comy="97.202" __timestamp="0x178b3640b22" d="M171.227 93.786 l0.309 8.275 -0.175 4.858 -0.02 0.52 -0.106 2.638 0.048 0.005 0.478 -2.597 0.096 -0.523 0.452 -4.895 -0.45 -8.311" />
    <path class="write-flat-pen" fill="#FFFFFF" stroke-width="1.6" __comx="178.432" __comy="98.294" __timestamp="0x178b3640bc8" d="M179.025 96.462 l-1.199 3.698 -0.429 4.07 -0.045 2.579 0.047 0.004 0.356 -2.544 0.687 -3.972 1.071 -3.685" />
    <path class="write-flat-pen" fill="#FFFFFF" stroke-width="1.6" __comx="239.904" __comy="105.877" __timestamp="0x178b3640dc8" d="M240.709 93.454 l-0.156 1.257 -0.038 0.544 -0.554 5.818 -0.918 5.379 -0.006 0.039 -0.444 2.632 0.022 0.006 0.951 -2.494 0.02 -0.056 1.198 -5.391 0.427 -5.894 -0.007 -0.564 -0.082 -1.264" />
    <path class="write-flat-pen" fill="#FFFFFF" stroke-width="1.6" __comx="247.023" __comy="105.877" __timestamp="0x178b3640e6f" d="M247.106 93.608 l-0.785 5.959 0.251 5.473 0.161 0.676 0.171 0.553 0.774 2.504 0.047 -0.011 -0.424 -2.586 -0.091 -0.56 -0.085 -0.634 -0.021 -5.381 0.537 -5.933" />
    <path class="write-flat-pen" fill="#FFFFFF" stroke-width="1.6" __comx="301.035" __comy="105.877" __timestamp="0x178b36416fd" d="M291.954 104.062 l-1.034 0.435 0.101 0.019 -0.578 -1.139 -0.056 -0.275 -0.28 -4.521 -0.001 -0.247 0 0 -0.071 -1.727 0 0 -0.828 0.639 2.554 0.907 3.599 0.44 12.837 -1.69 2.557 0.088 0.697 0.545 0.417 0.968 0.04 1.613 -0.792 2.718 -7.542 15.257 0 0 1.134 0.827 0.373 -0.511 0.107 -0.188 0.284 -0.564 0.854 -1.738 -0.054 -0.043 -1.492 1.231 -0.484 0.401 -0.111 0.085 -0.467 0.302 1.134 0.827 0 0 7.556 -15.386 0.878 -3.041 -0.057 -2.09 -0.663 -1.531 -1.325 -1.029 -3.111 -0.098 -12.779 1.679 -3.294 -0.383 -2.447 -0.787 -0.828 0.639 0 0 0.172 1.693 0 0 0.012 0.259 0.566 4.612 0.149 0.46 0.969 1.26 0.318 0.099 1.117 -0.787" />
    <path class="write-flat-pen" fill="#FFFFFF" stroke-width="1.6" __comx="310.617" __comy="105.877" __timestamp="0x178b36419db" d="M307.91 96.574 l-2.57 0.94 -0.249 0.191 -1.767 2.037 -0.244 0.435 -1.929 4.971 -0.166 0.641 -3.545 11.721 0.613 0.371 4.827 0.608 8.269 0.157 7.707 -0.486 1.649 0.531 0.958 -0.522 2.315 -9.002 0.004 -0.09 0.011 -2.808 -0.057 -0.012 -1.15 2.562 -0.027 0.051 -2.553 8.903 0.958 -0.522 -1.92 -0.604 -7.927 0.504 -8.134 -0.138 -4.457 -0.506 0.579 0.35 2.98 -10.777 0.139 -0.612 1.633 -4.955 0.153 -0.333 1.48 -2.092 0.127 -0.125 2.389 -1.164" />
    <path class="write-flat-pen" fill="#FFFFFF" stroke-width="1.6" __comx="324.834" __comy="105.877" __timestamp="0x178b3641c80" d="M319.156 87.718 l0.409 -0.611 0.046 -0.021 1.209 -0.776 0.094 -0.03 1.215 -0.146 1.027 0.343 0.851 0.764 0.373 0.959 -0.139 1.048 -1.015 1.706 -4.724 4.455 -0.574 1.621 1.458 0.713 4.956 -0.014 4.028 0.45 0.39 -0.064 0.405 -0.117 2.578 -0.814 -0.007 -0.062 -2.689 -0.197 -0.373 -0.036 -0.239 -0.041 -3.995 -0.632 -4.721 0.042 0.006 0.018 0.009 -0.08 4.54 -4.418 1.204 -2.12 0.171 -1.634 -0.638 -1.503 -1.276 -1.087 -1.529 -0.439 -1.587 0.315 -0.313 0.157 -1.176 1.106 -0.129 0.175 -0.2 0.819" />
    <path class="write-flat-pen" fill="#FFFFFF" stroke-width="1.6" __comx="340.957" __comy="105.877" __timestamp="0x178b3641df0" d="M336.943 109.731 l0.536 -0.792 1.337 -0.477 3.672 -0.552 0.555 -0.079 2.614 -0.365 -0.003 -0.069 -2.637 -0.109 -0.58 -0.024 -3.842 0.27 -1.732 0.667 -0.609 1.12" />
    <path class="write-flat-pen" fill="#FFFFFF" stroke-width="1.6" __comx="362.172" __comy="105.877" __timestamp="0x178b3641fd6" d="M363.61 105.067 l0.666 -1.79 0.031 -0.286 -0.252 -1.068 -1.063 -0.745 -1.938 0.125 -2.332 1.081 -2.32 1.901 -1.811 2.479 -1.067 2.646 -0.267 2.739 0.722 2.705 1.21 1.797 1.701 1.246 2.358 0.634 2.765 -0.263 3.668 -1.487 0.791 -0.468 1.989 -1.384 0.596 -0.475 2.029 -1.617 -0.029 -0.042 -2.228 1.331 -0.643 0.383 -2.098 1.134 -0.758 0.356 -3.554 1.186 -2.408 0.13 -1.92 -0.562 -1.333 -0.989 -0.972 -1.44 -0.616 -2.281 0.215 -2.337 0.93 -2.344 1.613 -2.247 2.071 -1.737 1.996 -0.992 1.396 -0.187 0.572 0.285 0.247 0.593 0.007 0.077 -0.397 1.788" />
    <path class="write-flat-pen" fill="#FFFFFF" stroke-width="1.6" __comx="375.244" __comy="105.877" __timestamp="0x178b3642191" d="M374.833 108.003 l0.909 -0.616 0.208 -0.175 1.081 -1.467 0.065 -0.178 0.093 -1.186 -0.705 -0.897 -1.676 -0.162 -2.18 0.866 -2.02 1.761 -1.429 2.269 -0.902 2.623 -0.213 2.578 0.633 2.437 1.075 1.41 1.597 0.899 2.136 0.158 2.371 -0.824 2.168 -1.512 2.318 -2.687 1.421 -2.613 0.64 -2.522 -0.169 -1.616 -0.982 -1.864 -1.469 -1.211 -1.893 -0.144 -0.368 0.148 -0.673 0.523 -1.443 1.496 0.026 0.034 1.787 -0.981 0.662 -0.263 0.088 0.005 1.307 0.3 0.97 0.884 0.72 1.447 0.11 1.143 -0.543 2.139 -1.276 2.345 -2.118 2.459 -1.882 1.325 -1.947 0.694 -1.592 -0.104 -1.132 -0.625 -0.778 -1.001 -0.542 -1.991 0.163 -2.225 0.795 -2.357 1.258 -2.014 1.737 -1.534 1.747 -0.731 0.99 0.036 0.253 0.235 0.039 0.702 0.015 -0.028 -0.766 1.475 -0.121 0.15 -0.72 0.809" />
    <path class="write-flat-pen" fill="#FFFFFF" stroke-width="1.6" __comx="392.253" __comy="105.877" __timestamp="0x178b36423cd" d="M383.422 107.264 l0.434 1.562 0.054 0.342 0.245 3.129 0.011 0.638 -0.558 6.964 0 0 -0.022 0.092 0 0 -0.155 0.492 0 0 1.273 0.345 2.495 -9.38 1.553 -4.259 0.647 -0.925 -0.105 0.03 0.174 0.302 -0.784 11.13 0 0 0.443 1.053 0 0 1.098 0.312 0.984 -0.678 5.268 -9.132 1.732 -2.319 0.757 -0.529 0.147 0.017 0.331 0.511 0.248 2.135 -0.746 12.457 0.109 0.395 0.271 0.607 1.25 2.284 0.037 -0.013 -0.447 -2.54 -0.071 -0.581 -0.001 -0.214 0.988 -12.425 -0.293 -2.582 -0.842 -1.328 -1.328 -0.196 -1.411 0.962 -1.937 2.564 -5.183 8.898 -0.708 0.494 1.098 0.312 0 0 -0.327 -0.719 0 0 0.693 -11.204 -0.915 -1.534 -1.35 0.362 -1.026 1.471 -1.632 4.481 -2.494 9.443 1.273 0.345 0 0 0.131 -0.542 0 0 0.044 -0.225 0 0 0.289 -7.128 -0.057 -0.723 -0.505 -3.167 -0.113 -0.41 -0.695 -1.513" />
    <path class="write-flat-pen" fill="#FFFFFF" stroke-width="1.6" __comx="406.406" __comy="112.424" __timestamp="0x178b3642586" d="M404.84 133.253 l-0.329 -1.937 -0.064 -0.431 -0.42 -4.937 -0.102 -0.973 -0.906 -9.842 0.165 -3.56 0.708 -3.01 1.084 -2.181 0.613 -0.536 0.741 -0.151 0.898 0.354 1.121 1.239 0.932 2.041 0.642 3.169 -0.219 2.8 -0.74 2.057 -1.242 1.808 -1.512 1.259 -1.453 0.598 -1.142 0.037 -0.491 -0.3 -0.209 -0.78 0.675 -1.957 0.199 -0.395 0.48 -0.865 0.267 -0.456 1.292 -2.193 -0.045 -0.034 -1.759 1.84 -0.374 0.392 -0.668 0.775 -0.338 0.444 -1.081 2.346 0.396 1.728 1.301 0.802 1.785 -0.068 1.857 -0.774 1.801 -1.509 1.44 -2.096 0.858 -2.382 0.246 -3.159 -0.701 -3.499 -1.075 -2.367 -1.461 -1.625 -1.553 -0.623 -1.481 0.294 -1.088 0.943 -1.268 2.565 -0.76 3.285 -0.159 3.778 1.072 9.934 0.138 0.975 0.68 4.934 0.106 0.475 0.581 1.898" />
    <path class="write-flat-pen" fill="#FFFFFF" stroke-width="1.6" __comx="417.049" __comy="112.424" __timestamp="0x178b364269b" d="M414.89 98.129 l-0.297 2.4 -0.028 0.423 -0.292 4.445 -0.039 0.78 -0.433 10.818 0.412 2.278 1.789 0.58 0.561 -0.276 1.111 -1.038 0.372 -0.486 1.112 -1.835 1.14 -2.181 -0.03 -0.018 -1.372 2.032 -1.282 1.666 -0.376 0.359 -1.136 0.714 -0.109 0.004 -0.689 -0.405 -0.237 -1.481 0.258 -10.696 0.008 -0.778 0.041 -4.453 -0.002 -0.413 0.018 -2.405" />
    <path class="write-flat-pen" fill="#FFFFFF" stroke-width="1.6" __comx="426.406" __comy="112.424" __timestamp="0x178b36427e6" d="M421.191 111.497 l-0.192 1.05 0.028 0.209 0.594 1.066 0.305 0.209 2.102 0.252 0.468 -0.139 1.413 -0.849 0.982 -1.477 0.028 -1.4 -1.079 -1.06 -1.665 -0.005 -1.324 0.741 -1.356 1.695 -0.913 2.332 -0.126 2.141 0.537 1.498 1.294 1.186 1.961 0.482 4.247 -1.302 0.436 -0.241 0.895 -0.551 0.294 -0.2 2.238 -1.523 -0.017 -0.033 -2.55 0.911 -0.326 0.116 -0.976 0.344 -0.376 0.136 -3.884 0.927 -1.276 -0.316 -0.799 -0.715 -0.342 -0.918 0.085 -1.655 0.755 -1.95 1.068 -1.335 0.797 -0.443 0.782 0.002 0.298 0.285 0.003 0.465 -0.589 0.965 -1.011 0.7 -0.119 0.052 -1.689 0.035 0.004 0.024 -0.649 -0.677 -0.02 -0.021 -0.079 -0.996" />
    <path class="write-flat-pen" fill="#FFFFFF" stroke-width="1.6" __comx="438.894" __comy="112.424" __timestamp="0x178b36428dc" d="M434.065 104.198 l1.366 4.932 0.327 0.668 2.142 3.577 4.315 4.877 1.481 0.892 0.026 -0.025 -0.809 -1.496 -4.033 -4.959 -2.17 -3.4 -0.285 -0.534 -1.601 -4.763" />
    <path class="write-flat-pen" fill="#FFFFFF" stroke-width="1.6" __comx="437.522" __comy="112.424" __timestamp="0x178b364297f" d="M433.48 118.38 l0.231 -0.984 0.09 -0.183 2.132 -3.347 0.441 -0.641 4.421 -6.553 1.302 -2.413 -0.038 -0.029 -2 1.906 -4.606 6.464 -0.442 0.688 -1.955 3.575 -0.106 0.359 0.008 1.104" />
    <path class="write-flat-pen" fill="#FFFFFF" stroke-width="1.6" __comx="454.28" __comy="112.424" __timestamp="0x178b3642b25" d="M448.249 109.426 l0.459 -0.61 -0.009 0.033 1.336 -0.422 0.238 -0.05 2.98 -0.821 1.844 -1.097 0.84 -1.417 -0.66 -1.211 -1.574 -0.365 -1.801 0.538 -1.742 1.341 -1.414 1.988 -0.971 2.715 -0.165 2.212 0.532 2.201 1.342 2.006 1.641 1.162 4.84 0.977 0.623 -0.075 1.308 -0.389 0.456 -0.212 0.418 -0.252 2.184 -1.325 -0.013 -0.03 -2.437 0.766 -0.434 0.134 -0.398 0.085 -1.228 0.104 -0.384 -0.009 -4.349 -1.088 -1.199 -0.85 -1.068 -1.579 -0.436 -1.745 0.122 -1.812 0.829 -2.369 1.183 -1.673 1.385 -1.065 1.218 -0.359 0.629 0.153 -0.004 -0.002 -0.267 0.462 -1.388 0.871 -2.756 0.922 -0.289 0.092 -1.424 0.757 -0.189 0.188 -0.286 0.878" />
    <path class="write-flat-pen" fill="#FFFFFF" stroke-width="1.6" __comx="460.456" __comy="112.424" __timestamp="0x178b3642c98" d="M466.299 103.874 l-0.987 -0.408 -0.317 0.076 -2.465 1.623 -0.196 0.254 -0.533 1.276 0.35 1.801 1.971 3.18 0.434 1.453 -0.16 1.359 -0.547 0.943 -1.061 0.783 -1.794 0.563 -3.106 0.198 -0.234 0.023 -0.287 0.009 -2.745 0.055 -0.008 0.046 2.582 0.933 0.302 0.106 0.343 0.085 3.4 -0.007 2.218 -0.707 1.484 -1.126 0.818 -1.467 0.189 -1.936 -0.612 -1.878 -2.003 -3.097 -0.284 -1.217 0.284 -0.825 -0.007 0 2.038 -1.655 -0.056 0.004 0.839 0.094" />
    <path class="write-flat-pen" fill="#FFFFFF" stroke-width="1.6" __comx="74.709" __comy="200.064" __timestamp="0x178b364e7c9" d="M73.871 197.297 l0.384 -1.448 0.018 -0.007 0.635 -0.337 0.335 0.135 -0.038 0.071 -0.209 0.134 -0.333 -0.06 -0.175 -0.279 0.275 -0.784 0 0 -1.088 0.22 0.483 0.468 0.998 -0.802 -0.039 -0.134 -0.568 -0.346 0.095 0.004 -1.088 0.22 0 0 -0.393 1.39 0.915 1.155 1.333 0.019 0.846 -0.924 -0.341 -1.067 -1.151 -0.168 -0.891 0.663 -0.139 0.207 -0.142 1.62" />
    <path class="write-flat-pen" fill="#FFFFFF" stroke-width="1.6" __comx="103.274" __comy="200.064" __timestamp="0x178b364e9e1" d="M105.975 188.586 l0.731 -1.642 0.044 -0.095 0.37 -1.971 -0.13 -0.379 -0.782 -0.947 -1.431 -0.361 -2.758 0.659 -2.436 1.417 -2.327 2.186 -2.061 2.894 -1.489 3.392 -0.806 3.457 -0.288 4.193 0.45 2.759 1.215 2.42 1.866 1.834 2.272 1.042 2.809 0.337 3.096 -0.602 4.668 -2.411 0.877 -0.595 1.477 -1.098 0.606 -0.521 1.99 -1.703 -0.078 -0.112 -2.291 1.27 -0.69 0.38 -1.576 0.905 -0.861 0.491 -4.549 2.117 -2.717 0.51 -2.39 -0.287 -1.863 -0.856 -1.539 -1.508 -1.02 -2.034 -0.384 -2.4 0.282 -3.925 0.758 -3.225 1.38 -3.147 1.894 -2.673 2.11 -1.995 2.127 -1.263 2.264 -0.611 0.786 0.136 0.469 0.445 -0.011 -0.061 -0.065 1.643 -0.001 0.016 -0.48 1.75" />
    <path class="write-flat-pen" fill="#FFFFFF" stroke-width="1.6" __comx="120.374" __comy="200.064" __timestamp="0x178b364ebe4" d="M122.463 199.583 l-0.189 -1.254 -0.32 -0.251 -1.311 -0.088 -1.801 1.01 -1.591 1.777 -0.901 2.058 -0.251 2.133 0.561 1.834 1.008 1.05 1.333 0.368 1.543 -0.4 1.895 -1.538 1.378 -2.097 0.77 -2.423 0.062 -2.099 -0.727 -1.891 -1.3 -1.219 -1.603 -0.404 -1.757 1.426 -0.124 0.422 0.022 0.774 0.421 1.938 0.062 -0.001 0.353 -1.893 0.188 -0.57 0.014 0.035 1.097 -0.624 0.612 0.185 0.8 0.752 0.525 1.32 -0.022 1.624 -0.624 2.071 -1.143 1.784 -1.503 1.25 -0.937 0.255 -0.672 -0.173 -0.57 -0.577 -0.42 -1.299 0.176 -1.705 0.725 -1.741 1.315 -1.539 1.357 -0.858 0.753 -0.068 -0.129 -0.111 0.366 0.9" />
    <path class="write-flat-pen" fill="#FFFFFF" stroke-width="1.6" __comx="135.185" __comy="200.064" __timestamp="0x178b364ee14" d="M127.308 203.226 l0.214 1.569 0.027 0.241 0.165 3.125 0.005 0.204 0 0 0.052 1.052 0 0 1.143 0.061 1.644 -7.238 0.997 -2.676 0.459 -0.533 0.029 0.008 0.378 0.615 0.675 6.099 0 0 0.561 0.826 0 0 1.237 -0.1 2.93 -6.19 1.081 -1.429 0.451 -0.202 0.55 0.218 0.604 1.123 1.116 8.826 0.097 0.231 0.033 0.062 1.226 2.205 0.077 -0.025 -0.282 -2.507 -0.004 -0.054 -0.009 -0.137 -0.864 -9.034 -0.984 -1.826 -1.593 -0.632 -1.338 0.594 -1.393 1.84 -2.994 6.323 1.237 -0.1 0 0 -0.372 -0.528 0 0 -0.739 -6.044 -0.903 -1.419 -1.368 -0.13 -1.057 1.24 -1.096 2.989 -1.523 7.358 1.143 0.061 0 0 -0.168 -1.012 0 0 -0.017 -0.198 -0.44 -3.152 -0.067 -0.28 -0.471 -1.527" />
    <path class="write-flat-pen" fill="#FFFFFF" stroke-width="1.6" __comx="155.45" __comy="200.064" __timestamp="0x178b364f179" d="M150.96 219.238 l-0.964 -2.219 -0.175 -0.475 -2.544 -7.768 -0.196 -0.861 -0.602 -4.244 0.009 -3.825 0.445 -2 0.76 -1.18 0.87 -0.518 1.38 -0.125 1.47 0.431 1.039 0.765 0.841 1.263 0.433 2.022 -0.278 2.396 -0.92 2.597 -1.09 1.643 -0.993 0.74 -0.217 0.015 -0.004 0.016 0.434 -0.979 1.539 -1.35 6.327 -2.985 2.072 -1.415 0.862 -1.306 -0.172 -1.387 -1.279 -0.712 -1.553 0.298 -1.407 1.207 -1.228 2.241 -0.641 2.651 0.186 1.87 0.811 1.292 1.203 0.595 1.52 -0.14 1.898 -1.172 2.057 -2.307 1.833 -3.38 0 0 -1.318 -0.335 0.123 6.884 0.341 0.324 0.541 0.076 0.257 -0.098 1.04 -0.549 -0.008 -0.05 -1.162 -0.178 -0.06 -0.045 -0.009 -0.1 0.199 0.172 0.142 -6.434 -1.318 -0.335 0 0 -1.754 3.237 -1.814 2.03 -1.445 0.887 -0.796 0.073 -0.492 -0.24 -0.428 -0.676 -0.137 -1.307 0.533 -2.246 1.01 -1.87 0.939 -0.829 0.735 -0.165 0.321 0.145 0.076 0.304 -0.448 0.763 -1.785 1.252 -6.416 2.944 -1.924 1.566 -0.877 1.773 0.646 1.394 1.537 -0.094 1.504 -1.127 1.302 -1.983 1.015 -2.897 0.314 -2.763 -0.542 -2.48 -1.118 -1.655 -1.411 -1.031 -1.928 -0.562 -1.916 0.184 -1.378 0.825 -1.042 1.632 -0.503 2.365 0.055 4.051 0.727 4.36 0.241 0.949 2.81 7.75 0.217 0.514 1.213 2.132" />
    <path class="write-flat-pen" fill="#FFFFFF" stroke-width="1.6" __comx="171.958" __comy="200.064" __timestamp="0x178b364f2a2" d="M169.121 203.194 l-0.27 0.987 -0.005 -0.014 -0.335 0.288 0.41 -0.081 -0.434 -0.84 -0.066 -0.231 -0.375 -2.075 0.168 -2.492 0.608 -2.002 0.761 -1.03 0.665 -0.363 0.88 0.091 1.168 0.921 1.883 2.759 0.216 0.345 0.788 1.08 0.204 0.233 1.808 2.045 0.039 -0.027 -1.227 -2.438 -0.129 -0.26 -0.575 -1.157 -0.176 -0.375 -1.782 -3.126 -1.635 -1.381 -1.756 -0.207 -1.354 0.734 -1.099 1.501 -0.7 2.413 -0.125 2.838 0.529 2.312 0.181 0.466 1.096 1.294 0.575 -0.105 0.396 -0.872 0.022 -0.125 0.01 -1.056" />
    <path class="write-flat-pen" fill="#FFFFFF" stroke-width="1.6" __comx="181.331" __comy="200.064" __timestamp="0x178b364f376" d="M180.755 199.239 l0.068 6.971 0.006 0.395 0.169 1.53 0.426 0.881 0.082 -0.005 0.312 -0.912 0.089 -1.516 -0.007 -0.397 -0.348 -6.97" />
    <path class="write-flat-pen" fill="#FFFFFF" stroke-width="1.6" __comx="181.323" __comy="200.064" __timestamp="0x178b364f3ff" d="M181.414 190.36 l-0.584 2.979 -0.092 2.266 0.011 0.001 0.428 -2.209 0.731 -2.928" />
    <path class="write-flat-pen" fill="#FFFFFF" stroke-width="1.6" __comx="196.716" __comy="200.064" __timestamp="0x178b364f706" d="M189.86 198.418 l1.097 -1.5 -0.049 -0.339 -0.748 -0.821 -1.349 -0.177 -1.356 0.62 -0.986 1.348 -0.134 1.323 0.727 1.278 4.186 2.62 1.25 1.337 0.461 1.347 -0.085 1.111 -0.503 0.896 -0.904 0.624 -0.874 0.145 -0.681 -0.252 -0.56 -0.668 -0.379 -1.339 0.191 -1.538 0.902 -1.564 1.158 -0.963 1.861 -0.737 6.775 -0.366 1.506 -0.585 0.134 -1.155 -1.367 -0.9 -1.497 -0.085 -1.303 0.867 -0.996 2.138 -0.158 2.041 0.546 1.961 1.165 1.633 1.729 1.084 1.587 0.315 2.078 -0.37 1.868 -1.064 1.273 -1.566 0.671 -1.954 -0.188 -2.133 -1.241 -1.992 -1.713 -1.297 -2.134 -0.192 -0.326 0.196 -0.317 0.372 -0.902 1.522 0.029 0.028 1.451 -0.927 0.3 -0.137 -0.056 0.059 1.415 0.342 1.221 0.964 0.929 1.509 0.137 1.517 -0.492 1.452 -0.952 1.189 -1.441 0.836 -1.604 0.3 -1.109 -0.208 -1.317 -0.805 -0.895 -1.234 -0.433 -1.526 0.12 -1.59 0.743 -1.617 0.662 -0.454 0.767 0.027 0.528 0.302 0.049 -0.207 -0.698 0.329 -6.771 0.287 -2.232 0.779 -1.525 1.177 -1.199 1.967 -0.279 2.072 0.527 1.878 0.98 1.154 1.346 0.476 1.496 -0.278 1.358 -0.985 0.742 -1.405 0.079 -1.628 -0.679 -1.786 -1.557 -1.559 -4.105 -2.514 -0.451 -0.774 0.06 -0.745 0.657 -0.966 0.891 -0.476 0.853 0.03 0.513 0.395 -0.003 -0.086 -0.744 1.449" />
    <path class="write-flat-pen" fill="#FFFFFF" stroke-width="1.6" __comx="214.299" __comy="200.064" __timestamp="0x178b364f866" d="M208.632 198.618 l1.199 2.105 0.123 0.34 0.897 3.99 0.033 0.259 0 0 0.207 1.235 0 0 1.202 -0.149 -0.248 -6.386 0.305 -2.65 0.336 -0.493 0.053 -0.003 0.379 0.322 4.34 10.089 0.3 0.251 2.102 1.618 0.104 -0.096 -1.439 -2.229 -0.09 -0.173 -4.215 -10.276 -1.074 -0.89 -1.216 0.151 -0.853 1.259 -0.342 3.077 0.343 6.485 1.202 -0.149 0 0 -0.288 -1.191 0 0 -0.051 -0.286 -1.189 -4.034 -0.205 -0.449 -1.473 -2.014" />
    <path class="write-flat-pen" fill="#FFFFFF" stroke-width="1.6" __comx="242.73" __comy="200.064" __timestamp="0x178b364fa25" d="M240.467 186.346 l0.206 1.905 0.097 0.642 2.371 10.382 1.035 7.604 0.626 2.719 0.104 -0.01 0.087 -2.799 -0.855 -7.692 -2.505 -10.382 -0.126 -0.611 -0.451 -1.861" />
    <path class="write-flat-pen" fill="#FFFFFF" stroke-width="1.6" __comx="241.006" __comy="200.064" __timestamp="0x178b364fb03" d="M230.614 189.782 l17.633 -2.712 0.634 -0.109 2.663 -0.444 -0.007 -0.113 -2.698 -0.097 -0.676 -0.024 -17.695 2.517" />
    <path class="write-flat-pen" fill="#FFFFFF" stroke-width="1.6" __comx="262.822" __comy="200.064" __timestamp="0x178b364fda9" d="M248.76 186.845 l3.044 10.323 0.332 1.24 2.187 11.625 0 0 0.267 0.684 0 0 1.29 -0.144 0.305 -1.875 -0.373 -7.266 0.309 -2.606 0.574 -1.319 0.408 -0.269 0.432 0.128 0.895 1.112 2.649 6.631 1.296 1.774 1.673 0.559 1.908 -0.664 1.65 -1.742 1.43 -2.805 0.747 -2.772 -0.087 -1.904 -0.78 -1.332 -1.238 -0.105 -1.007 1.434 -0.502 2.868 0.121 2.817 0.755 2.463 1.17 1.581 1.561 0.964 2.133 0.113 1.701 -0.681 1.849 -1.62 1.422 -3.562 0.004 -0.516 -0.136 -0.754 -0.598 -2.442 -0.067 0.006 -0.174 2.49 -0.074 0.674 -0.067 0.254 -1.465 3 -1.444 1.245 -1.191 0.48 -1.468 -0.066 -1.037 -0.627 -0.887 -1.169 -0.666 -2.067 -0.134 -2.5 0.424 -2.438 0.411 -0.573 -0.198 -0.012 0.257 0.46 0.045 1.366 -0.668 2.43 -1.277 2.503 -1.281 1.362 -1.155 0.408 -0.828 -0.271 -0.955 -1.285 -2.727 -6.621 -1.26 -1.545 -1.34 -0.419 -1.242 0.759 -0.837 1.848 -0.351 2.911 0.344 7.236 -0.29 1.733 1.29 -0.144 0 0 -0.237 -0.558 0 0 -2.341 -11.51 -0.368 -1.292 -3.299 -10.262" />
    <path class="write-flat-pen" fill="#FFFFFF" stroke-width="1.6" __comx="281.235" __comy="200.064" __timestamp="0x178b364ff62" d="M280.869 198.45 l-0.354 -0.975 -0.2 -0.2 -1.089 -0.495 -1.199 0.326 -0.971 1.138 -0.605 2.166 0.05 2.032 0.83 2.409 1.455 1.726 1.655 0.801 1.915 -0.085 1.857 -1.06 1.273 -1.809 0.532 -2.115 -0.257 -2.097 -1.12 -1.988 -1.585 -1.374 -1.884 -0.137 -0.399 0.25 -0.443 0.61 -0.089 0.229 -0.592 1.746 0.046 0.027 1.256 -1.349 0.103 -0.094 0.408 -0.257 -0.062 0.066 1.044 0.251 1.052 0.955 0.85 1.528 0.195 1.544 -0.39 1.597 -0.924 1.341 -1.279 0.755 -1.232 0.078 -1.097 -0.506 -1.141 -1.302 -0.736 -1.983 -0.093 -1.663 0.418 -1.785 0.564 -0.758 0.568 -0.229 0.712 0.178 0.013 -0.011 0.526 0.732" />
    <path class="write-flat-pen" fill="#FFFFFF" stroke-width="1.6" __comx="290.878" __comy="200.064" __timestamp="0x178b365009b" d="M288.716 203.798 l-0.222 2.169 0.002 -0.048 -0.567 0.5 0 0 0.819 0.024 -0.043 -0.092 -0.633 -2.723 -0.164 -2.905 0.411 -2.094 0.651 -1.125 0.768 -0.468 1.935 0.323 0.214 0.104 0.888 0.546 0.278 0.188 2.083 1.424 0.032 -0.036 -1.656 -1.905 -0.238 -0.272 -0.797 -0.767 -0.37 -0.284 -2.584 -0.752 -1.566 0.897 -0.94 1.651 -0.435 2.497 0.269 3.182 0.875 2.976 0.183 0.227 0.819 0.024 0 0 0.493 -0.828 0.022 -0.198 -0.052 -2.216" />
    <path class="write-flat-pen" fill="#FFFFFF" stroke-width="1.6" __comx="299.404" __comy="200.064" __timestamp="0x178b365020f" d="M296.335 203.663 l0.541 0.401 0.313 -0.007 1.301 -0.348 0.297 -0.151 1.748 -1.236 0.982 -1.507 0.077 -1.357 -0.817 -1.145 -1.78 -0.515 -1.994 0.645 -1.27 1.21 -1.203 2.335 -0.366 2.185 0.378 1.69 1.018 1.473 1.549 0.988 1.999 0.386 3.019 -0.941 0.427 -0.336 0.761 -0.937 0.181 -0.33 1.151 -2.153 -0.031 -0.022 -1.685 1.766 -0.219 0.223 -0.83 0.64 -0.23 0.114 -2.587 0.555 -1.414 -0.304 -1.085 -0.693 -0.703 -1.009 -0.264 -1.151 0.281 -1.696 0.993 -1.93 0.867 -0.826 1.282 -0.414 0.905 0.257 0.266 0.352 -0.009 0.523 -0.613 1.048 -1.4 1.187 -0.141 0.1 -1.034 0.537 0.001 0.031 -0.464 -0.065" />
    <path class="write-flat-pen" fill="#FFFFFF" stroke-width="1.6" __comx="315.334" __comy="200.064" __timestamp="0x178b3650425" d="M304.829 201.81 l-0.187 1.102 -0.021 0.21 -0.107 2.224 0.004 0.33 0.15 1.946 0 0 0.575 0.565 0 0 1.003 -0.264 2.01 -5.36 1.166 -1.929 0.457 -0.255 0.34 0.052 1.708 2.446 1.278 0.671 1.579 -0.807 3.349 -3.812 1.125 -0.723 0.564 0.084 0.764 0.862 1.584 4.889 1.236 1.62 1.088 0.036 0.451 -0.261 0.232 -0.276 0.974 -1.256 -0.058 -0.075 -1.462 0.625 -0.219 0.073 -0.089 -0.032 -0.168 -0.118 -0.695 -1.004 -1.668 -4.936 -1.34 -1.404 -1.513 -0.143 -1.627 1.092 -3.323 3.706 -0.743 0.308 -0.343 -0.219 -1.912 -2.643 -1.395 -0.165 -1.155 0.661 -1.413 2.345 -1.971 5.513 1.003 -0.264 0 0 -0.307 -0.185 0 0 -0.253 -1.453 -0.034 -0.277 -0.166 -2.183 -0.011 -0.189 -0.072 -1.108" />
    <path class="write-flat-pen" fill="#FFFFFF" stroke-width="1.6" __comx="164.857" __comy="255.893" __timestamp="0x178b3650f75" d="M160.962 262.644 l-0.104 3.676 0.022 0.282 0.406 1.838 0.79 0.09 0.122 -0.182 0.314 -4.579 -0.019 -0.637 -0.509 -5.814 -2.579 -10.227 -0.189 -2.282 0.345 -1.001 0.895 -1.05 1.632 -0.762 1.738 -0.227 1.99 0.278 2.04 0.862 1.425 1.148 0.92 1.314 0.585 2.508 0.007 0.191 -0.047 0.533 -0.287 2.534 0.104 0.03 1.105 -2.315 0.229 -0.559 0.101 -0.428 -0.401 -3.066 -1.204 -1.771 -1.755 -1.42 -2.415 -1.029 -2.392 -0.33 -2.168 0.292 -2.136 1.001 -1.283 1.521 -0.524 1.567 0.249 2.708 2.688 10.218 0.66 5.665 0.038 0.554 -0.04 4.321 0.013 0.009 0.79 0.09 -0.647 -1.71 -0.031 -0.198 -0.176 -3.645" />
    <path class="write-flat-pen" fill="#FFFFFF" stroke-width="1.6" __comx="161.259" __comy="255.893" __timestamp="0x178b365105c" d="M153.653 255.731 l4.356 -0.507 0.569 -0.027 7.017 -0.009 0.608 -0.036 2.767 -0.15 0.009 -0.17 -2.738 -0.427 -0.618 -0.098 -7.069 -0.186 -0.654 0.044 -4.363 0.787" />
    <path class="write-flat-pen" fill="#FFFFFF" stroke-width="1.6" __comx="178.268" __comy="255.893" __timestamp="0x178b36513f8" d="M178.157 266.282 l-0.358 1.792 -0.012 0.099 -0.041 0.702 0 0 0.834 0.162 0.177 -0.47 0.032 -1.403 -0.148 -0.039 -0.639 1.17 -0.215 0.372 0.834 0.162 0 0 -0.111 -0.649 -0.002 -0.038 0.081 -1.808" />
    <path class="write-flat-pen" fill="#FFFFFF" stroke-width="1.6" __comx="179.674" __comy="255.893" __timestamp="0x178b36514c9" d="M180.617 248.644 l-1.098 -2.477 -0.68 -1.914 -0.109 0.018 0.002 2.141 1.25 2.529" />
    <path class="write-flat-pen" fill="#FFFFFF" stroke-width="1.6" __comx="200.181" __comy="258.342" __timestamp="0x178b3652180" d="M191.571 269.48 l-0.968 0.955 0.29 0.145 0.2 -1.289 0.079 -0.324 5.031 -16.155 0 0 0.189 -0.801 0 0 0.902 -5.582 0 0 -1.172 -0.043 0.15 2.041 1.278 3.487 4.64 8.742 4.089 6.499 1.406 0.838 0.381 0.002 1.996 -0.116 0.024 -0.16 -1.871 -0.705 -0.117 -0.074 -0.867 -0.703 -3.901 -6.242 -4.631 -8.599 -1.223 -3.237 -0.175 -1.87 -1.172 -0.043 0 0 -0.843 5.549 0 0 -0.168 0.725 0 0 -4.766 16.241 -0.071 0.429 0.05 1.7 0.393 0.204 1.052 -1.444" />
    <path class="write-flat-pen" fill="#FFFFFF" stroke-width="1.6" __comx="201.7" __comy="258.342" __timestamp="0x178b3652273" d="M193.679 259.989 l1.529 0.652 0.572 0.081 4.352 0.148 6.298 -0.684 0.687 -0.122 2.606 -0.457 -0.012 -0.139 -2.645 -0.014 -0.699 -0.005 -6.264 0.448 -4.252 -0.084 -0.441 -0.044 -1.527 -0.375" />
    <path class="write-flat-pen" fill="#FFFFFF" stroke-width="1.6" __comx="219.432" __comy="258.342" __timestamp="0x178b3652367" d="M212.941 260.065 l10.258 0.293 2.726 -0.259 -0.001 -0.071 -2.719 -0.202 -10.243 -0.38" />
    <path class="write-flat-pen" fill="#FFFFFF" stroke-width="1.6" __comx="227.534" __comy="258.342" __timestamp="0x178b365253c" d="M226.326 257.235 l-1.572 -0.797 -0.135 -0.063 -1.983 -1.369 0.074 0.082 0.054 0.151 0.557 -0.146 5.447 0.15 2.458 0.456 0.711 0.486 0.285 0.784 -1.313 6.688 0.35 1.261 1.167 0.966 0.126 -0.078 -0.22 -1.28 0.04 -0.842 1.224 -6.839 -0.587 -1.508 -1.279 -0.866 -2.828 -0.524 -5.767 -0.11 -1.663 0.58 0.17 1.105 0.249 0.311 2.367 1.277 0.201 0.065 1.663 0.548" />
    <path class="write-flat-pen" fill="#FFFFFF" stroke-width="1.6" __comx="242.039" __comy="258.342" __timestamp="0x178b365266e" d="M240.748 251.262 l-0.333 1.657 2.365 13.01 0.523 1.167 0.091 -0.009 0.268 -1.283 -2.333 -12.895 0.166 -1.528" />
    <path class="write-flat-pen" fill="#FFFFFF" stroke-width="1.6" __comx="247.688" __comy="258.342" __timestamp="0x178b36528db" d="M241.901 251.932 l-0.878 -1.747 -0.012 -0.062 -0.096 -1.267 0.489 -1.381 0.954 -1.044 1.591 -0.716 1.574 -0.128 1.845 0.44 1.4 0.819 0.882 1.162 0.441 1.434 -0.133 2.087 -0.651 1.808 -0.988 1.293 -1.362 0.836 0 0 -0.965 0.133 0 0 0.119 1.379 1.692 -0.066 2.762 0.735 1.965 1.051 1.194 1.153 0.465 1.021 -0.014 0.963 -0.552 1.071 -1.376 1.109 -1.956 0.727 -2.846 0.379 -2.994 -0.168 -2.617 -0.09 -0.033 0.127 2.439 1.205 3.239 0.366 3.161 -0.426 2.32 -0.876 1.775 -1.455 0.822 -1.632 0.007 -1.597 -0.712 -1.529 -1.518 -1.457 -2.268 -1.215 -3.107 -0.841 -1.897 0.057 0.119 1.379 0 0 1.253 -0.176 0 0 1.821 -1.135 1.255 -1.673 0.77 -2.19 0.135 -2.52 -0.602 -1.876 -1.187 -1.533 -1.785 -1.034 -2.226 -0.522 -1.993 0.174 -2.013 0.942 -1.254 1.454 -0.551 1.875 0.278 1.586 0.092 0.236 1.164 1.686" />
    <path class="write-flat-pen" fill="#FFFFFF" stroke-width="1.6" __comx="288.14" __comy="265.699" __timestamp="0x178b365373b" d="M287.764 263.913 l1.145 1.867 0.095 0.337 0.351 2.428 -0.327 2.579 -1.599 3.488 -1.379 2.253 0.12 0.09 1.818 -1.998 1.915 -3.571 0.328 -2.858 -0.451 -2.592 -0.167 -0.502 -1.442 -1.807" />
    <path class="write-flat-pen" fill="#FFFFFF" stroke-width="1.6" __comx="314.147" __comy="259.653" __timestamp="0x178b3653c04" d="M314.32 250.558 l-0.008 4.86 0.027 0.678 0.066 4.892 -0.456 4.234 -0.456 1.348 -0.528 0.814 0.045 0.064 1.141 -0.352 0.764 -1.633 0.414 -4.44 -0.191 -4.959 -0.048 -0.677 -0.265 -4.841" />
    <path class="write-flat-pen" fill="#FFFFFF" stroke-width="1.6" __comx="318.908" __comy="259.653" __timestamp="0x178b3653db8" d="M314.076 253.538 l-0.905 -1.084 -0.025 -0.067 -0.306 -1.458 0.334 -1.73 0.884 -1.514 1.504 -1.458 1.53 -0.822 2.36 -0.517 1.778 0.157 1.78 0.711 0.98 0.917 0.68 1.552 0.006 1.948 -0.705 2.228 -1.284 2.103 -1.708 1.702 -1.786 1.039 -1.997 0.564 -1.237 -0.241 0.154 0.976 0.028 -0.066 0.059 -0.088 0.769 -0.857 -0.042 -0.083 -1.146 0.12 -0.168 0.028 -0.129 0.044 0.154 0.976 1.545 0.607 2.541 -0.739 2.069 -1.226 1.929 -1.942 1.444 -2.375 0.806 -2.577 -0.023 -2.42 -0.911 -2.027 -1.354 -1.241 -2.172 -0.847 -2.145 -0.178 -2.706 0.604 -1.822 0.997 -1.714 1.721 -1 1.86 -0.284 2.147 0.561 1.717 0.15 0.232 1.156 0.974" />
    <path class="write-flat-pen" fill="#FFFFFF" stroke-width="1.6" __comx="335.984" __comy="259.653" __timestamp="0x178b3653ef7" d="M327.534 259.688 l1.15 0.488 0.433 0.048 12.533 -0.953 0.059 -0.001 2.724 0.045 0.004 -0.037 -2.672 -0.527 -0.103 -0.018 -12.538 0.68 -0.294 -0.01 -1.149 -0.201" />
    <path class="write-flat-pen" fill="#FFFFFF" stroke-width="1.6" __comx="343.422" __comy="259.653" __timestamp="0x178b3654082" d="M343.248 258.445 l-1.13 -0.863 -0.139 -0.126 -1.036 -1.231 -0.066 -0.117 -0.401 -1.281 0 0 -0.538 0.721 0.03 0.013 5.704 1.86 0.037 0.056 -2.762 3.067 -1.81 1.839 0.029 0.041 2.419 -1.139 3.742 -3.737 -0.943 -1.17 -6.196 -1.861 -0.133 -0.005 -0.538 0.721 0 0 0.677 1.257 0.174 0.218 1.288 1.12 0.207 0.128 1.282 0.651" />
    <path class="write-flat-pen" fill="#FFFFFF" stroke-width="1.6" __comx="336.816" __comy="259.653" __timestamp="0x178b365426d" d="M336.308 259.405 l-1.274 -1.81 -0.076 -0.126 0 0 -0.735 -1.197 0 0 -0.602 0.827 3.977 1.274 1.148 0.757 0.29 0.721 -0.591 2.386 0.085 1.78 0.108 0.025 0.853 -1.541 0.804 -2.725 -0.589 -1.436 -1.602 -1.043 -4.165 -1.23 -0.602 0.827 0 0 0.869 1.098 0 0 0.106 0.139 1.504 1.668" />
    <path class="write-flat-pen" fill="#FFFFFF" stroke-width="1.6" __comx="358.883" __comy="259.653" __timestamp="0x178b36544e4" d="M352.097 267.29 l-0.061 -0.437 0.026 -0.023 0.551 -1.539 0.142 -0.347 3.898 -8.997 0.261 -0.615 0 0 2.862 -6.077 0 0 -1.285 -0.29 -0.106 4.535 0.619 4.332 1.274 4.238 1.772 3.735 1.237 1.52 1.319 0.516 0.355 -0.068 0.175 -0.103 1.186 -0.847 -0.02 -0.07 -1.456 -0.072 -0.093 -0.025 0.085 -0.045 -0.63 -0.438 -0.913 -1.148 -1.65 -3.481 -1.214 -4.029 -0.61 -4.109 0.016 -4.422 -1.285 -0.29 0 0 -2.759 6.15 0 0 -0.261 0.639 -3.654 9.124 -0.131 0.418 -0.306 1.702 0.006 0.239 0.372 0.46" />
    <path class="write-flat-pen" fill="#FFFFFF" stroke-width="1.6" __comx="357.844" __comy="259.653" __timestamp="0x178b36545cc" d="M351.046 262.156 l3.492 -0.926 7.194 -1.072 0.412 -0.07 2.732 -0.443 -0.006 -0.111 -2.763 -0.163 -0.45 -0.026 -7.336 0.873 -3.509 1.151" />
    <path class="write-flat-pen" fill="#FFFFFF" stroke-width="1.6" __comx="370.765" __comy="259.653" __timestamp="0x178b36546b4" d="M369.563 263.975 l0.618 1.426 0.123 0.306 0.701 2.505 0.074 4.996 -0.308 2.589 0.099 0.027 1.096 -2.501 -0.04 -5.256 -0.892 -2.641 -0.184 -0.36 -0.856 -1.323" />
    <path class="write-flat-pen" fill="#FFFFFF" stroke-width="1.6" __comx="396.761" __comy="259.653" __timestamp="0x178b365496e" d="M395.367 256.636 l1.712 -1.367 0.199 -0.155 1.756 -1.531 0.231 -0.283 0.855 -2.181 -0.099 -0.463 -0.918 -1.165 -2.089 -0.353 -2.857 0.593 -2.98 1.546 -2.163 1.863 -2.224 2.786 -1.544 3.049 -0.588 2.444 0.059 2.71 0.839 2.618 1.698 2.418 2.302 1.854 2.668 0.969 3.178 0.168 3.305 -0.711 3.159 -1.344 2.686 -1.783 2.034 -2.215 1.377 -2.395 0.859 -2.937 0.047 -2.298 -0.686 -2.236 -1.208 -1.797 -1.852 -1.456 -2.318 -0.658 -2.337 0.296 -2.698 1.483 -0.416 0.347 -0.944 1.002 -0.288 0.373 -0.24 0.357 -1.493 2.226 0.048 0.041 1.98 -1.807 0.306 -0.277 0.316 -0.272 1.026 -0.777 0.324 -0.206 2.486 -1.095 1.79 -0.147 1.718 0.537 1.405 1.128 0.934 1.397 0.541 1.765 -0.038 1.829 -0.746 2.551 -1.192 2.077 -1.781 1.945 -2.4 1.602 -2.882 1.239 -2.952 0.648 -2.741 -0.131 -2.214 -0.793 -1.944 -1.55 -1.456 -2.046 -0.72 -2.189 -0.067 -2.303 0.49 -2.096 1.388 -2.771 2.041 -2.57 1.934 -1.672 2.657 -1.398 2.419 -0.544 1.379 0.167 0.503 0.514 -0.021 -0.133 -0.452 1.819 -0.077 0.133 -1.508 1.663 -0.171 0.168 -1.539 1.567" />
    <path class="write-flat-pen" fill="#FFFFFF" stroke-width="1.6" __comx="403.801" __comy="259.653" __timestamp="0x178b3654ab9" d="M396.601 266.473 l-0.331 -0.356 0.011 0.212 0.901 -1.017 0.169 -0.102 1.466 -0.492 1.513 0.019 1.858 0.616 1.973 1.302 4.03 3.54 0.482 0.173 0.845 0.139 2.58 0.239 0.023 -0.1 -2.406 -0.907 -0.709 -0.304 -0.234 -0.137 -3.824 -3.656 -2.209 -1.439 -2.215 -0.704 -1.922 0.028 -1.767 0.704 -0.412 0.31 -0.938 1.499 -0.005 0.473 0.833 0.4" />
    <path class="write-flat-pen" fill="#FFFFFF" stroke-width="1.6" __comx="425.746" __comy="259.653" __timestamp="0x178b3654ce7" d="M417.08 258.681 l-0.289 0.49 1.225 0.014 0.42 -0.03 5.457 -0.199 7.227 0.85 0.462 0.098 0.457 0.083 2.691 0.491 0.028 -0.105 -2.581 -0.904 -0.432 -0.152 -0.485 -0.172 -7.323 -1.146 -5.564 0.308 -0.442 0.06 -1.196 0.264 0.247 0.588" />
    <path class="write-flat-pen" fill="#FFFFFF" stroke-width="1.6" __comx="433.123" __comy="259.653" __timestamp="0x178b3654ec7" d="M433.225 258.182 l-1.446 -0.377 -0.144 -0.074 -1.419 -1.172 -0.086 -0.12 -0.402 -0.773 -0.104 0.267 4.322 0.413 1.871 0.559 0.519 0.581 0.033 0.432 -1.088 1.429 -0.071 0.089 -1.744 1.629 0.048 0.078 2.232 -0.844 0.246 -0.109 1.786 -1.814 -0.153 -1.466 -1.087 -1.162 -2.353 -0.683 -5.175 -0.351 -0.537 0.963 0.936 1.305 0.217 0.229 1.72 1.066 0.285 0.088 1.548 0.111" />
    <path class="write-flat-pen" fill="#FFFFFF" stroke-width="1.6" __comx="425.134" __comy="259.653" __timestamp="0x178b36550cf" d="M423.94 258.777 l-0.536 -0.907 -0.036 -0.051 -1.023 -1.473 -0.095 -0.161 0 0 -0.57 -1.222 0 0 -0.622 0.756 4.407 1.46 1.887 1.045 0.687 0.907 0.345 2.34 0.318 1.292 0.173 0.022 0.645 -1.312 -0.293 -2.827 -1.059 -1.37 -2.224 -1.217 -4.569 -1.347 -0.622 0.756 0 0 0.734 1.189 0 0 0.165 0.215 1.266 1.331 0.041 0.037 0.737 0.73" />
    <path class="write-flat-pen" fill="#FFFFFF" stroke-width="1.6" __comx="443.089" __comy="259.653" __timestamp="0x178b3655220" d="M443.146 249.366 l-0.096 1.959 -0.013 0.456 -0.305 8.716 -0.045 0.683 -0.306 3.874 0.79 -0.02 -0.059 -0.061 -0.061 -0.154 -0.293 -0.868 -0.043 0.001 -0.25 0.881 -0.052 0.204 -0.029 0.124 0.79 -0.02 0.558 -3.874 0.037 -0.732 0.026 -8.751 -0.019 -0.47 -0.169 -1.959" />
    <path class="write-flat-pen" fill="#FFFFFF" stroke-width="1.6" __comx="446.592" __comy="259.653" __timestamp="0x178b3655447" d="M443.116 250.085 l1.417 -1.258 0.159 -0.085 1.982 -0.837 2.046 -0.256 1.062 0.322 0.586 0.598 0.267 0.971 -0.384 1.766 -0.935 1.696 -1.198 1.19 0 0 -2.012 0.755 0 0 0.229 1.248 1.936 -0.017 2.999 0.77 2.028 1.027 1.007 1.072 0.301 0.954 -0.21 1.228 -1.102 1.508 -1.917 1.332 -2.42 0.87 -2.749 0.399 -5.109 -0.141 -0.223 -0.008 -0.907 -0.057 -2.759 -0.189 -0.018 0.079 2.574 1.044 0.901 0.313 0.308 0.07 5.303 0.398 3.048 -0.444 2.742 -1.011 2.261 -1.614 1.4 -2.008 0.261 -1.891 -0.543 -1.527 -1.386 -1.41 -2.345 -1.179 -3.287 -0.847 -2.097 -0.008 0.229 1.248 0 0 2.269 -0.858 0 0 1.517 -1.52 1.107 -2.021 0.483 -2.252 -0.44 -1.586 -1.045 -1.06 -1.631 -0.483 -2.482 0.347 -2.17 1.008 -0.336 0.209 -1.321 1.558" />
    <path class="write-flat-pen" fill="#FFFFFF" stroke-width="1.6" __comx="160.992" __comy="315.037" __timestamp="0x178b3655741" d="M150.027 315.145 l1.053 -0.327 0.344 -0.017 17.503 -1.285 0.603 -0.1 2.637 -0.438 -0.006 -0.061 -2.673 0.05 -0.604 0.011 -17.524 1.018 -0.481 0.057 -1.066 0.618" />
    <path class="write-flat-pen" fill="#FFFFFF" stroke-width="1.6" __comx="162.668" __comy="315.037" __timestamp="0x178b3655840" d="M153.252 320.425 l-0.627 -0.03 0 0 0.05 0.617 1.933 -0.036 0.649 -0.048 14.149 -2.046 0.756 -0.215 2.553 -0.724 -0.02 -0.102 -2.637 0.299 -0.761 0.084 -14.144 1.798 -0.625 0.072 -1.907 0.302 0.05 0.617 0 0 0.616 -0.122" />
    <path class="write-flat-pen" fill="#FFFFFF" stroke-width="1.6" __comx="171.687" __comy="315.037" __timestamp="0x178b3655a6d" d="M171.819 314.575 l-2.613 -2.205 -0.312 -0.258 -4.372 -3.308 0.007 0.003 0 0 -0.4 -0.5 0 0 -0.192 0.977 0.297 -0.124 5.766 1.372 7.625 0.459 0.923 0.345 0.275 0.455 -0.154 1.341 0.002 -0.021 -4.745 9.745 0.895 0.634 0.011 -0.08 0.039 -0.12 0.352 -0.88 -0.069 -0.073 -0.898 0.302 -0.138 0.048 -0.096 0.031 0.895 0.634 5.06 -9.855 0.002 -0.021 0.22 -1.991 -0.755 -1.237 -1.542 -0.575 -7.708 -0.476 -6.129 -1.426 -0.703 0.385 -0.192 0.977 0 0 0.532 0.578 0 0 0.112 0.078 4.518 3.071 0.311 0.229 2.783 1.988" />
    <path class="write-flat-pen" fill="#FFFFFF" stroke-width="1.6" __comx="192.481" __comy="315.037" __timestamp="0x178b3655d02" d="M188.554 308.497 l-1.744 -0.459 0.229 0.252 0.121 -0.096 2.014 -0.722 3.809 -0.639 2.674 0.048 1.055 0.481 0.799 0.945 0.552 1.767 0.855 14.928 -0.19 0.852 -0.645 0.386 -6.76 0.719 -5.722 1.478 0.233 0.456 -0.114 -0.175 -0.072 -1.21 -0.069 -0.019 -0.69 1.079 -0.184 0.577 0.329 0.619 6.528 -1.406 6.984 -0.773 1.398 -0.884 0.314 -1.604 -0.988 -15.248 -0.687 -2.136 -1.134 -1.328 -1.525 -0.692 -3.034 -0.047 -4.026 0.713 -2.473 1.022 -0.402 1.053 0.355 0.402 2.097 0.261" />
    <path class="write-flat-pen" fill="#FFFFFF" stroke-width="1.6" __comx="194.576" __comy="315.037" __timestamp="0x178b3655deb" d="M188.5 318.149 l4.517 -1.411 5.26 -1.29 2.627 -0.705 -0.013 -0.084 -2.732 0.146 -5.412 0.943 -4.499 1.659" />
    <path class="write-flat-pen" fill="#FFFFFF" stroke-width="1.6" __comx="219.313" __comy="315.037" __timestamp="0x178b36562bf" d="M214.024 320.609 l0.723 5.299 0.025 0.253 -0.106 1.528 0.419 -0.36 0.14 0.007 -0.854 -2.069 -0.118 -0.342 -0.825 -3.827 -0.366 -4.62 0.133 -7.841 0.493 -2.785 0.554 -1.091 0.687 -0.472 1.218 -0.117 2.917 0.802 3.72 1.696 1.88 1.332 0.107 0.094 0.131 0.136 1.816 1.928 0.069 -0.046 -1.083 -2.417 -0.089 -0.194 -0.158 -0.264 -1.953 -1.736 -3.964 -1.838 -3.276 -0.893 -1.828 0.188 -1.257 0.884 -0.784 1.586 -0.508 3.089 -0.051 8.005 0.444 4.755 0.971 3.947 0.175 0.445 1.291 2.343 0.248 0.025 0.419 -0.36 -0.15 -1.553 -0.05 -0.284 -0.984 -5.261" />
    <path class="write-flat-pen" fill="#FFFFFF" stroke-width="1.6" __comx="215.603" __comy="315.037" __timestamp="0x178b36563a9" d="M207.056 318.978 l-0.229 0.519 1.282 -0.015 0.448 -0.053 13.247 -2.343 2.639 -0.514 -0.007 -0.073 -2.708 0.014 -13.305 2.092 -0.425 0.085 -1.235 0.289 0.292 0.519" />
    <path class="write-flat-pen" fill="#FFFFFF" stroke-width="1.6" __comx="220.723" __comy="315.037" __timestamp="0x178b3656697" d="M209.912 298.564 l-0.481 -1.973 0.004 0.009 0.049 -0.996 0.591 -1.115 1.184 -0.932 1.743 -0.602 2.371 -0.001 5.765 1.464 2.704 0.198 2.287 -0.389 4.42 -2.487 0.257 -0.26 1.939 -2.017 -0.064 -0.081 -2.408 1.424 -0.244 0.136 -4.296 2.121 -1.952 0.337 -2.458 -0.164 -5.824 -1.382 -2.688 0.057 -2.054 0.775 -1.421 1.237 -0.637 1.52 0.1 1.234 0.019 0.078 0.755 1.919" />
    <path class="write-flat-pen" fill="#FFFFFF" stroke-width="1.6" __comx="235.492" __comy="315.037" __timestamp="0x178b3656846" d="M235.624 326.92 l-0.395 0.809 0 0 0.471 -0.009 -0.356 -0.591 -0.238 -1.413 -0.066 0.003 -0.108 1.517 0.301 0.717 0.471 -0.009 0 0 0.348 -0.83" />
    <path class="write-flat-pen" fill="#FFFFFF" stroke-width="1.6" __comx="237.628" __comy="315.037" __timestamp="0x178b36568ef" d="M237.889 305.55 l-0.062 -2.588 0.318 -1.946 -0.074 -0.025 -0.959 1.866 0.117 2.715" />
    <path class="write-flat-pen" fill="#FFFFFF" stroke-width="1.6" __comx="322.705" __comy="268.071" __timestamp="0x178b36572e6" d="M323.772 267.291 l0.138 0.352 -0.016 -0.001 -0.398 1.55 -0.086 0.178 -0.725 1.125 -0.522 0.246 -0.05 -0.05 -0.038 -0.281 0.353 -0.668 0.467 -0.239 0.215 0.068 0.12 0.255 -0.136 0.442 -0.257 0.151 0.229 0.068 0.009 -0.021 0.378 -0.378 0 0 -1.149 -0.352 0.258 0.703 0.862 1.027 0.128 -0.043 0.095 -1.269 -0.008 -0.676 -1.149 -0.352 0 0 -0.765 0.765 -0.024 1.549 1.321 0.442 1.19 -0.807 0.355 -1.393 -0.607 -1.154 -1.208 -0.334 -1.232 0.665 -0.682 1.395 0.297 1.275 1.12 0.396 1.144 -0.718 0.756 -1.479 0.11 -0.321 0.155 -1.747 -0.039 -0.222 -0.433 -0.302" />
    <path class="write-flat-pen" fill="#FFFFFF" stroke-width="1.6" __comx="414.801" __comy="272.575" __timestamp="0x178b3657702" d="M412.595 273.741 l1.757 -0.024 -0.015 0.017 0.437 0.586 -0.037 -0.11 -0.112 0.232 0.244 -0.118 -0.336 -0.57 -0.026 -0.914 0.275 -0.474 0.135 -0.043 0.087 0.073 0.013 0.354 -0.28 0.344 -0.237 0.044 -0.015 -0.022 0.012 -0.139 0.522 -0.541 0.514 -0.143 0.05 0.01 0.11 0.606 0.02 0.028 -0.206 0.403 -0.129 0.199 -1.161 1.674 0.048 0.05 1.72 -1.091 0.252 -0.166 0.445 -0.414 0.239 -0.358 0.115 -1.817 -1.34 -0.702 -1.46 0.399 -1.191 1.231 -0.074 1.507 1.231 0.855 1.374 -0.344 0.876 -1.209 -0.157 -1.53 -1.217 -0.788 -1.216 0.478 -0.659 1.232 0.124 1.626 1.077 1.446 1.112 -0.359 0.137 -1.072 -0.09 -0.331 -0.994 -0.73 -0.246 0.021 -1.753 0.298" />
    <path class="write-flat-pen" fill="#FFFFFF" stroke-width="1.6" __comx="250.541" __comy="321.226" __timestamp="0x178b3657d0f" d="M249.48 310.566 l-0.428 -0.163 0.289 1.67 0.084 0.436 1.459 8.102 0.058 0.783 0.055 2.781 -0.575 3.95 -0.331 0.694 -1.066 1.686 0.039 0.038 1.71 -1.187 0.648 -0.86 0.633 -4.255 -0.085 -2.9 -0.076 -0.869 -1.741 -8.118 -0.121 -0.449 -0.56 -1.61 -0.428 0.272" />
    <path class="write-flat-pen" fill="#FFFFFF" stroke-width="1.6" __comx="255.691" __comy="321.226" __timestamp="0x178b3657e97" d="M249.271 312.026 l-1.083 -1.58 -0.006 -0.065 0.06 -1.19 0.728 -1.52 1.307 -1.286 1.896 -1.013 2.411 -0.553 2.482 0.008 2.591 0.63 1.6 0.891 1.04 1.198 0.582 1.573 -0.075 2.003 -0.691 1.861 -1.176 1.518 -1.74 1.181 -3.542 0.885 -2.595 0.73 0.005 0.077 2.766 0.358 3.885 -0.864 2.106 -1.421 1.426 -1.831 0.83 -2.24 0.089 -2.464 -0.758 -2.028 -1.344 -1.536 -1.948 -1.076 -2.904 -0.685 -2.769 0.005 -2.705 0.639 -2.178 1.202 -1.533 1.596 -0.81 1.946 0.067 1.54 0.117 0.344 1.404 1.538" />
    <path class="write-flat-pen" fill="#FFFFFF" stroke-width="1.6" __comx="265.251" __comy="321.226" __timestamp="0x178b3658122" d="M266.029 326.66 l-1.673 2.514 -0.027 0.04 -0.508 0.53 -0.409 0.021 -0.035 -0.077 0.1 -0.424 0.524 -0.413 0.64 -0.007 0.547 0.457 0.181 0.704 -0.211 0.633 -0.302 0.183 -0.071 -0.043 -0.115 -0.397 0.224 -0.622 0.578 -0.471 1.169 -0.008 1.545 0.583 0.069 -0.084 -1.171 -1.625 -2.042 -0.22 -1.271 1.03 -0.493 1.391 0.451 1.41 1.295 0.492 1.193 -0.853 0.387 -1.392 -0.406 -1.374 -1.164 -0.939 -1.444 0.041 -1.116 0.928 -0.228 1.32 0.763 0.86 1.294 -0.242 0.716 -0.909 0.055 -0.104 1.428 -2.65" />
    <path class="write-flat-pen" fill="#FFFFFF" stroke-width="1.6" __comx="289.936" __comy="321.226" __timestamp="0x178b3658246" d="M281.125 317.873 l1.014 0.094 0.277 0.029 7.628 0.567 6.03 0.648 2.676 0.162 0.016 -0.103 -2.604 -0.646 -6.009 -1.116 -7.694 -0.376 -0.319 0.005 -1.036 0.166" />
    <path class="write-flat-pen" fill="#FFFFFF" stroke-width="1.6" __comx="301.206" __comy="321.226" __timestamp="0x178b365846a" d="M297.908 317.331 l-1.93 -0.366 0.104 0.048 -0.997 -1.866 0.009 0.001 0.165 -0.7 0.308 -0.217 1.102 0.061 9.023 2.983 1.127 0.723 0.192 0.485 -0.223 1.3 -0.744 1.5 -0.564 1.962 0.106 0.066 1.541 -1.393 0.997 -1.677 0.298 -1.93 -0.534 -1.224 -1.631 -1.016 -9.365 -3.035 -1.736 -0.04 -0.971 0.813 -0.195 1.299 0.052 0.398 1.481 2.116 0.224 0.109 2.103 0.106" />
    <path class="write-flat-pen" fill="#FFFFFF" stroke-width="1.6" __comx="323.004" __comy="321.226" __timestamp="0x178b365872b" d="M324.234 312.012 l0.368 -0.623 0.047 -0.153 0.047 -0.834 -0.101 -0.293 -1.166 -1.049 -0.491 -0.113 -1.899 0.112 -2.408 0.936 -2.424 1.768 -1.892 2.274 -1.142 2.629 -0.347 2.159 0.315 2.406 1.097 2.413 1.728 2.117 2.08 1.561 2.4 0.881 2.702 0.128 2.727 -0.686 2.472 -1.31 2.119 -1.896 1.756 -2.804 0.838 -2.865 0.124 -2.817 -0.54 -2.337 -1.399 -2.631 -1.609 -1.7 -1.7 -0.952 -1.844 -0.244 -2.834 1.134 -0.378 0.291 -1.002 1.146 -0.205 0.333 -0.15 0.294 -1.158 2.29 0.04 0.027 1.721 -1.903 0.208 -0.227 0.213 -0.212 1.075 -0.834 0.196 -0.106 2.422 -0.731 1.198 0.196 1.244 0.714 1.302 1.387 1.204 2.272 0.449 1.936 -0.099 2.424 -0.72 2.488 -1.518 2.453 -1.816 1.643 -2.146 1.159 -2.341 0.611 -2.267 -0.091 -1.999 -0.726 -1.779 -1.327 -1.511 -1.836 -0.944 -2.053 -0.264 -1.998 0.283 -1.787 0.989 -2.29 1.652 -1.999 2.134 -1.595 2.051 -0.87 1.54 -0.206 0.088 -0.001 0.945 0.542 0.003 -0.043 0.177 0.617 0.012 0.045 -0.097 0.675" />
    <path class="write-flat-pen" fill="#FFFFFF" stroke-width="1.6" __comx="330.567" __comy="321.226" __timestamp="0x178b36588cc" d="M321.549 324.886 l-0.214 -1.454 0.54 -1.293 1.317 -1.465 2.198 -1.42 1.6 -0.536 1.641 0.07 1.199 0.672 0.982 1.205 1.786 3.875 1.315 1.673 3.534 1.291 0.387 0.001 0.282 -0.035 2.564 -0.332 0.001 -0.053 -2.556 -0.387 -0.248 -0.04 -0.213 -0.052 -3.019 -1.363 -1.03 -1.322 -1.787 -3.887 -1.216 -1.501 -1.646 -0.924 -2.148 -0.088 -1.948 0.674 -2.416 1.647 -1.45 1.792 -0.546 1.731 0.4 1.657" />
    <path class="write-flat-pen" fill="#FFFFFF" stroke-width="1.6" __comx="344.564" __comy="321.226" __timestamp="0x178b3658b15" d="M344.813 326.912 l0.997 0.039 -0.078 -0.025 0.346 0.524 -0.093 0.75 -0.529 0.732 -0.924 0.462 -0.713 -0.093 -0.384 -0.395 -0.071 -0.858 0.309 -0.679 0.405 -0.205 0.192 0.123 0.139 0.433 0.005 -0.025 -0.483 0.177 -0.887 0.073 -0.025 0.046 0.692 0.943 1.481 -0.008 0.628 -1.069 -0.524 -1.411 -1.171 -0.697 -1.398 0.727 -0.603 1.371 0.167 1.608 1.005 0.968 1.467 0.129 1.436 -0.802 0.773 -1.217 0.034 -1.377 -0.776 -0.869 -0.289 -0.121 -1.176 0.258" />
    <path class="write-flat-pen" fill="#FFFFFF" stroke-width="1.6" __comx="395.174" __comy="321.226" __timestamp="0x178b3658ed5" d="M388.496 318.063 l-0.326 -0.551 -0.419 -0.017 -1.104 1.045 -0.194 0.417 -1.444 5.253 -0.055 0.604 0.1 2.587 0.656 1.933 1.139 0.853 1.826 -0.005 2.09 -1.036 2.729 -2.268 3.187 -3.646 2.396 -3.575 0.478 -1.655 0 0 -0.552 -0.574 0 0 -1.067 0.172 -0.756 1.513 -0.336 2.774 0.371 2.404 1.028 1.96 1.224 0.888 1.587 0.173 2.396 -1.472 0.305 -0.351 0.434 -0.655 1.202 -2.158 -0.049 -0.037 -1.757 1.708 -0.538 0.488 -0.221 0.172 -2.029 0.96 -0.808 -0.134 -0.67 -0.506 -0.772 -1.476 -0.318 -1.99 0.264 -2.361 0.629 -1.318 -1.067 0.172 0 0 0.029 0.02 0 0 -0.206 0.729 -2.228 3.342 -3.059 3.512 -2.529 2.117 -1.69 0.855 -1.122 0.019 -0.515 -0.369 -0.507 -1.407 -0.151 -2.343 0.025 -0.441 1.147 -5.163 0.087 -0.246 0.817 -1.122 -0.419 -0.017 0.436 0.469" />
    <path class="write-flat-pen" fill="#FFFFFF" stroke-width="1.6" __comx="408.732" __comy="321.226" __timestamp="0x178b3659061" d="M406.189 318.952 l-0.312 2.352 -0.036 0.309 -0.459 3.259 -0.04 0.295 0 0 -0.101 1.329 0 0 1.135 0.273 2.785 -5.703 0.737 -0.92 -0.02 0.003 0.431 0.68 0.505 2.806 0.145 3.902 0.674 2.681 0.069 -0.003 0.477 -2.709 0.048 -4.014 -0.63 -3.185 -1 -1.501 -1.343 0.011 -1.227 1.54 -2.729 5.9 1.135 0.273 0 0 -0.026 -1.293 0 0 0.017 -0.26 0.19 -3.299 0.009 -0.319 0.057 -2.369" />
    <path class="write-flat-pen" fill="#FFFFFF" stroke-width="1.6" __comx="416.869" __comy="321.226" __timestamp="0x178b3659124" d="M417.486 321.754 l-0.771 2.296 -0.088 0.311 -0.867 2.916 0.231 0.064 -0.334 0.242 -0.007 0.092 0.291 0.291 0.322 0.071 1.243 -3.416 0.081 -0.34 0.5 -2.363" />
    <path class="write-flat-pen" fill="#FFFFFF" stroke-width="1.6" __comx="420.466" __comy="321.226" __timestamp="0x178b36591bb" d="M420.76 313.063 l-0.717 0.738 -0.389 1.463 0.043 0.022 0.901 -1.074 0.681 -0.61" />
    <path class="write-flat-pen" fill="#FFFFFF" stroke-width="1.6" __comx="425.677" __comy="321.226" __timestamp="0x178b36593eb" d="M427.566 321.077 l-0.168 -1.687 -0.092 -0.26 -0.75 -1.113 -1.595 -0.9 -1.782 -0.163 -1.761 0.64 -1.321 1.342 -0.969 2.078 -0.279 2.248 0.409 1.369 1.127 1.031 1.499 0.123 1.804 -0.881 0 0 2.581 -2.712 0 0 -0.987 -0.491 -1.167 6.881 0.049 2.626 0.965 1.171 1.583 0.105 1.539 -0.837 1.852 -2.058 2.101 -4.496 0.051 -0.266 0.029 -0.311 0.22 -2.783 -0.148 -0.034 -1.029 2.592 -0.111 0.271 -0.057 0.132 -2.214 4.106 -1.565 1.751 -0.982 0.556 -0.626 -0.019 -0.335 -0.368 -0.092 -2.057 1.076 -6.776 -0.987 -0.491 0 0 -2.436 2.566 0 0 -1.334 0.66 -0.801 -0.06 -0.616 -0.554 -0.26 -0.845 0.214 -1.846 0.8 -1.761 1.014 -1.049 1.315 -0.503 1.357 0.076 1.294 0.618 0.695 0.793 0.054 0.093 0.406 1.568" />
    <path class="write-flat-pen" fill="#FFFFFF" stroke-width="1.6" __comx="444.227" __comy="321.226" __timestamp="0x178b365966c" d="M434.635 319.745 l-0.633 0.523 -0.121 0.263 -0.854 3.364 -0.037 0.343 0.066 1.333 0.865 1.185 1.437 -0.135 1.792 -1.471 2.079 -2.85 0 0 1.107 -2.588 0 0 -1.238 -0.385 -0.273 1.255 0.477 1.641 1.083 1.015 1.645 0.468 2.25 -0.4 1.978 -1.232 1.526 -1.858 0.661 -1.781 -0.366 -1.209 -1.381 -0.383 -1.406 0.986 -1.454 2.374 -0.62 2.306 0.254 1.462 1.004 1.298 1.863 0.852 3.854 -0.223 0.632 -0.186 1.161 -0.44 0.549 -0.246 0.563 -0.289 2.367 -1.216 -0.027 -0.071 -2.58 0.651 -0.602 0.15 -0.554 0.133 -1.165 0.249 -0.499 0.083 -3.406 -0.025 -1.239 -0.578 -0.579 -0.739 -0.147 -0.805 0.472 -1.811 1.191 -1.954 0.627 -0.434 -0.005 0.003 0.002 0.014 -0.416 1.113 -1.228 1.496 -1.549 0.97 -1.666 0.309 -1.018 -0.276 -0.575 -0.523 -0.301 -0.954 0.172 -0.932 -1.238 -0.385 0 0 -1.037 2.456 0 0 -1.901 2.594 -1.358 1.129 -0.333 0.044 -0.241 -0.297 -0.071 -0.87 0.012 -0.182 0.559 -3.283 0.005 -0.063 0.328 -0.582" />
    <path class="write-flat-pen" fill="#FFFFFF" stroke-width="1.6" __comx="472.523" __comy="321.226" __timestamp="0x178b3659936" d="M466.822 319.649 l-1.014 0.72 -0.15 0.285 -0.974 3.091 -0.045 0.315 0.12 1.551 0.954 0.95 1.716 -0.229 1.802 -1.116 4.022 -3.826 0.264 -0.095 0.003 0.01 0.001 3.299 0.586 1.865 1.225 1.128 1.672 0.143 2.072 -1.37 0.198 -0.285 0.202 -0.41 0.929 -2.184 -0.04 -0.027 -1.67 1.665 -0.29 0.27 -0.094 0.056 -1.638 0.819 -0.728 -0.067 -0.592 -0.535 -0.427 -1.296 -0.075 -3.515 -0.852 -1.156 -1.459 0.536 -4.108 3.948 -1.45 0.934 -0.864 0.158 -0.265 -0.208 -0.144 -1.005 0.008 -0.125 0.668 -3.025 0.03 -0.098 0.719 -0.822" />
    <path class="write-flat-pen" fill="#FFFFFF" stroke-width="1.6" __comx="483.709" __comy="321.226" __timestamp="0x178b3659af7" d="M481.052 329.969 l-0.565 3.161 -0.054 0.269 -0.584 1.43 0.764 -0.166 0.088 0.07 0.272 -3.844 0.066 -0.736 0.49 -5.455 0.739 -3.172 1.049 -2.393 0.757 -0.668 0.807 -0.121 0.66 0.27 0.591 0.811 0.153 1.318 -0.394 1.623 -1.04 1.794 -1.141 1.004 -1.164 0.473 -0.634 -0.097 0.002 0.356 -0.052 -0.197 0.018 -1.31 -0.069 -0.024 -0.82 1.07 -0.2 0.382 0.029 0.6 1.772 0.724 1.87 -0.771 1.48 -1.321 1.239 -2.171 0.483 -2.057 -0.239 -1.909 -1.031 -1.395 -1.352 -0.547 -1.557 0.24 -1.267 1.126 -1.191 2.783 -0.756 3.382 -0.45 5.55 -0.054 0.767 -0.017 4.254 0.19 0.184 0.764 -0.166 0.331 -1.554 0.036 -0.323 0.29 -3.203" />
    <path class="write-flat-pen" fill="#FFFFFF" stroke-width="1.6" __comx="498.711" __comy="321.226" __timestamp="0x178b3659c41" d="M499.202 307.229 l-0.991 -0.026 -0.191 0.208 -0.44 1.276 -0.043 0.53 0.208 3.917 0.104 0.823 -0.002 -0.013 1.215 13.096 0.821 0.015 -0.047 -0.085 -0.277 -0.519 -0.038 -0.004 -0.391 0.439 -0.066 0.071 0.821 0.015 -0.962 -13.15 -0.002 -0.013 -0.13 -0.797 -0.468 -3.82 -0.02 -0.41 0.152 -1.16 -0.018 -0.011 0.784 -0.211" />
    <path class="write-flat-pen" fill="#FFFFFF" stroke-width="1.6" __comx="500.108" __comy="321.226" __timestamp="0x178b3659d0c" d="M492.745 319.928 l3.035 -0.233 0.39 -0.007 6.568 0.116 0.587 -0.014 1.487 -0.063 2.767 -0.143 0.004 -0.091 -2.741 -0.405 -1.476 -0.201 -0.589 -0.068 -6.61 -0.346 -0.483 0.026 -3.051 0.507" />
    <path class="write-flat-pen" fill="#FFFFFF" stroke-width="1.6" __comx="507.765" __comy="321.226" __timestamp="0x178b3659e76" d="M511.814 319.285 l-1.072 -0.291 -0.135 -0.043 -1.638 -0.423 -0.302 -0.036 -1.85 0.355 -1.659 1.367 -1.025 1.817 -0.543 2.329 0.146 2.22 0.769 1.206 1.223 0.523 1.418 -0.255 1.684 -1.144 1.844 -2.216 1.087 -2.312 0.182 -1.894 -0.547 -1.745 -1.074 -0.99 -1.612 0.267 -0.263 0.323 -0.081 0.39 0.004 1.388 0.049 0.016 0.814 -1.065 0.146 -0.109 -0.124 0.173 0.556 0.081 0.311 0.319 0.34 1.105 -0.126 1.353 -0.89 1.925 -1.582 1.938 -1.264 0.887 -0.723 0.149 -0.473 -0.185 -0.381 -0.563 -0.15 -1.694 0.415 -1.987 0.794 -1.505 1.235 -1.137 1.422 -0.424 0.122 -0.004 1.633 0.153 0.15 0.015 1.128 0.019" />
    <path class="write-flat-pen" fill="#FFFFFF" stroke-width="1.6" __comx="528.213" __comy="321.226" __timestamp="0x178b365a0b9" d="M525.411 309.127 l-0.964 -1.129 -1.046 0.842 1.759 13.277 0.023 0.646 -0.154 3.046 0 0 -0.509 1.338 0 0 1.176 -0.242 -0.353 -0.403 -0.152 -1.655 0.544 -2.18 0.938 -1.772 1.055 -0.979 1.179 -0.469 1.039 0.161 0.746 0.583 0.611 1.35 0.219 1.995 -0.486 2.39 0.631 -0.028 -0.031 0.169 -0.716 -0.508 -0.055 0.029 0.054 0.957 0.278 0.54 0.812 -0.05 1.014 -3.392 -0.284 -2.499 -0.865 -1.89 -1.336 -1.03 -1.803 -0.274 -1.797 0.716 -1.434 1.331 -1.132 2.146 -0.649 2.59 0.228 2.393 0.717 0.739 1.176 -0.242 0 0 0.534 -1.549 0 0 0.128 -3.312 -0.037 -0.769 -1.964 -12.737 -0.142 0.074 0.42 0.371" />
    <path class="write-flat-pen" fill="#FFFFFF" stroke-width="1.6" __comx="539.43" __comy="321.226" __timestamp="0x178b365a19f" d="M539.076 309.594 l0.22 7.297 -0.057 0.838 -0.768 8.885 0.835 -0.125 -0.047 -0.002 -0.073 -0.084 -0.429 -0.711 -0.059 0.01 -0.172 0.812 -0.026 0.193 0.003 0.118 0.835 -0.125 1.007 -8.885 0.043 -0.92 -0.502 -7.341" />
    <path class="write-flat-pen" fill="#FFFFFF" stroke-width="1.6" __comx="539.869" __comy="321.226" __timestamp="0x178b365a26d" d="M534.096 317.637 l0.646 0.248 0.178 0.025 3.997 0.266 3.615 0.464 0.363 0.037 2.739 0.29 0.01 -0.042 -2.589 -0.938 -0.36 -0.13 -3.648 -0.88 -4.099 0.007 -0.108 0.017 -0.62 0.003" />
    <path class="write-flat-pen" fill="#FFFFFF" stroke-width="1.6" __comx="550.557" __comy="321.226" __timestamp="0x178b365a342" d="M547.367 316.126 l-0.036 1.544 0.066 0.367 1.097 2.977 2.606 3.174 0.353 0.103 0.269 0.02 2.052 0.123 0.007 -0.032 -1.91 -0.76 -0.198 -0.084 -0.064 -0.057 -2.192 -3.012 -1.148 -2.717 -0.063 -0.223 -0.221 -1.459" />
    <path class="write-flat-pen" fill="#FFFFFF" stroke-width="1.6" __comx="551.178" __comy="321.226" __timestamp="0x178b365a3fa" d="M555.689 316.213 l-0.715 0.975 -0.232 0.351 -1.963 3.077 -0.387 0.653 -5.637 12.046 -0.557 2.787 0.088 0.035 1.472 -2.39 5.654 -11.951 0.332 -0.623 1.737 -3.207 0.181 -0.382 0.496 -1.096" />
    <path class="write-flat-pen" fill="#FFFFFF" stroke-width="1.6" __comx="494.948" __comy="116.139" __timestamp="0x178b3675c50" d="M495.478 116.252 l-0.94 0.262 -0.301 0.871 0 0 0.619 0.214 0.101 -0.619 0.015 -0.25 0.077 -1.397 -0.06 -0.011 -0.41 1.337 -0.066 0.207 -0.279 0.525 0.619 0.214 0 0 0.213 -0.555 0.595 -0.261" />
    <path class="write-flat-pen" fill="#FFFFFF" stroke-width="1.6" __comx="493.339" __comy="99.144" __timestamp="0x178b3675cdd" d="M493.464 101.598 l-0.389 -2.151 0.292 -1.161 0.819 -1.423 -0.066 -0.051 -1.225 1.239 -0.403 1.383 0.612 2.246" />
    <path class="write-flat-pen" fill="#FFFFFF" stroke-width="1.6" __comx="536.806" __comy="108.823" __timestamp="0x178b3676736" d="M538.699 105.723 l-0.094 -1.146 -0.008 -0.159 -0.422 -0.98 -0.416 -0.146 -2.425 0.846 -0.157 0.104 -0.944 0.827 -0.125 1.127 4.065 2.108 1.112 0.897 0.524 0.94 0.09 1.007 -0.361 1.186 -1.062 1.418 -1.159 0.807 -1.569 0.48 -0.912 -0.078 -0.79 -0.415 -0.282 -0.525 -0.27 0.216 0.124 -0.15 0.939 -0.721 -0.03 -0.088 -1.208 0.015 -0.392 0.063 -0.41 0.347 0.464 1.743 1.485 0.787 1.427 0.11 1.992 -0.635 1.472 -1.058 1.282 -1.771 0.457 -1.621 -0.163 -1.473 -0.761 -1.335 -1.373 -1.106 -3.496 -1.794 -0.015 0.058 0.551 -0.513 -0.001 -0.001 1.956 -0.907 -0.169 -0.069 0.399 0.488 0.017 0.057 0.315 1.124" />
    <path class="write-flat-pen" fill="#FFFFFF" stroke-width="1.6" __comx="542.122" __comy="108.823" __timestamp="0x178b3676aa8" d="M538.199 95.806 l-0.237 0.684 0.001 0.236 0.663 3.461 0.148 0.524 1.163 4.484 0 0 0.542 0.724 0 0 0.83 -0.074 0.446 -0.818 0 0 0.289 -4.023 -0.95 0.258 1.338 1.981 1.679 1.179 2.116 0.559 0.055 -0.116 -1.69 -1.236 -1.373 -1.135 -1.265 -1.821 -0.95 0.258 -0.251 3.81 0 0 -0.322 0.64 0.83 -0.074 0 0 -0.454 -0.55 0 0 -1.233 -4.278 -0.16 -0.501 -0.872 -3.337 -0.021 -0.12 0.011 -0.656" />
    <path class="write-flat-pen" fill="#FFFFFF" stroke-width="1.6" __comx="551.399" __comy="108.823" __timestamp="0x178b3676bf3" d="M547.536 111.239 l1.183 0.034 0.212 -0.003 4.171 -0.684 2.188 -0.74 -0.019 -0.095 -2.293 0.157 -4.123 0.685 -0.177 0.019 -1.171 0.185" />
    <path class="write-flat-pen" fill="#FFFFFF" stroke-width="1.6" __comx="551.671" __comy="108.823" __timestamp="0x178b3676cc7" d="M549.698 107.224 l0.618 2.445 0.138 0.361 1.549 3.039 1.572 1.589 0.07 -0.054 -1.107 -1.868 -1.407 -3.005 -0.124 -0.302 -0.826 -2.35" />
    <path class="write-flat-pen" fill="#FFFFFF" stroke-width="1.6" __comx="563.585" __comy="108.823" __timestamp="0x178b3676ee6" d="M563.626 106.196 l-0.568 -1.054 -0.273 -0.123 -1.308 -0.098 -1.114 0.594 -0.627 1.004 0.09 1.218 0.954 1.123 3.985 2.277 1.087 1.052 0.52 1.109 0.051 1.274 -0.402 1.079 -0.767 0.82 -1.115 0.54 -1.293 0.123 -0.962 -0.275 -0.796 -0.644 -0.505 -0.839 -0.052 -0.117 -0.018 -0.048 -0.62 -1.841 -0.087 0.009 -0.251 1.926 -0.007 0.063 0.001 0.313 0.538 1.316 1.189 1.013 1.456 0.414 1.76 -0.183 1.519 -0.76 1.073 -1.189 0.535 -1.547 -0.12 -1.739 -0.736 -1.479 -1.338 -1.273 -3.944 -2.243 -0.617 -0.708 -0.056 -0.532 0.285 -0.503 0.624 -0.39 0.898 -0.051 -0.082 -0.045 0.626 0.726" />
    <path class="write-flat-pen" fill="#FFFFFF" stroke-width="1.6" __comx="565.411" __comy="108.823" __timestamp="0x178b3677070" d="M562.13 98.86 l-0.022 1.886 0.083 0.318 0.779 2.127 0.932 0.915 1.088 -0.029 1.293 -1.098 2.414 -5.515 0.017 -1.507 -0.074 -0.02 -0.735 1.243 -2.412 5.212 -0.866 0.773 -0.387 0.035 -0.558 -0.492 -0.814 -1.879 -0.071 -0.201 -0.206 -1.792" />
    <path class="write-flat-pen" fill="#FFFFFF" stroke-width="1.6" __comx="580.326" __comy="108.823" __timestamp="0x178b36771a8" d="M580.345 120.906 l-0.32 0.857 0 0 0.893 -0.062 -0.381 -0.517 -0.129 -0.266 -0.191 -0.382 -0.719 -1.443 -0.06 0.02 0.267 1.59 0.068 0.416 0.059 0.348 0.218 0.671 0.893 -0.062 0 0 0.27 -0.874" />
    <path class="write-flat-pen" fill="#FFFFFF" stroke-width="1.6" __comx="577.23" __comy="108.823" __timestamp="0x178b367723d" d="M576.948 99.389 l0.298 -0.662 0.644 -0.388 -0.018 -0.066 -0.976 0.065 -0.326 0.9" />
    <path class="write-flat-pen" fill="#FFFFFF" stroke-width="1.6" __comx="599.893" __comy="108.823" __timestamp="0x178b36773b1" d="M599.851 101.798 l-0.448 3.407 0.311 10.721 -0.036 1.459 0.068 0.016 0.636 -1.407 -0.259 -10.762 0.261 -3.38" />
    <path class="write-flat-pen" fill="#FFFFFF" stroke-width="1.6" __comx="600.666" __comy="108.823" __timestamp="0x178b36774ae" d="M591.432 103.106 l-0.255 -0.643 0.18 -0.132 2.137 -0.416 13.871 -1.564 0.535 -0.028 1.107 0.041 2.213 0.115 0.01 -0.067 -2.154 -0.546 -1.124 -0.242 -0.618 -0.057 -14.02 1.24 -2.493 0.617 -0.721 0.884 0.584 1.148" />
    <path class="write-flat-pen" fill="#FFFFFF" stroke-width="1.6" __comx="608.237" __comy="108.823" __timestamp="0x178b36776ad" d="M607.097 112.505 l0.563 -0.492 -0.642 -0.061 -0.135 -0.217 -1.323 1.557 -0.204 0.347 -0.624 1.71 -0.082 1.731 0.427 1.283 1.018 1.102 1.343 0.418 1.534 -0.348 1.382 -1.063 1.019 -1.699 0.453 -1.881 -0.281 -1.566 -0.749 -1.103 -1.333 -0.801 -1.623 0.292 -0.248 0.195 -0.164 0.2 -0.893 1.432 0.053 0.057 1.469 -0.781 0.161 -0.075 0.011 0.022 0.942 -0.017 0.692 0.45 0.432 0.639 0.19 1.022 -0.324 1.429 -0.773 1.34 -0.963 0.774 -0.951 0.242 -0.744 -0.208 -0.658 -0.674 -0.307 -0.845 0.036 -1.36 0.507 -1.477 0.117 -0.212 1.422 -2.067 -0.146 -0.236 -0.642 -0.061 -0.397 0.633" />
    <path class="write-flat-pen" fill="#FFFFFF" stroke-width="1.6" __comx="621.778" __comy="108.823" __timestamp="0x178b367793c" d="M618.032 100.626 l-0.249 0.996 -0.029 0.319 -0.14 5.671 0.019 0.677 0.4 4.255 0.865 3.255 1.16 2.524 1.364 1.76 1.245 0.782 1.45 0.054 0.218 -0.094 1.607 -0.803 -0.036 -0.124 -1.787 0.191 -0.076 -0.007 -1.021 -0.214 -0.862 -0.587 -1.175 -1.521 -1.078 -2.328 -0.841 -3.079 -0.445 -4.133 -0.03 -0.625 -0.09 -5.637 -0.003 -0.271 0.036 -0.99" />
    <path class="write-flat-pen" fill="#FFFFFF" stroke-width="1.6" __comx="620.219" __comy="108.823" __timestamp="0x178b3677a50" d="M615.543 114.688 l-0.809 -0.269 0.244 0.497 0.146 -0.177 8.311 -1.468 0.471 -0.097 2.217 -0.449 -0.006 -0.063 -2.262 -0.005 -0.5 -0.001 -8.823 1.318 -0.217 0.651 0.244 0.497 0.841 0.141" />
    <path class="write-flat-pen" fill="#FFFFFF" stroke-width="1.6" __comx="632.933" __comy="108.398" __timestamp="0x178b3679e45" d="M629.636 101.578 l0.325 -1.026 -0.406 0.252 -0.27 -0.058 -0.147 0.407 -0.059 0.254 -0.668 5.859 0.05 0.897 0.568 3.832 1.046 3.216 1.157 1.937 2.561 1.976 0.409 0.143 0.71 0.152 0.344 0.033 2.19 0.201 0.011 -0.045 -2.049 -0.799 -0.293 -0.117 -0.601 -0.27 -0.225 -0.121 -2.157 -1.919 -0.957 -1.665 -0.974 -2.999 -0.569 -3.68 -0.052 -0.754 0.424 -5.756 0.028 -0.258 -0.01 -1.041 -0.3 -0.065 -0.406 0.252 -0.114 1.071" />
    <path class="write-flat-pen" fill="#FFFFFF" stroke-width="1.6" __comx="639.607" __comy="108.398" __timestamp="0x178b3679f74" d="M637.646 104.481 l0.009 1.071 0.048 0.295 2.657 9.985 0.859 2.322 0.35 -0.09 -0.375 -2.454 -2.802 -9.93 -0.065 -0.236 -0.218 -1.014" />
    <path class="write-flat-pen" fill="#FFFFFF" stroke-width="1.6" __comx="643.285" __comy="108.398" __timestamp="0x178b367a133" d="M639.086 107.715 l-0.635 -2.921 -0.019 -0.14 -0.073 -1.223 0.237 -0.562 0.403 -0.283 0.874 -0.112 2.093 0.524 2.351 1.108 1.885 1.363 1.098 1.37 0.559 1.472 0.178 1.784 -0.284 1.893 -0.733 1.876 -1.371 1.918 -1.288 1.091 -1.698 0.855 -0.355 0.078 0.115 0.167 -0.018 0.036 -0.641 -0.371 -0.091 0.047 -0.066 0.737 0.025 0.119 0.22 0.276 1.071 0.139 2.123 -1.042 1.518 -1.289 1.551 -2.167 0.841 -2.148 0.33 -2.183 -0.21 -2.102 -0.691 -1.807 -1.326 -1.649 -2.111 -1.529 -2.568 -1.207 -2.448 -0.584 -1.404 0.227 -0.878 0.706 -0.362 1.122 0.211 1.487 0.045 0.205 0.864 2.895" />
    <path class="write-flat-pen" fill="#FFFFFF" stroke-width="1.6" __comx="653.876" __comy="108.398" __timestamp="0x178b367a291" d="M649.915 99.57 l0.303 0.219 0.014 0.029 1.047 1.071 0.266 0.281 2.16 2.583 1.59 2.761 0.842 2.369 0.503 3.209 -0.107 2.332 -0.754 2.772 -0.064 0.171 -0.121 0.317 -0.834 2.165 0.078 0.045 1.469 -1.8 0.22 -0.28 0.155 -0.242 1.013 -2.943 0.141 -2.601 -0.544 -3.441 -0.929 -2.572 -1.734 -2.927 -2.361 -2.607 -0.335 -0.301 -1.233 -0.95 -0.147 -0.087 -0.471 -0.052" />
    <path class="write-flat-pen" fill="#FFFFFF" stroke-width="1.6" __comx="674.016" __comy="108.398" __timestamp="0x178b367a54a" d="M666.614 107.655 l0.957 -0.221 0.184 -0.006 5.173 -0.12 5.361 0.333 0.528 0.028 0.492 0.012 2.264 0.06 0.009 -0.071 -2.208 -0.505 -0.48 -0.11 -0.534 -0.106 -5.414 -0.529 -5.242 0.273 -0.288 0.04 -0.968 0.45" />
    <path class="write-flat-pen" fill="#FFFFFF" stroke-width="1.6" __comx="680.259" __comy="108.398" __timestamp="0x178b367a72b" d="M678.285 104.561 l-1.322 -1.51 0.023 0.021 0 0 -0.08 -0.271 0 0 -0.601 0.614 6.63 2.991 0.423 0.416 -0.029 0.588 -1.386 3.474 0.267 2.004 0.064 0.005 0.554 -1.793 1.571 -3.449 0.045 -1.263 -0.907 -0.876 -6.863 -2.938 -0.601 0.614 0 0 0.21 0.351 0 0 0.078 0.081 1.498 1.359" />
    <path class="write-flat-pen" fill="#FFFFFF" stroke-width="1.6" __comx="702.659" __comy="111.12" __timestamp="0x178b367af5d" d="M701.756 103.452 l-0.397 -0.18 -0.068 0.443 0.007 0.237 0.181 2.097 0.061 0.616 1.279 9.409 0.042 0.421 0.121 1.752 0.555 -0.128 0.136 0.193 -0.093 -0.038 -0.615 -0.505 -0.028 0.015 0.073 0.792 0.048 0.23 0.277 0.313 0.642 -0.156 0.048 -2.538 -0.053 -0.496 -1.51 -9.393 -0.1 -0.608 -0.411 -2.063 -0.05 -0.216 -0.149 -0.413 -0.397 0.218" />
    <path class="write-flat-pen" fill="#FFFFFF" stroke-width="1.6" __comx="702.17" __comy="111.12" __timestamp="0x178b367b061" d="M692.689 102.869 l0.407 -0.584 -0.143 0.075 1.602 0.007 0.371 0.039 6.96 0.73 5.036 -0.061 0.681 -0.068 1.355 -0.223 0.625 -0.136 0.578 -0.136 2.157 -0.503 -0.007 -0.057 -2.214 0.032 -0.595 0.008 -0.628 0.024 -1.339 0.025 -0.63 -0.004 -4.942 -0.223 -6.932 -0.642 -0.472 -0.02 -1.836 0.231 -0.334 0.156 -0.365 1.007" />
    <path class="write-flat-pen" fill="#FFFFFF" stroke-width="1.6" __comx="714.297" __comy="111.12" __timestamp="0x178b367b294" d="M714.103 111.765 l-0.23 -0.962 -0.189 -0.215 -1.416 -0.099 -0.336 0.22 -0.82 0.904 -0.634 1.749 -0.018 1.567 0.62 1.774 1.095 1.219 1.355 0.564 1.602 -0.154 1.358 -0.792 0.991 -1.315 0.651 -2.078 -0.048 -1.571 -0.668 -1.465 -1.198 -0.846 -1.81 0.807 -0.174 0.297 -0.073 0.387 0.013 1.429 0.048 0.014 0.751 -1.162 0.162 -0.185 -0.036 0.094 0.931 -0.228 0.343 0.255 0.417 0.908 0.04 1.092 -0.504 1.666 -0.694 0.95 -0.896 0.551 -1.034 0.126 -0.847 -0.324 -0.797 -0.834 -0.529 -1.37 -0.029 -1.209 0.451 -1.44 0.573 -0.728 0.014 -0.023 0.875 -0.113 -0.073 -0.092 0.397 0.766" />
    <path class="write-flat-pen" fill="#FFFFFF" stroke-width="1.6" __comx="722.904" __comy="111.12" __timestamp="0x178b367b394" d="M721.471 102.021 l0.422 2.675 0.107 0.565 1.009 6.236 0.421 7.325 0.305 2.395 0.294 0 0.307 -2.418 -0.312 -7.413 -1.102 -6.3 -0.13 -0.575 -0.638 -2.628" />
    <path class="write-flat-pen" fill="#FFFFFF" stroke-width="1.6" __comx="723.992" __comy="111.12" __timestamp="0x178b367b469" d="M719.208 112.375 l0.884 -0.905 0.103 -0.045 2.188 -0.604 3.873 -0.547 0.401 -0.057 0.442 -0.071 2.278 -0.358 -0.002 -0.094 -2.293 -0.25 -0.45 -0.05 -0.444 -0.025 -4.03 0.352 -2.367 0.756 -0.355 0.215 -0.83 1.191" />
    <path class="write-flat-pen" fill="#FFFFFF" stroke-width="1.6" __comx="736.566" __comy="111.12" __timestamp="0x178b367b703" d="M736.064 101.642 l-0.097 -0.748 -0.144 -0.188 -0.687 -0.281 -0.381 0.092 -1.48 1.597 -0.261 0.513 -0.755 2.317 -0.352 3.098 0.319 3.451 1.139 4.951 1.04 2.686 1.489 2.132 2.136 1.094 0.498 0.046 0.688 -0.063 2.009 -0.331 -0.002 -0.061 -2.009 -0.217 -0.614 -0.093 -0.284 -0.085 -1.683 -1.084 -1.189 -1.874 -0.924 -2.5 -1.092 -4.794 -0.309 -3.249 0.296 -2.865 0.639 -2.145 0.147 -0.328 1.048 -1.443 -0.1 0.009 0.33 -0.019 -0.049 -0.079 0.264 0.562" />
    <path class="write-flat-pen" fill="#FFFFFF" stroke-width="1.6" __comx="746.648" __comy="111.12" __timestamp="0x178b367b981" d="M741.237 106.367 l0.347 1.42 0.081 0.297 1.385 6.128 0.061 0.403 0.206 2.168 0 0 -0.062 0.415 0 0 0.997 -0.111 -0.81 -2.37 -1.137 -6.108 -0.169 -2.782 0.254 -0.763 0.58 -0.401 7.128 -0.845 2.156 -0.422 0.004 -0.091 -2.197 -0.63 -7.58 0.794 -1.099 0.916 -0.347 1.323 0.208 3.034 1.166 6.251 0.871 2.435 0.997 -0.111 0 0 0.047 -0.527 0 0 -0.256 -2.3 -0.078 -0.468 -1.625 -6.137 -0.118 -0.313 -0.547 -1.354" />
    <path class="write-flat-pen" fill="#FFFFFF" stroke-width="1.6" __comx="747.624" __comy="111.12" __timestamp="0x178b367ba6a" d="M742.676 111.534 l0.986 0.018 0.249 -0.011 3.122 -0.184 0.326 -0.016 2.948 -0.149 2.317 -0.374 0.002 -0.085 -2.321 -0.482 -2.995 0.019 -0.361 0.028 -3.132 0.417 -0.245 0.053 -0.952 0.21" />
    <path class="write-flat-pen" fill="#FFFFFF" stroke-width="1.6" __comx="749.689" __comy="111.12" __timestamp="0x178b367bb5f" d="M742.832 117.796 l1.18 0.533 0.438 0.029 9.836 -1.331 2.259 -0.501 -0.007 -0.078 -2.325 -0.102 -9.808 1.131 -0.238 0.013 -1.124 -0.289" />
    <path class="write-flat-pen" fill="#FFFFFF" stroke-width="1.6" __comx="759.376" __comy="111.12" __timestamp="0x178b367bd8e" d="M754.812 98.339 l0.341 -0.002 -0.012 0.015 0.692 0.313 0.164 0.102 2.248 1.702 0.372 0.349 1.601 1.812 1.324 2.186 0.941 2.526 0.438 2.662 -0.114 2.598 -0.797 3.191 -3.298 5.931 -0.062 0.149 -0.007 0.019 -0.765 2.205 0.065 0.036 1.454 -1.826 0.011 -0.014 0.09 -0.123 3.551 -5.956 0.865 -3.451 0.116 -2.827 -0.486 -2.878 -1.024 -2.718 -1.445 -2.349 -1.739 -1.891 -0.47 -0.411 -2.473 -1.594 -0.293 -0.121 -0.88 -0.142 -0.145 0.013 -0.35 0.239" />
    <path class="write-flat-pen" fill="#FFFFFF" stroke-width="1.6" __comx="774.422" __comy="111.12" __timestamp="0x178b367c12a" d="M772.773 99.846 l-0.355 -0.339 -0.092 -0.062 -0.695 -0.403 -0.112 -0.05 -1.163 -0.109 -0.28 0.3 -0.356 1.245 0.679 7.704 0.133 5.842 -0.454 2.798 0.317 1.256 1.151 0.791 4.885 -0.228 0.246 -0.055 0.206 -0.055 2.239 -0.589 -0.009 -0.085 -2.313 -0.111 -0.218 -0.011 -0.216 -0.001 -4.482 -0.006 -0.495 -0.343 -0.156 -0.614 0.429 -2.669 -0.139 -5.985 -0.756 -7.566 0.144 -0.881 -0.156 0.161 0.635 -0.111 -0.007 -0.01 0.762 0.193 0.077 0.018 0.447 0.145" />
    <path class="write-flat-pen" fill="#FFFFFF" stroke-width="1.6" __comx="782.779" __comy="111.12" __timestamp="0x178b367c37b" d="M778.958 105.977 l0.414 0.479 0.236 0.042 1.586 -0.388 0.285 -0.144 3.034 -2.056 -0.334 -0.094 -0.351 4.469 0.213 2.964 0.956 2.287 1.532 1.81 0.069 -0.037 -0.612 -2.217 -0.679 -2.12 -0.216 -2.695 0.251 -5.23 -0.994 -0.326 -3.358 2.459 -0.154 0.094 -1.293 0.537 0.095 0.024 -0.408 -0.192" />
    <path class="write-flat-pen" fill="#FFFFFF" stroke-width="1.6" __comx="787.881" __comy="111.12" __timestamp="0x178b367c49a" d="M781.33 116.896 l0.724 -0.065 0.2 -0.043 1.49 -0.325 0.328 -0.069 3.645 -0.488 3.873 0.255 0.199 0.038 0.49 0.105 2.242 0.478 0.012 -0.034 -2.029 -1.085 -0.469 -0.221 -0.279 -0.112 -4.071 -0.502 -3.801 0.65 -0.381 0.113 -1.456 0.539 -0.172 0.079 -0.649 0.264" />
    <path class="write-flat-pen" fill="#FFFFFF" stroke-width="1.6" __comx="794.321" __comy="102.174" __timestamp="0x178b367d4db" d="M789.436 101.141 l0.171 -0.688 -0.098 0.085 1.632 0.022 0.209 0.013 6.042 -0.107 0.653 0.199 0.34 0.457 0.172 1.2 -0.408 13.855 -0.226 0.558 -1.359 0.943 -1.646 1.243 0.044 0.09 2.029 -0.55 1.814 -0.982 0.423 -1.082 0.322 -14.142 -0.265 -1.523 -0.687 -0.873 -1.084 -0.321 -6.163 0.226 -0.221 -0.001 -1.817 0.218 -0.223 0.173 0.018 0.954" />
    <path class="write-flat-pen" fill="#FFFFFF" stroke-width="1.6" __comx="604.703" __comy="141.189" __timestamp="0x178b367e5b7" d="M603.375 141.166 l0.252 0.412 0.054 0.195 1.64 8.741 0.516 1.113 0.103 -0.019 0.09 -1.226 -1.691 -8.79 -0.153 -0.371 -0.515 -0.352" />
    <path class="write-flat-pen" fill="#FFFFFF" stroke-width="1.6" __comx="603.396" __comy="141.189" __timestamp="0x178b367e68b" d="M602.699 134.387 l-0.453 0.729 0.937 1.965 1.307 1.41 0.054 -0.042 -0.985 -1.588 -0.629 -1.71 0.234 -0.505" />
    <path class="write-flat-pen" fill="#FFFFFF" stroke-width="1.6" __comx="612.595" __comy="141.189" __timestamp="0x178b367e834" d="M611.419 136.933 l-1.189 -0.552 -0.271 0.109 -0.627 0.715 -0.024 1.148 0.78 1.548 3.391 3.891 1.363 2.143 0.193 0.817 -0.186 0.5 -0.794 0.467 -1.348 0.065 -1.377 -0.349 -0.419 -0.339 -0.07 -0.296 0.388 -0.507 0.169 -0.129 0.246 -0.185 1.398 -1.044 -0.031 -0.056 -1.629 0.626 -0.291 0.111 -0.281 0.125 -0.882 0.75 0.118 1.09 0.857 0.707 1.718 0.42 1.709 -0.114 1.226 -0.779 0.327 -1.031 -0.317 -1.164 -1.482 -2.283 -3.387 -3.851 -0.697 -1.301 -0.029 -0.754 0.335 -0.486 -0.058 0.016 1.064 0.268" />
    <path class="write-flat-pen" fill="#FFFFFF" stroke-width="1.6" __comx="637.754" __comy="141.189" __timestamp="0x178b367ea94" d="M635.89 142.683 l0.991 -0.701 0.086 -0.159 0.396 -1.721 -0.024 -0.182 -0.469 -0.912 -1.184 -0.472 -1.096 0.249 -1.005 0.879 -0.796 1.627 -0.378 2.005 0.177 1.674 0.627 1.179 1.1 0.452 1.225 -0.449 2.272 -2.971 0.294 -0.157 0.339 0.186 1.632 2.413 0.96 0.65 0.28 0.042 1.755 0.169 0.027 -0.089 -1.556 -0.828 -0.103 -0.074 -0.61 -0.573 -1.665 -2.497 -1.051 -0.582 -0.991 0.529 -2.218 2.923 -0.575 0.217 -0.407 -0.157 -0.382 -0.686 -0.166 -1.342 0.306 -1.746 0.645 -1.358 0.688 -0.629 0.622 -0.168 0.697 0.218 0.34 0.508 -0.004 -0.053 -0.139 1.586 -0.002 0.023 -0.778 0.808" />
    <path class="write-flat-pen" fill="#FFFFFF" stroke-width="1.6" __comx="654.352" __comy="141.189" __timestamp="0x178b367ec16" d="M655.583 140.26 l-0.067 -1.53 -0.067 -0.247 -0.558 -1.019 -0.954 -0.492 -1.293 0.11 -1.278 0.758 -0.933 1.215 -0.591 1.731 0.043 1.575 0.652 1.366 1.09 0.856 1.531 0.353 1.603 -0.341 2.228 -1.472 0.242 -0.255 0.219 -0.26 1.415 -1.687 -0.017 -0.019 -1.802 1.265 -0.269 0.188 -0.232 0.151 -2.146 1.155 -1.225 0.232 -1.091 -0.259 -0.722 -0.567 -0.456 -0.953 -0.036 -1.174 0.472 -1.403 0.707 -0.941 0.914 -0.571 0.813 -0.11 0.517 0.212 0.467 0.671 0.039 0.087 0.273 1.435" />
    <path class="write-flat-pen" fill="#FFFFFF" stroke-width="1.6" __comx="667.807" __comy="141.189" __timestamp="0x178b367ef38" d="M657.988 130.751 l1.625 7.115 0.113 0.644 1.231 6.913 0.474 0.796 0 0 0.935 -0.059 2.108 -4.866 0.788 -0.985 0.328 -0.059 0.521 0.305 1.964 3.47 1.039 0.771 1.188 -0.177 1.153 -1.091 0 0 1.056 -2.158 0 0 0.141 -1.101 0 0 -0.949 -0.171 -0.546 2.113 0.205 1.396 1.146 0.314 1.319 -2.091 0.34 -0.169 -0.739 -0.271 1.785 4.079 1.232 0.631 0.341 -0.212 0.234 -0.331 0.608 -1.153 -0.027 -0.025 -1.064 0.7 -0.248 0.115 0.183 -0.126 -0.39 -0.359 -1.654 -3.759 -0.739 -0.271 -0.624 0.301 -1.053 1.679 0.301 0.09 -0.092 -0.497 0.421 -1.93 -0.949 -0.171 0 0 -0.108 0.939 0 0 -0.938 1.83 0 0 -0.807 0.726 -0.448 0.058 -0.521 -0.386 -2.027 -3.493 -1.071 -0.611 -1.047 0.186 -1.108 1.373 -2.215 4.963 0.935 -0.059 0 0 -0.382 -0.633 -1.341 -6.701 -0.132 -0.664 -1.843 -7.087" />
    <path class="write-flat-pen" fill="#FFFFFF" stroke-width="1.6" __comx="679.917" __comy="141.189" __timestamp="0x178b367effb" d="M679.497 141.134 l-0.07 1.284 0.007 0.202 0.316 2.831 0.65 0.042 -0.005 -0.297 -0.016 -0.218 -0.095 -1.062 -0.037 -0.004 -0.296 1.025 -0.054 0.17 -0.14 0.217 0.65 0.042 -0.417 -2.806 -0.025 -0.172 -0.142 -1.263" />
    <path class="write-flat-pen" fill="#FFFFFF" stroke-width="1.6" __comx="689.246" __comy="141.189" __timestamp="0x178b367f201" d="M681.183 135.046 l-0.11 2.188 0.738 2.003 2.803 4.227 1.338 3.343 0.042 0.079 0 0 0.592 -0.168 0.265 -3.785 0.503 -2.393 0.34 -0.451 0.136 -0.002 0.489 0.583 1.179 3.241 0.759 0.971 1.113 0.354 3.238 -0.954 0.298 -0.145 0.504 -0.236 2.007 -0.946 -0.015 -0.044 -2.174 0.454 -0.557 0.128 -0.291 0.082 -2.985 0.67 -0.574 -0.181 -0.499 -0.618 -1.236 -3.229 -0.881 -1.014 -0.956 0.062 -0.682 0.922 -0.526 2.643 -0.104 3.855 0.592 -0.168 0 0 -0.025 -0.019 -1.537 -3.225 -2.654 -4.28 -0.589 -1.866 -0.065 -2.078" />
    <path class="write-flat-pen" fill="#FFFFFF" stroke-width="1.6" __comx="721.409" __comy="142.52" __timestamp="0x178b367f9eb" d="M716.463 128.887 l-0.401 4.068 0.062 0.637 1.157 8.512 0 0 0.094 0.774 0 0 0.518 7.158 0 0 1.293 -0.022 0.089 -2.301 0.761 -2.95 0.858 -1.847 0.942 -1.105 0.67 -0.343 0.66 0.035 0.798 0.537 0.698 1.112 0.702 2.478 0.27 3.9 0.299 -0.306 0.274 0.177 -0.033 0.053 -0.155 -0.2 -0.64 -0.889 -0.032 0.013 0.151 1.085 0.05 0.311 0.148 0.34 0.624 0.261 0.436 -0.474 -0.133 -4.477 -0.802 -2.789 -0.938 -1.487 -1.303 -0.878 -1.342 -0.078 -1.2 0.604 -1.227 1.424 -0.98 2.112 -0.822 3.192 -0.117 2.433 1.293 -0.022 0 0 -0.604 -7.183 0 0 -0.112 -0.815 0 0 -1.377 -8.475 -0.074 -0.529 0.179 -3.994" />
    <path class="write-flat-pen" fill="#FFFFFF" stroke-width="1.6" __comx="730.968" __comy="142.52" __timestamp="0x178b367fab6" d="M729.242 130.781 l0.914 4.893 0.145 0.726 1.291 7.266 0.352 4 0.044 0.01 -0.187 0.842 0.031 0.02 0.701 -0.503 0.162 -0.169 -0.156 -4.315 -1.382 -7.318 -0.158 -0.734 -1.134 -4.848" />
    <path class="write-flat-pen" fill="#FFFFFF" stroke-width="1.6" __comx="731.264" __comy="142.52" __timestamp="0x178b367fb6b" d="M726.312 139.228 l1.043 0.322 0.232 0.087 6.374 1.283 2.237 0.325 0.018 -0.055 -2.051 -1.044 -6.355 -1.356 -0.239 -0.064 -1.13 -0.124" />
    <path class="write-flat-pen" fill="#FFFFFF" stroke-width="1.6" __comx="740.353" __comy="142.52" __timestamp="0x178b367fc4e" d="M737.591 139.137 l0.627 1.473 0.137 0.314 1.865 4.263 1.225 1.547 1.095 -0.37 0.19 -0.381 0.195 -0.972 0.189 -1.629 -0.036 -0.009 -0.558 1.525 -0.383 0.812 -0.056 0.022 -0.269 -0.042 -0.759 -1.005 -1.935 -4.113 -0.163 -0.322 -0.826 -1.385" />
    <path class="write-flat-pen" fill="#FFFFFF" stroke-width="1.6" __comx="742.594" __comy="142.52" __timestamp="0x178b367fce7" d="M743.966 138.765 l-0.183 1.036 -0.065 0.408 -0.582 3.185 -0.133 0.784 -2.211 16.009 -0.049 2.335 0.1 0.017 0.73 -2.23 2.375 -15.993 0.104 -0.786 0.379 -3.237 0.013 -0.435 -0.001 -1.053" />
  </g>
</svg>
