<svg class="write-page" width="1010px" height="1628px" xmlns="http://www.w3.org/2000/svg" xmlns:xlink="http://www.w3.org/1999/xlink">
  <g class="write-content write-v3" width="1010" height="1628" xruling="30" yruling="30" marginLeft="30" papercolor="#1B1C1C" rulecolor="#3A00F9FF">
    <g class="ruleline write-std-ruling write-scale-down" fill="none" stroke="#00F9FF" stroke-opacity="0.227" stroke-width="1" shape-rendering="crispEdges" vector-effect="non-scaling-stroke">
      <rect class="pagerect" fill="#1B1C1C" stroke="none" x="0" y="0" width="1010" height="1628" />
      <path class="yrule_1" d="M0 30 l1010 0" />
      <path d="M0 60 l1010 0" />
      <path d="M0 90 l1010 0" />
      <path d="M0 120 l1010 0" />
      <path d="M0 150 l1010 0" />
      <path d="M0 180 l1010 0" />
      <path d="M0 210 l1010 0" />
      <path d="M0 240 l1010 0" />
      <path d="M0 270 l1010 0" />
      <path d="M0 300 l1010 0" />
      <path d="M0 330 l1010 0" />
      <path d="M0 360 l1010 0" />
      <path d="M0 390 l1010 0" />
      <path d="M0 420 l1010 0" />
      <path d="M0 450 l1010 0" />
      <path d="M0 480 l1010 0" />
      <path d="M0 510 l1010 0" />
      <path d="M0 540 l1010 0" />
      <path d="M0 570 l1010 0" />
      <path d="M0 600 l1010 0" />
      <path d="M0 630 l1010 0" />
      <path d="M0 660 l1010 0" />
      <path d="M0 690 l1010 0" />
      <path d="M0 720 l1010 0" />
      <path d="M0 750 l1010 0" />
      <path d="M0 780 l1010 0" />
      <path d="M0 810 l1010 0" />
      <path d="M0 840 l1010 0" />
      <path d="M0 870 l1010 0" />
      <path d="M0 900 l1010 0" />
      <path d="M0 930 l1010 0" />
      <path d="M0 960 l1010 0" />
      <path d="M0 990 l1010 0" />
      <path d="M0 1020 l1010 0" />
      <path d="M0 1050 l1010 0" />
      <path d="M0 1080 l1010 0" />
      <path d="M0 1110 l1010 0" />
      <path d="M0 1140 l1010 0" />
      <path d="M0 1170 l1010 0" />
      <path d="M0 1200 l1010 0" />
      <path d="M0 1230 l1010 0" />
      <path d="M0 1260 l1010 0" />
      <path d="M0 1290 l1010 0" />
      <path d="M0 1320 l1010 0" />
      <path d="M0 1350 l1010 0" />
      <path d="M0 1380 l1010 0" />
      <path d="M0 1410 l1010 0" />
      <path d="M0 1440 l1010 0" />
      <path d="M0 1470 l1010 0" />
      <path d="M0 1500 l1010 0" />
      <path d="M0 1530 l1010 0" />
      <path d="M0 1560 l1010 0" />
      <path d="M0 1590 l1010 0" />
      <path d="M0 1620 l1010 0" />
      <path class="xrule_1" d="M30 0 l0 1628" />
      <path d="M60 0 l0 1628" />
      <path d="M90 0 l0 1628" />
      <path d="M120 0 l0 1628" />
      <path d="M150 0 l0 1628" />
      <path d="M180 0 l0 1628" />
      <path d="M210 0 l0 1628" />
      <path d="M240 0 l0 1628" />
      <path d="M270 0 l0 1628" />
      <path d="M300 0 l0 1628" />
      <path d="M330 0 l0 1628" />
      <path d="M360 0 l0 1628" />
      <path d="M390 0 l0 1628" />
      <path d="M420 0 l0 1628" />
      <path d="M450 0 l0 1628" />
      <path d="M480 0 l0 1628" />
      <path d="M510 0 l0 1628" />
      <path d="M540 0 l0 1628" />
      <path d="M570 0 l0 1628" />
      <path d="M600 0 l0 1628" />
      <path d="M630 0 l0 1628" />
      <path d="M660 0 l0 1628" />
      <path d="M690 0 l0 1628" />
      <path d="M720 0 l0 1628" />
      <path d="M750 0 l0 1628" />
      <path d="M780 0 l0 1628" />
      <path d="M810 0 l0 1628" />
      <path d="M840 0 l0 1628" />
      <path d="M870 0 l0 1628" />
      <path d="M900 0 l0 1628" />
      <path d="M930 0 l0 1628" />
      <path d="M960 0 l0 1628" />
      <path d="M990 0 l0 1628" />
      <path class="leftmargin" stroke="#FF0000" d="M30 0 l0 1628" />
    </g>
    <path class="write-flat-pen" fill="#FFFFFF" stroke-width="1.6" __comx="78.139" __comy="82.55" __timestamp="0x1790b28db25" d="M68.868 85.611 l-0.038 1.021 0.075 0.18 0.654 0.43 0.336 -0.407 0.459 -1.791 0.053 -0.463 1.695 -14.947 0.042 -0.36 0 0 0.319 -3.023 0 0 -1.498 0.15 2.161 7.215 1.992 4.839 1.18 1.074 1.359 -0.001 1.252 -1.261 0 0 3.592 -13.644 0 0 -1.542 0.019 1.376 4.743 2.418 11.833 1.178 2.876 0.566 0.212 0.294 -0.127 0.655 -0.587 -0.039 -0.227 -0.813 -0.336 0.094 -0.093 0.375 0.12 -0.768 -2.284 -2.406 -11.771 -1.394 -4.805 -1.542 0.019 0 0 -3.483 13.229 0 0 -0.481 0.484 -0.074 0 -0.456 -0.415 -1.829 -4.435 -2.198 -7.124 -1.498 0.15 0 0 -0.259 3.016 0 0 -0.038 0.354 -1.423 14.995 -0.019 0.422 -0.147 1.569 0.24 -0.282 0.072 0.169 0.049 0.124 -0.23 -0.894" />
    <path class="write-flat-pen" fill="#FFFFFF" stroke-width="1.6" __comx="94.097" __comy="82.55" __timestamp="0x1790b28dc2c" d="M92.593 84.658 l0.501 1.365 0.086 0.208 0.919 2.387 0.591 3.891 0.193 2.699 0.154 0.01 0.564 -2.739 -0.476 -4.145 -1.173 -2.462 -0.122 -0.208 -0.74 -1.242" />
    <path class="write-flat-pen" fill="#FFFFFF" stroke-width="1.6" __comx="111.304" __comy="82.55" __timestamp="0x1790b28df10" d="M105.108 92.647 l0.231 -1.242 0.03 -0.331 0.165 -2.917 0.024 -0.677 0.148 -7.367 0.007 -0.656 0 0 -0.487 -7.65 0 0 -1.369 0.245 0.788 2.882 4.284 10.234 2.624 5.054 1.438 1.698 1.465 0.817 1.648 -0.118 1.267 -1.043 0.86 -1.835 0.543 -3.493 -0.002 -4.386 -1.134 -11.965 -0.794 -3.969 -1.057 -2.29 -1.481 0.177 -0.261 0.596 -0.053 0.627 0.058 0.36 0.317 1.74 0.164 0.006 0.438 -1.714 0.079 -0.25 0.176 -0.338 -0.088 0.256 -0.326 0.126 0.504 1.193 0.747 3.712 1.139 11.808 0.013 4.192 -0.473 3.16 -0.609 1.328 -0.623 0.523 -0.717 0.062 -0.839 -0.457 -1.159 -1.356 -2.515 -4.852 -4.255 -10.086 -0.822 -2.781 -1.369 0.245 0 0 0.687 7.588 0 0 0.007 0.609 0.124 7.365 0.017 0.672 0.09 2.912 0.012 0.314 0.037 1.249" />
    <path class="write-flat-pen" fill="#FFFFFF" stroke-width="1.6" __comx="142.61" __comy="82.55" __timestamp="0x1790b28e17c" d="M143.445 79.408 l0.128 -0.734 0.012 -0.181 -0.172 -1.025 -0.185 -0.313 -1.895 -0.987 -0.537 0.028 -1.469 0.521 -1.431 1.515 -1.117 2.44 -0.374 2.281 0.281 2.293 0.847 2.001 1.414 1.635 1.979 1.012 2.305 0.219 2.834 -0.933 0.391 -0.247 0.308 -0.252 2.054 -1.687 -0.09 -0.151 -2.459 1.01 -0.334 0.132 -0.295 0.098 -2.534 0.568 -1.754 -0.194 -1.474 -0.758 -1.071 -1.243 -0.676 -1.597 -0.235 -1.879 0.298 -1.885 0.912 -2.066 1.016 -1.142 0.962 -0.406 0.027 -0.013 1.444 0.485 -0.026 -0.07 0.363 0.735 0.028 0.077 0.136 0.715" />
    <path class="write-flat-pen" fill="#FFFFFF" stroke-width="1.6" __comx="141.605" __comy="82.55" __timestamp="0x1790b28e240" d="M136.203 85.089 l1.73 -0.667 0.326 -0.103 5.838 -1.685 0.665 -0.198 2.535 -0.744 -0.011 -0.063 -2.634 0.199 -0.724 0.055 -5.96 1.502 -0.398 0.155 -1.656 0.935" />
    <path class="write-flat-pen" fill="#FFFFFF" stroke-width="1.6" __comx="167.081" __comy="85.042" __timestamp="0x1790b28f226" d="M170.368 76.559 l-0.154 0.412 -0.026 0.113 -0.097 0.834 -0.013 0.326 0.075 2.604 0.028 0.544 0.253 6.92 0.301 -0.415 -4.238 0.646 -3.174 -0.006 -0.311 -0.164 -3.169 -9.38 0.016 -0.102 0.718 -0.311 6.188 -0.886 0 0 2.635 0.015 0.526 0.238 0.562 1.068 0.619 3.443 1.962 22.064 -0.131 2.495 -0.425 0.619 -1.053 0.452 -1.678 0.021 -2.483 -0.643 -2.155 -1.077 -0.547 -0.705 -0.027 -0.803 0.658 -1.161 1.916 -1.648 4.864 -2.428 0.315 -0.124 0.851 -0.316 0.197 -0.077 2.59 -0.998 -0.01 -0.048 -2.773 0.115 -0.223 0.01 -0.938 0.1 -0.466 0.09 -5.282 2.32 -2.294 1.973 -1.018 1.795 0.059 1.771 1.087 1.402 2.632 1.315 2.853 0.739 2.21 -0.027 1.771 -0.761 0.943 -1.372 0.161 -3.058 -1.978 -22.248 -0.676 -3.756 -0.932 -1.772 -1.336 -0.605 -3.094 -0.018 0 0 -6.518 0.934 -1.727 0.748 -0.208 1.362 3.514 10.354 1.231 0.625 3.681 -0.044 4.908 -0.876 0.333 -0.459 -0.561 -7.422 -0.064 -0.553 -0.333 -2.567 -0.041 -0.3 -0.129 -0.807 -0.021 -0.092 -0.105 -0.418" />
    <path class="write-flat-pen" fill="#FFFFFF" stroke-width="1.6" __comx="184.772" __comy="85.042" __timestamp="0x1790b28f3ed" d="M181.516 82.177 l-0.615 0.38 0.017 0.209 0.223 0.105 4.877 0.565 2.62 -0.224 0.005 -0.115 -2.56 -0.436 -4.723 -0.656 0.062 0.042 -0.066 0.113 -0.046 0.585" />
    <path class="write-flat-pen" fill="#FFFFFF" stroke-width="1.6" __comx="213.752" __comy="85.042" __timestamp="0x1790b28f887" d="M200.078 76.272 l-0.247 1.265 -0.059 0.416 -0.265 2.572 -0.055 0.666 -0.388 5.169 -0.051 0.678 0 0 -0.299 3.959 0 0 0.414 0.881 0 0 1.289 -0.05 0.963 -2.238 1.647 -8.044 1.022 -3.004 0.243 -0.19 0.183 0.05 0.58 0.919 0.818 6.921 0 0 0.598 0.839 0 0 1.286 0.016 0.861 -1.14 2.03 -6.065 0.864 -1.555 0.448 -0.283 0.344 0.056 0.624 0.684 0.791 2.333 0.832 5.558 0.773 1.889 1.329 0.964 1.601 0.019 1.957 -1.054 1.61 -1.762 1.59 -3.099 0.542 -2.387 -0.61 -1.529 -1.399 -0.489 -1.346 0.903 -0.984 1.949 -0.432 2.463 0.259 1.948 0.984 1.945 1.321 1.134 1.809 0.548 1.94 -0.34 1.662 -1.134 1.136 -1.834 0.499 -2.005 -0.262 -2.554 -1.024 -2.207 -1.276 -1.298 -1.652 -0.461 -1.263 0.71 -0.158 1.649 0.129 0.382 0.286 0.469 1.188 1.705 0.083 -0.033 -0.297 -2.04 -0.046 -0.454 0.029 -0.066 0.222 -0.598 0.029 -0.008 0.608 0.17 0.783 0.796 0.795 1.712 0.206 2.009 -0.371 1.491 -0.825 1.333 -1.097 0.748 -1.225 0.215 -1.122 -0.34 -0.823 -0.707 -0.718 -1.419 -0.191 -1.435 0.348 -1.987 0.689 -1.364 0.334 -0.224 -0.043 -0.015 0.156 0.391 -0.386 1.707 -1.396 2.733 -1.28 1.409 -1.356 0.731 -0.684 -0.012 -0.551 -0.404 -0.526 -1.292 -0.823 -5.51 -0.945 -2.786 -1.225 -1.342 -1.493 -0.244 -1.307 0.826 -1.134 2.041 -1.993 5.959 -0.702 0.933 1.286 0.016 0 0 -0.364 -0.506 0 0 -0.854 -6.864 -1.116 -1.723 -1.503 -0.362 -1.176 0.933 -1.188 3.522 -1.599 8.003 -0.864 2.122 1.289 -0.05 0 0 -0.306 -0.52 0 0 0.145 -3.6 0 0 0.024 -0.686 0.119 -5.187 0.007 -0.665 0.029 -2.575 0.004 -0.411 -0.023 -1.285" />
    <path class="write-flat-pen" fill="#FFFFFF" stroke-width="1.6" __comx="237.89" __comy="68.997" __timestamp="0x1790b2901c6" d="M238.651 64.073 l0.652 -0.645 -0.352 -0.058 0.399 1.022 0.039 0.319 0.336 14.205 0.017 1.031 0 0 0.156 5.046 0 0 0.483 1.907 0 0 1.455 -0.057 0.314 -1.646 -0.48 -2.971 -1.137 -2.797 -1.39 -1.7 -1.704 -0.951 -1.7 -0.065 -1.411 0.689 -1.426 1.608 -1.098 2.282 -0.524 2.811 0.352 1.768 1.018 1.521 1.997 1.171 2.106 0.297 3.638 -0.86 0.78 -0.401 0.661 -0.416 0.58 -0.441 2.087 -1.584 -0.058 -0.104 -2.441 0.952 -0.655 0.251 -0.676 0.243 -0.68 0.214 -3.288 0.596 -1.54 -0.219 -1.433 -0.841 -0.654 -0.975 -0.233 -1.179 0.436 -2.319 0.916 -1.904 1.084 -1.215 0.788 -0.38 0.94 0.041 1.122 0.626 1.057 1.288 0.982 2.419 0.428 2.537 -0.227 1.394 1.455 -0.057 0 0 -0.469 -1.744 0 0 -0.196 -4.874 0 0 -0.028 -1.029 -0.619 -14.289 -0.124 -0.558 -0.882 -1.399 -0.536 -0.096 -0.763 1.199" />
    <path class="write-flat-pen" fill="#FFFFFF" stroke-width="1.6" __comx="86.98" __comy="199.372" __timestamp="0x1790b29164e" d="M71.507 200.607 l-0.052 -2.128 0.065 -0.153 1.122 -1.812 2.17 -2.16 2.868 -1.928 2.597 -0.895 2.155 -0.127 2.673 0.608 2.423 1.293 4.491 3.538 2.173 1.143 4.698 0.899 0.441 0.027 1.108 0.023 2.822 -0.012 0.005 -0.055 -2.765 -0.547 -1.075 -0.215 -0.387 -0.081 -4.457 -1.113 -1.954 -1.015 -4.515 -3.496 -2.642 -1.381 -2.955 -0.663 -2.446 0.147 -2.857 0.998 -3.039 2.095 -2.254 2.372 -1.11 2.035 -0.121 0.382 0.327 2.265" />
    <path class="write-flat-pen" fill="#FFFFFF" stroke-width="1.6" __comx="103.946" __comy="199.372" __timestamp="0x1790b291834" d="M101.746 194.268 l-0.286 -0.655 -0.06 -0.123 -0.508 -1.211 0.021 0.033 0 0 0.027 -0.303 0 0 -0.816 0.544 5.673 3.173 0.724 0.74 0.137 0.704 -1.376 4.699 0.899 1.517 0.142 -0.037 0.131 -1.448 1.604 -4.66 -0.314 -1.435 -1.151 -1.147 -5.944 -3.084 -0.816 0.544 0 0 0.101 0.45 0 0 0.071 0.147 0.788 1.153 0.114 0.123 0.489 0.509" />
    <path class="write-flat-pen" fill="#FFFFFF" stroke-width="1.6" __comx="124.008" __comy="199.372" __timestamp="0x1790b291a14" d="M123.092 185.706 l-0.386 0.286 -0.038 0.256 0.006 1.092 0.061 0.474 0.729 5.508 0.141 1.021 -0.003 -0.022 0.68 14.721 1.064 -0.054 -0.065 -0.135 -0.129 -0.591 -0.269 -1.479 -0.059 -0.002 -0.349 1.466 -0.148 0.629 -0.045 0.18 1.064 -0.054 -0.416 -14.805 -0.003 -0.022 -0.167 -1.053 -1.008 -5.489 -0.119 -0.447 -0.247 -0.972 -0.031 0.025 0.07 -0.255" />
    <path class="write-flat-pen" fill="#FFFFFF" stroke-width="1.6" __comx="132.315" __comy="199.372" __timestamp="0x1790b291b0b" d="M129.617 184.931 l0.068 0.507 0.012 0.139 0.218 1.163 0.068 0.426 0.751 4.483 0.165 0.993 1.554 11.906 0.92 2.933 1.505 1.496 0.136 -0.079 -0.472 -1.91 -0.66 -2.734 -1.632 -11.823 -0.196 -1.03 -1.017 -4.46 -0.135 -0.461 -0.466 -1.12 -0.072 -0.147 -0.293 -0.451" />
    <path class="write-flat-pen" fill="#FFFFFF" stroke-width="1.6" __comx="129.337" __comy="199.372" __timestamp="0x1790b291bf4" d="M123.012 200.716 l2.502 -0.089 0.45 -0.037 7.012 -0.971 2.755 -0.635 -0.014 -0.153 -2.839 -0.12 -7.041 0.786 -0.428 0.058 -2.469 0.345" />
    <path class="write-flat-pen" fill="#FFFFFF" stroke-width="1.6" __comx="140.632" __comy="199.372" __timestamp="0x1790b291da1" d="M142.209 202.844 l0.211 -1.075 0.022 -0.266 -0.783 -1.74 -0.49 -0.191 -1.326 0.055 -1.229 1.139 -0.821 2.167 -0.051 1.983 0.661 1.796 1.191 1.015 1.482 0.144 1.461 -0.81 0.915 -1.475 0.069 -1.694 -1.535 -1.598 -1.533 0.274 -0.013 0.06 0.88 0.784 0.684 1.006 -0.023 0.723 -0.497 0.83 -0.728 0.428 -0.598 -0.038 -0.595 -0.475 -0.482 -1.205 0 -1.508 0.599 -1.707 0.675 -0.679 0.653 -0.083 -0.119 -0.055 0.714 1.054 0.015 0.028 0.059 1.075" />
    <path class="write-flat-pen" fill="#FFFFFF" stroke-width="1.6" __comx="151.625" __comy="199.372" __timestamp="0x1790b291fbd" d="M144.285 202.332 l0.159 0.535 0.016 0.097 0.201 1.034 0.068 0.295 0.463 2.267 0.057 0.291 0 0 0.535 2.223 0 0 0.688 0.478 0 0 1.081 -0.571 0.308 -5.741 0.139 -0.33 -0.392 -0.014 1.576 3.158 1.362 0.938 1.287 -1.354 1.434 -3.229 0.518 -0.529 0.237 -0.036 0.558 0.352 2.214 4.115 1.724 2.328 0.447 -0.233 -0.921 -2.752 -2.348 -4.498 -1.359 -0.843 -1.251 0.193 -1.049 1.056 -1.469 3.22 -0.225 0.224 0.02 0.017 -1.821 -3.574 -1.505 -0.062 -0.639 1.519 -0.263 6.005 1.081 -0.571 0 0 -0.292 -0.122 0 0 -0.529 -1.664 0 0 -0.082 -0.282 -0.741 -2.232 -0.128 -0.301 -0.458 -0.974 -0.079 -0.128 -0.394 -0.436" />
    <path class="write-flat-pen" fill="#FFFFFF" stroke-width="1.6" __comx="165.514" __comy="202.607" __timestamp="0x1790b29352e" d="M160.554 209.756 l-0.082 0.658 -0.001 0.189 0.073 1.901 0.019 0.542 0.169 5.743 0.002 0.621 0.01 4.617 0 0 0.126 0.726 1.265 0.202 -1.265 -0.202 1.265 0.202 0.886 -1.54 0 0 2.742 -8.497 0 0 -1.261 -0.628 -2.033 2.84 -0.835 2.138 0.345 1.491 1.294 1.011 3.988 0.973 0.31 0.045 0.212 0.017 2.744 0.227 0.034 -0.123 -2.468 -1.221 -0.183 -0.092 -0.289 -0.13 -3.645 -1.106 -0.631 -0.481 -0.128 -0.506 0.574 -1.54 1.878 -2.724 -1.261 -0.628 0 0 -2.683 8.369 0 0 -0.779 1.439 1.265 0.202 -1.265 -0.202 1.265 0.202 -0.135 -0.603 0 0 -0.134 -4.5 -0.025 -0.642 -0.431 -5.757 -0.064 -0.563 -0.333 -1.891 -0.043 -0.173 -0.17 -0.627" />
    <path class="write-flat-pen" fill="#FFFFFF" stroke-width="1.6" __comx="182.749" __comy="202.607" __timestamp="0x1790b293ef2" d="M181.251 187.739 l0.383 -1.85 0.055 -0.216 0.409 -1.7 -0.013 -0.234 -0.813 -0.217 -0.858 0.853 -0.244 0.578 -1.285 4.683 -0.664 5.301 -0.036 4.676 0.571 4.19 1.315 4.21 1.45 2.411 2.185 1.685 0.556 0.204 0.46 0.106 2.539 0.578 0.053 -0.138 -2.271 -1.272 -0.378 -0.217 -0.344 -0.218 -1.733 -1.627 -1.206 -2.092 -1.23 -3.94 -0.553 -3.972 -0.003 -4.498 0.576 -5.14 1.148 -4.549 0.127 -0.352 0.543 -0.878 -0.813 -0.217 0.037 0.085 -0.149 1.593 -0.03 0.231 -0.129 1.901" />
    <path class="write-flat-pen" fill="#FFFFFF" stroke-width="1.6" __comx="198.992" __comy="202.607" __timestamp="0x1790b2941a4" d="M191.198 209.024 l-0.108 -1.336 0.024 -0.307 0.867 -6.223 0 0 0.122 -0.685 0 0 1.179 -8.608 0 0 -1.277 0.012 0.456 3.247 1.197 3.542 1 1.416 1.431 0.546 1.563 -0.646 1.624 -1.896 1.6 -3.256 1.369 -4.471 0 0 0.131 -2.224 0 0 -1.409 -0.084 -0.142 2.333 0.717 6.189 1.209 5.435 1.391 3.864 1.431 1.609 0.34 0.077 1.813 0.169 0.044 -0.109 -1.421 -1.138 0.004 -0.059 -0.934 -1.274 -1.281 -3.542 -1.183 -5.271 -0.707 -5.99 0.129 -2.208 -1.409 -0.084 0 0 -0.121 2.055 0 0 -1.288 4.201 -1.475 2.993 -1.285 1.51 -0.736 0.313 -0.522 -0.189 -0.649 -0.901 -1.113 -3.23 -0.499 -3.118 -1.277 0.012 0 0 -1.075 8.599 0 0 -0.112 0.695 0 0 -0.604 6.332 0.016 0.439 0.393 1.368" />
    <path class="write-flat-pen" fill="#FFFFFF" stroke-width="1.6" __comx="214.116" __comy="202.607" __timestamp="0x1790b294305" d="M212.562 204.184 l0.29 0.605 0.034 0.118 0.608 1.829 0.086 0.339 1.043 7.156 0.377 2.776 0.145 0.004 0.527 -2.841 -1.053 -7.324 -0.152 -0.452 -0.874 -1.802 -0.114 -0.183 -0.535 -0.506" />
    <path class="write-flat-pen" fill="#FFFFFF" stroke-width="1.6" __comx="231.941" __comy="202.607" __timestamp="0x1790b2945f1" d="M222.42 209.295 l0.548 -0.043 0.161 -0.243 0.796 -2.081 0.115 -0.513 0.719 -5.873 0.036 -0.618 0 0 -0.114 -7.077 0 0 -1.338 0.323 2.969 6.298 2.908 4.843 2.263 2.77 1.787 1.374 1.856 0.576 1.655 -0.191 1.644 -0.924 1.456 -1.747 1.058 -2.491 0.625 -3.78 -0.073 -3.4 -0.967 -5.664 -2.103 -6.074 -0.507 -0.174 -0.217 0.08 -0.514 0.56 0.01 0.094 0.618 0.443 -0.099 0.068 -0.366 -0.11 1.632 5.495 0.937 5.436 0.076 3.138 -0.551 3.458 -0.885 2.117 -1.122 1.368 -1.131 0.655 -1.043 0.139 -1.31 -0.386 -1.447 -1.105 -2.092 -2.557 -2.818 -4.692 -2.975 -6.217 -1.338 0.323 0 0 0.313 7.026 0 0 -0.015 0.541 -0.448 5.825 -0.065 0.427 -0.508 2.047 0.018 0.007 -0.252 0.22" />
    <path class="write-flat-pen" fill="#FFFFFF" stroke-width="1.6" __comx="248.566" __comy="202.607" __timestamp="0x1790b294791" d="M242.817 177.168 l0.677 0.126 0.059 0.061 1.335 1.306 0.374 0.412 2.269 2.837 2.322 3.834 1.603 3.719 1.085 4.178 0.368 4.4 -0.321 3.377 -2.224 7.928 -0.395 0.952 -0.82 1.827 -0.403 0.849 -0.356 0.744 -1.115 2.317 0.076 0.046 1.516 -2.077 0.493 -0.674 0.528 -0.808 1.021 -1.768 0.509 -1.012 2.536 -8.058 0.362 -3.635 -0.388 -4.647 -1.147 -4.399 -1.713 -3.898 -2.501 -3.947 -2.49 -2.829 -0.468 -0.442 -1.592 -1.204 -0.325 -0.15 -0.87 0.116" />
    <path class="write-flat-pen" fill="#FFFFFF" stroke-width="1.6" __comx="276.519" __comy="202.607" __timestamp="0x1790b294a0e" d="M279.036 197.05 l0.671 -0.415 0.124 -0.204 0.065 -0.992 -0.25 -0.365 -2.105 -0.578 -0.679 0.163 -2.275 1.192 -1.752 1.679 -1.631 2.631 -0.977 3.044 -0.009 2.154 0.72 1.897 1.573 1.493 2.289 0.702 4.302 -0.947 0.5 -0.244 1.065 -0.683 2.153 -1.594 -0.038 -0.069 -2.478 0.976 -1.135 0.421 -0.387 0.122 -3.904 0.629 -1.658 -0.522 -1.119 -1.059 -0.526 -1.369 0.002 -1.694 0.853 -2.693 1.444 -2.36 1.485 -1.463 1.952 -1.107 0.257 -0.082 1.54 0.2 -0.089 -0.149 0.169 0.537 0.04 -0.04 -0.42 0.527" />
    <path class="write-flat-pen" fill="#FFFFFF" stroke-width="1.6" __comx="275.592" __comy="202.607" __timestamp="0x1790b294acc" d="M269.438 202.142 l1.499 -0.395 0.418 -0.059 7.254 -1.052 0.787 -0.171 2.554 -0.551 -0.011 -0.089 -2.611 0.111 -0.805 0.033 -7.302 0.825 -0.509 0.099 -1.479 0.682" />
    <path class="write-flat-pen" fill="#FFFFFF" stroke-width="1.6" __comx="301.819" __comy="205.662" __timestamp="0x1790b295117" d="M307.546 199.526 l0.327 -0.288 -0.227 0.07 0.09 0.337 0.016 0.124 0.22 3.17 0.004 0.609 -0.398 5.573 -0.365 1.164 -5.016 -0.707 -4.398 0.04 -0.621 -0.267 -0.38 -0.727 -1.883 -9.125 0 0 -0.851 0.959 3.586 0.303 9.586 -1.514 0 0 1.422 0.088 0 0 -0.663 -1.162 -1.296 2.538 -0.733 3.175 -0.088 3.308 0.984 10.173 0.007 4.554 -0.54 2.87 -1.246 3.174 -1.279 1.752 -1.239 0.918 -1.417 0.418 -0.948 -0.13 -0.962 -0.65 -0.516 -0.854 -0.159 -1.298 0.63 -2.008 1.459 -2.083 1.973 -1.78 4.007 -1.77 0.209 -0.047 0.819 -0.094 2.619 -0.219 0.01 -0.118 -2.57 -0.675 -0.908 -0.145 -0.484 0.006 -4.545 1.712 -2.335 2.061 -1.708 2.438 -0.808 2.575 0.243 1.982 0.875 1.448 1.562 1.056 1.658 0.228 2.019 -0.596 1.662 -1.232 1.545 -2.115 1.376 -3.507 0.596 -3.166 -0.007 -4.78 -0.981 -10.151 0.081 -3.049 0.653 -2.827 1.206 -2.363 -0.663 -1.162 0 0 -1.597 -0.099 0 0 -9.568 1.511 -3.393 -0.286 -0.851 0.959 0 0 1.937 9.345 0.757 1.424 1.451 0.606 4.62 -0.1 6.118 0.709 0.621 -2.475 0.289 -5.761 -0.027 -0.707 -0.497 -3.288 -0.14 -0.325 -0.591 -0.565 -0.338 0.091 -0.216 0.624" />
    <path class="write-flat-pen" fill="#FFFFFF" stroke-width="1.6" __comx="320.814" __comy="205.662" __timestamp="0x1790b2952ca" d="M314.87 204.377 l0.534 -0.396 0.059 0 2.146 -0.227 0.472 -0.012 5.75 -0.086 0.483 -0.053 2.738 -0.294 0 -0.08 -2.735 -0.324 -0.485 -0.058 -5.779 -0.097 -0.552 0.043 -2.232 0.502 -0.259 0.127 -0.438 0.691" />
    <path class="write-flat-pen" fill="#FFFFFF" stroke-width="1.6" __comx="344.233" __comy="205.662" __timestamp="0x1790b29573a" d="M330.201 199.477 l0.34 -0.429 -0.495 0.114 0 0.033 0.439 1.264 0.114 0.359 1.126 5.034 0.051 0.414 0 0 0.151 2.763 0 0 -0.32 0.755 0 0 1.405 0.118 -0.361 -2.092 0.251 -2.699 1.027 -3.119 1.109 -1.87 0.622 -0.441 0.439 0.005 0.623 0.5 0.889 1.794 1.009 4.469 0.841 0.371 0 0 1.07 -0.47 1.825 -5.279 0.572 -0.807 -0.044 0.009 0.332 0.27 1.649 5.543 1.049 1.505 1.365 0.364 1.6 -0.721 1.843 -1.839 0 0 2.75 -3.867 0 0 -0.562 -1.21 -0.953 -0.102 -1.466 1.523 -0.857 2.298 -0.064 1.949 0.712 1.749 1.187 1.136 1.675 0.535 1.864 -0.289 1.639 -0.952 1.32 -1.642 0.637 -1.963 -0.253 -1.825 -1.17 -2.006 -2.503 -1.557 -0.43 0.069 -0.149 0.181 -0.205 0.73 0.084 0.127 0.751 0.099 -0.033 0.105 -0.363 0.061 1.646 1.3 0.83 1.424 0.159 1.148 -0.433 1.334 -0.949 1.181 -1.121 0.651 -1.194 0.185 -0.964 -0.308 -0.674 -0.644 -0.456 -1.118 0.042 -1.35 0.646 -1.749 0.703 -0.748 0.199 0.003 -0.562 -1.21 0 0 -2.608 3.803 0 0 -1.569 1.529 -0.861 0.345 -0.278 -0.098 -0.567 -0.838 -1.728 -5.765 -1.325 -1.081 -1.299 0.321 -1.051 1.471 -1.897 5.497 1.07 -0.47 0 0 -0.112 -0.044 -0.906 -3.863 -1.139 -2.255 -1.305 -1.03 -1.453 -0.009 -1.284 0.912 -1.354 2.291 -1.131 3.44 -0.277 3.077 0.44 2.287 1.405 0.118 0 0 0.34 -1.062 0 0 -0.29 -3.094 0 0 -0.085 -0.517 -1.41 -5.081 -0.177 -0.43 -0.749 -1.335 -0.154 -0.095 -0.495 0.114 -0.098 0.538" />
    <path class="write-flat-pen" fill="#FFFFFF" stroke-width="1.6" __comx="366.387" __comy="205.662" __timestamp="0x1790b295963" d="M366.53 191.913 l0.712 -1.335 -0.005 0.018 0.425 -0.192 -0.706 -0.149 -0.029 -0.019 -0.087 1.925 -0.027 0.476 -0.057 4.597 0.485 3.403 0.841 1.899 1.268 1.101 0.894 -0.149 0 0 0.608 -0.992 -0.292 -0.961 -2.218 -0.87 -2.312 -0.166 -1.829 0.599 -1.421 1.342 -0.848 1.717 -0.192 1.919 0.656 1.805 1.19 1.162 1.741 0.637 2.175 -0.2 2.426 -1.796 0.265 -0.482 0.25 -0.802 0.587 -2.381 -0.062 -0.028 -1.403 1.987 -0.45 0.584 -0.164 0.14 -2.008 1.225 -1.407 0.131 -1.086 -0.394 -0.692 -0.669 -0.422 -1.128 0.11 -1.285 0.588 -1.222 0.966 -0.919 1.217 -0.395 1.776 0.136 1.296 0.522 0.074 0.243 0.608 -0.992 0 0 -0.176 0.041 -0.478 -0.39 -0.651 -1.394 -0.516 -3.088 -0.094 -4.472 0.001 -0.49 -0.197 -2.147 -0.087 -0.143 -0.706 -0.149 -0.334 0.471 -0.057 0.114 -0.467 1.471" />
    <path class="write-flat-pen" fill="#FFFFFF" stroke-width="1.6" __comx="132.636" __comy="284.094" __timestamp="0x1790b296f1b" d="M125.287 282.974 l0.111 0.038 -0.215 -0.068 0.312 0.443 0.176 0.255 1.233 1.797 0.429 0.618 4.92 6.371 4.76 4.243 2.857 1.41 0.438 -0.693 -2.394 -1.908 -4.543 -4.105 -5.012 -6.107 -0.465 -0.58 -1.461 -1.673 -0.28 -0.263 -0.564 -0.377 -0.396 -0.163 -0.227 0.55" />
    <path class="write-flat-pen" fill="#FFFFFF" stroke-width="1.6" __comx="132.391" __comy="289.83" __timestamp="0x1790b297037" d="M127.983 300.124 l-0.044 -0.307 0.036 0.016 0.441 -0.745 0.255 -0.425 2.149 -3.803 0.545 -1.025 5.199 -11.684 0.19 -0.617 0.244 -0.991 0.552 -2.654 -0.127 -0.044 -1.211 2.416 -0.452 0.896 -0.262 0.544 -5.345 11.545 -0.506 1.002 -1.919 3.932 -0.206 0.499 -0.258 0.927 -0.031 0.314 0.367 0.42" />
    <path class="write-flat-pen" fill="#FFFFFF" stroke-width="1.6" __comx="146.636" __comy="288.439" __timestamp="0x1790b29805c" d="M145.127 288.658 l1.002 -0.612 0.024 0.012 0.946 0.367 -0.071 -0.049 0.135 1.281 0.06 -0.149 -0.266 0.18 -0.149 -0.067 -0.026 -0.097 0.128 -0.279 -0.982 0.302 0.857 0.483 1.071 -0.767 -0.025 -0.111 -0.811 -0.349 -0.353 -0.342 -0.982 0.302 -0.322 0.865 0.673 1.116 1.287 0.154 0.759 -0.762 0.157 -0.359 -0.524 -1.785 -0.257 -0.227 -1.282 -0.163 -0.215 0.043 -0.93 0.891" />
    <path class="write-flat-pen" fill="#FFFFFF" stroke-width="1.6" __comx="163.194" __comy="286.818" __timestamp="0x1790b298305" d="M162.484 298.868 l-0.35 0.129 0.167 0.062 -0.293 -0.691 -0.1 -0.287 -0.729 -2.75 -0.141 -0.603 -1.028 -8.929 -0.047 -0.516 -0.352 -6.575 0.248 -1.213 0.36 -0.367 0.726 -0.184 2.117 0.334 2.214 0.903 1.735 1.445 0.021 -0.016 0.228 0.443 0.851 2.076 0.073 -0.012 0.139 -2.283 -0.046 -0.66 -0.138 -0.366 -1.992 -1.999 -2.655 -1.081 -2.627 -0.406 -1.476 0.388 -0.98 1.033 -0.345 1.863 0.472 6.791 0.062 0.564 1.313 8.987 0.2 0.689 0.988 2.75 0.194 0.363 0.608 0.74 0.308 0.136 0.446 -0.565" />
    <path class="write-flat-pen" fill="#FFFFFF" stroke-width="1.6" __comx="159.95" __comy="289.811" __timestamp="0x1790b2983f7" d="M152.841 290.65 l0.982 -0.097 0.214 0.001 5.022 -0.075 0.587 -0.04 4.471 -0.57 0.326 -0.074 2.732 -0.607 -0.008 -0.091 -2.797 -0.109 -0.34 -0.014 -4.484 0.359 -0.552 0.046 -5.013 0.354 -0.284 0.047 -0.976 0.357" />
    <path class="write-flat-pen" fill="#FFFFFF" stroke-width="1.6" __comx="214.983" __comy="289.367" __timestamp="0x1790b2996b8" d="M214.292 284.124 l0.924 -1.01 -0.103 0.054 -0.154 0.107 0.046 -0.45 -0.462 0.258 -0.036 0.017 -1.062 0.678 0.527 1.23 0.035 -0.002 0.799 -0.16 1.708 -0.406 0.007 -0.087 -1.705 -0.69 -0.946 -0.046 -0.079 0.012 0.527 1.23 0.864 -0.877 0.069 -0.059 0.523 -0.704 0.059 -0.537 -0.77 -0.038 -0.159 0.079 -0.786 1.271" />
    <path class="write-flat-pen" fill="#FFFFFF" stroke-width="1.6" __comx="213.561" __comy="289.367" __timestamp="0x1790b2998c8" d="M213.189 295.708 l0.446 -0.702 -0.116 0.114 0.28 0.173 -0.157 -0.198 -0.149 0.884 0.288 -0.261 -0.071 -0.05 -0.185 -0.288 -0.144 0.991 -0.027 -0.057 0.816 -0.167 0.069 -0.117 -0.944 -1.196 -0.7 0.412 -0.144 0.991 0.647 0.755 1.146 -0.089 0.424 -0.379 -0.116 -1.714 -0.264 -0.349 -0.972 0.031 -0.173 0.165 -0.239 0.932" />
    <path class="write-flat-pen" fill="#FFFFFF" stroke-width="1.6" __comx="229.585" __comy="289.367" __timestamp="0x1790b299a52" d="M224.491 285.946 l0.484 -0.279 0.002 0.018 1.983 -0.127 0.273 0.002 4.938 0.274 2.784 -0.036 0.009 -0.08 -2.716 -0.682 -4.991 -0.49 -0.378 0.021 -2.081 0.415 -0.199 0.095 -0.395 0.572" />
    <path class="write-flat-pen" fill="#FFFFFF" stroke-width="1.6" __comx="230.011" __comy="289.367" __timestamp="0x1790b299b54" d="M224.484 292.896 l0.619 0.18 0.187 0.032 1.883 0.125 0.401 0.013 5.164 0.007 2.797 -0.32 0.005 -0.143 -2.776 -0.506 -5.18 -0.197 -0.413 0.015 -1.868 0.132 -0.151 0.021 -0.617 0.071" />
    <path class="write-flat-pen" fill="#FFFFFF" stroke-width="1.6" __comx="184.198" __comy="284.62" __timestamp="0x1790b29caab" d="M185.146 282.031 l-0.473 0.003 -0.185 0.125 -0.814 0.874 -0.22 0.372 -0.986 2.614 -0.625 4.313 0.071 3.574 0.724 2.773 1.41 1.942 0.304 0.216 2.129 1.454 0.072 -0.08 -1.671 -1.963 -0.163 -0.204 -1.062 -1.816 -0.625 -2.476 -0.08 -3.357 0.534 -4.134 0.779 -2.506 0.118 -0.271 0.542 -0.915 0.01 -0.044 0.289 -0.206" />
    <path class="write-flat-pen" fill="#FFFFFF" stroke-width="1.6" __comx="304.903" __comy="290.845" __timestamp="0x1790b29e346" d="M300.463 300.369 l0.078 0.498 0.416 -0.028 0.047 -0.104 0.295 -1.786 0.031 -0.432 -0.015 -4.774 -0.028 -0.577 -1.348 -11.939 -0.029 -0.288 -0.077 -2.396 0.323 -1.044 0.795 -0.746 0.988 -0.287 1.448 0.187 1.958 0.871 3.814 3.203 2.141 1.75 0.094 -0.076 -1.324 -2.545 -3.905 -3.61 -2.374 -1.046 -1.976 -0.242 -1.625 0.488 -1.314 1.278 -0.466 1.65 0.16 2.673 0.042 0.339 1.622 11.882 0.044 0.527 0.274 4.724 0.006 0.387 -0.027 1.745 -0.002 0.071 0.416 -0.028 -0.309 -0.398" />
    <path class="write-flat-pen" fill="#FFFFFF" stroke-width="1.6" __comx="302.041" __comy="290.845" __timestamp="0x1790b29e47e" d="M294.389 290.161 l3.106 -0.07 0.483 -0.016 8.986 -0.392 2.763 -0.282 -0.001 -0.104 -2.775 -0.244 -9.009 0.219 -0.495 0.036 -3.092 0.35" />
    <path class="write-flat-pen" fill="#FFFFFF" stroke-width="1.6" __comx="317.533" __comy="290.845" __timestamp="0x1790b29e65b" d="M316.471 284.935 l0.06 -0.68 -0.385 -0.102 -0.537 0.337 -0.184 0.262 -1.01 2.855 -0.106 0.612 -0.194 4.121 0.626 4.122 0.945 2.457 1.881 1.901 0.357 0.176 0.566 0.191 2.442 0.679 0.022 -0.052 -2.16 -1.301 -0.458 -0.293 -0.168 -0.136 -1.457 -1.79 -0.789 -2.141 -0.596 -3.88 0.123 -3.941 0.065 -0.471 0.704 -2.762 0.025 -0.096 0.083 -0.23 -0.262 -0.08 0.164 0.269" />
    <path class="write-flat-pen" fill="#FFFFFF" stroke-width="1.6" __comx="327.616" __comy="290.845" __timestamp="0x1790b29e906" d="M320.769 287.287 l-0.264 1.78 0.011 0.344 0.876 5.374 0.067 0.358 0 0 0.561 3.228 0 0 1.221 -0.058 0.571 -5.046 0.795 -2.949 0.549 -0.798 0.142 -0.023 0.383 0.37 0 0 1.21 4.522 0 0 0.647 0.418 0 0 1.05 -0.381 1.065 -3.444 0.853 -1.477 0.595 -0.371 0.351 0.047 0.543 0.526 0.691 1.776 0.916 4.22 0.499 0.26 0.279 -0.156 0.344 -0.539 -0.021 -0.068 -0.589 -0.251 0.139 -0.113 0.37 0.177 -0.616 -3.909 -0.849 -2.173 -1.083 -1.045 -1.283 -0.169 -1.3 0.808 -1.107 1.9 -1.143 3.58 1.05 -0.381 0 0 -0.196 -0.122 0 0 -1.209 -4.362 0 0 -1.176 -1.094 -1.354 0.27 -0.983 1.44 -0.876 3.272 -0.492 5.161 1.221 -0.058 0 0 -0.731 -3.197 0 0 -0.079 -0.35 -1.132 -5.269 -0.029 -0.244 -0.014 -1.748" />
    <path class="write-flat-pen" fill="#FFFFFF" stroke-width="1.6" __comx="339.138" __comy="290.845" __timestamp="0x1790b29e9f0" d="M336.923 281.496 l0.742 1.369 0.149 0.293 1.522 3.67 0.194 0.604 0.608 3.338 -0.026 3.04 -1.188 3.641 -0.226 0.393 -0.283 0.434 -1.452 2.194 0.077 0.066 1.942 -1.775 0.407 -0.373 0.407 -0.476 1.539 -3.886 0.016 -3.371 -0.712 -3.52 -0.259 -0.724 -1.814 -3.652 -0.221 -0.322 -0.954 -1.248" />
    <path class="write-flat-pen" fill="#FFFFFF" stroke-width="1.6" __comx="358.29" __comy="291.305" __timestamp="0x1790b29f091" d="M352.911 292.197 l8.174 -1.165 2.653 -0.185 0.001 -0.073 -2.687 -0.239 -8.21 1.179" />
    <path class="write-flat-pen" fill="#FFFFFF" stroke-width="1.6" __comx="387.673" __comy="289.625" __timestamp="0x1790b2a0d23" d="M384.818 298.844 l0.611 1.107 0.006 0.023 0 -0.001 0.119 0.539 0.84 -0.25 0.01 -0.053 -0.184 -1.559 -0.067 -0.389 -2.588 -12.611 -0.078 -0.54 -0.544 -6.185 0.205 -1.792 0.553 -0.788 1.093 -0.569 1.81 -0.199 2.244 0.389 1.585 0.812 0.947 1.029 1.252 3.702 0.834 1.417 0.115 -0.016 0.403 -1.7 -1.18 -4.22 -1.387 -1.506 -2.055 -1.053 -2.707 -0.468 -2.333 0.259 -1.702 0.893 -1.001 1.443 -0.25 2.355 0.643 6.379 0.099 0.626 2.867 12.593 0.092 0.375 0.425 1.462 0.016 0.007 0.84 -0.25 -0.366 -0.413 0 -0.001 -0.034 -0.056 -0.861 -0.984" />
    <path class="write-flat-pen" fill="#FFFFFF" stroke-width="1.6" __comx="384.208" __comy="289.625" __timestamp="0x1790b2a0e85" d="M376.412 291.546 l0.893 0.588 0.225 0.112 3.014 0.809 0.635 0.07 6.851 -0.269 0.654 -0.111 0.637 -0.131 2.684 -0.548 -0.008 -0.095 -2.739 -0.065 -0.648 -0.017 -0.63 -0.005 -6.756 0.012 -0.492 -0.035 -2.924 -0.509 -0.139 -0.036 -0.987 -0.326" />
    <path class="write-flat-pen" fill="#FFFFFF" stroke-width="1.6" __comx="404.08" __comy="289.625" __timestamp="0x1790b2a10fe" d="M404.088 280.325 l0.001 -0.741 -0.137 -0.221 -0.639 -0.315 -0.398 0.107 -1.02 1.061 -0.218 0.444 -0.811 2.744 -0.367 3.91 0.284 3.988 0.904 3.437 2.002 3.083 0.385 0.322 0.76 0.46 0.425 0.185 2.378 1.022 0.027 -0.046 -2.034 -1.6 -0.327 -0.261 -0.571 -0.538 -0.192 -0.228 -1.622 -2.915 -0.787 -3.14 -0.277 -3.757 0.299 -3.691 0.628 -2.581 0.086 -0.239 0.575 -0.9 -0.114 0.011 0.262 -0.043 -0.025 -0.071 0.223 0.567" />
    <path class="write-flat-pen" fill="#FFFFFF" stroke-width="1.6" __comx="416.201" __comy="289.625" __timestamp="0x1790b2a1228" d="M408.861 283.917 l0.104 0.53 0.099 0.184 1.139 1.671 0.346 0.416 5.626 5.298 4.423 3.037 2.775 1.073 0.168 -0.313 -2.367 -1.689 -4.213 -3.079 -5.648 -5.075 -0.313 -0.328 -1.303 -1.471 -0.086 -0.087 -0.306 -0.368" />
    <path class="write-flat-pen" fill="#FFFFFF" stroke-width="1.6" __comx="416.332" __comy="289.625" __timestamp="0x1790b2a1306" d="M412.157 296.848 l0.108 -1.264 0.042 -0.155 1.069 -2.285 0.24 -0.414 6.155 -9.887 0.233 -0.49 1.195 -2.499 -0.066 -0.042 -1.766 2.134 -0.347 0.418 -6.395 9.789 -0.256 0.522 -0.879 2.533 -0.027 0.325 0.155 1.324" />
    <path class="write-flat-pen" fill="#FFFFFF" stroke-width="1.6" __comx="432.376" __comy="292.616" __timestamp="0x1790b2a37ae" d="M432.474 287.223 l-0.297 -0.274 -0.218 0.418 -0.038 -0.013 0.167 0.469 -0.012 0.003 0.018 1.447 0.027 -0.092 -0.233 0.195 -0.119 -0.055 -0.278 -0.435 0.023 -0.291 0.157 -0.115 0.188 0.024 0.398 0.464 0.086 0.659 -0.085 0.114 0.237 0.017 -0.152 -0.267 0.037 -0.477 0.298 -0.31 0.168 -0.02 0.123 0.101 0.081 0.552 -0.214 0.405 -0.182 0.061 0.086 0.043 -0.112 0.106 0.147 -0.767 -0.08 -0.128 -1.348 0.176 -0.13 1.498 1.318 0.725 1.363 -0.523 0.687 -1.344 -0.244 -1.592 -1.055 -0.849 -1.31 0.158 -1.025 1.079 -0.099 1.469 0.774 1.262 1.379 0.147 0.793 -1.338 -0.232 -1.556 -1.034 -1.169 -1.282 -0.122 -1.055 0.869 -0.024 1.352 0.92 1.213 1.276 0.081 0.687 -0.845 0.117 -0.33 -0.319 -1.791 -0.091 -0.18 -0.493 -0.454 -0.053 -0.022 -0.218 0.418 0.404 0.018" />
    <path class="write-flat-pen" fill="#FFFFFF" stroke-width="1.6" __comx="461.091" __comy="292.616" __timestamp="0x1790b2a4150" d="M452.171 287.957 l-0.273 0.45 -0.026 0.214 0.035 1.677 0.033 0.368 0.456 3.841 0.043 0.438 -0.001 -0.011 0.25 4.582 0 0 1.481 -0.097 0.003 -0.03 0.471 -4.29 1.039 -4.292 1.164 -2.872 0.528 -0.596 0.21 -0.047 0.363 0.281 0.513 1.364 0.589 5.031 0 0 0.652 0.564 0 0 1.248 -0.294 2.439 -5.746 1.036 -1.581 0.424 -0.221 0.518 0.089 1.066 0.96 1.379 2.607 0.78 3.383 0.386 3.828 0.05 0.175 0.451 2.108 0.064 0.004 0.693 -2.041 0.075 -0.252 -0.154 -4.052 -0.84 -3.71 -1.61 -3.04 -1.615 -1.455 -1.499 -0.262 -1.27 0.661 -1.343 2.047 -2.492 5.879 1.248 -0.294 0 0 -0.189 -0.154 0 0 -0.556 -4.603 -0.735 -1.956 -1.294 -1.004 -1.421 0.321 -1.041 1.173 -1.31 3.229 -1.079 4.509 -0.434 4.51 0.011 0.142 1.481 -0.097 0 0 -0.525 -4.583 -0.001 -0.011 -0.069 -0.453 -0.722 -3.81 -0.066 -0.339 -0.294 -1.596 -0.02 -0.093 0.017 -0.444" />
    <path class="write-flat-pen" fill="#FFFFFF" stroke-width="1.6" __comx="479.112" __comy="292.616" __timestamp="0x1790b2a4331" d="M476.555 270.574 l-0.509 -0.192 0.071 0.768 0.072 0.321 1.329 3.608 0.308 0.762 2.007 5.523 0.804 3.69 0.311 4.331 -0.977 5.049 -0.315 0.719 -0.876 1.574 -0.497 0.778 -1.378 2.138 0.096 0.075 1.738 -1.857 0.656 -0.701 1.091 -1.542 0.453 -0.847 1.25 -5.297 -0.319 -4.597 -0.864 -3.858 -2.148 -5.589 -0.344 -0.764 -1.547 -3.462 -0.096 -0.262 -0.323 -0.693 -0.509 0.327" />
    <path class="write-flat-pen" fill="#FFFFFF" stroke-width="1.6" __comx="250.903" __comy="293.345" __timestamp="0x1790b2a5081" d="M242.923 283.671 l0.282 -0.365 -0.156 0.071 0.424 0.328 0.183 0.191 1.538 1.731 0.463 0.572 6.925 9.662 3.01 3.431 1.613 0.781 1.944 -0.145 0.026 -0.124 -1.534 -0.873 -1.11 -0.784 -2.805 -3.2 -7.06 -9.546 -0.558 -0.616 -1.788 -1.63 -0.369 -0.247 -0.838 -0.22 -0.349 0.116 -0.132 0.759" />
    <path class="write-flat-pen" fill="#FFFFFF" stroke-width="1.6" __comx="252.301" __comy="293.345" __timestamp="0x1790b2a51a6" d="M245.447 302.5 l0.337 -0.911 0.144 -0.244 1.251 -1.935 0.468 -0.694 10.589 -16.938 0.335 -0.746 1.069 -2.372 -0.117 -0.069 -1.544 2.094 -0.479 0.644 -10.792 16.792 -0.438 0.741 -1.074 2.109 -0.137 0.378 -0.095 1.045" />
    <path class="write-flat-pen" fill="#FFFFFF" stroke-width="1.6" __comx="271.463" __comy="293.345" __timestamp="0x1790b2a560f" d="M271.33 288.722 l0.211 0.366 -0.07 -0.138 -0.185 0.081 0.18 -0.064 -0.94 -0.401 0.138 0.19 0.039 -0.243 0.156 -0.095 0.058 0.026 0.177 0.316 -0.056 0.674 -0.214 0.227 0.163 0.013 0.024 0.036 0.15 -0.354 0.096 -0.041 0.013 0.01 0.139 0.5 -0.158 0.457 -0.149 0.092 0.177 0.069 0.035 0.307 0.427 -0.424 -0.017 -0.044 1.738 -0.71 -0.009 -0.092 -1.841 -0.365 -0.313 -0.016 -1.56 0.923 0.161 1.463 1.355 0.547 1.225 -0.79 0.462 -1.379 -0.425 -1.488 -1.165 -0.705 -1.321 0.609 -0.568 1.426 0.5 1.24 1.425 0.219 0.973 -1.214 0.063 -1.537 -0.75 -1.148 -1.201 -0.147 -0.964 0.868 0.073 1.114 0.272 0.391 1.601 0.308 0.382 -0.117 0.176 -0.743 -0.078 -0.155 -0.467 -0.223" />
    <path class="write-flat-pen" fill="#FFFFFF" stroke-width="1.6" __comx="281.561" __comy="307.019" __timestamp="0x1790b2a61c2" d="M277.879 313.877 l-0.335 0.048 0.348 0.157 0.017 -0.039 0.148 -0.8 0.028 -0.239 0.143 -3.605 0 0 -0.014 -0.601 0 0 -0.242 -6.908 0 0 -1.207 0.316 2.054 4.094 3.295 5.035 1.323 1.174 1.473 0.046 0.998 -1.291 0.517 -3.038 -0.226 -4.842 -1 -3.439 -0.243 -0.174 -1.544 -0.743 -0.057 0.06 0.84 1.494 -0.065 -0.007 0.644 3.022 0.224 4.546 -0.406 2.554 -0.348 0.482 -0.296 0.01 -0.841 -0.72 -3.166 -4.819 -2.038 -4.02 -1.207 0.316 0 0 0.388 6.898 0 0 0.033 0.574 0 0 0.132 3.571 0.014 0.236 0.131 0.861 0.04 0.08 0.348 0.157 0.201 -0.272" />
    <path class="write-flat-pen" fill="#FFFFFF" stroke-width="1.6" __comx="438.118" __comy="307.148" __timestamp="0x1790b2a7774" d="M433.006 314.924 l0.447 -0.11 0.065 -0.266 0.372 -2.638 0.054 -0.462 1.248 -7.13 0 0 0.058 -0.249 0 0 0.359 -1.771 0 0 -1.144 -0.074 0.168 3.234 0.639 1.84 0.999 0.839 1.252 -0.302 1.198 -1.74 0 0 1.778 -5.079 0.458 -0.474 0 0 -1.049 -0.337 2.059 12.605 0.055 0.127 1.208 2.509 0.105 -0.032 -0.419 -2.752 -0.005 -0.067 -1.786 -12.574 -1.049 -0.337 0 0 -0.653 0.666 -1.813 5.184 0 0 -0.831 1.228 -0.204 0.057 -0.282 -0.228 -0.482 -1.367 -0.192 -3.065 -1.144 -0.074 0 0 -0.306 1.764 0 0 -0.056 0.267 0 0 -0.981 7.235 -0.025 0.492 -0.094 2.638 0.01 0.038 -0.121 0.233" />
    <path class="write-flat-pen" fill="#FFFFFF" stroke-width="1.6" __comx="113.863" __comy="273.405" __timestamp="0x1790b2a97c3" d="M116.589 268.84 l-0.08 -0.748 -0.314 -0.023 -0.767 0.432 -0.263 0.304 -1.686 3.498 -0.317 0.994 -1.175 4.783 -0.8 6.876 -0.049 6.698 0.758 4.524 1.93 4.849 0.465 0.824 0.469 0.695 1.451 2.162 0.129 -0.071 -1.048 -2.384 -0.329 -0.755 -0.351 -0.813 -1.656 -4.789 -0.694 -4.33 0.05 -6.541 0.781 -6.749 1.096 -4.699 0.265 -0.911 1.382 -3.466 0.106 -0.183 0.414 -0.458 -0.19 -0.022 0.224 0.357" />
    <path class="write-flat-pen" fill="#FFFFFF" stroke-width="1.6" __comx="173.187" __comy="272.745" __timestamp="0x1790b2aa11a" d="M168.516 267.467 l-0.151 0.68 0.138 0.256 1.135 1.566 0.317 0.361 2.925 3.263 1.799 2.811 1.379 3.333 0.65 3.986 -0.155 3.046 -0.831 4.056 -2.285 6.358 -0.396 0.819 -0.874 1.699 -0.397 0.824 -1.137 2.345 0.099 0.058 1.507 -2.126 0.532 -0.748 1.048 -1.621 0.491 -0.854 2.601 -6.404 0.92 -4.239 0.177 -3.285 -0.701 -4.274 -1.514 -3.566 -1.976 -2.957 -3.142 -3.207 -0.325 -0.314 -1.282 -1.345 -0.042 -0.027 -0.125 -0.486" />
    <path class="write-flat-pen" fill="#FFFFFF" stroke-width="1.6" __comx="191.959" __comy="291.673" __timestamp="0x1790b2aaa9e" d="M186.217 290.974 l0.42 0.392 -0.002 0.027 0.494 1.473 0.055 0.242 0.389 4.895 -0.008 0.026 0 0 -0.088 0.236 0 0 1.222 0.196 0.184 -3.338 0.598 -2.57 0.452 -0.48 0 0 -1.09 -0.175 1.395 2.993 1.231 0.73 1.388 -1.162 1.499 -3.099 0.43 -0.318 -1.062 -0.326 2.091 5.495 1.838 1.042 0.049 -0.05 -0.892 -1.63 -1.78 -5.325 -1.062 -0.326 -0.713 0.52 -1.511 3.153 -0.417 0.362 -0.045 -0.017 -1.228 -2.609 -1.09 -0.175 0 0 -0.701 0.743 -0.696 3.044 -0.111 3.463 1.222 0.196 0 0 0.072 -0.332 0 0 0.028 -0.255 -0.686 -5.089 -0.125 -0.365 -0.791 -1.473 -0.137 -0.164 -0.662 -0.229" />
    <path class="write-flat-pen" fill="#FFFFFF" stroke-width="1.6" __comx="200.619" __comy="285.289" __timestamp="0x1790b2aac43" d="M197.217 282.286 l0.097 0.626 0.08 0.191 0.983 1.762 0.25 0.421 2.025 3.646 1.553 3.817 0.616 2.83 0.011 3.37 -0.103 0.536 -0.315 1.189 -0.733 2.557 0.115 0.046 1.257 -2.356 0.548 -1.162 0.214 -0.669 0.207 -3.621 -0.649 -3.084 -1.675 -3.973 -2.244 -3.638 -0.298 -0.417 -1.202 -1.59 -0.083 -0.106 -0.307 -0.5" />
  </g>
</svg>
