<svg class="write-page" color-interpolation="linearRGB" width="982px" height="1584px" xmlns="http://www.w3.org/2000/svg" xmlns:xlink="http://www.w3.org/1999/xlink">
  <g class="write-content write-v3" width="982" height="1584" xruling="30" yruling="30" marginLeft="30" papercolor="#000000" rulecolor="#0D9D00FF">
    <g class="ruleline write-std-ruling write-scale-down" fill="none" stroke="#9D00FF" stroke-opacity="0.051" stroke-width="1" shape-rendering="crispEdges" vector-effect="non-scaling-stroke">
      <rect class="pagerect" fill="#000000" stroke="none" x="0" y="0" width="982" height="1584" />
      <path class="yrule_1" d="M0 30 l982 0" />
      <path d="M0 60 l982 0" />
      <path d="M0 90 l982 0" />
      <path d="M0 120 l982 0" />
      <path d="M0 150 l982 0" />
      <path d="M0 180 l982 0" />
      <path d="M0 210 l982 0" />
      <path d="M0 240 l982 0" />
      <path d="M0 270 l982 0" />
      <path d="M0 300 l982 0" />
      <path d="M0 330 l982 0" />
      <path d="M0 360 l982 0" />
      <path d="M0 390 l982 0" />
      <path d="M0 420 l982 0" />
      <path d="M0 450 l982 0" />
      <path d="M0 480 l982 0" />
      <path d="M0 510 l982 0" />
      <path d="M0 540 l982 0" />
      <path d="M0 570 l982 0" />
      <path d="M0 600 l982 0" />
      <path d="M0 630 l982 0" />
      <path d="M0 660 l982 0" />
      <path d="M0 690 l982 0" />
      <path d="M0 720 l982 0" />
      <path d="M0 750 l982 0" />
      <path d="M0 780 l982 0" />
      <path d="M0 810 l982 0" />
      <path d="M0 840 l982 0" />
      <path d="M0 870 l982 0" />
      <path d="M0 900 l982 0" />
      <path d="M0 930 l982 0" />
      <path d="M0 960 l982 0" />
      <path d="M0 990 l982 0" />
      <path d="M0 1020 l982 0" />
      <path d="M0 1050 l982 0" />
      <path d="M0 1080 l982 0" />
      <path d="M0 1110 l982 0" />
      <path d="M0 1140 l982 0" />
      <path d="M0 1170 l982 0" />
      <path d="M0 1200 l982 0" />
      <path d="M0 1230 l982 0" />
      <path d="M0 1260 l982 0" />
      <path d="M0 1290 l982 0" />
      <path d="M0 1320 l982 0" />
      <path d="M0 1350 l982 0" />
      <path d="M0 1380 l982 0" />
      <path d="M0 1410 l982 0" />
      <path d="M0 1440 l982 0" />
      <path d="M0 1470 l982 0" />
      <path d="M0 1500 l982 0" />
      <path d="M0 1530 l982 0" />
      <path d="M0 1560 l982 0" />
      <path class="xrule_1" d="M30 0 l0 1584" />
      <path d="M60 0 l0 1584" />
      <path d="M90 0 l0 1584" />
      <path d="M120 0 l0 1584" />
      <path d="M150 0 l0 1584" />
      <path d="M180 0 l0 1584" />
      <path d="M210 0 l0 1584" />
      <path d="M240 0 l0 1584" />
      <path d="M270 0 l0 1584" />
      <path d="M300 0 l0 1584" />
      <path d="M330 0 l0 1584" />
      <path d="M360 0 l0 1584" />
      <path d="M390 0 l0 1584" />
      <path d="M420 0 l0 1584" />
      <path d="M450 0 l0 1584" />
      <path d="M480 0 l0 1584" />
      <path d="M510 0 l0 1584" />
      <path d="M540 0 l0 1584" />
      <path d="M570 0 l0 1584" />
      <path d="M600 0 l0 1584" />
      <path d="M630 0 l0 1584" />
      <path d="M660 0 l0 1584" />
      <path d="M690 0 l0 1584" />
      <path d="M720 0 l0 1584" />
      <path d="M750 0 l0 1584" />
      <path d="M780 0 l0 1584" />
      <path d="M810 0 l0 1584" />
      <path d="M840 0 l0 1584" />
      <path d="M870 0 l0 1584" />
      <path d="M900 0 l0 1584" />
      <path d="M930 0 l0 1584" />
      <path d="M960 0 l0 1584" />
      <path class="leftmargin" stroke="#FF0000" d="M30 0 l0 1584" />
    </g>
    <path class="write-flat-pen" fill="#FFFFFF" stroke-width="1.8" __comx="41.166" __comy="21.79" __timestamp="0x177dac31694" d="M39.642 9.223 l-0.196 0.546 -0.003 0.188 0.058 0.354 0.051 0.159 0.146 0.455 0.083 0.216 0.27 0.707 0.106 0.272 0.477 1.373 0.114 0.39 0.426 2.19 0.25 4.134 0.081 5.165 0.01 1.029 0.017 1.001 0.042 0.951 0.071 0.869 0.102 0.77 0.179 0.665 0.203 0.76 0.206 -0.007 0.152 -0.772 0.134 -0.671 0.07 -0.756 0.075 -0.855 0.052 -0.943 0.043 -0.997 0.029 -1.044 -0.027 -5.216 -0.273 -4.27 -0.505 -2.348 -0.163 -0.49 -0.583 -1.413 -0.146 -0.295 -0.354 -0.682 -0.108 -0.193 -0.221 -0.406 -0.058 -0.092 -0.096 -0.169 -0.011 0.061 0.064 -0.432" />
    <path class="write-flat-pen" fill="#FFFFFF" stroke-width="1.8" __comx="52.22" __comy="21.79" __timestamp="0x177dac3175b" d="M51.222 26.419 l-0.102 1.516 0.049 0.405 0.672 1.561 0.194 0.218 0.219 0.122 0.898 0.414 0.168 -0.163 -0.388 -0.91 -0.06 -0.164 -0.018 -0.078 -0.504 -1.315 -0.025 -0.149 -0.002 -1.42" />
    <path class="write-flat-pen" fill="#FFFFFF" stroke-width="1.8" __comx="65.852" __comy="21.79" __timestamp="0x177dac31931" d="M65.164 16.699 l0.402 -0.298 0.081 -0.058 0.183 -0.126 0.047 -0.052 0.11 -0.128 0.091 -0.155 0.072 -0.236 -0.003 -0.264 -0.062 -0.293 -0.145 -0.266 -0.494 -0.432 -0.329 -0.137 -0.641 -0.147 -1.187 0.09 -1.218 0.379 -1.163 0.713 -0.712 0.727 -0.641 0.995 -0.445 1.248 -0.202 1.452 0.141 1.639 0.456 1.754 0.665 1.684 1.153 2.084 0.856 1.16 0.936 0.879 1.044 0.544 1.178 0.227 0.764 -0.066 1.319 -0.453 1.33 -0.898 1.286 -1.204 1.141 -1.44 0.849 -1.559 0.533 -1.648 0.236 -2.382 -0.159 -1.576 -0.491 -1.395 -0.835 -1.189 -1.06 -0.896 -1.047 -0.555 -1.343 -0.28 -0.952 0.148 -0.891 0.461 -0.96 1.205 -0.216 0.629 -0.123 0.621 -0.042 0.624 0.017 0.665 0.125 0.666 0.249 0.609 0.338 0.794 0.227 -0.03 0.118 -0.855 0.085 -0.612 0.061 -0.558 0.107 -0.539 0.111 -0.497 0.141 -0.447 0.134 -0.294 0.637 -0.719 0.377 -0.184 0.412 -0.059 0.835 0.18 0.692 0.371 0.768 0.652 0.589 0.837 0.356 1.004 0.129 1.225 -0.194 2.053 -0.428 1.347 -0.706 1.314 -0.979 1.246 -1.106 1.044 -1.053 0.719 -0.942 0.332 -0.361 0.035 -0.748 -0.136 -0.659 -0.339 -0.682 -0.637 -0.714 -0.968 -1.062 -1.909 -0.6 -1.506 -0.412 -1.543 -0.134 -1.347 0.14 -1.143 0.319 -0.961 0.454 -0.748 0.476 -0.513 0.858 -0.549 0.906 -0.296 0.842 -0.086 0.356 0.058 0.065 0.013 0.228 0.122 -0.008 -0.049 0.053 0.046 0.037 0.014 0.039 0.007 0.02 0.039 0.003 0.086 0.015 -0.001 -0.049 0.17 -0.018 0.06 -0.284 0.376" />
    <path class="write-flat-pen" fill="#FFFFFF" stroke-width="1.8" __comx="80.462" __comy="21.79" __timestamp="0x177dac31a0f" d="M80.44 23.505 l-0.392 0.839 -0.12 0.33 -0.293 1.152 -0.068 0.494 -0.064 1.822 0.058 0.379 0.111 0.286 0.39 0.928 0.271 -0.016 0.28 -0.967 0.078 -0.277 0.043 -0.311 0.144 -1.724 0.045 -0.396 0.187 -1.081 0.04 -0.248 0.271 -0.818" />
    <path class="write-flat-pen" fill="#FFFFFF" stroke-width="1.8" __comx="92.969" __comy="21.79" __timestamp="0x177dac31c24" d="M91.618 14.556 l-0.226 -0.644 -0.059 -0.156 -0.147 -0.343 -0.084 -0.131 -0.312 -0.383 -0.217 -0.149 -0.795 -0.298 -0.374 -0.002 -0.735 0.134 -0.962 0.467 -0.854 0.728 -0.523 0.867 -0.223 0.827 0.113 0.89 0.445 0.825 0.835 0.731 1.231 0.553 1.453 0.417 4.905 0.637 1.158 0.301 0.85 0.401 0.624 0.544 0.3 0.42 0.248 0.778 0.023 0.561 -0.23 1.042 -0.588 1.152 -0.567 0.716 -0.716 0.637 -0.839 0.527 -0.943 0.379 -1.727 0.265 -0.547 0.021 -1.237 -0.142 -0.556 -0.11 -0.547 -0.142 -0.489 -0.149 -0.459 -0.158 -0.438 -0.169 -0.477 -0.162 -0.835 -0.286 -0.116 0.168 0.563 0.68 0.352 0.411 0.438 0.337 0.493 0.294 0.541 0.251 0.614 0.224 0.654 0.18 1.405 0.238 0.754 0.003 2.006 -0.252 1.253 -0.482 1.077 -0.667 0.92 -0.815 0.749 -0.95 0.738 -1.48 0.295 -1.445 -0.068 -0.969 -0.419 -1.178 -0.549 -0.728 -0.911 -0.768 -1.152 -0.531 -1.372 -0.351 -4.883 -0.642 -1.246 -0.364 -0.937 -0.428 -0.474 -0.419 -0.191 -0.357 -0.043 -0.338 0.094 -0.357 0.292 -0.5 0.53 -0.474 0.625 -0.327 0.423 -0.102 0.024 -0.008 0.453 0.104 -0.034 -0.033 0.224 0.169 0.027 0.015 0.195 0.216 0.064 0.067 0.283 0.564" />
    <path class="write-flat-pen" fill="#FFFFFF" stroke-width="1.8" __comx="99.642" __comy="21.79" __timestamp="0x177dac31cd1" d="M90.588 13.791 l0.775 -0.444 0.126 -0.026 0.637 -0.104 0.404 -0.03 10.309 0.059 0.927 -0.032 0.961 -0.068 0.93 -0.099 0.96 -0.127 1.034 -0.11 1.063 -0.192 0.629 -0.113 -0.003 -0.121 -0.634 -0.084 -1.067 -0.144 -1.04 -0.087 -0.973 -0.068 -0.928 -0.047 -0.945 -0.031 -0.909 -0.033 -10.384 -0.127 -0.559 0.071 -0.788 0.207 -0.327 0.141 -0.849 0.582" />
    <path class="write-flat-pen" fill="#FFFFFF" stroke-width="1.8" __comx="49.866" __comy="79.517" __timestamp="0x177dac32006" d="M38.058 66.265 l0.331 -0.577 -0.477 0.133 -0.119 -0.153 -0.002 0.074 0.007 0.444 -0.013 0.274 -0.064 0.704 -0.042 0.365 -0.195 1.288 -0.069 0.471 -0.558 3.551 -0.093 0.706 -0.706 4.85 -0.335 4.393 0.087 1.848 0.288 1.332 0.371 0.658 0.738 0.514 1.105 0.03 1.256 -0.582 1.334 -1.07 2.017 -2.182 4.069 -4.846 1.797 -1.843 0.917 -0.754 0.863 -0.497 0.285 -0.06 0.085 0.027 0.289 0.294 0.369 0.696 1.327 3.895 0.901 2.192 1.486 3.005 0.777 1.271 0.775 0.848 0.789 0.402 1.121 -0.069 1.148 -0.665 1.039 -1.168 0.838 -1.546 0.68 -1.801 0.802 -3.047 0.574 -3.236 0.155 -3.273 -0.146 -2.187 -0.451 -2.117 -0.676 -1.94 -0.861 -1.697 -0.963 -1.341 -1.203 -1.305 -0.982 -0.784 -1.275 -0.279 -0.575 0.238 -0.371 0.341 -0.267 0.475 -0.147 0.539 -0.053 0.603 0.023 0.659 0.118 0.735 0.265 0.758 0.274 0.722 0.126 -0.012 0.132 -0.76 0.122 -0.738 0.155 -0.63 0.139 -0.541 0.136 -0.412 0.124 -0.239 0.089 -0.091 -0.004 0.025 -0.163 0.076 0.378 0.111 0.57 0.467 1.036 1.138 0.815 1.152 0.74 1.478 0.597 1.728 0.401 1.886 0.13 1.961 -0.145 3.06 -0.54 3.055 -0.757 2.89 -0.603 1.607 -0.681 1.269 -0.714 0.818 -0.554 0.336 -0.256 0.028 -0.108 -0.046 -0.472 -0.494 -0.67 -1.059 -1.454 -2.871 -0.864 -2.09 -1.351 -3.969 -0.54 -1.016 -0.735 -0.744 -0.864 -0.272 -0.946 0.194 -1.204 0.69 -1.09 0.895 -1.898 1.951 -4.079 4.864 -1.915 2.059 -1.09 0.87 -0.734 0.339 -0.241 -0.007 -0.037 -0.027 -0.069 -0.125 -0.209 -0.963 -0.08 -1.616 0.305 -4.243 0.658 -4.814 0.086 -0.702 0.492 -3.56 0.054 -0.489 0.134 -1.33 0.02 -0.422 0.004 -0.77 -0.023 -0.364 -0.086 -0.543 -0.069 -0.275 -0.4 -0.737 -0.825 0.214 -0.528 1.007" />
    <path class="write-flat-pen" fill="#FFFFFF" stroke-width="1.8" __comx="71.095" __comy="79.517" __timestamp="0x177dac321bc" d="M66.196 81.259 l0.135 0.444 0.092 0.175 0.141 0.167 0.131 0.105 0.162 0.099 0.175 0.081 0.23 0.079 0.293 0.061 0.656 0.01 0.416 -0.058 0.794 -0.183 0.419 -0.129 1.456 -0.633 0.4 -0.23 1.323 -0.883 1.077 -0.966 0.592 -0.846 0.268 -0.983 -0.337 -0.806 -0.753 -0.439 -1.225 0.076 -1.472 0.567 -1.497 0.844 -0.911 0.762 -0.677 0.924 -0.417 1.041 -0.242 1.419 0.068 1.352 0.525 1.249 0.65 0.785 1.228 0.8 1.386 0.363 0.548 0.063 0.528 0.026 0.506 0.002 0.527 -0.03 0.492 -0.061 0.503 -0.145 0.425 -0.167 0.378 -0.188 0.807 -0.42 -0.026 -0.157 -0.9 -0.135 -0.432 -0.053 -0.443 0.004 -0.425 -0.009 -0.395 -0.032 -0.466 -0.038 -0.447 -0.048 -0.46 -0.059 -0.401 -0.071 -1.036 -0.313 -0.813 -0.54 -0.345 -0.416 -0.324 -0.77 -0.044 -0.894 0.183 -1.078 0.276 -0.696 0.441 -0.602 0.649 -0.541 1.269 -0.711 1.134 -0.437 0.493 -0.033 -0.13 -0.077 -0.078 -0.191 -0.044 0.194 -0.32 0.48 -0.85 0.787 -1.176 0.822 -0.285 0.175 -1.29 0.626 -0.3 0.113 -0.686 0.217 -0.272 0.072 -0.457 0.071 -0.14 0.009 -0.145 -0.002 -0.096 -0.001 -0.081 -0.001 -0.044 0.007 -0.059 0.011 -0.017 0.037 -0.174 -0.309" />
    <path class="write-flat-pen" fill="#FFFFFF" stroke-width="1.8" __comx="82.411" __comy="79.517" __timestamp="0x177dac32271" d="M81.551 82.064 l-0.056 0.977 -0.014 0.447 0.703 4.898 0.124 0.199 0.099 0.076 0.366 0.287 0.568 -0.536 -0.265 -0.382 0.072 0.047 0.075 0.06 -0.65 -4.741 -0.038 -0.37 -0.056 -0.961" />
    <path class="write-flat-pen" fill="#FFFFFF" stroke-width="1.8" __comx="80.073" __comy="79.517" __timestamp="0x177dac322e6" d="M80.492 73.377 l0.066 -0.591 -0.433 0.062 0.314 -0.11 0.171 -0.236 -0.365 -0.601 -0.707 0.169 0.013 1.28" />
    <path class="write-flat-pen" fill="#FFFFFF" stroke-width="1.8" __comx="92.576" __comy="79.517" __timestamp="0x177dac324c3" d="M83.901 66.091 l0.028 0.451 0.005 0.182 0.008 0.261 0.064 0.361 0.237 0.918 0.177 0.536 1.731 5.181 0.731 2.581 1.788 8.808 0.251 0.464 1.022 0.19 0.694 -1.939 0.518 -1.002 0.757 -0.988 0.609 -0.562 1.044 -0.681 1.242 -0.492 1.296 -0.173 0.571 0.041 0.816 0.291 0.878 0.606 0.714 0.727 0.436 0.718 0.219 0.814 0.006 0.561 -0.128 0.533 -0.299 0.546 -0.947 0.948 -0.836 0.559 -1.001 0.433 -1.756 0.292 -1.257 0.037 -1.859 -0.365 -0.496 -0.16 -0.419 -0.159 -0.365 -0.148 -0.276 -0.114 -0.177 -0.067 -0.099 -0.034 -0.128 -0.05 -0.87 -0.368 -0.114 0.103 0.277 0.903 0.073 0.174 0.144 0.185 0.233 0.213 0.315 0.223 0.401 0.234 0.475 0.233 0.622 0.246 2.12 0.488 1.547 -0.029 2.052 -0.338 1.305 -0.565 1.081 -0.726 1.206 -1.226 0.49 -0.933 0.198 -0.921 -0.036 -0.931 -0.341 -1.184 -0.641 -1.029 -0.932 -0.937 -1.149 -0.789 -1.182 -0.419 -0.918 -0.063 -1.617 0.233 -1.526 0.628 -1.254 0.825 -0.783 0.724 -0.903 1.183 -0.617 1.193 -0.333 0.924 0.77 0.148 0.156 0.295 -1.842 -8.629 -0.749 -2.657 -1.803 -5.203 -0.203 -0.514 -0.325 -0.852 -0.127 -0.295 -0.105 -0.248 -0.093 -0.127 -0.091 -0.376" />
    <path class="write-flat-pen" fill="#FFFFFF" stroke-width="1.8" __comx="109.326" __comy="79.517" __timestamp="0x177dac328f9" d="M110.672 88.135 l-1.593 -0.478 -0.131 0.021 -0.857 0.3 -0.111 0.758 0.735 0.533 0.001 0.04 1.484 0.427" />
    <path class="write-flat-pen" fill="#FFFFFF" stroke-width="1.8" __comx="105.921" __comy="79.517" __timestamp="0x177dac32a42" d="M107.932 68.752 l-2.236 -0.452 -0.787 0.091 -0.385 0.149 -0.303 0.211 -0.231 0.287 -0.069 0.239 -0.011 1.032 0.406 0.247 0.912 -0.484 0.086 -0.016 0.011 0.035 -0.014 0.026 0.005 0.006 0.298 -0.026 1.966 0.398" />
    <path class="write-flat-pen" fill="#FFFFFF" stroke-width="1.8" __comx="138.534" __comy="79.517" __timestamp="0x177dac332ff" d="M131.573 74.378 l-0.274 -0.707 -0.077 -0.264 -0.092 -0.418 -0.033 -0.181 -0.062 -0.488 0.103 -0.571 0.397 -0.745 0.779 -0.869 1.254 -0.991 1.558 -0.983 1.755 -0.817 1.219 -0.382 1.27 -0.223 1.758 -0.086 0.931 0.116 1.173 0.355 0.886 0.495 0.42 0.377 0.417 0.68 0.189 0.82 -0.034 0.705 -0.703 2.033 -0.283 0.537 -2.969 4.33 -0.589 0.776 -6.503 8.294 -0.337 0.479 -0.849 1.395 -0.4 1.023 0.078 0.884 0.538 0.653 0.85 0.379 1.112 0.113 1.265 -0.113 5.018 -1.084 0.735 -0.17 0.726 -0.16 0.671 -0.143 0.672 -0.107 0.65 -0.142 0.639 -0.125 0.625 -0.148 0.573 -0.262 0.821 -0.392 -0.045 -0.307 -0.898 -0.142 -0.591 -0.093 -0.62 -0.035 -0.706 0.018 -0.674 0.079 -0.694 0.064 -0.736 0.12 -0.755 0.138 -0.748 0.152 -4.921 1.025 -0.999 0.091 -0.675 -0.063 -0.229 -0.098 0.057 0.071 0.002 0.044 0.196 -0.513 0.736 -1.222 0.278 -0.398 6.449 -8.299 0.617 -0.824 3.003 -4.474 0.371 -0.738 0.758 -2.375 0.025 -1.131 -0.315 -1.243 -0.662 -1.053 -0.698 -0.622 -1.162 -0.653 -1.443 -0.443 -1.182 -0.151 -1.98 0.092 -1.458 0.256 -1.405 0.442 -1.928 0.905 -1.696 1.086 -1.407 1.123 -0.976 1.102 -0.574 1.122 -0.142 1.038 0.161 0.76 0.081 0.255 0.187 0.475 0.154 0.302 0.329 0.696" />
    <path class="write-flat-pen" fill="#FFFFFF" stroke-width="1.8" __comx="156.305" __comy="79.517" __timestamp="0x177dac333e0" d="M156.115 86.875 l-0.806 0.957 -0.015 0.285 0.292 0.847 0.472 0.111 0.638 -0.628 0.025 0.117 0.595 -0.625" />
    <path class="write-flat-pen" fill="#FFFFFF" stroke-width="1.8" __comx="169.375" __comy="79.517" __timestamp="0x177dac33c6c" d="M171.955 87.59 l-0.49 0.245 0.042 -0.045 0.286 -0.132 0.262 0.18 0.074 0.073 0.037 0.005 0.022 -0.06 0.015 -0.137 0.012 -0.177 0.01 -0.211 0.016 -0.52 0.006 -0.304 -0.03 -2.245 -0.037 -0.584 -0.423 -4.064 -0.644 -3.375 -1.579 -5.747 -0.323 -1.901 -0.071 -1.928 0.122 -0.927 0.261 -0.816 0.015 -0.042 -0.51 -0.008 -0.118 -0.137 0.037 0.125 -0.025 0.344 -0.459 1.208 -1.756 3.333 -3.735 5.918 -0.228 0.325 -1.142 1.75 -0.11 0.871 1.073 0.468 2.868 -0.889 2.119 -0.486 2.519 -0.301 0.877 -0.066 0.864 -0.063 0.843 -0.038 0.816 -0.031 0.756 -0.028 0.733 -0.019 0.698 -0.012 0.668 -0.086 0.874 -0.106 0.05 -0.332 -0.805 -0.356 -0.636 -0.28 -0.743 -0.173 -0.8 -0.09 -0.797 -0.037 -0.839 -0.014 -0.881 0.003 -0.897 0.037 -0.925 0.048 -2.657 0.283 -2.278 0.515 -2.339 0.746 0.626 0.277 -0.092 0.726 0.882 -1.441 0.225 -0.333 3.734 -6.027 1.82 -3.466 0.571 -1.496 0.067 -0.829 -0.201 -0.737 -0.578 -0.641 -0.989 -0.008 -0.622 0.891 -0.389 1.164 -0.162 1.206 0.079 2.168 0.355 2.083 1.588 5.762 0.624 3.248 0.432 3.967 0.038 0.522 0.093 2.203 0.016 0.302 0.044 0.539 0.03 0.235 0.037 0.206 0.045 0.181 0.055 0.174 0.088 0.174 0.121 0.16 0.33 0.242 0.397 -0.161 0.06 -0.06 0.379 -0.321" />
    <path class="write-flat-pen" fill="#FFFFFF" stroke-width="1.8" __comx="181.671" __comy="79.517" __timestamp="0x177dac33d78" d="M181.298 88.057 l0.701 -0.529 -0.022 -0.027 0.188 -0.123 0.818 -0.526 -0.082 -0.522 -0.939 -0.251 -0.237 -0.056 -0.367 0.037 -0.998 0.738" />
    <path class="write-flat-pen" fill="#FFFFFF" stroke-width="1.8" __comx="199.223" __comy="79.517" __timestamp="0x177dac34004" d="M187.648 69.899 l0.194 -0.458 0.122 -0.202 0.132 -0.21 0.144 -0.211 0.177 -0.248 0.206 -0.272 0.509 -0.602 0.26 -0.276 1.373 -1.275 1.404 -1.003 1.68 -0.908 1.706 -0.688 1.541 -0.439 1.362 -0.169 0.901 0.028 0.462 0.178 0.111 0.125 0.138 0.346 0.001 0.586 -0.232 0.821 -0.496 0.982 -1.101 1.64 -1.645 1.856 -1.554 1.43 -1.731 1.151 -0.176 0.373 0 0 0.676 1.117 1.059 -0.042 0.508 -0.048 3.177 -0.302 2.943 -0.072 1.421 0.115 1.961 0.375 1.143 0.365 1.558 0.755 0.883 0.59 0.936 0.956 0.343 0.652 0.25 1.654 -0.037 0.376 -0.224 0.906 -0.432 0.971 -0.665 0.969 -1.459 1.506 -1.195 0.932 -1.443 0.839 -2.649 1.097 -1.956 0.563 -2.041 0.348 -3.093 0.18 -0.936 0.022 -1.761 0.015 -0.733 -0.008 -0.667 -0.001 -0.669 0.014 -0.643 0.046 -0.612 0.057 -0.566 0.111 -0.809 0.167 -0.008 0.154 0.786 0.252 0.551 0.171 0.601 0.121 0.629 0.116 0.661 0.098 0.674 0.076 0.762 0.062 1.801 0.06 0.984 0.004 3.218 -0.132 2.225 -0.365 2.132 -0.61 2.835 -1.169 1.633 -0.95 1.367 -1.078 1.615 -1.702 0.805 -1.215 0.518 -1.244 0.246 -1.161 0.037 -0.671 -0.393 -2.045 -0.562 -1.014 -1.173 -1.191 -1.077 -0.724 -1.729 -0.843 -1.314 -0.426 -2.116 -0.412 -1.569 -0.135 -3.065 0.062 -3.224 0.275 -0.45 0.032 -1.004 -0.024 0.676 1.117 0 0 0.026 -0.005 1.514 -0.993 1.702 -1.576 1.761 -2.002 1.202 -1.817 0.593 -1.21 0.312 -1.178 -0.029 -1.091 -0.37 -0.853 -0.536 -0.556 -1.009 -0.375 -1.259 -0.029 -1.583 0.212 -1.715 0.513 -1.835 0.776 -1.81 1.006 -1.535 1.126 -1.436 1.425 -0.303 0.371 -0.495 0.729 -0.196 0.369 -0.146 0.331 -0.103 0.296 -0.072 0.284 -0.047 0.255 -0.136 0.486" />
    <path class="write-flat-pen" fill="#FFFFFF" stroke-width="1.8" __comx="126.13" __comy="25.515" __timestamp="0x177dac344ef" d="M25.039 14.171 l-0.779 -4.118 -0.901 -3.886 -0.483 -1.561 -0.083 -0.228 -0.385 -0.625 -0.287 -0.2 -0.604 -0.085 -0.475 0.278 -0.571 1.084 -0.136 0.641 -0.346 5.205 -0.029 1.209 -0.42 18.073 -0.065 1.997 -0.762 16.825 -1.456 26.615 -0.879 19.254 -0.212 7.238 0.109 4.872 0.208 1.67 0.512 2.152 0.54 1.3 0.73 1.153 1.478 1.412 1.374 0.773 1.362 0.534 2.745 0.601 4.102 0.14 5.567 -0.458 16.71 -1.952 1.995 -0.18 8.379 -0.586 17.136 -0.7 13.395 -0.095 30.979 0.245 2.52 0.049 10.171 0.252 10.04 0.583 23.823 2.272 12.977 1.087 9.915 0.621 7.174 0.291 8.135 0.091 5.675 -0.231 11.867 -0.76 4.13 -0.388 1.152 -0.318 0.739 -0.467 0.552 -0.739 0.341 -1.129 0.076 -0.952 -0.171 -1.676 -1.92 -7.935 -1.363 -7.516 -0.214 -1.432 -0.445 -4.87 -0.15 -1.748 -0.085 -11.949 0.031 -2.166 0.657 -13.694 1.453 -24.633 0.905 -12.374 0.554 -4.629 1.457 -8.479 1.16 -5.589 0.345 -1.679 0.323 -1.574 0.291 -1.523 0.244 -1.414 0.17 -1.349 0.079 -1.256 -0.101 -1.192 -0.043 -0.733 -0.416 -0.058 -0.241 0.694 -0.421 1.109 -0.304 1.195 -0.302 1.294 -0.308 1.38 -0.327 1.503 -0.345 1.565 -0.359 1.679 -1.185 5.617 -1.477 8.554 -0.564 4.716 -0.91 12.427 -1.452 24.655 -0.656 13.734 -0.03 2.216 0.11 12.038 0.165 1.822 0.487 4.921 0.237 1.503 1.418 7.579 1.915 7.869 0.146 1.417 -0.049 0.629 -0.206 0.69 -0.199 0.273 -0.279 0.181 -0.78 0.219 -3.963 0.383 -11.822 0.784 -5.615 0.231 -8.071 -0.084 -7.134 -0.288 -9.881 -0.617 -12.952 -1.085 -23.843 -2.26 -10.094 -0.603 -10.204 -0.242 -2.534 -0.042 -30.998 -0.183 -13.43 0.088 -17.185 0.667 -8.416 0.58 -2.031 0.174 -16.711 1.894 -5.447 0.448 -3.863 -0.133 -2.48 -0.538 -1.141 -0.444 -1.103 -0.618 -1.194 -1.137 -0.555 -0.872 -0.441 -1.056 -0.467 -1.943 -0.192 -1.503 -0.114 -4.75 0.202 -7.184 0.899 -19.233 1.454 -26.616 0.728 -16.845 0.059 -2.015 0.355 -18.084 0.017 -1.182 0.26 -5.086 0.066 -0.379 0.257 -0.631 -0.209 0.111 -0.101 -0.043 -0.135 -0.101 0.267 0.29 0.046 0.081 0.567 1.448 0.899 3.813 0.707 4.107" />
    <path class="write-flat-pen" fill="#FFFFFF" stroke-width="1.8" __comx="71.965" __comy="167.651" __timestamp="0x177dac35d4a" d="M74.648 157.883 l0.145 -0.665 0.036 -0.083 0.15 -0.367 0.04 -0.102 0.176 -0.453 0.048 -0.147 0.153 -0.509 0.048 -0.231 0.119 -0.853 0.018 -0.301 -0.105 -1.237 -0.129 -0.375 -0.426 -0.65 -0.644 -0.421 -0.909 -0.239 -1.161 0.106 -1.36 0.446 -1.52 0.733 -1.512 0.969 -1.395 1.219 -1.268 1.504 -1.108 1.756 -0.925 1.948 -0.788 2.202 -0.546 2.355 -0.297 3.488 0.087 2.239 0.387 2.175 0.637 2.009 0.828 1.714 0.963 1.418 1.133 1.108 1.268 0.74 1.457 0.37 1.664 -0.103 1.671 -0.607 1.685 -1.013 1.675 -1.388 1.597 -1.583 2.113 -2.549 1.773 -2.598 0.916 -1.697 0.628 -1.64 0.327 -1.48 0.143 -1.867 -0.12 -1.181 -0.411 -1.069 -0.665 -1.006 -0.906 -0.885 -1.42 -0.989 -1.438 -0.698 -1.389 -0.364 -0.306 -0.035 -0.484 -0.003 -0.342 0.081 -0.226 0.1 -0.261 0.167 -0.231 0.252 -0.097 0.264 -0.197 0.954 0.265 0.21 0.883 -0.411 0.148 -0.045 0.053 0.013 0.052 0.005 0.028 0.007 0.042 0.008 0.222 0.027 0.121 0.023 1.121 0.327 1.173 0.583 1.194 0.838 0.673 0.662 0.462 0.7 0.264 0.684 0.084 0.805 -0.113 1.6 -0.263 1.246 -0.53 1.429 -0.809 1.535 -1.66 2.48 -1.99 2.454 -1.476 1.497 -1.518 1.284 -1.451 0.887 -1.322 0.487 -1.207 0.077 -1.019 -0.259 -0.92 -0.539 -0.887 -0.873 -0.812 -1.2 -0.728 -1.516 -0.569 -1.81 -0.349 -1.973 -0.077 -2.039 0.278 -3.285 0.498 -2.162 0.729 -2.047 0.85 -1.798 1.003 -1.589 1.125 -1.334 1.222 -1.068 1.339 -0.858 1.346 -0.649 1.101 -0.364 0.726 -0.071 0.422 0.102 0.19 0.112 0.17 0.23 0.02 0.038 0.147 0.963 0.006 0.161 -0.026 0.777 -0.011 0.152 -0.068 0.476 -0.018 0.126 -0.078 0.472 -0.017 0.124 -0.042 0.422 -0.006 0.14 -0.028 0.707" />
    <path class="write-flat-pen" fill="#FFFFFF" stroke-width="1.8" __comx="96.232" __comy="167.651" __timestamp="0x177dac35f63" d="M89.353 168.962 l-0.396 0.986 0.178 0.011 0.16 -0.011 3.448 -0.398 3.095 -0.139 4.442 0.034 0.869 0.048 0.881 -0.01 0.896 -0.085 0.758 -0.063 0.028 -0.251 -0.725 -0.23 -0.873 -0.284 -0.874 -0.137 -0.895 -0.13 -4.526 -0.102 -3.181 0.145 -3.494 0.493 -0.199 0.041 -0.193 0.089 0.601 0.986" />
    <path class="write-flat-pen" fill="#FFFFFF" stroke-width="1.8" __comx="106.557" __comy="167.651" __timestamp="0x177dac3616f" d="M108.647 164.445 l-0.826 -0.55 -0.409 -0.276 -1.1 -0.608 -0.377 -0.181 -2.38 -1.117 0 0 -1.673 -0.941 0 0 -0.617 -0.498 0 0 -0.505 1.408 0.381 0.001 2.216 0.567 2.913 0.532 2.562 0.255 2.584 0.07 -0.163 -0.07 -0.078 -0.226 -1.108 3.985 -0.665 3.482 -0.047 0.444 -0.02 0.434 0.012 0.428 0.059 0.374 0.104 0.34 0.352 0.933 0.19 0.012 0.463 -0.883 0.145 -0.32 0.109 -0.349 0.078 -0.395 0.065 -0.383 0.066 -0.369 0.685 -3.373 1.177 -4.39 -0.281 -0.878 -0.77 -0.358 -2.86 -0.067 -2.441 -0.243 -2.794 -0.511 -2.343 -0.615 -0.572 -0.01 -0.505 1.408 0 0 0.721 0.577 0 0 1.843 1.029 0 0 2.443 1.118 0.349 0.158 1.052 0.514 0.376 0.206 0.835 0.513" />
    <path class="write-flat-pen" fill="#FFFFFF" stroke-width="1.8" __comx="133.807" __comy="167.651" __timestamp="0x177dac364b9" d="M124.046 178.993 l-0.618 0.272 -0.024 0.003 0.086 -0.092 0.384 0.075 0.23 0.287 0.025 0.132 0.096 -0.341 0.097 -0.292 0.444 -1.469 0.184 -0.653 1.193 -3.936 0.289 -0.883 1.71 -5.376 0.841 -3.256 0.799 -3.848 0 0 0.123 -1.179 0 0 -1.516 -0.55 -0.311 0.452 -0.349 1.211 -0.335 2.781 -0.078 2.435 0.276 2.289 0.402 1.414 0.578 1.061 0.546 0.579 1.026 0.484 1.022 -0.054 1.017 -0.414 1.001 -0.743 0.914 -0.983 1.225 -1.776 1.513 -2.687 0 0 1.225 -2.684 0 0 1.618 -4.31 0 0 -1.623 -0.284 0.045 3.419 2.157 14.655 0.496 2.604 0.872 2.503 0.302 0.517 0.316 0.432 0.312 0.338 0.348 0.281 0.382 0.208 0.368 0.055 0.994 0.043 0.131 -0.266 -0.639 -0.762 -0.156 -0.204 -0.135 -0.179 -0.168 -0.218 -0.176 -0.248 -0.204 -0.329 -0.173 -0.335 -0.749 -2.263 -0.461 -2.455 -2.139 -14.51 -0.046 -3.308 -1.623 -0.284 0 0 -1.602 4.254 0 0 -1.174 2.567 0 0 -1.437 2.561 -1.11 1.612 -0.726 0.779 -0.707 0.523 -0.559 0.227 -0.318 0.017 -0.358 -0.167 -0.181 -0.19 -0.387 -0.705 -0.317 -1.107 -0.247 -2.032 0.072 -2.234 0.311 -2.576 0.237 -0.824 0.157 -0.232 -1.516 -0.55 0 0 -0.096 1.095 0 0 -0.748 3.729 -0.805 3.178 -1.667 5.339 -0.283 0.901 -1.139 3.989 -0.172 0.668 -0.377 1.485 -0.086 0.377 -0.04 0.517 0.02 0.363 0.297 0.383 0.456 0.092 0.313 -0.197 0.042 -0.04 0.526 -0.354" />
    <path class="write-flat-pen" fill="#FFFFFF" stroke-width="1.8" __comx="158.088" __comy="167.651" __timestamp="0x177dac365b3" d="M151.988 172.949 l1.25 -0.128 0.347 -0.026 5.825 -0.518 0.863 -0.105 0.901 -0.174 0.866 -0.196 0.803 -0.213 0.807 -0.314 0.709 -0.272 -0.035 -0.214 -0.759 -0.028 -0.864 -0.037 -0.824 0.054 -0.877 0.077 -0.873 0.095 -0.826 0.049 -5.842 0.434 -0.381 0.05 -1.26 0.215" />
    <path class="write-flat-pen" fill="#FFFFFF" stroke-width="1.8" __comx="167.521" __comy="167.651" __timestamp="0x177dac367c2" d="M166.086 169.138 l-0.395 -0.525 -0.163 -0.248 -0.275 -0.383 -0.148 -0.181 -0.445 -0.49 -0.19 -0.184 -0.826 -0.646 -0.164 -0.116 -0.496 -0.358 -0.008 -0.029 -0.018 0.295 -0.159 0.142 0.155 -0.03 0.575 0.1 4.016 1.764 1.267 0.417 3.252 0.489 0.002 0.01 -0.162 -0.35 0 -0.025 -0.872 1.306 -0.757 1.568 -0.547 2.147 -0.065 0.445 -0.045 0.428 -0.02 0.428 0.003 0.401 0.024 0.358 0.065 0.376 0.158 0.334 0.509 0.888 0.266 -0.035 0.262 -0.99 0.076 -0.287 0.058 -0.263 0.053 -0.304 0.05 -0.362 0.053 -0.367 0.064 -0.365 0.068 -0.346 0.524 -1.913 0.64 -1.326 0.941 -1.443 0.206 -0.788 -0.328 -0.72 -0.763 -0.346 -3.352 -0.475 -1.07 -0.351 -4.129 -1.79 -1.05 -0.178 -0.823 0.178 -0.606 0.525 -0.066 0.888 0.51 0.682 0.74 0.471 0.149 0.092 0.794 0.526 0.132 0.103 0.465 0.393 0.141 0.123 0.327 0.298 0.209 0.185 0.434 0.479" />
    <path class="write-flat-pen" fill="#FFFFFF" stroke-width="1.8" __comx="210.428" __comy="167.651" __timestamp="0x177dac36c06" d="M204.51 171.746 l0.592 -0.338 0.023 0.007 2.985 -0.122 0.902 -0.033 0.985 -0.05 1.025 -0.04 1.032 -0.062 1.081 -0.06 1.109 -0.095 1.082 -0.096 1.139 -0.215 0.637 -0.115 -0.004 -0.191 -0.641 -0.089 -1.142 -0.168 -1.085 -0.081 -1.112 -0.048 -1.083 -0.043 -1.034 -0.015 -1.027 -0.021 -0.988 -0.002 -0.909 -0.01 -3.059 0.074 -0.423 0.056 -0.84 0.591" />
    <path class="write-flat-pen" fill="#FFFFFF" stroke-width="1.8" __comx="224.607" __comy="167.651" __timestamp="0x177dac36e4f" d="M221.977 168.475 l-0.355 -0.676 -0.137 -0.3 -0.277 -0.488 -0.176 -0.255 -0.96 -1.163 -0.072 -0.093 -0.134 -0.199 -0.085 0.668 -0.27 0.03 4.272 1.067 5.922 1.134 -0.382 -0.297 -0.054 -0.382 -1.617 2.54 -1.368 2.736 -0.149 0.324 -0.137 0.297 -0.128 0.302 -0.103 0.297 -0.057 0.299 -0.162 1.061 0.268 0.161 0.861 -0.641 0.245 -0.203 0.215 -0.259 0.197 -0.28 0.189 -0.299 0.187 -0.33 1.382 -2.65 1.834 -2.982 -0.105 -0.83 -0.446 -0.347 -6.267 -1.133 -4.484 -1.131 -1.19 0.124 -0.145 1.119 0.522 0.711 0.118 0.143 1.001 1.096 0.143 0.169 0.306 0.386 0.182 0.228 0.41 0.633" />
    <path class="write-flat-pen" fill="#FFFFFF" stroke-width="1.8" __comx="250.868" __comy="167.651" __timestamp="0x177dac370e1" d="M241.038 179.35 l0.061 -0.836 0.025 -0.114 0.089 -0.418 0.038 -0.164 0.147 -0.65 0.078 -0.262 0.296 -0.943 0.122 -0.332 0.465 -1.215 0.187 -0.482 5.304 -11.851 0.325 -0.832 1.126 -3.103 0 0 1.376 -4.679 0 0 0.393 -1.876 0 0 -1.697 -0.246 -0.151 1.917 0.076 1.82 0.374 2.185 1.513 6.478 1.008 3.195 0.871 2.212 0.959 1.959 1.051 1.724 1.053 1.363 1.486 1.289 0.413 0.27 0.697 0.403 0.352 0.18 0.311 0.149 0.301 0.138 0.262 0.11 0.251 0.099 0.203 0.073 0.174 0.054 0.147 0.039 0.117 0.023 1.009 0.227 0.106 -0.135 -0.455 -0.929 -0.093 -0.143 -0.168 -0.165 -0.174 -0.148 -0.194 -0.145 -0.237 -0.16 -0.237 -0.149 -0.27 -0.169 -0.282 -0.172 -0.299 -0.185 -0.615 -0.404 -0.284 -0.202 -1.26 -1.131 -0.891 -1.16 -0.96 -1.576 -0.894 -1.826 -0.826 -2.091 -0.97 -3.075 -1.49 -6.363 -0.349 -2.026 -0.069 -1.606 0.148 -1.812 -1.697 -0.246 0 0 -0.384 1.809 0 0 -1.344 4.563 0 0 -1.098 3.034 -0.302 0.774 -5.271 11.878 -0.196 0.542 -0.432 1.254 -0.125 0.394 -0.257 1.02 -0.076 0.348 -0.087 0.731 -0.019 0.201 -0.019 0.48 0.003 0.175 0.007 0.869" />
    <path class="write-flat-pen" fill="#FFFFFF" stroke-width="1.8" __comx="246.978" __comy="167.651" __timestamp="0x177dac3720e" d="M241.177 169.353 l0.541 -0.285 -0.098 0.029 4.932 0.945 0.987 0.056 1.028 0.078 1.041 -0.002 1.076 -0.044 1.063 -0.065 1.038 -0.166 0.659 -0.101 0.001 -0.18 -0.658 -0.11 -1.031 -0.18 -1.05 -0.106 -1.053 -0.106 -0.982 -0.113 -0.996 -0.17 -0.932 -0.122 -5.067 -1.013 -0.414 0.065 -0.753 0.523" />
    <path class="write-flat-pen" fill="#FFFFFF" stroke-width="1.8" __comx="280.025" __comy="167.651" __timestamp="0x177dac373d3" d="M268.868 165.052 l0.581 -0.025 0.016 0.027 0.343 0.123 0.361 0.114 2.6 0.636 2.844 0.268 2.268 0.049 8.344 -0.97 1.152 -0.111 1.1 -0.196 1.102 -0.158 1.061 -0.255 0.66 -0.15 -0.011 -0.236 -0.671 -0.088 -1.084 -0.154 -1.148 -0.034 -1.115 0.056 -1.157 0.03 -8.293 0.886 -2.126 -0.049 -2.7 -0.253 -2.5 -0.563 -0.379 -0.083 -0.526 -0.068 -0.21 0.03 -0.628 0.109" />
    <path class="write-flat-pen" fill="#FFFFFF" stroke-width="1.8" __comx="290.879" __comy="167.651" __timestamp="0x177dac375d7" d="M288.964 160.344 l-0.529 -0.599 -0.173 -0.231 -0.174 -0.203 -0.166 -0.179 -0.466 -0.462 -0.099 -0.104 -0.55 -0.733 -0.214 -0.455 0.004 0.304 -0.73 0.497 1.556 1.241 1.269 0.789 1.159 0.479 1.618 0.407 3.131 0.407 0.486 0.148 0.018 0.037 0.003 0.071 -0.096 0.349 -1.139 2.086 -1.948 3.139 -0.202 0.349 -0.162 0.31 -0.149 0.304 -0.095 0.268 -0.08 0.284 -0.011 0.225 0.056 1.096 0.291 0.117 0.797 -0.754 0.128 -0.124 0.153 -0.196 0.128 -0.194 0.158 -0.23 0.176 -0.271 0.208 -0.313 2.005 -3.162 1.244 -2.328 0.213 -0.882 -0.146 -0.855 -0.647 -0.738 -1.07 -0.297 -3.156 -0.401 -1.41 -0.363 -0.929 -0.39 -1.075 -0.674 -2.406 -1.935 -0.972 0.662 0.013 0.919 0.455 0.931 0.766 0.931 0.205 0.184 0.51 0.415 0.165 0.133 0.178 0.143 0.205 0.168 0.572 0.559" />
    <path class="write-flat-pen" fill="#FFFFFF" stroke-width="1.8" __comx="315.074" __comy="167.651" __timestamp="0x177dac37837" d="M317.692 158.139 l0.721 -1.406 0.091 -0.158 0.559 -1.017 0.052 -0.855 -0.803 -0.684 -1.305 -0.21 -1.25 0.092 -2.333 0.515 -1.759 0.615 -1.737 0.881 -1.685 1.196 -1.546 1.539 -1.3 1.792 -1.06 1.961 -0.806 2.062 -0.512 2.133 -0.12 3.115 0.379 1.995 0.689 1.815 0.955 1.562 1.256 1.321 1.487 1.02 0.871 0.403 1.859 0.488 2.075 0.131 2.1 -0.179 2.173 -0.537 2.181 -0.803 2.129 -1.069 1.846 -1.283 1.507 -1.499 1.208 -1.688 0.881 -1.805 0.558 -1.904 0.192 -1.95 -0.079 -2.063 -0.51 -2.174 -0.881 -2.094 -1.483 -2.564 -1.194 -1.727 -0.8 -0.861 -1.249 -0.831 -0.586 -0.191 -0.545 -0.099 -0.607 -0.054 -0.655 0.005 -0.682 0.125 -0.66 0.207 -0.611 0.285 -0.608 0.424 -0.696 0.51 0.077 0.224 0.862 -0.027 0.709 -0.03 0.592 -0.053 0.581 -0.05 0.509 -0.022 0.461 0.04 0.464 0.072 0.365 0.086 0.261 0.097 0.88 0.61 0.577 0.627 1.082 1.568 1.39 2.409 0.78 1.857 0.437 1.867 0.069 1.777 -0.16 1.67 -0.464 1.609 -0.746 1.546 -1.034 1.456 -1.294 1.295 -1.619 1.133 -1.932 0.975 -2.001 0.74 -1.951 0.484 -1.84 0.158 -1.784 -0.114 -1.554 -0.41 -0.606 -0.28 -1.223 -0.837 -1.012 -1.06 -0.785 -1.272 -0.589 -1.527 -0.328 -1.662 0.086 -2.763 0.436 -1.869 0.717 -1.869 0.953 -1.783 1.155 -1.606 1.356 -1.358 1.477 -1.056 1.534 -0.785 1.57 -0.552 2.132 -0.479 0.963 -0.083 0.717 0.089 -0.075 -0.086 0.023 -0.215 -0.369 0.739 -0.095 0.186 -0.662 1.472" />
    <path class="write-flat-pen" fill="#8F3AC9" stroke-width="1.8" __comx="246.915" __comy="214.058" __timestamp="0x177dac3885e" d="M301.087 228.35 l-0.831 -0.305 -0.437 -0.118 -0.46 -0.13 -0.515 -0.087 -1.143 -0.086 -0.694 0.004 -1.469 0.132 -7.493 1.826 -1.04 0.288 -3.299 0.821 -3.561 0.675 -3.831 0.526 -8.628 0.838 -1.542 0.072 -6.443 0.379 -1.657 0.056 -8.631 0.04 -1.76 -0.136 -7.04 -0.684 -1.703 -0.228 -5.118 -0.835 -3.276 -0.716 -4.762 -1.309 -3.046 -1.046 -2.922 -1.212 -2.818 -1.386 -2.629 -1.532 -2.497 -1.718 -2.382 -1.901 -2.148 -2.025 -1.936 -2.129 -1.714 -2.235 -1.491 -2.331 -1.276 -2.326 -1.037 -2.336 -3.09 -8.8 -0.31 -0.859 -0.638 -1.536 -0.34 -0.674 -0.363 -0.622 -0.36 -0.525 -0.405 -0.459 -0.435 -0.283 -0.843 -0.528 -0.331 0.285 0.397 0.912 0.174 0.424 0.227 0.438 0.242 0.488 0.279 0.584 0.269 0.611 0.565 1.473 0.285 0.828 3.076 8.876 1.092 2.468 1.337 2.442 1.561 2.443 1.802 2.351 2.029 2.232 2.247 2.122 2.486 1.984 2.604 1.787 2.74 1.592 2.925 1.433 3.024 1.246 3.147 1.077 4.858 1.333 3.367 0.729 5.19 0.834 1.76 0.227 7.091 0.645 1.843 0.131 8.721 -0.092 1.7 -0.069 6.451 -0.437 1.569 -0.088 8.684 -0.913 3.89 -0.543 3.631 -0.692 3.357 -0.807 1.04 -0.271 7.388 -1.727 1.306 -0.138 0.587 -0.022 1.044 0.013 0.404 0.024 0.423 0.063 0.386 0.043 0.775 0.225" />
    <path class="write-flat-pen" fill="#8F3AC9" stroke-width="1.8" __comx="192.899" __comy="194.443" __timestamp="0x177dac38ac2" d="M191.606 195.84 l-0.462 -0.501 -0.092 -0.128 -0.188 -0.263 -0.096 -0.132 -0.264 -0.36 -0.089 -0.106 -0.322 -0.387 -0.357 -0.214 -0.776 0.072 -0.392 0.418 -0.437 1.287 -0.079 0.468 -0.162 1.822 0.044 1.777 0.287 0.857 0.633 0.553 0.859 -0.003 0.874 -0.735 0.729 -1.247 0.849 -1.979 0.491 -1.681 0 0 0.489 -3.13 0 0 -1.466 0.301 0.842 1.376 0.801 0.882 1.414 0.983 0.428 0.199 0.39 0.128 0.415 0.115 0.439 0.051 0.418 -0.05 1.02 -0.163 0.062 -0.333 -0.893 -0.519 -0.329 -0.189 -0.296 -0.139 -0.31 -0.154 -0.294 -0.139 -0.241 -0.139 -1.145 -0.855 -0.583 -0.651 -0.782 -1.242 -1.466 0.301 0 0 -0.446 3.032 0 0 -0.432 1.49 -0.773 1.803 -0.542 0.935 -0.235 0.205 0.288 0.001 0.122 0.108 -0.08 -0.241 -0.041 -1.464 0.125 -1.686 0.042 -0.307 0.243 -0.907 -0.175 0.176 -0.184 -0.014 -0.184 -0.117 0.255 0.202 0.091 0.073 0.322 0.284 0.137 0.114 0.265 0.209 0.145 0.106 0.533 0.441" />
    <path class="write-flat-pen" fill="#8F3AC9" stroke-width="1.8" __comx="185.65" __comy="161.812" __timestamp="0x177dac38db3" d="M187.463 157.231 l-0.878 0.595 -0.227 0.34 -0.342 1.096 -0.078 0.582 -0.353 6.439 -0.335 3.776 -0.402 2.478 -0.815 3.196 -0.121 0.396 -0.234 0.694 -0.084 0.251 -0.076 0.223 -0.039 0.133 -0.015 0.074 -0.017 0.075 -0.028 0.095 -0.337 0.888 0.092 0.099 0.909 -0.275 0.143 -0.065 0.147 -0.119 0.131 -0.137 0.135 -0.184 0.155 -0.247 0.151 -0.283 0.326 -0.723 0.173 -0.469 0.899 -3.303 0.427 -2.605 0.341 -3.862 0.287 -6.421 0.042 -0.423 0.193 -0.816 -0.037 0.036 0.621 -0.505" />
    <path class="write-flat-pen" fill="#8F3AC9" stroke-width="1.8" __comx="192.344" __comy="155.148" __timestamp="0x177dac38f30" d="M187.151 158.451 l-0.372 -0.74 -0.1 -0.186 -0.26 -0.374 -0.108 -0.14 -0.276 -0.388 -0.02 -0.047 -0.155 -0.392 0.006 -0.029 0.077 -0.545 0.183 -0.39 0.551 -0.713 0.894 -0.738 1.183 -0.673 1.547 -0.524 1.852 -0.338 1.771 -0.1 1.633 0.116 1.289 0.28 0.892 0.341 0.513 0.347 0.152 0.188 0.197 0.504 0.026 0.442 -0.122 0.544 -0.305 0.628 -0.902 1.167 -1.228 1.195 -1.377 1.042 -1.43 0.822 -1.327 0.531 -1.125 0.208 -1.584 -0.124 -0.161 -0.043 -0.262 -0.076 -0.08 -0.016 -0.034 -0.002 -1.153 -0.042 -0.207 0.374 0.647 0.956 0.03 0.034 0.146 0.105 0.367 0.172 0.374 0.135 1.994 0.2 1.511 -0.276 1.589 -0.636 1.622 -0.931 1.545 -1.164 1.391 -1.348 1.078 -1.405 0.458 -0.966 0.201 -0.967 -0.075 -0.933 -0.404 -0.97 -0.469 -0.555 -0.866 -0.568 -1.177 -0.434 -1.515 -0.316 -1.843 -0.127 -1.967 0.114 -2.06 0.38 -1.794 0.616 -1.427 0.819 -1.126 0.948 -0.748 1.006 -0.331 0.778 -0.074 0.966 0.075 0.425 0.362 0.654 0.135 0.175 0.4 0.398 0.126 0.114 0.262 0.249 0.075 0.079 0.422 0.668" />
    <path class="write-flat-pen" fill="#8F3AC9" stroke-width="1.8" __comx="327.912" __comy="225.657" __timestamp="0x177dac39400" d="M328.905 211.981 l-0.271 0.586 -0.105 0.203 -0.205 0.699 -0.099 0.541 -0.198 2.117 -0.037 0.873 -0.238 6.412 -0.512 6.062 -1.17 8.452 -0.032 0.352 -0.024 0.395 0.007 0.016 0.017 0.05 0.228 0.956 0.163 0.05 0.731 -0.679 0.058 -0.097 0.025 -0.075 0.11 -0.413 0.069 -0.362 1.246 -8.484 0.492 -6.142 0.19 -6.448 0.022 -0.846 0.113 -2.053 0.044 -0.46 0.079 -0.599 0.025 -0.147 0.18 -0.619" />
    <path class="write-flat-pen" fill="#8F3AC9" stroke-width="1.8" __comx="335.139" __comy="225.657" __timestamp="0x177dac39591" d="M329.342 218.458 l-0.242 -1.041 -0.018 -0.102 -0.184 -1.014 -0.014 -0.179 0.096 -1.281 0.366 -1.217 0.593 -1.333 0.807 -1.332 1.036 -1.18 1.15 -0.996 1.248 -0.74 0.871 -0.268 0.915 -0.096 0.862 0.103 0.821 0.285 0.778 0.486 0.763 0.702 1.073 1.339 0.49 0.905 0.414 1.352 0.128 1.328 -0.127 1.266 -0.264 0.763 -0.472 0.807 -1.008 1.144 -0.906 0.713 -1.077 0.616 -1.799 0.686 -1.21 0.247 -1.752 0.124 -1.327 -0.124 -0.752 -0.219 0.178 0.203 0.136 0.397 -0.166 0.22 0.076 -0.696 -0.8 -0.369 -0.48 0.509 -0.215 0.326 0.178 0.492 0.258 0.283 1.256 0.439 1.639 0.158 1.99 -0.139 1.443 -0.291 2.044 -0.773 1.292 -0.742 1.115 -0.885 1.196 -1.385 0.615 -1.083 0.364 -1.085 0.156 -1.6 -0.159 -1.639 -0.505 -1.654 -0.632 -1.168 -1.237 -1.542 -0.958 -0.881 -1.051 -0.659 -1.151 -0.4 -1.207 -0.141 -1.241 0.132 -1.195 0.367 -1.532 0.904 -1.339 1.161 -1.195 1.372 -0.919 1.545 -0.651 1.524 -0.417 1.477 -0.086 1.57 0.043 0.383 0.28 1.109 0.043 0.131 0.316 1.026" />
    <path class="write-flat-pen" fill="#8F3AC9" stroke-width="1.8" __comx="347.507" __comy="225.657" __timestamp="0x177dac39781" d="M342.937 231.152 l-0.14 0.802 -0.036 0.225 -0.114 1.951 -0.014 0.319 -0.146 1.489 0.029 -0.111 0.008 -0.084 0.343 -0.181 0.328 0.064 0.136 0.13 -0.08 -0.213 -0.053 -0.151 -0.189 -1 -0.018 -0.221 0.07 -1.35 0.469 -1.701 0.549 -1.247 0.853 -1.333 1.026 -1.189 1.108 -0.965 1.026 -0.634 1.435 -0.383 0.165 0.003 0.545 0.098 0.202 0.062 0.491 0.252 0.232 0.156 0.253 0.202 0.259 0.23 0.243 0.239 0.234 0.255 0.234 0.279 0.234 0.31 0.252 0.288 0.621 0.695 0.158 -0.074 -0.138 -0.922 -0.067 -0.391 -0.135 -0.415 -0.17 -0.404 -0.207 -0.383 -0.247 -0.364 -0.28 -0.343 -0.301 -0.313 -0.338 -0.288 -0.667 -0.42 -0.424 -0.168 -0.759 -0.184 -0.538 -0.045 -1.945 0.467 -1.365 0.838 -1.302 1.134 -1.185 1.369 -0.988 1.548 -0.642 1.486 -0.528 2.002 -0.055 1.651 0.049 0.425 0.294 1.226 0.156 0.33 0.235 0.396 0.285 0.299 0.595 0.142 0.485 -0.248 0.225 -0.441 0.051 -0.185 0.064 -1.659 0.007 -0.34 0.01 -1.925 -0.001 -0.188 0.033 -0.802" />
    <path class="write-flat-pen" fill="#8F3AC9" stroke-width="1.8" __comx="356.308" __comy="225.657" __timestamp="0x177dac398fb" d="M358.707 229.648 l0.145 -0.614 0.037 -0.075 0.1 -0.28 0.032 -0.148 0.043 -0.419 -0.046 -0.262 -0.289 -0.685 -0.291 -0.274 -0.76 -0.359 -1.179 -0.136 -1.563 0.254 -1.53 0.549 -0.92 0.624 -0.775 0.847 -0.594 1.039 -0.448 1.195 -0.292 1.762 0.022 1.734 0.282 1.091 0.473 0.952 0.687 0.795 0.895 0.561 1.173 0.3 1.26 -0.009 1.29 -0.375 1.308 -0.644 1.188 -0.821 1.007 -0.988 1.192 -1.555 0.789 -1.537 0.298 -1.41 -0.003 -0.902 -0.255 -0.895 -0.499 -0.851 -1.286 -1.085 -0.374 -0.152 -0.598 -0.135 -0.398 0.008 -0.392 0.081 -0.333 0.138 -0.311 0.194 -0.236 0.246 -0.623 0.735 0.101 0.189 0.957 -0.111 0.284 -0.032 0.233 -0.027 0.185 -0.004 0.189 0.014 0.119 0.029 0.318 0.116 0.049 0.031 0.87 0.791 0.25 0.451 0.13 0.49 -0.003 0.51 -0.221 1.028 -0.624 1.212 -1.033 1.346 -0.826 0.808 -0.975 0.673 -1.071 0.531 -0.934 0.276 -0.822 0.007 -0.721 -0.185 -0.472 -0.298 -0.392 -0.456 -0.307 -0.617 -0.193 -0.738 -0.026 -1.398 0.226 -1.472 0.335 -0.935 0.433 -0.782 0.527 -0.588 0.603 -0.415 1.212 -0.444 1.218 -0.213 0.741 0.062 0.344 0.13 -0.078 -0.081 0.17 0.258 0.002 -0.048 0.038 0.202 0.01 0.051 0.011 0.24 0.002 0.088 -0.061 0.654" />
    <path class="write-flat-pen" fill="#8F3AC9" stroke-width="1.8" __comx="365.006" __comy="228.165" __timestamp="0x177dac39b39" d="M363.351 235.884 l1.453 -0.497 0.959 -0.641 1.081 -1.063 1.111 -1.475 1.165 -2.075 0 0 0.853 -1.931 0 0 0.288 -1.001 0 0 -1.474 -0.252 -0.224 2.697 0.106 9.84 -0.147 2.239 -0.359 1.95 -0.504 1.709 -0.684 1.431 -0.694 1.07 -0.709 0.722 -0.498 0.266 -0.543 0.123 -0.584 -0.057 -0.548 -0.197 -1.022 -0.81 -0.316 -0.384 -0.327 -0.484 -0.32 -0.541 -0.304 -0.598 -0.293 -0.649 -0.386 -0.714 -0.396 -0.743 -0.291 0.071 -0.008 0.842 -0.006 0.839 0.135 0.785 0.235 0.764 0.316 0.692 0.363 0.627 0.452 0.609 1.352 1.129 1 0.367 1.057 0.101 1.014 -0.237 0.906 -0.491 0.993 -1.021 0.831 -1.302 0.768 -1.647 0.545 -1.914 0.371 -2.122 0.141 -2.386 -0.106 -9.829 0.182 -2.633 -1.474 -0.252 0 0 -0.223 0.904 0 0 -0.769 1.771 0 0 -1.068 1.939 -0.981 1.318 -0.908 0.899 -0.704 0.48 -1.268 0.507" />
    <path class="write-flat-pen" fill="#8F3AC9" stroke-width="1.8" __comx="369.297" __comy="228.165" __timestamp="0x177dac39bca" d="M368.725 218.066 l0.097 0.774 0.117 0.198 0.38 0.614 0.235 -0.026 0.234 -0.683 0.073 -0.192 0.006 -0.753" />
    <path class="write-flat-pen" fill="#8F3AC9" stroke-width="1.8" __comx="379.955" __comy="228.165" __timestamp="0x177dac39daf" d="M377.599 229.613 l-0.945 0.093 -0.362 0.264 -0.182 0.83 0.119 0.365 0.337 0.546 0.669 0.478 0.993 0.279 1.31 -0.159 0.984 -0.39 1.357 -0.823 1.162 -1.004 0.875 -1.054 0.547 -0.997 0.256 -1.108 -0.34 -0.928 -0.603 -0.494 -0.831 -0.275 -1.108 -0.016 -1.783 0.374 -1.142 0.515 -1.028 0.757 -0.871 0.956 -0.717 1.14 -0.562 1.296 -0.328 1.24 -0.217 2.158 0.164 1.096 0.365 0.923 0.563 0.805 0.752 0.668 0.921 0.468 1.575 0.294 0.622 0.027 0.622 -0.021 0.631 -0.123 0.562 -0.186 0.513 -0.31 0.827 -0.525 -0.097 -0.37 -0.978 -0.05 -0.56 -0.028 -0.502 0.024 -0.491 0.021 -0.467 -0.027 -0.464 -0.049 -1.236 -0.271 -0.52 -0.272 -0.444 -0.397 -0.339 -0.483 -0.225 -0.561 -0.11 -0.701 0.168 -1.822 0.254 -0.996 0.45 -1.076 0.56 -0.923 0.656 -0.741 0.758 -0.568 0.83 -0.377 1.444 -0.31 0.696 0.003 0.334 0.102 0.058 0.04 0.045 0.101 -0.097 0.459 -0.371 0.685 -0.7 0.847 -0.971 0.838 -1.141 0.693 -0.687 0.276 -0.826 0.111 -0.473 -0.115 -0.249 -0.15 -0.118 -0.143 0.041 0.139 -0.047 0.02 -0.322 0.234 0.61 -0.14" />
    <path class="write-flat-pen" fill="#8F3AC9" stroke-width="1.8" __comx="392.508" __comy="228.165" __timestamp="0x177dac39ef5" d="M394.51 225.383 l-0.208 -0.996 -0.14 -0.274 -0.796 -0.561 -0.387 -0.1 -0.959 0 -1.372 0.459 -1.028 0.583 -0.949 0.771 -1.333 1.59 -0.781 1.334 -0.617 1.487 -0.569 2.262 -0.175 2.038 0.151 1.249 0.391 1.117 0.667 0.946 0.964 0.742 1.221 0.435 1.472 0.118 1.59 -0.318 0.795 -0.271 0.787 -0.331 0.794 -0.412 0.799 -0.451 0.829 -0.512 1.68 -1.177 0.79 -0.705 0.72 -0.782 0.581 -0.869 0.392 -0.577 -0.158 -0.156 -0.571 0.4 -0.847 0.58 -0.795 0.624 -0.784 0.573 -1.653 1.041 -0.802 0.413 -0.789 0.359 -0.756 0.318 -0.713 0.248 -0.671 0.193 -1.293 0.214 -1.047 -0.106 -0.781 -0.289 -0.565 -0.44 -0.393 -0.562 -0.258 -0.737 -0.112 -0.908 0.141 -1.745 0.489 -2.029 0.516 -1.284 0.65 -1.13 1.144 -1.378 0.73 -0.596 0.785 -0.448 0.994 -0.344 0.518 -0.014 -0.047 -0.016 0.305 0.157 -0.109 -0.215 0.245 0.809" />
    <path class="write-flat-pen" fill="#8F3AC9" stroke-width="1.8" __comx="404.236" __comy="228.165" __timestamp="0x177dac39fe7" d="M405.476 214.326 l-0.818 4.726 -0.171 1.064 -1.007 5.85 -1.354 6.862 -0.156 0.854 -0.122 0.785 -0.089 0.673 -0.065 0.598 -0.009 0.499 0.007 0.384 0.048 0.293 0.157 0.86 0.125 0.014 0.337 -0.807 0.109 -0.267 0.104 -0.356 0.125 -0.448 0.167 -0.548 0.177 -0.656 0.189 -0.764 0.204 -0.843 1.434 -6.873 1.013 -5.879 0.17 -1.07 0.733 -4.737" />
    <path class="write-flat-pen" fill="#8F3AC9" stroke-width="1.8" __comx="404.035" __comy="228.165" __timestamp="0x177dac3a09f" d="M398.503 227.671 l0.642 -0.364 0.157 -0.045 0.183 -0.038 0.294 -0.053 7.009 -1.128 0.52 -0.078 0.523 -0.092 0.499 -0.106 0.508 -0.111 0.571 -0.189 0.826 -0.288 -0.009 -0.184 -0.851 -0.205 -0.585 -0.132 -0.533 -0.063 -0.537 -0.025 -0.543 0.007 -0.572 0.028 -7.12 1.112 -0.414 0.122 -0.334 0.145 -0.258 0.178 -0.644 0.442" />
    <path class="write-flat-pen" fill="#8F3AC9" stroke-width="1.8" __comx="413.444" __comy="228.165" __timestamp="0x177dac3a1cf" d="M413.5 226.696 l0.411 -0.442 -0.906 -0.004 -0.071 -0.028 -0.051 -0.047 0.001 0.128 0.017 0.231 0.025 0.341 0.071 2.135 -0.202 3.451 -0.389 3.562 -0.024 0.234 -0.023 0.308 0.016 0.224 0.103 0.16 1.006 0.312 0 -0.043 0.344 -0.455 -0.687 -0.689 -0.456 0.343 -0.043 0 1.006 0.312 0.075 0.011 0.04 0.011 0.065 -0.276 0.049 -0.255 0.448 -3.625 0.203 -3.575 -0.13 -2.27 -0.071 -0.428 -0.077 -0.309 -0.092 -0.243 -0.116 -0.216 -0.129 -0.095 -0.906 -0.004 -0.39 0.46" />
    <path class="write-flat-pen" fill="#8F3AC9" stroke-width="1.8" __comx="416.969" __comy="228.165" __timestamp="0x177dac3a260" d="M417.976 215.321 l-0.522 0.097 -0.203 0.096 -0.931 0.907 -0.16 0.341 -0.364 0.81 0.132 0.099 0.679 -0.573 0.25 -0.203 0.839 -0.799 0.042 -0.05 0.407 -0.199" />
    <path class="write-flat-pen" fill="#8F3AC9" stroke-width="1.8" __comx="424.654" __comy="228.165" __timestamp="0x177dac3a3bf" d="M419.925 224.489 l-0.235 0.464 -0.118 0.149 -0.11 0.206 -0.118 0.236 -0.253 0.648 -0.12 0.409 -0.468 2.722 -0.054 0.557 -0.1 2.149 0.109 1.247 0.305 0.825 0.614 0.623 0.711 0.305 0.921 -0.035 0.951 -0.367 0.993 -0.649 1.548 -1.384 1.498 -1.76 3.299 -4.455 1.408 -2.195 0.128 -0.331 0.08 -0.296 0.044 -0.331 -0.005 -0.371 -0.132 -0.36 -0.438 -0.899 -0.266 0.013 -0.351 0.936 -0.103 0.246 -0.083 0.157 -0.087 0.179 -0.083 0.171 -0.079 0.148 -1.346 2.022 -3.229 4.383 -1.392 1.64 -1.376 1.243 -0.754 0.506 -0.558 0.23 -0.325 0.026 -0.133 -0.044 -0.197 -0.175 -0.14 -0.336 -0.108 -0.955 0.046 -2.021 0.036 -0.476 0.368 -2.626 0.069 -0.318 0.157 -0.609 0.06 -0.232 0.032 -0.177 0.033 -0.149 0.203 -0.502" />
    <path class="write-flat-pen" fill="#8F3AC9" stroke-width="1.8" __comx="434.76" __comy="228.165" __timestamp="0x177dac3a558" d="M432.491 229.952 l0.58 -0.307 0.023 0.006 0.677 -0.209 0.23 -0.076 1.053 -0.505 0.302 -0.169 1.486 -0.943 0.308 -0.231 1.026 -0.855 0.676 -0.857 0.187 -0.835 -0.354 -0.72 -0.737 -0.425 -0.955 -0.07 -1.606 0.372 -1.211 0.587 -1.126 0.931 -0.934 1.225 -1.655 3.332 -0.252 0.629 -0.404 1.136 -0.264 1.455 0.054 0.979 0.347 0.876 0.624 0.762 0.954 0.56 1.898 0.331 0.877 0.003 0.93 -0.13 0.967 -0.204 1.021 -0.301 1.035 -0.413 1.008 -0.653 0.722 -0.441 -0.195 -0.524 -0.834 0.138 -1.162 0.155 -1.012 0.251 -0.943 0.22 -0.867 0.153 -0.762 0.084 -0.618 -0.021 -1.452 -0.288 -0.424 -0.253 -0.259 -0.317 -0.147 -0.367 -0.031 -0.498 0.195 -1.12 0.339 -0.977 0.21 -0.538 1.517 -3.148 0.713 -0.954 0.823 -0.688 0.866 -0.421 1.187 -0.276 0.336 0.024 -0.016 -0.01 -0.116 -0.238 0.02 -0.08 -0.339 0.445 -0.854 0.743 -0.227 0.18 -1.37 0.942 -0.224 0.14 -0.907 0.502 -0.147 0.061 -0.622 0.279 -0.139 0.057 -0.671 0.472" />
    <path class="write-flat-pen" fill="#8F3AC9" stroke-width="1.8" __comx="464.07" __comy="228.165" __timestamp="0x177dac3a792" d="M467.927 228.684 l0.225 -0.726 0.036 -0.12 0.044 -0.307 -0.059 -0.323 -0.211 -0.461 -0.221 -0.281 -0.826 -0.533 -0.422 -0.154 -1.866 -0.319 -0.662 -0.033 -1.283 0.042 -1.227 0.246 -1.188 0.485 -0.999 0.721 -0.769 0.917 -0.53 1.045 -0.296 1.137 -0.092 1.629 0.19 1.044 0.397 0.964 0.653 0.862 0.916 0.667 1.06 0.363 1.254 0.171 1.445 -0.174 1.409 -0.428 1.351 -0.643 1.724 -1.159 0.975 -0.916 1.052 -1.407 0.553 -1.532 -0.012 -0.529 -0.083 -0.416 -0.157 -0.394 -0.215 -0.338 -0.255 -0.281 -0.28 -0.193 -0.255 -0.115 -0.229 -0.039 -0.957 -0.063 -0.096 0.171 0.552 0.785 0.098 0.145 0.074 0.118 0.056 0.118 0.052 0.137 0.054 0.165 0.035 0.168 0.013 0.167 -0.01 0.105 -0.404 1.014 -0.838 1.085 -0.776 0.717 -1.512 1.006 -1.126 0.531 -1.146 0.345 -1.08 0.129 -0.874 -0.118 -0.661 -0.224 -0.508 -0.366 -0.373 -0.486 -0.25 -0.595 -0.128 -0.673 0.057 -1.266 0.2 -0.808 0.354 -0.724 0.508 -0.623 0.672 -0.494 0.865 -0.36 0.947 -0.197 1.088 -0.047 0.511 0.017 1.656 0.227 0.153 0.042 0.516 0.267 -0.012 -0.031 0.119 0.154 0.01 -0.039 0.027 0.029 0.011 0.008 -0.131 0.718" />
    <path class="write-flat-pen" fill="#8F3AC9" stroke-width="1.8" __comx="478.584" __comy="228.165" __timestamp="0x177dac3a886" d="M475.199 232.809 l-0.542 -0.509 0.031 0.025 -0.233 -0.417 -0.033 -0.113 -0.24 -1.289 -0.024 -1.119 0.166 -0.686 0.362 -0.711 0.544 -0.688 0.712 -0.632 0.901 -0.572 1.636 -0.706 1.933 -0.446 0.639 -0.078 0.683 -0.065 0.668 -0.074 0.638 -0.079 0.646 -0.113 0.868 -0.145 0.035 -0.3 -0.812 -0.339 -0.657 -0.264 -0.717 -0.111 -0.717 -0.044 -0.736 -0.005 -0.777 0.045 -2.196 0.452 -1.904 0.817 -1.123 0.72 -0.914 0.829 -0.716 0.943 -0.497 1.029 -0.239 1.067 0.054 1.454 0.332 1.522 0.147 0.378 0.433 0.59 0.111 0.121 0.691 0.525" />
    <path class="write-flat-pen" fill="#8F3AC9" stroke-width="1.8" __comx="337.077" __comy="262.159" __timestamp="0x177dac3abf9" d="M331.131 260.533 l-0.494 2.141 -0.235 0.967 -1.179 4.144 -0.223 0.69 -0.911 2.308 -0.17 0.346 -0.554 0.928 0.171 -0.206 0.386 -0.083 0.217 0.345 -0.085 -0.864 0.245 -2.408 0.563 -3.155 1.45 -6.112 0.192 -0.861 0.469 -2.558 0.328 -3.094 0.087 -3.352 -0.107 -1.846 -0.56 -0.775 -0.67 0.129 0 0 -0.601 0.986 0.147 0.541 1.043 0.482 1.642 0.21 3.976 0.036 5.608 -0.413 0.761 -0.074 0.781 -0.075 0.73 -0.079 0.699 -0.09 0.664 -0.107 0.594 -0.116 0.564 -0.19 0.837 -0.283 -0.015 -0.27 -0.864 -0.188 -0.583 -0.125 -0.61 -0.046 -0.676 -0.017 -0.704 0.001 -0.736 0.016 -0.794 0.031 -0.764 0.045 -5.542 0.354 -3.821 -0.032 -1.311 -0.155 -0.162 -0.06 0.04 0.168 -0.601 0.986 0 0 -0.312 0.058 -0.292 -0.404 0.078 1.328 -0.073 3.228 -0.297 2.98 -0.428 2.48 -0.173 0.826 -1.39 6.153 -0.568 3.248 -0.247 2.619 0.188 1.287 0.376 0.616 0.937 -0.144 0.227 -0.27 0.55 -1.126 0.178 -0.427 0.833 -2.407 0.215 -0.738 1.088 -4.207 0.2 -1.001 0.4 -2.166" />
    <path class="write-flat-pen" fill="#8F3AC9" stroke-width="1.8" __comx="335.74" __comy="262.159" __timestamp="0x177dac3ace1" d="M329.044 261.495 l0.261 -0.308 -0.103 0.105 0.047 0.047 0.228 0.024 0.412 0.001 0.596 -0.026 8.077 -1.518 1.041 -0.234 0.99 -0.24 0.987 -0.277 0.965 -0.405 0.696 -0.28 -0.059 -0.317 -0.75 -0.012 -1.046 -0.033 -1.022 0.096 -1.014 0.135 -1.052 0.168 -8.01 1.443 -0.522 0.066 -0.427 0.074 -0.304 0.085 -0.227 0.109 -0.204 0.156 -0.37 0.54" />
    <path class="write-flat-pen" fill="#8F3AC9" stroke-width="1.8" __comx="352.468" __comy="262.159" __timestamp="0x177dac3adf2" d="M350.183 262.923 l1.405 -0.176 0.971 0.166 0.393 0.082 0.467 0.081 0.492 0.014 0.955 0.007 0.088 -0.251 -0.75 -0.591 -0.391 -0.296 -0.421 -0.234 -0.454 -0.205 -1.297 -0.304 -1.658 0.245" />
    <path class="write-flat-pen" fill="#8F3AC9" stroke-width="1.8" __comx="369.418" __comy="262.159" __timestamp="0x177dac3b062" d="M374.07 261.293 l-0.172 -1.063 -0.099 -0.204 -0.704 -0.732 -0.356 -0.22 -1.78 -0.461 -0.513 -0.044 -1.057 -0.013 -1.732 0.348 -1.109 0.487 -0.932 0.745 -0.721 0.917 -0.741 1.489 -0.307 1.132 -0.176 2.061 0.086 0.984 0.384 1.159 0.604 0.818 0.776 0.411 0.978 0.088 1.073 -0.311 1.078 -0.6 1.45 -1.218 2.928 -3.238 -0.222 0.142 -0.442 -0.343 0.085 0.43 0.089 3.3 0.357 1.636 0.153 0.317 0.28 0.38 0.222 0.188 0.257 0.139 0.274 0.05 0.976 0.06 0.112 -0.202 -0.571 -0.794 -0.103 -0.159 -0.041 -0.092 -0.008 -0.054 -0.086 -0.208 -0.021 -0.079 -0.237 -1.357 -0.088 -3.32 -0.259 -1.104 -0.812 -0.639 -0.88 0.524 -2.994 3.353 -1.269 1.041 -0.81 0.433 -0.634 0.174 -0.382 -0.042 -0.189 -0.105 -0.245 -0.34 -0.247 -0.753 -0.057 -0.669 0.153 -1.788 0.23 -0.85 0.595 -1.216 0.506 -0.658 0.631 -0.516 0.773 -0.351 1.415 -0.309 0.85 -0.01 0.346 0.018 1.479 0.312 0.047 0.019 0.482 0.413 -0.069 -0.145 0.233 0.882" />
    <path class="write-flat-pen" fill="#8F3AC9" stroke-width="1.8" __comx="381.626" __comy="262.159" __timestamp="0x177dac3b170" d="M385.473 259.615 l-0.001 -0.637 -0.057 -0.153 -0.08 -0.151 -0.131 -0.133 -0.15 -0.111 -0.176 -0.077 -0.312 -0.076 -0.289 0.012 -0.464 0.08 -0.37 0.127 -1.872 1.176 -0.481 0.392 -1.279 1.222 -0.727 0.946 -0.79 1.438 -0.417 1.349 -0.098 0.906 0.135 0.93 0.391 0.839 0.71 0.746 1.007 0.442 0.653 0.133 0.613 0.057 0.67 0 0.712 -0.119 0.694 -0.196 0.706 -0.267 0.625 -0.367 0.716 -0.428 -0.065 -0.219 -0.833 0.03 -0.697 0.024 -0.692 0.063 -0.637 0.04 -0.567 0.009 -0.502 -0.055 -0.475 -0.083 -0.417 -0.112 -0.561 -0.275 -0.307 -0.336 -0.178 -0.39 -0.07 -0.494 0.06 -0.549 0.321 -1.045 0.648 -1.188 0.574 -0.753 1.141 -1.1 0.361 -0.298 1.626 -1.089 0.12 -0.06 0.273 -0.099 0.033 -0.027 0.047 -0.034 -0.024 -0.033 -0.023 -0.048 -0.062 -0.081 -0.046 -0.106 -0.048 -0.133 0.084 0.438" />
    <path class="write-flat-pen" fill="#8F3AC9" stroke-width="1.8" __comx="391.067" __comy="262.159" __timestamp="0x177dac3b2b9" d="M390.192 257.944 l0.03 -0.346 -0.533 0.457 -0.465 -0.234 -0.072 -0.065 0.025 0.085 0.038 0.143 0.41 1.129 0.174 0.497 0.675 2.389 0.861 3.969 0.137 0.545 0.138 0.499 0.139 0.436 0.11 0.353 0.153 0.323 0.115 0.231 0.168 0.201 0.666 0.687 0.157 -0.064 -0.001 -0.957 0.003 -0.204 -0.008 -0.213 -0.04 -0.312 -0.03 -0.335 -0.082 -0.466 -0.091 -0.494 -0.103 -0.539 -0.821 -4.024 -0.712 -2.487 -0.208 -0.564 -0.484 -1.131 -0.12 -0.25 -0.154 -0.198 -0.151 -0.175 -0.546 -0.28 -0.556 0.475 0.043 0.93" />
    <path class="write-flat-pen" fill="#8F3AC9" stroke-width="1.8" __comx="391.154" __comy="262.677" __timestamp="0x177dac3b3ab" d="M398.199 258.871 l-0.394 0.717 -0.179 0.282 -0.235 0.404 -0.255 0.486 -0.618 1.198 -0.372 0.711 -1.457 2.63 -3.389 5.407 -0.752 1.121 -1.585 2.212 -0.762 1.071 -2.072 2.981 -0.59 0.949 -1.406 2.459 -0.361 0.721 -0.531 1.309 -0.172 0.6 -0.083 0.558 -0.029 0.504 0.009 0.453 0.072 0.398 0.172 0.861 0.143 0.011 0.303 -0.824 0.132 -0.365 0.111 -0.397 0.132 -0.433 0.145 -0.452 0.193 -0.473 0.568 -1.188 0.35 -0.641 1.435 -2.376 0.575 -0.888 2.101 -2.906 0.777 -1.047 1.639 -2.202 0.796 -1.154 3.466 -5.446 1.486 -2.696 0.378 -0.751 0.583 -1.242 0.215 -0.507 0.174 -0.43 0.106 -0.314 0.328 -0.738" />
    <path class="write-flat-pen" fill="#8F3AC9" stroke-width="1.8" __comx="408.813" __comy="262.677" __timestamp="0x177dac3b5c0" d="M410.415 262.272 l0.122 -0.612 0.107 -0.257 0.07 -0.256 0.044 -0.203 0.072 -0.514 -0.008 -0.311 -0.365 -0.865 -0.312 -0.306 -0.923 -0.482 -1.312 -0.256 -1.528 0.042 -1.009 0.32 -1.027 0.625 -0.907 0.864 -0.756 1.058 -0.561 1.214 -0.331 1.304 -0.187 1.846 0.094 1.197 0.316 1.061 0.508 0.916 0.77 0.75 1.071 0.502 1.355 0.214 1.585 -0.207 2.567 -0.934 0.931 -0.487 0.907 -0.534 0.877 -0.586 0.855 -0.651 0.787 -0.674 0.751 -0.71 0.607 -0.752 0.434 -0.536 -0.114 -0.135 -0.601 0.338 -0.83 0.46 -0.849 0.523 -0.866 0.505 -0.888 0.526 -0.867 0.489 -0.877 0.456 -0.837 0.394 -2.344 0.785 -1.198 0.141 -0.91 -0.152 -0.624 -0.299 -0.408 -0.402 -0.309 -0.56 -0.217 -0.733 -0.068 -0.886 0.162 -1.586 0.264 -1.047 0.433 -0.946 0.577 -0.817 0.672 -0.649 0.717 -0.448 0.62 -0.206 1.145 -0.054 0.948 0.153 0.558 0.25 -0.03 -0.04 0.213 0.352 0.01 -0.028 0.022 0.406 0.005 0.148 0.001 0.191 -0.025 0.282 -0.056 0.676" />
    <path class="write-flat-pen" fill="#8F3AC9" stroke-width="1.8" __comx="419.504" __comy="262.677" __timestamp="0x177dac3b6a7" d="M418.476 249.549 l0.367 1.568 0.063 0.489 0.217 2.962 0.02 3.677 -0.279 3.902 -0.039 0.855 -0.058 0.84 -0.018 0.783 -0.038 0.738 0.006 0.664 0.035 0.6 0.046 0.785 0.142 0.024 0.3 -0.727 0.232 -0.576 0.151 -0.648 0.19 -0.727 0.13 -0.792 0.137 -0.844 0.09 -0.873 0.359 -3.95 -0.009 -3.788 -0.252 -3.06 -0.101 -0.607 -0.471 -1.616" />
    <path class="write-flat-pen" fill="#8F3AC9" stroke-width="1.8" __comx="426.245" __comy="262.677" __timestamp="0x177dac3b777" d="M426.22 261.337 l-0.123 0.621 -0.05 0.102 -0.065 0.193 -0.069 0.258 -0.143 0.706 -0.089 0.399 -0.492 2.678 -0.041 0.269 -0.03 0.224 -0.017 0.176 0.002 0.18 0.248 1.011 0.117 0.036 0.775 -0.728 0.097 -0.19 0.068 -0.173 0.077 -0.218 0.089 -0.288 0.569 -2.683 0.08 -0.431 0.084 -0.743 0.018 -0.264 -0.002 -0.199 -0.012 -0.113 0.078 -0.636" />
    <path class="write-flat-pen" fill="#8F3AC9" stroke-width="1.8" __comx="428.545" __comy="262.677" __timestamp="0x177dac3b7f7" d="M428.467 254.673 l0.405 -0.346 -0.596 -0.095 0.021 -0.038 0.052 0.032 0.079 0.142 0.114 0.188 0.466 0.745 0.168 -0.021 0.269 -0.836 0.061 -0.237 0.015 -0.227 -0.03 -0.301 -0.399 -0.688 -0.683 -0.109 -0.837 0.896" />
    <path class="write-flat-pen" fill="#8F3AC9" stroke-width="1.8" __comx="437.09" __comy="262.677" __timestamp="0x177dac3b8ec" d="M439.564 258.275 l0.332 -0.528 0.069 -0.125 0.14 -0.33 0.046 -0.172 0.024 -0.397 -0.08 -0.28 -0.306 -0.485 -0.349 -0.256 -0.757 -0.297 -0.598 -0.108 -1.877 0.006 -0.755 0.186 -1.389 0.634 -1.263 1.074 -1.362 2.174 -0.35 0.905 -0.487 1.698 -0.216 2.239 0.177 1.275 0.43 1.07 0.734 0.871 0.626 0.417 1.294 0.39 1.662 0.103 1.079 -0.154 3.331 -1.098 1.229 -0.641 1.23 -0.804 1.145 -1.046 0.477 -0.415 -0.186 -0.307 -0.588 0.231 -1.431 0.516 -1.294 0.549 -1.146 0.497 -3.119 0.97 -0.782 0.104 -1.312 -0.097 -0.886 -0.275 -0.234 -0.158 -0.417 -0.498 -0.259 -0.645 -0.127 -0.891 0.172 -1.907 0.41 -1.496 0.259 -0.707 1.111 -1.88 0.906 -0.811 1.068 -0.513 0.46 -0.125 1.592 -0.068 0.369 0.04 0.515 0.137 0.06 0.015 0.151 0.126 0.006 -0.044 0.052 0.126 0.014 0.037 -0.002 0.266 0.002 0.05 -0.208 0.546" />
    <path class="write-flat-pen" fill="#FFFFFF" stroke-width="1.8" __comx="71.2" __comy="343.768" __timestamp="0x177dac3d881" d="M54.784 337.715 l-0.167 0.751 -0.025 0.164 -0.04 0.622 0.01 0.318 0.255 2.15 0.046 0.387 0.559 4.204 0.055 0.644 0.27 5.729 0.299 2.708 0.446 2.444 0.611 1.842 0.608 0.942 0.858 0.633 1.269 0.106 1.426 -0.705 1.323 -1.284 1.246 -1.709 1.853 -2.98 2.245 -4.043 2.296 -3.722 0.622 -0.796 0.026 -0.01 -0.231 -0.041 0.09 0.17 0.217 0.888 0.42 4.734 0.493 3.359 0.502 2.265 0.649 1.929 0.836 1.682 0.772 1.178 0.828 0.707 1.113 0.078 1.192 -0.813 1.048 -1.529 0.961 -2.047 3.526 -9.737 0.543 -1.53 2.175 -5.856 1.153 -3.562 0.589 -2.763 0.1 -1.429 -0.121 -1.165 -0.375 -0.991 -1.001 -1.015 -0.533 -0.141 -0.51 0.041 -0.467 0.228 -0.371 0.356 -0.286 0.431 -0.224 0.519 -0.165 0.558 -0.118 0.648 0.013 0.694 0.093 0.662 0.134 0.779 0.09 0.011 0.316 -0.724 0.245 -0.592 0.244 -0.547 0.236 -0.481 0.222 -0.4 0.209 -0.307 0.162 -0.166 0.094 -0.052 -0.025 0.029 -0.076 0.016 -0.188 -0.045 0.405 0.446 0.163 0.447 0.078 0.791 -0.083 1.157 -0.543 2.556 -1.112 3.442 -2.156 5.837 -0.542 1.538 -3.464 9.672 -0.859 1.86 -0.785 1.167 -0.454 0.324 -0.002 0.006 -0.247 -0.199 -0.608 -0.893 -0.76 -1.487 -0.591 -1.742 -0.475 -2.127 -0.481 -3.261 -0.47 -4.812 -0.332 -1.217 -0.558 -0.887 -0.976 -0.201 -0.74 0.478 -0.81 1.067 -2.339 3.821 -2.231 4.049 -1.799 2.911 -1.142 1.574 -1.079 1.05 -0.883 0.432 -0.481 -0.049 -0.318 -0.251 -0.354 -0.58 -0.504 -1.582 -0.409 -2.298 -0.284 -2.613 -0.292 -5.713 -0.067 -0.71 -0.643 -4.224 -0.056 -0.383 -0.336 -2.099 -0.028 -0.232 -0.044 -0.541 -0.009 -0.076 0.059 -0.717" />
    <path class="write-flat-pen" fill="#FFFFFF" stroke-width="1.8" __comx="103.017" __comy="343.768" __timestamp="0x177dac3da00" d="M100.978 338.637 l0.746 0.792 0.118 0.203 0.929 2.406 0.207 0.816 0.373 1.971 0.22 2.152 0.097 4.452 -0.107 2.013 -0.423 3.143 -0.09 0.51 -0.172 0.761 -0.063 0.239 -0.07 0.237 0.004 0.045 0.007 0.05 -0.086 0.125 -0.52 0.484 0.03 0.1 0.701 0.114 0.317 0.003 0.257 -0.156 0.185 -0.166 0.24 -0.372 0.146 -0.335 0.268 -0.828 0.137 -0.583 0.504 -3.233 0.123 -2.126 -0.085 -4.561 -0.227 -2.27 -0.397 -2.075 -0.249 -0.947 -1.093 -2.59 -0.293 -0.4 -0.879 -0.83" />
    <path class="write-flat-pen" fill="#FFFFFF" stroke-width="1.8" __comx="103.764" __comy="343.768" __timestamp="0x177dac3dada" d="M91.547 339.836 l-0.393 -1.064 0.017 -0.023 0.092 -0.107 1.35 -0.734 0.601 -0.214 11.099 -2.942 4.704 -1.158 1.126 -0.264 1.115 -0.266 1.151 -0.264 1.164 -0.268 1.184 -0.28 1.216 -0.29 1.166 -0.394 0.631 -0.2 -0.038 -0.282 -0.661 -0.027 -1.236 -0.071 -1.271 0.08 -1.239 0.148 -1.196 0.204 -1.175 0.215 -1.133 0.227 -1.148 0.236 -4.752 1.107 -11.179 3.015 -0.78 0.304 -1.712 1.026 -0.481 0.739 -0.011 0.719 0.542 1.316" />
    <path class="write-flat-pen" fill="#FFFFFF" stroke-width="1.8" __comx="128.64" __comy="343.768" __timestamp="0x177dac3dcd5" d="M132.395 335.696 l0.04 -1.426 0.02 -0.427 0.033 -0.959 -0.01 -0.361 -0.213 -1.235 -0.141 -0.372 -0.534 -0.85 -1.044 -0.732 -1.027 -0.297 -1.904 -0.14 -2.171 0.323 -1.496 0.425 -1.372 0.6 -1.152 0.769 -0.983 0.965 -0.772 1.109 -0.56 1.237 -0.33 1.782 0.063 1.144 0.325 1.009 0.611 0.929 1.01 0.808 1.288 0.61 2.373 0.526 7.78 0.355 2.293 0.299 1.995 0.506 1.096 0.475 0.907 0.573 0.769 0.68 0.613 0.776 0.429 0.829 0.258 1.003 0.096 1.119 -0.106 1.175 -0.351 1.237 -0.56 1.203 -0.793 1.143 -1.151 1.129 -1.565 1.039 -1.955 0.906 -2.284 0.772 -2.627 0.627 -1.446 0.258 -1.555 0.222 -1.6 0.192 -1.606 0.169 -1.602 0.127 -1.567 0.199 -1.522 0.167 -1.475 0.173 -1.456 0.34 -0.521 0.115 0.015 0.185 0.532 0.028 1.476 0.097 1.468 0.051 1.554 0.043 1.58 -0.053 1.61 -0.024 1.653 -0.097 1.643 -0.143 1.612 -0.189 1.531 -0.246 2.76 -0.627 2.452 -0.815 2.158 -0.996 1.805 -1.202 1.379 -1.354 0.965 -1.397 0.67 -1.462 0.416 -1.521 0.118 -1.477 -0.138 -1.398 -0.352 -1.307 -0.592 -1.122 -0.802 -1.003 -0.976 -0.856 -1.121 -0.702 -1.325 -0.573 -2.21 -0.562 -2.453 -0.321 -7.707 -0.361 -2.058 -0.464 -0.953 -0.454 -0.662 -0.532 -0.349 -0.532 -0.193 -0.601 -0.04 -0.742 0.261 -1.397 0.418 -0.923 0.6 -0.863 0.766 -0.752 0.906 -0.605 1.14 -0.501 1.289 -0.37 1.891 -0.287 1.562 0.107 0.62 0.171 0.588 0.387 0.308 0.443 0.044 0.095 0.225 0.985 0.021 0.222 0.042 0.921 0.02 0.424 0.04 1.426" />
    <path class="write-flat-pen" fill="#FFFFFF" stroke-width="1.8" __comx="110.552" __comy="371.681" __timestamp="0x177dac3de41" d="M51.655 373.632 l-1.544 0.039 -0.818 0.454 -0.009 0.982 1.054 0.539 0.565 0.117 2.119 0.149 1.951 -0.042 24.896 -1.795 8.406 -0.546 2.892 -0.133 2.822 -0.243 2.771 -0.151 2.786 -0.114 2.873 -0.151 8.836 -0.302 8.647 -0.55 2.787 -0.232 2.758 -0.238 2.691 -0.245 2.694 -0.271 2.669 -0.22 5.206 -0.334 2.585 -0.028 7.439 -0.079 2.334 0.05 6.383 0.425 3.572 0.431 4.833 0.758 1.443 0.232 1.396 0.209 1.246 0.177 1.191 0.114 0.63 0.072 0.062 -0.247 -0.59 -0.232 -1.118 -0.461 -1.231 -0.351 -1.386 -0.332 -1.449 -0.301 -4.862 -0.81 -3.629 -0.425 -6.443 -0.402 -2.381 -0.034 -7.459 0.177 -2.612 0.081 -5.231 0.45 -2.679 0.282 -2.691 0.345 -2.678 0.34 -2.744 0.347 -2.77 0.318 -8.628 0.643 -8.832 0.287 -2.872 0.088 -2.784 -0.021 -2.787 -0.048 -2.829 0.025 -2.903 -0.03 -8.445 0.427 -24.869 1.832 -1.856 0.025 -1.962 -0.185 -0.293 -0.079 -0.134 -0.111 -0.003 0.651 -0.181 0.101 1.203 -0.031" />
    <path class="write-flat-pen" fill="#FFFFFF" stroke-width="1.8" __comx="159.739" __comy="359.728" __timestamp="0x177dac3df6b" d="M161.617 361.89 l-1.934 -2.376 -0.114 -0.141 -0.154 -0.223 -0.211 -0.29 -0.277 -0.366 -0.639 -0.796 -0.283 0.08 -0.124 1.013 -0.019 0.539 0.104 0.464 0.132 0.386 0.186 0.335 1.974 2.472" />
    <path class="write-flat-pen" fill="#FFFFFF" stroke-width="1.8" __comx="154.874" __comy="332.128" __timestamp="0x177dac3dffd" d="M156.567 335.324 l-1.531 -3.937 -0.103 -0.304 -0.085 -0.231 -0.126 -0.327 -0.408 -1.048 -0.576 -0.005 -0.426 1.041 -0.133 0.489 0.052 0.489 0.12 0.466 1.551 4.013" />
    <path class="write-flat-pen" fill="#FFFFFF" stroke-width="1.8" __comx="228.851" __comy="338.36" __timestamp="0x177dac3ff79" d="M225.124 335.717 l-0.064 -0.752 -0.023 -0.142 -0.068 -0.47 -0.015 -0.091 -0.088 -0.588 -0.023 -0.119 -0.063 -0.276 -0.049 -0.124 -0.05 -0.133 -0.077 -0.115 -0.128 -0.139 -0.22 -0.129 -0.352 -0.025 -0.31 0.146 -0.183 0.198 -0.111 0.192 -0.102 0.288 -0.044 0.192 -0.073 0.576 -0.016 0.262 -0.043 1.269 -0.007 0.383 -0.135 3.008 -0.24 2.63 -0.493 3.733 -0.892 5.201 -0.121 0.754 -0.503 3.498 -0.223 2.4 -0.058 1.778 0.134 1.019 0.278 0.818 0.531 0.722 0.856 0.535 1.113 0.239 1.018 0.001 6.671 -1.063 0.593 -0.049 0.649 -0.045 0.603 -0.037 0.58 -0.038 0.558 -0.031 0.521 -0.034 0.494 -0.031 0.459 -0.017 0.473 -0.029 0.439 -0.023 0.429 -0.071 0.573 -0.089 0.031 -0.157 -0.496 -0.301 -0.379 -0.231 -0.433 -0.175 -0.487 -0.162 -0.518 -0.118 -0.568 -0.062 -0.554 -0.027 -0.583 -0.013 -0.602 0.006 -0.619 0.015 -0.676 0.031 -0.675 0.045 -6.611 1.029 -0.71 -0.001 -0.652 -0.139 -0.333 -0.21 -0.187 -0.257 -0.142 -0.418 -0.096 -0.719 0.051 -1.591 0.211 -2.31 0.481 -3.447 0.114 -0.733 0.864 -5.227 0.496 -3.795 0.241 -2.702 0.116 -3.074 0 -0.4 0.006 -1.245 0.002 -0.211 0.018 -0.48 0.002 -0.07 0.002 -0.105 -0.048 0.063 -0.115 0.115 -0.245 0.111 -0.279 -0.024 -0.158 -0.098 -0.042 -0.066 -0.031 -0.058 0.038 0.017 0.028 0.017 0.083 0.137 0.023 0.05 0.155 0.554 0.028 0.096 0.149 0.463 0.04 0.098 0.133 0.693" />
    <path class="write-flat-pen" fill="#FFFFFF" stroke-width="1.8" __comx="241.967" __comy="357.855" __timestamp="0x177dac400f3" d="M241.321 356.76 l-0.032 0.602 -0.037 0.229 -0.042 0.307 -0.021 0.323 -0.013 0.352 -0.001 0.384 0.007 0.395 0.033 0.833 0.021 0.39 0.111 2.341 0.018 -0.077 0.098 -0.172 0.157 -0.053 -0.351 0.496 0.525 0.651 0.559 -0.238 0.247 -0.125 0.133 -0.308 0.023 -0.123 -0.081 -2.474 -0.039 -0.412 -0.088 -0.825 -0.047 -0.385 -0.047 -0.366 -0.045 -0.334 -0.045 -0.29 -0.039 -0.28 -0.033 -0.222 -0.008 -0.597" />
    <path class="write-flat-pen" fill="#FFFFFF" stroke-width="1.8" __comx="242.052" __comy="349.625" __timestamp="0x177dac4017b" d="M242.826 349.716 l-0.613 -0.586 -0.621 -0.016 -0.298 0.563 -0.016 0.183 0.044 0.14 0.215 0.636 0.271 0.066 0.482 -0.467 0.097 -0.08 0.041 -0.015 -0.106 0.206 -0.575 -0.016 0.304 0.244" />
    <path class="write-flat-pen" fill="#FFFFFF" stroke-width="1.8" __comx="260.573" __comy="336.137" __timestamp="0x177dac40b9b" d="M253.836 336.427 l0.325 -0.663 0.036 -0.049 0.153 -0.195 0.019 -0.018 0.093 -0.085 0.019 -0.014 0.058 -0.016 0.002 0.053 -0.058 0.084 -0.199 0.101 -0.281 -0.041 -0.15 -0.102 -0.05 -0.018 -0.007 0.086 0.015 0.186 0.023 0.254 0.028 0.323 0.03 0.374 0.322 3.597 0.037 0.758 0.302 4.278 0.238 8.465 0.001 4.366 0.023 -0.146 0.231 -0.514 0.953 0.224 0.048 0.121 -0.089 -0.898 0.057 -1.941 0.355 -4.244 0.207 -4.401 0.025 -3.059 -0.169 -2.235 -0.945 -6.138 -0.028 -0.174 -0.162 -1.546 -0.033 -0.173 0 0 -0.08 -0.171 0 0 -1.432 0.9 0.321 0.433 0.718 0.375 1.462 0.361 6.281 1.139 0.479 0.088 0.491 0.087 0.5 0.081 0.448 0.042 0.435 0.059 0.438 0.029 0.456 0.029 0.431 -0.019 0.451 -0.031 0.452 -0.127 0.618 -0.175 0.03 -0.237 -0.555 -0.323 -0.38 -0.232 -0.426 -0.184 -0.425 -0.117 -0.436 -0.11 -0.412 -0.079 -0.43 -0.097 -0.441 -0.07 -0.442 -0.092 -0.477 -0.101 -0.486 -0.102 -6.239 -1.153 -1.215 -0.291 -0.198 -0.099 -0.102 -0.119 -1.432 0.9 0 0 -0.015 -0.041 0 0 -0.023 -0.122 0.189 1.517 0.036 0.207 0.966 6.061 0.158 2.101 -0.034 2.96 -0.2 4.341 -0.361 4.258 -0.062 2.092 0.124 1.204 0.324 0.885 1.182 0.28 0.405 -0.891 0.031 -0.201 -0.045 -4.513 -0.22 -8.517 -0.304 -4.297 -0.041 -0.777 -0.367 -3.637 -0.053 -0.399 -0.062 -0.363 -0.072 -0.311 -0.088 -0.271 -0.11 -0.238 -0.15 -0.207 -0.243 -0.199 -0.368 -0.067 -0.267 0.123 -0.122 0.133 -0.066 0.131 -0.027 0.128 -0.007 0.029 -0.03 0.134 -0.01 0.035 -0.076 0.244 -0.031 0.081 -0.245 0.722" />
    <path class="write-flat-pen" fill="#FFFFFF" stroke-width="1.8" __comx="261.319" __comy="342.844" __timestamp="0x177dac40d13" d="M256.02 342.956 l-0.475 -0.059 0.102 0.029 -0.132 1.116 0.02 0.015 0.025 0.016 0.052 0.015 0.115 0.005 0.18 -0.003 0.253 -0.011 0.339 -0.019 0.382 -0.022 1.464 -0.079 0.538 -0.022 4.186 -0.093 0.567 -0.013 0.563 -0.02 0.566 -0.03 0.563 -0.047 0.547 -0.064 0.537 -0.083 0.525 -0.164 0.565 -0.158 0.011 -0.249 -0.549 -0.207 -0.517 -0.21 -0.55 -0.111 -0.562 -0.075 -0.57 -0.047 -0.566 -0.03 -0.565 -0.019 -0.581 -0.011 -4.22 0.066 -0.577 0.029 -1.497 0.125 -0.407 0.051 -0.36 0.056 -0.276 0.055 -0.201 0.052 -0.129 0.045 -0.088 0.04 -0.04 0.032 -0.001 0.02 -0.132 1.116 0.112 0.033 0.697 0.034" />
    <path class="write-flat-pen" fill="#FFFFFF" stroke-width="1.8" __comx="210.087" __comy="334.423" __timestamp="0x177dac410e5" d="M214.729 329.545 l-0.365 -0.472 -0.138 -0.092 -0.168 -0.071 -0.23 -0.021 -0.242 0.039 -0.249 0.088 -0.256 0.135 -0.281 0.191 -0.567 0.51 -0.319 0.358 -0.989 1.327 -0.373 0.558 -1.114 1.862 -0.383 0.728 -0.7 1.549 -0.335 0.846 -0.606 1.762 -0.301 0.974 -0.839 3.232 -0.45 2.309 -0.304 2.364 -0.075 3.516 0.305 2.305 0.248 1.144 0.667 2.182 0.847 2.072 0.49 1 0.521 0.953 0.554 0.941 0.598 0.895 0.629 0.857 0.657 0.823 0.688 0.753 0.701 0.74 0.802 0.626 0.295 0.245 0.137 -0.119 -0.201 -0.327 -0.496 -0.871 -0.546 -0.832 -0.524 -0.839 -0.527 -0.871 -0.531 -0.883 -0.511 -0.887 -0.486 -0.922 -0.468 -0.928 -0.436 -0.944 -0.782 -1.978 -0.621 -2.062 -0.218 -1.024 -0.274 -2.13 0.079 -3.32 0.288 -2.237 0.425 -2.221 0.784 -3.168 0.271 -0.927 0.555 -1.725 0.29 -0.796 0.625 -1.502 0.326 -0.669 1.03 -1.829 0.326 -0.514 0.901 -1.293 0.234 -0.29 0.441 -0.46 0.166 -0.147 0.134 -0.107 0.091 -0.067 0.027 -0.033 -0.036 -0.023 -0.042 -0.032 -0.056 -0.047 0.329 0.306" />
    <path class="write-flat-pen" fill="#FFFFFF" stroke-width="1.8" __comx="273.816" __comy="346.741" __timestamp="0x177dac41334" d="M269.634 329.87 l0.42 -0.316 0.096 -0.028 0.109 -0.018 0.183 -0.024 0.2 -0.009 0.229 0.002 0.255 0.036 0.284 0.073 0.331 0.127 0.367 0.184 0.377 0.23 0.358 0.273 0.75 0.714 0.363 0.433 0.368 0.505 0.692 1.235 0.597 1.458 0.526 1.651 0.414 1.764 0.274 1.833 0.136 1.914 0.024 2.865 -0.107 1.825 -0.416 2.736 -0.614 2.634 -0.832 2.602 -0.308 0.832 -0.335 0.813 -0.344 0.794 -0.354 0.745 -0.364 0.744 -0.374 0.728 -0.391 0.697 -0.398 0.695 -0.366 0.758 -0.2 0.385 0.136 0.111 0.338 -0.272 0.682 -0.523 0.569 -0.613 0.538 -0.659 0.49 -0.726 0.445 -0.742 0.42 -0.757 0.402 -0.815 0.383 -0.839 0.358 -0.881 0.909 -2.683 0.653 -2.75 0.44 -2.86 0.115 -1.943 -0.024 -2.961 -0.145 -2.017 -0.294 -1.95 -0.451 -1.879 -0.58 -1.758 -0.676 -1.585 -0.803 -1.372 -0.464 -0.602 -0.462 -0.517 -0.899 -0.785 -0.497 -0.335 -0.507 -0.261 -0.5 -0.197 -0.485 -0.124 -0.439 -0.047 -0.404 0.014 -0.331 0.065 -0.271 0.076 -0.259 0.106 -0.196 0.108 -0.18 0.142 -0.417 0.415" />
    <path class="write-flat-pen" fill="#FFFFFF" stroke-width="1.8" __comx="286.43" __comy="346.741" __timestamp="0x177dac415cd" d="M287.874 333.252 l-0.266 -0.487 -0.05 -0.111 -0.064 -0.125 -0.067 -0.092 -0.078 -0.103 -0.069 -0.06 -0.162 -0.118 -0.218 -0.087 -0.232 -0.03 -0.238 0.013 -0.253 0.065 -0.246 0.114 -0.275 0.18 -0.261 0.237 -0.452 0.574 -0.223 0.385 -0.403 0.919 -0.547 1.8 -0.461 2.233 -0.245 2.735 -0.013 3.113 0.353 3.407 0.486 3.364 0.82 3.868 0.275 0.865 0.294 0.792 0.308 0.73 0.329 0.67 0.33 0.589 0.354 0.557 0.373 0.483 0.403 0.425 0.438 0.376 0.434 0.279 0.453 0.226 0.476 0.109 0.548 0.126 0.083 -0.141 -0.374 -0.42 -0.293 -0.346 -0.295 -0.315 -0.272 -0.324 -0.285 -0.379 -0.272 -0.401 -0.258 -0.432 -0.264 -0.51 -0.262 -0.549 -0.266 -0.618 -0.255 -0.676 -0.249 -0.74 -0.226 -0.768 -0.761 -3.753 -0.462 -3.284 -0.337 -3.29 0.004 -2.959 0.221 -2.576 0.418 -2.076 0.486 -1.649 0.318 -0.768 0.121 -0.231 0.288 -0.42 0.081 -0.096 0.09 -0.085 0.036 -0.038 0.002 -0.02 -0.015 -0.018 -0.049 -0.022 -0.049 -0.037 0.004 -0.029 -0.025 -0.029 0.049 0.006 0.02 -0.008 0.047 0.014 0.047 0.022 0.27 0.43" />
    <path class="write-flat-pen" fill="#FFFFFF" stroke-width="1.8" __comx="302.565" __comy="346.741" __timestamp="0x177dac41821" d="M295.341 357.638 l-0.552 0.439 -0.006 -0.004 0.098 -0.11 0.29 -0.087 0.353 0.087 0.19 0.191 0.048 0.072 0.01 -0.018 -0.001 -0.726 0.014 -0.35 0.115 -2.072 0.297 -2.67 0.854 -5.322 1.007 -4.895 0.462 -2.915 0.095 -1.397 -0.024 -1.802 -0.171 -0.791 -0.494 -0.675 -0.896 -0.112 -0.67 0.599 -0.278 0.789 -0.096 0.917 0.101 0.897 0.724 2.165 0.291 0.664 2.199 4.725 0.408 0.885 1.294 2.707 1.78 3.387 1.246 2.161 2.264 3.183 0.378 0.433 0.361 0.4 0.361 0.37 0.363 0.34 0.33 0.306 0.318 0.274 0.31 0.251 0.291 0.222 0.299 0.197 0.286 0.151 0.284 0.119 0.259 0.047 0.681 0.103 0.102 -0.142 -0.316 -0.611 -0.112 -0.219 -0.157 -0.223 -0.174 -0.229 -0.206 -0.245 -0.23 -0.259 -0.268 -0.282 -0.271 -0.283 -0.298 -0.317 -0.326 -0.337 -0.305 -0.339 -0.322 -0.381 -0.311 -0.375 -2.152 -3.073 -1.193 -2.063 -1.751 -3.328 -1.278 -2.666 -0.406 -0.878 -2.221 -4.702 -0.261 -0.578 -0.676 -1.924 -0.076 -0.554 0.044 -0.557 0.073 -0.231 -0.167 0.144 -0.479 -0.062 -0.098 -0.138 0.068 0.314 0.023 1.584 -0.085 1.265 -0.448 2.81 -1.02 4.892 -0.858 5.394 -0.314 2.749 -0.117 2.133 -0.012 0.417 0.049 0.918 0.077 0.283 0.125 0.254 0.263 0.275 0.409 0.104 0.355 -0.103 0.189 -0.183 0.013 -0.025 0.455 -0.43" />
    <path class="write-flat-pen" fill="#FFFFFF" stroke-width="1.8" __comx="299.268" __comy="346.741" __timestamp="0x177dac41911" d="M295.606 352.139 l0.53 -0.636 0.139 -0.118 0.142 -0.097 0.146 -0.072 0.617 -0.185 0.855 -0.126 1.972 -0.055 0.479 -0.008 0.512 -0.011 0.511 -0.014 0.502 -0.025 0.484 -0.048 0.489 -0.082 0.465 -0.169 0.589 -0.199 0.007 -0.256 -0.578 -0.229 -0.453 -0.193 -0.476 -0.111 -0.476 -0.085 -0.506 -0.061 -0.524 -0.043 -0.526 -0.026 -0.507 -0.016 -2.101 0.029 -1.085 0.169 -0.897 0.305 -0.392 0.246 -0.294 0.268 -0.21 0.263 -0.528 0.707" />
    <path class="write-flat-pen" fill="#FFFFFF" stroke-width="1.8" __comx="317.274" __comy="346.741" __timestamp="0x177dac41a79" d="M311.342 331.709 l1.082 -0.166 0.17 0.008 0.702 0.183 0.451 0.184 1.111 0.576 0.527 0.338 1.662 1.398 0.512 0.551 1.077 1.362 0.956 1.492 0.802 1.584 0.657 1.634 0.435 1.652 0.254 1.64 0.133 1.627 0.01 1.579 -0.325 2.395 -0.167 0.781 -0.204 0.765 -0.242 0.785 -0.251 0.784 -0.252 0.766 -0.276 0.805 -0.201 0.847 -0.124 0.439 0.204 0.11 0.298 -0.345 0.603 -0.648 0.488 -0.742 0.42 -0.746 0.368 -0.792 0.326 -0.818 0.272 -0.829 0.222 -0.882 0.386 -2.568 -0.004 -1.752 -0.138 -1.744 -0.277 -1.776 -0.482 -1.823 -0.719 -1.786 -0.875 -1.713 -1.051 -1.618 -1.179 -1.461 -0.627 -0.656 -1.834 -1.49 -0.677 -0.413 -1.254 -0.6 -0.619 -0.221 -0.975 -0.187 -0.431 0.028 -1.166 0.241" />
    <path class="write-flat-pen" fill="#FFFFFF" stroke-width="1.8" __comx="345.132" __comy="347.428" __timestamp="0x177dac425db" d="M339.907 355.36 l0.495 -0.483 -0.075 0.052 0.667 -0.098 0.37 -0.017 2.815 0.093 0.621 0.023 0.627 0.018 0.616 0.008 0.593 -0.006 0.593 -0.021 0.565 -0.034 0.572 -0.046 0.549 -0.069 0.511 -0.082 0.488 -0.093 0.464 -0.083 0.441 -0.129 0.496 -0.143 -0.004 -0.089 -0.507 -0.097 -0.451 -0.088 -0.47 -0.04 -0.488 -0.046 -0.504 -0.051 -0.535 -0.047 -0.558 -0.048 -0.559 -0.039 -0.578 -0.034 -0.573 -0.037 -0.598 -0.042 -0.615 -0.047 -0.629 -0.048 -2.893 -0.134 -0.53 0.031 -0.958 0.201 -0.296 0.167 -0.623 0.665" />
    <path class="write-flat-pen" fill="#FFFFFF" stroke-width="1.8" __comx="345.197" __comy="347.428" __timestamp="0x177dac42713" d="M342.05 349.393 l-0.133 -0.086 -0.372 1.106 0.902 0.091 2.202 -0.024 0.65 -0.088 0.615 -0.069 0.64 -0.116 0.641 -0.131 0.651 -0.158 0.645 -0.187 0.654 -0.199 0.611 -0.268 0.432 -0.183 -0.022 -0.128 -0.468 -0.028 -0.663 -0.048 -0.675 0.019 -0.66 0.01 -0.659 0.023 -0.649 0.036 -0.613 0.047 -0.606 0.023 -0.601 0.052 -2.073 -0.024 -1.921 -0.114 -0.374 1.111 1.316 0.546" />
    <path class="write-flat-pen" fill="#FFFFFF" stroke-width="1.8" __comx="346.179" __comy="347.428" __timestamp="0x177dac4297e" d="M340.358 345.101 l-0.06 -0.568 0.013 -0.072 0.013 -0.058 0.011 -0.058 0.011 -0.061 0.014 -0.022 0.037 -0.09 0.015 -0.008 0.169 -0.32 0.053 -0.075 0.576 -0.699 0.811 -0.789 0.726 -0.503 0.749 -0.378 0.73 -0.209 0.84 -0.075 0.314 0.057 0.514 0.218 0.465 0.339 1.397 1.401 0.297 0.225 0.741 0.46 0.88 0.323 0.988 0.132 0.372 0.01 0.367 -0.013 0.389 -0.069 0.343 -0.1 0.316 -0.14 0.279 -0.222 0.557 -0.45 -0.07 -0.265 -0.707 -0.113 -0.328 -0.061 -0.289 -0.008 -0.283 0.003 -0.273 0 -0.252 -0.02 -0.271 -0.027 -0.763 -0.126 -0.591 -0.219 -0.557 -0.34 -0.165 -0.122 -1.444 -1.378 -0.701 -0.482 -0.806 -0.33 -0.653 -0.116 -1.163 0.102 -0.99 0.277 -0.963 0.475 -0.914 0.624 -0.963 0.935 -0.669 0.85 -0.142 0.238 -0.206 0.531 -0.047 0.227 0.001 0.313 0.026 0.14 0.026 0.089 0.029 0.079 0.032 0.074 0.035 0.06 0.087 0.545" />
    <path class="write-flat-pen" fill="#FFFFFF" stroke-width="1.8" __comx="374.28" __comy="347.428" __timestamp="0x177dac431b8" d="M369.012 338.533 l-0.042 -0.725 -0.001 -0.057 0.01 -0.23 0.009 -0.068 0.022 -0.127 0.015 -0.061 0.029 -0.096 0.007 -0.016 0.033 -0.112 0.022 -0.062 0.036 -0.083 0.001 0.029 0.017 0.01 -0.013 0.089 -0.199 0.329 -0.752 0.109 -0.297 -0.43 -0.031 -0.043 0 0.068 0.004 0.147 0.014 0.982 0 0.423 -0.419 7.427 -0.02 0.811 0 3.027 0.153 2.982 0.215 1.686 0.291 1.114 0.342 0.656 0.585 0.552 0.639 0.273 1.104 0.158 3.081 -0.136 1.768 0.03 1.215 0.168 0.335 0.067 0.369 0.084 0.353 0.09 0.344 0.093 0.365 0.105 0.33 0.093 0.318 0.087 0.34 0.079 0.34 0.049 0.378 -0.017 0.686 -0.034 0.086 -0.214 -0.471 -0.5 -0.256 -0.272 -0.267 -0.201 -0.3 -0.191 -0.322 -0.17 -0.346 -0.155 -0.388 -0.156 -0.376 -0.132 -0.391 -0.123 -0.417 -0.113 -0.413 -0.097 -1.374 -0.213 -1.928 -0.043 -2.978 0.128 -0.729 -0.103 -0.16 -0.067 -0.161 -0.151 -0.124 -0.235 -0.219 -0.825 -0.2 -1.515 -0.152 -2.876 -0.012 -2.965 0.015 -0.764 0.389 -7.454 -0.008 -0.494 -0.055 -1.058 -0.04 -0.269 -0.053 -0.201 -0.083 -0.218 -0.34 -0.497 -0.796 0.115 -0.233 0.38 -0.039 0.164 -0.007 0.119 -0.004 0.067 0.019 0.15 0.014 0.095 0.028 0.127 0.006 0.034 0.031 0.136 0.022 0.085 0.037 0.136 0.02 0.088 0.061 0.251 0.014 0.059 0.122 0.708" />
    <path class="write-flat-pen" fill="#FFFFFF" stroke-width="1.8" __comx="384.922" __comy="347.428" __timestamp="0x177dac43317" d="M383.67 351.829 l0.238 0.731 0.028 0.147 0.042 0.202 0.037 0.247 0.136 0.821 0.077 0.473 0.371 2.59 0.067 0.475 0.066 0.442 0.076 0.414 0.081 0.34 0.083 0.273 0.076 0.228 0.081 0.155 0.321 0.6 0.142 0.001 0.327 -0.596 0.083 -0.163 0.07 -0.254 0.059 -0.31 0.033 -0.371 0.011 -0.431 -0.008 -0.463 -0.03 -0.52 -0.343 -2.651 -0.092 -0.512 -0.178 -0.844 -0.086 -0.333 -0.111 -0.274 -0.074 -0.151 -0.27 -0.725" />
    <path class="write-flat-pen" fill="#FFFFFF" stroke-width="1.8" __comx="384.996" __comy="347.428" __timestamp="0x177dac4339e" d="M385.544 345.731 l0.086 -0.789 0.06 -0.216 0.06 -0.299 -0.054 0.002 -0.092 -0.769 -0.279 -0.16 -0.709 0.311 -0.114 0.108 -0.144 0.491 -0.057 0.331 -0.06 0.875" />
    <path class="write-flat-pen" fill="#FFFFFF" stroke-width="1.8" __comx="396.9" __comy="347.428" __timestamp="0x177dac43b13" d="M396.803 336.827 l0.218 -0.587 0.012 0.01 0.014 0.042 -0.066 0.083 -0.113 0.105 -0.185 0.078 -0.227 -0.008 -0.203 -0.094 -0.101 -0.088 -0.022 0.007 0.012 0.101 0.025 0.182 0.028 0.257 0.025 0.302 0.025 0.894 0.002 0.551 0.137 16.47 0.012 0.771 0.002 0.663 0.001 0.592 0.008 0.489 0.012 0.399 0.018 0.308 0.021 0.231 0.035 0.212 0.063 0.162 0.041 0.119 0.147 0.106 0.588 0.287 0.298 -0.17 0.053 -0.652 0.067 -0.035 0.03 0.074 0.025 -0.041 0.023 -0.083 0.025 -0.194 0.026 -0.297 0.03 -0.39 0.031 -0.484 0.035 -0.594 0.029 -0.685 0.012 -0.793 -0.123 -16.481 -0.014 -0.581 -0.058 -0.974 -0.055 -0.391 -0.068 -0.342 -0.086 -0.294 -0.103 -0.249 -0.135 -0.223 -0.202 -0.213 -0.282 -0.139 -0.303 -0.018 -0.3 0.109 -0.152 0.135 -0.092 0.112 -0.071 0.2 -0.021 0.101 -0.169 0.625" />
    <path class="write-flat-pen" fill="#FFFFFF" stroke-width="1.8" __comx="402.84" __comy="347.428" __timestamp="0x177dac43c47" d="M397.029 336.783 l-0.422 -0.811 0.152 0.305 -0.154 0.452 -0.312 0.153 0.742 -0.053 0.279 0.012 5.172 0.309 2.402 0.034 0.594 -0.006 0.576 -0.011 0.565 -0.015 0.586 -0.022 0.569 -0.044 0.573 -0.055 0.563 -0.077 0.578 -0.107 0.566 -0.197 0.535 -0.171 0 -0.227 -0.535 -0.171 -0.566 -0.196 -0.58 -0.105 -0.568 -0.072 -0.585 -0.044 -0.563 -0.02 -0.57 -0.022 -0.564 -0.016 -0.574 -0.012 -0.578 -0.01 -2.357 -0.068 -5.166 -0.292 -0.404 -0.008 -1.111 0.127 -0.501 0.242 -0.277 0.773 0.162 0.325 0.481 0.82" />
    <path class="write-flat-pen" fill="#FFFFFF" stroke-width="1.8" __comx="405.095" __comy="347.428" __timestamp="0x177dac43dc8" d="M399.132 350.424 l0.251 -0.604 -0.143 0.139 0.005 0.009 0.084 -0.023 1.048 -0.122 0.531 -0.019 4.565 -0.034 0.845 -0.004 0.846 -0.007 0.846 -0.015 0.859 -0.028 0.835 -0.052 0.786 -0.098 0.78 -0.116 0.735 -0.21 0.449 -0.117 0.001 -0.182 -0.449 -0.12 -0.73 -0.215 -0.778 -0.132 -0.783 -0.104 -0.828 -0.073 -0.858 -0.048 -0.846 -0.036 -0.849 -0.026 -0.857 -0.019 -4.604 -0.001 -0.637 0.026 -1.326 0.197 -0.33 0.149 -0.221 0.127 -0.266 0.246 -0.36 0.964" />
    <path class="write-flat-pen" fill="#FFFFFF" stroke-width="1.8" __comx="361.325" __comy="333.504" __timestamp="0x177dac4448f" d="M363.518 327.693 l-0.71 0.072 -0.185 0.113 -0.133 0.088 -0.138 0.122 -0.148 0.154 -0.181 0.214 -0.384 0.542 -0.234 0.357 -0.979 1.743 -0.268 0.553 -1.305 3.034 -0.256 0.745 -0.409 1.55 -0.178 0.88 -0.263 1.905 -0.06 1.043 -0.059 2.193 -0.007 1.249 0.334 3.943 0.591 4.207 1.501 6.942 0.363 1.306 0.393 1.223 0.428 1.143 0.45 1.091 0.484 1.006 0.494 0.894 0.53 0.84 0.557 0.725 0.671 0.564 0.359 0.336 0.258 -0.182 -0.197 -0.451 -0.29 -0.796 -0.36 -0.767 -0.37 -0.858 -0.379 -0.896 -0.39 -0.979 -0.378 -1.06 -0.372 -1.108 -0.349 -1.173 -0.327 -1.241 -1.455 -6.848 -0.586 -4.105 -0.347 -3.826 -0.004 -1.163 0.029 -2.156 0.04 -0.96 0.209 -1.805 0.14 -0.794 0.354 -1.46 0.211 -0.644 1.229 -2.973 0.23 -0.494 0.897 -1.702 0.188 -0.326 0.308 -0.527 0.114 -0.184 0.078 -0.126 0.038 -0.069 0.022 -0.045 -0.091 0.046 0.436 -0.084" />
    <path class="write-flat-pen" fill="#FFFFFF" stroke-width="1.8" __comx="418.62" __comy="346.157" __timestamp="0x177dac446fc" d="M414.577 326.702 l0.026 -0.444 -0.231 0.198 0.133 0.097 0.174 0.148 0.271 0.253 0.314 0.315 0.351 0.379 0.386 0.447 0.405 0.5 0.421 0.555 0.403 0.601 0.387 0.639 0.389 0.736 0.36 0.75 0.709 1.674 0.298 0.816 1.433 4.627 0.499 1.938 0.354 1.966 0.226 1.997 0.087 2.894 -0.091 1.817 -0.265 1.799 -0.456 1.836 -0.671 1.947 -0.391 1.037 -0.397 1.067 -0.437 1.08 -0.46 1.101 -0.469 1.12 -0.482 1.103 -0.502 1.072 -0.442 1.111 -0.123 0.287 0.118 0.071 0.198 -0.242 0.784 -0.913 0.681 -0.989 0.677 -1.03 0.62 -1.08 0.567 -1.08 0.521 -1.088 0.454 -1.074 0.432 -1.05 0.738 -2.023 0.502 -1.973 0.288 -1.944 0.097 -1.949 -0.088 -3.015 -0.239 -2.107 -0.374 -2.068 -0.524 -2.028 -1.487 -4.691 -0.338 -0.885 -0.776 -1.728 -0.415 -0.797 -0.454 -0.783 -0.46 -0.681 -0.479 -0.634 -0.495 -0.573 -0.469 -0.5 -0.45 -0.445 -0.414 -0.376 -0.376 -0.314 -0.343 -0.257 -0.316 -0.203 -0.729 -0.251 -0.46 0.375 0 0.844" />
    <path class="write-flat-pen" fill="#FFFFFF" stroke-width="1.8" __comx="431.38" __comy="346.157" __timestamp="0x177dac44985" d="M434.564 330.062 l-0.93 -0.483 -0.464 0.067 -0.577 0.425 -0.367 0.58 -0.752 1.737 -1.193 3.237 -0.845 2.593 -0.509 2.01 -0.384 2.152 -0.273 2.363 -0.074 3.686 0.227 2.505 0.373 2.459 0.504 2.346 0.948 3.008 0.356 0.896 0.367 0.809 0.376 0.725 0.418 0.666 0.442 0.579 0.45 0.504 0.5 0.402 0.435 0.386 0.281 -0.217 -0.263 -0.519 -0.242 -0.559 -0.257 -0.573 -0.293 -0.613 -0.296 -0.648 -0.287 -0.693 -0.301 -0.779 -0.299 -0.84 -0.874 -2.913 -0.473 -2.238 -0.36 -2.37 -0.222 -2.378 0.052 -3.534 0.239 -2.252 0.345 -2.061 0.465 -1.916 0.81 -2.521 1.179 -3.171 0.69 -1.607 0.168 -0.28 0.079 -0.081 -0.311 0.043 0.563 0.25" />
    <path class="write-flat-pen" fill="#FFFFFF" stroke-width="1.8" __comx="447.964" __comy="346.157" __timestamp="0x177dac44cd6" d="M441.922 358.779 l-0.567 -0.18 0.119 0.073 0.012 -0.02 0.03 0.021 -0.056 -0.187 -0.032 -0.151 -0.094 -0.889 0.089 -1.925 0.447 -3.415 0.44 -2.406 1.57 -6.779 1.233 -4.742 0.158 -0.993 0.015 -1.418 0 0 -0.468 -0.253 0 0 -1.098 0.478 -0.129 0.459 -0.036 1.124 0.168 2.416 0.378 3.083 0.429 1.827 0.403 1.119 0.41 0.701 0.586 0.643 0.565 0.361 0.757 0.206 0.876 -0.121 0.805 -0.384 0.773 -0.666 1.673 -2.268 1.91 -2.852 0.223 -0.326 1.542 -2.311 0.158 -0.246 0.465 -0.79 0.341 -0.844 0.113 -0.778 -0.235 -0.337 -1.122 -0.1 -0.325 0.286 -0.134 0.287 -0.329 0.751 -0.146 0.419 -0.374 1.465 -0.332 1.975 -0.212 2.493 -0.127 4.924 0.043 5.951 0.075 0.893 0.045 0.831 0.127 0.81 0.171 0.726 0.174 0.641 0.198 0.588 0.263 0.534 0.291 0.443 0.396 0.363 0.437 0.418 0.246 -0.14 -0.137 -0.589 -0.082 -0.476 -0.077 -0.429 -0.091 -0.491 -0.079 -0.534 -0.098 -0.625 -0.11 -0.678 -0.075 -0.693 -0.018 -0.787 -0.057 -0.867 -0.019 -5.871 0.127 -4.852 0.198 -2.382 0.3 -1.849 0.327 -1.346 0.099 -0.312 0.268 -0.694 -0.007 0.001 0.083 -0.106 -1.122 -0.1 -0.102 -0.154 0.003 0.009 -0.232 0.571 -0.399 0.664 -0.137 0.206 -1.567 2.266 -0.23 0.323 -1.928 2.81 -1.561 2.084 -0.48 0.404 -0.39 0.182 -0.306 0.042 -0.205 -0.054 -0.18 -0.113 -0.33 -0.36 -0.253 -0.428 -0.327 -0.892 -0.394 -1.651 -0.375 -2.957 -0.18 -2.298 0.014 -0.865 0.069 -0.286 -1.098 0.478 0 0 -0.342 -0.185 0 0 0.003 0.384 -0.125 0.808 -1.221 4.689 -1.578 6.833 -0.458 2.477 -0.461 3.513 -0.115 2.104 0.118 1.114 0.095 0.354 0.197 0.44 0.165 0.206 0.175 0.143 0.181 0.119 0.817 0.217" />
    <path class="write-flat-pen" fill="#FFFFFF" stroke-width="1.8" __comx="466.218" __comy="346.157" __timestamp="0x177dac44e92" d="M462.792 329.035 l1.233 -0.148 0.522 0.148 0.759 0.467 0.862 0.792 0.881 1.063 0.806 1.257 0.695 1.476 0.605 1.722 0.493 1.906 0.335 1.93 0.136 1.984 -0.097 2.049 -0.362 2.068 -0.541 2.071 -0.698 2.096 -0.895 2.051 -1.624 3.016 -0.595 0.989 -0.643 0.995 -0.669 0.993 -0.69 0.99 -0.726 0.994 -0.749 0.977 -0.722 1.053 -0.252 0.326 0.274 0.251 0.303 -0.278 0.991 -0.813 0.907 -0.872 0.856 -0.943 0.788 -0.961 0.746 -0.979 0.708 -1.003 0.658 -1.024 1.719 -3.078 0.963 -2.162 0.744 -2.202 0.57 -2.176 0.391 -2.216 0.108 -2.225 -0.143 -2.144 -0.354 -2.065 -0.526 -2.024 -0.651 -1.85 -0.766 -1.632 -0.911 -1.413 -1.013 -1.204 -1.057 -0.942 -1.072 -0.62 -0.984 -0.233 -1.491 0.219" />
    <path class="write-flat-pen" fill="#FFFFFF" stroke-width="1.8" __comx="557.878" __comy="347.995" __timestamp="0x177dac471bb" d="M553.303 359.833 l0.427 1.25 0.088 0.215 0.805 1.379 0.864 0.001 0.329 -1.435 -0.076 -0.649 -1.146 -4.951 -0.259 -1.039 -1.389 -5.261 -0.279 -1.052 -1.431 -5.972 -0.764 -4.433 -0.272 -2.983 0.051 -3.202 0.322 -1.722 0.524 -1.389 0.454 -0.557 0.611 -0.351 1.055 -0.221 0.925 0.068 2.464 0.695 7.137 2.937 0.34 0.184 1.002 0.675 0.231 0.188 0.23 0.225 0.298 0.266 1.175 0.963 0.217 -0.149 -0.481 -1.442 -0.156 -0.393 -0.218 -0.378 -0.329 -0.388 -1.106 -0.885 -0.496 -0.297 -7.292 -3.088 -2.723 -0.772 -1.329 -0.101 -1.549 0.319 -1.116 0.638 -0.823 1.012 -0.676 1.784 -0.374 2.01 -0.049 3.435 0.293 3.14 0.807 4.551 1.507 6.033 0.301 1.069 1.489 5.224 0.275 1.013 1.243 4.846 0.065 0.374 0.016 0.319 0.71 0.003 -0.568 -0.709 -0.074 -0.13 -0.609 -1.156" />
    <path class="write-flat-pen" fill="#FFFFFF" stroke-width="1.8" __comx="552.382" __comy="347.995" __timestamp="0x177dac47295" d="M543.016 351.241 l1.014 -0.921 0.228 -0.102 1.714 -0.37 11.122 -0.219 0.944 -0.032 0.859 -0.065 0.882 -0.08 0.835 -0.086 0.753 -0.153 1.308 -0.289 -0.006 -0.196 -1.323 -0.209 -0.75 -0.108 -0.829 -0.073 -0.894 -0.055 -0.851 -0.024 -0.938 -0.033 -11.296 0.11 -2.039 0.501 -0.571 0.314 -1.085 1.159" />
    <path class="write-flat-pen" fill="#FFFFFF" stroke-width="1.8" __comx="571.854" __comy="347.995" __timestamp="0x177dac47438" d="M572.551 350.94 l-0.32 -1.488 -0.122 -0.258 -0.552 -0.764 -1.078 -0.42 -1.111 0.146 -1.085 0.549 -0.972 0.982 -0.722 1.311 -0.374 1.603 0.016 1.753 0.442 1.616 0.803 1.51 0.973 1.096 1.271 0.751 1.547 0.246 1.235 -0.307 1.23 -0.691 1.534 -1.495 1.211 -1.895 0.554 -1.428 0.461 -2.587 -0.019 -2.135 -0.343 -0.986 -0.848 -0.996 -1.152 -0.563 -1.178 -0.093 -1.193 0.839 -0.256 0.488 -0.137 0.444 -0.069 0.502 0.039 0.514 0.104 0.462 0.343 1.302 0.177 -0.002 0.321 -1.308 0.096 -0.432 0.084 -0.364 0.124 -0.28 0.137 -0.235 0.083 -0.085 0.529 -0.278 0.353 0.052 0.581 0.311 0.425 0.529 0.148 0.455 0.004 1.719 -0.408 2.282 -0.436 1.127 -1.02 1.599 -1.242 1.214 -0.85 0.477 -0.697 0.173 -0.911 -0.143 -0.785 -0.46 -0.677 -0.757 -0.635 -1.178 -0.353 -1.239 -0.028 -1.355 0.269 -1.208 0.504 -0.933 0.636 -0.654 0.624 -0.327 0.468 -0.075 0.323 0.104 0.246 0.287 0.006 -0.004 0.399 1.308" />
    <path class="write-flat-pen" fill="#FFFFFF" stroke-width="1.8" __comx="586.673" __comy="347.995" __timestamp="0x177dac47532" d="M582.7 355.838 l0.166 -0.337 0.093 0.009 -0.396 -0.569 0.007 -0.033 -0.103 -0.115 0.068 0.021 -0.263 -0.336 0.015 -0.003 -0.292 -1.056 -0.019 -0.241 0.132 -1.597 0.501 -1.512 0.974 -1.705 0.845 -0.937 1.568 -1.172 1.816 -0.884 0.649 -0.205 0.736 -0.193 0.802 -0.193 0.778 -0.153 0.741 -0.173 1.302 -0.324 -0.01 -0.175 -1.329 -0.18 -0.771 -0.09 -0.843 -0.007 -0.882 0.06 -0.823 0.109 -0.828 0.178 -2.115 0.908 -1.837 1.338 -1.066 1.178 -1.126 1.997 -0.581 1.852 -0.089 1.926 0.077 0.52 0.528 1.322 0.197 0.256 0.576 0.41 0.169 0.074 0.377 0.015 0.112 -0.033 -0.396 -0.569 0.077 0.053 -0.138 0.261" />
    <path class="write-flat-pen" fill="#FFFFFF" stroke-width="1.8" __comx="624.889" __comy="347.995" __timestamp="0x177dac47735" d="M623.142 347.222 l-1.004 -0.537 -0.098 0.167 -0.036 0.188 -0.295 2.033 -0.073 0.546 -0.914 5.456 -0.06 1.864 0.446 1.275 0.912 1.044 1.221 0.667 1.521 0.245 1.073 -0.179 0.564 -0.214 0.516 -0.273 0.486 -0.34 0.477 -0.412 0.405 -0.492 0.836 -1.081 -0.082 -0.098 -1.207 0.641 -0.514 0.283 -0.479 0.23 -0.454 0.174 -0.441 0.135 -0.407 0.094 -0.741 0.057 -1.048 -0.207 -0.767 -0.425 -0.55 -0.623 -0.267 -0.737 0.031 -1.491 0.812 -5.401 0.063 -0.581 0.158 -2.081 -0.009 -0.216 -0.074 -0.178 -1.004 0.468" />
    <path class="write-flat-pen" fill="#FFFFFF" stroke-width="1.8" __comx="625.071" __comy="347.995" __timestamp="0x177dac477d4" d="M625.697 339.993 l-0.08 -0.79 0.008 -0.072 0.004 -0.584 0.038 -0.719 -0.162 -0.149 -0.995 0.406 -0.066 1.164 0.076 0.203 0.241 0.737" />
    <path class="write-flat-pen" fill="#FFFFFF" stroke-width="1.8" __comx="646.659" __comy="347.995" __timestamp="0x177dac47a0a" d="M639.659 336.229 l0.48 0.311 0.033 0.069 2.74 3.44 2.788 2.97 1.613 1.348 2.249 1.421 2.87 1.014 0.076 0.113 0 0 0.353 -1.05 -6.272 2.048 -0.487 0.193 -1.949 0.966 -1.776 1.528 -0.141 0.25 -0.036 0.1 -0.411 1.554 0.224 0.152 1.293 -0.954 0.075 -0.064 0.067 -0.049 1.555 -1.21 1.729 -0.886 0.384 -0.162 6.188 -2.148 0.353 -1.05 0 0 -0.333 -0.488 -3.149 -1.121 -2.037 -1.29 -1.476 -1.235 -2.701 -2.871 -2.803 -3.329 -0.235 -0.256 -0.787 -0.301" />
    <path class="write-flat-pen" fill="#FFFFFF" stroke-width="1.8" __comx="646.657" __comy="347.995" __timestamp="0x177dac47af1" d="M641.076 356.939 l0.683 -0.799 -0.004 0.015 0.91 -0.265 1.472 -0.093 3.431 0.494 0.703 0.095 1.453 0.192 0.723 0.064 0.717 0.034 0.747 0.007 1.387 -0.012 0.039 -0.198 -1.277 -0.541 -0.715 -0.283 -0.711 -0.186 -0.692 -0.167 -1.432 -0.317 -0.708 -0.135 -3.591 -0.625 -1.838 0.12 -1.253 0.424 -0.382 0.246 -0.76 1.095" />
    <path class="write-flat-pen" fill="#FFFFFF" stroke-width="1.8" __comx="683.784" __comy="347.995" __timestamp="0x177dac47ce7" d="M671.54 337.172 l1.208 -2.829 0.184 -0.272 0.929 -1.117 1.037 -0.773 1.054 -0.419 1.031 -0.148 1.202 0.147 1.503 0.55 1.246 0.729 1.01 0.908 0.756 1.201 0.314 1.126 0.19 2.166 -0.111 1.684 -0.65 2.775 -1.15 2.77 -1.442 2.53 -4.438 5.11 -0.579 1.084 0.037 1.049 0.812 0.88 1.611 0.271 9.76 -2.896 1.037 -0.269 2.445 -0.573 1.29 -0.283 1.4 -0.303 1.411 -0.34 1.439 -0.501 1.14 -0.404 -0.077 -0.416 -1.209 0.029 -1.521 0.044 -1.444 0.176 -1.428 0.23 -1.321 0.242 -2.494 0.509 -1.1 0.256 -9.437 2.747 -0.661 -0.099 -0.009 0.005 -0.01 0.013 0.265 -0.536 4.366 -5.125 1.554 -2.753 1.226 -2.98 0.696 -3.024 0.114 -1.929 -0.236 -2.42 -0.425 -1.463 -0.992 -1.546 -1.274 -1.138 -1.487 -0.868 -1.784 -0.653 -1.562 -0.191 -1.395 0.201 -1.393 0.557 -1.328 1 -1.072 1.326 -0.295 0.459 -1.133 3.012" />
  </g>
</svg>
