<svg class="write-page" color-interpolation="linearRGB" width="982px" height="1584px" xmlns="http://www.w3.org/2000/svg" xmlns:xlink="http://www.w3.org/1999/xlink">
  <g class="write-content write-v3" width="982" height="1584" xruling="30" yruling="30" marginLeft="30" papercolor="#000000" rulecolor="#0D9D00FF">
    <g class="ruleline write-std-ruling write-scale-down" fill="none" stroke="#9D00FF" stroke-opacity="0.051" stroke-width="1" shape-rendering="crispEdges" vector-effect="non-scaling-stroke">
      <rect class="pagerect" fill="#000000" stroke="none" x="0" y="0" width="982" height="1584" />
      <path class="yrule_1" d="M0 30 l982 0" />
      <path d="M0 60 l982 0" />
      <path d="M0 90 l982 0" />
      <path d="M0 120 l982 0" />
      <path d="M0 150 l982 0" />
      <path d="M0 180 l982 0" />
      <path d="M0 210 l982 0" />
      <path d="M0 240 l982 0" />
      <path d="M0 270 l982 0" />
      <path d="M0 300 l982 0" />
      <path d="M0 330 l982 0" />
      <path d="M0 360 l982 0" />
      <path d="M0 390 l982 0" />
      <path d="M0 420 l982 0" />
      <path d="M0 450 l982 0" />
      <path d="M0 480 l982 0" />
      <path d="M0 510 l982 0" />
      <path d="M0 540 l982 0" />
      <path d="M0 570 l982 0" />
      <path d="M0 600 l982 0" />
      <path d="M0 630 l982 0" />
      <path d="M0 660 l982 0" />
      <path d="M0 690 l982 0" />
      <path d="M0 720 l982 0" />
      <path d="M0 750 l982 0" />
      <path d="M0 780 l982 0" />
      <path d="M0 810 l982 0" />
      <path d="M0 840 l982 0" />
      <path d="M0 870 l982 0" />
      <path d="M0 900 l982 0" />
      <path d="M0 930 l982 0" />
      <path d="M0 960 l982 0" />
      <path d="M0 990 l982 0" />
      <path d="M0 1020 l982 0" />
      <path d="M0 1050 l982 0" />
      <path d="M0 1080 l982 0" />
      <path d="M0 1110 l982 0" />
      <path d="M0 1140 l982 0" />
      <path d="M0 1170 l982 0" />
      <path d="M0 1200 l982 0" />
      <path d="M0 1230 l982 0" />
      <path d="M0 1260 l982 0" />
      <path d="M0 1290 l982 0" />
      <path d="M0 1320 l982 0" />
      <path d="M0 1350 l982 0" />
      <path d="M0 1380 l982 0" />
      <path d="M0 1410 l982 0" />
      <path d="M0 1440 l982 0" />
      <path d="M0 1470 l982 0" />
      <path d="M0 1500 l982 0" />
      <path d="M0 1530 l982 0" />
      <path d="M0 1560 l982 0" />
      <path class="xrule_1" d="M30 0 l0 1584" />
      <path d="M60 0 l0 1584" />
      <path d="M90 0 l0 1584" />
      <path d="M120 0 l0 1584" />
      <path d="M150 0 l0 1584" />
      <path d="M180 0 l0 1584" />
      <path d="M210 0 l0 1584" />
      <path d="M240 0 l0 1584" />
      <path d="M270 0 l0 1584" />
      <path d="M300 0 l0 1584" />
      <path d="M330 0 l0 1584" />
      <path d="M360 0 l0 1584" />
      <path d="M390 0 l0 1584" />
      <path d="M420 0 l0 1584" />
      <path d="M450 0 l0 1584" />
      <path d="M480 0 l0 1584" />
      <path d="M510 0 l0 1584" />
      <path d="M540 0 l0 1584" />
      <path d="M570 0 l0 1584" />
      <path d="M600 0 l0 1584" />
      <path d="M630 0 l0 1584" />
      <path d="M660 0 l0 1584" />
      <path d="M690 0 l0 1584" />
      <path d="M720 0 l0 1584" />
      <path d="M750 0 l0 1584" />
      <path d="M780 0 l0 1584" />
      <path d="M810 0 l0 1584" />
      <path d="M840 0 l0 1584" />
      <path d="M870 0 l0 1584" />
      <path d="M900 0 l0 1584" />
      <path d="M930 0 l0 1584" />
      <path d="M960 0 l0 1584" />
      <path class="leftmargin" stroke="#FF0000" d="M30 0 l0 1584" />
    </g>
    <path class="write-flat-pen" fill="#FFFFFF" stroke-width="1.8" __comx="108.328" __comy="49.484" __timestamp="0x177be6bf5ce" d="M113.126 39.311 l0.235 -1.203 0.032 -0.176 0.127 -0.907 0.021 -0.216 0.05 -1.287 -0.011 -0.257 -0.315 -1.532 -0.2 -0.415 -0.768 -0.857 -1.042 -0.483 -1.267 -0.129 -1.643 0.303 -2.768 1.074 -2.193 1.252 -2.243 1.79 -1.39 1.506 -1.734 2.566 -1.385 2.852 -0.975 2.874 -0.45 2.941 0.073 2.727 0.765 2.538 1.233 2.146 1.131 1.203 1.464 0.999 1.785 0.669 2.877 0.403 2.104 -0.095 3.056 -0.666 3.021 -1.073 4.957 -2.631 0.728 -0.464 0.63 -0.433 0.541 -0.416 0.468 -0.388 0.413 -0.412 0.995 -1.054 -0.141 -0.216 -1.365 0.486 -0.544 0.212 -0.541 0.271 -0.587 0.314 -0.646 0.359 -0.704 0.393 -4.859 2.474 -2.817 0.998 -2.818 0.614 -1.814 0.082 -2.548 -0.357 -1.431 -0.535 -1.154 -0.787 -0.878 -0.933 -1.045 -1.816 -0.65 -2.148 -0.067 -2.363 0.399 -2.658 0.886 -2.648 1.274 -2.669 1.59 -2.382 1.22 -1.338 2.047 -1.652 1.985 -1.143 2.525 -0.996 1.293 -0.258 0.815 0.062 0.569 0.233 0.476 0.464 0.058 0.091 0.379 1.252 0.02 0.119 0.103 1.219 0.009 0.18 0.038 0.891 0.005 0.155 -0.02 1.215" />
    <path class="write-flat-pen" fill="#FFFFFF" stroke-width="1.8" __comx="130.885" __comy="49.484" __timestamp="0x177be6bf894" d="M130.199 46.954 l-0.551 -0.797 -0.142 -0.138 -0.919 -0.473 -0.38 -0.056 -1.278 0.161 -1.14 0.577 -1.093 0.975 -0.918 1.283 -0.8 1.738 -0.421 1.646 -0.005 1.439 0.376 1.433 0.88 1.607 0.887 0.898 1.179 0.621 1.402 0.246 1.458 -0.316 1.397 -0.818 1.559 -1.681 0.929 -1.475 0.756 -1.807 0.447 -1.912 -0.029 -1.611 -0.88 -0.996 -1.08 0.613 -0.389 1.413 0.091 1.769 0.576 2.071 0.797 1.741 0.982 1.416 1.408 1.253 1.299 0.535 0.33 0.054 0.341 0.015 0.33 -0.045 0.22 -0.067 1.402 -0.54 -0.012 -0.228 -1.452 -0.385 -0.195 -0.044 -0.202 -0.041 -0.177 -0.057 -0.123 -0.048 -0.912 -0.454 -1.084 -0.981 -0.798 -1.154 -0.688 -1.504 -0.497 -1.787 -0.069 -1.347 0.151 -0.551 -0.576 0.326 -0.331 -0.376 0.019 0.848 -0.37 1.6 -0.655 1.571 -0.783 1.248 -1.304 1.416 -0.99 0.585 -0.929 0.206 -0.876 -0.149 -0.765 -0.398 -0.579 -0.581 -0.701 -1.258 -0.289 -1.067 -0.006 -1.064 0.331 -1.345 0.672 -1.502 0.735 -1.055 0.83 -0.767 0.765 -0.417 0.868 -0.164 0.025 -0.007 0.64 0.193 -0.046 -0.053 0.632 0.62" />
    <path class="write-flat-pen" fill="#FFFFFF" stroke-width="1.8" __comx="144.891" __comy="49.484" __timestamp="0x177be6bf9bb" d="M140.184 35.854 l0.064 1.44 0.072 0.485 1.166 4.305 0.259 0.912 3.53 12.143 1.119 2.933 0.939 1.322 0.273 0.224 0.239 0.151 0.26 0.1 1.393 0.428 0.101 -0.151 -0.932 -1.121 -0.145 -0.17 -0.109 -0.135 -0.091 -0.134 -0.672 -1.149 -1.019 -2.75 -3.568 -12.075 -0.269 -0.905 -1.283 -4.205 -0.082 -0.368 -0.198 -1.376" />
    <path class="write-flat-pen" fill="#FFFFFF" stroke-width="1.8" __comx="163.093" __comy="49.484" __timestamp="0x177be6bfb5f" d="M163.333 43.654 l-0.949 -0.62 -0.322 -0.106 -1.799 -0.125 -0.488 0.066 -1.433 0.455 -1.371 0.775 -1.23 1.079 -1.015 1.391 -0.717 1.72 -0.352 1.75 0.038 1.771 0.526 1.841 0.903 1.746 1.3 1.555 1.711 1.192 1.917 0.713 2.074 0.244 1.546 -0.115 2.207 -0.575 3.952 -1.942 0.619 -0.462 0.494 -0.426 0.446 -0.455 0.322 -0.45 0.821 -1.232 -0.199 -0.212 -1.283 0.74 -0.447 0.27 -0.472 0.317 -0.495 0.315 -0.537 0.329 -3.759 1.74 -1.925 0.507 -1.256 0.091 -1.74 -0.206 -1.554 -0.582 -1.374 -0.965 -1.057 -1.264 -0.757 -1.454 -0.436 -1.497 -0.039 -1.401 0.278 -1.439 0.575 -1.424 0.797 -1.129 0.977 -0.896 1.1 -0.663 1.169 -0.427 0.245 -0.048 1.528 -0.016 0.058 0.003 0.913 0.41" />
    <path class="write-flat-pen" fill="#FFFFFF" stroke-width="1.8" __comx="181.85" __comy="49.484" __timestamp="0x177be6bfd96" d="M174.016 47.413 l0.137 -0.809 -1.167 -0.207 -0.033 0.041 -0.259 0.724 -0.106 0.375 -0.724 4.566 -0.012 0.638 0.148 1.688 0.549 2.023 0.664 1.324 1.086 1.246 1.021 0.603 1.203 0.255 1.404 -0.339 1.461 -0.966 1.29 -1.44 0.711 -1.219 1.253 -3.554 0.549 -2.358 0.38 -3.12 -0.03 -1.797 -0.33 -0.614 0 0 -1.265 -0.202 -0.461 0.443 -0.157 1.966 0.511 3.148 1.109 3.398 1.474 3.291 1.437 2.078 1.294 1.274 1.863 0.814 0.567 0.024 0.404 -0.055 0.369 -0.109 0.324 -0.194 1.165 -0.839 -0.078 -0.238 -1.436 0.015 -0.287 0.006 -0.212 -0.007 -0.225 -0.021 -0.2 -0.044 -1.338 -0.67 -0.987 -0.981 -1.265 -1.837 -1.373 -3.083 -1.043 -3.201 -0.461 -2.833 0.095 -1.164 0.022 -0.019 -1.265 -0.202 0 0 0.144 0.272 0.021 1.298 -0.353 2.924 -0.508 2.188 -1.17 3.329 -0.55 0.951 -1.039 1.173 -1.053 0.706 -0.786 0.192 -0.603 -0.124 -0.583 -0.339 -0.793 -0.902 -0.509 -1.008 -0.488 -1.739 -0.149 -1.471 0.001 -0.457 0.586 -4.416 0.063 -0.308 0.117 -0.731 -0.011 -0.033 -1.167 -0.207 0.033 0.82" />
    <path class="write-flat-pen" fill="#FFFFFF" stroke-width="1.8" __comx="197.896" __comy="49.484" __timestamp="0x177be6bfea1" d="M193.48 36.332 l0.247 0.444 0.038 0.143 0.092 0.241 0.142 0.322 0.463 0.942 0.271 0.547 1.922 4.491 0.309 0.883 2.152 7.215 1.371 6.021 0.203 0.67 0.164 0.587 0.229 0.559 0.202 0.397 0.708 1.318 0.318 -0.083 -0.026 -1.496 -0.023 -0.468 -0.108 -0.561 -0.084 -0.58 -0.15 -0.687 -1.281 -6.072 -2.191 -7.306 -0.347 -0.973 -2.072 -4.553 -0.346 -0.591 -0.593 -0.904 -0.24 -0.309 -0.214 -0.22 -0.136 -0.095 -0.337 -0.372" />
    <path class="write-flat-pen" fill="#FFFFFF" stroke-width="1.8" __comx="215.755" __comy="49.484" __timestamp="0x177be6c00e3" d="M215.181 50.005 l0.397 -1.443 0.042 -0.269 -0.251 -1.901 -0.229 -0.357 -0.842 -0.738 -1.144 -0.398 -1.296 -0.039 -1.299 0.47 -0.798 0.633 -0.911 1.363 -0.611 1.641 -0.324 2.104 0.066 2.22 0.404 1.6 0.717 1.527 0.942 1.051 0.942 0.54 1.192 0.202 1.253 -0.324 1.157 -0.842 1.205 -1.748 0 0 0.809 -2.001 0 0 0.732 -4.218 0 0 -1.651 -0.055 0.262 2.499 0.556 2.361 0.997 2.634 0.963 1.663 1.104 1.162 1.448 0.63 0.526 -0.007 0.414 -0.086 0.406 -0.181 0.318 -0.286 0.919 -1.022 -0.134 -0.244 -1.355 0.231 -0.293 0.051 -0.18 0.005 -0.172 -0.012 -0.081 -0.023 -0.834 -0.421 -0.742 -0.798 -0.796 -1.379 -0.909 -2.406 -0.506 -2.152 -0.25 -2.393 -1.651 -0.055 0 0 -0.695 4.045 0 0 -0.668 1.671 0 0 -0.937 1.37 -0.674 0.495 -0.61 0.16 -0.56 -0.093 -0.462 -0.263 -0.608 -0.675 -0.553 -1.167 -0.328 -1.276 -0.067 -1.897 0.266 -1.8 0.48 -1.319 0.662 -1.011 0.402 -0.327 0.78 -0.296 0.771 0.007 0.661 0.207 0.487 0.386 -0.048 -0.081 0.294 1.388 0.007 0.017 -0.246 1.411" />
    <path class="write-flat-pen" fill="#FFFFFF" stroke-width="1.8" __comx="232.133" __comy="49.484" __timestamp="0x177be6c020c" d="M226.643 35 l-0.256 0.905 -0.053 0.258 -0.144 1.118 -0.042 0.52 -0.004 7.396 0.15 0.941 0.506 2.732 0.996 3.378 1.257 2.97 1.061 1.838 1.489 1.802 2.047 1.363 0.484 0.174 0.472 0.118 0.498 0.072 0.5 0.03 0.553 -0.013 0.585 -0.147 1.381 -0.412 -0.011 -0.204 -1.417 -0.262 -0.516 -0.088 -0.416 -0.104 -0.401 -0.119 -0.388 -0.128 -0.345 -0.135 -0.258 -0.124 -1.68 -1.207 -1.262 -1.529 -0.946 -1.637 -1.182 -2.797 -0.949 -3.212 -0.492 -2.632 -0.131 -0.802 -0.1 -7.229 0.01 -0.46 0.029 -1.079 0.002 -0.182 0.111 -0.882" />
    <path class="write-flat-pen" fill="#FFFFFF" stroke-width="1.8" __comx="230.91" __comy="49.484" __timestamp="0x177be6c0308" d="M219.823 46.694 l1.514 -0.281 7.167 0.061 7.944 -0.852 1.009 -0.197 0.983 -0.162 0.916 -0.238 0.862 -0.205 0.863 -0.349 1.219 -0.521 -0.053 -0.247 -1.325 0.029 -0.893 0.03 -0.875 0.044 -0.925 0.112 -0.981 0.084 -0.999 0.144 -7.818 0.748 -7.245 -0.045 -1.663 0.37" />
    <path class="write-flat-pen" fill="#FFFFFF" stroke-width="1.8" __comx="257.44" __comy="49.484" __timestamp="0x177be6c04f4" d="M248.058 51.022 l0.691 0.384 0.177 0.08 0.849 0.258 0.339 0.06 1.848 -0.014 0.493 -0.072 1.863 -0.565 1.722 -0.884 1.123 -0.899 1.158 -1.405 0.46 -1.111 -0.038 -0.957 -0.629 -0.854 -1.308 -0.5 -1.831 0.035 -2.114 0.496 -1.727 0.856 -1.059 0.894 -1.234 1.65 -0.707 1.744 -0.299 1.832 0.061 1.333 0.585 1.814 1.029 1.528 1.383 1.169 1.405 0.632 2.456 0.457 2.624 -0.1 5.409 -1.506 0.868 -0.372 0.814 -0.384 0.761 -0.418 0.693 -0.509 1.117 -0.864 -0.15 -0.314 -1.374 0.323 -0.814 0.21 -0.787 0.261 -0.826 0.283 -0.799 0.285 -5.163 1.363 -2.253 0.086 -2.082 -0.385 -1.016 -0.455 -1.036 -0.87 -0.779 -1.145 -0.456 -1.385 -0.048 -0.948 0.233 -1.489 0.556 -1.386 0.997 -1.341 0.771 -0.653 1.389 -0.691 1.771 -0.42 1.356 -0.03 0.594 0.221 0.076 0.095 0.012 0.14 -0.23 0.591 -0.891 1.127 -0.872 0.731 -1.459 0.8 -1.629 0.563 -0.314 0.064 -1.662 0.156 -0.195 -0.005 -0.777 -0.083 -0.102 -0.014 -0.727 -0.209" />
    <path class="write-flat-pen" fill="#FFFFFF" stroke-width="1.8" __comx="329.867" __comy="50.176" __timestamp="0x177be6c0863" d="M318.099 39.835 l0.161 1.656 0.068 0.36 1.185 4.521 0.159 0.783 0 0 0.614 3.52 0 0 0.65 8.167 0 0 1.511 -0.076 -0.061 -5.304 -1.061 -12.897 -0.474 -3.257 -0.361 -1.048 -0.087 0.345 0.267 -0.06 17.871 0.16 0.434 -0.017 0.41 -0.028 0.359 -0.04 0.335 -0.075 1.557 -0.442 0.001 -0.345 -1.554 -0.454 -0.334 -0.078 -0.357 -0.043 -0.407 -0.033 -0.43 -0.024 -18.091 -0.223 -1.37 0.375 -0.281 1.035 0.489 1.375 0.449 3.056 1.077 12.794 0.106 5.25 1.511 -0.076 0 0 -0.734 -8.227 0 0 -0.66 -3.6 0 0 -0.182 -0.846 -1.322 -4.492 -0.071 -0.279 -0.313 -1.591" />
    <path class="write-flat-pen" fill="#FFFFFF" stroke-width="1.8" __comx="333.659" __comy="50.176" __timestamp="0x177be6c098b" d="M323.163 46.241 l1.01 0.531 0.301 0.097 2.02 0.291 0.708 0.034 4.517 -0.121 9.565 -1.475 0.4 -0.09 0.633 -0.166 0.234 -0.07 0.172 -0.067 1.434 -0.639 -0.025 -0.212 -1.544 -0.284 -0.193 -0.024 -0.273 -0.001 -0.678 0.051 -0.395 0.05 -9.469 1.362 -4.372 0.159 -0.598 -0.014 -1.868 -0.155 -0.099 -0.013 -0.965 -0.369" />
    <path class="write-flat-pen" fill="#FFFFFF" stroke-width="1.8" __comx="336.411" __comy="50.176" __timestamp="0x177be6c0abf" d="M324.414 56.861 l0.783 0.384 0.197 0.048 0.995 0.151 0.41 0.033 4.016 0.109 0.693 0.005 11.833 -0.195 0.718 -0.087 0.671 -0.142 0.608 -0.127 0.632 -0.187 0.573 -0.184 0.624 -0.275 1.24 -0.59 -0.024 -0.1 -1.374 0.022 -0.654 0.025 -0.586 0.016 -0.633 0.061 -0.602 0.037 -0.65 0.073 -0.618 0.033 -11.768 0.093 -0.674 0.002 -3.987 0.01 -0.36 -0.002 -0.927 -0.014 -0.033 0.009 -0.727 -0.192" />
    <path class="write-flat-pen" fill="#FFFFFF" stroke-width="1.8" __comx="364.978" __comy="51.574" __timestamp="0x177be6c1c02" d="M357.551 46.627 l-0.724 -0.824 -0.775 0.776 0.031 0.075 0.827 0.963 0.457 0.461 3.406 3.227 6.273 6.676 2.182 1.923 1.819 0.913 0.426 0.109 0.677 0.073 0.404 -0.096 1.351 -0.417 -0.01 -0.238 -1.381 -0.303 -0.274 -0.068 -0.454 -0.158 -0.234 -0.098 -1.51 -0.881 -1.997 -1.786 -6.271 -6.654 -3.487 -3.194 -0.454 -0.416 -0.92 -0.839 -0.072 -0.033 -0.775 0.776 0.851 0.692" />
    <path class="write-flat-pen" fill="#FFFFFF" stroke-width="1.8" __comx="362.897" __comy="51.574" __timestamp="0x177be6c1d1b" d="M356.766 62.263 l0.872 -1.278 0.266 -0.293 1.862 -1.931 0.601 -0.61 8.078 -9.432 0.418 -0.621 0.349 -0.667 0.685 -1.32 -0.374 -0.277 -1.062 1.04 -0.527 0.518 -0.471 0.521 -8.11 9.314 -0.571 0.611 -1.791 2.061 -0.308 0.405 -0.787 1.425" />
    <path class="write-flat-pen" fill="#FFFFFF" stroke-width="1.8" __comx="388.912" __comy="51.574" __timestamp="0x177be6c1faf" d="M381.919 33.917 l0.487 0.329 -0.015 0.014 0.329 0.565 0.056 0.153 0.53 2.242 0.052 0.489 0.151 3.17 -0.699 10.055 0.033 3.479 0.308 1.69 0.712 1.794 0.807 1.126 1.097 0.899 1.324 0.569 1.512 0.278 1.722 -0.086 2.516 -0.789 0.466 -0.239 0.747 -0.447 0.329 -0.24 0.299 -0.246 0.241 -0.271 0.985 -1.199 -0.161 -0.213 -1.424 0.615 -0.299 0.136 -0.293 0.146 -0.31 0.147 -0.731 0.326 -0.356 0.146 -2.263 0.618 -1.366 0.063 -1.173 -0.211 -0.973 -0.411 -0.78 -0.634 -0.587 -0.812 -0.593 -1.482 -0.262 -1.417 -0.038 -3.294 0.647 -10.09 -0.215 -3.3 -0.086 -0.628 -0.729 -2.409 -0.186 -0.341 -0.553 -0.617 -0.18 -0.156 -0.713 -0.26" />
    <path class="write-flat-pen" fill="#FFFFFF" stroke-width="1.8" __comx="385.258" __comy="51.574" __timestamp="0x177be6c20ac" d="M374.752 50.065 l0.553 -0.592 1.628 -0.294 9.03 -0.373 6.388 -1.036 0.804 -0.163 0.79 -0.219 0.73 -0.179 0.73 -0.291 1.304 -0.535 -0.072 -0.323 -1.408 0.069 -0.76 0.041 -0.752 0.081 -0.802 0.142 -0.77 0.102 -6.318 0.921 -9.057 0.406 -2.151 0.457 -0.812 0.95" />
    <path class="write-flat-pen" fill="#FFFFFF" stroke-width="1.8" __comx="411.601" __comy="51.574" __timestamp="0x177be6c22b0" d="M413.735 32.933 l0.059 -0.747 -0.041 -0.147 -0.19 -0.37 -0.31 -0.179 -0.484 -0.063 -0.398 0.109 -0.764 0.44 -0.374 0.319 -1.526 1.798 -1.232 1.988 -1.119 2.546 -1.1 3.905 -0.426 3.399 -0.091 3.34 0.311 2.176 0.787 2.958 1.179 2.756 2.078 3.185 0.605 0.739 1.249 1.238 0.676 0.545 0.644 0.453 0.645 0.385 0.7 0.345 0.735 0.296 0.723 0.142 1.324 0.243 0.066 -0.189 -1.188 -0.634 -0.609 -0.323 -0.613 -0.359 -0.583 -0.401 -0.53 -0.42 -0.538 -0.474 -0.557 -0.538 -1.079 -1.226 -0.486 -0.658 -1.89 -3.069 -1.066 -2.545 -0.727 -2.763 -0.276 -1.953 0.087 -3.129 0.402 -3.205 1.035 -3.686 1.028 -2.347 1.104 -1.815 1.332 -1.681 0.194 -0.197 0.472 -0.385 0.009 -0.037 0.007 -0.06 -0.135 -0.096 0.042 -0.065 -0.034 -0.126 0.138 0.623" />
    <path class="write-flat-pen" fill="#FFFFFF" stroke-width="1.8" __comx="432.076" __comy="51.574" __timestamp="0x177be6c256e" d="M422.766 42.967 l-0.694 -0.285 0.027 -0.006 -0.277 -0.351 -0.031 -0.068 -0.452 -1.056 -0.056 -0.179 -0.461 -2.435 -0.006 -0.112 0.052 -0.348 -0.105 0.107 0.402 0.016 3.065 0.829 2.481 0.292 2.37 -0.045 3.662 -0.661 5.08 -1.354 3.495 -0.657 1.343 -0.06 0.354 0.141 0.193 0.235 0.073 0.282 -0.148 1.054 -0.832 2.116 -2.168 3.879 -4.098 6.362 -2.022 2.776 -1.529 1.754 0.017 -0.01 -0.018 0.044 -0.038 0.067 -0.026 0.039 -0.601 0.852 0.075 0.178 1.029 0.167 0.073 -0.002 0.246 -0.067 0.208 -0.132 0.084 -0.068 1.716 -1.812 2.108 -2.877 4.151 -6.445 2.241 -4.02 0.938 -2.391 0.219 -1.551 -0.234 -0.928 -0.672 -0.831 -1.059 -0.431 -1.806 0.076 -3.668 0.687 -5.074 1.358 -3.469 0.632 -2.132 0.039 -2.257 -0.265 -3.134 -0.839 -1.251 -0.033 -0.774 0.745 -0.124 1.07 0.035 0.37 0.611 2.61 0.136 0.34 0.646 1.166 0.19 0.236 0.562 0.437 0.223 0.1 0.851 0.165" />
    <path class="write-flat-pen" fill="#FFFFFF" stroke-width="1.8" __comx="436.875" __comy="51.574" __timestamp="0x177be6c279b" d="M440.336 37.939 l-1.917 1.359 -0.372 0.332 -1.667 1.608 -0.471 0.492 -3.844 4.759 -0.46 0.611 -5.178 7.262 -0.229 0.369 -1.054 2.092 -0.114 1.182 0.916 0.684 4.149 -0.524 2.802 -0.055 6.242 0.585 2.821 0.04 1.812 -0.387 1.405 -0.709 1.238 -1.001 1.194 -1.431 1.032 -2.127 0.06 -0.379 0.015 -0.428 -0.006 -0.214 -0.016 -0.213 -0.05 -0.258 -0.412 -1.535 -0.189 -0.007 -0.526 1.499 -0.069 0.228 -0.046 0.164 -0.047 0.161 -0.099 0.336 -0.052 0.135 -0.927 1.763 -0.977 1.173 -0.987 0.795 -1.073 0.541 -1.437 0.307 -2.58 -0.038 -6.27 -0.585 -2.977 0.065 -3.609 0.471 0.283 0.216 -0.004 -0.027 0.876 -1.783 0.166 -0.274 5.041 -7.278 0.429 -0.586 3.696 -4.792 0.406 -0.465 1.535 -1.687 0.292 -0.308 1.758 -1.473" />
    <path class="write-flat-pen" fill="#FFFFFF" stroke-width="1.8" __comx="456.237" __comy="51.574" __timestamp="0x177be6c2a24" d="M451.762 67.538 l0.14 0.064 -0.065 -0.057 0.662 0.308 0.028 -0.037 0.103 -0.392 0.04 -0.207 0.204 -1.669 0.037 -0.411 0.709 -7.043 0.07 -0.437 0.481 -1.978 0.688 -1.682 0.633 -0.848 0.597 -0.469 0.775 -0.297 0.609 -0.022 0.674 0.248 0.603 0.514 0.431 0.673 0.231 0.868 -0.092 0.693 -0.293 0.533 -0.597 0.466 -0.95 0.336 -2.827 0.268 -0.064 0.04 -0.039 0.019 -0.642 0.372 0.037 0.653 0.68 0.297 -0.005 0.017 0.079 0.042 3.108 -0.179 1.382 -0.507 1.031 -0.834 0.556 -1.069 0.139 -1.26 -0.377 -1.359 -0.669 -1.045 -0.965 -0.828 -1.191 -0.446 -1.147 0.038 -1.216 0.464 -0.929 0.731 -0.86 1.163 -0.782 1.966 -0.502 2.145 -0.081 0.54 -0.578 7.118 -0.016 0.423 -0.041 1.668 0.003 0.226 0.064 0.477 0.037 0.087 0.662 0.308 -0.033 -0.08 0.14 -0.607" />
    <path class="write-flat-pen" fill="#FFFFFF" stroke-width="1.8" __comx="465.577" __comy="51.574" __timestamp="0x177be6c2b24" d="M464.014 55.419 l0.2 0.665 0.052 0.155 0.288 0.664 0.112 0.214 0.687 1.691 0.081 0.303 0.282 2.04 -0.056 1.421 -0.505 1.801 -0.047 0.142 -0.19 0.42 -0.072 0.176 -0.095 0.213 -0.596 1.351 0.136 0.112 1.209 -0.847 0.231 -0.185 0.17 -0.205 0.331 -0.436 0.142 -0.271 0.698 -2.025 0.067 -1.742 -0.352 -2.257 -0.147 -0.483 -0.885 -1.798 -0.171 -0.24 -0.391 -0.553 -0.077 -0.097 -0.365 -0.566" />
    <path class="write-flat-pen" fill="#FFFFFF" stroke-width="1.8" __comx="494.547" __comy="51.574" __timestamp="0x177be6c2e17" d="M484.667 46.992 l-1.169 0.14 0.011 -0.017 -0.555 -0.35 0.038 0.024 -0.477 -1.58 -0.024 -0.263 0.185 -3.21 0.052 -0.322 0.601 -2.575 0.389 -0.935 0.166 -0.147 0.261 -0.034 3.931 1.79 1.811 0.588 2.245 0.337 1.884 -0.035 2.451 -0.456 7.982 -2.951 1.603 -0.409 0.106 0.018 0.077 0.067 0.1 0.509 -0.342 1.268 -1.141 2.362 -3.953 6.483 -2.66 3.905 -2.525 2.968 -2.007 1.963 -1.541 1.029 -0.023 0.017 -0.268 0.153 -0.071 0.05 -0.035 0.025 -1.186 0.726 0.03 0.201 1.346 0.351 0.082 0.007 0.248 -0.018 0.455 -0.141 0.145 -0.063 1.807 -1.082 2.19 -2.121 2.634 -3.088 2.731 -4.012 4.011 -6.586 1.24 -2.566 0.484 -1.767 -0.262 -1.402 -0.812 -0.747 -0.913 -0.17 -2.032 0.515 -7.93 2.943 -2.184 0.408 -1.615 0.03 -1.979 -0.297 -1.597 -0.519 -4.277 -1.94 -1.217 0.175 -0.79 0.734 -0.549 1.397 -0.581 2.77 -0.06 0.456 -0.078 3.406 0.074 0.515 0.729 1.896 0.308 0.333 1.103 0.413 0.311 -0.04 1.193 -0.323" />
    <path class="write-flat-pen" fill="#FFFFFF" stroke-width="1.8" __comx="499.066" __comy="51.574" __timestamp="0x177be6c3088" d="M502.044 40.059 l-0.888 0.761 -0.152 0.178 -1.372 1.892 -0.307 0.472 -1.422 2.014 -4.314 5.252 -6.764 7.541 -1.135 1.546 -0.283 1.051 0.639 0.929 1.464 0.007 3.024 -0.795 3.026 -0.495 3.108 -0.124 2.777 0.228 5.543 1.273 2.309 0.277 1.367 -0.289 1.148 -0.711 0.951 -1.198 0.731 -1.462 0.728 -3.659 0.044 -0.385 0.216 -2.379 0.039 -0.359 0.183 -1.492 0.017 -0.187 0.001 -0.352 -0.157 -1.598 -0.176 -0.032 -0.71 1.432 -0.131 0.32 -0.058 0.198 -0.312 1.509 -0.063 0.39 -0.327 2.367 -0.05 0.312 -0.771 3.383 -0.563 1.132 -0.672 0.852 -0.672 0.419 -0.835 0.178 -1.96 -0.239 -5.568 -1.309 -2.995 -0.248 -3.307 0.132 -3.202 0.523 -2.893 0.768 -0.409 0.004 0.258 0.378 0.009 -0.045 0.906 -1.246 6.679 -7.559 4.321 -5.364 1.429 -2.114 0.296 -0.484 1.226 -1.918 0.06 -0.097 0.714 -0.818" />
    <path class="write-flat-pen" fill="#FFFFFF" stroke-width="1.8" __comx="521.368" __comy="51.574" __timestamp="0x177be6c335c" d="M523.327 56.685 l-0.278 -0.993 -0.142 -0.241 -0.972 -1.021 -0.366 -0.197 -1.739 -0.441 -1.368 0.042 -1.328 0.381 -1.24 0.718 -1.328 1.245 -0.977 1.352 -0.584 1.337 -0.26 1.669 0.297 1.195 0.781 0.931 0.962 0.49 1.227 0.103 1.366 -0.395 1.321 -0.74 1.545 -1.34 1.386 -1.635 0 0 0.992 -1.639 0 0 0.039 -0.637 0 0 -1.429 -0.475 -0.864 1.346 -1.404 3.258 -0.816 2.59 -0.468 2.592 -0.158 2.515 0.189 1.171 0.556 0.958 0.769 0.493 1.23 -0.019 1.286 -0.714 2.071 -1.989 3.379 -4.157 0.335 -0.42 0.916 -1.161 0.295 -0.388 0.496 -0.744 0.22 -0.395 0.142 -0.33 0.127 -0.363 0.461 -1.433 -0.153 -0.092 -1.05 1.079 -0.266 0.29 -0.197 0.258 -0.248 0.286 -0.552 0.629 -0.306 0.335 -0.993 1.089 -0.363 0.408 -3.397 4.033 -1.861 1.782 -0.761 0.425 -0.361 0.008 -0.05 -0.03 -0.221 -0.377 -0.116 -0.711 0.14 -2.25 0.431 -2.406 0.758 -2.421 1.316 -3.069 0.798 -1.235 -1.429 -0.475 0 0 -0.024 0.259 0 0 -0.73 1.21 0 0 -1.226 1.451 -1.332 1.163 -1.025 0.582 -0.922 0.276 -0.649 -0.044 -0.428 -0.207 -0.372 -0.424 -0.155 -0.567 0.167 -1.192 0.43 -1.033 0.787 -1.134 1.095 -1.066 0.949 -0.575 1.004 -0.311 1.026 -0.054 1.433 0.307 0.086 0.035 0.867 0.708 0.034 0.022 0.397 0.819" />
    <path class="write-flat-pen" fill="#FFFFFF" stroke-width="1.8" __comx="544.518" __comy="51.574" __timestamp="0x177be6c37ee" d="M541.514 26.528 l-0.582 -1.254 -0.069 -0.112 -0.997 0.465 -0.009 0.319 0.163 0.33 1.546 2.953 0.423 0.807 1.84 3.522 2.219 5.138 0.971 3.128 0.494 3.269 0.12 3.103 -0.155 2.081 -0.606 3.125 -0.872 2.841 -1.625 3.444 -0.432 0.718 -0.484 0.695 -0.502 0.638 -0.544 0.622 -0.575 0.572 -0.6 0.607 -0.914 0.944 0.12 0.165 1.182 -0.574 0.788 -0.398 0.727 -0.502 0.705 -0.588 0.637 -0.649 0.6 -0.737 0.548 -0.808 1.796 -3.586 0.945 -3.029 0.642 -3.296 0.166 -2.26 -0.134 -3.276 -0.531 -3.467 -1.036 -3.315 -2.294 -5.259 -1.909 -3.555 -0.443 -0.809 -1.665 -2.899 -0.1 -0.145 -0.096 -0.099 -0.997 0.465 0.033 0.017 0.675 1.094" />
    <path class="write-flat-pen" fill="#FFFFFF" stroke-width="1.8" __comx="396.804" __comy="72.114" __timestamp="0x177be6c4508" d="M390.191 73.805 l-0.639 -1.466 -0.044 -0.136 -0.372 -1.413 0.011 0.039 0.041 -0.287 -0.012 0.035 0.197 -0.043 3.053 0.508 2.45 0.103 5.206 -0.295 3.179 0.05 0.69 0.233 0.23 0.219 0.056 0.208 -0.111 0.634 -0.681 1.323 -5.789 8.382 0.16 -0.055 0.056 0.038 -0.532 0.569 0.133 0.49 0.747 0.221 0.167 0.007 0.321 -0.153 6.077 -8.704 0.808 -1.663 0.15 -1.252 -0.347 -0.881 -0.733 -0.625 -1.165 -0.387 -3.446 -0.053 -5.187 0.29 -2.298 -0.094 -3.272 -0.515 -0.896 0.26 -0.508 0.648 -0.026 0.866 0.038 0.192 0.566 1.488 0.098 0.206 0.823 1.418" />
    <path class="write-flat-pen" fill="#FFFFFF" stroke-width="1.8" __comx="401.418" __comy="74.274" __timestamp="0x177be6c474f" d="M403.64 70.421 l-1.34 0.996 -0.296 0.295 -1.827 2.085 -0.355 0.472 -4.274 5.249 -0.328 0.351 -3.173 3.336 -0.121 0.141 -0.572 0.905 -0.015 0.967 0.588 0.715 1.313 0.422 3.753 0.079 5.697 0.64 2.517 0.069 1.671 -0.23 3.57 -1.081 0.286 -0.246 0.26 -0.352 0.128 -0.224 0.105 -0.247 0.062 -0.283 0.209 -1.366 -0.142 -0.068 -0.93 1.022 -0.156 0.176 -0.111 0.106 -0.103 0.078 -0.22 0.146 -0.024 -0.011 -3.244 0.884 -1.442 0.198 -2.33 -0.064 -5.701 -0.649 -3.604 -0.077 -0.69 -0.216 0.036 0.048 -0.004 -0.007 0.284 -0.471 0.029 -0.037 3.059 -3.405 0.351 -0.396 4.204 -5.391 0.335 -0.474 1.663 -2.141 0.207 -0.252 1.177 -1.09" />
    <path class="write-flat-pen" fill="#FFFFFF" stroke-width="1.8" __comx="399.156" __comy="31.777" __timestamp="0x177be6c4a73" d="M397.963 30.273 l-0.738 0.637 -0.17 0.205 -0.905 1.737 -0.089 0.255 -0.263 1.121 0.226 1.274 0.827 1.125 0.925 0.605 2.122 0.451 0.433 -0.015 0.446 -0.087 0.327 -0.107 1.412 -0.494 -0.031 -0.241 -1.492 -0.119 -0.333 -0.022 -0.372 0 -0.238 -0.034 -1.759 -0.51 -0.553 -0.368 -0.533 -0.702 -0.156 -0.742 0.15 -0.83 0.036 -0.132 0.678 -1.651 0.05 -0.091 0.57 -0.713" />
    <path class="write-flat-pen" fill="#FFFFFF" stroke-width="1.8" __comx="398.959" __comy="23.817" __timestamp="0x177be6c4b1d" d="M399.404 24.672 l-0.153 -0.43 -0.004 -0.042 0.096 -0.164 0.667 -0.924 -0.177 -0.234 -1.07 0.392 -0.304 0.139 -0.55 0.672 0.489 1.033" />
  </g>
</svg>
