<svg class="write-page" color-interpolation="linearRGB" width="1010px" height="1628px" xmlns="http://www.w3.org/2000/svg" xmlns:xlink="http://www.w3.org/1999/xlink">
  <g class="write-content write-v3" width="1010" height="1628" xruling="30" yruling="30" marginLeft="30" papercolor="#1B1C1C" rulecolor="#3A00F9FF">
    <g class="ruleline write-std-ruling write-scale-down" fill="none" stroke="#00F9FF" stroke-opacity="0.227" stroke-width="1" shape-rendering="crispEdges" vector-effect="non-scaling-stroke">
      <rect class="pagerect" fill="#1B1C1C" stroke="none" x="0" y="0" width="1010" height="1628" />
      <path class="yrule_1" d="M0 30 l1010 0" />
      <path d="M0 60 l1010 0" />
      <path d="M0 90 l1010 0" />
      <path d="M0 120 l1010 0" />
      <path d="M0 150 l1010 0" />
      <path d="M0 180 l1010 0" />
      <path d="M0 210 l1010 0" />
      <path d="M0 240 l1010 0" />
      <path d="M0 270 l1010 0" />
      <path d="M0 300 l1010 0" />
      <path d="M0 330 l1010 0" />
      <path d="M0 360 l1010 0" />
      <path d="M0 390 l1010 0" />
      <path d="M0 420 l1010 0" />
      <path d="M0 450 l1010 0" />
      <path d="M0 480 l1010 0" />
      <path d="M0 510 l1010 0" />
      <path d="M0 540 l1010 0" />
      <path d="M0 570 l1010 0" />
      <path d="M0 600 l1010 0" />
      <path d="M0 630 l1010 0" />
      <path d="M0 660 l1010 0" />
      <path d="M0 690 l1010 0" />
      <path d="M0 720 l1010 0" />
      <path d="M0 750 l1010 0" />
      <path d="M0 780 l1010 0" />
      <path d="M0 810 l1010 0" />
      <path d="M0 840 l1010 0" />
      <path d="M0 870 l1010 0" />
      <path d="M0 900 l1010 0" />
      <path d="M0 930 l1010 0" />
      <path d="M0 960 l1010 0" />
      <path d="M0 990 l1010 0" />
      <path d="M0 1020 l1010 0" />
      <path d="M0 1050 l1010 0" />
      <path d="M0 1080 l1010 0" />
      <path d="M0 1110 l1010 0" />
      <path d="M0 1140 l1010 0" />
      <path d="M0 1170 l1010 0" />
      <path d="M0 1200 l1010 0" />
      <path d="M0 1230 l1010 0" />
      <path d="M0 1260 l1010 0" />
      <path d="M0 1290 l1010 0" />
      <path d="M0 1320 l1010 0" />
      <path d="M0 1350 l1010 0" />
      <path d="M0 1380 l1010 0" />
      <path d="M0 1410 l1010 0" />
      <path d="M0 1440 l1010 0" />
      <path d="M0 1470 l1010 0" />
      <path d="M0 1500 l1010 0" />
      <path d="M0 1530 l1010 0" />
      <path d="M0 1560 l1010 0" />
      <path d="M0 1590 l1010 0" />
      <path d="M0 1620 l1010 0" />
      <path class="xrule_1" d="M30 0 l0 1628" />
      <path d="M60 0 l0 1628" />
      <path d="M90 0 l0 1628" />
      <path d="M120 0 l0 1628" />
      <path d="M150 0 l0 1628" />
      <path d="M180 0 l0 1628" />
      <path d="M210 0 l0 1628" />
      <path d="M240 0 l0 1628" />
      <path d="M270 0 l0 1628" />
      <path d="M300 0 l0 1628" />
      <path d="M330 0 l0 1628" />
      <path d="M360 0 l0 1628" />
      <path d="M390 0 l0 1628" />
      <path d="M420 0 l0 1628" />
      <path d="M450 0 l0 1628" />
      <path d="M480 0 l0 1628" />
      <path d="M510 0 l0 1628" />
      <path d="M540 0 l0 1628" />
      <path d="M570 0 l0 1628" />
      <path d="M600 0 l0 1628" />
      <path d="M630 0 l0 1628" />
      <path d="M660 0 l0 1628" />
      <path d="M690 0 l0 1628" />
      <path d="M720 0 l0 1628" />
      <path d="M750 0 l0 1628" />
      <path d="M780 0 l0 1628" />
      <path d="M810 0 l0 1628" />
      <path d="M840 0 l0 1628" />
      <path d="M870 0 l0 1628" />
      <path d="M900 0 l0 1628" />
      <path d="M930 0 l0 1628" />
      <path d="M960 0 l0 1628" />
      <path d="M990 0 l0 1628" />
      <path class="leftmargin" stroke="#FF0000" d="M30 0 l0 1628" />
    </g>
    <path class="write-flat-pen" fill="#FFFFFF" stroke-width="1.6" __comx="99.371" __comy="48.656" __timestamp="0x17848229ae2" d="M98.555 34.467 l0.085 -2.029 -0.22 0.084 -0.466 -0.269 0.347 2.093 0.08 0.711 0.918 10.962 0.153 10.47 0.163 3.285 0.236 0.029 0.978 -3.239 -0.155 -10.621 -1.166 -11.022 -0.137 -0.786 -0.689 -2.064 -0.466 -0.269 -0.3 0.107 0.245 2.57" />
    <path class="write-flat-pen" fill="#FFFFFF" stroke-width="1.6" __comx="113.4" __comy="48.656" __timestamp="0x17848229c6e" d="M111.251 31.976 l-0.335 -0.225 -0.373 0.343 -0.004 0.216 0.541 3.287 0.173 0.851 3.882 22.322 0.989 3.362 0.136 -0.021 -0.08 -3.513 -3.902 -22.356 -0.217 -0.862 -0.844 -3.176 -0.042 -0.173 -0.373 0.343 0.393 -0.091" />
    <path class="write-flat-pen" fill="#FFFFFF" stroke-width="1.6" __comx="107.479" __comy="48.656" __timestamp="0x17848229dd1" d="M100.561 47.298 l-0.904 0.111 0.026 0.833 0.204 0.068 12.049 -0.716 3.367 -0.477 -0.009 -0.153 -3.398 -0.089 -11.923 0.531 -0.082 -0.004 0.026 0.833 0.804 -0.428" />
    <path class="write-flat-pen" fill="#FFFFFF" stroke-width="1.6" __comx="127.389" __comy="48.656" __timestamp="0x17848229fc4" d="M128.053 47.86 l-0.924 -1.72 -0.484 -0.094 -1.673 0.428 -1.578 1.556 -1.05 2.419 -0.199 2.33 0.677 2.635 1.191 1.634 1.879 1.052 2.249 -0.05 2.234 -1.262 1.452 -1.684 0.807 -2.206 -0.108 -1.766 -1.035 -1.829 -1.803 -1.227 -2.144 -0.141 -0.735 0.791 0.061 0.162 0.81 0.214 1.498 0.321 1.257 0.853 0.721 1.265 0.08 1.158 -0.609 1.706 -1.127 1.323 -1.731 0.991 -1.553 0.049 -1.325 -0.722 -0.9 -1.195 -0.607 -2.188 0.113 -1.94 0.817 -2.087 1.181 -1.289 1.199 -0.409 -0.076 -0.025 0.998 1.229" />
    <path class="write-flat-pen" fill="#FFFFFF" stroke-width="1.6" __comx="146.388" __comy="48.656" __timestamp="0x1784822a242" d="M135.832 48.158 l-0.398 0.862 0.019 0.331 0.693 3.154 0.136 0.428 0 0 1.086 3.224 0 0 0.827 0.655 0 0 1.049 -0.438 0.986 -6.205 0.791 -2.165 0.294 -0.21 0.354 0.113 0.985 1.443 2.038 5.399 1.34 1.425 1.524 -0.913 2.162 -6.999 0.884 -1.447 0.47 -0.241 0.763 0.247 1.321 1.683 2.087 4.499 1.977 2.831 0.124 -0.057 -0.841 -3.343 -2.029 -4.725 -1.727 -2.198 -1.812 -0.582 -1.412 0.73 -1.198 1.978 -2.028 6.641 -0.009 0.01 -0.327 -0.336 -2.021 -5.275 -1.368 -1.989 -1.512 -0.475 -1.232 0.89 -0.982 2.715 -0.918 6.358 1.049 -0.438 0 0 -0.57 -0.361 0 0 -1.102 -2.806 0 0 -0.147 -0.379 -0.995 -2.983 -0.045 -0.141 0.054 -0.814" />
    <path class="write-flat-pen" fill="#FFFFFF" stroke-width="1.6" __comx="162.216" __comy="74.292" __timestamp="0x1784822a53c" d="M154.128 84.262 l-0.416 1.513 -0.027 0.137 0.644 0.157 0.662 -0.901 0.178 -0.537 0.003 -0.011 6.036 -22.451 0 0 -1.379 -0.216 -0.021 0.282 0.256 3.411 1.894 7.005 2.379 6.121 3.625 5.05 2.705 1.229 0.078 -0.11 -1.88 -2.011 -3.201 -4.86 -2.293 -5.884 -1.859 -6.794 -0.289 -3.175 0.005 -0.185 -1.379 -0.216 0 0 -5.694 22.523 0.003 -0.011 -0.115 0.457 -0.321 0.966 0.644 0.157 -0.028 -0.084 0.078 -1.515" />
    <path class="write-flat-pen" fill="#FFFFFF" stroke-width="1.6" __comx="161.01" __comy="76.227" __timestamp="0x1784822a677" d="M154.855 77.424 l0.053 -0.935 -0.176 0.126 9.949 -0.808 3.316 -0.51 -0.009 -0.124 -3.355 -0.042 -10.17 0.648 -0.439 0.286 0.353 1.42" />
    <path class="write-flat-pen" fill="#FFFFFF" stroke-width="1.6" __comx="177.224" __comy="71.363" __timestamp="0x1784822a90a" d="M168.996 69.269 l0.196 -2.201 -0.265 0.256 0.474 0.789 0.143 0.292 3.956 11.257 0.085 0.345 0 0 0.648 1.993 0 0 1.326 -0.114 0.629 -3.945 0.704 -1.383 0.973 -0.653 1.453 -0.118 2.264 0.84 1.818 1.453 0.957 1.781 0.056 1.441 -0.548 1.414 -1.329 1.311 -2.096 0.904 -2.464 0.237 -1.488 -0.374 -0.975 -0.778 -0.375 -1.011 -0.269 -2.347 -0.126 -0.009 -0.595 2.42 0.159 1.657 1.523 1.344 2.038 0.519 2.926 -0.283 2.539 -1.098 1.727 -1.71 0.756 -1.964 -0.083 -2.05 -1.244 -2.313 -2.212 -1.773 -2.762 -1.034 -2.13 0.167 -1.582 1.062 -0.971 1.91 -0.629 4.172 1.326 -0.114 0 0 -0.676 -1.929 0 0 -0.094 -0.36 -4.332 -11.278 -0.266 -0.424 -1.178 -1.09 -0.35 0.329 0.14 2.457" />
    <path class="write-flat-pen" fill="#FFFFFF" stroke-width="1.6" __comx="200.528" __comy="36.225" __timestamp="0x1784822ab45" d="M198.27 32.491 l0.444 -1.234 -0.013 -0.159 -0.58 -0.188 -0.736 0.423 -0.256 0.478 -1.265 4.957 -0.635 7.518 0.277 6.119 0.956 4.196 1.699 3.335 3.349 3.184 0.612 0.324 0.616 0.246 3.038 1.212 0.052 -0.1 -2.726 -1.807 -0.523 -0.35 -0.429 -0.323 -2.891 -3.17 -1.493 -3.018 -0.88 -3.915 -0.269 -5.909 0.566 -7.338 0.997 -4.794 0.068 -0.2 0.345 -0.542 -0.58 -0.188 0.023 0.003 -0.111 1.157" />
    <path class="write-flat-pen" fill="#FFFFFF" stroke-width="1.6" __comx="425.754" __comy="47.074" __timestamp="0x17848231c09" d="M406.56 45.278 l-0.411 0.12 0.138 0.583 0.165 0.057 2.783 0.293 0.92 0.047 29.363 1.522 1.373 0.006 1.344 -0.03 3.119 -0.067 0.004 -0.103 -3.105 -0.306 -1.336 -0.133 -1.361 -0.118 -29.356 -1.827 -0.925 -0.006 -2.745 0.019 -0.132 0.005 0.138 0.583 0.236 -0.357" />
    <path class="write-flat-pen" fill="#FFFFFF" stroke-width="1.6" __comx="446.917" __comy="47.074" __timestamp="0x17848231ec7" d="M449.455 45.626 l-1.86 -1.153 -0.174 -0.148 -2.574 -2.398 -0.254 -0.246 -2.916 -2.737 0 0 -1.286 -0.491 0 0 -0.855 1.006 0.792 1.521 2.381 1.929 3.043 1.438 6.446 1.105 0.425 0.289 0.07 0.561 -1.576 3.89 -0.939 2.757 0.134 0.085 2.159 -2.143 1.826 -4.392 -0.255 -1.661 -1.274 -0.83 -6.56 -1.11 -2.702 -1.263 -2.025 -1.616 -0.7 -1.234 -0.855 1.006 0 0 1.063 0.327 0 0 2.86 2.397 0.281 0.236 2.83 2.163 0.259 0.167 2.06 0.883" />
    <path class="write-flat-pen" fill="#FFFFFF" stroke-width="1.6" __comx="485.8" __comy="48.79" __timestamp="0x178482344a4" d="M486.074 33.616 l-0.626 -1.318 -0.661 0.03 -0.108 0.167 -0.051 4.212 0.116 1.076 0.893 11.428 0 -0.004 0.18 9.507 1.017 0.142 -0.016 -0.196 -0.073 -1.163 -0.109 -0.032 -0.681 0.946 -0.118 0.158 1.017 0.142 0.12 -9.563 0 -0.004 -1.06 -11.483 -0.145 -1.04 -0.283 -3.948 -0.021 -0.007 -0.661 0.03 0.899 1.15" />
    <path class="write-flat-pen" fill="#FFFFFF" stroke-width="1.6" __comx="500.419" __comy="48.79" __timestamp="0x178482345c9" d="M497.216 30.12 l-0.368 0.856 -0.043 0.376 0.093 4.971 0.119 1.146 2.068 15.271 1.268 5.111 1.487 1.807 2.126 0.691 0.067 -0.112 -1.414 -1.433 -0.98 -1.557 -1.2 -4.771 -2.243 -15.161 -0.149 -1.091 -0.421 -4.875 -0.016 -0.266 0.041 -0.858" />
    <path class="write-flat-pen" fill="#FFFFFF" stroke-width="1.6" __comx="494.5" __comy="48.79" __timestamp="0x178482346c3" d="M486.876 47.622 l4.577 1.12 6.483 0.256 0.797 -0.054 3.388 -0.223 0.004 -0.193 -3.377 -0.357 -0.776 -0.085 -6.364 -0.496 -4.554 -0.806" />
    <path class="write-flat-pen" fill="#FFFFFF" stroke-width="1.6" __comx="511.741" __comy="48.79" __timestamp="0x17848234897" d="M508.465 48.051 l0.98 -0.745 0.085 -0.123 -0.645 -0.569 -1.83 1.128 -0.31 0.483 -1.069 2.345 -0.362 2.822 0.526 2.308 1.3 2.02 2.178 1.347 2.064 0.327 2.539 -0.519 2.132 -1.264 1.335 -1.696 0.78 -2.51 -0.383 -2.584 -1.232 -1.952 -2.199 -1.743 -2.987 -0.694 -2.412 0.97 0.02 0.11 2.336 0.1 2.366 0.824 1.75 1.433 0.918 1.481 0.284 1.934 -0.596 1.917 -0.991 1.256 -1.673 0.997 -2.026 0.426 -1.508 -0.226 -1.661 -1 -1.013 -1.522 -0.453 -1.822 0.246 -2.393 0.893 -2.11 0.126 -0.215 1.434 -1.269 -0.645 -0.569 -0.003 0.036 -0.654 0.904" />
    <path class="write-flat-pen" fill="#FFFFFF" stroke-width="1.6" __comx="529.614" __comy="48.79" __timestamp="0x17848234b40" d="M518.81 48.692 l-0.243 1.562 0.032 0.332 0.635 5.071 0.038 0.332 0.44 2.351 1.632 -0.022 2.534 -10.09 0.759 -1.42 0.005 0.001 0.703 0.684 2.337 7.459 0 0 0.796 0.544 0 0 1.168 -0.305 2.526 -5.097 1.82 -2.373 1.441 -0.975 1.143 -0.174 0.922 0.431 0.852 1.304 0.66 2.996 0.095 4.599 0.229 3.826 0.88 0.025 0.449 -3.841 -0.056 -4.795 -0.758 -3.44 -1.262 -1.93 -1.773 -0.83 -1.979 0.301 -1.955 1.323 -2.072 2.703 -2.595 5.236 1.168 -0.305 0 0 -0.338 -0.231 0 0 -2.297 -7.315 -1.514 -1.461 -1.587 0.127 -1.257 2.361 -2.26 9.152 0.798 0.003 -0.253 -1.058 -0.047 -0.301 -0.98 -5.028 -0.051 -0.221 -0.09 -1.476" />
    <path class="write-flat-pen" fill="#FFFFFF" stroke-width="1.6" __comx="546.211" __comy="68.549" __timestamp="0x17848236295" d="M546.332 65.584 l0.759 0.448 0.072 0.044 -0.01 -0.003 -0.02 -0.761 -0.254 -0.081 -0.193 0.017 -3.038 1.152 -2.705 2.125 -2.235 3.151 -1.371 3.533 -0.483 3.524 0.509 2.831 1.418 2.431 2.036 1.411 2.569 0.731 2.939 -0.052 3.674 -1.106 3.251 -1.852 2.316 -3.269 -0.008 -0.638 -0.424 -1.071 -1.315 -2.08 -0.053 0.023 0.558 2.327 0.059 0.906 -0.053 0.071 -2.12 2.535 -2.835 1.582 -3.297 0.986 -2.484 0.043 -2.088 -0.594 -1.531 -1.058 -1.103 -1.883 -0.42 -2.309 0.408 -3.099 1.211 -3.196 1.976 -2.841 2.343 -1.925 2.642 -1.287 0.128 -0.05 0.215 -0.232 -0.02 -0.761 -0.01 -0.003 -0.035 0.015 -0.842 -0.122" />
    <path class="write-flat-pen" fill="#FFFFFF" stroke-width="1.6" __comx="551.984" __comy="75.244" __timestamp="0x1784823643d" d="M545.178 75.524 l-0.055 -0.398 -0.271 0.524 -0.027 0.015 1.015 0.164 0.25 0.025 8.947 -0.44 0.769 0.23 1.54 3.796 2.143 1.995 0.08 -0.058 -1.147 -2.517 -1.53 -4.381 -1.693 -0.502 -9.125 0.727 -0.211 0.008 -1.13 0.156 -0.061 0.023 -0.271 0.524 0.236 0.325" />
    <path class="write-flat-pen" fill="#FFFFFF" stroke-width="1.6" __comx="561.819" __comy="36.974" __timestamp="0x17848236756" d="M561.825 34.032 l0.229 -0.887 -0.012 0.076 0.017 -0.054 -0.741 -0.164 -0.199 0.289 -0.092 0.203 -1.681 6.12 -0.236 1.066 -0.755 6.514 0.172 4.235 0.994 3.779 1.777 2.978 0.614 0.632 0.679 0.527 2.576 1.995 0.12 -0.123 -2.067 -2.518 -0.507 -0.626 -0.406 -0.579 -1.422 -2.824 -0.845 -3.46 -0.15 -3.96 0.693 -6.33 0.201 -0.976 1.334 -6.147 0.055 -0.269 -0.099 -0.419 -0.741 -0.164 0.017 -0.054 -0.024 0.118 0.093 0.993" />
    <path class="write-flat-pen" fill="#FFFFFF" stroke-width="1.6" __comx="589.732" __comy="45.567" __timestamp="0x17848238c15" d="M590.179 36.641 l-0.252 -0.589 0 0 -0.554 0.102 -0.424 1.537 -0.031 0.668 0.615 16.546 0.648 0.992 0.112 -0.021 0.253 -1.086 -0.65 -16.447 -0.022 -0.572 0.091 -1.518 -0.554 0.102 0 0 0.39 0.507" />
    <path class="write-flat-pen" fill="#FFFFFF" stroke-width="1.6" __comx="592.564" __comy="45.567" __timestamp="0x17848238d20" d="M578.723 36.966 l-0.341 -0.756 -0.268 0.682 4.129 -1.115 0.816 -0.105 20.521 -1.661 0.584 -0.07 3.4 -0.39 -0.001 -0.135 -3.408 -0.323 -0.616 -0.058 -20.621 1.329 -0.962 0.15 -4.125 1.479 -0.268 0.682 0.475 0.68" />
    <path class="write-flat-pen" fill="#FFFFFF" stroke-width="1.6" __comx="609.731" __comy="45.567" __timestamp="0x17848238f2f" d="M602.96 47.405 l0.515 2.056 0.078 0.288 0.966 4.378 0 0 0.042 0.227 0 0 0.272 1.359 0 0 1.285 -0.168 0.034 -4.167 0.621 -2.745 0.797 -1.353 1.414 -1.03 1.81 -0.42 2.867 0.581 2.794 1.061 0.046 -0.077 -2.408 -2.015 -3.272 -1.047 -2.455 0.553 -1.905 1.385 -1.064 1.817 -0.692 3.134 0.107 4.331 1.285 -0.168 0 0 -0.41 -1.301 0 0 -0.056 -0.226 0 0 -1.314 -4.341 -0.121 -0.303 -0.841 -1.946" />
    <path class="write-flat-pen" fill="#FFFFFF" stroke-width="1.6" __comx="620.181" __comy="45.567" __timestamp="0x1784823903f" d="M619.301 48.809 l-0.11 1.397 0.015 0.275 0.955 4.185 0.999 -0.17 0.012 -0.043 -0.247 -0.515 -0.796 -3.618 -0.043 -0.187 -0.215 -1.346" />
    <path class="write-flat-pen" fill="#FFFFFF" stroke-width="1.6" __comx="621.462" __comy="45.567" __timestamp="0x178482390dd" d="M621.911 39.136 l-0.897 -0.044 0.08 1.365 0.091 0.012 0.36 -0.744 0.341 0.008" />
    <path class="write-flat-pen" fill="#FFFFFF" stroke-width="1.6" __comx="631.191" __comy="45.567" __timestamp="0x17848239226" d="M626.071 44.4 l0.172 1.034 0.078 0.213 1.331 3.165 0.208 0.436 1.648 3.417 1.362 1.124 1.591 -0.648 2.92 -8.409 0.93 -3.13 -0.083 -0.04 -1.909 2.72 -2.994 7.778 -0.235 0.124 -0.527 -0.378 -1.652 -3.091 -0.225 -0.413 -1.627 -3.006 -0.096 -0.154 -0.485 -0.881" />
    <path class="write-flat-pen" fill="#FFFFFF" stroke-width="1.6" __comx="647.026" __comy="45.567" __timestamp="0x178482394bc" d="M647.285 32.04 l-0.652 0.07 -0.214 0.258 -1.31 2.276 -0.273 0.559 -1.595 4.31 -0.878 4.878 -0.04 5.18 0.984 3.787 3.478 5.196 0.703 0.564 1.293 0.753 2.899 1.445 0.054 -0.086 -2.54 -1.98 -1.08 -0.917 -0.476 -0.502 -3.046 -5.033 -0.865 -3.401 0.03 -4.88 0.799 -4.658 1.421 -4.195 0.213 -0.507 0.978 -2.348 -0.013 -0.031 0.301 -0.287" />
    <path class="write-flat-pen" fill="#FFFFFF" stroke-width="1.6" __comx="668.287" __comy="50.107" __timestamp="0x1784823a62e" d="M658.986 59.098 l-0.878 0.463 0.223 0.186 0.134 -0.999 0.072 -0.196 2.554 -5.751 0.303 -0.642 4.653 -9.898 1.857 -5.232 0 0 -0.197 -1.303 0 0 -1.535 0.173 0.094 2.004 3.288 10.084 3.413 8.067 2.522 2.489 0.488 0.136 0.391 0.014 2.663 0.046 0.021 -0.102 -2.459 -1.023 -0.271 -0.124 -0.08 -0.078 -1.926 -2.237 -3.263 -7.748 -3.217 -9.819 -0.119 -1.795 -1.535 0.173 0 0 0.181 0.913 0 0 -1.657 4.817 -4.526 9.882 -0.3 0.675 -2.276 5.965 -0.082 0.399 0.188 1.379 0.354 0.314 1.071 -1.04" />
    <path class="write-flat-pen" fill="#FFFFFF" stroke-width="1.6" __comx="670.294" __comy="50.107" __timestamp="0x1784823a752" d="M664.017 48.163 l2.675 1.384 0.623 0.091 5.956 -0.353 3.299 -0.708 -0.005 -0.044 -3.347 0.047 -5.857 0.057 -0.401 -0.041 -2.678 -1.023" />
    <path class="write-flat-pen" fill="#FFFFFF" stroke-width="1.6" __comx="687.507" __comy="50.107" __timestamp="0x1784823a8e7" d="M681.646 31.757 l1.63 1.376 0.28 0.249 4.026 4.428 0.443 0.591 2.384 3.999 0.997 2.946 0.517 3.93 -0.338 3.163 -1.681 4.616 -0.348 0.663 -0.71 1.241 -1.684 2.885 0.072 0.052 2.218 -2.507 0.936 -1.122 0.51 -0.709 2.06 -4.776 0.411 -3.522 -0.566 -4.244 -1.113 -3.218 -2.568 -4.153 -0.549 -0.693 -4.371 -4.283 -0.372 -0.268 -1.838 -1.124" />
    <path class="write-flat-pen" fill="#FFFFFF" stroke-width="1.6" __comx="709.75" __comy="50.107" __timestamp="0x1784823ac60" d="M709.663 54.874 l0.142 1.813 0.046 0.383 0.336 3.995 -0.847 4.582 -1.013 3.159 0.135 0.058 1.625 -2.982 1.083 -4.771 -0.57 -4.149 -0.092 -0.399 -0.478 -1.753" />
    <path class="write-flat-pen" fill="#FFFFFF" stroke-width="1.6" __comx="735.831" __comy="50.107" __timestamp="0x1784823b089" d="M720.699 58.559 l-0.236 0.342 0.568 0.309 0.113 -0.069 0.606 -0.852 0.225 -0.397 3.204 -6.634 0.347 -0.815 2.421 -6.179 1.371 -5.363 -0.176 -2.097 -1.713 -0.41 -0.879 3.28 0.012 4.312 0.793 3.715 1.195 1.93 1.904 1.151 2.291 -0.065 2.469 -1.198 2.73 -2.442 3.167 -4.281 2.812 -5.769 0.417 -0.219 0 0 -1.095 -0.369 0.929 2 2.214 13.559 1.07 3.566 1.294 1.002 0.51 0.035 0.293 -0.089 1.645 -0.62 -0.004 -0.06 -1.718 -0.375 -0.151 -0.056 0.032 -0.053 -0.509 -0.654 -0.9 -3.055 -2.237 -13.674 -1.023 -2.198 -1.095 -0.369 0 0 -0.877 0.463 -2.971 6.108 -2.981 4.035 -2.443 2.186 -1.964 0.951 -1.485 0.042 -1.18 -0.711 -0.852 -1.371 -0.705 -3.286 -0.02 -3.941 0.424 -1.627 -0.832 -0.203 0.073 0.732 -1.262 5.032 -2.332 6.097 -0.319 0.782 -2.883 6.744 -0.156 0.4 -0.288 0.871 0.011 0.033 0.568 0.309 -0.074 -0.409" />
    <path class="write-flat-pen" fill="#FFFFFF" stroke-width="1.6" __comx="758.806" __comy="50.107" __timestamp="0x1784823b26f" d="M753.526 29.874 l0.419 0.992 0.205 0.258 1.906 1.71 0.479 0.365 2.793 2.595 2.079 3.253 0.992 2.921 0.395 3.475 -0.365 3.63 -1.429 4.932 -3.968 7.649 -0.613 0.885 -0.648 0.897 -0.645 0.888 -1.917 2.623 0.097 0.087 2.387 -2.204 0.817 -0.752 0.795 -0.813 0.802 -0.901 4.361 -7.755 1.536 -5.229 0.395 -3.948 -0.44 -3.816 -1.123 -3.263 -2.336 -3.563 -3.105 -2.676 -0.541 -0.351 -2.009 -1.392 -0.121 -0.093 -0.629 -0.748" />
    <path class="write-flat-pen" fill="#FFFFFF" stroke-width="1.6" __comx="230.181" __comy="48.867" __timestamp="0x1784823c733" d="M218.406 53.277 l-0.697 2.991 0.012 0.152 0.493 1.116 0.628 -0.354 1.965 -3.845 0.295 -0.74 5.076 -13.808 1.748 -6.291 0.125 -2.453 0 0 -0.615 -0.925 0 0 -1.314 0.155 -0.529 1.338 0.875 3.456 2.527 5.357 9.716 13.195 0.478 0.562 0.942 1.019 2.42 2.502 0.103 -0.08 -1.819 -2.963 -0.723 -1.171 -0.388 -0.61 -9.371 -13.257 -2.415 -5.086 -0.746 -2.833 0.326 -0.894 -1.314 0.155 0 0 0.364 0.503 0 0 -0.071 1.803 -1.668 6.087 -4.975 13.771 -0.258 0.695 -1.516 3.676 0.447 -0.244 -0.213 -0.038 0.002 0.069 0.348 -2.965" />
    <path class="write-flat-pen" fill="#FFFFFF" stroke-width="1.6" __comx="230.604" __comy="48.867" __timestamp="0x1784823c9d7" d="M224.812 46.299 l-0.25 -1.11 -0.14 0.217 1.464 -0.303 7.711 0.71 0.7 0.09 3.29 0.435 0.022 -0.103 -3.172 -0.976 -0.714 -0.219 -7.92 -1.011 -1.913 0.607 -0.291 0.426 0.716 1.426" />
    <path class="write-flat-pen" fill="#FFFFFF" stroke-width="1.6" __comx="254.08" __comy="48.867" __timestamp="0x1784823cb62" d="M250.586 55.603 l1.005 -0.05 0.093 0.05 2.381 1.838 0.231 0.27 1.388 2.252 0.7 2.395 0.017 2.537 -0.279 3.162 0.141 0.032 1.15 -3.058 0.242 -2.832 -0.842 -2.755 -1.616 -2.428 -0.401 -0.417 -2.789 -1.717 -0.409 -0.072 -1.096 0.419" />
    <path class="write-flat-pen" fill="#FFFFFF" stroke-width="1.6" __comx="294.308" __comy="44.852" __timestamp="0x1784823d567" d="M273.877 59.127 l0.233 1.084 0.399 0.103 1.005 -0.566 0.248 -0.313 2.823 -5.161 0.35 -0.791 5.586 -13.765 1.797 -5.834 0 0 0.045 -2.048 0 0 -1.555 -0.222 -0.497 1.794 0.309 4.04 1.081 4.098 2.286 5.229 1.885 2.535 2.02 1.24 1.825 0.048 2.033 -1.067 2.202 -2.624 6.365 -13.937 0.868 -1.127 -0.023 0.001 0.45 0.606 2.374 13.212 2.231 8.851 2.035 4.828 2.413 2.351 0.076 -0.053 -1.286 -2.944 -1.711 -4.673 -2.192 -8.697 -2.43 -13.527 -1.177 -1.584 -1.569 0.06 -1.437 1.866 -6.351 13.906 -1.86 2.216 -1.385 0.727 -0.979 -0.026 -1.391 -0.854 -1.592 -2.141 -2.163 -4.948 -1.013 -3.838 -0.28 -3.619 0.413 -1.53 -1.555 -0.222 0 0 -0.021 1.829 0 0 -1.673 5.575 -5.439 13.734 -0.309 0.74 -2.468 5.211 -0.078 0.154 -0.455 0.539 0.231 0.072 -0.413 -0.642" />
    <path class="write-flat-pen" fill="#FFFFFF" stroke-width="1.6" __comx="331.535" __comy="16.164" __timestamp="0x1784823de34" d="M335.793 14.889 l-0.209 -0.503 -0.131 -0.136 -1.055 -0.719 -0.261 -0.099 -1.89 -0.32 -2.762 0.592 -2.376 1.37 -2.039 2.163 -1.217 2.602 -0.307 2.522 0.563 2.367 1.593 2.192 1.749 1.156 2.79 0.722 2.862 -0.233 2.803 -1.092 2.398 -2.536 0.181 -0.392 0.176 -0.538 0.862 -3.07 -0.08 -0.035 -1.692 2.688 -0.282 0.43 -0.136 0.171 -2.248 1.995 -2.324 0.853 -2.381 0.179 -2.282 -0.595 -1.293 -0.856 -1.24 -1.709 -0.43 -1.79 0.234 -2 0.994 -2.162 1.699 -1.849 1.97 -1.205 2.296 -0.624 1.581 0.077 0.089 0.011 1.068 0.349 0.046 0.001 0.396 0.252" />
    <path class="write-flat-pen" fill="#FFFFFF" stroke-width="1.6" __comx="337.181" __comy="20.825" __timestamp="0x1784823e077" d="M331.154 21.483 l0.157 -0.231 -0.191 0.158 1.509 -0.274 0.221 -0.021 7.312 -0.445 0.784 0.209 1.019 3.192 1.775 2.322 0.108 -0.053 -0.715 -2.729 -1.103 -3.855 -1.741 -0.457 -7.571 0.657 -0.339 0.066 -1.628 0.663 -0.237 0.193 0.193 0.622" />
    <path class="write-flat-pen" fill="#FFFFFF" stroke-width="1.6" __comx="356.866" __comy="28.205" __timestamp="0x1784823e36f" d="M352.354 22.748 l1.117 0.223 0.101 0.071 1.841 1.618 2.707 3.796 1.507 3.378 0.899 4.04 0.173 4.55 -0.749 4.804 -1.528 4.566 -3.181 6.146 -0.537 0.836 -1.13 1.642 -1.856 2.688 0.073 0.059 2.234 -2.388 1.348 -1.497 0.667 -0.837 3.542 -6.139 1.641 -4.763 0.792 -5.04 -0.187 -4.797 -0.967 -4.283 -1.647 -3.604 -2.977 -3.946 -2.186 -1.6 -0.371 -0.149 -1.301 0.117" />
    <path class="write-flat-pen" fill="#FFFFFF" stroke-width="1.6" __comx="161.878" __comy="163.747" __timestamp="0x1784823fa51" d="M158.34 178.469 l1.157 5.08 0.591 -0.097 -0.111 -3.073 -0.125 -0.734 -5.331 -25.284 0 -0.097 0.332 -1.638 1.086 -1.311 1.665 -0.86 2.886 -0.547 2.683 0.135 2.682 0.855 2.36 1.941 0.171 0.191 2.059 2.513 0.107 -0.066 -1.325 -2.966 -0.175 -0.368 -2.497 -2.456 -3.131 -1.016 -3.03 -0.149 -3.242 0.63 -2.08 1.093 -1.46 1.794 -0.406 2.105 0.007 0.367 5.698 25.327 0.148 0.669 0.373 2.45 0.485 -0.076 -1.342 -4.474" />
    <path class="write-flat-pen" fill="#FFFFFF" stroke-width="1.6" __comx="159.717" __comy="163.747" __timestamp="0x1784823fb72" d="M152.405 165.211 l11.302 -0.833 3.378 -0.423 -0.006 -0.166 -3.413 -0.159 -11.316 0.818" />
    <path class="write-flat-pen" fill="#FFFFFF" stroke-width="1.6" __comx="177.293" __comy="163.747" __timestamp="0x1784823fc89" d="M176.601 175.744 l0.149 4.038 1.102 0.775 0.134 -0.113 -0.39 -0.996 -0.258 -3.743" />
    <path class="write-flat-pen" fill="#FFFFFF" stroke-width="1.6" __comx="175.406" __comy="163.747" __timestamp="0x1784823fd24" d="M175.173 153.72 l-0.303 1.572 0.666 1.967 0.166 -0.033 -0.1 -1.927 0.341 -1.413" />
    <path class="write-flat-pen" fill="#FFFFFF" stroke-width="1.6" __comx="205.085" __comy="163.747" __timestamp="0x1784823ff69" d="M193.363 177.42 l0.461 1.903 0.598 0.11 1.919 -1.973 0.354 -0.723 1.782 -5.595 0 0 2.836 -13.129 0 0 0.564 -6.238 0 0 -1.338 0.186 3.213 8.52 4.95 10.452 3.576 6.097 1.588 1.212 0.467 0.077 2.452 0.297 0.02 -0.061 -2.171 -1.179 -0.205 -0.137 -1.077 -1.099 -3.378 -5.877 -4.907 -10.343 -3.233 -8.452 -1.338 0.186 0 0 -0.507 6.16 0 0 -2.735 13.009 0 0 -1.623 5.505 -0.225 0.527 -1.297 1.742 0.264 0.063 -0.637 -1.367" />
    <path class="write-flat-pen" fill="#FFFFFF" stroke-width="1.6" __comx="205.729" __comy="163.747" __timestamp="0x1784824004f" d="M199.289 166.732 l-0.497 0.654 2.825 0.322 0.616 0.037 6.262 0.058 0.826 -0.077 3.345 -0.307 -0.001 -0.154 -3.348 -0.275 -0.811 -0.069 -6.228 -0.312 -0.604 -0.022 -2.841 0.027 0.247 0.863" />
    <path class="write-flat-pen" fill="#FFFFFF" stroke-width="1.6" __comx="227.902" __comy="163.747" __timestamp="0x17848240141" d="M220.229 170.288 l12.054 -0.646 3.331 -0.643 -0.012 -0.108 -3.369 0.122 -12.04 0.495" />
    <path class="write-flat-pen" fill="#FFFFFF" stroke-width="1.6" __comx="239.857" __comy="163.747" __timestamp="0x178482402cd" d="M239.765 167.002 l-1.911 -0.617 -0.177 -0.101 -3.117 -2.675 -0.001 -0.012 0 0 -0.187 -0.59 0 0 -0.72 0.916 1.729 0.244 7.946 2.935 1.251 0.905 0.541 1.053 -0.406 4.862 -0.094 2.632 0.052 0.015 1.33 -2.402 0.622 -5.394 -0.907 -1.745 -1.696 -1.225 -8.3 -3.05 -1.909 -0.184 -0.72 0.916 0 0 0.3 0.723 0 0 0.214 0.3 3.573 2.595 0.379 0.152 2.075 0.313" />
    <path class="write-flat-pen" fill="#FFFFFF" stroke-width="1.6" __comx="269.363" __comy="163.747" __timestamp="0x178482405d6" d="M257.068 178.406 l0.337 0.239 0.164 0.049 0.061 -0.072 0.701 -2.063 0.168 -0.64 2.472 -11.722 0 0 0.918 -7.518 0 0 -0.19 -2.464 0 0 -1.54 0.166 0.392 3.305 1.299 3.699 1.618 2.366 2.169 1.257 2.26 0.168 2.916 -0.972 2.525 -1.763 1.926 -2.29 0 0 1.473 -3.008 0 0 0.518 -2.57 0 0 -1.559 -0.127 0.325 9.908 1.101 7.977 1.097 3.765 1.202 1.347 0.337 0.111 2.121 0.457 0.055 -0.108 -1.612 -1.453 -0.02 -0.072 -0.639 -1.019 -0.973 -3.362 -1.075 -7.779 -0.347 -9.825 -1.559 -0.127 0 0 -0.469 2.372 0 0 -1.301 2.65 0 0 -1.674 1.976 -2.173 1.502 -2.396 0.794 -1.576 -0.118 -1.539 -0.891 -1.297 -1.893 -1.179 -3.337 -0.412 -3.13 -1.54 0.166 0 0 0.242 2.304 0 0 -0.832 7.316 0 0 -2.203 11.704 -0.115 0.617 -0.393 2.086 -0.066 0.279 0.177 0.101 0.516 -0.176" />
    <path class="write-flat-pen" fill="#FFFFFF" stroke-width="1.6" __comx="291.627" __comy="163.747" __timestamp="0x17848240899" d="M290.699 142.863 l0.114 -0.971 -0.079 -0.273 -1.079 -0.398 -0.408 0.194 -1.504 1.397 -1.211 2.783 -0.318 3.145 0.578 2.691 1.571 2.833 1.615 1.571 2.301 1.044 1.872 0.042 1.799 -0.851 1.09 -1.529 -0.383 -2.033 -0.278 -0.244 -1.74 -1.256 -0.058 0.052 1.078 1.855 -0.015 0.047 -0.031 1.195 -0.6 0.771 -1.169 0.534 -1.236 -0.031 -1.802 -0.815 -1.289 -1.24 -1.376 -2.456 -0.505 -2.267 0.228 -2.728 0.938 -2.412 1.084 -1.238 -0.082 0.022 0.397 -0.086 -0.054 -0.195 0.214 0.866" />
    <path class="write-flat-pen" fill="#FFFFFF" stroke-width="1.6" __comx="293.427" __comy="163.747" __timestamp="0x17848240962" d="M287.983 150.215 l1.17 0.38 0.325 0.055 6.202 -0.416 3.19 -1.109 -0.042 -0.192 -3.284 0.314 -6.035 0.294 -0.199 -0.004 -1.192 -0.053" />
    <path class="write-flat-pen" fill="#FFFFFF" stroke-width="1.6" __comx="519.902" __comy="167.02" __timestamp="0x178482410e6" d="M516.128 178.652 l0.349 0.18 0.182 -0.482 0.033 -0.192 0.184 -1.995 0.036 -0.5 -0.411 -8.112 -0.099 -0.666 -2.203 -9.464 -0.174 -2.56 0.669 -1.793 1.025 -0.984 1.703 -0.657 2.061 -0.018 2.303 0.715 2.973 2.258 2.483 2.169 0.147 -0.114 -1.6 -3.075 -3.243 -2.676 -2.827 -0.877 -2.602 0.023 -2.274 0.879 -1.518 1.461 -0.913 2.458 0.216 3.034 2.331 9.509 0.092 0.546 0.751 7.973 0.012 0.454 0.137 2 0.023 0.187 0.153 0.491 0.349 -0.17" />
    <path class="write-flat-pen" fill="#FFFFFF" stroke-width="1.6" __comx="516.16" __comy="167.02" __timestamp="0x1784824121d" d="M508.79 166.31 l2.086 -0.255 0.336 -0.012 8.959 -0.314 3.479 -0.451 -0.003 -0.145 -3.499 -0.284 -8.988 0.228 -0.413 0.048 -2.076 0.584" />
    <path class="write-flat-pen" fill="#FFFFFF" stroke-width="1.6" __comx="536.541" __comy="167.02" __timestamp="0x178482413a2" d="M536.933 180.299 l0.012 -2.613 0.076 -2.605 -0.075 -0.012 -0.737 2.548 -0.148 2.655" />
    <path class="write-flat-pen" fill="#FFFFFF" stroke-width="1.6" __comx="536.741" __comy="167.02" __timestamp="0x17848241437" d="M537.172 157.417 l-0.342 -1.433 -0.478 0.473 1.011 -0.051 0.035 -0.125 -0.837 -0.568 -0.478 0.473 0.425 1.411" />
    <path class="write-flat-pen" fill="#FFFFFF" stroke-width="1.6" __comx="571.441" __comy="168.344" __timestamp="0x17848241c9e" d="M560.317 178.397 l-0.901 0.548 0.4 0.212 0.284 -1.282 0.167 -0.487 8.032 -18.99 0.929 -3.467 -0.708 -1.6 -1.656 0.483 -0.574 2.35 0.566 3.586 1.466 3.917 3.41 6.12 3.791 5.198 2.225 2.03 2.602 1.097 0.456 -0.005 3.074 -0.143 0.021 -0.175 -2.955 -0.858 -0.231 -0.087 -2.093 -1.126 -1.922 -1.782 -3.631 -5.003 -3.306 -5.934 -1.384 -3.655 -0.525 -3.125 0.268 -1.223 -0.406 0.104 -0.004 -0.044 -0.754 2.888 -7.775 19.06 -0.171 0.658 -0.034 1.917 0.518 0.282 1.08 -1.164" />
    <path class="write-flat-pen" fill="#FFFFFF" stroke-width="1.6" __comx="571.388" __comy="168.344" __timestamp="0x17848241de8" d="M564.575 168.006 l1.329 0.775 0.46 0.126 8.475 0.103 3.361 -0.538 -0.015 -0.228 -3.365 -0.093 -8.329 -0.266 -0.271 -0.042 -1.37 -0.447" />
    <path class="write-flat-pen" fill="#FFFFFF" stroke-width="1.6" __comx="626.173" __comy="168.324" __timestamp="0x178482429fa" d="M614.225 168.543 l0.629 0.494 0.42 0.084 11.852 -0.195 6.706 0.229 1.003 0.037 3.274 0.129 0.013 -0.106 -3.214 -0.636 -1.004 -0.199 -6.755 -0.647 -11.828 0.488 -0.219 0.001 -0.651 -0.135" />
    <path class="write-flat-pen" fill="#FFFFFF" stroke-width="1.6" __comx="640.761" __comy="165.558" __timestamp="0x17848242c42" d="M638.848 167.589 l-1.402 -1.615 -0.064 -0.119 -1.235 -2.675 0 0 -0.082 -0.15 0 0 -0.139 -0.324 0 0 -1.042 0.85 2.525 2.376 2.947 1.64 4.518 1.168 0.224 0.206 -1.21 6.132 0.913 2.507 0.157 -0.022 0.223 -2.437 1.583 -6.717 -1.156 -1.038 -4.692 -1.209 -2.637 -1.449 -2.483 -2.165 -1.042 0.85 0 0 0.226 0.292 0 0 0.085 0.116 0 0 1.531 2.524 0.165 0.216 1.697 1.438" />
    <path class="write-flat-pen" fill="#FFFFFF" stroke-width="1.6" __comx="673.086" __comy="165.068" __timestamp="0x17848242f6f" d="M659.662 174.033 l-0.332 0.986 0.059 0.13 0 0 0.519 -0.113 0.342 -0.636 0.079 -0.279 0.789 -3.684 0.107 -0.52 0 0 1.888 -11.884 0 0 0.43 -0.668 0 0 -1.442 -0.309 0.648 4.823 1.087 3.026 1.664 2.007 2.238 0.787 2.67 -0.544 2.605 -1.854 3.071 -3.76 0 0 3.051 -6.122 0 0 -1.49 -0.187 2.79 12.968 1.917 5.911 1.854 2.647 2.561 2.441 0.075 -0.056 -1.593 -3.102 -1.452 -2.605 -1.815 -5.651 -2.781 -12.888 -1.49 -0.187 0 0 -2.968 5.965 0 0 -2.825 3.454 -2.158 1.531 -1.908 0.389 -1.407 -0.494 -1.207 -1.451 -0.941 -2.605 -0.641 -4.655 -1.442 -0.309 0 0 -0.58 0.952 0 0 -1.726 12.21 0 0 -0.082 0.512 -0.46 3.74 -0.018 0.243 -0.016 0.686 0.519 -0.113 0 0 0.04 0.107 0.002 -0.798" />
    <path class="write-flat-pen" fill="#FFFFFF" stroke-width="1.6" __comx="174.36" __comy="287.015" __timestamp="0x178482438e2" d="M162.502 273.046 l-0.588 1.267 -0.028 0.446 0.033 11.239 0.024 1.314 0.305 7.628 0.804 3.563 1.187 0.782 1.626 -0.59 1.754 -2.477 3.933 -10.372 0 0 0.712 -0.785 0 0 -1.255 -0.242 2.441 6.473 2.093 3.643 1.876 1.853 2.105 0.77 2.166 -0.558 2.07 -1.902 1.491 -2.715 1.141 -4.337 0.44 -5.077 -0.317 -4.709 -0.924 -3.125 -1.46 -2.155 -2.021 -1.396 -1.99 -0.037 -1.47 1.186 -0.93 3.13 0.04 0.808 0.115 0.692 0.495 2.972 0.165 -0.007 0.25 -3.003 0.06 -0.657 0.089 -0.573 1.038 -2.414 0.689 -0.523 0.934 0.017 1.377 0.951 1.152 1.701 0.804 2.718 0.297 4.41 -0.417 4.818 -1.055 4.015 -1.269 2.315 -1.582 1.461 -1.306 0.344 -1.331 -0.473 -1.5 -1.451 -1.948 -3.341 -2.408 -6.353 -1.255 -0.242 0 0 -0.916 0.992 0 0 -3.959 10.469 -1.37 1.944 -0.486 0.185 -0.074 -0.042 -0.672 -2.852 -0.401 -7.481 -0.048 -1.294 -0.375 -11.208 -0.013 -0.287 0.246 -1.232" />
    <path class="write-flat-pen" fill="#FFFFFF" stroke-width="1.6" __comx="194.981" __comy="287.015" __timestamp="0x17848243a9f" d="M187.648 288.675 l2.096 0.975 0.457 0.007 1.82 -0.35 2.093 -1.326 1.534 -1.873 0.915 -2.513 -0.215 -1.59 -1.314 -1.034 -1.97 0.373 -2.041 1.444 -1.721 2.439 -1.113 3.524 -0.088 2.525 0.817 2.253 1.689 1.591 2.474 0.612 3 -0.647 3.601 -2.278 0.331 -0.342 2.305 -2.429 -0.084 -0.103 -2.841 1.773 -0.334 0.201 -3.492 1.844 -2.461 0.512 -1.792 -0.441 -1.175 -1.098 -0.621 -1.675 0.056 -2.063 0.974 -3.144 1.456 -2.081 1.605 -1.159 1.099 -0.233 0.455 0.331 0.127 0.771 -0.696 2.052 -1.249 1.616 -1.733 1.202 -1.517 0.397 -0.189 0.017 -2.051 -0.611" />
    <path class="write-flat-pen" fill="#FFFFFF" stroke-width="1.6" __comx="204.123" __comy="287.015" __timestamp="0x17848243bc4" d="M200.361 271.965 l0.978 4.546 0.186 0.928 2.148 10.372 2.381 7.642 1.715 1.878 0.115 -0.07 -0.815 -2.26 -2.118 -7.516 -2.278 -10.292 -0.216 -0.943 -1.301 -4.486" />
    <path class="write-flat-pen" fill="#FFFFFF" stroke-width="1.6" __comx="212.212" __comy="287.015" __timestamp="0x17848243c99" d="M208.353 273.596 l0.442 3.106 0.144 0.774 4.931 17.024 2.021 2.815 0.182 -0.098 -1.18 -3.134 -4.782 -16.9 -0.172 -0.716 -0.763 -3.035" />
    <path class="write-flat-pen" fill="#FFFFFF" stroke-width="1.6" __comx="223.895" __comy="287.015" __timestamp="0x17848243d97" d="M219.166 288.984 l6.297 0.488 3.156 -0.187 0.004 -0.122 -3.114 -0.384 -6.244 -0.779" />
    <path class="write-flat-pen" fill="#FFFFFF" stroke-width="1.6" __comx="256.539" __comy="287.015" __timestamp="0x17848244139" d="M245.335 268.204 l-0.286 0.678 0.059 0.386 0.993 4.186 0.243 0.923 0 0 3.213 11.878 0 0 0.706 4.6 0 0 1.042 -0.789 -5.169 -2.42 -3.1 -0.714 -1.563 0.621 -1.155 1.565 -0.291 2.155 0.895 3.019 1.598 2.351 2.692 2.329 2.343 1.073 2.802 0.362 2.932 -0.514 3.733 -1.738 2.894 -2.417 1.857 -2.53 1.254 -3.275 0.165 -2.686 -0.774 -1.918 -1.296 -1.079 -1.74 -0.206 -1.83 1.181 -1.357 2.377 -0.767 3.539 0.198 2.971 0.927 2.385 1.702 1.802 1.918 0.866 2.478 0.093 6.606 -2.673 0.58 -0.381 0.483 -0.362 2.728 -2.041 -0.078 -0.135 -3.132 1.34 -0.545 0.23 -0.547 0.236 -6.351 2.208 -1.853 -0.077 -1.352 -0.616 -1.275 -1.352 -0.728 -1.871 -0.17 -2.507 0.666 -3.085 1.047 -1.831 1.031 -0.664 0.712 0.084 0.63 0.527 0.488 1.219 -0.13 2.087 -1.091 2.85 -1.614 2.207 -2.584 2.168 -3.357 1.569 -2.494 0.441 -2.335 -0.295 -1.933 -0.874 -2.385 -2.042 -1.36 -1.984 -0.743 -2.48 0.196 -1.45 0.67 -0.906 0.724 -0.286 2.486 0.575 5.039 2.323 1.042 -0.789 0 0 -0.784 -4.668 0 0 -3.434 -11.902 0 0 -0.277 -0.913 -1.302 -4.078 -0.077 -0.197 -0.062 -0.577" />
    <path class="write-flat-pen" fill="#FFFFFF" stroke-width="1.6" __comx="278.82" __comy="287.015" __timestamp="0x178482442a8" d="M275.369 296.847 l-0.272 1.499 0.527 0.514 0.467 -0.022 0.42 -4.684 -0.014 -0.875 -0.517 -5.676 -3.144 -11.617 -0.129 -2.298 0.613 -1.353 1.388 -1.245 2.303 -0.819 2.005 -0.002 3.535 1.196 0.388 0.195 0.443 0.24 2.959 1.635 0.133 -0.186 -2.511 -2.264 -0.394 -0.356 -0.467 -0.355 -3.807 -1.602 -2.541 -0.02 -2.838 1.002 -1.853 1.66 -0.895 1.989 0.173 2.827 3.202 11.637 0.581 5.497 0.032 0.772 -0.027 3.776 0.407 -0.016 0.527 0.514 -0.067 -1.522" />
    <path class="write-flat-pen" fill="#FFFFFF" stroke-width="1.6" __comx="277.148" __comy="287.015" __timestamp="0x1784824437e" d="M270.602 288.268 l-0.291 -0.799 0.597 -0.821 1.876 -0.968 3.164 -0.66 4.086 -0.037 0.626 0.033 1.269 0.088 3.347 0.21 0.007 -0.038 -3.223 -0.922 -1.242 -0.353 -0.693 -0.147 -4.307 -0.253 -3.523 0.754 -2.318 1.315 -0.964 1.735 0.716 1.284" />
    <path class="write-flat-pen" fill="#FFFFFF" stroke-width="1.6" __comx="290.741" __comy="287.015" __timestamp="0x17848244450" d="M290.045 287.365 l-0.563 2.807 -0.087 0.692 -0.309 5.883 0.525 2.632 1.31 0.697 0.949 -1.512 0.156 -0.749 0.094 -0.816 0.277 -2.42 -0.078 -0.018 -0.826 2.292 -0.271 0.743 -0.241 0.514 -0.414 0.309 0.231 0.094 -0.391 -1.873 0.104 -5.704 0.031 -0.639 0.235 -2.825" />
    <path class="write-flat-pen" fill="#FFFFFF" stroke-width="1.6" __comx="292.945" __comy="287.015" __timestamp="0x178482444f9" d="M292.349 276.368 l-0.945 2.346 -0.086 0.468 0.018 3.189 1.13 2.886 0.265 0.419 1.766 2.769 0.075 -0.039 -1.239 -3.042 -0.162 -0.406 -0.778 -2.766 -0.049 -2.934 0.038 -0.308 0.598 -2.376" />
    <path class="write-flat-pen" fill="#FFFFFF" stroke-width="1.6" __comx="305.27" __comy="287.015" __timestamp="0x17848244629" d="M299.569 295.735 l-0.379 1.371 -0.044 0.058 -0.003 0.012 0.923 0.114 0.156 -1.026 0.051 -0.43 0.736 -5.174 1.083 -3.273 1.532 -2.51 1.359 -1.068 0.973 -0.173 1.077 0.47 1.207 1.536 0.968 2.58 0.975 7.587 0.732 3.387 0.135 -0.004 0.544 -3.487 -0.87 -7.852 -1.115 -2.982 -1.6 -2.032 -1.865 -0.81 -1.816 0.324 -1.881 1.484 -1.756 2.91 -1.136 3.59 -0.59 5.367 -0.019 0.521 0.181 1.076 0.923 0.114 -0.003 0.012 0.007 -0.138 0.077 -1.464" />
    <path class="write-flat-pen" fill="#FFFFFF" stroke-width="1.6" __comx="322.107" __comy="287.015" __timestamp="0x17848244825" d="M316.89 288.603 l0.171 0.839 0.16 0.178 1.488 0.748 0.42 0.052 2.017 -0.327 2.247 -1.344 1.449 -2.043 0.365 -2.042 -0.713 -1.504 -1.682 -0.807 -2.038 0.302 -1.867 1.489 -1.318 2.813 -0.565 3.621 0.447 2.618 1.306 2.312 1.664 1.235 3.658 -0.074 0.579 -0.333 0.42 -0.351 2.229 -1.882 -0.073 -0.117 -2.671 1.171 -0.444 0.188 -0.306 0.085 -2.88 -0.18 -1.008 -0.768 -1.024 -1.805 -0.373 -2.116 0.469 -3.176 1.065 -2.324 1.292 -1.047 1.227 -0.196 0.856 0.39 0.329 0.656 -0.209 1.326 -1.078 1.624 -1.786 1.194 -1.642 0.425 -0.147 0.007 -1.363 -0.355 -0.01 0.018 -0.438 -0.594" />
    <path class="write-flat-pen" fill="#FFFFFF" stroke-width="1.6" __comx="338.492" __comy="287.015" __timestamp="0x178482449fa" d="M334.456 269.893 l0.389 1.475 0.09 0.277 3.059 9.027 0.299 0.919 3.176 9.224 0.231 -0.214 -4.067 -0.918 -2.786 -0.014 -1.907 0.891 -1.467 1.827 -0.602 2.219 0.43 1.904 1.359 1.609 2.587 1.151 3.21 0.007 4.911 -1.788 0.365 -0.329 2.374 -2.251 -0.102 -0.148 -2.945 1.425 -0.284 0.119 -4.578 1.381 -2.622 0.007 -1.976 -0.85 -0.925 -1.039 -0.314 -1.19 0.369 -1.614 1.044 -1.408 1.354 -0.68 2.354 0.005 4.711 1.214 0.911 -1.007 -3.486 -9.983 -0.311 -0.923 -3.395 -8.943 -0.128 -0.272 -0.68 -1.356" />
    <path class="write-flat-pen" fill="#FFFFFF" stroke-width="1.6" __comx="400.402" __comy="288.468" __timestamp="0x17848245276" d="M401.101 280.555 l2.016 -1.091 0.123 -0.084 1.317 -1.56 0.073 -0.292 -0.287 -1.482 -1.389 -0.765 -2.341 0.264 -3.075 1.406 -2.821 2.387 -2.067 2.939 -1.22 3.221 -0.427 3.35 0.465 3.332 1.285 2.979 1.601 1.797 2.757 1.431 2.63 0.395 3.426 -0.615 2.809 -1.364 2.661 -2.262 1.165 -2.666 -0.048 -0.492 -0.39 -2.798 -0.105 -0.003 -0.557 2.77 -0.069 0.228 -1.19 2.019 -2.302 1.918 -2.449 1.189 -2.973 0.538 -2.135 -0.314 -2.29 -1.182 -1.257 -1.407 -1.113 -2.569 -0.413 -2.934 0.372 -2.98 1.081 -2.888 1.842 -2.643 2.515 -2.16 2.686 -1.277 1.723 -0.272 0.611 0.24 0.278 0.688 0.036 -0.128 -0.871 1.521 -0.018 0.023 -1.809 1.365" />
    <path class="write-flat-pen" fill="#FFFFFF" stroke-width="1.6" __comx="405.883" __comy="288.468" __timestamp="0x1784824535d" d="M398.427 288.235 l1.395 0.965 0.571 0.119 9.642 -1.367 3.303 -1.004 -0.021 -0.114 -3.423 0.209 -9.475 1.081 -0.214 -0.016 -1.392 -0.573" />
    <path class="write-flat-pen" fill="#FFFFFF" stroke-width="1.6" __comx="420.84" __comy="288.468" __timestamp="0x17848245443" d="M416.005 287.846 l1.823 0.096 0.354 0.007 4.244 -0.118 3.274 -0.323 0.001 -0.16 -3.276 -0.349 -4.257 -0.046 -0.369 0.023 -1.818 0.244" />
    <path class="write-flat-pen" fill="#FFFFFF" stroke-width="1.6" __comx="448.067" __comy="288.468" __timestamp="0x1784824575f" d="M434.667 284.596 l-0.241 1.695 -0.033 0.47 0.093 5.511 0.029 0.683 0.167 4.377 0 0 0.732 0.483 0 0 1.053 -0.343 4.636 -10.839 0.948 -1.276 0.003 0.001 0.719 1.267 1.457 7.885 0.696 1.053 0 0 1.107 0.219 1.167 -0.783 3.557 -7.871 1.152 -1.51 0.195 -0.038 0.444 0.34 1.963 6.266 2.303 2.407 0.571 0.226 1.414 0.167 2.932 -0.005 0.008 -0.059 -2.788 -0.755 -1.17 -0.452 -0.189 -0.144 -1.72 -2.151 -2.006 -6.418 -1.36 -1.049 -1.454 0.247 -1.649 2.117 -3.47 7.614 -0.79 0.535 1.107 0.219 0 0 -0.524 -0.782 -1.499 -7.81 -1.182 -2.068 -1.622 -0.371 -1.657 2.214 -4.652 11.032 1.053 -0.343 0 0 -0.138 -0.039 0 0 -0.287 -3.636 -0.059 -0.676 -0.428 -5.456 -0.016 -0.429 -0.075 -1.698" />
    <path class="write-flat-pen" fill="#FFFFFF" stroke-width="1.6" __comx="465" __comy="288.468" __timestamp="0x178482458b2" d="M467.681 291.522 l-0.29 -0.978 -0.089 -0.182 -0.806 -1.272 -0.262 -0.305 -1.98 -1.317 -1.678 -0.121 -1.674 0.916 -1.304 2.274 -0.265 2.355 0.68 2.666 1.217 1.865 1.956 1.418 2.172 0.339 2.148 -0.584 1.695 -1.371 1.205 -2.197 0.264 -2.293 -0.754 -2.391 -2.663 -2.459 -0.412 0.074 -1.467 0.663 0.007 0.094 1.544 0.454 -0.175 0.058 1.76 1.969 0.537 1.695 -0.185 1.648 -0.899 1.657 -1.192 0.976 -1.508 0.422 -1.483 -0.216 -1.44 -1.021 -0.939 -1.415 -0.568 -2.159 0.185 -1.79 0.925 -1.692 0.959 -0.578 0.964 0.01 1.689 0.9 0.161 0.136 1 1.013 0.091 0.094 0.585 0.788" />
    <path class="write-flat-pen" fill="#FFFFFF" stroke-width="1.6" __comx="482.681" __comy="288.468" __timestamp="0x17848245a7e" d="M483.073 276.368 l-1.023 0.097 -0.137 0.594 -0.407 5.121 0.522 5.202 1.352 5.504 1.295 2.809 0 0 0.851 0.422 0 0 1.025 -0.518 0.187 -1.214 -0.997 -1.697 -1.949 -1.303 -2.584 -0.659 -2.076 0.386 -1.737 1.241 -0.861 1.705 0.236 1.996 1.541 1.942 2.571 1.271 4.196 0.306 0.488 -0.109 3.265 -0.777 -0.017 -0.187 -3.353 -0.158 -0.378 -0.028 -3.782 -0.509 -2.042 -0.995 -1.114 -1.345 -0.18 -1.172 0.488 -1.051 1.209 -0.904 1.503 -0.29 2.081 0.547 1.486 1.03 0.557 1.017 -0.145 0.715 1.025 -0.518 0 0 -0.397 -0.204 0 0 -1.03 -2.227 -1.316 -5.273 -0.57 -4.991 0.141 -4.952 -0.045 0.119 0.304 -0.244" />
    <path class="write-flat-pen" fill="#FFFFFF" stroke-width="1.6" __comx="534.203" __comy="288.468" __timestamp="0x17848245f52" d="M514.258 286.182 l-0.185 2.493 0.053 0.521 1.319 6.59 0.097 0.478 0.642 2.66 1.646 0.434 3.193 -10.958 1.147 -2.418 0.117 -0.05 0.436 0.301 2.738 9.157 1.171 1.583 1.609 -0.191 1.931 -2.424 3.434 -7.15 1.454 -1.863 0.098 -0.017 0.357 0.352 1.122 6.518 0.968 2.071 1.584 1.12 2.066 0.216 2.376 -0.713 2.484 -1.538 1.412 -1.696 0.844 -2.294 -0.126 -2.247 -0.96 -1.603 -1.759 -0.883 -1.892 0.322 -1.77 1.701 -1.108 2.777 -0.195 2.548 0.749 3.07 1.272 1.956 1.987 1.317 2.603 0.279 2.128 -0.674 2.271 -1.753 1.562 -2.304 1.112 -3.115 0.087 -2.481 -0.754 -1.934 -1.524 -1.104 -1.675 0.683 -0.263 0.366 -0.12 0.272 -0.85 2.026 0.068 0.047 1.596 -1.51 0.173 -0.153 0.067 -0.006 0.712 -0.058 0.501 0.427 0.458 1.215 -0.067 1.907 -0.96 2.69 -1.304 1.924 -1.844 1.424 -1.538 0.487 -1.882 -0.201 -1.387 -0.918 -0.945 -1.45 -0.629 -2.56 0.149 -2.056 0.882 -2.245 1.173 -1.153 0.938 -0.183 0.966 0.434 0.626 0.922 0.194 1.644 -0.567 1.904 -1.105 1.459 -2.206 1.368 -2.035 0.51 -1.479 -0.286 -0.941 -0.806 -0.652 -1.601 -1.127 -6.835 -1.258 -1.255 -1.507 0.19 -1.976 2.5 -3.432 7.146 -1.409 1.769 -0.034 0.004 -0.454 -0.612 -2.832 -9.418 -1.604 -1.106 -1.476 0.614 -1.462 3.084 -2.763 9.7 0.599 0.179 -0.506 -1.772 -0.11 -0.454 -1.652 -6.475 -0.076 -0.404 -0.144 -2.426" />
    <path class="write-flat-pen" fill="#FFFFFF" stroke-width="1.6" __comx="565.03" __comy="288.468" __timestamp="0x17848246064" d="M560.676 297.521 l-0.319 -0.908 -0.026 -0.156 -0.362 -3.503 0.033 -0.396 0.575 -2.772 0.998 -2.006 1.323 -1.29 2.091 -0.886 2.535 -0.209 0.307 -0.001 0.437 0.033 3.208 0.271 0.012 -0.055 -3.014 -1.132 -0.45 -0.167 -0.428 -0.107 -2.912 -0.118 -2.655 1.047 -1.732 1.692 -1.173 2.446 -0.538 3.085 -0.02 0.637 0.736 3.68 0.132 0.316 0.658 0.828" />
    <path class="write-flat-pen" fill="#FFFFFF" stroke-width="1.6" __comx="579.085" __comy="288.468" __timestamp="0x1784824627e" d="M575.558 309.22 l-0.466 1.789 -0.075 0.073 0.468 -0.075 -0.294 -0.476 -0.035 -0.238 -0.399 -5.982 0.01 -0.897 0.561 -8.298 0.92 -5.182 1.067 -2.723 1.07 -0.958 0.968 -0.177 1.548 0.441 1.431 1.149 0.865 1.606 0.041 1.358 -0.678 1.434 -1.359 1.194 -2.255 0.953 -2.177 0.264 -1.246 -0.32 -0.067 0.045 -1.066 -1.317 -0.076 0.03 0.143 1.688 0.12 0.509 1.993 0.943 2.779 -0.34 2.678 -1.148 1.772 -1.576 0.95 -2.052 -0.079 -2.065 -1.176 -2.173 -1.897 -1.525 -2.169 -0.617 -1.718 0.317 -1.642 1.473 -1.238 3.192 -0.931 5.409 -0.473 8.427 0.015 1 0.742 6.098 0.189 0.569 0.709 0.42 0.468 -0.075 0.073 -0.185 0.194 -1.936" />
    <path class="write-flat-pen" fill="#FFFFFF" stroke-width="1.6" __comx="595.814" __comy="288.468" __timestamp="0x178482464be" d="M587.564 274.887 l0.087 -2.169 -0.119 0.311 0.154 0.227 0.082 0.166 2.309 6.273 0.277 0.928 0 0 3.145 14.313 0 0 1.568 -0.11 0.449 -5.616 0.745 -2.62 1.289 -2.19 1.081 -0.866 1.204 -0.2 0.998 0.436 1.04 1.238 0.897 2.404 0.652 6.3 0.48 1.376 0.099 0.006 0.655 -1.393 -0.382 -6.625 -1.072 -2.846 -1.44 -1.706 -1.73 -0.756 -2.037 0.326 -1.622 1.279 -1.55 2.597 -0.855 2.958 -0.487 5.768 1.568 -0.11 0 0 -3.314 -14.333 0 0 -0.331 -1.027 -2.697 -6.319 -0.371 -0.462 -1.169 -0.344 -0.197 0.487 0.259 2.313" />
    <path class="write-flat-pen" fill="#FFFFFF" stroke-width="1.6" __comx="611.076" __comy="288.468" __timestamp="0x1784824659a" d="M611.3 287.772 l-0.748 2.608 -0.126 0.554 -0.495 3.989 0.879 1.749 0.633 -0.341 0.779 -0.736 -0.037 -0.092 -1.071 0.006 0.268 -0.195 -0.091 -0.585 0.337 -3.611 0.08 -0.497 0.415 -2.667" />
    <path class="write-flat-pen" fill="#FFFFFF" stroke-width="1.6" __comx="613.89" __comy="288.468" __timestamp="0x1784824662e" d="M613.998 275.487 l-0.999 1.93 0.147 2.597 0.131 0.382 0.966 2.729 0.049 -0.012 -0.451 -2.86 -0.046 -0.318 0.174 -2.29 0.812 -1.775" />
    <path class="write-flat-pen" fill="#FFFFFF" stroke-width="1.6" __comx="622.764" __comy="288.468" __timestamp="0x178482467b0" d="M624.973 279.792 l-1.486 -0.862 -0.335 -0.04 -1.551 0.335 -1.11 1.387 0.084 1.559 5.445 4.937 1.505 2.086 0.413 1.48 -0.31 1.573 -1.149 1.401 -1.955 1.074 -3.051 0.663 -2.654 -0.219 -1.38 -0.786 -0.022 0.165 -0.046 -0.091 -0.44 -1.616 -0.076 -0.004 -0.595 1.565 -0.06 0.21 0.035 0.531 2.046 1.549 3.302 0.255 3.486 -0.806 2.368 -1.367 1.503 -1.929 0.385 -2.239 -0.591 -2.001 -1.734 -2.376 -5.182 -4.657 -0.054 -0.57 0.52 -0.736 0.951 -0.303 -0.02 -0.011 1.464 0.486" />
    <path class="write-flat-pen" fill="#FFFFFF" stroke-width="1.6" __comx="644.951" __comy="288.468" __timestamp="0x17848246a73" d="M634.263 280.03 l-0.399 1.194 -0.02 0.287 -0.01 3.006 0.013 0.61 0.302 7.693 0.015 0.382 0 0 0.163 1.603 0 0 1.482 0.191 3.987 -10.128 1.614 -2.805 0.544 -0.366 0.111 0.041 0.529 1.36 -0.162 9.455 0 0 0.423 1.171 0 0 1.445 0.127 4.755 -8.266 1.715 -2.082 0.891 -0.496 0.658 0.068 0.812 0.736 0.923 2.255 0.421 3.175 -0.261 5.349 0.18 3.646 0.419 0.035 0.791 -3.576 0.465 -5.507 -0.471 -3.536 -1.144 -2.772 -1.458 -1.316 -1.658 -0.178 -1.596 0.871 -2.004 2.411 -4.822 8.384 1.445 0.127 0 0 -0.324 -0.894 0 0 0.153 -9.476 -0.907 -2.301 -1.529 -0.584 -1.535 1.023 -1.865 3.227 -3.98 10.261 1.482 0.191 0 0 -0.206 -1.55 0 0 -0.023 -0.341 -0.651 -7.677 -0.06 -0.603 -0.335 -2.966 -0.022 -0.199 0.068 -1.188" />
    <path class="write-flat-pen" fill="#FFFFFF" stroke-width="1.6" __comx="663.048" __comy="288.468" __timestamp="0x17848246c1b" d="M657.752 267.965 l0.984 -1.513 0.104 -0.085 1.706 -1.031 2.449 -0.676 1.584 0.103 0.736 0.488 0.392 1.011 -0.368 1.758 -4.719 7.835 -1.253 3.323 0.168 1.96 1.016 1.465 3.151 1.133 0.83 -0.006 1.422 -0.152 3.071 -0.475 -0.003 -0.084 -3.079 -0.279 -1.364 -0.167 -0.577 -0.112 -2.42 -1.135 -0.493 -0.743 -0.104 -1.184 1.065 -2.86 4.667 -7.993 0.46 -2.423 -0.736 -1.798 -1.418 -0.912 -2.181 -0.112 -2.833 0.867 -1.887 1.323 -0.281 0.307 -0.769 1.808" />
    <path class="write-flat-pen" fill="#FFFFFF" stroke-width="1.6" __comx="670.372" __comy="288.468" __timestamp="0x17848246cda" d="M670.817 292.112 l-1.372 1.87 -0.072 0.156 -0.199 0.779 0.222 2.54 0.143 0.017 0.814 -2.319 0.193 -0.596 -0.004 0.001 1.028 -1.978" />
    <path class="write-flat-pen" fill="#FFFFFF" stroke-width="1.6" __comx="220.909" __comy="375.221" __timestamp="0x17848247555" d="M219.265 375.434 l1.093 -0.686 0.057 0.005 1.035 0.238 0.515 0.614 0.009 0.859 -0.599 0.844 -0.699 0.292 -0.381 -0.162 -0.091 -0.296 0.172 -0.26 -0.347 0.012 0.05 0.117 1.354 -0.089 -0.598 -1.004 -0.174 0.001 -0.588 1.01 1.354 -0.089 -0.138 -1.363 -1.696 -0.001 -0.908 1.517 0.562 1.496 1.491 0.512 1.477 -0.729 0.914 -1.513 -0.172 -1.6 -1.068 -1.011 -1.464 -0.176 -0.379 0.065 -1.049 1.073" />
    <path class="write-flat-pen" fill="#FFFFFF" stroke-width="1.6" __comx="264.571" __comy="378.045" __timestamp="0x17848248300" d="M261.37 390.03 l0.145 1.331 0.135 0.122 0.582 -0.258 0.291 -0.923 0.016 -0.446 -0.48 -8.733 -0.059 -0.655 -1.065 -7.347 -3.557 -10.535 -0.298 -2.078 0.423 -1.293 1.086 -1.106 1.955 -0.756 2.504 -0.121 2.924 0.635 2.081 1.064 1.607 1.531 2.3 4.287 1.545 3.073 0.194 -0.062 -0.55 -3.492 -2.182 -4.767 -1.977 -1.889 -2.474 -1.264 -3.334 -0.724 -2.973 0.144 -2.518 0.974 -1.591 1.62 -0.655 2.004 0.373 2.594 3.602 10.529 1.109 7.161 0.064 0.6 0.824 8.661 0.033 0.33 0.04 0.882 0.582 -0.258 0.063 0.072 -0.404 -0.99" />
    <path class="write-flat-pen" fill="#FFFFFF" stroke-width="1.6" __comx="261.292" __comy="378.045" __timestamp="0x17848248447" d="M251.48 376.349 l0.912 1.195 0.483 0.158 2.911 0.016 12.075 -3.667 3.244 -0.997 -0.035 -0.17 -3.405 0.375 -12.055 3.323 -2.614 0.166 -0.112 -0.01 -0.966 -0.798" />
    <path class="write-flat-pen" fill="#FFFFFF" stroke-width="1.6" __comx="287.935" __comy="378.045" __timestamp="0x17848248772" d="M287.918 363.712 l0.125 -0.787 -0.414 -0.168 -0.642 0.406 -0.237 0.281 -1.985 3.968 -0.267 0.892 -1.037 5.04 -0.242 5.737 0.604 4.529 1.152 3.535 2.878 3.67 0.589 0.399 1.189 0.632 2.962 1.367 0.057 -0.097 -2.604 -1.937 -1.009 -0.802 -0.377 -0.349 -2.413 -3.532 -1.009 -3.203 -0.563 -4.276 0.225 -5.498 0.948 -4.885 0.202 -0.747 1.594 -3.933 0.074 -0.167 0.088 -0.301 -0.316 -0.139 0.148 0.373" />
    <path class="write-flat-pen" fill="#FFFFFF" stroke-width="1.6" __comx="306.153" __comy="378.045" __timestamp="0x17848248a8d" d="M305.955 378.124 l0.619 -1.234 0.04 -0.097 0.407 -2.16 -0.182 -0.526 -0.98 -0.997 -2.244 0.026 -2.281 0.957 -2.453 2.027 -1.603 2.545 -0.748 2.536 0.135 3.157 0.93 2.204 1.858 1.764 2.169 0.588 2.268 -0.454 2.088 -1.288 1.669 -2.141 1.002 -2.72 0.006 -2.818 0 0 -1.271 0.46 5.62 6.457 2.684 2.133 0.084 -0.08 -1.948 -2.782 -5.337 -6.651 -1.271 0.46 0 0 -0.002 2.56 -0.852 2.259 -1.382 1.743 -1.641 1.005 -1.666 0.328 -1.469 -0.402 -1.362 -1.29 -0.711 -1.67 -0.126 -2.647 0.606 -2.116 1.352 -2.199 2.101 -1.782 1.847 -0.832 1.494 -0.122 0.523 0.397 0.041 0.046 -0.048 1.869 -0.002 0.026 -0.29 1.347" />
    <path class="write-flat-pen" fill="#FFFFFF" stroke-width="1.6" __comx="320.734" __comy="378.045" __timestamp="0x17848248b90" d="M317.684 382.722 l0.873 3.799 0.197 0.535 2.638 5.469 2.224 2.695 0.168 -0.107 -1.466 -3.097 -2.465 -5.428 -0.176 -0.437 -1.185 -3.654" />
    <path class="write-flat-pen" fill="#FFFFFF" stroke-width="1.6" __comx="337.774" __comy="378.045" __timestamp="0x17848248d3f" d="M330.563 379.298 l0.951 0.322 0.333 0.037 9.786 -1.218 3.352 -0.995 -0.013 -0.076 -3.468 0.199 -9.697 1.185 -0.211 0.018 -0.952 0.019" />
    <path class="write-flat-pen" fill="#FFFFFF" stroke-width="1.6" __comx="339.404" __comy="378.045" __timestamp="0x17848248e12" d="M336.454 371.316 l0.222 5.136 0.191 0.777 2.923 6.557 2.451 2.242 0.113 -0.099 -1.788 -2.629 -2.596 -6.445 -0.159 -0.592 -0.555 -5.011" />
    <path class="write-flat-pen" fill="#FFFFFF" stroke-width="1.6" __comx="363.708" __comy="378.045" __timestamp="0x17848248fcb" d="M364.574 373.502 l-0.109 0 0.013 0.005 -0.014 -0.004 -0.011 -0.003 -0.01 -0.002 -0.01 -0.002 -0.006 -0.002 -0.007 -0.002 -0.007 -0.002 -0.012 -0.004 -0.015 -0.006 -0.012 -0.005 -0.024 -0.011 -0.014 -0.006 -0.017 -0.008 -0.017 -0.009 -0.016 -0.008 -0.007 -0.003 -0.018 -0.01 -0.02 -0.01 -0.007 -0.004 -0.019 -0.01 -0.021 -0.01 -0.011 -0.005 -0.012 -0.005 -0.022 -0.008 -1.278 -0.462 -0.031 0.068 1.192 0.653 0.018 0.01 0.008 0.004 0.008 0.004 0.016 0.008 0.021 0.011 0.01 0.005 0.015 0.007 0.019 0.01 0.01 0.005 0.02 0.01 0.027 0.012 0.026 0.01 0.015 0.005 0.025 0.009 0.023 0.008 0.028 0.008 0.027 0.006 0.012 0.002 0.017 0.003 0.017 0.001 0.003 0 0.001 0 -0.002 -0.001 -0.007 -0.002 0.022 0.008 0.161 0" />
    <path class="write-flat-pen" fill="#FFFFFF" stroke-width="1.6" __comx="359.546" __comy="378.045" __timestamp="0x178482491f0" d="M361.667 372.024 l-0.699 -1.444 -0.045 -0.097 -1.234 -1.53 -0.391 -0.184 -1.995 -0.199 -2.57 0.8 -2.108 1.725 -1.433 2.309 -0.671 2.801 0.582 3.216 1.275 2.396 2.154 1.972 2.488 0.631 2.686 -0.659 2.245 -1.457 1.767 -2.177 0.986 -2.456 0.183 -2.443 -0.795 -1.543 -1.466 0.315 -0.712 2.144 0.316 3.163 1.292 3.663 1.811 1.967 0.355 0.163 2.826 1.177 0.058 -0.095 -2.328 -1.988 -0.144 -0.144 -1.322 -1.792 -1.128 -3.267 -0.278 -2.691 0.346 -1.098 -0.365 0.07 0.136 0.242 -0.138 1.838 -0.849 2.049 -1.519 1.813 -1.861 1.182 -2.093 0.496 -1.767 -0.456 -1.687 -1.549 -1.048 -1.964 -0.502 -2.683 0.52 -2.282 1.162 -1.93 1.699 -1.45 2.064 -0.741 1.572 0.009 0.026 -0.005 1.252 1.082 0.022 0.023 1.003 1.276" />
    <path class="write-flat-pen" fill="#FFFFFF" stroke-width="1.6" __comx="382.463" __comy="378.045" __timestamp="0x178482494db" d="M376.219 380.788 l-0.376 -1.446 0.021 -0.095 0.542 -1.709 0.974 -1.193 0.692 -0.226 0.578 0.219 0.79 1.266 0.326 2.23 -0.451 2.6 -2.426 4.813 0.073 1.741 2.083 0.475 6.842 -0.929 0.35 -0.05 0.349 -0.052 3.421 -0.493 0 -0.131 -3.421 -0.497 -0.36 -0.052 -0.427 -0.036 -6.67 0.633 -0.658 -0.138 -0.017 -0.145 2.258 -4.689 0.482 -3.041 -0.435 -2.736 -1.228 -1.885 -1.468 -0.494 -1.464 0.556 -1.26 1.74 -0.421 2.098 0.013 0.383 0.763 1.487" />
    <path class="write-flat-pen" fill="#FFFFFF" stroke-width="1.6" __comx="391.012" __comy="378.045" __timestamp="0x17848249628" d="M384.054 359.029 l1.723 2.252 0.437 0.585 3.435 5.342 3.382 7.033 2.033 5.772 1.472 6.511 0.423 4.56 -0.009 0.534 -0.098 3.376 0.15 0.021 0.818 -3.277 0.15 -0.616 -0.153 -4.78 -1.5 -6.691 -2.107 -5.904 -3.518 -7.135 -3.651 -5.348 -0.513 -0.608 -1.999 -2.04" />
    <path class="write-flat-pen" fill="#FFFFFF" stroke-width="1.6" __comx="426.284" __comy="378.045" __timestamp="0x17848249801" d="M419.274 370.755 l1.422 -0.811 0.246 -0.04 9.298 -1.332 3.414 -0.664 -0.011 -0.133 -3.499 -0.068 -9.381 1.22 -0.47 0.125 -1.38 1.199" />
    <path class="write-flat-pen" fill="#FFFFFF" stroke-width="1.6" __comx="429.004" __comy="378.045" __timestamp="0x178482498be" d="M421.832 376.549 l0.333 1.28 10.627 -0.917 3.383 -0.616 -0.027 -0.269 -3.429 0.066 -9.825 0.65 -0.228 -0.462" />
    <path class="write-flat-pen" fill="#FFFFFF" stroke-width="1.6" __comx="466.903" __comy="378.045" __timestamp="0x17848249af4" d="M464.96 389.899 l0.09 -1.851 0.005 -0.459 -0.184 -3.769 -0.075 -0.786 -0.968 -5.917 -3.874 -10.634 -0.706 -3.519 0.409 -1.805 1.363 -1.804 1.744 -1.204 2.977 -1.03 3.259 -0.302 2.405 0.501 1.591 0.886 1.157 1.398 0.817 2.43 0.062 0.402 0.017 1.352 -0.163 3.103 0.081 0.014 0.875 -3.014 0.273 -1.435 0.008 -0.611 -0.662 -2.904 -1.453 -1.91 -2.042 -1.184 -2.872 -0.613 -3.686 0.339 -3.357 1.17 -2.126 1.472 -1.709 2.282 -0.528 2.459 0.849 3.938 4.055 10.565 1.17 5.735 0.116 0.734 0.494 3.709 0.048 0.441 0.257 1.834" />
    <path class="write-flat-pen" fill="#FFFFFF" stroke-width="1.6" __comx="465.047" __comy="378.045" __timestamp="0x17848249bbf" d="M453.704 374.871 l-0.234 0.559 0.3 0.108 0.254 -0.007 6.414 -0.486 1.022 -0.078 11.039 -0.498 0.84 -0.035 3.372 -0.125 0.009 -0.161 -3.336 -0.504 -0.873 -0.132 -11.124 0.179 -1.066 0.097 -6.399 0.824 -0.277 0.057 -0.268 0.205 0.329 0.559" />
    <path class="write-flat-pen" fill="#FFFFFF" stroke-width="1.6" __comx="491.791" __comy="378.045" __timestamp="0x17848249db0" d="M493.231 363.659 l-1.411 -0.936 -0.182 -0.069 -1.387 0.115 -1.282 1.737 -0.739 3.674 -0.009 5.723 0.852 7.321 1.316 5.201 1.79 2.639 0.517 0.392 2.573 1.917 0.092 -0.099 -2.089 -2.435 -0.33 -0.398 -1.366 -2.511 -1.169 -4.946 -0.824 -7.161 -0.023 -5.521 0.565 -3.319 0.742 -1.237 0.689 -0.205 -0.078 -0.033 1.514 0.604" />
    <path class="write-flat-pen" fill="#FFFFFF" stroke-width="1.6" __comx="507.157" __comy="378.045" __timestamp="0x17848249fba" d="M509.613 374.623 l-0.563 -1.86 -1.284 -0.823 -2.458 0.041 -2.352 0.898 -2.125 1.817 -1.469 2.292 -0.902 2.905 0.098 2.459 1.077 2.221 1.803 1.171 2.116 0.039 2.879 -1.419 2.173 -2.033 1.617 -2.542 0 0 0.91 -2.971 0 0 -0.338 -0.927 0 0 -1.368 0.143 -0.364 2.334 0.635 3.628 1.262 2.62 1.923 1.692 2.915 1.479 0.057 -0.08 -2.282 -2.213 -1.444 -1.698 -1.035 -2.244 -0.563 -3.203 0.302 -2.105 -1.368 0.143 0 0 0.185 0.475 0 0 -0.72 2.328 0 0 -1.431 2.219 -1.893 1.759 -2.375 1.175 -1.359 -0.02 -1.129 -0.729 -0.78 -1.596 -0.086 -1.922 0.756 -2.501 1.248 -1.968 1.786 -1.542 1.911 -0.755 1.852 -0.087 0.651 0.345 0.653 1.384" />
    <path class="write-flat-pen" fill="#FFFFFF" stroke-width="1.6" __comx="520.395" __comy="378.045" __timestamp="0x1784824a092" d="M519.058 381.342 l0.062 3.224 0.063 0.443 0.785 3.036 1.674 2.617 0.091 -0.04 -0.784 -2.916 -0.719 -2.913 -0.065 -0.349 -0.401 -3.154" />
    <path class="write-flat-pen" fill="#FFFFFF" stroke-width="1.6" __comx="530.648" __comy="378.045" __timestamp="0x1784824a222" d="M524.74 363.887 l4.662 4.91 0.489 0.453 2.565 2.804 1.595 2.732 0.922 3.324 0.125 3.034 -0.565 3.094 -2.588 6.158 -0.452 0.864 -0.94 1.715 -1.607 2.867 0.103 0.071 2.111 -2.529 1.22 -1.568 0.593 -0.887 2.932 -6.264 0.652 -3.416 -0.137 -3.368 -1.026 -3.666 -1.782 -3.02 -2.737 -2.936 -0.516 -0.464 -4.884 -4.644" />
    <path class="write-flat-pen" fill="#FFFFFF" stroke-width="1.6" __comx="564.839" __comy="378.045" __timestamp="0x1784824a4ee" d="M557.529 378.609 l2.849 0.106 0.564 0.011 7.805 -0.92 3.414 -0.703 -0.014 -0.14 -3.489 -0.01 -7.772 0.768 -0.52 0.014 -2.851 0.224" />
    <path class="write-flat-pen" fill="#FFFFFF" stroke-width="1.6" __comx="566.933" __comy="378.045" __timestamp="0x1784824a5cc" d="M564.462 371.935 l0.365 2.769 0.207 0.576 2.896 8.267 1.361 3.101 0.112 -0.037 -0.726 -3.31 -2.644 -8.377 -0.204 -0.506 -0.686 -2.616" />
    <path class="write-flat-pen" fill="#FFFFFF" stroke-width="1.6" __comx="590.735" __comy="378.045" __timestamp="0x1784824a811" d="M584.484 386.184 l0.643 2.749 0.448 0.467 1.17 -0.436 0.227 -4.548 -0.622 -4.823 -2.177 -8.291 -0.502 -4.001 0.288 -2.939 0.772 -1.692 1.402 -1.328 1.971 -0.768 2.865 -0.116 2.714 0.573 1.62 0.887 2.497 3.726 0.165 0.439 0.306 0.939 1.007 3.149 0.106 -0.02 -0.238 -3.304 -0.104 -1.018 -0.128 -0.662 -2.507 -4.398 -2.161 -1.23 -3.141 -0.677 -3.332 0.132 -2.509 0.979 -1.854 1.757 -1.006 2.219 -0.318 3.379 0.552 4.276 2.225 8.289 0.674 4.606 0.039 3.701 0.201 0.012 0.189 0.215 -0.893 -2.416" />
    <path class="write-flat-pen" fill="#FFFFFF" stroke-width="1.6" __comx="588.388" __comy="378.045" __timestamp="0x1784824a907" d="M577.756 375.41 l2.1 -1.045 0.226 -0.041 4.774 -0.347 9.799 0.5 0.695 0.023 0.68 0.015 3.405 0.078 0.006 -0.049 -3.317 -0.773 -0.663 -0.155 -0.709 -0.152 -9.912 -0.854 -4.953 0.541 -0.471 0.127 -2.081 1.417" />
    <path class="write-flat-pen" fill="#FFFFFF" stroke-width="1.6" __comx="608.017" __comy="378.045" __timestamp="0x1784824aae7" d="M610.81 369.156 l-0.277 -0.983 -0.157 -0.226 -1.277 -0.596 -0.487 0.085 -1.7 1.09 -1.728 2.841 -1.137 3.969 -0.449 4.466 0.436 3.422 1.151 2.897 3.003 3.148 0.581 0.294 0.557 0.198 3.051 1.075 0.055 -0.113 -2.711 -1.765 -0.456 -0.302 -0.346 -0.267 -2.502 -3.025 -0.96 -2.503 -0.387 -3.079 0.404 -4.177 1.011 -3.684 1.4 -2.5 1.182 -0.949 -0.031 -0.014 0.889 0.135 -0.005 -0.038 0.538 0.765" />
    <path class="write-flat-pen" fill="#FFFFFF" stroke-width="1.6" __comx="619.48" __comy="378.045" __timestamp="0x1784824acd2" d="M622.171 377.676 l-1.617 -1.899 -0.375 -0.166 -2.23 -0.348 -2.188 0.538 -1.87 1.486 -1.203 2.366 -0.134 2.392 0.751 1.965 1.577 1.233 1.847 0.238 2.345 -0.855 1.872 -1.652 0 0 1.355 -2.24 -1.292 -0.149 1.689 5.192 1.169 1.461 2.473 1.909 0.069 -0.064 -1.675 -2.533 -0.75 -1.397 -1.615 -5.007 -1.292 -0.149 -1.234 2.054 0 0 -1.513 1.309 -1.76 0.619 -1.091 -0.151 -0.936 -0.732 -0.501 -1.287 0.083 -1.778 0.898 -1.835 1.375 -1.133 1.636 -0.449 1.827 0.186 0.007 -0.006 1.695 1.481" />
    <path class="write-flat-pen" fill="#FFFFFF" stroke-width="1.6" __comx="636.046" __comy="378.045" __timestamp="0x1784824ae77" d="M630.484 381.084 l-0.091 -1.071 0.024 -0.014 0.71 -0.903 1.212 -0.534 0.999 0.072 0.685 0.554 0.369 1.115 -0.254 2.012 -2.016 5.156 0.074 1.228 0.874 0.734 5.949 -0.765 0.328 -0.087 3.265 -0.85 -0.009 -0.098 -3.363 -0.275 -0.352 -0.028 -5.989 0.532 0.874 0.734 -0.064 -0.886 1.869 -5.049 0.236 -2.531 -0.68 -1.763 -1.345 -0.983 -1.705 -0.05 -1.717 0.895 -0.818 1.399 -0.068 0.391 0.454 1.197" />
    <path class="write-flat-pen" fill="#FFFFFF" stroke-width="1.6" __comx="646.911" __comy="378.045" __timestamp="0x1784824afa6" d="M641.691 367.651 l1.767 -0.152 1.895 0.885 1.97 1.933 1.925 3.098 1.205 3.895 0.234 3.25 -0.564 3.849 -1.149 3.186 -1.874 3.181 -0.338 0.462 -0.362 0.471 -2.071 2.662 0.117 0.117 2.665 -2.067 0.494 -0.383 0.515 -0.485 2.256 -3.261 1.306 -3.487 0.612 -4.186 -0.262 -3.607 -1.33 -4.264 -2.162 -3.42 -2.353 -2.207 -2.55 -0.997 -2.106 0.412" />
    <path class="write-flat-pen" fill="#FFFFFF" stroke-width="1.6" __comx="689.957" __comy="378.045" __timestamp="0x1784824b2b5" d="M692.332 375.422 l-0.229 -0.989 -0.089 -0.212 -0.915 -1.857 -0.239 -0.286 -1.629 -1.151 -2.003 -0.336 -2.212 0.854 -1.947 2.111 -1.287 2.808 -0.6 3.75 0.517 2.904 1.194 2.039 2.11 1.602 3.83 1.013 5.076 -0.488 0.892 -0.25 0.833 -0.302 3.097 -1.119 -0.036 -0.147 -3.262 0.454 -0.857 0.116 -0.82 0.1 -4.773 0.152 -3.289 -0.929 -1.621 -1.247 -0.898 -1.54 -0.426 -2.376 0.519 -3.287 1.089 -2.406 1.532 -1.709 1.518 -0.656 1.357 0.14 1.35 0.776 0.088 0.075 1.152 1.574 0.106 0.138 0.508 0.827" />
    <path class="write-flat-pen" fill="#FFFFFF" stroke-width="1.6" __comx="688.224" __comy="378.045" __timestamp="0x1784824b3a5" d="M683.283 377.699 l6.8 -0.106 3.084 -0.687 -0.017 -0.119 -3.111 0.179 -6.758 -0.087" />
    <path class="write-flat-pen" fill="#FFFFFF" stroke-width="1.6" __comx="720.209" __comy="378.045" __timestamp="0x1784824b6f0" d="M706.454 384.952 l-0.572 0.625 -0.058 0.043 0.004 -0.007 0.764 0.308 0.179 -0.152 0.091 -0.188 3.181 -8.741 0.339 -0.954 2.61 -8.356 0 0 1.122 -6.759 0 0 -1.576 -0.255 -0.424 2.666 0.633 4.575 1.228 3.833 1.5 2.353 1.701 1.266 2.351 0.458 2.504 -0.825 2.305 -1.988 2.295 -3.105 0 0 3.449 -7.743 0 0 0.429 -0.258 0 0 -1.211 -0.642 0.924 17.915 0.889 6.428 1.287 2.986 2.252 2.365 0.095 -0.063 -1.249 -2.862 -0.859 -2.806 -0.82 -6.196 -0.924 -17.849 -1.211 -0.642 0 0 -0.855 0.519 0 0 -3.584 8.038 0 0 -2.088 2.819 -1.928 1.663 -1.805 0.594 -1.583 -0.308 -1.173 -0.873 -1.23 -1.93 -1.123 -3.504 -0.582 -4.203 0.384 -2.432 -1.576 -0.255 0 0 -1.088 6.654 0 0 -2.537 8.235 -0.324 0.935 -2.858 8.872 -0.058 0.281 0.096 0.272 0.764 0.308 0.004 -0.007 0.012 -0.065 0.303 -0.802" />
    <path class="write-flat-pen" fill="#FFFFFF" stroke-width="1.6" __comx="222.972" __comy="433.946" __timestamp="0x1784824beb9" d="M223.958 434.008 l0.028 0.697 0 0.08 -0.122 1.754 0.001 -0.033 -0.661 0.569 -0.312 -0.04 -0.431 -0.587 -0.056 -1.08 0.539 -1.146 0.635 -0.422 -0.161 -0.05 -0.024 1.677 1.098 0.474 0.212 -0.653 -0.531 -0.471 -0.623 0.289 1.098 0.474 0.374 -2.774 -1.62 -0.633 -1.625 1.093 -0.859 1.866 0.139 1.902 1.171 1.418 1.511 -0.036 1.107 -1.201 0.164 -0.411 -0.214 -2.088 -0.064 -0.169 -0.343 -0.618" />
    <path class="write-flat-pen" fill="#FFFFFF" stroke-width="1.6" __comx="256.826" __comy="433.946" __timestamp="0x1784824c19c" d="M253.902 446.93 l-0.391 1.288 -0.013 0.051 0.551 -0.297 0.175 -0.098 0.027 0.126 -0.938 -8.953 -0.18 -1.001 -2.684 -13.678 -0.335 -4.313 0.377 -1.766 0.893 -1.338 1.308 -0.823 2.086 -0.457 2.899 0.206 2.72 0.838 1.816 1.342 1.103 2.021 0.578 4.399 0.175 3.179 0.054 0.007 1.02 -3.161 -0.282 -4.892 -1.411 -2.628 -2.322 -1.716 -3.155 -0.972 -3.312 -0.235 -2.585 0.567 -1.832 1.155 -1.249 1.877 -0.484 2.292 0.381 4.634 2.792 13.741 0.183 0.945 1.267 8.852 0.06 0.463 0.517 0.072 0.551 -0.297 -0.003 -0.035 0.051 -1.328" />
    <path class="write-flat-pen" fill="#FFFFFF" stroke-width="1.6" __comx="250.809" __comy="433.946" __timestamp="0x1784824c2ab" d="M241.19 433.643 l0.617 0.062 0.261 0.005 1.968 -0.177 0.764 -0.118 12.277 -1.564 3.413 -0.632 -0.015 -0.193 -3.488 -0.113 -12.372 1.302 -0.783 0.18 -1.892 0.462 -0.232 0.072 -0.579 0.207" />
    <path class="write-flat-pen" fill="#FFFFFF" stroke-width="1.6" __comx="281.832" __comy="433.946" __timestamp="0x1784824c539" d="M282.485 421.367 l-0.148 -1.141 -0.532 -0.067 -1.112 1.206 -0.26 0.416 -1.855 3.469 -1.353 4.295 -0.856 6.816 0.206 4.558 0.855 3.387 1.971 3.879 3.274 3.291 0.823 0.48 0.782 0.327 2.961 1.235 0.052 -0.098 -2.671 -1.777 -0.666 -0.447 -0.619 -0.495 -2.836 -3.282 -1.785 -3.592 -0.776 -3.109 -0.189 -4.304 0.811 -6.584 1.234 -4.087 1.663 -3.407 0.178 -0.347 0.546 -0.978 -0.453 -0.06 0.311 0.535" />
    <path class="write-flat-pen" fill="#FFFFFF" stroke-width="1.6" __comx="296.842" __comy="440.209" __timestamp="0x1784824c81c" d="M299.606 437.481 l0.132 -0.962 0.003 -0.272 -0.871 -1.821 -0.496 -0.261 -1.737 -0.05 -2.077 1.284 -1.658 2.405 -0.974 3.121 0.054 2.272 0.878 1.98 1.493 1.248 1.919 0.26 2.166 -0.984 1.337 -1.807 0.697 -2.4 -0.23 -1.897 -1.189 -1.314 -1.549 0.501 -0.555 1.872 3.245 12.029 0.857 5.457 -0.086 2.655 -0.811 2.606 -1.214 1.491 -1.442 0.81 -1.619 0.157 -1.364 -0.48 -1.155 -1.054 -0.657 -1.386 -0.055 -1.658 0.844 -2.239 2.003 -2.542 0.521 -0.524 1.184 -1.037 2.503 -2.129 -0.059 -0.086 -2.902 1.559 -1.408 0.816 -0.712 0.517 -2.461 2.621 -1.123 2.766 0.077 2.32 0.934 1.971 1.628 1.486 2.004 0.705 2.306 -0.224 2.001 -1.124 1.6 -1.967 0.965 -3.109 0.092 -3.023 -0.924 -5.685 -3.207 -11.685 0.201 -0.714 -0.109 0.027 0.242 0.254 0.143 1.137 -0.542 1.862 -0.96 1.29 -1.438 0.647 -1.08 -0.149 -0.907 -0.756 -0.625 -1.399 -0.049 -1.742 0.815 -2.696 1.342 -2.016 1.477 -0.996 1.08 -0.072 -0.052 -0.043 0.881 1.195 0.028 0.067 0.212 0.936" />
    <path class="write-flat-pen" fill="#FFFFFF" stroke-width="1.6" __comx="321.71" __comy="439.063" __timestamp="0x1784824d00a" d="M316.968 439.359 l3.283 -0.664 0.372 -0.18 2.078 -1.868 0.207 -0.392 0.41 -1.536 -0.486 -1.594 -1.358 -0.968 -2.515 -0.159 -2.819 0.856 -2.528 1.728 -1.918 2.23 -1.397 3.057 -0.362 2.346 0.438 2.631 1.205 2.25 2.115 1.82 2.106 0.605 2.408 -0.305 2.351 -1.173 2.402 -2.197 1.825 -2.838 0.969 -2.9 -0.027 -2.077 -0.78 -0.753 0 0 -1.015 0.022 -0.856 0.891 -0.294 2.277 0.642 2.939 1.577 3.224 2.368 2.721 2.395 1.093 0.625 0.053 3.075 0.219 0.019 -0.092 -2.918 -0.996 -0.448 -0.165 -1.878 -1.193 -2.027 -2.434 -1.414 -2.907 -0.549 -2.526 0.197 -1.56 0.523 -0.556 -1.015 0.022 0 0 0.353 0.337 0.016 1.237 -0.846 2.494 -1.643 2.515 -2.118 1.921 -1.945 0.963 -1.856 0.234 -1.502 -0.429 -1.667 -1.425 -0.973 -1.79 -0.37 -2.162 0.287 -1.92 1.22 -2.696 1.657 -1.943 2.191 -1.517 2.375 -0.756 1.917 0.06 0.767 0.472 0.364 0.882 -0.183 1.157 -0.062 0.167 -1.677 1.924 -0.214 0.138 -3.138 0.949" />
    <path class="write-flat-pen" fill="#FFFFFF" stroke-width="1.6" __comx="335.183" __comy="439.063" __timestamp="0x1784824d16a" d="M333.509 443.379 l-0.236 1.162 -0.015 0.296 0.169 2.618 0.096 0.532 1.576 5.762 1.842 2.82 0.167 -0.075 -0.862 -3.161 -1.588 -5.628 -0.117 -0.444 -0.489 -2.491 -0.035 -0.219 -0.085 -1.144" />
    <path class="write-flat-pen" fill="#FFFFFF" stroke-width="1.6" __comx="347.154" __comy="439.063" __timestamp="0x1784824d316" d="M338.307 419.146 l1.584 -0.292 0.263 0.003 5.268 0.898 0.617 0.238 2.717 1.555 2.568 2.649 1.636 2.814 1.13 3.42 0.605 5.223 -0.21 4.824 -1.949 7.627 -0.295 0.679 -0.3 0.66 -1.405 3.044 0.166 0.098 1.997 -2.693 0.448 -0.603 0.46 -0.761 2.303 -7.825 0.231 -5.1 -0.639 -5.485 -1.24 -3.698 -1.828 -3.076 -2.873 -2.858 -3.013 -1.613 -0.836 -0.289 -5.529 -0.601 -0.44 0.053 -1.575 0.641" />
    <path class="write-flat-pen" fill="#FFFFFF" stroke-width="1.6" __comx="382.831" __comy="439.063" __timestamp="0x1784824d52b" d="M376.485 430.783 l-0.252 0.51 0.766 0.164 0.354 0.016 8.7 -0.131 3.381 -0.318 0 -0.096 -3.383 -0.312 -8.71 -0.047 -0.356 0.032 -0.757 0.182 0.258 0.51" />
    <path class="write-flat-pen" fill="#FFFFFF" stroke-width="1.6" __comx="387.833" __comy="439.063" __timestamp="0x1784824d610" d="M380.955 435.821 l0.135 1.529 0.572 0.32 9.669 1.689 3.35 0.314 0.03 -0.158 -3.23 -0.947 -9.473 -1.895 -0.024 0.007 -0.369 -0.992" />
    <path class="write-flat-pen" fill="#FFFFFF" stroke-width="1.6" __comx="426.304" __comy="439.059" __timestamp="0x1784824da2c" d="M433.567 436.472 l-0.096 -1.923 -0.031 -0.261 -0.44 -1.443 -1.332 -1.082 -2.185 -0.136 -3.06 1.011 -2.755 1.758 -2.198 2.578 -1.126 2.933 -0.042 2.447 0.792 2.237 1.64 1.654 1.938 0.618 2.4 -0.378 3.117 -1.767 2.295 -2.257 1.722 -2.761 0.47 -2.361 -0.897 -1.064 -1.644 0.603 -1.309 1.718 -1.084 3.461 -0.041 15.833 -0.588 3.894 -1.303 3.118 -1.515 1.841 -1.676 1.113 -1.785 0.484 -1.548 -0.268 -1.223 -1.068 -0.509 -1.393 0.116 -1.609 1.197 -2.423 3.208 -2.877 0.811 -0.517 1.756 -1.012 2.837 -1.582 -0.063 -0.145 -3.093 1.021 -1.945 0.722 -1.005 0.492 -3.71 2.939 -1.548 2.944 -0.18 2.271 0.772 2.102 1.873 1.626 2.336 0.392 2.363 -0.662 2.066 -1.395 1.797 -2.197 1.456 -3.504 0.617 -4.194 -0.037 -15.729 0.915 -3.03 0.899 -1.219 0.373 -0.153 -0.126 -0.157 -0.293 1.488 -1.514 2.416 -2.059 2.02 -2.749 1.568 -1.848 0.295 -1.327 -0.424 -1.205 -1.209 -0.618 -1.731 0.028 -1.977 0.958 -2.509 1.921 -2.267 2.449 -1.586 2.678 -0.934 1.602 0.028 0.873 0.588 0.447 1.034 0.043 0.166 0.424 1.864" />
    <path class="write-flat-pen" fill="#FFFFFF" stroke-width="1.6" __comx="466.511" __comy="439.059" __timestamp="0x1784824dd2e" d="M464.586 448.968 l-0.491 0.583 0.226 -0.161 -0.18 -0.303 -0.028 -0.092 -1.356 -4.063 -0.197 -0.661 -4.032 -13.457 -0.996 -4.972 0.097 -1.929 0.683 -1.704 1.105 -1.038 2.544 -0.968 5.628 -0.781 4.496 0.068 1.718 0.654 1.059 0.979 0.628 1.366 0.035 2.286 -1.121 3.689 -0.164 0.36 -0.37 0.68 -1.642 2.81 0.081 0.064 2.351 -2.279 0.57 -0.621 0.337 -0.47 1.527 -3.976 -0.007 -2.899 -0.904 -1.968 -1.52 -1.407 -2.271 -0.865 -4.9 -0.074 -5.929 0.823 -3.009 1.145 -1.594 1.496 -0.914 2.28 -0.12 2.395 1.057 5.243 4.205 13.493 0.232 0.698 1.74 4.101 0.271 0.34 0.902 0.362 0.272 -0.191 0.259 -0.898" />
    <path class="write-flat-pen" fill="#FFFFFF" stroke-width="1.6" __comx="461.885" __comy="439.059" __timestamp="0x1784824de21" d="M453.239 435.272 l-0.432 0.938 14.95 -1.321 3.282 -0.703 -0.015 -0.123 -3.34 0.099 -14.953 1.111 0.508 0.938" />
    <path class="write-flat-pen" fill="#FFFFFF" stroke-width="1.6" __comx="486.664" __comy="439.059" __timestamp="0x1784824e079" d="M488.613 418.831 l-1.035 0.55 -0.245 0.259 -2.755 4.529 -0.295 0.756 -1.189 4.328 -0.62 5.515 0.244 4.802 1.104 4.274 2.808 4.057 0.666 0.438 0.664 0.309 2.838 1.314 0.056 -0.094 -2.507 -1.869 -0.544 -0.411 -0.419 -0.385 -2.324 -3.896 -0.966 -3.942 -0.231 -4.556 0.558 -5.308 1.074 -4.188 0.219 -0.614 2.367 -4.542 0.088 -0.14 0.764 -0.739" />
    <path class="write-flat-pen" fill="#FFFFFF" stroke-width="1.6" __comx="506.402" __comy="436.076" __timestamp="0x1784824e7e8" d="M509.076 436.427 l-0.43 -1.197 -0.048 -0.106 -1.045 -1.702 -0.171 -0.147 -1.345 -0.689 -1.871 0.097 -2.61 1.436 -1.85 1.953 -1.365 2.606 -0.645 3.046 0.513 2.596 1.296 1.889 1.811 0.934 2.255 -0.196 2.034 -1.233 1.751 -2.26 1.285 -3.26 0 0 0.687 -3.957 0 0 -0.335 -1.055 0 0 -1.469 0.247 0.035 2.336 1.137 3.832 2.909 3.406 0.444 0.228 2.979 1.438 0.076 -0.112 -2.446 -2.227 -0.223 -0.222 -2.354 -3.231 -1 -3.348 -0.052 -2.128 -1.469 0.247 0 0 0.233 0.698 0 0 -0.607 3.439 0 0 -1.163 2.911 -1.451 1.864 -1.489 0.905 -1.464 0.129 -1.085 -0.555 -0.911 -1.316 -0.402 -1.991 0.52 -2.552 1.164 -2.255 1.541 -1.67 2.121 -1.255 1.245 -0.152 0.98 0.37 -0.038 -0.038 1.213 1.353 0.037 0.044 0.725 1.029" />
    <path class="write-flat-pen" fill="#FFFFFF" stroke-width="1.6" __comx="524.238" __comy="438.672" __timestamp="0x1784824ea34" d="M517.61 439.541 l0.169 -0.755 0.014 0.025 1.173 -1.238 0.138 -0.116 1.541 -0.976 1.276 -0.179 0.826 0.393 0.75 1.05 0.365 1.63 -0.314 2.269 -1.145 2.443 -2.683 2.711 -0.102 1.667 2.24 0.621 5.948 -0.277 0.327 -0.04 3.396 -0.373 0.005 -0.107 -3.345 -0.697 -0.366 -0.074 -5.765 -0.034 -0.774 -0.211 -0.016 0.212 2.435 -2.501 1.327 -2.911 0.353 -2.771 -0.516 -2.182 -1.17 -1.59 -1.581 -0.703 -1.993 0.359 -1.803 1.317 -0.253 0.266 -1.056 1.613 -0.07 0.263 0.18 0.899" />
    <path class="write-flat-pen" fill="#FFFFFF" stroke-width="1.6" __comx="540.989" __comy="422.723" __timestamp="0x1784824ec96" d="M534.847 417.93 l-0.393 0.046 -0.021 0.254 0.11 0.17 1.339 1.646 0.431 0.483 5.168 5.679 2.636 3.68 1.441 3.334 0.486 2.684 -0.333 3.234 -1.445 3.713 -2.91 4.909 -0.768 1.207 -0.833 1.3 -1.697 2.634 0.12 0.092 2.085 -2.339 1.037 -1.159 0.929 -1.144 3.285 -4.862 1.636 -3.995 0.396 -3.646 -0.555 -3.063 -1.588 -3.633 -2.825 -3.857 -5.454 -5.548 -0.475 -0.445 -1.575 -1.397 -0.114 -0.079 -0.21 -0.041 -0.198 0.34" />
  </g>
</svg>
