<svg class="write-page" width="1010px" height="1628px" xmlns="http://www.w3.org/2000/svg" xmlns:xlink="http://www.w3.org/1999/xlink">
  <g class="write-content write-v3" width="1010" height="1628" xruling="30" yruling="30" marginLeft="30" papercolor="#1B1C1C" rulecolor="#3A00F9FF">
    <g class="ruleline write-std-ruling write-scale-down" fill="none" stroke="#00F9FF" stroke-opacity="0.227" stroke-width="1" shape-rendering="crispEdges" vector-effect="non-scaling-stroke">
      <rect class="pagerect" fill="#1B1C1C" stroke="none" x="0" y="0" width="1010" height="1628" />
      <path class="yrule_1" d="M0 30 l1010 0" />
      <path d="M0 60 l1010 0" />
      <path d="M0 90 l1010 0" />
      <path d="M0 120 l1010 0" />
      <path d="M0 150 l1010 0" />
      <path d="M0 180 l1010 0" />
      <path d="M0 210 l1010 0" />
      <path d="M0 240 l1010 0" />
      <path d="M0 270 l1010 0" />
      <path d="M0 300 l1010 0" />
      <path d="M0 330 l1010 0" />
      <path d="M0 360 l1010 0" />
      <path d="M0 390 l1010 0" />
      <path d="M0 420 l1010 0" />
      <path d="M0 450 l1010 0" />
      <path d="M0 480 l1010 0" />
      <path d="M0 510 l1010 0" />
      <path d="M0 540 l1010 0" />
      <path d="M0 570 l1010 0" />
      <path d="M0 600 l1010 0" />
      <path d="M0 630 l1010 0" />
      <path d="M0 660 l1010 0" />
      <path d="M0 690 l1010 0" />
      <path d="M0 720 l1010 0" />
      <path d="M0 750 l1010 0" />
      <path d="M0 780 l1010 0" />
      <path d="M0 810 l1010 0" />
      <path d="M0 840 l1010 0" />
      <path d="M0 870 l1010 0" />
      <path d="M0 900 l1010 0" />
      <path d="M0 930 l1010 0" />
      <path d="M0 960 l1010 0" />
      <path d="M0 990 l1010 0" />
      <path d="M0 1020 l1010 0" />
      <path d="M0 1050 l1010 0" />
      <path d="M0 1080 l1010 0" />
      <path d="M0 1110 l1010 0" />
      <path d="M0 1140 l1010 0" />
      <path d="M0 1170 l1010 0" />
      <path d="M0 1200 l1010 0" />
      <path d="M0 1230 l1010 0" />
      <path d="M0 1260 l1010 0" />
      <path d="M0 1290 l1010 0" />
      <path d="M0 1320 l1010 0" />
      <path d="M0 1350 l1010 0" />
      <path d="M0 1380 l1010 0" />
      <path d="M0 1410 l1010 0" />
      <path d="M0 1440 l1010 0" />
      <path d="M0 1470 l1010 0" />
      <path d="M0 1500 l1010 0" />
      <path d="M0 1530 l1010 0" />
      <path d="M0 1560 l1010 0" />
      <path d="M0 1590 l1010 0" />
      <path d="M0 1620 l1010 0" />
      <path class="xrule_1" d="M30 0 l0 1628" />
      <path d="M60 0 l0 1628" />
      <path d="M90 0 l0 1628" />
      <path d="M120 0 l0 1628" />
      <path d="M150 0 l0 1628" />
      <path d="M180 0 l0 1628" />
      <path d="M210 0 l0 1628" />
      <path d="M240 0 l0 1628" />
      <path d="M270 0 l0 1628" />
      <path d="M300 0 l0 1628" />
      <path d="M330 0 l0 1628" />
      <path d="M360 0 l0 1628" />
      <path d="M390 0 l0 1628" />
      <path d="M420 0 l0 1628" />
      <path d="M450 0 l0 1628" />
      <path d="M480 0 l0 1628" />
      <path d="M510 0 l0 1628" />
      <path d="M540 0 l0 1628" />
      <path d="M570 0 l0 1628" />
      <path d="M600 0 l0 1628" />
      <path d="M630 0 l0 1628" />
      <path d="M660 0 l0 1628" />
      <path d="M690 0 l0 1628" />
      <path d="M720 0 l0 1628" />
      <path d="M750 0 l0 1628" />
      <path d="M780 0 l0 1628" />
      <path d="M810 0 l0 1628" />
      <path d="M840 0 l0 1628" />
      <path d="M870 0 l0 1628" />
      <path d="M900 0 l0 1628" />
      <path d="M930 0 l0 1628" />
      <path d="M960 0 l0 1628" />
      <path d="M990 0 l0 1628" />
      <path class="leftmargin" stroke="#FF0000" d="M30 0 l0 1628" />
    </g>
    <path class="write-flat-pen" fill="#FFFFFF" stroke-width="1.6" __comx="161.42" __comy="230.58" __timestamp="0x178aaa20c26" d="M151.43 238.637 l-0.382 -0.066 0.079 0.238 0.37 -1.336 0.137 -0.36 4.769 -10.26 5.532 -10.223 0 0 0.663 -0.464 0 0 -1.03 -0.357 1.431 5.839 3.243 9.357 1.521 3.026 2.04 1.204 2.543 0.174 0.036 -0.123 -2.057 -1.171 -1.415 -1.098 -1.3 -2.591 -3.234 -9.193 -1.541 -5.748 -1.03 -0.357 0 0 -0.833 0.681 0 0 -5.634 10.517 -4.582 10.447 -0.136 0.479 -0.16 1.575 0.125 0.431 0.9 -0.259" />
    <path class="write-flat-pen" fill="#FFFFFF" stroke-width="1.6" __comx="160.542" __comy="230.58" __timestamp="0x178aaa20d69" d="M155.111 230.941 l-0.179 -0.798 0.366 -0.466 1.556 -0.539 7.364 -0.305 2.687 -0.031 0.008 -0.111 -2.683 -0.407 -7.526 0.059 -1.881 0.707 -0.652 0.955 0.332 1.1" />
    <path class="write-flat-pen" fill="#FFFFFF" stroke-width="1.6" __comx="209.734" __comy="230.58" __timestamp="0x178aaa212a5" d="M197.08 230.454 l-0.173 0.339 1.412 0.155 0.554 0.025 21.023 0.957 2.656 0.052 0.007 -0.084 -2.634 -0.409 -21.034 -1.15 -0.565 0.015 -1.414 0.1 0.166 0.339" />
    <path class="write-flat-pen" fill="#FFFFFF" stroke-width="1.6" __comx="221.844" __comy="230.58" __timestamp="0x178aaa214c0" d="M220.712 230.196 l-1.4 -0.659 -0.173 -0.122 -1.313 -1.355 0.108 0.278 -0.11 0.269 4.579 1.21 2.236 1.003 0.757 0.821 0.18 0.727 -0.682 2.193 0.269 1.916 0.137 0.016 0.677 -1.679 0.974 -2.388 -0.398 -1.426 -1.159 -1.234 -2.572 -1.15 -5.563 -1.36 -0.52 0.972 0.17 0.451 1.761 1.389 0.32 0.158 1.543 0.449" />
    <path class="write-flat-pen" fill="#FFFFFF" stroke-width="1.6" __comx="249.419" __comy="230.58" __timestamp="0x178aaa2167d" d="M248.123 217.232 l0.345 2.406 0.104 0.535 0.829 5.271 0.251 5.234 -0.29 3.909 -0.364 1.109 -0.594 0.782 0.044 0.073 1.18 -0.29 0.801 -1.398 0.285 -4.177 -0.358 -5.352 -1.018 -5.312 -0.134 -0.538 -0.597 -2.347" />
    <path class="write-flat-pen" fill="#FFFFFF" stroke-width="1.6" __comx="255.223" __comy="230.58" __timestamp="0x178aaa21914" d="M250.228 220.629 l-1.02 -1.274 -0.004 -0.043 -0.094 -1.192 0.442 -1.291 1.127 -1.275 1.546 -0.877 2.472 -0.576 1.979 0.136 2.08 0.692 1.252 1.016 0.565 1.127 0.022 1.364 -0.565 1.516 -1.116 1.425 -1.794 1.302 -2.415 0.922 0 0 -1.726 0.121 0 0 0.17 1.42 1.881 -0.321 2.665 0.26 1.489 0.568 1.136 1.02 0.634 1.478 0.054 1.491 -0.507 1.666 -0.954 1.357 -1.434 1.073 -2.417 0.912 -2.115 0.261 -2.086 -0.305 -1.244 -0.577 -0.456 -0.488 -0.042 -0.449 0.02 -0.101 0.379 -0.485 0.269 -0.256 1.515 -1.388 -0.044 -0.067 -1.882 0.825 -0.4 0.18 -0.656 0.443 -0.327 0.362 -0.359 1.337 1.031 1.316 1.756 0.819 2.51 0.36 2.497 -0.321 2.773 -1.074 1.775 -1.356 1.201 -1.748 0.62 -2.118 -0.086 -1.985 -0.86 -1.998 -1.556 -1.404 -1.907 -0.733 -3.041 -0.308 -2.07 0.341 0.17 1.42 0 0 1.937 -0.144 0 0 2.781 -1.083 2.09 -1.543 1.355 -1.756 0.716 -1.961 -0.045 -1.928 -0.841 -1.654 -1.667 -1.348 -2.474 -0.819 -2.35 -0.154 -2.85 0.689 -1.883 1.118 -1.372 1.683 -0.466 1.791 0.301 1.52 0.137 0.287 1.314 1.214" />
    <path class="write-flat-pen" fill="#FFFFFF" stroke-width="1.6" __comx="208.923" __comy="211.418" __timestamp="0x178aaa23739" d="M208.577 212.458 l0.485 -1.402 -0.029 -0.175 -0.588 -0.765 -1.16 0.083 -1.157 1.075 -0.679 1.674 0.021 1.674 0.653 1.496 1.201 0.915 1.407 0.144 1.689 -0.668 1.439 -1.502 0.539 -1.674 -1.449 -3.153 -1.872 -1.321 -0.099 0.085 0.922 1.907 1.144 2.566 -0.278 0.955 -1.034 1.142 -1.177 0.507 -0.825 -0.057 -0.751 -0.535 -0.489 -1.039 -0.055 -1.27 0.476 -1.332 0.749 -0.808 0.503 -0.119 0.347 0.279 -0.015 -0.097 -0.188 1.351" />
    <path class="write-flat-pen" fill="#FFFFFF" stroke-width="1.6" __comx="179.235" __comy="240.298" __timestamp="0x178aaa246d4" d="M178.184 243.937 l-0.197 3.304 -0.007 0.024 -0.206 0.472 0 0 0.682 0.063 -0.141 -3.148 -0.013 -0.323 -0.448 -5.979 0.248 -1.226 0.409 -0.309 1.006 -0.037 0.778 0.378 0.114 0.233 -0.083 0.144 -0.619 0.19 -1.093 -0.109 -0.746 -0.053 -0.066 0.077 0.359 0.893 1.613 0.471 1.413 -0.468 0.565 -1.15 -0.583 -1.123 -1.405 -0.674 -1.676 0.075 -1.041 0.819 -0.325 1.813 0.598 6.106 0.023 0.324 0.42 3.14 0.682 0.063 0 0 0.079 -0.549 0.008 -0.094 -0.074 -3.339" />
    <path class="write-flat-pen" fill="#FFFFFF" stroke-width="1.6" __comx="270.621" __comy="240.606" __timestamp="0x178aaa24c27" d="M267.13 246.548 l0.418 2.426 0.033 0.211 0.19 0.961 0.795 -0.11 0.022 -0.152 -0.173 -8.082 -0.015 -0.26 -0.377 -3.754 0.208 -0.786 0.734 -0.692 2.044 -0.726 1.378 -0.007 0.523 0.308 0.154 0.367 -0.123 0.371 -0.754 0.496 -2.122 0.115 -2.206 -0.262 -0.047 0.129 2.053 1.303 2.737 0.052 1.468 -0.983 0.408 -1.29 -0.526 -1.218 -1.211 -0.708 -1.965 0.013 -2.511 0.913 -1.183 1.158 -0.317 1.367 0.514 3.935 0.017 0.216 0.448 8.013 0.006 0.112 0.795 -0.11 -0.437 -0.834 -0.045 -0.178 -0.685 -2.372" />
    <path class="write-flat-pen" fill="#FFFFFF" stroke-width="1.6" __comx="157.195" __comy="144.822" __timestamp="0x178aaa259bd" d="M154.469 134.785 l0.002 -1.41 -0.299 0.297 -0.202 -0.003 0.114 1.818 0.019 0.567 -0.357 10.507 0 0 0.858 -0.498 0.248 0.131 -0.775 -10.444 -1.344 -8.107 0.119 -0.809 0.634 -0.697 1.417 -0.529 1.927 -0.083 2.307 0.482 1.496 0.757 0.64 0.738 0.234 1.111 -0.473 1.469 -1.473 1.879 -1.837 1.507 -3.309 1.446 -0.042 0.043 -0.076 0.053 -0.448 0.399 0.326 0.719 0.595 -0.074 -0.045 0.039 0.035 0.029 3.722 -1.371 2.133 -1.76 1.729 -2.214 0.665 -2.088 -0.398 -1.854 -1.073 -1.233 -1.92 -0.971 -2.674 -0.551 -2.337 0.113 -1.949 0.755 -1.121 1.297 -0.157 1.432 1.488 8.224 0.866 11.016 0.314 0.167 0.858 -0.498 0 0 0.08 -10.548 -0.051 -0.635 -0.454 -2.264 -0.254 -0.008 -0.299 0.297 0.267 1.384" />
    <path class="write-flat-pen" fill="#FFFFFF" stroke-width="1.6" __comx="161.607" __comy="144.822" __timestamp="0x178aaa25dc8" d="M161.94 144.979 l0.135 -0.69 -0.262 -0.22 -1.202 0.05 -0.272 0.209 -0.894 1.357 -0.188 1.585 0.62 1.091 1.342 0.316 1.293 -0.619 1.161 -1.474 0.281 -1.61 -1.428 -0.772 -0.561 0.657 0.224 0.384 0.315 0.146 0.087 0.191 -0.073 0.497 -0.782 1.028 -0.665 0.342 -0.47 -0.084 -0.223 -0.342 0.06 -1.01 0.578 -1.098 -0.043 0.021 0.68 -0.24 -0.137 -0.126 0.142 0.412" />
    <path class="write-flat-pen" fill="#FFFFFF" stroke-width="1.6" __comx="166.267" __comy="144.822" __timestamp="0x178aaa25eda" d="M166.024 147.132 l-0.337 -0.066 0.081 0.717 0.021 0.127 0.261 3.258 -0.167 2.039 0.121 0.03 0.841 -2.015 -0.454 -3.428 -0.063 -0.177 -0.345 -0.644 -0.261 0.235" />
    <path class="write-flat-pen" fill="#FFFFFF" stroke-width="1.6" __comx="171.261" __comy="144.822" __timestamp="0x178aaa260d8" d="M171.099 150.103 l-0.516 2.024 0 0 -0.46 0.267 0 0 0.473 0.165 -0.461 -1.822 -0.028 -3.319 0.532 -3.316 0.562 -1.104 0.669 -0.478 0.756 -0.01 0.45 0.356 0.105 0.52 -0.321 0.655 -2.568 1.832 -1.994 1.678 0.049 0.079 2.387 -1.073 2.929 -1.825 0.564 -1.238 -0.296 -1.188 -1.009 -0.737 -1.363 0.058 -1.049 0.797 -0.672 1.43 -0.484 3.515 0.088 3.469 0.568 1.885 0.473 0.165 0 0 0.548 -0.469 0 0 0.397 -2.244" />
    <path class="write-flat-pen" fill="#FFFFFF" stroke-width="1.6" __comx="163.516" __comy="174.768" __timestamp="0x178aaa262cb" d="M162.909 171.39 l-0.049 2.662 0.03 0.575 0.407 8.907 -0.298 7.87 -0.046 2.802 0.103 0.015 0.765 -2.741 0.35 -7.955 -0.647 -8.942 -0.058 -0.564 -0.214 -2.64" />
    <path class="write-flat-pen" fill="#FFFFFF" stroke-width="1.6" __comx="165.648" __comy="192.335" __timestamp="0x178aaa26461" d="M161.972 193.089 l-1.654 -1.799 0.023 0.033 -0.165 -0.703 0 0 -0.805 0.415 2.292 3.333 0.243 0.282 1.42 1.161 2.014 0.737 3.698 -0.275 0.311 -0.103 2.645 -0.921 -0.021 -0.111 -2.8 0.084 -0.253 0.001 -3.381 0.005 -1.593 -0.54 -1.208 -0.919 -0.146 -0.155 -2.484 -3.123 -0.805 0.415 0 0 0.307 0.749 0.081 0.131 1.924 1.673" />
    <path class="write-flat-pen" fill="#FFFFFF" stroke-width="1.6" __comx="253.404" __comy="144.951" __timestamp="0x178aaa26e99" d="M252.893 133.583 l0.832 -1.277 0.098 -0.158 0.433 -1.54 -0.136 -0.36 -0.862 -0.77 -1.798 0.153 -1.992 1.029 -1.918 1.77 -1.427 2.402 -0.665 2.368 -0.053 2.626 0.738 2.484 1.389 1.919 1.654 0.998 2.059 0.415 2.276 -0.281 2.905 -1.096 2.287 -1.542 1.54 -1.855 0.997 -2.433 0.157 -2.098 -0.694 -2.274 -1.521 -2.028 -1.683 -1.212 -2.217 -0.661 -2.179 0.303 -3.006 2.323 -0.309 0.447 -0.717 1.494 -0.117 0.416 -0.07 0.367 -0.488 2.572 0.086 0.028 1.137 -2.358 0.155 -0.317 0.157 -0.297 0.865 -1.232 0.189 -0.205 2.7 -1.763 1.467 -0.167 1.638 0.494 1.273 0.913 1.217 1.61 0.535 1.726 -0.11 1.559 -0.804 1.988 -1.241 1.509 -1.95 1.332 -2.564 0.992 -1.859 0.249 -1.58 -0.298 -1.194 -0.702 -1.085 -1.477 -0.62 -2.039 0.026 -2.232 0.548 -2.033 1.208 -2.103 1.622 -1.561 1.611 -0.905 1.113 -0.198 0.404 0.233 -0.041 -0.129 -0.104 1.223 -0.031 0.082 -0.601 1.401" />
    <path class="write-flat-pen" fill="#FFFFFF" stroke-width="1.6" __comx="254.541" __comy="144.951" __timestamp="0x178aaa27019" d="M250.11 143.956 l-0.672 -1.944 0 -0.097 0.207 -0.98 0.476 -0.429 0.636 0.003 1.067 0.72 2.788 3.872 1.532 1.286 1.725 0.366 2.467 -0.182 0.007 -0.087 -2.327 -0.542 -1.345 -0.532 -1.24 -1.072 -2.896 -3.867 -1.518 -0.937 -1.291 0.095 -0.848 0.927 -0.138 1.347 0.042 0.28 0.96 1.929" />
    <path class="write-flat-pen" fill="#FFFFFF" stroke-width="1.6" __comx="263.593" __comy="144.951" __timestamp="0x178aaa27283" d="M264.409 143.689 l0.029 -0.796 -0.222 -0.24 -1.286 0.059 -0.306 0.211 -0.939 1.299 -0.185 1.563 0.623 1.322 1.117 0.599 1.426 -0.326 1.019 -1.146 -0.267 -1.734 -1.46 -0.782 -0.056 0.057 0.524 1.186 -0.062 0.836 -0.384 0.457 -0.593 0.174 -0.402 -0.176 -0.374 -0.675 0.054 -1.008 0.609 -1.024 -0.007 -0.009 0.738 -0.242 -0.113 -0.133 0.201 0.566" />
    <path class="write-flat-pen" fill="#FFFFFF" stroke-width="1.6" __comx="268.48" __comy="144.951" __timestamp="0x178aaa27358" d="M268.514 145.642 l0.255 1.248 0.008 0.166 -0.047 2.638 -0.531 2.095 -0.859 2.154 0.077 0.047 1.566 -1.869 0.639 -2.322 -0.179 -2.8 -0.053 -0.253 -0.532 -1.213" />
    <path class="write-flat-pen" fill="#FFFFFF" stroke-width="1.6" __comx="274.152" __comy="144.951" __timestamp="0x178aaa27544" d="M274.114 153.63 l-0.469 0.54 -0.322 -0.07 -0.829 -1.045 -0.841 -2.463 -0.216 -2.288 0.402 -1.929 0.658 -1.028 1.086 -0.738 1.235 -0.138 1.226 0.379 0.599 0.631 0.017 0.487 -0.445 0.532 -2.472 0.676 -2.16 0.103 -0.01 0.065 2.214 0.799 3.031 -0.709 0.885 -1.14 -0.099 -1.243 -1.046 -1.046 -1.654 -0.496 -1.662 0.204 -1.412 1.004 -0.806 1.338 -0.422 2.21 0.272 2.503 0.976 2.661 1.173 1.28 0.879 -0.006 0.517 -0.856" />
    <path class="write-flat-pen" fill="#FFFFFF" stroke-width="1.6" __comx="211.949" __comy="137.8" __timestamp="0x178aaa27f4f" d="M199.2 137.689 l-1.426 -0.183 0.001 -0.02 0 0 -0.084 0.597 2.194 0.388 0.714 0.084 20.018 0.647 1.068 -0.036 1.989 -0.135 2.545 -0.214 -0.002 -0.087 -2.551 -0.094 -1.986 -0.063 -1.05 -0.039 -19.969 -0.868 -0.682 -0.058 -2.219 -0.124 -0.084 0.597 0 0 0.041 -0.014 1.471 -0.079" />
    <path class="write-flat-pen" fill="#FFFFFF" stroke-width="1.6" __comx="227.214" __comy="136.585" __timestamp="0x178aaa281b0" d="M227.197 138.257 l-1.473 -0.951 -0.087 -0.109 -1.157 -1.986 -0.063 -0.106 0 0 -0.757 -0.971 0 0 -0.734 0.822 1.237 0.969 5.578 0.863 0.404 0.251 0.066 0.433 -2.552 4.891 -0.018 0.049 -1.196 2.468 0.089 0.063 1.941 -1.938 0.075 -0.082 3.037 -5.219 -0.259 -1.474 -1.142 -0.678 -5.543 -0.806 -1.07 -0.69 -0.734 0.822 0 0 0.841 0.791 0 0 0.033 0.043 1.423 1.893 0.217 0.196 1.683 0.752" />
    <path class="write-flat-pen" fill="#FFFFFF" stroke-width="1.6" __comx="192.699" __comy="213.237" __timestamp="0x178aaa28a9e" d="M191.93 218.27 l-0.351 0.453 0.255 -0.109 -0.055 -0.334 -0.033 -0.17 -0.625 -2.662 -0.103 -0.373 -0.994 -3.689 -0.036 -1.553 0.568 -0.967 1.072 -0.673 2.821 -0.328 0.019 -0.024 2.169 0.53 0.047 -0.099 -1.792 -1.332 -0.244 -0.148 -3.436 0.139 -1.606 1.02 -0.894 1.562 0.088 2.065 1.15 3.81 0.121 0.368 0.88 2.601 0.115 0.264 0.553 0.614 0.316 -0.13 0.179 -0.757" />
    <path class="write-flat-pen" fill="#FFFFFF" stroke-width="1.6" __comx="190.325" __comy="213.237" __timestamp="0x178aaa28b86" d="M187.188 213.693 l3.795 0.43 2.48 -0.537 -0.009 -0.081 -2.475 -0.003 -3.746 -0.291" />
    <path class="write-flat-pen" fill="#FFFFFF" stroke-width="1.6" __comx="198.044" __comy="213.237" __timestamp="0x178aaa28c8e" d="M196.212 212.116 l1.654 0.187 2.008 -0.375 -0.006 -0.082 -2.004 -0.076 -1.627 -0.031" />
    <path class="write-flat-pen" fill="#FFFFFF" stroke-width="1.6" __comx="199.617" __comy="213.237" __timestamp="0x178aaa28d6b" d="M196.909 214.679 l1.41 -0.415 0.076 -0.008 1.906 0.169 2.156 0.545 0.033 -0.084 -2.032 -1.1 -2.094 -0.262 -0.246 0.055 -1.372 0.689" />
    <path class="write-flat-pen" fill="#FFFFFF" stroke-width="1.6" __comx="211.742" __comy="113.985" __timestamp="0x178aaa29129" d="M208.946 119.804 l-0.444 1.557 0.059 -0.137 -0.042 -0.133 0.067 0.089 -1.11 -4.16 -0.095 -0.403 -0.502 -2.943 0.133 -1.719 0.599 -1.303 1.051 -0.909 1.635 -0.563 1.756 -0.037 1.981 0.509 1.945 1.349 0.117 0.125 0.147 0.189 1.492 1.98 0.094 -0.05 -0.832 -2.336 -0.094 -0.258 -0.179 -0.336 -2.142 -1.784 -2.381 -0.637 -2.126 0.04 -2.05 0.707 -1.436 1.247 -0.798 1.756 -0.137 2.096 0.589 3.12 0.12 0.465 1.411 4.2 0.207 0.339 0.897 0.012 0.159 -0.317 0.208 -1.694" />
    <path class="write-flat-pen" fill="#FFFFFF" stroke-width="1.6" __comx="208.763" __comy="116.798" __timestamp="0x178aaa29200" d="M204.789 117.668 l1.209 -0.133 0.262 -0.042 3.971 -0.742 2.602 -0.726 -0.022 -0.131 -2.7 0.174 -3.991 0.714 -0.269 0.071 -1.156 0.384" />
    <path class="write-flat-pen" fill="#FFFFFF" stroke-width="1.6" __comx="209.105" __comy="104.776" __timestamp="0x178aaa293e2" d="M200.953 106.732 l1.654 -1.163 0.21 -0.161 2.241 -1.582 1.329 -0.42 1.224 0.362 2.829 2.201 1.941 0.844 2.899 -0.419 2.128 -1.408 -0.063 -0.131 -2.301 0.723 -2.515 0.203 -1.604 -0.658 -2.946 -2.116 -1.619 -0.398 -1.637 0.586 -2.242 1.79 -0.204 0.184 -1.478 1.375" />
    <path class="write-flat-pen" fill="#FFFFFF" stroke-width="1.6" __comx="254.868" __comy="172.704" __timestamp="0x178aaa29da8" d="M254.661 170.538 l-0.139 -0.298 0.009 -0.157 -0.498 0.282 -0.027 0.118 -0.069 1.418 0.013 0.526 0.546 9.908 0.048 14.385 -0.051 2.606 0.097 0.021 1.061 -2.506 0.148 -14.548 -0.81 -9.94 -0.066 -0.512 -0.203 -1.37 -0.025 -0.098 -0.498 0.282 0.132 -0.085 -0.036 0.071" />
    <path class="write-flat-pen" fill="#FFFFFF" stroke-width="1.6" __comx="255.459" __comy="194.294" __timestamp="0x178aaa29ffe" d="M250.811 195.383 l-1.296 -0.886 -0.021 -0.049 -0.753 -1.995 0 -0.006 0 0 -0.157 -0.773 0 0 -1.123 0.376 0.767 2.29 3.285 5.829 1.239 1.087 1.723 0.103 4.446 -1.912 0.463 -0.263 0.83 -0.49 0.484 -0.286 0.466 -0.304 2.3 -1.497 -0.033 -0.069 -2.6 0.876 -0.518 0.173 -0.528 0.175 -0.917 0.323 -0.467 0.178 -4.182 1.582 -0.894 -0.028 -0.699 -0.568 -3.191 -5.47 -0.862 -2.136 -1.123 0.376 0 0 0.293 0.714 0 0 0.021 0.072 1.079 2.04 0.187 0.216 1.55 0.728" />
    <path class="write-flat-pen" fill="#FFFFFF" stroke-width="1.6" __comx="159.75" __comy="84.938" __timestamp="0x178aaa2f97a" d="M161.622 109.11 l-2.059 0.04 -1.648 -0.294 -0.036 0.08 1.473 1.107 2.223 0.215" />
    <path class="write-flat-pen" fill="#FFFFFF" stroke-width="1.6" __comx="158.386" __comy="84.938" __timestamp="0x178aaa2fa3f" d="M160.485 91.172 l-2.388 -0.571 -1.778 -0.619 -0.031 0.049 1.414 1.44 2.459 0.827" />
    <path class="write-flat-pen" fill="#FFFFFF" stroke-width="1.6" __comx="156.029" __comy="84.938" __timestamp="0x178aaa2fada" d="M157.885 78.466 l-2.366 -1.154 -0.132 -0.146 -0.181 -0.316 -0.996 -1.783 -0.037 0.014 0.474 1.987 0.098 0.399 0.19 0.436 2.476 1.446" />
    <path class="write-flat-pen" fill="#FFFFFF" stroke-width="1.6" __comx="155.903" __comy="84.938" __timestamp="0x178aaa2fb64" d="M156.784 64.291 l-0.873 -1.274 -0.298 -1.247 -0.013 -0.535 -0.039 -2.255 -0.095 -0.007 -0.353 2.227 -0.092 0.593 0.121 1.539 1.059 1.383" />
    <path class="write-flat-pen" fill="#FFFFFF" stroke-width="1.6" __comx="258.522" __comy="88.576" __timestamp="0x178aaa2ff35" d="M259.707 107.483 l-1.109 -0.007 -1.237 -0.208 -0.024 0.051 1.063 0.898 1.238 0.175" />
    <path class="write-flat-pen" fill="#FFFFFF" stroke-width="1.6" __comx="258.316" __comy="88.576" __timestamp="0x178aaa30018" d="M258.729 102.057 l-0.429 -1.251 0.216 -4.675 0.192 -2.66 -0.04 -0.004 -0.378 2.645 -0.387 4.752 0.509 1.309" />
    <path class="write-flat-pen" fill="#FFFFFF" stroke-width="1.6" __comx="258.389" __comy="88.576" __timestamp="0x178aaa30097" d="M258.778 90.628 l-0.432 -0.132 -0.059 -1.759 0.275 -2.025 -0.042 -0.008 -0.488 2.01 -0.032 2.084 0.748 0.037" />
    <path class="write-flat-pen" fill="#FFFFFF" stroke-width="1.6" __comx="258.781" __comy="88.576" __timestamp="0x178aaa30129" d="M260.348 82.8 l-1.59 -0.607 -1.512 -0.922 -0.033 0.039 1.244 1.363 1.575 0.823" />
    <path class="write-flat-pen" fill="#FFFFFF" stroke-width="1.6" __comx="259.651" __comy="88.576" __timestamp="0x178aaa301cf" d="M260.779 66.125 l-1.016 -0.297 -1.204 -0.604 -0.036 0.042 0.876 1.18 1.083 0.48" />
    <path class="write-flat-pen" fill="#FFFFFF" stroke-width="1.6" __comx="256.992" __comy="49.35" __timestamp="0x178aaa30284" d="M258.892 51.81 l-2.529 -1.88 -0.151 -0.221 -0.362 -0.879 -0.713 -2.139 -0.045 0.01 0.303 2.251 0.214 1 0.184 0.441 2.513 2.149" />
    <path class="write-flat-pen" fill="#FFFFFF" stroke-width="1.6" __comx="258.951" __comy="40.679" __timestamp="0x178aaa3030b" d="M259.949 41.719 l-0.91 -0.889 -0.971 -1.331 -0.115 0.063 0.633 1.603 0.92 0.987" />
    <path class="write-flat-pen" fill="#FFFFFF" stroke-width="1.6" __comx="73.215" __comy="350.015" __timestamp="0x178aaa35154" d="M76.44 341.874 l0.016 -4.102 -0.076 -0.396 -0.701 -1.299 -1.321 -0.589 -2.186 0.33 -2.834 1.545 -2.505 2.533 -1.911 3.318 -0.885 2.828 -0.369 4.066 0.481 2.888 0.963 2.395 1.414 1.884 1.954 1.405 2.4 0.752 2.686 0.013 5.041 -1.806 0.816 -0.485 1.296 -0.943 2.041 -1.609 -0.054 -0.08 -2.257 1.277 -1.378 0.76 -0.771 0.38 -4.889 1.516 -2.362 -0.063 -2.081 -0.68 -1.676 -1.217 -1.227 -1.64 -0.865 -2.153 -0.439 -2.633 0.349 -3.811 0.815 -2.603 1.777 -3.095 2.291 -2.328 2.526 -1.403 1.715 -0.302 0.79 0.296 0.559 0.865 0.052 0.187 0.251 4.017" />
    <path class="write-flat-pen" fill="#FFFFFF" stroke-width="1.6" __comx="86.759" __comy="350.015" __timestamp="0x178aaa3530a" d="M79.63 340.736 l-0.868 -0.1 1.536 9.677 0.091 0.901 0.33 8.39 0.689 1.604 1.422 -0.28 3.797 -7.58 1.801 -2.607 0.678 -0.411 0.407 0.053 0.519 0.564 0.574 1.764 0.564 5.817 0.685 1.82 0.868 0.601 1.96 0.648 0.073 -0.133 -1.514 -1.268 -0.436 -0.51 -0.491 -1.42 -0.577 -5.794 -0.692 -2.122 -0.974 -1.053 -1.219 -0.157 -1.231 0.746 -1.983 2.877 -3.591 7.138 0.05 -0.011 -0.245 -0.55 -0.43 -8.208 -0.113 -0.964 -1.816 -9.661 -0.53 0.565" />
    <path class="write-flat-pen" fill="#FFFFFF" stroke-width="1.6" __comx="115.333" __comy="350.015" __timestamp="0x178aaa35609" d="M109.295 334.358 l0.356 1.079 0.085 0.329 1.484 9.001 0.068 0.969 0 0 0.292 8.858 0 0 1.203 0.063 0.591 -4.037 0.731 -1.962 0.629 -0.602 0.654 -0.071 1.08 0.634 1.313 1.712 1.809 3.925 0.741 2.976 0.184 1.759 0.108 0.017 0.748 -1.804 -0.606 -3.34 -1.935 -4.167 -1.541 -2.005 -1.63 -0.959 -1.466 0.157 -1.135 1.078 -0.875 2.349 -0.597 4.168 1.203 0.063 0 0 -0.393 -8.876 0 0 -0.089 -1.044 -1.777 -9.059 -0.154 -0.416 -0.621 -1.01" />
    <path class="write-flat-pen" fill="#FFFFFF" stroke-width="1.6" __comx="125.314" __comy="350.015" __timestamp="0x178aaa356e9" d="M123.871 337.552 l0.49 5.468 0.091 0.75 1.424 10.414 0.768 2.697 0.113 -0.016 -0.027 -2.799 -1.368 -10.416 -0.106 -0.74 -0.765 -5.429" />
    <path class="write-flat-pen" fill="#FFFFFF" stroke-width="1.6" __comx="127.44" __comy="350.015" __timestamp="0x178aaa357e0" d="M120.29 348.754 l-0.577 0.232 1.101 0.603 0.439 0.114 2.115 0.281 6.472 -1.344 0.735 -0.235 2.083 -0.658 2.507 -0.843 -0.013 -0.047 -2.591 0.523 -2.143 0.432 -0.731 0.161 -6.347 1.047 -1.916 -0.24 -0.323 -0.073 -1.142 -0.321 -0.191 0.753" />
    <path class="write-flat-pen" fill="#FFFFFF" stroke-width="1.6" __comx="133.432" __comy="350.015" __timestamp="0x178aaa3594e" d="M129.821 348.817 l1.283 0.991 0.187 0.247 3.525 5.407 2.154 1.576 0.073 -0.075 -1.58 -2.033 -3.449 -5.403 -0.325 -0.375 -1.544 -0.837" />
    <path class="write-flat-pen" fill="#FFFFFF" stroke-width="1.6" __comx="137.031" __comy="350.015" __timestamp="0x178aaa35a02" d="M137.593 348.501 l-0.324 6.013 -1.401 10.356 -0.034 0.776 -0.122 2.631 0.164 0.023 0.592 -2.567 0.176 -0.753 1.608 -10.377 0.098 -6.074" />
    <path class="write-flat-pen" fill="#FFFFFF" stroke-width="1.6" __comx="171.834" __comy="350.015" __timestamp="0x178aaa35c0c" d="M158.1 351.45 l0.152 -1.369 0.955 -1.597 1.613 -1.498 1.834 -0.927 1.868 -0.318 2.137 0.354 2.347 1.034 5.319 3.628 2.619 1.211 2.943 0.429 3.805 -1.195 0.329 -0.259 2.058 -1.665 -0.047 -0.073 -2.372 1.176 -0.278 0.13 -3.559 0.873 -2.587 -0.393 -2.414 -1.114 -5.349 -3.599 -2.55 -1.092 -2.41 -0.37 -2.147 0.395 -2.042 1.085 -1.726 1.72 -0.98 1.88 -0.029 1.523" />
    <path class="write-flat-pen" fill="#FFFFFF" stroke-width="1.6" __comx="186.743" __comy="350.015" __timestamp="0x178aaa35db2" d="M183.58 345.907 l-1.908 -0.227 -0.487 0.127 0.037 1.017 2.167 1.363 6.76 1.73 0.849 0.537 0.164 0.665 -1.02 3.367 0.326 1.137 1.129 1.254 0.077 -0.044 -0.428 -1.487 -0.001 -0.789 1.055 -3.422 -0.398 -1.367 -1.361 -0.794 -6.776 -1.68 -1.676 -0.997 -0.027 0.131 -0.3 0.075 1.791 -0.047" />
    <path class="write-flat-pen" fill="#FFFFFF" stroke-width="1.6" __comx="204.238" __comy="350.015" __timestamp="0x178aaa35f23" d="M206.704 346.194 l0.112 -1.933 -0.188 -0.281 -1.087 -0.681 -1.686 0.104 -1.98 1.076 -1.767 1.968 -1.272 2.533 -0.711 3.013 0.079 2.107 0.87 1.833 1.252 0.831 1.764 0.105 2.064 -0.82 2.54 -2.031 1.863 -2.441 1.294 -2.744 0.502 -2.519 -0.404 -1.903 -1.974 -2.286 -0.628 -0.405 -1.193 -0.588 -0.644 -0.212 -2.426 -0.795 -0.033 0.074 2.22 1.261 0.552 0.317 1.022 0.713 0.438 0.364 1.535 2.083 0.24 1.375 -0.425 2.122 -1.152 2.496 -1.671 2.234 -2.263 1.859 -1.653 0.695 -1.215 -0.041 -0.764 -0.481 -0.67 -1.355 -0.086 -1.75 0.625 -2.769 1.14 -2.323 1.551 -1.773 1.647 -0.953 1.24 -0.15 0.795 0.383 -0.005 -0.026 0.152 1.72" />
    <path class="write-flat-pen" fill="#FFFFFF" stroke-width="1.6" __comx="223.744" __comy="440.56" __timestamp="0x178aaa3714c" d="M214.267 447.717 l-0.169 0.263 -0.129 0.023 0.572 0.086 0.101 -0.167 1.376 -2.735 0.275 -0.568 5.97 -11.032 0.351 -0.564 3.225 -6.391 0.338 -0.14 0 0 -0.957 -0.442 4.219 15.578 1.132 2.739 1.561 0.859 0.501 -0.217 0.282 -0.38 0.604 -1.256 -0.063 -0.058 -1.165 0.678 -0.217 0.061 0.21 -0.115 -0.577 -0.516 -0.909 -2.256 -4.249 -15.479 -0.957 -0.442 0 0 -0.746 0.37 -3.318 6.803 -0.338 0.554 -5.755 11.225 -0.257 0.61 -1.124 2.847 -0.059 0.184 0.572 0.086 -0.13 0.011 0.072 0.022" />
    <path class="write-flat-pen" fill="#FFFFFF" stroke-width="1.6" __comx="226.353" __comy="440.56" __timestamp="0x178aaa37235" d="M219.871 441.356 l0.898 -0.189 0.17 -0.006 9.352 0.155 2.745 0.021 0.019 -0.165 -2.712 -0.593 -9.454 -0.357 -0.338 0.063 -0.899 0.471" />
    <path class="write-flat-pen" fill="#FFFFFF" stroke-width="1.6" __comx="241.673" __comy="440.56" __timestamp="0x178aaa37421" d="M239.137 455.245 l-0.72 0.436 0.262 0.234 -0.174 -2.552 0.015 -0.418 0.356 -4.297 0.955 -4.733 0.757 -1.769 0.861 -0.848 0.979 -0.298 1.049 0.257 0.738 0.729 0.28 0.886 -0.208 1.528 -0.749 1.303 -0.895 0.751 -0.969 0.169 0.613 0.552 -0.045 0.012 0.034 -0.329 0.442 -1.242 -0.087 -0.061 -1.028 0.88 -0.43 0.491 -0.035 0.291 0.613 0.552 1.427 0.006 1.409 -1.201 0.981 -1.744 0.264 -2.08 -0.478 -1.469 -1.229 -1.197 -1.74 -0.417 -1.616 0.502 -1.251 1.258 -0.875 2.13 -0.904 4.945 -0.226 4.405 0.006 0.51 0.47 2.839 0.391 0.359 1.039 -1.03" />
    <path class="write-flat-pen" fill="#FFFFFF" stroke-width="1.6" __comx="276.935" __comy="440.56" __timestamp="0x178aaa377b7" d="M290.245 435.743 l-1.128 0.309 -0.186 0.027 -2.235 0.186 -0.501 0.017 -19.901 -0.208 -2.786 0.589 0.008 0.111 2.805 0.191 19.901 0.236 0.566 -0.058 2.264 -0.444 0.25 -0.083 1.061 -0.583" />
    <path class="write-flat-pen" fill="#FFFFFF" stroke-width="1.6" __comx="267.058" __comy="440.56" __timestamp="0x178aaa37a4f" d="M264.131 436.358 l-0.774 -0.478 -0.215 0.417 -0.086 1.011 0 0 0.013 0.261 0 0 0.406 3.918 0 0 1.198 -0.334 -1.655 -3.89 -0.686 -2.684 0.167 -0.149 6.295 -1.104 0.61 -0.152 1.294 -0.44 2.571 -0.94 -0.036 -0.152 -2.715 0.324 -1.328 0.167 -0.586 0.066 -6.747 0.958 -1.007 1.013 0.924 3.52 1.749 3.961 1.198 -0.334 0 0 -0.644 -3.873 0 0 -0.039 -0.213 0 0 -0.162 -0.796 -0.173 0.326 0.269 -0.03" />
    <path class="write-flat-pen" fill="#FFFFFF" stroke-width="1.6" __comx="311.712" __comy="440.56" __timestamp="0x178aaa37dab" d="M301.427 446.373 l0.113 0.372 0.275 -0.183 0.112 -0.121 1.058 -1.453 0.235 -0.363 2.395 -4.088 0.367 -0.643 6.525 -12.328 -0.66 -0.019 2.834 8.372 2.392 5.456 2.416 3.335 0.171 0.172 0.522 0.521 1.958 1.851 0.077 -0.057 -1.193 -2.426 -0.384 -0.669 -0.114 -0.171 -2.082 -3.313 -2.309 -5.265 -3.183 -9.271 -1.325 -0.052 -6.769 13.262 -0.34 0.641 -2.162 4.201 -0.188 0.358 -0.83 1.553 -0.08 0.147 -0.05 0.349 0.437 0.155" />
    <path class="write-flat-pen" fill="#FFFFFF" stroke-width="1.6" __comx="312.043" __comy="440.56" __timestamp="0x178aaa37ef7" d="M304.945 439.594 l1.264 -0.124 0.328 -0.023 9.971 -0.744 2.769 -0.382 -0.003 -0.146 -2.8 -0.254 -10.027 0.551 -0.389 0.063 -1.25 0.388" />
    <path class="write-flat-pen" fill="#FFFFFF" stroke-width="1.6" __comx="327.884" __comy="440.56" __timestamp="0x178aaa38152" d="M326.023 447.859 l-0.684 3.945 0.044 -0.096 -0.214 0.015 0 0 0.52 0.313 -0.274 -1.683 0.949 -7.292 0.842 -3.46 0.408 -0.469 0.448 -0.075 1.097 0.554 0.671 0.807 0.173 0.819 -0.256 0.886 -0.904 1.113 -1.455 0.852 -1.296 0.098 0.472 0.755 -0.015 -0.046 0.217 -0.394 0.899 -1.145 -0.038 -0.048 -1.352 0.637 -0.555 0.366 -0.121 0.183 0.472 0.755 1.664 0.16 1.978 -1.169 1.207 -1.514 0.4 -1.45 -0.319 -1.431 -1.044 -1.241 -1.705 -0.848 -1.292 0.237 -0.874 1.043 -0.864 3.826 -0.772 7.533 0.434 1.806 0.52 0.313 0 0 0.471 -0.188 0.152 -0.288 0.43 -4.116" />
    <path class="write-flat-pen" fill="#FFFFFF" stroke-width="1.6" __comx="338.088" __comy="440.56" __timestamp="0x178aaa3822f" d="M334.91 441.905 l3.83 0.234 2.524 -0.376 -0.003 -0.097 -2.518 -0.206 -3.809 -0.105" />
    <path class="write-flat-pen" fill="#FFFFFF" stroke-width="1.6" __comx="337.999" __comy="440.56" __timestamp="0x178aaa38301" d="M338.043 437.646 l-0.64 3.574 -0.029 0.379 0.1 2.154 0.985 2.033 0.09 -0.028 -0.306 -2.132 -0.002 -2.01 0.016 -0.309 0.367 -3.58" />
    <path class="write-flat-pen" fill="#FFFFFF" stroke-width="1.6" __comx="344.241" __comy="440.56" __timestamp="0x178aaa383a9" d="M343.864 439.753 l0.176 4.81 0.258 2.588 0.075 0 0.246 -2.596 -0.078 -4.82" />
    <path class="write-flat-pen" fill="#FFFFFF" stroke-width="1.6" __comx="219.75" __comy="520.981" __timestamp="0x178aaa38776" d="M218.854 518.579 l-0.298 1.154 0.006 0.446 0.726 6.466 0.081 0.807 0.64 6.051 0.677 1.087 0.121 -0.028 0.138 -1.209 -0.435 -6.013 -0.096 -0.83 -0.992 -6.413 -0.041 -0.327 0.037 -1.106" />
    <path class="write-flat-pen" fill="#FFFFFF" stroke-width="1.6" __comx="222.815" __comy="519.851" __timestamp="0x178aaa389cb" d="M217.24 521.816 l-0.525 -1.878 0.038 -0.122 0.775 -1.595 1.561 -1.722 1.592 -1.065 1.785 -0.597 0.691 0.119 0.507 0.509 0.183 1.102 -0.283 1.139 -2.555 2.805 0.161 1.183 4.583 2.16 1.646 1.246 0.827 1.269 0.328 1.605 -0.275 1.374 -0.803 1.349 -1.562 1.329 -1.768 0.74 -1.395 0.064 -0.587 -0.286 -0.29 -0.444 0.129 -1.187 0.048 -0.122 0.314 -0.517 1.207 -1.902 -0.095 -0.086 -1.776 1.407 -0.498 0.44 -0.265 0.319 -0.498 1.898 0.748 1.267 1.279 0.616 1.992 -0.112 2.175 -0.938 1.869 -1.63 1.007 -1.741 0.349 -1.847 -0.439 -2.089 -1.079 -1.653 -1.924 -1.462 -4.062 -1.934 0.015 0.107 2.362 -2.605 0.422 -1.712 -0.297 -1.767 -1.086 -1.082 -1.409 -0.238 -2.246 0.773 -1.839 1.285 -1.699 2.035 -0.747 1.924 -0.059 0.477 0.858 2.009" />
    <path class="write-flat-pen" fill="#FFFFFF" stroke-width="1.6" __comx="236.028" __comy="534.864" __timestamp="0x178aaa38bcb" d="M234.911 540.755 l-0.82 1.468 0.118 -0.137 -0.357 -0.232 0.05 0.091 -0.189 -2.484 0.514 -4.176 0.919 -3.274 0.722 -1.176 0.93 -0.616 0.694 -0.011 0.428 0.292 0.118 0.533 -0.379 0.811 -0.844 0.688 -1.242 0.38 -0.609 -0.018 0.041 0.534 -0.079 -0.091 0.387 -0.927 -0.074 -0.072 -0.971 0.457 -0.397 0.373 0.065 0.691 1.701 0.482 1.845 -0.582 1.282 -1.078 0.668 -1.527 -0.384 -1.457 -1.189 -0.77 -1.458 0.037 -1.461 0.985 -0.942 1.569 -0.945 3.543 -0.431 4.402 0.402 2.702 0.179 0.416 1.203 0.189 0.188 -0.212 0.614 -1.666" />
    <path class="write-flat-pen" fill="#FFFFFF" stroke-width="1.6" __comx="306.441" __comy="531.184" __timestamp="0x178aaa38e62" d="M304.701 520.547 l0.311 -0.682 -0.407 0.158 1.09 0.749 0.169 0.298 0.801 2.174 0.597 3.631 0.152 4.678 -0.298 2.119 -0.372 0.737 -1.173 1.587 0.084 0.093 1.794 -1.066 0.751 -0.931 0.381 -2.475 -0.203 -4.862 -0.732 -3.794 -1.001 -2.299 -0.366 -0.52 -1.399 -0.619 -0.407 0.158 -0.17 0.73" />
    <path class="write-flat-pen" fill="#FFFFFF" stroke-width="1.6" __comx="312.521" __comy="531.184" __timestamp="0x178aaa390e0" d="M307.774 520.088 l-0.32 -1.766 0.005 0.036 0.615 -0.917 1.783 -1.016 2.359 -0.593 2.963 -0.148 1.038 0.316 0.621 0.646 0.091 0.719 -0.497 1.133 -1.313 1.207 -2.744 1.511 -0.549 1.295 4.28 2.662 1.173 1.237 0.428 1.219 -0.126 1.138 -0.737 1.244 -1.347 1.138 -2.486 1.157 -2.662 0.556 -1.667 -0.091 -0.83 -0.381 -0.224 -0.313 0.399 -1.206 0.085 -0.1 0.582 -0.41 0.35 -0.211 1.968 -1.158 -0.032 -0.078 -2.219 0.54 -0.436 0.108 -0.767 0.292 -0.435 0.261 -1.105 2.083 0.854 1.332 1.462 0.665 2.129 0.102 3.003 -0.645 2.789 -1.34 1.637 -1.434 0.968 -1.699 0.162 -1.712 -0.631 -1.742 -1.47 -1.551 -3.468 -2.178 -0.057 0.138 2.484 -1.38 1.617 -1.503 0.738 -1.703 -0.193 -1.484 -1.144 -1.179 -1.563 -0.472 -3.309 0.182 -2.637 0.708 -2.129 1.322 -0.76 1.39 -0.043 0.359 0.621 1.893" />
    <path class="write-flat-pen" fill="#FFFFFF" stroke-width="1.6" __comx="326.574" __comy="531.184" __timestamp="0x178aaa39310" d="M325.438 540.192 l-0.797 1.749 0.045 -0.096 -0.165 -0.072 0.133 0.24 -0.278 -5.313 -0.002 -0.531 0.301 -5.226 0.575 -2.483 0.604 -0.621 0.86 -0.098 0.933 0.361 0.767 0.854 0.164 0.831 -0.347 1.008 -0.867 0.965 -1.532 0.76 -1.199 0.07 0.096 0.295 -0.04 0.006 -0.522 -0.83 -0.14 0.019 -0.285 0.938 -0.018 0.167 0.193 0.499 2.211 0.189 2.057 -1.048 1.191 -1.374 0.505 -1.593 -0.331 -1.483 -1.194 -1.306 -1.484 -0.566 -1.587 0.186 -1.129 1.182 -0.651 2.912 -0.236 5.368 0.014 0.601 0.562 5.481 0.274 0.534 0.963 -0.484 0.06 -0.127 0.546 -1.869" />
    <path class="write-flat-pen" fill="#FFFFFF" stroke-width="1.6" __comx="335.221" __comy="531.184" __timestamp="0x178aaa3940c" d="M332.074 534.058 l-0.021 -0.577 -0.06 0.125 1.139 -0.615 3.499 -0.737 2.595 -0.523 -0.005 -0.082 -2.693 -0.228 -3.762 0.642 -1.363 0.957 -0.191 0.335 0.353 0.837" />
    <path class="write-flat-pen" fill="#FFFFFF" stroke-width="1.6" __comx="335.425" __comy="531.184" __timestamp="0x178aaa394d4" d="M334.625 529.898 l-0.228 1.489 0.01 0.291 0.563 2.798 1.396 1.939 0.088 -0.046 -0.732 -2.156 -0.497 -2.643 -0.023 -0.186 -0.041 -1.452" />
    <path class="write-flat-pen" fill="#FFFFFF" stroke-width="1.6" __comx="342.63" __comy="531.184" __timestamp="0x178aaa3957d" d="M342.393 530.309 l-0.216 5.443 0.425 2.63 0.103 -0.006 0.143 -2.629 0.234 -5.41" />
    <path class="write-flat-pen" fill="#FFFFFF" stroke-width="1.6" __comx="115.852" __comy="531.334" __timestamp="0x178aaa3ab35" d="M114.986 518.805 l0.537 -0.376 -0.263 -0.161 0.294 1.31 0.045 0.514 0.114 12.907 -0.026 0.612 -0.181 2.25 -0.227 0.462 0 0 0.914 0.115 -0.072 -0.074 -0.268 -0.759 -0.078 -0.376 -0.362 -1.844 -0.077 0.004 -0.176 1.871 -0.038 0.424 0.024 0.978 0.063 0.223 0.914 0.115 0 0 0.651 -0.633 0.235 -2.674 0.027 -0.681 -0.396 -13.002 -0.114 -0.657 -0.644 -1.543 -0.44 -0.287 -0.773 0.973" />
    <path class="write-flat-pen" fill="#FFFFFF" stroke-width="1.6" __comx="119.312" __comy="531.334" __timestamp="0x178aaa3ad78" d="M113.537 522.327 l-0.897 -1.021 0.029 0.018 0.312 -1.612 0.118 -0.195 1.416 -1.585 1.594 -0.946 2.47 -0.655 1.599 0.073 0.873 0.423 0.695 0.939 0.261 1.372 -0.447 2.066 -1.048 1.973 -1.529 1.67 0 0 -1.784 1.118 0 0 0.303 1.221 2.494 0.194 2.285 0.731 1.76 1.167 0.924 1.202 0.475 1.65 -0.166 1.343 -0.709 1.377 -1.432 1.359 -1.919 1.086 -2.707 0.768 -1.946 0.095 -0.55 -0.227 -0.314 0.457 0.102 -0.218 0.112 -0.139 1.076 -1.122 -0.057 -0.092 -1.484 0.463 -0.266 0.095 -0.408 0.274 -0.437 0.659 1.819 1.339 2.592 -0.136 3.032 -0.872 2.217 -1.276 1.714 -1.668 0.902 -1.822 0.203 -1.86 -0.637 -2.15 -1.217 -1.574 -2.1 -1.389 -2.609 -0.831 -2.648 -0.206 0.303 1.221 0 0 1.926 -1.225 0 0 1.753 -1.929 1.204 -2.28 0.536 -2.499 -0.368 -1.919 -1.061 -1.429 -1.398 -0.675 -2.062 -0.086 -2.827 0.773 -1.897 1.17 -1.552 1.895 -0.247 0.503 -0.106 2.103 0.187 0.314 1.185 0.91" />
    <path class="write-flat-pen" fill="#FFFFFF" stroke-width="1.6" __comx="131.18" __comy="531.334" __timestamp="0x178aaa3afba" d="M130.664 547.338 l-0.245 -0.507 0.006 -0.042 -0.273 -2.268 -0.049 -0.346 -0.549 -4.414 0.065 -3.179 0.436 -1.372 0.674 -0.68 0.765 -0.225 0.674 0.192 0.386 0.464 0.08 1.012 -0.468 1.243 -0.949 1.107 -0.84 0.464 -0.016 0.148 0.059 0.782 0.018 -0.054 0.281 -0.376 0.123 -0.128 1.203 -1.164 -0.042 -0.066 -1.564 0.597 -0.215 0.087 -0.519 0.298 -0.102 0.081 0.059 0.782 0.557 0.626 1.868 -1.012 1.247 -1.494 0.63 -1.746 -0.164 -1.708 -0.91 -1.066 -1.407 -0.394 -1.429 0.434 -1.102 1.139 -0.555 1.838 0.007 3.446 0.734 4.49 0.074 0.36 0.551 2.254 0.074 0.198 0.548 0.433" />
    <path class="write-flat-pen" fill="#FFFFFF" stroke-width="1.6" __comx="140.508" __comy="531.334" __timestamp="0x178aaa3b0a4" d="M136.921 536.434 l-0.176 0.302 0.36 0.397 0.082 0.01 1.653 -0.185 0.229 -0.038 2.594 -0.443 2.61 -0.672 -0.022 -0.176 -2.702 0.004 -2.645 0.315 -0.251 0.056 -1.571 0.445 -0.048 0.024 0.36 0.397 -0.042 -0.347" />
    <path class="write-flat-pen" fill="#FFFFFF" stroke-width="1.6" __comx="145.491" __comy="531.334" __timestamp="0x178aaa3b15b" d="M144.727 532.719 l-0.133 1.016 0 0.234 0.816 6.455 0.835 2.644 0.143 -0.027 -0.189 -2.743 -0.871 -6.405 -0.031 -0.187 -0.143 -0.99" />
    <path class="write-flat-pen" fill="#FFFFFF" stroke-width="1.6" __comx="179.725" __comy="435.629" __timestamp="0x178aaa3b9af" d="M198.656 436.156 l-0.27 -0.495 -0.15 -0.111 -0.975 -0.462 -0.382 -0.105 -3.129 -0.378 -0.789 -0.001 -14.839 1.448 -15.422 0.635 -0.084 0.021 -1.801 0.137 -0.02 0.115 1.651 0.734 0.18 0.067 15.586 -0.374 14.822 -1.581 0.681 -0.03 3.035 0.113 0.282 0.033 0.94 0.204 0.038 -0.001 0.402 0.252" />
    <path class="write-flat-pen" fill="#FFFFFF" stroke-width="1.6" __comx="163.397" __comy="435.645" __timestamp="0x178aaa3bc81" d="M163.736 437.968 l-0.607 -0.915 -0.329 -0.116 -1.08 0.788 -0.127 0.386 0 0 -0.075 5.656 0 0 1.076 -0.314 -1.497 -2.447 -1.22 -3.073 -0.856 -3.772 0.152 -0.085 6.319 -0.716 0.615 -0.214 0.616 -0.269 2.491 -1.081 -0.05 -0.165 -2.671 0.485 -0.648 0.114 -0.54 0.097 -6.56 0.493 -1.167 0.747 1.109 4.739 1.313 3.257 1.607 2.508 1.076 -0.314 0 0 -0.173 -5.518 0 0 -0.008 -0.018 0.452 -0.578 -0.167 -0.066 0.704 0.603" />
    <path class="write-flat-pen" fill="#FFFFFF" stroke-width="1.6" __comx="117.479" __comy="441.117" __timestamp="0x178aaa3c07c" d="M107.351 444.706 l-0.613 0.253 -0.06 0.041 0.376 0.206 0.161 -0.119 0.082 -0.088 1.613 -2.264 0.371 -0.538 0 0 8.179 -11.149 0 0 4.265 -7.083 0 0 -1.089 -0.519 -0.766 2.049 -0.352 3.49 0.525 4.138 1.41 5.405 1.402 3.443 1.312 1.639 2.242 0.514 0.306 -0.15 1.656 -0.999 -0.05 -0.14 -1.915 0.272 -0.032 -0.029 -1.486 -0.542 -0.917 -1.211 -1.295 -3.203 -1.37 -5.244 -0.504 -3.913 0.295 -3.192 0.675 -1.913 -1.089 -0.519 0 0 -4.211 7.055 0 0 -8.045 11.212 0 0 -0.364 0.578 -1.388 2.427 -0.091 0.197 0.046 0.273 0.376 0.206 -0.005 -0.023 0.43 -0.431" />
    <path class="write-flat-pen" fill="#FFFFFF" stroke-width="1.6" __comx="117.51" __comy="441.117" __timestamp="0x178aaa3c15a" d="M111.158 439.631 l10.035 -0.834 2.727 -0.276 -0.001 -0.098 -2.751 -0.221 -10.067 0.655" />
    <path class="write-flat-pen" fill="#FFFFFF" stroke-width="1.6" __comx="134.119" __comy="441.117" __timestamp="0x178aaa3c35e" d="M132.563 453.849 l-0.841 0.504 0.478 0.065 -0.007 -0.035 -0.642 -4.178 -0.057 -0.547 -0.226 -3.866 0.326 -2.861 0.769 -2.138 0.885 -1.02 1.329 -0.64 1.004 0.074 0.788 0.579 0.42 1.063 -0.113 1.089 -0.74 1.401 -0.918 0.728 -1.815 0.308 0.058 0.125 -1.096 -0.501 -0.069 0.069 0.495 1.099 0.226 0.294 2.705 -0.165 1.415 -1.131 0.968 -1.859 0.16 -1.637 -0.673 -1.678 -1.371 -0.993 -1.687 -0.111 -1.845 0.906 -1.179 1.395 -0.848 2.491 -0.289 3.097 0.341 3.977 0.08 0.599 0.946 4.31 0.12 0.143 0.478 0.065 0.669 -0.716" />
    <path class="write-flat-pen" fill="#FFFFFF" stroke-width="1.6" __comx="143.42" __comy="441.117" __timestamp="0x178aaa3c477" d="M139.967 442.708 l2.174 -0.214 0.272 -0.019 2.03 -0.304 2.534 -0.668 -0.019 -0.139 -2.608 0.049 -2.023 0.135 -0.295 0.027 -2.167 0.491" />
    <path class="write-flat-pen" fill="#FFFFFF" stroke-width="1.6" __comx="150.155" __comy="441.117" __timestamp="0x178aaa3c53e" d="M149.733 440.248 l0.226 4.889 0.304 2.529 0.158 -0.005 0.156 -2.548 -0.255 -4.894" />
    <path class="write-flat-pen" fill="#FFFFFF" stroke-width="1.6" __comx="225.057" __comy="481.572" __timestamp="0x178aaa3c870" d="M226.155 466.773 l-0.144 -0.213 -0.218 -0.414 0 0 -0.476 -0.042 -0.702 0.623 -0.657 3.016 0.296 21.612 0.061 0.379 0.43 2.649 0.099 -0.006 0.099 -2.681 0.015 -0.365 -0.081 -21.504 0.44 -2.735 0.442 -0.559 -0.476 -0.042 0 0 0.302 0.358 0.144 0.213" />
    <path class="write-flat-pen" fill="#FFFFFF" stroke-width="1.6" __comx="224.627" __comy="481.572" __timestamp="0x178aaa3cac2" d="M220.84 491.053 l-0.77 -0.544 0.029 0.013 0.007 -0.909 -0.042 0.145 0.356 -0.277 -0.749 -0.026 1.936 2.609 0.113 0.216 1.751 2.781 1.239 0.861 3.156 -0.51 2.145 -1.327 -0.063 -0.167 -2.359 0.382 -2.54 0.212 -0.606 -0.396 -1.625 -2.484 -0.152 -0.274 -2.221 -2.527 -0.749 -0.026 -0.379 0.513 -0.067 0.223 0.318 1.212 0.159 0.178 0.992 0.365" />
    <path class="write-flat-pen" fill="#FFFFFF" stroke-width="1.6" __comx="239.245" __comy="481.572" __timestamp="0x178aaa3cd24" d="M234.446 483.15 l-0.451 -0.002 0.106 0.068 -0.254 -0.95 -0.02 -0.179 0.001 -3.341 0.047 -0.393 0.738 -3.33 1.22 -3.005 0.92 -1.17 1.16 -0.63 1.277 -0.084 1.797 0.538 2.724 1.678 1.974 1.625 0.077 -0.066 -1.374 -2.317 -2.853 -2.073 -2.195 -0.673 -1.79 0.113 -1.64 0.894 -1.187 1.528 -1.286 3.29 -0.668 3.518 -0.039 0.528 0.27 3.474 0.086 0.314 0.577 1.032 0.222 0.167 0.629 -0.345" />
    <path class="write-flat-pen" fill="#FFFFFF" stroke-width="1.6" __comx="237.375" __comy="481.572" __timestamp="0x178aaa3cdd9" d="M233.537 478.262 l2.936 -0.763 0.309 -0.043 1.967 -0.252 2.616 -0.4 -0.005 -0.11 -2.656 -0.141 -2.019 0.108 -0.39 0.064 -2.911 1.042" />
    <path class="write-flat-pen" fill="#FFFFFF" stroke-width="1.6" __comx="254.776" __comy="474.331" __timestamp="0x178aaa3da20" d="M251.965 455.709 l0.63 0.142 -0.003 0.007 2.772 1.537 2.192 1.194 0.031 -0.043 -1.847 -1.731 -2.796 -1.675 -0.191 -0.07 -0.782 0.126" />
    <path class="write-flat-pen" fill="#FFFFFF" stroke-width="1.6" __comx="266.649" __comy="474.331" __timestamp="0x178aaa3db56" d="M261.721 465.264 l0.349 1.257 2.038 1.013 0.076 0.028 2.065 0.901 3.379 3.99 1.881 1.907 0.068 -0.056 -1.515 -2.219 -3.565 -3.952 -2.104 -1.039 -0.052 -0.027 -1.599 -1.081 -0.315 -0.938" />
    <path class="write-flat-pen" fill="#FFFFFF" stroke-width="1.6" __comx="276.878" __comy="474.331" __timestamp="0x178aaa3dbd5" d="M275.781 476.049 l0.127 0.068 0.012 0.019 0.036 0.036 0.025 0.037 0.012 0.019 0.038 0.065 0.017 0.028 0.04 0.077 0.015 0.028 0.049 0.104 0.022 0.043 0.057 0.122 0.024 0.049 0.063 0.135 0.027 0.054 0.062 0.131 0.034 0.066 0.072 0.117 0.061 0.11 0.031 0.052 0.032 0.051 0.046 0.07 0.044 0.062 1.191 1.681 0.058 -0.034 -0.895 -1.855 -0.033 -0.069 -0.04 -0.073 -0.027 -0.051 -0.027 -0.048 -0.064 -0.116 -0.072 -0.112 -0.027 -0.048 -0.07 -0.128 -0.031 -0.053 -0.074 -0.132 -0.029 -0.048 -0.07 -0.119 -0.028 -0.043 -0.064 -0.104 -0.025 -0.035 -0.058 -0.08 -0.027 -0.032 -0.055 -0.066 -0.029 -0.03 -0.056 -0.054 -0.049 -0.031 -0.04 -0.035 -0.176 -0.084" />
    <path class="write-flat-pen" fill="#FFFFFF" stroke-width="1.6" __comx="291.745" __comy="474.331" __timestamp="0x178aaa3ddcb" d="M279.781 481.205 l2.615 4.052 2.612 2.646 10.653 8.95 3.583 4.515 4.435 4.061 0.03 -0.031 -4.234 -4.242 -3.658 -4.455 -10.615 -9.004 -2.464 -2.715 -2.774 -3.901" />
    <path class="write-flat-pen" fill="#FFFFFF" stroke-width="1.6" __comx="300.316" __comy="500.359" __timestamp="0x178aaa3e004" d="M304.484 503.116 l-2.116 -4.402 -0.112 -0.162 0 0 -1.221 -1.92 0 0 -0.593 0.266 0.358 1.758 2.317 3.921 -0.248 0.549 -1.758 1.648 -1.707 0.951 -1.031 0.249 -2.204 0.213 -0.019 0.185 2.245 0.672 1.426 -0.106 2.04 -1.18 1.965 -2.055 0.311 -1.257 -2.612 -4.09 -0.435 -1.612 -0.593 0.266 0 0 1.395 1.805 0 0 0.105 0.13 2.339 4.246" />
    <path class="write-flat-pen" fill="#FFFFFF" stroke-width="1.6" __comx="280.381" __comy="464.92" __timestamp="0x178aaa3e378" d="M282.013 462.999 l-1.515 0.061 -0.119 0.028 -1.838 0.589 -0.855 0.922 0.14 1.311 3.174 3.399 0.862 1.521 0.058 0.901 -0.331 0.616 -0.807 0.464 -0.766 0.02 -0.683 -0.386 -0.352 -0.588 -0.334 -0.956 -0.133 -0.019 -0.633 1.114 0.453 1.35 1.397 0.742 1.416 -0.087 1.331 -0.827 0.599 -1.212 -0.131 -1.464 -1.064 -1.84 -3.064 -3.213 -0.092 -0.526 0.355 -0.459 1.528 -0.665 0.035 -0.015 1.428 -0.321" />
    <path class="write-flat-pen" fill="#FFFFFF" stroke-width="1.6" __comx="284.246" __comy="472.25" __timestamp="0x178aaa3e564" d="M284.307 476.647 l-0.353 -1.865 -0.009 -0.201 0.193 -2.664 0.556 -1.452 0.795 -0.744 1.119 -0.386 0.618 0.123 0.273 0.367 -0.09 0.576 -0.631 0.68 -1.642 0.692 -2.244 0.293 -0.28 0.032 -2.679 0.27 -0.002 0.102 2.664 0.391 0.321 0.045 2.474 -0.091 2.011 -0.852 0.987 -1.102 0.172 -1.318 -0.779 -0.99 -1.25 -0.234 -1.564 0.557 -1.091 1.058 -0.63 1.807 -0.062 2.859 0.038 0.312 0.625 1.857" />
    <path class="write-flat-pen" fill="#FFFFFF" stroke-width="1.6" __comx="142.422" __comy="468.515" __timestamp="0x178aaa3e858" d="M141.65 457.024 l0.547 -0.188 1.105 0.401 0.051 -0.091 -1.12 -0.847 -0.742 0.323" />
    <path class="write-flat-pen" fill="#FFFFFF" stroke-width="1.6" __comx="150.55" __comy="468.515" __timestamp="0x178aaa3e92c" d="M148.336 462.464 l0.321 1.714 1.93 1.662 2.139 1.205 0.039 -0.059 -1.91 -1.482 -1.587 -1.674 -0.412 -1.484" />
    <path class="write-flat-pen" fill="#FFFFFF" stroke-width="1.6" __comx="159.457" __comy="468.515" __timestamp="0x178aaa3e9ae" d="M155.344 468.364 l2.076 1.627 0.173 0.169 3.579 3.32 2.329 1.449 0.07 -0.099 -2.109 -1.706 -3.535 -3.328 -0.21 -0.176 -2.254 -1.426" />
    <path class="write-flat-pen" fill="#FFFFFF" stroke-width="1.6" __comx="173.511" __comy="468.515" __timestamp="0x178aaa3ea2b" d="M172.443 480.153 l0.12 0.126 0.062 0.061 0.08 0.077 0.09 0.087 0.09 0.088 0.099 0.097 0.116 0.116 0.142 0.126 1.289 1.144 0.048 -0.05 -1.19 -1.247 -0.129 -0.136 -0.115 -0.115 -0.1 -0.098 -0.09 -0.088 -0.091 -0.087 -0.08 -0.076 -0.059 -0.057 -0.118 -0.123" />
    <path class="write-flat-pen" fill="#FFFFFF" stroke-width="1.6" __comx="190.626" __comy="495.103" __timestamp="0x178aaa3eb25" d="M187.439 493.888 l1.034 2.745 2.98 3.033 2.325 1.296 0.036 -0.055 -2.07 -1.59 -2.77 -3.012 -1.192 -2.561" />
    <path class="write-flat-pen" fill="#FFFFFF" stroke-width="1.6" __comx="203.967" __comy="507.074" __timestamp="0x178aaa3ebce" d="M202.634 506.644 l0.023 0.138 0.012 0.078 0.034 0.091 0.015 0.053 0.024 0.081 0.03 0.097 0.053 0.131 0.039 0.104 0.039 0.104 0.043 0.115 0.07 0.156 0.049 0.116 0.031 0.07 0.07 0.163 0.076 0.142 0.07 0.139 0.035 0.067 0.11 0.191 0.035 0.059 0.089 0.132 0.045 0.067 0.054 0.08 0.111 0.146 0.042 0.052 1.417 1.747 0.051 -0.037 -1.244 -1.875 -0.037 -0.056 -0.101 -0.142 -0.046 -0.074 -0.043 -0.069 -0.08 -0.128 -0.028 -0.052 -0.103 -0.189 -0.031 -0.061 -0.07 -0.142 -0.072 -0.134 -0.067 -0.153 -0.032 -0.07 -0.051 -0.115 -0.07 -0.149 -0.043 -0.106 -0.042 -0.104 -0.044 -0.106 -0.055 -0.122 -0.031 -0.085 -0.029 -0.079 -0.023 -0.062 -0.035 -0.074 -0.013 -0.047 -0.024 -0.133" />
    <path class="write-flat-pen" fill="#FFFFFF" stroke-width="1.6" __comx="206.065" __comy="506.597" __timestamp="0x178aaa3ed99" d="M207.955 508.914 l-0.681 -1.712 -0.156 -0.268 -1.703 -2.755 -0.043 -0.058 0 0 -0.211 -0.353 0 0 -0.603 0.584 2.681 2.074 0.768 1.057 0.158 1.032 -0.313 1.004 -0.842 0.834 -1.817 0.847 -2.328 1.26 0.044 0.133 2.667 -0.393 2.11 -0.869 1.17 -1.229 0.409 -1.532 -0.306 -1.505 -1.04 -1.322 -2.852 -2.07 -0.603 0.584 0 0 0.272 0.337 0 0 0.044 0.051 1.913 2.574 0.165 0.22 0.897 1.572" />
    <path class="write-flat-pen" fill="#FFFFFF" stroke-width="1.6" __comx="166.005" __comy="463.72" __timestamp="0x178aaa3f08f" d="M167.962 457.646 l-0.774 -0.659 -0.217 -0.078 -2.488 -0.075 -0.304 0.107 -0.993 0.731 -0.131 1.337 3.804 2.464 0.771 0.9 0.141 0.71 -0.301 0.799 -0.775 0.623 -0.397 0.061 -0.169 -0.023 0.065 -0.938 -0.109 -0.059 -0.985 0.994 0.551 1.324 1.544 -0.244 1.254 -1.045 0.503 -1.404 -0.27 -1.313 -1.074 -1.246 -3.406 -2.167 0.002 -0.214 0.468 -0.392 0 -0.006 2.202 -0.196 0.02 -0.008 0.839 0.374" />
    <path class="write-flat-pen" fill="#FFFFFF" stroke-width="1.6" __comx="171.545" __comy="463.72" __timestamp="0x178aaa3f28b" d="M171.467 468.579 l-0.465 0.225 0.17 0.134 -0.619 -2.78 -0.042 -0.264 -0.258 -2.603 0.259 -0.922 0.609 -0.501 1.001 -0.116 0.48 0.248 0.002 0.066 -1.072 0.75 -1.017 0.514 0.004 0.053 1.319 0.345 1.922 -1.185 -0.279 -1.227 -1.185 -0.579 -1.58 0.204 -1.042 0.9 -0.342 1.387 0.382 2.787 0.065 0.32 0.938 2.887 0.284 0.235 0.61 -0.715" />
    <path class="write-flat-pen" fill="#FFFFFF" stroke-width="1.6" __comx="174.469" __comy="463.72" __timestamp="0x178aaa3f40e" d="M174.728 463.625 l-0.12 0.04 -0.032 0.011 -0.019 0.01 -0.013 0.01 -0.412 0.314 0.035 0.065 0.489 -0.171 0.013 -0.004 0.003 -0.001 0.015 -0.005 0.117 -0.039" />
    <path class="write-flat-pen" fill="#FFFFFF" stroke-width="1.6" __comx="177.34" __comy="463.72" __timestamp="0x178aaa3f4df" d="M175.383 463.205 l0.742 0.106 0.171 0.004 0.931 -0.099 2.078 -0.447 -0.015 -0.129 -2.121 0.029 -0.915 0.083 -0.151 0.02 -0.73 0.149" />
    <path class="write-flat-pen" fill="#FFFFFF" stroke-width="1.6" __comx="181.676" __comy="463.72" __timestamp="0x178aaa3f59b" d="M181.071 462.004 l0.355 4.237 0.728 2.464 0.126 -0.024 -0.238 -2.527 -0.39 -4.201" />
    <path class="write-flat-pen" transform="translate(321.055,-153.206)" fill="#FFFFFF" stroke-width="1.6" __comx="463.699" __comy="458.796" __timestamp="0x178aaa402cb" d="M146.764 611.125 l-0.014 -1.391 -0.102 -0.255 -1.559 -1.178 -0.393 -0.053 -1.742 0.343 -1.38 1.034 -1.047 1.685 -0.268 1.534 0.541 1.155 1.394 0.832 3.722 0.761 1.33 0.652 0.561 0.781 0.112 1.108 -0.504 1.537 -1.149 1.589 -1.734 1.39 -2.407 1.1 -2.102 0.391 -1.401 -0.223 -0.688 -0.464 -0.43 -0.802 0.033 -1.091 1.041 -1.525 0.17 -0.149 1.879 -1.438 -0.102 -0.181 -2.201 0.867 -0.38 0.161 -1.598 1.819 -0.112 1.822 0.739 1.389 1.186 0.79 1.89 0.28 2.453 -0.485 2.662 -1.25 1.954 -1.601 1.325 -1.873 0.612 -1.937 -0.18 -1.633 -0.896 -1.241 -1.705 -0.834 -3.676 -0.753 -0.947 -0.562 -0.256 -0.538 0.164 -0.993 0.811 -1.359 1.022 -0.822 1.358 -0.363 0.039 -0.006 1.389 0.742 0.016 0.002 0.277 1.268" />
    <path class="write-flat-pen" transform="translate(321.055,-153.206)" fill="#FFFFFF" stroke-width="1.6" __comx="475.46" __comy="471.677" __timestamp="0x178aaa40e2a" d="M151.142 627.284 l0.128 2.341 0.052 0.177 0.298 0.118 -0.039 4.293 0 0 0.684 -0.371 0.119 0.077 -0.411 -2.062 -0.647 -8.813 0.196 -0.878 0.67 -0.724 1.22 -0.428 1.367 0.051 1.468 0.617 0.842 0.899 0.327 1.121 -0.185 1.126 -0.69 1.034 -1.044 0.591 -1.065 0.083 -0.534 -0.232 -0.161 -0.336 -0.033 -0.02 0.492 -1.413 -0.085 -0.055 -1.09 1.025 -0.197 0.233 -0.025 1.293 1.372 0.768 1.698 -0.13 1.539 -0.877 0.995 -1.504 0.268 -1.663 -0.487 -1.669 -1.221 -1.304 -1.915 -0.808 -1.827 -0.066 -1.726 0.617 -1.087 1.203 -0.275 1.374 0.858 9.036 0.607 2.442 0.17 0.112 0.684 -0.371 0 0 -0.252 -4.755 -0.499 -0.052 0.041 0.14 -0.4 -2.265" />
    <path class="write-flat-pen" transform="translate(321.055,-153.206)" fill="#FFFFFF" stroke-width="1.6" __comx="487.187" __comy="471.677" __timestamp="0x178aaa40fc0" d="M162.566 625.103 l0.56 -0.298 0.058 -0.005 4.173 -0.729 2.617 -0.496 -0.01 -0.138 -2.702 -0.123 -4.258 0.791 -0.219 0.09 -0.495 0.575" />
    <path class="write-flat-pen" transform="translate(321.055,-153.206)" fill="#FFFFFF" stroke-width="1.6" __comx="493.025" __comy="471.677" __timestamp="0x178aaa4110c" d="M170.718 621.521 l0.451 1.561 0.071 0.242 1.027 5.202 0.822 2.613 0.131 -0.023 -0.124 -2.748 -1.132 -5.243 -0.114 -0.29 -0.704 -1.477" />
    <path class="write-flat-pen" transform="translate(321.055,-153.206)" fill="#FFFFFF" stroke-width="1.6" __comx="515.356" __comy="471.677" __timestamp="0x178aaa41477" d="M190.939 614.999 l-0.281 -2.623 0.021 -0.079 0.567 -1.175 1.092 -0.891 1.526 -0.468 1.524 0.111 1.491 0.653 1.313 1.236 0.878 1.924 0.205 1.823 -0.513 2.822 -1.14 2.768 -1.912 2.74 -1.987 1.828 -1.863 0.971 -1.536 0.247 -0.578 -0.254 -0.352 -0.641 0.073 -1.163 0.723 -1.593 1.638 -1.847 1.678 -0.959 1.263 -0.227 1.061 0.232 0.851 0.652 0.727 1.363 0.168 2.243 -0.062 1.521 0.094 0.038 1.095 -1.358 0.022 -2.793 -1.009 -1.892 -1.315 -1.006 -1.607 -0.352 -1.749 0.313 -2.07 1.177 -1.92 2.162 -0.906 2.001 -0.111 1.794 0.758 1.377 1.354 0.586 2.129 -0.356 2.2 -1.157 2.213 -2.047 2.065 -2.978 1.238 -3.027 0.562 -3.143 -0.266 -2.209 -1.089 -2.317 -1.668 -1.516 -1.881 -0.779 -1.94 -0.087 -1.901 0.675 -1.34 1.242 -0.589 1.507 -0.04 0.31 0.573 2.705" />
    <path class="write-flat-pen" transform="translate(321.055,-153.206)" fill="#FFFFFF" stroke-width="1.6" __comx="528.18" __comy="471.677" __timestamp="0x178aaa41653" d="M201.794 633.308 l-0.039 -1.687 0.045 -0.319 0.991 -4.532 1.883 -5.928 -0.229 0.134 5.88 8.341 2.48 2.023 0.556 -0.596 -2.099 -2.248 -6.474 -9.01 -1.053 0.584 -1.967 6.437 -0.849 4.664 -0.027 0.453 0.314 1.744" />
    <path class="write-flat-pen" transform="translate(321.055,-153.206)" fill="#FFFFFF" stroke-width="1.6" __comx="525.749" __comy="471.677" __timestamp="0x178aaa41758" d="M198.659 628.025 l4.649 -1.072 4.837 -0.724 2.731 -0.426 -0.008 -0.138 -2.787 -0.109 -4.935 0.563 -4.634 1.338" />
    <path class="write-flat-pen" transform="translate(321.055,-153.206)" fill="#FFFFFF" stroke-width="1.6" __comx="552.061" __comy="460.619" __timestamp="0x178aaa434db" d="M228.01 614.21 l-0.82 -0.406 0.033 0.006 -0.139 0.439 0.654 -0.085 0.151 0.004 4.664 0.059 2.689 -0.088 0.013 -0.162 -2.662 -0.519 -4.723 -0.156 -0.3 0.033 -0.674 0.372 -0.139 0.439 0.104 0.104 1.061 0.222" />
    <path class="write-flat-pen" transform="translate(321.055,-153.206)" fill="#FFFFFF" stroke-width="1.6" __comx="577.782" __comy="465.671" __timestamp="0x178aaa4417b" d="M250.023 612.897 l0.501 -2.097 0.044 -0.091 0.934 -1.317 1.455 -1.037 2.083 -0.613 1.504 0.045 2.107 0.706 1.822 1.393 1.389 2.143 0.773 2.848 0.087 2.423 -0.549 3.379 -0.978 2.836 -1.645 2.888 -1.403 1.393 -1.789 0.849 -2.019 0.255 -1.533 -0.345 -1.03 -0.691 -0.651 -1.024 -0.172 -1.402 0.524 -1.9 0.888 -1.324 1.497 -1.128 1.81 -0.605 1.806 0.027 1.642 0.594 1.589 1.202 2.062 1.632 0.084 -0.078 -1.51 -2.217 -1.634 -1.55 -2.016 -0.752 -2.206 -0.037 -2.184 0.727 -1.808 1.365 -1.104 1.647 -0.634 2.309 0.235 1.896 0.928 1.453 1.417 0.944 1.945 0.434 2.405 -0.309 2.13 -1.02 1.647 -1.645 1.773 -3.117 1.04 -3.031 0.572 -3.588 -0.105 -2.662 -0.857 -3.139 -1.6 -2.443 -2.13 -1.602 -2.436 -0.786 -1.828 -0.022 -2.38 0.777 -1.652 1.304 -0.945 1.58 -0.081 0.233 -0.238 2.214" />
    <path class="write-flat-pen" transform="translate(321.055,-153.206)" fill="#FFFFFF" stroke-width="1.6" __comx="592.014" __comy="465.671" __timestamp="0x178aaa4448f" d="M267.03 628.514 l-0.713 3.451 -0.015 0.079 0.707 0.06 0.419 -7.308 0.042 -0.333 0.503 -3.022 0.517 -0.798 0.683 -0.232 1.009 0.16 0.919 0.668 0.269 0.682 -0.18 0.665 0 0 -1.578 1.137 0 0 0.166 1.062 2.973 0.988 1.23 0.881 0.417 0.901 -0.08 1.046 -0.773 1.377 -1.053 0.894 -1.764 0.698 -1.713 0.071 -0.986 -0.341 -0.591 -0.674 -0.047 -0.049 -0.499 -1.731 -0.116 0.007 -0.295 1.778 -0.025 0.329 0.782 1.361 1.588 0.581 2.17 -0.099 2.142 -0.868 1.362 -1.177 0.999 -1.802 0.121 -1.622 -0.684 -1.468 -1.63 -1.174 -3.143 -1.054 0.166 1.062 0 0 1.899 -1.413 0 0 0.361 -1.449 -0.553 -1.334 -1.414 -1.009 -1.558 -0.231 -1.3 0.475 -0.808 1.323 -0.473 3.268 -0.04 0.391 -0.141 7.355 0.707 0.06 0.004 -0.068 0.442 -3.483" />
    <path class="write-flat-pen" transform="translate(321.055,-153.206)" fill="#FFFFFF" stroke-width="1.6" __comx="609.934" __comy="465.671" __timestamp="0x178aaa4471d" d="M292.325 612.909 l0.252 -1.326 -0.659 -0.822 -1.647 -0.091 -2.322 0.807 -1.793 1.26 -1.228 1.642 -0.246 1.314 0.715 1.062 5.463 0.949 1.324 0.569 0.782 0.887 0.195 0.955 -0.356 1.136 -1.113 1.229 -1.607 0.966 -2.307 0.688 -2.271 0.155 -1.014 -0.367 -0.074 0.455 -0.049 -0.085 0.308 -1.01 -0.072 -0.06 -0.977 0.522 -0.272 0.259 -0.088 0.593 1.954 1.115 2.807 -0.206 2.616 -0.802 1.914 -1.18 1.417 -1.615 0.508 -1.743 -0.371 -1.598 -1.207 -1.311 -1.705 -0.72 -5.099 -0.876 -0.161 -0.231 0.097 -0.567 0.937 -1.29 1.498 -1.101 1.971 -0.782 1.08 -0.058 0.266 0.196 -0.069 1.001" />
    <path class="write-flat-pen" transform="translate(321.055,-153.206)" fill="#FFFFFF" stroke-width="1.6" __comx="620.325" __comy="465.671" __timestamp="0x178aaa44917" d="M296.471 632.365 l-0.803 0.272 0.43 0.148 -0.023 -0.087 -0.24 -3.513 0.004 -0.45 0.35 -3.764 0.798 -3.044 0.854 -1.324 1.075 -0.786 1.372 -0.341 1.083 0.195 0.792 0.618 0.266 0.652 -0.149 1.143 -0.81 1.148 -1.313 0.829 -1.039 0.229 -0.233 -0.068 -0.098 0.178 0.008 -0.132 0.222 -1.375 -0.094 -0.045 -0.925 1.041 -0.131 0.161 -0.195 0.512 1.076 1.126 1.907 -0.438 1.696 -1.106 1.1 -1.617 0.191 -1.759 -0.526 -1.214 -1.263 -0.97 -1.606 -0.283 -1.828 0.463 -1.421 1.055 -1.043 1.666 -0.806 3.318 -0.249 3.905 0.018 0.535 0.518 3.633 0.094 0.171 0.43 0.148 0.681 -0.505" />
    <path class="write-flat-pen" transform="translate(321.055,-153.206)" fill="#FFFFFF" stroke-width="1.6" __comx="643.339" __comy="465.671" __timestamp="0x178aaa44a6c" d="M317.544 612.487 l6.73 0.07 2.748 -0.268 0.002 -0.139 -2.742 -0.351 -6.734 -0.002" />
    <path class="write-flat-pen" transform="translate(321.055,-153.206)" fill="#FFFFFF" stroke-width="1.6" __comx="644.524" __comy="465.671" __timestamp="0x178aaa44b4b" d="M318.294 617.676 l4.159 -0.119 0.441 -0.038 3.091 -0.317 2.699 -0.383 -0.003 -0.092 -2.727 -0.202 -3.13 0.043 -0.442 0.041 -4.129 0.396" />
    <path class="write-flat-pen" transform="translate(321.055,-153.206)" fill="#FFFFFF" stroke-width="1.6" __comx="670.59" __comy="460.56" __timestamp="0x178aaa45e0b" d="M345.62 624.229 l0.095 1.945 0.002 0.022 0.003 0.019 0.004 0.43 0.744 -0.161 0.003 -0.131 -0.586 -2.714 -0.119 -0.457 -1.366 -5.524 -0.488 -4.064 0.288 -3.675 0.894 -3.061 1.107 -2.131 1.009 -0.963 1.282 -0.492 1.549 0.137 1.565 0.727 2.461 1.942 2.323 1.526 0.093 -0.09 -1.497 -2.427 -2.571 -2.231 -1.981 -0.921 -2.16 -0.183 -1.879 0.739 -1.386 1.353 -1.252 2.488 -0.927 3.346 -0.247 3.954 0.589 4.265 1.547 5.571 0.14 0.453 0.822 2.58 0.026 0.068 0.744 -0.161 -0.237 -0.311 0.003 0.019 -0.003 -0.012 -0.37 -1.903" />
    <path class="write-flat-pen" transform="translate(321.055,-153.206)" fill="#FFFFFF" stroke-width="1.6" __comx="666.424" __comy="458.661" __timestamp="0x178aaa45f19" d="M339.734 612.027 l1.328 0.429 0.319 0.058 6.773 0.603 2.831 -0.021 0.019 -0.147 -2.747 -0.74 -6.76 -0.707 -0.261 -0.018 -1.339 -0.173" />
    <path class="write-flat-pen" fill="#FFFFFF" stroke-width="1.6" __comx="276.623" __comy="527.136" __timestamp="0x178aaa478b6" d="M289.387 527.184 l-1.277 0.179 -0.273 0.032 -5.361 0.321 -0.892 0.038 -6.134 0.133 -7.568 -0.408 -1.55 -0.315 -2.511 -0.708 -0.067 0.154 2.292 1.375 1.668 0.546 7.72 0.444 6.19 -0.195 0.921 -0.057 5.391 -0.597 0.32 -0.078 1.238 -0.423" />
    <path class="write-flat-pen" fill="#FFFFFF" stroke-width="1.6" __comx="265.184" __comy="524.325" __timestamp="0x178aaa47bd6" d="M262.213 526.616 l0.257 0.061 -0.246 -0.305 -0.029 0.057 -0.334 1.055 -0.05 0.235 -0.444 3.374 -0.014 0.101 0 0 1.042 -0.287 -2.011 -2.991 -1.435 -3.095 0.01 0.055 5.172 -0.782 5.366 -1.796 0.492 -0.245 0.435 -0.26 2.42 -1.434 -0.084 -0.199 -2.713 0.745 -0.479 0.128 -0.469 0.141 -5.297 1.499 -5.935 0.968 -0.344 1.296 1.747 3.625 2.187 3.001 1.042 -0.287 0 0 0 -0.092 0.162 -3.366 0.013 -0.2 0.068 -1.09 -0.006 -0.066 -0.246 -0.305 -0.261 0.042" />
    <path class="write-flat-pen" fill="#FFFFFF" stroke-width="1.6" __comx="176.399" __comy="529.638" __timestamp="0x178aaa480a2" d="M192.498 530.604 l-0.147 -1.16 -0.113 -0.22 -0.973 -0.776 -0.439 -0.116 -5.15 0.502 -0.868 0.187 -6.01 1.047 -6.379 0.447 -9.564 -0.375 0.037 0.022 -2.53 -0.467 -0.063 0.169 2.22 1.301 0.113 0.05 9.797 0.66 6.538 -0.427 6.106 -1.102 0.832 -0.191 4.875 -0.748 0.097 -0.002 0.82 0.352 -0.003 -0.041 0.376 0.992" />
    <path class="write-flat-pen" fill="#FFFFFF" stroke-width="1.6" __comx="164.496" __comy="527.212" __timestamp="0x178aaa483bf" d="M160.674 530.708 l-1.095 -1.087 -0.387 0.04 -0.711 0.761 0.041 2.002 0.842 2.372 1.099 1.267 1.28 -0.052 0.352 -1.458 -3.105 -6.657 0 0.086 4.1 -1.497 5.752 -3.047 0.228 -0.156 2.378 -1.571 -0.117 -0.259 -2.749 0.749 -0.295 0.08 -5.797 2.84 -4.699 1.802 -0.248 1.123 3.19 6.656 -0.005 0.107 0.251 0.006 -0.604 -0.633 -0.798 -1.982 -0.161 -1.479 0.177 -0.345 -0.241 0.021 1.014 0.678" />
    <path class="write-flat-pen" fill="#8F3AC9" stroke-width="1.6" __comx="263.647" __comy="587.644" __timestamp="0x178aaa51f36" d="M279.026 605.339 l-1.104 -0.464 -0.128 -0.105 -2.15 -2.215 -0.418 -0.486 -14.667 -17.904 -9.326 -12.3 -0.272 -0.326 -0.257 -0.285 -2.334 -2.606 -0.102 0.076 1.824 2.985 0.199 0.326 0.231 0.356 9.07 12.533 14.907 17.781 0.491 0.504 2.444 2.037 0.271 0.142 1.272 0.147" />
    <path class="write-flat-pen" fill="#8F3AC9" stroke-width="1.6" __comx="251.793" __comy="566.616" __timestamp="0x178aaa521af" d="M247.443 569.032 l-0.622 -0.443 -0.398 0.151 -1.272 3.139 0 0 -0.059 0.358 0 0 -0.208 1.939 0 0 1.038 0.123 1.111 -6.457 -0.097 -4.905 -0.081 0.076 7.928 2.312 0.517 0.108 3.351 0.712 0.049 -0.152 -3.127 -1.399 -0.489 -0.22 -8.407 -2.726 -0.967 0.629 0.161 5.486 -0.98 6.368 1.038 0.123 0 0 0.079 -1.917 0 0 0.027 -0.243 0 0 0.914 -3.171 -0.398 0.151 0.703 0.297" />
    <path class="write-flat-pen" fill="#8F3AC9" stroke-width="1.6" __comx="298.971" __comy="611.82" __timestamp="0x178aaa5254a" d="M302.993 612.206 l-0.12 -1.515 -0.059 -0.179 -1.928 -2.322 -0.576 -0.183 -1.831 -0.084 -2.286 0.841 -2.207 1.837 -2.211 3.232 -1.319 3.432 -0.419 3.429 0.545 2.606 1.228 2.24 1.927 1.713 2.679 0.952 3.054 -0.163 2.987 -1.039 2.438 -1.652 2.035 -2.44 0.873 -2.24 0.102 -2.576 -0.876 -2.797 -1.87 -2.779 -3.435 -3.406 -2.891 -1.752 -2.006 0.853 -0.345 0.526 -0.27 1.17 -0.084 2.425 0.127 0.025 0.818 -2.21 0.465 -0.838 0.072 -0.031 1.039 -0.22 2.079 1.317 3.196 3.164 1.66 2.454 0.74 2.314 -0.065 2.045 -0.672 1.77 -1.721 2.097 -2.089 1.439 -2.598 0.928 -2.555 0.154 -2.145 -0.751 -1.54 -1.355 -1.017 -1.834 -0.461 -2.17 0.362 -3.027 1.187 -3.125 1.996 -2.957 1.867 -1.603 1.823 -0.736 1.432 -0.014 0.135 0.025 1.858 1.743 -0.005 -0.035 0.443 1.387" />
    <path class="write-flat-pen" fill="#8F3AC9" stroke-width="1.6" __comx="304.614" __comy="619.103" __timestamp="0x178aaa52e2f" d="M296.79 621.046 l0.089 -1.415 -0.019 0.09 2.148 -1.89 0.058 -0.017 1.674 -0.194 1.773 0.471 4.298 4.041 3.056 0.951 0.435 -0.093 2.798 -0.696 -0.012 -0.105 -2.882 -0.068 -0.22 -0.021 -2.496 -1.074 -4.37 -4.046 -2.312 -0.565 -2.027 0.31 -0.392 0.161 -2.202 2.431 -0.061 0.225 0.258 1.529" />
    <path class="write-flat-pen" fill="#8F3AC9" stroke-width="1.6" __comx="313.831" __comy="622.958" __timestamp="0x178aaa530fe" d="M314.441 623.451 l-0.781 -0.665 -0.219 -0.008 -1.604 0.343 -1.304 1.239 -0.377 1.802 0.603 1.375 1.53 0.855 2.052 -0.36 1.774 -1.329 1.217 -2.111 0.173 -1.889 -0.955 -1.482 -2.182 -0.187 -1.803 1.341 0.046 0.101 1.911 -0.345 1.233 0.319 0.376 0.591 -0.092 1.147 -0.919 1.644 -1.305 1.014 -1.325 0.268 -0.826 -0.423 -0.328 -0.673 0.179 -1.145 0.819 -0.911 1.209 -0.45 -0.079 -0.009 0.789 0.266" />
    <path class="write-flat-pen" fill="#8F3AC9" stroke-width="1.6" __comx="325.672" __comy="674.019" __timestamp="0x178aaa536a8" d="M334.07 663.527 l-1.33 -2.694 -0.262 -0.504 -4.582 -7.409 -0.513 -0.806 -3.762 -6.199 -1.93 -1.995 -1.086 0.845 0.31 3.603 0 0 -0.374 0.632 0 0 0.992 -0.021 -1.413 -2.237 0 0 -1.617 -4.451 0 0 0.121 -0.82 -0.96 0.441 4.342 2.891 4.144 1.595 0.468 0.11 3.353 0.782 0.034 -0.098 -3.12 -1.457 -0.404 -0.191 -3.87 -1.858 -4.26 -2.809 -0.96 0.441 -0.12 1.114 0 0 1.787 4.835 0 0 1.495 2.336 0.992 -0.021 0 0 0.544 -0.951 0 0 -0.279 -3.337 -0.229 0.18 1.127 1.153 3.806 6.04 0.536 0.803 4.85 7.209 0.288 0.468 1.625 2.527" />
    <path class="write-flat-pen" fill="#8F3AC9" stroke-width="1.6" __comx="349.898" __comy="674.019" __timestamp="0x178aaa53983" d="M355.23 671.302 l-0.379 -1.656 -0.177 -0.312 -1.456 -1.667 -2.36 -1.151 -2.667 -0.311 -2.105 0.551 -1.855 1.399 -1.361 2.124 -0.865 3.156 0.121 3.488 0.943 2.966 1.681 2.541 2.082 1.595 2.175 0.624 2.378 -0.393 2.816 -1.683 1.793 -2.047 1.234 -2.661 0.563 -3.362 -0.498 -2.783 -1.503 -2.569 -1.791 -1.611 -2.212 -0.914 -2.148 0.199 -2.666 2.357 -0.268 0.483 -0.551 1.54 -0.76 3.064 0.077 0.028 1.395 -2.799 0.766 -1.334 0.183 -0.237 2.377 -1.722 1.363 -0.087 1.654 0.68 1.437 1.288 1.261 2.147 0.412 2.28 -0.485 2.922 -1.062 2.296 -1.505 1.721 -2.386 1.428 -1.789 0.297 -1.603 -0.459 -1.676 -1.282 -1.439 -2.173 -0.825 -2.587 -0.105 -3.073 0.75 -2.736 1.102 -1.729 1.423 -1.089 1.583 -0.439 2.203 0.196 2.01 0.852 1.388 1.284 0.096 0.114 0.67 1.437" />
    <path class="write-flat-pen" fill="#8F3AC9" stroke-width="1.6" __comx="351.779" __comy="674.019" __timestamp="0x178aaa53ae1" d="M348.072 681.78 l-0.521 -2.404 -0.003 0.048 0.56 -0.591 0.839 -0.066 1.479 0.645 2.106 2.077 3.382 5.244 1.001 -0.643 -3.439 -5.373 -2.399 -2.295 -1.98 -0.784 -1.517 0.242 -0.85 1.13 -0.088 0.38 0.906 2.541" />
    <path class="write-flat-pen" fill="#8F3AC9" stroke-width="1.6" __comx="365.022" __comy="674.019" __timestamp="0x178aaa53b96" d="M364.314 682.426 l0.697 4.575 0.644 3.038 0.076 -0.01 -0.138 -3.11 -0.722 -4.579" />
    <path class="write-flat-pen" fill="#8F3AC9" stroke-width="1.6" __comx="262.878" __comy="384.913" __timestamp="0x178aaa53edd" d="M279.044 381.908 l-7.898 6.13 -21.728 19.029 -0.327 0.233 -2.697 1.912 0.034 0.054 2.876 -1.631 0.377 -0.215 21.947 -18.802 7.737 -6.308" />
    <path class="write-flat-pen" fill="#8F3AC9" stroke-width="1.6" __comx="254.062" __comy="384.913" __timestamp="0x178aaa540ee" d="M247.952 408.146 l-0.764 -0.965 -0.153 -1.705 0.699 -2.096 1.681 -2.169 0 0 1.411 -0.806 0 0 -0.78 -0.682 -2.522 5.061 -0.212 1.795 0.937 1.56 2.004 1.246 7.487 1.798 0.51 0.082 3.42 0.56 0.029 -0.102 -3.192 -1.349 -0.487 -0.206 -7.212 -2.079 -1.556 -0.949 -0.545 -0.872 0.108 -1.119 2.203 -4.967 -0.78 -0.682 0 0 -1.456 1.044 0 0 -1.741 2.496 -0.619 2.393 0.357 1.937 0.958 0.966" />
    <path class="write-flat-pen" fill="#8F3AC9" stroke-width="1.6" __comx="299.239" __comy="384.913" __timestamp="0x178aaa54345" d="M299.776 369.619 l0.143 -0.607 0 0 -0.559 -0.059 -0.534 8.033 -0.035 0.894 -0.225 6.555 -0.009 0.565 0.075 0.051 0.634 -0.381 0.448 -6.751 0.025 -0.898 0.184 -8.044 -0.559 -0.059 0 0 -0.061 0.621" />
    <path class="write-flat-pen" fill="#8F3AC9" stroke-width="1.6" __comx="301.653" __comy="384.913" __timestamp="0x178aaa544e9" d="M296.942 368.502 l-0.852 -1.729 0.015 -0.089 0.531 -1.888 1.509 -2.194 1.803 -1.461 2.473 -0.974 1.804 -0.078 1.343 0.496 0.89 0.954 0.313 1.31 -0.323 1.535 -1.154 1.857 -1.672 1.368 -3.335 1.106 0 0 -0.101 1.209 0.616 0.142 0.342 0.094 0.339 0.063 2.057 0.38 0.037 -0.101 -1.822 -1.028 -0.276 -0.16 -0.25 -0.161 -0.45 -0.399 -0.101 1.209 0 0 3.64 -1.071 2.062 -1.706 1.395 -2.277 0.426 -2.086 -0.48 -1.968 -1.367 -1.457 -1.914 -0.701 -2.313 0.11 -2.874 1.164 -2.082 1.759 -1.634 2.594 -0.435 2.254 0.028 0.473 1.274 1.775" />
    <path class="write-flat-pen" fill="#8F3AC9" stroke-width="1.6" __comx="311.499" __comy="384.913" __timestamp="0x178aaa54682" d="M313.079 381.29 l-1.565 -1.679 -0.279 -0.168 -1.583 -0.44 -1.504 0.541 -0.894 1.343 0.04 1.816 0.942 1.642 1.67 1.004 2.115 -0.082 1.983 -1.27 1.375 -2.013 0.364 -1.841 -0.741 -1.498 -1.507 -0.636 -2.174 0.902 -1.492 1.992 0.053 0.056 1.933 -1.225 1.623 -0.382 0.614 0.29 0.335 0.682 -0.223 1.153 -1.071 1.587 -1.467 0.964 -1.407 0.073 -1.098 -0.635 -0.659 -1.099 -0.056 -1.161 0.469 -0.77 0.85 -0.369 1.185 0.218 0.09 0.037 1.714 1.362" />
    <path class="write-flat-pen" fill="#8F3AC9" stroke-width="1.6" __comx="346.3" __comy="331.772" __timestamp="0x178aaa5494e" d="M359.218 335.012 l0.252 -2.045 -0.303 -0.299 -0.193 -0.01 -2.615 2.486 -0.655 0.75 -6.62 7.29 -13.346 11.802 -2.609 2.312 0.101 0.144 3.107 -1.693 13.505 -11.798 6.601 -7.41 0.626 -0.756 2.183 -2.526 -0.05 -0.019 -0.303 -0.299 0.062 2.059" />
    <path class="write-flat-pen" fill="#8F3AC9" stroke-width="1.6" __comx="340.841" __comy="331.772" __timestamp="0x178aaa54b2d" d="M338.336 349.45 l-0.545 -1.422 0 0 0.157 -1.426 0 0 0.464 -0.34 0 0 -0.782 -0.414 -0.297 1.981 -1.896 4.601 0.037 1.663 1.257 1.307 6.04 2.249 3.413 0.717 0.059 -0.176 -3.125 -1.49 -5.67 -2.386 -0.774 -0.744 -0.071 -0.94 1.738 -4.539 0.225 -2.123 -0.782 -0.414 0 0 -0.652 0.646 0 0 -0.083 1.959 0 0 0.771 1.522" />
    <path class="write-flat-pen" fill="#8F3AC9" stroke-width="1.6" __comx="374.553" __comy="331.772" __timestamp="0x178aaa54cef" d="M375.015 312.201 l-0.064 2.268 -0.013 0.571 0 0 -0.313 6.255 -1.447 9.15 0 0 1.143 0.317 0.448 -1.534 0.122 -0.575 0.25 -1.305 0.425 -2.721 -0.109 -0.027 -0.883 2.601 -0.447 1.237 -0.191 0.503 -0.723 1.375 1.143 0.317 0 0 1.498 -9.222 0.073 -6.363 0 0 -0.029 -0.605 -0.251 -2.268" />
    <path class="write-flat-pen" fill="#8F3AC9" stroke-width="1.6" __comx="379.514" __comy="331.772" __timestamp="0x178aaa54e8a" d="M373.943 313.132 l-0.178 -0.665 -0.008 0.145 1.576 -1.864 0.257 -0.218 2.537 -1.727 2.771 -0.935 1.919 -0.001 1.161 0.526 0.663 0.964 0.032 1.094 -0.582 1.304 -1.686 1.707 -2.211 1.236 -5.433 1.248 0.088 1.539 0.493 0.353 0.309 0.146 1.813 0.848 0.092 -0.124 -1.328 -1.497 -0.197 -0.232 0.056 -0.024 0.154 0.235 4.521 -1.023 2.587 -1.476 2.015 -2.077 0.809 -1.88 -0.084 -1.864 -1.154 -1.636 -1.815 -0.809 -2.467 0.022 -3.165 1.119 -2.695 1.982 -0.386 0.372 -1.509 2.325 -0.049 0.375 0.623 0.773" />
    <path class="write-flat-pen" fill="#8F3AC9" stroke-width="1.6" __comx="386.757" __comy="331.772" __timestamp="0x178aaa54f66" d="M388.287 320.823 l-1.215 2.067 -0.233 0.591 -1.946 7.782 -0.378 3.382 0.188 0.04 1.028 -3.22 2.211 -7.636 0.162 -0.496 0.893 -2.156" />
    <path class="write-flat-pen" fill="#8F3AC9" stroke-width="1.6" __comx="358.434" __comy="424.048" __timestamp="0x178aaa5852d" d="M322.673 388.795 l-0.381 -1.065 0.498 -0.932 1.374 -0.816 3.168 -0.609 4.125 0.258 4.71 1.148 11.789 4.277 8.664 3.859 6.659 3.707 5.197 3.797 5.316 5.08 9.044 11.67 4.505 6.748 2.139 4.232 2.01 6.173 1.515 7.281 0.827 8.481 0.162 11.954 -0.574 11.919 -1.74 11.435 -4.035 16.181 -6.471 22.29 -3.829 11.286 -4.892 10.97 -4.691 8.875 -5.948 9.528 -8.455 10.799 -7.364 8.329 -11.924 12.053 -3.336 2.759 -3.459 1.56 -2.041 0.335 -0.355 -0.693 0 0 -0.281 -6.456 0 0 -1.241 0.085 0.65 7.75 0.701 1.55 6.584 0.505 3.345 -0.115 0.013 -0.118 -3.244 -0.869 -5.817 -0.652 -0.318 -0.639 -0.674 -7.52 -1.241 0.085 0 0 0.389 6.705 0 0 0.87 1.631 2.989 -0.501 3.728 -1.685 3.5 -2.885 11.977 -12.123 7.405 -8.379 8.504 -10.877 6 -9.612 4.724 -8.944 4.928 -11.05 3.859 -11.356 6.476 -22.337 4.032 -16.255 1.745 -11.541 0.561 -12.007 -0.189 -12.029 -0.865 -8.575 -1.557 -7.382 -2.062 -6.289 -2.205 -4.345 -4.558 -6.821 -9.107 -11.753 -5.414 -5.17 -5.297 -3.865 -6.752 -3.744 -8.745 -3.859 -11.887 -4.237 -4.833 -1.127 -4.292 -0.213 -3.355 0.742 -1.549 1.044 -0.546 1.286 0.531 1.205" />
  </g>
</svg>
