<svg class="write-page" color-interpolation="linearRGB" width="1010px" height="1628px" xmlns="http://www.w3.org/2000/svg" xmlns:xlink="http://www.w3.org/1999/xlink">
  <g class="write-content write-v3" width="1010" height="1628" xruling="35" yruling="35" marginLeft="35" papercolor="#1B1C1C" rulecolor="#7F0000FF">
    <g class="ruleline write-std-ruling write-scale-down" fill="none" stroke="#0000FF" stroke-opacity="0.498" stroke-width="1" shape-rendering="crispEdges" vector-effect="non-scaling-stroke">
      <rect class="pagerect" fill="#1B1C1C" stroke="none" x="0" y="0" width="1010" height="1628" />
      <path class="yrule_1" d="M0 35 l1010 0" />
      <path d="M0 70 l1010 0" />
      <path d="M0 105 l1010 0" />
      <path d="M0 140 l1010 0" />
      <path d="M0 175 l1010 0" />
      <path d="M0 210 l1010 0" />
      <path d="M0 245 l1010 0" />
      <path d="M0 280 l1010 0" />
      <path d="M0 315 l1010 0" />
      <path d="M0 350 l1010 0" />
      <path d="M0 385 l1010 0" />
      <path d="M0 420 l1010 0" />
      <path d="M0 455 l1010 0" />
      <path d="M0 490 l1010 0" />
      <path d="M0 525 l1010 0" />
      <path d="M0 560 l1010 0" />
      <path d="M0 595 l1010 0" />
      <path d="M0 630 l1010 0" />
      <path d="M0 665 l1010 0" />
      <path d="M0 700 l1010 0" />
      <path d="M0 735 l1010 0" />
      <path d="M0 770 l1010 0" />
      <path d="M0 805 l1010 0" />
      <path d="M0 840 l1010 0" />
      <path d="M0 875 l1010 0" />
      <path d="M0 910 l1010 0" />
      <path d="M0 945 l1010 0" />
      <path d="M0 980 l1010 0" />
      <path d="M0 1015 l1010 0" />
      <path d="M0 1050 l1010 0" />
      <path d="M0 1085 l1010 0" />
      <path d="M0 1120 l1010 0" />
      <path d="M0 1155 l1010 0" />
      <path d="M0 1190 l1010 0" />
      <path d="M0 1225 l1010 0" />
      <path d="M0 1260 l1010 0" />
      <path d="M0 1295 l1010 0" />
      <path d="M0 1330 l1010 0" />
      <path d="M0 1365 l1010 0" />
      <path d="M0 1400 l1010 0" />
      <path d="M0 1435 l1010 0" />
      <path d="M0 1470 l1010 0" />
      <path d="M0 1505 l1010 0" />
      <path d="M0 1540 l1010 0" />
      <path d="M0 1575 l1010 0" />
      <path d="M0 1610 l1010 0" />
      <path class="xrule_1" d="M35 0 l0 1628" />
      <path d="M70 0 l0 1628" />
      <path d="M105 0 l0 1628" />
      <path d="M140 0 l0 1628" />
      <path d="M175 0 l0 1628" />
      <path d="M210 0 l0 1628" />
      <path d="M245 0 l0 1628" />
      <path d="M280 0 l0 1628" />
      <path d="M315 0 l0 1628" />
      <path d="M350 0 l0 1628" />
      <path d="M385 0 l0 1628" />
      <path d="M420 0 l0 1628" />
      <path d="M455 0 l0 1628" />
      <path d="M490 0 l0 1628" />
      <path d="M525 0 l0 1628" />
      <path d="M560 0 l0 1628" />
      <path d="M595 0 l0 1628" />
      <path d="M630 0 l0 1628" />
      <path d="M665 0 l0 1628" />
      <path d="M700 0 l0 1628" />
      <path d="M735 0 l0 1628" />
      <path d="M770 0 l0 1628" />
      <path d="M805 0 l0 1628" />
      <path d="M840 0 l0 1628" />
      <path d="M875 0 l0 1628" />
      <path d="M910 0 l0 1628" />
      <path d="M945 0 l0 1628" />
      <path d="M980 0 l0 1628" />
      <path class="leftmargin" stroke="#FF0000" d="M35 0 l0 1628" />
    </g>
  </g>
</svg>
