<svg class="write-page" color-interpolation="linearRGB" width="1010px" height="1628px" xmlns="http://www.w3.org/2000/svg" xmlns:xlink="http://www.w3.org/1999/xlink">
  <g class="write-content write-v3" width="1010" height="1628" xruling="30" yruling="30" marginLeft="30" papercolor="#1B1C1C" rulecolor="#3A00F9FF">
    <g class="ruleline write-std-ruling write-scale-down" fill="none" stroke="#00F9FF" stroke-opacity="0.227" stroke-width="1" shape-rendering="crispEdges" vector-effect="non-scaling-stroke">
      <rect class="pagerect" fill="#1B1C1C" stroke="none" x="0" y="0" width="1010" height="1628" />
      <path class="yrule_1" d="M0 30 l1010 0" />
      <path d="M0 60 l1010 0" />
      <path d="M0 90 l1010 0" />
      <path d="M0 120 l1010 0" />
      <path d="M0 150 l1010 0" />
      <path d="M0 180 l1010 0" />
      <path d="M0 210 l1010 0" />
      <path d="M0 240 l1010 0" />
      <path d="M0 270 l1010 0" />
      <path d="M0 300 l1010 0" />
      <path d="M0 330 l1010 0" />
      <path d="M0 360 l1010 0" />
      <path d="M0 390 l1010 0" />
      <path d="M0 420 l1010 0" />
      <path d="M0 450 l1010 0" />
      <path d="M0 480 l1010 0" />
      <path d="M0 510 l1010 0" />
      <path d="M0 540 l1010 0" />
      <path d="M0 570 l1010 0" />
      <path d="M0 600 l1010 0" />
      <path d="M0 630 l1010 0" />
      <path d="M0 660 l1010 0" />
      <path d="M0 690 l1010 0" />
      <path d="M0 720 l1010 0" />
      <path d="M0 750 l1010 0" />
      <path d="M0 780 l1010 0" />
      <path d="M0 810 l1010 0" />
      <path d="M0 840 l1010 0" />
      <path d="M0 870 l1010 0" />
      <path d="M0 900 l1010 0" />
      <path d="M0 930 l1010 0" />
      <path d="M0 960 l1010 0" />
      <path d="M0 990 l1010 0" />
      <path d="M0 1020 l1010 0" />
      <path d="M0 1050 l1010 0" />
      <path d="M0 1080 l1010 0" />
      <path d="M0 1110 l1010 0" />
      <path d="M0 1140 l1010 0" />
      <path d="M0 1170 l1010 0" />
      <path d="M0 1200 l1010 0" />
      <path d="M0 1230 l1010 0" />
      <path d="M0 1260 l1010 0" />
      <path d="M0 1290 l1010 0" />
      <path d="M0 1320 l1010 0" />
      <path d="M0 1350 l1010 0" />
      <path d="M0 1380 l1010 0" />
      <path d="M0 1410 l1010 0" />
      <path d="M0 1440 l1010 0" />
      <path d="M0 1470 l1010 0" />
      <path d="M0 1500 l1010 0" />
      <path d="M0 1530 l1010 0" />
      <path d="M0 1560 l1010 0" />
      <path d="M0 1590 l1010 0" />
      <path d="M0 1620 l1010 0" />
      <path class="xrule_1" d="M30 0 l0 1628" />
      <path d="M60 0 l0 1628" />
      <path d="M90 0 l0 1628" />
      <path d="M120 0 l0 1628" />
      <path d="M150 0 l0 1628" />
      <path d="M180 0 l0 1628" />
      <path d="M210 0 l0 1628" />
      <path d="M240 0 l0 1628" />
      <path d="M270 0 l0 1628" />
      <path d="M300 0 l0 1628" />
      <path d="M330 0 l0 1628" />
      <path d="M360 0 l0 1628" />
      <path d="M390 0 l0 1628" />
      <path d="M420 0 l0 1628" />
      <path d="M450 0 l0 1628" />
      <path d="M480 0 l0 1628" />
      <path d="M510 0 l0 1628" />
      <path d="M540 0 l0 1628" />
      <path d="M570 0 l0 1628" />
      <path d="M600 0 l0 1628" />
      <path d="M630 0 l0 1628" />
      <path d="M660 0 l0 1628" />
      <path d="M690 0 l0 1628" />
      <path d="M720 0 l0 1628" />
      <path d="M750 0 l0 1628" />
      <path d="M780 0 l0 1628" />
      <path d="M810 0 l0 1628" />
      <path d="M840 0 l0 1628" />
      <path d="M870 0 l0 1628" />
      <path d="M900 0 l0 1628" />
      <path d="M930 0 l0 1628" />
      <path d="M960 0 l0 1628" />
      <path d="M990 0 l0 1628" />
      <path class="leftmargin" stroke="#FF0000" d="M30 0 l0 1628" />
    </g>
    <path class="write-flat-pen" fill="#FFFFFF" stroke-width="1.6" __comx="69.057" __comy="51.187" __timestamp="0x1782a54524e" d="M61.614 34.854 l0.017 -0.605 0.003 0.008 0.063 -0.104 -0.011 0.172 -0.324 0.161 -0.209 -0.142 -0.023 0.093 0.006 0.124 0.092 0.844 0.032 0.374 0.322 7.185 -0.023 0.814 -0.6 9.744 0.051 3.512 0.33 1.537 0.88 0.804 1.405 0.152 6.077 -0.754 4.026 -0.042 0.191 0.016 0.95 0.096 0.142 0.006 0.336 -0.012 1.798 -0.216 0.01 -0.067 -1.651 -0.715 -0.287 -0.117 -0.123 -0.046 -0.951 -0.265 -0.308 -0.057 -4.221 -0.127 -6.004 0.746 -0.728 -0.073 -0.147 -0.131 -0.201 -0.911 -0.076 -3.306 0.506 -9.718 0.014 -0.894 -0.497 -7.282 -0.087 -0.457 -0.273 -0.902 -0.105 -0.217 -0.187 -0.249 -0.283 -0.208 -0.394 0.182 -0.036 0.26 0.055 0.202 0.004 0.025 0.157 0.596" />
    <path class="write-flat-pen" fill="#FFFFFF" stroke-width="1.6" __comx="85.716" __comy="51.187" __timestamp="0x1782a545460" d="M80.881 53.809 l0.098 0.391 0.13 0.113 0.442 0.274 0.207 0.07 0.789 0.143 0.29 0.002 1.398 -0.235 0.378 -0.126 1.461 -0.743 1.097 -1.019 0.749 -1.262 0.237 -1.314 -0.478 -1.091 -1.05 -0.679 -1.407 -0.284 -1.448 0.174 -1.278 0.621 -0.951 1.06 -0.651 1.484 -0.353 2.147 0.11 1.579 0.591 1.801 0.972 1.411 1.227 1 1.542 0.556 1.332 -0.024 1.882 -0.775 0.396 -0.265 0.638 -0.538 0.28 -0.295 0.248 -0.301 0.204 -0.307 0.926 -1.398 -0.048 -0.047 -1.372 0.964 -0.282 0.194 -0.287 0.182 -0.292 0.17 -0.66 0.343 -0.294 0.13 -1.603 0.501 -0.822 0.002 -1.063 -0.378 -0.875 -0.711 -0.738 -1.067 -0.474 -1.431 -0.087 -1.23 0.298 -1.801 0.484 -1.107 0.608 -0.677 0.806 -0.392 0.979 -0.119 0.915 0.183 0.467 0.295 0.145 0.305 -0.096 0.656 -0.491 0.91 -0.79 0.819 -1.188 0.711 -0.217 0.097 -1.207 0.355 -0.141 0.024 -0.681 0.017 -0.104 -0.003 -0.396 -0.069 0.013 0.033 -0.188 -0.191" />
    <path class="write-flat-pen" fill="#FFFFFF" stroke-width="1.6" __comx="105.228" __comy="51.187" __timestamp="0x1782a5456d5" d="M94.524 50.407 l0.144 0.443 0.016 0.078 0.166 0.669 0.05 0.245 0.214 1.26 0.05 0.364 0.217 2.045 0.029 0.39 0.018 3.179 0.053 -0.115 0 0 1.334 0.233 -0.187 -1.685 0.146 -2.197 0.515 -2.345 0.876 -2.238 0.587 -0.791 0.511 -0.341 0.529 -0.047 0.463 0.222 0.795 0.866 0.759 1.628 0 0 0.989 4.042 0 0 1.475 -0.068 0.436 -3.004 0.739 -2.261 0.615 -1 0.918 -0.799 1.053 -0.346 1.272 0.131 1.043 0.472 1.297 1.072 1.326 1.795 0.734 1.522 0.91 4.128 0.037 0.28 0.04 0.577 0.01 0.265 0.003 0.227 -0.001 0.222 -0.037 1.71 0.062 0.016 0.771 -1.527 0.109 -0.22 0.097 -0.257 0.096 -0.323 0.111 -0.67 0.018 -0.45 -0.836 -4.449 -0.88 -1.805 -1.514 -2.044 -1.587 -1.305 -1.435 -0.639 -1.804 -0.185 -1.62 0.526 -1.308 1.131 -0.82 1.333 -0.84 2.533 -0.506 3.115 1.475 -0.068 0 0 -1.067 -4.169 0 0 -0.922 -1.957 -1.143 -1.231 -1.07 -0.508 -1.289 0.111 -1.029 0.685 -0.854 1.146 -0.989 2.525 -0.56 2.563 -0.161 2.441 0.236 1.815 1.334 0.233 0 0 0.1 -0.209 -0.199 -3.576 -0.061 -0.455 -0.376 -2.067 -0.091 -0.399 -0.365 -1.274 -0.104 -0.286 -0.325 -0.665 -0.067 -0.108 -0.307 -0.385" />
    <path class="write-flat-pen" fill="#FFFFFF" stroke-width="1.6" __comx="144.565" __comy="51.187" __timestamp="0x1782a545a11" d="M143.064 29.817 l0.111 -0.421 0.008 -0.097 -0.114 -0.365 -0.35 0.003 -0.28 0.115 -0.171 0.135 -0.502 0.557 -0.214 0.312 -0.996 1.962 -0.277 0.724 -0.969 3.461 -0.848 5.688 -0.121 4.803 0.375 3.478 0.931 4.11 1.001 2.484 1.44 2.107 3.049 2.452 0.702 0.344 1.337 0.482 0.687 0.164 0.714 0.09 0.6 0.01 1.597 0.03 0.016 -0.098 -1.52 -0.49 -0.547 -0.181 -0.618 -0.223 -0.573 -0.248 -1.186 -0.595 -0.521 -0.308 -2.716 -2.352 -1.223 -1.839 -0.892 -2.246 -0.88 -3.924 -0.354 -3.305 0.111 -4.624 0.796 -5.527 0.862 -3.348 0.213 -0.629 0.805 -1.925 0.121 -0.248 0.302 -0.57 0.018 -0.065 -0.019 -0.061 -0.264 -0.006 -0.017 -0.194 0.009 -0.053 0.045 0.407" />
    <path class="write-flat-pen" fill="#FFFFFF" stroke-width="1.6" __comx="172.877" __comy="51.187" __timestamp="0x1782a546186" d="M176.109 36.89 l0.41 -0.595 0.069 -0.097 0.238 -0.514 0.014 -0.149 -0.101 -0.6 -0.145 -0.216 -0.565 -0.453 -0.388 -0.106 -1.837 0.189 -0.62 0.213 -2.446 1.267 -1.765 1.446 -1.575 1.971 -1.399 2.369 -1.071 2.591 -0.525 2.601 -0.076 2.501 0.401 2.425 0.834 2.309 1.15 2.014 1.449 1.568 1.694 1.044 1.787 0.444 1.407 -0.091 2.106 -0.74 1.993 -1.304 1.592 -1.655 1.529 -2.448 0.892 -2.626 0.262 -2.111 -0.313 -2.336 -0.973 -2.392 -1.4 -2.215 -2.152 -2.622 -2.943 -2.326 -0.632 0.805 0.106 0.549 0.143 0.258 0.171 0.238 0.202 0.263 0.244 0.296 0.826 1.004 0.045 -0.023 -0.312 -1.262 -0.086 -0.361 -0.056 -0.293 -0.02 -0.232 0.027 -0.101 0.088 0.129 -0.557 0.716 1.648 1.447 1.996 2.428 1.274 2.018 0.856 2.079 0.269 1.943 -0.213 1.758 -0.786 2.308 -1.348 2.166 -1.358 1.421 -1.691 1.115 -1.735 0.62 -0.969 0.07 -1.337 -0.323 -1.323 -0.814 -1.2 -1.294 -1.019 -1.753 -0.772 -2.058 -0.385 -2.153 0.057 -2.243 0.469 -2.356 0.967 -2.385 1.287 -2.211 1.418 -1.793 1.542 -1.281 2.227 -1.2 0.408 -0.159 1.486 -0.294 0.008 -0.018 0.348 0.142 -0.022 -0.056 0.173 0.276 0.011 -0.066 -0.04 0.419 -0.018 0.059 -0.278 0.669" />
    <path class="write-flat-pen" fill="#FFFFFF" stroke-width="1.6" __comx="197.507" __comy="51.187" __timestamp="0x1782a546514" d="M190.296 68.83 l-0.144 1.24 -0.022 0.255 -0.175 1.615 -0.003 -0.018 0.537 -0.048 -0.628 -0.755 -0.118 -0.28 -1.295 -4.692 -0.1 -0.672 -0.607 -5.924 -0.262 -5.642 0.122 -4.25 0.306 -1.609 0.397 -0.748 0.668 -0.453 0.736 -0.115 1.491 0.251 1.448 0.601 1.279 0.881 1.319 1.361 0.663 1.169 0.414 1.762 -0.136 1.722 -0.425 1.203 -0.988 1.503 -0.913 0.882 -1.376 0.82 0 0 -1.045 0.302 0 0 0.895 0.548 0.064 0.31 4.382 -2.174 3.101 -1.893 2.165 -1.718 1.323 -1.559 0.735 -1.46 0.246 -1.591 -0.289 -1.122 -0.872 -1.173 -0.935 -0.36 -1.006 0.465 -0.688 1.51 -0.215 1.548 0.167 2.244 0.541 2.193 0.812 1.783 1.27 1.673 1.012 0.674 1.389 0.278 1.222 -0.327 0.342 -0.211 0.461 -0.433 0.223 -0.284 0.166 -0.282 0.149 -0.319 0.664 -1.43 -0.055 -0.041 -1.184 1.041 -0.25 0.214 -0.2 0.155 -0.201 0.124 -0.418 0.205 -0.132 0.032 -0.786 0.095 -0.812 -0.189 -0.572 -0.384 -1.025 -1.348 -0.695 -1.511 -0.489 -1.941 -0.151 -1.968 0.162 -1.187 0.38 -0.83 -0.034 0.017 -0.026 -0.008 0.455 0.611 0.147 0.56 -0.163 1.073 -0.556 1.103 -1.119 1.324 -1.979 1.581 -2.975 1.809 -5.285 2.633 0.144 0.744 0.895 0.548 0 0 1.209 -0.369 0 0 1.66 -1 1.136 -1.103 1.156 -1.777 0.532 -1.532 0.157 -2.113 -0.52 -2.153 -0.853 -1.477 -1.534 -1.57 -1.505 -1.031 -1.722 -0.698 -1.844 -0.293 -1.227 0.193 -1.169 0.803 -0.624 1.206 -0.341 1.898 -0.098 4.396 0.31 5.723 0.74 5.974 0.137 0.757 1.485 4.767 0.225 0.463 0.843 0.751 0.537 -0.048 0.086 -0.148 0.028 -1.812 0 -0.258 -0.012 -1.246" />
    <path class="write-flat-pen" fill="#FFFFFF" stroke-width="1.6" __comx="218.533" __comy="51.187" __timestamp="0x1782a54668a" d="M212.818 52.607 l0.128 0.613 0.058 0.232 0.472 1.643 0.082 0.343 0.43 1.844 0.058 0.285 0.276 1.404 0.042 0.159 -0.009 -0.024 1.089 -0.15 0.107 -0.309 -0.029 -0.339 -0.874 -4.662 -0.253 -3.005 0.14 -2.001 0.484 -1.733 0.476 -0.77 0.586 -0.439 0.795 -0.2 0.99 0.181 2.271 1.332 0.34 0.262 0.736 0.59 0.31 0.257 0.586 0.503 0.258 0.231 0.481 0.465 0.208 0.214 1.176 1.216 0.015 -0.011 -0.809 -1.486 -0.149 -0.272 -0.365 -0.59 -0.211 -0.312 -0.489 -0.641 -0.285 -0.335 -0.679 -0.708 -0.391 -0.372 -2.484 -1.659 -1.547 -0.313 -1.378 0.336 -1.035 0.769 -0.727 1.172 -0.572 2.071 -0.144 2.255 0.277 3.187 0.966 4.671 0.03 0.155 0.064 0.191 1.089 -0.15 -0.009 -0.024 -0.035 -0.045 -0.429 -1.3 -0.086 -0.285 -0.582 -1.813 -0.112 -0.355 -0.624 -1.613 -0.097 -0.218 -0.264 -0.564" />
    <path class="write-flat-pen" fill="#FFFFFF" stroke-width="1.6" __comx="229.587" __comy="51.187" __timestamp="0x1782a546880" d="M232.046 52.872 l0.245 -0.79 0.042 -0.145 0.226 -1.312 -0.003 -0.281 -0.193 -1.037 -0.769 -1.035 -1.165 -0.652 -1.845 -0.398 -1.454 0.145 -1.3 0.594 -1.011 1.014 -0.668 1.252 -0.417 1.741 0.018 1.889 0.419 1.788 0.829 1.661 1.145 1.339 1.15 0.628 1.221 0.066 1.246 -0.5 1.041 -0.983 1.04 -1.814 0 0 0.629 -2.053 0 0 0.225 -2.211 0 0 -0.187 -0.985 0 0 -1.315 0.176 0.288 3.378 0.635 2.839 1.352 2.887 0.306 0.209 0.42 0.106 0.231 -0.037 1.004 -0.287 0.005 -0.052 -0.927 -0.48 -0.06 -0.066 -0.083 -0.127 0.058 0.007 -1.045 -2.574 -0.584 -2.626 -0.277 -3.289 -1.315 0.176 0 0 0.141 0.798 0 0 -0.196 1.89 0 0 -0.546 1.783 0 0 -0.867 1.512 -0.711 0.674 -0.734 0.302 -0.627 -0.028 -0.679 -0.362 -0.899 -1.024 -0.712 -1.374 -0.369 -1.502 -0.026 -1.596 0.337 -1.439 0.505 -0.951 0.725 -0.726 0.911 -0.417 1.062 -0.112 1.494 0.295 0.821 0.419 0.53 0.612 0.211 0.696 0.017 0.115 -0.052 1.212 -0.013 0.113 -0.088 0.825" />
    <path class="write-flat-pen" fill="#FFFFFF" stroke-width="1.6" __comx="240.712" __comy="51.187" __timestamp="0x1782a546970" d="M237.331 38.382 l0.761 2.02 2.5 10.456 2.587 8.554 0.163 0.155 0.128 0.036 0.59 0.094 0.033 -0.032 -0.076 -0.592 0.01 -0.085 0.039 -0.014 -2.388 -8.406 -2.591 -10.487 -0.902 -2.047" />
    <path class="write-flat-pen" fill="#FFFFFF" stroke-width="1.6" __comx="242.213" __comy="51.187" __timestamp="0x1782a546a4f" d="M235.827 49.949 l0.699 0.12 0.135 0.039 3.581 0.394 0.439 0.001 4.371 -0.213 0.349 -0.021 0.348 -0.022 0.36 -0.028 0.399 -0.014 0.373 -0.021 1.712 -0.095 0.004 -0.035 -1.655 -0.45 -0.359 -0.098 -0.404 -0.103 -0.38 -0.074 -0.359 -0.056 -0.39 -0.044 -4.392 0.078 -0.368 0.004 -3.497 -0.216 -0.155 -0.012 -0.769 0.042" />
    <path class="write-flat-pen" fill="#FFFFFF" stroke-width="1.6" __comx="253.936" __comy="51.187" __timestamp="0x1782a546b2c" d="M252.656 48.839 l0.516 2.184 0.066 0.333 1.258 5.862 0.673 1.623 0.046 -0.009 0.003 -1.758 -1.126 -5.893 -0.08 -0.361 -0.688 -2.165" />
    <path class="write-flat-pen" fill="#FFFFFF" stroke-width="1.6" __comx="253.267" __comy="51.187" __timestamp="0x1782a546bc9" d="M252.612 41.368 l0.637 1.115 0.11 0.233 0.531 1.199 0.032 -0.008 -0.117 -1.306 -0.033 -0.317 -0.558 -1.225" />
    <path class="write-flat-pen" fill="#FFFFFF" stroke-width="1.6" __comx="263.42" __comy="51.187" __timestamp="0x1782a546d41" d="M263.861 49.139 l-0.218 -0.814 -0.149 -0.15 -0.655 -0.334 -0.925 0.105 -1.034 0.785 -0.849 1.368 -0.537 1.723 -0.167 2.208 0.253 1.432 0.667 1.344 0.747 0.673 1.144 0.304 1.277 -0.309 1.231 -0.87 1.101 -1.32 1.055 -1.954 0.601 -1.914 0.112 -1.733 -0.33 -1.265 -0.874 -1.254 -1.017 -0.458 -0.383 0.041 -0.429 0.262 -0.195 0.241 -0.132 0.265 -0.091 0.3 -0.048 0.312 -0.18 1.24 0.025 0.009 0.645 -1.074 0.147 -0.236 0.14 -0.165 0.129 -0.096 0.08 -0.02 0.157 -0.001 -0.11 0.028 0.409 0.294 0.513 0.844 0.194 0.852 -0.096 1.365 -0.511 1.642 -0.916 1.738 -0.892 1.11 -0.882 0.668 -0.744 0.222 -0.596 -0.116 -0.412 -0.321 -0.565 -0.992 -0.247 -1.152 0.11 -1.978 0.447 -1.522 0.673 -1.163 0.706 -0.606 0.494 -0.106 0.391 0.134 -0.029 -0.036 0.326 0.615" />
    <path class="write-flat-pen" fill="#FFFFFF" stroke-width="1.6" __comx="273.694" __comy="51.187" __timestamp="0x1782a546ede" d="M268.763 50.725 l-0.634 -0.206 0.124 0.525 0.059 0.196 0.457 2.199 0.052 0.35 0.239 2.211 0 0 0.008 0.217 0 0 -0.033 1.126 0 0 1.357 0.038 0.215 -2.197 0.687 -2.792 0.723 -1.593 0.854 -1.11 0.821 -0.587 0.856 -0.236 0.832 0.168 0.653 0.454 0.883 1.193 0.582 1.565 0.337 2.118 -0.063 1.703 -0.315 0.767 0.117 -0.031 -0.002 0.041 -0.03 0.052 -0.046 0.047 -0.113 0.019 -1.039 -0.035 -0.018 0.042 0.736 0.733 0.169 0.141 0.259 0.097 0.283 0.031 0.27 -0.041 0.358 -0.163 0.787 -1.316 0.093 -2.171 -0.384 -2.403 -0.711 -1.89 -1.153 -1.539 -1.09 -0.751 -1.454 -0.287 -1.421 0.399 -1.192 0.856 -1.081 1.404 -0.842 1.861 -0.749 3.025 -0.169 2.312 1.357 0.038 0 0 -0.098 -1.153 0 0 -0.031 -0.286 0 0 -0.408 -2.249 -0.087 -0.395 -0.644 -2.234 -0.105 -0.244 -0.282 -0.473 -0.634 0.454" />
    <path class="write-flat-pen" fill="#FFFFFF" stroke-width="1.6" __comx="283.829" __comy="51.187" __timestamp="0x1782a547096" d="M288.201 46.698 l0.77 -1.06 -0.228 -0.409 -0.909 -0.365 -1.452 0.135 -1.223 0.606 -0.848 0.987 -0.371 1.109 0.033 1.187 0.537 1.293 1.231 1.477 3.538 3.204 -0.016 -0.016 0.061 0.6 -0.222 0.488 -0.6 0.555 -1.009 0.45 -1.531 0.258 -1.88 -0.075 -3.709 -0.857 -0.333 -0.103 -0.603 -0.209 -0.268 -0.102 -0.248 -0.101 -0.273 -0.12 -1.543 -0.703 -0.041 0.057 1.172 1.226 0.225 0.234 0.247 0.204 0.284 0.197 0.611 0.347 0.411 0.188 3.871 1.078 2.164 0.099 1.846 -0.327 1.359 -0.643 0.93 -0.924 0.407 -1.07 -0.203 -1.12 -0.188 -0.341 -3.758 -3.164 -1.105 -1.294 -0.424 -0.991 -0.025 -0.841 0.26 -0.773 0.602 -0.703 0.897 -0.451 1.076 -0.133 0.46 0.12 -0.153 -0.279 -0.364 0.741" />
    <path class="write-flat-pen" fill="#FFFFFF" stroke-width="1.6" __comx="331.914" __comy="51.187" __timestamp="0x1782a54756e" d="M330.105 50.255 l0.613 -0.109 -0.113 -0.038 0.452 0.546 0.113 0.229 0.581 1.877 0.131 0.645 0.535 4.487 0.168 5.148 -0.244 4.278 -0.425 2.461 -0.285 0.596 0.238 -0.018 0.033 0.051 -0.021 0.044 -0.097 -0.024 -0.171 -0.148 -0.745 -0.722 -0.043 0.025 0.248 1.007 0.082 0.293 0.152 0.254 0.236 0.203 0.333 0.107 0.449 -0.06 0.812 -1.134 0.507 -2.783 0.253 -4.417 -0.208 -5.269 -0.664 -4.588 -0.195 -0.755 -0.797 -1.971 -0.261 -0.384 -0.731 -0.616 -0.277 -0.112 -0.832 0.351" />
    <path class="write-flat-pen" fill="#FFFFFF" stroke-width="1.6" __comx="336.818" __comy="51.187" __timestamp="0x1782a54771b" d="M332.528 53.427 l-0.426 -0.794 -0.067 -0.097 -0.516 -0.848 -0.026 -0.077 -0.217 -0.912 0.003 -0.111 0.136 -0.831 0.501 -0.998 1.037 -1.174 1.526 -1.053 1.819 -0.758 1.26 -0.239 1.641 0.102 1.177 0.446 0.868 0.689 0.594 1.036 0.193 1.029 -0.126 1.209 -0.623 1.767 -1.046 1.655 -1.008 1.025 -1.398 0.846 -1.421 0.374 -0.653 -0.047 -0.247 -0.12 -0.105 -0.081 -0.041 0.13 -0.023 -0.146 0 -0.106 0.037 -0.128 0.101 -0.202 0.597 -1.127 -0.016 -0.016 -1.13 0.591 -0.225 0.122 -0.192 0.133 -0.209 0.216 -0.206 0.356 -0.068 0.343 0.287 0.941 0.988 0.582 1.248 0.094 1.879 -0.501 1.743 -1.065 1.247 -1.283 1.206 -1.944 0.713 -2.097 0.148 -1.59 -0.287 -1.471 -0.861 -1.477 -1.259 -0.988 -1.585 -0.593 -2.032 -0.113 -1.574 0.315 -2.071 0.9 -1.762 1.253 -1.228 1.462 -0.601 1.369 -0.077 1.157 0.048 0.344 0.43 1.053 0.118 0.194 0.707 0.814 0.07 0.071 0.542 0.674" />
    <path class="write-flat-pen" fill="#FFFFFF" stroke-width="1.6" __comx="353.837" __comy="51.187" __timestamp="0x1782a5478b4" d="M348.478 52.084 l-0.029 1.507 0.005 0.334 0.014 1.53 -0.001 0.276 0.006 0.971 0.003 0.186 0.013 0.66 0.015 0.138 -0.006 -0.025 0.69 0.32 0.393 -0.106 0.062 -0.481 0.114 -3.644 -0.018 -0.619 -0.08 -3.028 0.321 -2.54 0.561 -1.865 0.639 -1.095 0.564 -0.385 0.692 -0.065 1.087 0.35 1.692 1.108 0.285 0.233 0.604 0.525 0.305 0.272 0.326 0.297 0.31 0.287 0.295 0.272 0.28 0.258 0.482 0.43 1.279 1.119 0.016 -0.014 -0.946 -1.411 -0.359 -0.532 -0.21 -0.314 -0.225 -0.333 -0.243 -0.354 -0.265 -0.37 -0.263 -0.348 -0.548 -0.644 -0.335 -0.343 -1.848 -1.382 -1.545 -0.536 -1.355 0.111 -1.144 0.772 -0.88 1.528 -0.626 2.145 -0.321 2.764 0.113 3.134 0.025 0.593 0.057 3.567 0.035 -0.196 0.245 -0.033 0.69 0.32 -0.006 -0.025 -0.025 -0.026 -0.146 -0.575 -0.03 -0.166 -0.154 -0.951 -0.038 -0.267 -0.182 -1.516 -0.03 -0.327 -0.135 -1.498" />
    <path class="write-flat-pen" fill="#FFFFFF" stroke-width="1.6" __comx="363.045" __comy="51.187" __timestamp="0x1782a547a67" d="M359.443 52.301 l0.464 0.299 0.109 0.058 0.585 0.232 0.215 0.052 1.143 0.095 0.406 -0.051 2.356 -1.089 0.331 -0.282 1.108 -1.258 0.684 -1.483 0.14 -1.311 -0.584 -1.095 -1.032 -0.627 -1.389 -0.218 -1.481 0.281 -1.426 0.894 -1.238 1.444 -0.899 1.728 -0.605 2.223 -0.178 2.115 0.329 1.888 0.787 1.566 1.126 1.063 1.235 0.487 1.46 0.015 2.41 -1.084 0.382 -0.315 0.306 -0.301 0.272 -0.304 0.247 -0.326 0.231 -0.351 0.201 -0.365 0.797 -1.457 -0.035 -0.028 -1.255 1.087 -0.301 0.257 -0.294 0.231 -0.288 0.204 -0.295 0.192 -0.314 0.196 -0.277 0.154 -2.065 0.768 -0.902 -0.015 -0.735 -0.286 -0.753 -0.694 -0.599 -1.15 -0.284 -1.504 0.133 -1.814 0.522 -1.965 0.758 -1.463 1.004 -1.171 1.039 -0.65 1.004 -0.191 0.898 0.139 0.494 0.298 0.224 0.409 -0.063 0.693 -0.497 1.128 -0.895 1.08 -0.137 0.129 -1.992 1.101 -0.152 0.042 -0.991 0.073 -0.119 0 -0.552 -0.058 -0.069 -0.008 -0.515 -0.137" />
    <path class="write-flat-pen" fill="#FFFFFF" stroke-width="1.6" __comx="383.307" __comy="51.187" __timestamp="0x1782a547d60" d="M377.373 47.167 l0.272 -0.502 -0.017 -0.234 -0.218 -0.429 -0.191 -0.152 -0.675 -0.324 -0.308 -0.07 -2.31 -0.007 -0.434 0.086 -1.284 0.447 -0.975 0.778 -0.438 0.965 0.253 1.042 0.891 0.781 4.933 1.525 1.713 0.832 0.954 0.788 0.669 1.022 0.291 1.08 -0.127 0.995 -0.407 0.736 -1.038 0.897 -1.059 0.467 -1.934 0.353 -1.274 -0.04 -0.069 -0.037 0.022 0.114 0.11 -0.172 1.488 -0.951 4.27 -1.654 6.794 -2.026 2.183 -0.915 1.421 -1.014 1.005 -1.188 0.369 -1.128 -0.287 -1.03 -0.941 -0.853 -1.232 -0.43 -1.213 0.044 -1.463 0.791 -1.177 1.442 -0.703 1.701 -0.268 1.889 0.309 2.001 0.625 1.33 1.212 1.332 1.626 0.73 1.488 0.082 2.175 -0.742 0.452 -0.312 0.688 -0.643 0.311 -0.373 0.293 -0.398 0.25 -0.388 0.236 -0.391 0.223 -0.385 0.203 -0.392 0.762 -1.473 -0.034 -0.024 -1.143 1.202 -0.299 0.312 -0.301 0.306 -0.313 0.308 -0.31 0.287 -0.338 0.279 -0.317 0.234 -0.684 0.423 -0.268 0.13 -1.772 0.489 -0.921 -0.066 -1.073 -0.483 -0.844 -0.917 -0.441 -0.915 -0.256 -1.557 0.196 -1.479 0.535 -1.325 0.845 -1.045 0.898 -0.484 0.587 -0.021 0.684 0.236 0.401 0.361 0.053 0.186 -0.136 0.43 -0.694 0.831 -1.136 0.816 -1.955 0.832 -6.767 2.032 -4.465 1.7 -1.879 1.173 -0.665 0.955 0.266 1.194 0.986 0.531 1.79 0.046 2.262 -0.429 1.416 -0.647 1.378 -1.237 0.635 -1.214 0.158 -1.536 -0.449 -1.539 -0.915 -1.353 -1.233 -1.008 -1.946 -0.942 -4.764 -1.466 -0.373 -0.322 -0.055 -0.202 0.12 -0.277 0.557 -0.462 0.99 -0.374 0.242 -0.057 2.09 -0.158 0.12 0.002 0.54 0.11 -0.005 -0.026 0.147 0.088 0.001 -0.106 -0.074 0.394" />
    <path class="write-flat-pen" fill="#FFFFFF" stroke-width="1.6" __comx="402.583" __comy="51.187" __timestamp="0x1782a547ee0" d="M398.005 49.226 l-0.103 0.508 -0.016 0.11 -0.088 0.877 -0.013 0.252 -0.01 0.844 0.021 0.343 0.107 1.402 0.033 0.359 0.192 2.082 0 0 0.015 0.16 0 0 0.096 0.712 0 0 1.428 -0.164 -0.012 -5.459 0.208 -1.792 0.449 -1.299 0.692 -0.979 0.526 -0.33 0.675 -0.07 0.777 0.255 1.754 1.639 0.181 0.246 0.389 0.593 0.178 0.265 0.159 0.251 0.189 0.275 0.182 0.249 0.125 0.177 0.156 0.199 1.064 1.354 0.032 -0.016 -0.469 -1.657 -0.064 -0.233 -0.057 -0.208 -0.093 -0.3 -0.095 -0.302 -0.091 -0.294 -0.132 -0.337 -0.322 -0.698 -0.251 -0.434 -2.009 -2.1 -1.42 -0.494 -1.37 0.128 -1.104 0.686 -1.003 1.415 -0.578 1.67 -0.236 2.06 0.125 5.557 1.428 -0.164 0 0 -0.197 -0.627 0 0 -0.018 -0.104 0 0 -0.365 -2.069 -0.068 -0.357 -0.278 -1.376 -0.068 -0.308 -0.13 -0.792 -0.03 -0.221 -0.075 -0.853 -0.007 -0.099 -0.051 -0.514" />
    <path class="write-flat-pen" fill="#FFFFFF" stroke-width="1.6" __comx="414.24" __comy="51.187" __timestamp="0x1782a54806e" d="M409.511 48.531 l0.165 0.11 -0.006 0.029 0.101 0.213 0.056 0.122 0.138 0.318 0.096 0.223 0.328 0.859 0.119 0.34 0.662 2.115 0.151 0.498 1.313 3.835 0.337 0.335 0.927 0.327 1.07 -0.71 1.054 -1.978 2.533 -8.754 -0.047 0.024 -0.006 -0.08 -0.107 0.002 -0.114 -0.042 -0.002 -0.062 0.677 -0.217 0.013 -0.04 -0.429 -0.567 -0.152 -0.109 -0.282 -0.027 -0.271 0.078 -0.306 0.202 -0.199 0.234 -2.698 8.792 -0.793 1.534 -0.157 0.123 0.049 0.031 0.118 0.121 -1.354 -3.458 -0.175 -0.483 -0.832 -2.101 -0.184 -0.376 -0.503 -0.845 -0.181 -0.234 -0.264 -0.289 -0.14 -0.123 -0.256 -0.163 -0.124 -0.052 -0.269 0.011" />
    <path class="write-flat-pen" fill="#FFFFFF" stroke-width="1.6" __comx="423.629" __comy="51.187" __timestamp="0x1782a548160" d="M423.146 48.445 l0.014 0.561 0 0.182 0.041 1.656 0.01 0.4 0.091 5.49 0.137 0.491 0.049 0.026 0.566 -0.333 0.056 -5.698 -0.034 -0.431 -0.217 -1.672 -0.052 -0.207 -0.174 -0.546" />
    <path class="write-flat-pen" fill="#FFFFFF" stroke-width="1.6" __comx="426.547" __comy="51.187" __timestamp="0x1782a5481f4" d="M426.126 40.13 l0.302 1.393 0.014 0.196 0.013 0.237 0.076 1.4 0.02 0.002 0.314 -1.366 0.053 -0.232 0.051 -0.256 -0.141 -1.482" />
    <path class="write-flat-pen" fill="#FFFFFF" stroke-width="1.6" __comx="435.211" __comy="51.187" __timestamp="0x1782a54837e" d="M431.128 49.586 l0.136 0.594 0.024 0.144 0.164 1.289 0.025 0.334 0.075 1.646 0.006 0.398 -0.04 2.795 0 0 -0.009 0.206 0 0 -0.044 0.838 0 0 1.294 0.08 0.626 -4.146 0.659 -2.532 0.796 -1.612 0.577 -0.62 0.395 -0.157 0.316 0.098 0.593 0.738 0.592 1.496 0.44 2.533 0.241 3.113 0.007 0.009 0.027 0.174 0.343 1.72 0.129 0.015 0.725 -1.618 0.058 -0.204 0.012 -0.093 -0.081 -3.278 -0.484 -2.771 -0.737 -1.839 -1.018 -1.256 -1.233 -0.364 -1.162 0.472 -0.931 1.017 -0.935 1.934 -0.713 2.75 -0.529 4.243 1.294 0.08 0 0 -0.066 -0.821 0 0 -0.004 -0.208 0 0 -0.135 -2.827 -0.038 -0.433 -0.229 -1.668 -0.069 -0.367 -0.328 -1.302 -0.065 -0.189 -0.307 -0.562" />
    <path class="write-flat-pen" fill="#FFFFFF" stroke-width="1.6" __comx="447.303" __comy="52.466" __timestamp="0x1782a5485df" d="M449.066 50.765 l0.495 -0.22 0.098 -0.066 0.48 -0.471 0.104 -0.17 0.291 -0.71 0.029 -0.308 -0.58 -1.258 -0.378 -0.262 -1.252 -0.464 -1.62 0.131 -1.22 0.568 -1.103 0.99 -1.08 1.57 -0.769 1.854 -0.342 1.839 0.159 1.498 0.481 0.943 1.017 0.687 1.144 0.008 1.175 -0.492 2.519 -2.379 0.444 -0.202 -0.072 -0.022 0.335 0.687 0.283 2.547 -0.041 3.918 -0.383 3.479 -0.701 3.121 -1.05 2.519 -0.939 1.465 -1.115 1.141 -1.28 0.755 -1.28 0.324 -1.183 -0.066 -0.911 -0.329 -0.531 -0.429 -0.317 -0.66 0.056 -1.006 0.678 -1.272 1.371 -1.334 1.964 -1.209 3.973 -1.592 0.818 -0.258 1.706 -0.492 0.851 -0.236 0.875 -0.242 0.833 -0.234 0.853 -0.213 0.833 -0.233 1.463 -0.405 -0.011 -0.076 -1.517 0.038 -0.862 0.018 -0.893 0.031 -0.885 0.08 -0.916 0.107 -0.9 0.131 -1.787 0.35 -0.925 0.23 -4.22 1.556 -2.241 1.379 -1.676 1.631 -0.961 1.803 -0.099 1.769 0.651 1.357 1.021 0.825 1.384 0.5 1.662 0.093 1.74 -0.442 1.659 -0.984 1.371 -1.42 1.076 -1.735 1.115 -2.778 0.733 -3.331 0.392 -3.637 0.03 -4.084 -0.343 -2.893 -0.71 -1.397 -1.024 -0.41 -1.214 0.589 -2.464 2.41 -0.688 0.307 -0.473 0.009 -0.416 -0.266 -0.227 -0.427 -0.128 -1.075 0.27 -1.526 0.669 -1.604 0.927 -1.327 0.857 -0.751 0.844 -0.387 1.118 -0.099 0.862 0.277 0.005 -0.008 0.445 0.647 0.017 -0.101 -0.076 0.568 -0.001 0.035 -0.259 0.452 0.001 0.014 -0.377 0.328" />
    <path class="write-flat-pen" fill="#FFFFFF" stroke-width="1.6" __comx="497.032" __comy="38.196" __timestamp="0x1782a549033" d="M482.598 36.737 l-0.06 -0.541 -0.392 -0.13 -0.225 0.366 -0.021 0.162 -0.006 0.412 0.039 0.255 0.255 0.95 0.156 0.446 1.047 2.466 0.363 0.768 7.031 14.975 0.197 0.313 0.91 1.24 1.241 0.36 0.832 -1.31 1.936 -7.722 1.398 -4.472 0.263 -0.286 0 0 -1.315 -0.206 2.971 6.431 2.176 3.953 1.326 1.755 1.179 0.959 1.334 0.444 1.281 -0.447 0.897 -1.354 0.572 -2.233 0.603 -8.931 0.605 -3.94 0.867 -3.124 1.933 -4.103 -0.014 -0.033 -0.024 -0.052 -0.116 0.064 -0.091 0.014 0.426 -0.453 -0.286 -0.622 -0.621 0.029 -0.137 0.035 -0.17 0.121 -0.104 0.063 -0.099 0.082 -2.197 4.282 -0.932 3.36 -0.63 4.101 -0.598 8.852 -0.468 1.83 -0.45 0.68 -0.256 0.09 -0.539 -0.179 -0.802 -0.652 -1.14 -1.508 -2.093 -3.803 -2.948 -6.38 -1.315 -0.206 0 0 -0.505 0.55 -1.519 4.858 -1.874 7.524 -0.058 0.107 0.393 0.121 -0.586 -0.757 -0.121 -0.183 -7.151 -14.821 -0.383 -0.749 -1.172 -2.361 -0.18 -0.381 -0.379 -0.84 -0.073 -0.162 -0.122 -0.286 -0.022 0.034 -0.149 0.172 -0.36 -0.121 0.148 0.215" />
    <path class="write-flat-pen" fill="#FFFFFF" stroke-width="1.6" __comx="522.374" __comy="30.11" __timestamp="0x1782a549234" d="M522.465 23.616 l0.355 -0.122 -0.078 -0.001 0.316 0.227 0.153 0.141 0.724 0.765 0.276 0.33 1.308 1.843 0.339 0.56 1.409 2.763 0.91 2.451 0.662 2.836 0.312 3.067 0.022 4.199 -0.385 3.035 -0.741 2.934 -1.546 3.807 -1.507 2.655 -1.771 2.391 -2.89 2.94 -0.746 0.644 -0.751 0.622 -0.732 0.586 -0.74 0.577 -0.68 0.534 -0.685 0.531 -0.633 0.496 -1.192 0.927 0.036 0.059 1.368 -0.639 0.735 -0.341 0.782 -0.406 0.763 -0.431 0.82 -0.487 0.812 -0.52 0.827 -0.578 0.849 -0.644 3.089 -2.971 1.917 -2.518 1.608 -2.809 1.607 -3.989 0.78 -3.112 0.405 -3.212 -0.044 -4.358 -0.344 -3.219 -0.725 -3.001 -1.01 -2.592 -1.56 -2.831 -0.422 -0.623 -1.502 -1.818 -0.371 -0.358 -0.889 -0.706 -0.269 -0.16 -0.496 -0.178 -0.229 -0.031 -0.464 0.374" />
    <path class="write-flat-pen" fill="#FFFFFF" stroke-width="1.6" __comx="134.41" __comy="139.328" __timestamp="0x1782a551048" d="M125.305 147.937 l0.074 -0.228 0.012 -0.017 0.09 -0.123 0.051 -0.073 0.184 -0.386 0.066 -0.15 0.344 -0.744 0.135 -0.288 0.988 -2.032 0.237 -0.474 0 0 6.118 -11.978 0 0 0.986 -2.523 0 0 -1.421 -0.332 -0.163 1.636 0.351 2.095 1.012 2.865 3.421 7.413 1.593 2.798 1.887 1.678 0.263 0.092 0.452 0.06 0.15 0.004 0.126 -0.011 1.677 -0.184 0.01 -0.049 -1.486 -0.8 -0.094 -0.054 -0.068 -0.046 -0.295 -0.182 0.035 -0.005 -1.434 -1.462 -1.443 -2.545 -3.389 -7.281 -0.955 -2.671 -0.304 -1.772 0.119 -1.444 -1.421 -0.332 0 0 -0.935 2.466 0 0 -5.97 11.991 0 0 -0.23 0.514 -0.852 2.142 -0.108 0.348 -0.203 0.849 -0.024 0.2 -0.019 0.423 -0.002 0.119 0.045 0.189 0.009 0.007 -0.014 0.221" />
    <path class="write-flat-pen" fill="#FFFFFF" stroke-width="1.6" __comx="135.19" __comy="140.967" __timestamp="0x1782a55116b" d="M128.668 140.906 l2.332 0.369 0.46 0.137 3.675 0.999 3.665 0.334 0.32 0.004 0.606 -0.005 0.259 -0.009 1.723 -0.056 0.005 -0.039 -1.664 -0.449 -0.254 -0.069 -0.602 -0.129 -0.312 -0.052 -3.568 -0.468 -3.605 -0.954 -0.525 -0.143 -2.423 -0.214" />
    <path class="write-flat-pen" fill="#FFFFFF" stroke-width="1.6" __comx="133.218" __comy="181.986" __timestamp="0x1782a5513a9" d="M132.967 160.661 l-0.133 -0.551 -0.143 -0.119 -0.383 0.013 -0.144 0.196 -0.147 0.287 -0.07 0.243 -0.089 0.933 0.029 0.43 0.442 2.916 0.125 0.762 0.547 4.365 0.27 5.197 -0.213 5.508 0.027 0.043 0.208 1.43 0.065 0.015 0.82 -1.19 0.068 -0.132 0.332 -5.677 -0.284 -5.313 -0.61 -4.435 -0.149 -0.787 -0.596 -2.858 -0.062 -0.33 -0.075 -0.804 -0.008 -0.138 -0.004 -0.196 -0.072 0.071 -0.126 -0.054 -0.118 -0.1 0.245 0.377" />
    <path class="write-flat-pen" fill="#FFFFFF" stroke-width="1.6" __comx="134.744" __comy="181.986" __timestamp="0x1782a5515d7" d="M131.107 181.388 l-0.456 -0.29 -0.036 -0.035 -0.354 -0.347 -0.03 -0.045 -0.304 -0.447 -0.029 -0.068 -0.229 -0.659 -0.008 -0.061 -0.02 -0.595 -0.573 0.694 -0.331 0.012 1.4 2.639 0.172 0.265 1.324 1.537 1.103 0.704 1.256 0.027 3.969 -1.433 0.149 -0.051 0.568 -0.214 0.192 -0.081 0.426 -0.221 0.196 -0.125 1.512 -0.97 -0.023 -0.06 -1.774 0.28 -0.212 0.031 -0.43 0.063 -0.168 0.018 -0.579 0.074 -0.207 0.032 -3.843 1.231 -0.615 -0.004 -0.603 -0.373 -1.146 -1.298 -0.099 -0.148 -1.876 -3.127 -0.372 0.013 -0.573 0.694 0.203 0.632 0.072 0.184 0.44 0.71 0.125 0.143 0.473 0.39 0.095 0.068 0.488 0.242 0.081 0.036 0.543 0.157" />
    <path class="write-flat-pen" fill="#FFFFFF" stroke-width="1.6" __comx="129.91" __comy="181.986" __timestamp="0x1782a5517f5" d="M129.706 194.665 l0.126 0.135 -0.043 -0.096 0.024 0.709 0.007 0.285 0.033 1.632 0 0.466 -0.242 4.019 -0.072 0.539 -0.691 4.545 1.159 0.233 -0.023 -0.045 -0.043 -0.225 -0.018 -0.173 -0.002 -0.233 -0.008 -0.27 -0.037 -1.163 -0.039 -0.008 -0.502 1.049 -0.114 0.232 -0.111 0.209 -0.088 0.164 -0.128 0.173 -0.037 0.018 1.159 0.233 0.812 -4.553 0.069 -0.62 0.078 -4.121 -0.038 -0.525 -0.2 -1.653 -0.055 -0.316 -0.194 -0.743 -0.089 -0.269 -0.508 -0.107" />
    <path class="write-flat-pen" fill="#FFFFFF" stroke-width="1.6" __comx="134" __comy="181.986" __timestamp="0x1782a551a74" d="M130.118 196.74 l-0.495 -0.385 -0.052 -0.047 -0.349 -0.395 -0.022 -0.055 -0.254 -0.661 -0.009 -0.088 0.052 -1.021 0.033 -0.106 0.504 -1.084 0.88 -1 0.975 -0.564 1.295 -0.324 1.228 0.044 0.877 0.347 0.624 0.59 0.417 0.96 -0.015 1.115 -0.363 1.128 -0.741 1.082 -0.989 0.834 -1.364 0.709 0 0 -0.793 0.111 0 0 0.226 1.463 1.491 -0.243 1.728 0.114 1.486 0.444 1.083 0.679 0.673 0.817 0.386 0.92 0.078 1.047 -0.284 1.01 -0.782 0.998 -1.404 0.891 -1.41 0.441 -2.405 0.27 -1.732 -0.089 -1.016 -0.308 -0.331 -0.282 -0.168 -0.32 -0.032 -0.027 -0.032 -0.278 -0.007 -0.168 0.002 -0.204 0.054 -1.503 -0.078 -0.026 -0.856 1.237 -0.128 0.188 -0.118 0.227 -0.142 0.407 -0.04 0.34 0.233 0.963 0.869 0.808 1.524 0.462 2.045 0.104 2.675 -0.313 1.736 -0.555 1.781 -1.146 1.113 -1.437 0.426 -1.545 -0.122 -1.544 -0.566 -1.336 -0.96 -1.166 -1.452 -0.912 -1.834 -0.555 -2.064 -0.14 -1.658 0.269 0.226 1.463 0 0 1.04 -0.158 0 0 1.725 -0.916 1.246 -1.083 0.951 -1.421 0.48 -1.531 0.002 -1.626 -0.66 -1.485 -1.025 -0.96 -1.344 -0.526 -1.66 -0.057 -1.67 0.432 -1.326 0.794 -1.117 1.356 -0.544 1.413 -0.06 0.358 0.113 1.293 0.114 0.298 0.479 0.724 0.144 0.156 0.55 0.357 0.112 0.051 0.585 0.239" />
    <path class="write-flat-pen" fill="#FFFFFF" stroke-width="1.6" __comx="148.971" __comy="166.877" __timestamp="0x1782a55355e" d="M149.85 166.817 l0.22 -0.602 0.027 -0.078 0.144 -0.504 0.021 -0.147 -0.062 -0.672 -0.097 -0.208 -0.663 -0.665 -0.381 -0.096 -0.909 0.134 -0.781 0.653 -0.693 1.474 -0.203 1.534 0.257 1.222 0.759 0.868 1.034 0.094 0.962 -0.726 0 0 0.94 -2.254 0 0 -1.244 -0.114 0.621 3.155 0.211 2.877 -0.159 2.534 -0.321 1.081 -0.336 0.394 -0.296 0.083 -0.217 -0.062 -0.222 -0.229 -0.287 -0.85 0.018 -0.868 0.384 -1.034 -0.005 -0.028 0.14 -0.183 0.058 -0.084 0.089 -0.102 1.108 -1.085 -0.057 -0.116 -1.537 0.205 -0.183 0.031 -0.22 0.083 -0.347 0.204 -0.274 0.248 -0.738 1.507 -0.042 1.466 0.498 1.463 0.782 0.794 1.072 0.288 1.188 -0.363 0.827 -1.031 0.42 -1.564 0.113 -2.805 -0.297 -3.054 -0.713 -3.222 -1.244 -0.114 0 0 -0.783 1.941 0 0 -0.288 0.224 -0.041 -0.001 -0.215 -0.235 -0.153 -0.692 0.133 -1.143 0.471 -1.093 0.327 -0.324 0.384 -0.121 -0.066 -0.029 0.455 0.268 -0.011 -0.047 0.182 0.442 0.011 0.037 0.015 0.485 0 0.06 -0.065 0.63" />
    <path class="write-flat-pen" fill="#8F3AC9" stroke-width="1.6" __comx="183.151" __comy="124.284" __timestamp="0x1782a554edb" d="M169.128 137.548 l-0.214 -0.385 0.011 0.073 0.112 -0.045 -0.023 0.039 0.259 -0.021 0.09 0.004 0.606 0.013 0.278 0.008 1.916 0.078 0.614 0.019 3.705 0.136 16.813 1.879 0.545 -0.006 0.997 -0.066 0.47 -0.078 0.398 -0.076 0.377 -0.111 1.617 -0.476 -0.017 -0.109 -1.685 0.043 -0.371 0.006 -0.38 -0.009 -0.442 -0.006 -0.949 -0.063 -0.486 -0.04 -16.806 -2.008 -3.765 -0.079 -0.629 0.006 -1.944 0.078 -0.315 0.039 -0.648 0.128 -0.176 0.058 -0.332 0.211 -0.097 0.099 -0.056 0.28 0.013 0.116 0.415 0.353" />
    <path class="write-flat-pen" fill="#8F3AC9" stroke-width="1.6" __comx="195.74" __comy="124.284" __timestamp="0x1782a55516c" d="M195.28 138.863 l-0.31 -0.469 -0.052 -0.085 -0.248 -0.484 -0.069 -0.139 -0.285 -0.597 -0.059 -0.147 -0.313 -0.757 -0.08 -0.201 -0.457 -1.193 -0.069 -0.184 -0.639 -0.975 0 0 -1.08 0.727 0.073 0.132 1.044 1.048 1.869 0.976 3.5 0.801 0.272 0.177 0.025 0.097 -0.227 0.835 -1.92 3.274 0.018 0.012 -0.097 0.148 -1.015 1.396 0.065 0.087 1.629 -0.591 0.208 -0.087 0.184 -0.135 2.245 -3.545 0.366 -1.444 -0.329 -0.96 -0.898 -0.547 -3.554 -0.808 -1.542 -0.792 -0.801 -0.757 0.01 0.024 -1.08 0.727 0 0 0.687 0.75 0.033 0.06 0.62 1.155 0.121 0.207 0.45 0.706 0.105 0.156 0.433 0.544 0.111 0.128 0.385 0.416 0.091 0.082 0.437 0.36" />
    <path class="write-flat-pen" fill="#8F3AC9" stroke-width="1.6" __comx="180.967" __comy="124.284" __timestamp="0x1782a555456" d="M177.158 114.035 l-0.141 -0.52 -0.006 -0.033 0.013 -0.148 -0.592 0.153 -0.023 0.08 0.026 0.266 0.037 0.14 0.315 0.815 0.143 0.293 1.865 3.109 0.219 0.326 1.32 1.784 1.052 0.669 1.122 -0.347 0.876 -1.175 2.141 -7.622 -0.041 -0.202 -0.101 -0.594 -0.547 0.065 -0.508 0.18 0.055 0.753 0.529 0.104 -0.498 0.061 -0.093 -0.522 -0.046 -0.041 -2.186 7.182 -0.439 0.628 -0.089 0.047 -0.332 -0.177 -1.205 -1.523 -0.195 -0.276 -1.979 -2.971 -0.147 -0.232 -0.447 -0.706 -0.063 -0.082 -0.1 -0.066 -0.022 0.054 -0.592 0.153 0.119 0.031 0.009 0.004 0.3 0.455" />
    <path class="write-flat-pen" fill="#8F3AC9" stroke-width="1.6" __comx="180.946" __comy="124.284" __timestamp="0x1782a555600" d="M177.499 117.882 l0.304 -0.085 0.056 0.004 0.644 -0.046 0.25 -0.022 4.131 -0.696 1.668 -0.653 -0.026 -0.11 -1.763 0.151 -4.119 0.624 -0.254 0.058 -0.644 0.199 -0.119 0.051 -0.286 0.235" />
    <path class="write-flat-pen" fill="#8F3AC9" stroke-width="1.6" __comx="191.744" __comy="124.284" __timestamp="0x1782a5557fa" d="M189.199 119.264 l0.05 0.485 0.001 0.064 -0.026 0.105 0.482 -0.096 0.027 -0.051 0.031 -0.227 0.003 -0.1 -0.029 -0.667 -0.031 -0.239 -0.227 -1.631 -0.041 -0.295 -0.182 -3.809 0.016 -0.101 0.231 -0.803 0.275 -0.323 0.602 -0.255 0.923 -0.036 2.436 0.737 0.035 0 0.29 0.148 1.449 0.767 0.03 -0.03 -0.799 -1.468 -0.248 -0.321 -0.199 -0.171 -2.798 -1.036 -1.431 0.062 -1.124 0.495 -0.659 0.798 -0.312 1.182 -0.036 0.323 0.368 3.983 0.076 0.358 0.401 1.614 0.066 0.22 0.187 0.629 0.039 0.095 0.094 0.129 0.025 -0.016 0.482 -0.096 -0.087 -0.013 -0.024 -0.015 -0.191 -0.439" />
    <path class="write-flat-pen" fill="#8F3AC9" stroke-width="1.6" __comx="192.244" __comy="124.284" __timestamp="0x1782a5558b9" d="M187.59 115.729 l0.371 -0.045 0.091 -0.002 0.74 -0.091 0.247 -0.037 5.562 -0.72 0.372 -0.039 0.381 -0.04 1.684 -0.171 0.002 -0.045 -1.668 -0.29 -0.383 -0.067 -0.423 -0.052 -5.664 0.593 -0.285 0.077 -0.716 0.242 -0.106 0.046 -0.349 0.181" />
    <path class="write-flat-pen" fill="#8F3AC9" stroke-width="1.6" __comx="218.141" __comy="136.26" __timestamp="0x1782a555fff" d="M212.501 130.693 l-0.071 -0.24 -0.424 0.142 -0.014 0.053 -0.012 0.314 0.014 0.127 0.143 0.709 0.074 0.258 0.593 1.717 0.166 0.443 3.118 8.866 0.09 0.266 0.479 1.208 0.927 0.749 1.013 -0.628 3.046 -8.804 2.655 -6.969 0.004 -0.182 -0.045 -0.182 -0.286 -0.85 -0.069 -0.015 -0.614 0.652 -0.118 0.144 -0.052 0.073 -2.782 6.849 -2.856 8.407 0.179 -0.094 0.045 0.059 -0.363 -0.854 -0.085 -0.241 -3.29 -8.833 -0.194 -0.449 -0.741 -1.644 -0.101 -0.217 -0.285 -0.627 -0.04 -0.079 -0.114 -0.221 -0.015 -0.008 -0.424 0.142 0.209 0.138" />
    <path class="write-flat-pen" fill="#8F3AC9" stroke-width="1.6" __comx="218.859" __comy="136.26" __timestamp="0x1782a55611d" d="M214.631 137.661 l0.503 -0.601 0.003 0.008 1.977 -0.36 3.56 -0.168 0.354 0.001 0.666 0.001 0.286 0 1.694 0.005 0.003 -0.02 -1.623 -0.484 -0.281 -0.084 -0.663 -0.159 -0.406 -0.075 -3.698 0.019 -2.14 0.466 -0.319 0.149 -0.507 0.906" />
    <path class="write-flat-pen" fill="#8F3AC9" stroke-width="1.6" __comx="231.253" __comy="136.26" __timestamp="0x1782a556672" d="M231.043 133.765 l0.184 -0.576 -0.048 0.163 -0.366 0.089 -0.067 -0.195 -0.035 0.56 -0.013 0.313 -0.043 1.858 -0.002 0.623 0.106 5.991 -0.253 3.273 0.939 -0.353 0.054 0.092 -0.073 0.022 -0.059 -0.094 -0.062 -0.164 -0.061 -0.221 -0.052 -0.229 -0.259 -1.18 -0.02 0 -0.233 1.186 -0.046 0.24 -0.04 0.247 -0.033 0.206 -0.021 0.199 0.028 0.362 0.111 0.146 0.939 -0.353 0.38 -3.338 -0.245 -6.06 -0.027 -0.618 -0.119 -1.865 -0.041 -0.341 -0.139 -0.604 -0.098 -0.348 -0.492 0.091 -0.057 0.191 -0.02 0.638" />
    <path class="write-flat-pen" fill="#8F3AC9" stroke-width="1.6" __comx="235.34" __comy="136.26" __timestamp="0x1782a5568f4" d="M231.644 135.336 l-0.301 -0.456 -0.022 -0.049 -0.184 -0.409 -0.004 -0.036 -0.077 -0.539 0.012 -0.023 0.295 -0.967 0.048 -0.063 0.619 -0.61 0.892 -0.419 1.169 -0.181 1.404 0.171 1.209 0.487 0.617 0.534 0.294 0.606 0.018 0.849 -0.502 1.249 -0.756 0.941 -0.982 0.725 0 0 -2.158 0.69 0 0 0.254 1.342 1.147 -0.065 1.464 0.304 1.39 0.612 0.936 0.756 0.497 0.759 0.218 0.825 -0.114 0.71 -0.523 0.812 -1.034 0.769 -1.534 0.566 -2.139 0.364 -1.583 -0.015 -0.275 -0.117 -0.275 -0.367 -0.026 0.069 -0.024 -0.281 0.008 -0.17 0.035 -0.213 0.064 -0.243 0.099 -0.295 0.495 -1.409 -0.035 -0.022 -1.051 1.061 -0.235 0.24 -0.2 0.241 -0.168 0.241 -0.146 0.265 -0.16 0.459 -0.028 0.37 0.503 1.217 1.064 0.513 2.068 0.015 2.417 -0.436 1.867 -0.717 1.407 -1.09 0.806 -1.314 0.183 -1.316 -0.381 -1.331 -0.762 -1.116 -1.253 -0.993 -1.688 -0.743 -1.785 -0.371 -1.329 0.08 0.254 1.342 0 0 2.36 -0.785 0 0 1.29 -0.972 0.978 -1.238 0.66 -1.688 -0.043 -1.401 -0.542 -1.094 -0.981 -0.845 -1.568 -0.626 -1.752 -0.203 -1.529 0.255 -1.244 0.631 -0.821 0.915 -0.186 0.345 -0.206 1.322 0.039 0.261 0.269 0.66 0.085 0.134 0.35 0.38 0.07 0.066 0.436 0.36" />
    <path class="write-flat-pen" fill="#8F3AC9" stroke-width="1.6" __comx="242.51" __comy="136.26" __timestamp="0x1782a556a22" d="M241.758 125.891 l0.151 0.185 -0.023 -0.012 0.121 0.623 0.036 0.216 0.253 2.391 0.022 0.396 0.055 2 0.015 0.346 0.028 0.351 0.128 1.715 0.091 0.008 0.415 -1.669 0.087 -0.345 0.068 -0.374 0.059 -2.064 -0.038 -0.462 -0.435 -2.438 -0.086 -0.268 -0.28 -0.633 -0.09 -0.158 -0.377 -0.133" />
    <path class="write-flat-pen" fill="#FFFFFF" fill-opacity="0.09" stroke-width="1.6" __comx="220.317" __comy="158.897" __timestamp="0x1782a557ae0" d="M219.55 157.269 l0.196 -0.592 -0.074 0.107 -0.141 0.021 -0.042 -0.019 0.038 0.256 0.025 0.173 0.142 0.847 0.042 0.337 0.394 4.726 0.035 0.72 -0.005 2.928 -0.414 4.909 -0.012 0.248 -0.008 0.722 0.006 0.147 0.065 1.737 0.022 0.003 0.572 -1.641 0.051 -0.147 0.174 -0.713 0.048 -0.256 0.58 -4.956 -0.006 -3.011 -0.046 -0.774 -0.568 -4.77 -0.093 -0.396 -0.299 -0.856 -0.091 -0.199 -0.173 -0.264 -0.109 -0.142 -0.292 -0.031 -0.11 0.147 -0.067 0.704" />
    <path class="write-flat-pen" fill="#FFFFFF" fill-opacity="0.09" stroke-width="1.6" __comx="220.117" __comy="172.071" __timestamp="0x1782a557cf8" d="M218.62 173.119 l-0.35 -0.52 -0.047 -0.072 -0.371 -0.64 -0.044 -0.094 -0.317 -0.667 -0.077 -0.114 -0.734 -0.432 -0.277 0.575 0.351 1.667 0.113 0.219 0.81 1.264 0.933 0.719 1.197 0.043 2.712 -1.916 0.094 -0.093 0.038 -0.041 1.181 -1.298 -0.023 -0.036 -1.678 0.512 -0.047 0.013 -0.138 0.049 -2.502 1.577 -0.435 0.014 -0.495 -0.34 -0.715 -1.027 -0.035 -0.058 -0.403 -1.184 -0.249 0.513 -0.163 -0.171 -0.04 -0.062 0.449 0.555 0.075 0.096 0.518 0.568 0.072 0.071 0.476 0.416" />
    <path class="write-flat-pen" fill="#FFFFFF" fill-opacity="0.09" stroke-width="1.6" __comx="178.615" __comy="198.154" __timestamp="0x1782a557fa1" d="M169.352 198.225 l1.512 0.139 0.337 0.04 13.135 0.478 0.379 0.019 1.129 0.108 0.365 0.038 1.665 0.174 0.003 -0.015 -1.62 -0.421 -0.357 -0.093 -1.113 -0.274 -0.405 -0.083 -13.136 -0.612 -0.341 -0.024 -1.538 0.035" />
    <path class="write-flat-pen" fill="#FFFFFF" fill-opacity="0.09" stroke-width="1.6" __comx="188.247" __comy="196.75" __timestamp="0x1782a5581c5" d="M188.892 198.828 l-0.536 -0.538 -0.107 -0.105 -0.691 -0.733 -0.107 -0.13 -0.616 -0.833 -0.108 -0.156 -0.674 -1.127 0.013 0.018 -0.014 -0.145 -0.256 0.267 3.297 1.1 0.887 0.518 0.23 0.358 0.09 0.675 -0.549 2.495 -0.167 1.665 0.024 0.012 1.308 -1.244 0.789 -2.881 -0.251 -1.251 -0.609 -0.802 -1.258 -0.683 -4.057 -1.248 -0.74 0.69 0.363 0.895 0.055 0.091 0.858 1.09 0.158 0.171 0.748 0.758 0.153 0.14 0.818 0.642 0.134 0.092 0.636 0.415" />
    <path class="write-flat-pen" fill="#FFFFFF" stroke-width="1.6" __comx="215.961" __comy="200.336" __timestamp="0x1782a559c76" d="M208.489 209.545 l0.161 0.111 0.112 -0.029 0.162 -0.065 0.074 -0.061 0.174 -0.17 0.086 -0.112 0.224 -0.332 0.108 -0.193 0.425 -0.786 0.15 -0.304 1.166 -2.527 0.225 -0.5 4.228 -10.74 0.122 -0.343 0.706 -2.419 0 0 -0.043 -1.234 0 0 -1.539 -0.062 -0.154 1.032 0.453 2.164 2.079 5.594 2.018 4.366 2.376 3.724 1.521 1.058 0.11 -0.077 -0.439 -1.762 -2.177 -3.688 -1.944 -4.231 -2.021 -5.426 -0.38 -1.78 0.091 -0.765 -1.539 -0.062 0 0 0.078 0.981 0 0 -0.592 2.146 -0.096 0.282 -4.051 10.757 -0.2 0.487 -1.009 2.601 -0.11 0.319 -0.278 0.854 -0.052 0.207 -0.091 0.364 -0.02 0.109 -0.037 0.199 0.004 0.041 0.002 0.099 0.059 0 -0.086 0.023" />
    <path class="write-flat-pen" fill="#FFFFFF" stroke-width="1.6" __comx="215.975" __comy="202.376" __timestamp="0x1782a559dce" d="M211.474 203.026 l0.094 -0.47 -0.156 0.133 1.857 -0.065 0.356 0.028 4.696 0.114 0.391 -0.043 0.367 -0.047 0.333 -0.054 1.689 -0.272 -0.001 -0.041 -1.699 -0.206 -0.334 -0.041 -0.364 -0.037 -0.371 -0.037 -4.661 -0.258 -0.411 -0.02 -2.13 0.254 -0.282 0.231 0.074 0.82" />
    <path class="write-flat-pen" fill="#FFFFFF" stroke-width="1.6" __comx="236.425" __comy="208.31" __timestamp="0x1782a55aca4" d="M236.661 191.366 l-0.369 0.126 -0.106 0.15 -0.213 0.512 -0.069 0.276 -0.166 1.055 -0.045 0.456 -0.105 2.157 0.028 0.667 0.45 5.99 0.017 0.518 0.001 2.525 -0.169 1.18 0.028 0.001 -0.014 0.064 -0.43 1.359 0.041 0.031 1.19 -0.801 0.079 -0.066 0.133 -0.165 0.411 -1.468 -0.012 -2.687 -0.025 -0.573 -0.624 -5.996 -0.061 -0.612 -0.062 -2.1 -0.003 -0.426 0.016 -1.028 0.011 -0.227 0.051 -0.459 -0.02 -0.005 0.188 -0.187" />
    <path class="write-flat-pen" fill="#FFFFFF" stroke-width="1.6" __comx="244.252" __comy="208.31" __timestamp="0x1782a55adf8" d="M243.471 192.673 l0.156 0.506 0.015 0.121 0.077 0.645 0.026 0.288 0.095 1.175 0.033 0.457 0.134 2.208 0.032 0.58 0.123 8.831 0.478 1.729 0.051 -0.002 0.317 -1.748 0.025 -8.852 -0.065 -0.623 -0.297 -2.211 -0.084 -0.471 -0.253 -1.169 -0.079 -0.3 -0.21 -0.637 -0.061 -0.156 -0.323 -0.464" />
    <path class="write-flat-pen" fill="#FFFFFF" stroke-width="1.6" __comx="242.714" __comy="208.31" __timestamp="0x1782a55af57" d="M231.367 208.31 l0.039 -0.114 -0.267 0.155 0.309 0.029 0.224 0.026 1.137 0.145 0.481 0.062 5.873 0.695 0.834 0.06 10.698 -0.174 0.408 0.01 0.737 0.037 0.306 0.029 0.535 0.064 0.253 0.036 0.247 0.04 1.67 0.278 0.003 -0.01 -1.501 -0.783 -0.229 -0.119 -0.252 -0.118 -0.534 -0.213 -0.346 -0.105 -0.777 -0.162 -0.478 -0.067 -10.704 0.013 -0.766 -0.048 -5.876 -0.52 -0.504 -0.026 -1.188 -0.007 -0.303 0.027 -0.465 0.124 -0.357 0.201 0.315 0.616" />
    <path class="write-flat-pen" fill="#FFFFFF" stroke-width="1.6" __comx="233.169" __comy="208.31" __timestamp="0x1782a55b56f" d="M235.188 217.601 l0.006 -0.32 -0.013 -0.08 -0.082 -0.359 -0.056 -0.139 -0.334 -0.496 -0.147 -0.117 -0.857 -0.288 -0.297 0.014 -1.007 0.343 -0.76 0.836 -0.339 1.143 0.299 0.865 0.85 0.444 1.035 -0.399 0.708 -0.758 -0.4 0.044 0.205 1.154 -0.01 2.693 -0.269 0.988 -0.383 0.543 -0.378 0.198 -0.353 -0.014 -0.418 -0.238 -0.002 0.027 -0.162 -0.173 -0.055 -0.069 -0.043 -0.074 -0.618 -1.189 -0.034 0.007 -0.122 1.334 -0.007 0.108 0.014 0.201 0.113 0.389 0.111 0.19 0.748 0.691 1.102 0.101 0.97 -0.533 0.654 -0.988 0.328 -1.353 -0.045 -2.947 -0.425 -2.276 -1.058 0.112 -0.814 0.892 -0.334 0.14 -0.037 -0.009 -0.06 -0.141 0.146 -0.613 0.412 -0.522 0.637 -0.298 0.037 -0.015 0.636 0.069 -0.007 -0.019 0.372 0.29 0.054 0.055 0.198 0.271 0.032 0.045 0.147 0.268" />
    <path class="write-flat-pen" fill="#FFFFFF" stroke-width="1.6" __comx="238.602" __comy="208.31" __timestamp="0x1782a55b66b" d="M237.882 221.582 l0.241 0.518 0.049 0.093 0.483 1.271 0.02 0.089 0.107 1.244 -0.06 1.432 0.051 0.011 0.548 -1.405 -0.076 -1.383 -0.059 -0.184 -0.67 -1.267 -0.084 -0.106 -0.378 -0.427" />
    <path class="write-flat-pen" fill="#FFFFFF" stroke-width="1.6" __comx="246.182" __comy="208.31" __timestamp="0x1782a55b82e" d="M244.399 223.655 l-0.072 0.685 0.018 -0.1 0.048 -0.085 0.081 0.067 -0.347 -0.803 -0.062 -0.18 -0.452 -2.362 -0.009 -0.202 0.094 -1.516 0.35 -1.058 0.428 -0.558 0.727 -0.411 1.051 -0.165 1.938 0.267 0.008 -0.021 0.111 0.028 1.372 0.463 0.018 -0.025 -0.891 -1.154 -0.112 -0.124 -0.171 -0.119 -2.264 -0.474 -1.449 0.234 -1.102 0.652 -0.653 0.914 -0.388 1.383 -0.008 1.71 0.036 0.32 0.649 2.448 0.122 0.266 0.544 0.822 0.17 0.162 0.445 -0.128 0.049 -0.198 -0.092 -0.741" />
    <path class="write-flat-pen" fill="#FFFFFF" stroke-width="1.6" __comx="244.454" __comy="208.31" __timestamp="0x1782a55b903" d="M241.051 220.967 l0.326 -0.194 0.044 -0.008 0.702 -0.209 0.167 -0.036 3.927 -0.6 0.223 -0.054 1.707 -0.391 -0.004 -0.059 -1.741 -0.181 -0.256 -0.025 -4.033 0.511 -0.26 0.094 -0.732 0.4 -0.114 0.099 -0.246 0.348" />
    <path class="write-flat-pen" fill="#FFFFFF" stroke-width="1.6" __comx="263.922" __comy="208.31" __timestamp="0x1782a55bcfb" d="M263.056 192.704 l-0.333 -0.149 -0.034 0.169 -0.002 0.098 0.031 0.855 0.02 0.314 0.187 1.707 0.062 0.546 0.75 5.552 0.309 4.344 -0.054 1.008 0.29 -0.202 0.199 0.125 0 0.065 -0.123 -0.079 -0.657 -0.475 -0.023 0.016 0.209 0.783 0.054 0.178 0.128 0.209 0.452 0.182 0.404 -0.297 0.229 -1.492 -0.351 -4.483 -0.892 -5.568 -0.094 -0.546 -0.345 -1.68 -0.062 -0.3 -0.194 -0.837 -0.034 -0.122 -0.116 -0.158 -0.364 0.204" />
    <path class="write-flat-pen" fill="#FFFFFF" stroke-width="1.6" __comx="267.952" __comy="208.31" __timestamp="0x1782a55bf8d" d="M263.09 196.522 l-0.434 -0.486 -0.021 -0.044 -0.16 -0.498 0.001 -0.062 0.072 -0.675 0.026 -0.051 1.016 -1.441 0.167 -0.139 1.14 -0.698 1.622 -0.474 1.346 -0.061 0.948 0.256 0.638 0.499 0.317 0.615 0.073 0.855 -0.296 1.152 -0.616 0.947 0 0 -1.717 1.313 0 0 0.216 1.181 2.311 0.718 1.557 0.834 0.833 0.755 0.596 1.073 0.131 0.837 -0.179 0.923 -0.609 0.995 -0.739 0.618 -1.376 0.637 -1.622 0.337 -1.726 0.011 -0.946 -0.259 -0.792 -0.67 0.039 0.15 -0.109 -0.176 -0.042 -0.059 -0.039 -0.14 -0.26 -1.329 -0.048 -0.007 -0.623 1.203 -0.085 0.185 -0.049 0.218 -0.019 0.426 0.082 0.269 1.181 1.261 1.516 0.417 2.081 -0.024 1.929 -0.415 1.697 -0.804 1.061 -0.905 0.845 -1.433 0.245 -1.42 -0.228 -1.31 -0.832 -1.471 -1.125 -1.014 -1.819 -0.972 -2.438 -0.751 0.216 1.181 0 0 1.875 -1.48 0 0 0.838 -1.329 0.379 -1.579 -0.144 -1.318 -0.578 -1.061 -1.054 -0.793 -1.364 -0.357 -1.678 0.088 -1.907 0.589 -1.33 0.869 -0.34 0.313 -1.043 1.796 -0.059 0.317 0.079 0.876 0.075 0.22 0.373 0.565 0.118 0.107 0.571 0.377" />
    <path class="write-flat-pen" fill="#FFFFFF" stroke-width="1.6" __comx="274.888" __comy="208.31" __timestamp="0x1782a55c0df" d="M274.472 185.896 l-0.469 -0.258 -0.039 0.135 0.001 0.096 0.156 0.983 0.067 0.303 0.882 4.615 0.512 1.711 0.145 -0.016 0.122 -1.806 -0.741 -4.707 -0.101 -0.327 -0.308 -0.931 -0.046 -0.109 -0.117 -0.115 -0.607 0.286" />
    <path class="write-flat-pen" fill="#FFFFFF" stroke-width="1.6" __comx="99.402" __comy="173.572" __timestamp="0x1782a560177" d="M84.519 175.611 l-0.983 -0.085 0.13 0.037 0.124 -0.346 0.07 -0.09 1.064 -1.103 1.951 -1.297 1.508 -0.582 2.227 -0.314 2.466 0.29 2.392 0.681 6.593 3.572 1.457 0.53 1.697 0.141 1.763 -0.444 3.378 -2.011 0.488 -0.342 2 -1.291 0.333 -0.192 0.879 -0.461 1.496 -0.729 -0.006 -0.014 -1.571 0.562 -0.926 0.383 -0.363 0.17 -2.101 1.162 -0.5 0.311 -3.36 1.816 -1.566 0.362 -1.484 -0.137 -1.316 -0.481 -6.621 -3.569 -2.52 -0.724 -2.616 -0.316 -2.404 0.341 -1.657 0.653 -2.053 1.428 -1.086 1.257 -0.145 0.252 -0.002 0.785 0.218 0.07 1.048 -0.09" />
    <path class="write-flat-pen" fill="#FFFFFF" stroke-width="1.6" __comx="113.484" __comy="172.041" __timestamp="0x1782a56039a" d="M112.066 172.554 l0.146 -0.449 0.013 -0.09 0.007 -0.372 -0.023 -0.141 -0.109 -0.458 -0.123 -0.201 -0.227 -0.138 0 0 -0.53 0.511 0.018 0.146 0.788 1.294 1.114 0.89 1.294 0.492 0.201 0.213 0.041 1.329 0.016 0.04 -0.004 0.09 -0.153 1.508 0.043 0.017 0.913 -1.211 0.07 -0.099 0.087 -0.188 0.097 -1.938 -0.716 -0.693 -1.366 -0.495 -0.875 -0.664 -0.716 -0.942 -0.009 0.024 -0.53 0.511 0 0 0.015 -0.075 -0.043 -0.089 0.217 0.31 0.049 0.076 0.13 0.285 0.016 0.04 0.025 0.449" />
    <path class="write-flat-pen" fill="#FFFFFF" stroke-width="1.6" __comx="39.437" __comy="149.434" __timestamp="0x1782a560b04" d="M35.709 149.043 l0.045 -0.229 0.007 -0.035 0.042 -0.203 0.003 -0.029 0.029 -0.123 0.021 -0.026 0.038 -0.021 -0.445 0.292 -0.154 -0.049 -0.069 -0.099 -0.01 0.076 0.014 0.23 0.034 0.294 0.193 1.161 0.076 0.422 0.334 2.082 0.359 4.438 0.297 0.758 0.756 0.272 2.581 -0.839 1.172 -0.201 2.624 -0.126 -0.047 -1.101 -2.698 0.101 -1.326 0.232 -2.295 0.772 0.063 0.027 -0.061 -0.145 -0.368 -4.319 -0.368 -2.136 -0.093 -0.438 -0.281 -1.152 -0.092 -0.293 -0.087 -0.208 -0.037 -0.061 -0.092 -0.205 -0.158 -0.051 -0.445 0.292 0.04 0.037 0.028 0.041 0.055 0.105 0.006 0.013 0.057 0.193 0.01 0.029 0.045 0.224" />
    <path class="write-flat-pen" fill="#FFFFFF" stroke-width="1.6" __comx="46.135" __comy="151.884" __timestamp="0x1782a561427" d="M44.708 154.8 l0.152 0.059 0.027 0.015 0.122 0.057 0.053 0.02 0.118 0.039 0.091 0.02 0.218 0.028 0.127 0.004 0.261 -0.019 0.152 -0.028 0.382 -0.109 0.158 -0.072 0.412 -0.255 0.184 -0.158 0.62 -0.812 0.09 -0.215 0.157 -0.729 -0.202 -0.712 -0.538 -0.447 -0.754 -0.156 -0.98 0.168 -0.846 0.514 -0.619 0.827 -0.3 0.892 -0.011 0.848 0.319 0.949 0.607 0.577 0.802 0.252 0.873 -0.115 0.908 -0.476 0.167 -0.128 0.223 -0.216 0.101 -0.117 0.088 -0.118 0.073 -0.112 0.078 -0.129 0.054 -0.115 0.414 -0.926 -0.039 -0.035 -0.872 0.518 -0.095 0.052 -0.107 0.058 -0.098 0.052 -0.105 0.056 -0.096 0.049 -0.217 0.109 -0.096 0.039 -0.718 0.284 -0.431 0.058 -0.289 -0.089 -0.196 -0.184 -0.163 -0.479 0.005 -0.46 0.18 -0.537 0.369 -0.494 0.46 -0.282 0.544 -0.098 0.257 0.047 0.049 0.032 0.042 0.104 -0.052 0.363 0.002 0.007 -0.412 0.681 -0.05 0.063 -0.271 0.246 -0.051 0.043 -0.27 0.157 -0.079 0.042 -0.185 0.078 -0.075 0.028 -0.174 0.054 -0.06 0.018 -0.11 0.028 -0.05 0.014 -0.125 0.039 -0.024 0.011 -0.157 0.026" />
    <path class="write-flat-pen" fill="#FFFFFF" stroke-width="1.6" __comx="51.681" __comy="151.884" __timestamp="0x1782a561577" d="M49.884 151.885 l-0.304 0.09 -0.082 0.119 -0.073 0.141 -0.021 0.076 -0.041 0.172 -0.015 0.121 -0.004 0.285 0.026 0.205 0.125 0.543 0.067 0.205 0.289 0.731 0.097 0.198 0.454 0.707 0.671 0.464 0.687 0.035 0.856 -0.554 0.557 -0.746 0.506 -1.332 0.325 -1.722 0.013 -0.138 0.001 -0.31 -0.017 -0.077 -0.042 -0.08 -0.035 -0.04 -0.368 -0.483 -0.055 -0.004 -0.427 0.431 -0.041 0.041 -0.05 0.086 -0.022 0.045 -0.059 0.248 -0.019 0.077 -0.385 1.571 -0.425 1.079 -0.323 0.441 -0.337 0.242 0.036 0.013 -0.223 -0.126 -0.332 -0.441 -0.067 -0.109 -0.345 -0.643 -0.072 -0.142 -0.198 -0.446 -0.049 -0.116 -0.066 -0.201 -0.024 -0.074 -0.043 -0.143 -0.016 -0.021 -0.039 -0.043 -0.059 0.076 0.122 -0.098" />
    <path class="write-flat-pen" fill="#FFFFFF" stroke-width="1.6" __comx="57.528" __comy="151.884" __timestamp="0x1782a5616fa" d="M55.213 154.356 l0.318 0.044 0.057 0.006 0.153 0.011 0.067 -0.008 0.188 -0.022 0.105 -0.029 0.261 -0.093 0.121 -0.061 0.297 -0.194 0.113 -0.101 0.432 -0.487 0.093 -0.147 0.309 -0.692 -0.007 -0.772 -0.516 -0.57 -0.816 -0.044 -0.643 0.44 -0.419 0.812 -0.145 1.053 0.159 0.832 0.43 0.829 0.615 0.517 0.861 0.252 1.33 -0.472 0.225 -0.181 0.273 -0.293 0.128 -0.174 0.106 -0.17 0.095 -0.182 0.087 -0.198 0.062 -0.177 0.058 -0.207 0.262 -0.937 -0.03 -0.018 -0.685 0.691 -0.147 0.146 -0.113 0.109 -0.133 0.112 -0.128 0.103 -0.124 0.094 -0.119 0.083 -0.257 0.158 -0.064 0.022 -0.843 0.218 -0.268 -0.073 -0.25 -0.196 -0.262 -0.459 -0.109 -0.472 0.08 -0.669 0.197 -0.384 0.093 -0.063 -0.025 -0.002 -0.074 -0.086 0.012 0.124 -0.148 0.432 -0.013 0.034 -0.284 0.451 -0.025 0.042 -0.172 0.198 -0.042 0.047 -0.167 0.151 -0.039 0.04 -0.117 0.092 -0.011 0.017 -0.08 0.052 -0.016 0.012 -0.299 0.049" />
    <path class="write-flat-pen" fill="#FFFFFF" stroke-width="1.6" __comx="60.649" __comy="151.884" __timestamp="0x1782a5617db" d="M59.189 147.564 l0.155 0.452 0.027 0.097 0.126 0.448 0.053 0.195 0.209 0.767 0.079 0.298 0.431 1.863 0.082 0.399 0.81 3.487 0.082 0.115 0.077 0.075 0.075 0.035 0.544 0.132 0.034 -0.024 0.062 -0.556 0.024 -0.039 0.024 -0.025 0.025 -0.017 -0.712 -3.411 -0.094 -0.415 -0.532 -1.884 -0.116 -0.322 -0.3 -0.754 -0.089 -0.205 -0.224 -0.443 -0.062 -0.099 -0.233 -0.415" />
    <path class="write-flat-pen" fill="#FFFFFF" stroke-width="1.6" __comx="67.065" __comy="151.884" __timestamp="0x1782a561a82" d="M64.489 150.881 l-0.155 0.14 -0.033 0.05 -0.075 0.131 -0.031 0.071 -0.057 0.145 -0.032 0.096 -0.062 0.213 -0.033 0.135 -0.053 0.294 -0.01 0.192 0.004 0.351 0.013 0.186 0.072 0.521 0.032 0.17 0.231 0.799 0.069 0.155 0.363 0.558 0.739 0.313 0.836 -0.406 0.533 -1.079 -0.362 0.186 0.576 0.623 0.668 0.378 0.828 -0.057 0.726 -0.544 0.511 -0.845 0.336 -1.147 0.056 -1.269 -0.276 -1.239 -0.602 -0.737 -0.409 -0.068 -0.314 0.105 -0.186 0.149 -0.127 0.224 -0.047 0.152 -0.017 0.134 -0.002 0.135 0.011 0.153 0.03 0.137 0.195 0.756 0.031 0.004 0.39 -0.676 0.062 -0.093 0.061 -0.071 0.055 -0.046 0.049 -0.029 0.024 0.019 0.029 0.041 -0.1 0.091 -0.131 0.065 -0.32 -0.05 0.072 0.169 0.161 0.791 -0.033 0.938 -0.227 0.836 -0.276 0.497 -0.215 0.186 -0.084 0.023 -0.189 -0.085 -1.088 -1.119 -0.767 0.406 -0.544 1.035 0.019 0 0.078 0.05 -0.144 -0.168 -0.011 -0.013 -0.286 -0.667 -0.04 -0.11 -0.157 -0.463 -0.043 -0.138 -0.084 -0.301 -0.034 -0.129 -0.039 -0.245 -0.016 -0.118 -0.024 -0.207 -0.01 -0.085 -0.013 -0.137 -0.005 -0.055 -0.005 -0.121 -0.007 -0.011 0.068 -0.163" />
    <path class="write-flat-pen" fill="#FFFFFF" stroke-width="1.6" __comx="72.329" __comy="151.884" __timestamp="0x1782a561b6e" d="M71.748 150.718 l-0.02 0.325 -0.01 0.063 -0.016 0.174 -0.003 0.115 0.01 0.47 0.009 0.187 0.051 0.807 0.029 0.22 0.325 1.37 0.818 0.067 0.013 -0.087 -0.044 -0.131 -0.069 -0.099 -0.056 -0.124 -0.061 -0.152 -0.233 -0.576 -0.008 0.001 -0.149 0.603 -0.039 0.155 -0.043 0.122 -0.062 0.074 -0.047 -0.034 0 -0.053 0.818 0.067 -0.227 -1.379 -0.043 -0.182 -0.144 -0.77 -0.037 -0.183 -0.104 -0.457 -0.029 -0.106 -0.053 -0.163 -0.022 -0.048 -0.063 -0.308" />
    <path class="write-flat-pen" fill="#FFFFFF" stroke-width="1.6" __comx="72.564" __comy="151.884" __timestamp="0x1782a561be2" d="M72.419 146.84 l0.05 0.437 0.143 0.565 0.035 -0.002 0.063 -0.58 -0.018 -0.441" />
    <path class="write-flat-pen" fill="#FFFFFF" stroke-width="1.6" __comx="76.306" __comy="151.884" __timestamp="0x1782a561d82" d="M76.403 149.119 l0.105 -0.263 0.008 -0.06 -0.026 -0.192 -0.074 -0.099 -0.191 -0.143 -0.162 -0.037 -0.415 0.037 -0.17 0.088 -0.424 0.445 -0.078 0.172 -0.08 0.604 0.289 0.675 1.461 1.174 0.063 0.052 0.592 0.819 -0.035 -0.1 -0.113 0.445 0.05 -0.075 -0.392 0.26 -0.695 0.19 -0.517 0.01 -0.361 -0.102 0.085 0.119 -0.044 0.002 -0.015 0.037 -0.028 0.006 -0.032 -0.011 -0.031 -0.025 -0.026 -0.054 -0.003 -0.107 0.061 -0.746 -0.027 -0.015 -0.597 0.451 -0.117 0.1 -0.096 0.132 -0.066 0.136 -0.043 0.151 -0.013 0.158 0.02 0.171 0.091 0.264 0.165 0.211 0.834 0.403 0.962 -0.026 1.057 -0.336 0.658 -0.524 0.226 -0.296 0.11 -0.998 -0.1 -0.327 -0.873 -1.032 -0.167 -0.119 -1.341 -0.96 -0.139 -0.258 0.001 -0.265 -0.022 0.038 0.201 -0.324 -0.039 0.012 0.194 -0.091 -0.022 -0.018 0.076 -0.005 -0.02 -0.04 0.048 0.013 0.007 -0.038 -0.007 0.258" />
    <path class="write-flat-pen" fill="#FFFFFF" stroke-width="1.6" __comx="82.927" __comy="151.884" __timestamp="0x1782a561f3c" d="M80.216 150.362 l-0.105 0.149 -0.011 0.022 -0.06 0.098 -0.021 0.075 -0.026 0.157 0.011 0.066 0.042 0.184 0.074 0.118 0.106 0.13 0.109 0.079 0.247 0.118 0.187 0.022 0.361 -0.024 0.202 -0.065 0.567 -0.331 0.184 -0.17 0.452 -0.672 0.171 -0.825 -0.387 -0.742 -0.646 -0.31 -0.84 0.065 -0.774 0.571 -0.486 0.909 -0.197 1.119 0.119 0.856 0.39 0.826 0.763 0.661 1.058 0.319 1.283 -0.115 1.875 -0.947 0.316 -0.282 0.248 -0.28 0.212 -0.297 0.182 -0.313 0.145 -0.305 0.125 -0.298 0.096 -0.3 0.289 -0.904 -0.036 -0.022 -0.666 0.677 -0.212 0.21 -0.213 0.199 -0.226 0.196 -0.238 0.193 -0.234 0.176 -0.236 0.163 -0.208 0.125 -1.579 0.697 -0.794 0.075 -0.56 -0.15 -0.375 -0.285 -0.225 -0.4 -0.093 -0.473 0.108 -0.743 0.268 -0.505 0.291 -0.204 0.183 -0.002 -0.013 0.003 -0.012 0.007 -0.039 0.182 -0.22 0.388 -0.002 0.013 -0.325 0.283 0.012 0.01 -0.145 0.076 0.035 0.019 -0.069 0.028 0.016 0.028 -0.051 0.006 -0.011 0.025 -0.06 -0.013 0 0.03 -0.06 -0.062 -0.019 -0.009 -0.036 -0.069 -0.007 0.009 0.011 -0.165" />
    <path class="write-flat-pen" fill="#FFFFFF" stroke-width="1.6" __comx="32.346" __comy="167.751" __timestamp="0x1782a56236a" d="M27.513 167.335 l0.017 -0.246 0.005 -0.027 0.036 -0.11 0.017 0.02 0.002 0.11 -0.203 0.167 -0.211 -0.04 -0.053 -0.024 0.005 0.049 0.015 0.066 0.034 0.1 0.048 0.126 0.142 0.338 0.093 0.206 0.235 0.49 0.133 0.272 0.783 1.577 0.165 0.323 1.336 2.798 0.082 0.185 0.476 1.04 0 0 0.221 0.224 0 0 1.255 -0.598 -0.156 -2.338 0.091 -0.99 0.234 -0.693 0.227 -0.301 0.185 -0.085 0.173 0.011 0.529 0.273 0.85 0.871 0.909 1.327 1.109 2.392 0.092 0.108 0.132 0.114 0.237 0.137 0.413 0.04 0.315 -0.235 0.059 -0.164 0.078 -0.607 -0.482 -0.313 -0.522 0.319 0.015 -0.097 0.266 -0.203 0.367 0.033 0.189 0.101 0.082 0.053 0.047 0.034 -1.049 -2.468 -1.074 -1.548 -1.119 -1.134 -1.027 -0.531 -0.874 -0.058 -0.887 0.405 -0.608 0.806 -0.371 1.096 -0.118 1.295 0.198 2.461 1.255 -0.598 0 0 -0.038 -0.019 0 0 -0.39 -0.767 -0.092 -0.191 -1.439 -2.788 -0.182 -0.333 -0.869 -1.543 -0.166 -0.273 -0.305 -0.463 -0.136 -0.193 -0.237 -0.305 -0.107 -0.12 -0.094 -0.093 -0.084 -0.073 -0.081 -0.053 -0.102 -0.076 -0.284 -0.069 -0.228 0.185 -0.014 0.168 0.015 0.075 0.059 0.146 0.013 0.029 0.07 0.231" />
    <path class="write-flat-pen" fill="#FFFFFF" stroke-width="1.6" __comx="41.592" __comy="167.751" __timestamp="0x1782a56245e" d="M38.292 169.91 l0.449 -0.004 0.043 0.01 0.156 0.018 0.117 0.003 0.461 -0.025 0.204 -0.021 3.378 -0.591 0.202 -0.053 0.17 -0.049 0.186 -0.058 0.171 -0.056 0.166 -0.067 0.982 -0.376 -0.009 -0.102 -1.033 -0.199 -0.178 -0.036 -0.189 -0.022 -0.209 -0.013 -0.187 -0.003 -0.229 0.005 -3.401 0.545 -0.193 0.045 -0.426 0.112 -0.089 0.028 -0.139 0.048 -0.046 0.019 -0.445 0.101" />
    <path class="write-flat-pen" fill="#FFFFFF" stroke-width="1.6" __comx="50.215" __comy="167.751" __timestamp="0x1782a56261d" d="M50.416 168.208 l0.095 -0.272 0.015 -0.038 0.056 -0.151 0.015 -0.052 0.034 -0.139 0.002 -0.095 -0.009 -0.16 -0.031 -0.105 -0.087 -0.192 -0.088 -0.102 -0.182 -0.144 -0.218 -0.077 -0.352 -0.04 -0.277 0.028 -0.881 0.343 -0.279 0.212 -0.586 0.653 -0.564 1.084 -0.303 1.322 0.059 0.866 0.38 1.007 0.648 0.787 0.788 0.423 0.909 0.16 0.917 -0.122 0.881 -0.368 1.155 -0.854 0.19 -0.196 0.157 -0.184 0.133 -0.181 0.107 -0.173 0.101 -0.188 0.066 -0.162 0.057 -0.175 0.333 -0.979 -0.101 -0.068 -0.784 0.675 -0.137 0.113 -0.108 0.086 -0.135 0.1 -0.131 0.1 -0.141 0.104 -0.16 0.115 -0.156 0.109 -1.041 0.678 -0.61 0.257 -0.57 0.078 -0.53 -0.091 -0.405 -0.216 -0.371 -0.446 -0.249 -0.651 -0.037 -0.511 0.22 -1.005 0.412 -0.831 0.401 -0.481 0.076 -0.068 0.593 -0.316 0.056 -0.028 0.158 -0.039 -0.004 -0.025 0.023 -0.023 -0.016 -0.034 0.07 0.028 0.01 -0.015 0.052 0.054 0.018 0.009 0.034 0.081 0.011 0.031 0.03 0.14 0.006 0.024 -0.006 0.282" />
    <path class="write-flat-pen" fill="#FFFFFF" stroke-width="1.6" __comx="55.256" __comy="167.751" __timestamp="0x1782a5627b4" d="M55.145 169.285 l0.171 -0.173 0.01 -0.003 0.071 -0.044 0.053 -0.053 0.078 -0.088 0.049 -0.075 0.08 -0.137 0.039 -0.089 0.076 -0.213 0.018 -0.108 0.009 -0.305 -0.048 -0.185 -0.214 -0.385 -0.259 -0.213 -0.828 -0.128 -0.342 0.085 -0.838 0.428 -0.549 0.571 -0.386 0.973 -0.091 1.066 0.156 0.814 0.481 0.938 0.704 0.681 0.9 0.368 0.851 -0.015 0.852 -0.309 0.875 -0.696 0.668 -0.923 0.439 -1.102 0.096 -1.067 -0.422 -1.093 -0.146 -0.185 -0.28 -0.225 -0.171 -0.075 -0.145 -0.035 -0.195 -0.011 -0.258 0.073 -0.235 0.224 -0.008 0.21 0.141 0.467 0.278 0.08 0.369 -0.32 0.021 0.112 -0.176 0.18 -0.179 0.063 -0.111 0.007 -0.058 0.003 -0.065 -0.009 0.04 0.112 -0.041 -0.04 0.172 0.633 -0.058 0.549 -0.291 0.746 -0.441 0.625 -0.535 0.44 -0.412 0.165 -0.332 0.02 -0.397 -0.146 -0.36 -0.333 -0.3 -0.561 -0.09 -0.442 0.057 -0.688 0.216 -0.555 0.218 -0.238 0.505 -0.287 -0.025 0 0.273 -0.019 -0.136 -0.118 0.093 0.059 -0.012 -0.073 0.055 0.113 0.012 -0.002 0.029 0.164 0.012 0.049 0.017 0.114 0.012 0.037 0.012 0.064 0.011 0.023 0.002 0.056 -0.002 0.015 -0.097 0.233" />
    <path class="write-flat-pen" fill="#FFFFFF" stroke-width="1.6" __comx="62.145" __comy="167.751" __timestamp="0x1782a562932" d="M61.76 171.256 l0.087 0.183 0.004 0.013 0.004 0.076 0.056 0.067 0.284 0.082 0.132 -0.223 0.04 -0.074 0.027 -0.09 0.017 -0.07 0.021 -0.065 0.01 -0.096 0.008 -0.101 -0.003 -0.13 -0.004 -0.144 -0.045 -0.374 -0.049 -0.241 -0.197 -0.777 -0.099 -0.332 -1.518 -4.213 -0.353 -1.495 -0.021 -0.803 0.08 -0.285 0.128 -0.135 0.18 -0.064 0.57 0.033 2.44 0.896 0.114 0.04 0.478 0.178 0.053 0.013 0.167 0.047 0.009 -0.004 0.041 0.002 1.048 0.165 0.022 -0.031 -0.506 -0.938 -0.036 -0.051 -0.029 -0.028 -0.171 -0.156 -0.088 -0.058 -0.468 -0.279 -0.155 -0.076 -2.628 -1.058 -1.057 -0.066 -0.743 0.266 -0.588 0.611 -0.225 0.816 0.042 1.147 0.411 1.702 1.582 4.249 0.106 0.294 0.268 0.73 0.076 0.195 0.12 0.313 0.054 0.136 0.058 0.115 0.045 0.083 0.046 0.06 0.036 0.045 0.034 0.011 0.027 -0.041 0.035 -0.046 0.126 -0.209 0.262 0.078 0.046 0.058 -0.049 0.018 -0.004 0.002 -0.164 -0.128" />
    <path class="write-flat-pen" fill="#FFFFFF" stroke-width="1.6" __comx="61.708" __comy="167.751" __timestamp="0x1782a562a1c" d="M58.714 168.449 l0.455 -0.087 0.048 0.005 0.332 -0.031 0.187 -0.036 0.613 -0.139 0.211 -0.056 3.169 -1.018 0.072 -0.041 0.076 -0.045 0.074 -0.049 0.073 -0.054 0.899 -0.635 -0.012 -0.052 -1.088 -0.166 -0.095 -0.014 -0.095 -0.007 -0.093 -0.003 -0.112 0.006 -3.216 0.972 -0.2 0.075 -0.574 0.221 -0.148 0.062 -0.267 0.111 -0.061 0.026 -0.469 0.177" />
    <path class="write-flat-pen" fill="#FFFFFF" stroke-width="1.6" __comx="67.528" __comy="167.751" __timestamp="0x1782a562af3" d="M67.006 167.02 l0.023 0.324 -0.01 0.047 -0.014 0.154 -0.004 0.102 0.001 0.397 0.003 0.147 0.061 1.089 0.001 0.031 0.043 0.137 0.174 -0.221 0.398 -0.037 0.113 0.194 -0.081 0.001 -0.402 -0.165 -0.025 0.014 -0.081 0.426 -0.013 0.127 0.158 0.249 0.437 -0.042 0.21 -0.281 0.061 -0.424 -0.009 -0.097 -0.16 -1.087 -0.025 -0.15 -0.091 -0.41 -0.037 -0.12 -0.07 -0.158 -0.029 -0.044 -0.099 -0.306" />
    <path class="write-flat-pen" fill="#FFFFFF" stroke-width="1.6" __comx="67.596" __comy="167.751" __timestamp="0x1782a562b7d" d="M67.752 162.843 l0.083 -0.188 -0.066 0.061 -0.437 -0.19 0.055 0.273 0.026 0.073 0.202 0.611 0.034 -0.001 0.177 -0.619 0.023 -0.085 0.017 -0.289 -0.437 -0.19 -0.073 0.067 -0.031 0.392" />
    <path class="write-flat-pen" fill="#FFFFFF" stroke-width="1.6" __comx="73.64" __comy="167.751" __timestamp="0x1782a562d91" d="M70.743 160.945 l-0.555 -0.213 -0.035 0.051 -0.005 0.04 0.006 0.243 0.008 0.118 0.05 0.539 0.032 0.225 0.107 0.776 0.057 0.32 0.429 2.07 0.08 0.364 0.852 3.364 0.009 0.035 0 0 0.089 0.318 0 0 1.225 -0.213 -0.034 -0.941 0.156 -0.718 0.262 -0.527 0.504 -0.569 0.44 -0.268 0.587 -0.158 0.348 0.026 0.23 0.135 0.102 0.187 0.015 0.253 -0.144 0.388 -0.336 0.429 -0.41 0.279 -0.575 0.167 -0.535 -0.035 0.053 0.046 -0.1 -0.027 -0.037 0.002 -0.059 -0.023 -0.062 -0.03 -0.067 -0.04 -0.075 -0.07 -0.083 -0.126 -0.423 -0.762 -0.043 0.005 -0.236 0.839 -0.046 0.192 -0.007 0.215 0.029 0.199 0.053 0.179 0.077 0.17 0.11 0.167 0.231 0.236 0.26 0.156 1.07 0.177 1.091 -0.311 0.791 -0.548 0.605 -0.811 0.295 -0.931 -0.146 -0.892 -0.514 -0.697 -0.778 -0.375 -0.819 -0.039 -0.953 0.26 -0.758 0.452 -0.749 0.837 -0.407 0.824 -0.216 1.03 0.047 1.099 1.225 -0.213 0 0 -0.101 -0.285 0 0 -0.003 -0.01 -0.944 -3.324 -0.086 -0.342 -0.518 -2.04 -0.076 -0.295 -0.181 -0.758 -0.06 -0.217 -0.143 -0.517 -0.04 -0.123 -0.096 -0.236 -0.026 -0.047 -0.056 -0.033 -0.555 0.351" />
    <path class="write-flat-pen" fill="#FFFFFF" stroke-width="1.6" __comx="294.489" __comy="199.567" __timestamp="0x1782a564531" d="M290.489 178.737 l0.22 0.266 0.139 0.05 0.989 0.133 0.225 0.007 2.07 -0.074 0.209 -0.011 1.806 -0.016 0.81 0.146 0.27 0.181 0.151 0.259 0.109 1.266 -0.019 0.217 -0.312 2.631 -0.042 0.452 -0.174 3.416 0.238 6.211 -0.034 4.277 -0.485 10.647 -0.1 5.055 0.037 -0.128 -0.248 0.331 -0.357 0.226 -0.396 0.103 -0.607 -0.007 -1.414 -0.296 -1.394 -0.469 -0.037 -0.009 -0.146 -0.051 -0.006 0.016 -0.063 0 -0.023 0.03 -0.068 -0.009 -0.775 -0.417 -0.068 0.039 -0.027 0.88 0.015 0.135 0.066 0.141 0.104 0.161 0.092 0.093 0.212 0.172 0.152 0.091 1.549 0.627 1.676 0.368 0.985 -0.016 0.823 -0.266 0.734 -0.559 0.449 -0.735 0.072 -0.24 0.006 -5.231 0.446 -10.652 -0.008 -4.326 -0.248 -6.186 0.138 -3.349 0.029 -0.423 0.22 -2.655 0.009 -0.331 -0.243 -1.551 -0.4 -0.571 -0.582 -0.356 -1.059 -0.162 -1.899 0.066 -0.223 0.019 -2.04 0.168 -0.176 0.006 -0.907 -0.032 0.044 0.02 -0.176 -0.122" />
    <path class="write-flat-pen" fill="#FFFFFF" stroke-width="1.6" __comx="367.379" __comy="170.283" __timestamp="0x1782f7869ce" d="M366.419 162.665 l0.074 -1.011 -0.004 0.059 0.117 -0.042 -0.313 -0.091 0.402 0.927 0.105 0.367 0.527 2.487 0.405 4.175 0 3.774 -0.425 2.977 -0.222 0.586 -0.044 0.092 0.047 0.073 -0.113 -0.052 -0.153 -0.12 -0.827 -0.739 -0.081 0.054 0.362 1.048 0.096 0.254 0.163 0.221 0.298 0.247 1.044 -0.118 0.52 -1.255 0.443 -3.192 -0.018 -3.907 -0.46 -4.29 -0.641 -2.573 -0.173 -0.476 -0.728 -1.18 -0.489 -0.152 -0.407 0.688 -0.012 0.129 0.099 1.045" />
    <path class="write-flat-pen" fill="#FFFFFF" stroke-width="1.6" __comx="371.704" __comy="170.283" __timestamp="0x1782f786b8c" d="M367.309 162.012 l-0.389 -0.867 -0.018 -0.057 -0.134 -1.081 0.022 -0.097 0.633 -1.581 1.129 -1.605 1.208 -1.123 1.313 -0.793 1.614 -0.468 1.281 -0.016 0.995 0.296 0.863 0.676 0.447 0.927 0.093 0.803 -0.247 1.354 -0.665 1.494 -0.978 1.313 -1.236 1.073 -1.011 0.462 -1.212 0.165 -0.806 -0.138 -0.658 0.878 0.079 0.099 0.229 0.103 0.145 0.05 0.159 0.055 0.234 0.075 1.046 0.349 0.055 -0.079 -0.697 -0.855 -0.151 -0.191 -0.104 -0.129 -0.071 -0.101 0.04 -0.046 0.061 0.068 -0.658 0.878 1.022 0.324 1.659 -0.228 1.356 -0.633 1.471 -1.302 1.133 -1.549 0.761 -1.773 0.278 -1.688 -0.161 -1.183 -0.678 -1.343 -1.263 -0.962 -1.376 -0.397 -1.61 0.033 -1.901 0.565 -1.531 0.94 -1.369 1.292 -1.241 1.835 -0.629 1.847 -0.032 0.363 0.347 1.306 0.094 0.156 0.543 0.793" />
    <path class="write-flat-pen" fill="#FFFFFF" stroke-width="1.6" __comx="381.66" __comy="170.283" __timestamp="0x1782f786da6" d="M378.274 170.574 l-0.523 -0.535 -0.02 -0.027 -0.484 -0.486 -0.432 0.212 -0.23 0.924 0.012 0.293 0.788 2.989 0.172 0.324 0.737 1.014 1.004 0.659 1.14 0.058 1.139 -0.534 1.007 -1.128 1.379 -3.215 0 0 -0.126 0.021 0 0 -0.743 -0.558 0.33 3.104 0.535 1.882 0.946 1.051 0.385 0.074 0.392 -0.093 0.184 -0.116 0.87 -0.657 -0.022 -0.069 -1.09 -0.019 -0.101 -0.023 -0.117 -0.07 0.132 0.006 -0.436 -0.671 -0.431 -1.534 -0.314 -2.997 -0.743 -0.558 0 0 -0.552 0.098 0 0 -1.548 3.669 -0.696 0.796 -0.631 0.312 -0.513 -0.012 -0.563 -0.349 -0.585 -0.761 -0.082 -0.141 -0.889 -2.723 -0.015 -0.077 -0.008 -0.451 -0.366 0.178 0.164 0.022 0.022 0.018 0.664 0.424" />
    <path class="write-flat-pen" fill="#FFFFFF" stroke-width="1.6" __comx="391.426" __comy="170.283" __timestamp="0x1782f786f5d" d="M391.693 168.202 l-0.682 -0.707 -0.309 0.165 -0.089 0.116 -0.347 0.746 0.224 0.984 2.5 2.71 0.709 1.096 0.085 0.579 -0.171 0.501 -0.501 0.513 -0.938 0.417 -1.12 0.15 -1.104 -0.144 -1.042 -0.574 0.02 0.163 -0.09 -0.119 -0.032 -0.104 -0.109 -1.098 -0.042 -0.01 -0.612 0.919 -0.106 0.194 -0.079 0.398 0.093 0.395 1.55 1.078 1.56 0.196 1.472 -0.214 1.318 -0.62 0.834 -0.915 0.31 -1.043 -0.196 -1.091 -0.904 -1.375 -2.397 -2.548 -0.11 -0.354 0.1 -0.338 -0.045 0.056 0.119 -0.227 -0.682 0.107" />
    <path class="write-flat-pen" fill="#FFFFFF" stroke-width="1.6" __comx="399.447" __comy="170.283" __timestamp="0x1782f78711e" d="M395.665 161.175 l0.239 -0.597 0 0 -0.679 -0.022 0.384 1.724 0.042 0.405 0.583 5.013 0 0 0.071 0.554 0 0 0.468 4.921 0 0 1.195 0.044 0.263 -1.477 0.453 -0.945 0.324 -0.241 0.303 0.006 0.503 0.313 0.898 1.192 1.862 3.224 0.164 0.092 1.07 0.382 0.032 -0.035 -0.495 -1.022 0.017 -0.041 -1.678 -3.229 -1.083 -1.424 -0.942 -0.589 -1.003 -0.039 -0.892 0.63 -0.67 1.349 -0.312 1.634 1.195 0.044 0 0 -0.606 -4.923 0 0 -0.086 -0.564 0 0 -0.747 -4.988 -0.074 -0.459 -0.552 -1.737 -0.679 -0.022 0 0 -0.175 0.619" />
    <path class="write-flat-pen" fill="#FFFFFF" stroke-width="1.6" __comx="407.976" __comy="170.283" __timestamp="0x1782f7872b5" d="M408.326 170.479 l0.321 -0.915 -0.437 -0.418 -1.255 0.65 -0.204 0.281 -0.63 1.345 -0.226 1.589 0.245 1.366 0.574 0.945 0.932 0.499 0.97 -0.17 0.798 -0.717 0.589 -1.45 0.053 -1.551 -0.934 -1.571 -0.368 -0.105 -0.387 0.094 -0.135 0.112 -0.5 0.674 0.023 0.046 0.839 0.002 -0.001 0.044 0.008 0.078 -0.233 -0.059 0.423 0.976 -0.04 0.994 -0.389 0.987 -0.317 0.301 -0.212 0.051 -0.287 -0.136 -0.31 -0.474 -0.199 -0.969 0.153 -1.253 0.481 -1.126 0.01 -0.024 0.412 -0.346 -0.406 -0.389 -0.033 0.464" />
    <path class="write-flat-pen" fill="#FFFFFF" stroke-width="1.6" __comx="416.334" __comy="170.283" __timestamp="0x1782f787494" d="M411.724 170.663 l0.286 -0.142 -0.488 -0.16 -0.007 0.025 0.005 0.515 0.011 0.188 0.234 1.6 0.068 0.304 0.603 2.057 0.722 1.033 0.956 0.29 0.876 -0.353 0.917 -1.053 1.273 -2.795 0.067 -0.054 0.073 0.033 2.705 4.116 0.358 0.059 0.183 -0.07 0.685 -0.402 -0.003 -0.036 -0.735 -0.3 -0.04 -0.054 0.153 0 -2.556 -4.188 -0.969 -0.42 -0.807 0.598 -1.355 2.884 -0.635 0.718 -0.249 0.105 -0.201 -0.053 -0.413 -0.557 -0.616 -1.837 -0.071 -0.246 -0.38 -1.522 -0.042 -0.174 -0.177 -0.537 -0.032 -0.055 -0.488 -0.16 -0.215 0.235" />
    <path class="write-flat-pen" fill="#FFFFFF" stroke-width="1.6" __comx="427.002" __comy="170.283" __timestamp="0x1782f78756c" d="M423.79 163.187 l1.031 1.06 1.277 2.474 1.654 4.207 1.638 5.961 0.024 0.091 0.069 0.233 0.388 1.453 0.02 -0.001 0.3 -1.494 0.023 -0.287 -0.015 -0.162 -1.513 -6.097 -1.682 -4.314 -1.384 -2.655 -1.193 -1.118" />
    <path class="write-flat-pen" fill="#FFFFFF" stroke-width="1.6" __comx="429.308" __comy="170.283" __timestamp="0x1782f787637" d="M422.052 171.131 l4.486 0.686 5.303 0.099 0.606 -0.042 0.611 -0.058 0.626 -0.075 0.642 -0.09 0.637 -0.11 1.6 -0.273 -0.003 -0.054 -1.62 -0.104 -0.642 -0.043 -0.641 -0.034 -0.623 -0.035 -0.606 -0.027 -0.579 -0.023 -5.214 -0.258 -4.443 -0.562" />
    <path class="write-flat-pen" fill="#FFFFFF" stroke-width="1.6" __comx="449.536" __comy="170.283" __timestamp="0x1782f7877c2" d="M449.536 171.535 l-0.526 0.927 -0.168 4.322 0.028 0.03 -0.08 0.981 0.021 0.01 0.723 -0.668 0.113 -0.145 0.27 -4.283 0.362 -0.787" />
    <path class="write-flat-pen" fill="#FFFFFF" stroke-width="1.6" __comx="450.918" __comy="170.283" __timestamp="0x1782f78786b" d="M450.682 165.815 l-0.337 1.045 -0.004 0.136 0.052 0.414 0.255 1.295 0.032 0 0.258 -1.281 0.092 -0.365 0.016 -0.015 0.45 -0.901" />
    <path class="write-flat-pen" fill="#FFFFFF" stroke-width="1.6" __comx="456.1" __comy="170.283" __timestamp="0x1782f787a03" d="M453.636 168.726 l1.152 -0.017 0.085 0.009 0.34 0.119 -0.025 0.006 0.013 0.13 -0.03 -0.122 -0.248 0.338 -0.07 0.065 -1.219 1.218 -0.455 1.044 0.242 1.13 0.922 1.07 3.311 1.674 0.089 0.151 0.015 -0.13 -0.685 0.249 -1.166 0.084 -1.201 -0.214 0.104 0.194 -0.021 0.164 -0.101 0.093 -0.015 -0.085 0.245 -0.692 -0.028 -0.029 -0.696 0.233 -0.216 0.113 -0.179 0.303 0.028 0.378 0.233 0.354 1.754 0.486 1.565 -0.161 1.27 -0.579 0.372 -0.974 -0.733 -0.763 -3.295 -1.672 -0.61 -0.721 -0.121 -0.552 0.239 -0.587 1.017 -1.205 0.133 -0.186 0.218 -0.673 -0.043 -0.25 -0.311 -0.273 -0.158 -0.062 -0.47 0.009 -0.119 0.02 -1.142 0.19" />
    <path class="write-flat-pen" fill="#FFFFFF" stroke-width="1.6" __comx="440.144" __comy="167.579" __timestamp="0x1782f787ce8" d="M440.271 157.482 l-0.146 0.51 -0.028 0.126 -0.288 1.515 -0.031 0.189 -0.076 0.887 0.292 1.27 0.046 0 0.294 -1.235 0.114 -0.84 0.02 -0.183 0.118 -1.544 0 -0.13 -0.009 -0.526" />
    <path class="write-flat-pen" fill="#FFFFFF" stroke-width="1.6" __comx="441.936" __comy="167.579" __timestamp="0x1782f787d7d" d="M441.787 156.381 l-0.367 1.533 0.04 0.251 0.247 1.346 0.057 -0.001 0.204 -1.353 0.033 -0.169 0.45 -1.423" />
    <path class="write-flat-pen" fill="#FFFFFF" stroke-width="1.6" __comx="460.694" __comy="167.579" __timestamp="0x1782f787f31" d="M460.363 157.613 l-0.329 0.901 0 0.285 0.528 2.874 0.776 0.933 0.018 -0.009 -0.223 -1.106 -0.383 -2.757 -0.008 -0.135 0.135 -0.85" />
    <path class="write-flat-pen" fill="#FFFFFF" stroke-width="1.6" __comx="464.611" __comy="167.579" __timestamp="0x1782f787fd6" d="M462.951 155.954 l2.019 4.486 0.226 0.297 1.025 1.336 0.048 -0.028 -0.669 -1.546 -0.132 -0.312 -1.868 -4.513" />
    <path class="write-flat-pen" fill="#FFFFFF" stroke-width="1.6" __comx="482.801" __comy="167.579" __timestamp="0x1782f78832e" d="M484.868 173.748 l-0.224 -1.759 -0.031 -0.191 -0.412 -1.574 -0.096 -0.203 -0.615 -0.793 -0.985 -0.285 -1.118 0.407 -1.303 1.362 -0.825 1.457 -0.397 1.643 0.457 0.902 0.992 0.047 2.011 -1.652 0.11 -0.019 0.21 0.238 0.961 3.019 0.816 1.08 0.251 0.164 0.262 0.122 0.271 0.076 1.502 0.402 0.034 -0.066 -1.202 -0.987 -0.179 -0.155 -0.138 -0.142 -0.059 -0.088 -0.505 -0.912 -0.987 -3.102 -0.816 -0.905 -1.035 0.204 -1.892 1.565 0.105 0.006 0.027 0.058 0.254 -1.089 0.67 -1.21 1.02 -1.106 0.567 -0.242 0.384 0.064 0.417 0.424 0.03 0.042 0.538 1.421 0.038 0.142 0.38 1.72" />
    <path class="write-flat-pen" fill="#FFFFFF" stroke-width="1.6" __comx="502.424" __comy="167.579" __timestamp="0x1782f788489" d="M502.439 169.689 l-0.451 1.59 -0.029 0.317 -0.323 4.69 0.16 1.071 0.045 0.01 0.603 -0.959 0.484 -4.737 0.011 -0.251 0.272 -1.553" />
    <path class="write-flat-pen" fill="#FFFFFF" stroke-width="1.6" __comx="506.802" __comy="167.579" __timestamp="0x1782f788535" d="M506.798 168.705 l0.042 0.681 0.005 0.191 0.021 2.94 -0.399 2.657 -0.011 0.068 -0.56 1.22 0.035 0.026 1.022 -0.87 0.162 -0.161 0.596 -2.875 -0.102 -3.055 -0.043 -0.245 -0.199 -0.678" />
    <path class="write-flat-pen" fill="#FFFFFF" stroke-width="1.6" __comx="504.728" __comy="167.579" __timestamp="0x1782f78860a" d="M498.972 170.388 l0.94 -0.546 1.902 -0.368 2.598 -0.1 3.218 0.341 0.414 0.057 0.796 0.082 0.387 0.016 1.716 0.079 0.017 -0.089 -1.622 -0.567 -0.364 -0.129 -0.764 -0.227 -0.435 -0.116 -3.321 -0.482 -2.765 0.116 -2.159 0.46 -1.037 0.739" />
    <path class="write-flat-pen" fill="#FFFFFF" stroke-width="1.6" __comx="512.655" __comy="167.579" __timestamp="0x1782f7888ed" d="M511.525 165.769 l0.219 0.463 0.043 0.103 0.935 2.134 1.003 1.193 0.057 -0.03 -0.397 -1.49 -1.031 -2.092 -0.088 -0.139 -0.375 -0.396" />
    <path class="write-flat-pen" fill="#FFFFFF" stroke-width="1.6" __comx="512.25" __comy="167.579" __timestamp="0x1782f7889ac" d="M512.06 168.774 l0.194 -0.949 0.026 -0.09 0.565 -2.018 0.015 -0.112 0.224 -1.647 -0.037 -0.012 -0.803 1.455 -0.057 0.103 -0.711 2.014 -0.033 0.171 -0.026 1.014" />
    <path class="write-flat-pen" fill="#FFFFFF" stroke-width="1.6" __comx="512.665" __comy="167.579" __timestamp="0x1782f788a36" d="M512.346 165.327 l0.129 1.193 0.479 1.197 0.029 -0.006 -0.033 -1.276 -0.226 -1.165" />
    <path class="write-flat-pen" fill="#FFFFFF" stroke-width="1.6" __comx="512.649" __comy="167.579" __timestamp="0x1782f788ad5" d="M509.413 167.693 l4.797 0.384 1.673 -0.153 0.001 -0.046 -1.65 -0.217 -4.771 -0.497" />
    <path class="write-flat-pen" fill="#FFFFFF" stroke-width="1.6" __comx="519.808" __comy="167.579" __timestamp="0x1782f788bed" d="M516.911 174.421 l1.08 -0.623 1.705 -0.598 0.34 -0.093 0.705 -0.175 0.359 -0.078 0.381 -0.084 1.606 -0.353 -0.004 -0.028 -1.644 0.049 -0.392 0.012 -0.374 0.021 -0.736 0.052 -0.391 0.037 -1.923 0.452 -1.095 0.841" />
    <path class="write-flat-pen" fill="#FFFFFF" stroke-width="1.6" __comx="527.74" __comy="167.579" __timestamp="0x1782f788d08" d="M527.658 172.149 l-0.349 0.25 -0.061 0.2 -0.029 1.384 0.024 0.276 0.234 2.247 0.469 1.644 0.065 -0.004 0.249 -1.703 -0.2 -2.268 -0.035 -0.251 -0.132 -1.265 -0.025 0.039 0.113 -0.24" />
    <path class="write-flat-pen" fill="#FFFFFF" stroke-width="1.6" __comx="529.669" __comy="167.579" __timestamp="0x1782f788da7" d="M529.77 166.176 l-0.534 0.771 -0.036 0.159 -0.175 1.06 0.007 0.003 0.626 -0.873 0.056 -0.062 0.599 -0.612" />
    <path class="write-flat-pen" fill="#FFFFFF" stroke-width="1.6" __comx="535.435" __comy="167.579" __timestamp="0x1782f7890bf" d="M533.493 170.734 l0.21 -0.509 -0.121 -0.211 -0.623 -0.433 -0.227 -0.044 -0.836 0.118 -0.638 0.622 -0.151 1.037 1.239 2.732 0.068 0.744 -0.174 0.309 -0.242 0.103 -0.217 -0.039 0.236 0.272 0.092 -0.219 0.014 -0.021 0.979 -0.326 0.232 -0.066 1.251 -0.358 0.226 -0.065 1.626 -0.601 1.582 -1.262 0.078 -0.151 0.191 -0.699 -0.246 -0.566 -1.203 0.387 -0.221 0.238 -0.677 1.122 -0.234 1.368 0.237 0.99 0.761 0.804 1.148 0.102 1.09 -0.691 0.899 -1.263 0.686 -2.008 -0.005 -1.705 -0.454 -1.321 -1.548 -1.496 -0.4 -0.177 -0.885 -0.214 -0.33 -0.032 -0.33 -0.002 -0.34 0.05 -1.607 0.25 -0.003 0.076 1.582 0.379 0.291 0.076 0.242 0.082 0.225 0.089 0.694 0.332 0.12 0.088 1.069 1.237 0.262 0.816 0.005 1.246 -0.521 1.608 -0.609 0.902 -0.48 0.336 -0.227 0.004 -0.216 -0.196 -0.121 -0.421 0.12 -0.919 0.457 -0.865 -0.037 0.033 0.086 -0.128 -0.211 -0.487 0.026 0.349 0.043 -0.079 -1.276 1.22 -1.519 0.487 -0.195 0.038 -1.271 0.201 -0.248 0.032 -1.078 0.174 -0.307 0.087 -1.184 1.101 0.839 0.943 1.076 0.08 0.869 -0.526 0.381 -0.96 -0.197 -1.181 -1.246 -2.594 0.05 -0.473 0.208 -0.246 0.422 -0.125 -0.031 -0.013 0.458 0.146 -0.07 -0.131 0.011 0.317" />
  </g>
</svg>
