<svg class="write-page" width="1010px" height="859.123px" xmlns="http://www.w3.org/2000/svg" xmlns:xlink="http://www.w3.org/1999/xlink">
  <g class="write-content write-v3" width="1010" height="859.123" xruling="30" yruling="30" marginLeft="30" papercolor="#1B1C1C" rulecolor="#3A00F9FF">
    <g class="ruleline write-std-ruling write-scale-down" fill="none" stroke="#00F9FF" stroke-opacity="0.227" stroke-width="1" shape-rendering="crispEdges" vector-effect="non-scaling-stroke">
      <rect class="pagerect" fill="#1B1C1C" stroke="none" x="0" y="0" width="1010" height="859.123" />
      <path class="yrule_1" d="M0 30 l1010 0" />
      <path d="M0 60 l1010 0" />
      <path d="M0 90 l1010 0" />
      <path d="M0 120 l1010 0" />
      <path d="M0 150 l1010 0" />
      <path d="M0 180 l1010 0" />
      <path d="M0 210 l1010 0" />
      <path d="M0 240 l1010 0" />
      <path d="M0 270 l1010 0" />
      <path d="M0 300 l1010 0" />
      <path d="M0 330 l1010 0" />
      <path d="M0 360 l1010 0" />
      <path d="M0 390 l1010 0" />
      <path d="M0 420 l1010 0" />
      <path d="M0 450 l1010 0" />
      <path d="M0 480 l1010 0" />
      <path d="M0 510 l1010 0" />
      <path d="M0 540 l1010 0" />
      <path d="M0 570 l1010 0" />
      <path d="M0 600 l1010 0" />
      <path d="M0 630 l1010 0" />
      <path d="M0 660 l1010 0" />
      <path d="M0 690 l1010 0" />
      <path d="M0 720 l1010 0" />
      <path d="M0 750 l1010 0" />
      <path d="M0 780 l1010 0" />
      <path d="M0 810 l1010 0" />
      <path d="M0 840 l1010 0" />
      <path class="xrule_1" d="M30 0 l0 859.123" />
      <path d="M60 0 l0 859.123" />
      <path d="M90 0 l0 859.123" />
      <path d="M120 0 l0 859.123" />
      <path d="M150 0 l0 859.123" />
      <path d="M180 0 l0 859.123" />
      <path d="M210 0 l0 859.123" />
      <path d="M240 0 l0 859.123" />
      <path d="M270 0 l0 859.123" />
      <path d="M300 0 l0 859.123" />
      <path d="M330 0 l0 859.123" />
      <path d="M360 0 l0 859.123" />
      <path d="M390 0 l0 859.123" />
      <path d="M420 0 l0 859.123" />
      <path d="M450 0 l0 859.123" />
      <path d="M480 0 l0 859.123" />
      <path d="M510 0 l0 859.123" />
      <path d="M540 0 l0 859.123" />
      <path d="M570 0 l0 859.123" />
      <path d="M600 0 l0 859.123" />
      <path d="M630 0 l0 859.123" />
      <path d="M660 0 l0 859.123" />
      <path d="M690 0 l0 859.123" />
      <path d="M720 0 l0 859.123" />
      <path d="M750 0 l0 859.123" />
      <path d="M780 0 l0 859.123" />
      <path d="M810 0 l0 859.123" />
      <path d="M840 0 l0 859.123" />
      <path d="M870 0 l0 859.123" />
      <path d="M900 0 l0 859.123" />
      <path d="M930 0 l0 859.123" />
      <path d="M960 0 l0 859.123" />
      <path d="M990 0 l0 859.123" />
      <path class="leftmargin" stroke="#FF0000" d="M30 0 l0 859.123" />
    </g>
    <path class="write-flat-pen" transform="translate(32.931,-5193.723)" fill="#FFFFFF" stroke-width="1.6" __comx="90.031" __comy="133.238" __timestamp="0x17857bb675c" d="M40.188 5319.522 l-0.035 0.716 0.032 0.18 0.253 1.05 0.084 0.319 1.211 4.097 0.283 1.098 0 0 1.243 6.001 0 0 0.342 3.911 0 0 1.52 -0.152 -0.64 -6.005 -0.162 -7.387 -0.586 -3.19 -1.843 -3.99 -0.018 -0.681 0.081 -0.07 1.043 -0.111 3.395 0.806 4.066 1.675 3.289 1.932 1.841 1.597 0.882 1.377 0.446 1.858 -0.314 2.449 -0.974 2.445 -1.77 2.604 -1.838 1.745 -1.934 1.14 -1.061 0.252 0.047 0.057 0 0 -0.155 1.158 1.031 -0.735 3.284 -1.03 8.811 -1.43 3.298 -1 1.757 -1.141 1.116 -1.471 0.252 -1.768 -0.931 -1.271 -1.462 -0.527 -1.996 0.216 -1.816 1.013 -1.327 1.536 -0.776 2.023 0.004 2.133 0.735 1.938 1.703 1.714 1.773 0.758 2.152 0.116 2.668 -0.791 1.8 -1.18 0.543 -0.492 0.472 -0.51 0.404 -0.524 1.639 -2.112 -0.131 -0.134 -2.151 1.588 -0.516 0.375 -0.512 0.369 -0.508 0.332 -1.654 0.865 -2.236 0.604 -1.603 -0.086 -1.226 -0.524 -1.243 -1.251 -0.51 -1.347 -0.003 -1.543 0.569 -1.483 0.96 -1.11 1.285 -0.717 1.306 -0.141 0.655 0.236 0.257 0.351 -0.102 0.712 -0.696 0.918 -1.332 0.865 -2.979 0.903 -8.818 1.432 -3.637 1.141 -1.238 0.883 -0.155 1.158 0 0 0.587 0.717 2.27 -0.538 2.3 -1.355 2.095 -1.989 1.966 -2.891 1.114 -2.796 0.376 -2.941 -0.577 -2.406 -1.152 -1.799 -2.127 -1.844 -3.513 -2.064 -4.289 -1.765 -3.789 -0.891 -1.849 0.213 -0.968 0.941 0.085 1.692 1.906 4.082 0.507 2.881 0.159 7.333 0.67 6.069 1.52 -0.152 0 0 -0.386 -3.996 0 0 -1.337 -6.111 0 0 -0.33 -1.164 -1.481 -4.055 -0.134 -0.318 -0.473 -0.964 -0.052 -0.082 -0.206 -0.612" />
    <path class="write-flat-pen" transform="translate(32.931,-5193.723)" fill="#FFFFFF" stroke-width="1.6" __comx="117.094" __comy="133.238" __timestamp="0x17857bb6918" d="M77.833 5334.695 l0.359 2.024 0.028 0.126 0.204 0.486 1.051 -0.207 0.083 -0.243 -0.91 -8.574 -0.122 -0.754 -0.46 -5.127 0.193 -3.16 0.473 -0.663 1.257 -0.566 2.422 0.01 3.529 0.869 3.123 1.276 0.081 0.038 0.141 0.084 2.322 1.474 0.192 -0.216 -1.737 -2.132 -0.124 -0.15 -0.204 -0.191 -3.292 -1.624 -3.836 -0.972 -2.944 -0.016 -1.947 0.873 -0.976 1.368 -0.21 3.722 0.499 5.294 0.131 0.775 1.152 8.276 0.013 0.026 1.051 -0.207 -0.296 -0.179 0.011 0.059 -0.63 -1.958" />
    <path class="write-flat-pen" transform="translate(32.931,-5193.723)" fill="#FFFFFF" stroke-width="1.6" __comx="114.407" __comy="133.238" __timestamp="0x17857bb69ee" d="M73.028 5329.474 l1.2 -0.74 0.139 -0.009 6.566 -0.195 5.275 -0.981 0.862 -0.232 0.83 -0.248 2.591 -0.759 -0.042 -0.229 -2.693 0.2 -0.875 0.062 -0.872 0.123 -5.215 0.694 -6.551 0.337 -0.503 0.094 -1.282 1.131" />
    <path class="write-flat-pen" transform="translate(32.931,-5193.723)" fill="#FFFFFF" stroke-width="1.6" __comx="138.24" __comy="133.238" __timestamp="0x17857bb6ed9" d="M105.048 5311.179 l0.241 -0.998 -0.163 -0.442 -0.897 0.073 -0.342 0.364 -1.673 3.918 -0.257 1.009 -0.773 5.536 -0.046 5.042 0.631 4.728 1.195 3.872 3.077 4.344 0.524 0.404 0.501 0.305 2.296 1.401 0.117 -0.148 -1.888 -1.916 -0.389 -0.401 -0.34 -0.363 -2.68 -4.207 -1.091 -3.579 -0.599 -4.523 0.031 -4.863 0.692 -5.394 0.201 -0.866 1.337 -3.783 -0.008 -0.034 -0.017 -0.131 -0.078 -0.247 0.046 0.862" />
    <path class="write-flat-pen" transform="translate(32.931,-5193.723)" fill="#FFFFFF" stroke-width="1.6" __comx="162.057" __comy="137.209" __timestamp="0x17857bb792a" d="M127.898 5322.266 l0.139 0.748 0.025 0.18 0.283 1.868 0.066 0.519 0.549 5.426 -0.056 4.65 1.018 -0.424 -0.017 0.001 -0.503 -0.331 -0.672 0.721 0.366 0.479 0.001 0.017 1.018 -0.424 0.24 -4.749 -0.767 -5.534 -0.116 -0.568 -0.536 -1.868 -0.087 -0.22 -0.374 -0.696" />
    <path class="write-flat-pen" transform="translate(32.931,-5193.723)" fill="#FFFFFF" stroke-width="1.6" __comx="169.645" __comy="137.209" __timestamp="0x17857bb7a0b" d="M135.949 5323.26 l0.148 1.756 0.028 0.454 0.101 4.076 -0.001 0.729 -0.229 6.559 0.869 -0.375 -0.646 -0.056 -0.195 0.229 0.156 0.629 0.869 -0.375 0.429 -6.593 -0.032 -0.794 -0.355 -4.11 -0.079 -0.495 -0.389 -1.738" />
    <path class="write-flat-pen" transform="translate(32.931,-5193.723)" fill="#FFFFFF" stroke-width="1.6" __comx="166.768" __comy="137.209" __timestamp="0x17857bb7b20" d="M122.696 5323.664 l0.098 -0.376 -0.202 0.113 3.026 -0.273 0.714 -0.052 15.467 -0.914 0.508 -0.013 0.793 -0.035 2.773 -0.145 0.009 -0.117 -2.725 -0.551 -0.794 -0.138 -0.565 -0.064 -15.554 0.698 -0.764 0.079 -3.152 0.56 -0.534 0.256 0.234 1.034" />
    <path class="write-flat-pen" transform="translate(32.931,-5193.723)" fill="#FFFFFF" stroke-width="1.6" __comx="179.031" __comy="137.473" __timestamp="0x17857bb8117" d="M142.622 5329.649 l1.086 1.712 0.196 0.294 3.597 4.691 1.964 1.974 0.113 -0.077 -1.122 -2.592 -3.684 -4.655 -0.213 -0.262 -1.305 -1.55" />
    <path class="write-flat-pen" transform="translate(32.931,-5193.723)" fill="#FFFFFF" stroke-width="1.6" __comx="178.62" __comy="137.473" __timestamp="0x17857bb81f6" d="M143.05 5336.716 l1.309 -0.355 0.335 -0.291 3.172 -5.357 0.763 -2.696 -0.118 -0.055 -1.542 2.273 -3.174 5.104 -0.038 0.057 -1.009 0.532" />
    <path class="write-flat-pen" transform="translate(32.931,-5193.723)" fill="#FFFFFF" stroke-width="1.6" __comx="180.475" __comy="137.473" __timestamp="0x17857bb82b4" d="M147.821 5330.252 l-0.419 1.856 -0.042 0.371 -0.502 4.549 -0.239 1.455 0.128 0.057 0.984 -1.271 0.586 -4.696 0.016 -0.359 0.139 -1.865" />
    <path class="write-flat-pen" transform="translate(32.931,-5193.723)" fill="#FFFFFF" stroke-width="1.6" __comx="181.189" __comy="137.473" __timestamp="0x17857bb8361" d="M142.651 5331.09 l0.503 0.299 0.16 0.094 2.045 0.728 0.515 0.112 5.259 0.048 2.731 -0.622 -0.013 -0.132 -2.747 -0.099 -5.116 -0.242 -0.391 -0.062 -2.034 -0.446 -0.16 -0.038 -0.599 -0.081" />
    <path class="write-flat-pen" transform="translate(32.931,-5193.723)" fill="#FFFFFF" stroke-width="1.6" __comx="212.539" __comy="137.473" __timestamp="0x17857bb85e1" d="M174.257 5336.569 l0.79 1.484 0.101 0.196 1.178 1.234 0.721 -0.329 0.652 -3.349 -0.065 -0.751 -0.8 -4.074 -3.275 -9.826 -0.68 -3.408 0.159 -1.375 0.593 -1.139 1.097 -0.868 1.731 -0.536 2.636 0.053 2.642 0.653 2.454 1.166 1.314 1.233 1.042 2.356 0.028 -0.022 -0.036 0.535 -0.309 2.173 0.141 0.052 1.203 -1.886 0.298 -0.631 0.064 -0.417 -1.074 -3.077 -1.758 -1.654 -2.826 -1.343 -2.973 -0.734 -3.072 -0.061 -2.263 0.702 -1.597 1.268 -0.882 1.706 -0.212 1.916 0.769 3.744 3.356 9.808 0.861 3.896 0.061 0.503 -0.28 2.65 0.451 -0.197 -0.742 -0.474 -0.067 -0.09 -1.025 -1.35" />
    <path class="write-flat-pen" transform="translate(32.931,-5193.723)" fill="#FFFFFF" stroke-width="1.6" __comx="209.978" __comy="137.473" __timestamp="0x17857bb86bb" d="M167.663 5330.316 l2.829 -0.196 0.415 -0.022 12.342 -1.106 0.56 -0.127 2.741 -0.61 -0.017 -0.182 -2.807 -0.087 -0.566 -0.02 -12.358 0.828 -0.438 0.048 -2.82 0.475" />
    <path class="write-flat-pen" transform="translate(32.931,-5193.723)" fill="#FFFFFF" stroke-width="1.6" __comx="224.016" __comy="137.473" __timestamp="0x17857bb8859" d="M193.256 5329.264 l-0.635 -0.45 -0.213 -0.101 -1.892 -0.132 -0.41 0.123 -1.711 0.998 -1.075 1.565 -0.46 1.898 0.357 1.911 0.876 1.214 1.601 0.803 1.779 -0.089 1.644 -0.809 1.411 -1.581 0.782 -2.001 -0.026 -1.708 -0.796 -1.703 -1.204 -0.636 -0.479 0.19 -0.127 0.16 -0.444 0.949 0.091 0.124 1.038 -0.14 0.019 0.053 -0.301 0.136 0.163 0.245 0.451 0.985 0.02 1.059 -0.558 1.452 -1.009 1.161 -1.083 0.565 -1.079 0.091 -0.959 -0.437 -0.512 -0.658 -0.274 -1.311 0.314 -1.384 0.751 -1.151 1.306 -0.847 0.089 -0.039 1.536 -0.13 0.033 -0.01 0.711 0.199" />
    <path class="write-flat-pen" transform="translate(32.931,-5193.723)" fill="#FFFFFF" stroke-width="1.6" __comx="239.115" __comy="137.473" __timestamp="0x17857bb8975" d="M200.751 5335.753 l0.16 1.089 0.002 0.083 0.817 0.15 0.376 -0.279 0.07 -0.264 1.678 -5.136 0.105 -0.179 0.864 -1.057 1.257 -0.747 1.84 -0.367 0.309 -0.014 0.705 -0.038 2.668 -0.168 0.014 -0.154 -2.596 -0.652 -0.702 -0.158 -0.442 -0.066 -2.28 0.202 -1.771 0.988 -1.115 1.374 -0.25 0.439 -1.478 5.437 0.004 0.061 0 0.224 0.817 0.15 -0.041 -0.065 -0.408 -1.015" />
    <path class="write-flat-pen" transform="translate(32.931,-5193.723)" fill="#FFFFFF" stroke-width="1.6" __comx="268.766" __comy="137.473" __timestamp="0x17857bb8c83" d="M237.473 5316.195 l0.332 -0.838 -0.162 -0.31 -0.6 -0.492 -0.305 -0.112 -2.701 -0.353 -0.5 0.033 -2.072 0.367 -1.497 0.901 -0.816 1.295 0.119 1.602 1.43 1.718 5.968 3.454 2.714 2.064 1.525 1.857 0.873 1.873 0.36 2 -0.176 1.766 -0.799 1.678 -1.047 1.028 -2.006 0.923 -2.464 0.42 -2.6 -0.204 -2.144 -0.668 -1.171 -0.806 -0.081 -0.19 0.033 -0.078 2.97 -1.287 0.512 -0.127 1.227 -0.285 0.643 -0.155 2.535 -0.603 -0.007 -0.078 -2.604 -0.108 -0.674 -0.028 -1.296 0.027 -0.685 0.068 -3.832 1.328 -0.559 1.33 0.526 1.241 1.755 1.208 2.547 0.793 2.977 0.233 2.868 -0.489 2.452 -1.128 1.447 -1.421 1.04 -2.185 0.225 -2.266 -0.439 -2.423 -1.051 -2.242 -1.779 -2.148 -2.943 -2.229 -5.819 -3.356 -0.94 -1.118 -0.049 -0.598 0.346 -0.561 0.941 -0.588 1.716 -0.359 0.304 -0.035 2.488 0.061 0.07 -0.004 0.409 0.101 -0.09 -0.192 0.002 0.568" />
    <path class="write-flat-pen" transform="translate(32.931,-5193.723)" fill="#FFFFFF" stroke-width="1.6" __comx="304.766" __comy="137.473" __timestamp="0x17857bb91bc" d="M265.79 5310.607 l2.386 0.917 0.389 0.275 2.671 2.354 2.215 2.764 1.878 3.424 0.834 3.001 0.365 4.44 -0.363 3.196 -1.543 5.289 -0.406 0.978 -0.402 0.972 -0.997 2.379 0.189 0.101 1.42 -2.154 0.592 -0.892 0.547 -1.01 1.861 -5.387 0.452 -3.444 -0.368 -4.709 -0.923 -3.279 -2.051 -3.645 -2.429 -2.885 -2.903 -2.349 -0.576 -0.361 -2.606 -0.695" />
    <path class="write-flat-pen" transform="translate(32.931,-5193.723)" fill="#FFFFFF" stroke-width="1.6" __comx="45.755" __comy="132.94" __timestamp="0x17857bb9b0d" d="M12.306 5327.92 l0.615 0.906 0 0 0.184 -0.601 -0.026 0.002 -1.016 -0.007 -0.18 -0.197 0.198 -0.748 0.916 -1.115 0.908 -0.428 -0.004 0.011 -0.01 0.351 -0.546 0.697 -2.696 0.798 0.69 1.116 0.2 -0.038 0.421 -0.282 2.061 -0.618 0.976 -1.31 -0.035 -1.387 -1.06 -0.504 -1.557 0.786 -1.164 1.494 -0.308 1.514 0.891 0.721 1.425 -0.109 0.101 -0.031 0.184 -0.601 0 0 -0.82 -0.726" />
    <path class="write-flat-pen" transform="translate(3.275,-10718.46)" fill="#FFFFFF" stroke-width="1.6" __comx="45.563" __comy="220.206" __timestamp="0x17858d62aff" d="M41.441 10935.207 l0.19 -0.443 -0.366 0.169 -0.025 -0.008 0.253 0.526 -0.05 -0.052 -0.082 0.408 0.292 -0.267 0.254 -0.07 0.095 0.496 0.148 -0.049 0.233 0.082 -0.056 -0.064 -0.073 0.061 0.024 -0.023 -0.047 -0.1 0.12 -0.884 0.225 -0.299 -0.307 -0.017 0.278 0.305 0.915 0.696 0.151 -0.053 0.229 -1.246 -0.63 -1.238 -1.403 -0.086 -0.974 1.338 -0.218 1.893 0.979 1.343 1.556 -0.284 0.81 -1.333 -0.63 -1.182 -1.36 -0.345 -1.328 0.777 0.189 1.441 1.236 -0.102 0.409 -0.368 -0.293 -1.147 -0.098 -0.112 -0.515 -0.407 -0.042 -0.019 -0.366 0.169 0.087 0.474" />
    <path class="write-flat-pen" transform="translate(3.275,-10718.46)" fill="#FFFFFF" stroke-width="1.6" __comx="66.752" __comy="220.206" __timestamp="0x17858d62c8b" d="M60.62 10927.729 l0.915 0.53 0.069 0.14 1.616 3.961 1.286 5.311 0.522 5.138 -0.107 3.383 -0.059 0.102 0.271 0.14 -1.174 -1.148 -0.903 0.911 1.305 1.309 1.03 0.522 0.83 -1.475 0.114 -3.792 -0.549 -5.313 -1.36 -5.491 -1.82 -4.093 -0.335 -0.482 -1.324 -0.421" />
    <path class="write-flat-pen" transform="translate(3.275,-10718.46)" fill="#FFFFFF" stroke-width="1.6" __comx="76.161" __comy="220.206" __timestamp="0x17858d62ea6" d="M64.621 10931.709 l-0.868 -0.979 0 -0.03 -0.202 -1.925 0.048 -0.317 0.655 -1.944 1.472 -2.052 1.844 -1.616 2.14 -1.046 2.162 -0.469 1.717 0.147 1.074 0.487 0.793 0.897 0.319 1.043 -0.164 2.033 -1.006 2.885 -1.459 2.216 -2.144 2.071 0 0 -1.95 1.187 0 0 -2.386 0.486 0 0 -0.15 1.519 5.877 2.47 3.664 2.078 4.494 3.542 0.196 0.161 0.29 0.234 2.257 1.715 0.064 -0.058 -1.464 -2.427 -0.198 -0.31 -0.203 -0.291 -4.526 -3.89 -3.867 -2.192 -5.964 -2.506 -0.15 1.519 0 0 2.659 -0.542 0 0 2.339 -1.426 0 0 2.397 -2.32 1.657 -2.535 1.11 -3.271 0.176 -2.529 -0.524 -1.63 -1.236 -1.366 -1.6 -0.713 -2.194 -0.178 -2.552 0.568 -2.468 1.23 -2.085 1.894 -1.607 2.412 -0.619 2.295 -0.031 0.59 0.53 2.172 0.166 0.254 1.149 0.857" />
    <path class="write-flat-pen" transform="translate(3.275,-10718.46)" fill="#FFFFFF" stroke-width="1.6" __comx="92.662" __comy="220.206" __timestamp="0x17858d63115" d="M82.255 10936.891 l0.487 1.347 0.083 0.261 0.967 3.653 0 0 0.074 0.441 0 0 0.474 3.633 0 0 1.427 -0.178 -0.263 -3.09 0.485 -3.945 0.544 -1.51 0.258 -0.22 0.175 0.057 1.154 1.899 1.312 4.59 0 0 0.693 0.765 0 0 1.267 -0.134 0.69 -1.167 0.835 -4.235 0.55 -1.208 -0.325 0.066 0.232 0.265 1.933 8.145 0.778 0.479 0.375 -0.68 -0.146 -0.786 -0.056 -0.028 -0.676 0.26 0.23 -0.492 0.705 0.429 -1.683 -8.067 -1.104 -1.26 -1.37 0.275 -0.964 2.115 -0.822 4.15 -0.55 0.936 1.267 -0.134 0 0 -0.454 -0.484 0 0 -1.301 -4.422 -1.566 -2.567 -1.537 -0.473 -1.202 1.035 -0.729 2.053 -0.505 4.276 0.336 3.245 1.427 -0.178 0 0 -0.65 -3.632 0 0 -0.115 -0.524 0 0 -1.264 -3.67 -0.142 -0.308 -0.72 -1.267" />
    <path class="write-flat-pen" transform="translate(3.275,-10718.46)" fill="#FFFFFF" stroke-width="1.6" __comx="111.002" __comy="220.206" __timestamp="0x17858d63346" d="M98.525 10924.381 l-0.859 -0.476 1.996 7.174 0.287 1.069 0 0 2.203 9.047 0.831 5.115 0 0 1.33 -0.109 -0.179 -3.891 0.034 -0.516 0.499 -3.244 1.088 -3.145 1.165 -1.828 1.033 -0.767 0.175 0.083 0 0 -0.499 -1.105 -2.761 4.158 -0.93 2.284 -0.217 2.264 0.642 1.879 1.463 1.518 1.769 0.74 2.29 0.044 4.043 -1.702 0.611 -0.436 0.906 -0.754 0.351 -0.33 0.267 -0.281 1.856 -1.953 -0.048 -0.061 -2.331 1.352 -0.326 0.187 -0.39 0.226 -0.985 0.561 -0.521 0.284 -3.712 1.316 -1.671 -0.045 -1.186 -0.496 -0.988 -1.024 -0.417 -1.217 0.159 -1.69 0.779 -1.933 2.561 -4.109 -0.499 -1.105 0 0 -0.79 -0.064 -1.54 1.403 -1.238 2.146 -1.12 3.352 -0.537 3.372 -0.049 0.603 -0.097 3.94 1.33 -0.109 0 0 -0.762 -5.191 -2.326 -9.103 0 0 -0.319 -1.09 -2.253 -7.109 -1.112 0.515" />
    <path class="write-flat-pen" transform="translate(3.275,-10718.46)" fill="#FFFFFF" stroke-width="1.6" __comx="94.396" __comy="220.206" __timestamp="0x17858d63472" d="M63.343 10955.337 l-0.776 -0.892 -0.191 0.268 2.401 -0.451 1.108 -0.051 4.891 0.05 22.754 1.78 8.425 0.23 9.022 -0.633 1.651 -0.241 1.528 -0.252 1.508 -0.27 1.43 -0.268 1.438 -0.295 2.286 -0.467 -0.008 -0.058 -2.327 0.168 -1.462 0.105 -1.447 0.1 -1.525 0.103 -1.54 0.113 -1.629 0.132 -8.944 0.387 -8.332 -0.267 -22.781 -1.67 -4.982 0.08 -1.235 0.115 -2.72 0.774 -0.464 0.599 1.549 1.218" />
    <path class="write-flat-pen" transform="translate(3.275,-10718.46)" fill="#FFFFFF" stroke-width="1.6" __comx="153.561" __comy="220.206" __timestamp="0x17858d638c8" d="M150.743 10947.137 l-0.572 -0.11 -0.171 0.038 -0.169 0.923 0.522 -0.11 0.122 -0.424 -0.383 -0.372 -0.169 0.923 0.163 0.066 0.455 0.093" />
    <path class="write-flat-pen" transform="translate(3.275,-10718.46)" fill="#FFFFFF" stroke-width="1.6" __comx="154.073" __comy="220.206" __timestamp="0x17858d63970" d="M151.34 10925.545 l-0.287 -1.448 -0.203 -1.595 -0.1 -0.009 -0.494 1.632 0.199 1.563" />
    <path class="write-flat-pen" transform="translate(3.275,-10718.46)" fill="#FFFFFF" stroke-width="1.6" __comx="194.75" __comy="220.206" __timestamp="0x17858d64015" d="M180.282 10943.581 l-0.557 1.198 -0.036 0.035 0.531 0.097 0.138 -0.365 0.061 -0.275 0.738 -3.816 0.146 -0.867 0 0 1.816 -9.884 0 0 0.6 -7.159 0 0 -1.38 -0.011 0.201 3.477 1.149 4.963 1.492 3.831 1.908 3.163 1.302 0.869 1.626 0.002 1.678 -1.157 1.284 -2.14 1.45 -4.258 2.4 -11.755 0 0 0.123 -0.287 -1.456 -0.123 3.218 13.674 2.962 9.31 0.198 0.161 1.384 0.737 0.104 -0.091 -0.545 -1.471 0.056 -0.001 -2.65 -9.053 -3.231 -13.619 -1.456 -0.123 -0.181 0.429 0 0 -2.4 11.815 -1.356 4.021 -1.024 1.735 -1.025 0.729 -0.727 0.014 -0.674 -0.436 -1.69 -2.773 -1.411 -3.621 -1.113 -4.746 -0.215 -3.357 -1.38 -0.011 0 0 -0.505 7.104 0 0 -1.649 9.863 0 0 -0.118 0.882 -0.47 3.873 -0.007 0.318 0.089 0.399 0.531 0.097 -0.012 -0.04 0.307 -1.275" />
    <path class="write-flat-pen" transform="translate(3.275,-10718.46)" fill="#FFFFFF" stroke-width="1.6" __comx="212.436" __comy="220.206" __timestamp="0x17858d641df" d="M211.831 10937.606 l-0.176 -0.367 -0.142 -0.101 -0.778 -0.443 -0.287 -0.097 -3.317 0.138 -0.498 0.258 -1.299 1.273 -0.755 1.883 -0.043 2.137 0.583 2.03 1.315 1.95 1.71 1.025 1.553 0.014 1.542 -0.746 1.242 -1.402 0.972 -2.289 0.333 -2.603 -0.479 -1.878 -1.12 -1.454 -1.702 -0.915 -1.548 0.213 -0.948 1.154 -0.109 0.428 0.011 0.67 0.277 1.983 0.039 0.003 0.554 -1.886 0.196 -0.493 0.069 -0.065 0.579 -0.452 0.583 -0.028 1.006 0.556 0.741 0.957 0.339 1.303 -0.261 2.121 -0.789 1.887 -0.884 1.015 -0.974 0.489 -0.835 0.008 -1.126 -0.651 -1.043 -1.502 -0.493 -1.624 0.007 -1.7 0.544 -1.428 0.952 -0.988 0.108 -0.065 2.879 -0.371 0.086 0.006 0.798 0.185 0.048 -0.007 0.286 0.113" />
    <path class="write-flat-pen" transform="translate(3.275,-10718.46)" fill="#FFFFFF" stroke-width="1.6" __comx="225.034" __comy="220.206" __timestamp="0x17858d64369" d="M215.675 10939.422 l0.492 1.254 0.094 0.263 0.792 3.149 0.085 0.459 0 0 0.756 3.995 0 0 1.302 -0.09 0.57 -6.77 0.671 -2.848 0.704 -1.207 0.482 -0.308 0.641 0.079 1.04 0.912 1.299 2.324 1.917 6.891 0.161 0.189 0.136 0.073 1.007 0.306 0.02 -0.019 -0.264 -1.018 0.02 -0.048 0.065 0.032 -1.708 -6.952 -1.521 -2.696 -1.56 -1.363 -1.592 -0.192 -1.205 0.774 -0.981 1.691 -0.736 3.163 -0.482 6.885 1.302 -0.09 0 0 -0.973 -3.949 0 0 -0.123 -0.491 -1.075 -3.154 -0.154 -0.315 -0.733 -1.159" />
    <path class="write-flat-pen" transform="translate(3.275,-10718.46)" fill="#FFFFFF" stroke-width="1.6" __comx="237.386" __comy="220.206" __timestamp="0x17858d64509" d="M236.607 10939.206 l0.445 -1.727 -0.187 -0.394 -1.009 -0.708 -1.904 0.08 -1.997 0.81 -1.263 1.141 -0.958 1.879 -0.148 1.771 0.629 2.077 1.134 1.403 1.921 0.962 1.821 -0.098 1.799 -0.959 1.319 -1.852 0.426 -1.831 -0.337 -1.827 -1.14 -1.691 -1.775 -1.23 -2.278 -0.615 -2.066 1.06 -0.257 0.416 -0.192 0.571 -0.03 0.335 -0.118 2.058 0.047 0.013 0.954 -1.827 0.118 -0.201 0.258 -0.309 0.059 -0.016 1.349 -0.465 1.477 0.426 1.31 0.914 0.796 1.173 0.227 1.183 -0.273 1.218 -0.92 1.319 -1.179 0.652 -1.096 0.081 -1.305 -0.618 -0.787 -0.929 -0.511 -1.551 0.081 -1.248 0.711 -1.435 0.905 -0.84 1.58 -0.689 1.324 -0.147 0.535 0.246 -0.065 -0.157 -0.129 1.451" />
    <path class="write-flat-pen" transform="translate(3.275,-10718.46)" fill="#FFFFFF" stroke-width="1.6" __comx="246.96" __comy="220.206" __timestamp="0x17858d645f1" d="M242.284 10938.227 l0.183 0.904 0.072 0.263 0.455 1.724 0.124 0.447 -0.007 -0.021 1.232 6.083 0.729 -0.194 -0.095 -0.105 -0.14 -0.227 -0.565 -0.924 -0.022 0.007 0.091 1.079 0.023 0.272 -0.007 0.147 0.729 -0.194 -1.053 -6.184 -0.007 -0.021 -0.179 -0.457 -0.706 -1.655 -0.127 -0.249 -0.441 -0.803" />
    <path class="write-flat-pen" transform="translate(3.275,-10718.46)" fill="#FFFFFF" stroke-width="1.6" __comx="245.748" __comy="220.206" __timestamp="0x17858d64678" d="M242.821 10931.317 l-0.002 -0.327 0.08 -0.432 -0.845 0.032 -0.014 0.11 0.209 1.852 0.464 2.074 0.037 -0.003 0.088 -2.109 0.068 -1.807 -0.004 -0.07 -0.845 0.032 0.188 0.397 -0.002 0.252" />
    <path class="write-flat-pen" transform="translate(3.275,-10718.46)" fill="#FFFFFF" stroke-width="1.6" __comx="256.592" __comy="220.206" __timestamp="0x17858d64845" d="M253.048 10925.981 l-0.675 -0.298 0.135 2.144 0.078 0.528 1.182 5.892 0.251 0.895 2.38 8.238 0 0 0.769 1.248 0 0 1.292 -0.51 -0.251 -1.287 -1.196 -1.638 -2.037 -1.146 -1.891 -0.329 -1.829 0.412 -1.511 1.125 -1.074 1.837 -0.496 2.372 0.277 1.998 0.806 1.403 1.361 0.914 1.678 0.198 2.95 -1.258 0.46 -0.395 0.629 -0.704 1.621 -1.993 -0.046 -0.051 -2.132 1.411 -0.749 0.472 -0.361 0.191 -2.557 0.881 -0.996 -0.113 -0.826 -0.532 -0.536 -0.884 -0.241 -1.503 0.383 -1.94 0.829 -1.426 1.081 -0.794 1.304 -0.278 1.398 0.265 1.556 0.917 0.818 1.16 0.19 0.984 1.292 -0.51 0 0 -0.69 -1.074 0 0 -2.463 -8.014 -0.261 -0.847 -1.421 -5.778 -0.104 -0.476 -0.38 -2.087 -0.675 0.38" />
    <path class="write-flat-pen" transform="translate(3.275,-10718.46)" fill="#FFFFFF" stroke-width="1.6" __comx="268.054" __comy="220.206" __timestamp="0x17858d64a13" d="M267.529 10939.645 l-0.409 -1.3 -0.233 -0.223 -1.548 -0.796 -1.985 -0.171 -1.824 0.539 -1.37 1.311 -0.655 1.493 -0.091 1.982 0.575 1.607 1.147 1.079 1.683 0.219 1.763 -0.868 2.007 -2.722 -0.434 0.083 0.917 3.593 1.105 1.432 0.451 0.07 0.254 -0.07 1.261 -0.484 -0.001 -0.056 -1.274 -0.449 -0.099 -0.065 0.162 -0.008 -0.536 -0.971 -1.213 -4.603 -1.388 0.258 -2.122 2.91 -1.092 0.547 -0.85 -0.095 -0.612 -0.552 -0.399 -1.06 0.044 -1.492 0.444 -1.055 0.962 -0.949 1.323 -0.421 1.568 0.069 1.298 0.507 -0.015 -0.029 0.576 1.001" />
    <path class="write-flat-pen" transform="translate(3.275,-10718.46)" fill="#FFFFFF" stroke-width="1.6" __comx="277.711" __comy="220.206" __timestamp="0x17858d64ac7" d="M271.365 10926.521 l4.461 18.217 0.235 0.565 0.234 0.486 1.155 2.4 0.058 -0.02 -0.573 -2.601 -0.112 -0.516 -0.117 -0.556 -4.198 -18.246" />
    <path class="write-flat-pen" transform="translate(3.275,-10718.46)" fill="#FFFFFF" stroke-width="1.6" __comx="314.76" __comy="220.206" __timestamp="0x17858d64dd1" d="M305.847 10934.221 l-0.626 2.469 -0.048 0.522 -0.003 3.782 0.053 0.698 0.637 4.534 0.108 0.238 0 0 0.815 0.228 0.679 -0.36 0.403 -5.82 -0.336 -9.007 -0.638 -4.043 -0.977 -1.907 -1.427 -1.454 -0.112 0.524 12.202 0.036 0.269 -0.023 0.621 -0.045 2.656 -0.118 0.005 -0.039 -2.554 -0.846 -0.681 -0.143 -0.305 -0.026 -13.413 -0.328 -0.331 1.476 1.869 1.859 0.774 1.494 0.611 3.726 0.425 8.849 -0.269 5.109 -0.075 0.105 0.815 0.228 0 0 -0.05 -0.074 -0.868 -4.293 -0.088 -0.638 -0.258 -3.719 0.008 -0.462 0.366 -2.484" />
    <path class="write-flat-pen" transform="translate(3.275,-10718.46)" fill="#FFFFFF" stroke-width="1.6" __comx="315.844" __comy="220.206" __timestamp="0x17858d64e9c" d="M304.72 10934.867 l5.248 -0.756 0.638 -0.045 6.193 -0.453 0.366 -0.041 0.65 -0.06 2.757 -0.246 0.002 -0.044 -2.733 -0.468 -0.667 -0.097 -0.406 -0.035 -6.242 0.238 -0.705 0.06 -5.256 1.032" />
    <path class="write-flat-pen" transform="translate(3.275,-10718.46)" fill="#FFFFFF" stroke-width="1.6" __comx="328.824" __comy="220.206" __timestamp="0x17858d65078" d="M320.171 10936.412 l-0.88 0.342 -0.147 0.314 -0.435 2.303 -0.014 0.485 0.342 2.548 0.899 1.912 1.281 1.028 1.563 0.286 2.105 -0.699 1.89 -1.701 1.542 -2.483 0.906 -2.682 0 0 -0.126 -1.182 0 0 -1.388 -0.313 -0.612 0.994 -0.22 2.277 0.481 2.715 1 1.761 1.496 0.626 0.404 -0.051 0.493 -0.237 0.274 -0.21 0.173 -0.183 1.205 -1.335 -0.014 -0.019 -1.63 0.76 -0.18 0.078 -0.18 0.038 -0.307 -0.016 0.046 -0.042 -0.697 -0.519 -0.638 -1.164 -0.401 -2.261 0.163 -1.725 0.429 -0.697 -1.388 -0.313 0 0 0.093 0.854 0 0 -0.736 2.211 -1.329 2.168 -1.498 1.373 -1.465 0.51 -0.861 -0.138 -0.777 -0.59 -0.728 -1.426 -0.399 -2.242 -0.01 -0.314 0.154 -2.144 -0.047 0.069 0.476 -0.427" />
    <path class="write-flat-pen" transform="translate(3.275,-10718.46)" fill="#FFFFFF" stroke-width="1.6" __comx="341.785" __comy="220.206" __timestamp="0x17858d651d8" d="M334.122 10937.911 l-0.103 0.879 -0.008 0.233 0.032 2.251 0.015 0.437 0.26 4.287 0.079 0.222 0 0 1.278 -0.118 1.141 -5.51 0.896 -2.282 0.723 -0.721 0.491 -0.085 0.691 0.372 0.914 1.485 0.893 2.998 0.323 3.484 0.029 2.515 0.032 0.008 1.203 -2.414 -0.131 -3.851 -0.996 -3.345 -1.224 -1.983 -1.482 -0.802 -1.452 0.247 -1.273 1.271 -1.049 2.695 -1.042 5.663 1.278 -0.118 0 0 -0.025 -0.04 -0.505 -4.065 -0.05 -0.424 -0.284 -2.222 -0.029 -0.214 -0.144 -0.865" />
    <path class="write-flat-pen" transform="translate(3.275,-10718.46)" fill="#FFFFFF" stroke-width="1.6" __comx="355.94" __comy="220.206" __timestamp="0x17858d65327" d="M354.153 10937.642 l-0.273 -1.177 -0.078 -0.226 -0.925 -1.178 -0.392 -0.196 -1.722 -0.065 -1.733 1.134 -1.195 1.971 -0.733 2.68 0.02 2.107 0.649 1.826 1.382 1.303 1.586 0.467 1.923 -0.269 2.681 -1.586 0.451 -0.439 0.685 -0.818 0.264 -0.376 1.485 -2.129 -0.018 -0.017 -1.993 1.662 -0.331 0.273 -0.806 0.589 -0.403 0.258 -2.462 1.2 -1.359 0.163 -0.955 -0.284 -0.879 -0.82 -0.462 -1.266 -0.037 -1.671 0.594 -2.318 0.905 -1.581 1.129 -0.828 1.105 -0.088 0.001 -0.018 0.885 0.748 0.049 0.063 0.519 1.061" />
    <path class="write-flat-pen" transform="translate(3.275,-10718.46)" fill="#FFFFFF" stroke-width="1.6" __comx="364.735" __comy="220.206" __timestamp="0x17858d6543f" d="M358.444 10925.767 l1.553 4.086 0.22 0.689 1.497 5.811 1.676 10.194 0.095 -0.084 0.026 0.061 -0.338 0.805 0.038 0.043 0.842 -0.23 0.212 -0.102 0.213 -0.346 -1.516 -10.606 -1.68 -5.874 -0.274 -0.744 -1.806 -4.018" />
    <path class="write-flat-pen" transform="translate(3.275,-10718.46)" fill="#FFFFFF" stroke-width="1.6" __comx="366.446" __comy="220.206" __timestamp="0x17858d6550b" d="M355.322 10938.404 l1.526 -0.135 0.324 -0.015 11.056 -1.354 0.3 -0.104 2.633 -0.935 -0.009 -0.044 -2.79 0.162 -0.278 0.013 -11.026 1.149 -0.354 0.046 -1.527 0.396" />
    <path class="write-flat-pen" transform="translate(3.275,-10718.46)" fill="#FFFFFF" stroke-width="1.6" __comx="375.981" __comy="220.206" __timestamp="0x17858d656aa" d="M371.35 10937.949 l0.273 -0.773 -0.466 -0.468 -0.989 0.453 -0.267 0.236 -1.403 1.762 -0.799 2.426 0.014 2.154 0.653 1.581 1.319 1.167 1.604 0.35 1.732 -0.386 2.084 -1.34 1.584 -1.842 0.965 -2.168 0.059 -1.989 -0.686 -1.464 -1.417 -1.161 -1.555 -0.275 -1.72 1.221 -0.158 0.439 0.018 0.623 0.363 1.789 0.026 0.002 0.593 -1.665 0.206 -0.364 0 0.097 0.992 -0.473 0.542 0.106 0.816 0.668 0.371 0.79 -0.038 1.293 -0.741 1.666 -1.279 1.49 -1.65 1.068 -1.118 0.258 -0.872 -0.177 -0.758 -0.65 -0.415 -0.972 -0.033 -1.616 0.596 -1.983 1.077 -1.579 0.071 -0.096 0.095 -0.221 -0.41 -0.416 0.083 0.326" />
    <path class="write-flat-pen" transform="translate(3.275,-10718.46)" fill="#FFFFFF" stroke-width="1.6" __comx="389.326" __comy="220.206" __timestamp="0x17858d657d2" d="M379.972 10944.04 l-0.07 0.841 -0.007 0.131 -0.041 0.388 0.589 0.36 0.366 -0.067 0.207 -0.91 0.026 -0.313 0.118 -3.696 0.509 -2.469 0.68 -1.286 1.124 -1.042 1.583 -0.631 3.114 -0.183 0.5 0.034 0.536 0.044 0.528 0.043 2.707 0.238 0.037 -0.159 -2.528 -0.997 -0.507 -0.201 -0.545 -0.179 -0.627 -0.16 -3.53 -0.054 -2.132 0.833 -1.54 1.437 -0.902 1.734 -0.543 2.848 0.115 3.844 0.024 0.254 0.103 0.178 0.327 -0.056 0.589 0.36 -0.184 -0.288 -0.021 -0.078 -0.182 -0.824" />
  </g>
</svg>
