<svg class="write-page" color-interpolation="linearRGB" width="1010px" height="944.251px" xmlns="http://www.w3.org/2000/svg" xmlns:xlink="http://www.w3.org/1999/xlink">
  <g class="write-content write-v3" width="1010" height="944.251" xruling="35" yruling="35" marginLeft="35" papercolor="#1B1C1C" rulecolor="#7F0000FF">
    <g class="ruleline write-std-ruling write-scale-down" fill="none" stroke="#0000FF" stroke-opacity="0.498" stroke-width="1" shape-rendering="crispEdges" vector-effect="non-scaling-stroke">
      <rect class="pagerect" fill="#1B1C1C" stroke="none" x="0" y="0" width="1010" height="944.251" />
      <path class="yrule_1" d="M0 35 l1010 0" />
      <path d="M0 70 l1010 0" />
      <path d="M0 105 l1010 0" />
      <path d="M0 140 l1010 0" />
      <path d="M0 175 l1010 0" />
      <path d="M0 210 l1010 0" />
      <path d="M0 245 l1010 0" />
      <path d="M0 280 l1010 0" />
      <path d="M0 315 l1010 0" />
      <path d="M0 350 l1010 0" />
      <path d="M0 385 l1010 0" />
      <path d="M0 420 l1010 0" />
      <path d="M0 455 l1010 0" />
      <path d="M0 490 l1010 0" />
      <path d="M0 525 l1010 0" />
      <path d="M0 560 l1010 0" />
      <path d="M0 595 l1010 0" />
      <path d="M0 630 l1010 0" />
      <path d="M0 665 l1010 0" />
      <path d="M0 700 l1010 0" />
      <path d="M0 735 l1010 0" />
      <path d="M0 770 l1010 0" />
      <path d="M0 805 l1010 0" />
      <path d="M0 840 l1010 0" />
      <path d="M0 875 l1010 0" />
      <path d="M0 910 l1010 0" />
      <path class="xrule_1" d="M35 0 l0 944.251" />
      <path d="M70 0 l0 944.251" />
      <path d="M105 0 l0 944.251" />
      <path d="M140 0 l0 944.251" />
      <path d="M175 0 l0 944.251" />
      <path d="M210 0 l0 944.251" />
      <path d="M245 0 l0 944.251" />
      <path d="M280 0 l0 944.251" />
      <path d="M315 0 l0 944.251" />
      <path d="M350 0 l0 944.251" />
      <path d="M385 0 l0 944.251" />
      <path d="M420 0 l0 944.251" />
      <path d="M455 0 l0 944.251" />
      <path d="M490 0 l0 944.251" />
      <path d="M525 0 l0 944.251" />
      <path d="M560 0 l0 944.251" />
      <path d="M595 0 l0 944.251" />
      <path d="M630 0 l0 944.251" />
      <path d="M665 0 l0 944.251" />
      <path d="M700 0 l0 944.251" />
      <path d="M735 0 l0 944.251" />
      <path d="M770 0 l0 944.251" />
      <path d="M805 0 l0 944.251" />
      <path d="M840 0 l0 944.251" />
      <path d="M875 0 l0 944.251" />
      <path d="M910 0 l0 944.251" />
      <path d="M945 0 l0 944.251" />
      <path d="M980 0 l0 944.251" />
      <path class="leftmargin" stroke="#FF0000" d="M35 0 l0 944.251" />
    </g>
    <path class="write-chisel-pen" fill="#0BFFCF" fill-opacity="0.239" stroke-width="34" __comx="547.364" __comy="464.661" __timestamp="0x17859266627" d="M163.407 411.332 l0 34 8.5 0 8.032 -3.802 0 -34 -8.5 0 -8.032 3.802 m8.032 -3.802 l0 34 8.5 0 13.127 -3.497 0 -34 -8.5 0 -13.127 3.497 m13.127 -3.497 l0 34 8.5 0 25.735 -3.266 0 -34 -8.5 0 -25.735 3.266 m25.735 -3.266 l0 34 8.5 0 67.55 -3.765 0 -34 -8.5 0 -67.55 3.765 m67.55 -3.765 l0 34 8.5 0 192.723 -6.763 0 -34 -8.5 0 -192.723 6.763 m192.723 -6.763 l0 34 8.5 0 115.688 -2.377 0 -34 -8.5 0 -115.688 2.377 m124.188 -2.377 l-8.5 0 0 34 60.226 0.712 8.5 0 0 -34 -60.226 -0.712 m60.226 0.712 l-8.5 0 0 34 108.02 5.417 8.5 0 0 -34 -108.02 -5.417 m99.52 39.417 l8.5 0 0 -34 -33.627 -1.65 -8.5 0 0 34 33.627 1.65 m-25.127 -1.65 l0 -34 -8.5 0 -71.11 0.468 0 34 8.5 0 71.11 -0.468 m-71.11 0.468 l0 -34 -8.5 0 -177.937 4.349 0 34 8.5 0 177.937 -4.349 m-177.937 4.349 l0 -34 -8.5 0 -118.092 4.398 0 34 8.5 0 118.092 -4.398 m-118.092 4.398 l0 -34 -8.5 0 -73.867 4.317 0 34 8.5 0 73.867 -4.317 m-73.867 4.317 l0 -34 -8.5 0 -68.979 5.853 0 34 8.5 0 68.979 -5.853 m-68.979 5.853 l0 -34 -8.5 0 -105.622 12.36 0 34 8.5 0 105.622 -12.36 m-114.122 -21.64 l0 34 8.5 0 74.218 -6.658 0 -34 -8.5 0 -74.218 6.658 m74.218 -6.658 l0 34 8.5 0 86.732 -5.837 0 -34 -8.5 0 -86.732 5.837 m86.732 -5.837 l0 34 8.5 0 106.479 -4.832 0 -34 -8.5 0 -106.479 4.832 m106.479 -4.832 l0 34 8.5 0 84.798 -2.051 0 -34 -8.5 0 -84.798 2.051 m84.798 -2.051 l0 34 8.5 0 107.029 -0.438 0 -34 -8.5 0 -107.029 0.438 m115.529 -0.438 l-8.5 0 0 34 87.408 1.906 8.5 0 0 -34 -87.408 -1.906 m87.408 1.906 l-8.5 0 0 34 82.396 3.96 8.5 0 0 -34 -82.396 -3.96 m82.396 3.96 l-8.5 0 0 34 69.551 5.364 8.5 0 0 -34 -69.551 -5.364 m69.551 5.364 l-8.5 0 0 34 49.826 5.4 8.5 0 0 -34 -49.826 -5.4 m49.826 5.4 l-8.5 0 0 34 41.114 6.176 8.5 0 0 -34 -41.114 -6.176 m32.614 40.176 l8.5 0 0 -34 -25.86 -1.33 -8.5 0 0 34 25.86 1.33 m-25.86 -1.33 l8.5 0 0 -34 -72.696 -7.106 -8.5 0 0 34 72.696 7.106 m-72.696 -7.106 l8.5 0 0 -34 -87.42 -5.404 -8.5 0 0 34 87.42 5.404 m-87.42 -5.404 l8.5 0 0 -34 -84.996 -2.785 -8.5 0 0 34 84.996 2.785 m-84.996 -2.785 l8.5 0 0 -34 -90.993 -0.418 -8.5 0 0 34 90.993 0.418 m-82.493 -0.418 l0 -34 -8.5 0 -74.057 2.5 0 34 8.5 0 74.057 -2.5 m-74.057 2.5 l0 -34 -8.5 0 -70.589 4.099 0 34 8.5 0 70.589 -4.099 m-70.589 4.099 l0 -34 -8.5 0 -64.319 5.9 0 34 8.5 0 64.319 -5.9 m-64.319 5.9 l0 -34 -8.5 0 -55.503 7.213 0 34 8.5 0 55.503 -7.213 m-55.503 7.213 l0 -34 -8.5 0 -52.725 8.931 0 34 8.5 0 52.725 -8.931 m-52.725 8.931 l0 -34 -8.5 0 -30.869 7.197 0 34 8.5 0 30.869 -7.197 m-30.869 -26.803 l-8.5 0 0 34 4.807 1.138 8.5 0 0 -34 -4.807 -1.138 m-3.693 1.138 l0 34 8.5 0 36.788 -3.571 0 -34 -8.5 0 -36.788 3.571 m36.788 -3.571 l0 34 8.5 0 86.606 -11.432 0 -34 -8.5 0 -86.606 11.432 m86.606 -11.432 l0 34 8.5 0 99.892 -11.194 0 -34 -8.5 0 -99.892 11.194 m99.892 -11.194 l0 34 8.5 0 76.403 -6.986 0 -34 -8.5 0 -76.403 6.986 m76.403 -6.986 l0 34 8.5 0 100.947 -6.286 0 -34 -8.5 0 -100.947 6.286 m100.947 -6.286 l0 34 8.5 0 78.212 -3.08 0 -34 -8.5 0 -78.212 3.08 m78.212 -3.08 l0 34 8.5 0 105.614 -0.944 0 -34 -8.5 0 -105.614 0.944 m114.114 -0.944 l-8.5 0 0 34 58.731 1.644 8.5 0 0 -34 -58.731 -1.644 m58.731 1.644 l-8.5 0 0 34 65.758 4.262 8.5 0 0 -34 -65.758 -4.262 m65.758 4.262 l-8.5 0 0 34 20.256 2.583 8.5 0 0 -34 -20.256 -2.583 m20.256 36.583 l0 -34 -8.5 0 -22.643 0.111 0 34 8.5 0 22.643 -0.111 m-31.143 0.111 l8.5 0 0 -34 -105.281 -5.114 -8.5 0 0 34 105.281 5.114 m-105.281 -5.114 l8.5 0 0 -34 -89.226 -2.701 -8.5 0 0 34 89.226 2.701 m-89.226 -2.701 l8.5 0 0 -34 -105.215 -0.553 -8.5 0 0 34 105.215 0.553 m-96.715 -0.553 l0 -34 -8.5 0 -69.437 2.174 0 34 8.5 0 69.437 -2.174 m-69.437 2.174 l0 -34 -8.5 0 -71.346 4.047 0 34 8.5 0 71.346 -4.047 m-71.346 4.047 l0 -34 -8.5 0 -91.856 7.971 0 34 8.5 0 91.856 -7.971 m-91.856 7.971 l0 -34 -8.5 0 -62.245 7.716 0 34 8.5 0 62.245 -7.716 m-62.245 7.716 l0 -34 -8.5 0 -54.499 8.451 0 34 8.5 0 54.499 -8.451 m-54.499 8.451 l0 -34 -8.5 0 -45.434 8.958 0 34 8.5 0 45.434 -8.958 m-45.434 8.958 l0 -34 -8.5 0 -44.681 10.655 0 34 8.5 0 44.681 -10.655 m-44.681 10.655 l0 -34 -8.5 0 -20.617 6.317 0 34 8.5 0 20.617 -6.317 m-20.617 6.317 l0 -34 -8.5 0 -12.888 5.724 0 34 8.5 0 12.888 -5.724 m-12.888 5.724 l0 -34 -8.5 0 -1.515 2.799 0 34 8.5 0 1.515 -2.799 m-1.515 -31.201 l-8.5 0 0 34 3.129 3.021 8.5 0 0 -34 -3.129 -3.021 m3.129 3.021 l-8.5 0 0 34 9.682 1.926 8.5 0 0 -34 -9.682 -1.926 m9.682 1.926 l-8.5 0 0 34 25.064 0.668 8.5 0 0 -34 -25.064 -0.668 m16.564 0.668 l0 34 8.5 0 144.25 -9.729 0 -34 -8.5 0 -144.25 9.729 m144.25 -9.729 l0 34 8.5 0 117.066 -5.903 0 -34 -8.5 0 -117.066 5.903 m117.066 -5.903 l0 34 8.5 0 150.451 -4.777 0 -34 -8.5 0 -150.451 4.777 m150.451 -4.777 l0 34 8.5 0 107.959 -1.22 0 -34 -8.5 0 -107.959 1.22 m116.459 -1.22 l-8.5 0 0 34 80.601 1.035 8.5 0 0 -34 -80.601 -1.035 m80.601 1.035 l-8.5 0 0 34 177.532 10.182 8.5 0 0 -34 -177.532 -10.182 m169.032 44.182 l8.5 0 0 -34 -180.968 -7.089 -8.5 0 0 34 180.968 7.089 m-180.968 -7.089 l8.5 0 0 -34 -105.756 -1.491 -8.5 0 0 34 105.756 1.491 m-97.256 -1.491 l0 -34 -8.5 0 -68.751 0.926 0 34 8.5 0 68.751 -0.926 m-68.751 0.926 l0 -34 -8.5 0 -70.546 3.143 0 34 8.5 0 70.546 -3.143 m-70.546 3.143 l0 -34 -8.5 0 -68.014 4.81 0 34 8.5 0 68.014 -4.81 m-68.014 4.81 l0 -34 -8.5 0 -63.834 7.162 0 34 8.5 0 63.834 -7.162 m-63.834 7.162 l0 -34 -8.5 0 -56.714 8.878 0 34 8.5 0 56.714 -8.878 m-56.714 8.878 l0 -34 -8.5 0 -47.567 10.03 0 34 8.5 0 47.567 -10.03 m-47.567 10.03 l0 -34 -8.5 0 -47.622 12.22 0 34 8.5 0 47.622 -12.22 m-47.622 12.22 l0 -34 -8.5 0 -23.35 7.869 0 34 8.5 0 23.35 -7.869 m-23.35 7.869 l0 -34 -8.5 0 -13.96 6.338 0 34 8.5 0 13.96 -6.338 m-13.96 6.338 l0 -34 -8.5 0 -6.441 4.784 0 34 8.5 0 6.441 -4.784 m-6.441 4.784 l0 -34 -8.5 0 -0.799 2.528 0 34 8.5 0 0.799 -2.528 m-0.799 -31.472 l-8.5 0 0 34 2.515 3.285 8.5 0 0 -34 -2.515 -3.285 m2.515 3.285 l-8.5 0 0 34 8.816 2.575 8.5 0 0 -34 -8.816 -2.575 m8.816 2.575 l-8.5 0 0 34 24.065 0.865 8.5 0 0 -34 -24.065 -0.865 m15.565 0.865 l0 34 8.5 0 184.509 -15.16 0 -34 -8.5 0 -184.509 15.16 m184.509 -15.16 l0 34 8.5 0 149.364 -10.483 0 -34 -8.5 0 -149.364 10.483 m149.364 -10.483 l0 34 8.5 0 88.946 -4.241 0 -34 -8.5 0 -88.946 4.241 m88.946 -4.241 l0 34 8.5 0 64.479 -1.491 0 -34 -8.5 0 -64.479 1.491 m64.479 -1.491 l0 34 8.5 0 109.249 -0.091 0 -34 -8.5 0 -109.249 0.091 m117.749 -0.091 l-8.5 0 0 34 115.675 2.84 8.5 0 0 -34 -115.675 -2.84 m107.175 36.84 l8.5 0 0 -34 -125.275 -5.316 -8.5 0 0 34 125.275 5.316 m-125.275 -5.316 l8.5 0 0 -34 -103.261 -2.129 -8.5 0 0 34 103.261 2.129 m-103.261 -2.129 l8.5 0 0 -34 -118.602 -0.275 -8.5 0 0 34 118.602 0.275 m-110.102 -0.275 l0 -34 -8.5 0 -77.521 2.738 0 34 8.5 0 77.521 -2.738 m-77.521 2.738 l0 -34 -8.5 0 -79.819 4.766 0 34 8.5 0 79.819 -4.766 m-79.819 4.766 l0 -34 -8.5 0 -78.557 7.373 0 34 8.5 0 78.557 -7.373 m-78.557 7.373 l0 -34 -8.5 0 -72.342 9.881 0 34 8.5 0 72.342 -9.881 m-72.342 9.881 l0 -34 -8.5 0 -61.204 11.04 0 34 8.5 0 61.204 -11.04 m-61.204 11.04 l0 -34 -8.5 0 -46.954 10.688 0 34 8.5 0 46.954 -10.688 m-46.954 10.688 l0 -34 -8.5 0 -30.921 8.739 0 34 8.5 0 30.921 -8.739 m-30.921 8.739 l0 -34 -8.5 0 -17.02 6.464 0 34 8.5 0 17.02 -6.464 m-17.02 6.464 l0 -34 -8.5 0 -6.336 3.847 0 34 8.5 0 6.336 -3.847 m-6.336 3.847 l0 -34 -8.5 0 -1.401 3.325 0 34 8.5 0 1.401 -3.325 m-1.401 -30.675 l-8.5 0 0 34 3.782 3.126 8.5 0 0 -34 -3.782 -3.126 m3.782 3.126 l-8.5 0 0 34 11.396 1.812 8.5 0 0 -34 -11.396 -1.812 m2.896 1.812 l0 34 8.5 0 17.355 -0.383 0 -34 -8.5 0 -17.355 0.383 m17.355 -0.383 l0 34 8.5 0 150.023 -16.782 0 -34 -8.5 0 -150.023 16.782 m150.023 -16.782 l0 34 8.5 0 84.844 -7.413 0 -34 -8.5 0 -84.844 7.413 m84.844 -7.413 l0 34 8.5 0 94.005 -6.125 0 -34 -8.5 0 -94.005 6.125 m94.005 -6.125 l0 34 8.5 0 96.615 -2.845 0 -34 -8.5 0 -96.615 2.845 m105.115 -2.845 l-8.5 0 0 34 93.225 0.002 8.5 0 0 -34 -93.225 -0.002 m93.225 0.002 l-8.5 0 0 34 85.583 3.24 8.5 0 0 -34 -85.583 -3.24 m85.583 3.24 l-8.5 0 0 34 81.076 5.07 8.5 0 0 -34 -81.076 -5.07 m81.076 5.07 l-8.5 0 0 34 54.287 5.492 8.5 0 0 -34 -54.287 -5.492 m54.287 5.492 l-8.5 0 0 34 25.079 3.832 8.5 0 0 -34 -25.079 -3.832 m25.079 3.832 l-8.5 0 0 34 1.166 0.589 8.5 0 0 -34 -1.166 -0.589 m1.166 34.589 l0 -34 -8.5 0 -0.695 1.542 0 34 8.5 0 0.695 -1.542 m-0.695 1.542 l0 -34 -8.5 0 -5.801 1.435 0 34 8.5 0 5.801 -1.435 m-5.801 1.435 l0 -34 -8.5 0 -41.513 1.218 0 34 8.5 0 41.513 -1.218 m-50.013 1.218 l8.5 0 0 -34 -182.17 -0.989 -8.5 0 0 34 182.17 0.989 m-173.67 -0.989 l0 -34 -8.5 0 -91.191 3.163 0 34 8.5 0 91.191 -3.163 m-91.191 3.163 l0 -34 -8.5 0 -72.988 4.305 0 34 8.5 0 72.988 -4.305 m-72.988 4.305 l0 -34 -8.5 0 -49.643 4.454 0 34 8.5 0 49.643 -4.454 m-49.643 4.454 l0 -34 -8.5 0 -75.842 9.248 0 34 8.5 0 75.842 -9.248 m-75.842 9.248 l0 -34 -8.5 0 -48.837 7.673 0 34 8.5 0 48.837 -7.673 m-48.837 7.673 l0 -34 -8.5 0 -66.449 13.241 0 34 8.5 0 66.449 -13.241 m-66.449 13.241 l0 -34 -8.5 0 -53.277 12.997 0 34 8.5 0 53.277 -12.997 m-53.277 12.997 l0 -34 -8.5 0 -35.148 10.602 0 34 8.5 0 35.148 -10.602 m-35.148 10.602 l0 -34 -8.5 0 -15.955 6.485 0 34 8.5 0 15.955 -6.485 m-15.955 6.485 l0 -34 -8.5 0 -3.618 2.761 0 34 8.5 0 3.618 -2.761 m-3.618 -31.239 l-8.5 0 0 34 0.756 3.297 8.5 0 0 -34 -0.756 -3.297 m0.756 3.297 l-8.5 0 0 34 3.462 1.598 8.5 0 0 -34 -3.462 -1.598 m3.462 1.598 l-8.5 0 0 34 14.262 1.646 8.5 0 0 -34 -14.262 -1.646 m5.762 1.646 l0 34 8.5 0 21.136 -1.375 0 -34 -8.5 0 -21.136 1.375 m21.136 -1.375 l0 34 8.5 0 149.01 -20.857 0 -34 -8.5 0 -149.01 20.857 m149.01 -20.857 l0 34 8.5 0 92.169 -11.088 0 -34 -8.5 0 -92.169 11.088 m92.169 -11.088 l0 34 8.5 0 102.009 -9.684 0 -34 -8.5 0 -102.009 9.684 m102.009 -9.684 l0 34 8.5 0 105.603 -7.185 0 -34 -8.5 0 -105.603 7.185 m105.603 -7.185 l0 34 8.5 0 77.287 -2.692 0 -34 -8.5 0 -77.287 2.692 m77.287 -2.692 l0 34 8.5 0 70.411 -0.431 0 -34 -8.5 0 -70.411 0.431 m78.911 -0.431 l-8.5 0 0 34 147.247 3.238 8.5 0 0 -34 -147.247 -3.238 m138.747 3.238 l0 34 8.5 0 30.547 -0.894 0 -34 -8.5 0 -30.547 0.894 m30.547 33.106 l8.5 0 0 -34 -18.999 -2.84 -8.5 0 0 34 18.999 2.84 m-18.999 -2.84 l8.5 0 0 -34 -70 -3.923 -8.5 0 0 34 70 3.923 m-70 -3.923 l8.5 0 0 -34 -116.036 -4.079 -8.5 0 0 34 116.036 4.079 m-116.036 -4.079 l8.5 0 0 -34 -118.734 -0.435 -8.5 0 0 34 118.734 0.435 m-110.234 -0.435 l0 -34 -8.5 0 -78.165 2.585 0 34 8.5 0 78.165 -2.585 m-78.165 2.585 l0 -34 -8.5 0 -81.042 4.606 0 34 8.5 0 81.042 -4.606 m-81.042 4.606 l0 -34 -8.5 0 -53.852 4.916 0 34 8.5 0 53.852 -4.916 m-53.852 4.916 l0 -34 -8.5 0 -77.604 9.391 0 34 8.5 0 77.604 -9.391 m-77.604 9.391 l0 -34 -8.5 0 -68.546 10.253 0 34 8.5 0 68.546 -10.253 m-68.546 10.253 l0 -34 -8.5 0 -54.403 10.556 0 34 8.5 0 54.403 -10.556 m-54.403 10.556 l0 -34 -8.5 0 -36.927 9.019 0 34 8.5 0 36.927 -9.019 m-36.927 9.019 l0 -34 -8.5 0 -18.916 6.146 0 34 8.5 0 18.916 -6.146 m-18.916 6.146 l0 -34 -8.5 0 -6.36 3.741 0 34 8.5 0 6.36 -3.741 m-6.36 -30.259 l-8.5 0 0 34 0.03 2.86 8.5 0 0 -34 -0.03 -2.86 m0.03 2.86 l-8.5 0 0 34 7.067 2.572 8.5 0 0 -34 -7.067 -2.572 m7.067 2.572 l-8.5 0 0 34 15.225 0.872 8.5 0 0 -34 -15.225 -0.872 m6.725 0.872 l0 34 8.5 0 148.276 -17.165 0 -34 -8.5 0 -148.276 17.165 m148.276 -17.165 l0 34 8.5 0 86.311 -8.037 0 -34 -8.5 0 -86.311 8.037 m86.311 -8.037 l0 34 8.5 0 71.923 -4.95 0 -34 -8.5 0 -71.923 4.95 m71.923 -4.95 l0 34 8.5 0 74.491 -3.309 0 -34 -8.5 0 -74.491 3.309 m74.491 -3.309 l0 34 8.5 0 98.628 -1.304 0 -34 -8.5 0 -98.628 1.304 m107.128 -1.304 l-8.5 0 0 34 70.147 1.002 8.5 0 0 -34 -70.147 -1.002 m70.147 1.002 l-8.5 0 0 34 62.175 2.867 8.5 0 0 -34 -62.175 -2.867 m62.175 2.867 l-8.5 0 0 34 121.424 9.122 8.5 0 0 -34 -121.424 -9.122 m121.424 9.122 l-8.5 0 0 34 16.262 2.518 8.5 0 0 -34 -16.262 -2.518 m16.262 36.518 l0 -34 -8.5 0 -13.808 1.36 0 34 8.5 0 13.808 -1.36 m-13.808 1.36 l0 -34 -8.5 0 -83.624 0.189 0 34 8.5 0 83.624 -0.189 m-92.124 0.189 l8.5 0 0 -34 -109.123 -1.836 -8.5 0 0 34 109.123 1.836 m-109.123 -1.836 l8.5 0 0 -34 -117.284 -0.116 -8.5 0 0 34 117.284 0.116 m-108.784 -0.116 l0 -34 -8.5 0 -76.47 2.568 0 34 8.5 0 76.47 -2.568 m-76.47 2.568 l0 -34 -8.5 0 -107.849 6.719 0 34 8.5 0 107.849 -6.719 m-107.849 6.719 l0 -34 -8.5 0 -54.105 5.216 0 34 8.5 0 54.105 -5.216 m-54.105 5.216 l0 -34 -8.5 0 -100.363 12.921 0 34 8.5 0 100.363 -12.921 m-100.363 12.921 l0 -34 -8.5 0 -61.734 9.745 0 34 8.5 0 61.734 -9.745 m-61.734 9.745 l0 -34 -8.5 0 -47.083 9.229 0 34 8.5 0 47.083 -9.229 m-47.083 9.229 l0 -34 -8.5 0 -31.649 7.832 0 34 8.5 0 31.649 -7.832 m-31.649 7.832 l0 -34 -8.5 0 -19.726 6.443 0 34 8.5 0 19.726 -6.443 m-19.726 6.443 l0 -34 -8.5 0 -2.364 1.221 0 34 8.5 0 2.364 -1.221 m-2.364 -32.779 l-8.5 0 0 34 0.112 1.467 8.5 0 0 -34 -0.112 -1.467 m0.112 1.467 l-8.5 0 0 34 7.473 0.406 8.5 0 0 -34 -7.473 -0.406 m-1.027 0.406 l0 34 8.5 0 126.978 -18.675 0 -34 -8.5 0 -126.978 18.675 m126.978 -18.675 l0 34 8.5 0 77.524 -9.796 0 -34 -8.5 0 -77.524 9.796 m77.524 -9.796 l0 34 8.5 0 65.43 -6.084 0 -34 -8.5 0 -65.43 6.084 m65.43 -6.084 l0 34 8.5 0 70.246 -4.204 0 -34 -8.5 0 -70.246 4.204 m70.246 -4.204 l0 34 8.5 0 71.708 -2.448 0 -34 -8.5 0 -71.708 2.448 m71.708 -2.448 l0 34 8.5 0 93.591 -0.229 0 -34 -8.5 0 -93.591 0.229 m102.091 -0.229 l-8.5 0 0 34 84.939 3.985 8.5 0 0 -34 -84.939 -3.985 m84.939 3.985 l-8.5 0 0 34 54.887 4.136 8.5 0 0 -34 -54.887 -4.136 m54.887 4.136 l-8.5 0 0 34 44.288 5.156 8.5 0 0 -34 -44.288 -5.156 m44.288 5.156 l-8.5 0 0 34 33.206 5.416 8.5 0 0 -34 -33.206 -5.416 m33.206 5.416 l-8.5 0 0 34 18.294 4.623 8.5 0 0 -34 -18.294 -4.623 m18.294 4.623 l-8.5 0 0 34 2.155 2.201 8.5 0 0 -34 -2.155 -2.201 m2.155 36.201 l0 -34 -8.5 0 -1.741 2.319 0 34 8.5 0 1.741 -2.319 m-1.741 2.319 l0 -34 -8.5 0 -6.316 2.025 0 34 8.5 0 6.316 -2.025 m-6.316 2.025 l0 -34 -8.5 0 -38.424 2.184 0 34 8.5 0 38.424 -2.184 m-38.424 2.184 l0 -34 -8.5 0 -160.696 0.38 0 34 8.5 0 160.696 -0.38 m-160.696 0.38 l0 -34 -8.5 0 -93.141 1.96 0 34 8.5 0 93.141 -1.96 m-93.141 1.96 l0 -34 -8.5 0 -100.182 4.468 0 34 8.5 0 100.182 -4.468 m-100.182 4.468 l0 -34 -8.5 0 -100.602 7.7 0 34 8.5 0 100.602 -7.7 m-100.602 7.7 l0 -34 -8.5 0 -88.21 8.72 0 34 8.5 0 88.21 -8.72 m-88.21 8.72 l0 -34 -8.5 0 -50.325 6.881 0 34 8.5 0 50.325 -6.881 m-50.325 6.881 l0 -34 -8.5 0 -42.32 7.954 0 34 8.5 0 42.32 -7.954 m-42.32 7.954 l0 -34 -8.5 0 -15.32 4.395 0 34 8.5 0 15.32 -4.395 m-15.32 4.395 l0 -34 -8.5 0 -2.753 2.027 0 34 8.5 0 2.753 -2.027 m-2.753 -31.973 l-8.5 0 0 34 4.401 1.569 8.5 0 0 -34 -4.401 -1.569 m-4.099 1.569 l0 34 8.5 0 24.629 -1.156 0 -34 -8.5 0 -24.629 1.156 m24.629 -1.156 l0 34 8.5 0 68.531 -9.573 0 -34 -8.5 0 -68.531 9.573 m68.531 -9.573 l0 34 8.5 0 52.141 -5.473 0 -34 -8.5 0 -52.141 5.473 m52.141 -5.473 l0 34 8.5 0 80.473 -5.723 0 -34 -8.5 0 -80.473 5.723 m80.473 -5.723 l0 34 8.5 0 65.28 -2.643 0 -34 -8.5 0 -65.28 2.643 m65.28 -2.643 l0 34 8.5 0 89.079 -0.999 0 -34 -8.5 0 -89.079 0.999 m97.579 -0.999 l-8.5 0 0 34 107.964 3.232 8.5 0 0 -34 -107.964 -3.232 m107.964 3.232 l-8.5 0 0 34 59.045 3.556 8.5 0 0 -34 -59.045 -3.556 m59.045 3.556 l-8.5 0 0 34 65.344 5.852 8.5 0 0 -34 -65.344 -5.852 m65.344 5.852 l-8.5 0 0 34 69.443 8.2 8.5 0 0 -34 -69.443 -8.2 m69.443 8.2 l-8.5 0 0 34 11.379 2.568 8.5 0 0 -34 -11.379 -2.568 m11.379 36.568 l0 -34 -8.5 0 -7.874 1.406 0 34 8.5 0 7.874 -1.406 m-7.874 1.406 l0 -34 -8.5 0 -40.401 0.117 0 34 8.5 0 40.401 -0.117 m-48.901 0.117 l8.5 0 0 -34 -63.476 -2.143 -8.5 0 0 34 63.476 2.143 m-63.476 -2.143 l8.5 0 0 -34 -133.219 -1.68 -8.5 0 0 34 133.219 1.68 m-124.719 -1.68 l0 -34 -8.5 0 -107.407 0.462 0 34 8.5 0 107.407 -0.462 m-107.407 0.462 l0 -34 -8.5 0 -62.812 2.113 0 34 8.5 0 62.812 -2.113 m-62.812 2.113 l0 -34 -8.5 0 -68.771 4.325 0 34 8.5 0 68.771 -4.325 m-68.771 4.325 l0 -34 -8.5 0 -54.343 5.369 0 34 8.5 0 54.343 -5.369 m-54.343 5.369 l0 -34 -8.5 0 -26.442 3.927 0 34 8.5 0 26.442 -3.927 m-26.442 3.927 l0 -34 -8.5 0 -20.91 4.843 0 34 8.5 0 20.91 -4.843 m-20.91 4.843 l0 -34 -8.5 0 -1.226 1.842 0 34 8.5 0 1.226 -1.842 m-1.226 -32.158 l-8.5 0 0 34 5.445 1.065 8.5 0 0 -34 -5.445 -1.065 m-3.055 1.065 l0 34 8.5 0 109.78 -8.697 0 -34 -8.5 0 -109.78 8.697 m109.78 -8.697 l0 34 8.5 0 84.88 -4.507 0 -34 -8.5 0 -84.88 4.507 m84.88 -4.507 l0 34 8.5 0 56.078 -1.034 0 -34 -8.5 0 -56.078 1.034 m64.578 -1.034 l-8.5 0 0 34 76.935 0.738 8.5 0 0 -34 -76.935 -0.738 m76.935 0.738 l-8.5 0 0 34 74.896 3.12 8.5 0 0 -34 -74.896 -3.12 m74.896 3.12 l-8.5 0 0 34 67.76 4.977 8.5 0 0 -34 -67.76 -4.977 m67.76 4.977 l-8.5 0 0 34 125.045 13.072 8.5 0 0 -34 -125.045 -13.072 m116.545 47.072 l8.5 0 0 -34 -96.23 -6.285 -8.5 0 0 34 96.23 6.285 m-96.23 -6.285 l8.5 0 0 -34 -88.437 -3.278 -8.5 0 0 34 88.437 3.278 m-88.437 -3.278 l8.5 0 0 -34 -102.154 -1.342 -8.5 0 0 34 102.154 1.342 m-93.654 -1.342 l0 -34 -8.5 0 -82.692 1.13 0 34 8.5 0 82.692 -1.13 m-82.692 1.13 l0 -34 -8.5 0 -75.073 3.342 0 34 8.5 0 75.073 -3.342 m-75.073 3.342 l0 -34 -8.5 0 -62.696 4.778 0 34 8.5 0 62.696 -4.778 m-62.696 4.778 l0 -34 -8.5 0 -46.62 5.645 0 34 8.5 0 46.62 -5.645 m-46.62 5.645 l0 -34 -8.5 0 -40.898 7.16 0 34 8.5 0 40.898 -7.16 m-49.398 -26.84 l0 34 8.5 0 98.041 -9.276 0 -34 -8.5 0 -98.041 9.276 m98.041 -9.276 l0 34 8.5 0 77.139 -5.232 0 -34 -8.5 0 -77.139 5.232 m77.139 -5.232 l0 34 8.5 0 86.273 -3.253 0 -34 -8.5 0 -86.273 3.253 m86.273 -3.253 l0 34 8.5 0 104.825 -0.814 0 -34 -8.5 0 -104.825 0.814 m113.325 -0.814 l-8.5 0 0 34 48.26 1.095 8.5 0 0 -34 -48.26 -1.095 m48.26 1.095 l-8.5 0 0 34 89.491 4.716 8.5 0 0 -34 -89.491 -4.716 m89.491 4.716 l-8.5 0 0 34 52.627 5.216 8.5 0 0 -34 -52.627 -5.216 m44.127 39.216 l8.5 0 0 -34 -122.018 -5.434 -8.5 0 0 34 122.018 5.434 m-122.018 -5.434 l8.5 0 0 -34 -89.533 -1.989 -8.5 0 0 34 89.533 1.989 m-89.533 -1.989 l8.5 0 0 -34 -82.306 -0.131 -8.5 0 0 34 82.306 0.131 m-73.806 -0.131 l0 -34 -8.5 0 -64.877 1.949 0 34 8.5 0 64.877 -1.949 m-64.877 1.949 l0 -34 -8.5 0 -83.469 5.006 0 34 8.5 0 83.469 -5.006 m-83.469 5.006 l0 -34 -8.5 0 -55.709 5.309 0 34 8.5 0 55.709 -5.309 m-55.709 5.309 l0 -34 -8.5 0 -51.905 6.92 0 34 8.5 0 51.905 -6.92 m-51.905 6.92 l0 -34 -8.5 0 -32.738 6.051 0 34 8.5 0 32.738 -6.051 m-32.738 6.051 l0 -34 -8.5 0 -24.166 6.053 0 34 8.5 0 24.166 -6.053 m-24.166 6.053 l0 -34 -8.5 0 -4.922 3.017 0 34 8.5 0 4.922 -3.017 m-4.922 -30.983 l-8.5 0 0 34 3.674 1.37 8.5 0 0 -34 -3.674 -1.37 m3.674 1.37 l-8.5 0 0 34 16.305 0.642 8.5 0 0 -34 -16.305 -0.642" />
    <path class="write-flat-pen" fill="#FFFFFF" stroke-width="1.6" __comx="125.529" __comy="55.525" __timestamp="0x1784d51aa8d" d="M128.208 37.063 l0.348 -0.494 0.01 -0.255 -0.344 -1.07 -0.332 -0.299 -1.478 -0.544 -2.526 0.374 -3.477 1.797 -2.641 2.246 -2.15 2.864 -0.718 2.082 0.35 2.04 1.537 1.501 3.243 1.061 7.07 1.09 3.756 1.126 2.906 1.611 1.236 1.539 0.463 1.777 -0.437 2.343 -1.431 2.535 -2.618 2.435 -2.557 1.4 -3.899 1.043 -2.682 0.126 -2.965 -0.581 -1.72 -0.896 -1.198 -1.364 -0.227 -0.849 0.518 -0.842 0.068 -0.086 2.003 -0.801 -0.016 -0.106 -2.149 -0.188 -0.542 0.004 -1.649 1.6 0.545 2.042 1.643 1.871 2.191 1.141 3.381 0.663 3.047 -0.143 4.251 -1.137 2.901 -1.589 2.946 -2.74 1.683 -2.983 0.551 -2.956 -0.639 -2.454 -1.648 -2.051 -3.332 -1.847 -4.027 -1.208 -7.05 -1.087 -2.765 -0.904 -0.9 -0.878 -0.194 -1.125 0.502 -1.459 1.888 -2.528 2.362 -2.033 3.081 -1.664 1.946 -0.399 0.988 0.212 -0.023 -0.045 0.443 0.553 0.022 -0.071 0.026 0.454" />
    <path class="write-flat-pen" fill="#FFFFFF" stroke-width="1.6" __comx="152.244" __comy="55.525" __timestamp="0x1784d51acd7" d="M150.117 33.246 l0.03 2.503 0.116 0.663 1.993 10.919 0.233 1.608 0.733 18.561 0.499 2.054 0.129 0.001 0.522 -2.072 -0.558 -18.666 -0.268 -1.71 -2.33 -10.89 -0.152 -0.599 -0.341 -2.417" />
    <path class="write-flat-pen" fill="#FFFFFF" stroke-width="1.6" __comx="155.207" __comy="55.525" __timestamp="0x1784d51addd" d="M147.261 50.991 l-0.439 -0.067 -1.349 -0.206 0 0 -0.023 1.123 0.122 0.019 5.003 -0.048 10.174 -1.587 0.984 -0.203 3.238 -0.659 -0.021 -0.189 -3.303 0.084 -1.015 0.023 -10.169 1.175 -4.9 0.246 -0.097 0.016 -0.023 1.123 0 0 1.358 -0.133 0.336 0.057" />
    <path class="write-flat-pen" fill="#FFFFFF" stroke-width="1.6" __comx="174.028" __comy="55.525" __timestamp="0x1784d51b088" d="M175.856 56.895 l-0.367 -1.482 -0.149 -0.265 -1.995 -1.473 -0.511 -0.163 -2.3 -0.285 -2.297 0.629 -1.605 1.339 -1.347 2.425 -0.566 2.543 0.325 2.748 0.942 1.766 1.667 1.251 1.925 0.242 2.029 -0.733 1.744 -1.523 1.543 -2.667 0.592 -2.287 -0.302 -0.075 5.43 8.132 2.603 1.94 0.119 -0.115 -1.767 -2.583 -5.44 -8.688 -1.728 -0.438 -0.897 3.548 -1.311 2.282 -1.348 1.184 -1.436 0.528 -1.196 -0.141 -1.109 -0.819 -0.669 -1.241 -0.265 -2.238 0.464 -2.106 1.108 -2.024 1.162 -1 1.751 -0.536 1.95 0.131 0.248 0.055 1.865 1.01 0.029 0.013 0.646 1.285" />
    <path class="write-flat-pen" fill="#FFFFFF" stroke-width="1.6" __comx="190.899" __comy="55.525" __timestamp="0x1784d51b2cd" d="M179.084 39.854 l0.227 1.445 0.157 0.422 3.114 6.793 0.43 0.966 4.451 12.081 0 0 0.359 0.692 0 0 1.421 -0.157 1.292 -4.466 1.281 -2.374 1.874 -1.752 1.972 -0.902 1.47 -0.078 1.464 0.59 1.371 1.45 0.868 2.158 0.261 2.341 -0.565 2.796 -1.055 1.727 -1.901 1.299 -2.272 0.647 -2.443 -0.085 -2.216 -0.901 -0.046 0.036 -1.47 -1.622 -0.12 0.063 0.503 2.131 0.154 0.416 2.812 1.465 3.023 0.105 2.764 -0.787 2.399 -1.639 1.381 -2.261 0.671 -3.318 -0.313 -2.807 -1.063 -2.642 -1.82 -1.925 -2.117 -0.853 -2.128 0.113 -2.486 1.137 -2.255 2.11 -1.484 2.759 -1.291 4.647 1.421 -0.157 0 0 -0.334 -0.587 0 0 -4.582 -11.971 -0.476 -1.014 -3.427 -6.639 -0.173 -0.323 -0.543 -1.287" />
    <path class="write-flat-pen" fill="#FFFFFF" stroke-width="1.6" __comx="208.973" __comy="55.525" __timestamp="0x1784d51b3fe" d="M202.979 40.468 l0.632 1.508 0.242 0.411 3.433 5.847 0.529 0.962 2.669 5.387 2.919 7.836 1.432 3.164 0.132 -0.04 -0.57 -3.45 -2.668 -8.039 -2.761 -5.471 -0.574 -1.004 -3.737 -5.709 -0.273 -0.361 -0.902 -1.315" />
    <path class="write-flat-pen" fill="#FFFFFF" stroke-width="1.6" __comx="224.892" __comy="55.525" __timestamp="0x1784d51b5fd" d="M215.77 58.455 l1.457 0.917 0.316 0.108 4.986 0.366 0.59 -0.125 2.372 -0.937 1.833 -1.525 0.785 -1.653 -0.339 -1.652 -1.491 -1.114 -2.417 -0.425 -2.456 0.565 -2.22 1.754 -1.527 2.775 -0.706 2.999 0.197 2.839 1.28 2.595 1.901 1.706 3.214 1.208 2.61 0.019 3.336 -0.986 2.61 -2.001 0.322 -0.534 1.592 -2.751 -0.145 -0.115 -2.321 2.171 -0.331 0.288 -2.416 1.501 -2.87 0.827 -2.093 -0.012 -2.673 -0.997 -1.463 -1.297 -1.028 -2.04 -0.174 -2.3 0.592 -2.573 1.271 -2.33 1.71 -1.364 1.833 -0.434 1.783 0.297 0.789 0.565 0.16 0.654 -0.425 0.974 -1.409 1.245 -2.056 0.896 -0.332 0.086 -4.736 -0.013 -0.154 -0.029 -1.545 -0.575" />
    <path class="write-flat-pen" fill="#FFFFFF" stroke-width="1.6" __comx="274.872" __comy="55.525" __timestamp="0x1784d51b90d" d="M272.278 37.942 l0.148 0.54 0.029 0.239 1.158 5.577 0.267 1.278 1.335 7.155 0.961 13.707 0.119 -0.166 0.148 -0.024 -0.226 0.602 0.155 0.235 0.643 0.031 0.251 -0.091 0.204 -0.411 -0.737 -14.075 -1.449 -7.254 -0.305 -1.302 -1.501 -5.512 -0.13 -0.391 -0.528 -0.491" />
    <path class="write-flat-pen" fill="#FFFFFF" stroke-width="1.6" __comx="287.247" __comy="55.525" __timestamp="0x1784d51ba4a" d="M284.102 38.234 l-0.458 0.728 -0.043 0.388 0.311 3.014 0.174 0.88 5.548 22.245 1.02 2.795 0.057 -0.008 0.183 -3.034 -5.597 -22.286 -0.209 -0.817 -0.613 -2.847 -0.028 -0.173 0.095 -0.719" />
    <path class="write-flat-pen" fill="#FFFFFF" stroke-width="1.6" __comx="284.674" __comy="55.525" __timestamp="0x1784d51bb4e" d="M276.524 56.039 l6.94 -1.014 0.664 -0.077 5.39 -0.573 3.464 -0.48 -0.009 -0.265 -3.511 -0.25 -5.464 0.287 -0.721 0.093 -6.912 1.358" />
    <path class="write-flat-pen" fill="#FFFFFF" stroke-width="1.6" __comx="303.319" __comy="55.525" __timestamp="0x1784d51bd61" d="M302.961 57.019 l1.034 -1.179 0.089 -0.203 -0.335 -1.728 -0.652 -0.256 -1.789 0.291 -1.489 1.388 -1.335 3.032 -0.393 2.974 0.534 2.68 1.057 1.734 1.697 1.202 1.784 0.264 2.382 -0.758 1.831 -1.783 1.099 -2.65 0.069 -2.378 -0.785 -2.061 -1.429 -1.386 -1.559 -0.203 -2.205 0.908 0.04 0.258 2.134 0.238 0.815 0.272 0.835 0.814 0.547 1.433 -0.05 1.766 -0.858 2.077 -1.325 1.296 -1.676 0.543 -1.057 -0.145 -1.14 -0.79 -0.759 -1.223 -0.446 -2.166 0.308 -2.522 1.084 -2.602 0.946 -0.976 1.047 -0.297 -0.195 -0.093 0.416 0.799 0.062 -0.137 -0.703 1.306" />
    <path class="write-flat-pen" fill="#FFFFFF" stroke-width="1.6" __comx="324.841" __comy="55.525" __timestamp="0x1784d51bfe2" d="M312.112 53.785 l-0.35 2.649 0.007 0.48 0.64 4.417 1.161 3.11 1.289 0.946 1.424 -0.603 0.913 -2.096 0.699 -5.556 1.088 -3.831 0.906 -1.351 0.545 -0.203 0.575 0.221 1.349 2.003 1.865 6.631 0.858 0.973 0 0 1.224 -0.028 1.037 -1.29 1.92 -5.952 1.318 -2.428 0.813 -0.693 0.491 -0.028 0.788 0.623 1.056 2.181 2.152 8.609 1.894 2.939 0.148 -0.063 -0.744 -3.3 -1.932 -8.724 -1.293 -2.67 -1.552 -1.227 -1.635 0.092 -1.449 1.236 -1.53 2.819 -1.875 5.812 -0.852 1.06 1.224 -0.028 0 0 -0.617 -0.699 -1.836 -6.527 -1.775 -2.634 -1.61 -0.619 -1.596 0.594 -1.334 1.99 -1.189 4.192 -0.677 5.453 -0.563 1.318 -0.028 0.021 -0.215 -0.143 -1.013 -2.52 -0.802 -4.165 -0.033 -0.331 0.013 -2.599" />
    <path class="write-flat-pen" fill="#FFFFFF" stroke-width="1.6" __comx="351.082" __comy="55.525" __timestamp="0x1784d51c282" d="M352.787 52.938 l0.143 -0.928 -0.091 -0.229 -1.119 -0.934 -0.493 -0.118 -2.607 0.165 -2.343 1.201 -1.586 1.869 -1.069 2.677 -0.073 2.631 0.873 2.605 1.929 2.264 2.752 1.431 2.996 0.405 2.745 -0.605 2.109 -1.367 1.302 -2.17 0.358 -2.586 -0.539 -2.458 -1.57 -2.674 -1.976 -1.876 -1.99 -0.611 -0.816 0.854 -0.298 1.643 0.215 0.114 1.071 -0.948 0.154 0.064 0.828 0.295 1.548 1.469 1.327 2.26 0.424 1.931 -0.274 1.98 -0.943 1.573 -1.555 1.009 -2.187 0.484 -2.443 -0.324 -2.239 -1.151 -1.535 -1.795 -0.695 -2.052 0.051 -2.079 0.858 -2.199 1.209 -1.483 1.8 -1.013 2.136 -0.321 0.103 -0.004 0.905 0.398 -0.054 -0.145 0.193 0.76" />
    <path class="write-flat-pen" fill="#FFFFFF" stroke-width="1.6" __comx="366.888" __comy="55.525" __timestamp="0x1784d51c3de" d="M363.038 41.128 l0.808 0.098 -0.002 0.03 2.016 3.49 0.266 0.797 1.518 5.528 1.838 14.819 0.846 3.443 0.167 -0.014 0.279 -3.56 -1.78 -14.961 -1.67 -5.639 -0.355 -0.954 -2.466 -3.574 -0.415 -0.265 -1.088 0.226" />
    <path class="write-flat-pen" fill="#FFFFFF" stroke-width="1.6" __comx="370.128" __comy="55.525" __timestamp="0x1784d51c4cd" d="M361.196 53.172 l3.6 1.373 0.707 0.172 4.61 0.689 4.957 -0.395 0.711 -0.214 3.279 -0.992 -0.044 -0.242 -3.417 0.237 -0.665 0.039 -4.753 0.105 -4.419 -0.611 -0.59 -0.126 -3.642 -1.036" />
    <path class="write-flat-pen" fill="#FFFFFF" stroke-width="1.6" __comx="381.796" __comy="55.525" __timestamp="0x1784d51c6d9" d="M379.964 60.04 l1.377 -0.552 0.26 -0.118 1.955 -1.677 0.042 -0.768 -1.239 -0.802 -2.102 1.007 -1.824 2.375 -1.16 3.238 -0.019 2.658 0.872 2.038 1.553 1.196 1.771 0.234 2.272 -0.861 1.641 -1.65 0.977 -2.423 -0.221 -2.284 -1.309 -2.142 -0.016 -0.027 -2.92 -1.847 -0.32 1.15 0.087 -0.072 0.727 -0.55 -0.01 -0.14 -0.796 -0.444 -0.096 -0.059 -0.32 1.15 2.457 1.929 -0.016 -0.027 0.977 1.598 0.148 1.528 -0.709 1.76 -1.169 1.176 -1.573 0.597 -0.947 -0.124 -0.886 -0.68 -0.581 -1.35 0.011 -2.058 0.975 -2.76 1.433 -1.917 1.037 -0.564 -0.072 -0.112 0.033 -0.552 -1.249 1.453 -0.118 0.084 -1.226 0.832" />
    <path class="write-flat-pen" fill="#FFFFFF" stroke-width="1.6" __comx="401.318" __comy="58.519" __timestamp="0x1784d51c988" d="M394.817 83.73 l0.117 1.372 0.091 0.121 0.473 -0.104 0.446 -0.608 0.09 -0.444 0.318 -3.981 0.021 -0.903 -0.474 -19.204 0.271 -1.356 0.595 -0.625 1.942 -0.497 3.213 0.032 2.541 0.693 1.363 1.023 0.797 1.425 0.097 1.312 -0.717 1.705 -1.222 1.146 -2.085 0.913 -1.69 0.157 -1.897 -0.61 -2.473 -1.012 -0.11 0.149 1.882 2.187 2.396 0.911 2.298 -0.214 2.573 -1.127 1.671 -1.567 0.998 -2.374 -0.152 -2.049 -1.135 -2.029 -1.878 -1.409 -3.035 -0.828 -3.629 -0.036 -2.589 0.664 -1.231 1.293 -0.396 1.989 0.698 19.357 0.016 0.857 0.016 3.928 0.001 0.279 -0.076 0.621 0.473 -0.104 0.001 0.04 -0.387 -1.138" />
    <path class="write-flat-pen" fill="#FFFFFF" stroke-width="1.6" __comx="422.567" __comy="58.519" __timestamp="0x1784d51cbac" d="M416.959 58.274 l0.202 -0.559 0.007 0.001 0.185 -0.13 -0.754 0.341 -0.042 0.01 0.818 1.49 0.293 0.542 5.31 8.116 2.659 2.823 3.031 1.699 0.102 -0.128 -2.239 -2.505 -2.294 -2.851 -5.357 -7.911 -0.331 -0.527 -1.242 -1.538 -0.186 -0.078 -0.754 0.341 0.093 0.39 0.023 0.037 0.146 0.417" />
    <path class="write-flat-pen" fill="#FFFFFF" stroke-width="1.6" __comx="422.155" __comy="58.519" __timestamp="0x1784d51ccf0" d="M429.417 58.175 l-0.643 2.147 -0.055 0.478 -0.533 3.95 -1.591 5.943 -1.982 4.619 -9.453 15.971 -0.245 0.683 -0.256 1.058 -0.663 3.355 0.166 0.053 1.398 -3.11 0.431 -0.95 0.26 -0.539 9.718 -15.825 2.07 -4.818 1.588 -6.17 0.386 -4.098 0.012 -0.419 0.285 -2.135" />
    <path class="write-flat-pen" fill="#FFFFFF" stroke-width="1.6" __comx="479.653" __comy="58.519" __timestamp="0x1784d51d18d" d="M481.36 41.877 l0.508 -1.016 0.054 -0.236 -0.073 -2.317 -0.13 -0.283 -1.261 -1.262 -2.117 0.043 -2.514 1.542 -3.208 3.448 -2.235 3.459 -0.1 1.797 0.937 1.544 9.51 5.045 3.241 2.306 2.148 2.369 0.939 2.025 0.336 2.291 -0.428 1.898 -1.253 1.84 -1.549 1.019 -2.748 0.709 -2.196 -0.156 -2.991 -1.047 -2.213 -1.427 -0.641 -0.897 0.068 -0.482 0.007 -0.08 1.462 -1.479 -0.11 -0.179 -1.979 0.639 -0.423 0.184 -0.852 1.578 1.342 1.894 2.631 1.697 3.371 1.181 2.67 0.189 3.258 -0.841 2.036 -1.339 1.603 -2.354 0.56 -2.485 -0.413 -2.816 -1.139 -2.456 -2.428 -2.678 -3.468 -2.467 -9.215 -4.886 -0.453 -0.744 0.048 -0.883 1.922 -2.996 2.941 -3.232 1.977 -1.294 1.169 -0.112 0.784 0.619 -0.047 -0.111 0.384 1.971 0.008 0.066 -0.188 1.05" />
    <path class="write-flat-pen" fill="#FFFFFF" stroke-width="1.6" __comx="501.986" __comy="58.519" __timestamp="0x1784d51d397" d="M493.259 58.169 l1.418 0.214 0.251 0.027 2.822 0.019 0.661 -0.09 3.733 -0.994 3.297 -1.741 1.778 -1.693 0.531 -1.55 -0.573 -1.495 -2.172 -0.937 -3.368 0.198 -3.243 1.166 -2.596 1.973 -1.758 2.446 -0.88 2.55 0.077 2.258 1.157 2.623 2.305 2.046 3.252 1.122 3.439 -0.009 4.073 -1.601 0.547 -0.422 0.435 -0.423 2.366 -2.303 -0.093 -0.125 -2.884 1.608 -0.497 0.272 -0.45 0.22 -3.774 1.175 -2.896 0.008 -2.694 -0.93 -1.805 -1.603 -0.892 -2.021 -0.056 -1.653 0.707 -2.048 1.481 -2.061 2.209 -1.68 2.795 -1.008 2.763 -0.168 1.221 0.516 0.141 0.344 -0.213 0.664 -1.331 1.326 -2.927 1.69 -3.466 1.137 -0.523 0.113 -2.712 0.309 -0.219 0.017 -1.424 0.114" />
    <path class="write-flat-pen" fill="#FFFFFF" stroke-width="1.6" __comx="531.713" __comy="58.519" __timestamp="0x1784d51d6ef" d="M516.647 51.906 l-0.133 0.743 -0.005 0.209 0.148 2.184 0.054 0.512 0 0 1.759 11.755 0 0 1.581 -0.069 0.416 -5.772 1.203 -5.269 1.489 -3.789 0.224 -0.19 0.232 0.093 1.074 1.977 2.666 9.859 0 0 0.733 0.725 0 0 1.298 -0.254 3.036 -7.101 4.09 -7.239 1.073 -1.128 -0.148 -0.043 2.147 9.382 1.745 5.158 1.542 2.587 1.953 1.042 0.494 -0.203 1.598 -0.947 -0.052 -0.201 -1.857 -0.061 0.031 -0.084 -1.001 -0.713 -1.247 -2.093 -1.665 -4.921 -2.338 -10.217 -1.689 -0.496 -1.882 1.98 -4.231 7.488 -3.071 7.182 1.298 -0.254 0 0 -0.426 -0.422 0 0 -2.602 -9.623 -1.438 -2.648 -1.663 -0.67 -1.267 1.077 -1.68 4.275 -1.257 5.505 -0.418 5.895 1.581 -0.069 0 0 -1.998 -11.709 0 0 -0.096 -0.495 -0.472 -2.119 -0.046 -0.156 -0.195 -0.698" />
    <path class="write-flat-pen" fill="#FFFFFF" stroke-width="1.6" __comx="555.89" __comy="58.519" __timestamp="0x1784d51d899" d="M555.12 52.215 l-0.339 1.812 -0.044 0.473 0.322 6.503 0.078 0.64 0.597 4.005 0.922 2.265 0.165 -0.025 0.221 -2.423 -0.444 -4.013 -0.085 -0.599 -0.653 -6.374 -0.012 -0.379 0.018 -1.811" />
    <path class="write-flat-pen" fill="#FFFFFF" stroke-width="1.6" __comx="556.903" __comy="58.519" __timestamp="0x1784d51d942" d="M557.566 44.201 l-0.643 -0.43 -0.684 0.426 0.504 0.859 0.186 -0.034 0.162 -0.983 -0.684 0.426 0.596 0.492" />
    <path class="write-flat-pen" fill="#FFFFFF" stroke-width="1.6" __comx="571.734" __comy="58.519" __timestamp="0x1784d51db31" d="M562.593 48.191 l-0.293 1.06 -0.016 0.335 0.441 4.796 0.148 0.888 1.382 7.228 0 0 1.001 2.537 0 0 1.364 0.186 0.7 -0.908 0.858 -7.143 1.119 -3.628 1.358 -2.288 1.503 -1.331 1.257 -0.249 1.094 0.418 1.202 1.448 0.925 2.969 0.546 10.246 0.803 2.559 1.842 -0.606 0.343 -0.519 1.018 -1.75 -0.14 -0.126 -1.641 1.186 -0.228 0.11 -0.129 -0.146 -0.281 -0.988 -0.546 -10.251 -1.079 -3.462 -1.673 -2.014 -1.915 -0.731 -2.134 0.422 -2.015 1.784 -1.583 2.666 -1.217 3.947 -0.816 6.856 -0.428 0.568 1.364 0.186 0 0 -0.974 -2.395 0 0 -1.493 -7.048 -0.167 -0.834 -0.769 -4.664 -0.031 -0.206 -0.028 -1.024" />
    <path class="write-flat-pen" fill="#FFFFFF" stroke-width="1.6" __comx="591.788" __comy="58.519" __timestamp="0x1784d51dd99" d="M593.982 54.428 l0.04 -1.101 -0.026 -0.231 -0.894 -2.038 -0.325 -0.337 -1.865 -1.104 -2.025 -0.023 -1.998 1.105 -1.585 1.876 -1.188 2.779 -0.327 3.09 0.618 2.728 1.425 2.075 1.811 1.023 2.294 0.061 2.279 -1.218 1.57 -1.916 1.117 -2.749 0 0 0.121 -2.313 0 0 -0.811 -0.696 0 0 -1.313 0.492 -0.238 1.645 0.795 3.055 2.592 3.779 0.402 0.284 0.365 0.191 2.886 1.492 0.088 -0.122 -2.31 -2.284 -0.258 -0.262 -0.16 -0.19 -2.121 -3.54 -0.649 -2.494 0.191 -1.325 -1.313 0.492 0 0 0.214 0.184 0 0 -0.066 1.259 0 0 -0.925 2.276 -1.214 1.482 -1.624 0.868 -1.473 -0.039 -1.143 -0.645 -1.043 -1.517 -0.494 -2.171 0.271 -2.59 0.994 -2.346 1.237 -1.488 1.384 -0.798 1.238 -0.028 1.419 0.729 0.063 0.045 1.02 1.566 0.026 0.035 0.271 1.025" />
    <path class="write-flat-pen" fill="#FFFFFF" stroke-width="1.6" __comx="615.677" __comy="58.519" __timestamp="0x1784d51dfc1" d="M605.222 46.377 l-0.053 0.714 -0.006 0.174 0.076 1.616 0.08 0.573 2.504 10.363 0.151 0.528 0 0 0.956 2.616 0 0 0.962 0.327 0 0 1.049 -0.845 -0.67 -6.038 0.223 -2.376 0.827 -1.995 1.248 -1.388 1.748 -0.839 2.463 -0.091 5.827 1.197 3.528 0.327 0.054 -0.218 -3.281 -1.36 -5.973 -1.553 -3.009 0.112 -2.334 1.12 -1.643 1.828 -1.025 2.471 -0.26 2.779 0.692 6.2 1.049 -0.845 0 0 -0.241 -0.079 0 0 -0.682 -1.845 0 0 -0.132 -0.452 -2.826 -10.218 -0.128 -0.496 -0.376 -1.541 -0.052 -0.166 -0.254 -0.672" />
    <path class="write-flat-pen" fill="#FFFFFF" stroke-width="1.6" __comx="208.68" __comy="184.304" __timestamp="0x1784d51f3de" d="M206.362 148.225 l0.302 -2.15 0.003 0.024 0.834 -0.926 -0.338 0.06 0.722 0.964 1.019 6.207 0.913 21.506 0.001 14.724 -0.691 12.338 -0.89 5.677 -0.449 3.418 0.139 0.047 1.746 -3.105 1.046 -5.859 0.698 -12.471 -0.001 -14.804 -0.969 -21.642 -1.282 -6.667 -1.545 -1.525 -0.737 0.099 -0.918 1.675 -0.024 0.173 0.031 2.214" />
    <path class="write-flat-pen" fill="#FFFFFF" stroke-width="1.6" __comx="247.31" __comy="184.304" __timestamp="0x1784d51f784" d="M246.285 145.096 l0.159 -2.381 0.013 -0.264 -0.008 -0.94 -1.056 -0.084 -0.102 0.198 0.171 5.801 0.12 1.616 1.692 20.408 0.455 14.978 -0.199 24.577 0.931 3.35 0.195 -0.017 0.36 -3.388 0.313 -24.538 -0.458 -15.054 -1.78 -20.441 -0.142 -1.594 -0.488 -5.537 -0.033 -0.003 -1.056 -0.084 0.3 0.828 0.022 0.196 0.17 2.373" />
    <path class="write-flat-pen" fill="#FFFFFF" stroke-width="1.6" __comx="234.004" __comy="184.304" __timestamp="0x1784d51f937" d="M214.817 178.222 l1.615 -0.673 0.373 -0.016 11.115 0.303 19.703 -2.218 1.411 -0.238 1.32 -0.215 3.124 -0.499 -0.015 -0.183 -3.164 0.025 -1.353 0.008 -1.435 0.107 -19.65 1.916 -11.098 0.02 -0.604 0.082 -1.629 1.036" />
    <path class="write-flat-pen" fill="#FFFFFF" stroke-width="1.6" __comx="285.098" __comy="184.304" __timestamp="0x1784d51fc7c" d="M283.008 182.798 l0.572 -1.37 0.024 -0.418 -1.171 -1.039 -0.591 0.043 -2.71 1.202 -3.037 2.493 -2.178 2.933 -1.353 3.453 -0.584 3.654 0.358 3.704 1.312 3.498 1.969 2.427 2.404 1.725 2.75 1.028 3.174 0.345 3.354 -0.596 3.353 -1.58 2.869 -2.342 2.799 -3.639 1.247 -3.192 0.65 -4.319 -0.368 -3.103 -1.263 -2.944 -2.346 -2.772 -3.067 -2.07 -3.748 -1.323 -2.898 -0.204 -2.06 0.598 -2.428 1.733 -1.864 3.93 0.04 0.574 0.266 0.735 1.178 2.41 0.077 -0.022 -0.262 -2.631 -0.011 -0.621 0.037 -0.128 1.784 -3.171 1.89 -1.349 1.524 -0.443 2.397 0.169 3.351 1.183 2.714 1.832 2.049 2.42 1.077 2.512 0.316 2.66 -0.591 3.929 -1.099 2.813 -2.547 3.312 -2.573 2.101 -2.983 1.406 -2.919 0.519 -2.747 -0.298 -2.363 -0.883 -2.057 -1.476 -1.67 -2.058 -1.147 -3.057 -0.319 -3.29 0.522 -3.284 1.206 -3.101 1.923 -2.628 2.702 -2.313 2.257 -1.192 -0.115 -0.006 0.569 0.214 0.021 -0.196 -0.218 1.345" />
    <path class="write-flat-pen" fill="#FFFFFF" stroke-width="1.6" __comx="332.787" __comy="184.304" __timestamp="0x1784d520099" d="M314.326 177.459 l-0.173 1.055 -0.006 0.235 0.122 2.463 0.057 0.591 1.995 10.775 0.232 1.13 0 0 1.528 9.448 0 0 -0.255 0.857 0 0 1.491 -0.109 -0.82 -1.77 -0.508 -4.625 0.329 -4.85 1.5 -7.966 1.827 -6.275 0.647 -0.802 0.153 -0.016 0.815 0.852 0 0 1.321 4.515 0 0 4.069 21.178 0 0 1.586 -0.161 -0.072 -5.855 0.815 -5.697 1.88 -7.143 1.55 -3.787 1.323 -1.889 1.215 -0.805 1.459 -0.095 1.534 0.595 1.873 1.564 2.087 3.214 1.023 2.91 2.059 17.744 0.919 3.198 1.321 0.735 0.588 -0.175 1.619 -0.644 -0.027 -0.217 -1.728 -0.227 -0.132 -0.085 -0.304 -0.353 -0.681 -2.54 -2.065 -17.797 -1.145 -3.259 -2.323 -3.576 -2.26 -1.887 -2.109 -0.818 -2.237 0.146 -1.823 1.207 -1.6 2.284 -1.657 4.049 -1.93 7.334 -0.845 5.91 0.074 5.979 1.586 -0.161 0 0 -4.083 -21.252 0 0 -1.452 -4.963 0 0 -1.627 -1.701 -1.595 0.166 -1.266 1.57 -1.938 6.658 -1.532 8.135 -0.345 5.086 0.553 5.026 0.931 2.007 1.491 -0.109 0 0 0.357 -1.209 0 0 -1.642 -9.836 0 0 -0.251 -1.155 -2.319 -10.662 -0.095 -0.533 -0.421 -2.396 -0.033 -0.18 -0.136 -1.028" />
    <path class="write-flat-pen" fill="#FFFFFF" stroke-width="1.6" __comx="370.975" __comy="184.304" __timestamp="0x1784d52031a" d="M373.794 185.841 l0.352 -0.662 -0.01 -0.265 -0.357 -1.048 -0.163 -0.212 -1.637 -1.265 -0.536 -0.21 -2.409 -0.495 -3.227 0.355 -2.36 1.032 -2.062 1.804 -1.468 2.35 -1.013 3.609 -0.072 3.046 0.996 4.17 1.732 3.201 2.412 2.617 2.797 1.856 3.065 0.997 3.272 0.177 3.143 -0.682 2.707 -1.363 2.173 -2.089 1.363 -2.708 0.625 -3.164 -0.243 -4.394 -1.192 -4.355 -1.942 -3.923 -2.096 -2.609 -1.829 -0.796 -1.843 1.466 -0.211 0.614 -0.711 2.348 0.182 0.092 1.468 -1.966 0.226 -0.251 1.053 -0.507 0.662 0.305 1.743 2.17 1.796 3.628 1.106 4.042 0.223 4.024 -0.544 2.752 -1.142 2.269 -1.802 1.732 -2.31 1.163 -2.733 0.593 -2.848 -0.154 -2.658 -0.864 -2.454 -1.628 -2.145 -2.328 -1.537 -2.841 -0.9 -3.764 0.061 -2.638 0.894 -3.198 1.219 -1.962 1.696 -1.501 1.918 -0.865 2.77 -0.374 2.109 0.307 0.298 0.082 1.573 0.838 0.03 0.004 0.564 0.703 0.041 0.037 -0.043 0.626" />
    <path class="write-flat-pen" fill="#FFFFFF" stroke-width="1.6" __comx="418.926" __comy="184.304" __timestamp="0x1784d52056c" d="M409.136 151.132 l-0.696 0.76 -0.096 0.43 -0.463 5.096 -0.072 1.225 -0.767 15.57 0.249 13.268 0.719 7.509 1.08 4.595 1.637 3.748 1.713 2.103 2.244 1.372 2.314 0.405 3.536 -0.619 3.457 -1.481 4.055 -3.152 0.505 -0.589 0.654 -1.018 1.605 -2.92 -0.137 -0.098 -2.224 2.451 -0.787 0.814 -0.449 0.412 -3.985 2.753 -3.145 1.29 -3.085 0.532 -1.739 -0.305 -1.751 -1.071 -1.402 -1.721 -1.492 -3.415 -1.022 -4.348 -0.703 -7.34 -0.25 -13.155 0.649 -15.523 0.041 -1.219 0.112 -5.056 -0.005 -0.163 0.293 -0.753" />
    <path class="write-flat-pen" fill="#FFFFFF" stroke-width="1.6" __comx="412.536" __comy="184.304" __timestamp="0x1784d520653" d="M398.23 179.485 l-0.183 -1.181 -0.104 0.203 1.56 -0.593 4.438 -0.266 18.389 0.842 1.346 -0.009 1.355 -0.06 3.202 -0.13 0.012 -0.227 -3.172 -0.461 -1.34 -0.199 -1.336 -0.155 -18.472 -1.095 -4.761 0.423 -2.013 1.017 -0.321 0.545 0.659 1.571" />
    <path class="write-flat-pen" fill="#FFFFFF" stroke-width="1.6" __comx="449.982" __comy="184.304" __timestamp="0x1784d5208c8" d="M453.245 185.621 l0.656 -1.668 0.06 -0.295 -0.162 -2.029 -0.21 -0.448 -1.476 -1.527 -2.286 -0.828 -3.256 0.065 -3.487 1.265 -2.29 1.79 -2.418 3.343 -1.32 3.979 -0.422 4.143 0.621 4.089 1.296 3.08 2.067 2.615 2.77 2.008 3.063 1.108 3.537 0.295 3.647 -0.7 3.386 -1.552 2.836 -2.435 1.952 -3.048 1.104 -3.436 0.418 -4.227 -0.529 -2.877 -1.279 -2.509 -2.044 -2.157 -2.448 -1.212 -1.914 0.022 -1.806 1.43 -0.217 0.523 -0.082 0.384 -0.513 2.536 0.152 0.06 1.348 -2.208 0.177 -0.276 0.131 -0.139 1.306 -0.74 1.046 0.009 1.854 0.918 1.689 1.783 1.068 2.095 0.446 2.425 -0.379 3.833 -0.988 3.075 -1.713 2.675 -2.487 2.135 -3.006 1.378 -3.242 0.622 -3.107 -0.259 -2.651 -0.959 -2.408 -1.746 -1.795 -2.271 -1.135 -2.696 -0.561 -3.692 0.383 -3.766 1.186 -3.579 2.138 -2.964 1.912 -1.503 3.005 -1.115 2.73 -0.108 1.77 0.55 1.232 1.041 0.064 0.079 0.431 1.665 0.005 0.114 -0.327 1.699" />
    <path class="write-flat-pen" fill="#FFFFFF" stroke-width="1.6" __comx="478.925" __comy="204.141" __timestamp="0x1784d520bca" d="M468.495 229.381 l0.591 5.505 0.077 0.331 0.802 1.156 0.856 -0.044 0.151 -0.191 1.299 -7.894 0.064 -1.084 0.114 -9.177 -2.903 -24.132 -0.168 -5.534 0.53 -2.168 1.169 -1.75 1.864 -1.478 2.369 -0.984 2.58 -0.369 3.108 0.566 3.161 1.529 1.929 1.597 1.638 2.4 0.688 2.222 0.055 2.417 -0.636 2.242 -1.501 2.14 -2.214 1.585 -2.455 0.881 -5.813 0.263 -3.328 0.831 0.016 0.258 3.386 0.421 6.046 -0.183 2.898 -1.039 2.617 -1.873 1.813 -2.585 0.776 -2.735 -0.066 -2.882 -0.826 -2.665 -1.901 -2.785 -2.252 -1.865 -3.531 -1.708 -3.577 -0.652 -3.038 0.434 -2.762 1.147 -2.236 1.772 -1.465 2.193 -0.649 2.653 0.177 5.823 2.93 24.1 -0.022 9.044 -0.043 0.987 -0.913 7.606 0.027 -0.017 0.856 -0.044 -0.924 -0.801 -0.034 -0.107 -0.919 -5.416" />
    <path class="write-flat-pen" fill="#FFFFFF" stroke-width="1.6" __comx="506.98" __comy="185.966" __timestamp="0x1784d520d87" d="M502.61 182.88 l-1.122 1.018 -0.098 0.594 0.336 2.939 2.441 5.473 5.284 8.098 0.426 0.433 2.468 2.503 0.225 -0.175 -1.816 -3.01 -0.276 -0.47 -4.928 -8.126 -2.422 -5.145 -0.5 -2.541 -0.019 -0.075 0.623 -0.972" />
    <path class="write-flat-pen" fill="#FFFFFF" stroke-width="1.6" __comx="508.048" __comy="195.814" __timestamp="0x1784d520ec5" d="M518.635 179.923 l-2.412 8.453 -0.444 1.511 -4.642 13.747 -7.925 20.742 -4.258 13.222 -2.417 13.768 -0.105 1.669 -0.094 2.975 0.034 1.367 0.072 3.101 0.152 0.008 0.4 -3.076 0.178 -1.344 0.376 -2.931 0.211 -1.594 2.683 -13.563 4.233 -13.084 7.945 -20.726 4.608 -13.828 0.441 -1.563 2.09 -8.555" />
    <path class="write-flat-pen" fill="#FFFFFF" stroke-width="1.6" __comx="597.317" __comy="188.064" __timestamp="0x1784d52157e" d="M604.123 153.931 l0.881 -1.302 0.121 -0.238 1.011 -2.788 0.093 -0.401 0.315 -2.451 -0.679 -1.753 -1.593 -0.848 -2.608 0.16 -3.444 1.193 -5.274 2.969 -5.077 3.963 -3.406 3.764 -4.037 6.134 -3.362 7.141 -2.448 7.311 -1.138 5.621 -0.609 7.839 0.217 5.303 0.984 4.727 2.04 4.33 3.172 3.763 4.169 2.703 3.387 1.166 5.657 0.705 6.248 -0.566 6.27 -1.69 5.681 -2.513 4.589 -2.852 3.388 -3.148 2.095 -3.337 0.917 -3.106 0.088 -3.12 -0.92 -3.214 -1.718 -2.855 -5.559 -5.345 -0.648 -0.488 -2.449 -1.772 -0.373 -0.264 -2.817 -2.007 -0.08 0.092 2.395 2.495 0.328 0.342 2.282 2.005 0.564 0.485 5.145 5.394 1.464 2.545 0.779 2.787 -0.075 2.667 -0.796 2.696 -1.866 2.973 -3.121 2.899 -4.362 2.711 -5.466 2.418 -6.018 1.622 -5.938 0.538 -5.321 -0.663 -3.045 -1.048 -3.805 -2.467 -2.884 -3.421 -1.87 -3.97 -0.919 -4.413 -0.207 -5.076 0.594 -7.647 1.099 -5.428 2.387 -7.128 3.274 -6.953 3.907 -5.936 3.231 -3.57 4.873 -3.805 5.043 -2.846 3.104 -1.091 1.962 -0.147 0.735 0.359 0.394 0.886 -0.126 2.05 -0.041 0.286 -0.649 2.78 -0.05 0.171 -0.559 1.428" />
    <path class="write-flat-pen" fill="#FFFFFF" stroke-width="1.6" __comx="610.552" __comy="188.064" __timestamp="0x1784d5217fe" d="M596.178 178.33 l-1.625 -1.613 0.005 -0.004 -0.052 -0.262 0.102 0.031 10.799 0.759 18.07 -1.533 1.634 0.174 0.585 0.74 0.548 2.775 0.475 12.008 0.158 0.485 1.128 3.339 0.211 -0.039 -0.135 -3.522 -0.006 -0.408 -0.236 -12.044 -0.648 -3.285 -1.242 -1.571 -2.455 -0.262 -18.106 1.542 -11.258 -0.602 -1.241 1.165 0.874 1.188 0.119 0.096 1.852 1.36" />
    <path class="write-flat-pen" fill="#FFFFFF" stroke-width="1.6" __comx="661.722" __comy="188.064" __timestamp="0x1784d521b23" d="M647.507 178.369 l-0.713 -0.303 -0.526 0.427 -0.035 0.33 0.731 5.028 0.253 1.082 0 0 3.097 11.881 0 0 1.339 7.951 0 0 1.577 -0.229 -0.96 -8.131 0.115 -3.332 1.142 -4.604 1.718 -3.417 2.313 -2.817 2.227 -1.778 2.395 -0.978 1.872 0.024 2.098 0.853 7.307 6.17 0.429 0.155 3.24 1.093 0.086 -0.169 -2.786 -1.982 -0.235 -0.183 -7.191 -6.465 -2.625 -1.067 -2.499 -0.033 -2.91 1.188 -2.538 2.027 -2.532 3.085 -1.878 3.736 -1.226 4.941 -0.125 3.621 0.979 8.252 1.577 -0.229 0 0 -1.407 -8.012 0 0 -3.323 -11.881 0 0 -0.271 -1.02 -1.045 -4.838 -0.03 -0.242 -0.526 0.427 0.775 -0.008" />
    <path class="write-flat-pen" fill="#FFFFFF" stroke-width="1.6" __comx="691.159" __comy="188.064" __timestamp="0x1784d521d8b" d="M691.688 183.371 l0.994 -2.075 0.112 -0.307 -0.308 -2.079 -0.648 -0.352 -2.094 0.042 -2.773 1.43 -2.964 2.643 -2.553 3.721 -1.651 3.949 -0.806 4.102 0.26 4 0.985 2.856 1.685 2.414 2.242 1.723 3.065 1.009 3.492 -0.066 3.573 -1.057 3.283 -1.989 2.631 -2.85 1.837 -3.315 1.16 -4.253 0.107 -3.281 -0.635 -3.058 -1.504 -3.055 -1.659 -1.845 -2.231 -1.209 -2.155 0.538 -0.243 0.366 -0.867 1.791 0.119 0.104 1.66 -1.097 0.027 0.058 1.194 -0.086 1.489 0.81 1.327 1.475 1.317 2.675 0.555 2.672 -0.094 2.902 -1.06 3.886 -1.65 2.978 -2.347 2.543 -2.912 1.764 -3.167 0.937 -3.004 0.057 -2.548 -0.838 -1.831 -1.407 -1.416 -2.028 -0.843 -2.442 -0.233 -3.577 0.733 -3.739 1.523 -3.649 2.345 -3.434 2.661 -2.409 2.279 -1.245 1.39 -0.131 -0.216 -0.129 0.425 1.136 0.009 0.023 -0.667 2.165" />
    <path class="write-flat-pen" fill="#FFFFFF" stroke-width="1.6" __comx="721.072" __comy="188.064" __timestamp="0x1784d521fa9" d="M711.764 180.831 l-0.741 -0.776 0 0 -0.906 0.159 -0.164 0.217 -1.553 4.535 -1.19 7.404 -0.238 6.259 0.677 3.376 1.424 2.54 1.751 1.354 2.459 0.617 2.983 -0.542 2.88 -1.659 2.526 -2.529 2.636 -4.155 2.203 -5.31 1.197 -4.838 0.244 -3.814 -0.656 -2.451 -1.639 -0.308 -1.053 2.189 -0.618 5.62 0.296 4.468 1.249 5.536 1.456 3.488 2.135 2.852 2.56 1.317 0.584 -0.025 2.89 -0.238 0.02 -0.218 -2.797 -0.765 -0.275 -0.105 -1.903 -1.195 -1.813 -2.423 -1.326 -3.176 -1.19 -5.278 -0.278 -4.203 0.572 -5.208 0.402 -0.836 -0.556 -0.104 0.328 1.225 -0.218 3.409 -1.133 4.581 -2.104 5.071 -2.467 3.89 -2.252 2.254 -2.456 1.415 -2.371 0.431 -1.799 -0.451 -1.229 -0.95 -1.141 -2.036 -0.591 -2.944 0.221 -5.976 1.107 -7.206 1.231 -4.331 0.035 -0.091 -0.906 0.159 0 0 0.946 0.506" />
    <path class="write-flat-pen" fill="#FFFFFF" stroke-width="1.6" __comx="756.752" __comy="205.676" __timestamp="0x1784d522291" d="M749.116 232.317 l-0.646 1.234 0.63 -0.188 0.046 -0.005 -0.28 -1.384 -0.066 -0.512 -0.436 -7.881 0.475 -15.731 -2.093 -17.274 -0.132 -4.763 0.456 -1.391 1.007 -0.873 1.661 -0.379 3.64 0.397 6.027 1.713 3.725 1.75 2.131 1.976 1.111 1.964 0.495 2.392 -0.405 2.527 -0.944 1.812 -1.557 1.568 -2.904 1.505 -4.066 0.848 -5.867 -0.139 -3.272 0.006 -0.039 0.191 3.135 1.318 6.185 0.228 4.466 -0.931 3.321 -1.721 1.905 -1.918 1.176 -2.258 0.493 -3.073 -0.605 -2.925 -1.357 -2.399 -2.495 -2.314 -4.068 -1.911 -6.282 -1.786 -4.042 -0.441 -2.313 0.528 -1.644 1.425 -0.681 2.077 0.142 5.116 2.088 17.229 -0.429 15.693 0.754 8.004 0.146 0.642 0.68 1.639 0.223 0.126 0.63 -0.188 0.323 -1.355" />
    <path class="write-flat-pen" fill="#FFFFFF" stroke-width="1.6" __comx="799.433" __comy="178.077" __timestamp="0x1784d5225b9" d="M801.907 177.895 l-0.157 -1.945 -0.007 -0.2 -0.297 -1.854 -1.236 -1.723 -1.919 -1.045 -2.532 -0.201 -2.527 0.789 -2.212 1.593 -2.123 2.745 -0.797 2.158 0.228 2.207 1.568 1.987 3.197 1.732 8.065 2.958 4.041 2.084 3.228 2.459 1.328 2.023 0.358 1.631 -0.297 1.237 -1.026 1.284 -2.774 1.477 -4.145 0.91 -13.673 0.496 0.041 0.332 -0.853 -0.769 -0.196 0.079 -0.079 1.145 0.161 0.628 14.794 -0.317 4.507 -0.989 3.26 -1.735 1.455 -1.821 0.466 -1.94 -0.5 -2.279 -1.64 -2.499 -3.557 -2.71 -4.254 -2.194 -8.05 -2.952 -2.805 -1.519 -1.077 -1.364 -0.143 -1.376 0.582 -1.58 1.829 -2.372 1.813 -1.316 1.993 -0.639 1.917 0.12 1.375 0.691 0.946 1.154 0.41 1.459 0.032 0.17 0.483 1.925" />
    <path class="write-flat-pen" fill="#FFFFFF" stroke-width="1.6" __comx="350.704" __comy="320.493" __timestamp="0x1784d523696" d="M351.898 321.411 l1.002 -1.454 0.05 -0.096 0.694 -1.927 0.062 -0.409 -0.565 -3.082 -0.248 -0.383 -1.427 -1.187 -2.528 -0.286 -3.337 1.006 -3.72 2.378 -3.09 3.043 -2.501 3.696 -1.836 4.04 -1.138 4.343 -0.495 5.164 0.561 3.9 1.449 3.674 1.653 2.423 2.437 2.169 3.195 1.411 4.886 0.773 4.379 -0.515 4.243 -1.332 5.068 -2.665 3.74 -3.136 2.08 -2.813 1.353 -3.215 0.726 -4.421 -0.282 -3.594 -1.107 -3.735 -1.902 -3.345 -2.69 -2.91 -3.225 -2.276 -4.013 -1.719 -3.681 -0.639 -3.39 0.248 -1.917 1.06 -1.409 2.841 -0.06 0.697 -0.222 3.11 0.216 0.047 1.095 -2.919 0.195 -0.472 1.36 -2.126 1.209 -0.669 2.844 -0.208 3.303 0.573 3.686 1.579 2.95 2.082 2.451 2.651 1.72 3.025 1.007 3.397 0.254 3.232 -0.664 4.043 -1.205 2.864 -1.853 2.506 -3.463 2.904 -4.789 2.518 -3.961 1.244 -4.011 0.471 -4.463 -0.706 -2.775 -1.226 -2.102 -1.871 -1.441 -2.113 -1.314 -3.333 -0.507 -3.525 0.465 -4.845 1.071 -4.087 1.723 -3.793 2.335 -3.454 2.855 -2.819 3.39 -2.186 2.823 -0.891 1.803 0.142 0.986 0.715 0.008 -0.005 0.803 2.599 0.005 0.166 -0.331 1.897 -0.006 0.033 -0.686 1.595" />
    <path class="write-flat-pen" fill="#FFFFFF" stroke-width="1.6" __comx="400.918" __comy="315.325" __timestamp="0x1784d523a5f" d="M397.251 348.111 l-0.085 3.048 -0.026 0.154 -0.152 0.37 0.854 -0.286 0.092 0.041 -0.053 -1.162 -0.049 -0.611 -1.443 -17.052 -1.463 -8.216 -3.593 -12.52 -1.239 -6.344 -0.324 -5.074 0.497 -4.535 1.101 -3.571 1.494 -2.588 2.08 -2.188 2.127 -1.311 3.009 -0.822 2.812 0.324 2.1 0.958 2.591 2.113 2.068 2.647 1.64 3.338 1.037 5.966 0.024 3.235 0.278 0.043 1.042 -3.274 -0.835 -6.453 -1.822 -3.709 -2.28 -2.919 -2.89 -2.357 -2.517 -1.149 -3.37 -0.389 -3.529 0.965 -2.499 1.541 -2.354 2.477 -1.679 2.909 -1.199 3.889 -0.528 4.824 0.339 5.315 1.272 6.514 3.589 12.507 1.438 8.067 1.626 16.99 0.11 0.663 0.405 1.422 0.157 0.118 0.854 -0.286 -0.111 -0.408 -0.032 -0.181 -0.259 -3.042" />
    <path class="write-flat-pen" fill="#FFFFFF" stroke-width="1.6" __comx="397.492" __comy="318.666" __timestamp="0x1784d523bb6" d="M378.414 319.293 l-0.529 0.916 1.121 0.337 0.522 0.081 7.22 0.423 25.028 -2.194 1.025 -0.089 0.99 -0.103 3.306 -0.325 0.002 -0.263 -3.301 -0.368 -1.005 -0.116 -1.084 -0.045 -24.993 1.946 -7.091 -0.164 -0.458 -0.025 -1.145 -0.004 0.392 0.916" />
    <path class="write-flat-pen" fill="#FFFFFF" stroke-width="1.6" __comx="481.615" __comy="285.486" __timestamp="0x1784d524aa8" d="M504.341 279.954 l-0.144 -2.326 -0.154 -0.442 -1.928 -3.152 -0.564 -0.597 -3.327 -2.367 -3.322 -1.203 -5.769 -0.771 -5.483 0.289 -7.866 1.381 -5.363 1.631 -4.172 2.014 -4.672 3.309 -3.421 3.493 -2.254 3.752 -1.021 3.513 0.05 2.369 0.91 2.352 2.194 2.244 3.669 1.847 19.654 4.851 6.823 2.314 5.964 2.939 4.747 3.282 2.774 2.604 2.717 3.706 1.603 3.468 0.749 4.422 -0.255 2.414 -1.007 2.413 -2.187 2.462 -3.421 2.303 -5.848 2.603 -6.691 1.81 -9.148 1.299 -9.832 0.607 -3.917 -0.245 -2.489 -0.772 -1.62 -1.336 -0.685 -1.454 -0.03 -1.713 0.825 -2.173 1.938 -2.466 5.315 -3.992 1.2 -0.692 1.193 -0.62 1.247 -0.617 2.846 -1.397 -0.073 -0.188 -3.047 0.877 -1.361 0.389 -1.315 0.486 -1.387 0.624 -5.739 3.965 -2.228 2.836 -1.022 2.689 0.042 2.365 0.985 2.088 2.14 1.764 2.972 0.922 4.208 0.263 9.994 -0.617 9.308 -1.322 6.906 -1.868 6.088 -2.71 3.705 -2.494 2.499 -2.813 1.2 -2.875 0.303 -2.865 -0.822 -4.849 -1.76 -3.807 -2.9 -3.954 -2.968 -2.787 -4.942 -3.417 -6.164 -3.037 -6.987 -2.369 -19.545 -4.824 -3.271 -1.645 -1.78 -1.819 -0.694 -1.784 -0.044 -1.846 0.888 -3.085 2.044 -3.425 3.184 -3.27 4.45 -3.156 3.946 -1.912 5.157 -1.576 7.682 -1.356 5.252 -0.288 5.483 0.691 3.021 1.034 3.161 2.07 0.427 0.4 2.078 2.798 0.121 0.235 0.435 2.178" />
    <path class="write-flat-pen" fill="#FFFFFF" stroke-width="1.6" __comx="525.716" __comy="335.225" __timestamp="0x1784d524e69" d="M528.469 319.938 l-0.776 -0.324 0.006 1.053 0.007 0.59 -0.758 17.032 -0.119 1.682 -1.133 11.398 -2.408 12.657 -0.754 3.244 0.137 0.057 1.827 -2.929 2.753 -12.795 1.118 -11.504 0.112 -1.732 0.419 -17.13 -0.079 -0.705 -0.358 -1.052 -0.776 0.457" />
    <path class="write-flat-pen" fill="#FFFFFF" stroke-width="1.6" __comx="538.018" __comy="335.225" __timestamp="0x1784d525063" d="M525.136 329.924 l-1.53 -4.096 -0.006 -0.291 0.329 -2.076 1.203 -2.209 1.983 -1.994 2.909 -1.793 3.398 -1.183 4.199 -0.482 4.364 0.547 3.781 1.317 3.144 1.87 2.003 2.048 0.893 1.937 0.32 2.33 -0.612 2.831 -1.745 3.028 -2.792 3.08 -3.417 2.593 -4.847 2.516 -3.995 1.282 -3.13 0.371 -0.802 -0.239 -0.362 -0.785 0.001 -0.192 0.685 -2.053 -0.194 -0.113 -1.447 1.61 -0.435 0.558 0.432 2.248 1.98 0.593 3.612 -0.428 4.27 -1.371 5.088 -2.641 3.644 -2.765 3.007 -3.317 1.955 -3.394 0.725 -3.351 -0.391 -2.846 -1.109 -2.405 -2.343 -2.395 -3.463 -2.059 -4.093 -1.426 -4.722 -0.591 -4.566 0.527 -3.728 1.306 -3.208 2.002 -2.243 2.322 -1.343 2.679 -0.254 2.477 0.064 0.628 1.932 4.151" />
    <path class="write-flat-pen" fill="#FFFFFF" stroke-width="1.6" __comx="576.973" __comy="335.225" __timestamp="0x1784d5253aa" d="M564.162 334.794 l0.346 0.795 0.53 0.197 5.271 0.719 1.374 0.012 5.459 -0.574 0 0 12.464 -2.731 0.216 -2.946 -0.697 -2.347 -2.069 -2.507 -2.448 -1.499 -3.529 -1.064 -5.338 -0.386 -3.785 0.627 -3.247 1.373 -2.916 2.109 -2.396 2.644 -1.619 2.93 -0.831 3.151 0.229 3.31 1.56 3.5 2.62 3.143 3.392 2.397 2.696 1.134 4.402 0.818 4.878 -0.132 8.395 -2.473 1.127 -0.717 2.751 -1.746 -0.154 -0.312 -3.058 1.124 -1.142 0.405 -8.158 2.126 -4.512 0.122 -4.067 -0.755 -2.376 -1 -3.079 -2.176 -2.343 -2.811 -1.355 -3.039 -0.192 -2.765 0.712 -2.705 1.431 -2.596 2.155 -2.389 2.633 -1.909 2.908 -1.234 3.416 -0.571 4.979 0.354 3.17 0.955 2.057 1.253 1.711 2.057 0.533 1.772 -0.112 1.518 -11.258 2.49 0 0 -5.292 0.614 -1.219 0.014 -5.125 -0.378 -0.1 0.006 -0.407 -0.309" />
    <path class="write-flat-pen" fill="#FFFFFF" stroke-width="1.6" __comx="620.99" __comy="335.225" __timestamp="0x1784d525676" d="M625.78 324.628 l0.583 -1.553 0.084 -0.27 0.438 -2.483 -0.107 -0.529 -0.898 -1.387 -2.157 -0.567 -3.718 0.961 -4.862 2.543 -4.988 3.486 -2.981 3.05 -2.647 4.115 -1.069 3.23 -0.079 3.248 1.248 3.398 2.731 3.067 2.67 1.569 4.651 1.12 3.554 0.094 5.337 -0.857 5.135 -1.636 7.377 -4.189 0.477 -0.584 2.041 -2.558 -0.15 -0.157 -2.643 1.929 -0.481 0.333 -7.25 3.748 -4.877 1.554 -5.072 0.815 -3.236 -0.085 -4.256 -1.025 -2.248 -1.321 -2.362 -2.652 -1.038 -2.826 0.066 -2.706 0.93 -2.812 2.45 -3.808 2.762 -2.827 4.779 -3.346 4.607 -2.433 3.16 -0.871 1.276 0.265 0.536 0.671 0.032 0.062 -0.074 2.246 -0.026 0.208 -0.279 1.617" />
    <path class="write-flat-pen" fill="#FFFFFF" stroke-width="1.6" __comx="670.448" __comy="301.465" __timestamp="0x1784d525fed" d="M665.939 289.233 l-0.802 0.477 -0.16 0.266 -1.533 3.65 -0.32 0.92 -5.098 15.907 -2.503 10.117 -1.096 7.712 -0.083 6.14 0.775 4.08 1.496 3.376 2.309 2.72 2.368 1.429 2.993 0.815 3.74 -0.025 5.183 -1.121 6.686 -2.568 4.009 -2.435 0.411 -0.449 2.237 -2.498 -0.093 -0.111 -2.852 1.765 -0.424 0.25 -3.971 2.025 -6.464 2.483 -4.901 1.06 -3.354 0.023 -2.566 -0.699 -1.953 -1.179 -1.99 -2.345 -1.328 -2.996 -0.71 -3.74 0.079 -5.876 1.07 -7.53 2.47 -9.987 5.003 -15.871 0.285 -0.893 1.193 -3.681 -0.011 -0.031 0.421 -0.579" />
    <path class="write-flat-pen" fill="#FFFFFF" stroke-width="1.6" __comx="662.41" __comy="313.861" __timestamp="0x1784d52610f" d="M642.5 314.403 l2.329 -0.111 0.828 0.061 14.633 1.137 15.972 -0.755 1.601 -0.229 1.547 -0.348 3.001 -0.669 -0.027 -0.189 -3.067 0.213 -1.561 0.104 -1.564 0.074 -15.88 0.492 -14.587 -0.968 -0.934 -0.022 -2.381 0.437" />
    <path class="write-flat-pen" fill="#FFFFFF" stroke-width="1.6" __comx="716.228" __comy="316.465" __timestamp="0x1784d5267d2" d="M701.233 312.979 l-0.589 -0.234 -0.003 0.789 0.052 0.327 0.369 3.555 0.081 0.83 0 0 1.526 18.292 0 0 0.13 7.446 0 0 1.598 -0.062 -0.296 -4.895 0.53 -7.058 1.246 -6.583 1.858 -5.482 1.599 -2.898 1.436 -1.384 2.014 -0.812 1.686 0.106 2.068 0.833 4.263 3.072 7.529 6.498 3.328 1.394 0.161 -0.264 -2.662 -2.253 -7.357 -6.627 -4.484 -3.231 -2.488 -1.002 -2.306 -0.145 -2.639 1.064 -1.834 1.767 -1.784 3.234 -1.94 5.723 -1.284 6.781 -0.545 7.256 0.303 5.004 1.598 -0.062 0 0 -0.133 -7.503 0 0 -1.745 -18.354 0 0 -0.129 -0.867 -0.712 -3.574 -0.121 -0.346 -0.332 -0.698 -0.589 0.363" />
    <path class="write-flat-pen" fill="#FFFFFF" stroke-width="1.6" __comx="753.77" __comy="322.475" __timestamp="0x1784d526c7d" d="M761.645 321.802 l0.534 -0.902 0.04 -0.128 0.099 -1.493 -0.085 -0.259 -1.115 -1.515 -2.895 -1.141 -3.854 -0.317 -4.893 0.524 -4.63 1.451 -3.092 1.712 -2.489 2.212 -2.389 3.259 -1.131 2.714 -0.641 3.835 0.247 3.092 1.144 3.513 2.063 2.699 2.279 1.407 2.882 0.671 3.294 -0.301 4.362 -1.603 4.095 -2.669 4.165 -4.074 3.836 -4.999 1.943 -3.68 0.712 -2.816 -0.217 -2.477 -1.76 -0.341 -1.45 2.219 -1.235 4.51 -0.38 4.665 0.524 4.162 1.26 3.701 2.109 3.532 3.62 2.453 0.68 0.09 3.122 0.344 0.042 -0.161 -2.888 -1.233 -0.404 -0.194 -2.963 -2.395 -1.857 -3.11 -1.154 -3.387 -0.483 -3.836 0.355 -4.351 1.129 -4.123 0.724 -1.109 -0.48 -0.093 0.088 1.006 -0.599 2.368 -1.79 3.391 -3.685 4.801 -3.971 3.885 -3.811 2.484 -3.994 1.468 -2.827 0.258 -2.376 -0.553 -1.805 -1.115 -1.718 -2.248 -1.001 -3.074 -0.217 -2.707 0.578 -3.459 0.987 -2.368 2.175 -2.968 2.229 -1.982 2.795 -1.549 4.325 -1.361 4.592 -0.512 3.5 0.236 2.383 0.815 0.888 0.944 -0.031 -0.109 0.224 1.177 0.018 -0.04 -0.19 0.977" />
    <path class="write-flat-pen" transform="translate(123.66,-7.159)" fill="#FFFFFF" stroke-width="1.6" __comx="841.858" __comy="34.042" __timestamp="0x1784d52e85b" d="M713.066 33.467 l-0.319 -0.313 -0.013 -0.03 -0.126 -0.236 -0.009 -0.038 -0.047 -0.18 0.049 0.065 0.064 0.027 -0.047 0.168 0.161 -0.057 0.043 -0.002 2.502 -0.575 0.374 -0.061 2.154 -0.219 2.592 -0.058 1.442 0.158 0.974 0.268 0.45 0.261 0.272 0.293 0.157 0.4 0.03 0.513 -0.157 0.662 -0.366 0.782 -0.583 0.826 -0.843 0.86 -1.035 0.801 -1.513 0.869 0 0 -1.688 0.742 0 0 -1.902 0.561 0 0 0.318 1.562 2.35 -0.27 1.682 -0.01 1.748 0.242 1.492 0.393 0.921 0.393 0.6 0.451 0.269 0.355 0.163 0.438 0.059 0.529 -0.125 0.658 -0.351 0.71 -0.67 0.747 -0.935 0.717 -1.185 0.658 -1.86 0.711 -1.463 0.352 -2.12 0.182 -1.602 -0.062 -1.303 -0.23 -0.947 -0.328 -0.696 -0.419 -0.478 -0.484 -0.259 -0.429 -0.18 -0.609 -0.031 -0.434 -0.047 0.043 -0.02 -0.039 -0.015 -0.077 0.015 -0.138 0.296 -0.802 -0.135 -0.158 -0.837 0.172 -0.222 0.066 -0.204 0.156 -0.147 0.168 -0.141 0.266 -0.119 0.954 0.312 1.079 0.465 0.771 0.753 0.762 1.011 0.609 1.226 0.425 1.536 0.271 1.81 0.07 2.34 -0.201 1.68 -0.405 2.063 -0.788 1.388 -0.771 1.147 -0.88 0.915 -1.02 0.545 -1.101 0.212 -1.111 -0.108 -0.965 -0.313 -0.842 -0.545 -0.721 -0.934 -0.703 -1.208 -0.515 -1.698 -0.447 -1.957 -0.271 -1.884 0.011 -2.437 0.28 0.318 1.562 0 0 2 -0.591 0 0 1.862 -0.822 0 0 1.672 -0.98 1.205 -0.93 1.011 -1.034 0.73 -1.061 0.473 -1.075 0.208 -1.051 -0.097 -0.963 -0.363 -0.855 -0.609 -0.642 -0.801 -0.461 -1.268 -0.342 -1.651 -0.177 -2.748 0.065 -2.253 0.26 -0.474 0.081 -2.675 0.763 -0.282 0.172 -0.379 0.411 -0.111 0.318 0.086 0.394 0.094 0.163 0.22 0.189 0.065 0.055 0.262 0.177 0.072 0.049 0.424 0.227" />
    <path class="write-flat-pen" transform="translate(123.66,-7.159)" fill="#FFFFFF" stroke-width="1.6" __comx="861.519" __comy="34.042" __timestamp="0x1784d52eaea" d="M727.099 52.889 l-0.223 0.008 0.167 -0.013 0.202 0.139 0.017 0.185 0.065 -0.028 0.053 -0.042 0.229 -0.257 0.153 -0.176 0.687 -0.804 0.289 -0.346 6.451 -8.483 0.614 -0.784 3.863 -4.978 6.004 -7.379 0.369 -0.474 0.959 -1.301 0.284 -0.408 0.525 -0.783 0.234 -0.375 0.213 -0.362 0.186 -0.345 0.16 -0.323 0.14 -0.297 0.105 -0.286 0.291 -0.768 -0.098 -0.067 -0.607 0.554 -0.227 0.202 -0.225 0.235 -0.245 0.261 -0.253 0.29 -0.267 0.308 -0.278 0.325 -0.605 0.709 -0.312 0.372 -1.025 1.222 -0.381 0.443 -6.119 7.313 -3.837 5.027 -0.611 0.797 -6.346 8.561 -0.264 0.362 -0.609 0.908 -0.137 0.245 -0.165 0.37 -0.054 0.163 -0.031 0.248 0.015 0.261 0.286 0.23 0.218 -0.012 0.286 -0.143" />
    <path class="write-flat-pen" transform="translate(123.66,-7.159)" fill="#FFFFFF" stroke-width="1.6" __comx="876.052" __comy="34.042" __timestamp="0x1784d52efc0" d="M750.272 35.728 l-0.203 -0.273 -0.017 -0.03 -0.086 -0.169 0.007 -0.003 -0.036 -0.116 0.011 -0.021 -0.016 -0.179 0.027 0.031 0.035 -0.16 0.016 0.029 0.181 -0.401 0.042 -0.055 0.498 -0.621 0.852 -0.741 1.113 -0.727 1.338 -0.651 1.388 -0.456 1.327 -0.173 0.847 0.037 0.761 0.176 0.571 0.263 0.425 0.34 0.307 0.434 0.17 0.584 0 0.791 -0.234 0.966 -0.458 1.066 -0.949 1.528 -1.179 1.512 -1.083 1.126 -1.637 1.396 -1.772 1.286 -4.258 2.724 -3.032 2.127 -1.406 1.197 -0.518 0.877 0.586 0.882 1.012 0.13 3.436 -0.408 2.177 -0.089 7.12 0.486 1.153 -0.085 0.613 -0.511 0.394 -1.341 -0.021 -0.042 -0.006 -0.028 -0.135 -1.027 -0.169 -0.085 -0.906 0.501 -0.027 0.015 -0.09 0.097 -0.406 0.966 0.124 -0.103 -0.527 0.039 -7.093 -0.485 -2.326 0.095 -3.301 0.392 -0.091 -0.012 0.373 0.562 -0.129 0.218 1.145 -0.974 2.943 -2.064 4.269 -2.732 1.861 -1.356 1.731 -1.502 1.189 -1.24 1.283 -1.639 1.057 -1.7 0.56 -1.295 0.312 -1.278 0.006 -1.202 -0.296 -1.065 -0.595 -0.843 -0.754 -0.603 -0.897 -0.414 -1.065 -0.247 -1.133 -0.05 -1.615 0.21 -1.635 0.538 -1.528 0.748 -1.292 0.864 -1.029 0.966 -0.597 0.901 -0.127 0.291 -0.132 0.703 0.007 0.237 0.108 0.37 0.067 0.147 0.212 0.251 0.09 0.087 0.158 0.104 0.035 0.025 0.2 0.091 0.036 0.014 0.288 0.161" />
    <path class="write-flat-pen" transform="translate(123.66,-7.159)" fill="#FFFFFF" stroke-width="1.6" __comx="894.772" __comy="34.042" __timestamp="0x1784d52f426" d="M767.21 33.695 l-0.071 -0.281 0.015 -0.016 0.029 -0.138 0.018 0.008 0.056 -0.109 0.027 0 0.152 -0.211 0.041 -0.031 0.477 -0.472 0.111 -0.085 0.872 -0.562 1.119 -0.504 1.286 -0.335 0.914 -0.084 0.878 0.071 0.798 0.211 0.961 0.465 0.556 0.445 0.448 0.565 0.312 0.678 0.197 1.15 -0.021 0.994 -0.205 1.067 -0.416 1.145 -0.878 1.56 -1.192 1.562 -1.401 1.487 -1.511 1.353 -2.656 2.062 -4.642 3.248 -0.638 0.889 0.767 0.892 1.038 0.149 5.645 -0.383 1.977 0.014 1.028 0.157 2.578 0.986 0.733 0.075 0.777 -0.341 1.292 -1.745 0.023 -0.067 0.022 -0.063 0.043 -0.127 0.02 -0.105 0.225 -0.994 -0.108 -0.098 -0.967 0.322 -0.105 0.033 -0.119 0.054 -0.079 0.047 -0.096 0.076 -1.16 1.363 -0.024 0.011 -0.102 -0.01 -2.541 -0.972 -1.312 -0.2 -2.153 -0.016 -5.536 0.376 -0.277 -0.04 0.445 0.518 -0.255 0.354 4.454 -3.119 2.708 -2.152 1.592 -1.442 1.488 -1.603 1.293 -1.713 0.995 -1.756 0.506 -1.377 0.253 -1.316 0.025 -1.27 -0.257 -1.493 -0.475 -1.028 -0.672 -0.842 -0.822 -0.657 -1.242 -0.611 -1.074 -0.289 -1.152 -0.095 -1.179 0.116 -1.533 0.429 -1.33 0.655 -1.006 0.747 -0.231 0.23 -0.499 0.71 -0.103 0.219 -0.1 0.438 -0.01 0.209 0.065 0.275 0.034 0.096 0.119 0.172 0.047 0.068 0.21 0.253" />
    <path class="write-flat-pen" transform="translate(123.66,-7.159)" fill="#FFFFFF" stroke-width="1.6" __comx="917.331" __comy="34.042" __timestamp="0x1784d52f801" d="M782.289 55.895 l-0.103 -0.131 0.075 0.095 0.046 -0.008 0.03 0 0.109 -0.2 0.08 -0.139 0.263 -0.46 0.17 -0.285 0.727 -1.17 0.295 -0.447 2.391 -3.423 0.456 -0.63 4.304 -5.649 6.606 -8.287 6.173 -7.505 0.368 -0.485 0.329 -0.458 0.282 -0.423 0.239 -0.394 0.19 -0.363 0.119 -0.354 0.295 -0.794 -0.209 -0.163 -0.698 0.48 -0.312 0.199 -0.304 0.264 -0.328 0.314 -0.35 0.359 -0.379 0.405 -0.405 0.449 -6.251 7.46 -6.618 8.324 -4.288 5.716 -0.466 0.672 -2.303 3.535 -0.298 0.51 -0.654 1.283 -0.152 0.369 -0.181 0.584 -0.046 0.256 -0.006 0.352 0.025 0.175 0.09 0.192 0.104 0.145 0.329 0.103" />
    <path class="write-flat-pen" transform="translate(123.66,-7.159)" fill="#FFFFFF" stroke-width="1.6" __comx="932.227" __comy="34.042" __timestamp="0x1784d52fc8b" d="M806.303 35.507 l0.059 -0.147 0.021 -0.045 0.059 -0.139 0.015 -0.045 0.049 -0.143 0.021 -0.056 0.043 -0.134 0.024 -0.058 0.064 -0.165 0.03 -0.051 0.094 -0.186 0.052 -0.081 0.235 -0.378 0.074 -0.091 0.581 -0.664 0.142 -0.13 0.94 -0.709 1.201 -0.661 1.361 -0.561 1.448 -0.358 1.005 -0.082 0.873 0.08 0.695 0.231 0.559 0.368 0.426 0.481 0.283 0.62 0.132 0.804 -0.068 0.936 -0.27 1.035 -0.497 1.055 -0.739 1.107 -1.338 1.486 -1.606 1.493 -2.286 1.801 -5.601 3.969 -2.571 2.003 -1.88 1.676 -0.969 1.078 -0.248 0.708 0.333 0.803 0.842 0.381 1.267 0.015 3.318 -0.411 3.432 -0.2 3.481 -0.012 4.126 0.323 0.734 -0.138 0.634 -0.537 0.311 -1.373 0.316 -0.777 -0.008 -0.062 0.006 -0.097 0.003 -0.109 0.048 -1.013 -0.054 -0.039 -0.946 0.364 -0.105 0.04 -0.1 0.051 -0.13 0.115 -0.549 0.991 -0.234 1.033 0.097 -0.082 -0.11 0.021 -3.979 -0.312 -3.59 0.012 -3.527 0.205 -3.262 0.404 -0.823 -0.01 0.04 0.018 0.143 0.345 -0.06 0.171 0.695 -0.774 1.774 -1.582 2.5 -1.948 5.604 -3.972 2.37 -1.867 1.703 -1.589 1.459 -1.625 0.873 -1.298 0.613 -1.297 0.345 -1.321 0.093 -1.271 -0.198 -1.202 -0.471 -1.031 -0.724 -0.819 -0.913 -0.601 -1.069 -0.355 -1.194 -0.11 -1.272 0.104 -1.689 0.418 -1.557 0.645 -1.385 0.781 -1.086 0.887 -0.263 0.284 -0.6 0.892 -0.123 0.262 -0.162 0.566 -0.033 0.216 -0.003 0.318 0.015 0.145 0.059 0.235 0.035 0.098 0.068 0.138 0.034 0.061 0.083 0.125 0.022 0.027 0.076 0.109 0.02 0.027 0.046 0.146" />
    <path class="write-flat-pen" transform="translate(123.66,-7.159)" fill="#FFFFFF" stroke-width="1.6" __comx="951.939" __comy="34.042" __timestamp="0x1784d52ffc4" d="M831.592 33.656 l-0.042 -0.384 -0.002 -0.055 -0.01 -0.289 -0.003 -0.081 -0.015 -0.248 -0.01 -0.078 -0.059 -0.319 -0.066 -0.149 -0.224 -0.346 -0.215 -0.17 -0.518 -0.207 -0.403 -0.009 -1.457 0.561 -0.422 0.279 -1.531 1.265 -1.22 1.272 -1.553 1.993 -1.109 1.783 -0.941 1.894 -0.716 1.883 -0.466 1.771 -0.19 1.653 0.096 1.612 0.469 1.479 0.558 0.927 0.757 0.805 0.896 0.618 1.017 0.418 1.653 0.236 1.222 -0.091 1.822 -0.447 1.733 -0.764 1.073 -0.67 1.35 -1.257 0.803 -1.049 1.011 -1.718 0.762 -1.793 0.357 -1.275 0.141 -1.294 -0.059 -1.328 -0.388 -1.902 -0.839 -2.409 -0.763 -1.643 -0.727 -0.993 -0.702 -0.585 -0.932 -0.394 -1.197 -0.115 -1.608 0.403 -0.44 0.208 -0.378 0.217 -0.366 0.245 -0.331 0.257 -0.308 0.271 -0.292 0.296 -0.261 0.322 -0.205 0.358 -0.421 0.716 0.127 0.129 0.725 -0.406 0.345 -0.181 0.315 -0.182 0.312 -0.174 0.313 -0.158 0.323 -0.149 0.338 -0.14 0.334 -0.12 0.304 -0.091 1.266 -0.208 0.707 0.069 0.487 0.206 0.369 0.308 0.518 0.707 0.663 1.427 0.778 2.232 0.342 1.674 0.048 1.08 -0.114 1.041 -0.294 1.049 -0.681 1.602 -0.909 1.544 -0.663 0.865 -1.139 1.06 -0.846 0.528 -1.5 0.662 -1.556 0.382 -0.915 0.068 -1.284 -0.183 -0.674 -0.277 -0.614 -0.423 -0.523 -0.556 -0.373 -0.619 -0.352 -1.109 -0.076 -1.274 0.161 -1.4 0.415 -1.578 0.658 -1.731 0.872 -1.755 1.024 -1.646 1.451 -1.862 1.1 -1.15 1.39 -1.172 0.23 -0.163 1.015 -0.516 -0.088 -0.017 0.144 -0.02 -0.063 -0.066 0.136 0.063 0 -0.032 0.137 0.173 0.024 0.03 0.12 0.198 0.035 0.06 0.137 0.251 0.026 0.05 0.164 0.354" />
    <path class="write-flat-pen" transform="translate(123.66,-7.159)" fill="#FFFFFF" stroke-width="1.6" __comx="970.243" __comy="34.042" __timestamp="0x1784d5303ca" d="M842.568 36.683 l-0.194 -0.308 -0.038 -0.071 -0.154 -0.264 -0.056 -0.095 -0.111 -0.196 -0.047 -0.094 -0.148 -0.321 -0.025 -0.079 -0.135 -0.399 0.009 -0.015 -0.021 -0.489 0.008 0.035 0.192 -0.484 0.419 -0.546 0.77 -0.595 1.052 -0.482 0.905 -0.23 1.315 -0.116 0.906 0.056 1.046 0.252 0.577 0.287 0.604 0.517 0.309 0.458 0.213 0.563 0.152 1.048 -0.108 1.172 -0.271 0.999 -0.468 1.058 -0.922 1.473 -0.9 1.081 -5.497 5.051 0 0 -4.39 4.459 0 0 0.763 1.338 2.216 -0.55 1.945 -0.301 1.857 -0.05 1.826 0.22 3.684 0.831 2.102 0.307 1.098 -0.016 1.12 -0.243 0.752 -0.376 0.516 -0.576 0.228 -0.831 -0.012 -0.088 -0.023 -0.069 -0.294 -1.007 -0.156 -0.05 -0.823 0.65 -0.059 0.045 -0.056 0.052 -0.214 0.472 -0.094 0.105 -0.3 0.15 -0.767 0.166 -0.81 0.012 -1.914 -0.28 -3.703 -0.835 -2.024 -0.244 -2.076 0.056 -2.116 0.327 -2.286 0.567 0.763 1.338 0 0 4.362 -4.431 0 0 5.547 -5.096 1.038 -1.246 1.04 -1.662 0.564 -1.274 0.339 -1.251 0.138 -1.499 -0.204 -1.408 -0.34 -0.901 -0.534 -0.792 -0.919 -0.788 -0.916 -0.455 -1.358 -0.328 -1.166 -0.072 -1.563 0.138 -1.172 0.299 -1.352 0.625 -1.081 0.854 -0.67 0.941 -0.26 0.9 -0.018 0.328 0.201 0.787 0.091 0.198 0.303 0.436 0.1 0.128 0.304 0.309 0.117 0.102 0.198 0.154 0.098 0.071 0.251 0.171 0.067 0.043 0.293 0.218" />
    <path class="write-flat-pen" transform="translate(123.66,-7.159)" fill="#FFFFFF" stroke-width="1.6" __comx="989.772" __comy="34.042" __timestamp="0x1784d530776" d="M860.866 31.497 l-0.266 0.031 -0.087 0.052 -0.272 0.291 0.299 0.327 0.218 0.062 0.116 0.013 0.078 0.023 0.106 0.006 0.251 -0.003 0.18 -0.024 0.743 -0.13 0.297 -0.057 3.307 -0.742 2.269 -0.67 1.506 -0.628 1.401 -0.828 0.912 -0.756 0.162 -0.439 0 0 -0.77 -1.076 -0.529 0.012 -1.03 0.426 -0.523 0.714 -0.4 2.353 -0.818 9.395 -0.284 4.831 -0.003 2.917 0.184 1.22 0.35 0.708 0.958 0.689 0.93 -1.255 -0.627 -0.485 -0.066 -0.14 -0.129 -0.856 0.003 -2.751 0.28 -4.762 0.81 -9.308 0.326 -1.916 0.035 -0.047 0.34 -0.141 0.231 -0.005 -0.77 -1.076 0 0 -0.013 0.035 -0.483 0.4 -1.198 0.71 -1.327 0.566 -2.131 0.678 -3.243 0.815 -0.312 0.091 -0.748 0.275 -0.168 0.085 -0.209 0.127 -0.049 0.054 -0.034 0.046 0.045 0.031 0.189 0.058 0.292 0.32 -0.24 0.243 -0.077 0.044 0.148 -0.122" />
    <path class="write-flat-pen" transform="translate(123.66,-7.159)" fill="#FFFFFF" stroke-width="1.6" __comx="993.26" __comy="34.042" __timestamp="0x1784d530989" d="M863.383 49.462 l-0.269 0.892 0.088 0.057 0.106 0 0.173 0.021 0.143 -0.004 0.18 -0.013 0.209 -0.024 0.93 -0.132 0.34 -0.05 1.645 -0.125 1.719 0.053 5.18 0.814 2.221 0.112 0.091 -1.563 -2.141 -0.141 -5.203 -0.818 -1.912 -0.053 -1.803 0.17 -0.43 0.086 -0.973 0.267 -0.246 0.103 -0.173 0.091 -0.113 0.074 -0.122 0.104 0.034 0.02 0.041 0.058 0.286 0.892" />
    <path class="write-stroke-pen" fill="none" stroke="#FFFFFF" stroke-width="1.6" stroke-linecap="round" stroke-linejoin="round" __comx="364.714" __comy="76.486" __timestamp="0x1784d535b13" d="M97.505 80.084 l534.42 -6.661" />
    <path class="write-stroke-pen" fill="none" stroke="#FFFFFF" stroke-width="1.6" stroke-linecap="round" stroke-linejoin="round" __comx="501.022" __comy="909.793" __timestamp="0x1784d5561b3" d="M-4.896 912.329 l1011.835 -4.54" />
  </g>
</svg>
