<svg class="write-page" width="1010px" height="543.526px" xmlns="http://www.w3.org/2000/svg" xmlns:xlink="http://www.w3.org/1999/xlink">
  <g class="write-content write-v3" width="1010" height="543.526" xruling="30" yruling="30" marginLeft="30" papercolor="#1B1C1C" rulecolor="#3A00F9FF">
    <g class="ruleline write-std-ruling write-scale-down" fill="none" stroke="#00F9FF" stroke-opacity="0.227" stroke-width="1" shape-rendering="crispEdges" vector-effect="non-scaling-stroke">
      <rect class="pagerect" fill="#1B1C1C" stroke="none" x="0" y="0" width="1010" height="543.526" />
      <path class="yrule_1" d="M0 30 l1010 0" />
      <path d="M0 60 l1010 0" />
      <path d="M0 90 l1010 0" />
      <path d="M0 120 l1010 0" />
      <path d="M0 150 l1010 0" />
      <path d="M0 180 l1010 0" />
      <path d="M0 210 l1010 0" />
      <path d="M0 240 l1010 0" />
      <path d="M0 270 l1010 0" />
      <path d="M0 300 l1010 0" />
      <path d="M0 330 l1010 0" />
      <path d="M0 360 l1010 0" />
      <path d="M0 390 l1010 0" />
      <path d="M0 420 l1010 0" />
      <path d="M0 450 l1010 0" />
      <path d="M0 480 l1010 0" />
      <path d="M0 510 l1010 0" />
      <path d="M0 540 l1010 0" />
      <path class="xrule_1" d="M30 0 l0 543.526" />
      <path d="M60 0 l0 543.526" />
      <path d="M90 0 l0 543.526" />
      <path d="M120 0 l0 543.526" />
      <path d="M150 0 l0 543.526" />
      <path d="M180 0 l0 543.526" />
      <path d="M210 0 l0 543.526" />
      <path d="M240 0 l0 543.526" />
      <path d="M270 0 l0 543.526" />
      <path d="M300 0 l0 543.526" />
      <path d="M330 0 l0 543.526" />
      <path d="M360 0 l0 543.526" />
      <path d="M390 0 l0 543.526" />
      <path d="M420 0 l0 543.526" />
      <path d="M450 0 l0 543.526" />
      <path d="M480 0 l0 543.526" />
      <path d="M510 0 l0 543.526" />
      <path d="M540 0 l0 543.526" />
      <path d="M570 0 l0 543.526" />
      <path d="M600 0 l0 543.526" />
      <path d="M630 0 l0 543.526" />
      <path d="M660 0 l0 543.526" />
      <path d="M690 0 l0 543.526" />
      <path d="M720 0 l0 543.526" />
      <path d="M750 0 l0 543.526" />
      <path d="M780 0 l0 543.526" />
      <path d="M810 0 l0 543.526" />
      <path d="M840 0 l0 543.526" />
      <path d="M870 0 l0 543.526" />
      <path d="M900 0 l0 543.526" />
      <path d="M930 0 l0 543.526" />
      <path d="M960 0 l0 543.526" />
      <path d="M990 0 l0 543.526" />
      <path class="leftmargin" stroke="#FF0000" d="M30 0 l0 543.526" />
    </g>
    <path class="write-chisel-pen" transform="translate(-25.279,-5.047)" fill="#8F3AC9" fill-opacity="0.255" stroke-width="34" __comx="184.095" __comy="374.585" __timestamp="0x17828c213fe" d="M268.654 396.629 l0 -34 -8.5 0 -4.232 1.587 0 34 8.5 0 4.232 -1.587 m-4.232 1.587 l0 -34 -8.5 0 -6.155 1.157 0 34 8.5 0 6.155 -1.157 m-6.155 1.157 l0 -34 -8.5 0 -6.29 0.33 0 34 8.5 0 6.29 -0.33 m-14.79 0.33 l8.5 0 0 -34 -21.578 -2.418 -8.5 0 0 34 21.578 2.418 m-21.578 -2.418 l8.5 0 0 -34 -10.269 -0.41 -8.5 0 0 34 10.269 0.41 m-1.769 -0.41 l0 -34 -8.5 0 -7.008 0.455 0 34 8.5 0 7.008 -0.455 m-7.008 0.455 l0 -34 -8.5 0 -10.561 1.738 0 34 8.5 0 10.561 -1.738 m-10.561 1.738 l0 -34 -8.5 0 -16.365 3.969 0 34 8.5 0 16.365 -3.969 m-16.365 3.969 l0 -34 -8.5 0 -5.876 0.928 0 34 8.5 0 5.876 -0.928 m-5.876 0.928 l0 -34 -8.5 0 -7.639 0.338 0 34 8.5 0 7.639 -0.338 m-16.139 0.338 l8.5 0 0 -34 -5.951 -0.394 -8.5 0 0 34 5.951 0.394 m-5.951 -0.394 l8.5 0 0 -34 -8.136 -1.481 -8.5 0 0 34 8.136 1.481 m-8.136 -35.481 l0 34 8.5 0 7.221 -1.625 0 -34 -8.5 0 -7.221 1.625 m7.221 -1.625 l0 34 8.5 0 20.862 -3.306 0 -34 -8.5 0 -20.862 3.306 m20.862 -3.306 l0 34 8.5 0 21.544 -2.441 0 -34 -8.5 0 -21.544 2.441 m21.544 -2.441 l0 34 8.5 0 12.398 -0.836 0 -34 -8.5 0 -12.398 0.836 m12.398 -0.836 l0 34 8.5 0 12.777 -0.109 0 -34 -8.5 0 -12.777 0.109 m21.277 -0.109 l-8.5 0 0 34 21.162 2.293 8.5 0 0 -34 -21.162 -2.293 m21.162 2.293 l-8.5 0 0 34 10.133 0.034 8.5 0 0 -34 -10.133 -0.034 m1.633 34.034 l8.5 0 0 -34 -23.425 -0.36 -8.5 0 0 34 23.425 0.36 m-14.925 -0.36 l0 -34 -8.5 0 -10.524 0.694 0 34 8.5 0 10.524 -0.694 m-10.524 0.694 l0 -34 -8.5 0 -15.985 1.998 0 34 8.5 0 15.985 -1.998 m-15.985 1.998 l0 -34 -8.5 0 -10.26 0.662 0 34 8.5 0 10.26 -0.662 m-18.76 0.662 l8.5 0 0 -34 -9.701 -0.083 -8.5 0 0 34 9.701 0.083 m-9.701 -0.083 l8.5 0 0 -34 -17.793 -2.063 -8.5 0 0 34 17.793 2.063 m-17.793 -2.063 l8.5 0 0 -34 -5.072 -0.123 -8.5 0 0 34 5.072 0.123 m3.428 -34.123 l-8.5 0 0 34 0.422 0.628 8.5 0 0 -34 -0.422 -0.628 m0.422 0.628 l-8.5 0 0 34 3.649 1.088 8.5 0 0 -34 -3.649 -1.088 m3.649 1.088 l-8.5 0 0 34 6.718 0.703 8.5 0 0 -34 -6.718 -0.703 m-1.782 0.703 l0 34 8.5 0 34.591 -1.235 0 -34 -8.5 0 -34.591 1.235 m34.591 -1.235 l0 34 8.5 0 19.083 -0.115 0 -34 -8.5 0 -19.083 0.115" />
    <path class="write-chisel-pen" transform="translate(-25.279,-5.047)" fill="#8F3AC9" fill-opacity="0.255" stroke-width="34" __comx="200.069" __comy="306.867" __timestamp="0x17828c20ee5" d="M294.158 327.859 l0 -34 -8.5 0 -18.896 2.657 0 34 8.5 0 18.896 -2.657 m-18.896 2.657 l0 -34 -8.5 0 -17.448 1.568 0 34 8.5 0 17.448 -1.568 m-17.448 1.568 l0 -34 -8.5 0 -53.154 1.284 0 34 8.5 0 53.154 -1.284 m-53.154 1.284 l0 -34 -8.5 0 -16.069 0.93 0 34 8.5 0 16.069 -0.93 m-16.069 0.93 l0 -34 -8.5 0 -10.794 1.265 0 34 8.5 0 10.794 -1.265 m-10.794 1.265 l0 -34 -8.5 0 -12.236 2.244 0 34 8.5 0 12.236 -2.244 m-20.736 2.244 l8.5 0 0 -34 -0.523 -0.323 -8.5 0 0 34 0.523 0.323 m-0.523 -34.323 l0 34 8.5 0 4.06 -1.679 0 -34 -8.5 0 -4.06 1.679 m4.06 -1.679 l0 34 8.5 0 8.08 -2.094 0 -34 -8.5 0 -8.08 2.094 m8.08 -2.094 l0 34 8.5 0 8.557 -1.398 0 -34 -8.5 0 -8.557 1.398 m8.557 -1.398 l0 34 8.5 0 35.125 -1.245 0 -34 -8.5 0 -35.125 1.245 m35.125 -1.245 l0 34 8.5 0 38.029 -3.683 0 -34 -8.5 0 -38.029 3.683 m38.029 -3.683 l0 34 8.5 0 12.697 -0.741 0 -34 -8.5 0 -12.697 0.741 m12.697 -0.741 l0 34 8.5 0 13.471 -0.032 0 -34 -8.5 0 -13.471 0.032 m21.971 -0.032 l-8.5 0 0 34 5.135 0.491 8.5 0 0 -34 -5.135 -0.491 m5.135 34.491 l0 -34 -8.5 0 -40.445 1.35 0 34 8.5 0 40.445 -1.35 m-40.445 1.35 l0 -34 -8.5 0 -9.811 0.786 0 34 8.5 0 9.811 -0.786 m-9.811 0.786 l0 -34 -8.5 0 -24.185 3.66 0 34 8.5 0 24.185 -3.66 m-24.185 3.66 l0 -34 -8.5 0 -6.699 0.512 0 34 8.5 0 6.699 -0.512 m-15.199 0.512 l8.5 0 0 -34 -4.382 -0.729 -8.5 0 0 34 4.382 0.729" />
    <path class="write-chisel-pen" transform="translate(-25.279,-5.047)" fill="#8F3AC9" fill-opacity="0.255" stroke-width="34" __comx="208.28" __comy="252.903" __timestamp="0x17828c209d9" d="M296.964 278.369 l0 -34 -8.5 0 -2.979 1.011 0 34 8.5 0 2.979 -1.011 m-2.979 1.011 l0 -34 -8.5 0 -3.785 0.456 0 34 8.5 0 3.785 -0.456 m-12.285 0.456 l8.5 0 0 -34 -42.597 -1.8 -8.5 0 0 34 42.597 1.8 m-42.597 -1.8 l8.5 0 0 -34 -12.178 -1.108 -8.5 0 0 34 12.178 1.108 m-12.178 -1.108 l8.5 0 0 -34 -16.315 -2.4 -8.5 0 0 34 16.315 2.4 m-16.315 -2.4 l8.5 0 0 -34 -8.548 -0.604 -8.5 0 0 34 8.548 0.604 m-0.048 -0.604 l0 -34 -8.5 0 -6.47 0.219 0 34 8.5 0 6.47 -0.219 m-6.47 0.219 l0 -34 -8.5 0 -7.965 1.395 0 34 8.5 0 7.965 -1.395 m-7.965 1.395 l0 -34 -8.5 0 -13.64 3.434 0 34 8.5 0 13.64 -3.434 m-13.64 -30.566 l-8.5 0 0 34 4.501 1.046 8.5 0 0 -34 -4.501 -1.046 m4.501 1.046 l-8.5 0 0 34 9.451 0.899 8.5 0 0 -34 -9.451 -0.899 m9.451 0.899 l-8.5 0 0 34 57.729 1.597 8.5 0 0 -34 -57.729 -1.597 m57.729 1.597 l-8.5 0 0 34 32.682 2.384 8.5 0 0 -34 -32.682 -2.384 m32.682 2.384 l-8.5 0 0 34 34.381 1.209 8.5 0 0 -34 -34.381 -1.209 m25.881 35.209 l8.5 0 0 -34 -7.404 -2.146 -8.5 0 0 34 7.404 2.146 m-7.404 -2.146 l8.5 0 0 -34 -9.746 -1.922 -8.5 0 0 34 9.746 1.922 m-9.746 -1.922 l8.5 0 0 -34 -13.905 -1.41 -8.5 0 0 34 13.905 1.41 m-13.905 -1.41 l8.5 0 0 -34 -36.924 -2.223 -8.5 0 0 34 36.924 2.223 m-36.924 -2.223 l8.5 0 0 -34 -25.883 -0.914 -8.5 0 0 34 25.883 0.914 m-17.383 -0.914 l0 -34 -8.5 0 -17.177 0.233 0 34 8.5 0 17.177 -0.233 m-17.177 0.233 l0 -34 -8.5 0 -19.178 1.217 0 34 8.5 0 19.178 -1.217 m-19.178 1.217 l0 -34 -8.5 0 -24.698 2.623 0 34 8.5 0 24.698 -2.623 m-33.198 2.623 l8.5 0 0 -34 -4.433 -0.074 -8.5 0 0 34 4.433 0.074 m-4.433 -0.074 l8.5 0 0 -34 -0.324 -0.406 -8.5 0 0 34 0.324 0.406 m-0.324 -34.406 l0 34 8.5 0 0.755 -0.931 0 -34 -8.5 0 -0.755 0.931 m0.755 -0.931 l0 34 8.5 0 3.789 -1.5 0 -34 -8.5 0 -3.789 1.5 m3.789 -1.5 l0 34 8.5 0 12.286 -2.46 0 -34 -8.5 0 -12.286 2.46 m12.286 -2.46 l0 34 8.5 0 12.584 -1.626 0 -34 -8.5 0 -12.584 1.626 m12.584 -1.626 l0 34 8.5 0 34.056 -0.82 0 -34 -8.5 0 -34.056 0.82 m34.056 -0.82 l0 34 8.5 0 27.751 -2.106 0 -34 -8.5 0 -27.751 2.106 m27.751 -2.106 l0 34 8.5 0 12.869 -0.44 0 -34 -8.5 0 -12.869 0.44 m21.369 -0.44 l-8.5 0 0 34 15.166 1.203 8.5 0 0 -34 -15.166 -1.203 m15.166 1.203 l-8.5 0 0 34 4.569 0.63 8.5 0 0 -34 -4.569 -0.63 m4.569 34.63 l0 -34 -8.5 0 -6.628 0.574 0 34 8.5 0 6.628 -0.574 m-6.628 0.574 l0 -34 -8.5 0 -22.771 0.137 0 34 8.5 0 22.771 -0.137 m-31.271 0.137 l8.5 0 0 -34 -47.108 -1.609 -8.5 0 0 34 47.108 1.609 m-47.108 -1.609 l8.5 0 0 -34 -26.201 -0.305 -8.5 0 0 34 26.201 0.305 m-17.701 -0.305 l0 -34 -8.5 0 -12.724 0.452 0 34 8.5 0 12.724 -0.452 m-12.724 0.452 l0 -34 -8.5 0 -15.568 1.853 0 34 8.5 0 15.568 -1.853 m-24.068 -32.147 l0 34 8.5 0 21.691 -3.928 0 -34 -8.5 0 -21.691 3.928 m21.691 -3.928 l0 34 8.5 0 11.322 -1.407 0 -34 -8.5 0 -11.322 1.407" />
    <path class="write-flat-pen" transform="translate(-25.279,-5.047)" fill="#FFFFFF" stroke-width="1.6" __comx="47.501" __comy="136.724" __timestamp="0x1780b123dcb" d="M64.899 146.912 l0.178 0.317 0.174 -0.211 0.029 -0.115 0.258 -1.663 0.038 -0.286 1.459 -13.381 -0.014 -0.255 0 0 -0.122 -1.325 0 0 -1.066 0.278 2.459 5.704 2.082 3.736 0.911 0.677 1.181 -0.195 0.931 -1.198 2.274 -7.431 0 0 0.376 -0.491 -1.019 -0.221 2.451 10.305 1.84 5.285 1.436 1.902 0.129 -0.064 -0.623 -2.229 -1.696 -5.204 -2.412 -10.26 -1.019 -0.221 -0.513 0.655 0 0 -2.258 7.441 -0.524 0.684 -0.268 0.048 -0.333 -0.242 -1.934 -3.475 -2.448 -5.647 -1.066 0.278 0 0 0.148 1.299 0 0 0.01 0.145 -1.219 13.32 -0.016 0.293 -0.036 1.668 0.004 0.059 0.04 0.231 0.442 0.054" />
    <path class="write-flat-pen" transform="translate(-25.279,-5.047)" fill="#FFFFFF" stroke-width="1.6" __comx="60.694" __comy="136.724" __timestamp="0x1780b12400e" d="M86.354 146.417 l0.082 -1.339 -0.025 -0.192 -0.432 -1.415 -0.943 -1.036 -1.392 -0.559 -1.081 0.21 -0.809 0.955 -0.203 1.602 0.362 1.591 0.942 1.59 1.002 0.703 1.303 -0.103 1.027 -1.011 0.711 -1.948 -0.365 0.109 0.802 1.623 1.424 0.925 1.62 -0.108 0.02 -0.132 -1.31 -0.55 -0.924 -0.827 -1.088 -2.183 -0.979 0.294 -0.812 2.217 -0.589 0.578 -0.548 0.045 -0.512 -0.356 -0.748 -1.255 -0.291 -1.255 0.133 -1.125 0.378 -0.464 0.451 -0.101 0.945 0.339 0.727 0.698 0.485 1.135 0.023 0.076 0.141 1.28" />
    <path class="write-flat-pen" transform="translate(-25.279,-5.047)" fill="#FFFFFF" stroke-width="1.6" __comx="70.77" __comy="136.724" __timestamp="0x1780b1241a1" d="M93.841 146.604 l0.026 -0.904 0.011 -0.115 0.256 -2.08 0.313 -0.487 0 0 -0.685 0.17 0.404 0.258 2.335 5.166 1.444 4.209 0.482 2.771 -0.111 1.179 -0.339 0.518 -0.739 0.391 -0.919 -0.002 -1.604 -0.864 -0.257 -0.236 -0.307 -0.308 -1.465 -1.496 -0.112 0.084 1.033 1.821 0.23 0.405 0.31 0.408 1.862 1.242 1.488 0.061 1.261 -0.653 0.637 -1.004 0.128 -1.596 -0.546 -2.99 -1.502 -4.329 -2.512 -5.487 -0.685 -0.402 -0.685 0.17 0 0 -0.4 0.701 -0.081 2.356 0.015 0.179 0.198 0.913" />
    <path class="write-flat-pen" transform="translate(-25.279,-5.047)" fill="#FFFFFF" stroke-width="1.6" __comx="69.878" __comy="136.724" __timestamp="0x1780b12423f" d="M94.306 136.618 l0.93 -0.825 1.235 -0.621 -0.019 -0.069 -1.502 0.129 -1.108 0.807" />
    <path class="write-flat-pen" transform="translate(-25.279,-5.047)" fill="#FFFFFF" stroke-width="1.6" __comx="79.18" __comy="136.724" __timestamp="0x1780b1243d2" d="M106.535 140.303 l-2.13 -0.512 -1.405 0.146 -1.109 0.81 -0.588 1.2 -0.11 1.665 0.489 1.817 0.93 1.41 1.217 0.733 1.363 -0.049 1.222 -0.854 0.934 -1.798 0.378 -1.865 -0.18 -1.836 -0.715 -1.358 -1.207 0.15 0.019 0.53 0.185 0.379 0.709 1.011 0.073 -0.029 -0.165 -1.192 -0.004 -0.281 0.019 0.387 -0.249 0.114 0.304 0.599 0.152 1.477 -0.306 1.572 -0.736 1.459 -0.769 0.563 -0.786 0.051 -0.805 -0.455 -0.762 -1.096 -0.452 -1.531 0.057 -1.367 0.406 -0.899 0.771 -0.617 1.094 -0.166 2.053 0.342" />
    <path class="write-flat-pen" transform="translate(-25.279,-5.047)" fill="#FFFFFF" stroke-width="1.6" __comx="90.126" __comy="136.724" __timestamp="0x1780b1244e5" d="M110.503 143.578 l0.866 2.255 0.077 0.212 0.518 1.632 0.101 0.109 0.627 -0.295 0.035 -2.217 -0.008 -0.32 0.268 -1.972 0.583 -1.362 0.912 -1.081 1.352 -0.783 1.693 -0.481 0.276 -0.061 0.263 -0.061 2.241 -0.503 -0.009 -0.125 -2.291 -0.163 -0.282 -0.02 -0.353 0.005 -1.948 0.361 -1.683 0.947 -1.138 1.383 -0.668 1.673 -0.216 2.21 0.026 0.395 0.196 2.203 0.627 -0.295 0.009 0.027 -0.673 -1.39 -0.1 -0.211 -1.066 -2.172" />
    <path class="write-flat-pen" transform="translate(-25.279,-5.047)" fill="#FFFFFF" stroke-width="1.6" __comx="113.984" __comy="136.647" __timestamp="0x1780b124dfe" d="M141.043 139.762 l0.346 -0.564 0.063 -0.166 -0.129 -1.261 -0.356 -0.264 -1.216 -0.065 -1.306 0.651 -1.128 1.22 -0.767 1.649 -0.399 2.395 0.237 1.864 0.658 1.326 0.962 0.711 1.262 -0.064 0.916 -0.745 0.763 -1.519 0 0 0.262 -1.757 0 0 -0.365 -0.531 0 0 -0.963 0.445 2.183 8.012 0.532 3.736 0.046 3.878 -0.367 2.002 -0.874 1.838 -1.084 1.062 -1.34 0.66 -1.114 0.122 -0.821 -0.279 -0.717 -0.83 -0.245 -0.897 0.184 -1.439 1.015 -1.951 2.031 -2.039 0.375 -0.269 0.81 -0.528 0.409 -0.273 1.899 -1.255 -0.065 -0.127 -2.127 0.812 -0.473 0.179 -0.904 0.436 -0.497 0.282 -2.379 2.067 -1.297 2.27 -0.277 1.922 0.396 1.43 1.153 1.293 1.411 0.437 1.582 -0.203 1.684 -0.855 1.346 -1.356 0.993 -2.169 0.392 -2.253 -0.07 -4.052 -0.565 -3.866 -2.186 -8.078 -0.963 0.445 0 0 0.124 0.184 0 0 -0.171 1.17 0 0 -0.579 1.163 -0.466 0.382 -0.534 0.031 -0.452 -0.332 -0.467 -0.936 -0.197 -1.534 0.342 -2.105 0.628 -1.382 0.878 -0.987 0.91 -0.494 0.704 -0.028 -0.135 -0.107 0.252 0.726 0.014 -0.005 -0.14 0.616" />
    <path class="write-flat-pen" transform="translate(-25.279,-5.047)" fill="#FFFFFF" stroke-width="1.6" __comx="126.323" __comy="136.647" __timestamp="0x1780b124ff9" d="M154.351 142.915 l-0.406 -1.329 -0.062 -0.123 -0.657 -0.775 -1.085 -0.262 -1.556 0.57 -1.316 1.351 -0.771 1.887 -0.108 1.886 0.508 1.718 0.9 1.154 1.333 0.604 1.374 -0.241 1.135 -0.95 0.866 -1.865 0.304 -2.029 -0.299 -1.825 -0.756 -1.298 -1.11 -0.639 -1.129 0.493 -0.451 1.671 0.024 0.386 0.212 1.036 0.096 0.233 0.771 1.812 0.08 -0.023 -0.301 -1.946 -0.027 -0.199 -0.014 -0.959 0.025 -0.195 0.459 -0.982 0.153 -0.017 0.326 0.209 0.485 0.835 0.242 1.421 -0.236 1.679 -0.667 1.488 -0.692 0.604 -0.733 0.146 -0.779 -0.338 -0.615 -0.772 -0.41 -1.339 0.074 -1.527 0.613 -1.547 1.001 -1.069 1.069 -0.447 0.561 0.078 0.483 0.432 0.002 -0.008 0.6 1.2" />
    <path class="write-flat-pen" transform="translate(-25.279,-5.047)" fill="#FFFFFF" stroke-width="1.6" __comx="137.064" __comy="136.647" __timestamp="0x1780b1251d7" d="M161.65 143.209 l-0.069 -1.33 -0.164 -0.249 -0.972 -0.51 -1.085 0.261 -1.057 0.976 -0.584 1.444 0.023 1.596 0.581 1.186 0.926 0.573 1.079 -0.212 1.049 -1.141 1.016 -2.344 0.399 -0.273 -0.804 -0.225 2.127 4.588 1.645 1.317 1.206 -0.501 -0.022 -0.174 -0.899 -0.24 -1.031 -1.069 -2.031 -4.382 -0.804 -0.225 -0.675 0.445 -1.074 2.47 -0.677 0.739 -0.302 0.065 -0.3 -0.175 -0.352 -0.685 -0.038 -1.149 0.392 -1.061 0.682 -0.707 0.538 -0.19 0.569 0.179 -0.031 -0.063 0.263 1.13" />
    <path class="write-flat-pen" transform="translate(-25.279,-5.047)" fill="#FFFFFF" stroke-width="1.6" __comx="143.846" __comy="136.647" __timestamp="0x1780b1252b4" d="M167.227 132.889 l1.807 4.569 0.122 0.467 1.122 5.145 0.588 2.275 0.157 -0.021 -0.031 -2.373 -0.97 -5.228 -0.15 -0.552 -2.045 -4.536" />
    <path class="write-flat-pen" transform="translate(-25.279,-5.047)" fill="#FFFFFF" stroke-width="1.6" __comx="157.515" __comy="136.647" __timestamp="0x1780b12554c" d="M183.325 144.388 l-0.485 0.049 -0.484 -0.534 -0.105 0.042 0.179 1.109 0.906 0.026" />
    <path class="write-flat-pen" transform="translate(-25.279,-5.047)" fill="#FFFFFF" stroke-width="1.6" __comx="155.849" __comy="136.647" __timestamp="0x1780b1255e9" d="M181.852 129.155 l-0.419 -0.849 -0.893 -0.981 -0.137 0.073 0.312 1.283 0.442 0.83" />
    <path class="write-flat-pen" transform="translate(-25.279,-5.047)" fill="#FFFFFF" stroke-width="1.6" __comx="190.067" __comy="136.647" __timestamp="0x1780b125b61" d="M217.385 135.757 l0.202 -2.087 -0.135 -0.333 -0.834 -0.78 -1.562 -0.007 -1.958 0.883 -1.823 1.613 -1.111 1.602 -0.908 2.497 -0.239 2.517 0.317 1.803 0.967 1.998 1.315 1.309 1.394 0.646 1.714 0.168 2.282 -0.542 2.765 -1.82 0.257 -0.257 0.194 -0.237 1.451 -1.774 -0.101 -0.108 -1.875 1.318 -0.238 0.165 -0.225 0.157 -2.662 1.501 -1.925 0.447 -1.335 -0.13 -1.04 -0.479 -1.04 -1.031 -0.821 -1.682 -0.271 -1.5 0.201 -2.228 0.803 -2.234 0.948 -1.386 1.592 -1.441 1.602 -0.768 0.986 -0.052 0.471 0.35 -0.003 -0.03 0.03 1.903" />
    <path class="write-flat-pen" transform="translate(-25.279,-5.047)" fill="#FFFFFF" stroke-width="1.6" __comx="199.641" __comy="136.647" __timestamp="0x1780b125d28" d="M226.757 139.64 l0.077 -1.507 -0.499 -0.934 -1.141 -0.671 -1.577 -0.075 -1.246 0.629 -0.933 1.303 -0.451 1.785 0.096 1.834 0.678 2.076 1.056 1.494 1.423 0.829 1.458 -0.088 1.118 -0.72 1.071 -1.519 0.802 -2.476 0.165 -2.282 -0.489 -2.027 -0.004 -0.015 -0.704 -0.66 -0.768 0.116 -0.029 0.14 0.043 0.18 0.297 0.721 0.125 0.004 0.339 -0.702 0.048 -0.015 0.017 0.031 -0.768 0.116 0.36 0.596 -0.004 -0.015 0.378 1.626 -0.138 1.969 -0.699 2.184 -0.839 1.206 -0.684 0.451 -0.832 0.06 -0.932 -0.534 -0.827 -1.163 -0.585 -1.783 -0.085 -1.529 0.352 -1.436 0.655 -0.942 0.772 -0.416 1.086 -0.002 0.771 0.367 0.341 0.499 0.068 1.294" />
    <path class="write-flat-pen" transform="translate(-25.279,-5.047)" fill="#FFFFFF" stroke-width="1.6" __comx="214.91" __comy="136.647" __timestamp="0x1780b125fd2" d="M230.641 140.407 l0.357 1.365 0.084 0.239 1.029 3.487 0 0 0.057 0.238 0 0 0.324 1.708 0 0 1.087 -0.199 -0.299 -2.551 0.176 -2.294 0.757 -2.647 0.818 -1.481 0.823 -0.715 0.5 -0.13 0.552 0.178 0.607 0.652 0.702 1.91 0 0 0.638 4.799 0 0 1.259 0.17 1.83 -4.169 1.739 -2.965 0.982 -1.046 0.743 -0.373 0.744 0.072 0.764 0.578 0.849 1.465 0.624 2.911 0.237 4.241 0.071 1.585 0.173 0.045 0.867 -1.507 -0.035 -4.524 -0.7 -3.23 -1.09 -1.87 -1.267 -0.957 -1.484 -0.15 -1.293 0.639 -1.256 1.317 -1.869 3.159 -1.84 4.254 1.259 0.17 0 0 -0.749 -4.915 0 0 -0.839 -2.259 -0.992 -1.06 -1.188 -0.38 -1.116 0.288 -1.208 1.038 -0.99 1.794 -0.825 2.902 -0.183 2.545 0.414 2.664 1.087 -0.199 0 0 -0.457 -1.695 0 0 -0.081 -0.278 0 0 -1.26 -3.466 -0.109 -0.235 -0.554 -1.276" />
    <path class="write-flat-pen" transform="translate(-25.279,-5.047)" fill="#FFFFFF" stroke-width="1.6" __comx="230.38" __comy="136.647" __timestamp="0x1780b1261f7" d="M254.576 155.92 l-0.084 0.316 -0.156 0.43 0 0 0.61 -0.168 -0.373 -0.439 -0.731 -3.011 -0.473 -4.506 -0.054 -5.175 0.363 -2.684 0.65 -1.915 0.908 -1.41 0.767 -0.601 0.638 -0.112 0.583 0.281 0.448 0.72 0.241 1.369 -0.202 1.455 -0.689 1.578 -0.907 1.02 -1.49 0.693 0.704 0.388 -0.015 0.07 -0.064 -0.062 0.016 -0.907 -0.115 -0.051 -0.674 0.661 -0.181 0.292 0.008 0.19 0.704 0.388 1.838 -0.62 1.226 -1.395 0.826 -1.914 0.247 -1.811 -0.317 -1.789 -0.761 -1.217 -1.252 -0.598 -1.317 0.232 -1.167 0.914 -1.09 1.714 -0.712 2.172 -0.351 2.884 0.128 5.308 0.583 4.616 0.935 3.269 0.613 0.524 0.61 -0.168 0 0 0.08 -0.451 0.084 -0.316" />
    <path class="write-flat-pen" transform="translate(-25.279,-5.047)" fill="#FFFFFF" stroke-width="1.6" __comx="240.933" __comy="136.647" __timestamp="0x1780b1263a1" d="M261.404 136.561 l-0.198 0.765 -0.025 0.164 -0.152 1.832 0 0.384 0.485 3.625 0.723 1.869 0.774 0.694 1.224 0.11 1.191 -0.79 1.074 -1.684 1.441 -4.213 -0.541 0.066 1.221 4.374 1.156 1.893 1.512 0.664 0.106 -0.135 -0.838 -1.19 -0.812 -1.692 -1.484 -5.231 -1.219 0.159 -1.66 4.766 -0.857 1.346 -0.617 0.424 -0.41 -0.021 -0.28 -0.233 -0.611 -1.474 -0.601 -3.416 -0.021 -0.297 -0.062 -1.798 -0.007 -0.136 -0.034 -0.773" />
    <path class="write-flat-pen" transform="translate(-25.279,-5.047)" fill="#FFFFFF" stroke-width="1.6" __comx="250.417" __comy="136.647" __timestamp="0x1780b12648b" d="M274.342 132.662 l0.639 2.668 0.113 0.544 0.875 5.583 0.339 4.434 -0.082 1.73 0.067 0.016 0.757 -1.677 -0.155 -4.603 -0.933 -5.648 -0.137 -0.591 -0.86 -2.632" />
    <path class="write-flat-pen" transform="translate(-25.279,-5.047)" fill="#FFFFFF" stroke-width="1.6" __comx="249.58" __comy="136.647" __timestamp="0x1780b126562" d="M271.547 139.238 l0.971 -0.273 3.297 0.243 0.389 -0.004 2.226 -0.015 0.015 -0.13 -2.167 -0.509 -0.381 -0.091 -3.498 -0.466 -1.127 0.488" />
    <path class="write-flat-pen" transform="translate(-25.279,-5.047)" fill="#FFFFFF" stroke-width="1.6" __comx="262.79" __comy="136.647" __timestamp="0x1780b1266f1" d="M285.24 141.301 l1.92 0.305 0.255 -0.017 1.423 -0.455 0.945 -1.074 0.305 -1.326 -0.478 -1.286 -1.231 -0.842 -1.434 -0.258 -1.776 0.396 -1.264 0.983 -0.933 1.551 -0.581 2.172 0.102 2.257 0.765 1.867 1.326 1.408 1.368 0.656 1.582 0.146 2.364 -0.681 2.052 -1.575 0.424 -0.531 1.378 -1.732 -0.147 -0.15 -1.76 1.341 -0.486 0.36 -1.956 1.238 -1.976 0.529 -1.156 -0.102 -0.986 -0.463 -1.044 -1.084 -0.636 -1.482 -0.126 -1.895 0.46 -1.88 0.737 -1.278 0.93 -0.743 1.365 -0.313 1.038 0.181 0.813 0.548 0.284 0.735 -0.163 0.84 -0.601 0.768 -1.085 0.444 -0.091 0.016 -1.872 -0.072" />
    <path class="write-flat-pen" transform="translate(-25.279,-5.047)" fill="#FFFFFF" stroke-width="1.6" __comx="295.334" __comy="136.647" __timestamp="0x1780b126b6e" d="M319.747 137.2 l0.271 -0.807 -0.32 0.248 0.498 0.552 0.046 0.135 0.467 2.175 0.145 3.363 -0.353 2.547 0.166 -0.044 -0.235 0.614 0.092 0.139 0.657 0.026 0.273 -0.115 0.601 -3.098 -0.203 -3.595 -0.597 -2.349 -0.203 -0.441 -1.321 -0.96 -0.44 0.336 -0.12 1.157" />
    <path class="write-flat-pen" transform="translate(-25.279,-5.047)" fill="#FFFFFF" stroke-width="1.6" __comx="302.671" __comy="136.647" __timestamp="0x1780b126c4f" d="M326.384 135.141 l1.001 3.867 0.113 0.603 0.94 5.538 0.008 2.984 0.677 -0.384 -0.158 -0.014 -0.814 -0.106 -0.081 0.144 0.514 0.641 0.094 0.128 0.677 -0.384 0.163 -3.09 -1.085 -5.634 -0.14 -0.647 -1.231 -3.84" />
    <path class="write-flat-pen" transform="translate(-25.279,-5.047)" fill="#FFFFFF" stroke-width="1.6" __comx="297.364" __comy="136.647" __timestamp="0x1780b126d69" d="M314.748 138.053 l-0.17 -0.854 0.457 -0.66 1.233 -0.689 2.687 -0.624 8.122 -0.562 0.82 -0.049 0.828 -0.056 0.804 -0.083 2.19 -0.22 -0.001 -0.141 -2.192 -0.198 -0.806 -0.075 -0.831 -0.044 -0.843 -0.033 -8.252 0.363 -2.931 0.713 -1.563 0.943 -0.735 1.256 0.348 1.221" />
    <path class="write-flat-pen" transform="translate(-25.279,-5.047)" fill="#FFFFFF" stroke-width="1.6" __comx="309.167" __comy="138.087" __timestamp="0x1780b127f8d" d="M331.311 144.397 l0.621 0.487 0.075 0.115 3.2 4.647 0.225 0.31 1.458 1.434 0.692 -0.451 -0.068 -0.061 -0.101 -0.077 -0.593 -0.393 -0.07 0.043 0.092 0.706 -0.004 0.078 -0.023 0.041 0.692 -0.451 -1.262 -1.537 -0.193 -0.256 -3.39 -4.52 -0.195 -0.234 -0.861 -0.382" />
    <path class="write-flat-pen" transform="translate(-25.279,-5.047)" fill="#FFFFFF" stroke-width="1.6" __comx="308.238" __comy="138.087" __timestamp="0x1780b12806e" d="M330.608 151.91 l1.219 -0.306 1.549 -1.695 2.428 -4.644 0.822 -2.167 -0.087 -0.046 -1.331 1.89 -2.576 4.444 -1.264 1.513 -0.959 0.381" />
    <path class="write-flat-pen" transform="translate(-25.279,-5.047)" fill="#FFFFFF" stroke-width="1.6" __comx="310.197" __comy="138.087" __timestamp="0x1780b12810f" d="M334.878 147.03 l0.358 1.978 0.723 1.653 0.114 -0.029 -0.154 -1.78 -0.443 -1.943" />
    <path class="write-flat-pen" transform="translate(-25.279,-5.047)" fill="#FFFFFF" stroke-width="1.6" __comx="310.724" __comy="138.087" __timestamp="0x1780b1281cf" d="M331.743 147.567 l1.486 -0.067 0.199 0.008 4.553 0.416 2.333 -0.024 0.015 -0.138 -2.275 -0.521 -4.587 -0.526 -0.287 0.011 -1.503 0.303" />
    <path class="write-flat-pen" transform="translate(-25.279,-5.047)" fill="#FFFFFF" stroke-width="1.6" __comx="326.943" __comy="138.087" __timestamp="0x1780b1283c8" d="M345.766 129.807 l-0.722 0.09 0.271 0.862 0.173 0.354 3.133 4.941 0.495 0.675 3.975 5.131 2.288 2.334 3.29 2.153 0.067 0.003 0.594 -0.137 0.07 -0.137 -0.24 -0.561 0.018 -0.022 -3.019 -2.227 -2.172 -2.196 -3.983 -5.024 -0.483 -0.629 -3.279 -4.757 -0.168 -0.28 -0.464 -0.744 -0.322 0.568" />
    <path class="write-flat-pen" transform="translate(-25.279,-5.047)" fill="#FFFFFF" stroke-width="1.6" __comx="327.607" __comy="138.087" __timestamp="0x1780b1284c7" d="M348.376 148.758 l0.681 -1.356 0.21 -0.365 7.979 -15.703 0.098 -0.314 0.673 -2.161 -0.084 -0.038 -1.165 1.941 -0.161 0.264 -8.147 15.591 -0.197 0.41 -0.508 1.47" />
    <path class="write-flat-pen" transform="translate(-25.279,-5.047)" fill="#FFFFFF" stroke-width="1.6" __comx="371.711" __comy="135.928" __timestamp="0x1780b12907b" d="M394.871 151.436 l0.079 -2.003 -0.009 -0.406 -1.073 -6.357 -0.189 -0.705 -1.942 -6.057 -0.568 -2.96 0.017 -2.942 0.449 -2.024 0.759 -1.515 0.975 -0.961 1.229 -0.512 1.436 -0.055 1.657 0.448 2.067 1.106 2.47 2.375 0.135 0.181 0.157 0.212 1.35 1.867 0.159 -0.083 -0.764 -2.174 -0.094 -0.268 -0.161 -0.329 -2.521 -2.744 -2.334 -1.293 -1.975 -0.545 -1.849 0.062 -1.666 0.686 -1.298 1.28 -0.914 1.844 -0.498 2.308 0.015 3.194 0.643 3.137 2.026 6.076 0.18 0.634 1.28 6.216 0.033 0.331 0.126 1.982" />
    <path class="write-flat-pen" transform="translate(-25.279,-5.047)" fill="#FFFFFF" stroke-width="1.6" __comx="368.342" __comy="135.928" __timestamp="0x1780b129190" d="M386.454 142.499 l5.615 -1.037 5.972 -1.936 0.375 -0.134 0.36 -0.134 2.182 -0.805 -0.024 -0.101 -2.309 0.275 -0.39 0.046 -0.416 0.076 -5.991 1.749 -5.541 1.138" />
    <path class="write-flat-pen" transform="translate(-25.279,-5.047)" fill="#FFFFFF" stroke-width="1.6" __comx="381.104" __comy="135.928" __timestamp="0x1780b12937f" d="M407.673 140.99 l-1.262 -1.109 -1.083 -0.283 -1.099 0.517 -0.814 1.342 -0.305 1.621 0.181 2.167 0.793 2.396 0.77 0.959 1.176 0.414 1.372 -0.621 1.154 -1.567 0.831 -2.203 0.268 -2.294 -0.364 -1.8 -1.045 0.126 -0.127 0.392 -0.006 0.15 -0.021 1.131 0.099 0.029 0.6 -0.959 0.067 -0.094 -0.04 0.174 -0.385 0.109 0.117 0.778 -0.234 1.997 -0.722 1.946 -0.888 1.241 -0.738 0.362 -0.526 -0.163 -0.495 -0.588 -0.741 -2.112 -0.2 -1.933 0.227 -1.356 0.577 -1.019 0.612 -0.328 0.668 0.123 1.219 0.901" />
    <path class="write-flat-pen" transform="translate(-25.279,-5.047)" fill="#FFFFFF" stroke-width="1.6" __comx="395.421" __comy="135.928" __timestamp="0x1780b1294a0" d="M416.187 149.718 l0.357 -0.324 -0.002 -0.279 -0.029 -1.254 -0.015 -0.357 -0.039 -2.335 0.374 -2.067 0.684 -1.384 0.94 -0.876 1.378 -0.601 2.719 -0.337 0.362 0.001 0.827 -0.009 2.297 -0.051 0.014 -0.125 -2.234 -0.54 -0.814 -0.181 -0.446 -0.073 -3.017 0.128 -1.771 0.74 -1.257 1.191 -0.828 1.759 -0.341 2.365 0.199 2.465 0.055 0.381 0.243 1.228 0.018 -0.035 -0.106 0.146" />
    <path class="write-flat-pen" transform="translate(-25.279,-5.047)" fill="#FFFFFF" stroke-width="1.6" __comx="426.116" __comy="135.928" __timestamp="0x1780b1296de" d="M443.538 128.202 l1.3 3.669 0.285 0.608 1.953 3.455 4.297 5.993 3.429 3.838 2.448 2.088 1.448 0.219 0.218 -0.34 0.337 -0.888 -0.121 -0.101 -0.812 0.491 0.046 -0.135 -0.621 -0.237 -2.18 -1.877 -3.351 -3.736 -4.29 -5.868 -2.014 -3.326 -0.277 -0.533 -1.491 -3.554" />
    <path class="write-flat-pen" transform="translate(-25.279,-5.047)" fill="#FFFFFF" stroke-width="1.6" __comx="426.7" __comy="135.928" __timestamp="0x1780b1297d5" d="M445.448 149.036 l0.493 -3.313 0.2 -0.527 1.926 -3.733 9.469 -15.729 0.204 -0.391 0.56 -1.076 1.027 -2.065 -0.097 -0.066 -1.558 1.718 -0.746 0.998 -0.239 0.379 -9.665 15.655 -1.862 3.893 -0.239 0.706 -0.29 3.456" />
    <path class="write-flat-pen" transform="translate(-25.279,-5.047)" fill="#FFFFFF" stroke-width="1.6" __comx="445.38" __comy="135.928" __timestamp="0x1780b129a2d" d="M472.272 140.076 l-0.149 -1.167 -0.13 -0.191 -0.805 -0.396 -1.39 0.513 -1.533 1.432 -0.872 1.609 -0.035 1.467 0.615 1.314 1.233 0.935 1.416 0.278 1.662 -0.551 0.259 -0.21 0.178 -0.209 1.238 -1.484 -0.078 -0.092 -1.664 0.983 -0.2 0.112 -0.125 0.052 -1.306 0.267 -0.901 -0.201 -0.812 -0.612 -0.398 -0.823 0.009 -0.944 0.642 -1.241 1.233 -1.222 0.833 -0.402 0.311 0.051 -0.079 -0.12 0.333 0.968" />
    <path class="write-flat-pen" transform="translate(-25.279,-5.047)" fill="#FFFFFF" stroke-width="1.6" __comx="443.917" __comy="135.928" __timestamp="0x1780b129b08" d="M467.861 141.964 l-0.13 -0.635 0 0 -0.463 0.495 1.932 0.281 0.309 0.009 1.925 0.055 0.006 -0.033 -1.839 -0.571 -0.289 -0.09 -1.895 -0.44 -0.463 0.495 0 0 0.193 0.619" />
    <path class="write-flat-pen" transform="translate(-25.279,-5.047)" fill="#FFFFFF" stroke-width="1.6" __comx="462.316" __comy="135.928" __timestamp="0x1780b129ffa" d="M493.159 130.773 l0.506 -1.73 -0.01 -0.166 -0.319 -1.145 -1.099 -1.108 -1.851 -0.641 -1.918 -0.022 -2.185 0.589 -1.632 0.962 -0.334 1.211 0.737 1.39 3.917 3.876 1.913 2.454 1.101 2.09 0.695 2.446 0.127 1.987 -0.33 1.225 -0.775 1.006 -0.975 0.554 -1.98 0.462 -2.115 -0.021 -2.047 -0.449 -1.259 -0.683 -0.563 -0.752 -0.124 -0.597 0.202 -0.614 1.59 -1.105 0.247 -0.089 1.414 -0.24 0.535 -0.025 0.572 -0.032 2.167 -0.114 0.008 -0.122 -2.133 -0.399 -0.57 -0.108 -0.598 -0.077 -1.581 0.029 -0.516 0.106 -2.243 1.265 -0.558 1.405 0.253 1.318 0.961 1.255 1.718 0.897 2.381 0.493 2.418 -0.008 2.312 -0.583 1.341 -0.807 1.042 -1.423 0.414 -1.652 -0.164 -2.302 -0.762 -2.684 -1.204 -2.294 -2.019 -2.602 -3.834 -3.809 -0.428 -0.807 0.076 -0.285 1.074 -0.642 1.873 -0.526 1.584 -0.019 1.49 0.432 0.843 0.7 0.325 0.797 -0.001 -0.05 -0.254 1.662" />
    <path class="write-flat-pen" transform="translate(-25.279,-5.047)" fill="#FFFFFF" stroke-width="1.6" __comx="478.288" __comy="135.928" __timestamp="0x1780b12a339" d="M496.737 158.353 l-0.548 -0.139 0.061 0.09 -0.25 -2.037 -0.013 -0.357 0.056 -6.605 0.369 -2.952 0.703 -2.068 0.679 -0.92 0.911 -0.553 1.048 -0.067 1.12 0.389 0.748 0.669 0.239 0.644 -0.154 0.585 -0.772 0.686 0 0 -1.849 0.823 0 0 0.261 1.136 2.018 -0.039 2.374 -0.611 2.606 -1.267 1.881 -1.518 1.717 -2.074 0.481 -1.334 0 0 -0.446 -0.561 0 0 -0.939 -0.002 -0.869 1.087 -0.814 2.22 -0.233 2.103 0.496 1.408 1.069 0.731 1.35 -0.269 1.108 -1.187 0.184 -0.342 0.119 -0.305 0.691 -1.82 -0.037 -0.022 -1.275 1.471 -0.195 0.219 -0.19 0.181 -0.942 0.722 -0.528 0.055 -0.319 -0.227 -0.274 -0.763 0.169 -1.678 0.683 -1.9 0.743 -0.935 -0.939 -0.002 0 0 0.028 0.038 0 0 -0.184 0.507 -1.503 1.822 -1.681 1.356 -2.373 1.157 -2.122 0.544 -1.879 0.046 0.261 1.136 0 0 1.992 -0.935 0 0 1.146 -1.046 0.315 -1.261 -0.464 -1.229 -1.121 -0.998 -1.541 -0.537 -1.548 0.095 -1.336 0.812 -0.906 1.245 -0.766 2.347 -0.353 3.129 0.108 6.696 0.039 0.43 0.488 2.143 0.17 0.301 0.914 -0.061" />
    <path class="write-flat-pen" transform="translate(-25.279,-5.047)" fill="#FFFFFF" stroke-width="1.6" __comx="491.902" __comy="135.928" __timestamp="0x1780b12a498" d="M517.475 141.186 l-0.552 -1.016 -0.165 -0.183 -0.984 -0.58 -1.148 0.313 -0.778 1.158 -0.293 1.653 0.301 1.723 0.733 1.293 1.194 0.892 1.396 0.185 1.461 -0.668 1.727 -2.928 0.122 -0.497 0.131 -1.005 0.189 -2.192 -0.124 -0.025 -0.683 2.084 -0.313 0.925 -0.132 0.338 -1.673 2.422 -0.873 0.368 -0.781 -0.104 -0.769 -0.566 -0.526 -0.912 -0.245 -1.337 0.2 -1.24 0.411 -0.664 0.368 -0.142 0.548 0.234 0.027 0.012 0.686 0.827" />
    <path class="write-flat-pen" transform="translate(-25.279,-5.047)" fill="#FFFFFF" stroke-width="1.6" __comx="499.195" __comy="135.928" __timestamp="0x1780b12a56d" d="M523.518 130.074 l0.631 3.805 0.4 7.677 -0.167 2.143 -0.474 1.418 0.081 0.048 1.079 -1.235 0.361 -2.346 -0.47 -7.803 -0.813 -3.824" />
    <path class="write-flat-pen" transform="translate(-25.279,-5.047)" fill="#FFFFFF" stroke-width="1.6" __comx="503.818" __comy="135.928" __timestamp="0x1780b12a74d" d="M522.203 138.159 l1.322 -0.293 0.148 0 4.655 -0.087 0.009 -0.005 1.686 0.424 0.115 0.116 0.744 1.448 0.512 3.002 -0.016 0.038 0.504 -0.171 -0.129 -0.307 0.019 0.049 0.023 -1.365 0.413 -1.037 1.738 -1.76 0.138 -0.087 0.217 -0.121 1.874 -1.029 -0.028 -0.072 -2.077 0.504 -0.258 0.063 -0.29 0.104 -2.12 1.856 -0.529 1.419 0.087 1.641 0.068 0.232 0.425 0.302 0.504 -0.171 -0.003 -0.119 -0.744 -3.082 -0.76 -1.548 -0.207 -0.242 -1.827 -0.708 -0.105 0.002 -4.644 -0.141 -0.28 0.009 -1.367 0.551" />
    <path class="write-flat-pen" transform="translate(-25.279,-5.047)" fill="#FFFFFF" stroke-width="1.6" __comx="513.218" __comy="135.928" __timestamp="0x1780b12a8d8" d="M539.857 139.316 l-1.18 -0.776 -0.288 -0.049 -1.092 0.186 -0.943 0.774 -0.711 1.424 -0.154 1.589 0.657 1.142 1.992 -0.633 0.574 0.073 0.659 0.558 1.039 2.305 1.013 1.475 0.083 -0.031 -0.211 -1.796 -1.031 -2.611 -1.108 -0.926 -1.127 -0.131 -1.429 0.501 -0.114 -0.154 0.078 -1.108 0.514 -1.119 0.602 -0.543 0.73 -0.177 0.018 -0.004 1.17 0.507" />
    <path class="write-flat-pen" transform="translate(-25.279,-5.047)" fill="#FFFFFF" stroke-width="1.6" __comx="51.613" __comy="195.612" __timestamp="0x1780b12b6db" d="M66.58 209.602 l0.249 -0.798 0.016 -0.031 0.407 -1.379 0.072 -0.33 1.134 -9.121 0.084 -0.731 1.108 -7.985 0 0 0.549 -1.741 0 0 -1.044 0.018 2.913 8.318 1.447 3.06 0.956 0.714 1.1 -0.196 0.979 -1.275 2.974 -8.911 1.585 -3.724 -0.039 0.027 0.029 0.029 2.343 11.431 2.863 10.807 1.085 1.646 0.164 -0.064 -0.288 -1.892 -2.69 -10.76 -2.403 -11.714 -0.954 -1.055 -1.062 0.798 -1.726 4.055 -2.91 8.781 -0.586 0.782 -0.187 0.04 -0.347 -0.25 -1.311 -2.751 -2.895 -8.262 -1.044 0.018 0 0 -0.569 1.831 0 0 -1.097 8.091 -0.082 0.745 -0.901 9.123 -0.035 0.294 -0.188 1.374 -0.01 0.046 -0.036 0.881" />
    <path class="write-flat-pen" transform="translate(-25.279,-5.047)" fill="#FFFFFF" stroke-width="1.6" __comx="70.499" __comy="195.612" __timestamp="0x1780b12b837" d="M94.462 202.806 l0.654 1.626 0.133 0.318 0 0 0.962 2.873 -0.007 0.939 0 0 0.708 -0.287 -0.455 -0.318 -0.229 -0.245 -0.93 -1.049 -0.088 0.057 0.566 1.283 0.169 0.374 0.386 0.498 0.708 -0.287 0 0 0.055 -1.104 -1.14 -3.021 0 0 -0.172 -0.342 -0.849 -1.538" />
    <path class="write-flat-pen" transform="translate(-25.279,-5.047)" fill="#FFFFFF" stroke-width="1.6" __comx="69.759" __comy="195.612" __timestamp="0x1780b12b8cf" d="M94.548 193.444 l0.246 -0.605 -0.496 0.099 0.754 0.84 0.821 1.295 0.103 -0.048 -0.499 -1.518 -0.737 -0.939 -0.496 0.099 -0.145 0.637" />
    <path class="write-flat-pen" transform="translate(-25.279,-5.047)" fill="#FFFFFF" stroke-width="1.6" __comx="81.46" __comy="195.612" __timestamp="0x1780b12ba71" d="M101.394 204.48 l0.912 2.038 0.064 0.185 0.513 1.843 0 0 0.086 0.1 0 0 0.787 -0.36 -0.095 -3.056 0.383 -2.367 0.601 -1.385 0.753 -0.696 0.688 -0.179 0.969 0.265 0.958 0.736 1.073 1.503 1.718 4.448 1.197 1.066 0.084 -0.055 -0.446 -1.428 -1.525 -4.569 -1.262 -1.774 -1.272 -0.983 -1.487 -0.409 -1.272 0.33 -1.143 1.068 -0.735 1.751 -0.378 2.628 0.263 3.161 0.787 -0.36 0 0 0.055 0.069 0 0 -0.649 -1.584 -0.098 -0.225 -1.121 -1.968" />
    <path class="write-flat-pen" transform="translate(-25.279,-5.047)" fill="#FFFFFF" stroke-width="1.6" __comx="92.855" __comy="195.612" __timestamp="0x1780b12bc12" d="M118.286 202.232 l0.057 -1.518 -0.005 -0.098 -0.235 -0.913 -0.941 -0.6 -1.126 0.475 -0.725 1.379 -0.189 1.824 0.338 1.843 0.851 1.677 1.04 0.804 1.276 0.07 1.175 -0.789 0.802 -1.372 0.534 -2.141 0.007 -2.289 -0.526 -2.207 -0.911 -0.72 -0.77 0.274 0.012 0.143 0.069 0.329 0.316 1.179 0.094 -0.001 0.296 -1.174 0.081 -0.27 0.042 -0.089 -0.77 0.274 0.524 0.639 0.406 1.754 0.003 2.021 -0.445 1.861 -0.582 1.03 -0.662 0.467 -0.596 -0.016 -0.607 -0.452 -0.69 -1.333 -0.296 -1.556 0.142 -1.498 0.46 -0.929 0.375 -0.199 0.314 0.135 0.215 0.51 0.004 0.002 0.171 1.491" />
    <path class="write-flat-pen" transform="translate(-25.279,-5.047)" fill="#FFFFFF" stroke-width="1.6" __comx="107.245" __comy="195.612" __timestamp="0x1780b12bd73" d="M127.34 203.6 l0.366 2.591 0.006 0.049 0 0.001 -0.029 0.433 0 0 0.813 -0.138 -0.004 -0.123 -0.351 -3.43 0.109 -2.402 0.604 -1.883 0.585 -0.773 0.675 -0.349 3.032 0.166 0.416 0.075 1.574 0.289 0.549 0.064 2.219 0.26 0.018 -0.086 -2.136 -0.653 -0.519 -0.16 -1.524 -0.468 -0.465 -0.131 -3.359 -0.425 -1.185 0.559 -0.857 1.127 -0.679 2.208 -0.068 2.628 0.52 3.498 0.032 0.127 0.813 -0.138 0 0 -0.188 -0.39 0 0.001 -0.013 -0.048 -0.595 -2.547" />
    <path class="write-flat-pen" transform="translate(-25.279,-5.047)" fill="#FFFFFF" stroke-width="1.6" __comx="134.788" __comy="195.612" __timestamp="0x1780b12c6d1" d="M153.783 200.293 l0.871 -0.951 0.142 -0.117 1.131 -1.045 0.134 -0.197 0.408 -1.097 -0.221 -1.047 -0.918 -0.831 -1.474 -0.306 -1.25 0.355 -1.203 1.075 -0.715 1.526 -0.172 1.77 0.378 1.684 0.8 1.107 1.06 0.366 1.345 -0.739 1.877 -3.631 0.226 -0.083 0 0 -0.761 -0.429 0.994 4.535 0.852 6.998 0.061 3.866 -0.455 3.025 -0.774 1.997 -0.682 0.785 -1.133 0.602 -1.351 0.067 -1.249 -0.489 -0.613 -0.617 -0.564 -1.352 -0.039 -1.288 0.58 -1.931 1.236 -1.879 2.165 -2.144 2.289 -1.61 7.261 -3.025 1.84 -1.162 1.232 -1.323 0.046 -0.661 0 0 -0.629 -0.587 -0.88 0.09 -1.141 1.126 -0.934 1.919 -0.254 1.731 0.358 1.597 0.885 1.008 1.172 0.213 1.575 -0.74 1.479 -1.652 1.313 -2.485 0.763 -2.497 0.074 -1.978 -0.534 -1.053 -1.222 -0.474 -1.608 1.232 -0.086 0.194 -0.013 0.145 -0.048 1.439 0.104 0.035 0.832 -1.175 0.055 -0.059 -0.047 0.116 0.963 -0.517 0.143 0.072 0.162 0.328 -0.05 1.482 -0.666 2.228 -1.171 2.251 -1.2 1.362 -0.992 0.483 -0.379 -0.059 -0.411 -0.458 -0.246 -1.084 0.191 -1.335 0.756 -1.582 0.708 -0.713 0.48 -0.07 -0.629 -0.587 0 0 0.001 0.266 -0.845 0.945 -1.64 1.036 -7.324 2.958 -2.496 1.706 -2.362 2.274 -1.43 2.131 -0.7 2.307 0.057 1.73 0.757 1.794 0.982 0.972 1.748 0.661 1.883 -0.117 1.556 -0.853 0.947 -1.118 0.872 -2.313 0.468 -3.245 -0.075 -4.016 -0.849 -7.11 -0.978 -4.593 -0.761 -0.429 0 0 -0.677 0.227 -1.922 3.741 -0.58 0.324 -0.229 -0.076 -0.449 -0.616 -0.285 -1.272 0.134 -1.39 0.529 -1.137 0.83 -0.751 0.736 -0.222 0.935 0.159 0.499 0.385 0.16 0.462 -0.175 0.79 -0.022 0.057 -0.902 1.134 -0.137 0.157 -0.715 1.117" />
    <path class="write-flat-pen" transform="translate(-25.279,-5.047)" fill="#FFFFFF" stroke-width="1.6" __comx="153.03" __comy="195.612" __timestamp="0x1780b12c8db" d="M179.552 200.286 l-0.899 -1.043 -0.264 -0.123 -1.162 -0.269 -1.435 0.345 -1.172 1.057 -0.687 1.444 -0.142 1.565 0.501 1.653 0.949 0.972 1.325 0.252 1.301 -0.588 1.064 -1.231 0.982 -2.142 0.389 -2.032 0 0 -0.263 -1.168 0 0 -1.131 0.127 0.05 2.382 0.699 3.369 1.439 2.109 1.68 0.369 0.054 -0.11 -1.089 -0.975 -1.016 -1.822 -0.654 -3.063 -0.02 -2.275 -1.131 0.127 0 0 0.183 0.942 0 0 -0.32 1.66 -0.849 1.866 -0.783 0.918 -0.736 0.344 -0.624 -0.105 -0.523 -0.513 -0.385 -1.185 0.085 -1.169 0.498 -1.103 0.812 -0.792 0.983 -0.302 0.896 0.116 0.055 0.011 0.945 0.782" />
    <path class="write-flat-pen" transform="translate(-25.279,-5.047)" fill="#FFFFFF" stroke-width="1.6" __comx="161.739" __comy="195.612" __timestamp="0x1780b12c9d8" d="M185.551 190.046 l0.46 8.046 0.107 0.712 1.126 5.584 1.117 1.999 0.123 -0.046 -0.447 -2.18 -1.116 -5.502 -0.11 -0.659 -0.681 -7.996" />
    <path class="write-flat-pen" transform="translate(-25.279,-5.047)" fill="#FFFFFF" stroke-width="1.6" __comx="170.947" __comy="195.612" __timestamp="0x1780b12cc32" d="M198.386 196.091 l-1.669 -0.207 -1.8 0.452 -1.33 0.902 -0.456 1.001 0.486 0.981 3.367 1.121 0.83 0.572 0.442 0.802 -0.015 0.561 -0.508 0.748 -1.13 0.624 -1.261 0.261 -1.893 0.273 -0.012 0.105 1.934 0.694 1.628 -0.219 1.532 -0.898 0.788 -1.272 -0.016 -1.153 -0.715 -1.235 -1.145 -0.784 -3.108 -1.027 -0.092 -0.175 0.136 -0.318 0.951 -0.67 1.47 -0.427 1.522 0.057" />
    <path class="write-flat-pen" transform="translate(-25.279,-5.047)" fill="#FFFFFF" stroke-width="1.6" __comx="179.084" __comy="195.612" __timestamp="0x1780b12ccef" d="M203.936 203.569 l0.193 1.754 0 0 0.727 -0.246 -0.307 -0.361 -0.594 -0.918 -0.129 0.05 0.193 1.112 0.152 0.487 0.727 -0.246 0 0 -0.355 -1.728" />
    <path class="write-flat-pen" transform="translate(-25.279,-5.047)" fill="#FFFFFF" stroke-width="1.6" __comx="177.617" __comy="195.612" __timestamp="0x1780b12cd7d" d="M203.674 190.187 l-0.409 -0.816 -1.03 -0.714 -0.119 0.097 0.444 1.094 0.44 0.713" />
    <path class="write-flat-pen" transform="translate(-25.279,-5.047)" fill="#FFFFFF" stroke-width="1.6" __comx="131.425" __comy="252.846" __timestamp="0x1780b12d543" d="M154.571 251.348 l0.126 0.805 0.055 0.218 0.887 2.465 0.168 0.452 2.16 7.443 0.286 1.269 0.11 0.008 0.476 -1.368 -2.19 -7.64 -0.206 -0.487 -1.079 -2.366 -0.076 -0.177 -0.325 -0.735" />
    <path class="write-flat-pen" transform="translate(-25.279,-5.047)" fill="#FFFFFF" stroke-width="1.6" __comx="140.991" __comy="252.846" __timestamp="0x1780b12d80e" d="M154.809 254.419 l-0.846 -1.992 -0.03 -0.133 -0.17 -1.876 0.26 -1.381 0.67 -1.095 0.936 -0.596 1.386 -0.276 1.793 0.301 1.988 0.866 1.883 1.447 1.486 1.759 0.955 1.811 0.565 2.205 0.02 2.199 -0.467 1.621 -3.647 5.353 0 0 -0.147 0.761 0 0 0.749 0.71 1.896 -0.455 7.365 -3.069 1.495 -1.237 0.904 -1.52 -0.031 -1.093 -0.941 -0.863 -1.246 0.591 -0.697 1.567 -0.12 1.68 0.429 1.818 0.96 1.507 1.402 0.959 1.47 0.268 1.582 -0.435 1.336 -1.047 0.253 -0.282 0.374 -0.524 1.216 -1.86 -0.098 -0.088 -1.714 1.404 -0.47 0.384 -0.217 0.165 -1.195 0.733 -1.113 0.26 -0.933 -0.172 -0.971 -0.66 -0.709 -1.109 -0.339 -1.425 0.088 -1.271 0.419 -0.944 0.07 -0.033 -0.065 -0.061 0.008 0.206 -0.607 1.028 -1.187 0.982 -7.104 2.962 -1.8 0.439 0.749 0.71 0 0 0.091 -0.512 0 0 3.593 -5.314 0.56 -1.975 -0.032 -2.515 -0.639 -2.476 -1.081 -2.045 -1.646 -1.955 -2.097 -1.614 -2.253 -0.986 -2.153 -0.361 -1.819 0.369 -1.345 0.881 -0.882 1.532 -0.253 1.751 0.327 2.082 0.087 0.273 1.076 1.968" />
    <path class="write-flat-pen" transform="translate(-25.279,-5.047)" fill="#FFFFFF" stroke-width="1.6" __comx="163.039" __comy="252.846" __timestamp="0x1780b12d991" d="M187.826 262.309 l-0.041 1.105 -0.019 0 0.48 -0.145 -0.278 -0.301 -0.052 -0.118 -1.908 -5.06 -0.216 -0.596 -1.243 -3.528 -0.526 -2.795 0.01 -2.199 0.503 -1.47 0.872 -1.146 1.09 -0.748 1.37 -0.433 1.545 0.057 1.841 0.674 0.285 0.153 0.291 0.167 1.901 1.119 0.086 -0.109 -1.528 -1.592 -0.252 -0.262 -0.342 -0.277 -2.018 -0.991 -1.956 -0.142 -1.755 0.533 -1.405 0.959 -1.111 1.459 -0.628 1.847 0.005 2.513 0.589 2.993 1.319 3.605 0.235 0.611 2.147 5.059 0.222 0.331 0.552 0.238 0.48 -0.145 0.045 -0.149 -0.176 -1.24" />
    <path class="write-flat-pen" transform="translate(-25.279,-5.047)" fill="#FFFFFF" stroke-width="1.6" __comx="160.856" __comy="252.846" __timestamp="0x1780b12da6a" d="M180.503 256.848 l1.694 -0.56 0.285 -0.082 7.33 -2.329 2.213 -0.852 -0.049 -0.198 -2.38 0.272 -7.392 2.221 -0.316 0.107 -1.644 0.776" />
    <path class="write-flat-pen" transform="translate(-25.279,-5.047)" fill="#FFFFFF" stroke-width="1.6" __comx="173.333" __comy="252.846" __timestamp="0x1780b12db4c" d="M198.245 257.145 l-0.071 4.13 0.006 0.204 0.009 1.089 0.602 -0.211 -0.467 -0.119 -0.126 0.117 0.083 0.475 0.602 -0.211 0.169 -1.127 -0.013 -0.24 -0.159 -4.113" />
    <path class="write-flat-pen" transform="translate(-25.279,-5.047)" fill="#FFFFFF" stroke-width="1.6" __comx="174.509" __comy="252.846" __timestamp="0x1780b12dbf6" d="M199.288 249.483 l0.3 3.885 0.616 2.067 0.084 -0.016 -0.157 -2.119 -0.181 -3.859" />
    <path class="write-flat-pen" transform="translate(-25.279,-5.047)" fill="#FFFFFF" stroke-width="1.6" __comx="189.316" __comy="252.846" __timestamp="0x1780b12de49" d="M204.515 261.044 l0.438 0.941 0.21 0.189 0.634 -0.144 0.139 -0.293 0.242 -1.808 0.01 -0.37 0.111 -2.354 0.44 -1.661 0.386 -0.46 0.521 -0.124 0.779 0.293 0.975 0.905 1.06 1.769 1.489 3.933 0.817 1.107 1.172 0.421 1.415 -0.348 1.43 -1.047 1.538 -2.008 0.929 -2.234 0.365 -2.266 -0.456 -1.345 -1.066 -0.631 -1.205 0.635 -0.666 1.226 -0.365 2.149 0.213 2.163 0.867 2.407 1.081 1.479 1.526 1.056 1.717 0.335 1.829 -0.783 0.355 -0.44 1.229 -1.598 -0.166 -0.179 -1.684 1.108 -0.307 0.174 -1.36 0.385 -1.1 -0.225 -1.142 -0.767 -0.867 -1.148 -0.797 -2.081 -0.209 -1.852 0.289 -1.804 0.404 -0.747 0.321 -0.165 0.132 0.084 0.217 0.662 -0.297 1.842 -0.819 1.962 -1.345 1.748 -1.102 0.808 -0.838 0.203 -0.493 -0.18 -0.506 -0.684 -1.478 -3.873 -1.196 -2.005 -1.267 -1.184 -1.342 -0.503 -1.258 0.307 -0.798 0.975 -0.491 2.051 -0.009 2.498 0.014 0.348 -0.002 1.661 0.058 -0.098 0.019 0.101 0.085 0.09 -0.567 -0.756" />
    <path class="write-flat-pen" transform="translate(-25.279,-5.047)" fill="#FFFFFF" stroke-width="1.6" __comx="222.375" __comy="252.846" __timestamp="0x1780b12e20c" d="M246.228 255.014 l0.438 -1.049 -0.082 0.108 0.185 0.087 -0.098 -0.059 0.701 1.845 0.106 0.455 0.566 3.272 0 0 0.142 3.585 -0.176 0.576 0 0 1.114 0.104 -0.161 -0.37 -0.017 -0.089 0.007 -0.418 0.09 -1.525 -0.107 -0.029 -0.699 1.377 -0.182 0.426 -0.073 0.266 0 0.56 1.114 0.104 0 0 0.333 -0.785 -0.189 -3.918 0 0 -0.671 -3.379 -0.163 -0.575 -1.021 -2.001 -0.333 -0.27 -0.769 0.172 -0.15 0.187 -0.252 1.239" />
    <path class="write-flat-pen" transform="translate(-25.279,-5.047)" fill="#FFFFFF" stroke-width="1.6" __comx="228.471" __comy="252.846" __timestamp="0x1780b12e2ec" d="M252.049 252.754 l0.537 2.822 0.115 0.558 0.001 0.002 1.969 9.155 0.686 -0.347 -0.517 -0.093 -0.111 0.1 0.036 0.524 0.686 -0.347 -1.833 -9.195 0.001 0.002 -0.145 -0.567 -0.755 -2.772" />
    <path class="write-flat-pen" transform="translate(-25.279,-5.047)" fill="#FFFFFF" stroke-width="1.6" __comx="227.408" __comy="252.846" __timestamp="0x1780b12e401" d="M241.785 253.655 l-0.09 -0.556 0.901 -0.508 0.331 -0.081 4.075 -0.554 13.729 -0.981 0.659 -0.091 1.091 -0.242 2.196 -0.534 -0.017 -0.149 -2.261 -0.019 -1.102 0.021 -0.639 0.015 -13.785 0.774 -4.184 0.685 -0.563 0.183 -1.429 1.127 0.38 1.111" />
    <path class="write-flat-pen" transform="translate(-25.279,-5.047)" fill="#FFFFFF" stroke-width="1.6" __comx="240.347" __comy="252.846" __timestamp="0x1780b12e631" d="M263.511 262.716 l-0.454 -0.773 -0.073 -0.072 -0.548 0.521 0.398 0.853 0.204 0.269 1.845 1.971 2.761 1.448 1.172 -0.393 0 -0.066 -0.94 -0.402 -2.312 -1.459 -1.76 -1.772 -0.153 -0.175 -0.56 -0.682 -0.548 0.521 -0.003 -0.024 0.55 0.554" />
    <path class="write-flat-pen" transform="translate(-25.279,-5.047)" fill="#FFFFFF" stroke-width="1.6" __comx="238.732" __comy="252.846" __timestamp="0x1780b12e6f6" d="M261.943 267.766 l0.956 -1.32 0.191 -0.258 3.338 -6.127 0.261 -2.383 -0.113 -0.033 -1.033 2.05 -3.275 5.989 -0.156 0.248 -0.779 1.454" />
    <path class="write-flat-pen" transform="translate(-25.279,-5.047)" fill="#FFFFFF" stroke-width="1.6" __comx="241.425" __comy="252.846" __timestamp="0x1780b12e7b5" d="M265.93 260.265 l0.239 1.952 0.048 0.269 0.369 2.183 -0.102 0.662 -0.489 0.993 0.067 0.06 1.038 -0.709 0.378 -0.961 -0.494 -2.38 -0.062 -0.263 -0.46 -1.902" />
    <path class="write-flat-pen" transform="translate(-25.279,-5.047)" fill="#FFFFFF" stroke-width="1.6" __comx="239.463" __comy="252.846" __timestamp="0x1780b12e861" d="M260.222 263.75 l2.946 0.339 3.997 -0.712 2.096 -1.016 -0.045 -0.13 -2.22 0.468 -3.855 0.517 -2.848 -0.215" />
    <path class="write-flat-pen" transform="translate(-25.279,-5.047)" fill="#FFFFFF" stroke-width="1.6" __comx="261.848" __comy="252.846" __timestamp="0x1780b12ea9d" d="M281.119 248.25 l-1.272 0.028 -0.155 0.526 0.569 2.39 0.284 0.555 1.856 2.867 3.998 4.73 3.809 3.725 3.608 2.479 0.615 -0.067 0.133 -0.524 -0.391 -0.517 -0.156 0.011 -0.331 0.346 0.05 -0.346 0.421 -0.058 -3.111 -2.326 -3.711 -3.6 -3.973 -4.581 -1.873 -2.706 -0.227 -0.395 -0.688 -1.994 -0.079 0.235 0.689 -0.187" />
    <path class="write-flat-pen" transform="translate(-25.279,-5.047)" fill="#FFFFFF" stroke-width="1.6" __comx="260.942" __comy="252.846" __timestamp="0x1780b12eb93" d="M280.536 267.472 l1.134 -2.009 0.24 -0.376 9.363 -17.418 0.379 -0.909 0.331 -0.925 0.727 -2.004 -0.156 -0.076 -1.135 1.805 -0.525 0.825 -0.491 0.83 -9.487 17.309 -0.221 0.405 -0.962 2.137" />
    <path class="write-flat-pen" transform="translate(-25.279,-5.047)" fill="#FFFFFF" stroke-width="1.6" __comx="136.855" __comy="312.421" __timestamp="0x1780b13464e" d="M160.565 310.429 l0.271 0.621 0.006 0.054 0.408 1.929 0.078 0.43 0 0 0.727 5.534 0.447 7.561 0 0 1.202 -0.018 -0.074 -0.946 0.019 -0.406 -0.018 -0.901 -0.066 -1.917 -0.224 -0.021 -0.425 1.869 -0.192 0.86 -0.099 0.433 -0.122 0.999 1.202 -0.018 0 0 -0.38 -7.619 -0.842 -5.611 0 0 -0.115 -0.496 -0.642 -1.963 -0.09 -0.178 -0.512 -0.565" />
    <path class="write-flat-pen" transform="translate(-25.279,-5.047)" fill="#FFFFFF" stroke-width="1.6" __comx="142.091" __comy="312.421" __timestamp="0x1780b134746" d="M160.603 310.321 l-0.21 -0.863 -0.235 0.261 1.133 -0.299 11.839 -0.334 2.418 -0.358 0.002 -0.24 -2.426 -0.39 -12.035 0.129 -1.512 0.567 -0.387 0.419 0.646 1.401" />
    <path class="write-flat-pen" transform="translate(-25.279,-5.047)" fill="#FFFFFF" stroke-width="1.6" __comx="144.703" __comy="312.421" __timestamp="0x1780b134858" d="M163.367 317.389 l0.781 1.105 0.364 0.16 2.081 0.369 7.31 -0.952 0.37 -0.088 2.324 -0.533 -0.019 -0.21 -2.382 -0.101 -0.393 -0.018 -7.194 0.789 -1.835 -0.214 -0.04 -0.004 -0.79 -0.783" />
    <path class="write-flat-pen" transform="translate(-25.279,-5.047)" fill="#FFFFFF" stroke-width="1.6" __comx="154.751" __comy="312.421" __timestamp="0x1780b13498b" d="M179.356 322.072 l-0.102 0.591 0.823 3.573 0.716 -0.207 -0.408 -0.25 -0.141 0.051 -0.154 0.453 0.716 -0.207 -0.742 -3.591 0.097 -0.214" />
    <path class="write-flat-pen" transform="translate(-25.279,-5.047)" fill="#FFFFFF" stroke-width="1.6" __comx="155.117" __comy="312.421" __timestamp="0x1780b134a34" d="M179.575 313.839 l0.641 2.389 0.894 1.715 0.108 -0.037 -0.344 -1.864 -0.42 -2.398" />
    <path class="write-flat-pen" transform="translate(-25.279,-5.047)" fill="#FFFFFF" stroke-width="1.6" __comx="165.979" __comy="312.421" __timestamp="0x1780b134bdf" d="M186.518 321.171 l0.19 1.339 0.019 0.178 0.33 3.233 0.08 0.14 0 0 0.977 -0.109 1.376 -3.78 0.976 -1.632 0.849 -0.721 0.879 -0.223 0.719 0.211 0.882 0.79 0.664 1.247 0.398 1.567 0.534 1.365 0.148 -0.004 0.457 -1.499 -0.348 -1.867 -0.861 -1.591 -1.261 -1.117 -1.311 -0.377 -1.479 0.379 -1.217 1.041 -1.133 1.918 -1.301 3.936 0.977 -0.109 0 0 0.031 0.061 -0.521 -2.982 -0.042 -0.213 -0.423 -1.317" />
    <path class="write-flat-pen" transform="translate(-25.279,-5.047)" fill="#FFFFFF" stroke-width="1.6" __comx="180.99" __comy="312.421" __timestamp="0x1780b134dc3" d="M203.731 311.955 l0.759 1.007 0.026 0.103 1.163 4.934 0.107 0.386 0 0 1.319 3.031 0 0 0.849 -0.751 -1.013 -0.591 -2.176 -0.366 -1.63 0.269 -1.035 0.763 -0.66 1.4 0.001 1.456 0.583 1.195 1.303 0.927 1.877 0.323 3.615 -1.212 0.316 -0.225 0.204 -0.177 1.758 -1.52 -0.073 -0.12 -2.161 0.856 -0.242 0.093 -0.239 0.094 -3.268 0.918 -1.31 -0.208 -0.84 -0.565 -0.348 -0.664 -0.023 -0.921 0.413 -0.907 0.579 -0.429 1.171 -0.188 1.77 0.315 0.813 0.503 0.849 -0.751 0 0 -1.336 -2.938 0 0 -0.089 -0.294 -1.391 -4.899 -0.115 -0.298 -1.041 -0.99" />
    <path class="write-flat-pen" transform="translate(-25.279,-5.047)" fill="#FFFFFF" stroke-width="1.6" __comx="212.58" __comy="312.421" __timestamp="0x1780b134fe2" d="M231.727 311.1 l-0.502 -1.086 -0.272 -0.25 -0.898 0.307 -0.136 0.422 -0.022 4.282 0.036 0.593 0.44 5.57 0.651 2.823 0.897 1.412 1.264 0.834 1.548 0.34 6.586 -0.657 2.859 -0.803 0.212 -0.172 0.105 -0.118 1.326 -1.584 -0.026 -0.036 -1.923 0.757 -0.115 0.04 -0.052 -0.007 -2.626 0.538 -6.272 0.65 -1.094 -0.222 -0.823 -0.525 -0.638 -0.97 -0.611 -2.503 -0.498 -5.461 -0.044 -0.554 -0.2 -4.102 -0.05 0.119 -0.008 -0.125 -0.157 -0.152 0.629 0.877" />
    <path class="write-flat-pen" transform="translate(-25.279,-5.047)" fill="#FFFFFF" stroke-width="1.6" __comx="224.672" __comy="312.421" __timestamp="0x1780b135113" d="M249.31 309.76 l-0.442 1.433 -0.058 0.436 0.175 5.458 0.061 0.697 1.119 6.455 0.727 -0.465 -0.072 0.003 -0.67 -0.005 -0.065 0.097 0.259 0.618 0.024 0.068 0.727 -0.465 -0.936 -6.452 -0.073 -0.636 -0.387 -5.354 0.016 -0.32 0.206 -1.432" />
    <path class="write-flat-pen" transform="translate(-25.279,-5.047)" fill="#FFFFFF" stroke-width="1.6" __comx="229.198" __comy="312.421" __timestamp="0x1780b135214" d="M248.348 312.328 l0.618 -0.607 -0.047 0.026 4.216 -0.851 0.412 -0.08 5.112 -0.66 0.15 -0.032 2.386 -0.411 0 -0.152 -2.386 -0.416 -0.208 -0.032 -5.244 0.482 -0.481 0.099 -4.218 1.089 -0.273 0.096 -0.629 0.985" />
    <path class="write-flat-pen" transform="translate(-25.279,-5.047)" fill="#FFFFFF" stroke-width="1.6" __comx="230.267" __comy="312.421" __timestamp="0x1780b135312" d="M250.247 318.324 l3.477 -0.456 0.338 -0.045 4.555 -0.368 2.372 -0.396 0.001 -0.15 -2.4 -0.437 -4.646 0.224 -0.392 0.062 -3.45 0.681" />
    <path class="write-flat-pen" transform="translate(-25.279,-5.047)" fill="#FFFFFF" stroke-width="1.6" __comx="234.56" __comy="312.421" __timestamp="0x1780b13541c" d="M254.197 326.297 l2.882 -0.321 0.361 -0.061 5.63 -0.808 0.236 -0.069 2.317 -0.655 -0.013 -0.122 -2.402 -0.161 -0.258 -0.017 -5.696 0.654 -0.372 0.076 -2.828 0.537" />
    <path class="write-flat-pen" transform="translate(-25.279,-5.047)" fill="#FFFFFF" stroke-width="1.6" __comx="246.711" __comy="312.421" __timestamp="0x1780b13564e" d="M275.307 312.629 l-1.444 -0.598 -0.251 -0.063 -2.356 -0.279 -0.266 0.011 -2.023 0.4 -1.47 0.86 -0.517 0.962 0.282 1.33 1.463 1.751 5.026 4.137 1.714 1.876 0.227 0.628 -0.117 0.438 -0.653 0.529 -1.392 0.387 -1.975 -0.008 -1.072 -0.349 -0.292 -0.288 -0.02 -0.674 0.04 -0.146 0.128 -0.262 0.84 -1.597 -0.147 -0.12 -1.394 1.146 -0.263 0.219 -0.286 0.348 -0.334 1.51 0.915 1.095 1.662 0.541 2.402 -0.017 1.855 -0.567 1.168 -1.048 0.246 -1.242 -0.482 -1.184 -1.95 -2.083 -5.007 -4.115 -1.211 -1.439 -0.143 -0.628 0.156 -0.311 1.02 -0.641 1.751 -0.442 0.12 -0.015 2.255 0.048 0.163 0.021 1.471 0.374" />
    <path class="write-flat-pen" transform="translate(-25.279,-5.047)" fill="#FFFFFF" stroke-width="1.6" __comx="255.513" __comy="312.421" __timestamp="0x1780b13591c" d="M281.618 307.26 l-0.298 -0.66 -0.267 -0.141 -2.027 0.122 -0.276 0.267 -0.397 0.88 0.258 1.275 1.028 1.177 2.097 1.201 0.209 0.343 -0.175 0.404 -1.112 0.873 -1.428 1.249 0.057 0.119 1.975 -0.386 1.481 -1.122 0.486 -1.27 -0.708 -1.048 -2.177 -1.229 -0.725 -0.816 -0.15 -0.657 0.152 -0.395 -0.126 0.119 1.42 -0.282 -0.127 -0.074 0.369 0.354" />
    <path class="write-flat-pen" transform="translate(-25.279,-5.047)" fill="#FFFFFF" stroke-width="1.6" __comx="139.81" __comy="377.101" __timestamp="0x1780b1397fd" d="M164.545 375.827 l-0.125 1.012 -0.022 0.264 -0.028 2.212 0.007 0.457 0.305 5.951 0.512 1.747 0.198 -0.005 0.416 -1.793 -0.455 -5.953 -0.035 -0.442 -0.189 -2.184 -0.018 -0.246 -0.102 -1.013" />
    <path class="write-flat-pen" transform="translate(-25.279,-5.047)" fill="#FFFFFF" stroke-width="1.6" __comx="147.887" __comy="377.101" __timestamp="0x1780b139939" d="M172.024 375.153 l-0.054 1.523 0.011 0.298 0.332 2.895 0.067 0.509 1.153 6.807 0.412 -0.485 -0.418 0.262 0.002 0.321 0.422 0.256 0.412 -0.485 -0.979 -6.836 -0.093 -0.503 -0.55 -2.834 -0.039 -0.253 -0.175 -1.495" />
    <path class="write-flat-pen" transform="translate(-25.279,-5.047)" fill="#FFFFFF" stroke-width="1.6" __comx="145.327" __comy="377.101" __timestamp="0x1780b139a86" d="M161.285 376.467 l-0.766 -0.484 0.049 0.051 -0.258 0.606 1.109 -0.119 0.395 -0.016 7.02 -0.605 9.881 -1.778 0.294 -0.079 2.317 -0.586 -0.03 -0.266 -2.389 -0.057 -0.333 -0.009 -9.894 1.616 -6.956 0.713 -0.451 0.048 -1.13 0.353 -0.258 0.606 0.094 0.124 1.058 0.396" />
    <path class="write-flat-pen" transform="translate(-25.279,-5.047)" fill="#FFFFFF" stroke-width="1.6" __comx="157.708" __comy="377.101" __timestamp="0x1780b139c5a" d="M180.443 383.878 l0.999 1.61 0.17 0.275 2.635 3.33 1.166 0.523 0.118 -0.127 -0.558 -1.069 -2.568 -3.234 -0.173 -0.24 -1.193 -1.49" />
    <path class="write-flat-pen" transform="translate(-25.279,-5.047)" fill="#FFFFFF" stroke-width="1.6" __comx="158.832" __comy="377.101" __timestamp="0x1780b139d24" d="M182.759 390.239 l0.697 -0.756 0.121 -0.134 1.532 -2.407 0.928 -3.35 -0.229 -2.307 -0.128 -0.011 -0.613 2.132 -1.009 3.074 -1.27 2.326 -0.072 0.109 -0.529 0.899" />
    <path class="write-flat-pen" transform="translate(-25.279,-5.047)" fill="#FFFFFF" stroke-width="1.6" __comx="159.456" __comy="377.101" __timestamp="0x1780b139dd3" d="M184.326 384.576 l0.192 1.726 0.014 0.12 -0.024 1.524 -0.396 1.195 0.097 0.06 0.985 -1.039 0.163 -1.782 -0.039 -0.213 -0.416 -1.694" />
    <path class="write-flat-pen" transform="translate(-25.279,-5.047)" fill="#FFFFFF" stroke-width="1.6" __comx="160.192" __comy="377.101" __timestamp="0x1780b139e79" d="M181.14 387.575 l0.463 0.046 0.06 0.013 0.94 0.057 0.224 -0.008 4.763 -0.787 2.278 -0.774 -0.032 -0.179 -2.398 0.05 -4.734 0.732 -0.171 0.03 -0.906 0.153 -0.088 0.02 -0.464 0.175" />
    <path class="write-flat-pen" transform="translate(-25.279,-5.047)" fill="#FFFFFF" stroke-width="1.6" __comx="174.984" __comy="377.101" __timestamp="0x1780b139f7e" d="M196.823 381.93 l5.06 -1.553 2.082 -0.954 -0.05 -0.171 -2.271 0.319 -5.082 1.488" />
    <path class="write-flat-pen" transform="translate(-25.279,-5.047)" fill="#FFFFFF" stroke-width="1.6" __comx="187.298" __comy="377.101" __timestamp="0x1780b13a0cd" d="M210.843 379.247 l0.584 1.959 0.127 0.337 1.82 4.656 0.762 0.691 0.177 -0.104 -0.2 -0.945 -1.789 -4.604 -0.14 -0.319 -0.783 -1.87" />
    <path class="write-flat-pen" transform="translate(-25.279,-5.047)" fill="#FFFFFF" stroke-width="1.6" __comx="188.356" __comy="377.101" __timestamp="0x1780b13a160" d="M213.958 374.547 l-0.634 -0.238 0.031 0.016 0.328 0.325 0.09 -0.019 0.16 -0.447 0.014 -0.045 -0.634 0.408" />
    <path class="write-flat-pen" transform="translate(-25.279,-5.047)" fill="#FFFFFF" stroke-width="1.6" __comx="198.449" __comy="377.101" __timestamp="0x1780b13a352" d="M222.781 375.426 l-0.802 -0.142 -0.176 -0.003 -1.66 0.463 -0.227 0.243 -0.346 0.903 0.432 1.161 4.37 2.797 1.538 1.468 0.723 1.349 0.095 1.011 -0.362 0.532 -0.825 0.351 -0.751 -0.052 -0.124 -0.084 0.002 -0.326 -0.022 -0.012 0.467 -0.419 0.208 -0.17 1.402 -1.119 -0.036 -0.063 -1.682 0.624 -0.272 0.102 -0.639 0.297 -0.261 0.188 -0.554 1.315 1.07 0.84 1.409 0.075 1.393 -0.635 0.733 -1.179 -0.209 -1.614 -0.945 -1.654 -1.75 -1.615 -4.218 -2.639 -0.24 -0.551 0.125 -0.452 -0.035 0.028 1.307 -0.585 0.066 -0.017 0.784 -0.087" />
    <path class="write-flat-pen" transform="translate(-25.279,-5.047)" fill="#FFFFFF" stroke-width="1.6" __comx="209.066" __comy="377.101" __timestamp="0x1780b13a4cb" d="M233.611 380.887 l0.659 -0.348 0.128 -0.123 0.331 -0.787 -0.04 -0.246 -0.565 -0.792 -1.119 -0.274 -1.145 0.526 -0.862 1.537 -0.212 1.616 0.338 1.816 0.826 1.517 1.252 0.977 1.357 0.223 1.376 -0.452 1.076 -0.976 0.825 -1.828 0.069 -1.571 -0.619 -1.429 -1.198 -0.987 -1.192 0.911 -0.028 0.423 0.083 0.394 0.449 1.393 0.099 -0.009 0.206 -1.424 0.07 -0.3 0.018 0.092 0.202 0.002 0.272 0.258 0.388 0.905 -0.042 1.052 -0.613 1.387 -0.691 0.641 -0.85 0.289 -0.771 -0.119 -0.828 -0.632 -0.633 -1.136 -0.282 -1.454 0.148 -1.225 0.559 -1.059 0.49 -0.266 0.462 0.05 0.328 0.281 -0.021 -0.145 -0.034 0.536 0.02 -0.002 -0.48 0.494" />
    <path class="write-flat-pen" transform="translate(-25.279,-5.047)" fill="#FFFFFF" stroke-width="1.6" __comx="220.291" __comy="377.101" __timestamp="0x1780b13a670" d="M245.055 377.878 l-0.962 0.213 -0.219 0.139 -0.975 0.904 -0.463 1.257 0.345 1.162 1.181 1.091 3.192 1.464 0.481 0.479 0.003 0.126 -0.404 0.421 -2.662 0.946 -0.147 0.072 -2.018 0.96 0.024 0.084 2.221 -0.251 0.176 -0.02 2.995 -0.857 0.914 -0.981 -0.109 -0.981 -0.897 -0.844 -3.215 -1.454 -0.888 -0.792 -0.208 -0.611 0.241 -0.8 0.706 -0.793 0.064 -0.059 0.793 -0.385" />
    <path class="write-flat-pen" transform="translate(-25.279,-5.047)" fill="#FFFFFF" stroke-width="1.6" __comx="101.544" __comy="252.091" __timestamp="0x1780b14cca3" d="M125.567 256.607 l0.302 -0.499 -0.477 0.187 -0.038 0.005 0.46 0.997 0.095 0.292 1.582 8.268 0.602 2.335 0.17 -0.012 0.261 -2.46 -1.655 -8.407 -0.187 -0.438 -0.809 -1.134 -0.174 -0.063 -0.477 0.187 -0.103 0.574" />
    <path class="write-flat-pen" transform="translate(-25.279,-5.047)" fill="#FFFFFF" stroke-width="1.6" __comx="109.644" __comy="248.684" __timestamp="0x1780b14ce5a" d="M130.614 250.799 l0.606 -0.098 -0.048 -0.001 1.681 1.27 0.305 0.291 1.846 2.186 1.617 2.619 1.134 2.798 0.446 2.413 -0.039 2.323 -0.616 2.378 -2.269 4.093 -0.173 0.238 -0.344 0.469 -1.368 1.897 0.127 0.122 1.844 -1.448 0.463 -0.397 0.278 -0.294 2.568 -4.212 0.709 -2.676 0.043 -2.593 -0.498 -2.655 -1.236 -3.002 -1.756 -2.761 -2.015 -2.245 -0.422 -0.364 -1.947 -1.193 -0.328 -0.101 -0.8 0.395" />
    <path class="write-flat-pen" transform="translate(-25.279,-5.047)" fill="#FFFFFF" stroke-width="1.6" __comx="109.074" __comy="309.208" __timestamp="0x1780b14d3d0" d="M130.546 315.597 l-0.32 -1.313 -0.017 -0.072 0.025 -1.596 0.006 0.006 0.536 -0.621 0.99 -0.438 1.224 -0.027 1.018 0.379 0.611 0.648 0.261 0.995 -0.27 1.533 -0.99 1.784 -3.853 4.458 -0.23 0.767 0.657 0.822 4.248 -0.211 2.378 0.451 0.213 0.057 0.16 0.038 2.236 0.538 0.054 -0.121 -1.889 -1.313 -0.132 -0.093 -0.281 -0.167 -2.621 -0.714 -4.433 0.242 0.657 0.822 0.129 -0.504 3.723 -4.367 1.141 -2.081 0.334 -2.001 -0.427 -1.539 -1.02 -1.051 -1.488 -0.534 -1.678 0.065 -1.414 0.685 -0.743 0.99 -0.121 0.348 0.224 1.914 0.074 0.161 0.528 1.225" />
    <path class="write-flat-pen" transform="translate(-25.279,-5.047)" fill="#FFFFFF" stroke-width="1.6" __comx="114.69" __comy="305.535" __timestamp="0x1780b14d565" d="M137.415 307.793 l0.453 -0.297 -0.265 -0.11 1.877 2.323 0.245 0.414 1.1 2.53 0.655 2.972 0.247 3.714 -0.279 2.968 -1.665 5.662 -0.158 0.471 -0.246 0.917 -0.512 2.328 0.234 0.084 1.081 -2.116 0.418 -0.836 0.218 -0.483 1.899 -5.773 0.303 -3.206 -0.271 -3.916 -0.731 -3.184 -1.234 -2.692 -0.351 -0.557 -2.242 -2.398 -0.514 -0.229 -0.761 0.911" />
    <path class="write-flat-pen" transform="translate(-25.279,-5.047)" fill="#FFFFFF" stroke-width="1.6" __comx="107.333" __comy="369.36" __timestamp="0x1780b14da2f" d="M128.336 375.671 l-0.001 -1.612 0.012 -0.009 0.792 -1.061 1.117 -0.741 0.758 -0.15 0.346 0.154 0.171 0.318 -0.896 2.974 0.158 1.082 1.133 0.8 3.684 0.448 0.83 0.36 0.121 0.246 -0.107 0.375 -0.698 0.714 -2.652 1.362 -2.782 0.792 0.096 0.228 -0.903 -0.608 -0.16 0.113 0.272 1.054 0.242 0.434 3.682 -0.827 2.957 -1.535 1.055 -1.102 0.294 -1.149 -0.556 -1.035 -1.382 -0.582 -3.553 -0.435 -0.471 -0.331 -0.048 -0.317 0.933 -3.203 -0.619 -1.078 -1.036 -0.427 -1.316 0.287 -1.433 1.014 -0.898 1.369 -0.114 0.323 0.237 1.805" />
    <path class="write-flat-pen" transform="translate(-25.279,-5.047)" fill="#FFFFFF" stroke-width="1.6" __comx="115.493" __comy="360.895" __timestamp="0x1780b14db88" d="M138.094 362.448 l1.095 0.214 0.977 0.785 1.177 1.755 0.702 1.917 0.5 3.848 -0.111 3.213 -0.668 3.603 -2.366 6.353 -0.242 0.553 -0.459 1.084 -0.863 2.117 0.152 0.083 1.318 -1.872 0.657 -0.997 0.32 -0.578 2.602 -6.425 0.709 -3.795 0.115 -3.396 -0.542 -4.07 -0.818 -2.163 -1.404 -1.978 -1.367 -0.972 -1.36 -0.136" />
    <path class="write-flat-pen" transform="translate(-25.279,-5.047)" fill="#FFFFFF" stroke-width="1.6" __comx="304.473" __comy="314.343" __timestamp="0x1780b14ee3c" d="M331.803 304.198 l0.091 -1.983 -0.466 -0.351 -1.936 1.162 -0.374 0.403 -1.471 2.046 -1.375 2.89 -1.071 3.634 -0.491 3.829 0.092 3.677 0.656 3.091 1.111 2.619 1.391 1.989 1.87 1.573 2.287 0.771 0.36 0.015 2.282 0.066 0.033 -0.186 -2.168 -0.716 -0.253 -0.093 -1.937 -0.863 -1.556 -1.39 -1.201 -1.774 -1.006 -2.393 -0.608 -2.859 -0.095 -3.465 0.456 -3.639 0.985 -3.46 1.248 -2.736 1.315 -1.953 0.225 -0.269 1.214 -0.953 -0.324 -0.249 0.125 1.571" />
    <path class="write-flat-pen" transform="translate(-25.279,-5.047)" fill="#FFFFFF" stroke-width="1.6" __comx="318.104" __comy="314.343" __timestamp="0x1780b14f041" d="M338.883 314.43 l-0.093 -1.938 0.032 -0.142 0.479 -1.228 0.818 -0.968 0.942 -0.466 1.106 -0.027 1.058 0.473 0.668 0.732 0.568 1.563 0.017 1.686 -0.469 1.852 -1.115 2.16 -3.104 3.868 -0.524 1.465 0.635 1.124 1.55 0.705 5.037 0.493 2.417 0.034 0.041 -0.221 -2.301 -0.842 -4.855 -0.682 -1.011 -0.45 -0.163 -0.281 0.259 -0.742 3.041 -3.809 1.226 -2.395 0.536 -2.137 -0.024 -2.048 -0.733 -1.973 -1.002 -1.077 -1.529 -0.664 -1.621 0.065 -1.365 0.71 -1.044 1.323 -0.495 1.512 -0.048 0.359 0.321 2.042" />
    <path class="write-flat-pen" transform="translate(-25.279,-5.047)" fill="#FFFFFF" stroke-width="1.6" __comx="330.993" __comy="314.343" __timestamp="0x1780b14f113" d="M356.004 322.615 l-0.204 2.803 0.001 0.162 0.014 0.357 0.389 2.059 0.166 -0.001 0.364 -2.063 0.01 -0.358 -0.002 -0.144 -0.029 -2.792" />
    <path class="write-flat-pen" transform="translate(-25.279,-5.047)" fill="#FFFFFF" stroke-width="1.6" __comx="338.509" __comy="314.343" __timestamp="0x1780b14f305" d="M358.4 314.149 l0.748 -1.43 0.083 -0.099 1.208 -1.159 1.487 -0.781 1.411 -0.299 1.087 0.22 0.614 0.534 0.466 1.097 -0.014 1.679 -0.554 1.979 -4.135 6.953 -0.92 2.31 0.314 1.134 1.14 0.625 6.513 -1.131 1.926 -0.016 0.024 -0.096 -1.9 -0.991 -6.345 0.93 -0.324 -0.158 -0.082 -0.239 0.705 -1.856 4.137 -7.015 0.629 -2.27 0.012 -2.064 -0.667 -1.549 -1.038 -0.889 -1.603 -0.309 -1.779 0.405 -1.73 0.975 -1.284 1.391 -0.164 0.241 -0.589 1.604" />
    <path class="write-flat-pen" transform="translate(-25.279,-5.047)" fill="#FFFFFF" stroke-width="1.6" __comx="351.22" __comy="314.343" __timestamp="0x1780b14f3d9" d="M375.542 324.42 l0.354 1.238 0.037 0.147 0.505 1.642 0.88 0.961 0.139 -0.069 -0.198 -1.215 -0.456 -1.585 -0.064 -0.175 -0.578 -1.182" />
    <path class="write-flat-pen" transform="translate(-25.279,-5.047)" fill="#FFFFFF" stroke-width="1.6" __comx="358.732" __comy="314.343" __timestamp="0x1780b14f508" d="M381.269 312.861 l0.195 0.881 0.07 0.223 0.833 2.659 0.128 0.471 2.71 8.495 1.395 1.755 0.152 -0.077 -0.557 -2.084 -2.648 -8.411 -0.153 -0.484 -1.054 -2.632 -0.102 -0.204 -0.377 -0.795" />
    <path class="write-flat-pen" transform="translate(-25.279,-5.047)" fill="#FFFFFF" stroke-width="1.6" __comx="367.784" __comy="314.343" __timestamp="0x1780b14f6cd" d="M392.591 312.927 l-1.147 -0.123 -0.338 0.139 -1.513 1.031 -0.895 1.356 -0.608 2.084 0.078 1.996 0.654 1.898 1.296 1.776 1.385 0.905 1.429 0.299 1.81 -0.416 1.358 -0.959 1.068 -1.487 0.695 -2.216 0.173 -2.842 -0.592 -2.132 -1.073 -1.775 -1.16 -0.888 -1.522 0.366 -0.24 0.343 -0.101 0.334 -0.256 1.513 0.149 0.069 0.972 -1.152 0.161 -0.158 -0.054 0.107 0.537 0 0.471 0.388 0.832 1.404 0.475 1.73 -0.139 2.445 -0.564 1.854 -0.795 1.137 -0.951 0.695 -1.274 0.314 -0.915 -0.179 -0.995 -0.636 -1.059 -1.428 -0.544 -1.543 -0.073 -1.614 0.483 -1.727 0.65 -1.035 1.19 -0.909 0.017 -0.019 0.919 -0.106" />
    <path class="write-flat-pen" transform="translate(-25.279,-5.047)" fill="#FFFFFF" stroke-width="1.6" __comx="380.301" __comy="314.343" __timestamp="0x1780b14f82b" d="M399.825 303.19 l0.599 0.992 0.149 0.171 1.794 1.624 0.304 0.264 3.112 2.931 1.947 2.428 1.413 2.772 0.765 2.85 0.213 2.728 -0.514 2.425 -0.181 0.462 -0.474 1.007 -0.287 0.546 -1.037 1.945 0.068 0.048 1.472 -1.64 0.433 -0.483 0.681 -0.974 0.3 -0.565 0.754 -2.66 -0.155 -3.044 -0.809 -3.113 -1.546 -3.015 -2.12 -2.588 -3.313 -2.898 -0.342 -0.26 -1.898 -1.416 -0.094 -0.079 -0.736 -0.82" />
    <path class="write-flat-pen" transform="translate(-25.279,-5.047)" fill="#FFFFFF" stroke-width="1.6" __comx="306.626" __comy="373.526" __timestamp="0x1780b1521d5" d="M330.768 365.302 l0.898 -0.981 0.059 -0.084 0.281 -0.808 -0.13 -0.2 -0.578 -0.076 -0.889 0.571 -0.301 0.427 -1.291 2.889 -0.868 3.336 -0.478 4.912 0.239 3.82 0.801 3.406 1.163 2.625 1.664 2.247 2.4 1.444 0.328 0.059 2.219 0.344 0.056 -0.179 -2.019 -0.983 -0.181 -0.101 -2.015 -1.417 -1.434 -2 -1.058 -2.415 -0.748 -3.204 -0.23 -3.627 0.447 -4.73 0.797 -3.169 1.135 -2.757 0.135 -0.229 0.634 -0.633 -0.578 -0.076 -0.059 -0.105 0.017 0.405 0.018 -0.018 -0.701 1.098" />
    <path class="write-flat-pen" transform="translate(-25.279,-5.047)" fill="#FFFFFF" stroke-width="1.6" __comx="318.016" __comy="373.526" __timestamp="0x1780b1523ef" d="M338.247 374.782 l1.046 -2.675 0.12 -0.176 0.895 -0.977 1.088 -0.6 0.853 -0.092 0.697 0.267 0.593 0.731 0.265 1.125 -0.213 1.992 -0.704 1.91 -2.766 4.024 -0.298 1.243 1.085 0.841 5.698 0.476 2.402 -0.145 0.036 -0.27 -2.305 -0.777 -5.359 -0.508 -0.186 -0.118 0.043 -0.255 2.701 -3.971 0.793 -2.188 0.231 -2.335 -0.395 -1.564 -0.968 -1.139 -1.222 -0.439 -1.318 0.169 -1.405 0.816 -1.024 1.191 -0.213 0.342 -0.871 2.858" />
    <path class="write-flat-pen" transform="translate(-25.279,-5.047)" fill="#FFFFFF" stroke-width="1.6" __comx="329.887" __comy="373.526" __timestamp="0x1780b1524e3" d="M354.601 380.648 l0.036 2.039 0.024 0.267 0.196 1.832 0.298 1.341 0.177 0.007 0.399 -1.373 -0.163 -1.903 -0.038 -0.255 -0.265 -2.003" />
    <path class="write-flat-pen" transform="translate(-25.279,-5.047)" fill="#FFFFFF" stroke-width="1.6" __comx="337.911" __comy="373.526" __timestamp="0x1780b1526e0" d="M358.348 372.623 l-0.1 0.546 0.303 -0.137 0.062 -0.039 1.169 -0.683 1.554 -0.41 1.154 0.129 0.816 0.504 0.51 0.943 0.026 1.308 -0.453 1.418 -3.156 4.648 -0.315 1.222 0.683 0.945 5.861 -0.189 2.059 -0.101 0.045 -0.222 -2 -0.924 -5.366 0.192 0.008 0.038 0.103 -0.483 3.113 -4.626 0.552 -1.757 -0.042 -1.769 -0.791 -1.443 -1.292 -0.779 -1.611 -0.154 -1.89 0.569 -1.271 0.931 -0.101 0.107 -0.163 0.301 0.532 0.546" />
    <path class="write-flat-pen" transform="translate(-25.279,-5.047)" fill="#FFFFFF" stroke-width="1.6" __comx="350.079" __comy="373.526" __timestamp="0x1780b1527cc" d="M374.471 380.873 l0.641 1.947 0.016 0.1 0.17 0.907 0.188 0.636 0.157 0.053 0.601 -0.584 -0.05 -1.183 -0.057 -0.239 -0.887 -1.944" />
    <path class="write-flat-pen" transform="translate(-25.279,-5.047)" fill="#FFFFFF" stroke-width="1.6" __comx="356.281" __comy="373.526" __timestamp="0x1780b1528e0" d="M379.729 369.613 l-0.091 0.741 0.001 0.2 0.211 1.883 0.1 0.504 2.359 9.918 0.928 2.24 0.245 -0.061 -0.222 -2.41 -2.341 -9.914 -0.125 -0.467 -0.416 -1.793 -0.032 -0.139 -0.108 -0.708" />
    <path class="write-flat-pen" transform="translate(-25.279,-5.047)" fill="#FFFFFF" stroke-width="1.6" __comx="367.312" __comy="373.526" __timestamp="0x1780b1529d2" d="M390.702 369.001 l0.849 4.264 1.676 12.013 1.081 2.011 0.173 -0.053 -0.202 -2.19 -1.632 -11.974 -0.991 -4.276" />
    <path class="write-flat-pen" transform="translate(-25.279,-5.047)" fill="#FFFFFF" stroke-width="1.6" __comx="379.447" __comy="373.526" __timestamp="0x1780b152c55" d="M401.071 363.141 l1.112 0.465 1.521 1.718 1.257 2.171 1.116 3.029 0.761 3.65 0.318 4.768 -0.285 3.735 -0.866 4.308 -1.14 3.025 -0.362 0.712 -0.38 0.695 -0.392 0.698 -1.071 1.887 0.123 0.088 1.436 -1.626 0.544 -0.613 0.492 -0.669 0.482 -0.743 1.365 -3.118 0.972 -4.472 0.306 -3.901 -0.336 -4.942 -0.82 -3.818 -1.224 -3.192 -1.4 -2.333 -1.809 -1.952 -1.381 -0.473" />
    <path class="write-flat-pen" fill="#FFFFFF" stroke-width="1.6" __comx="64.661" __comy="48.307" __timestamp="0x1785930660d" d="M70.304 28.346 l0.15 -0.996 -0.158 -0.225 -1.943 -1.092 -0.679 -0.071 -3.639 0.681 -3.838 1.958 -3.612 3.391 -2.249 3.293 -1.983 4.86 -0.872 5.348 0.149 4.932 1.168 4.236 2.349 3.563 2.563 1.979 3.184 1.223 4.677 0.446 4.298 -0.783 4.087 -1.783 2.814 -2.881 1.072 -3.33 -0.142 -0.071 -1.914 2.668 -2.702 2.283 -3.68 1.577 -3.901 0.707 -4.242 -0.4 -2.767 -1.055 -2.173 -1.673 -2.069 -3.133 -1.057 -3.812 -0.147 -4.593 0.815 -5.026 1.842 -4.551 2.049 -3.031 3.317 -3.158 3.448 -1.836 3.242 -0.77 0.292 -0.002 1.719 0.561 -0.1 -0.148 0.236 0.731" />
    <path class="write-flat-pen" fill="#FFFFFF" stroke-width="1.6" __comx="74.037" __comy="48.307" __timestamp="0x17859306773" d="M61.59 49.482 l-0.292 0.484 0.304 0.16 0.242 0.032 4.977 -0.057 0.945 -0.077 13.897 -2.209 0.668 -0.119 0.608 -0.112 3.863 -0.707 -0.008 -0.09 -3.927 -0.018 -0.625 -0.003 -0.707 0.023 -13.93 1.898 -0.879 0.095 -4.902 0.432 -0.242 0.028 -0.313 0.192 0.232 0.571" />
    <path class="write-flat-pen" fill="#FFFFFF" stroke-width="1.6" __comx="92.784" __comy="48.307" __timestamp="0x178593069ce" d="M95.023 48.046 l0.103 -1.304 -0.134 -0.308 -1.805 -1.47 -0.587 -0.076 -2.676 0.467 -2.578 1.764 -1.497 2.121 -0.955 3.1 0.208 3.03 1.216 2.237 2.362 1.502 3.238 0.096 3.58 -1.444 2.672 -2.102 1.901 -2.666 0.6 -2.252 -0.543 -2.193 -1.568 -1.591 -3.586 -0.358 -2.358 1.668 0.027 0.062 2.506 -0.452 2.683 0.522 0.898 0.928 0.347 1.401 -0.42 1.603 -1.601 2.27 -2.323 1.847 -3.087 1.271 -2.534 -0.045 -1.731 -1.071 -0.915 -1.638 -0.19 -2.472 0.796 -2.662 1.216 -1.776 2.133 -1.548 2.236 -0.536 0.163 -0.004 1.654 0.921 0.038 0.022 0.263 1.149" />
    <path class="write-flat-pen" fill="#FFFFFF" stroke-width="1.6" __comx="109.095" __comy="48.307" __timestamp="0x17859306c43" d="M110.994 49.343 l0.658 -0.767 0.099 -0.228 0.237 -2.468 -0.256 -0.436 -1.253 -0.894 -2.425 0.019 -2.564 1.17 -2.129 1.942 -1.533 2.587 -0.717 3.026 0.317 2.241 1.366 1.814 2.081 0.598 2.311 -0.667 2.476 -2.07 1.636 -2.694 0 0 0.632 -2.71 0 0 -0.619 -0.894 0 0 -1.345 0.312 -0.394 2.665 0.585 3.214 1.36 2.546 2.533 0.811 0.538 -0.195 2.489 -1.033 -0.017 -0.073 -2.689 0.191 -0.24 -0.011 -1.594 -0.824 -0.97 -1.896 -0.497 -2.752 0.363 -2.422 -1.345 0.312 0 0 0.241 0.355 0 0 -0.425 1.84 0 0 -1.379 2.287 -2.044 1.728 -1.613 0.479 -1.226 -0.339 -0.875 -1.131 -0.243 -1.618 0.59 -2.57 1.313 -2.24 1.813 -1.684 2.114 -1.018 1.786 -0.1 0.815 0.463 -0.006 -0.036 0.148 2.066 -0.008 0.086 -0.314 0.897" />
    <path class="write-flat-pen" fill="#FFFFFF" stroke-width="1.6" __comx="122.226" __comy="48.307" __timestamp="0x17859306da7" d="M117.602 31.265 l0.538 1.436 0.137 0.409 2.1 6.116 0.316 1.139 3.033 15.56 1.426 1.595 0.771 0.083 0.144 -0.23 0.782 -1.23 -0.05 -0.058 -1.322 0.612 -0.248 0.112 0.771 0.083 -0.917 -1.567 -3.099 -15.277 -0.379 -1.232 -2.471 -6.044 -0.209 -0.432 -0.858 -1.312" />
    <path class="write-flat-pen" fill="#FFFFFF" stroke-width="1.6" __comx="138.652" __comy="48.307" __timestamp="0x17859306f99" d="M137.303 39.518 l-0.389 -1.03 -0.467 -0.077 -2.492 0.621 -1.778 1.425 -0.389 1.608 1.24 1.169 5.929 1.596 2.683 1.412 1.671 1.788 0.725 1.827 -0.156 1.66 -0.994 1.273 -1.793 0.838 -2.136 0.188 -3.627 -1.105 0.373 0.857 -0.02 -0.103 -0.152 -0.961 -0.098 -0.043 -0.809 0.541 -0.089 0.056 0.373 0.857 3.85 1.511 2.756 -0.26 2.37 -1.147 1.452 -1.944 0.178 -2.447 -0.997 -2.378 -2.04 -2.12 -3.031 -1.564 -5.762 -1.521 -0.462 -0.417 0.096 -0.46 1.216 -1.034 1.986 -0.678 -0.224 -0.043 0.47 0.422" />
    <path class="write-flat-pen" fill="#FFFFFF" stroke-width="1.6" __comx="182.297" __comy="46.549" __timestamp="0x178593084a8" d="M180.759 35.133 l0.376 1.085 0.042 0.277 0.741 5.875 0.12 1.161 0.477 8.61 -0.375 4.448 -0.111 0.338 0.241 0.256 -0.205 -0.122 -1.395 -0.912 -0.024 0.022 0.789 1.468 0.157 0.273 0.504 0.465 1.428 -1.126 0.429 -5.096 -0.6 -8.744 -0.158 -1.22 -1.123 -5.883 -0.131 -0.405 -0.746 -1.006" />
    <path class="write-flat-pen" fill="#FFFFFF" stroke-width="1.6" __comx="189.439" __comy="46.549" __timestamp="0x178593085a2" d="M180.368 34.673 l0.526 -0.238 -0.017 0.032 1.96 0.482 0.531 0.108 11.423 0.784 3.995 -0.633 -0.002 -0.089 -3.966 -0.43 -11.307 -0.868 -0.491 -0.055 -2.123 -0.13 -0.329 0.064 -0.477 0.666" />
    <path class="write-flat-pen" fill="#FFFFFF" stroke-width="1.6" __comx="193.301" __comy="46.549" __timestamp="0x178593086ae" d="M184.684 46.071 l0.369 1.125 0.364 0.166 4.004 0.678 0.522 0.031 7.956 0.04 4.008 -0.042 0.013 -0.118 -3.947 -0.918 -7.98 -0.385 -0.457 -0.011 -3.868 -0.267 0.083 0.055 -0.532 -0.628" />
    <path class="write-flat-pen" fill="#FFFFFF" stroke-width="1.6" __comx="208.964" __comy="46.549" __timestamp="0x1785930888f" d="M208.947 49.657 l1.122 -0.747 0.191 -0.23 0.643 -1.219 -0.77 -1.354 -2.475 0.455 -1.924 1.529 -1.283 2.608 -0.248 2.383 0.802 2.272 1.975 1.383 2.471 -0.059 2.448 -1.483 1.576 -2.481 0.25 -2.196 -2.069 -2.198 -0.764 0.166 -0.156 0.601 0.536 0.623 0.636 -0.3 0.049 -0.41 -0.14 0.55 -0.671 0.152 0.916 1.323 -0.129 1.146 -1.176 1.861 -1.767 1.083 -1.545 0.055 -1.178 -0.788 -0.557 -1.487 0.162 -1.794 1.001 -2.106 1.392 -1.162 1.294 -0.343 0.145 0.069 -0.198 0.694 -0.051 0.108 -0.799 0.972" />
    <path class="write-flat-pen" fill="#FFFFFF" stroke-width="1.6" __comx="227.028" __comy="46.549" __timestamp="0x178593089b8" d="M219.725 52.339 l0.402 1.991 0.034 0.196 0.485 2.288 0.087 0.145 0.931 -0.23 1.281 -6.703 0.049 -0.072 1.407 -1.257 2.123 -0.624 3.648 0.08 0.417 0.041 3.727 0.418 0.016 -0.067 -3.518 -1.301 -0.476 -0.171 -3.969 -0.471 -2.704 0.776 -1.789 1.635 -0.308 0.492 -0.934 7.059 0.931 -0.23 -0.007 0.021 -0.787 -1.998 -0.065 -0.188 -0.768 -1.894" />
    <path class="write-flat-pen" fill="#FFFFFF" stroke-width="1.6" __comx="263.785" __comy="46.549" __timestamp="0x17859308cbe" d="M263.404 38.139 l-0.279 -0.234 -0.259 0.606 -0.033 0.271 -0.048 2.581 0.043 0.824 -0.001 -0.011 0.929 14.497 1.029 -0.02 -0.46 -0.872 -0.079 -0.001 -0.491 0.854 1.029 -0.02 -0.749 -14.526 -0.001 -0.011 -0.102 -0.794 -0.299 -2.519 -0.031 -0.215 -0.137 -0.61 -0.387 0.092" />
    <path class="write-flat-pen" fill="#FFFFFF" stroke-width="1.6" __comx="265.233" __comy="46.549" __timestamp="0x17859308dc0" d="M253.239 40.715 l0.634 -1.678 0.109 -0.09 5.118 -2.422 0.715 -0.203 5.957 -1.261 7.837 -0.166 0.203 0.026 0.37 0.092 3.593 0.926 0.018 -0.045 -3.252 -1.787 -0.378 -0.205 -0.389 -0.149 -8.163 -0.197 -6.154 1.379 -0.887 0.276 -5.237 2.926 -0.339 0.447 -0.32 1.983" />
    <path class="write-flat-pen" fill="#FFFFFF" stroke-width="1.6" __comx="278.948" __comy="46.549" __timestamp="0x17859308fd2" d="M279.83 50.481 l0.673 -0.983 0.103 -0.206 0.433 -1.828 -0.126 -0.462 -1.018 -1.166 -2.128 -0.057 -2.08 1.17 -1.324 1.926 -0.259 2.447 0.849 2.03 1.977 1.414 2.118 0.199 2.259 -0.892 1.698 -1.958 0.785 -2.449 -0.35 -2.129 -1.367 -1.099 -1.168 0.93 -0.844 1.915 0.076 0.06 1.552 -1.094 0.248 0.051 0.022 0.076 0.191 1.168 -0.567 1.772 -1.226 1.417 -1.542 0.613 -1.318 -0.118 -1.279 -0.898 -0.545 -1.25 0.153 -1.679 0.89 -1.353 1.431 -0.879 1.229 -0.084 0.61 0.478 0.022 -0.007 -0.012 1.581 -0.024 0.131 -0.342 1.115" />
    <path class="write-flat-pen" fill="#FFFFFF" stroke-width="1.6" __comx="296.432" __comy="46.549" __timestamp="0x178593091f2" d="M295.922 34.059 l0.059 0.106 -0.073 -0.131 0.352 2.213 0.084 0.516 2.686 13.415 0 0 0.124 0.228 0 0 0.554 0.744 0 0 0.923 -1.192 -2.242 -0.969 -3.695 -0.365 -2.69 0.669 -1.768 1.443 -0.829 1.825 0.214 1.987 1.367 1.659 2.11 0.837 2.644 -0.256 3.641 -1.696 0.393 -0.211 0.393 -0.237 3.288 -1.985 -0.031 -0.07 -3.676 1.113 -0.426 0.127 -0.415 0.123 -3.552 1.3 -2.034 0.193 -1.389 -0.543 -0.823 -0.984 -0.123 -1.102 0.506 -1.108 1.22 -0.989 2.092 -0.507 3.185 0.324 2.028 0.855 0.923 -1.192 0 0 -0.507 -0.631 0 0 0.038 0.071 0 0 -3.029 -13.112 -0.136 -0.521 -0.728 -2.166 -0.168 -0.418 -0.572 0.233" />
    <path class="write-flat-pen" fill="#FFFFFF" stroke-width="1.6" __comx="310.646" __comy="46.549" __timestamp="0x178593093c6" d="M310.294 49.975 l0.824 -0.454 0.136 -0.268 0.114 -1.811 -0.15 -0.363 -1.268 -1.36 -1.993 -0.399 -1.811 0.858 -1.539 2.181 -0.373 2.222 0.607 2.129 1.621 1.227 2.054 -0.134 2.097 -1.601 -0.103 -0.038 0.747 2.622 1.255 1.3 1.97 -0.148 2.574 -1.051 -0.011 -0.054 -2.659 0.026 -1.209 -0.23 -0.508 -0.631 -0.862 -3.023 -1.455 -0.555 -2.411 1.868 -1.018 0.08 -0.776 -0.565 -0.399 -1.317 0.24 -1.571 1.108 -1.634 1.062 -0.551 1.19 0.158 0.96 0.827 0.005 -0.023 0.245 1.44 0.025 0.009 -0.446 0.655" />
    <path class="write-flat-pen" fill="#FFFFFF" stroke-width="1.6" __comx="324.141" __comy="46.549" __timestamp="0x178593094da" d="M319.802 43.481 l-0.093 1.985 0.056 0.408 1.799 4.677 0.356 0.618 2.558 3.654 2.406 1.25 1.687 -0.806 -0.006 -0.029 -1.503 -0.169 -1.66 -1.242 -2.466 -3.33 -0.313 -0.491 -2.087 -4.369 -0.073 -0.263 -0.296 -1.912" />
    <path class="write-flat-pen" fill="#FFFFFF" stroke-width="1.6" __comx="326.185" __comy="47.71" __timestamp="0x178593095b3" d="M331.064 44.336 l-0.32 1.226 -0.142 0.373 -2.134 5.449 -0.429 1.035 -6.474 16.293 -0.762 3.146 0.056 0.026 1.906 -2.657 6.514 -16.314 0.407 -1.072 1.78 -5.63 0.101 -0.483 -0.017 -1.334" />
    <path class="write-stroke-pen" fill="none" stroke="#FFFFFF" stroke-width="1.6" stroke-linecap="round" stroke-linejoin="round" __comx="190.871" __comy="69.331" __timestamp="0x17859309fec" d="M37.694 70.818 l306.354 -2.441" />
  </g>
</svg>
