<?xml version="1.0" encoding="UTF-8" standalone="no"?>
<svg
   xmlns:dc="http://purl.org/dc/elements/1.1/"
   xmlns:cc="http://creativecommons.org/ns#"
   xmlns:rdf="http://www.w3.org/1999/02/22-rdf-syntax-ns#"
   xmlns:svg="http://www.w3.org/2000/svg"
   xmlns="http://www.w3.org/2000/svg"
   xmlns:sodipodi="http://sodipodi.sourceforge.net/DTD/sodipodi-0.dtd"
   xmlns:inkscape="http://www.inkscape.org/namespaces/inkscape"
   sodipodi:docname="abcd.svg"
   inkscape:version="1.0alpha2 (1310c660fa, 2019-08-04, custom)"
   id="svg8"
   version="1.1"
   viewBox="0 0 240 120"
   height="120mm"
   width="240mm">
  <style
     id="style139"></style>
  <defs
     id="defs2">
    <inkscape:path-effect
       is_visible="true"
       id="path-effect1054"
       effect="spiro" />
    <inkscape:path-effect
       is_visible="true"
       id="path-effect1046"
       effect="spiro" />
    <inkscape:path-effect
       is_visible="true"
       id="path-effect1034"
       effect="spiro" />
    <inkscape:path-effect
       is_visible="true"
       id="path-effect1026"
       effect="spiro" />
    <inkscape:path-effect
       is_visible="true"
       id="path-effect117"
       effect="spiro" />
    <inkscape:path-effect
       is_visible="true"
       id="path-effect58"
       effect="spiro" />
    <inkscape:path-effect
       is_visible="true"
       id="path-effect54"
       effect="spiro" />
    <inkscape:path-effect
       is_visible="true"
       id="path-effect16"
       effect="spiro" />
    <inkscape:path-effect
       effect="spiro"
       id="path-effect117-3"
       is_visible="true" />
  </defs>
  <sodipodi:namedview
     inkscape:document-rotation="0"
     inkscape:window-maximized="1"
     inkscape:window-y="26"
     inkscape:window-x="57"
     inkscape:window-height="1026"
     inkscape:window-width="1863"
     inkscape:guide-bbox="true"
     showguides="true"
     width="200mm"
     showborder="true"
     showgrid="false"
     inkscape:current-layer="layer1"
     inkscape:document-units="mm"
     inkscape:cy="229.84365"
     inkscape:cx="324.09145"
     inkscape:zoom="1"
     inkscape:pageshadow="2"
     inkscape:pageopacity="0.0"
     borderopacity="1.0"
     bordercolor="#666666"
     pagecolor="#ffffff"
     id="base">
    <inkscape:grid
       dotted="false"
       empspacing="4"
       spacingy="10"
       spacingx="10"
       units="mm"
       id="grid815"
       type="xygrid" />
  </sodipodi:namedview>
  <metadata
     id="metadata5">
    <rdf:RDF>
      <cc:Work
         rdf:about="">
        <dc:format>image/svg+xml</dc:format>
        <dc:type
           rdf:resource="http://purl.org/dc/dcmitype/StillImage" />
        <dc:title />
      </cc:Work>
    </rdf:RDF>
  </metadata>
  <g
     style="display:inline"
     transform="translate(0,-177)"
     id="layer1"
     inkscape:groupmode="layer"
     inkscape:label="Layer 1">
    <path
       sodipodi:nodetypes="cc"
       inkscape:connector-curvature="0"
       id="path52"
       d="m 23.275002,207.5633 -0.12249,58.13154"
       style="fill:none;stroke:#000000;stroke-width:0.264583px;stroke-linecap:butt;stroke-linejoin:miter;stroke-opacity:1" />
    <path
       sodipodi:nodetypes="cc"
       inkscape:connector-curvature="0"
       id="path56"
       d="M 1.9648921,251.42464 106.92325,250.34947"
       style="fill:none;stroke:#000000;stroke-width:0.264583px;stroke-linecap:butt;stroke-linejoin:miter;stroke-opacity:1" />
    <path
       style="fill:none;stroke:#000000;stroke-width:0.264583px;stroke-linecap:butt;stroke-linejoin:miter;stroke-opacity:1"
       d="m 128.16688,250.07375 104.95836,-1.07517"
       id="path56-7"
       inkscape:connector-curvature="0"
       sodipodi:nodetypes="cc" />
    <path
       style="fill:none;stroke:#000000;stroke-width:0.264583px;stroke-linecap:butt;stroke-linejoin:miter;stroke-opacity:1"
       d="m 149.43897,208.66025 -0.12249,58.13154"
       id="path52-5"
       inkscape:connector-curvature="0"
       sodipodi:nodetypes="cc" />
    <path
       inkscape:original-d="m 24.112708,251.36142 c 25.482567,-16.59944 50.964868,-33.19915 76.446902,-49.79912 25.48204,-16.59997 1.0617,-3.56728 1.59215,-5.35132"
       inkscape:path-effect="#path-effect117"
       inkscape:connector-curvature="0"
       id="path115"
       d="m 24.112708,251.36142 c 16.327798,1.45748 33.10587,-2.72267 46.841314,-11.67023 13.735445,-8.94756 24.339859,-22.60493 29.605588,-38.12889 0.59796,-1.76284 1.12918,-3.54832 1.59215,-5.35132"
       style="fill:none;stroke:#00ff00;stroke-width:0.264583px;stroke-linecap:butt;stroke-linejoin:miter;stroke-opacity:1" />
    <path
       inkscape:connector-curvature="0"
       id="path137"
       d="m 149.02102,250.1568 72.05403,-0.85437 0.56812,-38.94491"
       style="fill:none;stroke:#00ff00;stroke-width:1;stroke-linecap:butt;stroke-linejoin:miter;stroke-miterlimit:4;stroke-dasharray:none;stroke-opacity:1" />
    <circle
       r="0.49950001"
       cy="219.06876"
       cx="-77.522919"
       style="fill:#800000;stroke:#00ff00"
       id="path964" />
    <circle
       r="0.49950001"
       cy="359.29791"
       cx="-77.787498"
       style="fill:#000000;stroke:#00ff00"
       id="path970" />
    <circle
       r="0.49950001"
       cy="358.76874"
       cx="-80.168747"
       style="fill:#000000;stroke:#000000"
       id="path972" />
    <circle
       r="0.99900001"
       cy="356.91666"
       cx="-79.904167"
       style="fill:#000000;stroke:#000000"
       id="path974" />
    <circle
       r="0.49950001"
       cy="141.01666"
       cx="307.44583"
       style="fill:#000000;stroke:#000000"
       id="path982" />
    <circle
       r="0.49950001"
       cy="214.57083"
       cx="380.73541"
       style="fill:#000000;stroke:#000000"
       id="path984" />
    <circle
       r="0.49950001"
       cy="215.62917"
       cx="378.61874"
       style="fill:#000000;stroke:#000000"
       id="path986" />
    <circle
       r="0.49950001"
       cy="216.42291"
       cx="378.88333"
       style="fill:#000000;stroke:#000000"
       id="path988" />
    <circle
       r="0.49950001"
       cy="215.10001"
       cx="378.35416"
       style="fill:#000000;stroke:#000000"
       id="path990" />
    <circle
       r="0.49950001"
       cy="215.10001"
       cx="378.35416"
       style="fill:#000000;stroke:#000000"
       id="path992" />
    <circle
       r="0.49950001"
       cy="215.10001"
       cx="378.35416"
       style="fill:#000000;stroke:#000000"
       id="path994" />
    <circle
       r="0.49950001"
       cy="215.10001"
       cx="378.35416"
       style="fill:#000000;stroke:#000000"
       id="path996" />
    <circle
       r="0.49950001"
       cy="215.10001"
       cx="378.35416"
       style="fill:#000000;stroke:#000000"
       id="path998" />
    <circle
       r="0.49950001"
       cy="119.32083"
       cx="379.14792"
       style="fill:#000000;stroke:#000000"
       id="path1000" />
    <circle
       r="0.49950001"
       cy="120.11458"
       cx="379.41251"
       style="fill:#000000;stroke:#000000"
       id="path1002" />
    <circle
       r="0.49950001"
       cy="122.49583"
       cx="378.35416"
       style="fill:#000000;stroke:#000000"
       id="path1004" />
    <circle
       r="0.49950001"
       cy="299.23749"
       cx="389.99582"
       style="fill:#000000;stroke:#000000;stroke-width:0.1;stroke-miterlimit:4;stroke-dasharray:none"
       id="path1006" />
    <circle
       r="0.04995"
       cy="218.53958"
       cx="-75.67083"
       style="fill:#000000;stroke:#000000"
       id="path1132" />
    <path
       inkscape:connector-curvature="0"
       d="m 98.760387,237.21814 c -0.07195,-0.0651 -0.162033,-0.11462 -0.215857,-0.19537 -0.578983,-0.86867 0.516379,-2.81971 0.873479,-3.55673 1.400771,-2.47868 3.133981,-4.77495 5.142821,-6.79452 0.40316,-0.40532 0.83233,-0.78391 1.24849,-1.17586 0.41318,-0.33004 1.76717,-0.95466 1.23954,-0.99012 -0.62189,-0.0418 -1.33511,0.40215 -1.60114,0.96582 -0.19319,0.40934 0.8622,-0.29694 1.31147,-0.35205 1.57242,-0.19289 2.44669,0.3649 3.73449,1.10679 2.33015,1.7471 4.12736,4.07313 6.32778,5.96778 0.48352,0.41633 0.99682,0.79677 1.49523,1.19516 2.05428,1.48099 4.3658,2.5622 6.91213,2.80618 1.69039,0.16195 2.11661,0.006 3.79199,-0.21923 0.62169,-0.17297 1.25546,-0.30724 1.86507,-0.5189 2.57795,-0.89507 5.71855,-3.00483 7.80689,-4.3932 1.36151,-0.90516 1.29072,-0.53036 1.01225,-1.49093 0.18056,-0.26783 0.36112,-0.53566 0.54168,-0.80349 0,0 -0.0732,0.0307 -0.0732,0.0307 v 0 c -0.37583,0.34826 -0.75165,0.69651 -1.12747,1.04477 -0.74527,0.49686 -1.50382,0.97435 -2.23581,1.49057 -0.42525,0.29989 -1.53897,0.5348 -1.23386,0.95632 0.31047,0.42892 1.73939,-1.10915 1.43872,-0.67331 -0.35508,0.5147 -1.06563,0.65724 -1.62307,0.94054 -1.57626,0.80107 -1.90938,0.82266 -3.5957,1.33816 -1.60963,0.25422 -2.10003,0.42642 -3.73524,0.30942 -2.51321,-0.17982 -4.8169,-1.2047 -6.86135,-2.63093 -1.45825,-1.13969 -1.55411,-1.15849 -2.89729,-2.43215 -1.66253,-1.57648 -3.1214,-3.37296 -4.95309,-4.76576 -0.97523,-0.60424 -1.38557,-0.97897 -2.52322,-1.22048 -3.08222,-0.65429 -5.87393,1.75126 -8.08432,3.60077 -0.40827,0.39601 -0.82878,0.77977 -1.2248,1.18803 -2.004173,2.06604 -3.756974,4.39063 -5.153157,6.90771 -0.485243,1.02181 -1.49526,2.85224 -0.760552,4.00236 0.05312,0.0832 0.153138,0.1245 0.229708,0.18674 0,0 2.927358,-1.82484 2.927358,-1.82484 z"
       id="path1140"
       style="fill:#000000;stroke:#000000;stroke-width:0.1;stroke-miterlimit:4;stroke-dasharray:none" />
    <path
       inkscape:connector-curvature="0"
       d="m 138.72076,231.33748 c -1.08229,-1.09346 -2.04861,-2.29138 -3.0517,-3.45564 -0.5187,-0.63699 -1.03861,-1.27251 -1.53342,-1.92839 -0.24337,-0.32258 -0.64969,-0.72733 -0.73002,-1.13823 -0.91061,0.64002 -1.92215,1.15634 -2.73183,1.92005 -0.13666,0.1289 0.36664,0.0843 0.54528,0.14236 0.2702,0.0879 0.5345,0.19307 0.7997,0.29506 1.04618,0.40234 2.08657,0.81498 3.13818,1.20359 1.01175,0.3428 2.0265,0.67689 3.04262,1.00648 0.60828,0.1973 0.83823,0.20005 1.20036,0.71163 -0.0399,0.10491 -0.0696,0.2143 -0.1197,0.31474 -0.381,0.76371 -0.92444,1.4582 -1.41305,2.15221 -1.1279,1.60203 -0.36867,0.51081 -1.54591,2.21609 -0.84048,1.22168 -1.61476,2.48333 -2.35589,3.76682 -0.20833,0.36081 -0.6116,0.66758 -0.62212,1.08408 -0.007,0.25992 0.38774,0.3465 0.5816,0.51975 -0.0576,0.24848 -0.11524,0.49697 -0.17286,0.74545 0,0 0.0724,-0.0325 0.0724,-0.0325 v 0 c 2.40479,-3.13034 -1.62885,1.98838 2.52442,-2.5666 0.29059,-0.3187 0.44675,-0.73792 0.67583,-1.10336 0.80378,-1.28225 1.6234,-2.5561 2.48493,-3.80041 1.47917,-2.09298 0.18654,-0.2734 1.59899,-2.23667 0.45468,-0.63199 1.26918,-1.57383 1.44908,-2.36248 0.0425,-0.18645 -0.004,-0.38247 -0.006,-0.5737 -0.23873,-0.29046 -0.35678,-0.4943 -0.73263,-0.65674 -0.21995,-0.0951 -0.46497,-0.11606 -0.69692,-0.17618 -1.05063,-0.27232 -2.09525,-0.56827 -3.12085,-0.92507 -1.30435,-0.48384 -2.59003,-1.00127 -3.86619,-1.55505 -0.1883,-0.0817 -0.37632,-0.32549 -0.56506,-0.2448 -1.15666,0.49454 -2.1798,1.25625 -3.26971,1.88437 0.22996,0.43475 0.58491,0.78589 0.89794,1.16347 0.52842,0.63739 1.03711,1.29141 1.59277,1.90575 0.99436,1.18418 2.05095,2.31449 3.10464,3.44556 0,0 2.82479,-1.72166 2.82479,-1.72166 z"
       id="path1142"
       style="fill:#000000;stroke:#000000;stroke-width:0.1;stroke-miterlimit:4;stroke-dasharray:none" />
  </g>
</svg>
