<svg class="write-page" width="1010px" height="1628px" xmlns="http://www.w3.org/2000/svg" xmlns:xlink="http://www.w3.org/1999/xlink">
  <g class="write-content write-v3" width="1010" height="1628" xruling="30" yruling="30" marginLeft="30" papercolor="#1B1C1C" rulecolor="#3A00F9FF">
    <g class="ruleline write-std-ruling write-scale-down" fill="none" stroke="#00F9FF" stroke-opacity="0.227" stroke-width="1" shape-rendering="crispEdges" vector-effect="non-scaling-stroke">
      <rect class="pagerect" fill="#1B1C1C" stroke="none" x="0" y="0" width="1010" height="1628" />
      <path class="yrule_1" d="M0 30 l1010 0" />
      <path d="M0 60 l1010 0" />
      <path d="M0 90 l1010 0" />
      <path d="M0 120 l1010 0" />
      <path d="M0 150 l1010 0" />
      <path d="M0 180 l1010 0" />
      <path d="M0 210 l1010 0" />
      <path d="M0 240 l1010 0" />
      <path d="M0 270 l1010 0" />
      <path d="M0 300 l1010 0" />
      <path d="M0 330 l1010 0" />
      <path d="M0 360 l1010 0" />
      <path d="M0 390 l1010 0" />
      <path d="M0 420 l1010 0" />
      <path d="M0 450 l1010 0" />
      <path d="M0 480 l1010 0" />
      <path d="M0 510 l1010 0" />
      <path d="M0 540 l1010 0" />
      <path d="M0 570 l1010 0" />
      <path d="M0 600 l1010 0" />
      <path d="M0 630 l1010 0" />
      <path d="M0 660 l1010 0" />
      <path d="M0 690 l1010 0" />
      <path d="M0 720 l1010 0" />
      <path d="M0 750 l1010 0" />
      <path d="M0 780 l1010 0" />
      <path d="M0 810 l1010 0" />
      <path d="M0 840 l1010 0" />
      <path d="M0 870 l1010 0" />
      <path d="M0 900 l1010 0" />
      <path d="M0 930 l1010 0" />
      <path d="M0 960 l1010 0" />
      <path d="M0 990 l1010 0" />
      <path d="M0 1020 l1010 0" />
      <path d="M0 1050 l1010 0" />
      <path d="M0 1080 l1010 0" />
      <path d="M0 1110 l1010 0" />
      <path d="M0 1140 l1010 0" />
      <path d="M0 1170 l1010 0" />
      <path d="M0 1200 l1010 0" />
      <path d="M0 1230 l1010 0" />
      <path d="M0 1260 l1010 0" />
      <path d="M0 1290 l1010 0" />
      <path d="M0 1320 l1010 0" />
      <path d="M0 1350 l1010 0" />
      <path d="M0 1380 l1010 0" />
      <path d="M0 1410 l1010 0" />
      <path d="M0 1440 l1010 0" />
      <path d="M0 1470 l1010 0" />
      <path d="M0 1500 l1010 0" />
      <path d="M0 1530 l1010 0" />
      <path d="M0 1560 l1010 0" />
      <path d="M0 1590 l1010 0" />
      <path d="M0 1620 l1010 0" />
      <path class="xrule_1" d="M30 0 l0 1628" />
      <path d="M60 0 l0 1628" />
      <path d="M90 0 l0 1628" />
      <path d="M120 0 l0 1628" />
      <path d="M150 0 l0 1628" />
      <path d="M180 0 l0 1628" />
      <path d="M210 0 l0 1628" />
      <path d="M240 0 l0 1628" />
      <path d="M270 0 l0 1628" />
      <path d="M300 0 l0 1628" />
      <path d="M330 0 l0 1628" />
      <path d="M360 0 l0 1628" />
      <path d="M390 0 l0 1628" />
      <path d="M420 0 l0 1628" />
      <path d="M450 0 l0 1628" />
      <path d="M480 0 l0 1628" />
      <path d="M510 0 l0 1628" />
      <path d="M540 0 l0 1628" />
      <path d="M570 0 l0 1628" />
      <path d="M600 0 l0 1628" />
      <path d="M630 0 l0 1628" />
      <path d="M660 0 l0 1628" />
      <path d="M690 0 l0 1628" />
      <path d="M720 0 l0 1628" />
      <path d="M750 0 l0 1628" />
      <path d="M780 0 l0 1628" />
      <path d="M810 0 l0 1628" />
      <path d="M840 0 l0 1628" />
      <path d="M870 0 l0 1628" />
      <path d="M900 0 l0 1628" />
      <path d="M930 0 l0 1628" />
      <path d="M960 0 l0 1628" />
      <path d="M990 0 l0 1628" />
      <path class="leftmargin" stroke="#FF0000" d="M30 0 l0 1628" />
    </g>
    <path class="write-flat-pen" fill="#FFFFFF" stroke-width="2" __comx="109.662" __comy="46.592" __timestamp="0x17945348575" d="M114.786 36.052 l1.076 -0.962 0.153 -0.305 0.377 -2.089 -0.212 -0.586 -1.566 -1.454 -2.464 0.068 -3.724 1.528 -4.058 2.841 -2.823 3.034 -2.421 4.068 -1.144 4.368 0.367 3.633 1.395 3.166 2.121 2.248 3.346 1.372 3.958 0.057 4.22 -1.236 4.534 -2.501 3.421 -3.048 -0.341 -0.514 -4.066 1.92 -4.31 2.29 -3.729 1.093 -3.28 -0.047 -2.599 -1.065 -1.591 -1.685 -1.13 -2.564 -0.3 -2.962 0.981 -3.749 2.168 -3.646 2.534 -2.728 3.704 -2.603 3.192 -1.339 1.366 -0.083 0.764 0.574 -0.063 -0.201 0.063 1.526 0.033 -0.006 -0.495 1.19" />
    <path class="write-flat-pen" fill="#FFFFFF" stroke-width="2" __comx="128.167" __comy="46.592" __timestamp="0x179453487af" d="M128.948 47.428 l-0.826 -1.323 -0.416 -0.248 -4.098 -0.327 -0.548 0.297 -1.366 1.496 -0.6 2.528 0.965 1.914 2.213 0.843 2.195 -0.659 2.121 -1.971 0 0 -1.51 -0.247 1.616 2.989 1.927 1.461 1.844 -0.064 2.776 -1.374 -0.112 -0.44 -2.873 0.062 -0.975 -0.096 -1.079 -0.838 -1.423 -2.621 -1.51 -0.247 0 0 -1.788 1.673 -1.143 0.352 -0.93 -0.338 -0.351 -0.65 0.291 -1.436 0.808 -0.98 -0.128 0.063 3.347 -0.117 -0.008 -0.036 1.111 0.767" />
    <path class="write-flat-pen" fill="#FFFFFF" stroke-width="2" __comx="146.01" __comy="46.592" __timestamp="0x17945348aab" d="M134.821 42.485 l0.993 0.331 -0.472 -0.179 -0.22 0.617 0.072 -0.103 0 0 -2.26 1.928 0 0 0.802 1.665 3.813 -0.646 3.068 0.251 1.73 0.753 0.951 1.121 0.276 1.6 -0.501 1.285 0 0 -1.398 1.281 0 0 -1.158 0.286 0 0 0.989 1.605 5.96 -6.932 0 0 0.803 -1.853 0 0 -1.687 -1.003 -1.115 1.426 -0.477 2.624 0.7 2.137 1.712 1.528 2.383 0.626 4.877 -1.246 0.904 -0.493 3.521 -2.198 -0.239 -0.528 -3.974 1.199 -0.808 0.284 -4.258 0.946 -1.44 -0.385 -0.96 -0.857 -0.379 -1.153 0.298 -1.65 0.814 -1.041 -1.687 -1.003 0 0 -0.684 1.577 0 0 -5.764 6.704 0.989 1.605 0 0 1.647 -0.41 0 0 2.104 -1.937 0 0 0.859 -2.225 -0.468 -2.663 -1.592 -1.871 -2.444 -1.063 -3.64 -0.295 -4.052 0.719 0.802 1.665 0 0 2.291 -2.113 0 0 0.367 -0.466 -0.046 -2.203 -0.676 -0.268 -1.267 0.176" />
    <path class="write-flat-pen" fill="#FFFFFF" stroke-width="2" __comx="175.872" __comy="46.592" __timestamp="0x17945348dda" d="M169.306 40.654 l-1.171 -0.626 0.192 0.148 0.054 -1.1 -0.046 0.133 1.126 -1.197 2.806 -1.321 2.744 -0.456 1.38 0.31 0.849 0.755 0.456 1.432 -0.211 1.528 0 0 -2.418 2.971 0 0 0.616 1.614 4.422 0.711 2.127 1.002 0.703 0.911 0.157 1.215 -0.605 1.618 -2.017 2.362 -2.625 1.664 -3.055 0.844 -2.238 -0.217 -1.492 -0.972 -0.791 -1.353 0.1 -2.415 0.065 -0.205 1.077 -3.412 -0.378 -0.205 -2.276 2.76 -0.333 0.528 -0.28 3.424 1.327 2.293 2.301 1.5 3.095 0.301 3.698 -1.022 3.131 -1.985 2.44 -2.86 0.901 -2.413 -0.292 -2.242 -1.327 -1.719 -2.817 -1.328 -4.701 -0.756 0.616 1.614 0 0 2.765 -3.407 0 0 0.344 -2.528 -0.767 -2.378 -1.645 -1.446 -2.254 -0.493 -3.389 0.588 -3.37 1.665 -1.457 1.758 -0.237 0.555 0.432 2.004 0.425 0.379 1.652 0.157" />
    <path class="write-flat-pen" fill="#FFFFFF" stroke-width="2" __comx="198.676" __comy="46.592" __timestamp="0x17945348f62" d="M198.355 53.201 l-0.462 0.923 -0.275 1.113 0.378 0.348 1.271 -0.567 0.466 -1.219" />
    <path class="write-flat-pen" fill="#FFFFFF" stroke-width="2" __comx="193.985" __comy="46.592" __timestamp="0x17945348ffe" d="M196.081 37.67 l-1.592 -1.125 -2.453 -0.203 -0.146 0.401 1.795 1.342 1.406 0.99" />
    <path class="write-flat-pen" fill="#FFFFFF" stroke-width="2" __comx="242.462" __comy="46.637" __timestamp="0x1794534dc58" d="M241.796 35.624 l0.323 -2.446 0.03 -0.057 -1.107 0.168 0.231 1.092 0.078 0.364 1.067 6.68 0.202 6.54 -0.985 4.692 -1.174 3.456 0.311 0.178 2.517 -2.997 1.17 -5.161 -0.246 -6.892 -1.273 -6.845 -0.162 -0.534 -0.673 -1.026 -1.107 0.168 0.013 0.115 0.288 2.503" />
    <path class="write-flat-pen" fill="#FFFFFF" stroke-width="2" __comx="254.961" __comy="46.637" __timestamp="0x1794534dfe9" d="M239.727 39.616 l-0.949 -2.298 0.164 -2.647 1.129 -2.789 2.398 -3.031 2.735 -2.053 2.69 -0.905 1.889 0.209 1.516 0.959 1.069 1.875 0.297 2.697 -0.862 3.685 -1.654 3.355 -2.553 3.019 -3.38 2.516 -2.156 0.769 -0.021 -0.011 0.01 0.072 0.678 -0.613 1.626 -0.289 2.459 0.726 2.193 1.586 2.299 2.993 2.785 6.266 2.621 1.223 0.688 -0.302 6.399 -5.782 1.851 -2.513 0.268 -2.346 -1.476 -1.49 -1.996 0.261 -1.8 1.731 -1.076 2.729 0.117 2.761 1.299 2.403 2.173 1.335 5.493 -0.706 0.507 -0.245 3.488 -2.038 -0.111 -0.29 -3.954 0.825 -0.333 0.079 -4.645 0.4 -1.176 -0.725 -0.847 -1.563 -0.087 -1.917 0.769 -1.972 1.049 -1.022 0.466 -0.071 0.219 0.198 -0.08 1.01 -1.374 2.052 -6.017 5.499 0.276 -0.136 -1.226 -0.782 -2.585 -5.875 -2.621 -3.398 -2.697 -1.936 -3.212 -0.936 -2.612 0.47 -1.79 1.629 0.195 2.024 1.762 0.722 3.107 -1.12 3.77 -2.826 2.827 -3.369 1.831 -3.758 0.962 -4.199 -0.386 -3.379 -1.487 -2.585 -2.249 -1.415 -2.695 -0.294 -3.337 1.128 -3.145 2.376 -2.672 3.438 -1.259 3.325 -0.007 3.311 1.402 2.488" />
    <path class="write-flat-pen" fill="#FFFFFF" stroke-width="2" __comx="274.719" __comy="46.637" __timestamp="0x1794534e177" d="M274.93 51.514 l-0.09 -2.185 -0.087 -0.3 -1.24 -1.391 -1.958 0.623 -1.326 2.262 -0.201 2.702 0.959 1.834 1.916 0.653 2.987 -1.647 0.103 0.012 0.816 1.661 2.224 2.41 0.377 -0.226 -1.032 -3.008 -1.108 -2.574 -1.754 -0.217 -2.794 1.541 -0.424 -0.14 -0.374 -0.698 0.108 -1.756 0.735 -1.337 0.265 -0.13 0.325 0.245 -0.046 -0.167 0.564 1.998" />
    <path class="write-flat-pen" fill="#FFFFFF" stroke-width="2" __comx="287.397" __comy="46.637" __timestamp="0x1794534e296" d="M285.216 46.871 l-1.351 -1.202 -0.678 0.243 -1.307 1.55 -0.42 2.479 0.77 2.414 1.553 1.352 2.351 0.443 4.495 -2.255 2.705 -2.985 -0.228 -0.275 -3.285 1.983 -3.919 1.669 -1.309 -0.25 -0.82 -0.703 -0.515 -1.536 0.221 -1.647 0.647 -0.974 -0.443 0.153 0.999 0.35" />
    <path class="write-flat-pen" fill="#FFFFFF" stroke-width="2" __comx="300.721" __comy="46.637" __timestamp="0x1794534e434" d="M291.225 32.522 l1.58 4.212 0.269 0.736 0 0 3.367 13.224 0 0 0.976 1.211 0 0 1.649 -0.292 1.551 -4.681 1.085 -1.399 1.116 -0.491 1.128 0.272 1.333 1.502 2.038 5.049 2.517 3.4 0.381 -0.198 -1.298 -3.93 -2.03 -5.31 -1.947 -2.18 -2.299 -0.543 -2.108 0.93 -1.57 2.008 -1.708 4.96 1.649 -0.292 0 0 -0.714 -0.895 0 0 -3.424 -12.891 0 0 -0.343 -0.846 -1.935 -4.091" />
    <path class="write-flat-pen" fill="#FFFFFF" stroke-width="2" __comx="345.264" __comy="46.637" __timestamp="0x1794534e726" d="M341.141 48.035 l2.586 -0.552 0.233 -0.108 1.355 -1.006 0.314 -1.84 -1.631 -1.155 -2.794 0.261 -2.256 1.24 -1.771 2.165 -0.931 2.92 0.218 2.585 1.304 2.327 2.077 1.063 2.737 -0.348 3.002 -1.926 2.712 -3.573 -0.23 0.055 2.675 5.151 3.295 2.265 0.246 -0.254 -2.157 -3.02 -3.016 -6.362 -1.925 0.459 -2.92 3.851 -2.352 1.513 -1.726 0.225 -1.046 -0.529 -0.833 -1.467 -0.164 -1.807 0.696 -2.234 1.31 -1.631 1.612 -0.92 1.803 -0.234 0.358 0.169 0.057 0.347 -0.673 0.767 -0.026 0.032 -2.291 1.128" />
    <path class="write-flat-pen" fill="#FFFFFF" stroke-width="2" __comx="384.005" __comy="46.637" __timestamp="0x1794534e9d2" d="M380.349 30.602 l-0.698 -0.239 0.168 1.283 0.128 0.457 1.983 6.489 0 0 0.298 0.894 0 0 2.962 10.055 0 0 1.592 -0.908 -2.079 -2.275 -3.026 -1.68 -2.419 -0.31 -2.009 0.783 -1.556 1.939 -0.798 2.935 0.432 2.897 1.699 2.597 2.586 1.618 2.973 0.355 3.499 -0.958 3.955 -2.756 0.375 -0.405 2.702 -3.33 -0.214 -0.235 -3.566 2.381 -0.342 0.248 -3.709 2.33 -2.843 0.757 -2.171 -0.259 -1.864 -1.16 -1.243 -1.887 -0.319 -2.083 0.584 -2.165 0.986 -1.232 1.081 -0.423 1.576 0.201 2.439 1.353 1.886 2.035 1.592 -0.908 0 0 -3.102 -10.05 0 0 -0.329 -0.913 0 0 -2.349 -6.374 -0.199 -0.444 -0.682 -1.096 -0.698 0.481" />
    <path class="write-flat-pen" fill="#FFFFFF" stroke-width="2" __comx="395.348" __comy="46.637" __timestamp="0x1794534ea9c" d="M393.467 45.624 l0.689 3.822 0.111 0.509 1.31 4.117 1.561 0.724 0.092 -0.087 -0.408 -1.355 -1.028 -3.809 -0.125 -0.468 -1.159 -3.71" />
    <path class="write-flat-pen" fill="#FFFFFF" stroke-width="2" __comx="396.576" __comy="46.637" __timestamp="0x1794534eb1a" d="M396.342 35.579 l-0.545 1.459 0.007 2.301 0.057 0.012 0.893 -2.021 0.6 -1.337" />
    <path class="write-flat-pen" fill="#FFFFFF" stroke-width="2" __comx="405.347" __comy="46.637" __timestamp="0x1794534ecbe" d="M405.828 42.758 l-1.798 -0.357 -0.249 0.038 0 0 -0.613 0.322 0 0 -0.065 1.218 4.336 3.597 1.22 1.695 0.078 1.143 -0.633 0.829 -2.186 1.005 -4.481 0.564 -1.186 -0.282 -0.157 0.137 0.667 1.845 5.659 -0.43 2.892 -1.368 1.288 -1.786 -0.248 -2.306 -1.687 -2.227 -4.623 -3.587 -0.065 1.218 0 0 0.311 -0.269 0 0 -0.171 0.025 1.679 -0.219" />
    <path class="write-flat-pen" fill="#FFFFFF" stroke-width="2" __comx="414.128" __comy="46.637" __timestamp="0x1794534ed87" d="M411.636 34.557 l0.494 4.469 0.134 0.848 2.443 13.651 1.615 3.891 0.298 -0.069 -0.246 -4.165 -2.459 -13.599 -0.153 -0.827 -0.911 -4.393" />
    <path class="write-flat-pen" fill="#FFFFFF" stroke-width="2" __comx="415.126" __comy="46.637" __timestamp="0x1794534ee51" d="M410.553 44.457 l5.377 0.872 3.739 0.236 0.03 -0.141 -3.544 -1.298 -5.401 -0.894" />
    <path class="write-flat-pen" fill="#FFFFFF" stroke-width="2" __comx="430.059" __comy="46.637" __timestamp="0x1794534f129" d="M427.783 44.922 l-2.214 -0.155 -0.236 -0.001 -2.345 0.297 -1.8 1.451 -0.697 2.306 0.582 2.201 1.715 1.224 0 0 2.164 -0.348 0 0 2.782 -4.045 0 0 -1.616 -0.5 0.006 3.718 1.069 1.945 2.223 -0.795 0.044 -0.036 0.469 -0.083 0.752 1.084 0 0 1.273 -0.158 2.469 -4.551 0.989 -0.94 0.243 0.002 1.673 3.368 1.865 3.1 0.431 -0.162 -0.665 -3.644 -2.192 -4.471 -2.083 0.024 -1.709 1.644 -2.403 4.92 1.273 -0.158 0 0 -1.46 -1.431 -1.396 0.307 -0.073 0.04 -0.857 -0.006 -0.172 -0.433 0.001 -3.286 -1.616 -0.5 0 0 -2.346 3.435 0 0 -0.719 0.128 0 0 -0.647 -0.438 -0.337 -1.147 0.366 -1.411 1.049 -0.968 1.838 -0.435 0.168 -0.024 2.18 -0.455" />
    <path class="write-flat-pen" fill="#FFFFFF" stroke-width="2" __comx="448.885" __comy="46.637" __timestamp="0x1794534f25d" d="M447.603 44.051 l-0.801 -1.988 -0.941 0.206 -1.348 1.321 -0.572 2.39 0.534 3.022 1.382 1.951 1.991 1.047 2.923 -0.276 3.057 -1.617 -0.031 -0.098 -3.257 0.389 -2.297 -0.079 -1.2 -0.695 -0.909 -1.315 -0.422 -2.288 0.341 -1.599 0.619 -0.726 -0.675 0.144 0.654 0.72" />
    <path class="write-flat-pen" fill="#FFFFFF" stroke-width="2" __comx="456.869" __comy="46.637" __timestamp="0x1794534f3a7" d="M451.701 47.696 l1.998 0.761 0.393 0.001 2.443 -0.63 2.05 -1.629 0.464 -1.832 -1.369 -1.246 -1.978 0.476 -1.762 1.97 -1.036 2.887 0.303 2.278 1.381 1.494 3.782 0.653 3.667 -0.624 -0.005 -0.309 -3.518 -0.515 -2.997 -0.824 -0.61 -0.672 -0.177 -1.291 0.756 -2.165 1.156 -1.325 0.562 -0.147 -0.054 -0.059 -0.064 0.306 -1.318 1.137 -1.908 0.678 -0.026 0.016 -1.943 -0.185" />
    <path class="write-flat-pen" fill="#FFFFFF" stroke-width="2" __comx="480.941" __comy="46.637" __timestamp="0x1794534f5d6" d="M476.985 46.416 l-0.045 -0.823 -0.535 0.393 6.327 -0.14 3.981 -0.09 0.023 -0.149 -3.906 -1.298 -6.909 0.195 -0.775 0.56 0.994 1.699" />
    <path class="write-flat-pen" fill="#FFFFFF" stroke-width="2" __comx="483.937" __comy="46.637" __timestamp="0x1794534f689" d="M478.672 48.093 l-0.874 1.057 8.072 1.648 4.171 0.059 0.033 -0.231 -3.984 -1.111 -8.049 -1.58 0.328 1.36" />
    <path class="write-flat-pen" fill="#FFFFFF" stroke-width="2" __comx="503.87" __comy="46.637" __timestamp="0x1794534f8b1" d="M502.995 37.959 l-0.146 -1.82 0 0 -1.27 0.409 3.676 8.118 0 0 0.353 0.829 0 0 2.813 5.817 0 0 1.074 -1.269 -3.504 -1.046 -4.208 -0.183 -3.044 0.693 -2.198 1.425 -1.271 2.112 0.176 2.152 1.553 1.591 2.677 0.849 8.759 -1.639 4.032 -1.744 -0.124 -0.44 -4.267 0.602 -8.27 1.291 -1.802 -0.561 -0.77 -0.771 -0.085 -0.896 0.74 -1.247 1.569 -1.024 2.489 -0.568 3.739 0.167 3.29 0.977 1.074 -1.269 0 0 -2.854 -5.75 0 0 -0.358 -0.819 0 0 -4.046 -7.978 -1.27 0.409 0 0 0.492 1.759" />
    <path class="write-flat-pen" fill="#FFFFFF" stroke-width="2" __comx="549.932" __comy="46.637" __timestamp="0x1794534fb91" d="M541.488 33.697 l-1.172 -0.199 1.389 3.059 0.363 0.746 3.193 7.458 2.329 7.743 0 0 0.686 4.625 0 0 -0.227 0.257 0 0 1.606 0.243 -0.764 -1.971 -0.068 -2.619 0.599 -1.876 1.182 -1.384 2.022 -0.943 1.805 -0.045 1.739 0.747 1.046 1.293 0.375 1.644 -0.389 1.978 -1.066 1.677 -2.089 1.477 -2.041 0.587 -2.203 -0.135 -0.71 -0.493 -0.063 -0.203 1.137 -1.62 0.375 -0.336 0.462 -0.363 2.644 -2.262 -0.086 -0.145 -3.249 1.246 -0.592 0.264 -0.672 0.407 -2.026 2.299 0.313 1.829 1.788 1.289 3.099 0.189 2.681 -0.777 2.663 -1.899 1.455 -2.311 0.524 -2.735 -0.575 -2.468 -1.625 -1.993 -2.548 -1.092 -2.614 0.062 -2.757 1.281 -1.7 1.99 -0.812 2.548 0.091 3.272 0.901 2.274 1.606 0.243 0 0 0.707 -0.911 0 0 -0.886 -5.543 0 0 -2.459 -7.939 -3.329 -7.556 -0.415 -0.797 -1.802 -2.862 -0.981 0.938" />
    <path class="write-flat-pen" fill="#FFFFFF" stroke-width="2" __comx="566.609" __comy="46.637" __timestamp="0x1794534fd3b" d="M571.502 44.026 l-1.901 -1.042 -0.603 0.016 -2.64 0.556 -2.34 1.544 -1.994 2.747 -0.927 2.978 0.232 3.128 1.175 1.68 1.989 0.579 2.042 -0.781 2.057 -2.133 1.927 -3.539 0 0 -1.769 -0.313 1.01 5.966 2.254 1.685 0.107 -0.082 -0.788 -2.271 -0.709 -5.577 -1.769 -0.313 0 0 -1.803 3.314 -1.589 1.64 -1.052 0.4 -0.736 -0.212 -0.499 -0.706 -0.182 -2.255 0.711 -2.356 1.595 -2.261 1.772 -1.231 2.158 -0.574 0.095 -0.022 1.743 0.479" />
    <path class="write-flat-pen" fill="#FFFFFF" stroke-width="2" __comx="579.938" __comy="46.637" __timestamp="0x1794534fec9" d="M578.734 31.138 l-0.413 3.841 1.183 7.413 1.944 6.518 0 0 1.073 1.515 0 0 1.536 -0.768 -0.47 -1.454 -2.355 -1.4 -3.142 -0.549 -2.34 0.462 -2.25 1.53 -1.184 2.128 0.223 2.271 1.786 2.057 3.238 1.164 5.223 -0.327 0.903 -0.277 3.871 -1.394 -0.064 -0.301 -4.104 0.293 -0.806 0.084 -4.739 0.077 -2.449 -0.89 -1.106 -1.251 -0.135 -1.138 0.68 -1.292 1.596 -1.12 1.678 -0.34 2.516 0.442 1.517 0.914 0.256 0.837 1.536 -0.768 0 0 -0.92 -1.275 0 0 -1.886 -6.13 -1.281 -7.097 0.201 -3.667" />
    <path class="write-flat-pen" fill="#FFFFFF" stroke-width="2" __comx="623.039" __comy="46.637" __timestamp="0x179453500f3" d="M613.09 44.582 l2.148 1.81 2.386 3.531 2.266 6.333 0 0 1.592 -0.85 -0.01 -0.029 -1.31 -4.527 -0.597 -5.348 0.32 -2.547 0.81 -1.533 1.406 -1.031 1.66 -0.259 3.834 1.141 0.502 0.246 1.088 0.56 3.703 1.73 0.102 -0.154 -3.05 -2.742 -1.013 -0.769 -0.644 -0.413 -4.354 -1.542 -2.578 0.36 -2.164 1.564 -1.191 2.247 -0.382 3.134 0.678 5.738 1.507 4.954 0.196 0.264 1.592 -0.85 0 0 -2.656 -6.37 -2.699 -3.773 -2.426 -1.783" />
    <path class="write-flat-pen" fill="#FFFFFF" stroke-width="2" __comx="636.675" __comy="46.637" __timestamp="0x1794535026b" d="M632.535 46.412 l0.48 1.909 2.06 0.602 2.335 -0.981 2.016 -2.282 0.743 -2.473 -0.519 -1.895 -1.707 -1.321 -2.425 -0.129 -2.208 1.179 -1.681 2.199 -1.247 3.849 0.044 2.949 1.041 2.545 1.748 1.399 2.735 0.266 3.753 -1.733 0.515 -0.456 2.748 -2.712 -0.096 -0.132 -3.43 1.772 -0.455 0.248 -3.296 1.191 -1.733 -0.223 -0.938 -0.771 -0.721 -1.774 -0.034 -2.285 1.048 -3.251 1.237 -1.623 1.39 -0.741 1.322 0.072 0.752 0.582 0.216 0.778 -0.462 1.581 -1.453 1.702 -1.383 0.647 -0.651 -0.108 -0.439 -0.992" />
    <path class="write-flat-pen" fill="#FFFFFF" stroke-width="2" __comx="646.164" __comy="47.475" __timestamp="0x17945350455" d="M651.751 44.216 l-1.496 -1.835 -0.45 -0.256 -3.035 -0.884 -2.695 0.357 -1.84 1.539 -0.792 1.992 0.461 2.373 1.54 1.317 4.964 -0.315 1.259 0.409 0.975 1.269 0.813 3.295 -0.128 4.382 -1.189 5.246 -1.455 3.042 -1.76 1.845 -2.334 1.147 -1.786 0.07 -1.166 -0.627 -0.65 -1.35 0.18 -2.262 1.099 -2.818 3.615 -5.009 0.572 -0.641 0.613 -0.694 2.664 -3.241 -0.132 -0.142 -3.425 2.423 -0.75 0.574 -0.753 0.654 -4.067 5.138 -1.343 3.307 -0.269 3.077 1.149 2.412 2.205 1.187 2.74 -0.115 3.012 -1.496 2.202 -2.328 1.669 -3.52 1.255 -5.643 0.116 -4.827 -1.008 -3.915 -1.585 -2 -2.122 -0.657 -4.586 0.322 -0.539 -0.451 -0.255 -1.273 0.437 -1.117 1.119 -0.953 1.863 -0.278 2.564 0.634 0.107 0.043 1.675 1.337" />
    <path class="write-flat-pen" fill="#FFFFFF" stroke-width="2" __comx="660.594" __comy="47.475" __timestamp="0x17945350518" d="M660.168 43.966 l-0.397 2.894 -0.014 0.495 0 0.01 0.265 4.058 1.244 -0.439 -0.445 -0.532 -1.051 0.797 0.392 0.572 1.244 -0.439 0.025 -4.038 0 0.01 -0.009 -0.441 -0.053 -2.875" />
    <path class="write-flat-pen" fill="#FFFFFF" stroke-width="2" __comx="661.722" __comy="47.475" __timestamp="0x17945350595" d="M661.261 32.682 l-0.111 1.571 0.293 2.355 0.103 0.006 0.556 -2.288 0.191 -1.544" />
    <path class="write-flat-pen" fill="#FFFFFF" stroke-width="2" __comx="667.885" __comy="47.475" __timestamp="0x179453506e0" d="M672.472 42.366 l-1.191 -1.363 -2.221 -0.109 -2.401 1.063 -2.178 2.397 -1.182 3.072 0.014 2.436 1.164 1.96 2.061 0.673 2.177 -1.003 1.803 -2.565 0.727 -2.827 -0.731 -2.05 -1.89 -0.96 -0.138 0.125 0.526 1.698 0.304 1.239 -0.511 1.989 -1.313 1.9 -1.082 0.524 -0.772 -0.223 -0.621 -0.972 -0.051 -1.657 0.899 -2.529 1.702 -2.004 1.785 -0.865 1.386 -0.021 1.03 0.796" />
    <path class="write-flat-pen" fill="#FFFFFF" stroke-width="2" __comx="683.761" __comy="47.475" __timestamp="0x17945350812" d="M673.745 45.551 l-0.02 3.224 0 0 -0.011 0.152 0 0 -0.163 0.978 0 0 1.736 0.564 1.598 -2.661 1.581 -1.368 1.858 -0.661 1.514 0.197 1.716 1.087 5.974 9.332 0.465 0.573 0.514 0.472 3.257 2.635 0.21 -0.19 -2.302 -3.501 -0.359 -0.491 -0.315 -0.495 -6.015 -9.759 -2.461 -1.559 -2.415 -0.312 -2.65 0.949 -2.097 1.831 -1.687 2.983 1.736 0.564 0 0 0.044 -1.061 0 0 -0.002 -0.29 0 0 -0.391 -3.268" />
    <path class="write-stroke-pen" fill="none" stroke="#FFFFFF" stroke-width="1.6" stroke-linecap="round" stroke-linejoin="round" __comx="399.763" __comy="68.7" __timestamp="0x17945351519" d="M91.052 70.403 l617.421 -2.871" />
    <path class="write-flat-pen" fill="#FFFFFF" stroke-width="2" __comx="130.573" __comy="136.845" __timestamp="0x1794744094d" d="M128.821 122.574 l0.658 -0.812 0 0 -1.274 -0.058 1.249 2.885 0.219 0.701 1.301 6.701 0.408 6.249 -1.226 9.853 -0.491 2.038 0.272 0.185 1.95 -1.565 1.452 -10.449 -0.455 -6.568 -1.446 -6.917 -0.322 -0.917 -1.605 -2.848 -1.274 -0.058 0 0 -0.43 0.952" />
    <path class="write-flat-pen" fill="#FFFFFF" stroke-width="2" __comx="136.719" __comy="136.845" __timestamp="0x17947440b47" d="M129.861 127.973 l-0.315 -1.819 -0.02 -0.172 -0.429 -2.756 -0.009 -0.138 0.177 -1.864 0.873 -1.065 2.317 -0.822 4.36 0.126 4.349 1.001 1.896 1.028 0.882 1.37 0.091 1.572 -0.735 2.13 -2.236 2.985 -3.29 2.85 -3.107 1.704 -1.126 0.141 -0.436 -0.312 -0.051 0.166 -0.645 -2.135 -0.349 -0.009 -0.76 2.098 -0.065 0.678 1.65 1.582 2.399 -0.299 3.618 -1.992 3.6 -3.133 2.53 -3.407 0.946 -2.781 -0.151 -2.454 -1.423 -2.204 -2.558 -1.385 -4.791 -1.095 -4.909 -0.118 -3.139 1.164 -1.488 1.967 -0.061 2.603 0.072 0.368 0.91 2.725 0.089 0.212 0.926 1.638" />
    <path class="write-flat-pen" fill="#FFFFFF" stroke-width="2" __comx="149.271" __comy="136.845" __timestamp="0x17947440da4" d="M145.005 141.319 l0.493 0.263 -0.187 -0.258 0.582 2.592 0 0 -0.007 -0.001 0 0 -0.035 0.634 0 0 1.779 -0.251 -1.062 -5.364 -0.051 -4.146 0.457 -0.839 0.823 -0.415 2.64 0.856 0.12 0.057 3.252 1.704 0.203 -0.252 -2.362 -2.811 -0.317 -0.294 -3.665 -1.41 -2.137 1.074 -0.998 1.841 0.078 4.855 1.258 5.519 1.779 -0.251 0 0 -0.13 -0.715 0 0 -0.042 -0.188 0 0 -1.095 -2.69 -0.313 -0.46 -1.127 0.481" />
    <path class="write-flat-pen" fill="#FFFFFF" stroke-width="2" __comx="161.403" __comy="136.845" __timestamp="0x17947440f6e" d="M156.823 139.943 l1.38 1.835 0.658 0.118 1.972 -0.511 1.759 -1.926 1.179 -3.024 -0.321 -2.072 -1.449 -1.178 -2.112 0.211 -1.984 1.495 -1.821 2.987 -1.03 3.66 0.332 2.962 1.565 1.975 2.391 0.762 2.737 -0.583 3.479 -2.611 0.283 -0.401 1.915 -3.486 -0.207 -0.17 -3.06 2.542 -0.191 0.173 -3.042 2.099 -1.814 0.382 -1.313 -0.416 -0.838 -1.053 -0.231 -2.014 0.84 -3.033 1.473 -2.448 1.249 -0.95 0.781 -0.082 0.26 0.207 0.136 0.834 -0.842 2.238 -1.135 1.324 -1.071 0.38 0.287 0.059 -1.31 -1.112" />
    <path class="write-flat-pen" fill="#FFFFFF" stroke-width="2" __comx="181.533" __comy="136.845" __timestamp="0x17947441211" d="M175.267 131.41 l-2.169 0.096 -0.423 0.231 -1.397 1.359 -0.071 1.994 5.658 2.74 1.045 1.008 0.252 1.235 -0.645 1.718 -1.63 1.753 0 0 -1.963 1.003 0 0 1.221 1.526 1.21 -1.451 6.637 -4.583 2.293 -2.438 0 0 0.69 -2.253 0 0 -1.848 -0.712 -0.961 2.039 -0.142 3.09 1.143 2.105 3.429 1.172 0.596 -0.073 0.255 -0.053 3.415 -1.098 -0.024 -0.247 -3.563 -0.412 -0.237 -0.005 -0.18 -0.016 -2.3 -0.888 -0.515 -0.948 0.096 -2.139 0.786 -1.683 -1.848 -0.712 0 0 -0.553 1.811 0 0 -1.831 1.947 -6.693 4.61 -1.385 1.661 1.221 1.526 0 0 2.273 -1.169 0 0 2.127 -2.305 0.969 -2.619 -0.496 -2.382 -1.711 -1.644 -4.849 -2.299 -0.021 -0.028 0.642 -0.73 -0.096 0.043 1.778 -0.437" />
    <path class="write-flat-pen" fill="#FFFFFF" stroke-width="2" __comx="200.676" __comy="136.845" __timestamp="0x17947441368" d="M195.879 134.505 l-0.521 2.735 0.006 0.427 0.002 0.037 0.683 5.07 0 0 1.933 -0.108 0.009 -0.13 -0.171 -4.481 0.568 -2.371 0.823 -1.067 2.577 -0.746 0.219 0.004 0.278 0.019 3.667 -0.046 0.046 -0.243 -3.398 -1.379 -0.278 -0.086 -0.609 -0.139 -3.652 0.87 -1.5 1.938 -0.729 3.054 0.208 4.671 0.001 0.047 1.933 -0.108 0 0 -0.897 -4.94 0.002 0.037 -0.026 -0.273 0.074 -2.653" />
    <path class="write-flat-pen" fill="#FFFFFF" stroke-width="2" __comx="213.885" __comy="136.845" __timestamp="0x1794744149f" d="M208.02 133.31 l0.56 5.022 0.216 0.711 1.612 3.975 1.9 2.057 1.938 0.402 1.659 -0.899 1.495 -2.53 1.932 -7.528 0.419 -4.21 -0.18 -0.053 -1.938 3.784 -2.038 7.25 -1.082 1.851 -0.573 0.323 -0.668 -0.122 -1.294 -1.345 -1.566 -3.556 -0.176 -0.5 -0.927 -4.826" />
    <path class="write-flat-pen" fill="#FFFFFF" stroke-width="2" __comx="235.106" __comy="136.845" __timestamp="0x17947441640" d="M225.479 139.752 l1.951 0.963 0.419 0.076 2.586 -0.135 2.241 -1.163 1.29 -2.028 0.094 -2.304 -0.997 -1.658 -2.013 -0.61 -2.08 1.222 -1.462 2.569 -0.482 3.169 0.679 2.618 1.676 2.218 2.747 1.575 3.571 0.566 5.003 -1.285 0.776 -0.505 3.258 -2.563 -0.208 -0.375 -3.899 1.406 -0.619 0.269 -4.395 1.017 -2.811 -0.446 -2.076 -1.188 -1.196 -1.575 -0.489 -1.842 0.341 -2.423 0.991 -1.85 0.929 -0.597 0.577 0.16 0.362 0.597 -0.043 1.294 -0.757 1.26 -1.494 0.867 -2.068 0.294 -0.122 0.003 -1.993 -0.411" />
    <path class="write-flat-pen" fill="#FFFFFF" stroke-width="2" __comx="566.712" __comy="140.506" __timestamp="0x17947444fd2" d="M565.509 142.115 l-0.166 1.333 0.052 0.315 0.911 4.552 -0.05 2.752 -0.389 3.687 0.199 0.061 1.81 -3.469 0.206 -3.192 -1.206 -4.737 -0.067 -0.183 -0.304 -1.173" />
    <path class="write-flat-pen" fill="#FFFFFF" stroke-width="2" __comx="599.455" __comy="140.506" __timestamp="0x17947445459" d="M589.348 140.035 l0.807 1.514 0.136 0.26 2.919 8.509 0.141 0.434 0 0 0.315 0.478 0 0 1.768 -0.554 0.022 -12.131 0.576 -2.932 0.844 -0.752 1.886 -0.258 6.038 1.72 0.403 0.153 0.131 0.047 4.106 1.157 0.121 -0.253 -3.475 -2.474 -0.13 -0.078 -0.508 -0.268 -6.53 -2.022 -2.908 0.393 -1.796 1.596 -0.742 3.777 0.02 12.324 1.768 -0.554 0 0 -0.183 -0.24 0 0 -0.071 -0.192 -3.233 -8.598 -0.289 -0.426 -1.191 -1.302" />
    <path class="write-flat-pen" fill="#FFFFFF" stroke-width="2" __comx="613.246" __comy="140.506" __timestamp="0x179474455fa" d="M609.46 142.428 l2.622 -0.481 0.538 -0.333 2.018 -1.903 0.908 -2.306 -0.835 -1.76 -2.09 -0.867 -2.41 0.576 -2.062 1.922 -1.311 2.904 -0.14 2.68 0.902 1.863 2.076 1.416 3.192 0.24 3.525 -1.386 0.49 -0.359 0.347 -0.328 2.565 -2.9 -0.039 -0.052 -3.49 1.677 -0.352 0.201 -0.315 0.148 -3.008 1.018 -2.246 -0.175 -1.22 -0.823 -0.47 -0.945 0.072 -1.828 0.979 -2.247 1.414 -1.347 1.354 -0.334 0.899 0.364 0.211 0.421 -0.454 1.234 -1.554 1.593 -0.17 0.129 -2.255 0.854" />
    <path class="write-flat-pen" fill="#FFFFFF" stroke-width="2" __comx="632.216" __comy="140.506" __timestamp="0x1794744581b" d="M631.064 121.709 l0.199 3.023 0.053 0.525 0.731 9.697 0.034 0.836 0 0 0.205 4.868 0 0 0.771 1.656 0 0 1.866 -0.387 0.052 -1.762 -1.328 -2.229 -2.186 -1.494 -2.16 -0.039 -2.082 1.357 -1.546 2.537 -0.499 2.753 0.658 2.216 2.021 1.623 2.71 0.226 5.319 -2.694 0.502 -0.485 0.663 -0.797 2.208 -3.428 -0.1 -0.093 -3.241 2.43 -0.733 0.603 -0.322 0.235 -4.678 2.214 -1.566 -0.129 -1.075 -0.857 -0.356 -1.178 0.341 -1.939 1.117 -1.86 1.213 -0.797 0.988 0.02 1.35 0.933 0.809 1.379 -0.041 1.194 1.866 -0.387 0 0 -0.62 -1.298 0 0 -0.223 -4.479 0 0 -0.046 -0.877 -1.012 -9.755 -0.101 -0.562 -0.663 -2.958" />
    <path class="write-flat-pen" fill="#FFFFFF" stroke-width="2" __comx="649.643" __comy="140.506" __timestamp="0x17947445a0c" d="M641.91 137.692 l0.36 -0.426 -0.533 0.063 -0.838 -0.731 -0.099 1.752 -0.03 0.421 -0.054 4.479 0.902 2.507 1.985 1.517 2.611 -0.143 2.487 -1.597 0 0 2.077 -2.613 0 0 2.82 -6.92 0 0 -1.919 -0.471 -0.406 4.269 0.63 3.802 1.418 2.259 2.165 0.36 0.615 -0.271 0.559 -0.439 1.909 -2.134 -0.089 -0.137 -2.713 0.847 -0.489 0.199 0.023 -0.04 -0.754 -0.185 -0.736 -1.181 -0.522 -3.151 0.38 -4.01 -1.919 -0.471 0 0 -2.711 6.656 0 0 -1.693 2.132 0 0 -1.766 1.137 -1.356 0.079 -0.945 -0.714 -0.6 -1.63 -0.035 -4.091 0.01 -0.458 -0.23 -1.816 -0.838 -0.731 -0.555 0.065 -0.081 1.608" />
    <path class="write-flat-pen" fill="#FFFFFF" stroke-width="2" __comx="666.96" __comy="140.506" __timestamp="0x17947445b42" d="M667.665 136.864 l0.117 -1.166 -0.546 -0.351 -2.136 -0.019 -0.573 0.242 -1.877 1.6 -1.153 2.435 0.121 2.88 1.574 2.577 2.611 1.578 2.659 0.017 0.637 -0.24 0.455 -0.26 2.872 -1.936 -0.042 -0.1 -3.39 0.706 -0.422 0.11 -0.309 0.039 -1.877 -0.209 -1.769 -1.122 -1.066 -1.75 -0.095 -1.905 0.75 -1.667 1.309 -1.236 0.034 -0.031 1.38 -0.305 -0.332 -0.23 0.376 0.452" />
    <path class="write-flat-pen" fill="#FFFFFF" stroke-width="2" __comx="681.8" __comy="140.506" __timestamp="0x17947445cd6" d="M674.617 139.529 l0.713 1.431 0.367 0.222 2.696 0.766 2.693 -0.328 1.934 -1.236 1.068 -2.007 -0.454 -2.025 -1.661 -1.321 -1.898 0.027 -1.959 1.47 -1.391 2.512 -0.563 3.236 0.535 2.674 1.593 2.569 2.554 1.647 2.597 0.24 2.864 -1.578 0.596 -0.663 0.39 -0.613 1.691 -3.304 -0.23 -0.18 -2.793 2.445 -0.434 0.443 -0.376 0.323 -2.12 1.084 -1.514 -0.142 -1.767 -1.138 -1.17 -1.88 -0.399 -1.958 0.425 -2.554 1.004 -1.893 1.121 -0.916 0.65 -0.05 0.679 0.516 0.184 0.786 -0.541 1.051 -1.219 0.829 -2.016 0.335 -2.297 -0.411 0.013 0.031 -1.003 -0.863" />
    <path class="write-flat-pen" fill="#FFFFFF" stroke-width="2" __comx="731.339" __comy="139.492" __timestamp="0x17947447f9c" d="M735.574 124.234 l0.719 -2.252 -0.012 0.065 -1.156 -0.104 0.226 0.906 0.01 0.193 -0.125 17.416 -0.025 0.572 0 0 0.138 3.913 0 0 1.992 -0.047 -0.035 -3.742 -1.036 -3.531 -1.556 -2.119 -2.199 -1.134 -2.767 0.493 -2.67 1.992 -2.242 2.991 -1.203 3.09 0.081 3.081 1.039 2.298 2.41 2.204 2.919 1.059 3.206 -0.273 2.848 -1.592 2.375 -3.832 0.125 -0.453 0.072 -0.385 0.338 -4.05 -0.177 -0.051 -1.855 3.616 -0.132 0.33 -0.084 0.18 -2.075 3.146 -2.033 1.135 -2.338 0.199 -2.131 -0.773 -1.813 -1.658 -0.703 -1.555 -0.06 -2.275 0.957 -2.459 1.905 -2.541 2.06 -1.536 1.636 -0.291 1.181 0.609 1.07 1.457 0.859 2.928 0.039 3.465 1.992 -0.047 0 0 -0.152 -3.833 0 0 0.022 -0.533 -0.062 -17.582 -0.099 -0.593 -0.706 -0.985 -1.156 -0.104 -0.121 0.212 -0.18 2.657" />
    <path class="write-flat-pen" fill="#FFFFFF" stroke-width="2" __comx="748.371" __comy="139.492" __timestamp="0x179474480e9" d="M742.202 139.388 l3.129 0.405 0.534 -0.018 4.568 -0.572 4.107 -1.133 -0.062 -0.452 -4.24 0.016 -4.512 0.437 -0.387 0.03 -3.058 0.021" />
    <path class="write-flat-pen" fill="#FFFFFF" stroke-width="2" __comx="769.737" __comy="139.492" __timestamp="0x17947448383" d="M772.445 136.752 l1.256 -1.509 0.163 -0.366 0 -1.677 -1.909 -0.9 -2.739 1.07 -2.972 3.14 -1.852 3.486 -0.926 3.987 0.36 2.837 1.336 2.013 2.075 1.049 2.446 -0.154 3.347 -2.085 0.431 -0.431 0.234 -0.28 2.311 -3.314 -0.285 -0.283 -3.293 2.341 -0.245 0.204 -0.297 0.234 -2.817 1.654 -1.415 0.087 -1.119 -0.566 -0.787 -1.184 -0.258 -2.02 0.781 -3.389 1.594 -3.033 2.466 -2.685 1.617 -0.73 0.367 0.059 0.142 0.359 0.033 -0.027 -0.738 1.68" />
    <path class="write-flat-pen" fill="#FFFFFF" stroke-width="2" __comx="784.039" __comy="139.492" __timestamp="0x1794744855c" d="M781.608 137.861 l1.753 -1.373 0.204 -0.342 0 0 0.041 -0.905 0 0 -1.448 -0.628 -1.497 1.215 -1.538 3.102 -0.688 3.725 0.556 2.564 1.545 1.978 2.289 0.813 2.588 -0.534 2.243 -1.803 1.582 -3.058 0.406 -3.076 -0.675 -2.771 -1.495 -1.7 -1.953 0.278 -0.329 0.416 -0.814 2.087 0.201 0.178 1.974 -1.059 -0.104 0.163 0.215 0.032 0.48 0.554 0.471 1.932 -0.31 2.359 -1.227 2.375 -1.539 1.24 -1.573 0.329 -1.224 -0.43 -0.918 -1.165 -0.385 -1.738 0.546 -3.08 1.206 -2.541 1.118 -1.068 -1.448 -0.628 0 0 0.087 0.441 0 0 0.145 -0.242 -1.261 1.562" />
    <path class="write-flat-pen" fill="#FFFFFF" stroke-width="2" __comx="798" __comy="139.492" __timestamp="0x179474487d2" d="M790.355 138.534 l-1.002 -0.43 -0.066 1.2 -0.006 0.259 -0.192 4.362 0 0 -0.031 0.275 0 0 -0.292 1.836 0 0 1.881 0.446 2.058 -5.97 1.576 -2.586 1.172 -0.876 0.451 0.004 0 0 0.646 0.651 0 0 1.136 6.614 0 0 1.924 0.167 1.884 -5.248 1.14 -1.606 0.592 -0.258 0.519 0.237 0.91 1.973 0.616 6.443 0.72 4.301 0.331 0.007 0.914 -4.377 -0.621 -6.901 -1.364 -2.958 -2.006 -0.917 -1.919 0.838 -1.62 2.282 -1.974 5.507 1.924 0.167 0 0 -1.254 -7.229 0 0 -1.662 -1.673 0 0 -1.936 -0.02 -2.018 1.507 -1.888 3.101 -2.087 6.19 1.881 0.446 0 0 0.221 -1.886 0 0 0.031 -0.395 0 0 -0.118 -4.503 -0.05 -0.375 -0.426 -1.186 -1.002 0.58" />
    <path class="write-flat-pen" fill="#FFFFFF" stroke-width="2" __comx="814.99" __comy="139.492" __timestamp="0x179474489ec" d="M808.255 158.888 l0.684 0.744 0.436 -0.426 0.546 -1.099 0.106 -0.419 0.648 -4.18 0.097 -0.851 0.712 -8.751 1.241 -6.202 0.863 -1.699 1.288 -0.937 1.376 -0.084 1.563 0.619 1.277 1.335 0.612 1.791 -0.142 2.186 -1.01 2.326 -1.138 1.063 -1.011 0.137 -1.685 -1.252 -1.284 -1.684 -0.202 0.048 -0.227 2.744 2.838 2.238 2.47 -0.335 1.907 -1.782 1.314 -3.027 0.19 -2.932 -0.884 -2.586 -1.884 -1.969 -2.383 -0.943 -2.402 0.148 -2.146 1.566 -1.199 2.374 -1.292 6.59 -0.641 8.851 -0.072 0.814 -0.347 4.161 -0.016 0.306 -0.044 0.909 0.314 -0.286 -0.299 0.19" />
    <path class="write-flat-pen" fill="#FFFFFF" stroke-width="2" __comx="826.525" __comy="139.492" __timestamp="0x17947448af0" d="M826.686 127.598 l-1.139 -0.421 -0.17 0.244 -0.005 0.176 0.234 7.561 0.012 0.967 0.321 8.763 1.407 1.584 0.198 -0.073 0.135 -1.847 -0.131 -8.467 -0.018 -0.987 -0.49 -7.631 -0.064 -0.36 -0.311 -0.25 -1.139 0.741" />
    <path class="write-flat-pen" fill="#FFFFFF" stroke-width="2" __comx="837.672" __comy="139.492" __timestamp="0x17947448ca6" d="M830.472 138.029 l1.854 1.542 0.476 0.192 3.274 0.526 3.032 -0.519 2.732 -1.569 0.771 -1.762 -1.138 -1.616 -2.235 0.083 -2.735 2.071 -1.836 2.97 -0.981 3.648 0.306 2.295 1.505 1.821 2.403 0.497 2.971 -0.798 0.468 -0.233 0.292 -0.158 3.242 -2.161 -0.071 -0.173 -3.828 0.727 -0.328 0.096 -0.368 0.118 -2.418 0.539 -1.272 -0.265 -0.696 -0.84 -0.182 -1.336 0.79 -2.991 1.474 -2.431 1.945 -1.513 0.6 -0.031 -0.068 -0.098 -0.094 0.219 -1.901 1.117 -2.42 0.468 -2.835 -0.304 -0.132 -0.031 -1.946 -1.053" />
    <path class="write-flat-pen" fill="#FFFFFF" stroke-width="2" __comx="852.618" __comy="139.492" __timestamp="0x17947448d99" d="M846.792 134.408 l0.358 1.424 0.138 0.343 2.32 4.711 4.471 5.608 3.598 3.163 0.768 -0.74 -2.966 -3.649 -4.279 -5.412 -2.402 -4.433 -0.15 -0.259 -0.735 -1.219" />
    <path class="write-flat-pen" fill="#FFFFFF" stroke-width="2" __comx="853.471" __comy="139.492" __timestamp="0x17947448e6d" d="M847.825 147.967 l1.138 -1.858 0.231 -0.291 8.661 -10.639 2.368 -3.745 -0.21 -0.188 -3.488 2.801 -8.671 10.759 -0.302 0.466 -0.837 2.149" />
    <path class="write-flat-pen" fill="#FFFFFF" stroke-width="2" __comx="862.781" __comy="139.492" __timestamp="0x17947448f67" d="M861.358 136.445 l-0.048 1.927 0.001 0.345 0.198 5.794 0.07 0.35 1.098 1.709 0.688 -0.173 0.887 -0.876 -0.027 -0.156 -1.129 -0.527 0.458 -0.133 -0.18 -0.521 0.016 0.081 -0.482 -5.659 -0.056 -0.373 -0.437 -1.896" />
    <path class="write-flat-pen" fill="#FFFFFF" stroke-width="2" __comx="869.309" __comy="139.492" __timestamp="0x17947449010" d="M869.885 127.267 l-0.977 -0.755 -0.175 0.173 0.286 1.324 0.206 0.033 0.652 -0.982 -0.049 -0.073 -0.977 0.28" />
    <path class="write-flat-pen" fill="#FFFFFF" stroke-width="2" __comx="876.213" __comy="139.492" __timestamp="0x1794744910d" d="M875.457 124.203 l-0.561 2.746 -0.011 0.732 0.548 8.782 0.063 1.031 0.386 6.89 -0.254 1.237 0.147 -0.001 -1.125 1.34 0.052 0.106 1.748 -0.079 0.554 -0.202 0.774 -2.18 -0.455 -7.228 -0.078 -1.05 -0.88 -8.73 -0.053 -0.599 -0.007 -2.71" />
    <path class="write-flat-pen" fill="#FFFFFF" stroke-width="2" __comx="876.312" __comy="139.492" __timestamp="0x179474491e0" d="M869.093 135.926 l-1.292 0.625 0.764 0.571 0.401 0.154 5.933 1.212 5.892 -0.607 0.512 -0.25 3.52 -2.181 -0.081 -0.204 -4.059 0.817 -0.305 0.073 -5.381 0.384 -5.577 -0.98 -0.192 -0.046 -0.822 -0.197 -0.305 1.616" />
    <path class="write-flat-pen" fill="#FFFFFF" stroke-width="2" __comx="885.66" __comy="139.492" __timestamp="0x179474492df" d="M882.13 133.486 l0.735 1.541 0.165 0.275 3.399 5.657 2.619 1.503 0.143 -0.146 -1.407 -2.439 -3.441 -5.454 -0.229 -0.267 -1.129 -1.243" />
    <path class="write-flat-pen" fill="#FFFFFF" stroke-width="2" __comx="886.569" __comy="139.492" __timestamp="0x179474493c4" d="M894.319 133.072 l-1.38 2.438 -0.315 0.546 -6.64 11.058 -0.653 1.017 -4.923 7.679 -0.305 0.468 -0.301 0.451 -2.201 3.754 0.208 0.171 3.252 -2.892 0.408 -0.414 0.42 -0.502 5.096 -7.644 0.677 -1.056 6.507 -11.227 0.307 -0.633 1.062 -2.626" />
    <path class="write-flat-pen" fill="#FFFFFF" stroke-width="2" __comx="304.997" __comy="139.36" __timestamp="0x17947449fbb" d="M305.418 125.342 l1.742 -3.499 -0.374 0.349 0.567 0.592 0.066 0.181 1.525 10.456 0.08 1.336 0 0 0.52 14.525 0 0 1.995 0.053 0.217 -2.421 -0.901 -4.034 -1.818 -2.696 -2.388 -1.634 -3.014 -0.746 -2.516 0.56 -2.309 1.752 -1.556 2.461 -0.733 3.064 0.428 2.62 1.513 2.274 2.784 1.711 2.834 0.53 5.546 -0.769 3.846 -1.902 -0.143 -0.474 -4.107 0.497 -5.087 0.623 -2.158 -0.403 -2.094 -1.287 -1.031 -1.549 -0.294 -1.797 0.562 -2.35 1.185 -1.874 1.673 -1.269 1.631 -0.363 2.207 0.546 1.775 1.215 1.393 2.066 0.751 3.361 -0.188 2.111 1.995 0.053 0 0 -0.539 -14.549 0 0 -0.092 -1.452 -1.755 -10.786 -0.429 -0.841 -2.043 -1.139 -0.649 0.58 -1.36 4.014" />
    <path class="write-flat-pen" fill="#FFFFFF" stroke-width="2" __comx="322.875" __comy="139.36" __timestamp="0x1794744a0ea" d="M317.114 142.386 l1.714 -0.268 0.267 0.002 5.804 -0.305 4.088 -0.77 -0.021 -0.388 -4.13 -0.325 -5.796 0.055 -0.476 0.027 -1.802 0.722" />
    <path class="write-flat-pen" fill="#FFFFFF" stroke-width="2" __comx="345.371" __comy="139.36" __timestamp="0x1794744a32c" d="M343.64 127.528 l0.472 0.295 -0.161 -0.229 0.765 5.455 0.045 1.008 -0.061 10.916 0.814 2.667 1.494 -0.023 0.093 -0.171 -0.154 -0.919 -0.317 -1.792 0.005 -10.725 -0.071 -1.166 -1.127 -5.785 -0.4 -0.643 -1.278 0.09" />
    <path class="write-flat-pen" fill="#FFFFFF" stroke-width="2" __comx="348.347" __comy="139.36" __timestamp="0x1794744a40b" d="M340.502 137.652 l0.507 1.009 0.574 0.184 10.36 -0.376 4.249 -0.968 -0.028 -0.348 -4.313 -0.288 -10.068 0.332 0.169 0.069 -0.527 -0.328" />
    <path class="write-flat-pen" fill="#FFFFFF" stroke-width="2" __comx="359.507" __comy="139.36" __timestamp="0x1794744a5ea" d="M358.619 141.142 l1.079 -1.972 -0.504 -0.677 -1.905 -0.19 -1.608 1.946 -0.479 2.605 0.696 2.552 1.608 1.793 2.259 0.67 2.182 -0.874 1.468 -2.171 0.396 -2.942 -0.809 -2.342 -2.09 -1.568 -2.685 0.402 -0.041 0.265 1.955 1.118 1.184 0.982 0.464 1.345 -0.268 2.021 -0.867 1.294 -0.992 0.405 -1.087 -0.312 -0.951 -1.039 -0.49 -1.698 0.269 -1.739 0.677 -0.958 0.314 -0.069 -0.44 -0.593 -0.281 1.36" />
    <path class="write-flat-pen" fill="#FFFFFF" stroke-width="2" __comx="371.722" __comy="139.36" __timestamp="0x1794744a6dc" d="M370.133 128.343 l-0.193 8.441 0.057 1.046 1.373 9.081 2.013 3.717 0.122 -0.038 -0.393 -4.076 -1.308 -8.872 -0.058 -0.91 -0.159 -8.387" />
    <path class="write-flat-pen" fill="#FFFFFF" stroke-width="2" __comx="372.033" __comy="139.36" __timestamp="0x1794744a7b0" d="M365.76 140.312 l2.065 -0.761 6.901 -0.39 4.216 -0.633 -0.005 -0.388 -4.248 -0.533 -7.256 0.121 -2.31 1.023" />
    <path class="write-flat-pen" fill="#FFFFFF" stroke-width="2" __comx="383.033" __comy="139.36" __timestamp="0x1794744a98b" d="M384.703 141.087 l-1.679 -2.283 -0.511 -0.226 -2.069 -0.167 -1.823 1.174 -1.151 2.238 -0.076 2.66 1 1.928 1.92 0.797 2.189 -0.688 1.786 -1.821 -0.456 -0.038 0.543 3.058 1.579 1.767 0.6 0.012 2.102 -0.507 0.017 -0.158 -1.944 -0.947 0.109 -0.042 -0.671 -0.956 -0.719 -3.992 -1.885 -0.167 -2.083 2.125 -1.081 0.344 -0.655 -0.265 -0.469 -0.887 0.035 -1.759 0.718 -1.446 0.897 -0.617 1.186 0.041 -0.118 -0.058 1.736 1.714" />
    <path class="write-flat-pen" fill="#FFFFFF" stroke-width="2" __comx="393.998" __comy="139.36" __timestamp="0x1794744aa5d" d="M391.655 127.547 l-0.32 6.028 0.082 0.982 2.51 11.977 2.529 3.552 0.204 -0.096 -1.018 -4.026 -2.359 -11.683 -0.077 -0.765 0.004 -5.927" />
    <path class="write-flat-pen" fill="#FFFFFF" stroke-width="2" __comx="410.966" __comy="139.36" __timestamp="0x1794744ad26" d="M406.625 138.047 l5.064 0.277 3.619 -0.775 -0.021 -0.208 -3.623 -0.053 -4.987 -0.246" />
    <path class="write-flat-pen" fill="#FFFFFF" stroke-width="2" __comx="429.662" __comy="139.36" __timestamp="0x1794744afce" d="M423.139 125.742 l-1.325 0.135 0.047 1.135 0.051 0.346 1.201 9.636 0.042 0.945 0 0 0.068 6.858 0 0 0.614 1.303 0 0 1.696 0.129 3.558 -5.246 1.887 -1.735 1.508 -0.48 1.469 0.368 1.106 1.247 0.46 1.589 -0.281 2.012 -0.795 1.216 -1.232 0.582 -1.77 -0.213 -1.558 -0.894 -0.235 -0.393 -0.135 0.186 0.094 -1.969 -0.184 -0.089 -1.488 1.292 -0.293 0.511 0.661 1.835 2.5 1.442 2.741 0.326 2.251 -1.072 1.333 -2.059 0.38 -2.866 -0.718 -2.402 -1.797 -2.002 -2.567 -0.648 -2.44 0.759 -2.383 2.168 -3.694 5.43 1.696 0.129 0 0 -0.442 -0.911 0 0 -0.097 -6.464 0 0 -0.055 -1.064 -1.498 -9.748 -0.12 -0.422 -0.507 -1.043 -0.54 0.923" />
    <path class="write-flat-pen" fill="#FFFFFF" stroke-width="2" __comx="446.258" __comy="139.36" __timestamp="0x1794744b19e" d="M447.251 138.227 l0.604 -2.249 -0.545 -0.632 -1.985 -0.263 -2.463 1.356 -2.001 2.827 -0.958 3.211 0.296 2.793 1.233 1.684 2.167 0.697 2.753 -0.963 2.113 -2.364 0 0 1.385 -3.176 0 0 -0.092 -1.588 0 0 -1.966 -0.077 -0.493 3.484 0.701 2.97 1.661 0.999 0.561 -0.04 2.387 -0.696 0.004 -0.179 -2.353 -0.806 -0.04 -0.054 -0.484 -0.427 -0.421 -1.856 0.434 -3.12 -1.966 -0.077 0 0 0.075 1.115 0 0 -1.071 2.452 0 0 -1.566 1.748 -1.65 0.578 -0.932 -0.297 -0.545 -0.741 -0.206 -1.88 0.736 -2.546 1.53 -2.262 1.562 -0.952 0.806 0.004 -0.367 -0.431 -0.035 1.57" />
    <path class="write-flat-pen" fill="#FFFFFF" stroke-width="2" __comx="461.717" __comy="139.36" __timestamp="0x1794744b359" d="M461.111 125.053 l-0.835 2.513 -0.042 0.553 0.196 4.458 1.485 6.234 0 0 1.241 1.647 0 0 1.357 -1.369 -1.782 -1.328 -2.647 -0.389 -2.098 0.816 -1.856 2.294 -0.491 2.497 0.616 2.106 1.707 1.695 2.136 0.591 2.648 -0.535 2.805 -2.215 0.326 -0.458 0.197 -0.334 1.717 -3.53 -0.216 -0.159 -2.857 2.691 -0.238 0.258 -0.212 0.212 -2.352 1.691 -1.745 0.345 -1.184 -0.326 -0.983 -0.97 -0.345 -1.157 0.296 -1.553 1.218 -1.52 1.136 -0.445 1.653 0.244 1.385 1.039 1.357 -1.369 0 0 -1.014 -1.316 0 0 -1.428 -5.666 -0.344 -4.194 -0.003 -0.306 0.365 -2.463" />
    <path class="write-flat-pen" fill="#FFFFFF" stroke-width="2" __comx="481.882" __comy="139.36" __timestamp="0x1794744b5ec" d="M468.936 133.493 l-0.068 2.688 0.025 0.484 0.202 7.943 0.017 0.394 0 0 0.294 1.736 0 0 1.915 0.149 2.493 -7.472 1.39 -2.383 0.639 -0.391 0.559 0.153 1.155 1.702 1.717 5.048 1.692 2.397 1.938 1.069 2.608 -0.13 2.111 -1.49 1.517 -2.641 0.648 -3.15 -0.628 -2.103 -2.092 -0.53 -1.729 1.995 -1.12 3.51 0.168 2.904 1.618 2.136 4.011 0.588 0.739 -0.197 0.93 -0.395 3.208 -1.923 -0.056 -0.159 -3.683 0.502 -0.883 0.186 -0.316 0.038 -2.843 -0.49 -0.764 -1.009 -0.113 -1.928 0.877 -2.771 0.657 -0.767 -0.181 -0.048 0.163 0.549 -0.488 2.349 -1.143 1.984 -1.283 0.904 -1.469 0.073 -1.045 -0.576 -1.268 -1.789 -1.731 -5.025 -1.736 -2.511 -2.062 -0.52 -1.735 1.079 -1.734 2.959 -2.615 7.638 1.915 0.149 0 0 -0.282 -1.613 0 0 -0.013 -0.263 -0.4 -7.975 -0.064 -0.492 -0.334 -2.632" />
    <path class="write-flat-pen" fill="#FFFFFF" stroke-width="2" __comx="503.964" __comy="139.36" __timestamp="0x1794744b784" d="M504.439 135.549 l-1.217 -2.189 -0.326 -0.327 -1.638 -0.853 -1.977 0.688 -0.865 2.059 8.089 6.566 0.957 1.295 -0.055 0.513 -1.095 1.109 -2.869 1.262 -0.861 -0.011 -0.132 -0.182 -0.11 0.25 0.171 -0.485 0.662 -2.473 -0.045 -0.03 -2.044 1.611 -0.463 0.59 -0.257 0.683 0.977 2.02 2.51 0.032 3.616 -1.592 1.852 -1.886 0.196 -1.978 -1.572 -2.108 -7.177 -5.787 -0.038 0.042 0.442 -0.206 0.762 0.286 0.018 -0.004 1.467 1.795" />
    <path class="write-flat-pen" fill="#FFFFFF" stroke-width="2" __comx="514.678" __comy="139.36" __timestamp="0x1794744b920" d="M518.236 132.663 l-0.722 -1.209 -0.596 -0.084 -2.421 0.387 -0.3 0.112 -1.701 1.21 -0.562 2.072 1.403 2.63 4.802 4.972 0.963 1.834 -0.151 0.793 -0.922 0.829 -1.95 0.622 -3.997 -0.381 -3.797 -0.637 -0.123 0.315 3.464 2.193 4.659 0.544 2.761 -0.881 1.743 -1.567 0.408 -2.141 -1.42 -2.706 -4.808 -4.977 -0.903 -1.686 0.164 -0.63 0.903 -0.667 -0.089 0.032 1.962 -0.516 -0.358 -0.06 0.601 0.408" />
    <path class="write-flat-pen" fill="#FFFFFF" stroke-width="2" __comx="310.683" __comy="214.174" __timestamp="0x1794744f36e" d="M312.117 210.405 l0.546 -2.82 0.009 0 0.58 -0.973 -0.111 0.101 -1.129 -0.264 0.764 1.52 0.085 0.379 2.303 23.418 0 0 1.132 4.774 0 0 1.966 -0.119 0.189 -1.67 -1.349 -4.398 -1.857 -2.888 -2.789 -2.327 -2.938 -1.221 -2.805 -0.045 -2.353 1.151 -1.911 2.15 -1.421 3.347 -0.366 3.74 0.953 3.051 1.901 2.259 2.609 1.485 3.156 0.578 3.198 -0.466 5.549 -3.572 0.47 -0.598 0.569 -0.964 1.638 -3.826 -0.23 -0.15 -2.832 3.017 -0.641 0.781 -0.259 0.274 -4.975 3.119 -2.449 0.357 -2.499 -0.458 -2.003 -1.14 -1.412 -1.678 -0.712 -2.28 0.297 -3.032 1.173 -2.763 1.431 -1.61 1.568 -0.767 1.943 0.031 2.304 0.958 2.32 1.936 1.542 2.398 1.146 3.737 -0.142 1.257 1.966 -0.119 0 0 -1.102 -4.644 0 0 -2.384 -23.416 -0.207 -0.789 -1.147 -1.624 -1.129 -0.264 -0.314 0.23 -0.398 1.717 -0.018 0.157 0.107 2.926" />
    <path class="write-flat-pen" fill="#FFFFFF" stroke-width="2" __comx="334.487" __comy="214.614" __timestamp="0x1794744f52f" d="M333.295 209.516 l-1.823 -0.918 -0.661 0.357 -1.761 2.444 -1.131 4.509 -0.384 6.389 0.706 5.589 1.815 5.876 2.075 3.331 3.854 2.647 0.804 0.226 0.694 0.074 3.908 0.19 0.047 -0.223 -3.654 -1.398 -0.569 -0.191 -0.443 -0.2 -3.215 -2.452 -1.718 -2.813 -1.684 -5.479 -0.664 -5.242 0.349 -6.034 0.956 -4.022 1.206 -1.923 -0.398 0.209 1.223 0.26" />
    <path class="write-flat-pen" fill="#FFFFFF" stroke-width="2" __comx="359.932" __comy="222.769" __timestamp="0x1794744fcc9" d="M361.103 213.876 l-0.633 0.653 -0.044 0.203 -0.493 1.618 -0.089 0.249 -1.922 3.593 -1.816 1.945 -1.585 0.706 -0.412 -0.077 -0.367 -0.493 0.045 -1.543 1.289 -3.385 2.062 -2.964 2.415 -2.007 1.915 -0.694 1.376 0.161 1.508 1.057 1.078 1.95 0.701 4.174 -0.217 4.244 -3.655 13.824 -0.185 2.007 0.321 0.172 1.677 -1.462 3.828 -14.229 0.239 -4.673 -0.794 -4.727 -1.467 -2.654 -2.301 -1.612 -2.347 -0.275 -2.687 0.974 -2.892 2.403 -2.357 3.388 -1.496 3.93 -0.075 2.577 1.256 1.678 1.793 0.324 2.514 -1.134 2.254 -2.456 2.003 -4.047 0.131 -0.502 0.189 -1.842 -0.027 0 0.058 -0.634" />
    <path class="write-flat-pen" fill="#FFFFFF" stroke-width="2" __comx="373.204" __comy="222.769" __timestamp="0x1794744fdee" d="M365.667 225.729 l-0.64 0.538 0.388 1.269 0.254 0.112 11.456 -0.08 4.256 -0.861 -0.02 -0.35 -4.283 -0.37 -11.135 -0.022 -0.007 0.024 0.388 1.269 0.352 -0.759" />
    <path class="write-flat-pen" fill="#FFFFFF" stroke-width="2" __comx="381.523" __comy="222.769" __timestamp="0x1794744ffa5" d="M382.699 213.807 l0.51 -1.427 -1.534 0.23 -0.041 -0.025 0.212 4.006 -0.036 1.082 -2.537 20.569 0.763 0.963 0.536 -0.056 0.572 -0.887 2.603 -20.443 0.025 -1.282 -0.477 -4.444 -0.17 -0.265 -1.534 0.23 -0.073 1.514" />
    <path class="write-flat-pen" fill="#FFFFFF" stroke-width="2" __comx="395.296" __comy="222.769" __timestamp="0x17947450191" d="M395.092 206.824 l-0.746 2.114 -0.073 0.508 0.307 8.487 1.281 4.076 0.174 -0.024 0.164 -4.186 -0.203 -8.284 0.014 -0.279 0.309 -2.106" />
    <path class="write-flat-pen" fill="#FFFFFF" stroke-width="2" __comx="409.181" __comy="224.995" __timestamp="0x17947450444" d="M405.318 204.2 l2.423 1.226 0.39 0.285 3.102 2.833 3.296 4.342 2.117 4.39 0.765 3.662 -0.05 4.074 -0.963 4.296 -2.331 5.297 -2.583 3.605 -8.207 7.366 -0.42 0.333 -0.699 0.573 -3.185 2.991 0.177 0.259 3.95 -1.891 0.794 -0.476 0.531 -0.355 8.539 -7.464 2.836 -3.952 2.492 -5.663 1.048 -4.687 0.05 -4.499 -0.867 -4.109 -2.324 -4.779 -3.568 -4.615 -3.411 -2.939 -0.651 -0.415 -2.734 -0.926" />
    <path class="write-flat-pen" fill="#FFFFFF" stroke-width="2" __comx="432.346" __comy="224.995" __timestamp="0x179474505ad" d="M424.411 224.775 l1.35 -0.024 0.197 0.003 10.247 -0.854 4.29 -0.74 -0.01 -0.365 -4.367 -0.501 -10.306 0.801 -0.278 0.049 -1.339 0.48" />
    <path class="write-flat-pen" fill="#FFFFFF" stroke-width="2" __comx="434.634" __comy="224.995" __timestamp="0x17947450680" d="M429.982 227.718 l-0.646 1.249 6.564 0.311 4.033 -0.586 -0.003 -0.319 -4.012 -0.511 -6.539 -0.143 0.603 1.249" />
    <path class="write-flat-pen" fill="#FFFFFF" stroke-width="2" __comx="458.52" __comy="224.995" __timestamp="0x17947450986" d="M462.409 209.385 l-0.353 2.284 -0.034 0.523 -0.07 9.078 0 0 0.01 1.001 0 0 -0.15 9.946 0 0 1.897 -0.394 -1.053 -2.374 -2.047 -1.952 -2.887 -1.135 -2.921 0.145 -2.653 1.725 -1.709 2.764 -0.738 3.244 0.45 2.742 1.707 2.191 2.699 1.053 3.292 -0.269 5.98 -2.959 0.316 -0.237 3.196 -2.963 -0.214 -0.328 -3.997 1.738 -0.243 0.129 -5.576 2.658 -2.458 0.201 -1.757 -0.685 -1.057 -1.355 -0.305 -1.853 0.577 -2.538 1.299 -2.101 1.826 -1.188 1.954 -0.097 2.123 0.834 1.48 1.41 0.903 2.01 1.897 -0.394 0 0 0.045 -9.973 0 0 -0.026 -1.019 0 0 -0.249 -9.047 -0.017 -0.476 -0.109 -2.281" />
    <path class="write-flat-pen" fill="#FFFFFF" stroke-width="2" __comx="478.365" __comy="224.995" __timestamp="0x17947450b3e" d="M478.994 212.936 l-0.03 -1.93 -0.855 -0.649 -2.287 1.692 -0.418 0.695 -1.936 4.908 -1.044 5.739 -0.182 6.899 0.865 3.434 1.747 2.589 4.508 1.74 0.827 -0.052 0.593 -0.117 3.704 -1.033 -0.026 -0.276 -3.832 -0.319 -0.535 -0.01 -0.387 -0.034 -3.544 -1.513 -1.207 -1.8 -0.713 -2.831 0.168 -6.473 0.973 -5.403 1.763 -4.604 0.15 -0.271 0.864 -0.864 -0.72 -0.55 0.367 1.183" />
    <path class="write-flat-pen" fill="#FFFFFF" stroke-width="2" __comx="490.854" __comy="224.995" __timestamp="0x17947450d9e" d="M488.477 215.003 l0.497 0.728 -0.056 -0.021 0.13 1.693 -0.024 0.116 -1.986 4.673 0.148 -0.165 -0.49 0.293 0.113 0.056 -0.014 -1.551 1.314 -3.858 1.506 -2.313 1.251 -0.92 1.128 -0.125 1.103 0.606 1.186 1.986 0.624 2.94 -0.123 3.667 -3.637 12.06 0.994 0.267 1.059 -0.304 0.189 -0.615 -0.706 -0.846 0.859 0.226 3.232 -10.457 0.14 -4.175 -0.744 -3.504 -1.635 -2.737 -2.133 -1.172 -2.289 0.254 -1.976 1.452 -1.842 2.828 -1.504 4.419 0.033 3.064 1.935 1.049 1.699 -1.065 0.273 -0.303 2.034 -5.346 0.015 -0.618 -0.583 -2.07 -0.253 -0.343 -0.998 -0.461" />
    <path class="write-flat-pen" fill="#FFFFFF" stroke-width="2" __comx="502.969" __comy="224.995" __timestamp="0x17947450ecc" d="M496.851 226.836 l1.564 -0.243 0.01 0.01 6.718 0.491 4.263 -0.089 0.048 -0.342 -4.127 -1.269 -6.9 -0.551 -0.316 0.035 -1.628 0.663" />
    <path class="write-flat-pen" fill="#FFFFFF" stroke-width="2" __comx="510.783" __comy="224.995" __timestamp="0x1794745104c" d="M512.479 212.75 l-0.833 0.664 -0.119 0.343 -0.444 2.485 -0.061 0.61 -2.293 14.071 -0.49 4.436 0.456 0.128 1.921 -4.147 2.305 -14.259 0.039 -0.654 0.13 -2.371 -0.048 0.078 0.283 -0.682" />
    <path class="write-flat-pen" fill="#FFFFFF" stroke-width="2" __comx="524.669" __comy="224.995" __timestamp="0x179474512ea" d="M519.588 207.948 l1.563 -0.287 -0.149 -0.019 3.408 2.991 0.386 0.566 1.997 4.122 1.177 5.099 0.262 5.34 -0.818 4.103 -3.804 6.602 -0.615 0.769 -1.314 1.577 -2.555 3.313 0.165 0.165 3.327 -2.552 1.578 -1.386 0.826 -0.854 4.244 -6.921 0.948 -4.668 -0.283 -5.761 -1.278 -5.487 -2.197 -4.439 -0.631 -0.891 -4.046 -3.182 -0.68 -0.165 -1.878 0.891" />
    <path class="write-flat-pen" fill="#FFFFFF" stroke-width="2" __comx="639.419" __comy="228.095" __timestamp="0x179474517f4" d="M643.59 223.681 l1.509 -0.291 0.349 -0.364 0.909 -1.847 0.021 -0.612 -0.613 -1.689 -2.654 -1.385 -3.304 0.159 -3.339 1.461 -2.821 2.486 -1.925 3.07 -1.173 4.376 0.127 3.366 1.228 3.489 2.071 2.42 2.778 1.307 3.085 0.058 4.686 -2.517 0.556 -0.518 0.82 -0.935 2.389 -3.431 -0.171 -0.169 -3.381 2.431 -0.905 0.746 -0.386 0.297 -4.082 2.092 -2.146 -0.043 -2.004 -0.943 -1.549 -1.81 -1.005 -2.851 -0.105 -2.763 1.016 -3.796 1.61 -2.574 2.369 -2.094 2.721 -1.201 2.423 -0.139 1.59 0.763 0.322 0.668 0.017 -0.048 -0.37 1.481 0.063 -0.015 -0.992 0.692" />
    <path class="write-flat-pen" fill="#FFFFFF" stroke-width="2" __comx="654.289" __comy="228.095" __timestamp="0x17947451a9b" d="M656.003 225.505 l-0.343 1.279 0 0.344 0.422 3.808 0.129 0.733 1.209 9.731 0 0 1.331 -1.043 0.038 0.014 -2.235 -1.656 -3.394 -1.156 -2.413 0.357 -2.1 1.562 -1.29 2.528 0.033 2.768 1.155 2.175 2.605 1.786 2.454 0.354 2.849 -0.726 3.23 -2.89 1.537 -3.763 -0.194 -0.129 -2.744 2.658 -2.776 2.313 -2.01 0.51 -1.605 -0.229 -1.825 -1.245 -0.705 -1.319 -0.024 -1.801 0.856 -1.684 1.332 -0.992 1.45 -0.215 2.653 0.905 2.201 1.62 0.202 0.078 1.331 -1.043 0 0 -1.424 -9.758 -0.168 -0.748 -0.777 -3.671 -0.05 -0.199 -0.207 -1.215" />
    <path class="write-flat-pen" fill="#FFFFFF" stroke-width="2" __comx="679.863" __comy="228.095" __timestamp="0x17947451dc8" d="M680.496 211.764 l-0.756 -1.285 -0.69 0.115 -1.322 1.254 -0.316 0.507 -2.306 5.619 -1.529 6.58 -0.271 5.097 0.868 4.475 1.75 3.721 2.145 2.518 3.714 1.81 0.728 0.031 3.871 -0.182 0.038 -0.299 -3.705 -1.133 -0.403 -0.111 -2.996 -1.676 -1.708 -2.037 -1.529 -3.262 -0.774 -3.993 0.246 -4.681 1.44 -6.27 2.075 -5.404 0.132 -0.262 0.616 -0.983 -0.6 0.098 0.642 0.313" />
    <path class="write-flat-pen" fill="#FFFFFF" stroke-width="2" __comx="694.854" __comy="225.79" __timestamp="0x179474523a5" d="M694.962 218.088 l0.67 -0.692 -0.091 0.106 -0.961 -0.534 -0.181 0.348 -0.028 0.006 -1.803 3.446 -0.073 0.089 -1.149 0.894 -0.705 0.052 -0.448 -0.337 -0.114 -0.869 0.832 -2.067 1.699 -2.041 2.459 -1.618 1.105 -0.159 1.285 0.578 1.174 1.525 0.964 3.226 0.074 3.602 -2.197 10.822 0.236 1.079 0.26 0.174 1.292 -0.504 2.413 -11.386 -0.085 -4.099 -1.148 -3.84 -1.706 -2.215 -2.271 -1.022 -2.121 0.305 -3.079 2.025 -2.089 2.511 -1.143 2.846 0.298 2.223 1.727 1.28 2.047 -0.172 1.791 -1.434 0.336 -0.441 1.731 -3.832 0.107 -0.408 -0.21 -0.626 -0.961 -0.534 -0.176 0.155 -0.286 1.281" />
    <path class="write-flat-pen" fill="#FFFFFF" stroke-width="2" __comx="706.369" __comy="225.79" __timestamp="0x179474524b4" d="M700.025 225.99 l1.89 0.24 0.389 0.027 6.23 -0.458 4.178 -1.04 -0.03 -0.367 -4.286 -0.351 -6.13 0.472 -0.309 0.005 -1.911 0.177" />
    <path class="write-flat-pen" fill="#FFFFFF" stroke-width="2" __comx="714.196" __comy="225.79" __timestamp="0x17947452637" d="M715.239 211.373 l-0.807 0.577 -0.084 0.424 -0.306 1.734 -0.078 0.569 -1.514 13.264 -0.1 1.072 0.147 7.499 1.806 3.171 0.362 -0.113 -0.241 -3.367 -0.078 -7.111 0.088 -0.949 1.376 -13.271 0.04 -0.594 -0.006 -1.763 -0.054 0.127 0.251 -0.372" />
    <path class="write-flat-pen" fill="#FFFFFF" stroke-width="2" __comx="730.757" __comy="225.79" __timestamp="0x17947452848" d="M725.348 208.486 l0.984 -0.566 -0.294 -0.015 3.64 2.512 0.475 0.515 2.399 3.384 1.651 4.176 0.745 4.804 -0.471 4.846 -1.363 4.003 -2.489 3.623 -0.772 0.806 -0.749 0.753 -2.812 3.052 0.249 0.299 3.504 -2.223 0.911 -0.634 1.016 -0.873 2.889 -3.9 1.561 -4.479 0.526 -5.327 -0.82 -5.272 -1.834 -4.602 -2.642 -3.665 -0.734 -0.77 -4.289 -2.624 -0.795 -0.082 -1.265 1.346" />
    <path class="write-flat-pen" fill="#FFFFFF" stroke-width="2" __comx="761.713" __comy="225.79" __timestamp="0x17947452cf9" d="M764.012 213.099 l0.602 -0.044 -0.567 -0.386 -0.277 0.264 -0.034 0.013 -2.133 2.623 -0.154 0.17 -4.678 4.702 -1.065 2.279 0.791 2.384 6.308 7.422 0.441 0.37 0.553 0.392 3.82 2.098 0.104 -0.128 -2.823 -3.305 -0.443 -0.442 -0.288 -0.296 -5.901 -7.104 -0.425 -1.27 0.58 -1.255 4.429 -4.548 0.232 -0.272 2.042 -2.945 0.174 -0.384 -0.037 -1.253 -0.649 -0.449 -0.832 1.065" />
    <path class="write-flat-pen" fill="#FFFFFF" stroke-width="2" __comx="790.128" __comy="225.79" __timestamp="0x1794745368c" d="M795.634 223.995 l1.604 -1.449 0.198 -0.335 0.406 -2.378 -0.186 -0.538 -1.645 -1.886 -3.426 -1.307 -3.082 -0.053 -3.031 0.924 -2.714 1.905 -1.909 2.657 -1.029 3.05 0.076 3.266 1.462 3.043 2.163 1.829 3.378 1.379 6.882 0.22 0.621 -0.194 0.43 -0.188 3.604 -2.054 -0.107 -0.306 -4.099 0.635 -0.395 0.1 -0.283 0.056 -6.226 -0.255 -2.756 -1.125 -1.595 -1.349 -1.09 -2.269 -0.058 -2.483 0.82 -2.432 1.536 -2.14 2.176 -1.532 2.428 -0.75 2.434 0.021 2.711 0.965 1.212 1.2 -0.045 -0.156 0.044 1.772 0.027 -0.001 -1.057 1.72" />
    <path class="write-flat-pen" fill="#FFFFFF" stroke-width="2" __comx="810.019" __comy="225.79" __timestamp="0x179474539e1" d="M809.481 222.69 l0.22 0.515 -0.054 -0.08 0.177 2.627 0.045 0.628 0.919 10.436 0.01 -0.078 0 0 1.394 -0.766 -3.046 -1.401 -2.071 0.017 -1.657 1.316 -0.764 2.207 0.537 2.347 1.658 1.53 2.411 0.383 4.131 -2.38 0.27 -0.376 1.721 -3.368 -0.208 -0.169 -2.937 2.382 -0.084 0.062 -3.264 1.77 -1.132 -0.179 -0.762 -0.701 -0.274 -1.189 0.386 -1.121 0.668 -0.53 0.944 -0.007 2.647 1.21 1.394 -0.766 0 0 0.02 -0.151 -1.118 -10.651 -0.081 -0.66 -0.551 -2.682 -0.133 -0.404 -0.888 -0.407" />
    <path class="write-flat-pen" fill="#FFFFFF" stroke-width="2" __comx="832.999" __comy="225.79" __timestamp="0x17947453c95" d="M832.794 213.583 l-0.954 -1.036 -0.731 0.104 -2.057 1.709 -0.45 0.722 -1.658 4.443 -1 6.586 0.119 5.66 0.945 3.68 2.198 3.71 5.023 2.967 1.015 0.148 0.774 -0.002 3.999 -0.253 0.038 -0.448 -3.898 -0.928 -0.675 -0.126 -0.582 -0.15 -4.236 -2.651 -1.791 -3.041 -0.816 -3.182 -0.111 -5.258 0.937 -6.218 1.481 -4.09 0.191 -0.33 1.328 -1.361 -0.499 0.064 0.636 0.242" />
    <path class="write-flat-pen" fill="#FFFFFF" stroke-width="2" __comx="846.978" __comy="225.79" __timestamp="0x17947453f72" d="M844.108 214.102 l0.729 0.61 -0.085 -0.092 0.471 1.979 -0.363 2.704 -1.168 2.442 -1.324 1.369 -0.412 0.037 -0.47 -0.505 -0.261 -1.614 0.613 -2.549 1.599 -2.712 1.835 -1.492 2.14 -0.781 1.475 0.077 1.617 0.948 1.362 2.147 0.888 4.067 -0.219 4.888 -1.698 7.766 -1.045 4.034 0.325 0.157 2.601 -3.54 1.805 -8.155 0.238 -5.321 -1.019 -4.667 -1.811 -2.854 -2.455 -1.438 -2.368 -0.123 -2.838 1.036 -2.373 1.931 -1.931 3.279 -0.773 3.229 0.429 2.61 1.574 1.659 2.102 -0.249 1.997 -2.149 1.346 -3.032 0.305 -3.352 -0.846 -2.46 -0.303 -0.416 -1.318 -0.303" />
    <path class="write-flat-pen" fill="#FFFFFF" stroke-width="2" __comx="860.219" __comy="225.79" __timestamp="0x179474540c1" d="M852.513 226.915 l0.887 -0.104 -0.029 0.028 2.373 0.241 0.562 0.067 7.568 1.048 4.393 0.026 0.06 -0.384 -4.195 -1.325 -7.594 -1.237 -0.664 -0.054 -2.555 0.034 -0.306 0.058 -0.901 0.648" />
    <path class="write-flat-pen" fill="#FFFFFF" stroke-width="2" __comx="870.525" __comy="225.79" __timestamp="0x17947454245" d="M870.73 211.918 l-0.173 1.289 -0.018 0.332 -0.022 3.167 0.003 0.899 -0.37 11.08 -1.032 7.381 -0.517 2.633 0.25 0.135 2.078 -2.165 1.211 -7.807 0.31 -11.244 -0.03 -0.958 -0.22 -3.184 -0.05 -0.343 -0.295 -1.268" />
    <path class="write-flat-pen" fill="#FFFFFF" stroke-width="2" __comx="890.453" __comy="225.79" __timestamp="0x17947454473" d="M884.558 204.002 l2.378 0.432 0.262 0.105 5.21 3.254 0.591 0.525 2.541 2.983 1.994 3.81 0.919 4.532 -0.309 3.945 -1.763 5.978 -2.339 4.506 -6.879 8.626 -1.262 1.222 -1.306 1.223 -1.274 1.211 -2.881 2.889 0.371 0.455 3.407 -2.244 1.463 -1.023 1.432 -1.161 1.434 -1.28 7.173 -8.82 2.521 -4.853 1.876 -6.364 0.346 -4.432 -1.034 -5.084 -2.238 -4.256 -2.795 -3.244 -0.834 -0.726 -5.647 -3.269 -0.638 -0.179 -2.591 -0.065" />
  </g>
</svg>
