<svg class="write-page" width="1010px" height="1628px" xmlns="http://www.w3.org/2000/svg" xmlns:xlink="http://www.w3.org/1999/xlink">
  <g class="write-content write-v3" width="1010" height="1628" xruling="30" yruling="30" marginLeft="30" papercolor="#1B1C1C" rulecolor="#3A00F9FF">
    <g class="ruleline write-std-ruling write-scale-down" fill="none" stroke="#00F9FF" stroke-opacity="0.227" stroke-width="1" shape-rendering="crispEdges" vector-effect="non-scaling-stroke">
      <rect class="pagerect" fill="#1B1C1C" stroke="none" x="0" y="0" width="1010" height="1628" />
      <path class="yrule_1" d="M0 30 l1010 0" />
      <path d="M0 60 l1010 0" />
      <path d="M0 90 l1010 0" />
      <path d="M0 120 l1010 0" />
      <path d="M0 150 l1010 0" />
      <path d="M0 180 l1010 0" />
      <path d="M0 210 l1010 0" />
      <path d="M0 240 l1010 0" />
      <path d="M0 270 l1010 0" />
      <path d="M0 300 l1010 0" />
      <path d="M0 330 l1010 0" />
      <path d="M0 360 l1010 0" />
      <path d="M0 390 l1010 0" />
      <path d="M0 420 l1010 0" />
      <path d="M0 450 l1010 0" />
      <path d="M0 480 l1010 0" />
      <path d="M0 510 l1010 0" />
      <path d="M0 540 l1010 0" />
      <path d="M0 570 l1010 0" />
      <path d="M0 600 l1010 0" />
      <path d="M0 630 l1010 0" />
      <path d="M0 660 l1010 0" />
      <path d="M0 690 l1010 0" />
      <path d="M0 720 l1010 0" />
      <path d="M0 750 l1010 0" />
      <path d="M0 780 l1010 0" />
      <path d="M0 810 l1010 0" />
      <path d="M0 840 l1010 0" />
      <path d="M0 870 l1010 0" />
      <path d="M0 900 l1010 0" />
      <path d="M0 930 l1010 0" />
      <path d="M0 960 l1010 0" />
      <path d="M0 990 l1010 0" />
      <path d="M0 1020 l1010 0" />
      <path d="M0 1050 l1010 0" />
      <path d="M0 1080 l1010 0" />
      <path d="M0 1110 l1010 0" />
      <path d="M0 1140 l1010 0" />
      <path d="M0 1170 l1010 0" />
      <path d="M0 1200 l1010 0" />
      <path d="M0 1230 l1010 0" />
      <path d="M0 1260 l1010 0" />
      <path d="M0 1290 l1010 0" />
      <path d="M0 1320 l1010 0" />
      <path d="M0 1350 l1010 0" />
      <path d="M0 1380 l1010 0" />
      <path d="M0 1410 l1010 0" />
      <path d="M0 1440 l1010 0" />
      <path d="M0 1470 l1010 0" />
      <path d="M0 1500 l1010 0" />
      <path d="M0 1530 l1010 0" />
      <path d="M0 1560 l1010 0" />
      <path d="M0 1590 l1010 0" />
      <path d="M0 1620 l1010 0" />
      <path class="xrule_1" d="M30 0 l0 1628" />
      <path d="M60 0 l0 1628" />
      <path d="M90 0 l0 1628" />
      <path d="M120 0 l0 1628" />
      <path d="M150 0 l0 1628" />
      <path d="M180 0 l0 1628" />
      <path d="M210 0 l0 1628" />
      <path d="M240 0 l0 1628" />
      <path d="M270 0 l0 1628" />
      <path d="M300 0 l0 1628" />
      <path d="M330 0 l0 1628" />
      <path d="M360 0 l0 1628" />
      <path d="M390 0 l0 1628" />
      <path d="M420 0 l0 1628" />
      <path d="M450 0 l0 1628" />
      <path d="M480 0 l0 1628" />
      <path d="M510 0 l0 1628" />
      <path d="M540 0 l0 1628" />
      <path d="M570 0 l0 1628" />
      <path d="M600 0 l0 1628" />
      <path d="M630 0 l0 1628" />
      <path d="M660 0 l0 1628" />
      <path d="M690 0 l0 1628" />
      <path d="M720 0 l0 1628" />
      <path d="M750 0 l0 1628" />
      <path d="M780 0 l0 1628" />
      <path d="M810 0 l0 1628" />
      <path d="M840 0 l0 1628" />
      <path d="M870 0 l0 1628" />
      <path d="M900 0 l0 1628" />
      <path d="M930 0 l0 1628" />
      <path d="M960 0 l0 1628" />
      <path d="M990 0 l0 1628" />
      <path class="leftmargin" stroke="#FF0000" d="M30 0 l0 1628" />
    </g>
    <path class="write-flat-pen" fill="#FFFFFF" stroke-width="3.5" __comx="102.713" __comy="76.628" __timestamp="0x179453646e9" d="M110.614 62.021 l0.107 -1.967 -0.008 -0.179 -0.212 -1.604 -0.284 -0.561 -1.319 -1.532 -0.73 -0.432 -3.222 -0.444 -1.103 0.18 -3.9 1.362 -4.515 2.853 -3.839 3.543 -3.2 4.27 -2.059 4.453 -1.007 4.676 0.295 4.874 1.358 3.593 2.357 3.321 3.266 2.53 3.787 1.327 4.027 0.314 4.262 -0.684 5.259 -1.954 5.53 -3.266 0.657 -0.516 0.94 -0.884 3.043 -3.835 -0.873 -1.027 -4.259 2.369 -0.971 0.696 -0.453 0.325 -5.117 2.964 -4.65 1.727 -3.51 0.563 -3.157 -0.246 -2.819 -0.988 -2.406 -1.864 -1.796 -2.531 -1.012 -2.676 -0.235 -3.866 0.822 -3.829 1.739 -3.768 2.786 -3.723 3.37 -3.119 3.91 -2.5 3.241 -1.196 0.346 -0.073 2.127 0.126 -0.196 -0.132 0.956 0.751 -0.023 -0.104 0.495 0.988 0.01 -0.038 0.42 1.875" />
    <path class="write-flat-pen" fill="#FFFFFF" stroke-width="3.5" __comx="130.698" __comy="76.628" __timestamp="0x179453648c4" d="M132.172 76.524 l0.147 -2.422 -0.083 -0.448 -1.433 -2.429 -0.975 -0.485 -2.462 -0.134 -2.443 1.386 -2.052 2.917 -0.825 3.637 0.555 3.578 1.696 3.232 2.215 1.49 2.966 0.096 2.781 -1.445 3.022 -4.115 -2.783 -0.046 2.312 3.216 0.595 0.282 3.509 0.745 0.44 -0.753 -2.373 -2.69 0.089 -0.013 -1.756 -2.717 -2.783 -0.046 -2.556 3.47 -1.281 0.666 -1.093 -0.033 -0.692 -0.459 -1.053 -1.968 -0.399 -2.391 0.503 -2.394 1.222 -1.834 1.007 -0.644 0.933 -0.051 -0.301 -0.167 1.01 1.131 -0.045 -0.268 0.328 2.186" />
    <path class="write-flat-pen" fill="#FFFFFF" stroke-width="3.5" __comx="147.687" __comy="76.628" __timestamp="0x17945364a66" d="M145.127 64.48 l-2.919 0.297 -0.472 0.182 -1.669 1.058 -0.098 2.428 2.237 2.042 6.711 2.877 1.958 1.501 0.901 1.51 0.196 1.618 -0.493 1.683 -1.247 1.692 -1.992 1.382 -1.253 0.308 0.885 0.52 -0.116 0.09 -0.102 0.058 1.077 -0.903 0.326 -0.243 0.927 -0.7 2.894 -2.548 -0.172 -0.356 -3.826 0.697 -1.166 0.384 -0.559 0.242 -1.5 0.92 -0.74 0.63 -1.119 3.348 2.682 1.539 3.211 -0.788 2.982 -2.096 1.919 -2.666 0.815 -2.948 -0.423 -3.005 -1.636 -2.613 -2.789 -2.087 -6.604 -2.792 -0.796 -0.674 -0.053 0.612 0.042 -0.096 -0.123 0.038 2.527 -0.612" />
    <path class="write-flat-pen" fill="#FFFFFF" stroke-width="3.5" __comx="168.051" __comy="76.628" __timestamp="0x17945364bb3" d="M160.416 77.767 l0.832 0.178 0 0.025 0.558 0.27 0.174 0.066 1.272 0.278 0.454 0.036 3.147 -0.59 0.653 -0.39 1.689 -1.855 0.036 -2.526 -2.005 -1.759 -2.689 -0.055 -2.281 1.783 -1.162 3.032 0.291 2.889 1.686 2.742 4.705 2.369 1.369 0.207 1.216 0.01 1.16 -0.142 4.234 -0.811 0.021 -0.816 -4.186 -1.027 -1.078 -0.2 -0.965 -0.153 -0.709 -0.17 -3.376 -1.833 -0.791 -1.29 -0.144 -1.331 0.525 -1.437 0.611 -0.508 0.316 -0.005 -0.011 -0.025 0.019 -0.175 -0.521 0.65 0.181 -0.1 -2.236 0.702 -0.041 0.024 -1.239 0.129 -0.239 0.039 -0.67 0.261 -0.067 0.028 -0.822 0.301" />
    <path class="write-flat-pen" fill="#FFFFFF" stroke-width="3.5" __comx="227.373" __comy="76.628" __timestamp="0x17945364eb2" d="M234.281 88.87 l-0.496 -0.838 0.035 -0.043 -0.609 -1.5 -0.258 -0.578 -2.308 -5.09 -0.436 -1.06 -5.247 -13.714 -1.628 -6.129 -0.374 -4.291 0.387 -2.274 0 0 0.187 -0.162 0 0 -2.761 -1.122 0.109 1.175 -1.704 4.276 -4.43 7.807 -1.043 3.614 0.625 2.326 2.057 1.848 3.523 0.806 10.796 -1.737 0.854 -0.185 2.535 -0.497 0.886 -0.161 0.864 -0.168 0.84 -0.208 4.357 -1.436 -0.052 -0.614 -4.537 -0.679 -0.89 -0.06 -0.943 0.019 -1 0.077 -2.677 0.378 -0.842 0.157 -10.069 1.557 -1.985 -0.453 -0.618 -0.551 -0.108 -0.392 0.65 -2.297 4.27 -7.696 2.054 -5.243 -0.179 -1.97 -2.761 -1.122 0 0 -1.113 0.95 0 0 -0.663 3.899 0.443 5.012 1.777 6.583 5.516 13.863 0.518 1.163 2.645 5.063 0.381 0.623 1.031 1.332 0.19 0.215 0.992 0.699" />
    <path class="write-flat-pen" fill="#FFFFFF" stroke-width="3.5" __comx="257.729" __comy="76.628" __timestamp="0x17945364fbf" d="M255.511 83.83 l2.54 1.253 1.896 -1.796 -0.223 -0.66 -1.441 -0.668 -1.412 -0.777" />
    <path class="write-flat-pen" fill="#FFFFFF" stroke-width="3.5" __comx="243.647" __comy="49.327" __timestamp="0x17945365052" d="M247.617 51.786 l-3.663 -3.535 -3.601 -1.779 -0.676 0.773 2.172 3.271 3.516 3.551" />
    <path class="write-flat-pen" fill="#FFFFFF" stroke-width="3.5" __comx="313.57" __comy="73.649" __timestamp="0x17945366d9c" d="M311.721 59.126 l1.46 -1.467 -1.188 -0.054 1.02 2.637 0.111 0.792 0.738 10.74 -0.104 13.693 0.367 1.382 0.655 0.366 1.706 -1.01 0.426 -14.52 -0.935 -10.994 -0.23 -1.295 -2.151 -4.137 -1.526 -0.076 -1.842 2.782" />
    <path class="write-flat-pen" fill="#FFFFFF" stroke-width="3.5" __comx="328.383" __comy="73.649" __timestamp="0x17945366fe4" d="M310.722 63.64 l0.47 -3.75 0.056 -0.234 2.355 -6.437 0.241 -0.424 2.811 -3.743 2.883 -2.383 3.408 -1.663 4.22 -1.034 5.126 -0.274 3.03 0.562 2.254 1.209 1.014 1.25 0.617 1.889 -0.092 2.406 -1.055 3.421 -1.959 3.372 -2.752 2.99 -4.268 3.171 -8.977 4.726 -0.673 1.36 0 0 0.983 2.318 7.941 2.574 4.089 2.074 2.631 2.104 2.437 3.032 3.628 7.216 2.29 2.303 0.637 0.271 0.493 0.073 3.63 -0.114 0.128 -0.392 -2.862 -2.235 -0.232 -0.164 0.111 0.011 -1.406 -1.684 -3.555 -7.124 -2.905 -3.599 -3.198 -2.548 -4.641 -2.333 -8.196 -2.632 0.983 2.318 0 0 0.19 -0.395 8.233 -4.37 4.712 -3.515 3.198 -3.486 2.313 -4.01 1.281 -4.186 0.122 -3.413 -0.993 -3.006 -1.806 -2.212 -3.269 -1.745 -3.899 -0.718 -5.807 0.314 -4.848 1.187 -4.062 1.991 -3.458 2.893 -3.115 4.259 -0.461 0.857 -2.2 7.036 -0.069 0.596 -0.032 3.894" />
    <path class="write-flat-pen" fill="#FFFFFF" stroke-width="3.5" __comx="362.13" __comy="73.649" __timestamp="0x1794536719b" d="M352.359 73.425 l0.462 2.378 0.487 0.633 2.726 1.37 0.921 0.08 3.439 -0.687 2.785 -1.591 2.284 -2.622 1.155 -3.192 -1.072 -2.62 -2.242 -1.073 -3.321 0.285 -2.927 1.541 -2.283 2.475 -1.662 3.701 -0.539 3.764 0.755 3.799 1.784 3.171 2.598 2.077 3.351 0.985 4.173 -0.197 0.892 -0.194 1.349 -0.425 0.704 -0.336 3.723 -2.216 -0.099 -0.344 -4.332 0.091 -0.68 0.06 -1.246 0.126 -0.617 0.062 -3.411 -0.01 -2.187 -0.683 -1.558 -1.256 -1.193 -2.118 -0.537 -2.69 0.387 -2.709 1.236 -2.754 1.506 -1.633 1.795 -0.946 1.706 -0.149 0.22 0.103 0.084 0.192 -0.483 1.376 -1.481 1.747 -1.828 1.101 -2.462 0.617 0.069 0.021 -1.738 -0.588 0.262 0.355 -0.711 -1.723" />
    <path class="write-flat-pen" fill="#FFFFFF" stroke-width="3.5" __comx="380.607" __comy="73.649" __timestamp="0x17945367339" d="M384.734 77.569 l0.827 -1.525 0.098 -0.265 0.372 -1.458 0.005 -0.494 -1.032 -2.922 -0.736 -0.667 -2.171 -1.134 -3.239 -0.21 -3.017 0.867 -2.485 1.857 -1.754 2.921 -0.662 3.641 0.858 3.353 1.807 2.225 2.479 1.149 3.156 -0.182 5.615 -3.272 -0.202 0 2.084 4.031 0.662 0.445 0.375 0.085 2.319 -0.319 0.183 -0.405 -1.295 -1.95 0.022 -0.074 0.276 0.145 -2.525 -5.334 -2.811 0 -5.703 3.329 -1.505 0.085 -1.006 -0.466 -0.852 -1.046 -0.493 -1.924 0.421 -2.313 1.096 -1.832 1.463 -1.102 1.873 -0.555 1.987 0.094 1.221 0.576 -0.119 -0.122 0.821 1.613 0.009 -0.245 0.058 1.166 0.031 0.012 -0.288 1.582" />
    <path class="write-flat-pen" fill="#FFFFFF" stroke-width="3.5" __comx="401.483" __comy="73.649" __timestamp="0x17945367463" d="M399.763 72.758 l0.465 -1.923 -0.201 -0.981 -2.065 -0.755 -0.863 0.365 -2.832 1.964 -1.901 2.776 -0.734 3.468 0.993 3.557 1.904 2.422 2.916 1.628 2.973 0.438 6.48 -2.256 0.74 -0.566 1.049 -1.063 0.419 -0.576 0.371 -0.63 1.858 -3.773 -0.196 -0.169 -3.457 2.396 -0.539 0.426 -0.401 0.312 -0.98 0.681 -0.284 0.161 -5.354 1.663 -1.593 -0.243 -1.814 -1.006 -1.105 -1.378 -0.634 -2.153 0.4 -2.084 1.184 -1.842 2.021 -1.616 -0.37 0.144 -0.286 -0.285 -0.182 -0.893 0.093 1.584" />
    <path class="write-flat-pen" fill="#FFFFFF" stroke-width="3.5" __comx="415.017" __comy="73.649" __timestamp="0x1794536760f" d="M401.385 52.197 l2.358 2.191 0.22 0.323 3.379 6.205 0.468 1.092 2.324 6.938 0 0 2.612 14.22 0 0 3.376 -0.524 -0.324 -2.496 0.47 -2.958 1.025 -2.084 1.141 -1.022 0.689 -0.15 1.255 0.396 1.694 1.514 2.938 5.806 0.141 0.254 2.531 4.077 0.968 -0.334 -0.525 -4.77 -0.112 -0.479 -3.194 -6.642 -2.733 -2.432 -2.803 -0.88 -2.436 0.528 -2.295 2.052 -1.544 3.127 -0.639 3.939 0.364 2.981 3.376 -0.524 0 0 -2.688 -14.455 0 0 -2.504 -7.288 -0.613 -1.372 -3.795 -6.425 -0.602 -0.726 -2.851 -2.105" />
    <path class="write-flat-pen" fill="#FFFFFF" stroke-width="3.5" __comx="484.609" __comy="73.649" __timestamp="0x17945367996" d="M476.379 77.276 l0.455 3.777 0.143 0.914 0.668 5.223 0.013 0.254 0.026 0.172 0.078 0.592 0 0 2.698 -0.6 0.033 -0.506 -0.502 -9.293 -1.838 -11.683 -1.77 -6.638 -1.784 -3.758 -2.772 -3.243 0 0 -4.522 -2.112 0 0 -0.054 3.108 2.733 -1.112 5.081 -0.825 5.619 -0.004 5.761 1.097 5.352 2.064 3.374 2.382 2.624 3.242 1.243 2.841 0.813 4.439 -0.38 4.45 -1.398 4.561 -2.182 4.095 -2.268 2.622 -3.443 2.538 -3.446 1.355 -3.502 0.553 -2.092 -0.627 0.243 0.51 -0.091 -0.066 -1.904 -2.112 -0.697 0.213 -0.4 2.816 0.062 0.436 0.496 0.967 4.091 1.424 4.712 -0.741 4.224 -1.662 4.119 -3.043 2.77 -3.214 2.513 -4.735 1.596 -5.232 0.444 -5.274 -0.97 -5.283 -1.589 -3.63 -3.214 -3.973 -4.11 -2.906 -6.041 -2.331 -6.387 -1.215 -6.222 0.008 -5.746 0.941 -3.087 1.301 -0.054 3.108 0 0 3.902 1.729 0 0 2.042 2.343 1.494 3.088 1.704 6.18 1.901 11.353 0.658 9.021 0.02 0.395 2.698 -0.6 0 0 -0.255 -0.094 0.026 0.172 -0.064 -0.253 -1.194 -5.201 -0.264 -0.91 -1.045 -3.639" />
    <path class="write-flat-pen" fill="#FFFFFF" stroke-width="3.5" __comx="514.332" __comy="73.649" __timestamp="0x17945367c06" d="M502.566 74.642 l-0.422 2.192 -0.051 0.3 -0.322 2.996 -0.041 0.535 -0.269 5.116 -0.012 0.366 0 0 0.088 1.817 0 0 3.215 0.471 3.154 -8.127 1.803 -3.101 0.512 -0.386 0.163 0.007 0.606 0.665 1.721 6.717 2.773 1.179 3.972 -5.571 0.767 -0.53 0.108 0.017 0.654 0.851 1.791 6.013 0.19 0.484 0.506 0.821 3.007 3.348 0.736 -0.377 -0.944 -4.37 -0.243 -0.712 -0.063 -0.222 -1.832 -6.573 -1.887 -2.466 -2.844 -0.462 -2.418 1.666 -2.708 3.811 1.352 0.577 -1.536 -5.882 -2.141 -2.344 -2.806 -0.115 -2.043 1.535 -2.285 3.941 -3.173 8.414 3.215 0.471 0 0 -0.172 -1.664 0 0 -0.002 -0.208 -0.025 -5.099 -0.007 -0.511 -0.075 -2.963 -0.012 -0.251 -0.05 -2.214" />
    <path class="write-flat-pen" fill="#FFFFFF" stroke-width="3.5" __comx="586.341" __comy="72.816" __timestamp="0x17945367f06" d="M590.544 73.785 l1.155 -0.652 0.176 -0.436 0.225 -1.038 -0.081 -0.579 -1.059 -1.871 -0.659 -0.501 -2.909 -0.985 -3.949 0.526 -2.902 1.565 -2.169 2.397 -1.71 3.93 -0.375 3.445 0.748 3.152 1.692 2.326 2.676 1.105 2.499 -0.284 3.105 -1.736 3.103 -3.337 2.584 -4.924 0 0 -3.106 -0.384 2.159 8.51 0.499 0.517 0.298 0.204 3.458 1.647 0.394 -0.413 -1.807 -3.377 -0.122 -0.197 0.152 0.124 -1.781 -7.8 -3.106 -0.384 0 0 -2.372 4.532 -2.438 2.633 -2.064 1.163 -0.988 0.118 -1.032 -0.416 -0.769 -1.035 -0.483 -1.959 0.249 -2.392 1.296 -2.992 1.437 -1.601 1.898 -1.048 2.671 -0.419 1.818 0.479 -0.13 -0.118 0.773 0.818 -0.003 -0.195 0.219 0.434 0.149 -0.361 -0.384 0.742" />
    <path class="write-flat-pen" fill="#FFFFFF" stroke-width="3.5" __comx="610.574" __comy="77.382" __timestamp="0x179453685bb" d="M616.74 75.321 l0.621 -1.731 0.061 -0.117 0.791 -2.061 0.09 -0.435 -0.267 -2.251 -2.225 -1.445 -3.027 0.635 -2.529 2.2 -1.518 3.149 -0.334 3.43 0.798 2.805 1.784 1.854 2.492 0.508 2.469 -0.976 0 0 2.368 -2.618 0 0 2.061 -5.192 0 0 -3.258 -0.614 0.066 20.18 -0.549 5.736 -1.356 4.883 -1.514 2.865 -1.81 1.958 -2.199 1.197 -2.176 0.366 -1.856 -0.456 -0.91 -0.731 -0.721 -1.468 -0.039 -2.412 0.906 -2.878 2.628 -3.854 4.11 -3.979 0.81 -0.592 1.964 -1.289 0.977 -0.634 1.027 -0.723 3.428 -2.69 -0.239 -0.489 -4.229 1.049 -1.235 0.382 -1.18 0.493 -2.236 1.191 -1.146 0.745 -4.663 4.298 -3.156 4.558 -1.239 3.903 0.057 3.751 1.402 2.859 2.114 1.696 3.301 0.802 3.45 -0.592 3.199 -1.753 2.493 -2.711 1.885 -3.596 1.518 -5.532 0.574 -6.2 -0.078 -20.346 -3.258 -0.614 0 0 -1.821 4.634 0 0 -1.43 1.593 0 0 -0.817 0.328 -0.503 -0.099 -0.49 -0.505 -0.401 -1.399 0.212 -2.218 0.959 -2.015 1.369 -1.223 0.917 -0.238 -0.034 -0.086 0.133 0.326 0.044 -0.186 -0.363 2.008 -0.038 0.201 -0.186 1.936" />
    <path class="write-flat-pen" fill="#FFFFFF" stroke-width="3.5" __comx="633.821" __comy="77.382" __timestamp="0x179453687de" d="M635.683 78.06 l0.312 -1.005 0.058 -0.045 0.441 -0.988 0.054 -0.258 0.019 -2.069 -0.393 -0.844 -2.11 -1.669 -2.983 0.109 -2.491 1.533 -1.778 2.523 -0.751 3.366 0.713 2.59 2.075 1.691 2.951 0.155 4.021 -3.23 -0.847 -0.1 2.668 6.148 1.261 0.329 0.736 -0.095 0.488 -0.319 1.456 -1.795 -0.12 -0.323 -2.274 -0.415 -0.128 -0.091 0.257 -0.079 0.704 0.158 -2.696 -6.634 -2.515 -0.3 -4.119 3.344 -0.596 -0.02 -0.425 -0.33 -0.229 -0.781 0.412 -1.937 1.009 -1.462 1.209 -0.779 1.043 -0.097 0.757 0.442 -0.126 -0.305 0.288 1.202 0.027 -0.075 0.057 1.006 0.004 0.201 0.221 1.19" />
    <path class="write-flat-pen" fill="#FFFFFF" stroke-width="3.5" __comx="649.657" __comy="77.382" __timestamp="0x179453688a6" d="M647.331 70.711 l2.201 10.441 1.761 2.318 0.155 -0.037 0.535 -2.839 -2.321 -10.39" />
    <path class="write-flat-pen" fill="#FFFFFF" stroke-width="3.5" __comx="651.11" __comy="77.382" __timestamp="0x1794536892f" d="M652.479 62.23 l-1.762 -1.57 -0.975 2.084 0.506 0.495 0.586 0.49 0.199 0.149" />
    <path class="write-flat-pen" fill="#FFFFFF" stroke-width="3.5" __comx="666.992" __comy="77.382" __timestamp="0x17945368aa5" d="M656.712 78.275 l0.124 2.301 0.006 0.131 -0.127 1.082 2.317 -1.149 0.39 0.313 0.029 -0.953 0.014 -0.123 0.657 -3.011 1.255 -2.259 1.057 -0.801 0.563 -0.057 0.847 0.406 1.118 1.488 2.744 7.755 1.992 2.893 2.65 1.104 0.939 -0.029 0.766 -0.179 0.658 -0.321 2.966 -1.99 -0.092 -0.341 -3.565 -0.222 -0.529 0.001 -0.353 -0.042 -0.06 -0.054 -1.123 -0.61 -1.181 -1.767 -2.775 -7.831 -1.94 -2.571 -2.475 -1.172 -2.465 0.275 -2.363 1.835 -1.783 3.361 -0.671 3.825 0.011 0.624 0.423 2.172 0.437 0.355 2.317 -1.149 -0.305 -1.158 -0.057 -0.23 -0.647 -2.207" />
    <path class="write-stroke-pen" fill="none" stroke="#FFFFFF" stroke-width="1.6" stroke-linecap="round" stroke-linejoin="round" __comx="384.028" __comy="113.659" __timestamp="0x17945369977" d="M49.972 118.099 l668.111 -8.346" />
    <path class="write-flat-pen" fill="#FFFFFF" stroke-width="2" __comx="104.368" __comy="198.564" __timestamp="0x17947562afd" d="M101.601 183.64 l1.255 1.583 0.108 0.23 1.312 3.844 0.19 0.879 0.733 6.951 -0.143 5.837 -1.147 6.951 -0.895 4.052 0.442 0.178 2.227 -3.725 1.326 -7.264 0.125 -6.117 -0.886 -7.178 -0.285 -1.095 -1.75 -3.954 -0.329 -0.443 -1.76 -1.279" />
    <path class="write-flat-pen" fill="#FFFFFF" stroke-width="2" __comx="103.321" __comy="198.564" __timestamp="0x17947562c0e" d="M90.319 187.639 l-1.179 -0.74 0 0 0.023 1.509 3.198 -1.702 0.627 -0.251 6.658 -1.925 7.214 -0.938 5.072 0.038 1.029 0.099 0.907 0.056 4.391 0.078 0.077 -0.544 -4.239 -1.148 -0.891 -0.199 -1.13 -0.196 -5.324 -0.161 -7.512 0.967 -6.897 2.021 -0.838 0.347 -3.198 1.963 0.023 1.509 0 0 1.272 0.566" />
    <path class="write-flat-pen" fill="#FFFFFF" stroke-width="2" __comx="130.017" __comy="198.564" __timestamp="0x17947562ede" d="M119.701 198.896 l0.149 -1.806 -0.01 0.167 0.028 -0.135 -1.513 -0.152 -0.147 2.971 -0.029 0.569 0.047 5.039 0.783 2.548 1.579 1.324 1.924 0.075 2.345 -1.274 3.258 -3.749 0.121 -0.025 2.843 3.882 2.399 1.581 2.623 -0.02 2.489 -1.465 1.693 -2.263 1.418 -4.502 0.151 -4.244 -0.735 -3.484 -1.59 -2.799 -2.044 -1.14 -2.5 1.773 -0.29 0.772 -0.105 0.543 -0.306 3.193 0.371 0.115 1.55 -2.809 0.193 -0.418 0.103 -0.151 1.09 -0.672 0.477 0.267 1.16 2.042 0.621 2.94 -0.132 3.728 -1.232 3.921 -1.247 1.674 -1.683 0.999 -1.492 0.02 -1.607 -1.05 -3.386 -4.612 -1.999 0.425 -3.453 3.982 -1.564 0.856 -0.728 -0.025 -0.637 -0.528 -0.543 -1.735 -0.098 -4.712 0.015 -0.56 -0.177 -3.01 -1.513 -0.152 0.028 -0.135 -0.037 0.297 0.325 1.971" />
    <path class="write-flat-pen" fill="#FFFFFF" stroke-width="2" __comx="148.497" __comy="198.564" __timestamp="0x17947563055" d="M153.361 199.815 l-1.357 -3.275 -1.785 -1.659 -3.046 -0.991 -2.185 0.399 -1.935 1.779 -1.11 2.873 0.011 3.264 1.158 3.411 1.975 2.375 2.367 1.035 2.752 -0.372 2.011 -1.346 1.934 -2.964 0.9 -3.252 -0.132 -3.025 -1.105 -2.708 -2.049 -1.931 -2.27 0.101 -0.558 0.417 -2.008 2.034 0.334 0.514 2.674 -1.011 0.154 -0.046 0.906 0.011 1.131 1.069 0.81 1.985 0.103 2.362 -0.732 2.649 -1.539 2.366 -1.289 0.869 -1.747 0.247 -1.439 -0.617 -1.455 -1.733 -0.949 -2.765 -0.016 -2.585 0.811 -2.119 1.194 -1.107 1.169 -0.221 2.212 0.693 1.238 1.088 1.372 2.851" />
    <path class="write-flat-pen" fill="#FFFFFF" stroke-width="2" __comx="199.701" __comy="198.564" __timestamp="0x179475633ab" d="M204.191 189.231 l-1.582 -1.093 -0.35 -0.168 -5.258 -0.987 -0.708 0.214 -1.918 1.364 -0.78 2.051 0.559 2.504 1.797 1.752 7.409 3.204 2.598 1.848 0.978 1.508 0.321 1.791 -0.601 2.012 -1.712 1.848 -2.787 1.19 -2.94 0.373 -3.261 -0.427 -2.922 -1.223 -0.862 -0.949 -0.02 -1.554 0.054 -0.166 0.209 -0.388 1.374 -2.962 -0.263 -0.192 -2.411 2.201 -0.362 0.391 -0.388 0.597 -0.193 2.792 1.681 1.891 3.583 1.496 3.78 0.488 3.467 -0.451 3.416 -1.481 2.283 -2.498 0.849 -2.882 -0.472 -2.621 -1.388 -2.14 -3.06 -2.181 -7.27 -3.146 -1.137 -1.103 -0.317 -1.386 0.363 -0.984 1.186 -0.876 0.002 -0.005 4.703 0.572 0.139 0.035 1.751 0.631" />
    <path class="write-flat-pen" fill="#FFFFFF" stroke-width="2" __comx="217.693" __comy="198.564" __timestamp="0x17947563546" d="M210.935 195.847 l-1.716 -0.419 -0.411 1.003 -0.726 5.313 0.353 4.664 1.194 2.719 2.15 1.421 2.39 -0.002 3.085 -1.617 2.479 -2.658 2.114 -3.798 0.98 -3.595 0 0 -0.268 -1.807 0 0 -1.706 -0.51 -0.937 1.047 -0.544 3.959 0.461 3.443 1.551 3.047 2.297 1.14 0.699 -0.077 2.922 -0.715 -0.004 -0.251 -2.942 -0.629 -0.246 -0.063 -1.271 -0.811 -1.098 -2.229 -0.379 -2.851 0.423 -3.1 0.534 -0.601 -1.706 -0.51 0 0 0.209 1.399 0 0 -0.808 2.968 -1.88 3.383 -2.087 2.242 -2.363 1.243 -1.324 0.003 -1.184 -0.78 -0.835 -1.891 -0.331 -4.138 0.558 -4.907 -0.211 0.496 0.383 -0.132" />
    <path class="write-flat-pen" fill="#FFFFFF" stroke-width="2" __comx="235.041" __comy="198.564" __timestamp="0x17947563714" d="M228.604 182.24 l-1.113 3.601 -0.085 0.872 0.029 6.26 1.613 12.755 0 0 0.919 2.746 0 0 1.59 0.397 0.85 -0.792 1.412 -6.797 1.076 -2.419 1.269 -1.275 1.378 -0.49 1.095 0.179 1.098 0.87 0.913 2.037 0.049 1.902 -0.846 2.384 -1.589 1.772 -1.673 0.759 -2.147 -0.043 -1.405 -0.618 -1.295 -2.095 -0.041 -0.014 -0.287 -3.016 -0.318 -0.043 -1.083 2.829 -0.124 0.602 1.757 3.276 2.359 1.049 2.993 0.06 2.458 -1.118 2.124 -2.373 1.095 -3.097 -0.073 -2.66 -1.27 -2.833 -1.873 -1.486 -2.098 -0.346 -2.278 0.807 -1.843 1.849 -1.308 2.947 -1.32 6.4 -0.391 0.377 1.59 0.397 0 0 -0.874 -2.558 0 0 -1.634 -12.452 -0.145 -6.069 0.036 -0.647 0.704 -3.555" />
    <path class="write-flat-pen" fill="#FFFFFF" stroke-width="2" __comx="251.955" __comy="198.564" __timestamp="0x17947563847" d="M253.123 196.212 l0.393 -3.46 -0.268 -0.628 -1.73 -1.211 -2.5 0.429 -2.28 1.89 -1.631 3.122 -0.736 3.773 0.428 3.536 1.439 2.948 2.23 1.872 3.091 0.91 3.866 -0.576 0.651 -0.32 3.462 -1.984 -0.136 -0.347 -3.89 0.888 -0.497 0.128 -3.286 0.282 -2.313 -0.726 -1.6 -1.356 -1.11 -2.282 -0.354 -2.903 0.613 -3.197 1.304 -2.542 1.579 -1.347 1.262 -0.252 0.729 0.444 -0.093 -0.231 0.019 3.062" />
    <path class="write-flat-pen" fill="#FFFFFF" stroke-width="2" __comx="264.821" __comy="198.564" __timestamp="0x17947563a08" d="M264.722 198.421 l0.841 -2.274 0.044 -0.516 -0.71 -1.841 -1.767 -0.993 -2.147 0.285 -2.097 1.783 -1.705 3.759 -0.624 3.99 0.44 3.591 1.437 1.848 2.273 0.388 2.268 -1.291 2.045 -2.917 0 0 1.13 -3.61 0 0 -1.915 -0.079 1.008 4.493 1.45 2.427 2.152 1.073 0.722 0.017 0.54 -0.117 2.979 -0.973 -0.021 -0.223 -3.11 -0.386 -0.401 -0.027 -0.186 -0.056 -1.268 -0.771 -0.99 -1.703 -0.939 -4.188 -1.915 -0.079 0 0 -1.038 3.316 0 0 -1.614 2.298 -1.263 0.719 -0.813 -0.139 -0.628 -0.806 -0.34 -2.772 0.537 -3.45 1.407 -3.113 1.316 -1.125 0.927 -0.131 0.607 0.325 0.344 0.777 0.015 -0.122 -0.49 2.165" />
    <path class="write-flat-pen" fill="#FFFFFF" stroke-width="2" __comx="290.238" __comy="198.564" __timestamp="0x17947563c94" d="M279.176 192.692 l-1.952 0.018 -0.481 0.253 -1.653 1.37 -0.766 2.099 0.878 2.059 7.186 3.766 0.799 0.848 0.008 0.64 -0.967 1.207 -3.504 1.868 -1.022 0.157 0.07 0.534 1.131 -1.477 3.48 -2.189 11.366 -3.475 2.237 -1.315 0.947 -1.805 -0.852 -1.696 -2.204 -0.729 -2.366 0.795 -1.9 2.165 -0.86 2.756 0.534 2.727 1.541 1.912 2.688 1.35 5.519 -0.018 0.928 -0.266 2.243 -1.05 0.708 -0.488 3.241 -2.445 -0.078 -0.141 -3.791 1.453 -0.707 0.297 -2.159 0.704 -0.601 0.125 -4.822 -0.134 -1.89 -0.966 -0.962 -1.198 -0.344 -1.752 0.582 -1.877 1.268 -1.455 1.242 -0.43 0.833 0.26 0.072 0.105 -0.222 0.494 -1.551 1.003 -11.367 3.468 -4.023 2.373 -1.926 2.368 0.335 2.274 3.32 -0.501 4.16 -2.233 1.655 -2.09 -0.056 -2.102 -1.544 -1.623 -6.867 -3.591 -0.32 -0.728 0.315 -0.928 1.079 -0.988 -0.009 -0.009 1.552 -0.356" />
    <path class="write-flat-pen" fill="#FFFFFF" stroke-width="2" __comx="309.959" __comy="198.564" __timestamp="0x17947563de6" d="M312.479 193.313 l-0.507 -1.585 -0.223 -0.331 -2.737 -2.168 -0.829 -0.074 -1.487 0.947 0.549 2.281 2.35 2.222 10.087 5.197 1.601 1.522 0.139 0.728 -0.488 1.18 -2.197 1.93 -3.84 1.674 -6.076 1.355 -7.013 0.59 -0.431 0.013 -0.482 0.022 -4.434 0.515 -0.014 0.337 4.376 0.883 0.49 0.062 0.538 0.04 7.263 -0.485 6.404 -1.427 4.301 -1.88 2.774 -2.451 0.874 -2.164 -0.39 -1.916 -2.263 -2.127 -10.08 -5.205 -1.73 -1.638 -0.102 -0.382 -0.229 0.13 -0.349 -0.034 2.288 1.488 0.021 -0.013 0.845 1.242" />
    <path class="write-flat-pen" fill="#FFFFFF" stroke-width="2" __comx="88.097" __comy="348.991" __timestamp="0x1794756454b" d="M92.128 335.059 l2.172 -3.519 0.18 -0.617 -0.055 -5.308 -0.294 -0.64 -1.631 -1.832 -2.742 -1.27 -3.388 -0.27 -3.402 0.817 -3.051 1.695 -3.113 2.916 -2.174 3.359 -0.732 2.997 0.621 2.218 2.054 1.932 3.63 1.312 12.165 1.923 3.925 1.245 1.996 1.335 1.399 1.94 0.574 2.649 -0.448 2.652 -1.445 2.931 -3.066 3.572 -2.988 2.173 -3.189 1.316 -4.778 0.869 -3.765 -0.331 -2.528 -1.032 -1.297 -1.231 -0.477 -1.505 0.466 -1.786 1.977 -2.359 0.461 -0.388 0.614 -0.488 3.133 -2.746 -0.379 -0.562 -3.719 1.878 -0.727 0.417 -0.696 0.494 -2.478 2.8 -0.733 2.793 0.808 2.549 1.944 1.844 3.155 1.288 4.334 0.381 5.252 -0.955 3.606 -1.488 3.37 -2.45 3.382 -3.941 1.686 -3.42 0.561 -3.321 -0.744 -3.433 -1.854 -2.571 -2.532 -1.694 -4.34 -1.377 -12.126 -1.917 -3.061 -1.106 -1.347 -1.267 -0.33 -1.177 0.528 -2.159 1.858 -2.87 2.754 -2.58 2.596 -1.442 2.828 -0.68 2.718 0.214 2.054 0.94 1.185 1.29 0.009 0.009 0.254 4.65 -0.032 0.182 -1.695 3.545" />
    <path class="write-flat-pen" fill="#FFFFFF" stroke-width="2" __comx="110.191" __comy="348.991" __timestamp="0x179475646fa" d="M102.452 347.183 l-1.919 0.091 -0.507 0.58 -0.39 4.547 0.118 0.859 1.058 3.317 1.844 2.358 2.608 1.073 2.989 -0.517 2.192 -1.45 2.186 -2.944 1.315 -3.416 0 0 0.647 -4.664 0 0 -0.584 -1.109 0 0 -1.877 0.341 -0.406 3.223 0.638 3.808 1.596 3.588 2.719 1.772 0.871 -0.072 0.631 -0.264 2.565 -1.445 -0.106 -0.359 -2.938 0.186 -0.457 0.059 -0.023 -0.033 -1.67 -1.181 -1.258 -2.832 -0.547 -3.268 0.37 -2.932 -1.877 0.341 0 0 0.284 0.54 0 0 -0.526 3.798 0 0 -1.134 2.947 -1.813 2.444 -1.55 1.027 -2.01 0.35 -1.592 -0.652 -1.307 -1.662 -0.918 -2.816 -0.075 -0.496 0.122 -3.792 -0.297 0.329 1.225 -0.387" />
    <path class="write-flat-pen" fill="#FFFFFF" stroke-width="2" __comx="129.456" __comy="348.991" __timestamp="0x179475648df" d="M120.657 330.255 l-0.578 4.161 0.023 0.924 1.147 9.696 0 0 3.167 14.283 0 0 1.92 -0.071 0.782 -5.265 1.22 -3.13 1.495 -1.755 1.884 -1.025 1.638 -0.058 1.629 0.943 1.284 2.097 0.567 2.734 -0.4 2.544 -0.891 1.613 -1.636 1.25 -2.143 0.671 -2.421 -0.124 -1.583 -0.695 -0.476 -1.28 -0.058 0.047 0.424 -0.761 1.366 -2.708 -0.17 -0.141 -2.434 1.871 -0.738 0.785 -0.411 0.763 0.882 2.887 2.732 1.2 3.141 0.158 2.816 -0.886 2.239 -1.719 1.256 -2.282 0.504 -3.242 -0.714 -3.418 -1.724 -2.811 -2.547 -1.476 -2.664 0.093 -2.613 1.417 -1.949 2.285 -1.421 3.647 -0.799 5.488 1.92 -0.071 0 0 -3.2 -14.182 0 0 -1.246 -9.517 -0.043 -0.731 0.195 -4.079" />
    <path class="write-flat-pen" fill="#FFFFFF" stroke-width="2" __comx="150.658" __comy="348.991" __timestamp="0x17947564a03" d="M154.264 344.36 l-3.202 -2.861 -0.775 -0.236 -2.729 -0.317 -2.879 0.693 -2.17 1.607 -1.524 2.413 -1.07 4.296 0.194 3.513 1.395 4.16 1.805 2.488 2.716 1.851 3.057 0.912 6.866 -1.103 0.931 -0.458 1.404 -0.976 3.119 -2.688 -0.149 -0.233 -3.727 1.687 -1.433 0.69 -0.651 0.252 -6.216 0.835 -2.343 -0.714 -2.176 -1.493 -1.423 -1.966 -1.213 -3.62 -0.164 -2.948 0.917 -3.7 1.153 -1.837 1.55 -1.159 2.157 -0.535 2.223 0.227 0.239 0.065 3.084 2.39" />
    <path class="write-flat-pen" fill="#FFFFFF" stroke-width="2" __comx="167.173" __comy="348.991" __timestamp="0x17947564be7" d="M167.611 349.998 l0.673 -1.616 0.042 -0.166 0.108 -1.769 -1.196 -1.808 -2.157 -0.725 -2.424 0.57 -2.273 1.949 -1.585 3.151 -0.83 4.325 0.243 3.19 1.15 2.652 2.125 1.547 2.995 -0.062 2.299 -1.3 2.325 -2.868 0 0 2.85 -6.984 -1.896 -0.271 0.557 5.349 1.684 3.189 0.626 0.352 0.367 0.111 2.99 0.489 0.096 -0.222 -2.41 -1.837 -0.207 -0.136 -0.035 -0.061 -1.179 -2.454 -0.525 -4.984 -1.896 -0.271 -2.745 6.709 0 0 -1.907 2.344 -1.535 0.866 -1.822 0.036 -1.144 -0.833 -0.801 -1.847 -0.198 -2.591 0.725 -3.792 1.279 -2.55 1.603 -1.383 1.412 -0.342 1.01 0.321 0.529 0.728 0.032 0.992 0.016 -0.053 -0.284 1.672" />
    <path class="write-flat-pen" fill="#FFFFFF" stroke-width="2" __comx="183.594" __comy="348.991" __timestamp="0x17947564d5d" d="M182.394 341.113 l-3.034 -1.479 -0.5 -0.121 -2.131 0.038 -1.769 1.365 -0.693 2.313 0.827 2.201 2.255 1.658 8.115 2.1 3.502 1.586 1.412 1.479 0.532 1.464 -0.296 1.896 -1.251 1.898 -2.047 1.607 -2.816 1.113 -0.916 -0.039 -0.597 -0.999 -0.041 0.022 0.274 -0.81 0.928 -3.007 -0.305 -0.163 -2.005 2.465 -0.54 0.867 -0.28 0.797 1.319 2.762 2.499 0.119 3.484 -1.379 2.529 -1.991 1.658 -2.539 0.413 -2.828 -0.874 -2.306 -1.963 -2.014 -3.986 -1.795 -7.914 -2.056 -1.502 -1.109 -0.41 -1.076 0.317 -1.143 0.808 -0.683 1.325 -0.12 0.148 0.017 3.061 1.022" />
    <path class="write-flat-pen" fill="#FFFFFF" stroke-width="2" __comx="202.577" __comy="348.991" __timestamp="0x17947564ed6" d="M195.305 347.129 l-1.384 1.726 -0.05 0.58 0.677 1.707 2.302 1.201 3.178 0.162 3.546 -0.96 2.96 -1.929 1.34 -2.372 -0.363 -2.606 -2.243 -1.773 -3.049 -0.357 -3.198 1.27 -2.082 1.947 -1.903 3.444 -0.667 3.401 0.612 3.077 1.882 2.629 3.1 1.63 5.515 -0.283 1.243 -0.459 1.09 -0.561 3.469 -2.004 -0.129 -0.32 -3.888 0.969 -1.114 0.329 -0.984 0.248 -4.746 0.086 -2.213 -1.174 -1.359 -1.899 -0.454 -2.272 0.527 -2.713 1.589 -2.91 1.575 -1.498 2.395 -0.975 2.023 0.235 1.2 0.962 0.151 1.188 -0.791 1.38 -2.302 1.506 -2.953 0.819 -2.478 -0.084 -1.42 -0.648 -0.409 -0.696 -0.03 0.225 0.761 -1.635" />
    <path class="write-flat-pen" fill="#FFFFFF" stroke-width="2" __comx="254.789" __comy="348.991" __timestamp="0x179475650e9" d="M251.626 327.491 l0.077 3.751 0.106 1.267 4.145 23.698 1.582 3.927 0.415 -0.109 -0.53 -4.133 -3.841 -23.621 -0.141 -1.174 -0.424 -3.699" />
    <path class="write-flat-pen" fill="#FFFFFF" stroke-width="2" __comx="192.537" __comy="381.293" __timestamp="0x1794756542d" d="M41.367 380.14 l-0.608 0.065 -1.164 -0.004 0 0 -0.41 1.29 0.983 0.915 8.201 0.922 115.757 -1.732 45.727 0.025 25.919 1.129 93.628 7.097 4.497 0.07 4.557 0.017 4.513 -0.163 2.917 -0.122 0.006 -0.361 -2.912 -0.214 -4.499 -0.306 -4.541 -0.238 -4.455 -0.221 -93.605 -7.348 -25.989 -1.116 -45.778 0.037 -115.669 1.831 -7.619 -0.799 -0.663 -0.534 -0.41 1.29 0 0 1.137 -0.249 0.608 -0.065" />
    <path class="write-flat-pen" fill="#FFFFFF" stroke-width="2" __comx="351.763" __comy="361.094" __timestamp="0x17947565856" d="M350.96 364.276 l1.808 -3.037 1.374 -2.968 -0.235 -0.175 -2.473 2.218 -2.049 2.945" />
    <path class="write-flat-pen" fill="#FFFFFF" stroke-width="2" __comx="342.684" __comy="327.071" __timestamp="0x179475658f2" d="M344.181 328.027 l-1.363 -1.674 -1.285 -0.403 -0.346 0.269 0.084 1.357 1.35 1.704" />
  </g>
</svg>
