<svg class="write-page" width="1010px" height="1628px" xmlns="http://www.w3.org/2000/svg" xmlns:xlink="http://www.w3.org/1999/xlink">
  <g class="write-content write-v3" width="1010" height="1628" xruling="30" yruling="30" marginLeft="30" papercolor="#1B1C1C" rulecolor="#3A00F9FF">
    <g class="ruleline write-std-ruling write-scale-down" fill="none" stroke="#00F9FF" stroke-opacity="0.227" stroke-width="1" shape-rendering="crispEdges" vector-effect="non-scaling-stroke">
      <rect class="pagerect" fill="#1B1C1C" stroke="none" x="0" y="0" width="1010" height="1628" />
      <path class="yrule_1" d="M0 30 l1010 0" />
      <path d="M0 60 l1010 0" />
      <path d="M0 90 l1010 0" />
      <path d="M0 120 l1010 0" />
      <path d="M0 150 l1010 0" />
      <path d="M0 180 l1010 0" />
      <path d="M0 210 l1010 0" />
      <path d="M0 240 l1010 0" />
      <path d="M0 270 l1010 0" />
      <path d="M0 300 l1010 0" />
      <path d="M0 330 l1010 0" />
      <path d="M0 360 l1010 0" />
      <path d="M0 390 l1010 0" />
      <path d="M0 420 l1010 0" />
      <path d="M0 450 l1010 0" />
      <path d="M0 480 l1010 0" />
      <path d="M0 510 l1010 0" />
      <path d="M0 540 l1010 0" />
      <path d="M0 570 l1010 0" />
      <path d="M0 600 l1010 0" />
      <path d="M0 630 l1010 0" />
      <path d="M0 660 l1010 0" />
      <path d="M0 690 l1010 0" />
      <path d="M0 720 l1010 0" />
      <path d="M0 750 l1010 0" />
      <path d="M0 780 l1010 0" />
      <path d="M0 810 l1010 0" />
      <path d="M0 840 l1010 0" />
      <path d="M0 870 l1010 0" />
      <path d="M0 900 l1010 0" />
      <path d="M0 930 l1010 0" />
      <path d="M0 960 l1010 0" />
      <path d="M0 990 l1010 0" />
      <path d="M0 1020 l1010 0" />
      <path d="M0 1050 l1010 0" />
      <path d="M0 1080 l1010 0" />
      <path d="M0 1110 l1010 0" />
      <path d="M0 1140 l1010 0" />
      <path d="M0 1170 l1010 0" />
      <path d="M0 1200 l1010 0" />
      <path d="M0 1230 l1010 0" />
      <path d="M0 1260 l1010 0" />
      <path d="M0 1290 l1010 0" />
      <path d="M0 1320 l1010 0" />
      <path d="M0 1350 l1010 0" />
      <path d="M0 1380 l1010 0" />
      <path d="M0 1410 l1010 0" />
      <path d="M0 1440 l1010 0" />
      <path d="M0 1470 l1010 0" />
      <path d="M0 1500 l1010 0" />
      <path d="M0 1530 l1010 0" />
      <path d="M0 1560 l1010 0" />
      <path d="M0 1590 l1010 0" />
      <path d="M0 1620 l1010 0" />
      <path class="xrule_1" d="M30 0 l0 1628" />
      <path d="M60 0 l0 1628" />
      <path d="M90 0 l0 1628" />
      <path d="M120 0 l0 1628" />
      <path d="M150 0 l0 1628" />
      <path d="M180 0 l0 1628" />
      <path d="M210 0 l0 1628" />
      <path d="M240 0 l0 1628" />
      <path d="M270 0 l0 1628" />
      <path d="M300 0 l0 1628" />
      <path d="M330 0 l0 1628" />
      <path d="M360 0 l0 1628" />
      <path d="M390 0 l0 1628" />
      <path d="M420 0 l0 1628" />
      <path d="M450 0 l0 1628" />
      <path d="M480 0 l0 1628" />
      <path d="M510 0 l0 1628" />
      <path d="M540 0 l0 1628" />
      <path d="M570 0 l0 1628" />
      <path d="M600 0 l0 1628" />
      <path d="M630 0 l0 1628" />
      <path d="M660 0 l0 1628" />
      <path d="M690 0 l0 1628" />
      <path d="M720 0 l0 1628" />
      <path d="M750 0 l0 1628" />
      <path d="M780 0 l0 1628" />
      <path d="M810 0 l0 1628" />
      <path d="M840 0 l0 1628" />
      <path d="M870 0 l0 1628" />
      <path d="M900 0 l0 1628" />
      <path d="M930 0 l0 1628" />
      <path d="M960 0 l0 1628" />
      <path d="M990 0 l0 1628" />
      <path class="leftmargin" stroke="#FF0000" d="M30 0 l0 1628" />
    </g>
    <path class="write-flat-pen" fill="#FFFFFF" stroke-width="2" __comx="109.662" __comy="46.592" __timestamp="0x17945348575" d="M114.786 36.052 l1.076 -0.962 0.153 -0.305 0.377 -2.089 -0.212 -0.586 -1.566 -1.454 -2.464 0.068 -3.724 1.528 -4.058 2.841 -2.823 3.034 -2.421 4.068 -1.144 4.368 0.367 3.633 1.395 3.166 2.121 2.248 3.346 1.372 3.958 0.057 4.22 -1.236 4.534 -2.501 3.421 -3.048 -0.341 -0.514 -4.066 1.92 -4.31 2.29 -3.729 1.093 -3.28 -0.047 -2.599 -1.065 -1.591 -1.685 -1.13 -2.564 -0.3 -2.962 0.981 -3.749 2.168 -3.646 2.534 -2.728 3.704 -2.603 3.192 -1.339 1.366 -0.083 0.764 0.574 -0.063 -0.201 0.063 1.526 0.033 -0.006 -0.495 1.19" />
    <path class="write-flat-pen" fill="#FFFFFF" stroke-width="2" __comx="128.167" __comy="46.592" __timestamp="0x179453487af" d="M128.948 47.428 l-0.826 -1.323 -0.416 -0.248 -4.098 -0.327 -0.548 0.297 -1.366 1.496 -0.6 2.528 0.965 1.914 2.213 0.843 2.195 -0.659 2.121 -1.971 0 0 -1.51 -0.247 1.616 2.989 1.927 1.461 1.844 -0.064 2.776 -1.374 -0.112 -0.44 -2.873 0.062 -0.975 -0.096 -1.079 -0.838 -1.423 -2.621 -1.51 -0.247 0 0 -1.788 1.673 -1.143 0.352 -0.93 -0.338 -0.351 -0.65 0.291 -1.436 0.808 -0.98 -0.128 0.063 3.347 -0.117 -0.008 -0.036 1.111 0.767" />
    <path class="write-flat-pen" fill="#FFFFFF" stroke-width="2" __comx="146.01" __comy="46.592" __timestamp="0x17945348aab" d="M134.821 42.485 l0.993 0.331 -0.472 -0.179 -0.22 0.617 0.072 -0.103 0 0 -2.26 1.928 0 0 0.802 1.665 3.813 -0.646 3.068 0.251 1.73 0.753 0.951 1.121 0.276 1.6 -0.501 1.285 0 0 -1.398 1.281 0 0 -1.158 0.286 0 0 0.989 1.605 5.96 -6.932 0 0 0.803 -1.853 0 0 -1.687 -1.003 -1.115 1.426 -0.477 2.624 0.7 2.137 1.712 1.528 2.383 0.626 4.877 -1.246 0.904 -0.493 3.521 -2.198 -0.239 -0.528 -3.974 1.199 -0.808 0.284 -4.258 0.946 -1.44 -0.385 -0.96 -0.857 -0.379 -1.153 0.298 -1.65 0.814 -1.041 -1.687 -1.003 0 0 -0.684 1.577 0 0 -5.764 6.704 0.989 1.605 0 0 1.647 -0.41 0 0 2.104 -1.937 0 0 0.859 -2.225 -0.468 -2.663 -1.592 -1.871 -2.444 -1.063 -3.64 -0.295 -4.052 0.719 0.802 1.665 0 0 2.291 -2.113 0 0 0.367 -0.466 -0.046 -2.203 -0.676 -0.268 -1.267 0.176" />
    <path class="write-flat-pen" fill="#FFFFFF" stroke-width="2" __comx="175.872" __comy="46.592" __timestamp="0x17945348dda" d="M169.306 40.654 l-1.171 -0.626 0.192 0.148 0.054 -1.1 -0.046 0.133 1.126 -1.197 2.806 -1.321 2.744 -0.456 1.38 0.31 0.849 0.755 0.456 1.432 -0.211 1.528 0 0 -2.418 2.971 0 0 0.616 1.614 4.422 0.711 2.127 1.002 0.703 0.911 0.157 1.215 -0.605 1.618 -2.017 2.362 -2.625 1.664 -3.055 0.844 -2.238 -0.217 -1.492 -0.972 -0.791 -1.353 0.1 -2.415 0.065 -0.205 1.077 -3.412 -0.378 -0.205 -2.276 2.76 -0.333 0.528 -0.28 3.424 1.327 2.293 2.301 1.5 3.095 0.301 3.698 -1.022 3.131 -1.985 2.44 -2.86 0.901 -2.413 -0.292 -2.242 -1.327 -1.719 -2.817 -1.328 -4.701 -0.756 0.616 1.614 0 0 2.765 -3.407 0 0 0.344 -2.528 -0.767 -2.378 -1.645 -1.446 -2.254 -0.493 -3.389 0.588 -3.37 1.665 -1.457 1.758 -0.237 0.555 0.432 2.004 0.425 0.379 1.652 0.157" />
    <path class="write-flat-pen" fill="#FFFFFF" stroke-width="2" __comx="198.676" __comy="46.592" __timestamp="0x17945348f62" d="M198.355 53.201 l-0.462 0.923 -0.275 1.113 0.378 0.348 1.271 -0.567 0.466 -1.219" />
    <path class="write-flat-pen" fill="#FFFFFF" stroke-width="2" __comx="193.985" __comy="46.592" __timestamp="0x17945348ffe" d="M196.081 37.67 l-1.592 -1.125 -2.453 -0.203 -0.146 0.401 1.795 1.342 1.406 0.99" />
    <path class="write-flat-pen" fill="#FFFFFF" stroke-width="2" __comx="242.462" __comy="46.637" __timestamp="0x1794534dc58" d="M241.796 35.624 l0.323 -2.446 0.03 -0.057 -1.107 0.168 0.231 1.092 0.078 0.364 1.067 6.68 0.202 6.54 -0.985 4.692 -1.174 3.456 0.311 0.178 2.517 -2.997 1.17 -5.161 -0.246 -6.892 -1.273 -6.845 -0.162 -0.534 -0.673 -1.026 -1.107 0.168 0.013 0.115 0.288 2.503" />
    <path class="write-flat-pen" fill="#FFFFFF" stroke-width="2" __comx="254.961" __comy="46.637" __timestamp="0x1794534dfe9" d="M239.727 39.616 l-0.949 -2.298 0.164 -2.647 1.129 -2.789 2.398 -3.031 2.735 -2.053 2.69 -0.905 1.889 0.209 1.516 0.959 1.069 1.875 0.297 2.697 -0.862 3.685 -1.654 3.355 -2.553 3.019 -3.38 2.516 -2.156 0.769 -0.021 -0.011 0.01 0.072 0.678 -0.613 1.626 -0.289 2.459 0.726 2.193 1.586 2.299 2.993 2.785 6.266 2.621 1.223 0.688 -0.302 6.399 -5.782 1.851 -2.513 0.268 -2.346 -1.476 -1.49 -1.996 0.261 -1.8 1.731 -1.076 2.729 0.117 2.761 1.299 2.403 2.173 1.335 5.493 -0.706 0.507 -0.245 3.488 -2.038 -0.111 -0.29 -3.954 0.825 -0.333 0.079 -4.645 0.4 -1.176 -0.725 -0.847 -1.563 -0.087 -1.917 0.769 -1.972 1.049 -1.022 0.466 -0.071 0.219 0.198 -0.08 1.01 -1.374 2.052 -6.017 5.499 0.276 -0.136 -1.226 -0.782 -2.585 -5.875 -2.621 -3.398 -2.697 -1.936 -3.212 -0.936 -2.612 0.47 -1.79 1.629 0.195 2.024 1.762 0.722 3.107 -1.12 3.77 -2.826 2.827 -3.369 1.831 -3.758 0.962 -4.199 -0.386 -3.379 -1.487 -2.585 -2.249 -1.415 -2.695 -0.294 -3.337 1.128 -3.145 2.376 -2.672 3.438 -1.259 3.325 -0.007 3.311 1.402 2.488" />
    <path class="write-flat-pen" fill="#FFFFFF" stroke-width="2" __comx="274.719" __comy="46.637" __timestamp="0x1794534e177" d="M274.93 51.514 l-0.09 -2.185 -0.087 -0.3 -1.24 -1.391 -1.958 0.623 -1.326 2.262 -0.201 2.702 0.959 1.834 1.916 0.653 2.987 -1.647 0.103 0.012 0.816 1.661 2.224 2.41 0.377 -0.226 -1.032 -3.008 -1.108 -2.574 -1.754 -0.217 -2.794 1.541 -0.424 -0.14 -0.374 -0.698 0.108 -1.756 0.735 -1.337 0.265 -0.13 0.325 0.245 -0.046 -0.167 0.564 1.998" />
    <path class="write-flat-pen" fill="#FFFFFF" stroke-width="2" __comx="287.397" __comy="46.637" __timestamp="0x1794534e296" d="M285.216 46.871 l-1.351 -1.202 -0.678 0.243 -1.307 1.55 -0.42 2.479 0.77 2.414 1.553 1.352 2.351 0.443 4.495 -2.255 2.705 -2.985 -0.228 -0.275 -3.285 1.983 -3.919 1.669 -1.309 -0.25 -0.82 -0.703 -0.515 -1.536 0.221 -1.647 0.647 -0.974 -0.443 0.153 0.999 0.35" />
    <path class="write-flat-pen" fill="#FFFFFF" stroke-width="2" __comx="300.721" __comy="46.637" __timestamp="0x1794534e434" d="M291.225 32.522 l1.58 4.212 0.269 0.736 0 0 3.367 13.224 0 0 0.976 1.211 0 0 1.649 -0.292 1.551 -4.681 1.085 -1.399 1.116 -0.491 1.128 0.272 1.333 1.502 2.038 5.049 2.517 3.4 0.381 -0.198 -1.298 -3.93 -2.03 -5.31 -1.947 -2.18 -2.299 -0.543 -2.108 0.93 -1.57 2.008 -1.708 4.96 1.649 -0.292 0 0 -0.714 -0.895 0 0 -3.424 -12.891 0 0 -0.343 -0.846 -1.935 -4.091" />
    <path class="write-flat-pen" fill="#FFFFFF" stroke-width="2" __comx="345.264" __comy="46.637" __timestamp="0x1794534e726" d="M341.141 48.035 l2.586 -0.552 0.233 -0.108 1.355 -1.006 0.314 -1.84 -1.631 -1.155 -2.794 0.261 -2.256 1.24 -1.771 2.165 -0.931 2.92 0.218 2.585 1.304 2.327 2.077 1.063 2.737 -0.348 3.002 -1.926 2.712 -3.573 -0.23 0.055 2.675 5.151 3.295 2.265 0.246 -0.254 -2.157 -3.02 -3.016 -6.362 -1.925 0.459 -2.92 3.851 -2.352 1.513 -1.726 0.225 -1.046 -0.529 -0.833 -1.467 -0.164 -1.807 0.696 -2.234 1.31 -1.631 1.612 -0.92 1.803 -0.234 0.358 0.169 0.057 0.347 -0.673 0.767 -0.026 0.032 -2.291 1.128" />
    <path class="write-flat-pen" fill="#FFFFFF" stroke-width="2" __comx="384.005" __comy="46.637" __timestamp="0x1794534e9d2" d="M380.349 30.602 l-0.698 -0.239 0.168 1.283 0.128 0.457 1.983 6.489 0 0 0.298 0.894 0 0 2.962 10.055 0 0 1.592 -0.908 -2.079 -2.275 -3.026 -1.68 -2.419 -0.31 -2.009 0.783 -1.556 1.939 -0.798 2.935 0.432 2.897 1.699 2.597 2.586 1.618 2.973 0.355 3.499 -0.958 3.955 -2.756 0.375 -0.405 2.702 -3.33 -0.214 -0.235 -3.566 2.381 -0.342 0.248 -3.709 2.33 -2.843 0.757 -2.171 -0.259 -1.864 -1.16 -1.243 -1.887 -0.319 -2.083 0.584 -2.165 0.986 -1.232 1.081 -0.423 1.576 0.201 2.439 1.353 1.886 2.035 1.592 -0.908 0 0 -3.102 -10.05 0 0 -0.329 -0.913 0 0 -2.349 -6.374 -0.199 -0.444 -0.682 -1.096 -0.698 0.481" />
    <path class="write-flat-pen" fill="#FFFFFF" stroke-width="2" __comx="395.348" __comy="46.637" __timestamp="0x1794534ea9c" d="M393.467 45.624 l0.689 3.822 0.111 0.509 1.31 4.117 1.561 0.724 0.092 -0.087 -0.408 -1.355 -1.028 -3.809 -0.125 -0.468 -1.159 -3.71" />
    <path class="write-flat-pen" fill="#FFFFFF" stroke-width="2" __comx="396.576" __comy="46.637" __timestamp="0x1794534eb1a" d="M396.342 35.579 l-0.545 1.459 0.007 2.301 0.057 0.012 0.893 -2.021 0.6 -1.337" />
    <path class="write-flat-pen" fill="#FFFFFF" stroke-width="2" __comx="405.347" __comy="46.637" __timestamp="0x1794534ecbe" d="M405.828 42.758 l-1.798 -0.357 -0.249 0.038 0 0 -0.613 0.322 0 0 -0.065 1.218 4.336 3.597 1.22 1.695 0.078 1.143 -0.633 0.829 -2.186 1.005 -4.481 0.564 -1.186 -0.282 -0.157 0.137 0.667 1.845 5.659 -0.43 2.892 -1.368 1.288 -1.786 -0.248 -2.306 -1.687 -2.227 -4.623 -3.587 -0.065 1.218 0 0 0.311 -0.269 0 0 -0.171 0.025 1.679 -0.219" />
    <path class="write-flat-pen" fill="#FFFFFF" stroke-width="2" __comx="414.128" __comy="46.637" __timestamp="0x1794534ed87" d="M411.636 34.557 l0.494 4.469 0.134 0.848 2.443 13.651 1.615 3.891 0.298 -0.069 -0.246 -4.165 -2.459 -13.599 -0.153 -0.827 -0.911 -4.393" />
    <path class="write-flat-pen" fill="#FFFFFF" stroke-width="2" __comx="415.126" __comy="46.637" __timestamp="0x1794534ee51" d="M410.553 44.457 l5.377 0.872 3.739 0.236 0.03 -0.141 -3.544 -1.298 -5.401 -0.894" />
    <path class="write-flat-pen" fill="#FFFFFF" stroke-width="2" __comx="430.059" __comy="46.637" __timestamp="0x1794534f129" d="M427.783 44.922 l-2.214 -0.155 -0.236 -0.001 -2.345 0.297 -1.8 1.451 -0.697 2.306 0.582 2.201 1.715 1.224 0 0 2.164 -0.348 0 0 2.782 -4.045 0 0 -1.616 -0.5 0.006 3.718 1.069 1.945 2.223 -0.795 0.044 -0.036 0.469 -0.083 0.752 1.084 0 0 1.273 -0.158 2.469 -4.551 0.989 -0.94 0.243 0.002 1.673 3.368 1.865 3.1 0.431 -0.162 -0.665 -3.644 -2.192 -4.471 -2.083 0.024 -1.709 1.644 -2.403 4.92 1.273 -0.158 0 0 -1.46 -1.431 -1.396 0.307 -0.073 0.04 -0.857 -0.006 -0.172 -0.433 0.001 -3.286 -1.616 -0.5 0 0 -2.346 3.435 0 0 -0.719 0.128 0 0 -0.647 -0.438 -0.337 -1.147 0.366 -1.411 1.049 -0.968 1.838 -0.435 0.168 -0.024 2.18 -0.455" />
    <path class="write-flat-pen" fill="#FFFFFF" stroke-width="2" __comx="448.885" __comy="46.637" __timestamp="0x1794534f25d" d="M447.603 44.051 l-0.801 -1.988 -0.941 0.206 -1.348 1.321 -0.572 2.39 0.534 3.022 1.382 1.951 1.991 1.047 2.923 -0.276 3.057 -1.617 -0.031 -0.098 -3.257 0.389 -2.297 -0.079 -1.2 -0.695 -0.909 -1.315 -0.422 -2.288 0.341 -1.599 0.619 -0.726 -0.675 0.144 0.654 0.72" />
    <path class="write-flat-pen" fill="#FFFFFF" stroke-width="2" __comx="456.869" __comy="46.637" __timestamp="0x1794534f3a7" d="M451.701 47.696 l1.998 0.761 0.393 0.001 2.443 -0.63 2.05 -1.629 0.464 -1.832 -1.369 -1.246 -1.978 0.476 -1.762 1.97 -1.036 2.887 0.303 2.278 1.381 1.494 3.782 0.653 3.667 -0.624 -0.005 -0.309 -3.518 -0.515 -2.997 -0.824 -0.61 -0.672 -0.177 -1.291 0.756 -2.165 1.156 -1.325 0.562 -0.147 -0.054 -0.059 -0.064 0.306 -1.318 1.137 -1.908 0.678 -0.026 0.016 -1.943 -0.185" />
    <path class="write-flat-pen" fill="#FFFFFF" stroke-width="2" __comx="480.941" __comy="46.637" __timestamp="0x1794534f5d6" d="M476.985 46.416 l-0.045 -0.823 -0.535 0.393 6.327 -0.14 3.981 -0.09 0.023 -0.149 -3.906 -1.298 -6.909 0.195 -0.775 0.56 0.994 1.699" />
    <path class="write-flat-pen" fill="#FFFFFF" stroke-width="2" __comx="483.937" __comy="46.637" __timestamp="0x1794534f689" d="M478.672 48.093 l-0.874 1.057 8.072 1.648 4.171 0.059 0.033 -0.231 -3.984 -1.111 -8.049 -1.58 0.328 1.36" />
    <path class="write-flat-pen" fill="#FFFFFF" stroke-width="2" __comx="503.87" __comy="46.637" __timestamp="0x1794534f8b1" d="M502.995 37.959 l-0.146 -1.82 0 0 -1.27 0.409 3.676 8.118 0 0 0.353 0.829 0 0 2.813 5.817 0 0 1.074 -1.269 -3.504 -1.046 -4.208 -0.183 -3.044 0.693 -2.198 1.425 -1.271 2.112 0.176 2.152 1.553 1.591 2.677 0.849 8.759 -1.639 4.032 -1.744 -0.124 -0.44 -4.267 0.602 -8.27 1.291 -1.802 -0.561 -0.77 -0.771 -0.085 -0.896 0.74 -1.247 1.569 -1.024 2.489 -0.568 3.739 0.167 3.29 0.977 1.074 -1.269 0 0 -2.854 -5.75 0 0 -0.358 -0.819 0 0 -4.046 -7.978 -1.27 0.409 0 0 0.492 1.759" />
    <path class="write-flat-pen" fill="#FFFFFF" stroke-width="2" __comx="549.932" __comy="46.637" __timestamp="0x1794534fb91" d="M541.488 33.697 l-1.172 -0.199 1.389 3.059 0.363 0.746 3.193 7.458 2.329 7.743 0 0 0.686 4.625 0 0 -0.227 0.257 0 0 1.606 0.243 -0.764 -1.971 -0.068 -2.619 0.599 -1.876 1.182 -1.384 2.022 -0.943 1.805 -0.045 1.739 0.747 1.046 1.293 0.375 1.644 -0.389 1.978 -1.066 1.677 -2.089 1.477 -2.041 0.587 -2.203 -0.135 -0.71 -0.493 -0.063 -0.203 1.137 -1.62 0.375 -0.336 0.462 -0.363 2.644 -2.262 -0.086 -0.145 -3.249 1.246 -0.592 0.264 -0.672 0.407 -2.026 2.299 0.313 1.829 1.788 1.289 3.099 0.189 2.681 -0.777 2.663 -1.899 1.455 -2.311 0.524 -2.735 -0.575 -2.468 -1.625 -1.993 -2.548 -1.092 -2.614 0.062 -2.757 1.281 -1.7 1.99 -0.812 2.548 0.091 3.272 0.901 2.274 1.606 0.243 0 0 0.707 -0.911 0 0 -0.886 -5.543 0 0 -2.459 -7.939 -3.329 -7.556 -0.415 -0.797 -1.802 -2.862 -0.981 0.938" />
    <path class="write-flat-pen" fill="#FFFFFF" stroke-width="2" __comx="566.609" __comy="46.637" __timestamp="0x1794534fd3b" d="M571.502 44.026 l-1.901 -1.042 -0.603 0.016 -2.64 0.556 -2.34 1.544 -1.994 2.747 -0.927 2.978 0.232 3.128 1.175 1.68 1.989 0.579 2.042 -0.781 2.057 -2.133 1.927 -3.539 0 0 -1.769 -0.313 1.01 5.966 2.254 1.685 0.107 -0.082 -0.788 -2.271 -0.709 -5.577 -1.769 -0.313 0 0 -1.803 3.314 -1.589 1.64 -1.052 0.4 -0.736 -0.212 -0.499 -0.706 -0.182 -2.255 0.711 -2.356 1.595 -2.261 1.772 -1.231 2.158 -0.574 0.095 -0.022 1.743 0.479" />
    <path class="write-flat-pen" fill="#FFFFFF" stroke-width="2" __comx="579.938" __comy="46.637" __timestamp="0x1794534fec9" d="M578.734 31.138 l-0.413 3.841 1.183 7.413 1.944 6.518 0 0 1.073 1.515 0 0 1.536 -0.768 -0.47 -1.454 -2.355 -1.4 -3.142 -0.549 -2.34 0.462 -2.25 1.53 -1.184 2.128 0.223 2.271 1.786 2.057 3.238 1.164 5.223 -0.327 0.903 -0.277 3.871 -1.394 -0.064 -0.301 -4.104 0.293 -0.806 0.084 -4.739 0.077 -2.449 -0.89 -1.106 -1.251 -0.135 -1.138 0.68 -1.292 1.596 -1.12 1.678 -0.34 2.516 0.442 1.517 0.914 0.256 0.837 1.536 -0.768 0 0 -0.92 -1.275 0 0 -1.886 -6.13 -1.281 -7.097 0.201 -3.667" />
    <path class="write-flat-pen" fill="#FFFFFF" stroke-width="2" __comx="623.039" __comy="46.637" __timestamp="0x179453500f3" d="M613.09 44.582 l2.148 1.81 2.386 3.531 2.266 6.333 0 0 1.592 -0.85 -0.01 -0.029 -1.31 -4.527 -0.597 -5.348 0.32 -2.547 0.81 -1.533 1.406 -1.031 1.66 -0.259 3.834 1.141 0.502 0.246 1.088 0.56 3.703 1.73 0.102 -0.154 -3.05 -2.742 -1.013 -0.769 -0.644 -0.413 -4.354 -1.542 -2.578 0.36 -2.164 1.564 -1.191 2.247 -0.382 3.134 0.678 5.738 1.507 4.954 0.196 0.264 1.592 -0.85 0 0 -2.656 -6.37 -2.699 -3.773 -2.426 -1.783" />
    <path class="write-flat-pen" fill="#FFFFFF" stroke-width="2" __comx="636.675" __comy="46.637" __timestamp="0x1794535026b" d="M632.535 46.412 l0.48 1.909 2.06 0.602 2.335 -0.981 2.016 -2.282 0.743 -2.473 -0.519 -1.895 -1.707 -1.321 -2.425 -0.129 -2.208 1.179 -1.681 2.199 -1.247 3.849 0.044 2.949 1.041 2.545 1.748 1.399 2.735 0.266 3.753 -1.733 0.515 -0.456 2.748 -2.712 -0.096 -0.132 -3.43 1.772 -0.455 0.248 -3.296 1.191 -1.733 -0.223 -0.938 -0.771 -0.721 -1.774 -0.034 -2.285 1.048 -3.251 1.237 -1.623 1.39 -0.741 1.322 0.072 0.752 0.582 0.216 0.778 -0.462 1.581 -1.453 1.702 -1.383 0.647 -0.651 -0.108 -0.439 -0.992" />
    <path class="write-flat-pen" fill="#FFFFFF" stroke-width="2" __comx="646.164" __comy="47.475" __timestamp="0x17945350455" d="M651.751 44.216 l-1.496 -1.835 -0.45 -0.256 -3.035 -0.884 -2.695 0.357 -1.84 1.539 -0.792 1.992 0.461 2.373 1.54 1.317 4.964 -0.315 1.259 0.409 0.975 1.269 0.813 3.295 -0.128 4.382 -1.189 5.246 -1.455 3.042 -1.76 1.845 -2.334 1.147 -1.786 0.07 -1.166 -0.627 -0.65 -1.35 0.18 -2.262 1.099 -2.818 3.615 -5.009 0.572 -0.641 0.613 -0.694 2.664 -3.241 -0.132 -0.142 -3.425 2.423 -0.75 0.574 -0.753 0.654 -4.067 5.138 -1.343 3.307 -0.269 3.077 1.149 2.412 2.205 1.187 2.74 -0.115 3.012 -1.496 2.202 -2.328 1.669 -3.52 1.255 -5.643 0.116 -4.827 -1.008 -3.915 -1.585 -2 -2.122 -0.657 -4.586 0.322 -0.539 -0.451 -0.255 -1.273 0.437 -1.117 1.119 -0.953 1.863 -0.278 2.564 0.634 0.107 0.043 1.675 1.337" />
    <path class="write-flat-pen" fill="#FFFFFF" stroke-width="2" __comx="660.594" __comy="47.475" __timestamp="0x17945350518" d="M660.168 43.966 l-0.397 2.894 -0.014 0.495 0 0.01 0.265 4.058 1.244 -0.439 -0.445 -0.532 -1.051 0.797 0.392 0.572 1.244 -0.439 0.025 -4.038 0 0.01 -0.009 -0.441 -0.053 -2.875" />
    <path class="write-flat-pen" fill="#FFFFFF" stroke-width="2" __comx="661.722" __comy="47.475" __timestamp="0x17945350595" d="M661.261 32.682 l-0.111 1.571 0.293 2.355 0.103 0.006 0.556 -2.288 0.191 -1.544" />
    <path class="write-flat-pen" fill="#FFFFFF" stroke-width="2" __comx="667.885" __comy="47.475" __timestamp="0x179453506e0" d="M672.472 42.366 l-1.191 -1.363 -2.221 -0.109 -2.401 1.063 -2.178 2.397 -1.182 3.072 0.014 2.436 1.164 1.96 2.061 0.673 2.177 -1.003 1.803 -2.565 0.727 -2.827 -0.731 -2.05 -1.89 -0.96 -0.138 0.125 0.526 1.698 0.304 1.239 -0.511 1.989 -1.313 1.9 -1.082 0.524 -0.772 -0.223 -0.621 -0.972 -0.051 -1.657 0.899 -2.529 1.702 -2.004 1.785 -0.865 1.386 -0.021 1.03 0.796" />
    <path class="write-flat-pen" fill="#FFFFFF" stroke-width="2" __comx="683.761" __comy="47.475" __timestamp="0x17945350812" d="M673.745 45.551 l-0.02 3.224 0 0 -0.011 0.152 0 0 -0.163 0.978 0 0 1.736 0.564 1.598 -2.661 1.581 -1.368 1.858 -0.661 1.514 0.197 1.716 1.087 5.974 9.332 0.465 0.573 0.514 0.472 3.257 2.635 0.21 -0.19 -2.302 -3.501 -0.359 -0.491 -0.315 -0.495 -6.015 -9.759 -2.461 -1.559 -2.415 -0.312 -2.65 0.949 -2.097 1.831 -1.687 2.983 1.736 0.564 0 0 0.044 -1.061 0 0 -0.002 -0.29 0 0 -0.391 -3.268" />
    <path class="write-stroke-pen" fill="none" stroke="#FFFFFF" stroke-width="1.6" stroke-linecap="round" stroke-linejoin="round" __comx="399.763" __comy="68.7" __timestamp="0x17945351519" d="M91.052 70.403 l617.421 -2.871" />
    <path class="write-flat-pen" fill="#FFFFFF" stroke-width="3.5" __comx="145.211" __comy="165.523" __timestamp="0x179453610b8" d="M142.602 155.837 l0.555 -0.199 -0.847 -0.775 0.955 2.533 0.281 1.002 1.727 9.126 1.013 15.143 0.711 3.072 0.44 0.074 1.731 -2.989 -0.766 -15.703 -2.001 -9.454 -0.437 -1.299 -1.54 -2.983 -1.209 -1.13 -1.962 2.108" />
    <path class="write-flat-pen" fill="#FFFFFF" stroke-width="3.5" __comx="141.998" __comy="165.523" __timestamp="0x17945361194" d="M129.386 161.371 l-1.816 -1.116 0.526 0.81 0.514 -0.61 0.295 -0.164 2.827 -1.189 10.891 -2.319 8.997 -1.164 1.014 -0.105 1.013 -0.11 0.959 -0.147 4.388 -0.877 0.002 -0.663 -4.382 -0.906 -0.996 -0.153 -1.092 -0.058 -1.157 0.003 -9.279 0.968 -11.347 2.477 -3.331 1.513 -1.141 0.791 -1.27 2.811 0.721 1.133 2.724 1.047" />
    <path class="write-flat-pen" fill="#FFFFFF" stroke-width="3.5" __comx="164.195" __comy="165.523" __timestamp="0x1794536131c" d="M165.244 163.121 l-2.035 -0.372 -0.678 0.153 -3.207 1.791 -0.613 0.57 -1.856 2.567 -0.93 3.409 0.429 2.844 1.606 2.23 2.765 1.233 2.84 -0.237 3.509 -2.017 3.188 -3.57 1.701 -3.413 0.5 -3.373 -1.195 -2.267 -2.491 -0.871 -3.115 1.028 -0.432 0.316 -0.319 0.316 -2.437 2.988 0.355 0.523 3.677 -1.16 0.373 -0.153 0.064 0.001 1.735 -0.394 0.251 0.107 0.082 0.158 -0.26 1.774 -1.264 2.544 -2.529 2.849 -2.405 1.402 -1.278 0.122 -1.215 -0.515 -0.663 -0.881 -0.244 -1.42 0.557 -2.252 1.284 -1.937 0.161 -0.175 2.436 -1.746 -0.125 -0.004 1.625 -0.102" />
    <path class="write-flat-pen" fill="#FFFFFF" stroke-width="3.5" __comx="195.581" __comy="165.523" __timestamp="0x17945361622" d="M181.709 151.823 l0.575 1.43 0.024 0.175 0.499 1.899 0.134 0.619 1.185 5.471 0.282 1.147 2.938 8.753 0.569 -0.795 -3.5 0.233 -3.226 1.221 -1.993 2.052 -0.457 2.514 1.472 2.306 2.451 1.068 3.719 -0.178 4.62 -1.686 9.359 -5.409 4.979 -3.736 1.33 -2.226 -0.372 -2.574 -2.141 -1.466 -3.572 0.131 -2.765 1.268 -2.009 2.176 -1.177 3.543 0.376 3.296 1.408 2.631 2.66 2.18 3.176 0.791 3.265 -0.566 2.919 -1.681 2.52 -2.808 1.467 -3.514 -0.291 -2.503 -1.728 -2.186 -3.64 -0.914 -3.579 1.781 0.085 0.688 3.263 0.933 1.879 0.548 0.409 0.519 0.075 0.639 -0.889 2.15 -1.758 1.973 -1.916 1.109 -1.958 0.344 -1.735 -0.427 -1.546 -1.26 -0.785 -1.46 -0.224 -1.909 0.702 -2.149 1.051 -1.158 1.544 -0.724 1.816 -0.085 0.051 0.024 0.007 -0.013 -0.394 0.671 -4.312 3.214 -8.961 5.127 -3.875 1.413 -2.438 0.123 -0.813 -0.35 -0.233 -0.355 0.039 -0.248 0.775 -0.81 2.075 -0.79 4.58 -0.283 1.332 -1.872 -3.595 -10.197 -0.28 -1.001 -1.505 -5.415 -0.248 -0.743 -0.9 -1.919 -0.188 -0.337 -1.066 -1.327" />
  </g>
</svg>
