<svg class="write-page" width="1010px" height="1628px" xmlns="http://www.w3.org/2000/svg" xmlns:xlink="http://www.w3.org/1999/xlink">
  <g class="write-content write-v3" width="1010" height="1628" xruling="30" yruling="30" marginLeft="30" papercolor="#1B1C1C" rulecolor="#3A00F9FF">
    <g class="ruleline write-std-ruling write-scale-down" fill="none" stroke="#00F9FF" stroke-opacity="0.227" stroke-width="1" shape-rendering="crispEdges" vector-effect="non-scaling-stroke">
      <rect class="pagerect" fill="#1B1C1C" stroke="none" x="0" y="0" width="1010" height="1628" />
      <path class="yrule_1" d="M0 30 l1010 0" />
      <path d="M0 60 l1010 0" />
      <path d="M0 90 l1010 0" />
      <path d="M0 120 l1010 0" />
      <path d="M0 150 l1010 0" />
      <path d="M0 180 l1010 0" />
      <path d="M0 210 l1010 0" />
      <path d="M0 240 l1010 0" />
      <path d="M0 270 l1010 0" />
      <path d="M0 300 l1010 0" />
      <path d="M0 330 l1010 0" />
      <path d="M0 360 l1010 0" />
      <path d="M0 390 l1010 0" />
      <path d="M0 420 l1010 0" />
      <path d="M0 450 l1010 0" />
      <path d="M0 480 l1010 0" />
      <path d="M0 510 l1010 0" />
      <path d="M0 540 l1010 0" />
      <path d="M0 570 l1010 0" />
      <path d="M0 600 l1010 0" />
      <path d="M0 630 l1010 0" />
      <path d="M0 660 l1010 0" />
      <path d="M0 690 l1010 0" />
      <path d="M0 720 l1010 0" />
      <path d="M0 750 l1010 0" />
      <path d="M0 780 l1010 0" />
      <path d="M0 810 l1010 0" />
      <path d="M0 840 l1010 0" />
      <path d="M0 870 l1010 0" />
      <path d="M0 900 l1010 0" />
      <path d="M0 930 l1010 0" />
      <path d="M0 960 l1010 0" />
      <path d="M0 990 l1010 0" />
      <path d="M0 1020 l1010 0" />
      <path d="M0 1050 l1010 0" />
      <path d="M0 1080 l1010 0" />
      <path d="M0 1110 l1010 0" />
      <path d="M0 1140 l1010 0" />
      <path d="M0 1170 l1010 0" />
      <path d="M0 1200 l1010 0" />
      <path d="M0 1230 l1010 0" />
      <path d="M0 1260 l1010 0" />
      <path d="M0 1290 l1010 0" />
      <path d="M0 1320 l1010 0" />
      <path d="M0 1350 l1010 0" />
      <path d="M0 1380 l1010 0" />
      <path d="M0 1410 l1010 0" />
      <path d="M0 1440 l1010 0" />
      <path d="M0 1470 l1010 0" />
      <path d="M0 1500 l1010 0" />
      <path d="M0 1530 l1010 0" />
      <path d="M0 1560 l1010 0" />
      <path d="M0 1590 l1010 0" />
      <path d="M0 1620 l1010 0" />
      <path class="xrule_1" d="M30 0 l0 1628" />
      <path d="M60 0 l0 1628" />
      <path d="M90 0 l0 1628" />
      <path d="M120 0 l0 1628" />
      <path d="M150 0 l0 1628" />
      <path d="M180 0 l0 1628" />
      <path d="M210 0 l0 1628" />
      <path d="M240 0 l0 1628" />
      <path d="M270 0 l0 1628" />
      <path d="M300 0 l0 1628" />
      <path d="M330 0 l0 1628" />
      <path d="M360 0 l0 1628" />
      <path d="M390 0 l0 1628" />
      <path d="M420 0 l0 1628" />
      <path d="M450 0 l0 1628" />
      <path d="M480 0 l0 1628" />
      <path d="M510 0 l0 1628" />
      <path d="M540 0 l0 1628" />
      <path d="M570 0 l0 1628" />
      <path d="M600 0 l0 1628" />
      <path d="M630 0 l0 1628" />
      <path d="M660 0 l0 1628" />
      <path d="M690 0 l0 1628" />
      <path d="M720 0 l0 1628" />
      <path d="M750 0 l0 1628" />
      <path d="M780 0 l0 1628" />
      <path d="M810 0 l0 1628" />
      <path d="M840 0 l0 1628" />
      <path d="M870 0 l0 1628" />
      <path d="M900 0 l0 1628" />
      <path d="M930 0 l0 1628" />
      <path d="M960 0 l0 1628" />
      <path d="M990 0 l0 1628" />
      <path class="leftmargin" stroke="#FF0000" d="M30 0 l0 1628" />
    </g>
    <path class="write-flat-pen" fill="#FFFFFF" stroke-width="2" __comx="72.54" __comy="49.243" __timestamp="0x1794a1ec171" d="M80.069 37.738 l0.382 -1.837 0.062 -0.27 0.582 -3.213 0.018 -0.161 -0.078 -1.648 -1.219 -1.262 -1.933 -0.233 -4.45 1.141 -6.961 2.854 -3.688 2.249 -2.97 2.865 -1.932 3.584 -0.847 3.355 0.048 3.593 0.938 3.434 1.81 3.367 2.317 2.811 2.707 2.101 3.846 1.535 3.242 0.395 3.312 -0.46 3.256 -1.327 5.648 -3.893 0.687 -0.609 1.011 -1.02 0.377 -0.469 1.811 -2.621 -0.337 -0.34 -2.639 1.785 -0.454 0.353 -1.04 0.893 -0.595 0.492 -5.418 3.662 -2.828 1.149 -2.807 0.389 -2.725 -0.332 -3.343 -1.334 -2.309 -1.792 -2.051 -2.487 -1.609 -2.993 -0.811 -2.969 -0.041 -3.076 0.722 -2.861 1.666 -3.092 2.586 -2.498 3.364 -2.055 6.686 -2.756 3.966 -1.052 0.922 0.079 0.316 0.263 0.108 0.81 0.004 -0.02 -0.283 3.215 -0.021 0.296 -0.015 1.904" />
    <path class="write-flat-pen" fill="#FFFFFF" stroke-width="2" __comx="97.144" __comy="49.243" __timestamp="0x1794a1ec423" d="M98.696 48.165 l-0.401 -1.081 -0.179 -0.206 -1.652 -0.984 -0.473 -0.132 -1.847 -0.132 -2.273 0.816 -2.001 1.902 -1.613 3.268 -0.735 3.745 0.268 2.987 1.102 1.978 1.753 0.954 2.033 -0.225 2.346 -1.565 3.58 -5.354 0.541 -0.259 0 0 -1.401 -0.664 0.947 3.908 1.284 2.455 1.546 1.309 2.306 0.087 0.609 -0.263 0.458 -0.316 1.875 -1.739 -0.108 -0.216 -2.517 0.453 -0.433 0.128 -0.169 0.019 -1.242 -0.108 -0.735 -0.626 -0.99 -1.892 -0.893 -3.669 -1.401 -0.664 0 0 -1.033 0.496 -3.661 5.479 -1.612 1.077 -0.93 0.104 -0.7 -0.379 -0.62 -1.106 -0.213 -2.289 0.614 -3.22 1.324 -2.744 1.447 -1.421 1.533 -0.599 1.303 0.023 0.132 0.02 1.393 0.523 -0.086 -0.107 0.678 0.732" />
    <path class="write-flat-pen" fill="#FFFFFF" stroke-width="2" __comx="126.877" __comy="49.243" __timestamp="0x1794a1ec7ad" d="M112.778 44.222 l-0.885 -1.022 -0.601 0.133 -1.017 0.497 -0.221 0.199 -0.881 1.266 0.299 1.808 1.808 1.383 8.681 3.209 1.684 1.098 0.69 1.116 0.149 1.738 -0.789 1.992 -1.226 1.337 -2.229 1.288 -1.954 0.502 -1.63 -0.155 -0.78 -0.526 -0.268 -0.583 0.262 -1.106 1.225 -1.304 5.391 -2.517 0.543 -0.17 4.738 -1.099 3.335 -0.163 1.767 0.946 0.534 0.16 2.473 0.127 3.029 -0.787 2.19 -1.366 1.394 -1.869 -0.082 -1.698 -1.409 -1.107 -2.101 -0.044 -2.571 1.145 -2.549 2.566 -1.482 2.617 -0.321 2.39 1.024 1.97 1.787 1.107 2.758 0.409 4.16 -0.712 1.101 -0.363 0.989 -0.443 2.783 -1.47 -0.237 -0.69 -3.098 0.552 -1.017 0.247 -0.963 0.258 -3.734 0.597 -2.039 -0.303 -0.968 -0.599 -0.479 -0.92 0.186 -1.38 1.159 -2.048 2.095 -2.114 1.821 -0.814 0.989 0.02 0.171 0.134 0.004 0.077 -0.742 0.998 -1.615 1.012 -2.447 0.651 -1.951 -0.062 -0.167 -0.041 -2.099 -0.888 -3.904 0.205 -4.974 0.987 -0.743 0.209 -5.91 2.636 -1.867 1.969 -0.548 2.297 0.791 1.72 1.666 1.124 2.485 0.237 2.558 -0.658 2.732 -1.58 1.682 -1.836 1.095 -2.774 -0.235 -2.68 -1.176 -1.895 -2.243 -1.461 -8.619 -3.174 -0.973 -0.726 -0.071 -0.293 0.276 -0.488 -0.075 0.062 0.545 -0.482 -0.431 0.086 0.513 0.198" />
    <path class="write-flat-pen" fill="#FFFFFF" stroke-width="2" __comx="199.474" __comy="45.52" __timestamp="0x1794a1edc79" d="M188.035 39.646 l-0.345 -0.439 0.103 0.127 0.054 -1.116 0.032 -0.103 2.143 -3.921 0.291 -0.371 2.908 -3.03 2.272 -1.608 2.814 -1.116 1.526 -0.151 0.939 0.364 1.123 1.462 0.675 2.442 -0.049 3.162 -0.92 3.515 -1.618 3.069 -2.69 3.526 -4.971 4.969 -8.667 7.096 -1.83 2.188 0.732 1.728 2.671 0.712 12.726 0.502 9.623 -0.728 3.007 0.275 1.936 -0.583 2.963 -3.962 0.18 -0.257 0.226 -0.385 1.23 -2.918 -0.546 -0.367 -2.231 2.231 -0.255 0.313 -0.168 0.215 -2.601 3.404 -0.939 0.283 -2.786 -0.255 -9.675 0.732 -12.389 -0.488 -1.511 -0.403 0.126 0.299 0.925 -1.106 8.597 -7.04 5.135 -5.135 2.87 -3.766 1.798 -3.421 1.034 -3.97 0.05 -3.687 -0.864 -3.085 -1.703 -2.193 -1.885 -0.72 -2.257 0.229 -3.282 1.306 -2.609 1.857 -3.083 3.259 -0.449 0.59 -2.183 4.449 -0.041 0.59 0.311 1.472 0.218 0.374 0.857 0.311" />
    <path class="write-flat-pen" fill="#FFFFFF" stroke-width="2" __comx="199.975" __comy="45.52" __timestamp="0x1794a1edffb" d="M200.325 22.466 l0.895 -1.234 0.069 -0.151 0.443 -1.564 -0.002 -0.515 -0.988 -2.381 -0.444 -0.452 -2.242 -1.294 -2.89 -0.526 -4.214 0.573 -3.741 1.348 -3.725 2.148 -3.943 3.267 -3.68 4.124 -3.11 4.867 -2.388 5.171 -1.654 5.443 -0.807 5.888 0.072 7.847 1.304 5.867 2.284 5.224 3.382 4.59 2.892 2.737 4.665 3.076 3.721 1.462 6.16 0.91 4.322 -0.236 4.505 -1.04 4.56 -1.841 6.463 -3.814 6.063 -4.647 3.552 -3.614 4.362 -6.062 3.16 -6.293 1.878 -5.982 0.791 -6.707 -0.459 -4.376 -1.091 -3.643 -1.84 -3.222 -2.773 -2.864 -3.656 -2.6 -4.918 -2.544 -8.414 -3.31 -9.865 -3.067 -5.725 -0.343 -0.545 0.435 -1.645 1.899 0.459 0.63 2.312 -0.983 0.006 0.034 4.774 0.31 9.566 2.974 8.25 3.245 4.701 2.432 3.391 2.412 2.47 2.551 1.602 2.805 0.972 3.245 0.416 3.968 -0.743 6.299 -1.773 5.649 -3.016 6.007 -4.18 5.809 -3.346 3.405 -5.856 4.488 -6.23 3.676 -4.276 1.726 -4.184 0.965 -3.948 0.216 -5.734 -0.847 -3.314 -1.301 -4.344 -2.864 -2.636 -2.494 -3.145 -4.265 -2.119 -4.841 -1.217 -5.473 -0.068 -7.492 0.766 -5.587 1.568 -5.16 2.274 -4.922 2.951 -4.618 3.474 -3.892 3.697 -3.064 3.424 -1.976 3.376 -1.22 3.697 -0.515 2.266 0.384 1.77 0.944 0.042 0.028 0.923 1.691 0.023 0.021 -0.052 1.342 0.019 -0.017 -0.456 1.379" />
    <path class="write-flat-pen" fill="#FFFFFF" stroke-width="2" __comx="256.664" __comy="45.52" __timestamp="0x1794a1ee3b7" d="M257.74 57.388 l-1.935 0.552 -0.713 1.339 0.344 1.908 0.543 0.074 0.801 -1.429 0.238 -0.416 1.22 -0.431" />
    <path class="write-flat-pen" fill="#FFFFFF" stroke-width="2" __comx="255.273" __comy="45.52" __timestamp="0x1794a1ee471" d="M257.017 31.514 l-2.765 0.167 -0.853 1.763 0.421 0.389 1.237 -0.498 2.09 -0.229" />
    <path class="write-flat-pen" fill="#FFFFFF" stroke-width="2" __comx="314.865" __comy="48.263" __timestamp="0x1794a1ef043" d="M301.581 56.727 l-0.402 0.913 -0.011 0.06 -0.195 0.372 1.125 0.424 0.14 -0.09 0.515 -0.809 0.117 -0.279 1.747 -4.41 0.293 -0.743 3.153 -8.913 1.338 -5.586 0 0 0.607 -5.464 0 0 -0.382 -1.166 0 0 -1.948 0.249 -0.134 2.118 1.301 4.262 2.436 5.03 3.67 5.763 10.754 11.117 2.552 1.961 0.497 -0.426 -1.584 -2.869 -10.642 -11.028 -3.499 -5.495 -2.318 -4.786 -1.15 -3.767 0.111 -1.756 -1.948 0.249 0 0 0.248 0.754 0 0 -0.534 4.912 0 0 -1.267 5.371 -3.06 8.804 -0.277 0.729 -1.576 4.507 -0.065 0.245 -0.127 0.641 0.085 -0.031 1.125 0.424 -0.224 -0.299 -0.008 0.017 -0.147 -0.964" />
    <path class="write-flat-pen" fill="#FFFFFF" stroke-width="2" __comx="311.68" __comy="48.263" __timestamp="0x1794a1ef12c" d="M302.424 49.45 l1.02 -1.095 2.614 -0.728 11.829 -1.416 1.384 -0.369 2.879 -0.866 -0.093 -0.575 -3.005 0.084 -1.39 0.079 -11.973 1.252 -3.243 1.021 -1.237 1.594" />
    <path class="write-flat-pen" fill="#FFFFFF" stroke-width="2" __comx="363.582" __comy="48.263" __timestamp="0x1794a1ef3de" d="M353.217 46.944 l0.433 1.015 0.14 0.273 1.135 2.025 0.198 0.38 2.451 4.709 0 0 0.137 0.307 0 0 0.658 1.505 0 0 1.785 -0.838 -1.826 -3.807 -0.986 -3.482 -0.138 -3.068 0.531 -2.31 1.109 -1.946 1.377 -0.99 2.283 -0.659 2.415 0.037 2.443 0.785 2.822 1.848 0.328 0.286 0.499 0.481 2.473 2.076 0.463 -0.383 -1.592 -2.836 -0.486 -0.645 -0.486 -0.481 -3.143 -2.153 -2.991 -0.97 -3.012 -0.047 -2.902 0.837 -2.011 1.446 -1.47 2.58 -0.657 2.862 0.162 3.572 1.098 3.871 1.921 3.954 1.785 -0.838 0 0 -0.708 -1.487 0 0 -0.172 -0.363 0 0 -2.649 -4.689 -0.256 -0.421 -1.413 -1.926 -0.203 -0.231 -0.739 -0.798" />
    <path class="write-flat-pen" fill="#FFFFFF" stroke-width="2" __comx="375.36" __comy="48.263" __timestamp="0x1794a1ef57d" d="M370.827 54.798 l1.644 -0.407 0.306 -0.104 2.464 -1.378 0.489 -0.394 2.243 -2.49 1.291 -2.594 0.099 -2.262 -1.311 -1.403 -2.059 -0.153 -3.336 1.012 -3.011 1.933 -2.103 2.581 -1.201 3.275 -0.193 2.66 0.578 2.433 1.47 2.042 2.092 1.107 2.542 0.182 2.746 -0.824 4.686 -2.987 0.689 -0.561 1.16 -1.055 0.484 -0.547 1.973 -2.517 -0.34 -0.376 -2.702 1.711 -0.568 0.405 -1.192 0.915 -0.608 0.453 -4.411 2.732 -2.138 0.639 -1.759 -0.126 -1.308 -0.692 -0.967 -1.343 -0.416 -1.751 0.15 -2.076 0.989 -2.699 1.692 -2.077 2.511 -1.613 2.717 -0.827 0.917 0.066 0.216 0.228 -0.039 1.017 -0.971 1.997 -1.925 2.23 -0.26 0.228 -2.125 1.412 -0.137 0.075 -1.498 0.715" />
    <path class="write-flat-pen" fill="#FFFFFF" stroke-width="2" __comx="386.618" __comy="50.23" __timestamp="0x1794a1ef7aa" d="M389.576 52.018 l0.706 -1.689 0.146 -0.347 0.814 -3.286 -0.135 -0.665 -0.985 -1.422 -2.214 -0.288 -2.32 1.118 -1.577 1.592 -1.579 2.945 -0.685 3.081 0.396 2.457 1.544 1.588 1.914 0.251 2.316 -0.836 3.423 -3.614 -0.731 0.039 0.802 10.39 -0.098 5.771 -0.901 3.573 -1.195 2.085 -1.52 1.246 -1.603 0.465 -1.942 -0.364 -1.07 -0.682 -0.892 -1.32 -0.319 -1.68 0.987 -3.331 0.359 -0.662 0.951 -1.554 0.479 -0.831 1.452 -2.765 -0.463 -0.34 -2.2 2.217 -0.672 0.738 -1.12 1.559 -0.528 0.875 -1.284 3.973 0.471 2.572 1.354 2.009 1.746 1.114 2.79 0.523 2.454 -0.712 2.121 -1.739 1.513 -2.642 1.024 -4.064 0.098 -6.096 -0.974 -12.405 -1.983 0.105 -3.643 3.846 -1.424 0.516 -0.76 -0.097 -0.637 -0.649 -0.242 -1.474 0.536 -2.456 1.311 -2.465 1.142 -1.159 1.505 -0.734 0.821 0.091 0.306 0.403 -0.016 -0.099 -0.49 2.847 -0.074 0.281 -0.427 1.798" />
    <path class="write-flat-pen" fill="#FFFFFF" stroke-width="2" __comx="401.794" __comy="50.23" __timestamp="0x1794a1ef87f" d="M399.895 46.245 l-0.33 2.493 0.043 0.483 0.84 5.665 1.657 2.924 1.89 -0.445 0.027 -0.637 -0.883 -0.561 -0.9 -1.881 -0.906 -5.299 -0.044 -0.283 0.021 -2.355" />
    <path class="write-flat-pen" fill="#FFFFFF" stroke-width="2" __comx="405.194" __comy="50.23" __timestamp="0x1794a1ef927" d="M402.569 36.594 l2.952 3.195 2.213 1.563 0.083 -0.085 -1.597 -2.144 -2.772 -3.304" />
    <path class="write-flat-pen" fill="#FFFFFF" stroke-width="2" __comx="413.42" __comy="50.23" __timestamp="0x1794a1efaa7" d="M413.161 46.49 l0.835 0.067 0.256 -0.235 0.44 -0.902 -0.187 -0.668 -1.882 -0.594 -0.686 0.217 -2.132 1.23 -1.509 1.792 -1.152 2.875 -0.202 2.31 0.795 2.722 1.703 1.815 1.905 0.616 2.179 -0.329 2.756 -1.643 2.104 -2.277 1.233 -2.623 0.283 -2.624 -0.806 -1.787 -1.782 -1.108 -1.907 0.253 -1.106 1.761 0.109 0.561 0.074 0.171 1.239 1.22 0.181 -0.058 0.308 -1.677 0.015 -0.044 0.063 0.262 0.278 -0.341 0.298 -0.035 0.66 0.41 0.333 0.738 -0.188 1.751 -0.959 2.041 -1.699 1.84 -2.171 1.297 -1.33 0.204 -0.976 -0.311 -1.038 -1.094 -0.573 -1.915 0.131 -1.662 0.904 -2.339 1.083 -1.329 1.655 -1.021 0.009 -0.015 0.6 0.004 -0.161 -0.579 0.112 0.313 0.199 -0.177 -0.417 0.338" />
    <path class="write-flat-pen" fill="#FFFFFF" stroke-width="2" __comx="426.236" __comy="50.23" __timestamp="0x1794a1efbe6" d="M419.237 48.864 l0.374 0.283 -0.04 0.052 0.278 0.733 0.042 0.168 0.42 1.761 0.064 0.369 0.404 4.487 0 0 -0.001 -0.009 0 0 -0.006 0.728 0 0 1.954 0.025 0.162 -3.596 1.056 -4.586 1.053 -2.022 1.221 -1.187 0.963 -0.27 0.805 0.299 1.105 1.344 2.122 7.153 0.104 0.314 1.312 3.069 0.605 -0.136 -0.124 -3.336 -0.053 -0.387 -2.179 -7.622 -1.702 -2.072 -1.912 -0.712 -2.071 0.581 -1.811 1.761 -1.317 2.53 -1.154 5.012 -0.143 3.781 1.954 0.025 0 0 -0.029 -0.721 0 0 -0.001 -0.082 0 0 -0.612 -4.659 -0.14 -0.533 -0.765 -1.854 -0.217 -0.328 -0.775 -0.664 -0.286 -0.122 -0.613 0.117" />
    <path class="write-flat-pen" fill="#FFFFFF" stroke-width="2" __comx="474.066" __comy="50.23" __timestamp="0x1794a1f0482" d="M473.62 27.839 l-0.435 -0.868 -0.614 0.038 -0.685 0.46 -0.295 0.336 -1.3 2.432 -0.317 0.871 -1.495 4.688 -1.17 6.911 -0.1 5.926 0.833 4.505 1.867 5.033 2.544 4.519 3.591 3.812 0.947 0.497 0.862 0.293 2.874 0.837 0.198 -0.418 -2.468 -1.695 -0.708 -0.451 -0.609 -0.417 -3.149 -3.568 -2.342 -4.212 -1.756 -4.739 -0.766 -4.154 0.096 -5.59 1.116 -6.641 1.402 -4.548 0.25 -0.748 0.997 -2.289 0.072 -0.153 0.098 -0.297 -0.456 0.016 0.354 0.083" />
    <path class="write-flat-pen" fill="#FFFFFF" stroke-width="2" __comx="491.971" __comy="49.579" __timestamp="0x1794a1f06fa" d="M492.329 77.03 l-0.34 -0.063 0.355 0.481 -0.778 -4.459 -0.102 -0.821 -1.082 -8.252 -3.197 -14.502 -0.071 -2.018 0.461 -0.731 1.298 -0.653 2.763 -0.164 2.418 0.518 1.581 0.943 0.782 1.093 0.401 1.578 -0.194 2.009 -0.909 1.832 -1.474 1.328 0.026 -0.023 -2.742 1.079 0.444 1.78 0.112 -0.051 0.172 -0.096 0.985 -0.881 -0.049 -0.268 -1.234 -0.472 -0.151 -0.037 -0.078 -0.026 0.444 1.78 3.13 -1.108 0.026 -0.023 1.973 -1.784 1.228 -2.489 0.256 -2.702 -0.575 -2.257 -1.228 -1.719 -2.203 -1.315 -2.989 -0.641 -3.427 0.204 -2.138 1.08 -1.059 1.697 0.114 2.788 3.349 14.571 1.18 8.16 0.127 0.878 1.164 4.708 0.496 0.688 1.153 -0.905" />
    <path class="write-flat-pen" fill="#FFFFFF" stroke-width="2" __comx="507.431" __comy="49.579" __timestamp="0x1794a1f08ab" d="M507.435 49.937 l0.204 -1.571 0.029 -0.304 -0.089 -1.633 -1.243 -1.072 -1.861 0.345 -1.804 1.585 -1.455 3.117 -0.684 3.752 0.216 3.444 0.878 2.207 1.576 1.623 1.893 0.682 2.261 -0.302 2.783 -1.687 2.277 -2.63 1.385 -2.811 0.526 -2.953 -0.422 -2.37 -1.139 -1.879 -1.832 -1.443 -2.362 -0.678 -1.82 1.669 0.195 0.782 0.154 0.223 1.258 1.127 0.432 -0.211 -0.115 -1.685 0.013 -0.065 0.133 0.503 0.242 -0.144 0.948 0.276 1.244 0.981 0.762 1.255 0.296 1.658 -0.414 2.33 -1.148 2.331 -1.906 2.204 -2.162 1.316 -1.376 0.187 -1.015 -0.363 -0.992 -1.016 -0.623 -1.555 -0.189 -2.896 0.586 -3.276 1.168 -2.537 1.103 -0.998 0.488 -0.121 0.047 -0.006 0.148 0.788 0.015 0.206 0.128 1.581" />
    <path class="write-flat-pen" fill="#FFFFFF" stroke-width="2" __comx="521.711" __comy="49.579" __timestamp="0x1794a1f0a57" d="M520.874 46.214 l-0.391 -1.295 -0.13 -0.241 -1.544 -1.413 -0.518 -0.189 -1.686 -0.054 -0.752 1.667 1.725 1.894 5.566 3.411 1.641 1.526 0.793 1.543 0.021 0.928 -0.453 0.963 -1.218 0.855 -1.953 0.534 -2.338 -0.015 -1.311 -0.423 -0.098 -0.101 -0.093 0.196 0.061 -0.222 0.504 -2.01 -0.638 -0.344 -1.4 1.527 -0.225 0.309 -0.263 0.698 0.769 1.575 2.374 0.775 2.92 0.017 2.549 -0.704 1.923 -1.364 0.858 -1.862 -0.06 -1.832 -1.16 -2.231 -2.029 -1.887 -5.503 -3.365 -0.71 -0.761 -0.285 0.609 0.141 -0.02 -0.059 -0.028 1.225 0.85 -0.04 -0.09 0.667 1.072" />
    <path class="write-flat-pen" fill="#FFFFFF" stroke-width="2" __comx="535.125" __comy="49.579" __timestamp="0x1794a1f0c14" d="M535.429 41.404 l-1.202 -0.053 -0.161 0.015 -2.073 0.566 -0.294 0.136 -1.566 1.212 -0.582 1.772 0.854 1.668 6.388 3.418 1.685 1.369 0.571 1.041 0.062 1.037 -0.573 1.111 -1.218 0.959 -1.799 0.602 -2.579 -0.059 -1.746 -0.728 -0.12 0.798 -0.072 0.059 -0.148 -1.212 -0.348 -0.185 -1.088 0.554 -0.153 0.211 -0.138 0.944 3.37 1.539 3.323 0.075 2.457 -0.823 1.827 -1.444 1.013 -1.982 -0.132 -2.02 -0.974 -1.76 -2.13 -1.727 -6.022 -3.211 -0.214 -0.404 0.137 -0.454 0.912 -0.754 -0.009 0 1.764 -0.695 -0.025 -0.006 1.122 -0.269" />
    <path class="write-flat-pen" fill="#FFFFFF" stroke-width="2" __comx="547.301" __comy="49.579" __timestamp="0x1794a1f0ce0" d="M545.966 47.217 l-0.616 3.18 -0.031 0.648 0.393 4.695 1.7 2.55 0.806 -0.302 1.065 -0.944 -0.132 -0.444 -1.408 -0.211 0.447 -0.196 -0.641 -1.088 -0.44 -4.119 -0.002 -0.434 0.318 -3.117" />
    <path class="write-flat-pen" fill="#FFFFFF" stroke-width="2" __comx="548.249" __comy="49.579" __timestamp="0x1794a1f0d7e" d="M548.098 36.925 l0.048 -0.675 0.156 -0.102 1.762 -0.603 -0.001 -0.402 -2 -0.589 -1.628 0.441 0.075 1.946" />
    <path class="write-flat-pen" fill="#FFFFFF" stroke-width="2" __comx="560.999" __comy="49.579" __timestamp="0x1794a1f0f6f" d="M553.289 32.324 l0.097 2.052 0.096 0.574 2.135 8.655 0 0 0.216 1.091 0 0 1.987 11.384 0 0 1.915 -0.271 -0.351 -3.345 0.283 -2.374 0.668 -1.51 1.063 -0.963 1.366 -0.446 1.489 0.142 1.177 0.607 0.883 1.179 0.426 1.845 -0.192 1.689 -1.062 2.348 -1.656 1.804 -1.594 0.913 -1.567 0.281 -0.862 -0.225 -0.811 -0.784 -0.311 -1.089 0.506 -1.793 0.13 -0.304 1.085 -2.663 -0.421 -0.278 -2.023 2.044 -0.356 0.433 -0.916 2.503 0.559 2.17 1.561 1.527 1.78 0.464 2.324 -0.42 2.149 -1.234 2.071 -2.26 1.313 -2.914 0.262 -2.326 -0.597 -2.57 -1.4 -1.861 -1.906 -0.978 -2.261 -0.214 -2.141 0.699 -1.672 1.515 -0.953 2.149 -0.346 2.88 0.378 3.562 1.915 -0.271 0 0 -2.072 -11.391 0 0 -0.24 -1.16 0 0 -2.363 -8.605 -0.118 -0.463 -0.397 -1.952" />
    <path class="write-flat-pen" fill="#FFFFFF" stroke-width="2" __comx="574.118" __comy="49.579" __timestamp="0x1794a1f106a" d="M572.064 29.799 l-0.415 1.384 -0.075 0.485 -0.239 4.106 0.002 1.119 0.836 9.163 2.24 10.496 2.171 2.118 0.316 -0.197 -0.773 -2.61 -2.091 -10.091 -0.902 -8.976 -0.025 -1.007 -0.008 -4.036 -0.004 -0.387 0.056 -1.381" />
    <path class="write-flat-pen" fill="#FFFFFF" stroke-width="2" __comx="582.307" __comy="49.579" __timestamp="0x1794a1f116f" d="M578.091 48.586 l0.994 3.238 0.276 0.485 1.369 1.849 2.767 1.551 2.912 0.038 0.115 -0.496 -2.37 -1.183 -2.137 -1.347 -1.102 -1.442 -0.14 -0.229 -1.153 -2.991" />
    <path class="write-flat-pen" fill="#FFFFFF" stroke-width="2" __comx="584.284" __comy="52.337" __timestamp="0x1794a1f1257" d="M588.973 44.425 l-1.063 3.704 -0.292 0.955 -9.459 30.189 0.011 2.019 0.431 0.15 1.27 -1.603 9.452 -30.244 0.271 -1.013 0.816 -3.796" />
    <path class="write-flat-pen" fill="#FFFFFF" stroke-width="2" __comx="633.591" __comy="52.337" __timestamp="0x1794a1f1642" d="M633.932 47.733 l0.629 -0.52 0.096 -0.102 0.591 -1.142 0.103 -0.456 -0.286 -2.172 -0.393 -0.562 -1.979 -1.277 -2.127 -0.226 -3.027 0.827 -2.129 1.439 -2.018 2.468 -1.28 2.781 -0.692 3.562 0.267 2.941 1.24 2.949 1.638 1.788 2.308 1.105 2.091 -0.016 2.659 -1.09 2.372 -2.13 1.556 -2.391 1.023 -3.045 0 0 -0.1 -1.982 0 0 -0.863 -0.605 0 0 -1.558 0.672 -0.219 1.495 0.767 2.872 1.593 2.706 1.674 1.26 2.026 0.473 2.846 -0.808 0.581 -0.37 0.424 -0.358 2.016 -2.13 -0.158 -0.245 -2.769 0.965 -0.449 0.207 -0.363 0.154 -2.159 0.535 -1.13 -0.269 -1.021 -0.769 -1.253 -2.129 -0.591 -2.212 0.159 -1.088 -1.558 0.672 0 0 0.065 0.046 0 0 0.032 0.631 0 0 -0.823 2.446 -1.276 1.958 -1.92 1.724 -1.983 0.813 -1.246 0.01 -1.545 -0.739 -1.145 -1.248 -0.99 -2.346 -0.219 -2.353 0.586 -3.053 1.071 -2.339 1.673 -2.054 1.62 -1.102 2.362 -0.66 1.325 0.122 1.334 0.785 -0.042 -0.076 0.386 1.449 0.015 0.059 -0.146 0.978 0.021 0.001 -0.249 0.8" />
    <path class="write-flat-pen" fill="#FFFFFF" stroke-width="2" __comx="686.791" __comy="52.337" __timestamp="0x1794a1f1a15" d="M680.689 42.246 l-0.471 -1.004 -0.052 -0.151 -0.373 -0.991 -0.05 -0.237 -0.174 -1.818 0.018 -0.19 1.342 -3.868 0.169 -0.232 1.573 -1.416 1.514 -0.665 1.787 -0.076 1.988 0.608 2.089 1.43 1.113 1.547 0.75 2.212 0.047 2.077 -0.878 2.826 -1.941 3.239 -2.806 3.261 -11.475 9.279 -1.774 2.285 1.477 1.487 8.617 -0.997 9.731 0.777 2.592 -0.302 2.014 -1.35 1.874 -3.512 1.106 -3.649 -1.686 -0.564 -1.26 3.42 -1.563 2.921 -1.197 0.802 -1.917 0.223 -9.73 -0.777 -7.847 0.908 0.446 0.449 0.554 -0.714 11.436 -9.247 3.035 -3.528 2.152 -3.591 1.045 -3.367 -0.062 -2.71 -0.946 -2.784 -1.493 -2.072 -2.629 -1.798 -2.606 -0.796 -2.502 0.11 -2.148 0.951 -1.956 1.784 -0.462 0.65 -1.391 4.453 0 0.624 0.451 2.097 0.212 0.468 0.73 0.97 0.164 0.178 0.882 0.741" />
    <path class="write-flat-pen" fill="#FFFFFF" stroke-width="2" __comx="711.82" __comy="52.337" __timestamp="0x1794a1f1b68" d="M705.952 51.061 l2.851 -0.376 0.523 -0.11 5.622 -1.256 2.994 -0.88 -0.071 -0.508 -3.16 -0.022 -5.741 0.984 -0.51 0.124 -2.763 0.663" />
    <path class="write-flat-pen" fill="#FFFFFF" stroke-width="2" __comx="727.473" __comy="53.017" __timestamp="0x1794a1f1ea5" d="M736.194 51.784 l0.603 -0.591 0.093 -0.355 -0.042 -1.172 -0.175 -0.408 -1.636 -1.89 -0.534 -0.33 -3.1 -1.088 -2.753 -0.123 -2.302 0.659 -2.025 1.62 -1.212 2.503 -0.197 2.451 0.631 2.458 1.238 1.441 2.172 0.694 2.151 -0.596 2.057 -1.62 0 0 1.744 -2.406 0 0 -1.785 -0.584 -0.119 17.477 -0.533 3.807 -1.081 3.158 -1.507 2.374 -1.381 1.015 -1.984 0.445 -1.438 -0.246 -1.713 -0.961 -1.017 -1.414 -0.25 -1.179 0.48 -2.198 2.408 -3.844 0.577 -0.646 1.45 -1.451 0.773 -0.737 0.755 -0.783 2.02 -2.262 -0.239 -0.292 -2.618 1.53 -0.925 0.591 -0.904 0.671 -1.617 1.429 -0.764 0.787 -2.779 4.232 -0.662 2.964 0.426 2.014 1.521 2.115 2.4 1.347 2.168 0.371 2.778 -0.624 2.021 -1.486 1.834 -2.892 1.218 -3.563 0.576 -4.128 0.096 -17.61 -1.785 -0.584 0 0 -1.578 2.188 0 0 -1.531 1.208 -1.207 0.337 -1.089 -0.344 -0.584 -0.674 -0.442 -1.701 0.136 -1.766 0.854 -1.791 1.378 -1.12 1.636 -0.481 2.181 0.072 2.697 0.859 0.18 0.093 1.506 1.374 0.034 0.007 0.334 0.748 0.053 0.005 -0.11 0.644" />
    <path class="write-flat-pen" fill="#FFFFFF" stroke-width="2" __comx="744.957" __comy="49.21" __timestamp="0x1794a1f2061" d="M748.28 49.891 l-0.374 -1.219 -0.1 -0.332 -1.481 -1.691 -0.745 -0.194 -2.058 0.271 -1.89 1.292 -1.422 2.241 -0.839 3.447 0.095 2.791 0.995 2.144 1.412 1.089 1.955 0.262 2.56 -0.997 2.111 -2.144 1.544 -3.038 0.494 -2.743 -0.628 -2.444 -1.376 -1.555 -1.8 -0.67 -1.76 0.53 -0.858 1.839 0.226 0.684 0.661 0.69 0.291 0.157 1.964 0.609 0.113 -0.149 -1.116 -1.726 -0.057 -0.106 -0.166 -0.36 0.127 0.363 0.217 -0.344 0.289 -0.081 0.704 0.263 0.726 0.82 0.4 1.555 -0.364 2.025 -1.27 2.5 -1.594 1.62 -1.682 0.657 -0.917 -0.121 -0.606 -0.465 -0.625 -1.337 -0.079 -2.118 0.685 -2.873 1.025 -1.639 1.177 -0.827 1.239 -0.204 -0.124 -0.04 1.037 0.91 0.043 0.047 0.692 1.131" />
    <path class="write-flat-pen" fill="#FFFFFF" stroke-width="2" __comx="758.693" __comy="49.015" __timestamp="0x1794a1f21c3" d="M753.005 49.876 l0.245 0.212 -0.114 -0.11 -0.013 0.688 0.022 0.253 0.22 1.829 0.057 0.422 0.57 3.231 0 0 0.735 0.853 0 0 1.675 -0.345 2.388 -7.243 1.087 -1.882 0.7 -0.496 0.308 -0.002 0.557 0.593 0.676 2.51 0.352 5.238 1.041 2.328 0.561 -0.086 0.31 -2.446 -0.294 -5.356 -0.86 -3.186 -1.496 -1.584 -1.793 0.017 -1.56 1.104 -1.407 2.435 -2.443 7.441 1.675 -0.345 0 0 -0.404 -0.435 0 0 -0.564 -2.666 -0.081 -0.409 -0.448 -1.836 -0.101 -0.292 -0.369 -0.698 -0.192 -0.298 -0.698 -0.206" />
    <path class="write-flat-pen" fill="#FFFFFF" stroke-width="2" __comx="778.55" __comy="27.003" __timestamp="0x1794a1f2307" d="M771.648 18.567 l1.026 1.726 0.232 0.433 2.611 5.071 0.635 1.201 3.751 7.127 2.429 5.998 0.891 4.202 0.242 5.221 -0.754 4.921 -1.203 3.258 -3.316 4.536 -0.957 0.962 -1.034 0.992 -0.983 0.994 -1.976 2.124 0.292 0.361 2.49 -1.489 1.197 -0.77 1.182 -0.924 1.147 -1.043 3.68 -4.801 1.395 -3.7 0.825 -5.315 -0.258 -5.581 -0.962 -4.531 -2.54 -6.25 -3.829 -7.204 -0.648 -1.198 -2.777 -5.029 -0.32 -0.491 -1.266 -1.626" />
    <path class="write-flat-pen" fill="#FFFFFF" stroke-width="2" __comx="854.446" __comy="47.296" __timestamp="0x1794a1f35da" d="M842.452 41.007 l-0.092 -1.476 -0.009 -0.041 -0.024 -0.071 0.049 -0.166 -1.682 0.286 -0.03 0.074 -0.239 1.143 -0.151 0.59 -1.394 8.216 -0.763 8.949 0.382 2.196 1.063 1.454 2.092 0.564 2.042 -0.863 3.278 -3.078 3.175 -4.078 0 0 2.691 -4.61 0 0 -1.833 -0.26 0.9 3.572 1.576 3.33 2.105 2.443 2.404 1.325 2.504 0.425 2.371 -0.615 2.867 -2.198 2.767 -3.71 1.457 -3.299 0.818 -4.297 -0.022 -3.67 -0.887 -3.493 -1.268 -1.819 -1.589 -0.833 -1.908 0.053 -2.171 1.291 -1.382 2.325 -0.528 3.203 0.13 0.632 0.267 0.592 1.641 2.296 0.457 -0.188 -0.431 -2.745 -0.098 -0.44 -0.01 -0.15 0.476 -2.494 0.938 -1.573 1.287 -0.765 0.867 -0.024 0.694 0.364 0.78 1.12 0.738 2.904 0.02 3.231 -0.739 3.881 -1.273 2.884 -2.466 3.306 -2.325 1.782 -1.563 0.405 -1.748 -0.297 -1.792 -0.988 -1.693 -1.965 -1.376 -2.908 -0.852 -3.382 -1.833 -0.26 0 0 -2.623 4.494 0 0 -2.998 3.85 -2.904 2.727 -1.078 0.456 -0.749 -0.202 -0.372 -0.509 -0.257 -1.481 0.734 -8.611 1.337 -8.073 0.137 -0.607 0.13 -1.274 -0.009 -0.109 -1.682 0.286 0.118 -0.025 -0.024 -0.071 -0.001 -0.016 0.43 1.302" />
    <path class="write-flat-pen" fill="#FFFFFF" stroke-width="2" __comx="876.72" __comy="47.296" __timestamp="0x1794a1f36e1" d="M874.631 45.122 l0.917 1.331 0.051 0.184 1.114 5.6 0.119 0.746 0.216 8.647 1.732 -0.243 -0.109 -0.068 -0.594 -0.662 -0.758 0.205 -0.18 0.871 -0.06 0.113 1.732 -0.243 -0.053 -8.792 -0.157 -0.932 -1.335 -5.746 -0.241 -0.556 -1.323 -1.348" />
    <path class="write-flat-pen" fill="#FFFFFF" stroke-width="2" __comx="881.606" __comy="47.296" __timestamp="0x1794a1f3789" d="M881.257 34.452 l-0.701 2.467 0.757 2.317 0.251 -0.016 0.468 -2.146 0.621 -2.229" />
    <path class="write-flat-pen" fill="#FFFFFF" stroke-width="2" __comx="894.444" __comy="47.296" __timestamp="0x1794a1f3890" d="M892.369 33.075 l0.059 2.318 0.067 0.579 0.91 13.623 0.092 1.298 1.108 8.931 0.137 0.273 1.079 1.154 0.539 -0.183 0.152 -1.572 0.007 -0.109 -1.046 -8.685 -0.089 -1.248 -1.028 -13.679 -0.096 -0.58 -0.284 -2.241" />
    <path class="write-flat-pen" fill="#FFFFFF" stroke-width="2" __comx="895.022" __comy="47.296" __timestamp="0x1794a1f3959" d="M884.258 51.272 l-0.117 -0.808 0.013 0.289 0.511 -0.344 0.141 -0.043 6.156 -0.807 0.991 -0.048 9.789 -0.967 1.015 -0.163 0.939 -0.231 0.726 -0.216 2.949 -1.047 -0.08 -0.465 -3.129 -0.004 -0.772 0.041 -0.924 0.124 -0.936 0.099 -9.718 0.86 -1.037 0.053 -6.514 0.992 -0.673 0.354 -0.898 1.141 -0.017 0.591 0.609 0.993" />
    <path class="write-flat-pen" fill="#FFFFFF" stroke-width="2" __comx="911.576" __comy="47.296" __timestamp="0x1794a1f3b50" d="M904.292 32.803 l0.149 1.504 0.064 0.378 0.826 3.081 0.195 0.812 0 0 1.018 4.848 0 0 0.535 13.955 0 0 1.984 0.129 0.972 -5.687 1.246 -3.655 1.632 -2.608 1.247 -1.069 0.556 -0.101 0.649 0.425 0.85 1.827 0.648 3.81 0.033 9.302 0.023 0.194 0.79 3.288 0.692 -0.037 0.433 -3.354 0.005 -0.144 0.023 -9.418 -0.721 -4.24 -1.203 -2.587 -1.794 -1.176 -1.874 0.341 -1.89 1.62 -1.917 3.063 -1.372 4.025 -0.999 5.845 1.984 0.129 0 0 -0.582 -14.123 0 0 -1.127 -5.034 0 0 -0.238 -0.88 -1.032 -3.014 -0.102 -0.298 -0.477 -1.41" />
    <path class="write-flat-pen" fill="#FFFFFF" stroke-width="2" __comx="299.591" __comy="107.562" __timestamp="0x1794a1f42d4" d="M301.572 107.142 l0.28 -0.601 0.066 -0.145 0.305 -1.2 0.018 -0.148 -0.078 -2.853 -0.24 -0.542 -1.338 -1.432 -2.126 -0.546 -2.844 0.411 -2.943 1.309 -2.592 2.1 -1.886 2.8 -1.345 3.968 -0.472 4.246 0.646 3.21 1.22 1.898 2.197 1.267 2.462 -0.007 2.466 -0.951 2.828 -2.264 2.336 -3.225 2.134 -4.617 0.996 -3.868 -0.248 -2.053 -1.048 -0.385 0 0 -1.304 0.685 -0.493 1.907 0.455 3.168 1.641 3.397 2.14 2.462 3.207 1.765 0.783 0.246 0.736 0.151 3.132 0.419 0.144 -0.44 -2.775 -1.511 -0.65 -0.302 -0.577 -0.259 -2.725 -1.619 -1.737 -2.015 -1.391 -2.883 -0.356 -2.468 0.391 -1.521 -1.304 0.685 0 0 -0.095 -0.035 0.057 0.473 -0.859 3.331 -1.979 4.277 -2.065 2.851 -2.378 1.904 -1.836 0.709 -1.56 0.005 -1.317 -0.757 -0.759 -1.177 -0.514 -2.54 0.412 -3.726 1.188 -3.517 1.569 -2.342 2.158 -1.76 2.459 -1.107 2.201 -0.339 1.243 0.288 0.796 0.774 -0.01 -0.041 0.308 2.403 0.007 0.018 0.07 1.188 0.025 0.14 0.119 0.659" />
    <path class="write-flat-pen" fill="#FFFFFF" stroke-width="2" __comx="354.067" __comy="107.562" __timestamp="0x1794a1f4627" d="M361.357 99.519 l0.337 -1.256 0.054 -0.219 0.162 -1.846 -0.156 -0.524 -1.04 -1.38 -2.168 -0.599 -2.887 0.418 -3.189 1.357 -1.907 1.742 -0.867 2.166 0.354 1.719 1.807 1.717 7.084 2.158 2.471 1.293 1.008 1.272 0.554 1.902 -0.125 1.922 -1.048 2.585 -1.763 2.284 -2.586 1.754 -2.283 0.723 -3.492 0.313 -2.292 -0.353 -2.223 -0.958 -1.15 -1.035 -0.841 -1.681 0.047 -1.139 1.004 -1.707 0.32 -0.354 0.448 -0.456 0.445 -0.471 1.926 -2.323 -0.293 -0.356 -2.653 1.437 -0.576 0.367 -0.574 0.453 -0.548 0.519 -1.456 2.288 -0.109 2.17 1.242 2.487 1.676 1.509 2.759 1.189 2.785 0.429 3.952 -0.355 2.768 -0.877 3.092 -2.098 2.124 -2.755 1.268 -3.138 0.165 -2.593 -0.763 -2.611 -1.512 -1.908 -3.01 -1.575 -6.811 -2.076 -1.014 -0.963 -0.108 -0.522 0.475 -1.19 1.32 -1.21 2.642 -1.137 2.24 -0.352 1.201 0.28 0.536 0.577 -0.005 -0.06 0.137 1.482 0.008 0.153 0.057 1.309" />
    <path class="write-flat-pen" fill="#FFFFFF" stroke-width="2" __comx="378.371" __comy="107.562" __timestamp="0x1794a1f48d0" d="M365.836 103.898 l0.6 0.226 -0.207 -0.293 0.441 2.297 0.073 0.542 0.641 11.334 0 0 0.017 0.667 0 0 0.094 3.011 0 0 1.993 -0.014 0.196 -10.444 0.64 -6.117 0.722 -2.242 0.731 -0.906 0.684 -0.221 1.052 0.368 1.313 1.216 0.994 1.771 0.893 3.35 0 0 0.705 9.76 0 0 1.969 0.155 2.487 -10.645 1.775 -5.002 1.405 -2.246 0.4 -0.157 0.43 0.206 0.637 1.089 0.849 4.179 1.27 14.332 0.479 0.544 0.363 0.1 1.231 -0.17 0.192 -0.436 -0.705 -1.023 0.094 -0.019 0.227 0.238 -1.174 -13.85 -0.937 -4.615 -1.113 -1.902 -1.764 -0.844 -1.819 0.714 -1.87 2.988 -1.885 5.313 -2.516 10.752 1.969 0.155 0 0 -0.722 -9.948 0 0 -1.006 -3.775 -1.27 -2.264 -1.848 -1.712 -2.078 -0.727 -1.889 0.611 -1.338 1.658 -0.899 2.793 -0.671 6.409 -0.194 10.53 1.993 -0.014 0 0 -0.105 -3.005 0 0 -0.02 -0.696 0 0 -0.763 -11.448 -0.121 -0.704 -0.752 -2.556 -0.372 -0.565 -1.415 0.051" />
    <path class="write-flat-pen" fill="#FFFFFF" stroke-width="2" __comx="398.894" __comy="107.562" __timestamp="0x1794a1f4aea" d="M402.72 107.146 l-0.164 -0.913 -0.009 -0.157 -0.37 -1.494 -0.17 -0.32 -1.316 -1.249 -2.407 -0.734 -2.404 0.35 -2.329 1.434 -1.822 2.477 -1.036 2.948 -0.484 3.814 0.391 3.297 1.097 2.241 1.911 1.2 2.145 -0.193 2.322 -1.431 1.958 -2.168 0 0 4.154 -8.644 0 0 -1.892 -0.349 0.527 6.314 0.899 3.315 1.143 1.341 0.476 0.216 0.36 0.022 1.804 -0.389 0.074 -0.396 -1.54 -1.017 -0.087 -0.062 0.148 0.055 -0.564 -0.713 -0.737 -2.719 -0.518 -6.133 -1.892 -0.349 0 0 -4.031 8.384 0 0 -1.575 1.741 -1.679 1.034 -1.006 0.091 -0.86 -0.539 -0.698 -1.425 -0.323 -2.717 0.424 -3.362 0.864 -2.471 1.413 -1.933 1.651 -1.03 1.574 -0.243 1.583 0.451 0.816 0.696 -0.049 -0.099 0.524 1.205 0.072 0.16 0.482 0.878" />
    <path class="write-flat-pen" fill="#FFFFFF" stroke-width="2" __comx="411.486" __comy="107.562" __timestamp="0x1794a1f4bde" d="M408.073 87.698 l-0.416 1.666 -0.071 0.577 -0.123 3.432 0.033 1.272 0.695 8.602 1.875 11.719 1.196 4.127 2.174 2.46 1.044 -0.337 0.349 -0.452 0.677 -1.472 -0.272 -0.291 -1.513 0.578 -0.154 0.02 0.513 -0.187 -1.043 -1.281 -1.042 -3.598 -1.851 -11.525 -0.754 -8.478 -0.059 -1.183 -0.064 -3.341 0 -0.457 0.115 -1.64" />
    <path class="write-flat-pen" fill="#FFFFFF" stroke-width="2" __comx="420.849" __comy="107.562" __timestamp="0x1794a1f4cc5" d="M417.018 85.035 l-0.326 2.285 -0.059 0.856 0.427 7.016 0.141 1.519 1.788 12.062 1.567 6.029 1.629 3.018 2.452 1.973 0.427 -0.349 -1.323 -2.652 -1.366 -2.693 -1.483 -5.715 -1.795 -11.907 -0.147 -1.449 -0.625 -6.892 -0.012 -0.738 -0.014 -2.277" />
    <path class="write-flat-pen" fill="#FFFFFF" stroke-width="2" __comx="434.546" __comy="107.562" __timestamp="0x1794a1f4eae" d="M425.569 105.411 l2.38 2.457 0.561 0.261 3.671 0.95 3.722 -0.02 2.834 -0.803 2.151 -1.483 1.07 -1.727 0.012 -2.078 -1.313 -1.396 -2.073 -0.618 -2.736 0.129 -3.153 1.003 -2.183 1.575 -2.098 2.774 -1.298 2.997 -0.439 2.95 0.704 2.722 1.434 2.109 2.029 1.386 2.229 0.559 2.58 -0.23 4.343 -2.408 0.67 -0.643 1.079 -1.32 0.426 -0.757 1.35 -2.838 -0.468 -0.331 -2.223 2.221 -0.516 0.577 -1.039 1.099 -0.437 0.391 -3.78 2.053 -1.826 0.163 -1.554 -0.39 -1.421 -0.971 -1.026 -1.508 -0.517 -1.993 0.336 -2.292 1.09 -2.545 1.763 -2.361 1.683 -1.229 2.609 -0.838 2.153 -0.105 1.26 0.373 0.432 0.455 0.002 0.77 -0.568 0.936 -1.558 1.097 -2.287 0.676 -3.244 0.062 -3.33 -0.749 -0.17 -0.063 -2.38 -2.041" />
    <path class="write-flat-pen" fill="#FFFFFF" stroke-width="2" __comx="455.793" __comy="107.562" __timestamp="0x1794a1f503f" d="M446.249 102.205 l-0.194 0.695 -0.028 0.282 0.04 1.096 0.053 0.455 0.598 2.875 0.162 0.654 2.78 9.607 0.233 0.427 0 0 0.456 0.444 0 0 1.681 -0.811 -1.143 -12.107 0.31 -2.652 0.706 -1.346 1.276 -1.065 1.621 -0.506 2.129 0.007 4.098 1.405 0.378 0.214 0.476 0.275 0.498 0.279 2.912 1.319 0.266 -0.368 -2.169 -2.348 -0.454 -0.409 -0.502 -0.367 -0.567 -0.363 -4.593 -1.634 -2.774 -0.011 -2.295 0.716 -1.886 1.575 -1.063 2.026 -0.378 3.23 1.172 12.317 1.681 -0.811 0 0 -0.243 -0.23 0 0 0.013 0.026 -2.819 -9.347 -0.174 -0.608 -0.799 -2.763 -0.109 -0.39 -0.333 -0.994 -0.077 -0.147 -0.153 -0.623" />
    <path class="write-flat-pen" fill="#FFFFFF" stroke-width="2" __comx="501.197" __comy="107.562" __timestamp="0x1794a1f53ab" d="M501.223 80.645 l-0.837 1.801 0.002 0.527 0.812 4.377 0.261 1.003 1.405 6.01 1.061 8.35 0 0 0.489 9.951 0 0 0.559 2.267 0 0 1.962 -0.117 0.488 -3.921 -0.392 -3.435 -1.19 -3.131 -2.006 -2.616 -2.33 -1.481 -2.974 -0.812 -3.222 0.144 -2.782 1.162 -2.491 2.199 -1.563 2.703 -1.01 3.724 -0.015 3.215 0.767 2.268 1.587 2.084 2.48 1.546 3.352 0.788 3.645 -0.227 4.809 -1.552 4.058 -2.065 3.613 -2.908 0.58 -0.599 0.533 -0.605 0.418 -0.59 1.653 -2.756 -0.413 -0.363 -2.517 1.999 -0.503 0.46 -0.538 0.51 -0.512 0.483 -3.402 2.678 -3.736 1.901 -4.418 1.426 -3.1 0.193 -2.744 -0.645 -1.89 -1.178 -1.167 -1.532 -0.555 -1.642 0.012 -2.62 0.874 -3.22 1.269 -2.195 1.998 -1.765 2.15 -0.898 2.554 -0.114 2.38 0.65 1.777 1.129 1.612 2.103 0.996 2.622 0.336 2.949 -0.457 3.685 1.962 -0.117 0 0 -0.519 -2.078 0 0 -0.499 -9.835 0 0 -1.12 -8.526 -1.509 -6.121 -0.277 -0.973 -0.99 -4.144 -0.021 -0.077 0.412 -1.626" />
    <path class="write-flat-pen" fill="#FFFFFF" stroke-width="2" __comx="521.028" __comy="107.562" __timestamp="0x1794a1f54b2" d="M519.314 101.909 l0.328 1.193 0.039 0.223 0.343 1.887 0.089 0.563 0.625 9.057 0.015 0.492 0.001 0.019 0.165 1.539 1.825 0.01 -0.07 -0.209 -0.464 -1.047 -0.568 -0.044 -0.621 0.962 -0.101 0.196 1.825 0.01 -0.039 -1.512 0.001 0.019 -0.017 -0.54 -0.791 -9.194 -0.157 -0.698 -0.593 -1.93 -0.14 -0.321 -0.671 -1.117" />
    <path class="write-flat-pen" fill="#FFFFFF" stroke-width="2" __comx="520.679" __comy="107.562" __timestamp="0x1794a1f5546" d="M519.962 88.809 l-0.999 2.145 0.05 2.335 0.969 2.337 0.376 0.517 1.827 2.256 0.211 -0.116 -0.926 -2.751 -0.184 -0.501 -0.651 -2.057 -0.073 -1.742 0.611 -1.947" />
    <path class="write-flat-pen" fill="#FFFFFF" stroke-width="2" __comx="537.293" __comy="107.562" __timestamp="0x1794a1f56f5" d="M538.656 97.515 l-2.226 -1.227 -0.557 -0.018 -1.919 0.346 -1.749 1.274 -0.842 1.889 0.186 1.898 1.534 2.494 8.012 6.703 1.788 2.057 0.719 1.748 -0.01 1.601 -0.514 1.081 -1.228 1.127 -2.653 1.078 -2.304 0.288 -2.229 -0.323 -1.96 -1.025 -1.209 -1.579 -0.423 -1.559 0.603 -2.234 0.16 -0.223 0.383 -0.494 0.346 -0.447 1.621 -2.425 -0.27 -0.278 -2.467 1.557 -0.496 0.373 -0.514 0.499 -0.468 0.528 -0.954 3.12 0.655 2.479 1.716 2.247 2.655 1.388 2.833 0.409 2.832 -0.356 3.228 -1.316 1.775 -1.637 0.862 -1.834 -0.002 -2.437 -1.008 -2.4 -2.111 -2.401 -7.924 -6.566 -1.151 -1.86 -0.101 -0.975 0.432 -0.991 1.003 -0.76 1.319 -0.29 -0.017 -0.009 1.995 0.816" />
    <path class="write-flat-pen" fill="#FFFFFF" stroke-width="2" __comx="554.798" __comy="107.562" __timestamp="0x1794a1f5811" d="M551.406 88.197 l0.814 1.207 0.131 0.248 0.972 2.571 0.189 0.709 1.394 6.875 1.14 9.859 0.388 8.546 0.18 2.135 0.319 0.083 1.258 -2.025 -0.206 -8.886 -1.177 -10.024 -1.532 -7.006 -0.269 -0.871 -1.296 -2.72 -0.322 -0.406 -1.14 -1.032" />
    <path class="write-flat-pen" fill="#FFFFFF" stroke-width="2" __comx="555.158" __comy="107.562" __timestamp="0x1794a1f58c7" d="M544.95 105.629 l2.017 -0.618 0.39 -0.08 4.669 -0.573 9.62 -0.239 1.108 -0.106 3.179 -0.456 -0.002 -0.739 -3.181 -0.44 -1.123 -0.1 -9.746 0.119 -4.864 0.664 -0.579 0.148 -2.054 0.825" />
    <path class="write-flat-pen" fill="#FFFFFF" stroke-width="2" __comx="575.221" __comy="107.562" __timestamp="0x1794a1f5be1" d="M578.085 108.184 l1.088 -0.522 0.155 -0.139 0.778 -1.171 0.176 -0.58 -0.313 -2.947 -0.465 -0.56 -2.123 -1.21 -3.048 -0.178 -3.437 0.972 -2.26 1.382 -2.185 2.498 -1.099 2.843 -0.215 3.175 0.846 3.106 1.458 2.385 1.954 1.617 2.737 0.799 2.252 -0.33 2.222 -1.192 1.852 -1.963 1.984 -3.82 0.838 -3.495 -0.151 -2.64 -1.518 -1.365 -1.688 1.416 -1.093 3.073 -0.22 3.317 0.804 3.223 1.319 2.239 3.073 1.709 0.557 0.011 2.888 -0.328 0.054 -0.559 -2.772 -0.874 -0.147 -0.057 -2.213 -1.351 -0.908 -1.546 -0.659 -2.644 0.181 -2.734 0.822 -2.306 -0.044 0.038 -0.37 -0.332 0.087 1.532 -0.714 2.974 -1.747 3.356 -1.44 1.526 -1.629 0.876 -1.478 0.218 -1.927 -0.561 -1.385 -1.142 -1.144 -1.86 -0.694 -2.513 0.161 -2.55 0.857 -2.25 1.758 -2.023 1.78 -1.095 2.872 -0.825 2.299 0.109 1.484 0.785 -0.069 -0.094 0.448 2.098 -0.001 0.133 -0.332 1.013 0.049 -0.03 -0.735 0.844" />
    <path class="write-flat-pen" fill="#FFFFFF" stroke-width="2" __comx="593.053" __comy="107.562" __timestamp="0x1794a1f5db9" d="M586.631 102.019 l-0.108 1.643 0.008 0.363 0.33 2.955 0.094 0.608 1.111 7.11 0.077 0.458 0.715 2.521 2.101 0.048 1.635 -11.195 0.928 -3.177 0.492 -0.559 -0.226 -0.011 0.41 0.733 0.839 11.07 0.724 3.189 0.936 1.141 0.533 0.208 2.204 0.256 0.148 -0.297 -1.53 -1.607 -0.098 -0.107 -0.344 -0.478 -0.59 -2.604 -0.861 -11.363 -1.165 -2.083 -1.843 -0.094 -1.424 1.618 -1.092 3.738 -1.399 9.585 1.136 0.027 -0.291 -1 -0.06 -0.345 -1.225 -7.093 -0.114 -0.592 -0.545 -2.856 -0.05 -0.269 -0.228 -1.587" />
    <path class="write-flat-pen" fill="#FFFFFF" stroke-width="2" __comx="611.945" __comy="107.562" __timestamp="0x1794a1f5f6a" d="M613.905 102.325 l0.395 -1.159 0.089 -0.189 0.309 -1.444 -0.236 -0.798 -1.964 -0.956 -0.859 -0.002 -2.766 0.853 -2.068 1.373 -2.435 2.934 -1.54 3.5 -0.648 3.603 0.695 3.647 1.341 2.525 2.372 2.376 2.484 1.153 2.739 0.42 2.909 -0.497 3.973 -2.527 0.706 -0.757 0.504 -0.666 0.462 -0.824 1.343 -2.762 -0.411 -0.295 -2.187 2.156 -0.595 0.649 -0.477 0.507 -0.535 0.505 -3.5 2.119 -2.207 0.368 -2.139 -0.33 -1.904 -0.884 -1.91 -1.913 -1.059 -1.994 -0.569 -2.986 0.54 -3.004 1.331 -3.026 2.068 -2.492 1.584 -1.053 2.203 -0.692 0.129 -0.004 0.866 0.332 -0.105 -0.385 0.009 0.925 -0.022 0.15 -0.094 1.314" />
    <path class="write-flat-pen" fill="#FFFFFF" stroke-width="2" __comx="628.981" __comy="107.562" __timestamp="0x1794a1f6104" d="M624.089 108.494 l1.803 0.543 0.384 0.057 3.652 -0.492 0.673 -0.32 1.856 -1.397 1.131 -1.944 0.131 -2.07 -1.108 -1.723 -1.876 -0.82 -2.721 -0.023 -2.632 0.923 -2.404 1.9 -1.679 2.551 -1.104 3.467 -0.359 3.78 0.656 2.402 1.536 2.162 2.479 1.735 2.932 0.979 5.85 0.272 1.027 -0.237 0.848 -0.302 2.96 -1.248 -0.193 -0.746 -3.193 0.343 -0.839 0.134 -0.751 0.12 -5.334 -0.315 -2.399 -0.803 -1.959 -1.371 -1.131 -1.592 -0.468 -1.709 0.299 -3.207 0.947 -3.008 1.347 -2.062 1.893 -1.503 1.998 -0.703 1.979 0.014 0.971 0.42 0.45 0.687 -0.052 0.982 -0.693 1.237 -1.374 1.096 -0.259 0.138 -3.135 0.651 -0.095 0.006 -1.795 -0.204" />
    <path class="write-flat-pen" fill="#FFFFFF" stroke-width="2" __comx="652.384" __comy="107.562" __timestamp="0x1794a1f62e4" d="M654.218 121.324 l-1.718 -2.004 -0.086 -0.168 -1.185 -1.997 -0.678 0.19 0.023 2.321 0.131 0.609 1.991 2.346" />
    <path class="write-flat-pen" fill="#FFFFFF" stroke-width="2" __comx="550.582" __comy="352.433" __timestamp="0x1794a1fba21" d="M526.604 332.605 l-1.037 4.829 2.304 11.609 5.4 16.265 11.428 26.262 -0.003 -0.008 29.692 63.165 1.192 -0.599 -1.022 -0.849 -0.299 0.161 0.146 1.321 1.192 -0.599 -29.479 -63.241 -0.003 -0.008 -11.387 -26.163 -5.381 -16.099 -2.277 -11.209 0.94 -4.54" />
  </g>
</svg>
