<svg class="write-page" color-interpolation="linearRGB" width="982px" height="1584px" xmlns="http://www.w3.org/2000/svg" xmlns:xlink="http://www.w3.org/1999/xlink">
  <g class="write-content write-v3" width="982" height="1584" xruling="30" yruling="30" marginLeft="30" papercolor="#000000" rulecolor="#0D9D00FF">
    <g class="ruleline write-std-ruling write-scale-down" fill="none" stroke="#9D00FF" stroke-opacity="0.051" stroke-width="1" shape-rendering="crispEdges" vector-effect="non-scaling-stroke">
      <rect class="pagerect" fill="#000000" stroke="none" x="0" y="0" width="982" height="1584" />
      <path class="yrule_1" d="M0 30 l982 0" />
      <path d="M0 60 l982 0" />
      <path d="M0 90 l982 0" />
      <path d="M0 120 l982 0" />
      <path d="M0 150 l982 0" />
      <path d="M0 180 l982 0" />
      <path d="M0 210 l982 0" />
      <path d="M0 240 l982 0" />
      <path d="M0 270 l982 0" />
      <path d="M0 300 l982 0" />
      <path d="M0 330 l982 0" />
      <path d="M0 360 l982 0" />
      <path d="M0 390 l982 0" />
      <path d="M0 420 l982 0" />
      <path d="M0 450 l982 0" />
      <path d="M0 480 l982 0" />
      <path d="M0 510 l982 0" />
      <path d="M0 540 l982 0" />
      <path d="M0 570 l982 0" />
      <path d="M0 600 l982 0" />
      <path d="M0 630 l982 0" />
      <path d="M0 660 l982 0" />
      <path d="M0 690 l982 0" />
      <path d="M0 720 l982 0" />
      <path d="M0 750 l982 0" />
      <path d="M0 780 l982 0" />
      <path d="M0 810 l982 0" />
      <path d="M0 840 l982 0" />
      <path d="M0 870 l982 0" />
      <path d="M0 900 l982 0" />
      <path d="M0 930 l982 0" />
      <path d="M0 960 l982 0" />
      <path d="M0 990 l982 0" />
      <path d="M0 1020 l982 0" />
      <path d="M0 1050 l982 0" />
      <path d="M0 1080 l982 0" />
      <path d="M0 1110 l982 0" />
      <path d="M0 1140 l982 0" />
      <path d="M0 1170 l982 0" />
      <path d="M0 1200 l982 0" />
      <path d="M0 1230 l982 0" />
      <path d="M0 1260 l982 0" />
      <path d="M0 1290 l982 0" />
      <path d="M0 1320 l982 0" />
      <path d="M0 1350 l982 0" />
      <path d="M0 1380 l982 0" />
      <path d="M0 1410 l982 0" />
      <path d="M0 1440 l982 0" />
      <path d="M0 1470 l982 0" />
      <path d="M0 1500 l982 0" />
      <path d="M0 1530 l982 0" />
      <path d="M0 1560 l982 0" />
      <path class="xrule_1" d="M30 0 l0 1584" />
      <path d="M60 0 l0 1584" />
      <path d="M90 0 l0 1584" />
      <path d="M120 0 l0 1584" />
      <path d="M150 0 l0 1584" />
      <path d="M180 0 l0 1584" />
      <path d="M210 0 l0 1584" />
      <path d="M240 0 l0 1584" />
      <path d="M270 0 l0 1584" />
      <path d="M300 0 l0 1584" />
      <path d="M330 0 l0 1584" />
      <path d="M360 0 l0 1584" />
      <path d="M390 0 l0 1584" />
      <path d="M420 0 l0 1584" />
      <path d="M450 0 l0 1584" />
      <path d="M480 0 l0 1584" />
      <path d="M510 0 l0 1584" />
      <path d="M540 0 l0 1584" />
      <path d="M570 0 l0 1584" />
      <path d="M600 0 l0 1584" />
      <path d="M630 0 l0 1584" />
      <path d="M660 0 l0 1584" />
      <path d="M690 0 l0 1584" />
      <path d="M720 0 l0 1584" />
      <path d="M750 0 l0 1584" />
      <path d="M780 0 l0 1584" />
      <path d="M810 0 l0 1584" />
      <path d="M840 0 l0 1584" />
      <path d="M870 0 l0 1584" />
      <path d="M900 0 l0 1584" />
      <path d="M930 0 l0 1584" />
      <path d="M960 0 l0 1584" />
      <path class="leftmargin" stroke="#FF0000" d="M30 0 l0 1584" />
    </g>
    <path class="write-flat-pen" fill="#FFFFFF" stroke-width="1.8" __comx="52.743" __comy="49.576" __timestamp="0x177ea39cdaa" d="M51.121 36.207 l-0.066 0.538 -0.047 0.111 -0.049 0.23 -0.015 0.174 0 0.485 0.017 0.306 0.114 1.268 0.054 0.537 1.1 10.907 0.717 3.649 0.207 0.277 0.274 0.094 0.837 -0.023 0.275 -0.606 -0.438 -0.602 0.137 0.006 0.182 0.242 -0.477 -3.273 -1.165 -10.857 -0.08 -0.557 -0.222 -1.266 -0.065 -0.295 -0.117 -0.443 -0.045 -0.127 -0.074 -0.163 -0.047 -0.073 -0.066 -0.538" />
    <path class="write-flat-pen" fill="#FFFFFF" stroke-width="1.8" __comx="57.937" __comy="49.576" __timestamp="0x177ea39ced7" d="M53.65 49.074 l0.066 -0.565 0.029 -0.147 0.053 -0.438 0.013 -0.305 -0.007 -0.715 -0.025 -0.416 -0.126 -1.413 -0.057 -0.487 -0.381 -2.581 -0.071 -0.399 -0.804 -4.909 -0.044 -0.264 -0.375 -1.695 0 0 -0.577 -0.569 0 0 -1.448 0.323 -0.298 0.775 0.227 1.314 1.117 1.006 1.972 0.485 2.285 -0.096 5.514 -0.973 0.81 -0.184 1.541 -0.285 0.765 -0.216 0.619 -0.216 1.828 -0.731 -0.109 -0.595 -1.968 -0.035 -0.685 0.023 -0.765 0.126 -1.549 0.212 -0.824 0.168 -5.369 0.918 -1.913 0.08 -1.288 -0.315 -0.325 -0.29 -0.041 -0.222 0.117 -0.321 -1.448 0.323 0 0 0.211 0.195 0 0 0.266 1.136 0.039 0.218 0.885 4.91 0.081 0.396 0.49 2.533 0.089 0.462 0.278 1.385 0.092 0.395 0.169 0.677 0.08 0.276 0.129 0.401 0.049 0.128 0.131 0.548" />
    <path class="write-flat-pen" fill="#FFFFFF" stroke-width="1.8" __comx="58.387" __comy="49.576" __timestamp="0x177ea39cffd" d="M53.014 47.336 l0.482 -0.305 0.004 0.035 0.358 -0.068 0.246 -0.048 1.533 -0.236 0.456 -0.044 6.071 -0.919 0.473 -0.209 1.813 -0.943 -0.14 -0.504 -2.04 0.125 -0.419 0.038 -5.966 0.804 -0.494 0.064 -1.653 0.383 -0.362 0.143 -0.432 0.249 -0.166 0.13 -0.453 0.546" />
    <path class="write-flat-pen" fill="#FFFFFF" stroke-width="1.8" __comx="59.887" __comy="49.576" __timestamp="0x177ea39d104" d="M54.43 53.854 l-0.471 -0.402 0.132 0.868 -0.076 0.169 -0.07 0.086 0.115 0.015 0.942 0.028 0.339 0.024 5.897 0.334 2.484 -0.215 0.397 -0.076 0.37 -0.094 0.322 -0.114 1.861 -0.801 -0.062 -0.384 -2.019 -0.17 -0.339 -0.007 -0.363 0.022 -0.334 0.026 -2.332 0.122 -5.804 -0.275 -0.407 -0.008 -1.071 0.09 -0.292 0.068 -0.426 0.19 -0.122 0.232 0.132 0.868 0.528 0.324" />
    <path class="write-flat-pen" fill="#FFFFFF" stroke-width="1.8" __comx="73.53" __comy="49.576" __timestamp="0x177ea39d1f9" d="M67.557 45.612 l0.228 0.986 0.245 0.306 1.426 1.281 0.472 0.34 3.293 2.014 3.512 1.302 0.352 0.059 0.313 0.01 2.021 -0.073 0.083 -0.396 -1.823 -0.875 -0.264 -0.11 -0.221 -0.082 -3.26 -1.292 -3.151 -1.871 -0.384 -0.258 -1.39 -1.065 -0.017 0.015 -0.303 -0.656" />
    <path class="write-flat-pen" fill="#FFFFFF" stroke-width="1.8" __comx="72.886" __comy="49.576" __timestamp="0x177ea39d2b7" d="M69.095 54.253 l0.032 -0.576 -0.013 0.095 0.203 -0.286 0.142 -0.172 1.338 -1.527 0.444 -0.502 4.737 -5.342 0.486 -0.615 0.384 -0.556 0.326 -0.599 0.819 -1.676 -0.314 -0.247 -1.439 1.188 -0.499 0.447 -0.448 0.461 -0.515 0.545 -4.781 5.3 -0.454 0.533 -1.318 1.667 -0.206 0.345 -0.17 0.475 -0.076 0.255 0.133 0.871" />
    <path class="write-flat-pen" fill="#FFFFFF" stroke-width="1.8" __comx="69.085" __comy="49.576" __timestamp="0x177ea39d3d3" d="M53.82 61.142 l0.002 -0.142 -0.376 0.349 0.396 -0.063 0.445 -0.071 3.421 -0.35 1.095 -0.075 8.284 -0.645 12.554 -1.523 1.637 -0.277 1.585 -0.215 1.498 -0.429 1.531 -0.457 -0.085 -0.545 -1.597 0.029 -1.519 0.039 -1.595 0.095 -1.66 0.211 -12.51 1.421 -8.247 0.655 -1.127 0.088 -3.525 0.474 -0.599 0.167 -0.634 0.31 -0.515 0.461 0.538 0.974" />
    <path class="write-flat-pen" fill="#FFFFFF" stroke-width="1.8" __comx="121.539" __comy="49.576" __timestamp="0x177ea39d721" d="M114.773 49.033 l-0.024 1.285 -0.002 0.683 0.151 2.171 0.078 0.774 0.487 4.001 0 0 0.025 0.287 0 0 0.078 0.499 0 0 1.326 -0.11 0.259 -4.434 -0.109 -11.09 -0.473 -5.004 -0.451 -1.977 -0.72 -1.476 -1.079 -1.013 0 0 -0.453 1.386 12.688 -1.292 0.51 -0.05 0.499 -0.064 0.408 -0.081 1.848 -0.455 -0.001 -0.278 -1.852 -0.436 -0.422 -0.077 -0.52 -0.039 -0.567 -0.015 -12.746 1.202 -0.453 1.386 0 0 0.91 0.765 0.536 1.044 0.394 1.708 0.469 4.844 0.131 10.986 -0.146 4.398 1.326 -0.11 0 0 -0.119 -0.422 0 0 -0.032 -0.244 0 0 -0.69 -3.993 -0.136 -0.752 -0.364 -2.114 -0.09 -0.652 -0.168 -1.271" />
    <path class="write-flat-pen" fill="#FFFFFF" stroke-width="1.8" __comx="123.903" __comy="49.576" __timestamp="0x177ea39d812" d="M116.971 45.588 l0.809 0.368 0.279 0.096 2.304 0.479 0.616 0.088 3.274 0.194 3.668 -0.38 0.614 -0.147 0.559 -0.19 1.74 -0.662 -0.044 -0.286 -1.859 -0.11 -0.589 -0.013 -0.585 0.035 -3.529 0.236 -3.113 -0.154 -0.533 -0.062 -2.257 -0.302 -0.199 -0.022 -0.824 -0.173" />
    <path class="write-flat-pen" fill="#FFFFFF" stroke-width="1.8" __comx="135.153" __comy="49.576" __timestamp="0x177ea39d922" d="M133.933 49.691 l0.082 1.663 0.064 0.377 1.172 3.909 1.092 -0.135 0.032 -0.913 -0.168 -0.179 -0.835 -3.008 -0.073 -0.258 -0.272 -1.575" />
    <path class="write-flat-pen" fill="#FFFFFF" stroke-width="1.8" __comx="134.986" __comy="49.576" __timestamp="0x177ea39d9b6" d="M134.724 38.474 l-0.279 0.992 0.193 1.184 0.16 0.016 0.419 -1.043 0.312 -0.898" />
    <path class="write-flat-pen" fill="#FFFFFF" stroke-width="1.8" __comx="143.552" __comy="49.576" __timestamp="0x177ea39db70" d="M138.901 45.602 l-0.481 0.938 -0.079 0.297 -0.048 1.48 0.064 0.463 0.534 2.037 1.336 2.849 1 1.314 1.193 0.162 0.769 -1.218 -0.331 -4.39 0.205 -1.087 0.515 -0.723 0.5 -0.278 0.448 0.057 0.418 0.32 0.47 0.743 1.893 5.936 0.802 0.198 0.316 -0.273 0.384 -0.689 -0.275 -0.474 -0.789 -0.009 0.174 -0.19 0.661 0.155 -1.631 -5.365 -0.751 -1.181 -1.014 -0.775 -1.44 -0.183 -1.311 0.727 -0.95 1.331 -0.314 1.667 0.317 4.062 0.096 -0.144 0.536 0.075 -0.493 -0.628 -1.248 -2.548 -0.542 -1.803 -0.054 -0.268 -0.09 -1.224 -0.01 -0.042 0.263 -0.895" />
    <path class="write-flat-pen" fill="#FFFFFF" stroke-width="1.8" __comx="156.677" __comy="49.576" __timestamp="0x177ea39dd60" d="M157.503 37.08 l-1.019 -0.387 -0.165 0.167 -0.052 0.209 -0.091 0.516 -0.04 0.408 0.003 1.666 0.045 0.753 1.033 6.887 0.224 0.924 0.571 2.383 1.146 2.869 0.906 1.282 1.063 0.673 1.12 -0.24 0.534 -1.066 -0.299 -1.152 -0.948 -1.016 -1.552 -0.919 -1.952 -0.675 -2.52 -0.356 -1.496 0.105 -1.336 0.518 -1.056 0.913 -0.793 1.481 -0.26 1.387 0.183 1.366 0.71 1.327 0.992 0.831 1.491 0.557 1.839 0.021 1.916 -0.695 1.598 -1.093 0.442 -0.397 0.387 -0.441 0.282 -0.438 0.907 -1.662 -0.23 -0.216 -1.601 1.01 -0.392 0.279 -0.388 0.296 -0.366 0.265 -1.398 0.876 -1.444 0.508 -1.237 -0.013 -0.942 -0.348 -0.523 -0.431 -0.42 -0.767 -0.113 -0.796 0.157 -0.871 0.52 -0.987 0.604 -0.527 0.836 -0.326 1.072 -0.075 2.188 0.311 1.638 0.574 1.195 0.72 0.49 0.535 0.032 0.131 0.11 -0.219 0.339 -0.072 -0.205 -0.126 -0.602 -0.847 -1.037 -2.572 -0.554 -2.266 -0.214 -0.859 -1.124 -6.743 -0.067 -0.662 -0.128 -1.586 -0.021 -0.351 -0.044 -0.484 -0.027 -0.068 -0.076 -0.114 -0.681 0.452" />
    <path class="write-flat-pen" fill="#FFFFFF" stroke-width="1.8" __comx="187.962" __comy="49.576" __timestamp="0x177ea39e02a" d="M190.806 51.644 l0.116 -0.843 0.026 -0.231 -0.055 -0.866 -0.138 -0.419 -1.055 -1.294 -0.402 -0.208 -1.244 -0.359 -1.64 0.208 -1.517 0.735 -1.282 1.115 -1.156 1.64 -0.645 1.593 -0.136 1.692 0.383 1.299 0.924 1.179 1.389 0.561 1.26 -0.11 1.772 -0.778 3.419 -3.099 -0.036 0.009 0.045 0.054 0.558 3.348 0.562 1.025 0.565 0.243 0.223 0.026 1.407 -0.094 0.098 -0.282 -1.042 -0.949 -0.083 -0.081 0.024 -0.044 -0.164 -0.374 -0.589 -3.53 -1.024 -1.235 -1.375 0.399 -3.51 3.161 -1.273 0.555 -0.586 0.053 -0.604 -0.24 -0.457 -0.575 -0.213 -0.699 0.076 -1.139 0.462 -1.197 0.918 -1.346 0.967 -0.872 1.098 -0.565 1.097 -0.185 0.841 0.181 0.047 0.011 0.857 0.813 0.058 0.086 0.204 0.651 0.035 0.148 0.116 0.832" />
    <path class="write-flat-pen" fill="#FFFFFF" stroke-width="1.8" __comx="222.335" __comy="49.576" __timestamp="0x177ea39e236" d="M225.669 48.48 l0.274 -0.69 0.078 -0.165 0.254 -0.738 0.024 -0.108 0.142 -1.11 -0.08 -0.494 -1.172 -1.394 -0.688 -0.259 -1.304 -0.12 -2.352 0.554 -2.135 1.15 -1.22 1.225 -1.245 2.236 -0.687 2.9 -0.022 2.172 0.595 2.108 1.115 1.781 1.204 0.949 1.994 0.741 1.585 0.207 3.056 -0.559 0.799 -0.331 0.721 -0.384 0.694 -0.46 0.548 -0.491 1.286 -1.256 -0.151 -0.241 -1.692 0.607 -0.648 0.257 -0.69 0.292 -0.666 0.264 -0.618 0.207 -2.667 0.398 -1.143 -0.163 -1.565 -0.588 -0.764 -0.602 -0.833 -1.324 -0.467 -1.639 0.014 -1.741 0.583 -2.492 1.015 -1.832 0.881 -0.888 1.723 -0.94 1.881 -0.468 0.831 0.052 0.118 0.033 0.721 0.713 -0.003 -0.088 0.026 0.88 0.004 0.021 -0.041 0.723 -0.007 0.161 -0.076 0.746" />
    <path class="write-flat-pen" fill="#FFFFFF" stroke-width="1.8" __comx="233.725" __comy="49.576" __timestamp="0x177ea39e3c8" d="M234.599 49.947 l0.875 -0.643 0.189 -0.142 0.695 -0.97 0.129 -0.332 0.147 -0.918 -0.602 -0.989 -1.241 -0.252 -1.431 0.469 -1.372 1.093 -1.408 2.069 -0.794 2.188 -0.34 2.153 0.121 1.606 0.538 1.363 1.126 1.049 1.178 0.297 1.257 -0.235 1.596 -1.079 1.297 -1.677 0.875 -1.938 0.554 -2.471 0.016 -2.093 -0.556 -1.291 -0.862 -0.851 -1.753 -0.249 -0.53 0.268 -0.497 0.511 -0.187 0.329 -0.111 0.337 -0.375 1.467 0.096 0.057 1.101 -1.04 0.209 -0.207 0.144 -0.111 0.343 -0.194 -0.014 0.034 0.821 0.219 0.28 0.314 0.277 0.716 -0.044 1.586 -0.5 2.134 -0.733 1.602 -1.016 1.307 -1.085 0.734 -0.553 0.106 -0.407 -0.099 -0.544 -0.495 -0.318 -0.778 -0.101 -1.168 0.26 -1.819 0.647 -1.865 1.151 -1.718 0.967 -0.786 0.79 -0.282 0.241 0.021 0.041 0.001 0.011 0.29 -0.01 0.081 -0.363 0.809 -0.041 0.06 -0.741 0.8" />
    <path class="write-flat-pen" fill="#FFFFFF" stroke-width="1.8" __comx="244.139" __comy="49.576" __timestamp="0x177ea39e545" d="M240.036 47.386 l-0.417 0.925 -0.066 0.227 -0.215 1.524 0.008 0.465 0.439 3.766 0.088 0.597 0 0 0.611 3.595 0 0 0.466 0.613 0 0 1.492 -0.287 0.331 -1.167 0.119 -6.443 0.303 -2.56 0.392 -1.178 0.465 -0.677 0.207 -0.115 -0.025 -0.002 0.39 0.367 0.771 1.752 1.742 6.485 1.537 1.099 0.268 -0.184 -0.317 -1.596 -1.618 -6.366 -0.97 -2.192 -1.058 -0.987 -1.072 -0.115 -1.023 0.57 -0.825 1.201 -0.519 1.569 -0.332 2.812 -0.134 6.306 -0.269 0.958 1.492 -0.287 0 0 -0.219 -0.277 0 0 -0.574 -3.163 0 0 -0.091 -0.56 -0.535 -3.664 -0.023 -0.297 0.044 -1.359 -0.003 -0.066 0.237 -0.894" />
    <path class="write-flat-pen" fill="#FFFFFF" stroke-width="1.8" __comx="256.561" __comy="49.576" __timestamp="0x177ea39e6e7" d="M254.539 55.875 l-0.251 0.849 -0.056 0.186 -0.175 0.735 -0.024 0.194 0 -0.028 0.682 0.675 0.728 0.061 0.08 -0.94 -0.132 -4.93 -0.529 -3.376 -2.768 -10.622 -0.742 -3.85 -0.018 -1.266 0.009 -0.004 1.089 -0.103 2.06 0.331 2.616 0.87 3.031 1.699 0.3 0.243 0.957 0.862 0.186 0.199 0.202 0.234 0.22 0.252 1.301 1.363 0.218 -0.12 -0.452 -1.829 -0.119 -0.364 -0.188 -0.366 -0.239 -0.361 -0.995 -1.055 -0.443 -0.395 -3.272 -1.929 -2.907 -0.987 -2.421 -0.388 -1.88 0.183 -1.009 0.921 0.054 2.197 0.813 4.04 2.792 10.585 0.512 3.197 0.229 4.749 0.05 -0.495 0.636 0.063 0.682 0.675 0 -0.028 -0.02 -0.067 0.001 -0.667 0 -0.166 0.057 -0.872" />
    <path class="write-flat-pen" fill="#FFFFFF" stroke-width="1.8" __comx="255.235" __comy="49.576" __timestamp="0x177ea39e79e" d="M250.012 46.214 l0.794 -0.02 0.071 0.028 1.789 0.43 0.454 0.101 4.578 0.712 0.56 -0.028 0.481 -0.092 1.874 -0.472 -0.003 -0.274 -1.884 -0.431 -0.449 -0.082 -0.429 -0.067 -4.435 -0.813 -0.431 -0.085 -1.899 -0.317 -0.305 -0.006 -0.924 0.202" />
    <path class="write-flat-pen" fill="#FFFFFF" stroke-width="1.8" __comx="265.611" __comy="49.576" __timestamp="0x177ea39e919" d="M268.037 47.777 l-0.518 -0.902 -0.51 -0.137 -1.215 0.243 -0.346 0.131 -1.852 1.063 -1.296 1.342 -0.739 1.545 -0.334 1.796 0.197 1.425 0.75 1.401 1.461 0.937 1.281 0.048 1.717 -0.674 1.448 -1.158 1.076 -1.466 0.614 -1.67 0.227 -2.314 -0.33 -1.278 -0.939 -1.246 -1.035 -0.52 -1.202 0.395 -0.345 0.386 -0.259 0.574 -0.084 0.366 0 0.339 0.165 1.528 0.181 0.041 0.807 -1.308 0.127 -0.221 0.102 -0.138 0.211 -0.243 -0.053 0.083 0.177 -0.006 0.081 0.057 0.493 0.668 0.169 0.658 -0.176 1.795 -0.453 1.239 -0.796 1.093 -1.068 0.862 -1.147 0.46 -0.473 -0.012 -0.719 -0.446 -0.416 -0.754 -0.128 -0.869 0.234 -1.326 0.525 -1.12 0.954 -1.004 1.536 -0.937 0.141 -0.065 0.754 -0.269 -0.321 -0.093 0.372 0.37" />
    <path class="write-flat-pen" fill="#FFFFFF" stroke-width="1.8" __comx="276.52" __comy="49.576" __timestamp="0x177ea39ea60" d="M272.633 50.186 l-0.343 1.264 -0.042 0.326 0.107 3.394 0.031 0.352 0 0 0.208 1.831 0 0 1.355 -0.111 -0.09 -6.269 0.276 -2.695 0.575 -1.759 0.617 -0.916 0.594 -0.444 0.564 -0.136 1.571 0.624 0.235 0.16 0.546 0.457 0.349 0.279 1.43 1.104 0.178 -0.159 -0.939 -1.544 -0.253 -0.394 -0.503 -0.622 -0.38 -0.346 -2.067 -1.029 -1.326 0.247 -1.072 0.763 -0.881 1.303 -0.673 2.109 -0.288 2.938 0.175 6.354 1.355 -0.111 0 0 -0.315 -1.794 0 0 -0.04 -0.299 -0.299 -3.281 -0.002 -0.205 0.117 -1.251" />
    <path class="write-flat-pen" fill="#FFFFFF" stroke-width="1.8" __comx="290.295" __comy="49.576" __timestamp="0x177ea39ecf1" d="M282.606 47.619 l-0.216 -0.82 -0.766 -0.294 -0.373 0.669 -0.048 0.322 0.054 0.975 0.049 0.434 1.089 7.596 0.051 0.524 0.22 2.191 0 0 0.379 0.541 0 0 1.533 -0.501 -0.157 -9.795 0.22 -3.543 0.338 -1.203 0.168 -0.223 -0.183 0.046 0.184 0.181 0.505 1.399 0.586 3.498 0.329 4.403 0.427 1.574 1.043 0.743 1.289 -0.569 0.923 -1.395 1.271 -3.811 1.428 -5.688 0.515 -1.238 -0.122 0.084 -0.295 -0.074 0.315 0.412 0.854 2.321 2.287 9.116 1.097 2.612 0.538 0.329 0.38 -0.044 0.846 -0.536 0.025 -0.299 -0.743 -0.671 0.065 -0.071 0.284 0.158 -0.81 -2.031 -2.283 -9.084 -0.982 -2.66 -0.851 -1.108 -1.064 -0.268 -0.962 0.657 -0.766 1.841 -1.442 5.75 -1.182 3.525 -0.511 0.771 0.099 -0.043 0.283 0.203 -0.222 -0.807 -0.346 -4.314 -0.643 -3.727 -0.709 -1.926 -1.139 -1.049 -1.295 0.288 -0.718 0.983 -0.465 1.668 -0.227 3.782 0.127 9.858 1.533 -0.501 0 0 -0.131 -0.176 0 0 -0.187 -1.746 -0.057 -0.563 -1.206 -7.617 -0.075 -0.414 -0.179 -0.823 -0.034 0.043 -0.284 0.468 -0.713 -0.277 0.195 0.268" />
    <path class="write-flat-pen" fill="#FFFFFF" stroke-width="1.8" __comx="308.425" __comy="49.576" __timestamp="0x177ea39ef7e" d="M311.935 51.267 l0.234 -0.671 0.066 -0.166 0.241 -0.788 0.056 -0.309 0.012 -1.379 -0.199 -0.465 -0.84 -1.016 -1.48 -0.598 -1.981 -0.279 -2.06 0.269 -1.604 0.826 -1.272 1.254 -0.861 1.453 -0.51 1.995 0.14 1.768 0.897 2.083 1.08 1.038 1.503 0.524 1.302 -0.11 1.803 -0.809 1.371 -1.224 0 0 0.971 -1.386 0 0 1.455 -3.284 0 0 -1.619 -0.39 -0.159 2.714 0.312 2.329 0.85 2.386 1.215 1.063 0.588 0.064 0.405 -0.094 0.324 -0.236 0.935 -0.979 -0.138 -0.313 -1.353 0.03 -0.202 -0.004 0.026 -0.038 0.155 0.001 -0.479 -0.478 -0.647 -1.812 -0.274 -1.989 0.132 -2.552 -1.619 -0.39 0 0 -1.394 3.13 0 0 -0.766 1.085 0 0 -1.03 0.913 -1.298 0.58 -0.649 0.055 -0.807 -0.279 -0.563 -0.539 -0.654 -1.508 -0.105 -1.209 0.368 -1.492 0.623 -1.06 0.933 -0.924 1.118 -0.576 1.55 -0.207 1.567 0.204 0.939 0.348 0.478 0.505 0.002 -0.021 0.105 0.96 -0.003 0.157 -0.054 0.778 0.002 0.158 -0.075 0.689" />
    <path class="write-flat-pen" fill="#FFFFFF" stroke-width="1.8" __comx="318.806" __comy="49.576" __timestamp="0x177ea39f048" d="M316.334 37.426 l0.027 1.525 0.04 0.59 0.396 2.295 0.139 0.892 2.741 13.828 0.129 0.507 0.158 0.423 0.773 1.777 0.455 -0.084 0.087 -1.936 -0.003 -0.448 -0.058 -0.528 -2.632 -13.839 -0.16 -0.89 -0.493 -2.231 -0.076 -0.488 -0.175 -1.485" />
    <path class="write-flat-pen" fill="#FFFFFF" stroke-width="1.8" __comx="366.134" __comy="49.576" __timestamp="0x177ea39f56e" d="M355.747 48.949 l-0.056 -0.529 -0.174 -0.24 -0.668 -0.04 -0.095 0.495 -0.016 0.388 0.093 0.259 0.267 0.609 0.156 0.266 0.765 1.414 0.13 0.311 1.049 2.771 0.439 2.313 0 0 0.107 3.342 0 0 1.738 -0.056 -0.056 -2.237 0.31 -2.817 1.18 -4.524 1.193 -3.258 1.078 -2.025 0.139 -0.1 0.042 0.005 0.457 0.51 0.571 1.443 1.203 5.233 0 0 0.836 5.237 0 0 0.374 0.742 0 0 1.668 -0.253 1.09 -6.449 0.7 -2.551 1.2 -2.718 0.841 -1.182 0.117 -0.063 0.049 0.017 0.46 0.715 0.741 2.924 1.801 10.137 0.283 0.397 0.457 0.296 0.366 -0.012 0.902 -0.447 0.041 -0.205 -0.659 -0.761 0.035 -0.079 0.117 0.033 0.1 0.121 -1.708 -9.852 -0.829 -3.268 -0.941 -1.467 -1.354 -0.486 -1.181 0.625 -1.192 1.671 -1.325 3.006 -0.759 2.763 -1.104 6.538 1.668 -0.253 0 0 -0.252 -0.494 0 0 -0.813 -5.019 0 0 -1.245 -5.42 -0.735 -1.861 -1.11 -1.239 -1.384 -0.168 -1.031 0.742 -1.328 2.496 -1.261 3.452 -1.233 4.73 -0.333 3.065 0.074 2.357 1.738 -0.056 0 0 -0.141 -3.473 0 0 -0.512 -2.59 -1.171 -2.929 -0.198 -0.425 -0.94 -1.474 -0.191 -0.243 -0.361 -0.458 -0.06 -0.037 -0.091 -0.005 -0.089 0.455 -0.559 -0.051 -0.147 -0.207 0.265 0.315" />
    <path class="write-flat-pen" fill="#FFFFFF" stroke-width="1.8" __comx="384.9" __comy="49.576" __timestamp="0x177ea39f76e" d="M385.917 50.215 l0.604 -0.855 0.069 -0.149 0.276 -1.075 -0.131 -0.496 -0.549 -0.754 -1.221 -0.49 -1.692 0.182 -1.749 0.759 -1.431 1.206 -1.081 1.442 -1.073 2.416 -0.274 1.706 0.189 1.631 0.665 1.272 1.053 0.89 1.753 0.437 1.526 -0.291 2.035 -1.108 1.691 -1.501 1.38 -1.895 0.612 -1.552 0.132 -1.545 -0.715 -1.126 -1.204 -0.179 -1.065 0.974 -0.573 1.444 -0.013 1.698 0.6 2.085 1.305 2.482 2.194 2.665 0.323 0.243 0.46 0.26 0.099 0.04 1.906 0.464 0.117 -0.185 -1.234 -1.525 -0.049 -0.054 -0.325 -0.29 -0.124 -0.12 -1.916 -2.45 -1.144 -2.179 -0.482 -1.675 0.008 -1.125 0.305 -0.776 0.166 -0.155 -0.386 -0.058 -0.019 -0.029 -0.065 0.713 -0.445 1.108 -1.148 1.557 -1.406 1.238 -1.62 0.881 -0.877 0.168 -0.984 -0.243 -0.482 -0.403 -0.361 -0.681 -0.132 -1.073 0.189 -1.252 0.885 -2.043 0.843 -1.137 1.092 -0.928 1.29 -0.569 1.038 -0.13 0.433 0.147 0.13 0.128 -0.031 -0.147 -0.036 0.598 0.034 -0.066 -0.399 0.871" />
    <path class="write-flat-pen" fill="#FFFFFF" stroke-width="1.8" __comx="399.925" __comy="49.576" __timestamp="0x177ea39f952" d="M399.462 69.377 l-0.059 -0.662 -0.012 -0.155 -0.076 -0.503 -0.061 -0.318 -0.177 -0.857 -0.151 -0.58 -0.445 -2.039 -0.208 -0.856 -1.246 -5.425 -0.14 -0.876 -0.849 -7.176 -0.04 -2.646 0.244 -0.924 0.504 -0.769 0.554 -0.416 1.053 -0.319 0.937 0.083 1.225 0.455 1.485 0.977 1.062 1.277 0.595 1.321 0.173 1.181 -0.157 0.68 -0.697 0.933 -0.71 0.461 -2.938 0.578 -1.84 0.641 -0.006 0.322 1.984 0.716 3.461 -0.602 1.265 -0.82 1.101 -1.48 0.311 -1.357 -0.255 -1.747 -0.793 -1.76 -1.379 -1.659 -1.867 -1.229 -1.63 -0.608 -1.509 -0.135 -1.675 0.505 -1.049 0.787 -0.827 1.265 -0.376 1.432 0.052 2.978 0.901 7.297 0.163 0.971 1.356 5.48 0.241 0.855 0.569 2.041 0.21 0.583 0.289 0.817 0.129 0.313 0.217 0.456 0.064 0.11 0.246 0.593" />
    <path class="write-flat-pen" fill="#FFFFFF" stroke-width="1.8" __comx="140.999" __comy="136.629" __timestamp="0x177ea3a14eb" d="M130.441 126.256 l0.078 -1.048 0.022 -0.114 0.173 -0.481 -0.168 0.294 -0.306 0.068 -0.157 -0.123 0.734 1.961 0.227 0.698 1.795 7.356 0.921 5.915 0 0 0.532 7.198 0 0 1.665 -0.23 -0.54 -2.733 -0.87 -10.728 -0.945 -7.633 -0.694 -2.744 -0.631 -1.005 0 0 -1.201 -0.549 0 0 -0.245 1.677 3.26 -0.405 3.299 0.055 2.433 0.581 2.491 1.063 2.354 1.523 2.138 1.925 1.683 2.049 1.161 1.986 0.728 2.287 0.292 2.287 -0.103 2.254 -0.669 2.25 -0.791 1.36 -1.699 1.843 -1.393 1.016 -2.225 1.034 -1.631 0.375 -2.292 0.121 -1.41 -0.358 -0.84 -0.452 -0.776 -0.957 0.005 0.172 -0.004 -0.206 -0.019 -0.04 0.041 -0.159 0.364 -1.443 -0.249 -0.179 -1.255 0.8 -0.211 0.191 -0.207 0.338 -0.139 0.636 0.035 0.527 1.255 1.679 1.352 0.741 1.882 0.485 2.715 -0.14 1.962 -0.45 2.55 -1.184 1.674 -1.219 1.949 -2.113 0.995 -1.709 0.794 -2.66 0.121 -2.624 -0.332 -2.599 -0.837 -2.628 -1.332 -2.277 -1.857 -2.261 -2.342 -2.11 -2.6 -1.683 -2.769 -1.182 -2.769 -0.662 -3.62 -0.059 -3.384 0.439 -0.245 1.677 0 0 0.734 0.306 0 0 0.211 0.326 0.605 2.374 0.93 7.49 0.883 10.791 0.577 2.828 1.665 -0.23 0 0 -0.58 -7.26 0 0 -0.961 -6.046 -1.874 -7.475 -0.278 -0.802 -0.987 -2.228 -0.482 -0.442 -0.916 0.064 -0.312 0.505 -0.031 0.86 0.028 0.21 0.171 1.05" />
    <path class="write-flat-pen" fill="#FFFFFF" stroke-width="1.8" __comx="161.638" __comy="136.629" __timestamp="0x177ea3a167b" d="M161.279 131.479 l-1.072 1.036 1.149 1.275 1.511 0.745 0.203 -0.218 -0.81 -1.424 -1.144 -1.215 0.163 1.036" />
    <path class="write-flat-pen" fill="#FFFFFF" stroke-width="1.8" __comx="162.889" __comy="136.629" __timestamp="0x177ea3a174c" d="M162.267 138.881 l-0.567 0.919 -0.107 0.301 -0.091 1.101 0.958 1.113 1.6 0.516 0.217 -0.328 -0.925 -1.155 -0.392 -0.611 -0.021 -0.404 -0.005 -0.038 0.352 -0.897" />
    <path class="write-flat-pen" fill="#FFFFFF" stroke-width="1.8" __comx="173.625" __comy="136.629" __timestamp="0x177ea3a1888" d="M169.724 134.098 l0.63 0.538 0.227 0.101 1.72 0.333 2.999 -0.314 0.426 -0.132 1.8 -0.645 -0.034 -0.27 -1.904 -0.175 -0.414 -0.025 -2.817 0.124 -1.448 -0.154 0.028 0.027 -0.609 -0.3" />
    <path class="write-flat-pen" fill="#FFFFFF" stroke-width="1.8" __comx="174.885" __comy="136.629" __timestamp="0x177ea3a1963" d="M171.323 141.188 l1.037 -0.201 0.141 -0.009 3.871 -0.115 0.428 -0.046 1.939 -0.242 0.027 -0.402 -1.888 -0.504 -0.476 -0.108 -4.031 0.059 -0.309 0.067 -1.057 0.406" />
    <path class="write-flat-pen" fill="#FFFFFF" stroke-width="1.8" __comx="192.322" __comy="136.629" __timestamp="0x177ea3a1ffc" d="M196.261 117.296 l-0.15 -0.807 -0.044 -0.171 -0.224 -0.659 -0.094 -0.244 -0.506 -1.088 -0.081 -0.159 -1.02 -1.505 -0.208 -0.222 -0.051 -0.052 -1.061 -0.789 0 0 -0.588 1.553 0.032 0.006 1.961 0.511 1.23 0.705 0.983 1.097 0.888 1.588 0.485 1.678 0.026 1.486 -0.317 1.271 -0.768 1.483 -1.946 2.22 -1.925 1.658 -4.458 2.973 -2.07 1.08 -0.089 0.011 0.086 0.094 0 0 -0.165 1.356 0.442 -0.293 0.932 -0.167 0.92 0.102 1.324 0.59 1.423 1.201 0.836 1.195 0.954 2.106 0.551 2.66 0.487 5.191 0.099 7.724 0.362 4.501 0.766 2.005 0.286 0.302 0.269 0.216 0.354 0.126 1.631 0.256 0.204 -0.371 -1.091 -1.238 -0.127 -0.138 -0.031 -0.054 0.012 -0.004 -0.522 -1.483 -0.333 -4.199 -0.096 -7.736 -0.502 -5.361 -0.609 -2.951 -1.103 -2.438 -1.063 -1.523 -1.793 -1.518 -1.81 -0.809 -1.455 -0.162 -1.554 0.276 -0.752 0.498 -0.165 1.356 0 0 0.542 0.59 1.329 -0.17 2.438 -1.276 4.625 -3.094 2.101 -1.814 2.167 -2.481 0.958 -1.863 0.418 -1.699 -0.04 -1.952 -0.612 -2.094 -1.089 -1.929 -1.303 -1.447 -1.681 -0.957 -2.305 -0.575 -0.145 -0.015 -0.588 1.553 0 0 0.984 0.628 -0.051 -0.052 0.128 0.123 0.999 1.265 0.046 0.069 0.625 0.98 0.121 0.198 0.376 0.561 0.069 0.088 0.367 0.689" />
    <path class="write-flat-pen" fill="#FFFFFF" stroke-width="1.8" __comx="224.474" __comy="137.473" __timestamp="0x177ea3a2ea8" d="M223.754 127.74 l-0.071 -0.469 0.02 0.028 0.102 -0.355 -0.002 0.09 0.049 0.077 -0.481 0.171 -0.088 0.03 0.013 0.071 0.476 1.959 0.108 0.676 0.49 6.566 0.13 7.014 -0.315 4.98 -0.282 1.085 1.449 -0.127 -0.001 0.065 -0.035 0.072 -0.084 -0.173 -0.461 -0.967 -0.264 -0.008 -0.519 0.937 -0.098 0.265 -0.009 0.314 0.075 0.214 1.449 -0.127 0.441 -1.245 0.329 -5.249 -0.141 -7.131 -0.544 -6.685 -0.15 -0.825 -0.663 -2.173 -0.266 -0.431 -0.737 -0.521 -0.627 0.214 -0.24 0.576 -0.027 0.215 0.151 0.531 0.036 0.103 0.337 0.437" />
    <path class="write-flat-pen" fill="#FFFFFF" stroke-width="1.8" __comx="238.983" __comy="137.473" __timestamp="0x177ea3a3131" d="M231.633 132.029 l-0.255 -0.513 0.088 0.092 0.108 0.113 -0.042 0.197 0.007 0.08 0.066 -0.001 0.53 -0.242 0.167 -0.067 2.738 -0.825 0.325 -0.076 3.109 -0.566 1.214 0.06 0.232 0.228 0.18 0.587 -0.078 1.147 -0.734 2.76 -3.045 7.683 -0.971 3.134 0.02 1.146 0.62 0.99 1.252 0.681 1.674 0.217 5.347 -0.9 0.36 -0.097 0.755 -0.218 0.391 -0.175 0.193 -0.104 1.71 -1.077 -0.113 -0.375 -2.02 0.05 -0.249 0.03 -0.373 0.091 -0.697 0.139 -0.298 0.065 -5.034 0.79 -1.093 -0.142 -0.559 -0.302 -0.118 -0.185 -0.011 -0.378 0.852 -2.807 3.03 -7.723 0.797 -3.016 0.108 -1.624 -0.4 -1.3 -1.003 -0.979 -2.054 -0.098 -3.344 0.626 -0.429 0.106 -2.881 0.982 -0.319 0.178 -0.581 0.436 -0.218 0.222 -0.159 0.301 -0.056 0.245 0.135 0.372 0.111 0.124 0.457 0.368" />
    <path class="write-flat-pen" fill="#FFFFFF" stroke-width="1.8" __comx="239.644" __comy="137.473" __timestamp="0x177ea3a325c" d="M233.977 137.995 l-0.26 0.376 -0.058 0.204 -0.155 0.062 0.352 0.102 0.16 0.031 1.265 0.116 0.528 0.005 2.389 -0.283 5.228 -1.644 0.553 -0.226 0.51 -0.219 1.739 -0.804 -0.091 -0.386 -1.915 0.054 -0.607 0.043 -0.62 0.151 -5.13 1.478 -2.168 0.316 -0.406 0.021 -1.214 0.044 -0.165 0.012 -0.44 0.083 -0.326 0.076 -0.083 0.235 0.439 0.851" />
    <path class="write-flat-pen" fill="#FFFFFF" stroke-width="1.8" __comx="257.963" __comy="138.541" __timestamp="0x177ea3a379f" d="M253.962 138.949 l-0.027 -0.49 -0.024 0.158 0.184 -0.127 -0.005 0.029 1.556 -0.494 0.267 -0.057 4.952 -0.726 0.362 -0.089 1.953 -0.542 -0.026 -0.437 -2.003 -0.309 -0.422 -0.042 -5.098 0.616 -0.43 0.108 -1.783 0.735 -0.299 0.249 -0.276 0.511 -0.095 0.345 0.288 0.79" />
    <path class="write-flat-pen" fill="#FFFFFF" stroke-width="1.8" __comx="271.701" __comy="138.541" __timestamp="0x177ea3a392f" d="M268.841 137.199 l0.309 -0.4 -0.909 -0.144 -0.048 0.017 -0.075 0.152 -0.025 0.066 -0.103 0.529 -0.048 0.237 -0.276 1.964 -0.054 0.484 -0.226 3.228 0.238 2.369 0.652 1.564 1.044 1.105 1.418 0.564 1.677 -0.24 2.063 -1.39 0.499 -0.559 0.376 -0.546 0.256 -0.591 0.144 -0.619 0.262 -1.719 -0.135 -0.061 -1.117 1.332 -0.34 0.452 -0.304 0.362 -0.334 0.355 -0.353 0.334 -1.627 1.014 -0.852 0.112 -0.644 -0.257 -0.57 -0.601 -0.44 -1.039 -0.211 -1.976 0.165 -3.063 0.036 -0.447 0.153 -1.952 0.018 -0.273 -0.027 -0.632 -0.026 -0.17 -0.116 -0.286 -0.074 -0.081 -0.909 -0.144 -0.241 0.445" />
    <path class="write-flat-pen" fill="#FFFFFF" stroke-width="1.8" __comx="270.064" __comy="138.541" __timestamp="0x177ea3a3a0a" d="M270.559 128.665 l-0.859 -0.134 0 0 -0.455 1.128 0.41 0.249 1.13 0.009 0.1 -0.233 -0.626 -0.744 -0.177 -0.255 -0.455 1.128 0 0 0.869 -0.034" />
    <path class="write-flat-pen" fill="#FFFFFF" stroke-width="1.8" __comx="282.009" __comy="138.541" __timestamp="0x177ea3a3b9a" d="M281.386 123.526 l-1.06 -0.368 -0.335 0.599 -0.165 0.519 -0.053 0.456 0.106 2.584 0.077 0.902 2.517 18.24 0.959 1.989 0.813 -0.244 -0.26 -2.073 -2.434 -18.097 -0.09 -0.846 -0.231 -2.462 -0.011 -0.27 -0.005 -0.281 -0.242 0.41 0.143 -0.046" />
    <path class="write-flat-pen" fill="#FFFFFF" stroke-width="1.8" __comx="300.31" __comy="138.541" __timestamp="0x177ea3a3e75" d="M301.443 128.91 l0.14 0.143 0.057 -0.381 -0.069 -0.079 -0.089 0.021 -0.188 0.093 -0.212 0.135 -0.739 0.536 -0.289 0.25 -1.542 1.487 -0.406 0.471 -2.317 3.152 -0.74 1.535 -0.157 1.234 0.549 1.369 6.154 4.676 0.324 0.246 0.959 0.628 0.406 0.242 0.276 0.119 1.943 0.63 0.223 -0.342 -1.363 -1.52 -0.193 -0.186 -0.338 -0.288 -0.879 -0.668 -0.289 -0.236 -5.747 -4.421 -0.196 -0.483 0.06 -0.488 0.539 -1.131 2.155 -2.989 0.311 -0.374 1.414 -1.469 0.218 -0.219 0.636 -0.611 0.187 -0.206 0.186 -0.244 0.104 -0.202 0.059 -0.263 0.06 -0.397 -0.606 -0.481" />
    <path class="write-flat-pen" fill="#FFFFFF" stroke-width="1.8" __comx="319.622" __comy="138.541" __timestamp="0x177ea3a410f" d="M314.513 129.656 l0.564 0.392 0.104 0.071 0.512 0.311 0.219 0.093 1.495 0.394 0.514 -0.018 1.465 -0.418 1.188 -0.889 0 0 1.255 -1.68 0 0 1.523 -3.888 0 0 -1.571 -0.588 -0.923 2.503 -0.425 2.151 -0.206 3.777 0.21 2.76 1.369 7.113 1.168 3.057 0.263 0.25 0.061 0.039 1.241 0.268 0.19 -0.192 -0.278 -1.239 -0.002 -0.024 0.031 -0.011 -0.966 -2.63 -1.325 -6.867 -0.197 -2.546 0.178 -3.544 0.355 -1.906 0.834 -2.392 -1.571 -0.588 0 0 -1.431 3.684 0 0 -0.973 1.317 0 0 -0.753 0.582 -0.985 0.316 -0.11 0.014 -1.229 -0.199 -0.105 -0.021 -0.555 -0.136 -0.08 -0.002 -0.591 -0.208" />
    <path class="write-flat-pen" fill="#FFFFFF" stroke-width="1.8" __comx="325.086" __comy="138.541" __timestamp="0x177ea3a41fe" d="M317.562 144.411 l-0.921 0.578 0.078 0.09 0.143 0.048 0.329 0.078 0.261 0.04 1.504 0.1 0.511 0.014 9.783 0.041 0.86 -0.065 0.847 -0.105 0.802 -0.193 1.772 -0.504 -0.027 -0.378 -1.825 -0.248 -0.806 -0.079 -0.828 -0.023 -0.817 -0.005 -9.743 -0.114 -0.494 0.001 -1.468 0.015 -0.235 0.008 -0.327 0.034 -0.081 0.032 -0.042 0.07 -0.091 1.393" />
    <path class="write-flat-pen" fill="#FFFFFF" stroke-width="1.8" __comx="346.452" __comy="138.541" __timestamp="0x177ea3a445d" d="M343.748 141.017 l0.322 0.709 0.144 0.217 0.582 0.745 0.185 0.205 1.803 2.745 0.157 0.394 0.473 1.529 0.152 1.995 -0.35 1.973 -0.111 0.369 -0.122 0.375 -0.155 0.407 -0.563 1.695 0.114 0.075 1.343 -1.177 0.353 -0.358 0.295 -0.432 0.256 -0.524 0.532 -2.3 -0.174 -2.398 -0.56 -1.763 -0.252 -0.608 -2.09 -2.918 -0.284 -0.257 -0.666 -0.595 -0.107 -0.073 -0.399 -0.536" />
    <path class="write-flat-pen" fill="#FFFFFF" stroke-width="1.8" __comx="374.822" __comy="137.063" __timestamp="0x177ea3a598c" d="M375.837 127.578 l0.538 -0.36 0.065 -0.062 0.299 -0.278 0.02 0.011 0.092 0.047 -0.967 -0.05 -0.157 -0.203 -0.065 -0.099 -0.038 0.045 -0.361 0.621 -0.091 0.173 -1.146 1.908 -0.211 0.279 -1.199 1.237 -1.019 0.666 -0.978 0.324 -0.411 -0.06 -0.335 -0.287 -0.161 -0.685 0.277 -1.535 0.707 -1.772 1.082 -1.7 1.93 -2.158 1.717 -1.402 1.013 -0.467 0.731 -0.064 0.764 0.371 0.548 0.599 0.761 1.533 0.493 2.118 0.257 2.947 -0.148 3.069 -0.612 3.205 -4.398 12.24 0.374 -0.49 0.505 0.193 -0.802 -0.006 -0.303 1.09 0.69 0.409 0.602 0.22 0.468 -0.627 4.564 -12.564 0.653 -3.465 0.154 -3.309 -0.281 -3.187 -0.57 -2.435 -0.96 -1.932 -0.936 -1.025 -1.492 -0.727 -1.511 0.125 -1.495 0.681 -2.004 1.623 -2.123 2.366 -1.249 1.962 -0.834 2.091 -0.373 2.072 0.381 1.607 1.171 0.985 1.322 0.179 1.579 -0.536 1.364 -0.908 1.392 -1.471 0.328 -0.451 1.15 -2.103 0.098 -0.239 0.287 -0.749 0.047 -0.216 0.026 -0.521 -0.165 -0.215 -0.967 -0.05 -0.026 0.189 -0.015 0.091 -0.039 0.318 0.012 0.008 -0.311 0.518" />
    <path class="write-flat-pen" fill="#FFFFFF" stroke-width="1.8" __comx="384.158" __comy="137.063" __timestamp="0x177ea3a5c24" d="M379.343 128.01 l-0.966 -0.101 0.003 -0.01 -0.425 -0.189 0.125 0.07 -0.133 -0.381 0.031 0.117 0.585 -1.627 0.101 -0.171 1.378 -1.762 1.267 -1.068 1.145 -0.602 1.674 -0.33 1.723 0.167 1.184 0.447 1.408 1.011 0.704 0.922 0.477 1.219 0.227 1.575 -0.197 1.598 -0.828 2.174 -0.99 1.635 -1.642 1.791 -2.075 1.61 -2.913 1.667 -3.223 1.339 -1.87 0.501 -0.448 -0.042 0.027 0.024 -0.021 -0.127 0.204 -0.492 0.648 -0.709 1.284 -0.757 1.556 -0.439 0.899 0.025 1.001 0.404 1.098 0.846 0.965 1.25 2.419 5.82 1.522 2.748 2.283 1.441 0.549 0.151 0.937 0.158 0.529 0.046 0.565 0.001 0.535 -0.126 1.82 -0.595 -0.027 -0.398 -1.884 -0.342 -0.436 -0.06 -0.401 -0.075 -0.423 -0.085 -0.802 -0.193 -0.233 -0.078 -1.671 -1.1 -1.253 -2.27 -2.473 -5.946 -1.25 -1.619 -1.474 -1.135 -1.524 -0.616 -1.491 -0.043 -2.041 0.574 -1.714 1.011 -1.04 1.14 -0.517 1.258 0.211 1.222 0.857 0.799 1.371 0.123 2.288 -0.616 3.433 -1.429 3.116 -1.786 2.289 -1.781 1.858 -2.033 1.158 -1.924 0.948 -2.526 0.24 -2.039 -0.297 -1.998 -0.641 -1.626 -1.007 -1.315 -1.799 -1.292 -1.609 -0.608 -2.202 -0.212 -2.167 0.428 -1.532 0.807 -1.545 1.311 -1.539 2.017 -0.237 0.426 -0.654 2.183 0.095 0.511 0.518 0.827 0.381 0.26 0.878 0.114 0.135 -0.01 0.966 -0.101" />
    <path class="write-flat-pen" fill="#FFFFFF" stroke-width="1.8" __comx="400.307" __comy="137.063" __timestamp="0x177ea3a5f52" d="M394.594 139.724 l0.314 0.315 0.128 0.095 0.391 0.211 0.287 0.09 0.916 0.17 0.384 0.026 1.775 -0.165 2.391 -0.915 1.609 -1.068 1.027 -1.154 0.547 -1.314 -0.288 -1.149 -0.942 -0.697 -1.366 -0.145 -1.728 0.492 -1.576 1.013 -1.374 1.448 -1.306 2.153 -0.637 1.946 -0.024 1.461 0.555 1.175 1.008 0.887 1.979 0.686 1.663 0.098 2.19 -0.354 0.563 -0.134 0.538 -0.196 0.423 -0.165 0.447 -0.279 1.528 -1.122 -0.117 -0.29 -1.88 0.249 -0.446 0.08 -0.387 0.066 -0.496 0.119 -0.452 0.073 -1.982 0.253 -1.257 -0.082 -1.45 -0.496 -0.504 -0.433 -0.25 -0.506 -0.002 -0.825 0.472 -1.543 1.089 -1.867 1.107 -1.207 1.215 -0.801 1.221 -0.353 0.659 0.069 0.17 0.126 0.032 0.13 -0.257 0.613 -0.726 0.821 -1.304 0.879 -2.048 0.827 -1.479 0.223 -0.237 0.011 -0.842 -0.003 -0.224 0.004 -0.362 0.031 -0.022 0.041 -0.328 -0.12" />
    <path class="write-flat-pen" fill="#FFFFFF" stroke-width="1.8" __comx="417.53" __comy="137.063" __timestamp="0x177ea3a612d" d="M418.263 128.437 l-0.742 0.199 -0.208 0.139 -0.684 0.595 -0.191 0.235 -0.874 1.298 -0.242 0.513 -0.697 2.259 -0.474 3.585 0.051 3.25 0.444 2.265 0.929 2.45 1.608 2.113 0.519 0.341 0.88 0.334 0.494 0.044 1.774 0.024 0.062 -0.226 -1.542 -0.879 -0.332 -0.181 -0.587 -0.377 -0.191 -0.167 -1.244 -1.802 -0.786 -2.123 -0.39 -1.989 -0.055 -2.988 0.401 -3.351 0.562 -2.06 0.138 -0.34 0.683 -1.241 0.085 -0.147 0.444 -0.616 -0.001 -0.036 0.506 -0.342" />
    <path class="write-flat-pen" fill="#FFFFFF" stroke-width="1.8" __comx="428.081" __comy="137.063" __timestamp="0x177ea3a6306" d="M421.169 132.84 l0.592 0.593 0.311 0.085 1.04 0.145 0.349 0.02 6.147 0.249 1.122 0.265 0.134 0.166 0.014 0.212 -0.498 1.027 -2.866 3.967 -1.347 2.416 -0.477 1.714 0.425 1.285 0.885 0.879 1.578 0.619 2.768 0.219 0.439 0.003 0.815 -0.014 0.397 -0.039 1.97 -0.299 0.029 -0.325 -1.888 -0.638 -0.401 -0.109 -0.834 -0.118 -0.411 -0.039 -2.487 -0.29 -1.035 -0.412 -0.361 -0.351 -0.153 -0.425 0.263 -1.046 1.178 -2.175 2.858 -4.024 0.723 -1.521 -0.075 -1.094 -0.755 -0.963 -1.791 -0.454 -6.315 -0.218 -0.326 0 -0.936 0.009 0.103 0.044 -0.418 -0.263" />
    <path class="write-flat-pen" fill="#FFFFFF" stroke-width="1.8" __comx="427.99" __comy="137.063" __timestamp="0x177ea3a640c" d="M424.183 136.976 l-0.079 -0.182 -0.51 0.798 0.443 0.123 0.35 0.071 5.894 0.543 0.849 -0.074 0.72 -0.206 1.755 -0.565 -0.047 -0.375 -1.84 -0.113 -0.686 -0.029 -0.699 -0.033 -5.743 -0.628 -0.355 -0.051 -1.287 -0.047 -0.574 0.891 1.197 0.732" />
    <path class="write-flat-pen" fill="#FFFFFF" stroke-width="1.8" __comx="439.79" __comy="137.063" __timestamp="0x177ea3a655e" d="M434.805 128.58 l0.753 0.434 0.06 0.04 0.795 0.412 0.299 0.14 1.992 1.075 0.363 0.232 1.707 1.346 1.155 1.416 0.86 1.731 0.401 1.947 0.006 2.227 -0.494 2.073 -1.244 2.663 -0.2 0.322 -0.212 0.323 -0.188 0.315 -0.938 1.686 0.268 0.236 1.552 -1.146 0.306 -0.247 0.312 -0.324 0.336 -0.419 1.49 -2.872 0.591 -2.425 -0.005 -2.577 -0.479 -2.305 -1.042 -2.069 -1.395 -1.676 -1.942 -1.461 -0.496 -0.291 -2.168 -0.994 -0.363 -0.119 -0.823 -0.242 -0.062 -0.017 -0.857 -0.244" />
    <path class="write-flat-pen" fill="#FFFFFF" stroke-width="1.8" __comx="458.946" __comy="137.063" __timestamp="0x177ea3a6830" d="M454.416 126.448 l-0.043 -0.916 -0.117 -0.21 -0.45 -0.389 -0.603 0.177 -0.32 0.64 0.011 0.295 0.223 0.879 0.123 0.319 1.79 2.392 0.402 0.426 3.102 3.037 4.507 3.267 -0.1 -0.152 0.099 -0.151 -1.93 1.237 -2.319 2.026 -1.761 2.069 -0.943 2.135 0.105 0.453 0.037 0.086 0.935 1.365 0.31 -0.064 0.32 -1.623 0.005 -0.068 0.04 0.079 0.68 -1.414 1.516 -1.791 2.12 -1.863 2.124 -1.368 0.729 -1.101 -0.699 -1.065 -4.663 -3.378 -3 -2.918 -0.325 -0.336 -1.681 -2.094 -0.035 -0.061 -0.274 -0.61 0.004 0.193 -0.154 0.179 -0.552 0.161 -0.16 -0.206 -0.099 -0.179 0.243 0.687" />
    <path class="write-flat-pen" fill="#FFFFFF" stroke-width="1.8" __comx="475.564" __comy="137.063" __timestamp="0x177ea3a6aa6" d="M477.284 134.916 l0.027 -0.586 0.011 -0.021 0.062 -0.406 -0.001 -0.109 -0.099 -0.713 -0.221 -0.387 -0.951 -0.72 -0.528 -0.131 -1.871 0.166 -2.298 0.96 -1.539 1.143 -1.003 1.407 -0.781 2.127 -0.205 1.752 0.233 1.824 0.697 1.839 1.093 1.612 1.462 1.272 1.822 0.855 2.412 0.207 1.674 -0.419 2.189 -1.148 1.729 -1.593 0.941 -1.367 0.766 -2.247 0.336 -3.077 -0.213 -2.063 -0.693 -1.669 -1.158 -1.488 -1.331 -0.854 -1.276 -0.238 -1.49 0.587 -0.274 0.33 -0.043 0.075 -0.46 1.546 0.258 0.214 1.435 -0.738 0.032 -0.016 0.006 0.032 0.687 -0.217 0.461 0.09 0.79 0.507 0.829 1.064 0.505 1.213 0.171 1.622 -0.29 2.7 -0.624 1.836 -0.693 1.007 -1.415 1.306 -1.801 0.947 -1.19 0.3 -1.814 -0.152 -1.325 -0.618 -1.114 -0.962 -0.86 -1.256 -0.562 -1.46 -0.191 -1.417 0.148 -1.349 0.625 -1.731 0.716 -1.012 1.164 -0.873 1.879 -0.811 1.364 -0.177 -0.003 -0.012 0.543 0.283 -0.015 -0.066 0.187 0.377 0.013 0.007 0.135 0.4 0.021 0.054 0.217 0.557" />
    <path class="write-flat-pen" fill="#FFFFFF" stroke-width="1.8" __comx="488.315" __comy="137.063" __timestamp="0x177ea3a6e7d" d="M481.773 117.617 l0.082 -0.831 0.022 -0.167 0.096 -0.85 0.018 -0.185 0.11 -0.959 0.037 -0.16 0.469 -1.144 0.054 -0.064 0.761 -0.718 0.938 -0.445 1.064 -0.128 1.414 0.212 2.051 0.825 1.887 1.152 0.962 0.908 0.304 0.557 0.069 0.948 -0.659 1.935 -2.743 4.917 -1.31 2.929 -0.462 1.851 0.04 1.803 0.525 1.409 1.02 1.257 1.473 0.878 1.425 0.248 1.21 -0.371 0.749 -0.873 -0.14 -1.184 -1.164 -0.651 -1.198 0.351 -1.228 1.184 -0.868 1.683 -0.603 2.076 -0.188 2.172 0.385 2.511 0.757 1.972 3.384 4.836 1.343 2.377 0.211 0.803 -0.085 0.749 -0.391 0.834 -1.018 1.125 -2.078 1.608 -3.617 2.229 -0.642 0.196 0.19 0.291 -0.025 0.087 0.085 -0.351 0.175 -0.494 0.243 -0.633 0.285 -0.794 0.474 -1.569 -0.213 -0.129 -1.168 1.15 -0.587 0.651 -0.437 0.624 -0.323 0.589 -0.221 0.594 -0.098 0.757 0.923 1.299 2.081 -0.62 3.897 -2.407 2.275 -1.77 1.295 -1.447 0.618 -1.343 0.141 -1.365 -0.363 -1.331 -1.501 -2.637 -3.313 -4.728 -0.617 -1.6 -0.329 -2.123 0.155 -1.798 0.505 -1.756 0.658 -1.287 0.72 -0.7 0.108 -0.033 -0.219 -0.123 -0.05 -0.421 0.059 -0.071 -0.346 0.103 -0.709 -0.13 -0.937 -0.563 -0.649 -0.802 -0.323 -0.872 -0.028 -1.281 0.369 -1.479 1.215 -2.722 2.776 -4.99 0.819 -2.417 -0.135 -1.668 -0.622 -1.11 -1.294 -1.198 -2.16 -1.302 -2.365 -0.94 -1.834 -0.257 -1.552 0.211 -1.4 0.711 -1.007 1.053 -0.232 0.364 -0.433 1.514 -0.027 0.365 0.057 1.048 0.023 0.211 0.131 0.856 0.034 0.17 0.135 0.823" />
    <path class="write-flat-pen" fill="#FFFFFF" stroke-width="1.8" __comx="529.895" __comy="137.063" __timestamp="0x177ea3a7058" d="M511.452 134.459 l0.386 0.927 0.387 0.248 2.171 0.886 1.084 0.302 3.926 0.683 20.925 1.447 1.691 0.062 1.701 0.01 1.594 -0.049 1.531 -0.187 1.488 -0.201 0.004 -0.361 -1.483 -0.235 -1.518 -0.222 -1.576 -0.129 -1.678 -0.101 -1.659 -0.116 -20.826 -1.52 -3.776 -0.637 -0.943 -0.247 -2.037 -0.694 0.049 0.053 -0.348 -0.486" />
    <path class="write-flat-pen" fill="#FFFFFF" stroke-width="1.8" __comx="547.383" __comy="137.063" __timestamp="0x177ea3a728f" d="M548.014 138.718 l-0.274 -0.895 -0.018 -0.061 -0.173 -0.597 -0.064 -0.221 -0.223 -0.842 -0.086 -0.357 -0.684 -2.234 -0.211 -0.532 -1.118 -2.352 -1.48 -2.087 -0.988 -0.796 -1.36 -0.175 -1.133 0.898 -0.336 1.19 0.439 1.658 1.292 1.734 2.012 1.676 2.361 1.413 3.203 1.267 3.972 0.804 -0.237 -0.185 0.003 -0.02 -2.7 3.493 -0.856 1.583 -0.555 2.027 -0.026 0.41 0.043 0.326 0.729 1.772 0.393 -0.018 0.562 -1.833 0.018 -0.209 0.023 -0.126 0.485 -1.672 0.692 -1.28 2.845 -3.693 0.333 -1.46 -0.981 -0.775 -4.233 -0.863 -2.92 -1.159 -2.117 -1.267 -1.742 -1.451 -0.959 -1.288 -0.226 -0.851 0.045 -0.163 0.09 -0.072 0.115 0.013 0.407 0.324 1.26 1.755 1.053 2.155 0.175 0.42 0.731 2.116 0.11 0.349 0.338 0.888 0.127 0.27 0.339 0.6 0.038 0.049 0.434 0.778" />
    <path class="write-flat-pen" fill="#FFFFFF" stroke-width="1.8" __comx="572.684" __comy="131.894" __timestamp="0x177ea3a80e3" d="M572.488 123.344 l-0.093 0.778 -0.03 0.197 -0.086 0.935 -0.025 0.402 -0.094 1.727 -0.034 0.655 -0.165 4.416 -0.017 1.078 -0.255 15.351 0.052 0.069 0.262 1.101 0.208 0.072 0.886 -0.703 0.165 -0.258 0.348 -15.607 0.004 -1.073 0.062 -4.403 0.003 -0.663 -0.038 -1.75 -0.025 -0.413 -0.086 -0.935 -0.03 -0.197 -0.093 -0.778" />
    <path class="write-flat-pen" fill="#FFFFFF" stroke-width="1.8" __comx="576.378" __comy="131.894" __timestamp="0x177ea3a8272" d="M576.709 121.84 l-0.564 0.463 -0.086 0.295 -0.145 0.494 -0.053 0.254 -0.187 1.149 -0.061 0.523 -0.226 4.326 -0.014 1.039 0.244 18.162 0.037 0.251 0.019 0.078 0.764 1.819 0.283 -0.022 0.473 -1.916 0.006 -0.084 0 -0.2 -0.152 -18.09 0.003 -0.998 0.112 -4.27 0.023 -0.475 0.056 -1.141 0.004 -0.244 -0.019 -0.486 -0.047 0.052 0.201 -0.333" />
    <path class="write-flat-pen" fill="#FFFFFF" stroke-width="1.8" __comx="581.931" __comy="131.894" __timestamp="0x177ea3a83c1" d="M572.852 136.616 l-0.575 1.111 0.037 0.073 0.104 0.041 0.56 0.09 0.424 0.03 1.746 -0.042 0.754 -0.111 12.018 -1.38 0.927 -0.124 0.935 -0.19 1.804 -0.418 -0.028 -0.541 -1.837 -0.232 -0.973 -0.092 -0.98 0.035 -12.09 1.297 -0.705 0.124 -1.605 0.137 -0.369 0.023 -0.537 0.07 -0.097 0.032 -0.05 0.07 0.537 1.111" />
    <path class="write-flat-pen" fill="#FFFFFF" stroke-width="1.8" __comx="591.899" __comy="131.894" __timestamp="0x177ea3a85aa" d="M592.535 122.953 l-0.72 -0.31 -0.405 0.177 -0.347 0.324 -0.178 0.292 -0.304 0.716 -0.145 0.502 -0.314 1.932 -0.068 0.833 -0.1 6.694 0.065 1.337 1.097 10.527 1.064 5.746 0.09 0.197 0.895 1.209 0.288 -0.056 0.375 -1.456 0.012 -0.203 -0.985 -5.682 -1.102 -10.415 -0.066 -1.238 0.023 -6.593 0.039 -0.732 0.195 -1.817 0.065 -0.377 0.139 -0.616 0.018 -0.122 0.003 -0.127 -0.222 0.073 0.35 0" />
    <path class="write-flat-pen" fill="#FFFFFF" stroke-width="1.8" __comx="580.857" __comy="131.894" __timestamp="0x177ea3a8910" d="M579.575 110.478 l0.55 -0.048 0.137 -0.069 0.305 -0.22 0.123 -0.29 -0.106 -0.693 -0.644 -0.328 -0.888 0.355 -0.318 0.325 -0.718 1.464 -0.359 1.981 0.255 1.175 0.889 1.05 1.421 0.358 1.292 -0.391 1.133 -0.862 0.964 -1.376 0.447 -1.501 -0.496 -1.284 -1.079 -0.354 -2.235 0.312 -0.016 0.015 -0.208 -0.091 -0.087 -0.034 -0.112 -0.077 -1.221 -0.838 -0.13 0.085 0.276 1.455 0.08 0.218 0.202 0.294 0.441 0.369 0.553 0.249 2.287 -0.232 -0.04 -0.013 0 -0.002 -0.202 0.686 -0.655 0.938 -0.681 0.522 -0.556 0.172 -0.452 -0.11 -0.279 -0.322 -0.104 -0.45 0.237 -1.454 0.457 -1.078 -0.061 0.048 -0.023 -0.067 -0.487 -0.255 0.005 -0.304 0.101 -0.23 0.067 0.073 0.105 -0.049 -0.373 0.248" />
    <path class="write-flat-pen" fill="#FFFFFF" stroke-width="1.8" __comx="650.07" __comy="137.3" __timestamp="0x177ea3a8c9a" d="M651.264 125.216 l-0.514 0.606 -0.106 0.156 -0.395 0.684 -0.125 0.245 -0.668 1.248 -0.243 0.466 -1.302 3.593 -0.184 0.809 -0.661 4.239 -0.147 3.777 0.523 2.652 1.3 2.696 0.489 0.59 1.011 0.805 0.594 0.313 0.578 0.157 1.713 0.357 0.091 -0.192 -1.359 -1.102 -0.408 -0.312 -0.365 -0.319 -0.74 -0.755 -0.261 -0.366 -1.057 -2.386 -0.427 -2.267 0.14 -3.488 0.62 -4.094 0.143 -0.665 1.134 -3.454 0.178 -0.402 0.562 -1.341 0.095 -0.279 0.223 -0.725 0.022 -0.109 0.284 -0.679" />
    <path class="write-flat-pen" fill="#FFFFFF" stroke-width="1.8" __comx="660.326" __comy="137.3" __timestamp="0x177ea3a8e4c" d="M660.86 136.277 l-0.07 -0.691 0.017 0.036 0.109 -0.505 0.018 -0.132 -0.175 -0.948 -0.648 -0.4 -1.064 0.324 -1.01 1.116 -0.908 2.181 -0.164 1.704 0.683 1.361 1.201 0.597 1.484 -0.206 1.416 -0.797 1.277 -1.362 0.634 -1.282 0.028 -1.173 -0.843 -0.996 -1.145 -0.079 -1.105 0.731 -0.832 1.364 -0.153 0.545 -0.06 0.428 0.047 0.289 0.518 1.499 0.22 0.007 0.611 -1.463 0.06 -0.131 0.093 -0.191 0.127 -0.274 0.593 -0.854 0.332 -0.203 -0.147 -0.009 -0.045 -0.052 -0.004 0.142 -0.354 0.714 -0.924 0.984 -0.903 0.51 -0.64 0.093 -0.221 -0.105 -0.217 -0.416 0.077 -0.976 0.663 -1.72 0.512 -0.629 -0.008 -0.034 -0.447 -0.281 0.099 0.102 0.01 -0.054 0.08 0.664 0.03 0.116 0.292 0.685" />
    <path class="write-flat-pen" fill="#FFFFFF" stroke-width="1.8" __comx="672.124" __comy="137.3" __timestamp="0x177ea3a90a7" d="M668.506 149.168 l-0.698 -0.745 -0.069 -0.078 -0.504 -0.878 -0.061 -0.162 -0.685 -3.578 -0.025 -0.346 0.116 -1.776 0.734 -2.672 0.929 -1.898 0.91 -1.156 0.765 -0.575 0.626 -0.188 0.323 0.09 0.314 0.356 0.265 0.881 -0.022 0.938 -0.556 1.887 -0.547 0.888 0 0 -0.966 0.611 0 0 0.776 1.552 3.416 -1.267 2.415 -1.435 1.395 -1.301 0.859 -1.398 0.488 -1.685 -0.381 -1.286 -1.43 -0.218 -1.158 1.348 -0.708 1.868 -0.364 2.429 0.307 1.767 1.386 1.43 0.498 0.18 0.697 0.033 0.437 -0.145 0.312 -0.21 1.085 -0.99 -0.067 -0.179 -1.468 -0.039 -0.268 0.006 -0.098 -0.035 -0.221 -0.077 0.065 0.012 -0.722 -0.806 -0.168 -0.97 0.291 -1.966 0.527 -1.41 0.329 -0.389 -0.608 -0.094 -0.075 -0.256 -0.282 0.971 -0.615 0.996 -1.089 1.009 -2.123 1.252 -3.268 1.215 0.776 1.552 0 0 1.292 -0.843 0 0 0.859 -1.435 0.648 -2.332 0.007 -1.426 -0.47 -1.466 -0.874 -0.968 -1.233 -0.343 -1.355 0.404 -1.168 0.876 -1.151 1.459 -1.071 2.195 -0.806 2.985 -0.113 2.058 0.05 0.558 0.864 3.806 0.199 0.409 0.811 1.065 0.217 0.143 0.774 0.589" />
    <path class="write-flat-pen" fill="#FFFFFF" stroke-width="1.8" __comx="685.244" __comy="137.3" __timestamp="0x177ea3a91e3" d="M681.435 135.954 l-0.55 0.795 -0.086 0.216 -0.219 0.836 -0.042 0.251 -0.12 1.178 0.007 0.369 0.245 1.149 1.041 0.786 1.198 -0.725 2.328 -4.04 0.722 -0.763 0.407 -0.141 0.134 0.033 0.516 0.483 0.779 1.285 0.607 1.87 0.008 -0.003 0.023 0.077 0.823 1.869 0.347 -0.033 0.46 -1.989 0.006 -0.099 -0.011 -0.169 -0.651 -2.247 -1.026 -1.676 -1.029 -0.955 -1.074 -0.258 -1.29 0.447 -1.158 1.221 -2.203 3.846 0.166 -0.087 0.359 0.284 -0.125 -0.393 -0.017 -0.137 -0.001 -1.063 0.004 -0.171 0.046 -0.733 -0.013 -0.02 0.322 -0.774" />
    <path class="write-flat-pen" fill="#FFFFFF" stroke-width="1.8" __comx="696.667" __comy="137.3" __timestamp="0x177ea3a9321" d="M693.669 121.566 l-0.074 0.833 0 0.296 0.132 0.722 0.163 0.462 0.584 1.498 0.268 0.596 1.915 3.998 1.038 2.996 0.397 2.257 0.098 4.126 -0.096 0.729 -0.127 0.748 -0.154 0.718 -0.171 0.757 -0.337 1.712 0.218 0.092 0.993 -1.434 0.444 -0.698 0.334 -0.774 0.244 -0.824 0.19 -0.901 0.01 -4.403 -0.435 -2.523 -1.12 -3.213 -2.004 -4.051 -0.273 -0.554 -0.677 -1.423 -0.179 -0.351 -0.21 -0.51 -0.054 -0.141 -0.129 -0.773" />
    <path class="write-flat-pen" fill="#FFFFFF" stroke-width="1.8" __comx="64.107" __comy="230.224" __timestamp="0x177ea3a9bb7" d="M65.452 215.594 l0.199 -0.99 0.048 -0.146 0.35 -1.036 0.104 -0.293 0.423 -1.295 0.096 -0.321 0.281 -1.467 0.009 -0.484 -0.277 -1.044 -0.898 -0.894 -1.605 -0.236 -1.892 0.606 -1.915 1.174 -2.267 2.062 -1.237 1.647 -0.964 2.051 -0.45 2.072 0.216 1.314 0.933 1.239 1.691 0.943 6.359 1.933 3.441 1.399 1.525 0.951 1.135 1.063 0.792 1.162 0.395 1.181 0.095 1.234 -0.281 1.162 -0.693 1.144 -0.84 0.737 -1.259 0.635 -2.686 0.666 -3.167 0.306 -3.791 -0.065 -2.311 -0.44 -0.668 -0.295 -0.051 -0.095 -0.084 0.213 0.057 -0.091 0.227 -0.265 0.325 -0.3 0.459 -0.405 1.235 -1.204 -0.266 -0.457 -1.656 0.48 -0.654 0.244 -0.559 0.354 -0.421 0.392 -0.317 0.38 -0.274 0.748 0.634 1.378 1.475 0.651 2.665 0.507 4.048 0.069 3.401 -0.329 3.011 -0.747 1.644 -0.83 1.22 -1.072 0.98 -1.621 0.41 -1.71 -0.14 -1.739 -0.552 -1.622 -1.047 -1.522 -1.405 -1.312 -1.801 -1.122 -3.655 -1.487 -6.252 -1.906 -1.197 -0.668 -0.444 -0.589 -0.091 -0.548 0.335 -1.545 0.8 -1.705 1.026 -1.368 2.017 -1.842 1.59 -0.983 1.305 -0.43 0.651 0.08 0.19 0.165 0.129 0.377 0.009 0.125 -0.148 1.282 -0.05 0.244 -0.289 1.311 -0.071 0.318 -0.192 1.144 -0.018 0.242 0.024 1.056" />
    <path class="write-flat-pen" fill="#FFFFFF" stroke-width="1.8" __comx="79.658" __comy="230.224" __timestamp="0x177ea3a9d2b" d="M82.203 226.549 l-0.53 -0.889 -0.168 -0.246 -0.749 -0.735 -0.386 -0.243 -2.235 -0.451 -0.674 0.153 -1.393 0.662 -1.128 1.295 -0.684 1.845 -0.157 1.504 0.272 2.242 0.687 1.904 1.016 1.389 1.435 0.877 1.479 0.214 1.46 -0.335 1.346 -0.746 1.76 -1.635 1.108 -1.816 0.555 -2.164 -0.003 -1.562 -0.48 -1.355 -0.981 -1.157 -1.558 -0.82 -1.588 -0.263 -1.301 0.535 -0.181 0.168 -0.111 0.124 -0.086 0.192 -0.143 1.322 0.302 0.208 1.183 -0.607 0.062 -0.024 -0.023 0.035 -0.084 0.082 0.572 -0.2 0.818 0.142 0.997 0.527 0.544 0.642 0.268 0.757 0.002 1.028 -0.432 1.685 -0.839 1.377 -1.42 1.319 -0.934 0.518 -0.888 0.204 -0.786 -0.113 -0.823 -0.5 -0.659 -0.896 -0.536 -1.473 -0.23 -1.845 0.108 -1.086 0.488 -1.34 0.674 -0.786 0.889 -0.436 0.139 -0.036 1.606 0.25 0.02 0.001 0.624 0.457 0.089 0.074 0.621 0.767" />
    <path class="write-flat-pen" fill="#FFFFFF" stroke-width="1.8" __comx="87.71" __comy="230.224" __timestamp="0x177ea3a9e0b" d="M85.252 217.159 l-0.742 0.795 -0.039 0.468 0.123 1.001 0.16 0.563 1.068 3.58 0.285 0.878 1.342 4.915 1.267 6.26 0.491 0.791 1.255 0.257 0.251 -0.203 0.183 -0.445 0.05 -0.393 -0.045 -0.402 -0.308 -1.334 -0.399 -0.052 -0.64 1.21 -0.135 0.288 -0.08 0.125 0.024 -0.112 0.077 -0.075 1.255 0.257 -0.304 -0.556 -1.225 -6.027 -1.396 -5.008 -0.302 -0.902 -1.142 -3.542 -0.157 -0.455 -0.177 -0.72 -0.027 0.181 0.317 -0.511" />
    <path class="write-flat-pen" fill="#FFFFFF" stroke-width="1.8" __comx="98.992" __comy="230.224" __timestamp="0x177ea3a9f7f" d="M93.994 226.606 l-0.935 0.218 -0.291 0.408 -0.104 0.537 0.019 0.252 0.137 0.707 0.072 0.283 0.517 1.911 0.151 0.472 1.089 3.863 0.783 1.377 1.257 0.445 1.029 -1.383 1.384 -6.943 0.654 -1.8 0.457 -0.573 0.313 -0.123 0.123 0.027 0.56 0.487 0.702 1.147 1.071 3.114 0.594 3.591 0.881 1.843 0.57 -0.086 0.294 -2.029 -0.593 -3.756 -1.187 -3.444 -0.949 -1.549 -1.114 -0.969 -1.101 -0.24 -1.265 0.495 -0.94 1.178 -0.802 2.203 -1.332 6.681 0.002 -0.001 0.618 0.219 -0.349 -0.609 -1.064 -3.683 -0.159 -0.472 -0.57 -1.865 -0.085 -0.254 -0.192 -0.572 -0.015 0.006 -0.062 -0.025 -0.217 0.291 0.413 -0.198" />
    <path class="write-flat-pen" fill="#FFFFFF" stroke-width="1.8" __comx="85.213" __comy="230.224" __timestamp="0x177ea3aa07f" d="M58.329 243.045 l-0.996 -0.04 -0.463 0.052 0.332 -0.057 -0.046 1.414 0.167 0.095 0.404 0.043 2.542 0.005 1.315 -0.047 16.357 -0.84 27.524 -2.744 2.335 -0.236 2.255 -0.122 2.079 -0.3 1.424 -0.212 -0.019 -0.675 -1.434 -0.131 -2.091 -0.182 -2.307 -0.001 -2.399 0.181 -27.499 2.678 -16.305 0.871 -1.284 0.06 -2.472 0.092 -0.207 0.017 -0.046 0.044 -0.046 1.414 0.332 -0.057 -0.31 0.025 0.893 -0.091" />
    <path class="write-flat-pen" fill="#FFFFFF" stroke-width="1.8" __comx="104.608" __comy="286.529" __timestamp="0x177ea3af030" d="M105.17 287.614 l0.167 -0.343 0.004 0.038 0.266 -0.232 -0.033 0.079 0.05 0.091 -0.402 -0.069 0.147 0.401 -0.008 0.004 -0.015 0.167 0.077 -0.105 -0.333 -0.048 -0.819 -0.509 -0.191 -0.29 -0.063 0.258 0.12 -0.049 0.176 0.025 -0.008 -0.004 0.097 1.111 0.21 1.058 0.314 0.131 1.03 -0.911 -0.037 -2.159 -0.903 -0.791 -1.117 -0.135 -1.259 0.543 -0.313 1.232 0.816 1.175 1.432 0.853 1.427 0.13 0.885 -0.917 -0.062 -0.967 -0.094 -0.361 -0.687 -0.965 -0.661 -0.133 -0.59 0.528 -0.066 0.138 -0.08 0.377 -0.027 0.111 0.062 0.477" />
    <path class="write-flat-pen" fill="#FFFFFF" stroke-width="1.8" __comx="136.742" __comy="286.529" __timestamp="0x177ea3af2cc" d="M128.596 280.151 l-0.442 -0.925 0.041 0.072 0.5 -0.932 0.056 -0.036 1.431 -0.772 2.087 -0.542 4.364 -0.493 2.492 0.074 0.359 0.173 0.251 0.331 0.044 0.494 -0.316 1.016 -4.502 7.254 -1.727 3.424 -1.083 3.112 -0.654 3.26 0.506 1.136 1.313 0.577 2.23 -0.163 4.199 -0.943 3.287 -0.436 0.385 -0.037 0.989 -0.104 0.256 -0.052 1.984 -0.537 -0.007 -0.423 -2.001 -0.47 -0.279 -0.043 -1.032 -0.013 -0.451 0.017 -3.428 0.39 -4.16 0.937 -1.683 0.137 -0.331 -0.133 -0.029 -0.044 0.495 -2.627 0.997 -2.905 1.634 -3.269 4.565 -7.373 0.465 -1.521 -0.125 -1.27 -0.77 -0.989 -1.003 -0.478 -2.94 -0.084 -4.589 0.535 -2.378 0.65 -1.689 0.98 -0.417 0.355 -0.656 1.703 0.141 0.532 0.722 0.999" />
    <path class="write-flat-pen" fill="#FFFFFF" stroke-width="1.8" __comx="135.22" __comy="286.529" __timestamp="0x177ea3af3d9" d="M129.31 286.641 l2.716 -0.679 0.546 -0.105 5.085 -0.957 0.735 -0.158 0.756 -0.249 0.701 -0.252 1.607 -0.627 -0.021 -0.117 -1.725 -0.019 -0.758 0.014 -0.773 0.07 -0.732 0.065 -5.138 0.866 -0.611 0.135 -2.714 0.87" />
    <path class="write-flat-pen" fill="#FFFFFF" stroke-width="1.8" __comx="161.883" __comy="286.529" __timestamp="0x177ea3af5ab" d="M159.052 280.002 l0.283 0.963 0.092 0.286 0.573 1.88 0.153 0.644 1.065 4.379 1.143 7.352 0.609 1.291 0.366 0.175 1.232 0.234 0.145 -0.207 -0.64 -1.079 0.048 -0.048 -0.256 -0.789 -1.126 -7.237 -1.152 -4.436 -0.196 -0.702 -0.763 -1.921 -0.148 -0.281 -0.42 -0.886" />
    <path class="write-flat-pen" fill="#FFFFFF" stroke-width="1.8" __comx="173.528" __comy="286.529" __timestamp="0x177ea3af694" d="M164.486 287.851 l-0.674 -0.06 -0.047 1.162 0.099 0.052 1.026 0.114 0.517 0.018 12.808 -1.064 1.168 -0.162 1.237 -0.279 1.105 -0.294 1.563 -0.438 -0.033 -0.268 -1.623 -0.046 -1.16 -0.016 -1.244 0.108 -1.13 0.056 -12.743 0.952 -0.442 0.01 -0.945 0.065 -0.037 0.033 -0.047 1.162 0.661 -0.144" />
    <path class="write-flat-pen" fill="#FFFFFF" stroke-width="1.8" __comx="184.025" __comy="286.529" __timestamp="0x177ea3af863" d="M181.061 284.614 l-1.005 -1.251 -0.223 -0.281 -1.277 -1.211 0 0 -0.128 -0.073 0 0 -0.827 1.344 1.532 1.114 1.941 0.796 3.538 0.83 3.815 0.353 0.238 0.107 -0.027 -0.065 -1.514 3.219 -0.589 2.005 0.082 1.737 0.09 0.205 1.128 1.542 0.502 -0.179 -0.106 -1.908 0.03 0.035 0.012 -1.203 0.475 -1.623 1.698 -3.704 -0.4 -1.292 -1.198 -0.518 -3.967 -0.368 -3.298 -0.771 -1.653 -0.669 -1.429 -0.941 -0.827 1.344 0 0 -0.024 -0.017 0 0 1.165 0.928 0.19 0.19 1.126 1.149" />
    <path class="write-flat-pen" fill="#FFFFFF" stroke-width="1.8" __comx="209.132" __comy="286.529" __timestamp="0x177ea3afad6" d="M200.782 280.219 l0.492 -0.293 0.047 0.006 0.504 -0.137 0.186 -0.05 1.538 -0.406 0.389 -0.09 3.742 -0.709 2.423 -0.193 0.492 0.14 0.481 0.471 0.293 0.869 -0.009 1.162 -0.656 2.045 -1.159 2.226 -3.057 4.472 -1.318 2.471 -0.567 2.033 0.11 1.288 0.686 1.137 1.31 0.769 1.635 0.251 5.651 -0.947 0.437 -0.098 0.779 -0.188 0.392 -0.108 0.321 -0.101 0.288 -0.118 1.796 -0.896 -0.058 -0.289 -2.002 -0.137 -0.312 0.002 -0.338 0.03 -0.403 0.054 -0.789 0.126 -0.411 0.072 -5.36 0.839 -1.037 -0.157 -0.648 -0.375 -0.258 -0.417 -0.058 -0.583 0.412 -1.565 1.162 -2.237 3.042 -4.488 1.255 -2.444 0.756 -2.417 -0.003 -1.676 -0.516 -1.476 -1.045 -1.002 -1.144 -0.317 -2.791 0.235 -3.856 0.822 -0.46 0.134 -1.56 0.585 -0.238 0.115 -0.511 0.321 -0.157 0.122 -0.425 0.532" />
    <path class="write-flat-pen" fill="#FFFFFF" stroke-width="1.8" __comx="210.174" __comy="286.529" __timestamp="0x177ea3afbc8" d="M203.585 288.319 l1.34 0.177 0.351 0.05 3.721 0.254 4.575 -0.504 0.765 -0.156 0.74 -0.28 1.687 -0.699 -0.069 -0.327 -1.826 0.04 -0.743 0.032 -0.707 0.037 -4.448 0.347 -3.576 -0.179 -0.348 -0.024 -1.379 -0.007" />
    <path class="write-flat-pen" fill="#FFFFFF" stroke-width="1.8" __comx="226.227" __comy="286.529" __timestamp="0x177ea3afcb9" d="M222.555 289.181 l0.758 -0.269 0.068 -0.003 4.71 -1.056 0.605 -0.212 1.73 -0.666 -0.051 -0.309 -1.852 -0.072 -0.667 -0.001 -4.805 0.934 -0.22 0.074 -0.801 0.468" />
    <path class="write-flat-pen" fill="#FFFFFF" stroke-width="1.8" __comx="242.257" __comy="286.529" __timestamp="0x177ea3afe28" d="M240.027 283.816 l-0.278 0.487 -0.082 0.106 -0.285 0.501 -0.118 0.255 -0.782 1.839 -0.166 0.461 -0.642 2.433 -0.144 2.169 0.355 1.85 0.753 1.467 1.058 0.919 1.57 0.586 1.705 -0.145 1.578 -0.726 0.531 -0.393 0.408 -0.385 0.394 -0.472 0.284 -0.482 0.82 -1.601 -0.16 -0.139 -1.473 1.032 -0.403 0.306 -0.402 0.298 -0.361 0.241 -0.388 0.23 -1.226 0.489 -1.069 0.069 -0.946 -0.358 -0.596 -0.512 -0.511 -0.972 -0.295 -1.415 0.079 -1.82 0.516 -2.25 0.118 -0.383 0.626 -1.876 0.073 -0.266 0.122 -0.545 0.014 -0.135 0.124 -0.555" />
    <path class="write-flat-pen" fill="#FFFFFF" stroke-width="1.8" __comx="240.889" __comy="286.529" __timestamp="0x177ea3afee5" d="M241.83 276.346 l-0.329 -0.933 -0.013 -0.201 0.005 -1.303 -0.23 -0.105 -1.015 0.939 -0.3 0.74 0.613 1.38" />
    <path class="write-flat-pen" fill="#FFFFFF" stroke-width="1.8" __comx="105.258" __comy="344.526" __timestamp="0x177ea3b02b6" d="M106.497 345.157 l-0.321 -0.586 -0.16 -0.111 -0.426 -0.22 -0.117 -0.021 -0.582 -0.118 0.003 -0.004 0.069 0.011 -0.284 -0.191 0 0 -0.85 1.288 -0.021 -0.017 0.395 0.525 0.085 0.477 -0.083 0.248 -0.155 0.138 0.172 -0.022 0.114 0.107 0.019 -0.193 0.451 -0.784 0.702 -0.635 0.414 -0.169 0.051 0.017 0.14 0.19 0.038 0.317 -0.346 0.503 -0.35 0.78 0.166 0.45 1.247 0.192 1.102 -1.443 -0.181 -1.466 -0.737 -1 -1.187 -0.401 -1.299 0.531 -1.134 1.026 -0.78 1.363 -0.107 1.377 1.028 1.027 1.235 -0.12 0.894 -0.877 0.314 -1.086 -0.289 -1.286 -0.755 -0.854 -0.037 -0.033 -0.85 1.288 0 0 0.494 0.127 0.069 0.011 0.097 0.01 0.641 -0.053 -0.014 -0.012 0.239 -0.038 -0.105 -0.078 0.378 0.302" />
    <path class="write-flat-pen" fill="#FFFFFF" stroke-width="1.8" __comx="137.62" __comy="345.761" __timestamp="0x177ea3b0cb2" d="M129.422 340.363 l-0.539 -0.434 0.201 0.297 0.03 0.256 -0.2 0.19 0.533 -0.133 0.271 -0.056 7.578 -1.792 2.714 -0.392 0.749 0.158 0.349 0.295 0.294 0.768 -0.099 1.325 -0.813 2.457 -1.854 3.726 -4.753 7.617 -0.419 1.21 0.403 1.212 1.183 0.928 1.372 0.357 2.047 -0.268 6.289 -2.151 0.308 -0.098 0.591 -0.198 1.81 -0.966 -0.094 -0.433 -2.068 -0.127 -0.662 0.107 -0.383 0.094 -6.191 2.049 -1.538 0.204 -0.69 -0.177 -0.486 -0.376 -0.055 -0.154 0.155 -0.47 4.653 -7.541 1.939 -3.906 0.915 -2.767 0.141 -1.906 -0.583 -1.521 -1.002 -0.847 -1.455 -0.307 -3.088 0.448 -7.638 1.912 -0.352 0.101 -0.803 0.359 -0.35 0.316 -0.064 0.748 0.238 0.355 0.891 0.411" />
    <path class="write-flat-pen" fill="#FFFFFF" stroke-width="1.8" __comx="139.338" __comy="345.761" __timestamp="0x177ea3b0dab" d="M131.468 348.071 l0.904 0.051 0.309 0.013 1.466 0.02 0.714 -0.025 3.896 -0.456 5.369 -1.295 0.832 -0.314 0.731 -0.353 1.569 -0.803 -0.081 -0.267 -1.751 0.202 -0.799 0.11 -0.826 0.173 -5.296 1.116 -3.773 0.523 -0.655 0.06 -1.462 0.148 -0.311 0.057 -0.884 0.148" />
    <path class="write-flat-pen" fill="#FFFFFF" stroke-width="1.8" __comx="168.922" __comy="345.761" __timestamp="0x177ea3b0f73" d="M166.783 339.326 l0.434 -0.239 -0.268 -0.033 0.449 0.566 0.09 0.189 0.917 2.427 0.162 0.588 0.759 3.023 0.837 7.077 0.752 1.843 0.264 -0.019 0.475 -1.961 -0.745 -7.232 -0.843 -3.145 -0.209 -0.681 -1.109 -2.54 -0.263 -0.418 -0.937 -0.783 -0.618 -0.124 -0.739 0.778" />
    <path class="write-flat-pen" fill="#FFFFFF" stroke-width="1.8" __comx="178.764" __comy="345.761" __timestamp="0x177ea3b105b" d="M169.083 347.655 l1.224 0.344 0.406 0.048 4.297 -0.025 7.851 -1.072 1.059 -0.149 0.963 -0.211 0.985 -0.203 0.962 -0.256 1.617 -0.463 -0.028 -0.249 -1.679 -0.094 -1.001 -0.036 -1.038 0.048 -0.967 0.111 -1.042 0.08 -7.793 0.952 -4.135 0.105 -0.249 -0.007 -1.173 -0.159" />
    <path class="write-flat-pen" fill="#FFFFFF" stroke-width="1.8" __comx="190.192" __comy="345.761" __timestamp="0x177ea3b1260" d="M188.338 345.806 l-0.543 -0.836 -0.053 -0.125 -0.307 -0.69 -0.085 -0.242 -0.393 -1.251 -0.082 -0.288 -0.583 -2.126 -0.097 -0.32 0 0 -0.653 -1.294 0 0 -1.544 0.666 0.395 1.238 1.32 1.749 1.618 1.371 2.142 1.059 5.145 1.018 0.033 0.02 -0.006 -0.182 -2.36 2.905 -0.929 1.945 0.056 0.427 0.201 0.276 1.007 0.785 0.305 -0.143 0.044 -1.276 0.032 -0.088 0.044 0.32 0.696 -1.308 2.642 -3.255 -0.041 -1.391 -1.092 -0.663 -5.218 -1.039 -1.747 -0.864 -1.312 -1.111 -1.039 -1.367 -0.336 -0.959 -1.544 0.666 0 0 0.649 1.128 0 0 0.058 0.164 0.701 2.096 0.121 0.325 0.552 1.269 0.17 0.319 0.486 0.688 0.137 0.172 0.741 0.752" />
    <path class="write-flat-pen" fill="#FFFFFF" stroke-width="1.8" __comx="215.363" __comy="345.761" __timestamp="0x177ea3b1458" d="M214.912 331.682 l-0.343 -0.653 0.014 -0.096 -0.769 0.46 -0.038 0.102 -0.014 0.372 0.053 0.276 0.18 1.139 0.08 0.542 1.461 9.553 0.855 1.804 0.262 -0.038 0.31 -1.976 -1.392 -9.587 -0.119 -0.589 -0.342 -1.205 -0.111 -0.223 -0.101 -0.16 -0.038 -0.01 -0.769 0.46 0.072 -0.065 -0.07 0.166" />
    <path class="write-flat-pen" fill="#FFFFFF" stroke-width="1.8" __comx="221.666" __comy="345.761" __timestamp="0x177ea3b155f" d="M214.515 357.246 l0.386 -0.817 0.085 -0.142 0.434 -0.694 0.303 -0.493 2.59 -4.012 0.647 -1.057 3.022 -4.607 4.84 -6.494 0.681 -0.896 0.648 -0.85 0.553 -0.792 0.46 -0.816 0.812 -1.563 -0.319 -0.256 -1.351 1.13 -0.695 0.623 -0.656 0.701 -0.71 0.813 -0.735 0.895 -4.933 6.52 -3.053 4.687 -0.646 1.074 -2.517 4.084 -0.296 0.56 -0.386 0.832 -0.074 0.253 -0.247 0.888" />
    <path class="write-flat-pen" fill="#FFFFFF" stroke-width="1.8" __comx="237.943" __comy="345.761" __timestamp="0x177ea3b17ed" d="M230.476 344.939 l-0.179 -0.541 0.056 0.095 0.09 0.055 -0.002 0.094 0.228 -0.186 0.11 -0.071 0.915 -0.623 0.237 -0.151 2.12 -0.928 2.644 -0.73 1.747 -0.137 0.746 0.186 0.318 0.247 0.224 0.443 -0.051 1.102 -1.006 2.47 -3.766 6.451 -1.594 3.264 -0.162 1.355 0.7 1.087 1.399 0.557 8.222 -0.609 0.291 -0.01 0.615 -0.025 0.324 -0.038 1.986 -0.42 0.024 -0.289 -1.891 -0.739 -0.354 -0.093 -0.674 -0.065 -0.376 -0.014 -7.892 0.519 -0.509 -0.197 -0.061 -0.086 0.044 -0.442 1.419 -2.948 3.796 -6.498 1.163 -2.855 0.087 -1.845 -0.598 -1.19 -0.907 -0.709 -1.37 -0.345 -2.194 0.169 -2.926 0.823 -2.351 1.086 -0.382 0.271 -0.947 0.788 -0.233 0.253 -0.27 0.487 -0.113 0.333 0.103 0.458 0.074 0.134 0.392 0.47" />
    <path class="write-flat-pen" fill="#FFFFFF" stroke-width="1.8" __comx="238.033" __comy="345.761" __timestamp="0x177ea3b1912" d="M231.866 348.05 l0.533 -0.195 0.09 0.011 0.366 -0.043 0.234 -0.035 1.666 -0.24 0.612 -0.073 5.415 -0.655 0.813 -0.192 0.71 -0.176 0.651 -0.215 1.708 -0.631 -0.038 -0.261 -1.817 -0.114 -0.688 -0.019 -0.753 0.045 -0.8 0.101 -5.393 0.563 -0.665 0.1 -1.731 0.392 -0.294 0.106 -0.38 0.182 -0.169 0.104 -0.533 0.37" />
    <path class="write-flat-pen" fill="#FFFFFF" stroke-width="1.8" __comx="105.253" __comy="406.433" __timestamp="0x177ea3b1ce2" d="M102.784 407.863 l0.295 -0.334 -0.07 0.082 0.366 0.024 0.103 0.024 1.417 0.29 0.095 0.016 0.07 0.009 0.823 -0.018 -0.832 -1.042 0.048 -0.161 -1.412 1.218 0.237 -0.081 0.473 0.104 -0.021 -0.3 0.202 -0.682 0.535 -0.746 0.435 -0.289 0.434 -0.042 0.396 0.195 0.241 0.366 -0.002 0.008 -1.152 1.56 0.046 0.548 0.124 0.258 0.961 0.945 0.291 -0.096 0.225 -1.296 0.031 -0.076 0.031 0.246 1.136 -1.435 0.095 -1.116 -0.833 -1.263 -1.262 -0.627 -1.364 0.132 -1.064 0.71 -0.887 1.248 -0.373 1.284 0.184 1.855 1.195 0.274 0.561 -0.188 1.916 -1.813 0.072 -0.233 -0.832 -1.042 -0.638 0.136 0.07 0.009 -0.057 -0.004 -1.508 -0.13 -0.311 0.014 -0.623 0.213 -0.275 0.196 -0.272 0.659" />
    <path class="write-flat-pen" fill="#FFFFFF" stroke-width="1.8" __comx="140.144" __comy="407.233" __timestamp="0x177ea3b335a" d="M131.769 401.237 l-0.132 -1.752 -0.003 -0.023 0.092 -0.147 -0.007 0.152 0.2 -0.131 0.055 -0.029 0.418 -0.286 0.132 -0.073 1.319 -0.696 0.408 -0.186 2.387 -0.88 2.505 -0.463 1.809 0.02 1.083 0.306 0.627 0.463 0.378 0.679 0.075 0.9 -0.403 1.046 -5.522 7.254 -4.047 6.418 -1.109 2.34 0.369 1.23 1.47 0.413 6.69 -1.027 4.486 -0.274 0.494 -0.02 1.098 -0.056 0.494 -0.044 0.498 -0.102 1.917 -0.507 -0.013 -0.4 -1.946 -0.382 -0.484 -0.07 -0.477 -0.038 -1.105 -0.037 -0.531 -0.006 -4.61 0.206 -6.408 0.991 -0.204 -0.05 0.089 0.308 0.778 -1.653 3.951 -6.268 5.617 -7.395 0.62 -1.637 -0.146 -1.643 -0.733 -1.306 -1.163 -0.857 -1.59 -0.45 -2.197 -0.023 -2.808 0.536 -2.573 1.003 -0.518 0.262 -1.367 0.872 -0.24 0.195 -0.49 0.558 -0.111 0.218 -0.135 0.45 -0.013 0.2 0.181 0.339 0.012 0.01 0.394 1.613" />
    <path class="write-flat-pen" fill="#FFFFFF" stroke-width="1.8" __comx="141.326" __comy="407.233" __timestamp="0x177ea3b3499" d="M134.443 405.794 l0.657 -0.727 -0.049 0.042 1.495 -0.205 0.466 -0.025 8.676 -0.061 0.763 -0.029 0.775 -0.097 1.848 -0.276 0.012 -0.407 -1.829 -0.383 -0.771 -0.142 -0.783 -0.066 -8.749 -0.021 -0.598 0.055 -1.713 0.395 -0.38 0.198 -0.698 1.098" />
    <path class="write-flat-pen" fill="#FFFFFF" stroke-width="1.8" __comx="165.687" __comy="407.233" __timestamp="0x177ea3b360c" d="M163.568 398.722 l0.025 0.71 -0.004 0.208 0.023 0.566 0.029 0.432 0.191 1.849 0.088 0.814 1.442 11.229 0.646 1.994 0.225 0.219 1.233 0.789 0.338 -0.255 -0.42 -1.402 0.016 -0.058 -0.453 -1.629 -1.511 -11.083 -0.119 -0.817 -0.332 -1.841 -0.095 -0.436 -0.16 -0.563 -0.076 -0.206 -0.228 -0.678" />
    <path class="write-flat-pen" fill="#FFFFFF" stroke-width="1.8" __comx="177.232" __comy="407.233" __timestamp="0x177ea3b3700" d="M165.61 408.931 l0.892 0.55 0.349 0.091 3.558 0.318 13.509 -0.071 1.151 -0.077 1.071 -0.114 1.069 -0.208 1.647 -0.349 -0.016 -0.336 -1.673 -0.188 -1.08 -0.104 -1.066 -0.024 -1.124 -0.007 -13.431 -0.074 -3.416 -0.181 -0.082 0.001 -0.807 -0.31" />
    <path class="write-flat-pen" fill="#FFFFFF" stroke-width="1.8" __comx="188.532" __comy="407.233" __timestamp="0x177ea3b3906" d="M187.226 407.703 l-0.572 -0.666 0.019 0.005 -0.252 -0.505 -0.06 -0.144 -0.503 -1.363 -0.088 -0.27 -1.073 -2.746 0 0 -0.724 -1.011 0 0 -1.497 0.789 0.366 1.057 1.819 1.969 1.881 1.371 5.763 2.408 0.395 0.328 0.098 0.408 -0.248 1.13 -2.224 4.132 -0.112 1.99 0.32 0.135 1.316 -1.389 2.358 -4.252 0.376 -1.777 -0.343 -1.353 -1.036 -0.849 -5.81 -2.429 -1.582 -1.151 -1.465 -1.581 -0.26 -0.717 -1.497 0.789 0 0 0.619 0.827 0 0 1.035 2.493 0.101 0.274 0.658 1.436 0.16 0.258 0.46 0.552 0.096 0.092 0.747 0.568" />
    <path class="write-flat-pen" fill="#FFFFFF" stroke-width="1.8" __comx="220.319" __comy="387.928" __timestamp="0x177ea3b44ed" d="M210.494 407.497 l-0.687 0.434 -0.056 0.495 0.286 0.489 0.28 0.199 0.827 0.318 0.466 0.089 2.817 -0.067 0.745 -0.145 2.772 -0.653 2.649 -1.028 2.056 -1.165 1.745 -1.457 0.766 -1.142 0.238 -1.244 -0.564 -1.264 -1.278 -0.766 -2.1 -0.343 -2.636 0.328 -2.889 0.832 -2.56 1.348 -2.109 1.789 -1.495 2.224 -0.674 1.735 -0.418 2.451 0.434 2.206 1.149 1.957 1.29 1.214 2.57 1.251 3.148 0.52 2.374 -0.135 3.196 -0.856 5.483 -2.491 0.775 -0.434 0.645 -0.406 0.587 -0.431 0.396 -0.415 1.239 -1.473 -0.302 -0.4 -1.756 0.787 -0.46 0.232 -0.559 0.305 -0.613 0.332 -0.709 0.362 -5.322 2.355 -2.884 0.771 -1.997 0.115 -2.702 -0.442 -2.101 -1.016 -0.916 -0.855 -0.88 -1.481 -0.325 -1.602 0.323 -1.969 0.532 -1.4 1.245 -1.88 1.781 -1.526 2.241 -1.186 2.597 -0.751 2.268 -0.283 1.55 0.25 0.554 0.331 0.137 0.306 -0.077 0.398 -0.445 0.662 -1.447 1.208 -1.82 1.034 -2.428 0.955 -2.628 0.643 -0.591 0.125 -2.54 0.169 -0.229 -0.016 -0.612 -0.103 0.032 0.051 -0.015 0.115 -0.051 0.368 0.202 -0.306" />
    <path class="write-flat-pen" fill="#FFFFFF" stroke-width="1.8" __comx="228.996" __comy="387.928" __timestamp="0x177ea3b46c3" d="M225.723 385.368 l2.015 0.218 0.353 0.014 1.935 -0.104 0.457 -0.114 1.785 -0.506 -0.02 -0.241 -1.843 -0.212 -0.437 -0.041 -1.878 -0.02 -0.305 0 -2.005 -0.009" />
    <path class="write-flat-pen" fill="#FFFFFF" stroke-width="1.8" __comx="242.442" __comy="380.886" __timestamp="0x177ea3b4e50" d="M241.264 378.429 l0.296 -0.003 -0.201 -0.069 0.074 0.203 0.024 0.121 0.225 0.992 0.07 0.382 0.389 3.498 0.025 0.537 0.121 3.07 0.144 2.504 1.414 -0.024 0.059 -2.526 -0.125 -3.1 -0.038 -0.608 -0.53 -3.615 -0.135 -0.499 -0.433 -1.108 -0.213 -0.323 -0.391 -0.312 -0.394 -0.19 -0.664 0.406" />
    <path class="write-flat-pen" fill="#FFFFFF" stroke-width="1.8" __comx="248.897" __comy="380.886" __timestamp="0x177ea3b4f28" d="M247.629 377.152 l-0.143 0.906 -0.041 0.28 -0.063 1.039 -0.005 0.453 0.209 2.42 0.085 0.524 0.965 3.86 1.497 1.216 0.286 -0.187 -0.376 -1.639 -0.842 -3.57 -0.082 -0.426 -0.329 -2.305 -0.037 -0.386 -0.106 -0.995 -0.027 -0.239 -0.051 -0.902" />
    <path class="write-flat-pen" fill="#FFFFFF" stroke-width="1.8" __comx="244.905" __comy="380.886" __timestamp="0x177ea3b501b" d="M237.026 378.974 l-0.135 -0.594 -0.023 0.196 0.459 -0.384 0.24 -0.125 2.373 -1.061 2.265 -0.64 8.031 -1.202 0.809 -0.134 0.798 -0.216 0.685 -0.232 1.756 -0.647 -0.075 -0.451 -1.871 -0.044 -0.749 0.007 -0.791 0.111 -0.772 0.071 -8.166 1.12 -2.493 0.723 -2.53 1.227 -0.475 0.309 -0.701 0.868 -0.134 0.554 0.476 0.948" />
    <path class="write-flat-pen" fill="#FFFFFF" stroke-width="1.8" __comx="256.883" __comy="380.886" __timestamp="0x177ea3b51c7" d="M255.809 390.916 l-0.345 -0.441 0.041 0.016 -0.034 -0.258 0.022 0.022 -0.029 -0.345 0.007 -0.117 0.096 -0.936 0.06 -0.339 3.905 -14.911 0.171 -0.911 0.037 -0.736 0.024 -1.776 -0.334 -0.075 -0.734 1.618 -0.273 0.653 -0.308 0.846 -4.062 14.981 -0.054 0.523 0.029 1.154 0.076 0.326 0.202 0.469 0.061 0.114 0.309 0.328 0.1 0.077 0.514 0.31" />
    <path class="write-flat-pen" fill="#FFFFFF" stroke-width="1.8" __comx="267.124" __comy="380.886" __timestamp="0x177ea3b53eb" d="M261.857 380.026 l0.139 -0.749 0.04 -0.095 0.197 -0.456 0.124 -0.226 0.787 -1.331 0.051 -0.069 0.981 -0.855 0.703 -0.326 0.29 0.004 0.185 0.138 0.274 0.739 0.005 1.486 -0.485 2.298 -2.397 5.571 -0.01 0.678 0.942 0.867 4.769 -0.373 2.167 0.164 0.22 0.062 0.059 0.014 0.337 0.122 0.102 0.029 1.896 0.379 0.15 -0.262 -1.289 -1.442 -0.108 -0.09 -0.403 -0.258 -0.157 -0.07 -0.44 -0.172 -2.528 -0.251 -4.916 0.409 0.942 0.867 -0.013 -0.325 2.285 -5.416 0.545 -2.638 -0.026 -1.965 -0.58 -1.477 -1.023 -0.704 -1.161 0.011 -1.228 0.596 -1.268 1.177 -0.19 0.299 -0.725 1.513 -0.138 0.392 -0.1 0.679 0.01 0.218 0.052 0.782" />
    <path class="write-flat-pen" fill="#FFFFFF" stroke-width="1.8" __comx="279.625" __comy="399.563" __timestamp="0x177ea3b5715" d="M270.32 397.728 l-0.422 0.211 -0.103 0.17 -0.164 -0.02 0.313 0.119 0.178 0.037 0.806 0.089 0.398 -0.006 2.388 -0.334 0.579 -0.094 2.868 -0.531 2.293 -0.045 0.676 0.17 0.696 0.484 0.384 0.616 0.25 1.016 -0.072 1.369 -0.505 1.764 -1.602 3.16 -5.673 8.445 -0.644 1.442 0.218 1.069 1.053 0.98 1.307 0.456 2.058 0.131 8.412 -1.45 0.402 -0.038 0.831 -0.076 0.314 -0.038 0.228 -0.045 2.003 -0.555 -0.008 -0.468 -2.021 -0.484 -0.245 -0.036 -0.342 -0.013 -0.862 0.01 -0.504 0.025 -8.3 1.379 -1.61 -0.1 -0.726 -0.252 -0.367 -0.338 0.007 0.043 0.344 -0.789 5.624 -8.421 1.72 -3.404 0.601 -2.112 0.09 -1.82 -0.382 -1.527 -0.718 -1.143 -1.243 -0.86 -1.202 -0.298 -2.661 0.07 -2.984 0.587 -0.554 0.101 -2.283 0.425 -0.249 0.029 -0.707 0.039 -0.112 0.012 -0.267 0.04 -0.203 -0.028 -0.161 0.2 0.005 1.065" />
    <path class="write-flat-pen" fill="#FFFFFF" stroke-width="1.8" __comx="279.398" __comy="405.491" __timestamp="0x177ea3b5806" d="M271.348 405.32 l-0.646 1.292 0.327 0.08 0.196 0.019 1.778 0.059 0.702 0.017 9.886 0.379 1.011 -0.188 0.991 -0.268 0.927 -0.385 1.573 -0.711 -0.071 -0.295 -1.724 0.086 -0.968 0.073 -0.958 0.095 -0.854 0.075 -9.766 -0.483 -0.738 -0.002 -1.789 0.059 -0.196 0.019 -0.327 0.08 0.646 1.292" />
    <path class="write-flat-pen" fill="#FFFFFF" stroke-width="1.8" __comx="102.861" __comy="467.192" __timestamp="0x177ea3b71a9" d="M102.364 462.642 l0.077 0.678 0.056 0.222 0.39 0.695 0.064 0.063 0.361 0.481 -0.024 -0.017 0.328 1.757 -0.008 0.137 -0.158 0.677 -0.124 0.145 -0.051 0.008 -0.228 -0.101 -0.503 -0.663 -0.399 -1.065 0.003 -0.292 -0.11 0.071 0.554 0.09 0.924 0.443 -0.02 -0.086 -0.181 0.703 -0.002 0.022 -0.044 0.205 -0.145 1.765 0.475 0.197 1.144 -1.352 0.105 -0.155 0.048 -0.091 0.423 -1.279 -0.332 -1.172 -1.864 -0.893 -1.457 -0.234 -1.266 0.796 -0.001 1.579 0.609 1.602 0.942 1.223 1.196 0.504 1.165 -0.316 0.712 -0.903 0.256 -1.217 0.013 -0.498 -0.535 -2.192 -0.219 -0.337 -0.626 -0.55 0 0.008 -0.353 -0.33 -0.031 -0.008 -0.275 -0.569" />
    <path class="write-flat-pen" fill="#FFFFFF" stroke-width="1.8" __comx="136.165" __comy="467.192" __timestamp="0x177ea3b7451" d="M128.393 459.426 l0.186 -0.407 -0.059 0.124 0.314 -0.059 0.148 -0.016 0.894 -0.131 0.299 -0.042 3.185 -0.553 0.373 -0.076 2.924 -0.393 0.711 0.135 0.455 0.47 0.345 1.002 0 0.991 -0.462 1.86 -1.086 2.597 -1.519 2.633 -3.795 4.705 -1.862 2.806 -0.319 1.275 0.745 1.14 1.843 0.255 5.222 -1.1 4.705 -0.5 0.261 0.022 0.611 0.091 0.058 0 1.943 0.103 0.141 -0.41 -1.594 -1.115 -0.121 -0.062 -0.74 -0.222 -0.526 -0.086 -5.002 0.454 -5.02 1.053 -0.76 -0.101 0.101 0.158 0.06 -0.253 1.639 -2.503 3.795 -4.77 1.622 -2.842 1.17 -2.81 0.539 -2.179 -0.004 -1.469 -0.561 -1.606 -1.074 -1.097 -1.48 -0.277 -3.241 0.458 -0.414 0.09 -3.145 0.673 -0.321 0.076 -0.953 0.302 -0.297 0.136 -0.468 0.384 -0.181 0.268 0.022 0.713" />
    <path class="write-flat-pen" fill="#FFFFFF" stroke-width="1.8" __comx="134.491" __comy="467.192" __timestamp="0x177ea3b7555" d="M127.96 466.793 l0.683 0.012 0.139 0.03 0.996 0.092 0.527 0.023 4.034 -0.053 3.027 -0.554 0.791 -0.218 0.65 -0.2 0.764 -0.341 1.554 -0.774 -0.036 -0.143 -1.735 0.064 -0.794 0.056 -0.662 0.037 -0.798 0.13 -2.903 0.43 -3.903 0.128 -0.505 0.016 -1.008 0.075 -0.203 0.034 -0.719 0.154" />
    <path class="write-flat-pen" fill="#FFFFFF" stroke-width="1.8" __comx="161.163" __comy="467.192" __timestamp="0x177ea3b76e0" d="M159.136 459.971 l-0.171 0.858 -0.011 0.278 0.121 1.075 0.12 0.517 1.431 6.173 0.123 0.892 1.078 6.43 0.06 0.105 0.652 0.923 0.557 -0.109 0.255 -1.101 0.021 -0.095 -1.013 -6.397 -0.137 -0.953 -1.573 -6.237 -0.139 -0.463 -0.225 -0.911 -0.031 -0.099 -0.012 -0.78" />
    <path class="write-flat-pen" fill="#FFFFFF" stroke-width="1.8" __comx="170.139" __comy="467.192" __timestamp="0x177ea3b77d7" d="M161.885 467.943 l-0.562 0.233 0.321 1.08 0.083 0.029 0.998 0.029 0.396 -0.022 11.294 -0.213 0.967 -0.015 0.983 -0.028 0.886 -0.087 1.69 -0.196 0.013 -0.246 -1.661 -0.369 -0.878 -0.178 -0.991 -0.11 -1 -0.069 -11.374 0.097 -0.422 0.048 -0.965 0.134 -0.077 0.037 0.321 1.08 0.48 -0.374" />
    <path class="write-flat-pen" fill="#FFFFFF" stroke-width="1.8" __comx="181.474" __comy="467.192" __timestamp="0x177ea3b79f9" d="M181.185 467.221 l-0.747 -0.181 0.03 -0.013 -0.39 -0.341 -0.029 -0.048 -0.956 -1.513 0 0 -0.112 -0.303 0 0 -1.508 -5.818 0 0 -1.607 0.533 0.574 1.447 1.575 2.331 1.761 1.851 2.307 1.815 1.974 1.093 1.453 0.381 0 0 1.212 -0.257 0 0 -0.745 -1.468 -1.55 1.385 -1.457 1.832 -1.112 2.078 -0.432 2.58 0.031 0.225 0.031 0.099 0.889 1.641 0.309 -0.044 0.394 -1.824 0.008 -0.06 0.015 0.039 0.411 -2.081 0.905 -1.704 1.262 -1.603 1.436 -1.294 -0.745 -1.468 0 0 -0.817 0.172 0 0 -0.855 -0.225 -1.666 -0.924 -2.101 -1.656 -1.58 -1.658 -1.396 -2.059 -0.515 -1.274 -1.607 0.533 0 0 1.601 5.891 0 0 0.225 0.554 0 0 1.245 1.715 0.255 0.229 0.663 0.353 0.265 0.098 0.975 0.017" />
    <path class="write-flat-pen" fill="#FFFFFF" stroke-width="1.8" __comx="214.42" __comy="467.192" __timestamp="0x177ea3b823f" d="M210.459 467.177 l-0.774 0.02 -0.163 0.421 -0.178 0.637 -0.039 0.259 -0.14 1.646 -0.019 0.423 0.076 2.912 0.442 2.309 0.936 2.107 1.295 1.636 1.372 0.825 1.665 0.325 2.674 -0.992 0.497 -0.427 0.355 -0.41 1.238 -1.493 -0.379 -0.435 -1.649 1.021 -0.422 0.267 -0.323 0.199 -2.096 0.646 -0.97 -0.209 -0.883 -0.539 -0.993 -1.251 -0.793 -1.754 -0.413 -2.011 -0.173 -2.747 -0.008 -0.369 -0.037 -1.618 -0.009 -0.205 -0.029 -0.545 -0.099 0.203 0.156 -0.131" />
    <path class="write-flat-pen" fill="#FFFFFF" stroke-width="1.8" __comx="211.323" __comy="467.192" __timestamp="0x177ea3b8308" d="M211.911 460.063 l-0.378 -0.399 -0.475 -0.218 -0.232 0.103 -0.092 0.645 0.484 0.52" />
    <path class="write-flat-pen" fill="#FFFFFF" stroke-width="1.8" __comx="238.407" __comy="470.462" __timestamp="0x177ea3b8c30" d="M239.709 451.969 l-0.675 -0.161 -0.23 0.078 -0.231 0.102 -0.233 0.137 -0.375 0.315 -0.271 0.272 -0.982 1.3 -0.402 0.641 -2.07 4.067 -1.228 3.412 -1.245 5.316 -0.465 4.792 -0.118 5.119 0.37 5.593 0.985 5.649 1.393 5.339 1.648 4.446 1.871 3.54 2.638 3.141 0.79 0.622 1.395 0.804 0.693 0.242 0.681 0.108 1.839 0.216 0.138 -0.42 -1.608 -0.918 -0.56 -0.3 -0.499 -0.257 -1.153 -0.775 -0.564 -0.482 -2.366 -2.928 -1.722 -3.294 -1.573 -4.263 -1.35 -5.188 -0.958 -5.488 -0.362 -5.424 0.114 -4.978 0.446 -4.615 1.187 -5.111 1.148 -3.227 1.942 -3.943 0.319 -0.552 0.808 -1.26 0.159 -0.224 0.217 -0.311 0.094 -0.135 0.032 -0.097 -0.155 0.045 0.424 -0.084" />
    <path class="write-flat-pen" fill="#FFFFFF" stroke-width="1.8" __comx="262.429" __comy="470.462" __timestamp="0x177ea3b8e55" d="M261.184 453.633 l-0.292 0.645 -0.048 0.234 -0.115 1.035 -0.01 0.518 0.51 9.11 0.987 6.258 0.219 0.516 0.148 0.336 0.22 0.334 1.113 1.481 0.224 -0.094 -0.285 -1.831 -0.064 -0.338 -0.065 -0.327 -0.118 -0.426 -0.847 -6.071 -0.643 -9.004 -0.027 -0.451 -0.049 -0.98 -0.023 -0.091 0.074 -0.583" />
    <path class="write-flat-pen" fill="#FFFFFF" stroke-width="1.8" __comx="275.22" __comy="470.462" __timestamp="0x177ea3b8f6f" d="M268.135 467.255 l0.861 -0.101 0.169 0.003 2.193 -0.083 0.674 -0.016 7.176 -0.552 0.848 -0.207 0.761 -0.232 1.712 -0.553 -0.049 -0.34 -1.798 -0.044 -0.815 -0.003 -0.817 0.093 -7.091 0.431 -0.678 0.033 -2.236 0.256 -0.254 0.055 -0.878 0.307" />
    <path class="write-flat-pen" fill="#FFFFFF" stroke-width="1.8" __comx="277.762" __comy="470.462" __timestamp="0x177ea3b905f" d="M275.68 459.415 l-0.202 1.179 -0.069 0.444 0.009 3.291 0.111 0.831 1.519 5.791 1.119 2.512 0.211 0.236 1.389 1.334 0.346 -0.228 -0.681 -1.801 -0.062 -0.178 -0.887 -2.357 -1.483 -5.605 -0.099 -0.659 -0.167 -3.122 0.009 -0.365 0.037 -1.192" />
    <path class="write-flat-pen" fill="#FFFFFF" stroke-width="1.8" __comx="294.814" __comy="470.462" __timestamp="0x177ea3b926e" d="M287.939 459.969 l-0.25 -0.293 -0.015 0.618 0.293 -0.052 0.098 -0.017 2.688 -0.424 3.124 -0.162 1.039 0.198 0.595 0.4 0.288 0.532 0.056 0.839 -0.446 1.699 -2.607 4.884 -1.369 3.247 -0.346 1.89 0.344 1.157 0.868 0.889 1.667 0.611 5.297 0.377 0.427 0.018 0.734 0.028 0.377 -0.005 0.341 -0.039 2.014 -0.362 0.023 -0.38 -1.954 -0.606 -0.325 -0.08 -0.352 -0.058 -0.729 -0.101 -0.431 -0.045 -5.05 -0.446 -1.083 -0.393 -0.305 -0.306 -0.115 -0.362 0.219 -1.315 1.22 -3.026 2.623 -5 0.538 -2.135 -0.117 -1.434 -0.645 -1.148 -1.167 -0.774 -1.526 -0.289 -3.398 0.188 -2.825 0.525 -0.301 0.089 -0.983 0.596 -0.024 0.747 0.877 0.546" />
    <path class="write-flat-pen" fill="#FFFFFF" stroke-width="1.8" __comx="295.267" __comy="470.462" __timestamp="0x177ea3b9355" d="M288.303 465.293 l0.799 0.714 0.308 0.171 2.495 0.766 2.987 0.429 4.054 0.072 0.772 -0.083 0.705 -0.163 1.806 -0.47 -0.028 -0.396 -1.855 -0.207 -0.705 -0.062 -0.703 -0.015 -3.91 -0.212 -2.805 -0.396 -2.301 -0.594 -0.081 -0.022 -0.779 -0.512" />
    <path class="write-flat-pen" fill="#FFFFFF" stroke-width="1.8" __comx="275.671" __comy="470.462" __timestamp="0x177ea3b94b1" d="M249.951 485.4 l-0.336 0.729 0.131 0.092 0.202 0.011 1.273 -0.15 0.701 -0.139 4.175 -0.874 1.421 -0.299 6.639 -1.302 5.961 -0.722 8.492 -0.51 15.77 -0.285 1.642 -0.034 1.549 -0.052 1.379 -0.088 1.329 -0.162 1.501 -0.2 0.003 -0.272 -1.496 -0.234 -1.331 -0.192 -1.385 -0.088 -1.55 -0.052 -1.651 -0.034 -15.817 0.157 -8.574 0.514 -6.064 0.751 -6.696 1.379 -1.435 0.327 -4.154 1.028 -0.674 0.191 -1.172 0.348 -0.134 0.053 -0.094 0.11 0.394 0.729" />
    <path class="write-flat-pen" fill="#FFFFFF" stroke-width="1.8" __comx="265.26" __comy="500.758" __timestamp="0x177ea3b9738" d="M264.633 489.833 l-1.404 0.196 0.085 0.56 0.081 0.318 0.916 3.567 1.059 5.878 0.371 4.576 0.063 4.68 0.357 1.825 0.306 0.038 0.8 -1.776 0.024 -4.832 -0.379 -4.712 -1.106 -6.016 -1.061 -3.63 -0.13 -0.334 -0.257 -0.503 -0.549 1.021" />
    <path class="write-flat-pen" fill="#FFFFFF" stroke-width="1.8" __comx="277.538" __comy="500.758" __timestamp="0x177ea3b9816" d="M271.366 499.9 l0.67 0.601 0.37 0.034 1.335 -0.096 0.528 -0.058 6.039 -0.463 0.799 -0.043 0.764 -0.084 1.819 -0.241 0.018 -0.38 -1.788 -0.416 -0.774 -0.159 -0.875 -0.066 -6.15 0.34 -0.569 0.083 -1.207 0.221 0.151 0.026 -0.433 -0.229" />
    <path class="write-flat-pen" fill="#FFFFFF" stroke-width="1.8" __comx="297.819" __comy="500.758" __timestamp="0x177ea3b9a33" d="M290.494 495.237 l0.35 -0.452 -0.025 0.053 0.865 -0.404 0.143 -0.049 2.414 -0.654 2.865 -0.313 1.179 0.144 0.56 0.329 0.398 0.614 0.152 0.882 -0.207 1.286 -3.989 8.145 -0.262 0.616 -1.142 3.457 0.083 1.496 0.918 0.769 1.691 0.228 4.628 -0.356 0.492 -0.045 1.343 -0.146 0.467 -0.064 0.419 -0.086 0.402 -0.128 1.827 -0.724 -0.032 -0.261 -1.948 -0.262 -0.404 -0.029 -0.387 -0.008 -0.451 -0.002 -1.352 0.044 -0.493 0.024 -4.455 0.278 -1.013 -0.132 0.047 0.043 -0.031 -0.414 0.988 -3.087 0.212 -0.512 3.986 -8.362 0.267 -1.786 -0.267 -1.454 -0.779 -1.185 -1.157 -0.678 -1.682 -0.202 -3.172 0.367 -2.593 0.785 -0.302 0.132 -0.954 0.651 -0.207 0.201 -0.311 0.746" />
    <path class="write-flat-pen" fill="#FFFFFF" stroke-width="1.8" __comx="297.795" __comy="500.758" __timestamp="0x177ea3b9b1a" d="M291.759 499.768 l-0.837 1.24 0.594 0.287 0.339 0.156 3.062 0.997 2.653 0.415 2.794 0.001 0.924 -0.11 0.919 -0.249 0.814 -0.271 1.647 -0.59 -0.049 -0.299 -1.749 -0.039 -0.876 0.003 -0.891 0.101 -0.786 0.032 -2.614 -0.09 -2.432 -0.404 -2.914 -0.882 -0.338 -0.124 -0.697 -0.141 0.436 1.24" />
    <path class="write-flat-pen" fill="#FFFFFF" stroke-width="1.8" __comx="321.52" __comy="463.952" __timestamp="0x177ea3b9d69" d="M311.207 455.715 l0.223 0.54 0.137 0.229 0.331 0.461 0.278 0.345 1.265 1.43 0.565 0.613 4.623 4.792 0.871 0.901 2.783 2.956 2.66 3.413 2.293 3.981 1.214 2.99 0.873 3.222 0.539 3.288 0.279 6.516 -0.252 3.12 -1.498 7.126 -0.422 1.214 -0.937 2.181 -0.546 1.037 -0.525 0.969 -0.531 0.967 -0.475 0.957 -0.704 1.469 0.209 0.144 1.121 -1.182 0.733 -0.799 0.681 -0.911 0.631 -0.944 0.658 -1.064 1.093 -2.245 0.518 -1.356 1.649 -7.313 0.293 -3.332 -0.266 -6.726 -0.567 -3.478 -0.922 -3.408 -1.3 -3.195 -2.419 -4.183 -2.794 -3.562 -2.868 -3.003 -0.888 -0.902 -4.692 -4.714 -0.579 -0.585 -1.364 -1.331 -0.332 -0.3 -0.453 -0.351 -0.154 -0.073 -0.346 -0.343" />
    <path class="write-flat-pen" fill="#FFFFFF" stroke-width="1.8" __comx="102.56" __comy="584.548" __timestamp="0x177ea3ba9e7" d="M103.596 586.49 l0.139 -0.673 -0.152 0.266 -0.158 0.123 -0.382 -0.271 -0.01 0.159 0.023 -0.241 -0.548 0.685 -0.025 0.012 -1.152 0.578 -0.461 0.058 0.061 0.037 0.006 0.018 0.292 -0.538 0.573 -0.502 0.812 -0.304 0.791 -0.012 0.636 0.31 0.128 0.16 0.017 -0.154 0.054 -0.041 -1.148 0.007 0.168 0.153 -1.213 -0.097 -0.189 0.243 0.394 1.152 0.246 0.214 2.305 0.094 1.038 -0.777 0.148 -1.322 -0.829 -1.032 -1.363 -0.665 -1.512 0.021 -1.397 0.522 -1.051 0.922 -0.705 1.315 0.173 1.289 1.127 0.798 1.435 -0.22 1.509 -0.818 0.334 -0.259 0.819 -1.262 0.063 -0.517 -0.4 -0.864 -0.433 -0.307 -0.873 0.252 -0.271 0.438 0.061 1.008" />
    <path class="write-flat-pen" fill="#FFFFFF" stroke-width="1.8" __comx="137.808" __comy="584.548" __timestamp="0x177ea3baccd" d="M130.58 578.132 l0.53 -0.324 0.082 -0.043 0.623 -0.348 0.137 -0.069 1.511 -0.651 0.362 -0.119 2.225 -0.522 2.136 -0.155 0.898 0.2 0.758 0.444 0.458 0.727 0.172 0.855 -0.219 1.285 -0.721 1.623 -1.543 2.167 -3.751 3.901 -2.27 2.903 -1.586 2.947 -1.081 3.042 -0.163 1.418 0.569 1.15 0.993 0.66 1.455 0.22 7.025 -0.987 3.922 -0.221 0.365 -0.009 0.657 -0.018 0.301 -0.023 0.087 -0.015 1.958 -0.504 0.008 -0.283 -1.925 -0.618 -0.084 -0.02 -0.299 -0.042 -0.669 -0.058 -0.425 -0.02 -4.053 0.135 -6.862 0.97 -0.846 -0.119 -0.312 -0.199 -0.158 -0.302 0.078 -0.741 0.965 -2.749 1.456 -2.716 2.131 -2.73 3.764 -3.939 1.698 -2.402 0.859 -1.959 0.291 -1.777 -0.298 -1.426 -0.825 -1.292 -1.306 -0.756 -1.366 -0.292 -2.49 0.214 -2.404 0.641 -0.498 0.194 -1.577 0.87 -0.213 0.161 -0.589 0.551 -0.085 0.112 -0.372 0.486" />
    <path class="write-flat-pen" fill="#FFFFFF" stroke-width="1.8" __comx="136.76" __comy="584.548" __timestamp="0x177ea3bade7" d="M128.272 587.52 l0.61 -0.606 -0.049 0.045 1.98 -0.211 0.735 0.001 10.836 0.174 1.012 -0.09 0.986 -0.19 1.742 -0.369 -0.02 -0.43 -1.77 -0.202 -0.994 -0.096 -0.968 -0.015 -10.816 -0.296 -0.86 0.018 -2.268 0.411 -0.375 0.206 -0.657 0.928" />
    <path class="write-flat-pen" fill="#FFFFFF" stroke-width="1.8" __comx="169.099" __comy="584.548" __timestamp="0x177ea3baf8c" d="M167.79 577.303 l-0.257 0.87 -0.055 0.297 -0.12 1.412 0.068 0.728 0.626 4.87 0.093 0.908 1.135 10.133 0.607 2.17 0.953 -0.153 -0.097 -2.214 -1.062 -10.102 -0.105 -0.933 -0.771 -4.868 -0.107 -0.615 -0.073 -1.28 -0.014 -0.206 0.072 -0.846" />
    <path class="write-flat-pen" fill="#FFFFFF" stroke-width="1.8" __comx="180.771" __comy="584.548" __timestamp="0x177ea3bb07f" d="M168.565 588.068 l0.591 0.668 0.371 0.127 2.205 0.185 0.821 -0.036 15.645 -1.946 1.111 -0.133 1.058 -0.145 1.035 -0.211 1.577 -0.36 -0.009 -0.183 -1.604 -0.207 -1.046 -0.111 -1.081 -0.058 -1.171 0.028 -15.645 1.808 -0.692 0.044 -1.981 -0.024 0.079 0.045 -0.458 -0.333" />
    <path class="write-flat-pen" fill="#FFFFFF" stroke-width="1.8" __comx="192.38" __comy="584.548" __timestamp="0x177ea3bb273" d="M191.979 584.453 l-1.036 -0.721 -0.173 -0.114 -0.932 -0.658 -0.168 -0.144 -1.807 -1.576 0.091 0.11 0.03 0.046 -0.172 0.221 0.561 -0.067 2.543 0.389 4.67 1.206 0.669 0.355 0.455 0.558 0.169 0.647 -0.469 2.894 -1.247 3.874 -0.089 1.797 0.081 0.22 1.086 1.531 0.484 -0.149 0.034 -1.877 0.036 0.073 0.111 -1.264 1.212 -3.8 0.514 -3.398 -0.382 -1.35 -0.912 -1.086 -1.139 -0.601 -4.945 -1.276 -2.864 -0.429 -1.434 0.197 -0.829 1.008 0.405 1.088 0.185 0.225 2.029 1.595 0.263 0.189 1.111 0.594 0.2 0.084 1.102 0.55" />
    <path class="write-flat-pen" fill="#FFFFFF" stroke-width="1.8" __comx="231.648" __comy="584.548" __timestamp="0x177ea3bb5c2" d="M223.656 578.144 l-0.888 0.498 -0.075 0.034 -0.298 0.069 0.2 -0.086 0.174 0.013 0.122 0.983 0.057 -0.005 0.42 -0.236 0.167 -0.08 2.56 -1.228 0.381 -0.138 2.294 -0.575 3.032 -0.362 0.66 0.113 0.368 0.275 0.235 0.478 -0.002 1.112 -0.712 2.434 -6.953 14.505 -0.12 0.384 -0.329 1.496 0.186 1.182 0.767 0.939 1.447 0.431 9.181 -2.467 0.502 -0.105 1.418 -0.297 0.41 -0.096 0.312 -0.095 0.305 -0.11 1.768 -0.811 -0.027 -0.197 -1.921 -0.306 -0.343 -0.022 -0.342 0.012 -0.429 0.038 -1.459 0.207 -0.578 0.101 -8.772 2.305 -0.448 -0.131 -0.122 -0.146 -0.062 -0.381 0.237 -1.096 0.059 -0.19 6.896 -14.547 0.8 -2.803 -0.016 -1.741 -0.594 -1.172 -1.002 -0.738 -1.281 -0.215 -3.372 0.409 -2.475 0.641 -0.545 0.206 -2.627 1.404 -0.274 0.182 -0.446 0.448 -0.05 0.095 0.122 0.983 0.257 0.058 0.352 -0.121 0.365 -0.35 0.078 -0.081 0.728 -0.707" />
    <path class="write-flat-pen" fill="#FFFFFF" stroke-width="1.8" __comx="230.76" __comy="584.548" __timestamp="0x177ea3bb6e7" d="M222.348 587.377 l0.728 0.155 0.175 0.042 0.986 0.128 0.479 0.032 2.718 -0.209 3.28 -0.797 4.825 -1.794 0.757 -0.306 0.647 -0.292 0.66 -0.366 1.569 -0.93 -0.108 -0.303 -1.804 0.27 -0.745 0.134 -0.686 0.186 -0.78 0.244 -4.785 1.673 -3.086 0.777 -2.511 0.288 -0.382 0.01 -0.966 0.042 -0.154 0.019 -0.733 0.028" />
    <path class="write-flat-pen" fill="#FFFFFF" stroke-width="1.8" __comx="242.377" __comy="584.548" __timestamp="0x177ea3bb91b" d="M237.245 563.433 l-0.295 -0.598 0.03 0.027 -0.046 -0.478 0.014 0.026 0.073 -0.662 0.02 -0.011 0.856 -1.114 0.045 -0.024 0.876 -0.364 1.008 -0.102 0.969 0.253 0.694 0.469 0.559 0.83 0.297 1.152 -0.049 1.42 -0.501 1.405 -2.459 3.647 -0.246 1.445 0.973 0.978 1.745 0.212 4.434 -0.788 0.358 -0.067 0.334 -0.07 0.313 -0.089 1.894 -0.717 -0.035 -0.381 -1.994 -0.355 -0.338 -0.028 -0.375 0.009 -0.41 0.036 -4.224 0.682 -0.894 -0.105 0.082 0.087 0.027 -0.195 2.358 -3.525 0.653 -1.862 0.054 -1.931 -0.447 -1.666 -0.916 -1.326 -1.203 -0.797 -1.536 -0.384 -1.547 0.182 -1.233 0.559 -0.397 0.286 -1.044 1.623 -0.105 0.443 0.078 0.959 0.037 0.163 0.308 0.607 0.072 0.098 0.504 0.504" />
  </g>
</svg>
