<svg class="write-page" color-interpolation="linearRGB" width="982px" height="1584px" xmlns="http://www.w3.org/2000/svg" xmlns:xlink="http://www.w3.org/1999/xlink">
  <g class="write-content write-v3" width="982" height="1584" xruling="30" yruling="30" marginLeft="30" papercolor="#000000" rulecolor="#0D9D00FF">
    <g class="ruleline write-std-ruling write-scale-down" fill="none" stroke="#9D00FF" stroke-opacity="0.051" stroke-width="1" shape-rendering="crispEdges" vector-effect="non-scaling-stroke">
      <rect class="pagerect" fill="#000000" stroke="none" x="0" y="0" width="982" height="1584" />
      <path class="yrule_1" d="M0 30 l982 0" />
      <path d="M0 60 l982 0" />
      <path d="M0 90 l982 0" />
      <path d="M0 120 l982 0" />
      <path d="M0 150 l982 0" />
      <path d="M0 180 l982 0" />
      <path d="M0 210 l982 0" />
      <path d="M0 240 l982 0" />
      <path d="M0 270 l982 0" />
      <path d="M0 300 l982 0" />
      <path d="M0 330 l982 0" />
      <path d="M0 360 l982 0" />
      <path d="M0 390 l982 0" />
      <path d="M0 420 l982 0" />
      <path d="M0 450 l982 0" />
      <path d="M0 480 l982 0" />
      <path d="M0 510 l982 0" />
      <path d="M0 540 l982 0" />
      <path d="M0 570 l982 0" />
      <path d="M0 600 l982 0" />
      <path d="M0 630 l982 0" />
      <path d="M0 660 l982 0" />
      <path d="M0 690 l982 0" />
      <path d="M0 720 l982 0" />
      <path d="M0 750 l982 0" />
      <path d="M0 780 l982 0" />
      <path d="M0 810 l982 0" />
      <path d="M0 840 l982 0" />
      <path d="M0 870 l982 0" />
      <path d="M0 900 l982 0" />
      <path d="M0 930 l982 0" />
      <path d="M0 960 l982 0" />
      <path d="M0 990 l982 0" />
      <path d="M0 1020 l982 0" />
      <path d="M0 1050 l982 0" />
      <path d="M0 1080 l982 0" />
      <path d="M0 1110 l982 0" />
      <path d="M0 1140 l982 0" />
      <path d="M0 1170 l982 0" />
      <path d="M0 1200 l982 0" />
      <path d="M0 1230 l982 0" />
      <path d="M0 1260 l982 0" />
      <path d="M0 1290 l982 0" />
      <path d="M0 1320 l982 0" />
      <path d="M0 1350 l982 0" />
      <path d="M0 1380 l982 0" />
      <path d="M0 1410 l982 0" />
      <path d="M0 1440 l982 0" />
      <path d="M0 1470 l982 0" />
      <path d="M0 1500 l982 0" />
      <path d="M0 1530 l982 0" />
      <path d="M0 1560 l982 0" />
      <path class="xrule_1" d="M30 0 l0 1584" />
      <path d="M60 0 l0 1584" />
      <path d="M90 0 l0 1584" />
      <path d="M120 0 l0 1584" />
      <path d="M150 0 l0 1584" />
      <path d="M180 0 l0 1584" />
      <path d="M210 0 l0 1584" />
      <path d="M240 0 l0 1584" />
      <path d="M270 0 l0 1584" />
      <path d="M300 0 l0 1584" />
      <path d="M330 0 l0 1584" />
      <path d="M360 0 l0 1584" />
      <path d="M390 0 l0 1584" />
      <path d="M420 0 l0 1584" />
      <path d="M450 0 l0 1584" />
      <path d="M480 0 l0 1584" />
      <path d="M510 0 l0 1584" />
      <path d="M540 0 l0 1584" />
      <path d="M570 0 l0 1584" />
      <path d="M600 0 l0 1584" />
      <path d="M630 0 l0 1584" />
      <path d="M660 0 l0 1584" />
      <path d="M690 0 l0 1584" />
      <path d="M720 0 l0 1584" />
      <path d="M750 0 l0 1584" />
      <path d="M780 0 l0 1584" />
      <path d="M810 0 l0 1584" />
      <path d="M840 0 l0 1584" />
      <path d="M870 0 l0 1584" />
      <path d="M900 0 l0 1584" />
      <path d="M930 0 l0 1584" />
      <path d="M960 0 l0 1584" />
      <path class="leftmargin" stroke="#FF0000" d="M30 0 l0 1584" />
    </g>
    <path class="write-flat-pen" fill="#FFFFFF" stroke-width="1.8" __comx="82.068" __comy="51.474" __timestamp="0x177e9da0085" d="M86.578 33.776 l0.404 -0.836 0.09 -0.196 0.262 -0.618 0.085 -0.227 0.134 -0.436 0.055 -0.242 0.081 -0.58 0.003 -0.224 -0.031 -0.435 -0.08 -0.328 -0.226 -0.524 -0.159 -0.225 -0.456 -0.494 -0.257 -0.193 -0.859 -0.434 -0.405 -0.114 -1.208 -0.165 -1.645 0.262 -1.936 0.706 -2.299 1.301 -1.659 1.273 -2.48 2.46 -1.545 1.945 -1.306 2.137 -1.084 2.284 -0.827 2.406 -0.443 2.366 -0.18 3.455 0.194 2.246 0.579 2.088 0.887 1.85 1.26 1.636 1.722 1.295 2.041 0.854 2.037 0.404 2.149 0.121 2.169 -0.248 2.276 -0.545 3.288 -1.25 4.696 -2.471 0.719 -0.441 1.131 -0.786 0.464 -0.384 0.381 -0.357 0.274 -0.345 0.157 -0.323 0.499 -1.254 -0.317 -0.27 -1.157 0.694 -0.26 0.168 -0.252 0.191 -0.335 0.245 -0.417 0.297 -1.078 0.69 -0.648 0.379 -4.576 2.364 -3.088 1.17 -2.063 0.495 -1.913 0.219 -1.877 -0.106 -1.743 -0.346 -1.675 -0.702 -1.356 -1.02 -1.003 -1.3 -0.743 -1.542 -0.497 -1.782 -0.172 -1.963 0.167 -3.217 0.399 -2.126 0.755 -2.192 1.002 -2.113 1.202 -1.967 1.415 -1.778 2.33 -2.306 1.475 -1.13 2.067 -1.172 1.644 -0.609 1.236 -0.215 0.854 0.086 0.154 0.032 0.621 0.25 0.049 0.022 0.345 0.281 0.033 0.02 0.184 0.259 0.061 0.108 0.088 0.264 0.026 0.098 0.05 0.474 0.007 0.169 -0.014 0.396 -0.018 0.197 -0.093 0.634 -0.034 0.184 -0.244 0.88" />
    <path class="write-flat-pen" fill="#FFFFFF" stroke-width="1.8" __comx="103.936" __comy="51.474" __timestamp="0x177e9da02ae" d="M103.539 47.296 l0.059 -0.439 0.035 -0.069 0.069 -0.185 0.02 -0.155 -0.004 -0.296 -0.04 -0.153 -0.101 -0.255 -0.133 -0.21 -0.262 -0.285 -0.266 -0.181 -0.721 -0.288 -0.485 -0.068 -1.859 0.452 -0.504 0.32 -0.973 0.997 -0.523 0.995 -0.413 1.736 -0.046 1.9 0.201 1.306 0.652 1.768 0.945 1.447 0.953 0.817 1.116 0.477 1.27 0.219 1.403 -0.194 1.41 -0.581 1.387 -0.97 1.668 -1.72 1.261 -1.991 0.516 -1.406 0.309 -1.898 -0.062 -1.256 -0.408 -1.193 -0.732 -1.077 -1.02 -0.858 -1.069 -0.52 -1.709 -0.37 -1.551 0.303 -0.453 0.238 -0.617 0.488 -0.27 0.338 -0.189 0.316 -0.149 0.345 -0.096 0.331 -0.052 0.332 0.01 0.317 0.131 1.277 0.238 0.057 0.698 -1.077 0.143 -0.236 0.116 -0.204 0.116 -0.185 0.13 -0.183 0.126 -0.146 0.122 -0.113 0.396 -0.257 0.122 -0.05 0.985 -0.148 1.165 0.277 0.684 0.345 0.664 0.571 0.459 0.685 0.25 0.734 0.041 0.821 -0.249 1.548 -0.392 1.07 -1.062 1.679 -1.423 1.472 -1.089 0.766 -1.023 0.426 -0.912 0.129 -0.8 -0.136 -0.682 -0.291 -0.563 -0.48 -0.706 -1.072 -0.53 -1.419 -0.157 -0.983 0.028 -1.568 0.313 -1.355 0.304 -0.593 0.655 -0.693 0.112 -0.076 1.292 -0.369 0.02 -0.008 0.435 0.106 0.022 -0.007 0.112 0.056 0.035 0.007 0.07 0.048 0.006 -0.03 0.089 0.114 0.039 0.04 0.077 0.133 0.035 0.057 0.059 0.439" />
    <path class="write-flat-pen" fill="#FFFFFF" stroke-width="1.8" __comx="122.112" __comy="51.474" __timestamp="0x177e9da04a0" d="M112.569 45.065 l-0.096 0.564 -0.025 0.082 -0.051 0.262 -0.008 0.239 0.059 0.563 0.076 0.355 0.176 0.75 0.104 0.459 0.529 1.702 0.177 0.567 0.914 3.196 0.157 0.618 0.79 4.319 0.499 1 1.351 0.097 0.583 -1.528 0.431 -5.609 0.412 -2.721 0.671 -2.355 0.567 -1.32 0.495 -0.736 0.415 -0.345 0.198 -0.051 0.22 0.093 0.531 0.668 0.625 1.481 1.803 6.181 1.615 4.595 1.127 1.986 1.293 1.336 0.405 0.249 0.392 0.186 0.422 0.146 0.456 0.099 0.464 0 1.382 -0.08 0.106 -0.46 -1.207 -0.679 -0.353 -0.189 -0.303 -0.15 -0.276 -0.148 -0.244 -0.15 -0.16 -0.12 -0.976 -1.073 -0.94 -1.674 -1.546 -4.407 -1.818 -6.232 -0.756 -1.794 -0.956 -1.203 -1.171 -0.495 -1.148 0.294 -0.909 0.755 -0.725 1.079 -0.673 1.574 -0.726 2.57 -0.435 2.893 -0.42 5.423 -0.033 0.094 0.912 0.066 0.046 0.099 -0.786 -4.133 -0.187 -0.7 -0.985 -3.227 -0.201 -0.588 -0.581 -1.636 -0.126 -0.422 -0.258 -0.747 -0.11 -0.29 -0.145 -0.419 -0.04 -0.116 -0.057 -0.192 -0.021 -0.044 -0.029 -0.554" />
    <path class="write-flat-pen" fill="#FFFFFF" stroke-width="1.8" __comx="145.824" __comy="51.474" __timestamp="0x177e9da0758" d="M145.752 59.674 l-0.372 0.67 -0.046 0.084 -0.166 0.216 0.057 -0.099 0.09 -0.117 0.341 -0.091 0.307 0.161 0.088 0.096 -0.051 -0.414 -0.032 -0.395 -0.132 -1.864 -0.051 -0.797 -0.502 -4.825 -0.154 -1.048 -0.371 -2.176 -0.878 -3.312 -1.498 -4.131 -2.587 -5.501 -0.789 -2.142 -0.369 -1.684 -0.109 -1.577 0.123 -0.625 0.289 -0.538 0.471 -0.442 0.87 -0.382 1.901 -0.363 2.987 -0.157 2.315 0.136 1.646 0.336 1.423 0.536 1.527 1.196 0.25 0.305 0.534 0.867 0.182 0.446 0.201 0.523 0.139 0.506 0.126 0.517 0.121 0.552 0.174 0.572 0.385 1.192 0.333 -0.021 0.233 -1.231 0.1 -0.612 0.004 -0.625 -0.049 -0.603 -0.096 -0.639 -0.184 -0.646 -0.202 -0.616 -0.616 -1.119 -0.428 -0.562 -1.867 -1.52 -1.804 -0.689 -1.904 -0.391 -2.535 -0.15 -3.202 0.168 -2.21 0.419 -1.324 0.578 -0.899 0.842 -0.547 1.022 -0.215 1.107 0.134 1.933 0.423 1.925 0.862 2.322 2.588 5.495 1.448 3.984 0.847 3.162 0.366 2.081 0.153 0.995 0.555 4.756 0.064 0.778 0.199 1.9 0.081 0.502 0.209 0.671 0.229 0.343 0.445 0.25 0.453 -0.112 0.24 -0.231 0.1 -0.157 0.111 -0.418 0.017 -0.096 0.221 -0.695" />
    <path class="write-flat-pen" fill="#FFFFFF" stroke-width="1.8" __comx="145.657" __comy="51.474" __timestamp="0x177e9da0843" d="M136.962 46.882 l0.359 -0.379 -0.165 0.069 0.437 -0.028 0.166 -0.011 1.366 -0.051 0.396 -0.019 11.362 -1.37 0.839 -0.143 0.817 -0.12 0.804 -0.139 0.828 -0.231 1.123 -0.321 -0.026 -0.375 -1.156 -0.166 -0.862 -0.115 -0.833 0 -0.86 0.039 -0.863 0.088 -11.319 1.31 -0.36 0.033 -1.407 0.151 -0.232 0.044 -0.549 0.141 -0.296 0.114 -0.513 0.752" />
    <path class="write-flat-pen" fill="#FFFFFF" stroke-width="1.8" __comx="167.271" __comy="51.474" __timestamp="0x177e9da0c85" d="M165.967 44.789 l-0.607 0.198 -0.141 0.112 -0.157 0.138 -0.106 0.12 -0.243 0.303 -0.117 0.159 -0.481 0.733 -0.151 0.235 -2.418 3.799 -0.196 0.432 -0.446 1.199 -0.3 1.827 0.118 1.498 0.557 1.441 0.998 1.228 0.923 0.621 1.601 0.492 1.362 -0.049 1.995 -0.61 1.894 -1.145 1.143 -1.021 1.381 -1.745 0.921 -1.752 0.323 -1.216 0.122 -1.787 -0.451 -1.653 -0.698 -1.105 -1.026 -0.981 -1.612 -1.015 -1.372 -0.542 -1.57 -0.313 -1.273 0.118 -1.153 0.645 -0.232 0.245 -0.23 0.376 -0.085 0.207 -0.028 0.201 0.002 1.282 0.263 0.113 0.929 -0.884 0.097 -0.09 0.049 -0.033 0.166 -0.156 0 0.018 0.691 -0.321 0.711 -0.054 1.189 0.243 1.081 0.437 1.321 0.86 0.741 0.73 0.443 0.717 0.304 1.127 -0.091 1.331 -0.23 0.868 -0.754 1.44 -1.187 1.505 -0.912 0.818 -1.573 0.958 -1.577 0.487 -0.853 0.034 -1.089 -0.328 -0.509 -0.337 -0.681 -0.823 -0.386 -0.964 -0.098 -1.057 0.22 -1.477 0.36 -1.001 0.125 -0.283 2.295 -3.759 0.148 -0.259 0.406 -0.772 0.09 -0.179 0.158 -0.383 0.025 -0.113 -0.024 -0.054 -0.11 0.082 0.386 -0.208" />
    <path class="write-flat-pen" fill="#FFFFFF" stroke-width="1.8" __comx="187.066" __comy="51.474" __timestamp="0x177e9da0ec7" d="M179.115 44.893 l0.294 0.695 0.102 0.276 0.269 0.663 0.172 0.416 0.417 1.017 0.219 0.565 0.873 2.59 0.193 0.638 0.633 3.124 0.057 0.505 0.271 2.624 0.037 0.19 -0.006 -0.03 1.641 -0.21 -0.157 -4.726 -0.003 -0.495 0.215 -2.054 0.61 -1.955 0.736 -1.658 0.727 -1.089 0.65 -0.645 0.354 -0.199 0.552 -0.06 0.813 0.282 1.054 0.732 0.351 0.31 0.816 0.77 0.431 0.401 0.431 0.382 0.444 0.374 0.489 0.374 0.486 0.343 0.541 0.304 1.058 0.56 0.135 -0.15 -0.665 -0.995 -0.353 -0.503 -0.372 -0.451 -0.392 -0.451 -0.369 -0.421 -0.374 -0.419 -0.388 -0.435 -0.787 -0.849 -0.432 -0.421 -1.301 -0.972 -1.396 -0.519 -1.303 0.123 -0.879 0.49 -0.942 0.937 -0.903 1.361 -0.832 1.888 -0.682 2.216 -0.241 2.317 0.004 0.618 0.215 4.752 1.641 -0.21 -0.006 -0.03 -0.015 -0.048 -0.328 -2.542 -0.079 -0.579 -0.741 -3.244 -0.24 -0.725 -0.984 -2.618 -0.274 -0.606 -0.513 -1.014 -0.236 -0.418 -0.395 -0.617 -0.172 -0.243 -0.406 -0.636" />
    <path class="write-flat-pen" fill="#FFFFFF" stroke-width="1.8" __comx="209.946" __comy="51.474" __timestamp="0x177e9da1267" d="M197.166 46.071 l-0.06 0.419 -0.031 0.077 -0.069 0.294 -0.014 0.264 0.046 0.323 0.041 0.311 0.198 0.854 0.15 0.531 0.51 1.673 0.188 0.565 0.988 4.051 0.126 0.589 0.491 4.621 0 0 0.011 0.094 0 0 1.645 -0.19 -0.385 -5.294 -0.027 -3.159 0.292 -1.856 0.521 -1.788 1.035 -2.428 0.872 -1.436 0.396 -0.416 -0.197 0.037 0.027 0.019 0.34 0.65 0.37 1.287 1.383 10.393 0.374 1.651 0.502 0.777 0.962 0.369 0.911 -0.457 0.824 -1.516 1.337 -4.853 1.142 -3.314 1.021 -2.235 0.697 -1.146 -1.048 -0.007 1.24 9.638 0.692 3.766 0.567 1.691 0.678 1.236 0.968 0.866 1.301 0.475 1.46 -0.185 0.501 -0.201 0.476 -0.261 0.401 -0.289 0.402 -0.351 0.394 -0.434 0.325 -0.444 0.251 -0.483 0.502 -1.084 -0.114 -0.1 -1.012 0.635 -0.424 0.284 -0.389 0.268 -0.411 0.264 -0.368 0.218 -0.318 0.169 -0.345 0.145 -0.242 0.072 -0.872 0.06 -0.619 -0.244 -0.505 -0.459 -0.461 -0.847 -0.479 -1.432 -0.665 -3.601 -1.443 -11.055 -1.397 -0.011 -1.234 2.065 -1.089 2.398 -1.182 3.438 -1.326 4.704 -0.484 0.868 0.243 -0.123 0.267 0.102 -0.034 -0.052 -0.292 -1.278 -1.399 -10.438 -0.448 -1.575 -0.619 -1.187 -0.967 -0.656 -1.04 0.194 -0.905 0.952 -1.028 1.7 -1.12 2.635 -0.578 1.99 -0.329 2.102 0.031 3.357 0.43 5.348 1.645 -0.19 0 0 -0.013 -0.06 0 0 -0.565 -4.662 -0.157 -0.693 -1.093 -4.119 -0.226 -0.608 -0.588 -1.63 -0.187 -0.499 -0.293 -0.774 -0.101 -0.28 -0.106 -0.229 -0.051 -0.131 -0.085 -0.244 -0.031 -0.065 -0.06 -0.419" />
    <path class="write-flat-pen" fill="#FFFFFF" stroke-width="1.8" __comx="230.98" __comy="51.474" __timestamp="0x177e9da14c8" d="M230.471 51.16 l0.068 -0.715 0.007 -0.034 0.054 -0.341 0 -0.09 -0.021 -0.432 -0.081 -0.259 -0.372 -0.648 -0.324 -0.281 -1.667 -0.531 -0.53 -0.01 -1.129 0.292 -0.975 0.695 -0.802 1.056 -0.458 1.21 -0.266 1.784 0.019 1.574 0.488 2.223 0.5 1.085 0.753 0.77 1.261 0.393 1.523 -0.433 1.482 -1.112 1.198 -1.567 1.131 -2.172 0 0 0.925 -2.69 0 0 -1.638 -0.189 0.302 2.943 0.379 1.759 0.757 1.795 0.783 1.048 1.209 0.616 0.546 0.015 0.437 -0.084 0.411 -0.163 0.361 -0.235 0.34 -0.317 0.259 -0.379 0.583 -1.011 -0.101 -0.119 -1.093 0.41 -0.36 0.147 -0.292 0.098 -0.226 0.048 -0.206 0.023 -0.169 -0.004 -0.036 -0.021 -0.539 -0.323 -0.432 -0.59 -0.618 -1.463 -0.327 -1.513 -0.289 -2.851 -1.638 -0.189 0 0 -0.889 2.569 0 0 -1.008 1.927 -0.97 1.262 -1.043 0.782 -0.733 0.21 -0.37 -0.112 -0.252 -0.254 -0.307 -0.653 -0.428 -1.875 -0.028 -1.271 0.205 -1.481 0.304 -0.827 0.504 -0.676 0.529 -0.384 0.628 -0.171 0.094 -0.002 1.179 0.305 -0.076 -0.075 0.237 0.275 0.003 -0.031 0.084 0.24 0.008 0.003 0.067 0.284 0.007 0.022 0.068 0.715" />
    <path class="write-flat-pen" fill="#FFFFFF" stroke-width="1.8" __comx="240.534" __comy="51.474" __timestamp="0x177e9da15bc" d="M236.892 35.299 l0.527 0.207 -0.086 -0.049 0.164 0.352 0.093 0.274 0.488 1.586 0.187 0.679 1.212 6.997 0.109 1.155 0.929 7.945 0.571 2.885 0.219 0.576 0.48 0.866 0.293 0.366 0.324 0.293 0.305 0.142 1.224 0.448 0.245 -0.306 -0.707 -1.095 -0.124 -0.2 -0.133 -0.203 -0.133 -0.231 -0.322 -0.708 -0.12 -0.37 -0.478 -2.714 -0.913 -7.872 -0.118 -1.205 -1.304 -7.135 -0.238 -0.787 -0.593 -1.637 -0.189 -0.414 -0.393 -0.559 -0.312 -0.264 -0.868 -0.197" />
    <path class="write-flat-pen" fill="#FFFFFF" stroke-width="1.8" __comx="292.885" __comy="51.474" __timestamp="0x177e9da1b01" d="M281.655 58.253 l-0.094 0.396 0.583 0.412 0.018 0.044 0.14 -0.012 0.169 -0.128 0.07 -0.044 0.111 -0.08 0.174 -0.204 0.083 -0.115 0.132 -0.177 0.122 -0.215 0.271 -0.541 0.123 -0.306 0.328 -0.803 0.143 -0.449 0.618 -1.659 0.219 -0.641 3.424 -8.902 1.131 -3.578 0.836 -3.636 0.439 -3.071 -1.386 -0.755 -0.91 1.382 -0.551 1.668 -0.536 2.804 -0.199 2.991 0.186 2.249 0.621 3.171 0.524 1.523 0.62 1.056 0.891 0.727 0.965 0.345 1.19 -0.113 1.148 -0.581 1.1 -0.951 1.475 -1.763 1.39 -2.081 0 0 1.587 -2.88 0 0 4.559 -9.424 0 0 -1.608 -0.749 -0.424 0.946 -0.747 2.845 -0.371 2.391 -0.439 6.44 -0.153 6.681 0.152 1.764 0.383 1.322 0.747 1.278 0.239 0.255 0.431 0.334 0.282 0.154 0.278 0.112 0.327 0.077 0.306 0.008 1.35 -0.15 0.086 -0.282 -1.039 -0.875 -0.203 -0.146 -0.166 -0.115 -0.122 -0.09 -0.099 -0.081 -0.22 -0.209 -0.022 -0.032 -0.525 -0.938 -0.273 -0.949 -0.129 -1.494 0.145 -6.544 0.428 -6.324 0.344 -2.225 0.689 -2.615 0.364 -0.813 -1.608 -0.749 0 0 -4.539 9.382 0 0 -1.526 2.774 0 0 -1.294 1.938 -1.322 1.58 -0.827 0.716 -0.656 0.333 -0.464 0.045 -0.308 -0.109 -0.41 -0.333 -0.371 -0.629 -0.427 -1.24 -0.58 -2.955 -0.166 -2.02 0.184 -2.752 0.495 -2.584 0.443 -1.336 -0.113 0.172 -1.122 -0.611 -0.255 1.781 -0.802 3.495 -1.09 3.462 -3.391 8.898 -0.216 0.662 -0.586 1.702 -0.121 0.446 -0.261 0.785 -0.083 0.288 -0.166 0.512 -0.046 0.16 -0.073 0.193 -0.034 0.133 -0.018 0.135 -0.02 0.09 0.001 0.059 0.095 -0.042 0.08 0.013 -0.004 0.055 0.583 0.412 0.006 -0.407" />
    <path class="write-flat-pen" fill="#FFFFFF" stroke-width="1.8" __comx="314.333" __comy="51.474" __timestamp="0x177e9da1d6c" d="M316.661 52.028 l0.043 -0.599 0.019 -0.108 0.038 -0.339 0.007 -0.163 0.001 -0.444 -0.009 -0.172 -0.04 -0.53 -0.025 -0.21 -0.147 -0.671 -0.125 -0.333 -0.917 -0.971 -0.446 -0.218 -1.221 -0.305 -1.443 0.166 -0.971 0.517 -1.216 1.288 -0.638 1.169 -0.557 1.703 -0.397 2.465 -0.026 1.697 0.289 1.734 0.524 1.031 0.88 0.707 1.243 0.259 1.385 -0.411 0.915 -0.596 1.164 -1.21 0.884 -1.406 0 0 1.335 -3.063 0 0 -1.606 -0.063 0.1 0.281 0.053 3.403 0.37 1.844 1.132 2.473 0.226 0.306 0.395 0.461 0.207 0.203 0.23 0.193 0.211 0.113 1.318 0.527 0.235 -0.257 -0.642 -1.266 -0.088 -0.16 -0.119 -0.181 -0.128 -0.181 -0.298 -0.43 -0.096 -0.152 -0.941 -2.173 -0.299 -1.504 -0.049 -3.522 -0.185 -0.544 -1.606 -0.063 0 0 -1.285 2.944 0 0 -0.719 1.149 -0.903 0.943 -0.54 0.355 -0.731 0.22 -0.42 -0.084 -0.276 -0.218 -0.242 -0.471 -0.228 -1.325 0.015 -1.423 0.348 -2.216 0.466 -1.432 0.46 -0.845 0.881 -0.933 0.454 -0.244 0.838 -0.106 0.774 0.171 0.045 0.015 0.554 0.497 -0.008 -0.042 0.185 0.507 0.038 0.129 0.132 0.494 0.04 0.141 0.108 0.399 0.038 0.133 0.092 0.299 0.028 0.079 0.076 0.585" />
    <path class="write-flat-pen" fill="#FFFFFF" stroke-width="1.8" __comx="328.234" __comy="51.474" __timestamp="0x177e9da1fa7" d="M325.05 70.921 l-0.169 0.96 -0.033 0.165 -0.103 0.489 -0.009 -0.059 -0.013 0.09 1.208 -0.296 0.133 0.122 0.025 0.1 0.024 -0.866 -0.002 -0.511 -0.351 -4.157 -0.087 -0.832 -1.425 -6.818 -0.39 -2.962 -0.074 -2.059 0.135 -1.244 0.408 -1.303 0.462 -0.795 0.77 -0.825 0.797 -0.548 0.955 -0.406 1.452 -0.29 1.547 -0.031 0.856 0.184 0.634 0.345 0.448 0.476 0.28 0.672 0.081 0.894 -0.243 1.13 -0.561 1.296 -0.763 1.133 -0.911 0.867 -0.994 0.55 -0.899 0.265 -1.577 0.06 0.147 0.067 0.078 0.045 0.008 0.049 0.067 0.154 -0.066 0.057 -0.669 -0.58 -0.31 0.062 -0.394 0.793 -0.019 0.29 0.17 0.302 0.258 0.274 0.162 0.087 0.235 0.106 2.18 -0.027 1.305 -0.38 1.361 -0.75 1.212 -1.155 0.96 -1.425 0.694 -1.602 0.336 -1.559 -0.128 -1.426 -0.504 -1.216 -0.858 -0.914 -1.103 -0.602 -1.304 -0.28 -1.908 0.039 -1.781 0.36 -1.282 0.549 -1.096 0.762 -1.025 1.115 -0.65 1.137 -0.496 1.655 -0.149 1.532 0.103 2.257 0.428 3.097 1.442 6.795 0.085 0.739 0.417 4.082 0.019 0.452 0.055 0.895 0.04 0.335 0.164 0.164 1.208 -0.296 -0.013 0.09 0.005 -0.16 -0.016 -0.527 -0.001 -0.159 0.03 -0.971" />
    <path class="write-flat-pen" fill="#FFFFFF" stroke-width="1.8" __comx="343.114" __comy="51.474" __timestamp="0x177e9da2154" d="M343.293 46.293 l-0.307 -0.477 -0.05 -0.087 -0.099 -0.181 -0.133 -0.163 -0.362 -0.31 -0.17 -0.111 -0.518 -0.28 -0.283 -0.105 -0.959 -0.21 -0.432 0.022 -0.901 0.232 -0.823 0.577 -0.523 0.789 -0.104 0.955 0.478 0.886 0.951 0.672 4.464 1.343 1.786 0.745 0.727 0.492 0.59 0.68 0.234 0.573 0.058 0.646 -0.142 0.527 -0.333 0.443 -0.626 0.391 -1.005 0.247 -1.165 0.02 -1.495 -0.3 -0.338 -0.074 -0.368 -0.115 -0.214 -0.052 -0.274 -0.085 -0.208 -0.06 -0.25 -0.057 -1.312 -0.215 -0.115 0.191 0.806 1.058 0.196 0.211 0.221 0.171 0.349 0.216 0.269 0.113 0.411 0.175 0.444 0.131 1.711 0.395 1.556 -0.023 1.461 -0.366 1.123 -0.72 0.702 -0.973 0.277 -1.131 -0.129 -1.176 -0.438 -1.039 -0.908 -1.037 -1.038 -0.701 -2.015 -0.839 -4.295 -1.284 -0.429 -0.3 -0.064 -0.113 0.004 -0.074 0.138 -0.224 0.342 -0.261 0.475 -0.152 0.095 -0.016 0.7 0.077 0.128 0.024 0.437 0.141 0.09 0.03 0.299 0.128 0.075 0.032 0.166 0.102 0.066 0.025 0.369 0.356" />
    <path class="write-stroke-pen" fill="none" stroke="#FFFFFF" stroke-width="1.8" stroke-linecap="round" stroke-linejoin="round" __comx="214.229" __comy="51.474" __timestamp="0x177e9da2ada" d="M54.052 72.623 l320.355 -6.272" />
  </g>
</svg>
