<svg class="write-page" width="1010px" height="4545px" xmlns="http://www.w3.org/2000/svg" xmlns:xlink="http://www.w3.org/1999/xlink">
  <g class="write-content write-v3" width="1010" height="4545" xruling="30" yruling="30" marginLeft="30" papercolor="#1B1C1C" rulecolor="#3A00F9FF">
    <g class="ruleline write-std-ruling write-scale-down" fill="none" stroke="#00F9FF" stroke-opacity="0.227" stroke-width="1" shape-rendering="crispEdges" vector-effect="non-scaling-stroke">
      <rect class="pagerect" fill="#1B1C1C" stroke="none" x="0" y="0" width="1010" height="4545" />
      <path class="yrule_1" d="M0 30 l1010 0" />
      <path d="M0 60 l1010 0" />
      <path d="M0 90 l1010 0" />
      <path d="M0 120 l1010 0" />
      <path d="M0 150 l1010 0" />
      <path d="M0 180 l1010 0" />
      <path d="M0 210 l1010 0" />
      <path d="M0 240 l1010 0" />
      <path d="M0 270 l1010 0" />
      <path d="M0 300 l1010 0" />
      <path d="M0 330 l1010 0" />
      <path d="M0 360 l1010 0" />
      <path d="M0 390 l1010 0" />
      <path d="M0 420 l1010 0" />
      <path d="M0 450 l1010 0" />
      <path d="M0 480 l1010 0" />
      <path d="M0 510 l1010 0" />
      <path d="M0 540 l1010 0" />
      <path d="M0 570 l1010 0" />
      <path d="M0 600 l1010 0" />
      <path d="M0 630 l1010 0" />
      <path d="M0 660 l1010 0" />
      <path d="M0 690 l1010 0" />
      <path d="M0 720 l1010 0" />
      <path d="M0 750 l1010 0" />
      <path d="M0 780 l1010 0" />
      <path d="M0 810 l1010 0" />
      <path d="M0 840 l1010 0" />
      <path d="M0 870 l1010 0" />
      <path d="M0 900 l1010 0" />
      <path d="M0 930 l1010 0" />
      <path d="M0 960 l1010 0" />
      <path d="M0 990 l1010 0" />
      <path d="M0 1020 l1010 0" />
      <path d="M0 1050 l1010 0" />
      <path d="M0 1080 l1010 0" />
      <path d="M0 1110 l1010 0" />
      <path d="M0 1140 l1010 0" />
      <path d="M0 1170 l1010 0" />
      <path d="M0 1200 l1010 0" />
      <path d="M0 1230 l1010 0" />
      <path d="M0 1260 l1010 0" />
      <path d="M0 1290 l1010 0" />
      <path d="M0 1320 l1010 0" />
      <path d="M0 1350 l1010 0" />
      <path d="M0 1380 l1010 0" />
      <path d="M0 1410 l1010 0" />
      <path d="M0 1440 l1010 0" />
      <path d="M0 1470 l1010 0" />
      <path d="M0 1500 l1010 0" />
      <path d="M0 1530 l1010 0" />
      <path d="M0 1560 l1010 0" />
      <path d="M0 1590 l1010 0" />
      <path d="M0 1620 l1010 0" />
      <path d="M0 1650 l1010 0" />
      <path d="M0 1680 l1010 0" />
      <path d="M0 1710 l1010 0" />
      <path d="M0 1740 l1010 0" />
      <path d="M0 1770 l1010 0" />
      <path d="M0 1800 l1010 0" />
      <path d="M0 1830 l1010 0" />
      <path d="M0 1860 l1010 0" />
      <path d="M0 1890 l1010 0" />
      <path d="M0 1920 l1010 0" />
      <path d="M0 1950 l1010 0" />
      <path d="M0 1980 l1010 0" />
      <path d="M0 2010 l1010 0" />
      <path d="M0 2040 l1010 0" />
      <path d="M0 2070 l1010 0" />
      <path d="M0 2100 l1010 0" />
      <path d="M0 2130 l1010 0" />
      <path d="M0 2160 l1010 0" />
      <path d="M0 2190 l1010 0" />
      <path d="M0 2220 l1010 0" />
      <path d="M0 2250 l1010 0" />
      <path d="M0 2280 l1010 0" />
      <path d="M0 2310 l1010 0" />
      <path d="M0 2340 l1010 0" />
      <path d="M0 2370 l1010 0" />
      <path d="M0 2400 l1010 0" />
      <path d="M0 2430 l1010 0" />
      <path d="M0 2460 l1010 0" />
      <path d="M0 2490 l1010 0" />
      <path d="M0 2520 l1010 0" />
      <path d="M0 2550 l1010 0" />
      <path d="M0 2580 l1010 0" />
      <path d="M0 2610 l1010 0" />
      <path d="M0 2640 l1010 0" />
      <path d="M0 2670 l1010 0" />
      <path d="M0 2700 l1010 0" />
      <path d="M0 2730 l1010 0" />
      <path d="M0 2760 l1010 0" />
      <path d="M0 2790 l1010 0" />
      <path d="M0 2820 l1010 0" />
      <path d="M0 2850 l1010 0" />
      <path d="M0 2880 l1010 0" />
      <path d="M0 2910 l1010 0" />
      <path d="M0 2940 l1010 0" />
      <path d="M0 2970 l1010 0" />
      <path d="M0 3000 l1010 0" />
      <path d="M0 3030 l1010 0" />
      <path d="M0 3060 l1010 0" />
      <path d="M0 3090 l1010 0" />
      <path d="M0 3120 l1010 0" />
      <path d="M0 3150 l1010 0" />
      <path d="M0 3180 l1010 0" />
      <path d="M0 3210 l1010 0" />
      <path d="M0 3240 l1010 0" />
      <path d="M0 3270 l1010 0" />
      <path d="M0 3300 l1010 0" />
      <path d="M0 3330 l1010 0" />
      <path d="M0 3360 l1010 0" />
      <path d="M0 3390 l1010 0" />
      <path d="M0 3420 l1010 0" />
      <path d="M0 3450 l1010 0" />
      <path d="M0 3480 l1010 0" />
      <path d="M0 3510 l1010 0" />
      <path d="M0 3540 l1010 0" />
      <path d="M0 3570 l1010 0" />
      <path d="M0 3600 l1010 0" />
      <path d="M0 3630 l1010 0" />
      <path d="M0 3660 l1010 0" />
      <path d="M0 3690 l1010 0" />
      <path d="M0 3720 l1010 0" />
      <path d="M0 3750 l1010 0" />
      <path d="M0 3780 l1010 0" />
      <path d="M0 3810 l1010 0" />
      <path d="M0 3840 l1010 0" />
      <path d="M0 3870 l1010 0" />
      <path d="M0 3900 l1010 0" />
      <path d="M0 3930 l1010 0" />
      <path d="M0 3960 l1010 0" />
      <path d="M0 3990 l1010 0" />
      <path d="M0 4020 l1010 0" />
      <path d="M0 4050 l1010 0" />
      <path d="M0 4080 l1010 0" />
      <path d="M0 4110 l1010 0" />
      <path d="M0 4140 l1010 0" />
      <path d="M0 4170 l1010 0" />
      <path d="M0 4200 l1010 0" />
      <path d="M0 4230 l1010 0" />
      <path d="M0 4260 l1010 0" />
      <path d="M0 4290 l1010 0" />
      <path d="M0 4320 l1010 0" />
      <path d="M0 4350 l1010 0" />
      <path d="M0 4380 l1010 0" />
      <path d="M0 4410 l1010 0" />
      <path d="M0 4440 l1010 0" />
      <path d="M0 4470 l1010 0" />
      <path d="M0 4500 l1010 0" />
      <path d="M0 4530 l1010 0" />
      <path class="xrule_1" d="M30 0 l0 4545" />
      <path d="M60 0 l0 4545" />
      <path d="M90 0 l0 4545" />
      <path d="M120 0 l0 4545" />
      <path d="M150 0 l0 4545" />
      <path d="M180 0 l0 4545" />
      <path d="M210 0 l0 4545" />
      <path d="M240 0 l0 4545" />
      <path d="M270 0 l0 4545" />
      <path d="M300 0 l0 4545" />
      <path d="M330 0 l0 4545" />
      <path d="M360 0 l0 4545" />
      <path d="M390 0 l0 4545" />
      <path d="M420 0 l0 4545" />
      <path d="M450 0 l0 4545" />
      <path d="M480 0 l0 4545" />
      <path d="M510 0 l0 4545" />
      <path d="M540 0 l0 4545" />
      <path d="M570 0 l0 4545" />
      <path d="M600 0 l0 4545" />
      <path d="M630 0 l0 4545" />
      <path d="M660 0 l0 4545" />
      <path d="M690 0 l0 4545" />
      <path d="M720 0 l0 4545" />
      <path d="M750 0 l0 4545" />
      <path d="M780 0 l0 4545" />
      <path d="M810 0 l0 4545" />
      <path d="M840 0 l0 4545" />
      <path d="M870 0 l0 4545" />
      <path d="M900 0 l0 4545" />
      <path d="M930 0 l0 4545" />
      <path d="M960 0 l0 4545" />
      <path d="M990 0 l0 4545" />
      <path class="leftmargin" stroke="#FF0000" d="M30 0 l0 4545" />
    </g>
  </g>
</svg>
