<svg class="write-page" width="1010px" height="1628px" xmlns="http://www.w3.org/2000/svg" xmlns:xlink="http://www.w3.org/1999/xlink">
  <g class="write-content write-v3" width="1010" height="1628" xruling="30" yruling="30" marginLeft="30" papercolor="#1B1C1C" rulecolor="#3A00F9FF">
    <g class="ruleline write-std-ruling write-scale-down" fill="none" stroke="#00F9FF" stroke-opacity="0.227" stroke-width="1" shape-rendering="crispEdges" vector-effect="non-scaling-stroke">
      <rect class="pagerect" fill="#1B1C1C" stroke="none" x="0" y="0" width="1010" height="1628" />
      <path class="yrule_1" d="M0 30 l1010 0" />
      <path d="M0 60 l1010 0" />
      <path d="M0 90 l1010 0" />
      <path d="M0 120 l1010 0" />
      <path d="M0 150 l1010 0" />
      <path d="M0 180 l1010 0" />
      <path d="M0 210 l1010 0" />
      <path d="M0 240 l1010 0" />
      <path d="M0 270 l1010 0" />
      <path d="M0 300 l1010 0" />
      <path d="M0 330 l1010 0" />
      <path d="M0 360 l1010 0" />
      <path d="M0 390 l1010 0" />
      <path d="M0 420 l1010 0" />
      <path d="M0 450 l1010 0" />
      <path d="M0 480 l1010 0" />
      <path d="M0 510 l1010 0" />
      <path d="M0 540 l1010 0" />
      <path d="M0 570 l1010 0" />
      <path d="M0 600 l1010 0" />
      <path d="M0 630 l1010 0" />
      <path d="M0 660 l1010 0" />
      <path d="M0 690 l1010 0" />
      <path d="M0 720 l1010 0" />
      <path d="M0 750 l1010 0" />
      <path d="M0 780 l1010 0" />
      <path d="M0 810 l1010 0" />
      <path d="M0 840 l1010 0" />
      <path d="M0 870 l1010 0" />
      <path d="M0 900 l1010 0" />
      <path d="M0 930 l1010 0" />
      <path d="M0 960 l1010 0" />
      <path d="M0 990 l1010 0" />
      <path d="M0 1020 l1010 0" />
      <path d="M0 1050 l1010 0" />
      <path d="M0 1080 l1010 0" />
      <path d="M0 1110 l1010 0" />
      <path d="M0 1140 l1010 0" />
      <path d="M0 1170 l1010 0" />
      <path d="M0 1200 l1010 0" />
      <path d="M0 1230 l1010 0" />
      <path d="M0 1260 l1010 0" />
      <path d="M0 1290 l1010 0" />
      <path d="M0 1320 l1010 0" />
      <path d="M0 1350 l1010 0" />
      <path d="M0 1380 l1010 0" />
      <path d="M0 1410 l1010 0" />
      <path d="M0 1440 l1010 0" />
      <path d="M0 1470 l1010 0" />
      <path d="M0 1500 l1010 0" />
      <path d="M0 1530 l1010 0" />
      <path d="M0 1560 l1010 0" />
      <path d="M0 1590 l1010 0" />
      <path d="M0 1620 l1010 0" />
      <path class="xrule_1" d="M30 0 l0 1628" />
      <path d="M60 0 l0 1628" />
      <path d="M90 0 l0 1628" />
      <path d="M120 0 l0 1628" />
      <path d="M150 0 l0 1628" />
      <path d="M180 0 l0 1628" />
      <path d="M210 0 l0 1628" />
      <path d="M240 0 l0 1628" />
      <path d="M270 0 l0 1628" />
      <path d="M300 0 l0 1628" />
      <path d="M330 0 l0 1628" />
      <path d="M360 0 l0 1628" />
      <path d="M390 0 l0 1628" />
      <path d="M420 0 l0 1628" />
      <path d="M450 0 l0 1628" />
      <path d="M480 0 l0 1628" />
      <path d="M510 0 l0 1628" />
      <path d="M540 0 l0 1628" />
      <path d="M570 0 l0 1628" />
      <path d="M600 0 l0 1628" />
      <path d="M630 0 l0 1628" />
      <path d="M660 0 l0 1628" />
      <path d="M690 0 l0 1628" />
      <path d="M720 0 l0 1628" />
      <path d="M750 0 l0 1628" />
      <path d="M780 0 l0 1628" />
      <path d="M810 0 l0 1628" />
      <path d="M840 0 l0 1628" />
      <path d="M870 0 l0 1628" />
      <path d="M900 0 l0 1628" />
      <path d="M930 0 l0 1628" />
      <path d="M960 0 l0 1628" />
      <path d="M990 0 l0 1628" />
      <path class="leftmargin" stroke="#FF0000" d="M30 0 l0 1628" />
    </g>
    <path class="write-flat-pen" fill="#FFFFFF" stroke-width="1.6" __comx="108.243" __comy="49.563" __timestamp="0x17892f87224" d="M99.548 35.813 l-0.206 0.289 -0.091 0.158 0.017 0.036 -0.006 0.366 0.004 0.176 0.13 1.691 0.043 0.616 0.683 7.791 0.137 0.994 0 0 1.245 9.897 0 0 -0.201 0.53 0 0 1.525 0.096 -0.608 -2.51 -0.594 -8.331 -0.928 -5.744 -2.347 -5.515 -0.123 0.313 5.953 -0.708 12.194 -2.65 0.344 -0.073 0.461 -0.065 2.677 -0.33 0.008 -0.187 -2.639 -0.559 -0.514 -0.107 -0.512 -0.027 -12.276 2.416 -6.835 0.813 -0.466 1.187 2.527 5.938 0.886 5.482 0.598 8.393 0.64 2.64 1.525 0.096 0 0 0.343 -0.903 0 0 -1.326 -10.302 0 0 -0.146 -0.975 -0.947 -7.738 -0.098 -0.642 -0.4 -1.707 -0.092 -0.254 -0.322 -0.472 -0.015 0.007 -0.11 0.079 0.076 0.078" />
    <path class="write-flat-pen" fill="#FFFFFF" stroke-width="1.6" __comx="109.518" __comy="49.563" __timestamp="0x17892f87371" d="M102.442 47.043 l0.609 0.272 0.118 0.043 1.2 0.242 0.36 0.028 8.529 -0.522 0.575 -0.091 2.761 -0.415 -0.002 -0.189 -2.77 -0.344 -0.596 -0.075 -8.51 0.274 -0.268 0.011 -1.126 0.026 -0.055 0.009 -0.65 -0.02" />
    <path class="write-flat-pen" fill="#FFFFFF" stroke-width="1.6" __comx="127.604" __comy="49.563" __timestamp="0x17892f87546" d="M121.403 51.721 l0.138 0.631 0.043 0.124 0.51 1.183 0.138 0.32 1.348 3.926 0 0 0.105 0.348 0 0 0.639 2.574 0 0 1.472 -0.333 -0.804 -4.873 -0.213 -4.324 0.318 -1.717 0.612 -0.921 1.092 -0.572 3.29 0.039 0.298 0.05 0.754 0.162 2.621 0.571 0.043 -0.106 -2.287 -1.417 -0.701 -0.402 -0.475 -0.21 -3.902 -0.306 -1.84 0.964 -1.019 1.536 -0.41 2.222 0.233 4.607 0.901 4.955 1.472 -0.333 0 0 -0.801 -2.557 0 0 -0.139 -0.401 0 0 -1.641 -3.912 -0.213 -0.364 -0.733 -1.067 -0.065 -0.081 -0.378 -0.5" />
    <path class="write-flat-pen" fill="#FFFFFF" stroke-width="1.6" __comx="140.144" __comy="49.563" __timestamp="0x17892f8762c" d="M138.251 50.046 l-0.21 0.861 -0.021 0.267 0.103 1.741 0.058 0.462 0.784 3.389 1.593 2.027 0.618 -0.099 0.267 -0.238 0.824 -0.891 -0.031 -0.059 -1.199 0.192 -0.148 -0.016 0.234 -0.076 -0.882 -1.436 -0.875 -3.047 -0.086 -0.383 -0.341 -1.636 -0.03 -0.16 -0.027 -0.831" />
    <path class="write-flat-pen" fill="#FFFFFF" stroke-width="1.6" __comx="137.699" __comy="49.563" __timestamp="0x17892f876b2" d="M138.883 38.437 l-1.419 -0.135 -0.948 1.957 0.358 1.969 0.104 -0.002 0.302 -1.786 0.716 -1.235 0.868 -0.073" />
    <path class="write-flat-pen" fill="#FFFFFF" stroke-width="1.6" __comx="156.704" __comy="49.563" __timestamp="0x17892f87923" d="M159.78 34.193 l-0.517 0.266 -0.091 0.236 -0.139 0.94 0.006 0.411 0.597 3.752 0.144 0.817 0 0 1.368 7.373 0 0 1.472 4.9 0 0 1.309 -0.625 -1.885 -2.846 -1.819 -1.776 -2.272 -1.184 -2.446 -0.365 -1.964 0.565 -1.772 1.409 -1.345 2.065 -0.953 3.036 -0.085 2.859 0.641 2.245 1.022 1.371 1.614 0.982 2.039 0.343 2.793 -0.445 3.223 -1.397 0.332 -0.227 0.267 -0.219 2.182 -1.781 -0.113 -0.197 -2.636 0.991 -0.305 0.11 -0.287 0.101 -3.083 1.071 -2.366 0.377 -1.482 -0.245 -1.095 -0.658 -0.672 -0.889 -0.503 -1.732 0.062 -2.402 0.821 -2.628 1.089 -1.678 1.334 -1.066 1.348 -0.389 1.86 0.276 1.846 0.956 1.551 1.503 1.844 2.684 1.309 -0.625 0 0 -1.512 -4.807 0 0 -1.433 -7.283 0 0 -0.169 -0.815 -0.852 -3.648 -0.054 -0.298 -0.096 -0.8 -0.037 0.045 0.19 -0.327" />
    <path class="write-flat-pen" fill="#FFFFFF" stroke-width="1.6" __comx="171.877" __comy="49.563" __timestamp="0x17892f87af8" d="M173.112 52.806 l0.329 -0.722 0.068 -0.203 0.121 -1.545 -0.113 -0.408 -0.802 -1.208 -1.38 -0.749 -1.799 -0.034 -1.737 0.814 -1.336 1.49 -0.911 2.403 -0.033 2.343 0.769 1.796 1.297 0.922 1.744 0.168 1.874 -0.751 1.724 -1.627 -0.162 -0.001 1.198 3.063 1.397 1.587 0.363 0.167 0.32 0.062 2.153 0.354 0.034 -0.08 -1.759 -1.291 -0.184 -0.15 -0.028 -0.07 -0.898 -1.371 -1.499 -3.865 -1.567 -0.009 -1.969 1.859 -1.231 0.494 -0.932 -0.089 -0.584 -0.414 -0.461 -1.071 0.02 -1.725 0.698 -1.873 0.918 -1.05 1.125 -0.562 1.1 -0.029 0.806 0.372 0.581 0.703 0.023 0.027 0.145 1.249 0.006 0.08 -0.085 0.763" />
    <path class="write-flat-pen" fill="#FFFFFF" stroke-width="1.6" __comx="184.173" __comy="49.563" __timestamp="0x17892f87bda" d="M180.508 46.887 l-0.218 0.991 -0.013 0.313 0.299 2.213 0.166 0.627 1.759 4.664 2.375 3.392 0.332 0.297 0.495 0.337 2.305 1.409 0.057 -0.067 -1.734 -2.056 -0.341 -0.419 -0.172 -0.242 -2.019 -3.32 -1.785 -4.429 -0.167 -0.502 -0.525 -2.028 -0.035 -0.161 -0.025 -0.941" />
    <path class="write-flat-pen" fill="#FFFFFF" stroke-width="1.6" __comx="184.999" __comy="55.605" __timestamp="0x17892f87cc2" d="M192.364 47.481 l-0.735 1.061 -0.405 0.658 -1.891 3.968 -0.595 1.384 -8.456 21.081 -2.811 8.275 -0.654 4.054 0.018 0.605 0.172 0.921 0.144 0.356 0.98 2.343 0.119 -0.028 -0.173 -2.534 -0.013 -0.307 0.026 -0.786 0.05 -0.424 0.85 -3.797 2.794 -8.122 8.399 -21.045 0.561 -1.37 1.628 -4.027 0.273 -0.652 0.538 -1.144" />
    <path class="write-flat-pen" fill="#FFFFFF" stroke-width="1.6" __comx="245.807" __comy="50.599" __timestamp="0x17892f87fd6" d="M234.922 63.473 l-0.231 -0.115 0.081 0.115 -0.006 -1.13 0.062 -0.46 0.554 -3.621 0.224 -1.011 1.658 -6.092 3.436 -9.924 1.192 -4.847 0.262 -3.115 -0.49 -1.874 -1.786 -0.053 -0.26 3.24 1.095 5.653 1.94 5.984 2.46 5.635 2.532 4.217 2.918 3.536 3.844 2.721 0.385 0.108 0.296 0.027 2.632 0.201 0.05 -0.18 -2.36 -1.183 -0.207 -0.113 -0.122 -0.087 -3.407 -2.664 -2.718 -3.293 -2.418 -4.026 -2.388 -5.468 -1.886 -5.816 -1.035 -5.342 0.121 -1.506 -0.93 -0.028 0.118 0.451 -0.225 2.718 -1.125 4.663 -3.326 9.946 -1.524 6.221 -0.197 1.106 -0.296 3.73 -0.001 0.578 0.305 1.271 0.174 0.326 0.624 -0.182" />
    <path class="write-flat-pen" fill="#FFFFFF" stroke-width="1.6" __comx="244.688" __comy="50.599" __timestamp="0x17892f880bc" d="M237.433 51.494 l0.937 -0.497 0.246 -0.014 9.048 -0.401 1.14 -0.129 1.191 -0.175 2.511 -0.362 -0.007 -0.141 -2.535 -0.112 -1.199 -0.057 -1.137 -0.031 -9.106 0.132 -0.615 0.09 -1.035 0.909" />
    <path class="write-flat-pen" fill="#FFFFFF" stroke-width="1.6" __comx="265.525" __comy="50.599" __timestamp="0x17892f882e4" d="M263.764 66.234 l-0.332 2.423 -0.033 0.379 0.04 3.196 0.051 0.25 -0.004 -0.015 1.16 -0.195 0.007 -1.808 -0.175 -0.738 -3.289 -12.787 -0.807 -4.926 -0.058 -3.131 0.321 -1.148 0.692 -0.828 1.187 -0.499 1.746 0.026 2.56 0.891 2.046 1.408 1.146 1.36 0.582 1.402 0.113 1.573 -0.415 1.608 -1.139 1.67 -1.156 0.876 -1.829 0.446 -0.013 0.096 -1.514 -0.469 -0.07 0.096 0.897 1.307 0.366 0.376 2.817 -0.339 1.677 -1.27 1.444 -2.117 0.55 -2.133 -0.15 -2.093 -0.776 -1.87 -1.444 -1.714 -2.401 -1.653 -3.007 -1.046 -2.34 -0.035 -1.855 0.78 -1.162 1.39 -0.476 1.705 0.065 3.481 0.84 5.113 3.421 12.822 0.162 0.603 0.26 1.661 1.16 -0.195 -0.004 -0.015 -0.042 -0.096 -0.296 -3.019 -0.002 -0.32 0.073 -2.428" />
    <path class="write-flat-pen" fill="#FFFFFF" stroke-width="1.6" __comx="282.367" __comy="50.599" __timestamp="0x17892f88481" d="M276.624 51.856 l-0.6 0.923 -0.114 0.234 -0.612 1.937 -0.063 0.428 0.042 1.877 0.815 1.842 1.413 0.861 1.033 -1.341 -0.906 -6.687 0.101 -2.532 0.624 -1.948 0.716 -0.951 1.06 -0.561 1.13 0.085 1.53 0.872 3.463 3.531 0.331 0.335 0.688 0.628 2.114 1.83 0.11 -0.092 -1.421 -2.403 -0.475 -0.787 -0.285 -0.434 -3.525 -3.88 -2.051 -1.169 -1.949 -0.146 -1.783 0.943 -1.093 1.452 -0.773 2.413 -0.115 2.89 0.855 6.174 0.226 -0.281 0.181 0.122 -0.551 -1.127 -0.129 -1.474 0.012 -0.234 0.312 -1.854 0.028 -0.138 0.364 -0.983" />
    <path class="write-flat-pen" fill="#FFFFFF" stroke-width="1.6" __comx="295.101" __comy="50.599" __timestamp="0x17892f88568" d="M292.997 51.099 l-0.107 1.007 -0.005 0.29 0.104 1.532 0.08 0.506 0.713 3.129 1.232 1.935 0.351 0.16 1.896 0.662 0.057 -0.084 -1.319 -1.515 -0.039 -0.104 -0.812 -1.61 -0.812 -2.864 -0.112 -0.431 -0.326 -1.435 -0.051 -0.221 -0.136 -0.968" />
    <path class="write-flat-pen" fill="#FFFFFF" stroke-width="1.6" __comx="296.351" __comy="50.599" __timestamp="0x17892f88614" d="M297.124 42.04 l-0.457 -0.673 -0.448 -0.397 -0.524 0.152 -0.118 0.742 0.519 0.839" />
    <path class="write-flat-pen" fill="#FFFFFF" stroke-width="1.6" __comx="309.014" __comy="50.599" __timestamp="0x17892f88781" d="M306.276 34.896 l-0.12 0.925 -0.001 0.339 0.106 1.034 0.113 0.718 0.775 3.829 0.244 1.134 0.901 5.213 1.61 13.199 0.242 0.568 0.232 0.42 1.322 2.399 0.173 -0.06 -0.465 -2.7 -0.073 -0.451 -0.077 -0.46 -1.395 -13.145 -0.99 -5.29 -0.297 -1.166 -1.042 -3.76 -0.202 -0.676 -0.288 -0.946 -0.069 -0.252 -0.146 -0.88" />
    <path class="write-flat-pen" fill="#FFFFFF" stroke-width="1.6" __comx="357.92" __comy="50.599" __timestamp="0x17892f88a95" d="M349.556 38.869 l-0.807 -0.724 -0.017 -0.043 -0.358 -0.793 0.011 -0.056 0.141 -0.768 0.701 -0.833 1.315 -0.628 2.934 -0.451 3.014 0.156 3.582 0.854 2.403 1.136 1.142 1.014 0.69 1.337 0.12 1.422 -0.572 1.97 -1.325 2.283 -2.731 3.152 -11.293 9.338 -1.429 1.719 0.523 1.509 2.118 0.671 14.664 -1.594 0.643 -0.136 0.563 -0.128 0.541 -0.139 2.636 -0.669 -0.011 -0.109 -2.717 -0.127 -0.56 -0.028 -0.582 -0.008 -0.654 0.006 -14.355 1.308 -1.038 -0.329 0.036 0.103 0.756 -0.91 11.28 -9.327 2.917 -3.366 1.499 -2.583 0.709 -2.443 -0.172 -2.035 -0.972 -1.884 -1.536 -1.364 -2.762 -1.304 -3.888 -0.923 -3.326 -0.16 -3.328 0.55 -1.812 0.941 -1.068 1.493 -0.04 1.373 0.123 0.429 0.725 0.931 0.177 0.148 1.019 0.554" />
    <path class="write-flat-pen" fill="#FFFFFF" stroke-width="1.6" __comx="378.271" __comy="50.599" __timestamp="0x17892f88c91" d="M372.237 54.342 l0.129 -0.827 0.01 0.072 0.008 -0.061 -1.123 -0.031 -0.078 0.629 -0.009 0.199 0 0 -0.193 4.679 0 0 0.465 0.814 0 0 1.406 -0.067 2.692 -5.814 1.422 -2.129 0.973 -0.805 1.042 -0.34 0.908 0.238 0.724 0.711 0.881 1.851 1.88 7.977 0.4 0.298 1.69 1.005 0.096 -0.089 -0.863 -1.767 -0.004 -0.14 -1.677 -7.812 -1.079 -2.268 -1.23 -1.207 -1.774 -0.465 -1.778 0.58 -1.389 1.148 -1.621 2.429 -2.733 5.933 1.406 -0.067 0 0 -0.254 -0.421 0 0 0.028 -4.274 0 0 -0.021 -0.273 -0.182 -0.647 -1.123 -0.031 0.008 -0.061 0.002 0.133 0.143 0.904" />
    <path class="write-flat-pen" fill="#FFFFFF" stroke-width="1.6" __comx="400.249" __comy="50.599" __timestamp="0x17892f88e85" d="M404.11 34.587 l-0.686 -0.316 -0.168 0.205 -0.029 0.182 -0.117 1.98 -0.032 0.69 -0.804 7.996 -0.134 0.986 -0.452 5.099 0 0 0.243 2.805 0 0 0.566 0.6 0 0 1.277 -0.942 -0.853 -1.515 -1.666 -1.513 -1.932 -0.82 -1.681 0.077 -1.664 0.84 -1.422 1.652 -0.636 1.775 0.047 1.807 0.908 1.704 1.376 0.964 1.881 0.425 2.184 -0.211 3.344 -1.453 0.603 -0.494 0.492 -0.525 1.818 -1.937 -0.119 -0.154 -2.333 1.271 -0.597 0.316 -0.532 0.26 -3.062 1.146 -1.696 0.164 -1.323 -0.299 -0.804 -0.563 -0.55 -1.032 -0.029 -1.13 0.435 -1.214 1.021 -1.186 1.074 -0.543 0.975 -0.045 1.347 0.572 1.274 1.157 0.727 1.29 1.277 -0.942 0 0 -0.185 -0.194 0 0 -0.186 -2.112 0 0 0.41 -4.931 0.121 -0.989 0.534 -8.1 -0.015 -0.749 -0.155 -1.979 -0.025 -0.102 -0.103 -0.18 -0.579 0.317" />
    <path class="write-flat-pen" fill="#FFFFFF" stroke-width="1.6" __comx="208.905" __comy="110.669" __timestamp="0x17892f89256" d="M213.255 95.714 l-0.261 -1.236 -0.058 -0.134 -0.742 -1.105 -0.296 -0.243 -2.024 -0.901 -0.633 -0.113 -3.045 0.028 -2.89 0.812 -2.224 1.265 -1.49 1.547 -0.914 2.112 0.045 1.724 0.91 1.815 1.629 1.355 3.352 1.309 6.67 1.592 3.908 1.399 1.362 0.966 0.795 1.225 0.147 1.069 -0.426 1.463 -1.179 1.592 -1.954 1.488 -3.22 1.341 -3.565 0.6 -2.95 -0.082 -1.75 -0.518 -0.954 -0.689 -0.413 -0.871 0.08 -0.78 0.651 -1.178 0.339 -0.408 0.455 -0.463 0.583 -0.531 1.838 -1.645 -0.094 -0.14 -2.216 1.084 -0.748 0.365 -0.628 0.403 -0.575 0.465 -1.096 1.493 -0.239 1.592 0.792 1.67 1.507 1.089 2.212 0.655 3.315 0.093 3.9 -0.657 3.58 -1.491 2.299 -1.75 1.485 -2.005 0.601 -2.065 -0.242 -1.76 -1.156 -1.782 -1.791 -1.27 -4.197 -1.503 -6.648 -1.586 -3.007 -1.174 -1.173 -0.975 -0.601 -1.198 -0.028 -1.015 0.657 -1.525 1.128 -1.179 1.854 -1.071 2.512 -0.749 2.726 -0.148 0.372 0.032 1.836 0.553 0.092 0.042 0.799 0.772 0.008 -0.005 0.504 1.094" />
    <path class="write-flat-pen" fill="#FFFFFF" stroke-width="1.6" __comx="224.824" __comy="110.669" __timestamp="0x17892f893eb" d="M220.146 112.361 l0.477 -0.246 0.03 0.01 1.157 -0.288 0.276 -0.082 3.73 -1.174 0.185 -0.091 1.155 -0.912 0.298 -1.681 -1.249 -0.997 -1.914 -0.18 -2.315 0.731 -1.925 1.546 -1.283 2.058 -0.482 1.926 0.306 2.391 1.013 1.718 1.708 1.276 2.719 0.806 3.076 -0.319 0.741 -0.252 0.657 -0.285 0.59 -0.336 2.265 -1.296 -0.043 -0.109 -2.543 0.587 -0.623 0.138 -0.629 0.109 -0.626 0.077 -2.688 0.073 -2.169 -0.646 -1.222 -0.913 -0.683 -1.158 -0.226 -1.765 0.348 -1.39 1.006 -1.615 1.479 -1.19 1.722 -0.549 1.128 0.098 0.163 0.119 -0.019 0.199 -0.554 0.472 0.046 -0.021 -3.559 1.41 -0.273 0.124 -1.102 0.563 -0.156 0.101 -0.384 0.527" />
    <path class="write-flat-pen" fill="#FFFFFF" stroke-width="1.6" __comx="239.266" __comy="110.669" __timestamp="0x17892f89538" d="M237.366 110.696 l0.725 0.021 0.199 -0.042 0.744 -0.409 0.266 -0.32 -0.015 -1.508 -0.767 -0.306 -1.702 0.34 -1.896 1.539 -1.23 1.88 -0.63 2.257 0.189 2.309 0.729 1.53 1.485 1.218 2.11 0.636 3.014 -0.379 0.808 -0.304 0.742 -0.365 0.694 -0.429 0.619 -0.462 2.023 -1.517 -0.017 -0.03 -2.349 0.934 -0.686 0.269 -0.708 0.216 -0.719 0.183 -0.669 0.133 -2.587 0.134 -1.506 -0.46 -0.964 -0.79 -0.451 -0.943 -0.145 -1.734 0.481 -1.752 0.952 -1.487 1.404 -1.202 0.918 -0.274 -0.412 -0.173 0.148 0.211 0.108 -0.112 -0.361 0.447 0.007 0.021 -0.623 0.223" />
    <path class="write-flat-pen" fill="#FFFFFF" stroke-width="1.6" __comx="252.199" __comy="110.669" __timestamp="0x17892f8962b" d="M248.526 96.358 l0.111 1.285 0.088 0.452 0.683 3.041 0.231 1.021 2.772 13.836 1.382 4.1 0.207 0.378 0.228 0.35 1.578 2.194 0.066 -0.032 -0.756 -2.589 -0.116 -0.374 -0.095 -0.328 -1.043 -4.061 -2.846 -13.783 -0.282 -1.05 -0.917 -2.994 -0.145 -0.4 -0.37 -1.195" />
    <path class="write-flat-pen" fill="#FFFFFF" stroke-width="1.6" __comx="251.404" __comy="110.669" __timestamp="0x17892f896fd" d="M242.718 109.605 l1.17 0.134 0.338 0.027 11.476 -0.523 0.915 -0.153 0.88 -0.168 2.594 -0.488 -0.007 -0.108 -2.634 -0.166 -0.895 -0.059 -0.913 -0.036 -11.441 0.371 -0.312 0.027 -1.17 0.134" />
    <path class="write-flat-pen" fill="#FFFFFF" stroke-width="1.6" __comx="267.594" __comy="110.669" __timestamp="0x17892f89824" d="M266.24 109.06 l-0.195 0.789 -0.016 0.282 0.132 2.935 0.055 0.706 1.287 6.006 1.584 1.145 0.07 -0.057 -0.647 -1.561 -0.961 -5.725 -0.075 -0.639 -0.408 -2.885 -0.04 -0.193 -0.072 -0.746" />
    <path class="write-flat-pen" fill="#FFFFFF" stroke-width="1.6" __comx="266.781" __comy="110.669" __timestamp="0x17892f898b5" d="M266.85 100.172 l-0.799 1.497 0.341 1.801 0.922 2.056 0.138 -0.042 -0.367 -2.166 -0.118 -1.507 0.545 -1.323" />
    <path class="write-flat-pen" fill="#FFFFFF" stroke-width="1.6" __comx="277.222" __comy="110.669" __timestamp="0x17892f89a20" d="M279.183 111.923 l-0.291 -0.643 -0.089 -0.172 -0.752 -0.962 -0.284 -0.239 -1.397 -0.729 -1.54 -0.004 -1.258 0.839 -0.898 1.59 -0.288 2.162 0.41 2.266 1.058 2.192 1.343 1.162 1.86 0.459 1.973 -0.599 1.318 -1.164 1.151 -2.172 0.558 -2.865 -0.742 -3.844 -1.742 -2.062 -0.11 0.052 0.392 2.479 0.578 3.368 -0.449 2.342 -0.896 1.721 -0.84 0.765 -1.237 0.395 -1.09 -0.27 -0.822 -0.716 -0.826 -1.719 -0.328 -1.824 0.212 -1.634 0.565 -1.031 0.577 -0.412 0.76 -0.039 1.021 0.42 0.119 0.07 0.822 0.662 0.082 0.063 0.47 0.5" />
    <path class="write-flat-pen" fill="#FFFFFF" stroke-width="1.6" __comx="293.814" __comy="110.669" __timestamp="0x17892f89bd3" d="M286.962 111.997 l-0.296 0.276 -0.031 0.179 -0.019 0.871 0.021 0.282 0.249 2.203 0.031 0.372 0.27 2.999 0 0 0.609 0.807 0 0 1.242 -0.07 0.765 -1.165 1.427 -5.939 1.23 -3.054 1.014 -1.247 1.319 -0.729 1.304 -0.022 0.988 0.475 1.239 1.488 0.756 2.178 0.598 4.421 0.055 0.209 0.649 2.762 0.175 -0.007 0.421 -2.806 0.036 -0.255 -0.36 -4.674 -0.912 -2.627 -1.648 -1.979 -1.643 -0.79 -2.081 0.036 -1.939 1.071 -1.363 1.675 -1.363 3.389 -1.369 5.804 -0.589 0.965 1.242 -0.07 0 0 -0.395 -0.44 0 0 -0.401 -2.564 -0.068 -0.399 -0.51 -2.182 -0.068 -0.259 -0.247 -0.766 -0.027 0.051 0.045 -0.232" />
    <path class="write-flat-pen" fill="#FFFFFF" stroke-width="1.6" __comx="326.497" __comy="110.669" __timestamp="0x17892f89e8e" d="M318.949 101.067 l-0.403 0.485 0.316 0.339 0.564 0.169 0.35 -0.047 1.625 -0.543 0.62 -0.297 4.695 -3.061 3.829 -3.319 0 0 1.927 -2.313 0 0 0.154 -0.909 0 0 -1.509 -0.481 -1.249 2.588 -0.958 4.398 -0.367 4.494 0.344 5.685 0.776 4.179 1.283 3.511 1.158 1.198 2.249 0.931 0.094 -0.126 -1.409 -1.79 -0.684 -1.022 -1.143 -3.126 -0.733 -3.951 -0.331 -5.473 0.349 -4.274 0.895 -4.109 1.167 -2.418 -1.509 -0.481 0 0 -0.081 0.484 0 0 -1.567 1.885 0 0 -3.645 3.184 -4.468 3.081 -0.478 0.277 -1.394 0.733 -0.092 0.067 -0.149 0.129 0.247 0.276 -0.054 -0.105" />
    <path class="write-flat-pen" fill="#FFFFFF" stroke-width="1.6" __comx="335.57" __comy="110.669" __timestamp="0x17892f89f6a" d="M322.54 118.353 l0.749 0.256 0.342 0.054 1.851 0.041 0.879 -0.036 7.172 -0.238 9.772 0.17 0.884 -0.038 0.893 -0.053 0.893 -0.083 2.621 -0.238 0.003 -0.097 -2.6 -0.407 -0.88 -0.14 -0.877 -0.131 -0.884 -0.125 -9.837 -0.442 -7.25 0.43 -0.878 0.11 -1.771 0.23 -0.235 0.035 -0.728 0.005" />
    <path class="write-flat-pen" fill="#FFFFFF" stroke-width="1.6" __comx="182.887" __comy="88.542" __timestamp="0x17892f8a251" d="M190.152 79.521 l-0.818 -1.185 -0.463 -0.095 -1.51 0.574 -0.654 0.513 -2.272 2.471 -3.505 5.414 -2.557 5.246 -1.955 6.06 -0.701 4.632 -0.097 7.621 1.061 7.68 1.896 6.907 1.879 4.062 2.302 3.456 1.259 1.433 1.286 1.212 1.416 1.112 1.418 0.877 1.906 1.181 0.068 -0.091 -1.67 -1.497 -1.21 -1.092 -1.185 -1.246 -1.063 -1.3 -1.064 -1.429 -2.071 -3.379 -1.765 -3.85 -1.834 -6.68 -1.031 -7.457 0.089 -7.393 0.648 -4.406 1.792 -5.874 2.374 -5.127 3.307 -5.326 2.045 -2.433 0.446 -0.417 1.068 -0.618 -0.06 -0.035 0.808 0.812" />
    <path class="write-flat-pen" fill="#FFFFFF" stroke-width="1.6" __comx="355.521" __comy="94.214" __timestamp="0x17892f8a46b" d="M347.128 86.737 l0.239 -0.603 1.334 0.205 0.527 0.29 4.55 3.98 1.154 1.296 3.41 4.447 1.958 3.338 1.513 3.703 0.935 4.059 0.323 4.192 -0.294 4.331 -0.876 4.331 -2.237 6.247 -5.036 9.316 -1.054 1.686 -1.005 1.595 -0.989 1.546 -1.234 1.905 0.209 0.16 1.522 -1.684 1.247 -1.367 1.206 -1.486 1.225 -1.658 5.371 -9.348 2.321 -6.48 0.92 -4.548 0.309 -4.552 -0.341 -4.428 -0.992 -4.302 -1.609 -3.928 -2.08 -3.518 -3.578 -4.52 -1.291 -1.38 -4.897 -3.942 -0.885 -0.402 -2.29 -0.031 -0.344 1.32" />
    <path class="write-stroke-pen" fill="none" stroke="#FFFFFF" stroke-width="1.6" stroke-linecap="round" stroke-linejoin="round" __comx="249.262" __comy="64.451" __timestamp="0x17892f8b1dd" d="M90.673 64.445 l317.177 1.634" />
    <path class="write-flat-pen" fill="#FFFFFF" stroke-width="1.6" __comx="101.229" __comy="223.69" __timestamp="0x17892fa77ff" d="M100.797 224.148 l0.761 -0.426 -0.17 -0.049 0.122 0.723 -0.017 0.033 -0.696 1.51 0.147 -0.139 -0.122 -0.018 -0.296 -0.332 -0.187 -0.772 0.187 -0.627 0.526 -0.432 0.244 0.002 0.102 0.135 -0.003 0.859 -0.346 0.701 0.034 -0.03 0.05 0.035 -0.015 -0.371 -0.047 0.062 0.59 0.029 -0.003 -0.053 1.769 0.642 0.078 -0.099 -1.044 -1.566 -0.188 -0.199 -1.813 -0.532 -0.961 1.194 0.095 1.614 1.168 1.075 1.436 -0.628 0.68 -1.579 -0.082 -1.699 -0.869 -0.991 -1.389 0.019 -1.219 1.04 -0.371 1.398 0.433 1.476 1.111 0.94 0.979 -0.294 0.251 -0.231 0.577 -1.981 -0.003 -0.316 -0.502 -1 -0.318 -0.107 -0.827 0.793" />
  </g>
</svg>
