<svg class="write-page" width="1010px" height="1628px" xmlns="http://www.w3.org/2000/svg" xmlns:xlink="http://www.w3.org/1999/xlink">
  <g class="write-content write-v3" width="1010" height="1628" xruling="30" yruling="30" marginLeft="30" papercolor="#1B1C1C" rulecolor="#3A00F9FF">
    <g class="ruleline write-std-ruling write-scale-down" fill="none" stroke="#00F9FF" stroke-opacity="0.227" stroke-width="1" shape-rendering="crispEdges" vector-effect="non-scaling-stroke">
      <rect class="pagerect" fill="#1B1C1C" stroke="none" x="0" y="0" width="1010" height="1628" />
      <path class="yrule_1" d="M0 30 l1010 0" />
      <path d="M0 60 l1010 0" />
      <path d="M0 90 l1010 0" />
      <path d="M0 120 l1010 0" />
      <path d="M0 150 l1010 0" />
      <path d="M0 180 l1010 0" />
      <path d="M0 210 l1010 0" />
      <path d="M0 240 l1010 0" />
      <path d="M0 270 l1010 0" />
      <path d="M0 300 l1010 0" />
      <path d="M0 330 l1010 0" />
      <path d="M0 360 l1010 0" />
      <path d="M0 390 l1010 0" />
      <path d="M0 420 l1010 0" />
      <path d="M0 450 l1010 0" />
      <path d="M0 480 l1010 0" />
      <path d="M0 510 l1010 0" />
      <path d="M0 540 l1010 0" />
      <path d="M0 570 l1010 0" />
      <path d="M0 600 l1010 0" />
      <path d="M0 630 l1010 0" />
      <path d="M0 660 l1010 0" />
      <path d="M0 690 l1010 0" />
      <path d="M0 720 l1010 0" />
      <path d="M0 750 l1010 0" />
      <path d="M0 780 l1010 0" />
      <path d="M0 810 l1010 0" />
      <path d="M0 840 l1010 0" />
      <path d="M0 870 l1010 0" />
      <path d="M0 900 l1010 0" />
      <path d="M0 930 l1010 0" />
      <path d="M0 960 l1010 0" />
      <path d="M0 990 l1010 0" />
      <path d="M0 1020 l1010 0" />
      <path d="M0 1050 l1010 0" />
      <path d="M0 1080 l1010 0" />
      <path d="M0 1110 l1010 0" />
      <path d="M0 1140 l1010 0" />
      <path d="M0 1170 l1010 0" />
      <path d="M0 1200 l1010 0" />
      <path d="M0 1230 l1010 0" />
      <path d="M0 1260 l1010 0" />
      <path d="M0 1290 l1010 0" />
      <path d="M0 1320 l1010 0" />
      <path d="M0 1350 l1010 0" />
      <path d="M0 1380 l1010 0" />
      <path d="M0 1410 l1010 0" />
      <path d="M0 1440 l1010 0" />
      <path d="M0 1470 l1010 0" />
      <path d="M0 1500 l1010 0" />
      <path d="M0 1530 l1010 0" />
      <path d="M0 1560 l1010 0" />
      <path d="M0 1590 l1010 0" />
      <path d="M0 1620 l1010 0" />
      <path class="xrule_1" d="M30 0 l0 1628" />
      <path d="M60 0 l0 1628" />
      <path d="M90 0 l0 1628" />
      <path d="M120 0 l0 1628" />
      <path d="M150 0 l0 1628" />
      <path d="M180 0 l0 1628" />
      <path d="M210 0 l0 1628" />
      <path d="M240 0 l0 1628" />
      <path d="M270 0 l0 1628" />
      <path d="M300 0 l0 1628" />
      <path d="M330 0 l0 1628" />
      <path d="M360 0 l0 1628" />
      <path d="M390 0 l0 1628" />
      <path d="M420 0 l0 1628" />
      <path d="M450 0 l0 1628" />
      <path d="M480 0 l0 1628" />
      <path d="M510 0 l0 1628" />
      <path d="M540 0 l0 1628" />
      <path d="M570 0 l0 1628" />
      <path d="M600 0 l0 1628" />
      <path d="M630 0 l0 1628" />
      <path d="M660 0 l0 1628" />
      <path d="M690 0 l0 1628" />
      <path d="M720 0 l0 1628" />
      <path d="M750 0 l0 1628" />
      <path d="M780 0 l0 1628" />
      <path d="M810 0 l0 1628" />
      <path d="M840 0 l0 1628" />
      <path d="M870 0 l0 1628" />
      <path d="M900 0 l0 1628" />
      <path d="M930 0 l0 1628" />
      <path d="M960 0 l0 1628" />
      <path d="M990 0 l0 1628" />
      <path class="leftmargin" stroke="#FF0000" d="M30 0 l0 1628" />
    </g>
    <path class="write-flat-pen" fill="#FFFFFF" stroke-width="1.6" __comx="78.819" __comy="49.337" __timestamp="0x178933d475e" d="M69.783 36.399 l-0.08 0.767 0.008 0.218 0.358 3.104 0.122 0.764 1.128 7.884 0 0 0.58 8.855 0 0 1.451 -0.176 -0.649 -4.003 0.005 -14.04 -0.381 -3.794 -0.842 -2.317 0 0 -2.073 -2.385 -0.639 1.324 7.191 0.314 9.992 -1.301 0.332 -0.06 0.374 -0.064 2.772 -0.419 0.004 -0.258 -2.759 -0.496 -0.42 -0.075 -0.426 -0.016 -9.929 1.084 -7.06 -0.308 -0.639 1.324 1.878 2.161 0 0 0.673 1.851 0.354 3.516 0.039 14.094 0.761 4.118 1.451 -0.176 0 0 -0.665 -8.904 0 0 -1.25 -7.937 -0.148 -0.764 -0.611 -3.043 -0.046 -0.174 -0.191 -0.717" />
    <path class="write-flat-pen" fill="#FFFFFF" stroke-width="1.6" __comx="79.366" __comy="49.337" __timestamp="0x178933d487c" d="M72.494 46.502 l0.395 1.032 0.495 0.176 3.192 0.128 6.411 -0.998 0.566 -0.145 2.684 -0.672 -0.021 -0.182 -2.767 -0.032 -0.593 -0.009 -6.365 0.733 -2.943 0.106 0.052 0.039 -0.43 -0.532" />
    <path class="write-flat-pen" fill="#FFFFFF" stroke-width="1.6" __comx="97.136" __comy="49.337" __timestamp="0x178933d4a26" d="M92.603 49.25 l-0.419 2.333 0.017 0.456 1.112 6.504 0 0 1.254 0.206 0.158 -0.257 -1.248 -8.151 -0.1 -3.502 0.353 -0.848 0.759 -0.625 1.3 -0.303 2.926 0.571 0.367 0.136 0.844 0.349 2.476 1.047 0.085 -0.136 -2.045 -1.761 -0.76 -0.598 -0.506 -0.303 -3.38 -0.923 -2.027 0.453 -1.358 1.117 -0.63 1.535 0.146 3.943 1.362 7.742 0.1 -0.155 1.254 0.206 0 0 -1.372 -6.383 -0.028 -0.29 0.13 -2.272" />
    <path class="write-flat-pen" fill="#FFFFFF" stroke-width="1.6" __comx="109.072" __comy="49.337" __timestamp="0x178933d4b0d" d="M107.829 49.985 l-0.338 1.22 -0.024 0.336 0.434 4.874 0.882 2.533 1.767 1.93 0.129 -0.078 -0.826 -2.333 -0.617 -2.333 -0.682 -4.653 -0.021 -0.188 0.055 -1.184" />
    <path class="write-flat-pen" fill="#FFFFFF" stroke-width="1.6" __comx="108.953" __comy="49.337" __timestamp="0x178933d4bac" d="M109.506 38.194 l-1.208 0.72 -0.421 1.383 0.503 1.658 1.211 1.937 0.145 -0.062 -0.534 -2.142 -0.178 -1.358 0.19 -0.738 0.813 -0.595" />
    <path class="write-flat-pen" fill="#FFFFFF" stroke-width="1.6" __comx="124.192" __comy="49.337" __timestamp="0x178933d4db6" d="M126.87 40.066 l0.078 -1.58 0.011 -0.158 0.172 -1.559 0.029 -0.033 -1.004 0.035 0.25 0.951 0.026 0.38 0.759 8.606 1.106 6.035 0.812 1.887 0 0 0.863 0.732 0 0 1.266 -0.385 0.267 -0.899 -1.219 -1.875 -2.345 -1.677 -2.987 -1.185 -2.426 -0.344 -2.082 0.394 -1.816 1.108 -1.29 1.811 -0.463 1.655 0.174 2.215 0.966 1.927 1.794 1.383 2.154 0.538 5.262 -1.097 0.659 -0.328 0.58 -0.349 0.487 -0.36 2.161 -1.594 -0.078 -0.146 -2.522 0.921 -0.545 0.194 -0.585 0.205 -0.537 0.171 -4.829 0.746 -1.494 -0.374 -1.239 -0.955 -0.662 -1.32 -0.127 -1.62 0.311 -1.113 0.937 -1.316 1.287 -0.786 1.536 -0.291 1.976 0.28 2.629 1.042 1.943 1.387 0.661 1.008 -0.053 0.201 1.266 -0.385 0 0 -0.589 -0.482 0 0 -0.605 -1.382 -1.098 -5.79 -0.895 -8.532 -0.075 -0.579 -0.579 -1.028 -1.004 0.035 -0.047 0.193 0.086 1.739 0.016 0.18 0.179 1.579" />
    <path class="write-flat-pen" fill="#FFFFFF" stroke-width="1.6" __comx="138.478" __comy="49.337" __timestamp="0x178933d4f73" d="M139.693 52.35 l0.687 -0.629 0.144 -0.156 0.592 -1.421 -0.083 -0.456 -0.886 -1.128 -1.611 -0.463 -1.925 0.394 -1.846 1.267 -1.269 1.884 -0.696 2.567 0.12 2.138 0.887 1.582 1.467 0.857 1.698 -0.032 1.857 -0.971 1.241 -1.234 -0.26 -0.018 1.515 2.033 0.32 0.178 0.236 0.075 2.198 0.653 0.077 -0.136 -1.697 -1.542 -0.135 -0.134 -0.021 -0.057 -1.6 -2.611 -1.246 -0.087 -1.584 1.576 -1.308 0.684 -0.872 0.016 -0.704 -0.411 -0.494 -0.88 -0.087 -1.512 0.555 -2.066 0.948 -1.424 1.332 -0.938 1.256 -0.291 0.836 0.19 0.453 0.446 -0.036 -0.223 -0.176 0.993 0.008 0.016 -0.482 0.781" />
    <path class="write-flat-pen" fill="#FFFFFF" stroke-width="1.6" __comx="150.404" __comy="49.337" __timestamp="0x178933d504b" d="M147.126 47.419 l-0.249 1.02 -0.021 0.333 0.231 2.234 0.147 0.622 1.242 3.738 2.67 4.044 0.319 0.2 2.354 1.337 0.133 -0.161 -1.748 -2.068 -0.097 -0.146 -2.244 -3.87 -1.288 -3.488 -0.153 -0.496 -0.478 -2.049 -0.035 -0.181 -0.011 -0.976" />
    <path class="write-flat-pen" fill="#FFFFFF" stroke-width="1.6" __comx="150.621" __comy="47.772" __timestamp="0x178933d510d" d="M155.255 50.205 l-0.823 1.054 -0.474 0.672 -1.465 2.486 -0.539 1.051 -3.917 8.777 -1.944 5.752 -0.813 4.861 0.003 0.605 0.085 0.552 0.416 2.709 0.247 0.002 0.466 -2.7 0.094 -0.499 0.098 -0.476 0.956 -4.65 1.882 -5.578 3.787 -8.726 0.47 -1.025 1.206 -2.557 0.344 -0.688 0.63 -1.155" />
    <path class="write-flat-pen" fill="#FFFFFF" stroke-width="1.6" __comx="192.414" __comy="47.772" __timestamp="0x178933d53df" d="M182.896 55.752 l-0.357 1.62 0.019 0.233 0.385 0.773 0.571 -0.184 0.737 -0.948 0.213 -0.483 1.808 -5.361 0.288 -0.981 1.757 -5.862 0.841 -4.828 -0.073 -4.219 0 0 0.145 -0.16 0 0 -1.261 -0.099 1.293 1.968 5.675 13.612 2.924 5.918 2.156 2.318 0.405 0.053 1.82 -0.005 0.047 -0.159 -1.52 -1.002 0.011 -0.064 -1.575 -2.029 -2.812 -5.692 -5.713 -13.703 -1.375 -2.093 -1.261 -0.099 0 0 -0.571 0.629 0 0 0.082 4.701 -0.796 4.587 -1.707 5.787 -0.273 0.976 -1.526 5.394 -0.101 0.36 -0.281 0.71 0.401 -0.12 -0.113 0.061 -0.017 0.004 0.082 -1.569" />
    <path class="write-flat-pen" fill="#FFFFFF" stroke-width="1.6" __comx="191.167" __comy="47.772" __timestamp="0x178933d5499" d="M185.309 45.427 l-0.686 1.183 1.117 1.355 2.334 0.747 3.813 0.088 1.078 -0.111 1.143 -0.213 1.156 -0.279 2.447 -0.585 -0.02 -0.141 -2.513 0.129 -1.178 0.057 -1.119 0.06 -0.998 0.001 -3.587 -0.257 -1.854 -0.571 -0.452 -0.441 0.224 -0.546" />
    <path class="write-flat-pen" fill="#FFFFFF" stroke-width="1.6" __comx="209.496" __comy="47.772" __timestamp="0x178933d56bb" d="M205.8 58.982 l-0.407 1.727 -0.033 0.4 0.496 4.783 0.055 0.298 0.07 1.918 0 0 1.105 -0.522 0.071 0.049 -1.059 -4.145 -0.591 -5.068 0.014 -4.882 0.51 -3.787 0.606 -1.447 0.627 -0.524 0.715 -0.031 1.231 0.679 2.294 2.19 1.467 2.164 0.465 1.546 -0.187 1.106 -0.548 0.816 -1.516 0.997 -4.415 1.134 -0.052 0.046 -1.831 0.405 -0.013 0.154 1.738 0.704 0.256 0.072 4.956 -1.019 2.025 -1.333 0.92 -1.369 0.306 -1.814 -0.643 -2.139 -1.701 -2.508 -2.567 -2.452 -1.806 -0.996 -1.704 0.074 -1.342 1.121 -0.838 2.002 -0.551 4.101 -0.009 5.085 0.653 5.282 1.406 4.528 0.191 0.171 1.105 -0.522 0 0 -0.334 -1.943 -0.071 -0.31 -0.754 -4.646 -0.005 -0.294 0.152 -1.725" />
    <path class="write-flat-pen" fill="#FFFFFF" stroke-width="1.6" __comx="224.211" __comy="47.772" __timestamp="0x178933d5836" d="M221.536 51.899 l-0.948 0.604 -0.17 0.175 -0.946 1.513 -0.14 0.395 -0.479 2.366 0 0 0.324 1.65 0 0 1.493 -0.246 -0.672 -7.032 0.131 -2.114 0.621 -1.897 0.738 -0.845 1.232 -0.63 1.424 -0.121 1.456 0.449 1.708 1.219 0.199 0.19 0.53 0.521 1.861 1.865 0.127 -0.089 -1.139 -2.394 -0.378 -0.685 -0.25 -0.364 -1.903 -1.673 -2.03 -0.66 -2.055 0.174 -1.786 0.914 -1.154 1.323 -0.785 2.401 -0.151 2.448 0.766 7.153 1.493 -0.246 0 0 -0.363 -1.352 0 0 0.271 -2.028 0.051 -0.214 0.62 -1.442 0.018 -0.05 0.714 -0.748" />
    <path class="write-flat-pen" fill="#FFFFFF" stroke-width="1.6" __comx="234.07" __comy="47.772" __timestamp="0x178933d5937" d="M233.283 48.032 l-0.274 0.889 -0.037 0.225 -0.114 1.588 0.006 0.428 0.877 5.959 1.395 1.316 0.146 -0.084 -0.302 -1.655 -0.749 -5.672 -0.04 -0.338 -0.141 -1.518 -0.018 -0.132 0.036 -0.868" />
    <path class="write-flat-pen" fill="#FFFFFF" stroke-width="1.6" __comx="235.725" __comy="47.772" __timestamp="0x178933d59d4" d="M234.783 41.776 l0.522 0.601 1.273 0.362 0.088 -0.138 -0.759 -0.938 -0.466 -0.485" />
    <path class="write-flat-pen" fill="#FFFFFF" stroke-width="1.6" __comx="248.253" __comy="47.772" __timestamp="0x178933d5b6a" d="M246.037 32.256 l-0.325 1.233 -0.072 0.454 -0.166 3.213 0.056 1.171 2.145 19.549 0.976 4.036 0.249 0.433 0.24 0.274 1.714 1.91 0.176 -0.107 -0.902 -2.402 -0.094 -0.276 -0.071 -0.267 -0.708 -3.859 -2.259 -19.428 -0.107 -1.08 -0.114 -3.115 -0.002 -0.37 0.099 -1.225" />
    <path class="write-flat-pen" fill="#FFFFFF" stroke-width="1.6" __comx="281.217" __comy="47.772" __timestamp="0x178933d5e5c" d="M273.295 41.331 l-0.514 -0.729 -0.008 -0.051 -0.225 -1.02 0.011 -0.106 0.721 -2.358 0.109 -0.15 1.54 -1.528 2.529 -1.304 2.858 -0.716 2.573 -0.05 1.405 0.397 0.933 0.725 0.509 0.963 0.122 1.495 -0.737 2.574 -3.14 5.448 -3.458 4.776 -7.544 8.578 -0.615 1.739 1.529 0.916 16.123 -1.376 0.736 -0.179 0.658 -0.2 2.659 -0.786 -0.038 -0.266 -2.773 -0.001 -0.694 -0.005 -0.71 0.045 -15.577 1.133 0.032 0.019 0.075 -0.214 7.39 -8.403 3.551 -4.905 3.279 -5.69 0.871 -3.043 -0.172 -2.113 -0.824 -1.558 -1.452 -1.127 -1.934 -0.545 -2.993 0.062 -3.212 0.817 -2.898 1.533 -1.764 1.856 -0.31 0.491 -0.561 2.878 0.077 0.44 0.543 1.145 0.138 0.18 0.749 0.619" />
    <path class="write-flat-pen" fill="#FFFFFF" stroke-width="1.6" __comx="294.218" __comy="47.772" __timestamp="0x178933d6089" d="M290.032 30.935 l-0.333 -1.089 -0.747 -0.122 -0.374 1.049 -0.022 0.35 0.711 6.874 0 0 0.554 1.128 0 0 1.269 0.214 0.681 -0.664 1.737 -5.202 1.275 -2.412 0.669 -0.612 0.598 -0.117 0.538 0.374 0.618 1.407 1.031 6.453 1.443 1.249 0.2 -0.125 -0.33 -1.602 -0.791 -6.418 -0.887 -2.021 -1.464 -1.02 -1.703 0.335 -1.205 1.102 -1.466 2.775 -1.653 4.963 -0.403 0.399 1.269 0.214 0 0 -0.443 -0.882 0 0 -0.931 -6.496 -0.023 -0.131 -0.124 -0.084 -0.676 -0.112 0.363 0.494" />
    <path class="write-flat-pen" fill="#FFFFFF" stroke-width="1.6" __comx="306.394" __comy="47.772" __timestamp="0x178933d6245" d="M308.631 26.127 l-0.627 0.402 -0.137 0.205 -0.469 1.099 -0.103 0.447 -0.426 5.333 0.321 3.776 0 0 0.588 1.064 0 0 1.351 -0.843 -0.892 -1.282 -1.727 -0.988 -1.785 -0.153 -1.682 0.644 -1.153 1.302 -0.377 1.567 0.39 1.613 1.419 1.511 2.278 0.875 2.476 -0.112 0.504 -0.175 0.389 -0.2 2.303 -1.197 -0.043 -0.142 -2.58 0.288 -0.39 0.037 -0.335 0.014 -2.027 -0.114 -1.659 -0.638 -0.879 -0.936 -0.2 -0.827 0.193 -0.804 0.629 -0.71 0.973 -0.373 1.068 0.091 1.11 0.634 0.689 0.985 1.351 -0.843 0 0 -0.429 -0.766 0 0 -0.309 -3.324 0.176 -5.16 0.025 -0.306 0.164 -1.003 -0.032 0.008 0.34 -0.471" />
    <path class="write-flat-pen" fill="#FFFFFF" stroke-width="1.6" __comx="174.203" __comy="110.319" __timestamp="0x178933d6551" d="M176.655 94.921 l0.807 -1.04 0.092 -0.148 0.506 -1.168 0.052 -0.437 -0.981 -2.064 -0.603 -0.344 -2.05 -0.481 -2.833 0.276 -3.415 1.157 -2.046 1.28 -1.451 1.759 -0.863 2.445 0.2 2.176 0.879 1.626 1.583 1.436 3.016 1.544 8.499 2.898 2.852 1.412 1.263 1.187 0.724 1.55 0.043 1.241 -0.454 1.35 -1.153 1.468 -1.753 1.318 -3.2 1.318 -3.337 0.49 -2.556 -0.235 -1.742 -0.656 -0.448 -0.448 -0.075 -0.561 1.059 -1.564 0.395 -0.353 0.543 -0.425 0.567 -0.432 1.996 -1.496 -0.085 -0.157 -2.342 0.859 -0.695 0.253 -0.691 0.327 -0.672 0.411 -1.748 2.135 0.234 1.751 1.075 1.075 2.267 0.854 2.962 0.273 3.721 -0.546 3.571 -1.47 2.084 -1.567 1.452 -1.849 0.635 -1.886 -0.064 -1.858 -0.992 -2.124 -1.659 -1.56 -3.159 -1.564 -8.489 -2.894 -2.724 -1.394 -1.223 -1.11 -0.593 -1.098 -0.138 -1.501 0.652 -1.849 1.105 -1.342 1.668 -1.048 3.066 -1.056 2.409 -0.272 1.622 0.308 0.066 0.02 0.858 1.267 0.023 -0.034 -0.209 1.047 -0.02 0.066 -0.565 1.153" />
    <path class="write-flat-pen" fill="#FFFFFF" stroke-width="1.6" __comx="190.791" __comy="110.319" __timestamp="0x178933d66d9" d="M185.749 112.021 l-1.197 0.852 0.463 0.665 1.85 0.677 0.572 0.05 3.288 -0.434 2.407 -0.937 1.662 -1.275 0.491 -1.359 -0.936 -1.379 -2.257 -0.481 -2.522 0.425 -2.373 1.19 -1.653 1.556 -1.122 2.134 -0.116 1.899 0.721 1.873 1.758 1.456 2.053 0.652 3.067 -0.069 0.832 -0.172 1.464 -0.471 0.672 -0.306 2.403 -1.092 -0.043 -0.14 -2.602 0.44 -0.693 0.112 -1.44 0.199 -0.687 0.058 -2.714 -0.134 -1.526 -0.506 -1.2 -0.994 -0.446 -1.157 0.074 -1.208 0.838 -1.592 1.288 -1.212 1.95 -0.978 1.985 -0.335 1.332 0.282 0.121 0.176 -0.055 0.159 -1.112 0.862 -2.024 0.812 -2.945 0.485 -0.263 -0.002 -1.392 -0.268 0.353 0.515 0.232 -0.381" />
    <path class="write-flat-pen" fill="#FFFFFF" stroke-width="1.6" __comx="204.09" __comy="110.319" __timestamp="0x178933d6814" d="M201.532 112.597 l0.504 -0.297 0.102 -0.053 0.658 -0.49 0.193 -0.191 0.813 -1.76 -0.515 -0.668 -1.5 -0.123 -1.648 0.96 -1.697 1.971 -0.879 2.074 -0.057 2.452 0.74 2.154 1.178 1.445 1.653 0.95 2.031 0.369 3.836 -1.153 0.759 -0.512 0.647 -0.553 0.574 -0.638 1.752 -1.937 -0.155 -0.183 -2.2 1.407 -0.689 0.431 -0.648 0.379 -0.598 0.301 -3.351 0.82 -1.401 -0.254 -1.158 -0.665 -0.812 -0.995 -0.556 -1.614 0.04 -1.864 0.658 -1.572 1.353 -1.606 1.01 -0.63 0.4 -0.024 -0.363 -0.475 -0.203 0.923 -0.01 0.041 -0.422 0.618 -0.056 0.078 -0.344 0.503" />
    <path class="write-flat-pen" fill="#FFFFFF" stroke-width="1.6" __comx="216.993" __comy="110.319" __timestamp="0x178933d68e1" d="M214.366 97.505 l-0.394 2.017 -0.022 0.608 2.65 14.899 1.208 3.705 0.195 0.345 0.158 0.202 1.686 2.126 0.188 -0.101 -0.831 -2.583 -0.06 -0.204 -0.072 -0.25 -0.922 -3.609 -2.847 -14.659 -0.029 -0.401 0.11 -1.965" />
    <path class="write-flat-pen" fill="#FFFFFF" stroke-width="1.6" __comx="216.206" __comy="110.319" __timestamp="0x178933d69ae" d="M209.88 109.251 l2.149 1.241 0.589 0.17 5.595 0.581 0.859 -0.065 0.837 -0.153 2.622 -0.475 -0.008 -0.174 -2.655 -0.227 -0.813 -0.075 -0.752 -0.09 -5.387 -0.816 -0.345 -0.084 -2.138 -0.926" />
    <path class="write-flat-pen" fill="#FFFFFF" stroke-width="1.6" __comx="231.473" __comy="110.319" __timestamp="0x178933d6ac6" d="M231.573 109.225 l-0.212 0.384 -0.07 0.128 -0.262 0.69 -0.099 0.348 -0.415 1.886 -0.096 0.564 -0.369 3.561 0.711 1.713 0.684 0.157 0.398 -0.189 1.053 -0.65 -0.036 -0.176 -1.225 -0.181 -0.123 -0.082 0.299 0.034 -0.199 -0.827 0.217 -3.204 0.049 -0.523 0.165 -1.901 0.018 -0.342 0.005 -0.714 -0.013 -0.122 -0.003 -0.429" />
    <path class="write-flat-pen" fill="#FFFFFF" stroke-width="1.6" __comx="233.871" __comy="110.319" __timestamp="0x178933d6b44" d="M233.903 101.787 l-0.355 0.642 -0.119 1.31 0.086 0.022 0.507 -1.152 0.291 -0.611" />
    <path class="write-flat-pen" fill="#FFFFFF" stroke-width="1.6" __comx="244.33" __comy="110.319" __timestamp="0x178933d6cbc" d="M242.614 110.425 l0.365 -0.48 0.022 -0.37 -0.6 -0.66 -0.406 -0.099 -1.436 0.166 -1.456 1.083 -1.167 2.099 -0.438 2.227 0.351 2.371 1.257 2.135 1.544 1.121 2.172 0.597 2.314 -0.212 2.214 -0.866 2.217 -1.792 1.225 -2.061 0.371 -2.212 -0.579 -2.415 -2.195 -2.918 -2.358 -1.184 -0.111 0.125 1.328 2.101 1.857 2.565 0.427 1.782 -0.268 1.595 -0.925 1.557 -1.802 1.456 -1.772 0.694 -1.798 0.165 -1.612 -0.442 -1.041 -0.754 -0.934 -1.58 -0.274 -1.796 0.322 -1.727 0.857 -1.633 0.871 -0.732 0.821 -0.219 -0.127 -0.043 0.145 -0.042 0.02 -0.328 -0.071 0.389" />
    <path class="write-flat-pen" fill="#FFFFFF" stroke-width="1.6" __comx="259.822" __comy="110.319" __timestamp="0x178933d6e54" d="M253.414 113.165 l0.149 0.018 -0.5 -0.214 0.108 0.451 0.053 0.177 1.227 4.074 1.252 1.407 1.448 -1.084 1.21 -6.524 0.802 -2.268 0.932 -1.231 0.758 -0.376 0.777 0.175 0.704 0.681 0.973 1.931 1.782 6.942 1.417 2.565 0.317 -0.102 -0.331 -2.861 -1.675 -7.102 -1.177 -2.334 -1.222 -1.181 -1.769 -0.398 -1.603 0.796 -1.309 1.729 -0.926 2.622 -1.108 6.044 0.204 -0.146 -0.085 -0.078 -1.357 -3.747 -0.138 -0.271 -0.513 -0.675 -0.588 -0.257 -0.404 0.843" />
    <path class="write-flat-pen" fill="#FFFFFF" stroke-width="1.6" __comx="301.666" __comy="110.319" __timestamp="0x178933d71c1" d="M290.905 102.112 l-0.353 -0.873 -0.015 -0.079 -0.162 -0.971 0.014 -0.019 0.593 -2.233 0.116 -0.192 1.178 -1.463 1.882 -1.275 2.641 -0.816 2.71 -0.183 1.737 0.346 1.885 1.065 1.186 1.487 0.662 2.023 0.059 1.839 -0.611 2.77 -1.548 3.047 -2.379 3.202 -2.777 2.814 -9.211 6.79 0 0 -0.58 0.994 0 0 0.726 1.202 10.538 -0.459 4.614 0.212 6.134 1.128 1.688 -0.164 1.795 -1.252 1.718 -3.841 0.26 -2.862 -0.29 -0.082 -1.238 2.463 -1.708 3.249 -1.108 0.773 -1.047 0.102 -6.021 -1.107 -4.795 -0.22 -10.61 0.462 0.726 1.202 0 0 0.413 -0.708 0 0 9.046 -6.668 2.944 -2.983 2.527 -3.401 1.701 -3.349 0.698 -3.164 -0.072 -2.268 -0.823 -2.514 -1.559 -1.955 -2.379 -1.343 -2.197 -0.436 -3.109 0.215 -3.043 0.958 -2.256 1.573 -1.348 1.787 -0.26 0.499 -0.413 2.709 0.064 0.308 0.459 1.032 0.091 0.15 0.595 0.776" />
    <path class="write-flat-pen" fill="#FFFFFF" stroke-width="1.6" __comx="71.217" __comy="199.976" __timestamp="0x178933d768b" d="M66.19 189.298 l0.985 -0.483 0.225 -0.129 0.897 -0.646 0.171 -0.167 0.999 -1.188 0.201 -0.333 1.152 -3.017 0.06 -0.426 -0.213 -1.689 -1.218 -1.333 -1.988 -0.371 -2.688 0.63 -3.022 1.539 -2.707 2.319 -2.289 2.935 -1.862 3.462 -1.203 3.793 -0.428 3.858 0.65 3.785 1.727 3.336 2.585 2.606 2.402 1.154 2.806 0.533 4.779 -0.437 3.582 -1.086 5.057 -2.363 4.662 -2.83 3.628 -3.081 2.506 -3.164 1.275 -2.845 0.245 -2.777 -0.716 -2.038 -1.565 -1.91 -2.247 -1.63 -4.061 -1.761 -3.683 -0.803 -4.218 -0.165 -3.784 0.678 -2.798 1.13 -2.171 1.932 -0.304 0.554 -0.175 0.501 -0.876 2.504 0.248 0.135 1.631 -2.091 0.299 -0.368 0.248 -0.276 1.934 -1.501 2.411 -0.973 3.449 -0.618 3.904 0.153 3.393 0.739 3.757 1.629 1.938 1.405 1.255 1.532 0.508 1.446 -0.191 2.164 -1.083 2.417 -2.284 2.884 -3.41 2.896 -4.479 2.719 -4.875 2.278 -3.317 1.005 -4.392 0.401 -2.379 -0.452 -1.965 -0.944 -2.219 -2.236 -1.5 -2.898 -0.569 -3.318 0.386 -3.477 1.11 -3.5 1.727 -3.211 2.107 -2.702 2.44 -2.092 2.68 -1.37 2.177 -0.521 1.154 0.2 0.559 0.579 0.166 1.008 -0.005 0.087 -0.814 2.876 -0.081 0.204 -0.705 1.25 -0.078 0.122 -0.668 0.78 -0.15 0.15 -0.84 0.677" />
    <path class="write-flat-pen" fill="#FFFFFF" stroke-width="1.6" __comx="76.35" __comy="199.976" __timestamp="0x178933d782d" d="M67.318 205.351 l-0.469 -0.776 -0.014 -0.072 -0.172 -1.122 0.007 -0.151 0.391 -1.84 0.105 -0.261 0.958 -1.699 1.382 -1.364 1.548 -0.769 1.193 -0.075 0.815 0.389 0.794 0.983 0.631 2.111 0.282 4.718 0.611 2.299 1.171 1.545 1.625 0.91 4.227 -0.006 0.843 -0.232 0.741 -0.273 0.68 -0.333 2.369 -1.155 -0.053 -0.163 -2.595 0.461 -0.715 0.121 -0.716 0.109 -0.679 0.084 -3.668 -0.193 -0.986 -0.56 -0.779 -1.03 -0.49 -1.84 -0.286 -4.743 -0.779 -2.589 -1.226 -1.505 -1.519 -0.71 -1.919 0.145 -2.037 1.06 -1.656 1.749 -0.98 2.049 -0.138 0.481 -0.153 2.114 0.061 0.346 0.474 1.185 0.109 0.176 0.709 0.674" />
    <path class="write-flat-pen" fill="#FFFFFF" stroke-width="1.6" __comx="99.337" __comy="199.976" __timestamp="0x178933d7a1e" d="M92.278 200.222 l0.285 -0.778 0.029 -0.031 0.154 0.005 -0.608 -0.102 -0.024 0.407 0.003 0.244 0.214 4.795 0.672 2.139 1.088 1.154 1.568 0.381 1.844 -0.604 2.257 -1.987 1.986 -2.982 1.08 -2.871 0.2 -2.149 -0.843 -1.355 -1.492 0.468 -0.424 1.728 0.505 2.122 1.3 2.248 1.72 1.255 0.43 0.139 2.513 0.749 0.1 -0.2 -2.099 -1.572 -0.235 -0.196 -1.211 -1.193 -1.015 -1.823 -0.363 -1.524 0.117 -0.477 -0.551 0.173 -0.096 -0.155 -0.13 1.399 -0.94 2.499 -1.768 2.656 -1.853 1.633 -1.102 0.364 -0.671 -0.16 -0.521 -0.545 -0.522 -1.606 -0.405 -4.618 -0.063 -0.379 -0.438 -1.05 -0.694 -0.12 -0.346 0.785 -0.043 0.167 -0.053 0.877" />
    <path class="write-flat-pen" fill="#FFFFFF" stroke-width="1.6" __comx="111.983" __comy="199.976" __timestamp="0x178933d7b0f" d="M110.951 198.883 l-0.079 0.948 -0.007 0.228 0.019 1.213 0.044 0.397 0.389 3.472 0.037 0.361 0.372 1.564 0.219 0.195 1.007 0.636 0.15 -0.1 -0.196 -1.174 0.05 -0.06 -0.177 -1.284 -0.047 -0.332 -0.671 -3.467 -0.095 -0.366 -0.246 -1.143 -0.047 -0.195 -0.161 -0.917" />
    <path class="write-flat-pen" fill="#FFFFFF" stroke-width="1.6" __comx="112.743" __comy="199.976" __timestamp="0x178933d7b91" d="M113.169 192.036 l-1.323 0.868 0.491 1.139 0.155 -0.017 0.285 -0.691 0.86 -0.601" />
    <path class="write-flat-pen" fill="#FFFFFF" stroke-width="1.6" __comx="124.039" __comy="199.976" __timestamp="0x178933d7d42" d="M120.268 195.612 l-1.034 -0.155 0.252 0.022 0.126 -0.056 0 0 -0.369 0.996 0.063 -0.008 3.8 -0.44 2.949 0.12 0.99 0.41 0.495 0.596 0.154 0.979 -0.545 1.923 -3.05 5.844 -0.751 2.399 0.448 1.56 2.263 1.27 0.524 0.036 0.739 -0.09 2.325 -0.466 -0.001 -0.114 -2.305 -0.437 -0.633 -0.151 -0.168 -0.072 -1.378 -1.007 -0.146 -0.509 0.565 -1.805 3.059 -5.863 0.685 -2.42 -0.279 -1.76 -1.031 -1.236 -1.62 -0.664 -3.37 -0.113 -4.045 0.646 -0.182 0.075 -0.369 0.996 0 0 0.386 0.385 0.342 0.033 1.092 -0.11" />
    <path class="write-flat-pen" fill="#FFFFFF" stroke-width="1.6" __comx="128.082" __comy="199.976" __timestamp="0x178933d7e1e" d="M122.863 203.834 l0.832 -0.422 0.102 -0.015 7.376 -1.387 2.632 -0.692 -0.023 -0.187 -2.743 -0.034 -7.543 1.16 -0.323 0.138 -0.814 0.705" />
    <path class="write-flat-pen" fill="#FFFFFF" stroke-width="1.6" __comx="167.095" __comy="199.976" __timestamp="0x178933d81b9" d="M159.761 194.1 l-0.597 1.164 -0.094 0.382 -0.191 4.005 0.055 0.705 1.034 6.192 0.308 0.49 1.292 0.317 0.546 -2.197 -0.371 -4.567 -3.244 -16.899 -1.053 -3.485 0 0 -0.731 -0.448 -1.155 0.371 1.155 -0.371 -1.155 0.371 -0.133 0.315 0 0 0.608 1.1 7.204 1.179 5.162 1.405 3.392 1.536 2.32 1.581 1.696 1.935 0.794 1.651 0.552 2.661 -0.091 2.263 -0.761 3.029 -1.43 2.679 -1.781 2.088 -2.153 1.606 -2.407 0.941 -2.91 0.463 -1.224 -0.161 -0.045 0.076 -0.077 0.081 0.003 -0.275 0.212 -1.536 -0.192 -0.085 -0.997 1.187 -0.283 0.369 -0.138 0.624 0.603 1.031 2.155 0.308 3.315 -0.528 2.769 -1.082 2.471 -1.843 2.01 -2.357 1.604 -3.005 0.849 -3.38 0.105 -2.625 -0.631 -3.046 -0.974 -2.024 -1.974 -2.252 -2.603 -1.774 -3.635 -1.646 -5.366 -1.461 -7.286 -1.192 0.608 1.1 0 0 0.133 -0.315 -1.155 0.371 1.155 -0.371 -1.155 0.371 0.211 0.13 0 0 0.853 2.823 3.223 16.734 0.39 4.241 -0.088 0.59 0.634 0.179 0.126 0.215 -1.247 -5.829 -0.07 -0.598 -0.075 -3.888 0.022 -0.26 0.323 -1.196" />
    <path class="write-flat-pen" fill="#FFFFFF" stroke-width="1.6" __comx="181.271" __comy="199.976" __timestamp="0x178933d8288" d="M181.002 197.045 l-0.66 0.819 -0.118 0.273 -0.351 2.289 0.013 0.465 1.021 4.52 1.581 1.635 0.181 -0.103 -0.491 -2.017 -0.869 -4.226 -0.024 -0.246 0.062 -2.073 -0.007 -0.042 0.376 -0.853" />
    <path class="write-flat-pen" fill="#FFFFFF" stroke-width="1.6" __comx="184.536" __comy="199.976" __timestamp="0x178933d832b" d="M183.932 190.958 l0.051 1.209 1.047 1.085 0.111 -0.065 -0.317 -1.261 -0.019 -0.995" />
    <path class="write-flat-pen" fill="#FFFFFF" stroke-width="1.6" __comx="192.817" __comy="199.976" __timestamp="0x178933d84a7" d="M194.091 196.866 l-0.497 -0.759 -0.124 -0.176 -1.277 -1.018 -2.026 -0.55 -1.39 0.527 -0.577 1.248 0.717 1.74 5.398 4.426 1.236 1.524 0.23 0.846 -0.184 0.75 -0.681 0.667 -1.36 0.516 -1.417 0.029 -1.033 -0.375 -0.356 -0.386 -0.14 -0.394 -0.028 -0.154 0.196 -1.844 -0.186 -0.073 -1.112 1.484 -0.235 0.373 -0.036 1.25 0.97 1.11 1.695 0.616 1.991 -0.041 1.931 -0.733 1.246 -1.22 0.391 -1.595 -0.428 -1.571 -1.551 -1.913 -5.226 -4.268 -0.316 -0.736 0.017 -0.059 0.34 -0.149 1.313 0.284 1.03 0.618 0.06 0.044 0.712 0.593" />
    <path class="write-flat-pen" fill="#FFFFFF" stroke-width="1.6" __comx="202.101" __comy="199.976" __timestamp="0x178933d85ae" d="M204.844 200.439 l0.066 -0.659 0.021 -0.092 0.087 -1.224 -0.067 -0.375 -0.652 -1.249 -1.584 -0.849 -1.829 0.268 -1.677 1.296 -1.14 2.15 -0.31 2.062 0.42 2.744 1.153 2.121 1.533 1.115 1.917 0.428 0.714 -0.075 0.638 -0.197 2.31 -0.726 -0.024 -0.171 -2.421 -0.062 -0.588 -0.025 -0.447 -0.07 -1.399 -0.517 -0.996 -0.771 -0.853 -1.567 -0.344 -2.23 0.23 -1.557 0.845 -1.616 1.078 -0.856 0.937 -0.167 0.793 0.365 0.427 0.642 0.027 0.057 0.182 1.099 0.028 0.11 0.175 0.66" />
    <path class="write-flat-pen" fill="#FFFFFF" stroke-width="1.6" __comx="219.575" __comy="199.976" __timestamp="0x178933d8846" d="M213.135 196.845 l-0.716 -0.129 -0.244 0.216 -0.469 0.671 -0.13 0.335 -0.463 4.106 0.059 0.512 0.563 1.731 1.168 1.355 1.548 0.632 1.841 -0.155 2.401 -1.164 2.241 -2.185 1.284 -2.132 0.537 -2.197 -0.428 -0.817 0 0 -1.091 -0.332 -0.94 0.512 -0.815 2.662 0.06 2.464 0.889 2.878 1.22 1.796 2.95 1.289 0.704 -0.105 0.537 -0.219 2.191 -0.914 -0.043 -0.203 -2.374 0.058 -0.483 -0.002 -0.254 -0.05 -2.151 -1.115 -0.839 -1.236 -0.753 -2.437 -0.048 -1.983 0.548 -1.79 0.366 -0.199 -1.091 -0.332 0 0 0.148 0.282 -0.336 1.374 -1.052 1.748 -1.907 1.861 -1.901 0.925 -1.166 0.102 -0.847 -0.34 -0.725 -0.824 -0.441 -1.28 -0.03 -0.204 0.165 -3.831 0.014 -0.126 0.131 -0.556 -0.166 0.137 0.335 -0.131" />
    <path class="write-flat-pen" fill="#FFFFFF" stroke-width="1.6" __comx="234.117" __comy="199.976" __timestamp="0x178933d89ed" d="M232.661 196.036 l-0.593 0.371 -0.013 -0.001 -1.238 0.726 -0.182 0.124 -1.011 0.973 -0.103 1.537 1.369 1.213 4.212 1.948 1.643 1.248 0.356 0.68 -0.032 0.836 -0.657 1.032 -1.221 0.888 -2.071 0.7 -0.789 -0.014 -0.164 -0.001 -0.1 0.052 -0.423 -1.326 -0.223 -0.009 -0.524 1.289 -0.12 0.547 0.89 1.029 1.7 0.037 2.567 -0.868 1.664 -1.21 1.052 -1.654 0.064 -1.695 -0.72 -1.373 -2.068 -1.567 -4.178 -1.903 -0.658 -0.55 -0.013 -0.229 0.483 -0.539 0.078 -0.066 1.134 -0.98 0.053 -0.063 0.411 -0.57" />
    <path class="write-flat-pen" fill="#FFFFFF" stroke-width="1.6" __comx="245.926" __comy="199.976" __timestamp="0x178933d8b7c" d="M247.603 197.86 l-0.392 -0.61 -0.04 -0.053 -0.775 -0.807 -0.284 -0.208 -1.561 -0.697 -1.689 0.145 -1.111 0.921 -0.338 1.451 0.927 1.628 5.967 3.005 0.617 0.608 -0.037 0.416 -0.842 0.97 -1.651 0.957 -2.372 0.693 -0.796 -0.065 -0.532 -0.483 -0.086 -0.017 -0.485 -1.729 -0.295 0.001 -0.476 1.732 -0.084 0.546 1.175 1.492 1.744 0.142 2.842 -0.83 2.049 -1.188 1.356 -1.562 0.15 -1.683 -1.334 -1.314 -5.772 -2.893 -0.396 -0.676 0.07 -0.349 0.336 -0.302 0.851 -0.118 1.141 0.397 0.13 0.068 0.842 0.534 0.006 -0.005 0.577 0.42" />
    <path class="write-flat-pen" fill="#FFFFFF" stroke-width="1.6" __comx="256.622" __comy="199.976" __timestamp="0x178933d8d31" d="M256.539 196.235 l-0.616 0.954 -0.116 0.315 -0.506 2.781 -0.052 0.65 -0.029 3.996 0.734 1.888 0.409 0.18 1.502 0.404 0.159 -0.243 -0.973 -1.214 0.073 -0.04 -0.348 -1.241 -0.061 -3.692 0.017 -0.553 0.218 -2.68 0.017 -0.15 0.335 -0.981" />
    <path class="write-flat-pen" fill="#FFFFFF" stroke-width="1.6" __comx="258.611" __comy="199.976" __timestamp="0x178933d8dc6" d="M259.366 193.091 l-0.607 -0.451 -0.737 -0.334 -0.167 0.113 0.131 0.946 0.72 0.577" />
    <path class="write-flat-pen" fill="#FFFFFF" stroke-width="1.6" __comx="267.018" __comy="199.976" __timestamp="0x178933d8f39" d="M267.374 198.968 l-0.174 0.037 0.334 0.142 -0.254 -0.371 -0.157 -0.174 -1.745 -1.392 -1.764 -0.349 -1.333 0.727 -0.849 1.769 0.212 2.488 1.187 2.491 1.735 1.8 2.09 0.964 1.874 0.139 2.11 -0.717 1.181 -1.151 0.785 -1.944 -0.214 -2.238 -0.973 -1.934 -2.739 -3.068 -2.358 -1.551 -0.167 0.158 1.403 2.415 2.523 2.946 0.747 1.485 0.149 1.55 -0.512 1.27 -0.681 0.664 -1.459 0.496 -1.26 -0.094 -1.555 -0.716 -1.348 -1.396 -0.956 -1.995 -0.162 -1.773 0.433 -0.941 0.406 -0.243 0.909 0.134 1.545 0.982 0.152 0.106 0.521 0.286 0.371 0.159 0.515 -0.605" />
    <path class="write-flat-pen" fill="#FFFFFF" stroke-width="1.6" __comx="281.64" __comy="199.976" __timestamp="0x178933d90e7" d="M274.937 200.34 l0.111 -0.809 0.013 0.05 0.015 0.198 -0.646 -0.254 0.311 1.628 0.03 0.333 0.239 4.009 0 0 0.666 0.783 0 0 1.335 -0.209 2.389 -5.638 1.044 -1.544 0.954 -0.597 1.041 -0.014 0.969 0.53 1.431 1.609 1.385 2.564 1.441 4.192 1.252 2.587 0.21 -0.051 -0.091 -2.923 -1.334 -4.436 -1.544 -2.857 -1.739 -1.956 -1.581 -0.864 -1.909 0.025 -1.621 1.014 -1.32 1.954 -2.44 5.785 1.335 -0.209 0 0 -0.332 -0.378 0 0 -0.275 -3.517 -0.065 -0.48 -0.753 -2.236 -0.791 -0.316 -0.504 0.927 -0.008 0.25 0.139 0.859" />
    <path class="write-flat-pen" fill="#FFFFFF" stroke-width="1.6" __comx="196.911" __comy="224.267" __timestamp="0x178933d941a" d="M55.87 229.736 l-2.004 -0.596 -0.323 -0.489 0 0 -0.112 0.598 0.625 -0.408 4.008 -0.437 30.599 0.456 2.899 -0.044 16.241 -0.532 59.371 -4.387 26.012 -1.444 21.777 -0.57 90.088 -0.906 5.788 -0.318 11.532 -0.611 5.853 -0.356 5.871 -0.378 5.862 -0.457 1.029 -0.078 -0.007 -0.133 -1.032 0.025 -5.877 0.13 -5.879 0.161 -5.861 0.141 -11.546 0.337 -5.771 0.217 -90.079 0.675 -21.812 0.592 -26.049 1.447 -59.348 4.541 -16.2 0.644 -2.869 0.071 -30.646 -0.186 -4.277 0.544 -0.788 0.556 -0.112 0.598 0 0 0.514 0.727 2.32 0.597" />
  </g>
</svg>
