<?xml version="1.0" encoding="UTF-8" standalone="no"?>
<svg
   xmlns:osb="http://www.openswatchbook.org/uri/2009/osb"
   xmlns:dc="http://purl.org/dc/elements/1.1/"
   xmlns:cc="http://creativecommons.org/ns#"
   xmlns:rdf="http://www.w3.org/1999/02/22-rdf-syntax-ns#"
   xmlns:svg="http://www.w3.org/2000/svg"
   xmlns="http://www.w3.org/2000/svg"
   xmlns:sodipodi="http://sodipodi.sourceforge.net/DTD/sodipodi-0.dtd"
   xmlns:inkscape="http://www.inkscape.org/namespaces/inkscape"
   width="159.01419mm"
   height="117.06093mm"
   viewBox="0 0 159.01419 117.06093"
   version="1.1"
   id="svg8"
   sodipodi:docname="2021-04-09_22-41.svg"
   inkscape:version="1.0.2 (e86c870879, 2021-01-15)">
  <defs
     id="defs2">
    <inkscape:path-effect
       effect="interpolate"
       id="path-effect3713"
       is_visible="true"
       lpeversion="1"
       trajectory="M 91.770833,2.562503 C 89.125,-39.77083 54.729167,-58.291664 15.041667,-45.062497"
       equidistant_spacing="true"
       steps="8"
       trajectory-nodetypes="cc" />
    <inkscape:path-effect
       effect="interpolate"
       id="path-effect3688"
       is_visible="true"
       lpeversion="1"
       trajectory="M 76.74964,-47.820581 -29.9375,51.253883"
       equidistant_spacing="true"
       steps="13" />
    <inkscape:path-effect
       effect="interpolate"
       id="path-effect3622"
       is_visible="true"
       lpeversion="1"
       trajectory="m -47.115299,-73.997493 -25.148449,38.083865"
       equidistant_spacing="true"
       steps="5" />
    <inkscape:path-effect
       effect="curvestitching"
       id="path-effect3615"
       is_visible="true"
       lpeversion="1"
       count="10"
       startpoint_edge_variation="0;1"
       startpoint_spacing_variation="0;1"
       endpoint_edge_variation="0;1"
       endpoint_spacing_variation="0;1"
       strokepath="M 0,0 H 1"
       prop_scale="1"
       scale_y_rel="false" />
    <inkscape:path-effect
       effect="interpolate"
       id="path-effect3592"
       is_visible="true"
       lpeversion="1"
       trajectory="M 0,0 V 0"
       equidistant_spacing="true"
       steps="3" />
    <inkscape:path-effect
       effect="envelope"
       id="path-effect3571"
       is_visible="true"
       lpeversion="1"
       yy="true"
       xx="true"
       bendpath1="m 38.354163,177.1875 c 24.231832,-12.87692 31.780783,32.17174 127.999997,0"
       bendpath2="m 166.35416,177.1875 c 53.39805,33.40501 58.01744,73.97465 0,108.97915"
       bendpath3="m 38.354163,286.16665 c 28.44569,-15.95331 73.943617,1.65431 127.999997,0"
       bendpath4="m 38.354163,177.1875 c 9.92349,20.96512 55.012045,22.7262 0,108.97915"
       bendpath4-nodetypes="cc"
       bendpath2-nodetypes="cc"
       bendpath3-nodetypes="cc"
       bendpath1-nodetypes="cc" />
    <linearGradient
       id="linearGradient2885"
       osb:paint="solid">
      <stop
         style="stop-color:#000000;stop-opacity:1;"
         offset="0"
         id="stop2883" />
    </linearGradient>
  </defs>
  <sodipodi:namedview
     id="base"
     pagecolor="#ffffff"
     bordercolor="#000000"
     borderopacity="1"
     inkscape:pageopacity="0.0"
     inkscape:pageshadow="2"
     inkscape:zoom="1.4655637"
     inkscape:cx="345.78945"
     inkscape:cy="242.61111"
     inkscape:document-units="mm"
     inkscape:current-layer="layer1"
     inkscape:document-rotation="0"
     showgrid="true"
     showborder="true"
     borderlayer="true"
     inkscape:showpageshadow="false"
     objecttolerance="10000"
     guidetolerance="10000"
     inkscape:snap-perpendicular="true"
     inkscape:snap-tangential="true"
     inkscape:window-width="1900"
     inkscape:window-height="1029"
     inkscape:window-x="9"
     inkscape:window-y="40"
     inkscape:window-maximized="0">
    <sodipodi:guide
       position="55.975704,59.102255"
       orientation="0,793.70079"
       id="guide10" />
    <sodipodi:guide
       position="265.97571,59.102255"
       orientation="559.37008,0"
       id="guide12" />
    <sodipodi:guide
       position="265.97571,-88.897742"
       orientation="0,-793.70079"
       id="guide14" />
    <sodipodi:guide
       position="55.975704,-88.897742"
       orientation="-559.37008,0"
       id="guide16" />
    <inkscape:grid
       type="xygrid"
       id="grid20"
       dotted="true"
       units="px"
       originx="160.97569"
       originy="131.95867" />
  </sodipodi:namedview>
  <metadata
     id="metadata5">
    <rdf:RDF>
      <cc:Work
         rdf:about="">
        <dc:format>image/svg+xml</dc:format>
        <dc:type
           rdf:resource="http://purl.org/dc/dcmitype/StillImage" />
        <dc:title />
        <cc:license
           rdf:resource="" />
      </cc:Work>
    </rdf:RDF>
  </metadata>
  <g
     inkscape:label="Layer 1"
     inkscape:groupmode="layer"
     id="layer1"
     transform="translate(55.975704,57.958671)">
    <path
       id="path865"
       style="fill:none;stroke:#3e8213;stroke-width:1;stroke-linecap:butt;stroke-linejoin:miter;stroke-miterlimit:4;stroke-dasharray:none;stroke-opacity:1"
       d="m -32.583338,-26.541676 c -1.676904,-7.025023 -1.238148,-17.608516 -5.12922,-22.202196 -9.692197,-1.068545 -22.203982,9.688606 -16.196321,19.435765 14.227556,9.331739 25.294291,0.120598 34.554707,-5.171069 -0.09372,22.214236 4.477324,45.494134 4.904846,65.348968 0.879012,9.315473 5.6784877,16.671866 8.4922756,26.518424 -18.7806856,-6.359565 -26.9540186,-1.837006 -35.0929546,1.001358 0,0 2.333077,-66.8318146 -12.699994,-87.217099"
       sodipodi:nodetypes="cccccccc" />
    <g
       id="g910"
       style="stroke:#a51d1e">
      <path
         id="path867"
         style="fill:none;stroke:#a51d1e;stroke-width:1;stroke-linecap:butt;stroke-linejoin:miter;stroke-miterlimit:4;stroke-dasharray:none;stroke-opacity:1"
         d="m 1.018745,-29.187509 c -1.32291666,-5.291666 -2.3774072,-12.019682 -3.175,-17.197917 11.7339223,-3.356931 16.177491,5.374369 16.200952,9.608428 0.01857,3.351771 -6.9405353,6.266572 -18.8467853,8.912406 C 8.2995675,-2.5493112 10.80082,31.141319 8.4270754,56.802074 24.156084,54.804154 35.797957,53.77569 53.670828,57.331241 43.610107,32.402592 48.725821,2.0389296 52.729998,-21.429026 c -22.029536,2.422902 -17.241291,-20.042397 0.676247,-26.279316 -2.645833,9.260417 -5.594289,20.246934 -8.202083,25.929166"
         sodipodi:nodetypes="ccscccccc" />
      <path
         id="path869"
         style="fill:none;stroke:#a51d1e;stroke-width:1;stroke-linecap:butt;stroke-linejoin:miter;stroke-miterlimit:4;stroke-dasharray:none;stroke-opacity:1"
         d="m -2.156255,-46.385426 c 4.4341182,-1.892029 8.7396558,-1.093694 13.603374,2.569252 4.980543,3.750928 10.370911,7.6071 15.010202,7.189184 13.541951,-1.219885 23.953707,-12.496968 26.948924,-11.081352"
         sodipodi:nodetypes="cssc" />
    </g>
    <path
       style="fill:none;stroke:#3e8213;stroke-width:1;stroke-linecap:butt;stroke-linejoin:miter;stroke-miterlimit:4;stroke-dasharray:none;stroke-opacity:1"
       d="m 77.259782,-34.041537 c -1.363954,-8.375139 -2.005314,-14.312905 -4.009787,-20.281389 19.04821,-6.291549 28.506885,-2.221877 25.695549,4.431008 -4.208444,8.191035 -13.111566,13.079588 -21.685762,15.850381 -4.114075,1.301963 -7.322816,0.512136 -9.301454,-0.437639 2.20366,7.382657 1.322917,70.114584 2.197657,87.908411 7.501467,-3.744159 24.812743,-3.55545 32.198175,0.727006 -5.764865,-31.88891 -13.717537,-79.53462 -2.910415,-107.420833"
       id="path871"
       sodipodi:nodetypes="cccccccc" />
    <path
       style="fill:none;stroke:#3e8213;stroke-width:0.7;stroke-linecap:butt;stroke-linejoin:miter;stroke-miterlimit:4;stroke-dasharray:0.7, 0.7;stroke-dashoffset:0;stroke-opacity:1"
       d="m -32.583338,-26.541676 c 2.645833,23.8125003 5.291666,48.947917 9.260416,71.4375 6.614584,2.645834 11.90625,7.9375 17.3658716,12.492392"
       id="path873"
       sodipodi:nodetypes="ccc" />
    <path
       style="fill:none;stroke:#3e8213;stroke-width:0.7;stroke-linecap:butt;stroke-linejoin:miter;stroke-miterlimit:4;stroke-dasharray:0.7, 0.7;stroke-dashoffset:0;stroke-opacity:1"
       d="m -23.322922,44.895824 c -3.96875,2.645834 -13.540518,7.812067 -17.727083,13.49375"
       id="path875"
       sodipodi:nodetypes="cc" />
    <path
       style="fill:none;stroke:#a51d1e;stroke-width:0.7;stroke-linecap:butt;stroke-linejoin:miter;stroke-miterlimit:4;stroke-dasharray:0.7,0.7;stroke-dashoffset:0;stroke-opacity:1"
       d="m 17.952078,45.160408 c 7.679273,-1.429024 23.8125,-0.79375 23.8125,-0.79375 3.704167,3.175 9.307487,9.823463 11.90625,12.964583"
       id="path879"
       sodipodi:nodetypes="ccc" />
    <g
       id="g914"
       style="stroke:#a51d1e;stroke-width:0.7;stroke-miterlimit:4;stroke-dasharray:0.7, 0.7;stroke-dashoffset:0">
      <path
         style="fill:none;stroke:#a51d1e;stroke-width:0.7;stroke-linecap:butt;stroke-linejoin:miter;stroke-miterlimit:4;stroke-dasharray:0.7, 0.7;stroke-dashoffset:0;stroke-opacity:1"
         d="m 1.018745,-29.452092 c 4.0426602,13.065152 16.933333,74.6125 16.933333,74.6125 -3.411026,3.901063 -6.35,7.408333 -9.5249997,11.641666"
         id="path877"
         sodipodi:nodetypes="ccc" />
      <path
         style="fill:none;stroke:#a51d1e;stroke-width:0.7;stroke-linecap:butt;stroke-linejoin:miter;stroke-miterlimit:4;stroke-dasharray:0.7, 0.7;stroke-dashoffset:0;stroke-opacity:1"
         d="m 45.204162,-21.779176 c -7.408333,13.2291673 -6.301751,48.88965 -3.439584,66.145834"
         id="path881"
         sodipodi:nodetypes="cc" />
    </g>
    <g
       id="g928"
       style="stroke:#3e8213;stroke-width:0.7;stroke-miterlimit:4;stroke-dasharray:0.7, 0.7;stroke-dashoffset:0">
      <path
         style="fill:none;stroke:#3e8213;stroke-width:0.7;stroke-linecap:butt;stroke-linejoin:miter;stroke-miterlimit:4;stroke-dasharray:0.7, 0.7;stroke-dashoffset:0;stroke-opacity:1"
         d="m 77.218745,-34.214592 c 0.841527,21.347951 7.744884,50.762814 8.466667,69.05625 -6.085417,9.525 -9.279288,11.338488 -15.529427,18.587577"
         id="path883"
         sodipodi:nodetypes="ccc" />
      <path
         style="fill:none;stroke:#3e8213;stroke-width:0.7;stroke-linecap:butt;stroke-linejoin:miter;stroke-miterlimit:4;stroke-dasharray:0.7, 0.7;stroke-dashoffset:0;stroke-opacity:1"
         d="m 85.949994,35.106241 c 3.175001,1.852083 6.87917,5.027083 14.816666,8.995833"
         id="path885"
         sodipodi:nodetypes="cc" />
    </g>
    <path
       style="opacity:0;fill:#3e8213;fill-opacity:0.560769;fill-rule:evenodd;stroke:#3e8213;stroke-width:1.58552;stroke-linejoin:round;stroke-miterlimit:4;stroke-dasharray:1.58552, 1.58552;stroke-dashoffset:0"
       d="m 118.77414,164.22627 c -10.63769,-1.97942 -21.483974,-10.19498 -26.994306,-20.44696 -1.713607,-3.18816 -1.771416,-3.56101 -1.76541,-11.38651 0.0068,-8.8923 0.03655,-8.99434 4.57183,-15.69369 5.061103,-7.47608 13.578826,-15.05882 22.553236,-20.077598 2.09081,-1.16925 7.35915,-3.345365 11.70742,-4.835811 7.247,-2.484041 8.50532,-2.732599 15.09742,-2.982214 l 7.19148,-0.27231 1.90841,3.23097 c 2.93928,4.976258 4.17125,8.770003 4.30596,13.259793 0.0675,2.25053 0.37408,6.02605 0.68125,8.39006 0.30717,2.36401 0.57251,6.3208 0.58964,8.79287 0.0225,3.24815 0.45261,5.6581 1.55083,8.68971 3.14212,8.67372 5.01832,17.9592 5.03676,24.92747 0.009,3.20727 0.24068,4.16067 1.23166,5.0575 1.15197,1.04252 1.16088,1.13891 0.15717,1.70062 -1.72794,0.967 -43.70752,2.41196 -47.82335,1.6461 z"
       id="path930"
       transform="matrix(0.26458333,0,0,0.26458333,-77.893015,-71.624159)" />
    <path
       style="opacity:0;fill:#3e8213;fill-opacity:0.560769;fill-rule:evenodd;stroke:#3e8213;stroke-width:1.58552;stroke-linejoin:round;stroke-miterlimit:4;stroke-dasharray:1.58552, 1.58552;stroke-dashoffset:0"
       d="m 118.77414,164.22627 c -10.63769,-1.97942 -21.483974,-10.19498 -26.994306,-20.44696 -1.713607,-3.18816 -1.771416,-3.56101 -1.76541,-11.38651 0.0068,-8.8923 0.03655,-8.99434 4.57183,-15.69369 5.061103,-7.47608 13.578826,-15.05882 22.553236,-20.077598 2.09081,-1.16925 7.35915,-3.345365 11.70742,-4.835811 7.247,-2.484041 8.50532,-2.732599 15.09742,-2.982214 l 7.19148,-0.27231 1.90841,3.23097 c 2.93928,4.976258 4.17125,8.770003 4.30596,13.259793 0.0675,2.25053 0.37408,6.02605 0.68125,8.39006 0.30717,2.36401 0.57251,6.3208 0.58964,8.79287 0.0225,3.24815 0.45261,5.6581 1.55083,8.68971 3.14212,8.67372 5.01832,17.9592 5.03676,24.92747 0.009,3.20727 0.24068,4.16067 1.23166,5.0575 1.15197,1.04252 1.16088,1.13891 0.15717,1.70062 -1.72794,0.967 -43.70752,2.41196 -47.82335,1.6461 z"
       id="path932"
       transform="matrix(0.26458333,0,0,0.26458333,-77.893015,-71.624159)" />
    <path
       style="opacity:0;fill:#a51d1e;fill-opacity:0.560769;fill-rule:evenodd;stroke:#3e8213;stroke-width:1.58552;stroke-linejoin:round;stroke-miterlimit:4;stroke-dasharray:1.58552, 1.58552;stroke-dashoffset:0"
       d="m 128.83356,172.49154 c -10.95426,-1.38016 -21.29035,-5.09689 -33.022241,-11.87442 -3.319022,-1.91739 -3.996621,-2.63026 -5.498371,-5.78457 -7.251333,-15.2308 -2.860079,-32.44328 12.002442,-47.04619 12.21185,-11.998542 29.10561,-19.464206 43.1,-19.046685 l 5.6661,0.169048 1.6616,2.39716 c 0.91388,1.318438 2.45809,4.430059 3.43158,6.914712 3.63682,9.282325 5.38575,18.166135 8.43116,42.826365 1.01762,8.24024 2.25983,17.37319 2.76046,20.29545 0.50064,2.92226 0.82438,5.39906 0.71943,5.504 -0.59258,0.59258 -10.51387,3.45844 -15.46739,4.46791 -6.86254,1.39849 -17.75108,1.93742 -23.78477,1.17722 z"
       id="path934"
       transform="matrix(0.26458333,0,0,0.26458333,-77.893015,-71.624159)" />
    <path
       style="opacity:0;fill:#a51d1e;fill-opacity:0.560769;fill-rule:evenodd;stroke:#3e8213;stroke-width:1.58552;stroke-linejoin:round;stroke-miterlimit:4;stroke-dasharray:1.58552, 1.58552;stroke-dashoffset:0"
       d="m 189.90278,339.86834 c 0.30085,-1.56219 2.2844,-1.73641 2.2844,-0.20064 0,0.85764 -0.38488,1.24252 -1.24252,1.24252 -0.85764,0 -1.18037,-0.32273 -1.04188,-1.04188 z"
       id="path936"
       transform="matrix(0.26458333,0,0,0.26458333,-77.893015,-71.624159)" />
    <path
       style="opacity:0.58016451;fill:#8aa678;fill-opacity:0.560769;fill-rule:evenodd;stroke:#8aa678;stroke-width:2.21606;stroke-linejoin:round;stroke-miterlimit:4;stroke-dasharray:2.21606, 2.21606000000000014;stroke-dashoffset:0"
       d="m 59.591078,435.4868 c -0.321455,-0.32145 -0.58704,-14.37377 -0.59019,-31.22738 C 58.976328,272.8482 44.738251,172.61847 19.159881,123.79649 c -2.473949,-4.72208 -4.373736,-8.5856 -4.221749,-8.5856 0.151988,0 3.087515,1.29884 6.523393,2.88631 10.341114,4.77789 17.440171,6.43902 29.587705,6.9233 11.717865,0.46716 20.785457,-0.72292 30.207567,-3.9646 4.302912,-1.48042 4.976795,-1.53016 5.60173,-0.41346 1.053611,1.8827 2.984828,1.53772 3.291158,-0.58791 0.207629,-1.44074 2.524988,-3.0036 10.332175,-6.96814 5.53547,-2.81096 15.71255,-8.53484 22.61572,-12.71974 6.90317,-4.184894 12.62683,-7.174321 12.71925,-6.643169 0.0924,0.531151 0.57784,11.142809 1.0787,23.581459 1.05814,26.2779 2.46393,44.9981 5.91267,78.73623 9.80467,95.91677 10.28928,101.32403 11.63738,129.84963 1.12656,23.83799 4.17891,35.83879 17.72701,69.69671 6.42777,16.06358 12.47695,32.50066 12.47695,33.90288 0,0.56336 -0.40415,0.53515 -1.14529,-0.0799 -0.86519,-0.71804 -1.37552,-0.6731 -2.08663,0.18374 -0.78202,0.94228 -2.74991,0.67446 -11.6284,-1.58257 -16.68995,-4.2428 -25.45046,-5.51391 -41.26018,-5.98663 -12.50483,-0.3739 -16.19657,-0.17572 -25.12859,1.34895 -12.282611,2.09661 -25.136877,5.84987 -42.343538,12.36368 -0.484755,0.18352 -1.14438,0.0706 -1.465834,-0.25081 z m 4.067551,-2.05347 c 0.863185,-1.39667 -1.078191,-2.99827 -2.233696,-1.84277 -0.966549,0.96655 -0.361618,2.75337 0.93216,2.75337 0.406314,0 0.992005,-0.40977 1.301536,-0.9106 z m 3.623376,-5.49301 c -0.729928,-0.87951 -1.235197,-0.92647 -2.114707,-0.19654 -0.879509,0.72993 -0.926469,1.2352 -0.19654,2.1147 0.729927,0.87951 1.235196,0.92647 2.114706,0.19654 0.87951,-0.72992 0.926469,-1.23519 0.196541,-2.1147 z m 112.698475,-0.0186 c 0.71321,-1.85861 -0.8618,-3.45912 -2.14311,-2.17781 -1.02547,1.02548 -0.43151,3.57431 0.83294,3.57431 0.42585,0 1.01543,-0.62842 1.31017,-1.3965 z m -108.409572,-2.3728 c 0,-1.62117 -1.644338,-2.45999 -2.717867,-1.38647 -0.637133,0.63714 -0.588539,1.26793 0.167892,2.17937 1.180841,1.42282 2.549975,0.9971 2.549975,-0.7929 z m 104.702442,-1.67524 c 0,-1.62117 -1.64434,-2.45999 -2.71787,-1.38647 -0.63713,0.63714 -0.58853,1.26793 0.1679,2.17937 1.18084,1.42283 2.54997,0.99711 2.54997,-0.7929 z M 75.094893,420.78047 c -1.355153,-1.35515 -2.932094,0.2218 -2.180475,2.18048 0.50967,1.32818 0.680756,1.3415 1.876205,0.14604 1.027411,-1.0274 1.094026,-1.53676 0.30427,-2.32652 z m 96.619567,-1.40584 c -1.79773,-1.79773 -3.78622,0.005 -2.16296,1.96103 0.84359,1.01645 1.34136,1.08599 2.26812,0.31685 1.02047,-0.84692 1.00569,-1.16703 -0.10516,-2.27788 z m -92.431469,-1.94464 c -1.373566,-1.37356 -3.109831,0.3627 -2.347999,2.348 0.523922,1.36532 0.652835,1.36943 1.959967,0.0623 1.092833,-1.09283 1.177787,-1.62052 0.388032,-2.41028 z m 89.242619,-0.46622 c 0.49491,-1.48639 -2.32108,-2.37465 -3.17058,-1.00011 -0.3838,0.62099 -0.49908,1.45065 -0.25618,1.84367 0.61994,1.00309 3.00761,0.41531 3.42676,-0.84356 z m -84.390409,-1.50646 c 0,-1.5738 -1.652659,-2.4115 -2.697064,-1.3671 -1.250841,1.25085 -0.150507,3.57719 1.408927,2.97878 0.708476,-0.27187 1.288137,-0.99712 1.288137,-1.61168 z m 80.202309,-1.84402 c 0.49491,-1.48639 -2.32107,-2.37465 -3.17058,-1.00011 -0.3838,0.62099 -0.49908,1.45065 -0.25618,1.84367 0.61994,1.00309 3.00761,0.41531 3.42676,-0.84356 z m -76.295512,-0.68496 c 0.743942,-1.93868 -0.902267,-3.22063 -2.171645,-1.69113 -1.073086,1.29299 -0.587009,3.00386 0.853429,3.00386 0.447961,0 1.041159,-0.59073 1.318216,-1.31273 z m 71.942872,-2.11073 c 0.30954,-0.50084 0.15929,-1.3141 -0.33387,-1.80726 -1.04527,-1.04527 -3.76446,0.74318 -3.00305,1.97515 0.63754,1.03156 2.65846,0.92989 3.33692,-0.16789 z m -67.11332,-0.66973 c 0.761399,-1.23197 -1.957786,-3.02042 -3.003052,-1.97515 -0.493164,0.49316 -0.643407,1.30642 -0.333877,1.80726 0.678464,1.09778 2.699387,1.19945 3.336929,0.16789 z m 3.774083,-2.55676 c 1.000857,-0.63331 1.017341,-0.98413 0.09827,-2.09155 -1.31841,-1.58859 -3.577719,-0.24816 -2.836673,1.68297 0.530696,1.38298 1.071104,1.46361 2.738402,0.40858 z m 59.163917,-0.14465 c 0.81725,-1.32235 -1.45005,-2.51168 -2.74283,-1.43877 -0.58624,0.48654 -0.85934,1.21883 -0.60687,1.62732 0.64273,1.03996 2.66063,0.92637 3.3497,-0.18855 z m -54.74845,-5.09362 c -1.373566,-1.37356 -3.109834,0.3627 -2.348002,2.348 0.523922,1.36532 0.65284,1.36943 1.959972,0.0623 1.09283,-1.09283 1.17778,-1.62053 0.38803,-2.41028 z m 50.36307,2.31683 c 0.67916,-1.76987 -1.48561,-3.31089 -2.6612,-1.8944 -0.68299,0.82295 -0.66806,1.37993 0.0564,2.10438 1.30313,1.30312 2.0472,1.24314 2.60481,-0.20998 z m -45.65885,-4.10934 c 0.15669,-0.80794 -0.26371,-1.39642 -0.99759,-1.39642 -1.55607,0 -2.49524,1.36544 -1.75877,2.55707 0.75766,1.22591 2.43009,0.52168 2.75636,-1.16065 z m 41.50642,0.66592 c 0.28644,-0.74646 -0.0518,-1.49769 -0.80431,-1.78646 -1.56414,-0.60022 -3.2757,0.88873 -2.48754,2.164 0.82194,1.32992 2.72018,1.11221 3.29185,-0.37754 z m -36.89093,-4.21763 c -0.5727,-1.49246 -1.47849,-1.52175 -2.66977,-0.0864 -0.67101,0.80852 -0.65881,1.37028 0.0451,2.07412 1.24517,1.24518 3.27534,-0.29232 2.62473,-1.98776 z m 32.10646,0.11754 c -0.27706,-0.722 -0.85218,-1.31273 -1.27804,-1.31273 -1.2985,0 -1.91921,2.75365 -0.77949,3.45804 1.40423,0.86785 2.69668,-0.47972 2.05753,-2.14531 z m -27.77896,-2.16182 c 0,-1.79544 -2.43384,-1.53612 -2.78686,0.29694 -0.21557,1.11939 0.12557,1.46053 1.24497,1.24496 0.84803,-0.16332 1.54189,-0.85718 1.54189,-1.5419 z m 23.49846,0.77611 c 0.30953,-0.50084 0.15929,-1.3141 -0.33388,-1.80727 -1.04526,-1.04526 -3.76445,0.74319 -3.00305,1.97516 0.63754,1.03156 2.65846,0.92988 3.33693,-0.16789 z m -19.03954,-3.55632 c 0.15669,-0.80794 -0.26371,-1.39642 -0.99759,-1.39642 -1.55607,0 -2.49523,1.36545 -1.75876,2.55708 0.75766,1.22591 2.43008,0.52168 2.75635,-1.16066 z m 14.22807,0.48823 c -0.15527,-0.80621 -0.83736,-1.46584 -1.51579,-1.46584 -0.67842,0 -1.36052,0.65963 -1.51578,1.46584 -0.19806,1.02847 0.2542,1.46583 1.51578,1.46583 1.26158,0 1.71385,-0.43736 1.51579,-1.46583 z m -4.5087,-1.60827 c 0.47767,-1.24479 -0.68268,-2.74141 -2.15259,-2.77641 -1.12454,-0.0268 -1.56452,2.81515 -0.5368,3.46727 1.57675,1.00047 2.09107,0.86834 2.68939,-0.69086 z m -4.25847,-4.0866 c -0.59989,-1.56331 -2.80005,-1.586 -2.80005,-0.0289 0,0.65264 -0.47116,1.3452 -1.04702,1.53902 -0.80352,0.27044 -0.76307,0.69628 0.17393,1.83104 1.15802,1.40242 1.29618,1.38575 2.68027,-0.32353 0.80262,-0.99119 1.24941,-2.34914 0.99287,-3.01767 z m -0.90332,-3.39144 c 0.81513,-0.81512 -0.30405,-2.84977 -1.56754,-2.84977 -0.64174,0 -1.16681,0.75386 -1.16681,1.67524 0,1.57688 1.63129,2.2776 2.73435,1.17453 z m -0.83762,-5.02571 c 0.81513,-0.81513 -0.30405,-2.84978 -1.56754,-2.84978 -0.64174,0 -1.16681,0.75386 -1.16681,1.67524 0,1.57689 1.63129,2.27761 2.73435,1.17454 z m -0.78788,-6.70161 c -0.71481,-1.86276 -3.54698,-1.48786 -3.05224,0.40405 0.27315,1.04452 0.93492,1.44134 1.95767,1.17389 0.9047,-0.23659 1.35834,-0.89056 1.09457,-1.57794 z m -1.10885,-5.36198 c 0,-1.83616 -0.10952,-1.90206 -1.97265,-1.18711 -1.51168,0.58008 -0.86915,2.86235 0.80584,2.86235 0.64174,0 1.16681,-0.75386 1.16681,-1.67524 z m -0.83762,-5.02572 c 0,-0.92138 -0.50257,-1.67524 -1.11682,-1.67524 -1.57546,0 -2.19319,0.80607 -1.66752,2.17594 0.68369,1.78167 2.78434,1.40391 2.78434,-0.5007 z m -0.83762,-5.02572 c 0,-1.11682 -0.55841,-1.67524 -1.67524,-1.67524 -1.84455,0 -1.90428,0.10372 -1.16681,2.02554 0.72836,1.89807 2.84205,1.63755 2.84205,-0.3503 z m -1.37782,-3.83861 c 1.67421,-0.64245 0.78526,-2.86234 -1.14624,-2.86234 -1.09482,0 -1.38734,0.45836 -1.06912,1.67524 0.49067,1.87632 0.46088,1.86036 2.21536,1.1871 z m -0.0547,-7.05044 c -0.49067,-1.87633 -0.46087,-1.86036 -2.21535,-1.18711 -1.67422,0.64246 -0.78526,2.86235 1.14623,2.86235 1.09482,0 1.38734,-0.45836 1.06912,-1.67524 z m -0.2427,-3.70078 c 0,-0.19267 -0.22879,-0.94653 -0.50842,-1.67524 -0.72837,-1.89807 -2.84206,-1.63755 -2.84206,0.3503 0,1.11682 0.55842,1.67524 1.67524,1.67524 0.92138,0 1.67524,-0.15764 1.67524,-0.3503 z m -1.25643,-6.35066 c 0,-0.67842 -0.65962,-1.36052 -1.46583,-1.51578 -1.02847,-0.19806 -1.46584,0.2542 -1.46584,1.51578 0,1.26159 0.43737,1.71385 1.46584,1.51579 0.80621,-0.15527 1.46583,-0.83736 1.46583,-1.51579 z m -1.35852,-4.10727 c 1.35144,-0.85599 0.54495,-2.59368 -1.20377,-2.59368 -0.66385,0 -1.207,0.75386 -1.207,1.67524 0,1.81854 0.61798,2.05397 2.41077,0.91844 z m -0.0574,-6.57237 c -0.15526,-0.80621 -0.83736,-1.46584 -1.51578,-1.46584 -0.67843,0 -1.36052,0.65963 -1.51579,1.46584 -0.19806,1.02847 0.25421,1.46583 1.51579,1.46583 1.26158,0 1.71384,-0.43736 1.51578,-1.46583 z m -0.67816,-5.23513 c 0,-1.11682 -0.55841,-1.67524 -1.67524,-1.67524 -1.11682,0 -1.67523,0.55842 -1.67523,1.67524 0,1.11683 0.55841,1.67524 1.67523,1.67524 1.11683,0 1.67524,-0.55841 1.67524,-1.67524 z m -0.83762,-5.02571 c 0,-1.11683 -0.55841,-1.67524 -1.67523,-1.67524 -1.11683,0 -1.67524,0.55841 -1.67524,1.67524 0,1.11682 0.55841,1.67524 1.67524,1.67524 1.11682,0 1.67523,-0.55842 1.67523,-1.67524 z m -0.83762,-5.53415 c 0,-0.64174 -0.75385,-1.16681 -1.67523,-1.16681 -1.57689,0 -2.27761,1.63129 -1.17454,2.73435 0.81512,0.81513 2.84977,-0.30405 2.84977,-1.56754 z m -0.83761,-5.35491 c 0,-1.81854 -0.61798,-2.05397 -2.41077,-0.91844 -1.35144,0.85599 -0.54495,2.59368 1.20377,2.59368 0.66385,0 1.207,-0.75386 1.207,-1.67524 z m -0.83762,-5.02571 c 0,-0.92139 -0.50258,-1.67524 -1.11683,-1.67524 -1.57546,0 -2.19319,0.80606 -1.66751,2.17594 0.68369,1.78167 2.78434,1.40391 2.78434,-0.5007 z m -0.61613,-3.85119 c 0.81513,-0.81512 -0.30405,-2.84977 -1.56754,-2.84977 -0.64174,0 -1.16681,0.75386 -1.16681,1.67524 0,1.57688 1.63129,2.2776 2.73435,1.17453 z m -1.54643,-5.03344 c 1.89807,-0.72836 1.63754,-2.84205 -0.3503,-2.84205 -1.11683,0 -1.67524,0.55842 -1.67524,1.67524 0,1.84455 0.10371,1.90429 2.02554,1.16681 z m 0.32786,-6.82074 c -0.15526,-0.80621 -0.83736,-1.46584 -1.51578,-1.46584 -0.67842,0 -1.36052,0.65963 -1.51578,1.46584 -0.19807,1.02847 0.2542,1.46583 1.51578,1.46583 1.26158,0 1.71384,-0.43736 1.51578,-1.46583 z m -0.67816,-5.23512 c 0,-1.11683 -0.55842,-1.67524 -1.67524,-1.67524 -1.11683,0 -1.67524,0.55841 -1.67524,1.67524 0,1.11682 0.55841,1.67524 1.67524,1.67524 1.11682,0 1.67524,-0.55842 1.67524,-1.67524 z m -0.83762,-5.02572 c 0,-1.11682 -0.55842,-1.67524 -1.67524,-1.67524 -1.61425,0 -2.26987,1.63903 -1.11682,2.79206 1.15303,1.15305 2.79206,0.49743 2.79206,-1.11682 z m -0.58837,-5.83828 c -0.25163,-0.96223 -0.93719,-1.36356 -1.89943,-1.11193 -0.96223,0.25163 -1.36357,0.93719 -1.11193,1.89943 0.25163,0.96223 0.93719,1.36357 1.89943,1.11193 0.96223,-0.25163 1.36357,-0.93718 1.11193,-1.89943 z m -0.40686,-4.83175 c -0.42049,-2.18345 -3.19287,-2.42696 -3.19287,-0.28044 0,1.19871 0.53794,1.73666 1.73665,1.73666 1.19872,0 1.6498,-0.45108 1.45622,-1.45622 z m -0.68001,-5.24474 c 0,-1.11682 -0.55842,-1.67524 -1.67524,-1.67524 -1.11682,0 -1.67524,0.55842 -1.67524,1.67524 0,1.11682 0.55842,1.67524 1.67524,1.67524 1.11682,0 1.67524,-0.55842 1.67524,-1.67524 z m -0.98561,-5.30454 c 0.18261,-0.94155 -0.29487,-1.39642 -1.46584,-1.39642 -0.95515,0 -1.73665,0.50257 -1.73665,1.11683 0,2.56542 2.71324,2.80229 3.20249,0.27959 z m -0.68963,-5.58451 c 0,-1.81855 -0.61797,-2.05398 -2.41077,-0.91845 -1.35144,0.85599 -0.54495,2.59368 1.20378,2.59368 0.66384,0 1.20699,-0.75385 1.20699,-1.67523 z m -0.15761,-4.8067 c -0.42049,-2.18345 -3.19287,-2.42696 -3.19287,-0.28044 0,1.19871 0.53795,1.73666 1.73665,1.73666 1.19872,0 1.6498,-0.45108 1.45622,-1.45622 z m -0.68001,-5.24474 c 0,-1.11682 -0.55842,-1.67524 -1.67524,-1.67524 -1.11682,0 -1.67524,0.55842 -1.67524,1.67524 0,1.11682 0.55842,1.67524 1.67524,1.67524 1.11682,0 1.67524,-0.55842 1.67524,-1.67524 z m -0.98561,-5.30453 c 0.18261,-0.94156 -0.29487,-1.39643 -1.46583,-1.39643 -0.955159,0 -1.736658,0.50258 -1.736658,1.11683 0,2.56542 2.713238,2.8023 3.202488,0.2796 z m -0.68963,-5.58452 c 0,-1.81855 -0.61797,-2.05398 -2.410769,-0.91844 -1.35144,0.85598 -0.544946,2.59368 1.203779,2.59368 0.66384,0 1.20699,-0.75386 1.20699,-1.67524 z m -0.15761,-4.8067 c -0.42049,-2.18345 -3.192867,-2.42696 -3.192867,-0.28043 0,1.1987 0.537944,1.73665 1.736657,1.73665 1.19871,0 1.64979,-0.45108 1.45621,-1.45622 z m -0.83762,-5.46376 c 0.19358,-1.00514 -0.2575,-1.45622 -1.456213,-1.45622 -1.198709,0 -1.736654,0.53795 -1.736654,1.73666 0,2.14652 2.772377,1.90301 3.192867,-0.28044 z m -0.68001,-5.31512 c 0,-0.64174 -0.753856,-1.16681 -1.675237,-1.16681 -1.576886,0 -2.277606,1.63129 -1.174535,2.73435 0.815121,0.81513 2.849772,-0.30405 2.849772,-1.56754 z m -0.837618,-5.35491 c 0,-0.92138 -0.502571,-1.67524 -1.116823,-1.67524 -1.575462,0 -2.193185,0.80607 -1.667516,2.17594 0.68369,1.78167 2.784339,1.40391 2.784339,-0.5007 z m 0,-5.02572 c 0,-1.11682 -0.558415,-1.67524 -1.675239,-1.67524 -1.116825,0 -1.675239,0.55842 -1.675239,1.67524 0,1.11682 0.558414,1.67524 1.675239,1.67524 1.116824,0 1.675239,-0.55842 1.675239,-1.67524 z m -0.98561,-5.30453 c 0.18261,-0.94156 -0.294867,-1.39642 -1.465834,-1.39642 -0.955158,0 -1.736653,0.50257 -1.736653,1.11682 0,2.56542 2.713242,2.8023 3.202487,0.2796 z m -0.689629,-5.58452 c 0,-1.81855 -0.61797,-2.05398 -2.410765,-0.91844 -1.351443,0.85598 -0.544951,2.59368 1.20377,2.59368 0.663849,0 1.206995,-0.75386 1.206995,-1.67524 z m -0.157606,-4.8067 c -0.420494,-2.18345 -3.192872,-2.42696 -3.192872,-0.28043 0,1.19871 0.53794,1.73665 1.736657,1.73665 1.198714,0 1.649789,-0.45108 1.456215,-1.45622 z m -0.680013,-5.24474 c 0,-1.11682 -0.558413,-1.67524 -1.675239,-1.67524 -1.116826,0 -1.675239,0.55842 -1.675239,1.67524 0,1.11683 0.558413,1.67524 1.675239,1.67524 1.116826,0 1.675239,-0.55841 1.675239,-1.67524 z m -0.83762,-5.53414 c 0,-0.64175 -0.753857,-1.16681 -1.675239,-1.16681 -1.576888,0 -2.277605,1.63128 -1.174538,2.73435 0.815125,0.81512 2.849777,-0.30405 2.849777,-1.56754 z m 0,-4.02997 c 0,-0.19267 -0.228791,-0.94653 -0.508426,-1.67524 -0.728358,-1.89808 -2.842052,-1.63755 -2.842052,0.3503 0,1.11683 0.558414,1.67524 1.675239,1.67524 0.921382,0 1.675239,-0.15764 1.675239,-0.3503 z m -0.837619,-6.35066 c 0,-1.11682 -0.558414,-1.67524 -1.675239,-1.67524 -1.116826,0 -1.675239,0.55842 -1.675239,1.67524 0,1.11683 0.558413,1.67524 1.675239,1.67524 1.116825,0 1.675239,-0.55841 1.675239,-1.67524 z m -0.83762,-5.02571 c 0,-1.11683 -0.558413,-1.67524 -1.675239,-1.67524 -1.614252,0 -2.269862,1.63902 -1.116826,2.79206 1.153037,1.15304 2.792065,0.49743 2.792065,-1.11682 z m -0.837619,-5.78492 c 0,-1.16537 -0.436988,-1.48255 -1.617279,-1.1739 -0.961622,0.25147 -1.434657,0.89884 -1.166814,1.59682 0.668855,1.74301 2.784093,1.42169 2.784093,-0.42292 z M 93.1914,146.42184 c -0.420495,-2.18346 -3.192872,-2.42697 -3.192872,-0.28045 0,1.19872 0.53794,1.73666 1.736656,1.73666 1.198717,0 1.649789,-0.45107 1.456216,-1.45621 z m -0.680014,-5.24475 c 0,-1.11682 -0.558413,-1.67523 -1.675239,-1.67523 -1.116826,0 -1.675239,0.55841 -1.675239,1.67523 0,1.11683 0.558413,1.67524 1.675239,1.67524 1.116826,0 1.675239,-0.55841 1.675239,-1.67524 z m -0.985607,-5.30453 c 0.182606,-0.94155 -0.294873,-1.39642 -1.465834,-1.39642 -1.913908,0 -1.969384,0.0941 -1.214646,2.06094 0.637829,1.66216 2.309624,1.2477 2.68048,-0.66452 z m -0.01147,-5.37511 c -0.155261,-0.80621 -0.837363,-1.46584 -1.51578,-1.46584 -0.678418,0 -1.36052,0.65963 -1.515781,1.46584 -0.198065,1.02847 0.254201,1.46583 1.515781,1.46583 1.261579,0 1.713845,-0.43736 1.51578,-1.46583 z m -0.678161,-5.23513 c 0,-1.11682 -0.558413,-1.67524 -1.675239,-1.67524 -1.116826,0 -1.675239,0.55842 -1.675239,1.67524 0,1.11683 0.558413,1.67524 1.675239,1.67524 1.116826,0 1.675239,-0.55841 1.675239,-1.67524 z"
       id="path940"
       transform="matrix(0.26458333,0,0,0.26458333,-55.975704,-57.958671)" />
    <path
       style="opacity:0.580164;fill:#8aa678;fill-opacity:0.560769;fill-rule:evenodd;stroke:#8aa678;stroke-width:2.21606;stroke-linejoin:round;stroke-miterlimit:4;stroke-dasharray:2.21606, 2.21606;stroke-dashoffset:0"
       d="m 585.70104,416.20421 c -13.47367,-4.66801 -25.0598,-6.3154 -47.57606,-6.76465 -21.08464,-0.4207 -32.75419,0.5993 -46.37548,4.05352 -3.6237,0.91895 -6.79619,1.46316 -7.04996,1.20939 -0.25378,-0.25377 -0.16397,-0.46141 0.19956,-0.46141 0.36354,0 0.18789,-0.57004 -0.39034,-1.26676 -0.80461,-0.9695 -1.32249,-1.04169 -2.20694,-0.30767 -0.83153,0.6901 -0.90641,1.25936 -0.267,2.0298 1.06432,1.28242 -0.14665,2.2817 -1.93393,1.59586 -1.89027,-0.72536 -2.23821,-14.78117 -3.14022,-126.85654 -1.0005,-124.31292 -2.33612,-176.22465 -4.96129,-192.831384 -0.34857,-2.205062 -0.40737,-3.995777 -0.13065,-3.979367 0.27672,0.01641 2.76469,0.575916 5.52884,1.243345 12.69357,3.064984 25.80142,0.34889 49.63,-10.283898 16.22691,-7.24077 31.44025,-17.269358 42.13618,-27.776055 3.19907,-3.142466 5.81504,-5.479984 5.81325,-5.194485 -0.002,0.285499 -0.92652,5.232944 -2.05497,10.994323 -5.56437,28.409081 -7.54101,53.184841 -7.51757,94.227211 0.0336,58.81011 5.41952,115.07787 19.19342,200.51692 2.08135,12.91055 3.78428,23.9073 3.78428,24.43724 0,0.52995 -0.5342,0.75854 -1.18711,0.50799 -1.53475,-0.58894 -2.55859,2.02165 -1.14472,2.91878 1.5167,0.96237 2.33183,0.86826 2.33183,-0.26922 0,-0.53747 0.15491,-0.82016 0.34426,-0.62821 0.34548,0.35024 6.35669,33.5588 6.35669,35.11714 0,1.04852 0.27558,1.11407 -9.38207,-2.23187 z m -97.20477,-5.9414 c 0.45798,-1.37548 -2.16648,-2.35735 -3.29216,-1.23167 -0.48172,0.48172 -0.6097,1.3065 -0.28441,1.83284 0.74008,1.19747 3.11035,0.79906 3.57657,-0.60117 z m 2.93103,-5.36161 c -1.50059,-1.50059 -3.95025,0.73999 -2.59475,2.37327 0.84692,1.02047 1.16704,1.0057 2.27789,-0.10516 0.98354,-0.98354 1.05928,-1.52569 0.31686,-2.26811 z m 3.69779,-2.02431 c 0.74394,-1.93868 -0.90227,-3.22063 -2.17165,-1.69113 -1.07308,1.29299 -0.58701,3.00387 0.85343,3.00387 0.44796,0 1.04116,-0.59074 1.31822,-1.31274 z m 4.26024,-4.34075 c 0.45797,-1.37548 -2.16649,-2.35735 -3.29216,-1.23167 -0.48173,0.48171 -0.60971,1.30649 -0.28442,1.83284 0.74009,1.19746 3.11035,0.79906 3.57658,-0.60117 z m 3.27833,-3.19782 c 0.69813,-1.81928 -1.07419,-3.53016 -2.34278,-2.26158 -1.07218,1.07219 -0.40796,3.57431 0.94885,3.57431 0.4896,0 1.11688,-0.59073 1.39393,-1.31273 z m 3.25808,-3.78597 c 0.86318,-1.39666 -1.07819,-2.99827 -2.2337,-1.84276 -0.96655,0.96654 -0.36161,2.75336 0.93216,2.75336 0.40632,0 0.99201,-0.40977 1.30154,-0.9106 z m 3.31712,-5.7184 c -1.15688,-1.15655 -1.42699,-1.1695 -2.08818,-0.10005 -1.11858,1.80929 0.65041,3.72445 2.2296,2.41383 1.01918,-0.84584 0.99915,-1.17353 -0.14142,-2.31378 z m 3.65673,-3.96271 c -0.72992,-0.8795 -1.23519,-0.92646 -2.1147,-0.19653 -0.87951,0.72992 -0.92647,1.23519 -0.19654,2.1147 0.72992,0.87951 1.23519,0.92647 2.1147,0.19654 0.87951,-0.72993 0.92647,-1.2352 0.19654,-2.11471 z m 71.028,-0.80068 c 0.59258,-1.54425 -1.43313,-3.15383 -2.55601,-2.03095 -0.91426,0.91427 -0.0752,3.37191 1.15124,3.37191 0.4896,0 1.12176,-0.60344 1.40477,-1.34096 z m -67.29731,-1.52947 c 0.67917,-1.76988 -1.48561,-3.31089 -2.6612,-1.8944 -0.68299,0.82295 -0.66806,1.37992 0.0564,2.10437 1.30312,1.30313 2.0472,1.24315 2.60481,-0.20997 z m 62.02743,-2.74775 c -1.26932,-0.92815 -1.62247,-0.88685 -2.26713,0.26509 -0.99058,1.77007 1.00274,3.13149 2.6199,1.78936 0.96165,-0.7981 0.90368,-1.1357 -0.35277,-2.05445 z m -4.15352,-0.80641 c 0.60846,-1.58563 -1.20714,-3.11232 -2.34643,-1.97303 -0.86921,0.86921 -0.10076,3.3719 1.03534,3.3719 0.42586,0 1.01585,-0.62949 1.31109,-1.39887 z m -54.36135,-0.31306 c 0.2972,-0.48087 0.081,-1.42784 -0.48051,-2.10438 -0.77995,-0.93979 -1.29357,-1.00374 -2.17649,-0.27098 -0.87405,0.7254 -0.92403,1.23814 -0.20511,2.10438 1.13581,1.36857 2.12583,1.46231 2.86211,0.27098 z m 49.30544,-4.42031 c -1.77007,-0.99058 -3.13149,1.00274 -1.78936,2.6199 0.7981,0.96166 1.1357,0.90368 2.05444,-0.35277 0.92815,-1.26932 0.88686,-1.62247 -0.26508,-2.26713 z m -46.11704,-0.0887 c 0.74104,-1.93113 -1.51827,-3.27155 -2.83668,-1.68297 -0.91907,1.10742 -0.90259,1.45824 0.0983,2.09156 1.6673,1.05502 2.20771,0.97439 2.73841,-0.40859 z m 42.06548,-0.55303 c 0.86319,-1.39666 -1.07819,-2.99826 -2.23369,-1.84276 -0.96655,0.96655 -0.36162,2.75336 0.93216,2.75336 0.40631,0 0.992,-0.40977 1.30153,-0.9106 z m -4.3726,-2.79745 c 0.67916,-1.76987 -1.48561,-3.31089 -2.6612,-1.8944 -0.68299,0.82296 -0.66806,1.37993 0.0564,2.10438 1.30312,1.30313 2.0472,1.24314 2.60481,-0.20998 z m -34.71404,-2.68523 c -1.26425,-1.52332 -2.12653,-1.44462 -2.77819,0.25357 -0.67041,1.74706 1.18333,3.00419 2.64325,1.79257 0.81756,-0.67851 0.85086,-1.1835 0.13494,-2.04614 z m 30.52284,-0.65716 c 0.57767,-1.50539 -2.01752,-2.5743 -2.87634,-1.18471 -0.35195,0.56947 -0.45407,1.33609 -0.22693,1.70361 0.67185,1.08708 2.61145,0.76276 3.10327,-0.5189 z m -27.08013,-2.542 c 0,-0.61456 -0.57966,-1.33981 -1.28814,-1.61168 -1.65242,-0.6341 -2.70263,1.91453 -1.17736,2.8572 1.36021,0.84066 2.4655,0.28228 2.4655,-1.24552 z m 22.61573,-0.83762 c 0,-0.61456 -0.5342,-1.32237 -1.18711,-1.57291 -1.50539,-0.57768 -2.5743,2.01752 -1.18471,2.87633 1.27625,0.78876 2.37182,0.1867 2.37182,-1.30342 z m -19.26525,-3.82242 c 0,-1.18832 -2.78957,-1.73224 -3.445,-0.67173 -0.99379,1.60798 0.87464,3.45038 2.2997,2.26769 0.62991,-0.52278 1.1453,-1.24096 1.1453,-1.59596 z m 14.70345,1.61521 c 0.86318,-1.39666 -1.0782,-2.99827 -2.2337,-1.84276 -0.96655,0.96654 -0.36162,2.75336 0.93216,2.75336 0.40631,0 0.992,-0.40977 1.30154,-0.9106 z m -4.37261,-2.79745 c 0.67916,-1.76987 -1.48562,-3.31089 -2.6612,-1.8944 -0.68299,0.82295 -0.66807,1.37993 0.0564,2.10438 1.30312,1.30312 2.04719,1.24314 2.6048,-0.20998 z m -8.21166,-2.19596 c 0.37444,-0.60586 0.8913,-0.58908 1.66626,0.0541 0.85942,0.71326 1.33042,0.54564 2.00414,-0.71322 0.69411,-1.29695 0.58758,-1.75807 -0.50283,-2.1765 -0.76094,-0.29203 -1.63226,-0.12848 -1.93627,0.36343 -0.30401,0.4919 -1.14411,0.66743 -1.86689,0.39007 -1.46386,-0.56174 -2.70535,0.82358 -1.9024,2.12278 0.67239,1.08795 1.85215,1.06905 2.53799,-0.0407 z m 2.06891,-4.49772 c 0,-0.19267 -0.22879,-0.94653 -0.50842,-1.67524 -0.72836,-1.89807 -2.84205,-1.63755 -2.84205,0.3503 0,1.11682 0.55841,1.67524 1.67524,1.67524 0.92138,0 1.67523,-0.15764 1.67523,-0.3503 z m -0.83761,-6.35066 c 0,-1.11682 -0.55842,-1.67524 -1.67524,-1.67524 -1.11683,0 -1.67524,0.55842 -1.67524,1.67524 0,1.11682 0.55841,1.67524 1.67524,1.67524 1.11682,0 1.67524,-0.55842 1.67524,-1.67524 z m -1.32494,-3.8589 c 1.89807,-0.72837 1.63754,-2.84206 -0.3503,-2.84206 -1.11683,0 -1.67524,0.55842 -1.67524,1.67524 0,1.84455 0.10371,1.90429 2.02554,1.16682 z m 0.48732,-7.09157 c 0,-2.14652 -2.77238,-1.90301 -3.19288,0.28044 -0.19357,1.00514 0.2575,1.45622 1.45622,1.45622 1.19872,0 1.73666,-0.53795 1.73666,-1.73666 z m 0,-4.9643 c 0,-1.11682 -0.55842,-1.67524 -1.67524,-1.67524 -1.11683,0 -1.67524,0.55842 -1.67524,1.67524 0,1.11682 0.55841,1.67524 1.67524,1.67524 1.11682,0 1.67524,-0.55842 1.67524,-1.67524 z m -0.83762,-5.02572 c 0,-1.11682 -0.55842,-1.67524 -1.67524,-1.67524 -1.61425,0 -2.26987,1.63903 -1.11683,2.79207 1.15304,1.15304 2.79207,0.49742 2.79207,-1.11683 z m -0.56948,-5.76603 c -0.27315,-1.04452 -0.93492,-1.44134 -1.95767,-1.17389 -1.92951,0.50458 -1.22466,2.75182 0.86311,2.75182 1.06383,0 1.38582,-0.46417 1.09456,-1.57793 z m -0.42575,-4.904 c -0.42049,-2.18345 -3.19287,-2.42696 -3.19287,-0.28044 0,1.19871 0.53794,1.73666 1.73666,1.73666 1.19871,0 1.64978,-0.45108 1.45621,-1.45622 z m -0.68001,-5.24474 c 0,-1.11682 -0.55842,-1.67524 -1.67524,-1.67524 -1.11683,0 -1.67524,0.55842 -1.67524,1.67524 0,1.11682 0.55841,1.67524 1.67524,1.67524 1.11682,0 1.67524,-0.55842 1.67524,-1.67524 z m -0.98561,-5.30453 c 0.18261,-0.94156 -0.29487,-1.39643 -1.46583,-1.39643 -0.95516,0 -1.73666,0.50258 -1.73666,1.11683 0,2.56542 2.71324,2.8023 3.20249,0.2796 z m -0.68963,-5.58452 c 0,-1.83616 -0.10952,-1.90206 -1.97265,-1.18711 -1.51168,0.58008 -0.86915,2.86235 0.80583,2.86235 0.64175,0 1.16682,-0.75386 1.16682,-1.67524 z m -0.15761,-4.8067 c -0.42049,-2.18345 -3.19287,-2.42696 -3.19287,-0.28043 0,1.1987 0.53794,1.73665 1.73666,1.73665 1.19871,0 1.64979,-0.45108 1.45621,-1.45622 z m -0.83762,-5.46376 c 0.19358,-1.00514 -0.2575,-1.45622 -1.45621,-1.45622 -1.19872,0 -1.73666,0.53795 -1.73666,1.73666 0,2.14652 2.77238,1.90301 3.19287,-0.28044 z m -2.00495,-3.63988 c 1.89808,-0.72836 1.63755,-2.84205 -0.3503,-2.84205 -1.11683,0 -1.67524,0.55841 -1.67524,1.67524 0,1.84454 0.10371,1.90428 2.02554,1.16681 z m 0.48732,-7.09157 c 0,-1.19871 -0.45107,-1.64979 -1.45622,-1.45621 -2.18345,0.42049 -2.42696,3.19287 -0.28044,3.19287 1.19872,0 1.73666,-0.53795 1.73666,-1.73666 z m -0.83762,-4.9643 c 0,-1.11682 -0.55841,-1.67524 -1.67524,-1.67524 -1.11682,0 -1.67524,0.55842 -1.67524,1.67524 0,1.11683 0.55842,1.67524 1.67524,1.67524 1.11683,0 1.67524,-0.55841 1.67524,-1.67524 z m -0.83762,-5.02572 c 0,-1.11682 -0.55841,-1.67523 -1.67524,-1.67523 -1.61425,0 -2.26986,1.63902 -1.11682,2.79206 1.15303,1.15304 2.79206,0.49743 2.79206,-1.11683 z m -0.83762,-5.53414 c 0,-0.64174 -0.75386,-1.16681 -1.67524,-1.16681 -1.57689,0 -2.2776,1.63129 -1.17454,2.73435 0.81513,0.81513 2.84978,-0.30405 2.84978,-1.56754 z m -0.83762,-5.44453 c 0,-1.26518 -0.37512,-1.62091 -1.32493,-1.25643 -0.72872,0.27964 -1.48258,0.50843 -1.67524,0.50843 -0.19267,0 -0.35031,0.56539 -0.35031,1.25643 0,0.69801 0.74455,1.25643 1.67524,1.25643 1.14518,0 1.67524,-0.55842 1.67524,-1.76486 z m -0.83762,-4.9361 c 0,-0.92138 -0.54315,-1.67524 -1.20699,-1.67524 -1.47973,0 -2.4258,1.37842 -1.72468,2.51286 0.91091,1.47388 2.93167,0.89652 2.93167,-0.83762 z m -0.83762,-5.02571 c 0,-1.11683 -0.55841,-1.67524 -1.67524,-1.67524 -1.61425,0 -2.26986,1.63903 -1.11682,2.79206 1.15303,1.15304 2.79206,0.49743 2.79206,-1.11682 z m -0.9856,-5.30454 c 0.1826,-0.94155 -0.29488,-1.39642 -1.46584,-1.39642 -1.91391,0 -1.96938,0.0941 -1.21464,2.06095 0.63782,1.66215 2.30962,1.24769 2.68048,-0.66453 z m -0.68964,-5.58452 c 0,-1.81854 -0.61797,-2.05397 -2.41076,-0.91844 -1.35144,0.85599 -0.54495,2.59368 1.20377,2.59368 0.66385,0 1.20699,-0.75386 1.20699,-1.67524 z m -0.83762,-5.02571 c 0,-0.92139 -0.50257,-1.67524 -1.11682,-1.67524 -1.57546,0 -2.19318,0.80606 -1.66752,2.17594 0.68369,1.78167 2.78434,1.40391 2.78434,-0.5007 z m -0.83762,-5.02572 c 0,-0.92138 -0.50257,-1.67524 -1.11682,-1.67524 -1.57546,0 -2.19318,0.80607 -1.66752,2.17594 0.68369,1.78167 2.78434,1.40391 2.78434,-0.5007 z m -1.37782,-3.83861 c 1.67421,-0.64246 0.78526,-2.86235 -1.14623,-2.86235 -1.09482,0 -1.38734,0.45836 -1.06912,1.67524 0.49067,1.87633 0.46088,1.86036 2.21535,1.18711 z m -0.0547,-7.05045 c -0.49067,-1.87632 -0.46087,-1.86036 -2.21535,-1.1871 -1.67421,0.64245 -0.78525,2.86234 1.14623,2.86234 1.09482,0 1.38735,-0.45836 1.06912,-1.67524 z m -0.24269,-3.70077 c 0,-0.19267 -0.2288,-0.94653 -0.50843,-1.67524 -0.72836,-1.89807 -2.84205,-1.63755 -2.84205,0.3503 0,1.11682 0.55841,1.67524 1.67524,1.67524 0.92138,0 1.67524,-0.15764 1.67524,-0.3503 z m -1.25643,-6.35066 c 0,-0.67842 -0.65963,-1.36052 -1.46584,-1.51578 -1.02847,-0.19806 -1.46583,0.2542 -1.46583,1.51578 0,1.26158 0.43736,1.71385 1.46583,1.51578 0.80621,-0.15526 1.46584,-0.83736 1.46584,-1.51578 z m -1.35853,-4.10728 c 1.35145,-0.85598 0.54495,-2.59368 -1.20377,-2.59368 -0.66384,0 -1.20699,0.75386 -1.20699,1.67524 0,1.81855 0.61797,2.05398 2.41076,0.91844 z m 0.1021,-6.22336 c 0,-1.57546 -0.80607,-2.19319 -2.17594,-1.66751 -1.78167,0.68369 -1.40392,2.78434 0.5007,2.78434 0.92138,0 1.67524,-0.50258 1.67524,-1.11683 z m -0.99523,-5.36511 c -0.42049,-2.18345 -3.19287,-2.42696 -3.19287,-0.28044 0,1.19871 0.53794,1.73666 1.73666,1.73666 1.19871,0 1.64978,-0.45108 1.45621,-1.45622 z m -0.68001,-5.24474 c 0,-1.11682 -0.55842,-1.67524 -1.67524,-1.67524 -1.11683,0 -1.67524,0.55842 -1.67524,1.67524 0,1.11683 0.55841,1.67524 1.67524,1.67524 1.11682,0 1.67524,-0.55841 1.67524,-1.67524 z m -0.99523,-5.24474 c 0.19358,-1.00514 -0.2575,-1.45621 -1.45621,-1.45621 -1.19872,0 -1.73666,0.53794 -1.73666,1.73665 0,2.14652 2.77238,1.90301 3.19287,-0.28044 z m -0.68001,-5.73393 c 0,-1.26518 -0.37512,-1.62091 -1.32494,-1.25643 -0.72871,0.27964 -1.48257,0.50843 -1.67524,0.50843 -0.19266,0 -0.3503,0.56539 -0.3503,1.25643 0,0.69801 0.74455,1.25643 1.67524,1.25643 1.14518,0 1.67524,-0.55842 1.67524,-1.76486 z m -0.83762,-4.9361 c 0,-0.92138 -0.54315,-1.67524 -1.207,-1.67524 -1.47973,0 -2.42579,1.37842 -1.72467,2.51286 0.9109,1.47388 2.93167,0.89651 2.93167,-0.83762 z m -0.83762,-5.02572 c 0,-0.92138 -0.50257,-1.67524 -1.11683,-1.67524 -1.57546,0 -2.19318,0.80607 -1.66751,2.17595 0.68369,1.78166 2.78434,1.40391 2.78434,-0.50071 z m -0.93971,-4.10727 c 1.35144,-0.85599 0.54495,-2.59368 -1.20377,-2.59368 -0.66385,0 -1.207,0.75386 -1.207,1.67524 0,1.81854 0.61797,2.05397 2.41077,0.91844 z m -0.0574,-6.57238 c -0.15526,-0.8062 -0.83736,-1.46583 -1.51578,-1.46583 -0.67842,0 -1.36052,0.65963 -1.51578,1.46583 -0.19806,1.02848 0.2542,1.46584 1.51578,1.46584 1.26158,0 1.71385,-0.43736 1.51578,-1.46584 z m -0.67816,-5.23512 c 0,-1.11682 -0.55841,-1.67524 -1.67524,-1.67524 -1.11682,0 -1.67524,0.55842 -1.67524,1.67524 0,1.11683 0.55842,1.67524 1.67524,1.67524 1.11683,0 1.67524,-0.55841 1.67524,-1.67524 z m -0.83762,-5.02571 c 0,-1.11683 -0.55841,-1.67524 -1.67524,-1.67524 -1.61425,0 -2.26986,1.63903 -1.11682,2.79206 1.15303,1.15304 2.79206,0.49743 2.79206,-1.11682 z m -0.24456,-5.34177 c -0.57908,-1.7394 -3.10592,-1.59603 -3.10592,0.17622 0,1.25692 0.41372,1.55004 1.70949,1.21119 0.94022,-0.24587 1.56861,-0.87021 1.39643,-1.38741 z m -0.59306,-5.60871 c 0,-1.19871 -0.45107,-1.64978 -1.45621,-1.45621 -2.18346,0.42049 -2.42697,3.19287 -0.28045,3.19287 1.19872,0 1.73666,-0.53794 1.73666,-1.73666 z m -0.83762,-4.9643 c 0,-1.11682 -0.55841,-1.67523 -1.67524,-1.67523 -1.61425,0 -2.26986,1.63902 -1.11682,2.79206 1.15303,1.15304 2.79206,0.49743 2.79206,-1.11683 z m -0.1576,-5.24474 c 0.19357,-1.00514 -0.2575,-1.45621 -1.45622,-1.45621 -1.19872,0 -1.73666,0.53794 -1.73666,1.73666 0,2.14651 2.77238,1.90301 3.19288,-0.28045 z m -0.68002,-5.73393 c 0,-1.26518 -0.37512,-1.6209 -1.32493,-1.25642 -0.72872,0.27963 -1.48258,0.50842 -1.67524,0.50842 -0.19267,0 -0.35031,0.56539 -0.35031,1.25643 0,0.69802 0.74456,1.25643 1.67524,1.25643 1.14518,0 1.67524,-0.55841 1.67524,-1.76486 z m -0.1576,-4.71707 c -0.4205,-2.18346 -3.19288,-2.42696 -3.19288,-0.28044 0,1.19871 0.53794,1.73665 1.73666,1.73665 1.19872,0 1.64979,-0.45107 1.45622,-1.45621 z m -0.68002,-5.24474 c 0,-1.11683 -0.55841,-1.67524 -1.67524,-1.67524 -1.61425,0 -2.26986,1.63903 -1.11682,2.79206 1.15303,1.15304 2.79206,0.49743 2.79206,-1.11682 z m 0,-5.44453 c 0,-0.698016 -0.74455,-1.25643 -1.67524,-1.25643 -0.93068,0 -1.67524,0.558414 -1.67524,1.25643 0,0.698016 0.74456,1.256429 1.67524,1.256429 0.93069,0 1.67524,-0.558413 1.67524,-1.256429 z"
       id="path942"
       transform="matrix(0.26458333,0,0,0.26458333,-55.975704,-57.958671)" />
    <path
       style="opacity:1;fill:#8aa678;fill-opacity:0.560769;fill-rule:evenodd;stroke:#8aa678;stroke-width:2.21606;stroke-linejoin:round;stroke-miterlimit:4;stroke-dasharray:2.21606, 2.21606000000000014;stroke-dashoffset:0"
       d="M 40.578986,119.81435 C 30.08113,117.68863 14.837287,111.13945 9.8251321,106.60163 7.0182049,104.06034 4.2836803,94.875251 4.2836803,87.988254 c 0,-16.70944 12.8436607,-34.172287 32.2589747,-43.860823 9.529098,-4.755165 15.303256,-6.475929 24.538765,-7.312829 l 6.134455,-0.55589 2.468619,3.407829 c 5.101298,7.042138 8.04327,19.143432 12.053049,49.578143 3.718241,28.221906 3.897336,25.963106 -2.209249,27.863916 -12.79285,3.98206 -27.574943,5.00895 -38.949308,2.70575 z"
       id="path944"
       transform="matrix(0.26458333,0,0,0.26458333,-55.975704,-57.958671)" />
    <path
       style="opacity:1;fill:#8aa678;fill-opacity:0.560769;fill-rule:evenodd;stroke:#8aa678;stroke-width:2.21606;stroke-linejoin:round;stroke-miterlimit:4;stroke-dasharray:2.21606, 2.21606000000000014;stroke-dashoffset:0"
       d="m 505.08704,85.660131 c -0.21467,-1.022986 -1.96546,-11.660123 -3.89064,-23.638082 -2.88854,-17.971693 -6.59622,-35.52194 -9.57576,-45.326682 -0.49801,-1.638805 0.19893,-1.974683 9.37185,-4.516575 42.36448,-11.73955972 73.86665,-10.4159484 82.30398,3.458126 l 1.55984,2.564947 -3.3808,10.183418 c -2.00478,6.038647 -4.49929,11.726845 -6.12882,13.97551 -4.70217,6.48868 -17.99608,18.637181 -26.75146,24.446526 -9.26778,6.149334 -25.593,14.357837 -36.21728,18.210462 l -6.90059,2.502328 z"
       id="path946"
       transform="matrix(0.26458333,0,0,0.26458333,-55.975704,-57.958671)" />
    <path
       style="opacity:1;fill:#a51d1e;fill-opacity:0.560769;fill-rule:evenodd;stroke:#8aa678;stroke-width:2.21606;stroke-linejoin:round;stroke-miterlimit:4;stroke-dasharray:2.21606, 2.21606;stroke-dashoffset:0"
       d="m 216.47478,104.53124 c -0.002,-0.34552 -0.96504,-5.15136 -2.13927,-10.679649 -2.0269,-9.542635 -7.47484,-40.700898 -8.05506,-46.069074 -0.26203,-2.424273 -0.1092,-2.546922 4.3353,-3.479115 25.04968,-5.253937 46.95276,8.198391 51.28587,31.498503 0.85744,4.61068 0.79043,5.506789 -0.6057,8.099243 -3.12233,5.797825 -13.54866,11.718793 -30.89675,17.545842 -10.8267,3.63658 -13.91592,4.32084 -13.92439,3.08425 z"
       id="path948"
       transform="matrix(0.26458333,0,0,0.26458333,-55.975704,-57.958671)" />
    <path
       style="opacity:1;fill:#a51d1e;fill-opacity:0.560769;fill-rule:evenodd;stroke:#8aa678;stroke-width:2.21606;stroke-linejoin:round;stroke-miterlimit:4;stroke-dasharray:2.21606, 2.21606;stroke-dashoffset:0"
       d="m 374.32539,131.66731 c -16.03407,-7.68413 -21.04121,-24.25278 -13.2277,-43.770564 6.69302,-16.71886 23.45841,-33.603214 42.36185,-42.662446 3.28964,-1.576516 6.114,-2.733556 6.27635,-2.571199 0.38995,0.389946 -12.87251,46.508904 -17.36994,60.402309 -4.83594,14.93915 -10.92513,31.41073 -11.61189,31.41073 -0.31219,0 -3.20509,-1.26398 -6.42867,-2.80883 z"
       id="path950"
       transform="matrix(0.26458333,0,0,0.26458333,-55.975704,-57.958671)" />
    <path
       style="opacity:0.5;fill:#a51d1e;fill-opacity:0.560769;fill-rule:evenodd;stroke:#8aa678;stroke-width:1.62362;stroke-linejoin:round;stroke-miterlimit:4;stroke-dasharray:1.62362, 1.62362;stroke-dashoffset:0"
       d="m 403.27387,431.60546 c -27.09435,-5.22519 -62.58141,-7.74505 -90.82587,-6.44937 -18.67817,0.85685 -50.99157,3.83874 -64.28385,5.93216 -1.43586,0.22613 -2.30133,0.1186 -2.30133,-0.28594 0,-0.3566 0.36999,-0.50638 0.82221,-0.33286 0.45221,0.17354 1.17643,-0.11129 1.60936,-0.63294 0.64041,-0.77165 0.64041,-1.12527 0,-1.89692 -0.43293,-0.52166 -1.15032,-0.8091 -1.59418,-0.63877 -0.6159,0.23633 -0.73403,-0.3021 -0.49879,-2.27341 1.77731,-14.89397 2.67087,-66.49856 1.56428,-90.34052 -2.76188,-59.50605 -11.95722,-113.52939 -27.44016,-161.21302 -5.7843,-17.81422 -14.59091,-39.73037 -21.39068,-53.23293 -1.24277,-2.46781 -2.03166,-4.68119 -1.75308,-4.91861 0.27858,-0.23742 4.37274,-1.34646 9.09814,-2.46453 4.7254,-1.11807 13.42443,-3.53361 19.33118,-5.36787 28.368,-8.809265 41.05368,-17.403215 41.10364,-27.845789 0.0172,-3.591592 -1.89255,-11.087073 -3.86829,-15.182587 -0.84183,-1.745044 -1.45645,-3.172808 -1.36582,-3.172808 0.0906,0 4.00097,2.560411 8.68965,5.689802 10.22937,6.827452 17.69749,10.768962 25.45995,13.43721 5.23085,1.798035 6.4611,1.985542 13.13564,2.002053 15.9269,0.0394 37.73338,-6.769482 58.46049,-18.253776 3.46333,-1.918937 6.45541,-3.488977 6.64904,-3.488977 0.19364,0 -1.14366,1.725998 -2.97178,3.835552 -10.83637,12.504651 -16.83481,25.722014 -17.47654,38.50894 -0.85183,16.97366 7.18234,28.38474 24.68557,35.06137 2.02517,0.77251 4.37253,1.44403 5.21635,1.49229 0.84382,0.0482 4.71006,0.41668 8.59163,0.81873 3.88158,0.40205 9.15886,0.54834 11.72729,0.32508 l 4.66988,-0.40592 -2.66072,15.87419 c -3.58834,21.40856 -7.16734,45.36431 -9.38986,62.85024 -10.29698,81.0124 -7.44336,144.09197 8.90261,196.7933 2.95339,9.52206 3.05272,9.96858 1.97865,8.89451 -0.5616,-0.5616 -0.98363,-0.49673 -1.84603,0.28372 -1.04639,0.94697 -1.05234,1.0843 -0.0929,2.1445 0.95354,1.05365 1.10295,1.06229 2.14008,0.1237 1.03464,-0.93634 1.14295,-0.93613 1.50327,0.003 0.21356,0.55654 0.0474,1.4226 -0.3692,1.92459 -0.60115,0.72435 -0.59981,1.10271 0.007,1.83326 0.42018,0.50629 1.1444,0.92053 1.60936,0.92053 0.46497,0 0.84539,0.27616 0.84539,0.61369 0,0.33753 -0.069,0.57809 -0.15342,0.53459 -0.0844,-0.0435 -3.46734,-0.7182 -7.51768,-1.49931 z m -151.62412,-6.20165 c 0.223,-0.58114 -0.0131,-1.4376 -0.54203,-1.96657 -0.84032,-0.84031 -1.02752,-0.8134 -1.81287,0.26064 -0.61833,0.84561 -0.68821,1.42374 -0.23771,1.96657 0.89609,1.07971 2.1257,0.9561 2.59261,-0.26064 z m 152.57021,-2.3766 c 0.65222,-0.78587 0.61192,-1.12895 -0.2317,-1.97257 -0.95252,-0.95252 -1.08995,-0.95252 -2.04247,0 -0.84362,0.84362 -0.88392,1.1867 -0.2317,1.97257 0.43424,0.52323 0.99806,0.95133 1.25293,0.95133 0.25488,0 0.8187,-0.4281 1.25294,-0.95133 z m -149.22913,-1.71712 c 0.52217,-0.62917 0.41424,-1.07392 -0.45055,-1.85654 -1.01071,-0.91468 -1.22291,-0.92592 -1.90756,-0.10097 -0.91124,1.09798 -0.42253,2.7849 0.8068,2.7849 0.47555,0 1.17365,-0.37232 1.55131,-0.82739 z m 145.9162,-2.55571 c 0.19593,-0.5106 0.01,-1.34604 -0.4141,-1.85655 -0.68464,-0.82495 -0.89683,-0.81372 -1.90755,0.10096 -0.86479,0.78263 -0.97272,1.22737 -0.45055,1.85655 0.91448,1.10188 2.33041,1.05031 2.7722,-0.10096 z m -142.15676,-2.45643 c 0,-1.27491 -1.97121,-1.65902 -3.02397,-0.58925 -0.87822,0.89241 -0.85915,1.05907 0.21202,1.85322 1.26938,0.9411 2.81195,0.24771 2.81195,-1.26397 z m 138.62894,-2.87286 c -0.69268,-1.29429 -0.84264,-1.32113 -2.4814,-0.4441 -1.16648,0.62428 -1.17818,0.72857 -0.20271,1.80644 0.83144,0.91874 1.25579,1.00615 2.15578,0.4441 0.84716,-0.52905 0.97607,-0.96983 0.52833,-1.80644 z m -135.71432,-0.47467 c 0.64724,-1.03641 0.5657,-1.31047 -0.57091,-1.91876 -1.10058,-0.58902 -1.46828,-0.5151 -2.16284,0.43477 -0.72168,0.98695 -0.69111,1.25098 0.22213,1.91876 1.40223,1.02534 1.6237,0.987 2.51162,-0.43477 z m 131.70178,-3.79784 c -0.77426,-0.85555 -1.21715,-0.96086 -1.84603,-0.43894 -1.0211,0.84744 -1.05771,1.90164 -0.0993,2.86002 0.5616,0.5616 0.98363,0.49674 1.84603,-0.28372 1.04371,-0.94455 1.05031,-1.08654 0.0993,-2.13736 z m -128.4244,-0.27581 c 0.69614,-0.8388 0.64252,-1.11605 -0.3572,-1.84707 -1.01234,-0.74023 -1.30115,-0.73527 -2.07203,0.0356 -0.73527,0.73527 -0.7543,1.06616 -0.1062,1.84706 0.99965,1.20451 1.5122,1.19732 2.53543,-0.0356 z m 125.16286,-1.80546 c 0.65222,-0.78587 0.61192,-1.12895 -0.2317,-1.97257 -0.95252,-0.95252 -1.08995,-0.95252 -2.04248,0 -0.84361,0.84362 -0.88391,1.1867 -0.23169,1.97257 0.43424,0.52324 0.99806,0.95133 1.25293,0.95133 0.25487,0 0.81869,-0.42809 1.25294,-0.95133 z m -121.61316,-3.74448 c -0.84743,-1.0211 -1.90163,-1.05771 -2.86001,-0.0993 -0.5616,0.5616 -0.49674,0.98363 0.28372,1.84603 0.94454,1.04371 1.08654,1.05031 2.13736,0.0993 0.85555,-0.77426 0.96085,-1.21715 0.43893,-1.84603 z m 117.93103,0.0624 c 0.6513,-0.78477 0.61613,-1.12474 -0.2009,-1.94177 -1.38942,-1.38942 -3.17712,-0.0117 -2.24492,1.73017 0.75556,1.41179 1.40324,1.46783 2.44582,0.2116 z m -114.75971,-2.45475 c 0.65221,-0.78587 0.61192,-1.12895 -0.2317,-1.97257 -0.95253,-0.95252 -1.08996,-0.95252 -2.04248,0 -0.84362,0.84362 -0.88391,1.1867 -0.2317,1.97257 0.43425,0.52323 0.99807,0.95133 1.25294,0.95133 0.25487,0 0.81869,-0.4281 1.25294,-0.95133 z M 383.329,398.55807 c 0,-0.39746 -0.32763,-1.05028 -0.72805,-1.4507 -0.5616,-0.5616 -0.98363,-0.49674 -1.84603,0.28372 -1.04371,0.94455 -1.05031,1.08654 -0.0993,2.13736 0.77426,0.85555 1.21715,0.96086 1.84603,0.43893 0.45506,-0.37766 0.82738,-1.01185 0.82738,-1.40931 z m -108.40418,-3.52032 c -0.77426,-0.85555 -1.21715,-0.96086 -1.84603,-0.43894 -1.02109,0.84744 -1.05771,1.90164 -0.0993,2.86002 0.5616,0.5616 0.98363,0.49674 1.84603,-0.28372 1.04371,-0.94455 1.05031,-1.08654 0.0993,-2.13736 z m 104.50312,0.39647 c 0.19593,-0.51059 0.01,-1.34604 -0.4141,-1.85655 -0.68464,-0.82495 -0.89683,-0.81371 -1.90755,0.10097 -0.86479,0.78262 -0.97273,1.22737 -0.45055,1.85655 0.91447,1.10187 2.33041,1.0503 2.7722,-0.10097 z m -101.01408,-2.47774 c 0.65332,-0.7872 0.60687,-1.1313 -0.26921,-1.99449 -0.99682,-0.98214 -1.10978,-0.97431 -1.93137,0.13388 -0.64667,0.87224 -0.69695,1.3887 -0.19419,1.99449 0.88131,1.06192 1.42769,1.03137 2.39477,-0.13388 z m 96.96275,-1.22738 c 0.65222,-0.78587 0.61192,-1.12894 -0.2317,-1.97256 -0.95252,-0.95253 -1.08995,-0.95253 -2.04247,0 -0.84362,0.84362 -0.88392,1.18669 -0.2317,1.97256 0.43424,0.52324 0.99806,0.95134 1.25293,0.95134 0.25487,0 0.81869,-0.4281 1.25294,-0.95134 z m -93.30618,-2.49552 c 0,-0.89101 -0.35977,-1.46265 -0.92054,-1.46265 -0.50629,0 -0.92053,-0.41424 -0.92053,-0.92053 0,-0.5063 -0.3452,-0.91631 -0.76711,-0.91114 -1.47766,0.0181 -2.25393,0.95984 -1.90164,2.30699 0.19445,0.74357 0.57842,1.21295 0.85327,1.04309 0.27486,-0.16987 0.66731,0.21911 0.87211,0.86439 0.54435,1.71508 2.78444,0.9748 2.78444,-0.92015 z m 5.52319,-0.54212 c 0,-1.22737 -0.30684,-1.53422 -1.53422,-1.53422 -1.22738,0 -1.53422,0.30685 -1.53422,1.53422 0,1.22738 0.30684,1.53422 1.53422,1.53422 1.22738,0 1.53422,-0.30684 1.53422,-1.53422 z m 4.90951,-0.61369 c 0,-1.22737 -0.30685,-1.53422 -1.53422,-1.53422 -1.07861,0 -1.53422,0.33412 -1.53422,1.1251 0,1.42268 0.52066,1.94334 1.94334,1.94334 0.79098,0 1.1251,-0.45561 1.1251,-1.53422 z m 78.7389,-1.66687 c -0.57779,-0.63845 -1.06331,-1.7673 -1.07893,-2.50857 -0.0295,-1.39899 -0.31828,-1.6546 -1.86947,-1.6546 -0.57277,0 -0.92053,0.5796 -0.92053,1.53423 0,1.00382 0.34299,1.53422 0.99211,1.53422 0.71976,0 0.89528,0.37028 0.63937,1.34886 -0.194,0.74187 -0.0485,1.7154 0.32326,2.16339 0.55542,0.66923 0.88013,0.6298 1.82035,-0.2211 1.08205,-0.97923 1.08715,-1.09883 0.0938,-2.19643 z m -73.21571,1.05319 c 0,-1.22738 -0.30684,-1.53423 -1.53422,-1.53423 -1.22737,0 -1.53422,0.30685 -1.53422,1.53423 0,1.22737 0.30685,1.53422 1.53422,1.53422 1.22738,0 1.53422,-0.30685 1.53422,-1.53422 z m 5.21635,0 c 0,-0.86782 -0.47132,-1.28204 -1.60888,-1.41397 -1.4348,-0.16639 -1.57578,-0.0135 -1.30304,1.4133 0.23116,1.20926 0.62397,1.55448 1.60888,1.41396 0.83195,-0.1187 1.30304,-0.62966 1.30304,-1.41329 z m 5.21635,-0.61369 c 0,-1.22738 -0.30684,-1.53422 -1.53422,-1.53422 -1.22737,0 -1.53422,0.30684 -1.53422,1.53422 0,1.22737 0.30685,1.53422 1.53422,1.53422 1.22738,0 1.53422,-0.30685 1.53422,-1.53422 z m 5.5232,0 c 0,-1.22738 -0.30685,-1.53422 -1.53422,-1.53422 -1.22738,0 -1.53422,0.30684 -1.53422,1.53422 0,1.22737 0.30684,1.53422 1.53422,1.53422 1.22737,0 1.53422,-0.30685 1.53422,-1.53422 z m 52.77719,0 c 0,-1.22738 -0.30684,-1.53422 -1.53422,-1.53422 -1.0786,0 -1.53422,0.33411 -1.53422,1.12509 0,1.42268 0.52067,1.94335 1.94335,1.94335 0.79098,0 1.12509,-0.45562 1.12509,-1.53422 z m -47.86768,-0.65637 c 0,-1.28429 -0.25623,-1.54051 -1.3808,-1.3808 -0.88737,0.12603 -1.45088,0.68953 -1.57691,1.5769 -0.15971,1.12457 0.0965,1.3808 1.3808,1.3808 1.28429,0 1.57691,-0.29262 1.57691,-1.5769 z m 5.52319,0.0427 c 0,-1.22738 -0.30684,-1.53422 -1.53422,-1.53422 -1.22738,0 -1.53422,0.30684 -1.53422,1.53422 0,1.22738 0.30684,1.53422 1.53422,1.53422 1.22738,0 1.53422,-0.30684 1.53422,-1.53422 z m 5.41246,0.15342 c -0.12603,-0.88737 -0.68954,-1.45087 -1.57691,-1.5769 -1.12457,-0.15971 -1.3808,0.0965 -1.3808,1.3808 0,1.28428 0.29262,1.5769 1.57691,1.5769 1.28429,0 1.54051,-0.25623 1.3808,-1.3808 z m 5.02024,-0.15345 c 0,-1.22738 -0.30684,-1.53422 -1.53422,-1.53422 -1.22738,0 -1.53422,0.30684 -1.53422,1.53422 0,1.22738 0.30684,1.53422 1.53422,1.53422 1.22738,0 1.53422,-0.30684 1.53422,-1.53422 z m 5.5232,0 c 0,-1.22738 -0.30685,-1.53422 -1.53422,-1.53422 -1.22738,0 -1.53423,0.30684 -1.53423,1.53422 0,1.22738 0.30685,1.53422 1.53423,1.53422 1.22737,0 1.53422,-0.30684 1.53422,-1.53422 z m 5.15268,0.55831 c 0.50269,-1.30998 -0.0608,-2.09253 -1.50677,-2.09253 -0.86144,0 -1.19116,0.42467 -1.19116,1.53422 0,1.76822 2.06932,2.19644 2.69793,0.55831 z m 5.28002,-0.55831 c 0,-1.22738 -0.30685,-1.53422 -1.53422,-1.53422 -1.22738,0 -1.53422,0.30684 -1.53422,1.53422 0,1.22738 0.30684,1.53422 1.53422,1.53422 1.22737,0 1.53422,-0.30684 1.53422,-1.53422 z m 5.52319,0 c 0,-1.22738 -0.30684,-1.53422 -1.53422,-1.53422 -1.22737,0 -1.53422,0.30684 -1.53422,1.53422 0,1.22738 0.30685,1.53422 1.53422,1.53422 1.22738,0 1.53422,-0.30684 1.53422,-1.53422 z m 4.90951,-0.0427 c 0,-1.28429 -0.25623,-1.54052 -1.3808,-1.3808 -0.88737,0.12602 -1.45088,0.68953 -1.5769,1.5769 -0.15971,1.12457 0.0965,1.3808 1.3808,1.3808 1.28428,0 1.5769,-0.29262 1.5769,-1.5769 z m -81.73488,-3.48788 c 0.22523,-1.18172 -1.22615,-2.0092 -2.59963,-1.48215 -0.54305,0.20839 -0.74472,0.82511 -0.53369,1.63208 0.41484,1.58635 2.82436,1.47105 3.13332,-0.14993 z m 90.21578,-4.29394 c -0.12603,-0.88737 -0.68954,-1.45087 -1.57691,-1.5769 -1.12457,-0.15971 -1.3808,0.0965 -1.3808,1.3808 0,1.28428 0.29262,1.5769 1.57691,1.5769 1.28429,0 1.54051,-0.25623 1.3808,-1.3808 z m -91.32882,-1.10931 c 0,-1.3794 -0.80289,-1.93008 -2.09253,-1.4352 -0.94145,0.36127 -1.33709,2.13219 -0.63354,2.83575 0.70957,0.70957 2.72607,-0.32643 2.72607,-1.40055 z m 90.03568,-2.91101 c 0.40922,-0.26006 0.59521,-1.04197 0.4133,-1.7376 -0.25182,-0.96294 -0.69415,-1.19528 -1.85359,-0.97364 -1.02076,0.19513 -1.40994,0.58533 -1.1804,1.18348 0.18834,0.49081 0.34244,1.14596 0.34244,1.45588 0,0.68222 1.25549,0.72183 2.27825,0.0719 z m -91.26306,-2.26998 c 0,-1.22738 -0.30684,-1.53422 -1.53422,-1.53422 -1.22738,0 -1.53422,0.30684 -1.53422,1.53422 0,1.22737 0.30684,1.53422 1.53422,1.53422 1.22738,0 1.53422,-0.30685 1.53422,-1.53422 z m 90.96369,-3.10398 c 0.8431,-0.84311 -0.36126,-2.72606 -1.74361,-2.72606 -1.50913,0 -1.73117,0.42725 -1.09015,2.09771 0.35967,0.9373 2.13186,1.33025 2.83376,0.62835 z m -92.22597,-0.885 c 0.26311,0 0.3449,-0.69831 0.18174,-1.5518 -0.23974,-1.25416 -0.54712,-1.47495 -1.60254,-1.15114 -1.76061,0.54018 -1.78512,0.57934 -1.30648,2.08739 0.26683,0.84072 0.74976,1.19082 1.3336,0.96678 0.5034,-0.19318 1.13056,-0.35123 1.39368,-0.35123 z m 91.43956,-4.29581 c 0.26311,0 0.34489,-0.69831 0.18174,-1.55181 -0.23974,-1.25416 -0.54712,-1.47495 -1.60254,-1.15114 -1.76061,0.54018 -1.78512,0.57934 -1.30648,2.08739 0.26683,0.84072 0.74976,1.19082 1.3336,0.96678 0.5034,-0.19318 1.13056,-0.35122 1.39368,-0.35122 z m -92.01834,-1.17719 c 0,-1.3844 -0.83674,-2.50494 -1.87051,-2.50494 -1.3849,0 -1.93666,0.80116 -1.44112,2.09253 0.39282,1.02365 3.31163,1.38714 3.31163,0.41241 z m 91.57737,-4.0747 c 0.8431,-0.84311 -0.36125,-2.72606 -1.74361,-2.72606 -1.50913,0 -1.73117,0.42725 -1.09014,2.09771 0.35967,0.93729 2.13185,1.33025 2.83375,0.62835 z m -93.50619,-0.81778 c 0.50444,-0.31962 0.67749,-1.01695 0.43892,-1.76863 -0.56286,-1.77341 -2.80592,-1.09196 -2.80592,0.85245 0,1.50124 0.8962,1.84813 2.367,0.91618 z m 93.25763,-5.74383 c -0.12602,-0.88737 -0.68953,-1.45088 -1.5769,-1.57691 -1.12457,-0.15971 -1.3808,0.0965 -1.3808,1.3808 0,1.28429 0.29262,1.5769 1.57691,1.5769 1.28429,0 1.54051,-0.25622 1.38079,-1.38079 z m -93.89431,-0.61369 c -0.12871,-0.90631 -0.61787,-1.3808 -1.42348,-1.3808 -0.80561,0 -1.29476,0.47449 -1.42348,1.3808 -0.16087,1.13267 0.0949,1.3808 1.42348,1.3808 1.32855,0 1.58435,-0.24813 1.42348,-1.3808 z m 93.28063,-4.60267 c 0.15971,-1.12457 -0.0965,-1.38079 -1.3808,-1.38079 -1.28429,0 -1.57691,0.29261 -1.57691,1.5769 0,1.28429 0.25623,1.54051 1.3808,1.3808 0.88737,-0.12603 1.45088,-0.68954 1.57691,-1.57691 z m -94.508,-0.61996 c 0.15948,-1.11784 -0.0984,-1.37452 -1.3808,-1.37452 -1.12,0 -1.57691,0.32599 -1.57691,1.12509 0,2.37867 2.62237,2.59982 2.95771,0.24943 z m -0.7742,-4.87835 c -0.18834,-0.4908 -0.34244,-1.14595 -0.34244,-1.45587 0,-0.70533 -1.26633,-0.71444 -2.367,-0.017 -0.49688,0.31483 -0.67707,1.01829 -0.44674,1.74398 0.28964,0.91261 0.77461,1.14202 1.94233,0.9188 1.04833,-0.2004 1.44452,-0.58877 1.21385,-1.18988 z m 94.77925,0.12854 c 0,-1.22737 -0.30685,-1.53422 -1.53422,-1.53422 -1.22738,0 -1.53422,0.30685 -1.53422,1.53422 0,1.22738 0.30684,1.53422 1.53422,1.53422 1.22737,0 1.53422,-0.30684 1.53422,-1.53422 z m -0.73395,-5.29626 c 0.16538,-1.42143 0.009,-1.56959 -1.3808,-1.30401 -1.64364,0.31421 -1.81351,0.64214 -1.18332,2.28439 0.58248,1.51793 2.35217,0.8413 2.56412,-0.98038 z m -95.3425,0.74898 c 0.59307,-0.95961 -0.35167,-2.51013 -1.52943,-2.51013 -1.3849,0 -1.93666,0.80116 -1.44112,2.09253 0.40333,1.05105 2.40513,1.33247 2.97055,0.4176 z m -1.4498,-4.96489 c 0.30992,0 0.55927,-0.3452 0.5541,-0.76711 -0.0177,-1.44304 -0.9546,-2.2553 -2.21982,-1.92444 -0.96294,0.25182 -1.19528,0.69414 -0.97364,1.85359 0.19512,1.02076 0.58533,1.40994 1.18348,1.1804 0.49081,-0.18834 1.14595,-0.34244 1.45588,-0.34244 z m 96.91256,-0.92053 c 0,-1.22738 -0.30685,-1.53422 -1.53422,-1.53422 -1.22738,0 -1.53422,0.30684 -1.53422,1.53422 0,1.22738 0.30684,1.53422 1.53422,1.53422 1.22737,0 1.53422,-0.30684 1.53422,-1.53422 z m -97.57644,-5.52319 c 0,-1.22738 -0.30685,-1.53423 -1.53422,-1.53423 -1.22738,0 -1.53422,0.30685 -1.53422,1.53423 0,1.22737 0.30684,1.53422 1.53422,1.53422 1.22737,0 1.53422,-0.30685 1.53422,-1.53422 z m 96.96275,-0.0427 c 0,-1.28429 -0.25623,-1.54051 -1.3808,-1.38079 -0.88737,0.12602 -1.45087,0.68953 -1.5769,1.5769 -0.15971,1.12457 0.0965,1.3808 1.3808,1.3808 1.28428,0 1.5769,-0.29262 1.5769,-1.57691 z m -99.16086,-3.7051 c 0.9373,-0.35967 1.33025,-2.13186 0.62835,-2.83376 -0.18831,-0.18831 -0.87871,-0.20212 -1.53422,-0.0307 -1.15222,0.30131 -1.61983,1.99072 -0.78271,2.82784 0.4981,0.49811 0.48663,0.49786 1.68858,0.0366 z m 99.05012,-1.31517 c 0.15971,-1.12457 -0.0965,-1.3808 -1.3808,-1.3808 -1.28428,0 -1.5769,0.29262 -1.5769,1.5769 0,1.28429 0.25623,1.54051 1.3808,1.3808 0.88737,-0.12603 1.45087,-0.68953 1.5769,-1.5769 z m -99.16895,-4.17793 c 0.70956,-0.70957 -0.32643,-2.72607 -1.40055,-2.72607 -1.34764,0 -2.04009,0.95877 -1.57251,2.1773 0.33383,0.86992 2.29071,1.23112 2.97306,0.54877 z m 98.666,-1.19185 c 0,-1.22737 -0.30684,-1.53422 -1.53422,-1.53422 -1.22737,0 -1.53422,0.30685 -1.53422,1.53422 0,1.22738 0.30685,1.53423 1.53422,1.53423 1.22738,0 1.53422,-0.30685 1.53422,-1.53423 z m -100.16383,-3.89401 c 1.20983,-0.76765 0.18434,-2.54971 -1.46724,-2.54971 -1.51482,0 -1.73749,0.42617 -1.09606,2.09771 0.4079,1.06298 1.34107,1.22753 2.5633,0.452 z m 99.19311,0.14623 c 1.63416,-0.62709 1.20174,-2.69594 -0.5635,-2.69594 -1.22737,0 -1.53422,0.30684 -1.53422,1.53422 0,1.57794 0.41465,1.80757 2.09772,1.16172 z m -100.23766,-5.1507 c 0.70533,0 0.71444,-1.26633 0.017,-2.367 -0.31482,-0.49687 -1.01828,-0.67707 -1.74398,-0.44674 -0.91261,0.28965 -1.14202,0.77462 -0.9188,1.94233 0.2004,1.04833 0.58877,1.44452 1.18988,1.21385 0.49081,-0.18834 1.14595,-0.34244 1.45588,-0.34244 z m 100.59469,-1.53422 c 0,-1.22737 -0.30684,-1.53422 -1.53422,-1.53422 -1.0786,0 -1.53422,0.33412 -1.53422,1.1251 0,0.6188 0.18411,1.3092 0.40913,1.53422 0.22502,0.22502 0.91541,0.40912 1.53422,0.40912 0.79098,0 1.12509,-0.45561 1.12509,-1.53422 z m -101.56541,-4.9095 c 0,-0.80561 -0.47449,-1.29477 -1.3808,-1.42348 -1.13267,-0.16087 -1.3808,0.0949 -1.3808,1.42348 0,1.32855 0.24813,1.58434 1.3808,1.42348 0.90631,-0.12872 1.3808,-0.61788 1.3808,-1.42348 z m 101.56541,-0.61369 c 0,-1.22738 -0.30684,-1.53422 -1.53422,-1.53422 -1.22737,0 -1.53422,0.30684 -1.53422,1.53422 0,1.22737 0.30685,1.53422 1.53422,1.53422 1.22738,0 1.53422,-0.30685 1.53422,-1.53422 z m -103.45667,-3.1341 c 1.04695,-0.40175 1.32518,-2.40444 0.41242,-2.96856 -1.54269,-0.95343 -3.39771,1.63523 -2.10101,2.93193 0.49811,0.49812 0.48663,0.49786 1.68859,0.0366 z M 362.96654,294.03 c 0.15972,-1.12457 -0.0965,-1.3808 -1.38079,-1.3808 -1.28429,0 -1.57691,0.29262 -1.57691,1.5769 0,1.28429 0.25623,1.54051 1.3808,1.3808 0.88737,-0.12602 1.45088,-0.68953 1.5769,-1.5769 z m -103.60258,-4.75608 c 0,-1.10955 -0.32972,-1.53423 -1.19116,-1.53423 -0.65513,0 -1.37001,0.28939 -1.5886,0.64308 -0.6574,1.0637 0.20334,2.42537 1.53312,2.42537 0.92062,0 1.24664,-0.40123 1.24664,-1.53422 z m 103.60258,-0.46027 c -0.12602,-0.88737 -0.68953,-1.45088 -1.5769,-1.5769 -1.12457,-0.15972 -1.3808,0.0965 -1.3808,1.38079 0,1.28429 0.29262,1.57691 1.57691,1.57691 1.28429,0 1.54051,-0.25623 1.38079,-1.3808 z m -105.27797,-3.25261 c 0.55964,-0.21475 0.77394,-0.89105 0.58898,-1.85865 -0.23399,-1.224 -0.54581,-1.44281 -1.59667,-1.12039 -1.75602,0.53876 -1.78417,0.58233 -1.32057,2.04301 0.42131,1.32743 0.85447,1.50157 2.32826,0.93603 z m 104.92523,-2.42401 c -0.30135,-1.5764 -2.15754,-2.14096 -2.92997,-0.89114 -0.69844,1.13011 0.23874,2.42536 1.75487,2.42536 1.23536,0 1.42184,-0.24347 1.1751,-1.53422 z m -105.09091,-3.32509 c 0,-1.17305 -0.77178,-2.50459 -1.44645,-2.49555 -1.3489,0.018 -2.27422,1.01716 -1.88396,2.03415 0.40606,1.05818 3.33041,1.46332 3.33041,0.4614 z m 104.94071,-1.58441 c 0,-1.22738 -0.30685,-1.53423 -1.53422,-1.53423 -1.07861,0 -1.53423,0.33412 -1.53423,1.1251 0,0.6188 0.18411,1.3092 0.40913,1.53422 0.22502,0.22502 0.91542,0.40913 1.53422,0.40913 0.79098,0 1.1251,-0.45562 1.1251,-1.53422 z m -106.28242,-4.14425 c 0.22523,-1.18172 -1.22614,-2.0092 -2.59962,-1.48215 -0.54305,0.20839 -0.74472,0.82511 -0.5337,1.63208 0.41484,1.58635 2.82437,1.47105 3.13332,-0.14993 z m 106.28242,-1.42163 c 0,-1.28429 -0.25623,-1.54051 -1.3808,-1.3808 -0.88737,0.12603 -1.45088,0.68953 -1.57691,1.5769 -0.15971,1.12457 0.0965,1.3808 1.3808,1.3808 1.28429,0 1.57691,-0.29262 1.57691,-1.5769 z M 255.06814,268.68 c 0,-1.3794 -0.80289,-1.93008 -2.09253,-1.4352 -0.94145,0.36127 -1.33709,2.13219 -0.63353,2.83575 0.70957,0.70956 2.72606,-0.32643 2.72606,-1.40055 z m 107.39546,-0.88518 c 0,-1.22737 -0.30685,-1.53422 -1.53422,-1.53422 -1.07861,0 -1.53423,0.33412 -1.53423,1.1251 0,0.6188 0.18411,1.3092 0.40913,1.53422 0.22502,0.22502 0.91542,0.40912 1.53422,0.40912 0.79098,0 1.1251,-0.45561 1.1251,-1.53422 z m -108.62284,-4.29581 c 0,-1.22738 -0.30684,-1.53422 -1.53422,-1.53422 -1.22737,0 -1.53422,0.30684 -1.53422,1.53422 0,1.22737 0.30685,1.53422 1.53422,1.53422 1.22738,0 1.53422,-0.30685 1.53422,-1.53422 z m 108.86602,-0.66907 c 0.50268,-1.30997 -0.0608,-2.09253 -1.50678,-2.09253 -0.86144,0 -1.19116,0.42467 -1.19116,1.53422 0,1.76823 2.06932,2.19644 2.69794,0.55831 z m -111.06412,-3.07872 c 0.5339,-0.20488 0.97073,-1.0629 0.97073,-1.90673 0,-1.14688 -0.24508,-1.44017 -0.97073,-1.16171 -0.5339,0.20488 -1.22429,0.3725 -1.53422,0.3725 -0.64762,0 -0.76646,2.04723 -0.15437,2.65931 0.49811,0.49811 0.48663,0.49786 1.68859,0.0366 z m 111.32388,-2.84936 c -0.12602,-0.88737 -0.68953,-1.45088 -1.5769,-1.57691 -1.12457,-0.15971 -1.3808,0.0965 -1.3808,1.3808 0,1.28429 0.29262,1.57691 1.57691,1.57691 1.28429,0 1.54051,-0.25623 1.38079,-1.3808 z m -111.44271,-2.64371 c 0.70956,-0.70957 -0.32644,-2.72607 -1.40055,-2.72607 -1.34765,0 -2.0401,0.95878 -1.57251,2.1773 0.33382,0.86992 2.29071,1.23112 2.97306,0.54877 z m 111.55345,-2.41922 c 0,-1.22738 -0.30684,-1.53422 -1.53422,-1.53422 -1.22737,0 -1.53422,0.30684 -1.53422,1.53422 0,1.22737 0.30685,1.53422 1.53422,1.53422 1.22738,0 1.53422,-0.30685 1.53422,-1.53422 z M 249.98214,249.1994 c 0.40922,-0.26006 0.5952,-1.04197 0.41329,-1.73759 -0.24926,-0.95318 -0.69714,-1.19472 -1.81799,-0.98045 -1.55801,0.29783 -1.72834,0.63993 -1.11475,2.23893 0.40312,1.05051 1.33996,1.22866 2.51945,0.47911 z m 113.09514,-2.88367 c 0,-1.22737 -0.30684,-1.53422 -1.53422,-1.53422 -1.22737,0 -1.53422,0.30685 -1.53422,1.53422 0,1.22738 0.30685,1.53422 1.53422,1.53422 1.22738,0 1.53422,-0.30684 1.53422,-1.53422 z m -113.54173,-2.98656 c -0.005,-0.38256 -0.24685,-1.07032 -0.53707,-1.52835 -0.73046,-1.15281 -3.34766,-0.29801 -2.8732,0.93842 0.19317,0.5034 0.35122,1.13056 0.35122,1.39368 0,0.26311 0.6904,0.34641 1.53423,0.1851 0.84382,-0.1613 1.52999,-0.60628 1.52482,-0.98885 z m 113.86326,-1.66235 c 0.4636,-1.46067 0.43544,-1.50424 -1.32058,-2.043 -1.05133,-0.32256 -1.36269,-0.10356 -1.59726,1.12354 -0.27159,1.42074 0.0831,1.78006 2.09469,2.1219 0.2304,0.0391 0.60082,-0.50194 0.82315,-1.20244 z m -115.19558,-3.79115 c 0.22524,-1.18172 -1.22614,-2.0092 -2.59962,-1.48215 -0.54305,0.20839 -0.74472,0.82511 -0.53369,1.63208 0.41484,1.58635 2.82436,1.47105 3.13331,-0.14993 z m 115.48774,-1.99264 c 0,-1.22737 -0.30684,-1.53422 -1.53422,-1.53422 -1.22737,0 -1.53422,0.30685 -1.53422,1.53422 0,1.22738 0.30685,1.53422 1.53422,1.53422 1.22738,0 1.53422,-0.30684 1.53422,-1.53422 z M 246.5267,233.73516 c 0.73028,0 0.73461,-2.27656 0.005,-2.72737 -1.08817,-0.67251 -2.51016,0.42545 -2.51016,1.93816 0,1.14688 0.24508,1.44017 0.97073,1.16172 0.53389,-0.20488 1.22429,-0.37251 1.53422,-0.37251 z m 117.3328,-3.03291 c 0.36814,-1.40777 0.0103,-1.87659 -1.43253,-1.87659 -0.97743,0 -1.80444,1.14805 -1.80444,2.50494 0,1.14327 2.922,0.57607 3.23697,-0.62835 z m -117.99668,-3.41081 c 0,-1.22738 -0.30685,-1.53423 -1.53422,-1.53423 -1.22738,0 -1.53423,0.30685 -1.53423,1.53423 0,1.22737 0.30685,1.53422 1.53423,1.53422 1.22737,0 1.53422,-0.30685 1.53422,-1.53422 z m 118.44184,-1.84107 c 0,-1.22738 -0.30684,-1.53422 -1.53422,-1.53422 -1.07861,0 -1.53422,0.33412 -1.53422,1.12509 0,0.61881 0.18411,1.30921 0.40913,1.53422 0.22501,0.22502 0.91541,0.40913 1.53422,0.40913 0.79097,0 1.12509,-0.45561 1.12509,-1.53422 z m -120.63994,-1.90672 c 0.93728,-0.35967 1.33024,-2.13186 0.62834,-2.83376 -0.18831,-0.18831 -0.87871,-0.20212 -1.53422,-0.0307 -1.15222,0.30131 -1.61983,1.99072 -0.78272,2.82784 0.49811,0.49811 0.48664,0.49786 1.6886,0.0366 z m 121.25363,-3.61647 c 0,-1.22738 -0.30685,-1.53423 -1.53422,-1.53423 -1.22738,0 -1.53422,0.30685 -1.53422,1.53423 0,1.22737 0.30684,1.53422 1.53422,1.53422 1.22737,0 1.53422,-0.30685 1.53422,-1.53422 z m -121.51029,-3.14002 c 0,-1.0387 -0.34526,-1.46265 -1.19116,-1.46265 -1.48205,0 -2.06863,0.8851 -1.5887,2.39721 0.54041,1.70267 2.77986,0.94979 2.77986,-0.93456 z m 121.51029,-0.79876 c 0,-0.30993 0.1537,-0.96404 0.34155,-1.45357 0.43504,-1.1337 -2.24359,-1.93671 -2.91837,-0.87488 -0.77945,1.22654 -0.55662,2.17127 0.58233,2.46891 1.77295,0.46332 1.99449,0.44772 1.99449,-0.14046 z m -123.16252,-2.85143 c 1.45439,-0.5581 0.51558,-2.72196 -1.18094,-2.72196 -1.50913,0 -1.73116,0.42725 -1.09014,2.09771 0.40035,1.0433 0.85406,1.16801 2.27108,0.62425 z m 123.77621,-3.68518 c 0,-1.28429 -0.25623,-1.54051 -1.3808,-1.3808 -0.88737,0.12603 -1.45088,0.68954 -1.5769,1.57691 -0.15972,1.12457 0.0965,1.3808 1.38079,1.3808 1.28429,0 1.57691,-0.29262 1.57691,-1.57691 z m -124.1428,-1.748 c 0.42303,-0.34078 -0.70012,-2.81035 -1.27462,-2.80258 -1.50377,0.0203 -2.35786,1.07494 -1.93909,2.39438 0.32501,1.024 0.72804,1.23569 1.75332,0.92092 0.73222,-0.22481 1.38939,-0.45552 1.46039,-0.51272 z m 124.64575,-3.57909 c -0.12872,-0.90631 -0.61788,-1.3808 -1.42349,-1.3808 -0.8056,0 -1.29476,0.47449 -1.42348,1.3808 -0.16086,1.13267 0.0949,1.3808 1.42348,1.3808 1.32855,0 1.58435,-0.24813 1.42349,-1.3808 z m -126.03644,-1.63226 c 0.59307,-0.95961 -0.35167,-2.51013 -1.52943,-2.51013 -1.3849,0 -1.93666,0.80116 -1.44112,2.09253 0.40333,1.05105 2.40513,1.33247 2.97055,0.4176 z m 126.76086,-3.43067 c 0,-1.10955 -0.32971,-1.53422 -1.19115,-1.53422 -0.65514,0 -1.37001,0.28939 -1.58861,0.64308 -0.65739,1.06369 0.20335,2.42536 1.53313,2.42536 0.92062,0 1.24663,-0.40122 1.24663,-1.53422 z m -128.43735,-1.41215 c 0.42273,-0.26864 0.58864,-1.06707 0.38419,-1.84888 -0.27936,-1.06829 -0.65165,-1.28652 -1.66457,-0.97576 -1.69027,0.51858 -1.61731,0.40014 -1.2088,1.96226 0.3654,1.3973 1.1951,1.68475 2.48918,0.86238 z m 129.29422,-3.55273 c 0.20597,-0.53676 0.21922,-1.22716 0.0295,-1.53422 -0.45081,-0.72943 -2.72737,-0.7251 -2.72737,0.005 0,0.30992 -0.16763,1.00032 -0.37251,1.53422 -0.27845,0.72565 0.0149,0.97072 1.16172,0.97072 0.84382,0 1.70275,-0.43916 1.90872,-0.97591 z m -129.73141,-2.04234 c 0,-1.35689 -0.82701,-2.50495 -1.80444,-2.50495 -1.44279,0 -1.80067,0.46883 -1.43253,1.8766 0.31496,1.20441 3.23697,1.77162 3.23697,0.62835 z m 130.60487,-3.58517 c 0.15948,-1.11784 -0.0984,-1.37453 -1.3808,-1.37453 -1.11999,0 -1.5769,0.326 -1.5769,1.12509 0,2.37867 2.62237,2.59983 2.9577,0.24944 z m -132.06848,-1.6441 c 0.5845,-1.52318 -0.52846,-2.70812 -2.01743,-2.1479 -0.96211,0.36199 -1.24108,0.85358 -1.00238,1.76637 0.37942,1.45091 2.50634,1.71963 3.01981,0.38153 z m 132.68217,-3.56598 c -0.12872,-0.90631 -0.61788,-1.3808 -1.42348,-1.3808 -0.80561,0 -1.29477,0.47449 -1.42348,1.3808 -0.16087,1.13267 0.0949,1.3808 1.42348,1.3808 1.32855,0 1.58434,-0.24813 1.42348,-1.3808 z m -133.67332,-2.39217 c 0,-1.37328 -1.38458,-2.0742 -2.64963,-1.34131 -0.61653,0.35717 -0.7317,0.91404 -0.38153,1.84474 0.62781,1.66859 3.03116,1.26942 3.03116,-0.50343 z m 134.90069,-2.83045 c 0.15949,-1.11784 -0.0984,-1.37453 -1.38079,-1.37453 -1.12,0 -1.57691,0.326 -1.57691,1.12509 0,2.37867 2.62237,2.59983 2.9577,0.24944 z m -136.43491,-2.29506 c 0,-0.80561 -0.47449,-1.29477 -1.38079,-1.42348 -1.13268,-0.16087 -1.3808,0.0949 -1.3808,1.42348 0,1.32855 0.24812,1.58434 1.3808,1.42348 0.9063,-0.12872 1.38079,-0.61788 1.38079,-1.42348 z M 370.921,171.6567 c -1.05984,-0.67252 -2.32052,-0.64767 -2.32052,0.0457 0,0.30992 -0.15919,0.97835 -0.35376,1.48539 -0.56285,1.46676 2.38545,1.61224 2.98112,0.14711 0.30547,-0.75135 0.19413,-1.36037 -0.30684,-1.67825 z m -138.91636,0.33713 c 1.04694,-0.40175 1.32517,-2.40444 0.41241,-2.96856 -1.0693,-0.66087 -2.51013,0.41395 -2.51013,1.8725 0,1.51481 0.42617,1.73749 2.09772,1.09606 z m 140.51915,-3.66667 c 0.64144,-1.67154 0.41876,-2.09771 -1.09606,-2.09771 -1.45854,0 -2.53336,1.44083 -1.87249,2.51013 0.56412,0.91276 2.5668,0.63453 2.96855,-0.41242 z m -140.88654,-2.86482 c -0.12872,-0.90631 -0.61788,-1.3808 -1.42349,-1.3808 -0.8056,0 -1.29476,0.47449 -1.42348,1.3808 -0.16086,1.13267 0.0949,1.3808 1.42348,1.3808 1.32855,0 1.58435,-0.24813 1.42349,-1.3808 z m 142.19426,-2.34758 c 0.4636,-1.46068 0.43544,-1.50424 -1.32058,-2.04301 -1.05133,-0.32256 -1.36269,-0.10355 -1.59726,1.12355 -0.27159,1.42073 0.0831,1.78005 2.09469,2.1219 0.23041,0.0391 0.60082,-0.50195 0.82315,-1.20244 z M 230.29868,161.0131 c 0.58818,-1.53276 -0.20011,-2.69681 -1.5816,-2.33555 -1.75457,0.45884 -1.77028,3.25608 -0.0183,3.25608 0.68565,0 1.4056,-0.41424 1.59988,-0.92053 z m 144.9481,-3.77037 c -0.12591,-0.65377 -0.73877,-1.13914 -1.43836,-1.13914 -1.62647,0 -2.05442,2.55373 -0.48774,2.91056 1.45283,0.33089 2.19883,-0.3552 1.9261,-1.77142 z M 229.29323,155.1477 c 0,-1.3794 -0.80289,-1.93008 -2.09253,-1.4352 -0.94145,0.36127 -1.33709,2.13219 -0.63353,2.83575 0.70957,0.70957 2.72606,-0.32643 2.72606,-1.40055 z m 147.59204,-2.72624 c 0,-1.71202 -2.48852,-2.03106 -2.9217,-0.37458 -0.39857,1.52415 0.0584,2.01183 1.66907,1.78127 0.78374,-0.11219 1.25263,-0.63876 1.25263,-1.40669 z m -148.93015,-2.30133 c -0.12603,-0.88737 -0.68954,-1.45088 -1.57691,-1.5769 -1.12457,-0.15972 -1.3808,0.0965 -1.3808,1.3808 0,1.28428 0.29262,1.5769 1.57691,1.5769 1.28428,0 1.54051,-0.25623 1.3808,-1.3808 z m 150.95462,-2.42039 c 0.10861,-0.56403 -0.37592,-1.33238 -1.07675,-1.70746 -1.08716,-0.58183 -1.35156,-0.47529 -1.80083,0.7257 -0.34151,0.91291 -0.28413,1.56916 0.16326,1.86716 1.07095,0.71334 2.49594,0.24851 2.71432,-0.8854 z m -152.7727,-1.65479 c 0.50444,-0.31962 0.67749,-1.01695 0.43892,-1.76863 -0.56286,-1.77341 -2.80592,-1.09195 -2.80592,0.85246 0,1.50123 0.8962,1.84812 2.367,0.91617 z m 154.90694,-3.10475 c 0.21717,-0.83047 -0.0493,-1.33211 -0.84097,-1.58339 -2.27511,-0.7221 -3.39779,1.54522 -1.33636,2.69886 1.28711,0.7203 1.76071,0.47767 2.17733,-1.11547 z M 225.6111,139.75001 c 0,-1.37328 -1.38459,-2.0742 -2.64963,-1.34131 -0.61654,0.35718 -0.73171,0.91404 -0.38153,1.84475 0.6278,1.66858 3.03116,1.26942 3.03116,-0.50344 z m -1.34171,-4.97394 c 0.22523,-1.18171 -1.22615,-2.0092 -2.59963,-1.48214 -0.54305,0.20839 -0.74472,0.82511 -0.53369,1.63207 0.41484,1.58635 2.82436,1.47105 3.13332,-0.14993 z m -1.2908,-4.397 c 0.071,-0.0572 -0.0323,-0.72103 -0.2295,-1.47519 -0.27814,-1.06361 -0.65127,-1.28142 -1.6633,-0.97093 -1.69111,0.51884 -1.61779,0.39832 -1.20431,1.97947 0.27814,1.06361 0.65126,1.28141 1.6633,0.97093 0.7176,-0.22017 1.36281,-0.44709 1.43381,-0.50428 z m -1.61779,-5.45054 c -0.025,-0.23644 -0.0455,-0.84413 -0.0455,-1.35042 0,-0.96269 -2.1523,-1.2927 -2.69577,-0.41334 -0.17241,0.27895 -0.16146,1.08845 0.0243,1.79889 0.25781,0.98583 0.62487,1.1855 1.55014,0.84323 0.66679,-0.24666 1.19186,-0.64193 1.16683,-0.87836 z m -1.69775,-4.4585 c 0.53819,-0.20651 0.77744,-0.82626 0.59231,-1.53422 -0.41792,-1.59813 -3.23589,-1.65269 -3.23589,-0.0626 0,1.79829 0.82306,2.29547 2.64358,1.59686 z m -1.77324,-4.93553 c 1.04694,-0.40175 1.32517,-2.40444 0.41241,-2.96855 -1.54268,-0.95343 -3.39771,1.63523 -2.10101,2.93193 0.49811,0.49811 0.48664,0.49786 1.6886,0.0366 z"
       id="path981"
       transform="matrix(0.26458333,0,0,0.26458333,-55.975704,-57.958671)" />
    <path
       style="fill:none;stroke:#3a7c0e;stroke-width:0.7;stroke-linecap:butt;stroke-linejoin:miter;stroke-miterlimit:4;stroke-dasharray:none;stroke-opacity:1"
       d="m 9.749986,-31.833334 c 10.2787,26.3950067 11.404786,57.762086 15.875,87.312499"
       id="path904"
       sodipodi:nodetypes="cc" />
    <path
       style="fill:none;stroke:#3a7c0e;stroke-width:0.7;stroke-linecap:butt;stroke-linejoin:miter;stroke-miterlimit:4;stroke-dasharray:none;stroke-opacity:1"
       d="M 38.854153,-26.541668 C 24.429172,-5.3914053 32.239569,23.729166 37.531236,55.479166"
       id="path906"
       sodipodi:nodetypes="cc" />
  </g>
</svg>
