<?xml version="1.0" encoding="UTF-8" standalone="no"?>
<svg
   xmlns:osb="http://www.openswatchbook.org/uri/2009/osb"
   xmlns:dc="http://purl.org/dc/elements/1.1/"
   xmlns:cc="http://creativecommons.org/ns#"
   xmlns:rdf="http://www.w3.org/1999/02/22-rdf-syntax-ns#"
   xmlns:svg="http://www.w3.org/2000/svg"
   xmlns="http://www.w3.org/2000/svg"
   xmlns:sodipodi="http://sodipodi.sourceforge.net/DTD/sodipodi-0.dtd"
   xmlns:inkscape="http://www.inkscape.org/namespaces/inkscape"
   width="158.98466mm"
   height="110.14515mm"
   viewBox="0 0 158.98466 110.14515"
   version="1.1"
   id="svg8"
   sodipodi:docname="morse.svg"
   inkscape:version="1.0.2 (e86c870879, 2021-01-15)"
   inkscape:export-filename="/home/zack/SparkleShare/github.com/Notes/Visualizations/Notes_Covers/figures/morse.png"
   inkscape:export-xdpi="159.80913"
   inkscape:export-ydpi="159.80913">
  <defs
     id="defs2">
    <inkscape:path-effect
       effect="interpolate"
       id="path-effect3713"
       is_visible="true"
       lpeversion="1"
       trajectory="M 91.770833,2.562503 C 89.125,-39.77083 54.729167,-58.291664 15.041667,-45.062497"
       equidistant_spacing="true"
       steps="8"
       trajectory-nodetypes="cc" />
    <inkscape:path-effect
       effect="interpolate"
       id="path-effect3688"
       is_visible="true"
       lpeversion="1"
       trajectory="M 76.74964,-47.820581 -29.9375,51.253883"
       equidistant_spacing="true"
       steps="13" />
    <inkscape:path-effect
       effect="interpolate"
       id="path-effect3622"
       is_visible="true"
       lpeversion="1"
       trajectory="m -47.115299,-73.997493 -25.148449,38.083865"
       equidistant_spacing="true"
       steps="5" />
    <inkscape:path-effect
       effect="curvestitching"
       id="path-effect3615"
       is_visible="true"
       lpeversion="1"
       count="10"
       startpoint_edge_variation="0;1"
       startpoint_spacing_variation="0;1"
       endpoint_edge_variation="0;1"
       endpoint_spacing_variation="0;1"
       strokepath="M 0,0 H 1"
       prop_scale="1"
       scale_y_rel="false" />
    <inkscape:path-effect
       effect="interpolate"
       id="path-effect3592"
       is_visible="true"
       lpeversion="1"
       trajectory="M 0,0 V 0"
       equidistant_spacing="true"
       steps="3" />
    <inkscape:path-effect
       effect="envelope"
       id="path-effect3571"
       is_visible="true"
       lpeversion="1"
       yy="true"
       xx="true"
       bendpath1="m 38.354163,177.1875 c 24.231832,-12.87692 31.780783,32.17174 127.999997,0"
       bendpath2="m 166.35416,177.1875 c 53.39805,33.40501 58.01744,73.97465 0,108.97915"
       bendpath3="m 38.354163,286.16665 c 28.44569,-15.95331 73.943617,1.65431 127.999997,0"
       bendpath4="m 38.354163,177.1875 c 9.92349,20.96512 55.012045,22.7262 0,108.97915"
       bendpath4-nodetypes="cc"
       bendpath2-nodetypes="cc"
       bendpath3-nodetypes="cc"
       bendpath1-nodetypes="cc" />
    <linearGradient
       id="linearGradient2885"
       osb:paint="solid">
      <stop
         style="stop-color:#000000;stop-opacity:1;"
         offset="0"
         id="stop2883" />
    </linearGradient>
  </defs>
  <sodipodi:namedview
     id="base"
     pagecolor="#ffffff"
     bordercolor="#000000"
     borderopacity="1"
     inkscape:pageopacity="0.0"
     inkscape:pageshadow="2"
     inkscape:zoom="1.1917136"
     inkscape:cx="176.25301"
     inkscape:cy="181.90791"
     inkscape:document-units="mm"
     inkscape:current-layer="layer1"
     inkscape:document-rotation="0"
     showgrid="true"
     showborder="true"
     borderlayer="true"
     inkscape:showpageshadow="false"
     objecttolerance="10000"
     guidetolerance="10000"
     inkscape:snap-perpendicular="true"
     inkscape:snap-tangential="true"
     inkscape:window-width="1900"
     inkscape:window-height="1029"
     inkscape:window-x="9"
     inkscape:window-y="40"
     inkscape:window-maximized="0">
    <sodipodi:guide
       position="179.48109,-1.6530865"
       orientation="0,793.70079"
       id="guide10" />
    <sodipodi:guide
       position="265.96028,59.117743"
       orientation="559.37008,0"
       id="guide12" />
    <sodipodi:guide
       position="265.96028,-88.882254"
       orientation="0,-793.70079"
       id="guide14" />
    <sodipodi:guide
       position="-18.956405,88.305246"
       orientation="-559.37008,0"
       id="guide16" />
    <inkscape:grid
       type="xygrid"
       id="grid20"
       dotted="true"
       units="px"
       originx="160.96025"
       originy="131.94318" />
  </sodipodi:namedview>
  <metadata
     id="metadata5">
    <rdf:RDF>
      <cc:Work
         rdf:about="">
        <dc:format>image/svg+xml</dc:format>
        <dc:type
           rdf:resource="http://purl.org/dc/dcmitype/StillImage" />
        <dc:title></dc:title>
        <cc:license
           rdf:resource="" />
      </cc:Work>
    </rdf:RDF>
  </metadata>
  <g
     inkscape:label="Layer 1"
     inkscape:groupmode="layer"
     id="layer1"
     transform="translate(55.960276,57.943183)">
    <path
       id="path865"
       style="fill:none;stroke:#3e8213;stroke-width:0.969915;stroke-linecap:butt;stroke-linejoin:miter;stroke-miterlimit:4;stroke-dasharray:none;stroke-opacity:1"
       d="m -32.58334,-28.373727 c -1.676904,-6.608689 -1.238148,-16.564956 -5.12922,-20.886394 -9.692196,-1.005218 -22.20398,9.114416 -16.196319,18.283914 14.227554,8.778698 25.294288,0.113451 34.554703,-4.864608 -0.09372,20.89772 4.477324,42.7979455 4.904846,61.476092 0.879011,8.763396 5.6784867,15.683816 8.4922743,24.946822 -18.7806833,-5.982668 -26.9540153,-1.728136 -35.0929513,0.942013 0,0 2.333077,-62.871058 -12.699992,-82.048219"
       sodipodi:nodetypes="cccccccc" />
    <g
       id="g910"
       style="stroke:#a51d1e"
       transform="matrix(0.99999989,0,0,0.94073547,-5.9613722e-6,-3.4050312)">
      <path
         id="path867"
         style="fill:none;stroke:#a51d1e;stroke-width:1;stroke-linecap:butt;stroke-linejoin:miter;stroke-miterlimit:4;stroke-dasharray:none;stroke-opacity:1"
         d="m 1.018745,-29.187509 c -1.32291666,-5.291666 -2.3774072,-12.019682 -3.175,-17.197917 11.7339223,-3.356931 16.177491,5.374369 16.200952,9.608428 0.01857,3.351771 -6.9405353,6.266572 -18.8467853,8.912406 C 8.2995675,-2.5493112 10.80082,31.141319 8.4270754,56.802074 24.156084,54.804154 35.797957,53.77569 53.670828,57.331241 43.610107,32.402592 48.725821,2.0389296 52.729998,-21.429026 c -22.029536,2.422902 -17.241291,-20.042397 0.676247,-26.279316 -2.645833,9.260417 -5.594289,20.246934 -8.202083,25.929166"
         sodipodi:nodetypes="ccscccccc" />
      <path
         id="path869"
         style="fill:none;stroke:#a51d1e;stroke-width:1;stroke-linecap:butt;stroke-linejoin:miter;stroke-miterlimit:4;stroke-dasharray:none;stroke-opacity:1"
         d="m -2.156255,-46.385426 c 4.4341182,-1.892029 8.7396558,-1.093694 13.603374,2.569252 4.980543,3.750928 10.370911,7.6071 15.010202,7.189184 13.541951,-1.219885 23.953707,-12.496968 26.948924,-11.081352"
         sodipodi:nodetypes="cssc" />
    </g>
    <path
       style="fill:none;stroke:#3e8213;stroke-width:0.969915;stroke-linecap:butt;stroke-linejoin:miter;stroke-miterlimit:4;stroke-dasharray:none;stroke-opacity:1"
       d="m 77.259768,-35.429113 c -1.363954,-7.87879 -2.005314,-13.464657 -4.009787,-19.079422 19.048208,-5.918683 28.506879,-2.090198 25.695546,4.168407 -4.208443,7.705597 -13.111564,12.304432 -21.685759,14.911015 -4.114075,1.224803 -7.322815,0.481785 -9.301453,-0.411702 2.203659,6.945127 1.322917,65.959276 2.197656,82.69856 7.501467,-3.522263 24.812741,-3.344738 32.198169,0.683921 C 96.589279,17.542637 88.636608,-27.279373 99.443728,-53.512922"
       id="path871"
       sodipodi:nodetypes="cccccccc" />
    <path
       style="fill:none;stroke:#3e8213;stroke-width:0.678941;stroke-linecap:butt;stroke-linejoin:miter;stroke-miterlimit:4;stroke-dasharray:0.678941, 0.678941;stroke-dashoffset:0;stroke-opacity:1"
       d="m -32.58334,-28.373727 c 2.645832,22.4012634 5.291665,46.047042 9.260415,67.20379 6.614583,2.48903 11.906248,7.467088 17.3658693,11.752036"
       id="path873"
       sodipodi:nodetypes="ccc" />
    <path
       style="fill:none;stroke:#3e8213;stroke-width:0.678941;stroke-linecap:butt;stroke-linejoin:miter;stroke-miterlimit:4;stroke-dasharray:0.678941, 0.678941;stroke-dashoffset:0;stroke-opacity:1"
       d="m -23.322925,38.830063 c -3.96875,2.48903 -13.540517,7.349089 -17.727082,12.694049"
       id="path875"
       sodipodi:nodetypes="cc" />
    <path
       style="fill:none;stroke:#a51d1e;stroke-width:0.678941;stroke-linecap:butt;stroke-linejoin:miter;stroke-miterlimit:4;stroke-dasharray:0.678941, 0.678941;stroke-dashoffset:0;stroke-opacity:1"
       d="m 17.95207,39.078967 c 7.679272,-1.344334 23.812498,-0.746709 23.812498,-0.746709 3.704166,2.986835 9.307486,9.24128 11.906248,12.196243"
       id="path879"
       sodipodi:nodetypes="ccc" />
    <g
       id="g914"
       style="stroke:#a51d1e;stroke-width:0.7;stroke-miterlimit:4;stroke-dasharray:0.7, 0.7;stroke-dashoffset:0"
       transform="matrix(0.99999989,0,0,0.94073547,-5.9613722e-6,-3.4050312)">
      <path
         style="fill:none;stroke:#a51d1e;stroke-width:0.7;stroke-linecap:butt;stroke-linejoin:miter;stroke-miterlimit:4;stroke-dasharray:0.7, 0.7;stroke-dashoffset:0;stroke-opacity:1"
         d="m 1.018745,-29.452092 c 4.0426602,13.065152 16.933333,74.6125 16.933333,74.6125 -3.411026,3.901063 -6.35,7.408333 -9.5249997,11.641666"
         id="path877"
         sodipodi:nodetypes="ccc" />
      <path
         style="fill:none;stroke:#a51d1e;stroke-width:0.7;stroke-linecap:butt;stroke-linejoin:miter;stroke-miterlimit:4;stroke-dasharray:0.7, 0.7;stroke-dashoffset:0;stroke-opacity:1"
         d="m 45.204162,-21.779176 c -7.408333,13.2291673 -6.301751,48.88965 -3.439584,66.145834"
         id="path881"
         sodipodi:nodetypes="cc" />
    </g>
    <g
       id="g928"
       style="stroke:#3e8213;stroke-width:0.7;stroke-miterlimit:4;stroke-dasharray:0.7, 0.7;stroke-dashoffset:0"
       transform="matrix(0.99999989,0,0,0.94073547,-5.9613722e-6,-3.4050312)">
      <path
         style="fill:none;stroke:#3e8213;stroke-width:0.7;stroke-linecap:butt;stroke-linejoin:miter;stroke-miterlimit:4;stroke-dasharray:0.7, 0.7;stroke-dashoffset:0;stroke-opacity:1"
         d="m 77.218745,-34.214592 c 0.841527,21.347951 7.744884,50.762814 8.466667,69.05625 -6.085417,9.525 -9.279288,11.338488 -15.529427,18.587577"
         id="path883"
         sodipodi:nodetypes="ccc" />
      <path
         style="fill:none;stroke:#3e8213;stroke-width:0.7;stroke-linecap:butt;stroke-linejoin:miter;stroke-miterlimit:4;stroke-dasharray:0.7, 0.7;stroke-dashoffset:0;stroke-opacity:1"
         d="m 85.949994,35.106241 c 3.175001,1.852083 6.87917,5.027083 14.816666,8.995833"
         id="path885"
         sodipodi:nodetypes="cc" />
    </g>
    <path
       style="opacity:0;fill:#3e8213;fill-opacity:0.560769;fill-rule:evenodd;stroke:#3e8213;stroke-width:0.406882;stroke-linejoin:round;stroke-miterlimit:4;stroke-dasharray:0.406882, 0.406882;stroke-dashoffset:0"
       d="m -46.467358,-29.908019 c -2.814556,-0.492684 -5.684301,-2.537561 -7.142243,-5.089309 -0.453392,-0.793542 -0.468687,-0.886345 -0.467098,-2.834135 0.0018,-2.21332 0.0097,-2.238718 1.20963,-3.906206 1.339083,-1.860818 3.59273,-3.748184 5.967209,-4.997372 0.553194,-0.29103 1.947109,-0.832671 3.097588,-1.203648 1.917435,-0.618285 2.250366,-0.680152 3.994525,-0.742282 l 1.902746,-0.06778 0.504933,0.804197 c 0.777685,1.238606 1.103644,2.18288 1.139286,3.300402 0.01786,0.560163 0.09897,1.499901 0.180247,2.08831 0.08127,0.588409 0.151476,1.573266 0.156009,2.188571 0.006,0.808474 0.119753,1.408318 0.410324,2.162894 0.831352,2.158915 1.327763,4.470098 1.332642,6.204521 0.0024,0.798299 0.06368,1.035603 0.325877,1.258826 0.304792,0.259486 0.307149,0.283478 0.04158,0.423289 -0.457184,0.24069 -11.56428,0.600344 -12.653259,0.40972 z"
       id="path930" />
    <path
       style="opacity:0;fill:#3e8213;fill-opacity:0.560769;fill-rule:evenodd;stroke:#3e8213;stroke-width:0.406882;stroke-linejoin:round;stroke-miterlimit:4;stroke-dasharray:0.406882, 0.406882;stroke-dashoffset:0"
       d="m -46.467358,-29.908019 c -2.814556,-0.492684 -5.684301,-2.537561 -7.142243,-5.089309 -0.453392,-0.793542 -0.468687,-0.886345 -0.467098,-2.834135 0.0018,-2.21332 0.0097,-2.238718 1.20963,-3.906206 1.339083,-1.860818 3.59273,-3.748184 5.967209,-4.997372 0.553194,-0.29103 1.947109,-0.832671 3.097588,-1.203648 1.917435,-0.618285 2.250366,-0.680152 3.994525,-0.742282 l 1.902746,-0.06778 0.504933,0.804197 c 0.777685,1.238606 1.103644,2.18288 1.139286,3.300402 0.01786,0.560163 0.09897,1.499901 0.180247,2.08831 0.08127,0.588409 0.151476,1.573266 0.156009,2.188571 0.006,0.808474 0.119753,1.408318 0.410324,2.162894 0.831352,2.158915 1.327763,4.470098 1.332642,6.204521 0.0024,0.798299 0.06368,1.035603 0.325877,1.258826 0.304792,0.259486 0.307149,0.283478 0.04158,0.423289 -0.457184,0.24069 -11.56428,0.600344 -12.653259,0.40972 z"
       id="path932" />
    <path
       style="opacity:0;fill:#a51d1e;fill-opacity:0.560769;fill-rule:evenodd;stroke:#3e8213;stroke-width:0.406882;stroke-linejoin:round;stroke-miterlimit:4;stroke-dasharray:0.406882, 0.406882;stroke-dashoffset:0"
       d="m -43.805804,-27.85077 c -2.898314,-0.343525 -5.633071,-1.26863 -8.737133,-2.955577 -0.878158,-0.477244 -1.05744,-0.65468 -1.454778,-1.439797 -1.918581,-3.79099 -0.756729,-8.075227 3.175646,-11.709934 3.231052,-2.986472 7.700858,-4.844698 11.40354,-4.740776 l 1.499156,0.04208 0.439631,0.59666 c 0.241798,0.328163 0.65037,1.102655 0.907939,1.721092 0.962242,2.310398 1.42498,4.521604 2.230744,10.659608 0.269246,2.051019 0.597914,4.324237 0.730372,5.051596 0.132461,0.727359 0.218117,1.343842 0.190349,1.369962 -0.156787,0.147495 -2.781794,0.860816 -4.092413,1.112076 -1.815713,0.348088 -4.696639,0.482229 -6.293053,0.293013 z"
       id="path934" />
    <path
       style="opacity:0;fill:#a51d1e;fill-opacity:0.560769;fill-rule:evenodd;stroke:#3e8213;stroke-width:0.406882;stroke-linejoin:round;stroke-miterlimit:4;stroke-dasharray:0.406882, 0.406882;stroke-dashoffset:0"
       d="m -27.647908,13.809805 c 0.0796,-0.388833 0.604414,-0.432197 0.604414,-0.04994 0,0.21347 -0.101833,0.309267 -0.32875,0.309267 -0.226917,0 -0.312306,-0.08033 -0.275664,-0.259327 z"
       id="path936" />
    <path
       style="opacity:0.580164;fill:#8aa678;fill-opacity:0.560769;fill-rule:evenodd;stroke:#8aa678;stroke-width:0.568693;stroke-linejoin:round;stroke-miterlimit:4;stroke-dasharray:0.568693, 0.568693;stroke-dashoffset:0"
       d="m -40.2089,50.465129 c -0.08505,-0.08001 -0.155321,-3.577673 -0.156154,-7.772586 -0.0065,-32.7086372 -3.773656,-57.65611 -10.541265,-69.808044 -0.654566,-1.175339 -1.157218,-2.136981 -1.117005,-2.136981 0.04021,0 0.816905,0.323286 1.725981,0.718411 2.736086,1.189231 4.614378,1.602691 7.828413,1.72323 3.100351,0.116278 5.499485,-0.179937 7.992418,-0.9868 1.138478,-0.368481 1.316777,-0.380862 1.482124,-0.102912 0.278768,0.46861 0.789736,0.382743 0.870785,-0.146332 0.05494,-0.358605 0.66807,-0.747605 2.733721,-1.734391 1.464593,-0.699656 4.157279,-2.124346 5.983742,-3.16598 1.826464,-1.041633 3.340849,-1.78571 3.365301,-1.653504 0.02445,0.132205 0.152887,2.773477 0.285406,5.869494 0.279967,6.540646 0.651915,11.200158 1.564394,19.5976775 2.594152,23.8739645 2.722372,25.2198475 3.079057,32.3199525 0.298068,5.933345 1.105669,8.92038 4.69027,17.347715 1.700681,3.998272 3.301193,8.089509 3.301193,8.438526 0,0.140222 -0.1069314,0.1332 -0.3030246,-0.01989 -0.2289149,-0.178723 -0.3639397,-0.167537 -0.5520875,0.04573 -0.2069094,0.234536 -0.7275803,0.167875 -3.0766809,-0.393906 -4.415882,-1.056046 -6.733766,-1.372429 -10.916754,-1.49009 -3.308569,-0.09307 -4.285342,-0.04374 -6.648606,0.335758 -3.249773,0.521852 -6.650797,1.456049 -11.203393,3.077356 -0.128258,0.04568 -0.302783,0.01757 -0.387835,-0.06243 z m 1.076206,-0.511115 c 0.228385,-0.347635 -0.285271,-0.746278 -0.590998,-0.458671 -0.255733,0.240577 -0.09568,0.685322 0.246634,0.685322 0.107503,0 0.262468,-0.101993 0.344364,-0.226651 z m 0.958685,-1.367226 c -0.193127,-0.218913 -0.326812,-0.230601 -0.559516,-0.04892 -0.232703,0.181681 -0.245128,0.307444 -0.052,0.526355 0.193126,0.218912 0.326812,0.230601 0.559516,0.04892 0.232703,-0.181679 0.245128,-0.307442 0.052,-0.526355 z m 29.8181347,-0.0046 c 0.1887034,-0.462613 -0.2280179,-0.860985 -0.5670311,-0.542063 -0.2713223,0.255245 -0.1141704,0.889656 0.220382,0.889656 0.1126728,0 0.2686658,-0.156415 0.3466491,-0.347593 z M -37.039237,47.991562 c 0,-0.403514 -0.435064,-0.612299 -0.719102,-0.345097 -0.168575,0.158586 -0.155718,0.315592 0.04442,0.542452 0.312431,0.354144 0.674681,0.248181 0.674682,-0.197355 z m 27.702518,-0.416973 c 0,-0.403514 -0.4350649,-0.612298 -0.719103,-0.345096 -0.168574,0.158586 -0.155715,0.315591 0.04442,0.542452 0.312431,0.354146 0.67468,0.248183 0.67468,-0.197356 z m -26.77013,-0.769909 c -0.358551,-0.3373 -0.775783,0.05521 -0.576918,0.542728 0.134851,0.330588 0.180117,0.333903 0.496413,0.03635 0.271836,-0.255723 0.289461,-0.382504 0.08051,-0.579078 z m 25.563924,-0.349917 c -0.47565,-0.447461 -1.001771,0.0012 -0.572283,0.488106 0.2232,0.252997 0.354901,0.270306 0.600106,0.07887 0.27,-0.210801 0.266089,-0.290478 -0.02782,-0.566971 z m -24.455823,-0.484027 c -0.363423,-0.341883 -0.82281,0.09028 -0.621242,0.584424 0.138621,0.339832 0.172729,0.340855 0.518575,0.01551 0.289145,-0.272009 0.311623,-0.403352 0.102667,-0.599926 z m 23.612106,-0.116043 c 0.130945,-0.369967 -0.614119,-0.591058 -0.838882,-0.248931 -0.101547,0.154566 -0.132048,0.361071 -0.06778,0.458895 0.164026,0.249672 0.795763,0.103372 0.906662,-0.209964 z M -33.714935,45.47973 c 0,-0.391723 -0.437266,-0.600229 -0.713598,-0.340275 -0.330951,0.31134 -0.03982,0.890373 0.372779,0.741427 0.187451,-0.06767 0.340819,-0.248186 0.340819,-0.401152 z m 21.220192,-0.458982 c 0.130945,-0.369967 -0.614116,-0.591057 -0.838883,-0.24893 -0.101547,0.154566 -0.132048,0.361071 -0.06778,0.458895 0.164025,0.249672 0.795763,0.103372 0.906663,-0.209965 z M -32.681261,44.85026 c 0.196834,-0.482543 -0.238725,-0.801624 -0.574581,-0.420927 -0.283921,0.321829 -0.155313,0.747669 0.225803,0.747669 0.118523,0 0.275473,-0.147034 0.348778,-0.326742 z m 19.034882,-0.525367 c 0.0819,-0.124661 0.04215,-0.327083 -0.08834,-0.449832 -0.276561,-0.260171 -0.996014,0.184979 -0.794557,0.49162 0.168682,0.256759 0.703384,0.231453 0.882893,-0.04179 z m -17.757064,-0.166698 c 0.201454,-0.306641 -0.517997,-0.751791 -0.794557,-0.49162 -0.130483,0.122748 -0.170235,0.325171 -0.08834,0.449832 0.17951,0.27324 0.714212,0.298546 0.882895,0.04179 z m 0.99856,-0.636385 c 0.26481,-0.157633 0.269171,-0.244953 0.026,-0.520593 -0.348829,-0.395405 -0.946604,-0.06177 -0.750536,0.418896 0.140413,0.344228 0.283396,0.364297 0.724535,0.101697 z m 15.653784,-0.036 c 0.216231,-0.329136 -0.383659,-0.625164 -0.725707,-0.358114 -0.155109,0.121101 -0.227367,0.303371 -0.160567,0.405045 0.170055,0.258849 0.703958,0.230576 0.886274,-0.04693 z m -14.485525,-1.267817 c -0.363423,-0.341883 -0.822811,0.09028 -0.621243,0.584424 0.138621,0.339833 0.172731,0.340856 0.518576,0.01551 0.289145,-0.272008 0.311621,-0.403355 0.102667,-0.599926 z m 13.325227,0.576666 c 0.179694,-0.440526 -0.393068,-0.82409 -0.704109,-0.471522 -0.180708,0.204835 -0.176758,0.343469 0.01492,0.523787 0.344787,0.32435 0.541655,0.309421 0.68919,-0.05226 z m -12.080569,-1.022827 c 0.04146,-0.201098 -0.06977,-0.347573 -0.263946,-0.347573 -0.41171,0 -0.660199,0.339862 -0.465341,0.636463 0.200464,0.305132 0.642961,0.129847 0.729287,-0.28889 z m 10.981905,0.16575 c 0.07579,-0.185796 -0.0137,-0.37278 -0.212807,-0.444655 -0.413845,-0.149397 -0.866695,0.221207 -0.658161,0.538626 0.217471,0.331021 0.719714,0.276832 0.870968,-0.09397 z m -9.760724,-1.049781 c -0.151527,-0.371477 -0.391184,-0.378768 -0.706376,-0.0215 -0.177538,0.201243 -0.17431,0.341067 0.01193,0.516255 0.329452,0.309929 0.866601,-0.07276 0.69446,-0.49476 z m 8.494833,0.02926 c -0.07331,-0.179707 -0.225472,-0.326742 -0.338148,-0.326742 -0.343561,0 -0.507791,0.685392 -0.20624,0.860716 0.371536,0.216011 0.713497,-0.119403 0.544388,-0.533974 z m -7.349849,-0.538083 c 0,-0.44689 -0.643953,-0.382345 -0.737356,0.07391 -0.05704,0.27862 0.03322,0.363531 0.329398,0.309875 0.224375,-0.04065 0.407958,-0.213355 0.407958,-0.383785 z m 6.217301,0.193176 c 0.0819,-0.12466 0.04215,-0.327083 -0.08834,-0.449835 -0.276558,-0.260168 -0.99601,0.184983 -0.794556,0.491623 0.168682,0.256759 0.703384,0.23145 0.882896,-0.04179 z m -5.037545,-0.885178 c 0.04146,-0.201099 -0.06977,-0.347573 -0.263945,-0.347573 -0.411711,0 -0.660197,0.339864 -0.465339,0.636464 0.200464,0.305133 0.642959,0.129848 0.729284,-0.288891 z m 3.76451,0.121522 c -0.04108,-0.200668 -0.221552,-0.364852 -0.401053,-0.364852 -0.179498,0 -0.359971,0.164184 -0.40105,0.364852 -0.0524,0.255989 0.06726,0.364849 0.40105,0.364849 0.333793,0 0.453456,-0.10886 0.401053,-0.364849 z m -1.192927,-0.400304 c 0.126384,-0.309831 -0.180626,-0.682344 -0.569539,-0.691056 -0.297535,-0.0067 -0.413946,0.700699 -0.142028,0.863014 0.417181,0.249019 0.553262,0.216132 0.711567,-0.171958 z m -1.12672,-1.017166 c -0.158721,-0.389113 -0.740846,-0.39476 -0.740846,-0.0072 0,0.162444 -0.124661,0.334824 -0.277024,0.383066 -0.212598,0.06731 -0.201896,0.173306 0.04602,0.455751 0.306392,0.349067 0.342947,0.344918 0.709154,-0.08053 0.21236,-0.24671 0.330573,-0.584708 0.262697,-0.751107 z m -0.239003,-0.84414 c 0.21567,-0.202885 -0.08045,-0.709316 -0.414745,-0.709316 -0.169794,0 -0.308719,0.187638 -0.308719,0.416973 0,0.39249 0.431613,0.566901 0.723464,0.292343 z m -0.22162,-1.250913 c 0.215669,-0.202889 -0.08045,-0.709319 -0.414745,-0.709319 -0.169794,0 -0.308719,0.187638 -0.308719,0.416972 0,0.392493 0.431612,0.566904 0.723464,0.292347 z m -0.20846,-1.668051 c -0.189127,-0.463646 -0.938472,-0.370332 -0.807572,0.100569 0.07227,0.259985 0.247364,0.358754 0.517967,0.292185 0.239368,-0.05889 0.359394,-0.221663 0.289605,-0.392754 z m -0.293384,-1.334612 c 0,-0.457026 -0.02898,-0.473429 -0.52193,-0.295475 -0.399965,0.144383 -0.229962,0.712447 0.213212,0.712447 0.169794,0 0.308718,-0.187638 0.308718,-0.416972 z m -0.22162,-1.250917 c 0,-0.229334 -0.132971,-0.416972 -0.295492,-0.416972 -0.41684,0 -0.580281,0.200633 -0.441198,0.541598 0.180893,0.443463 0.73669,0.349437 0.73669,-0.124626 z m -0.22162,-1.250916 c 0,-0.27798 -0.147746,-0.416972 -0.443241,-0.416972 -0.488037,0 -0.50384,0.02582 -0.308718,0.504163 0.192712,0.472435 0.751959,0.407591 0.751959,-0.08719 z m -0.364548,-0.955441 c 0.442968,-0.159908 0.207766,-0.712445 -0.303276,-0.712445 -0.289671,0 -0.367067,0.114087 -0.282872,0.416972 0.129824,0.467022 0.121942,0.463049 0.586148,0.295473 z m -0.01447,-1.754875 c -0.129823,-0.467024 -0.121938,-0.463049 -0.586145,-0.295476 -0.44297,0.159911 -0.207766,0.712448 0.303274,0.712448 0.289671,0 0.367067,-0.114087 0.282871,-0.416972 z m -0.06421,-0.921135 c 0,-0.04796 -0.06053,-0.235594 -0.13452,-0.416973 -0.192714,-0.472435 -0.751961,-0.407591 -0.751961,0.08719 0,0.27798 0.147748,0.416972 0.44324,0.416972 0.243782,0 0.443241,-0.03924 0.443241,-0.08719 z m -0.332431,-1.580698 c 0,-0.168861 -0.174524,-0.338638 -0.387834,-0.377282 -0.272116,-0.0493 -0.387837,0.06327 -0.387837,0.377282 0,0.314013 0.115721,0.426582 0.387837,0.377284 0.21331,-0.03865 0.387834,-0.208421 0.387834,-0.377284 z m -0.359441,-1.022312 c 0.357568,-0.213058 0.144184,-0.645574 -0.318498,-0.645574 -0.175644,0 -0.319352,0.187638 -0.319352,0.416972 0,0.45264 0.163507,0.511239 0.63785,0.228602 z m -0.01519,-1.635882 c -0.04108,-0.200668 -0.221551,-0.364852 -0.40105,-0.364852 -0.179501,0 -0.35997,0.164184 -0.401052,0.364852 -0.0524,0.255989 0.06726,0.36485 0.401052,0.36485 0.333793,0 0.453454,-0.108861 0.40105,-0.36485 z m -0.179429,-1.303039 c 0,-0.27798 -0.147746,-0.416972 -0.443241,-0.416972 -0.295492,0 -0.443238,0.138992 -0.443238,0.416972 0,0.277982 0.147746,0.416972 0.443238,0.416972 0.295495,0 0.443241,-0.13899 0.443241,-0.416972 z m -0.221621,-1.250914 c 0,-0.277982 -0.147746,-0.416972 -0.443237,-0.416972 -0.295495,0 -0.443241,0.13899 -0.443241,0.416972 0,0.27798 0.147746,0.416972 0.443241,0.416972 0.295491,0 0.443237,-0.138992 0.443237,-0.416972 z m -0.22162,-1.377466 c 0,-0.159731 -0.199456,-0.290422 -0.443238,-0.290422 -0.417219,0 -0.602617,0.406032 -0.310763,0.680587 0.215667,0.202888 0.754001,-0.07568 0.754001,-0.390165 z m -0.221617,-1.332853 c 0,-0.45264 -0.163508,-0.511239 -0.63785,-0.228602 -0.357568,0.213058 -0.144185,0.645574 0.318497,0.645574 0.175644,0 0.319353,-0.187638 0.319353,-0.416972 z m -0.221621,-1.250914 c 0,-0.229336 -0.132974,-0.416972 -0.295494,-0.416972 -0.416841,0 -0.580282,0.200631 -0.441196,0.541598 0.180893,0.443463 0.73669,0.349437 0.73669,-0.124626 z m -0.163017,-0.958572 c 0.215669,-0.202886 -0.08045,-0.709316 -0.414745,-0.709316 -0.169794,0 -0.308719,0.187638 -0.308719,0.416972 0,0.39249 0.431612,0.566901 0.723464,0.292344 z m -0.40916,-1.252838 c 0.502198,-0.181291 0.433266,-0.707395 -0.09268,-0.707395 -0.295494,0 -0.44324,0.138993 -0.44324,0.416972 0,0.459114 0.02744,0.473984 0.535924,0.290423 z m 0.08675,-1.697702 c -0.04108,-0.200668 -0.221551,-0.364852 -0.40105,-0.364852 -0.179498,0 -0.359971,0.164184 -0.40105,0.364852 -0.05241,0.255989 0.06726,0.364849 0.40105,0.364849 0.333793,0 0.453454,-0.10886 0.40105,-0.364849 z m -0.17943,-1.303037 c 0,-0.277982 -0.147748,-0.416972 -0.44324,-0.416972 -0.295495,0 -0.443241,0.13899 -0.443241,0.416972 0,0.27798 0.147746,0.416972 0.443241,0.416972 0.295492,0 0.44324,-0.138992 0.44324,-0.416972 z m -0.22162,-1.2509163 c 0,-0.2779798 -0.147748,-0.4169722 -0.44324,-0.4169722 -0.427104,0 -0.60057,0.4079594 -0.295492,0.6949515 0.305072,0.286998 0.738732,0.123812 0.738732,-0.2779793 z m -0.155673,-1.453165 c -0.06658,-0.2395018 -0.247965,-0.3393941 -0.502557,-0.2767626 -0.25459,0.062631 -0.360778,0.2332693 -0.294198,0.4727737 0.06658,0.2395018 0.247965,0.3393965 0.502557,0.2767626 0.25459,-0.062631 0.360778,-0.2332668 0.294198,-0.4727737 z M -27.772894,7.287075 c -0.111255,-0.5434671 -0.84478,-0.6040774 -0.84478,-0.069802 0,0.2983624 0.14233,0.4322597 0.459488,0.4322597 0.317162,0 0.43651,-0.1122751 0.385292,-0.3624577 z m -0.179919,-1.3054311 c 0,-0.2779798 -0.147749,-0.4169721 -0.443241,-0.4169721 -0.295492,0 -0.44324,0.1389923 -0.44324,0.4169721 0,0.2779798 0.147748,0.4169721 0.44324,0.4169721 0.295492,0 0.443241,-0.1389923 0.443241,-0.4169721 z m -0.260776,-1.3203155 c 0.04831,-0.2343546 -0.07802,-0.347573 -0.387837,-0.347573 -0.252717,0 -0.459489,0.1250911 -0.459489,0.2779822 0,0.6385405 0.717878,0.6974982 0.847326,0.069591 z m -0.182465,-1.3900009 c 0,-0.4526424 -0.163504,-0.5112416 -0.637849,-0.2286049 -0.357569,0.2130584 -0.144185,0.6455746 0.3185,0.6455746 0.175641,0 0.319349,-0.1876355 0.319349,-0.4169697 z m -0.0417,-1.1964017 c -0.111254,-0.5434671 -0.84478,-0.6040774 -0.84478,-0.069802 0,0.2983624 0.142333,0.4322597 0.459489,0.4322597 0.317161,0 0.436509,-0.1122751 0.385291,-0.3624577 z m -0.179919,-1.30543109 c 0,-0.27797977 -0.147749,-0.41697214 -0.443241,-0.41697214 -0.295492,0 -0.44324,0.13899237 -0.44324,0.41697214 0,0.27797979 0.147748,0.41697209 0.44324,0.41697209 0.295492,0 0.443241,-0.1389923 0.443241,-0.41697209 z m -0.260776,-1.32031303 c 0.04832,-0.23435704 -0.07802,-0.34757551 -0.387834,-0.34757551 -0.252719,0 -0.459491,0.12509363 -0.459491,0.27798225 0,0.63854054 0.717878,0.69750066 0.847325,0.0695933 z m -0.182465,-1.39000338 c 0,-0.4526424 -0.163504,-0.5112416 -0.637849,-0.2286024 -0.357568,0.2130559 -0.144184,0.6455746 0.3185,0.6455746 0.175641,0 0.319349,-0.187638 0.319349,-0.4169722 z m -0.0417,-1.1964017 c -0.111254,-0.5434671 -0.844779,-0.6040774 -0.844779,-0.0698 0,0.2983599 0.142331,0.4322573 0.45949,0.4322573 0.317159,0 0.436507,-0.1122752 0.385289,-0.3624573 z m -0.22162,-1.3599458 c 0.05122,-0.2501823 -0.06813,-0.3624574 -0.38529,-0.3624574 -0.317158,0 -0.459489,0.1338973 -0.459489,0.4322597 0,0.5342751 0.733524,0.4736648 0.844779,-0.069802 z m -0.179919,-1.3229489 c 0,-0.159731 -0.199458,-0.2904224 -0.44324,-0.2904224 -0.417218,0 -0.602616,0.4060328 -0.310762,0.6805877 0.215667,0.2028882 0.754002,-0.075679 0.754002,-0.3901653 z m -0.22162,-1.3328528 c 0,-0.2293341 -0.132972,-0.4169721 -0.295493,-0.4169721 -0.416841,0 -0.58028,0.2006332 -0.441197,0.5415978 0.180893,0.4434629 0.73669,0.3494373 0.73669,-0.1246257 z m 0,-1.2509164 c 0,-0.2779797 -0.147747,-0.4169721 -0.44324,-0.4169721 -0.295493,0 -0.44324,0.1389924 -0.44324,0.4169721 0,0.2779798 0.147747,0.4169722 0.44324,0.4169722 0.295493,0 0.44324,-0.1389924 0.44324,-0.4169722 z m -0.260776,-1.320313 c 0.04832,-0.234357 -0.07802,-0.3475727 -0.387835,-0.3475727 -0.252719,0 -0.459489,0.1250908 -0.459489,0.2779794 0,0.6385406 0.717878,0.6975007 0.847324,0.069593 z m -0.182464,-1.3900037 c 0,-0.452642 -0.163505,-0.511241 -0.637848,-0.228602 -0.35757,0.213056 -0.144185,0.645574 0.318497,0.645574 0.175643,0 0.319351,-0.187637 0.319351,-0.416972 z m -0.0417,-1.196401 c -0.111256,-0.543467 -0.844781,-0.604078 -0.844781,-0.0698 0,0.298362 0.14233,0.432257 0.459491,0.432257 0.317159,0 0.436506,-0.112275 0.38529,-0.362457 z m -0.17992,-1.305431 c 0,-0.27798 -0.147747,-0.416973 -0.44324,-0.416973 -0.295494,0 -0.443241,0.138993 -0.443241,0.416973 0,0.277982 0.147747,0.416972 0.443241,0.416972 0.295493,0 0.44324,-0.13899 0.44324,-0.416972 z m -0.22162,-1.377464 c 0,-0.159734 -0.199458,-0.290423 -0.443241,-0.290423 -0.417218,0 -0.602616,0.406031 -0.310763,0.680588 0.215669,0.202886 0.754004,-0.07568 0.754004,-0.390165 z m 0,-1.003071 c 0,-0.04796 -0.06053,-0.235594 -0.134522,-0.416973 -0.192711,-0.472437 -0.751959,-0.407591 -0.751959,0.08719 0,0.277982 0.147747,0.416972 0.44324,0.416972 0.243783,0 0.443241,-0.03924 0.443241,-0.08719 z m -0.22162,-1.580698 c 0,-0.27798 -0.147747,-0.416972 -0.443241,-0.416972 -0.295493,0 -0.44324,0.138992 -0.44324,0.416972 0,0.277982 0.147747,0.416972 0.44324,0.416972 0.295494,0 0.443241,-0.13899 0.443241,-0.416972 z m -0.221621,-1.250914 c 0,-0.277982 -0.147746,-0.416972 -0.44324,-0.416972 -0.427104,0 -0.600568,0.407957 -0.295494,0.694952 0.305075,0.286995 0.738734,0.123811 0.738734,-0.27798 z m -0.22162,-1.439884 c 0,-0.290064 -0.115619,-0.369011 -0.427905,-0.292187 -0.254429,0.06259 -0.379586,0.223724 -0.308719,0.397453 0.176968,0.433841 0.736624,0.353863 0.736624,-0.105266 z m -0.0417,-1.215918 c -0.111256,-0.543469 -0.84478,-0.60408 -0.84478,-0.0698 0,0.298365 0.14233,0.43226 0.45949,0.43226 0.31716,0 0.436507,-0.112273 0.38529,-0.362455 z m -0.17992,-1.305433 c 0,-0.27798 -0.147747,-0.41697 -0.44324,-0.41697 -0.295494,0 -0.443241,0.13899 -0.443241,0.41697 0,0.277982 0.147747,0.416972 0.443241,0.416972 0.295493,0 0.44324,-0.13899 0.44324,-0.416972 z m -0.260775,-1.320313 c 0.04831,-0.234355 -0.07802,-0.347573 -0.387835,-0.347573 -0.506388,0 -0.521066,0.02342 -0.321375,0.512974 0.168758,0.413716 0.611088,0.310556 0.70921,-0.165401 z m -0.003,-1.337881 c -0.04108,-0.200668 -0.221552,-0.364852 -0.40105,-0.364852 -0.179498,0 -0.359971,0.164184 -0.40105,0.364852 -0.0524,0.255989 0.06726,0.364849 0.40105,0.364849 0.333793,0 0.453455,-0.10886 0.40105,-0.364849 z m -0.17943,-1.303039 c 0,-0.27798 -0.147747,-0.416972 -0.44324,-0.416972 -0.295494,0 -0.443241,0.138992 -0.443241,0.416972 0,0.277982 0.147747,0.416972 0.443241,0.416972 0.295493,0 0.44324,-0.13899 0.44324,-0.416972 z"
       id="path940" />
    <path
       style="opacity:0.580164;fill:#8aa678;fill-opacity:0.560769;fill-rule:evenodd;stroke:#8aa678;stroke-width:0.568693;stroke-linejoin:round;stroke-miterlimit:4;stroke-dasharray:0.568693, 0.568693;stroke-dashoffset:0"
       d="m 98.991011,45.665636 c -3.564908,-1.161881 -6.630405,-1.571922 -12.587831,-1.683741 -5.578644,-0.104714 -8.666212,0.149167 -12.270178,1.008933 -0.95877,0.228729 -1.798158,0.364184 -1.865301,0.30102 -0.06715,-0.06316 -0.04338,-0.114846 0.0528,-0.114846 0.09619,0 0.04971,-0.141885 -0.103278,-0.3153 -0.212886,-0.241312 -0.349908,-0.25928 -0.583919,-0.07658 -0.220009,0.171768 -0.239821,0.313458 -0.07064,0.505223 0.281601,0.319198 -0.0388,0.567922 -0.511685,0.397214 -0.500134,-0.180544 -0.592193,-3.679076 -0.83085,-31.574963 -0.264716,-30.94185 -0.618099,-43.862831 -1.312675,-47.996296 -0.09222,-0.548846 -0.107783,-0.99456 -0.03457,-0.990476 0.07322,0.0041 0.73149,0.143347 1.462838,0.309472 3.358507,0.762884 6.826625,0.08684 13.13127,-2.559692 4.293369,-1.802249 8.318565,-4.298394 11.148529,-6.913541 0.846421,-0.782169 1.538563,-1.363984 1.538089,-1.292923 -5.29e-4,0.07106 -0.245142,1.302495 -0.543711,2.736519 -1.472239,7.071104 -1.995225,13.237863 -1.989023,23.453429 0.0089,14.6380081 1.433914,28.6432181 5.078258,49.909247 0.550691,3.213474 1.001258,5.950597 1.001258,6.082501 0,0.131906 -0.141341,0.188803 -0.31409,0.12644 -0.406069,-0.146589 -0.67696,0.503195 -0.302874,0.726493 0.401294,0.239537 0.616964,0.216112 0.616964,-0.06701 0,-0.133778 0.04099,-0.20414 0.09109,-0.156363 0.09141,0.08718 1.681878,8.352883 1.681878,8.740759 0,0.26098 0.0729,0.277295 -2.482343,-0.555519 z M 73.272252,44.186804 c 0.121174,-0.342361 -0.573214,-0.586751 -0.871051,-0.306566 -0.127455,0.119901 -0.161316,0.325191 -0.07525,0.456199 0.195813,0.298054 0.822947,0.198888 0.946301,-0.149633 z m 0.775502,-1.33452 c -0.397031,-0.373502 -1.045171,0.184185 -0.686528,0.590713 0.224081,0.253998 0.308779,0.250322 0.602692,-0.02617 0.260228,-0.244806 0.280268,-0.379749 0.08384,-0.564539 z m 0.978373,-0.503857 c 0.196834,-0.482543 -0.238726,-0.801624 -0.574582,-0.420927 -0.283919,0.321829 -0.155313,0.747672 0.225803,0.747672 0.118523,0 0.275474,-0.147037 0.348779,-0.326745 z m 1.127188,-1.080425 c 0.121172,-0.342361 -0.573217,-0.586752 -0.87105,-0.306567 -0.127458,0.119899 -0.161319,0.32519 -0.07525,0.4562 0.195816,0.298051 0.822947,0.198888 0.946303,-0.149633 z m 0.867392,-0.795947 c 0.184713,-0.452824 -0.284213,-0.878667 -0.619861,-0.562914 -0.283681,0.266871 -0.107939,0.889656 0.25105,0.889656 0.12954,0 0.295508,-0.147034 0.368811,-0.326742 z m 0.862033,-0.942339 c 0.228383,-0.347633 -0.285271,-0.746278 -0.590999,-0.458669 -0.255733,0.240575 -0.09568,0.68532 0.246634,0.68532 0.107505,0 0.262469,-0.101993 0.344365,-0.226651 z m 0.877655,-1.423327 c -0.306091,-0.287868 -0.377558,-0.291092 -0.552498,-0.0249 -0.295957,0.450337 0.172088,0.927026 0.589915,0.600809 0.269658,-0.210532 0.264359,-0.292095 -0.03742,-0.575907 z m 0.96751,-0.98633 c -0.193125,-0.21891 -0.326811,-0.230598 -0.559515,-0.04892 -0.232703,0.18168 -0.245128,0.307443 -0.052,0.526355 0.193125,0.218913 0.326811,0.230601 0.559514,0.04892 0.232704,-0.181682 0.245129,-0.307445 0.052,-0.526358 z m 18.792822,-0.199291 c 0.156787,-0.384369 -0.379182,-0.784998 -0.676277,-0.50551 -0.241898,0.227565 -0.0199,0.839279 0.304599,0.839279 0.12954,0 0.296799,-0.150198 0.371678,-0.333769 z m -17.805744,-0.38069 c 0.179697,-0.440528 -0.393068,-0.82409 -0.704109,-0.471522 -0.180708,0.204835 -0.176758,0.343467 0.01492,0.523784 0.344784,0.324353 0.541655,0.309424 0.68919,-0.05226 z m 16.411422,-0.683923 c -0.335841,-0.231019 -0.429278,-0.220739 -0.599845,0.06598 -0.262091,0.440575 0.265309,0.779437 0.693182,0.445377 0.254437,-0.19865 0.239099,-0.282679 -0.09334,-0.511359 z m -1.098952,-0.200718 c 0.160988,-0.394668 -0.319389,-0.774665 -0.620826,-0.491093 -0.229979,0.216349 -0.02666,0.839276 0.273934,0.839276 0.112675,0 0.268777,-0.156682 0.346892,-0.348183 z m -14.383105,-0.07792 c 0.07863,-0.11969 0.02143,-0.355394 -0.127135,-0.523787 -0.206362,-0.233916 -0.342257,-0.249833 -0.575863,-0.06745 -0.231259,0.180554 -0.244483,0.308176 -0.05427,0.523786 0.300516,0.340641 0.562459,0.363973 0.757267,0.06745 z m 13.045396,-1.100228 c -0.468331,-0.246559 -0.82854,0.249585 -0.473435,0.6521 0.211164,0.23936 0.300487,0.224929 0.54357,-0.0878 0.245573,-0.315938 0.234649,-0.403838 -0.07013,-0.564295 z M 82.487945,34.45521 c 0.196067,-0.480664 -0.401709,-0.814298 -0.750538,-0.418896 -0.243171,0.27564 -0.23881,0.36296 0.02601,0.520595 0.44114,0.262598 0.584124,0.242529 0.724538,-0.101699 z m 11.129824,-0.137651 c 0.228385,-0.347633 -0.285271,-0.746275 -0.590997,-0.458668 -0.255733,0.240577 -0.09568,0.685319 0.246633,0.685319 0.107503,0 0.262467,-0.101993 0.344364,-0.226651 z m -1.156917,-0.696293 c 0.179694,-0.440526 -0.393068,-0.824091 -0.704109,-0.471522 -0.180708,0.204837 -0.176758,0.343469 0.01492,0.523786 0.344784,0.324353 0.541655,0.309422 0.689189,-0.05226 z m -9.184756,-0.668362 c -0.334499,-0.379159 -0.562644,-0.35957 -0.735062,0.06311 -0.17738,0.434849 0.313089,0.747752 0.699359,0.446176 0.216313,-0.168883 0.225124,-0.294576 0.0357,-0.50929 z m 8.075834,-0.163569 c 0.152842,-0.374696 -0.533802,-0.640751 -0.761031,-0.294878 -0.09312,0.141743 -0.12014,0.332557 -0.06004,0.424034 0.17776,0.270577 0.690946,0.189853 0.821073,-0.129156 z m -7.16495,-0.632711 c 0,-0.152966 -0.153368,-0.333483 -0.34082,-0.401152 -0.437203,-0.157829 -0.715071,0.476532 -0.31151,0.711165 0.359889,0.209243 0.65233,0.07026 0.65233,-0.310013 z m 5.983744,-0.208486 c 0,-0.152966 -0.14134,-0.329142 -0.314089,-0.391502 -0.398301,-0.143786 -0.681117,0.502166 -0.313455,0.715927 0.337675,0.196324 0.627544,0.04647 0.627544,-0.324425 z m -5.097263,-0.951412 c 0,-0.295776 -0.738074,-0.431159 -0.911489,-0.167195 -0.262941,0.400231 0.231415,0.858809 0.608462,0.564434 0.166663,-0.130121 0.303027,-0.308878 0.303027,-0.397239 z m 3.890287,0.402031 c 0.228383,-0.347633 -0.285273,-0.746278 -0.590999,-0.458669 -0.255733,0.240575 -0.09568,0.68532 0.246634,0.68532 0.107502,0 0.262466,-0.101993 0.344365,-0.226651 z m -1.156919,-0.696294 c 0.179694,-0.440526 -0.393071,-0.82409 -0.704109,-0.471521 -0.180708,0.204834 -0.176761,0.343468 0.01492,0.523786 0.344784,0.32435 0.541652,0.309421 0.689187,-0.05226 z m -2.172668,-0.546581 c 0.09907,-0.1508 0.235823,-0.146623 0.440864,0.01347 0.227388,0.177533 0.352007,0.135811 0.530262,-0.177523 0.18365,-0.322814 0.155464,-0.437588 -0.13304,-0.541737 -0.201332,-0.07269 -0.431869,-0.03198 -0.512305,0.09046 -0.08044,0.122435 -0.302712,0.166125 -0.493948,0.09709 -0.387313,-0.139819 -0.71579,0.204991 -0.503343,0.528366 0.177903,0.270794 0.490048,0.266089 0.67151,-0.01013 z m 0.547399,-1.119495 c 0,-0.04796 -0.06053,-0.235594 -0.13452,-0.416972 -0.192712,-0.472436 -0.751959,-0.407591 -0.751959,0.08719 0,0.27798 0.147746,0.416972 0.443241,0.416972 0.243782,0 0.443238,-0.03924 0.443238,-0.08719 z m -0.221618,-1.580698 c 0,-0.27798 -0.147749,-0.416972 -0.44324,-0.416972 -0.295495,0 -0.443241,0.138992 -0.443241,0.416972 0,0.27798 0.147746,0.416972 0.443241,0.416972 0.295491,0 0.44324,-0.138992 0.44324,-0.416972 z m -0.350557,-0.960492 c 0.502198,-0.181293 0.433266,-0.707397 -0.09268,-0.707397 -0.295495,0 -0.443241,0.138993 -0.443241,0.416972 0,0.459114 0.02744,0.473984 0.535924,0.290425 z m 0.128937,-1.765112 c 0,-0.534275 -0.733526,-0.473665 -0.844783,0.0698 -0.05121,0.250183 0.06813,0.362458 0.385292,0.362458 0.317161,0 0.459491,-0.133898 0.459491,-0.43226 z m 0,-1.235629 c 0,-0.27798 -0.147749,-0.416972 -0.443241,-0.416972 -0.295494,0 -0.44324,0.138992 -0.44324,0.416972 0,0.27798 0.147746,0.416972 0.44324,0.416972 0.295492,0 0.443241,-0.138992 0.443241,-0.416972 z m -0.22162,-1.250916 c 0,-0.27798 -0.147749,-0.416972 -0.443241,-0.416972 -0.427104,0 -0.60057,0.407959 -0.295495,0.694954 0.305076,0.286995 0.738736,0.123809 0.738736,-0.277982 z m -0.150675,-1.435182 c -0.07227,-0.259984 -0.247365,-0.358754 -0.517967,-0.292185 -0.510516,0.125592 -0.324025,0.684936 0.228364,0.684936 0.281472,0 0.366665,-0.115533 0.289603,-0.392751 z m -0.112647,-1.22062 c -0.111254,-0.543467 -0.84478,-0.604077 -0.84478,-0.0698 0,0.298362 0.14233,0.432259 0.459491,0.432259 0.317159,0 0.436505,-0.112275 0.385289,-0.362457 z m -0.179919,-1.305431 c 0,-0.27798 -0.147749,-0.416972 -0.443241,-0.416972 -0.295494,0 -0.44324,0.138992 -0.44324,0.416972 0,0.27798 0.147746,0.416972 0.44324,0.416972 0.295492,0 0.443241,-0.138992 0.443241,-0.416972 z m -0.260776,-1.320313 c 0.04832,-0.234357 -0.07802,-0.347576 -0.387834,-0.347576 -0.25272,0 -0.459491,0.125094 -0.459491,0.277983 0,0.63854 0.717878,0.6975 0.847325,0.06959 z M 84.63022,15.571991 c 0,-0.457026 -0.02898,-0.473429 -0.52193,-0.295476 -0.399965,0.144384 -0.229962,0.712448 0.213209,0.712448 0.169797,0 0.308721,-0.187638 0.308721,-0.416972 z m -0.0417,-1.196402 c -0.111254,-0.543467 -0.84478,-0.604078 -0.84478,-0.0698 0,0.29836 0.14233,0.432257 0.459492,0.432257 0.317158,0 0.436507,-0.112275 0.385288,-0.362457 z M 84.3669,13.015643 c 0.05122,-0.250182 -0.06813,-0.362457 -0.385289,-0.362457 -0.317161,0 -0.459491,0.133897 -0.459491,0.432259 0,0.534275 0.733526,0.473665 0.84478,-0.0698 z m -0.530476,-0.905977 c 0.5022,-0.181291 0.433268,-0.707394 -0.09268,-0.707394 -0.295494,0 -0.44324,0.13899 -0.44324,0.416972 0,0.459111 0.02744,0.473981 0.535924,0.290422 z m 0.128937,-1.765112 c 0,-0.298363 -0.119346,-0.4106378 -0.385292,-0.3624552 -0.577704,0.1046612 -0.642133,0.7947142 -0.0742,0.7947142 0.317162,0 0.459492,-0.133897 0.459492,-0.432259 z M 83.743739,9.1089249 c 0,-0.2779797 -0.147746,-0.4169721 -0.44324,-0.4169721 -0.295492,0 -0.443241,0.1389924 -0.443241,0.4169721 0,0.2779823 0.147749,0.4169722 0.443241,0.4169722 0.295494,0 0.44324,-0.1389899 0.44324,-0.4169722 z m -0.22162,-1.2509164 c 0,-0.2779797 -0.147746,-0.4169696 -0.44324,-0.4169696 -0.427104,0 -0.600567,0.4079569 -0.295492,0.6949519 0.305072,0.286995 0.738732,0.1238118 0.738732,-0.2779823 z m -0.22162,-1.3774636 c 0,-0.1597309 -0.199459,-0.2904224 -0.443241,-0.2904224 -0.417218,0 -0.602615,0.4060328 -0.310763,0.6805877 0.215669,0.2028882 0.754004,-0.075679 0.754004,-0.3901653 z m -0.22162,-1.3551594 c 0,-0.314907 -0.09925,-0.4034493 -0.350555,-0.3127291 -0.192807,0.069603 -0.392266,0.1265497 -0.44324,0.1265497 -0.05098,0 -0.09269,0.1407272 -0.09269,0.3127291 0,0.1737367 0.196995,0.3127291 0.44324,0.3127291 0.302996,0 0.443241,-0.1389924 0.443241,-0.4392788 z M 82.857258,3.8967758 c 0,-0.2293342 -0.143708,-0.4169722 -0.319349,-0.4169722 -0.391512,0 -0.641826,0.3430928 -0.456322,0.6254582 0.241012,0.3668531 0.775671,0.2231465 0.775671,-0.208486 z m -0.22162,-1.250914 c 0,-0.2779822 -0.147746,-0.4169721 -0.44324,-0.4169721 -0.427104,0 -0.600568,0.4079594 -0.295492,0.6949519 0.305072,0.286995 0.738732,0.1238118 0.738732,-0.2779798 z M 82.374865,1.3255463 c 0.04831,-0.2343545 -0.07802,-0.34757299 -0.387837,-0.34757299 -0.506389,0 -0.521065,0.0234218 -0.321373,0.51297649 0.168756,0.413714 0.611086,0.3105537 0.70921,-0.1654035 z m -0.182467,-1.39000333 c 0,-0.45263992 -0.163505,-0.51123914 -0.637847,-0.2286024 -0.357569,0.21305841 -0.144185,0.64557453 0.318497,0.64557453 0.175644,0 0.31935,-0.18763795 0.31935,-0.41697213 z M 81.970777,-1.3153709 c 0,-0.2293367 -0.132971,-0.4169722 -0.295492,-0.4169722 -0.41684,0 -0.580278,0.2006307 -0.441198,0.5415979 0.180893,0.44346282 0.73669,0.34943725 0.73669,-0.1246257 z m -0.22162,-1.2509164 c 0,-0.2293342 -0.132972,-0.4169722 -0.295492,-0.4169722 -0.41684,0 -0.580279,0.2006332 -0.441198,0.5415978 0.180893,0.4434629 0.73669,0.3494374 0.73669,-0.1246256 z m -0.364548,-0.9554413 c 0.442968,-0.1599102 0.207767,-0.7124473 -0.303273,-0.7124473 -0.289672,0 -0.367067,0.1140872 -0.282872,0.4169722 0.129823,0.467024 0.121941,0.463049 0.586145,0.2954751 z m -0.01447,-1.7548776 c -0.129823,-0.4670216 -0.121938,-0.4630491 -0.586144,-0.2954727 -0.442968,0.1599077 -0.207765,0.7124448 0.303273,0.7124448 0.289671,0 0.367069,-0.1140871 0.282871,-0.4169721 z m -0.06421,-0.9211325 c 0,-0.047956 -0.06054,-0.2355941 -0.134522,-0.4169721 -0.192712,-0.4724352 -0.751959,-0.407591 -0.751959,0.087191 0,0.2779797 0.147746,0.4169721 0.443241,0.4169721 0.243782,0 0.44324,-0.039237 0.44324,-0.087191 z m -0.33243,-1.5806978 c 0,-0.1688608 -0.174527,-0.3386374 -0.387837,-0.3772821 -0.272116,-0.049298 -0.387834,0.063271 -0.387834,0.3772821 0,0.3140109 0.115718,0.4265822 0.387834,0.377282 0.21331,-0.038645 0.387837,-0.2084213 0.387837,-0.377282 z m -0.359444,-1.022314 c 0.357571,-0.213056 0.144184,-0.6455746 -0.318498,-0.6455746 -0.175641,0 -0.319349,0.187638 -0.319349,0.4169722 0,0.4526424 0.163504,0.5112416 0.637847,0.2286024 z m 0.02701,-1.5490125 c 0,-0.392137 -0.213273,-0.545891 -0.575718,-0.415048 -0.4714,0.170172 -0.371454,0.69303 0.132477,0.69303 0.243782,0 0.443241,-0.125093 0.443241,-0.277982 z m -0.263322,-1.335392 c -0.111254,-0.543467 -0.84478,-0.604077 -0.84478,-0.0698 0,0.298362 0.14233,0.43226 0.459492,0.43226 0.317158,0 0.436504,-0.112275 0.385288,-0.362458 z m -0.179919,-1.305431 c 0,-0.277979 -0.147749,-0.416972 -0.44324,-0.416972 -0.295495,0 -0.443241,0.138993 -0.443241,0.416972 0,0.277983 0.147746,0.416972 0.443241,0.416972 0.295491,0 0.44324,-0.138989 0.44324,-0.416972 z m -0.263321,-1.305431 c 0.05122,-0.250182 -0.06813,-0.362455 -0.385289,-0.362455 -0.317161,0 -0.459491,0.133895 -0.459491,0.432257 0,0.534276 0.733525,0.473665 0.84478,-0.0698 z m -0.179919,-1.427192 c 0,-0.314907 -0.09925,-0.403449 -0.350557,-0.312729 -0.192805,0.0696 -0.392264,0.12655 -0.443241,0.12655 -0.05098,0 -0.09268,0.140727 -0.09268,0.312729 0,0.173737 0.196996,0.312729 0.443241,0.312729 0.302996,0 0.443241,-0.138992 0.443241,-0.439279 z m -0.221621,-1.22861 c 0,-0.229334 -0.143708,-0.416972 -0.319352,-0.416972 -0.391512,0 -0.641823,0.343093 -0.456319,0.625459 0.241009,0.366853 0.775671,0.223144 0.775671,-0.208487 z m -0.22162,-1.250916 c 0,-0.229334 -0.132972,-0.416972 -0.295495,-0.416972 -0.41684,0 -0.580278,0.200633 -0.441195,0.5416 0.180893,0.443461 0.73669,0.349438 0.73669,-0.124628 z m -0.248632,-1.022311 c 0.357569,-0.213059 0.144185,-0.645575 -0.318497,-0.645575 -0.175644,0 -0.319352,0.187638 -0.319352,0.416972 0,0.45264 0.163505,0.511239 0.637849,0.228603 z m -0.01519,-1.635885 c -0.04108,-0.200666 -0.221551,-0.364849 -0.40105,-0.364849 -0.179498,0 -0.359971,0.164183 -0.40105,0.364849 -0.0524,0.255992 0.06726,0.364852 0.40105,0.364852 0.333793,0 0.453456,-0.10886 0.40105,-0.364852 z m -0.179429,-1.303037 c 0,-0.277979 -0.147746,-0.416972 -0.443241,-0.416972 -0.295492,0 -0.443241,0.138993 -0.443241,0.416972 0,0.277983 0.147749,0.416972 0.443241,0.416972 0.295495,0 0.443241,-0.138989 0.443241,-0.416972 z m -0.221621,-1.250914 c 0,-0.277982 -0.147746,-0.416972 -0.44324,-0.416972 -0.427104,0 -0.600567,0.40796 -0.295492,0.694952 0.305072,0.286995 0.738732,0.123812 0.738732,-0.27798 z m -0.06471,-1.329582 c -0.153215,-0.432942 -0.821775,-0.397256 -0.821775,0.04386 0,0.312851 0.109464,0.385809 0.452303,0.301469 0.248766,-0.0612 0.415028,-0.216598 0.369472,-0.345331 z m -0.156914,-1.396024 c 0,-0.298363 -0.119346,-0.410635 -0.385289,-0.362455 -0.577707,0.104661 -0.642136,0.794715 -0.0742,0.794715 0.317161,0 0.459491,-0.133895 0.459491,-0.43226 z m -0.22162,-1.235629 c 0,-0.27798 -0.147746,-0.41697 -0.443241,-0.41697 -0.427103,0 -0.600567,0.407957 -0.295492,0.694952 0.305073,0.286995 0.738733,0.123812 0.738733,-0.277982 z m -0.0417,-1.305431 c 0.05122,-0.250182 -0.06813,-0.362455 -0.385291,-0.362455 -0.317161,0 -0.459491,0.133895 -0.459491,0.43226 0,0.534272 0.733525,0.473665 0.844782,-0.0698 z m -0.179922,-1.427192 c 0,-0.314907 -0.09925,-0.403447 -0.350554,-0.312727 -0.192807,0.0696 -0.392266,0.126548 -0.44324,0.126548 -0.05098,0 -0.09269,0.140727 -0.09269,0.312729 0,0.173739 0.196999,0.312729 0.443241,0.312729 0.302995,0 0.44324,-0.13899 0.44324,-0.439279 z m -0.0417,-1.174092 c -0.111257,-0.54347 -0.844783,-0.604078 -0.844783,-0.0698 0,0.298363 0.14233,0.432257 0.459492,0.432257 0.317161,0 0.436507,-0.112272 0.385291,-0.362454 z m -0.179922,-1.305432 c 0,-0.277982 -0.147746,-0.416972 -0.44324,-0.416972 -0.427104,0 -0.600567,0.40796 -0.295492,0.694952 0.305072,0.286995 0.738732,0.123812 0.738732,-0.27798 z m 0,-1.355159 c 0,-0.173738 -0.196995,-0.312729 -0.44324,-0.312729 -0.246243,0 -0.443241,0.138991 -0.443241,0.312729 0,0.173738 0.196998,0.312729 0.443241,0.312729 0.246245,0 0.44324,-0.138991 0.44324,-0.312729 z"
       id="path942" />
    <path
       style="opacity:1;fill:#8aa678;fill-opacity:0.560769;fill-rule:evenodd;stroke:#8aa678;stroke-width:0.568693;stroke-linejoin:round;stroke-miterlimit:4;stroke-dasharray:0.568693, 0.568693;stroke-dashoffset:0"
       d="m -45.239182,-28.106667 c -2.777557,-0.529098 -6.810824,-2.159208 -8.136956,-3.288685 -0.742666,-0.632534 -1.466176,-2.91873 -1.466176,-4.632923 0,-4.159029 3.398218,-8.505582 8.535186,-10.917087 2.521241,-1.183575 4.048986,-1.611878 6.492548,-1.820185 l 1.623074,-0.138362 0.653156,0.848218 c 1.349718,1.752809 2.128114,4.764856 3.189035,12.340145 0.983785,7.024515 1.03117,6.462293 -0.58453,6.93541 -3.384775,0.991146 -7.29587,1.246742 -10.305337,0.673469 z"
       id="path944" />
    <path
       style="opacity:1;fill:#8aa678;fill-opacity:0.560769;fill-rule:evenodd;stroke:#8aa678;stroke-width:0.568693;stroke-linejoin:round;stroke-miterlimit:4;stroke-dasharray:0.568693, 0.568693;stroke-dashoffset:0"
       d="m 77.661893,-36.607752 c -0.0568,-0.254624 -0.520028,-2.902239 -1.029399,-5.883588 -0.764259,-4.473206 -1.745249,-8.841514 -2.533586,-11.281943 -0.131765,-0.407904 0.05263,-0.491505 2.479635,-1.124189 11.208934,-2.922011 19.543882,-2.59256 21.776259,0.860738 l 0.412707,0.638423 -0.894503,2.534682 c -0.530431,1.503037 -1.190437,2.918846 -1.621583,3.478545 -1.244116,1.615052 -4.761462,4.638849 -7.07799,6.084812 -2.4521,1.530587 -6.77148,3.573708 -9.582487,4.532637 l -1.825781,0.622837 z"
       id="path946" />
    <path
       style="opacity:1;fill:#a51d1e;fill-opacity:0.560769;fill-rule:evenodd;stroke:#8aa678;stroke-width:0.568693;stroke-linejoin:round;stroke-miterlimit:4;stroke-dasharray:0.568693, 0.568693;stroke-dashoffset:0"
       d="m 1.2999081,-31.910678 c -5.292e-4,-0.086 -0.2553335,-1.282188 -0.56601517,-2.658195 -0.53628389,-2.37519 -1.97771783,-10.130573 -2.13123433,-11.466728 -0.069329,-0.603408 -0.028892,-0.633936 1.14704795,-0.865962 6.62772705,-1.30772 12.42291645,2.040604 13.56938445,7.84007 0.226865,1.147612 0.209135,1.370656 -0.160258,2.015925 -0.826116,1.443096 -3.5847489,2.916842 -8.1747639,4.367212 -2.864564,0.905155 -3.68192,1.075469 -3.684161,0.767678 z"
       id="path948" />
    <path
       style="opacity:1;fill:#a51d1e;fill-opacity:0.560769;fill-rule:evenodd;stroke:#8aa678;stroke-width:0.568693;stroke-linejoin:round;stroke-miterlimit:4;stroke-dasharray:0.568693, 0.568693;stroke-dashoffset:0"
       d="m 43.064544,-25.15643 c -4.242348,-1.912603 -5.567153,-6.036588 -3.499829,-10.894622 1.770861,-4.161373 6.206704,-8.363938 11.208238,-10.618807 0.870384,-0.3924 1.617663,-0.68039 1.660618,-0.639979 0.103174,0.09706 -3.405852,11.576202 -4.595796,15.034311 -1.279509,3.718398 -2.890607,7.818223 -3.072313,7.818223 -0.0826,0 -0.848013,-0.314609 -1.700918,-0.699126 z"
       id="path950" />
    <path
       style="opacity:0.5;fill:#a51d1e;fill-opacity:0.560769;fill-rule:evenodd;stroke:#8aa678;stroke-width:0.416659;stroke-linejoin:round;stroke-miterlimit:4;stroke-dasharray:0.416659, 0.416659;stroke-dashoffset:0"
       d="m 50.723828,49.499052 c -7.168713,-1.300565 -16.557996,-1.927766 -24.031009,-1.605267 -4.941931,0.213272 -13.491517,0.955474 -17.0084328,1.476532 -0.3799046,0.05628 -0.6088935,0.02952 -0.6088935,-0.07117 0,-0.08876 0.097893,-0.12604 0.217543,-0.08285 0.1196473,0.04319 0.3112638,-0.0277 0.4258098,-0.157541 0.1694418,-0.192066 0.1694418,-0.280083 0,-0.472149 C 9.6042995,48.456764 9.4144901,48.385219 9.2970521,48.427615 9.1340953,48.486438 9.10284,48.352421 9.1650806,47.861756 9.6353272,44.154603 9.8717482,31.31007 9.578963,25.375737 8.8482156,10.564507 6.4152822,-2.8820605 2.3187548,-14.750655 c -1.53042914,-4.434012 -3.8605111,-9.889006 -5.6596167,-13.249832 -0.3288162,-0.614245 -0.5375433,-1.165162 -0.4638357,-1.224257 0.073708,-0.05909 1.156954,-0.335138 2.4072159,-0.613429 1.25026197,-0.27829 3.55188,-0.879525 5.1147075,-1.336078 7.5056992,-2.192652 10.8621182,-4.331711 10.8753372,-6.930898 0.0046,-0.893958 -0.500738,-2.759605 -1.023485,-3.778991 -0.222735,-0.434346 -0.385353,-0.789721 -0.361374,-0.789721 0.02397,0 1.05859,0.637294 2.299137,1.416209 2.70652,1.699372 4.68246,2.680426 6.736277,3.34456 1.383996,0.447537 1.7095,0.494208 3.475471,0.498317 4.213992,0.0098 9.983623,-1.684944 15.46767,-4.543418 0.916339,-0.477629 1.707993,-0.868417 1.759225,-0.868417 0.05123,0 -0.302594,0.429606 -0.786284,0.954681 -2.867122,3.112444 -4.454209,6.402284 -4.624,9.584987 -0.22538,4.224794 1.900327,7.065045 6.531389,8.726878 0.535827,0.19228 1.156899,0.359423 1.380159,0.371435 0.223261,0.012 1.246204,0.103713 2.273202,0.203784 1.027002,0.100072 2.423282,0.136484 3.102845,0.08091 l 1.235573,-0.101035 -0.703982,3.951132 c -0.949415,5.328654 -1.896359,11.2913098 -2.484401,15.6436089 -2.724409,20.1642231 -1.969388,35.8649131 2.355482,48.9824281 0.781418,2.370068 0.807699,2.481208 0.523518,2.213869 -0.14859,-0.139784 -0.260252,-0.123637 -0.488429,0.07062 -0.276857,0.235704 -0.278431,0.269885 -0.02458,0.533772 0.25229,0.262257 0.291822,0.264407 0.566229,0.03079 0.273749,-0.233058 0.302406,-0.233006 0.39774,7.46e-4 0.05651,0.138525 0.01254,0.35409 -0.09768,0.479036 -0.159054,0.180293 -0.1587,0.274468 0.0019,0.456304 0.111173,0.126017 0.302789,0.229123 0.42581,0.229123 0.123023,0 0.223676,0.06874 0.223676,0.152749 0,0.08401 -0.01826,0.143888 -0.04059,0.133061 -0.02233,-0.01083 -0.917401,-0.178762 -1.989053,-0.373183 z m -40.11721,-1.543609 c 0.059,-0.144647 -0.0035,-0.357823 -0.143412,-0.489485 -0.222335,-0.209155 -0.271865,-0.202457 -0.4796555,0.06487 -0.1635998,0.210475 -0.1820888,0.354373 -0.062894,0.489485 0.2370905,0.268743 0.5624245,0.237976 0.6859615,-0.06487 z m 40.36753,-0.591542 c 0.172566,-0.195606 0.161903,-0.280999 -0.0613,-0.490979 -0.252021,-0.237085 -0.288383,-0.237085 -0.540404,0 -0.223208,0.20998 -0.23387,0.295373 -0.0613,0.490979 0.114893,0.130233 0.26407,0.236788 0.331505,0.236788 0.06744,0 0.216614,-0.106555 0.331507,-0.236788 z M 11.490612,46.936504 c 0.138157,-0.156602 0.109601,-0.267301 -0.119208,-0.462098 -0.267417,-0.227666 -0.323562,-0.230464 -0.504709,-0.02513 -0.241099,0.273291 -0.111794,0.69317 0.213466,0.69317 0.125823,0 0.310528,-0.09267 0.410451,-0.20594 z m 38.60699,-0.636123 c 0.05184,-0.12709 0.0026,-0.335034 -0.109564,-0.462101 -0.181145,-0.205333 -0.237287,-0.202537 -0.504706,0.02513 -0.228809,0.194799 -0.257366,0.305496 -0.119208,0.462101 0.241956,0.274261 0.616587,0.261425 0.733478,-0.02513 z M 12.485297,45.688968 c 0,-0.317329 -0.521549,-0.412935 -0.800092,-0.146666 -0.232363,0.222123 -0.227317,0.263606 0.0561,0.461272 0.335857,0.234242 0.743995,0.06166 0.743995,-0.314606 z m 36.678902,-0.715063 c -0.183271,-0.322153 -0.222948,-0.328833 -0.656537,-0.110538 -0.308631,0.155385 -0.311726,0.181343 -0.05363,0.449628 0.219985,0.228677 0.332261,0.250434 0.570383,0.110538 0.224145,-0.131682 0.258252,-0.241394 0.139787,-0.449628 z M 13.256457,44.855758 c 0.171248,-0.257965 0.149674,-0.32618 -0.151054,-0.477585 -0.291195,-0.146609 -0.388482,-0.12821 -0.572251,0.108216 -0.190945,0.245654 -0.182856,0.311372 0.05877,0.477585 0.371006,0.25521 0.429604,0.245667 0.664533,-0.108216 z m 34.846091,-0.945293 c -0.204856,-0.212949 -0.322037,-0.239161 -0.488428,-0.109254 -0.270166,0.21093 -0.279853,0.473324 -0.02627,0.711867 0.14859,0.139784 0.260253,0.12364 0.488429,-0.07062 0.276148,-0.235102 0.277895,-0.270443 0.02627,-0.531995 z m -33.978951,-0.06865 c 0.184187,-0.20878 0.17,-0.277788 -0.09451,-0.459741 -0.267848,-0.184246 -0.344262,-0.183011 -0.548224,0.0089 -0.19454,0.183011 -0.199575,0.265371 -0.0281,0.459739 0.264491,0.299806 0.400103,0.298017 0.670833,-0.0089 z M 47.239599,43.39243 c 0.172567,-0.195605 0.161904,-0.280999 -0.0613,-0.490978 -0.252021,-0.237085 -0.288382,-0.237085 -0.540406,0 -0.223205,0.209979 -0.233868,0.295373 -0.0613,0.490978 0.114893,0.130236 0.26407,0.236789 0.331504,0.236789 0.06743,0 0.216612,-0.106553 0.331507,-0.236789 z M 15.062788,42.460418 c -0.224216,-0.254154 -0.50314,-0.263267 -0.756711,-0.02472 -0.14859,0.139784 -0.131429,0.244829 0.07507,0.459483 0.249909,0.259782 0.28748,0.261425 0.565509,0.02472 0.226365,-0.192716 0.254225,-0.302953 0.116134,-0.459483 z m 31.202581,0.01553 c 0.172323,-0.195332 0.163018,-0.279951 -0.05315,-0.483312 -0.367617,-0.345831 -0.840612,-0.0029 -0.593968,0.430644 0.199909,0.351399 0.371274,0.365347 0.647123,0.05267 z M 15.901866,41.864955 c 0.172564,-0.195605 0.161904,-0.280999 -0.0613,-0.490978 -0.252023,-0.237085 -0.288385,-0.237085 -0.540406,0 -0.223208,0.209979 -0.233868,0.295373 -0.0613,0.490978 0.114896,0.130234 0.264073,0.236789 0.331507,0.236789 0.06743,0 0.216612,-0.106555 0.331507,-0.236789 z M 45.446748,41.27346 c 0,-0.09893 -0.08669,-0.261418 -0.192629,-0.361083 -0.14859,-0.139784 -0.260252,-0.12364 -0.488429,0.07062 -0.276148,0.235102 -0.277895,0.270443 -0.02627,0.531995 0.204856,0.212949 0.322037,0.239161 0.488428,0.109251 0.120402,-0.094 0.218911,-0.251852 0.218911,-0.350781 z M 16.764813,40.397242 c -0.204857,-0.212949 -0.322038,-0.239161 -0.488429,-0.109253 -0.270163,0.21093 -0.279853,0.473323 -0.02627,0.711867 0.14859,0.139784 0.260252,0.12364 0.488428,-0.07062 0.276149,-0.235101 0.277895,-0.270443 0.02627,-0.531995 z m 27.64978,0.09868 c 0.05184,-0.127088 0.0026,-0.335034 -0.109564,-0.462101 -0.181144,-0.205333 -0.237286,-0.202535 -0.504706,0.02513 -0.228809,0.194796 -0.257368,0.305496 -0.119208,0.4621 0.241954,0.274259 0.616588,0.261423 0.733478,-0.02513 z M 17.687954,39.879208 c 0.172858,-0.195936 0.160568,-0.281584 -0.07123,-0.496434 -0.263742,-0.244458 -0.293629,-0.242509 -0.511008,0.03332 -0.171098,0.217103 -0.184402,0.345651 -0.05138,0.496434 0.23318,0.264315 0.377743,0.256711 0.633616,-0.03332 z m 25.654725,-0.305499 c 0.172566,-0.195605 0.161904,-0.280996 -0.0613,-0.490976 -0.252021,-0.237087 -0.288383,-0.237087 -0.540404,0 -0.223207,0.20998 -0.23387,0.295371 -0.0613,0.490976 0.114892,0.130236 0.26407,0.236792 0.331504,0.236792 0.06743,0 0.216612,-0.106556 0.331507,-0.236792 z M 18.655422,38.952567 c 0,-0.221775 -0.09519,-0.364058 -0.24356,-0.364058 -0.133956,0 -0.243557,-0.103105 -0.243557,-0.229122 0,-0.12602 -0.09133,-0.228073 -0.202964,-0.226786 -0.390964,0.0045 -0.596352,0.238907 -0.503142,0.574217 0.05145,0.185077 0.15304,0.301907 0.225761,0.259628 0.07272,-0.04228 0.176559,0.05454 0.230745,0.215149 0.144026,0.426889 0.736717,0.242631 0.736717,-0.229028 z m 1.461344,-0.134935 c 0,-0.305496 -0.08118,-0.381872 -0.405929,-0.381872 -0.324745,0 -0.405929,0.07638 -0.405929,0.381872 0,0.305498 0.08118,0.381872 0.405929,0.381872 0.324744,0 0.405929,-0.07637 0.405929,-0.381872 z m 1.298974,-0.152749 c 0,-0.305496 -0.08119,-0.381872 -0.405929,-0.381872 -0.285382,0 -0.405929,0.08316 -0.405929,0.280041 0,0.354109 0.137758,0.483703 0.514175,0.483703 0.20928,0 0.297683,-0.113403 0.297683,-0.381872 z m 20.832998,-0.414889 c -0.152874,-0.158912 -0.281334,-0.439886 -0.285467,-0.624391 -0.0078,-0.348212 -0.08421,-0.411834 -0.49463,-0.411834 -0.151546,0 -0.243557,0.144264 -0.243557,0.381874 0,0.249854 0.09075,0.381872 0.262495,0.381872 0.190437,0 0.236877,0.09216 0.169167,0.335735 -0.05133,0.184654 -0.01283,0.426968 0.08553,0.538474 0.146955,0.166573 0.232868,0.156759 0.481635,-0.05503 0.286292,-0.243733 0.287641,-0.273502 0.02482,-0.546698 z m -19.371654,0.262142 c 0,-0.305498 -0.08119,-0.381874 -0.405929,-0.381874 -0.324742,0 -0.405929,0.07638 -0.405929,0.381874 0,0.305496 0.08119,0.381872 0.405929,0.381872 0.324744,0 0.405929,-0.07638 0.405929,-0.381872 z m 1.380159,0 c 0,-0.216003 -0.124704,-0.319104 -0.425683,-0.351941 -0.379624,-0.04142 -0.416925,-0.0034 -0.344763,0.351774 0.06116,0.300989 0.165092,0.386915 0.425683,0.351939 0.22012,-0.02954 0.344763,-0.156724 0.344763,-0.351772 z m 1.380159,-0.152749 c 0,-0.305499 -0.08119,-0.381872 -0.405929,-0.381872 -0.324742,0 -0.405929,0.07637 -0.405929,0.381872 0,0.305496 0.08119,0.381872 0.405929,0.381872 0.324744,0 0.405929,-0.07638 0.405929,-0.381872 z m 1.461346,0 c 0,-0.305499 -0.08119,-0.381872 -0.405929,-0.381872 -0.324744,0 -0.405929,0.07637 -0.405929,0.381872 0,0.305496 0.08119,0.381872 0.405929,0.381872 0.324742,0 0.405929,-0.07638 0.405929,-0.381872 z m 13.963964,0 c 0,-0.305499 -0.08118,-0.381872 -0.405929,-0.381872 -0.28538,0 -0.405929,0.08316 -0.405929,0.280038 0,0.354109 0.13776,0.483706 0.514178,0.483706 0.20928,0 0.29768,-0.113406 0.29768,-0.381872 z M 28.397723,38.196014 c 0,-0.319663 -0.06779,-0.383437 -0.365337,-0.343685 -0.234783,0.03137 -0.383878,0.171626 -0.417224,0.392495 -0.04226,0.279909 0.02553,0.343685 0.365337,0.343685 0.339801,0 0.417224,-0.07283 0.417224,-0.392495 z m 1.461344,0.01063 c 0,-0.305498 -0.08118,-0.381871 -0.405929,-0.381871 -0.324745,0 -0.405929,0.07637 -0.405929,0.381871 0,0.305499 0.08118,0.381872 0.405929,0.381872 0.324744,0 0.405929,-0.07637 0.405929,-0.381872 z m 1.432046,0.03819 c -0.03335,-0.220869 -0.182441,-0.361126 -0.417224,-0.392495 -0.297542,-0.03975 -0.365336,0.02402 -0.365336,0.343685 0,0.319661 0.07742,0.392495 0.417224,0.392495 0.339801,0 0.407593,-0.06378 0.365336,-0.343685 z m 1.328272,-0.03819 c 0,-0.305498 -0.08118,-0.381872 -0.405929,-0.381872 -0.324744,0 -0.405929,0.07637 -0.405929,0.381872 0,0.305498 0.08119,0.381872 0.405929,0.381872 0.324744,0 0.405929,-0.07637 0.405929,-0.381872 z m 1.461346,0 c 0,-0.305498 -0.08119,-0.381872 -0.405929,-0.381872 -0.324744,0 -0.405931,0.07637 -0.405931,0.381872 0,0.305498 0.08119,0.381872 0.405931,0.381872 0.324742,0 0.405929,-0.07637 0.405929,-0.381872 z m 1.363313,0.138965 c 0.133004,-0.326058 -0.01609,-0.520837 -0.398666,-0.520837 -0.227922,0 -0.315161,0.105702 -0.315161,0.381872 0,0.440115 0.547508,0.5467 0.713827,0.138965 z m 1.397006,-0.138965 c 0,-0.305498 -0.08119,-0.381872 -0.405929,-0.381872 -0.324745,0 -0.405929,0.07637 -0.405929,0.381872 0,0.305498 0.08118,0.381872 0.405929,0.381872 0.324741,0 0.405929,-0.07637 0.405929,-0.381872 z m 1.461343,0 c 0,-0.305498 -0.08118,-0.381872 -0.405929,-0.381872 -0.324741,0 -0.405929,0.07637 -0.405929,0.381872 0,0.305498 0.08119,0.381872 0.405929,0.381872 0.324745,0 0.405929,-0.07637 0.405929,-0.381872 z m 1.298975,-0.01063 c 0,-0.319664 -0.06779,-0.38344 -0.365337,-0.343685 -0.234783,0.03137 -0.383878,0.171626 -0.417221,0.392495 -0.04226,0.279908 0.02553,0.343685 0.365336,0.343685 0.339799,0 0.417222,-0.07283 0.417222,-0.392495 z M 17.975683,37.327863 c 0.05959,-0.294133 -0.324418,-0.500095 -0.687818,-0.368911 -0.143682,0.05187 -0.197041,0.205372 -0.141206,0.406229 0.10976,0.394847 0.747279,0.366149 0.829024,-0.03732 z m 23.869589,-1.068774 c -0.03335,-0.220869 -0.18244,-0.361126 -0.417224,-0.392495 -0.297542,-0.03975 -0.365336,0.02402 -0.365336,0.343685 0,0.319661 0.07742,0.392495 0.417224,0.392495 0.339801,0 0.407593,-0.06378 0.365336,-0.343685 z m -24.16408,-0.27611 c 0,-0.343337 -0.212432,-0.480403 -0.553649,-0.357226 -0.249092,0.08992 -0.353772,0.530708 -0.167624,0.705827 0.18774,0.176614 0.721273,-0.08125 0.721273,-0.348601 z M 41.503129,35.25842 c 0.108273,-0.06473 0.157483,-0.25935 0.109352,-0.432494 -0.06663,-0.239679 -0.18366,-0.297509 -0.490429,-0.242342 -0.270076,0.04857 -0.373046,0.14569 -0.312314,0.294572 0.04983,0.122164 0.0906,0.285233 0.0906,0.362373 0,0.169806 0.332182,0.179665 0.602787,0.0179 z M 17.356447,34.693415 c 0,-0.305498 -0.08118,-0.381872 -0.405929,-0.381872 -0.324744,0 -0.405929,0.07637 -0.405929,0.381872 0,0.305496 0.08119,0.381872 0.405929,0.381872 0.324745,0 0.405929,-0.07638 0.405929,-0.381872 z m 24.067474,-0.77259 c 0.22307,-0.209852 -0.09558,-0.678524 -0.46133,-0.678524 -0.399291,0 -0.458039,0.106344 -0.288436,0.522126 0.09516,0.233297 0.564055,0.331103 0.749766,0.156398 z M 17.022469,33.700546 c 0.06961,0 0.09126,-0.173811 0.04809,-0.386247 -0.06343,-0.312164 -0.144758,-0.36712 -0.424005,-0.286522 -0.465828,0.134452 -0.472313,0.144199 -0.345673,0.519557 0.0706,0.209258 0.198374,0.296399 0.352849,0.240634 0.133191,-0.04808 0.299127,-0.08742 0.368744,-0.08742 z M 41.21585,32.631307 c 0.06961,0 0.09125,-0.173812 0.04808,-0.38625 -0.06343,-0.312165 -0.144759,-0.36712 -0.424005,-0.286523 -0.465828,0.134453 -0.472313,0.1442 -0.345673,0.519558 0.0706,0.209258 0.198374,0.296398 0.352848,0.240634 0.133192,-0.04808 0.299128,-0.08742 0.368745,-0.08742 z M 16.869334,32.338301 c 0,-0.344582 -0.221388,-0.623487 -0.494906,-0.623487 -0.366422,0 -0.512408,0.199411 -0.381296,0.520837 0.103933,0.254789 0.876202,0.345263 0.876202,0.10265 z m 24.229843,-1.014205 c 0.22307,-0.209853 -0.09558,-0.678524 -0.461331,-0.678524 -0.39929,0 -0.458038,0.106343 -0.288432,0.522126 0.09516,0.233294 0.564051,0.331103 0.749763,0.156398 z M 16.359,31.120548 c 0.133466,-0.07955 0.179253,-0.253122 0.116131,-0.440217 -0.148923,-0.441407 -0.7424,-0.271792 -0.7424,0.212177 0,0.373663 0.23712,0.460005 0.626269,0.22804 z m 24.674412,-1.429656 c -0.03334,-0.220869 -0.182438,-0.361128 -0.417222,-0.392498 -0.297542,-0.03975 -0.365336,0.02402 -0.365336,0.343686 0,0.319663 0.07742,0.392495 0.417224,0.392495 0.339801,0 0.407593,-0.06377 0.365334,-0.343683 z M 16.190545,29.538143 c -0.03405,-0.225584 -0.163478,-0.343685 -0.376629,-0.343685 -0.213151,0 -0.342572,0.118101 -0.376629,0.343685 -0.04256,0.281925 0.02511,0.343685 0.376629,0.343685 0.351512,0 0.419193,-0.06176 0.376629,-0.343685 z m 24.680497,-1.145618 c 0.04226,-0.279909 -0.02553,-0.343683 -0.365336,-0.343683 -0.339802,0 -0.417224,0.07283 -0.417224,0.392495 0,0.319664 0.06779,0.383437 0.365336,0.343685 0.234783,-0.03137 0.383879,-0.171628 0.417224,-0.392497 z m -25.005238,-0.15431 c 0.04219,-0.278234 -0.02604,-0.342122 -0.365337,-0.342122 -0.296333,0 -0.417224,0.08114 -0.417224,0.280038 0,0.592058 0.693835,0.647103 0.782561,0.06208 z m -0.204841,-1.214236 c -0.04983,-0.122161 -0.0906,-0.28523 -0.0906,-0.36237 0,-0.175559 -0.33505,-0.177826 -0.626268,-0.0042 -0.131467,0.07836 -0.179142,0.253455 -0.1182,0.434081 0.07663,0.227152 0.204948,0.284252 0.513908,0.228692 0.27737,-0.04988 0.382196,-0.146546 0.321164,-0.296164 z m 25.077007,0.03199 c 0,-0.305496 -0.08119,-0.381872 -0.405929,-0.381872 -0.324744,0 -0.405929,0.07638 -0.405929,0.381872 0,0.305499 0.08118,0.381872 0.405929,0.381872 0.324742,0 0.405929,-0.07637 0.405929,-0.381872 z m -0.194191,-1.318254 c 0.04376,-0.353798 0.0024,-0.390676 -0.365337,-0.324572 -0.434879,0.07821 -0.479824,0.15983 -0.313086,0.568591 0.154114,0.377817 0.622345,0.209402 0.678423,-0.244019 z m -25.226033,0.186423 c 0.156916,-0.23885 -0.09305,-0.624779 -0.404662,-0.624779 -0.366421,0 -0.512408,0.199411 -0.381296,0.520837 0.106714,0.261609 0.636357,0.331656 0.785958,0.103942 z m -0.383593,-1.235776 c 0.082,0 0.147973,-0.08592 0.146605,-0.190936 -0.0047,-0.359177 -0.252571,-0.56135 -0.587327,-0.478998 -0.254778,0.06268 -0.316251,0.172773 -0.257609,0.461364 0.05163,0.25407 0.154869,0.350938 0.313129,0.293805 0.12986,-0.04688 0.3032,-0.08524 0.385202,-0.08524 z M 40.575598,24.45924 c 0,-0.305499 -0.08119,-0.381872 -0.405929,-0.381872 -0.324744,0 -0.405929,0.07637 -0.405929,0.381872 0,0.305498 0.08119,0.381872 0.405929,0.381872 0.324742,0 0.405929,-0.07637 0.405929,-0.381872 z M 14.758501,23.084506 c 0,-0.305499 -0.08119,-0.381875 -0.405929,-0.381875 -0.324744,0 -0.405929,0.07638 -0.405929,0.381875 0,0.305496 0.08118,0.381871 0.405929,0.381871 0.324742,0 0.405929,-0.07638 0.405929,-0.381871 z m 25.654725,-0.01063 c 0,-0.319663 -0.06779,-0.383437 -0.365337,-0.343682 -0.234783,0.03137 -0.383876,0.171626 -0.417221,0.392495 -0.04226,0.279908 0.02553,0.343685 0.365336,0.343685 0.339799,0 0.417222,-0.07283 0.417222,-0.392498 z m -26.236308,-0.92221 c 0.247994,-0.08952 0.351962,-0.530626 0.166251,-0.705331 -0.04982,-0.04687 -0.232492,-0.05031 -0.405929,-0.0076 -0.304858,0.075 -0.42858,0.495496 -0.207092,0.703857 0.131789,0.123981 0.128754,0.123919 0.44677,0.0091 z m 26.207008,-0.32735 c 0.04226,-0.279908 -0.02553,-0.343685 -0.365337,-0.343685 -0.339799,0 -0.417221,0.07283 -0.417221,0.392495 0,0.319664 0.06779,0.383438 0.365336,0.343686 0.234784,-0.03137 0.383876,-0.171627 0.417222,-0.392496 z M 14.145478,20.784418 c 0.187737,-0.176614 -0.08637,-0.678526 -0.370563,-0.678526 -0.356563,0 -0.539773,0.23864 -0.416059,0.541936 0.08833,0.216526 0.606083,0.306429 0.786622,0.13659 z m 26.105376,-0.296654 c 0,-0.305496 -0.08118,-0.381872 -0.405929,-0.381872 -0.324742,0 -0.405929,0.07638 -0.405929,0.381872 0,0.305498 0.08119,0.381874 0.405929,0.381874 0.324744,0 0.405929,-0.07638 0.405929,-0.381874 z M 13.749177,19.518533 c 0.320101,-0.19107 0.04877,-0.63463 -0.388207,-0.63463 -0.400796,0 -0.459711,0.106075 -0.29,0.522126 0.107924,0.264579 0.354825,0.305536 0.678207,0.112504 z m 26.24484,0.0364 c 0.432372,-0.156084 0.317961,-0.671027 -0.149092,-0.671027 -0.324742,0 -0.405929,0.07637 -0.405929,0.381872 0,0.392754 0.109709,0.449909 0.555021,0.289155 z M 13.472806,18.272906 c 0.186619,0 0.189029,-0.315193 0.0045,-0.589153 -0.0833,-0.123673 -0.26942,-0.168525 -0.461428,-0.111195 -0.241461,0.07209 -0.302159,0.192805 -0.243099,0.483451 0.05302,0.260933 0.155779,0.359546 0.314822,0.302131 0.129861,-0.04688 0.3032,-0.08523 0.385202,-0.08523 z m 26.615676,-0.381872 c 0,-0.305496 -0.08118,-0.381872 -0.405929,-0.381872 -0.28538,0 -0.405929,0.08316 -0.405929,0.280041 0,0.154021 0.04871,0.325864 0.108249,0.381872 0.05954,0.05601 0.242202,0.101831 0.405928,0.101831 0.209281,0 0.297681,-0.113403 0.297681,-0.381872 z M 13.21597,16.669045 c 0,-0.200519 -0.125542,-0.322272 -0.365337,-0.354308 -0.299685,-0.04004 -0.365336,0.02362 -0.365336,0.354308 0,0.33068 0.06565,0.394347 0.365336,0.354308 0.239795,-0.03204 0.365337,-0.153792 0.365337,-0.354308 z m 26.872512,-0.152749 c 0,-0.305499 -0.08118,-0.381872 -0.405929,-0.381872 -0.324742,0 -0.405929,0.07637 -0.405929,0.381872 0,0.305496 0.08119,0.381872 0.405929,0.381872 0.324744,0 0.405929,-0.07638 0.405929,-0.381872 z M 12.715574,15.736209 c 0.277006,-0.1 0.350621,-0.598472 0.10912,-0.738883 -0.40817,-0.237312 -0.898978,0.407013 -0.555893,0.729766 0.131792,0.123983 0.128755,0.123919 0.446773,0.0091 z m 27.343608,-0.480091 c 0.04226,-0.279909 -0.02553,-0.343685 -0.365334,-0.343685 -0.339802,0 -0.417224,0.07283 -0.417224,0.392495 0,0.319663 0.06779,0.383437 0.365336,0.343685 0.234783,-0.03137 0.383879,-0.171626 0.417222,-0.392495 z M 12.647669,14.072316 c 0,-0.276171 -0.08724,-0.381875 -0.315161,-0.381875 -0.173337,0 -0.362482,0.07203 -0.420317,0.160065 -0.173937,0.264758 0.0538,0.603681 0.405638,0.603681 0.24358,0 0.32984,-0.09987 0.32984,-0.381871 z m 27.411513,-0.114563 c -0.03334,-0.220869 -0.182439,-0.361128 -0.417222,-0.392495 -0.297542,-0.03975 -0.365336,0.02402 -0.365336,0.343683 0,0.319663 0.07742,0.392497 0.417224,0.392497 0.339801,0 0.407593,-0.06378 0.365334,-0.343685 z M 12.204389,13.148169 c 0.148071,-0.05345 0.204771,-0.221785 0.155834,-0.462624 -0.06191,-0.304657 -0.144412,-0.359119 -0.422452,-0.278868 -0.464614,0.134099 -0.472062,0.144944 -0.349401,0.508511 0.111472,0.330401 0.226078,0.373745 0.616019,0.232981 z m 27.761463,-0.603343 c -0.07973,-0.392371 -0.570849,-0.532891 -0.775221,-0.221808 -0.184795,0.281288 0.06317,0.60368 0.46431,0.60368 0.326855,0 0.376195,-0.0606 0.310911,-0.381872 z M 12.160553,11.717201 c 0,-0.291975 -0.204201,-0.6234 -0.382707,-0.62115 -0.356896,0.0045 -0.601721,0.253174 -0.498464,0.506306 0.107436,0.263384 0.881171,0.364225 0.881171,0.114844 z m 27.765559,-0.394364 c 0,-0.305499 -0.08119,-0.381875 -0.405929,-0.381875 -0.285382,0 -0.405932,0.08316 -0.405932,0.280041 0,0.154021 0.04871,0.325864 0.108249,0.381872 0.05954,0.05601 0.242205,0.101834 0.405929,0.101834 0.20928,0 0.297683,-0.113406 0.297683,-0.381872 z M 11.805558,10.291321 c 0.05959,-0.2941337 -0.324416,-0.5000959 -0.687816,-0.3689116 -0.143682,0.051869 -0.19704,0.2053726 -0.141208,0.4062296 0.10976,0.394847 0.747281,0.366149 0.829024,-0.03732 z M 39.926112,9.937473 c 0,-0.3196635 -0.06779,-0.3834374 -0.365337,-0.3436852 -0.234783,0.031369 -0.383878,0.1716261 -0.417224,0.3924951 -0.04226,0.2799091 0.02553,0.3436851 0.365337,0.3436851 0.339802,0 0.417224,-0.07283 0.417224,-0.392495 z M 11.511067,8.9464287 c 0,-0.3433367 -0.212432,-0.4804026 -0.553649,-0.3572255 -0.249092,0.089921 -0.353772,0.5307083 -0.167621,0.7058265 0.18774,0.1766115 0.72127,-0.081249 0.72127,-0.348601 z M 39.926112,8.7261048 c 0,-0.305496 -0.08119,-0.3818719 -0.405929,-0.3818719 -0.285382,0 -0.405932,0.083163 -0.405932,0.2800407 0,0.1540211 0.04871,0.3258637 0.108249,0.3818719 0.05954,0.056008 0.242205,0.1018311 0.405929,0.1018311 0.20928,0 0.297683,-0.1134026 0.297683,-0.3818718 z M 11.186322,7.6568651 c 0,-0.3054985 -0.08118,-0.3818718 -0.405929,-0.3818718 -0.324741,0 -0.405929,0.076373 -0.405929,0.3818718 0,0.305496 0.08119,0.3818719 0.405929,0.3818719 0.324745,0 0.405929,-0.076376 0.405929,-0.3818719 z M 39.990453,7.4903316 c 0.133001,-0.3260553 -0.01609,-0.5208368 -0.398668,-0.5208368 -0.227923,0 -0.315161,0.1057016 -0.315161,0.3818718 0,0.4401177 0.547507,0.5467004 0.713829,0.138965 z M 10.604742,6.7240292 c 0.141261,-0.050995 0.256839,-0.2645589 0.256839,-0.4745907 0,-0.2854617 -0.06484,-0.3584625 -0.256839,-0.289153 -0.141261,0.050995 -0.323927,0.092716 -0.405929,0.092716 -0.17135,0 -0.2027927,0.5095615 -0.04084,0.66191 0.131792,0.123981 0.128754,0.1239188 0.446773,0.00911 z m 29.45444,-0.709214 c -0.03334,-0.220869 -0.182439,-0.3611283 -0.417222,-0.3924975 -0.297542,-0.039752 -0.365336,0.024019 -0.365336,0.3436851 0,0.3196636 0.07742,0.3924975 0.417224,0.3924975 0.339801,0 0.407593,-0.063776 0.365334,-0.3436851 z M 10.573301,5.356788 c 0.187738,-0.176614 -0.08637,-0.6785268 -0.370562,-0.6785268 -0.3565654,0 -0.5397761,0.2386432 -0.4160596,0.5419364 0.088323,0.2165256 0.6060836,0.3064293 0.7866216,0.1365904 z M 40.088482,4.7546371 c 0,-0.3054985 -0.08118,-0.3818718 -0.405929,-0.3818718 -0.324742,0 -0.405929,0.076373 -0.405929,0.3818718 0,0.305496 0.08119,0.3818718 0.405929,0.3818718 0.324744,0 0.405929,-0.076376 0.405929,-0.3818718 z M 10.165396,4.0976504 c 0.108273,-0.06473 0.15748,-0.2593494 0.10935,-0.4324913 C 10.208796,3.4279099 10.090294,3.3677898 9.7937358,3.4211223 9.3815124,3.495253 9.3364459,3.5804027 9.4987916,3.9783985 9.6054504,4.2398735 9.8533226,4.2842156 10.165396,4.0976504 Z M 40.088482,3.3798965 c 0,-0.305496 -0.08118,-0.3818719 -0.405929,-0.3818719 -0.324742,0 -0.405929,0.076376 -0.405929,0.3818719 0,0.3054984 0.08119,0.3818718 0.405929,0.3818718 0.324744,0 0.405929,-0.076373 0.405929,-0.3818718 z M 10.047236,2.636533 C 10.045936,2.541313 9.981923,2.3701272 9.905136,2.2561222 9.7118685,1.9691844 9.019401,2.1819462 9.1449352,2.4896977 c 0.05111,0.1252977 0.092927,0.2813996 0.092927,0.346891 0,0.065489 0.1826683,0.086222 0.4059316,0.046072 C 9.8670545,2.8425126 10.048604,2.7317558 10.047236,2.636533 Z M 40.173553,2.2227692 c 0.122661,-0.363565 0.11521,-0.3744097 -0.349403,-0.5085087 -0.278165,-0.080286 -0.360545,-0.025776 -0.422609,0.2796524 -0.07186,0.3536263 0.02199,0.4430621 0.55422,0.5281471 0.06096,0.00973 0.158967,-0.1249343 0.217792,-0.2992908 z M 9.6947261,1.2791409 C 9.7543208,0.9850073 9.3703099,0.77904511 9.0069101,0.9102294 8.8632281,0.96209828 8.8098696,1.1156017 8.8657046,1.3164589 8.9754643,1.711306 9.6129831,1.6826075 9.6947261,1.2791409 Z M 40.250854,0.78316694 c 0,-0.30549598 -0.08118,-0.38187184 -0.405929,-0.38187184 -0.324742,0 -0.405929,0.0763759 -0.405929,0.38187184 0,0.30549846 0.08119,0.38187186 0.405929,0.38187186 0.324744,0 0.405929,-0.076373 0.405929,-0.38187186 z M 9.2511443,0.24855582 c 0.1932199,0 0.1943655,-0.56664244 0.00132,-0.67885037 -0.2879116,-0.1673897 -0.6641464,0.10589575 -0.6641464,0.48241369 0,0.28546179 0.064844,0.35846253 0.2568389,0.28915551 0.1412584,-0.0509952 0.3239267,-0.0927188 0.405929,-0.0927188 z M 40.295444,-0.50634435 c 0.0974,-0.35039807 0.0027,-0.46708873 -0.379024,-0.46708873 -0.258611,0 -0.477424,0.285753 -0.477424,0.62348689 0,0.28456324 0.773112,0.1433855 0.856448,-0.15639816 z M 9.0754927,-1.3553049 c 0,-0.3054985 -0.081187,-0.3818744 -0.405929,-0.3818744 -0.3247442,0 -0.4059316,0.076376 -0.4059316,0.3818744 0,0.305496 0.081187,0.38187182 0.4059316,0.38187182 0.3247416,0 0.405929,-0.0763758 0.405929,-0.38187182 z M 40.413226,-1.8135526 c 0,-0.3054985 -0.08119,-0.3818719 -0.405929,-0.3818719 -0.285382,0 -0.405929,0.083163 -0.405929,0.2800382 0,0.1540236 0.04871,0.3258662 0.108249,0.3818719 0.05953,0.056008 0.242202,0.1018336 0.405929,0.1018336 0.209277,0 0.29768,-0.1134027 0.29768,-0.3818718 z M 8.4939121,-2.2881408 c 0.2479887,-0.089523 0.3519593,-0.5306262 0.1662483,-0.7053312 -0.049824,-0.046871 -0.232492,-0.050308 -0.405929,-0.00764 -0.3048581,0.074997 -0.4285799,0.495496 -0.2070946,0.7038577 0.1317916,0.123981 0.1287568,0.1239188 0.4467753,0.00911 z m 32.0816859,-0.90015 c 0,-0.3054984 -0.08119,-0.3818743 -0.405929,-0.3818743 -0.324744,0 -0.405929,0.076376 -0.405929,0.3818743 0,0.305496 0.08119,0.3818719 0.405929,0.3818719 0.324742,0 0.405929,-0.076376 0.405929,-0.3818719 z M 8.4260042,-3.9698509 c 0,-0.2585355 -0.09135,-0.3640579 -0.315161,-0.3640579 -0.3921257,0 -0.547325,0.220304 -0.4203435,0.5966726 0.1429834,0.4237995 0.7355045,0.2364055 0.7355045,-0.2326147 z M 40.575598,-4.1686646 c 0,-0.077143 0.04067,-0.2399524 0.09037,-0.3617979 0.115105,-0.2821812 -0.593616,-0.4820527 -0.772152,-0.2177601 -0.206229,0.3052893 -0.147272,0.5404354 0.154075,0.6145189 0.469093,0.1153217 0.527709,0.1114388 0.527709,-0.034961 z M 7.9888517,-4.8783939 c 0.3848073,-0.1389127 0.1364139,-0.6775038 -0.312457,-0.6775038 -0.3992906,0 -0.458036,0.1063438 -0.2884328,0.5221262 0.1059259,0.2596804 0.22597,0.2907211 0.6008898,0.1553776 z M 40.73797,-5.795646 c 0,-0.3196635 -0.06779,-0.3834374 -0.365337,-0.3436851 -0.234783,0.031369 -0.383878,0.1716285 -0.417221,0.3924975 -0.04226,0.2799087 0.02553,0.3436851 0.365334,0.3436851 0.339802,0 0.417224,-0.072834 0.417224,-0.3924975 z M 7.8918581,-6.2307283 c 0.1119267,-0.084821 -0.18524,-0.6995043 -0.3372431,-0.6975703 -0.3978725,0.00505 -0.6238504,0.2675557 -0.5130509,0.5959681 0.085992,0.2548766 0.1926273,0.3075669 0.4638992,0.2292197 0.1937332,-0.055956 0.3676094,-0.1133802 0.3863948,-0.1276175 z M 40.871042,-7.1215742 c -0.03406,-0.2255833 -0.163481,-0.3436852 -0.376631,-0.3436852 -0.213149,0 -0.342572,0.1181019 -0.37663,0.3436852 -0.04256,0.2819248 0.02511,0.3436851 0.37663,0.3436851 0.351512,0 0.419192,-0.06176 0.376631,-0.3436851 z M 7.5239048,-7.5278485 c 0.1569164,-0.2388498 -0.093046,-0.6247787 -0.4046617,-0.6247787 -0.3664214,0 -0.5124079,0.199411 -0.3812962,0.5208368 0.1067143,0.2616094 0.6363572,0.3316557 0.7859579,0.1039419 z M 41.062712,-8.3817523 c 0,-0.2761703 -0.08724,-0.3818719 -0.315159,-0.3818719 -0.173339,0 -0.362482,0.07203 -0.420319,0.1600645 -0.173935,0.2647556 0.0538,0.6036792 0.40564,0.6036792 0.243581,0 0.329838,-0.099865 0.329838,-0.3818718 z M 7.0803335,-8.7332406 c 0.1118473,-0.066865 0.1557443,-0.2655968 0.1016503,-0.4601916 -0.073914,-0.2659005 -0.1724157,-0.3202186 -0.4404174,-0.2428695 -0.4472173,0.129076 -0.4279133,0.099596 -0.3198283,0.4884122 0.096679,0.3477921 0.3162035,0.4193392 0.6585954,0.2146489 z M 41.289425,-9.6175255 c 0.0545,-0.1336011 0.058,-0.3054437 0.0078,-0.3818718 -0.119276,-0.1815577 -0.721616,-0.1804797 -0.721616,0.00124 0,0.07714 -0.04435,0.2489826 -0.09856,0.3818718 -0.07367,0.1806164 0.0039,0.2416151 0.307372,0.2416151 0.22326,0 0.450519,-0.1093082 0.505015,-0.2429069 z M 6.9646604,-10.12587 c 0,-0.337734 -0.2188131,-0.623489 -0.4774247,-0.623489 -0.3817382,0 -0.4764273,0.116693 -0.3790236,0.467091 0.083333,0.2997811 0.8564483,0.4409614 0.8564483,0.156398 z m 34.5558676,-0.892359 c 0.0422,-0.278234 -0.02604,-0.342125 -0.365337,-0.342125 -0.29633,0 -0.417221,0.08114 -0.417221,0.280038 0,0.592058 0.693835,0.647106 0.782558,0.06209 z M 6.5774136,-11.42745 c 0.1546489,-0.379124 -0.1398217,-0.674059 -0.5337783,-0.534619 -0.2545582,0.0901 -0.328369,0.212458 -0.265213,0.439655 0.1003882,0.361135 0.6631357,0.428021 0.7989913,0.09496 z M 41.6829,-12.315033 c -0.03406,-0.225584 -0.163481,-0.343685 -0.376629,-0.343685 -0.213151,0 -0.342574,0.118101 -0.376629,0.343685 -0.04256,0.281925 0.02511,0.343685 0.376629,0.343685 0.351512,0 0.41919,-0.06176 0.376629,-0.343685 z M 6.3151718,-12.910451 c 0,-0.341814 -0.3663367,-0.516275 -0.7010478,-0.333856 -0.1631236,0.0889 -0.1935956,0.227507 -0.1009465,0.459161 0.1661081,0.415317 0.8019943,0.315962 0.8019943,-0.125305 z m 35.6924702,-0.704508 c 0.0422,-0.278233 -0.02604,-0.342124 -0.365334,-0.342124 -0.296333,0 -0.417224,0.08114 -0.417224,0.280038 0,0.592058 0.693835,0.647105 0.782558,0.06209 z M 5.9092429,-14.186206 c 0,-0.200519 -0.1255422,-0.322272 -0.365334,-0.354308 -0.2996882,-0.04004 -0.3653366,0.02362 -0.3653366,0.354308 0,0.33068 0.065648,0.394347 0.3653366,0.354308 0.2397918,-0.03204 0.365334,-0.153792 0.365334,-0.354308 z m 36.2545561,-1.016748 c -0.280416,-0.167393 -0.613971,-0.161207 -0.613971,0.01137 0,0.07714 -0.04212,0.243515 -0.0936,0.369718 -0.148921,0.365081 0.63115,0.401292 0.788755,0.03662 0.08082,-0.187014 0.05136,-0.338601 -0.08119,-0.417722 z m -36.7549493,0.08391 c 0.2770028,-0.1 0.3506178,-0.598472 0.1091168,-0.738883 -0.2829189,-0.164492 -0.6641385,0.103033 -0.6641385,0.466071 0,0.37704 0.1127575,0.432466 0.5550217,0.272812 z M 42.58787,-16.031687 c 0.169715,-0.416051 0.110797,-0.522126 -0.289999,-0.522126 -0.385905,0 -0.670285,0.358627 -0.495429,0.624779 0.149256,0.227189 0.679132,0.157936 0.785428,-0.102653 z M 5.3116444,-16.744749 c -0.034057,-0.225583 -0.1634807,-0.343685 -0.3766317,-0.343685 -0.2131483,0 -0.3425718,0.118102 -0.376629,0.343685 -0.042561,0.281925 0.025109,0.343685 0.376629,0.343685 0.3515122,0 0.4191926,-0.06176 0.3766317,-0.343685 z m 37.6222266,-0.584319 c 0.122661,-0.363568 0.11521,-0.37441 -0.349403,-0.508511 -0.278165,-0.08029 -0.360545,-0.02577 -0.422609,0.279654 -0.07186,0.353624 0.02199,0.44306 0.55422,0.528148 0.06096,0.0097 0.158967,-0.124937 0.217792,-0.299291 z m -37.9763898,-0.52311 c 0.1556226,-0.381508 -0.052946,-0.671243 -0.418465,-0.581325 -0.4642299,0.114207 -0.4683865,0.810448 -0.00484,0.810448 0.1814116,0 0.3718983,-0.103105 0.4233016,-0.229123 z m 38.3508468,-0.938456 c -0.03331,-0.162725 -0.195466,-0.283535 -0.380566,-0.283535 -0.430337,0 -0.543565,0.635631 -0.129048,0.724447 0.384395,0.08236 0.581774,-0.08841 0.509614,-0.440912 z M 4.6914559,-19.312093 c 0,-0.343336 -0.2124313,-0.480402 -0.5536485,-0.357225 -0.249092,0.08992 -0.3537717,0.530708 -0.1676215,0.705826 0.1877404,0.176614 0.72127,-0.08125 0.72127,-0.348601 z m 39.0503891,-0.678569 c 0,-0.426127 -0.658421,-0.505537 -0.773033,-0.09323 -0.105455,0.379365 0.01545,0.50075 0.441608,0.443363 0.207365,-0.02792 0.331425,-0.158989 0.331425,-0.350129 z M 4.3374143,-20.56347 c -0.033345,-0.220869 -0.1824408,-0.361128 -0.417224,-0.392495 -0.2975425,-0.03975 -0.3653367,0.02402 -0.3653367,0.343686 0,0.319661 0.077422,0.392495 0.4172241,0.392495 0.339799,0 0.4075932,-0.06378 0.3653366,-0.343686 z m 39.9400717,-0.602442 c 0.02874,-0.140388 -0.09946,-0.331633 -0.28489,-0.424992 -0.287644,-0.144819 -0.3576,-0.118301 -0.47647,0.180629 -0.09036,0.227226 -0.07518,0.390569 0.0432,0.464742 0.283356,0.177552 0.660384,0.06186 0.718164,-0.220379 z M 3.8563807,-21.577794 c 0.1334664,-0.07955 0.1792525,-0.253122 0.1161309,-0.440217 -0.1489234,-0.441407 -0.7423996,-0.27179 -0.7423996,0.21218 0,0.37366 0.2371196,0.460002 0.6262687,0.228037 z M 44.84217,-22.350575 c 0.05746,-0.206707 -0.01304,-0.331566 -0.222506,-0.394111 -0.601956,-0.179732 -0.898999,0.38461 -0.353579,0.671755 0.340548,0.179284 0.465855,0.118893 0.576085,-0.277644 z M 3.7172258,-23.144623 c 0,-0.341813 -0.3663394,-0.516274 -0.7010479,-0.333856 -0.1631262,0.0889 -0.1935982,0.227507 -0.1009465,0.459164 0.1661054,0.415314 0.8019944,0.315962 0.8019944,-0.125308 z m -0.3549941,-1.238028 c 0.059592,-0.294131 -0.3244188,-0.500096 -0.6878187,-0.368909 -0.1436819,0.05187 -0.1970405,0.205372 -0.1412054,0.406227 0.1097597,0.394847 0.7472784,0.366149 0.8290241,-0.03732 z m -0.3415241,-1.094426 c 0.018785,-0.01424 -0.00855,-0.179467 -0.060722,-0.367179 -0.073591,-0.264736 -0.1723152,-0.318949 -0.4400814,-0.241668 -0.4474395,0.129141 -0.4280402,0.09914 -0.3186403,0.492696 0.073591,0.264736 0.1723125,0.318947 0.4400814,0.241668 0.189865,-0.0548 0.3605768,-0.111282 0.3793623,-0.125517 z m -0.4280402,-1.356656 c -0.00661,-0.05885 -0.012039,-0.210106 -0.012039,-0.336123 0,-0.239616 -0.5694626,-0.321757 -0.7132557,-0.102882 -0.045617,0.06943 -0.04272,0.270919 0.00643,0.447749 0.068212,0.245376 0.1653301,0.295075 0.4101411,0.209883 0.1764215,-0.06139 0.3153463,-0.159778 0.3087236,-0.218627 z m -0.4491963,-1.109733 c 0.142396,-0.0514 0.2056976,-0.205659 0.1567153,-0.381872 -0.1105747,-0.397779 -0.8561625,-0.411359 -0.8561625,-0.01558 0,0.447599 0.217768,0.571349 0.6994472,0.397463 z m -0.4691697,-1.228468 c 0.2770028,-0.1 0.3506178,-0.598472 0.1091168,-0.738881 -0.4081674,-0.237311 -0.89897737,0.407014 -0.5558922,0.729766 0.1317916,0.123981 0.1287568,0.123919 0.4467754,0.0091 z"
       id="path981" />
    <path
       style="fill:none;stroke:#3a7c0e;stroke-width:0.678941;stroke-linecap:butt;stroke-linejoin:miter;stroke-miterlimit:4;stroke-dasharray:none;stroke-opacity:1"
       d="M 9.749979,-33.351778 C 20.028678,-8.5210586 21.154764,20.987066 25.624977,48.786187"
       id="path904"
       sodipodi:nodetypes="cc" />
    <path
       style="fill:none;stroke:#3a7c0e;stroke-width:0.678941;stroke-linecap:butt;stroke-linejoin:miter;stroke-miterlimit:4;stroke-dasharray:none;stroke-opacity:1"
       d="M 38.854143,-28.37372 C 24.429163,-8.4769174 32.23956,18.917837 37.531226,48.786188"
       id="path906"
       sodipodi:nodetypes="cc" />
  </g>
</svg>
