<svg class="write-page" width="1630px" height="840px" xmlns="http://www.w3.org/2000/svg" xmlns:xlink="http://www.w3.org/1999/xlink">
  <g class="write-content write-v3" width="1630" height="840" xruling="30" yruling="30" marginLeft="30" papercolor="#1B1C1C" rulecolor="#3A00F9FF">
    <g class="ruleline write-std-ruling write-scale-down" fill="none" stroke="#00F9FF" stroke-opacity="0.227" stroke-width="1" shape-rendering="crispEdges" vector-effect="non-scaling-stroke">
      <rect class="pagerect" fill="#1B1C1C" stroke="none" x="0" y="0" width="1630" height="840" />
      <path class="yrule_1" d="M0 30 l1630 0" />
      <path d="M0 60 l1630 0" />
      <path d="M0 90 l1630 0" />
      <path d="M0 120 l1630 0" />
      <path d="M0 150 l1630 0" />
      <path d="M0 180 l1630 0" />
      <path d="M0 210 l1630 0" />
      <path d="M0 240 l1630 0" />
      <path d="M0 270 l1630 0" />
      <path d="M0 300 l1630 0" />
      <path d="M0 330 l1630 0" />
      <path d="M0 360 l1630 0" />
      <path d="M0 390 l1630 0" />
      <path d="M0 420 l1630 0" />
      <path d="M0 450 l1630 0" />
      <path d="M0 480 l1630 0" />
      <path d="M0 510 l1630 0" />
      <path d="M0 540 l1630 0" />
      <path d="M0 570 l1630 0" />
      <path d="M0 600 l1630 0" />
      <path d="M0 630 l1630 0" />
      <path d="M0 660 l1630 0" />
      <path d="M0 690 l1630 0" />
      <path d="M0 720 l1630 0" />
      <path d="M0 750 l1630 0" />
      <path d="M0 780 l1630 0" />
      <path d="M0 810 l1630 0" />
      <path class="xrule_1" d="M30 0 l0 840" />
      <path d="M60 0 l0 840" />
      <path d="M90 0 l0 840" />
      <path d="M120 0 l0 840" />
      <path d="M150 0 l0 840" />
      <path d="M180 0 l0 840" />
      <path d="M210 0 l0 840" />
      <path d="M240 0 l0 840" />
      <path d="M270 0 l0 840" />
      <path d="M300 0 l0 840" />
      <path d="M330 0 l0 840" />
      <path d="M360 0 l0 840" />
      <path d="M390 0 l0 840" />
      <path d="M420 0 l0 840" />
      <path d="M450 0 l0 840" />
      <path d="M480 0 l0 840" />
      <path d="M510 0 l0 840" />
      <path d="M540 0 l0 840" />
      <path d="M570 0 l0 840" />
      <path d="M600 0 l0 840" />
      <path d="M630 0 l0 840" />
      <path d="M660 0 l0 840" />
      <path d="M690 0 l0 840" />
      <path d="M720 0 l0 840" />
      <path d="M750 0 l0 840" />
      <path d="M780 0 l0 840" />
      <path d="M810 0 l0 840" />
      <path d="M840 0 l0 840" />
      <path d="M870 0 l0 840" />
      <path d="M900 0 l0 840" />
      <path d="M930 0 l0 840" />
      <path d="M960 0 l0 840" />
      <path d="M990 0 l0 840" />
      <path d="M1020 0 l0 840" />
      <path d="M1050 0 l0 840" />
      <path d="M1080 0 l0 840" />
      <path d="M1110 0 l0 840" />
      <path d="M1140 0 l0 840" />
      <path d="M1170 0 l0 840" />
      <path d="M1200 0 l0 840" />
      <path d="M1230 0 l0 840" />
      <path d="M1260 0 l0 840" />
      <path d="M1290 0 l0 840" />
      <path d="M1320 0 l0 840" />
      <path d="M1350 0 l0 840" />
      <path d="M1380 0 l0 840" />
      <path d="M1410 0 l0 840" />
      <path d="M1440 0 l0 840" />
      <path d="M1470 0 l0 840" />
      <path d="M1500 0 l0 840" />
      <path d="M1530 0 l0 840" />
      <path d="M1560 0 l0 840" />
      <path d="M1590 0 l0 840" />
      <path d="M1620 0 l0 840" />
      <path class="leftmargin" stroke="#FF0000" d="M30 0 l0 840" />
    </g>
    <path class="write-stroke-pen" transform="translate(-195.15,-1468.745)" fill="none" stroke="#FFFFFF" stroke-width="1.2" stroke-linecap="round" stroke-linejoin="round" __comx="197.907" __comy="131.501" __timestamp="0x17a88ca19ca" d="M392.426 1596.131 l0 0 0 0 -0.002 0.021 -0.003 0.052 0.008 0.099 0.047 0.183 0.045 0.213 0.059 0.304 0.105 0.422 0.096 0.5 0.149 0.631 0.132 0.705 0.174 0.799 0.137 0.867 0.119 0.934 0.168 1.121 0.099 1.153 0.081 1.236 0.045 1.254 0.046 1.218 0.026 1.244 0.002 1.271 -0.033 1.21 -0.062 1.184 -0.13 1.112 -0.095 0.957 -0.139 0.904 -0.098 0.726 -0.124 0.631 -0.092 0.505 -0.11 0.465 -0.082 0.364 -0.063 0.274 -0.055 0.231 -0.028 0.106 -0.052 0.187 -0.021 0.065 -0.022 0.06 -0.007 0.019 -0.017 0.041 -0.073 0.143 -0.064 0.096 -0.072 0.061 -0.062 -0.004 -0.303 -0.019" />
    <path class="write-stroke-pen" transform="translate(-195.15,-1468.745)" fill="none" stroke="#FFFFFF" stroke-width="1.2" stroke-linecap="round" stroke-linejoin="round" __comx="204.498" __comy="129.988" __timestamp="0x17a88ca1c08" d="M389.95 1599.969 l-0.003 -0.029 -0.003 -0.013 -0.02 -0.082 -0.006 -0.022 -0.015 -0.081 -0.005 -0.028 -0.014 -0.115 -0.004 -0.034 -0.012 -0.135 -0.003 -0.04 -0.005 -0.189 0.002 -0.15 0.009 -0.144 0.046 -0.236 0.037 -0.169 0.095 -0.27 0.104 -0.249 0.112 -0.235 0.158 -0.293 0.174 -0.294 0.19 -0.289 0.24 -0.326 0.233 -0.293 0.269 -0.316 0.27 -0.297 0.28 -0.293 0.295 -0.287 0.296 -0.266 0.297 -0.247 0.366 -0.273 0.377 -0.257 0.431 -0.266 0.438 -0.219 0.469 -0.237 0.448 -0.183 0.433 -0.147 0.441 -0.126 0.445 -0.099 0.503 -0.086 0.454 -0.06 0.485 -0.045 0.491 -0.019 0.469 0.007 0.562 0.069 0.509 0.065 0.516 0.116 0.454 0.123 0.405 0.128 0.423 0.159 0.387 0.174 0.359 0.186 0.373 0.232 0.327 0.249 0.308 0.283 0.266 0.321 0.281 0.391 0.221 0.427 0.185 0.497 0.139 0.515 0.102 0.555 0.054 0.625 -0.025 0.707 -0.075 0.67 -0.132 0.708 -0.172 0.685 -0.211 0.646 -0.272 0.68 -0.292 0.66 -0.313 0.641 -0.359 0.69 -0.368 0.647 -0.395 0.616 -0.434 0.612 -0.417 0.523 -0.448 0.501 -0.451 0.474 -0.482 0.456 -0.511 0.435 -0.498 0.392 -0.538 0.375 -0.546 0.341 -0.576 0.32 -0.576 0.28 -0.516 0.2 -0.479 0.187 -0.405 0.133 -0.338 0.099 -0.295 0.08 -0.224 0.056 -0.203 0.047 -0.065 0.014 -0.181 0.036 -0.022 0.004 -0.022 0.004 -0.022 0.004 -0.043 0.007 -0.042 0.006 -0.039 0.005 -0.065 0.007 -0.141 0.013 -0.035 0.004 -0.092 0.007 -0.032 0.005 0.011 0.005 0.05 0.004 0.106 0.008 0.16 0.02 0.196 0.029 0.299 0.046 0.377 0.086 0.361 0.075 0.41 0.085 0.473 0.12 0.412 0.095 0.502 0.109 0.565 0.149 0.536 0.122 0.6 0.161 0.623 0.14 0.663 0.179 0.626 0.148 0.678 0.204 0.652 0.212 0.625 0.216 0.606 0.228 0.554 0.226 0.528 0.231 0.49 0.237 0.486 0.251 0.462 0.27 0.402 0.258 0.389 0.276 0.359 0.289 0.319 0.282 0.295 0.295 0.257 0.283 0.201 0.265 0.18 0.278 0.194 0.302 0.139 0.264 0.114 0.235 0.104 0.235 0.074 0.191 0.066 0.194 0.56 1.646" />
    <path class="write-stroke-pen" transform="translate(-195.15,-1468.745)" fill="none" stroke="#FFFFFF" stroke-width="1.2" stroke-linecap="round" stroke-linejoin="round" __comx="221.337" __comy="116.44" __timestamp="0x17a88ca290c" d="M415.726 1585.361 l0 -0.019 0 -0.009 0.007 -0.085 0.004 -0.024 0.016 -0.092 0.007 -0.033 0.021 -0.127 0.005 -0.035 0.026 -0.169 0.006 -0.041 0.018 -0.154 0.005 -0.045 0.014 -0.15 0.003 -0.032 0.01 -0.16 0 -0.061 -0.002 -0.062 -0.006 -0.073 -0.009 -0.073 -0.016 -0.086 -0.046 -0.142 -0.021 -0.058 -0.027 -0.061 -0.082 -0.135 -0.037 -0.054 -0.115 -0.124 -0.101 -0.089 -0.128 -0.087 -0.126 -0.064 -0.188 -0.053 -0.154 -0.028 -0.222 0.007 -0.195 0.036 -0.244 0.089 -0.24 0.124 -0.249 0.165 -0.268 0.221 -0.236 0.22 -0.257 0.262 -0.266 0.305 -0.224 0.279 -0.206 0.306 -0.231 0.345 -0.159 0.263 -0.193 0.313 -0.138 0.247 -0.119 0.233 -0.095 0.195 -0.084 0.177 -0.043 0.091 -0.083 0.193 -0.009 0.02 -0.017 0.041 -0.008 0.02 -0.017 0.045 -0.014 0.04 -0.017 0.058 -0.024 0.144 -0.015 0.119 0.013 0.12 0.023 0.082 0.058 0.05 0.082 0.01 0.099 -0.028 0.114 -0.06 0.136 -0.092 0.108 -0.102 0.162 -0.159 0.115 -0.14 0.188 -0.222 0.116 -0.164 0.094 -0.147 0.132 -0.194 0.087 -0.151 0.129 -0.208 0.085 -0.16 0.08 -0.156 0.04 -0.075 0.091 -0.18 0.027 -0.051 0.035 -0.066 0.028 -0.056 0.027 -0.056 0.019 -0.036 0.009 -0.018 0.036 -0.063 0.074 -0.108 0.064 -0.073 0.054 -0.042 0.055 -0.01 0.043 0.026 0.036 0.075 0.026 0.111 0.016 0.157 0.011 0.219 0.004 0.251 -0.001 0.298 -0.006 0.343 -0.01 0.41 -0.009 0.452 -0.007 0.493 -0.005 0.531 -0.004 0.541 -0.003 0.548 -0.002 0.526 -0.002 0.477 -0.001 0.455 -0.001 0.458 -0.001 0.408 0 0.358 0 0.36 0 0.31 0 0.286 0 0.237 0 0.213 0.003 0.103 0.005 0.214 0.004 0.082 0.006 0.082 0.008 0.082 0.011 0.08 0.012 0.068 0.047 0.162 0.012 0.038 0.066 0.142 0.035 0.064 0.133 0.145 0.037 0.035 0.181 0.092 0.113 0.04 0.189 0.016 0.14 0.002 0.255 -0.052 0.228 -0.073 0.256 -0.114 0.264 -0.138 0.291 -0.179 0.292 -0.201 0.32 -0.241 0.337 -0.266 0.333 -0.283 0.327 -0.303 0.307 -0.309 0.298 -0.331 0.288 -0.344 0.291 -0.375 0.281 -0.385 0.295 -0.435 0.274 -0.421 0.257 -0.418 0.25 -0.424 0.184 -0.37 0.235 -0.427 0.196 -0.359 0.148 -0.305 0.205 -0.38 0.138 -0.284 0.171 -0.311 0.111 -0.217 0.807 -1.571" />
    <path class="write-stroke-pen" transform="translate(-195.15,-1468.745)" fill="none" stroke="#FFFFFF" stroke-width="1.2" stroke-linecap="round" stroke-linejoin="round" __comx="228.211" __comy="148.657" __timestamp="0x17a88ca316f" d="M431.052 1610.418 l0.005 -0.024 0.03 -0.03 0.044 -0.077 0.047 -0.054 0.044 -0.074 0.019 -0.031 0.054 -0.109 0.015 -0.032 0.056 -0.146 0.036 -0.111 0.013 -0.042 0.046 -0.193 0.025 -0.133 0.008 -0.069 0.011 -0.223 0 -0.073 -0.035 -0.245 -0.014 -0.073 -0.074 -0.228 -0.022 -0.06 -0.117 -0.234 -0.093 -0.143 -0.107 -0.133 -0.152 -0.155 -0.148 -0.127 -0.193 -0.13 -0.227 -0.121 -0.262 -0.11 -0.321 -0.1 -0.389 -0.073 -0.502 -0.015 -0.503 0.013 -0.533 0.079 -0.545 0.124 -0.53 0.16 -0.546 0.208 -0.549 0.249 -0.51 0.272 -0.511 0.311 -0.486 0.346 -0.434 0.355 -0.403 0.369 -0.359 0.381 -0.314 0.387 -0.272 0.379 -0.204 0.345 -0.209 0.366 -0.153 0.316 -0.135 0.325 -0.101 0.283 -0.09 0.289 -0.071 0.269 -0.055 0.276 -0.037 0.283 0.004 0.334 0.008 0.225 0.052 0.257 0.081 0.271 0.093 0.199 0.131 0.201 0.166 0.185 0.189 0.157 0.265 0.162 0.346 0.109 0.329 0.064 0.469 -0.02 0.439 -0.092 0.451 -0.142 0.436 -0.189 0.482 -0.252 0.46 -0.275 0.437 -0.291 0.463 -0.334 0.373 -0.306 0.373 -0.343 0.35 -0.344 0.29 -0.311 0.282 -0.323 0.264 -0.314 0.192 -0.271 0.228 -0.316 0.148 -0.238 0.172 -0.269 0.109 -0.2 0.1 -0.193 0.092 -0.191 0.079 -0.172 0.027 -0.061 0.082 -0.217 0.015 -0.041 0.019 -0.059 0.02 -0.074 0.016 -0.073 0.012 -0.072 0.007 -0.149 0 -0.035 -0.004 -0.068 -0.028 -0.123 -0.02 -0.06 -0.046 -0.084 -0.029 -0.035 -0.098 -0.029 -0.066 0.012 -0.064 0.04 -0.078 0.084 -0.078 0.125 -0.079 0.183 -0.078 0.25 -0.067 0.302 -0.059 0.374 -0.051 0.401 -0.043 0.469 -0.034 0.513 -0.014 0.554 0.01 0.647 0.03 0.708 0.1 0.741 0.098 0.815 0.137 0.86 0.116 0.866 0.16 0.994 0.1 1.025 0.093 1.082 0.078 1.132 0.044 1.094 0.025 1.063 0.015 1.064 -0.032 1.068 -0.132 1.06 -0.173 0.992 -0.203 0.991 -0.224 0.941 -0.255 0.898 -0.292 0.902 -0.306 0.827 -0.327 0.742 -0.372 0.743 -0.374 0.666 -0.417 0.657 -0.434 0.624 -0.429 0.584 -0.472 0.573 -0.486 0.516 -0.486 0.448 -0.55 0.419 -0.536 0.339 -0.513 0.252 -0.559 0.219 -0.547 0.173 -0.53 0.129 -0.565 0.101 -0.601 0.065 -0.554 0.026 -0.624 -0.068 -0.582 -0.113 -0.47 -0.134 -0.521 -0.218 -0.427 -0.237 -0.403 -0.29 -0.339 -0.306 -0.269 -0.329 -0.228 -0.359 -0.192 -0.402 -0.156 -0.446 -0.104 -0.467 -0.013 -0.537 0.067 -0.533 0.145 -0.549 0.221 -0.562 0.288 -0.552 0.377 -0.571 0.436 -0.559 0.497 -0.545 0.538 -0.516 0.564 -0.494 0.602 -0.489 0.646 -0.5 0.675 -0.5 0.681 -0.49 0.739 -0.517 1.313 -0.919" />
    <path class="write-stroke-pen" transform="translate(-195.15,-1468.745)" fill="none" stroke="#FFFFFF" stroke-width="1.2" stroke-linecap="round" stroke-linejoin="round" __comx="243.578" __comy="148.657" __timestamp="0x17a88ca32a1" d="M436.227 1615.246 l0 0.003 0 0.044 0.005 0.056 0.011 0.085 0.021 0.119 0.028 0.139 0.065 0.192 0.054 0.181 0.104 0.272 0.076 0.227 0.13 0.313 0.101 0.27 0.173 0.374 0.171 0.333 0.202 0.375 0.214 0.37 0.203 0.362 0.203 0.357 0.189 0.32 0.185 0.31 0.2 0.314 0.176 0.27 0.172 0.248 0.171 0.228 0.132 0.159 0.197 0.231 0.063 0.073 0.192 0.215 0.043 0.048 0.065 0.072 0.066 0.072 0.138 0.135 0.031 0.032 0.031 0.032 0.015 0.016 0.015 0.016 0.014 0.016 1.149 1.292" />
    <path class="write-stroke-pen" transform="translate(-195.15,-1468.745)" fill="none" stroke="#FFFFFF" stroke-width="1.2" stroke-linecap="round" stroke-linejoin="round" __comx="243.485" __comy="148.657" __timestamp="0x17a88ca33d5" d="M437.292 1620.049 l0 -0.001 0 -0.002 0 -0.004 0.003 -0.008 0.006 -0.01 0.009 -0.012 0.04 -0.034 0.018 -0.016 0.085 -0.077 0.026 -0.023 0.121 -0.103 0.04 -0.035 0.176 -0.146 0.04 -0.035 0.209 -0.192 0.148 -0.138 0.176 -0.167 0.234 -0.215 0.179 -0.171 0.156 -0.176 0.21 -0.223 0.129 -0.153 0.184 -0.212 0.116 -0.144 0.124 -0.137 0.153 -0.211 0.104 -0.152 0.043 -0.063 0.117 -0.192 0.032 -0.051 0.083 -0.153 0.029 -0.056 0.02 -0.042 0.009 -0.018 0.023 -0.054 0.019 -0.052 0.029 -0.128 0.01 -0.059 -0.004 -0.126 -0.008 -0.043 -0.067 -0.05 -0.088 0.012 -0.116 0.068 -0.161 0.156 -0.174 0.212 -0.198 0.3 -0.198 0.346 -0.224 0.413 -0.211 0.427 -0.225 0.478 -0.222 0.512 -0.17 0.481 -0.219 0.565 -0.166 0.522 -0.163 0.484 -0.135 0.46 -0.111 0.396 -0.098 0.352 -0.087 0.307 -0.078 0.28 -0.06 0.212 -0.034 0.108 -0.027 0.089 -0.021 0.068 -0.006 0.021 -0.013 0.041 -0.018 0.056 -0.062 0.155 -0.037 0.084 -0.038 0.066 -0.026 0.022 -0.017 -0.016 -0.009 -0.064 -0.008 -0.102 -0.008 -0.162 -0.006 -0.181 0.003 -0.227 0.003 -0.25 0.013 -1.224" />
    <path class="write-stroke-pen" transform="translate(-195.15,-1468.745)" fill="none" stroke="#FFFFFF" stroke-width="1.2" stroke-linecap="round" stroke-linejoin="round" __comx="244.498" __comy="148.657" __timestamp="0x17a88ca346e" d="M435.484 1618.588 l-0.003 0 -0.006 -0.002 -0.013 -0.005 -0.011 -0.003 -0.013 -0.003 -0.005 -0.001 -0.01 -0.002 -0.008 -0.001 -0.012 0 -0.011 0.001 -0.01 0.002 -0.01 0.003 -0.015 0.008 -0.011 0.01 -0.003 0.023 0.001 0.009 0.026 0.033 0.011 0.012 0.07 0.04 0.074 0.032 0.078 0.025 0.102 0.025 0.145 0.027 0.128 0.02 0.21 0.025 0.246 0.023 0.286 0.012 0.321 0.011 0.363 -0.005 0.395 -0.014 0.408 -0.026 0.416 -0.036 0.5 -0.08 0.418 -0.062 0.456 -0.097 0.473 -0.088 0.429 -0.078 0.432 -0.077 0.487 -0.084 0.411 -0.071 1.723 -0.298" />
    <path class="write-stroke-pen" transform="translate(-195.15,-1468.745)" fill="none" stroke="#FFFFFF" stroke-width="1.2" stroke-linecap="round" stroke-linejoin="round" __comx="392.246" __comy="135.884" __timestamp="0x17a88ca67be" d="M572.576 1604.649 l-0.041 0 -0.059 0 -0.081 0.003 -0.043 0.006 -0.096 0.015 -0.029 0.006 -0.039 0.01 -0.036 0.009 -0.011 0.003 -0.011 0.003 -0.021 0.006 -0.029 0.01 -0.057 0.032 -0.017 0.026 0.029 0.033 0.101 0.038 0.196 0.042 0.343 0.053 0.45 0.056 0.622 0.063 0.721 0.07 0.805 0.057 0.883 0.057 0.923 0.046 0.958 0.039 1.077 0.036 1.13 0.032 1.211 0.031 1.231 0.04 1.222 0.033 1.248 0.03 1.273 0.028 1.268 0.015 1.236 0.019 1.266 0.022 1.206 0.023 1.209 0.024 1.182 0.024 1.156 0.013 1.13 0.007 1.134 0.015 1.107 0.008 1.024 0.015 0.973 0.008 0.923 0.005 1.536 0.008" />
    <path class="write-stroke-pen" transform="translate(-195.15,-1468.745)" fill="none" stroke="#FFFFFF" stroke-width="1.2" stroke-linecap="round" stroke-linejoin="round" __comx="408.382" __comy="132.229" __timestamp="0x17a88ca69f7" d="M599.094 1602.173 l-0.036 -0.01 -0.071 -0.038 -0.078 -0.032 -0.089 -0.035 -0.049 -0.021 -0.123 -0.049 -0.107 -0.064 -0.103 -0.055 -0.053 -0.03 -0.127 -0.097 -0.044 -0.033 -0.053 -0.041 -0.127 -0.122 -0.043 -0.041 -0.125 -0.138 -0.042 -0.047 -0.124 -0.168 -0.033 -0.046 -0.109 -0.183 -0.029 -0.051 -0.094 -0.197 -0.026 -0.055 -0.089 -0.23 -0.02 -0.055 -0.068 -0.22 -0.017 -0.058 -0.047 -0.184 -0.01 -0.039 -0.033 -0.172 -0.009 -0.057 -0.009 -0.085 -0.004 -0.071 -0.001 -0.07 0.003 -0.069 0.03 -0.16 0.012 -0.05 0.065 -0.152 0.067 -0.107 0.106 -0.112 0.14 -0.096 0.189 -0.064 0.199 -0.039 0.254 0.001 0.258 0.035 0.295 0.073 0.324 0.105 0.381 0.148 0.399 0.179 0.374 0.182 0.369 0.199 0.4 0.22 0.426 0.235 0.436 0.227 0.482 0.248 0.4 0.179 0.493 0.242 0.491 0.242 0.453 0.216 0.433 0.18 0.459 0.204 0.41 0.157 0.442 0.147 0.427 0.132 0.452 0.125 0.379 0.098 0.332 0.084 0.331 0.077 0.256 0.055 0.286 0.059 0.21 0.041 0.187 0.035 0.071 0.014 0.213 0.039 0.05 0.01 0.072 0.014 0.045 0.009 0.022 0.005 0.022 0.005 0.022 0.005 0.021 0.005 0.065 0.019 0.079 0.029 0.155 0.083 0.077 0.052 0.142 0.166 0.079 0.133 0.059 0.213 0.016 0.236 -0.004 0.244 -0.062 0.349 -0.061 0.31 -0.108 0.4 -0.098 0.38 -0.151 0.443 -0.117 0.37 -0.168 0.433 -0.127 0.354 -0.151 0.389 -0.111 0.311 -0.117 0.346 -0.096 0.297 -0.092 0.301 -0.089 0.286 -0.079 0.258 -0.061 0.208 -0.051 0.182 -0.019 0.069 -0.023 0.079 -0.025 0.079 -0.01 0.03 -0.007 0.021 -0.007 0.021 -0.021 0.059 -0.06 0.14 -0.02 0.043 -0.074 0.107 -0.462 0.665" />
    <path class="write-stroke-pen" transform="translate(-195.15,-1468.745)" fill="none" stroke="#FFFFFF" stroke-width="1.2" stroke-linecap="round" stroke-linejoin="round" __comx="394.724" __comy="121.88" __timestamp="0x17a88ca6f4a" d="M578.568 1594.992 l0 0 -0.001 0 -0.001 0 -0.001 0 -0.002 -0.001 -0.002 -0.002 -0.003 -0.006 -0.003 -0.009 -0.004 -0.049 0.001 -0.021 0.007 -0.073 0.002 -0.025 0.013 -0.107 0.009 -0.045 0.028 -0.13 0.014 -0.052 0.068 -0.178 0.043 -0.12 0.048 -0.132 0.095 -0.205 0.072 -0.172 0.074 -0.185 0.131 -0.271 0.095 -0.212 0.144 -0.288 0.148 -0.279 0.173 -0.321 0.196 -0.355 0.223 -0.379 0.242 -0.397 0.273 -0.418 0.275 -0.394 0.32 -0.408 0.338 -0.394 0.359 -0.379 0.364 -0.351 0.368 -0.326 0.399 -0.325 0.393 -0.289 0.419 -0.275 0.429 -0.226 0.419 -0.184 0.48 -0.175 0.461 -0.139 0.493 -0.113 0.473 -0.083 0.456 -0.047 0.489 -0.017 0.483 0.042 0.465 0.081 0.448 0.116 0.452 0.153 0.447 0.194 0.428 0.227 0.44 0.281 0.407 0.3 0.402 0.347 0.356 0.344 0.341 0.372 0.29 0.342 0.258 0.325 0.24 0.315 0.241 0.306 0.221 0.282 0.224 0.278 0.208 0.246 0.141 0.152 0.223 0.234 0.179 0.165 0.187 0.154 0.235 0.169 0.216 0.134 0.223 0.116 0.252 0.11 0.265 0.087 0.311 0.054 0.35 0.014 0.328 -0.023 0.359 -0.062 0.379 -0.108 0.347 -0.139 0.321 -0.163 0.312 -0.187 0.315 -0.236 0.31 -0.269 0.261 -0.258 0.261 -0.282 0.173 -0.217 0.194 -0.239 0.121 -0.166 1 -1.376" />
    <path class="write-stroke-pen" transform="translate(-195.15,-1468.745)" fill="none" stroke="#FFFFFF" stroke-width="1.2" stroke-linecap="round" stroke-linejoin="round" __comx="444.311" __comy="146.663" __timestamp="0x17a88ca7d11" d="M638.636 1591.08 l0 0 -0.001 0 -0.004 0.003 -0.013 0.031 -0.011 0.051 -0.011 0.079 -0.012 0.124 -0.004 0.18 0.006 0.242 0.019 0.292 0.027 0.357 0.042 0.453 0.105 0.557 0.093 0.608 0.096 0.707 0.137 0.79 0.111 0.828 0.17 0.994 0.135 1.023 0.171 1.119 0.122 1.152 0.106 1.236 0.182 1.359 0.094 1.349 0.075 1.433 0.037 1.392 0.018 1.36 0.009 1.331 0.004 1.275 0.002 1.223 -0.009 1.085 -0.015 0.955 -0.036 0.887 -0.036 0.757 -0.036 0.66 -0.034 0.536 -0.027 0.439 -0.021 0.344 -0.014 0.273 -0.012 0.204 -0.004 0.066 -0.003 0.049 -0.003 0.031 -0.002 0.021 -0.007 0.063 -0.029 0.176 -0.179 1.095" />
    <path class="write-stroke-pen" transform="translate(-195.15,-1468.745)" fill="none" stroke="#FFFFFF" stroke-width="1.2" stroke-linecap="round" stroke-linejoin="round" __comx="454.859" __comy="146.663" __timestamp="0x17a88ca7e19" d="M649.357 1609.922 l-0.003 0.035 -0.011 0.084 -0.022 0.185 -0.024 0.253 -0.02 0.318 -0.016 0.378 -0.012 0.41 0.002 0.437 0.012 0.432 0.021 0.471 0.028 0.482 0.036 0.543 0.038 0.523 0.048 0.557 0.048 0.558 0.047 0.534 0.044 0.483 0.039 0.407 0.039 0.384 0.036 0.289 0.061 0.292 0.039 0.184 0.022 0.092 0.062 0.178 0.016 0.044 0.024 0.057 0.036 0.074 0.091 0.136 0.089 0.089 0.642 0.648" />
    <path class="write-stroke-pen" transform="translate(-195.15,-1468.745)" fill="none" stroke="#FFFFFF" stroke-width="1.2" stroke-linecap="round" stroke-linejoin="round" __comx="454.843" __comy="146.663" __timestamp="0x17a88ca7ebc" d="M649.208 1601.702 l-0.004 -0.004 -0.009 -0.006 -0.016 -0.011 -0.012 -0.006 -0.004 -0.002 -0.008 -0.003 -0.012 -0.002 -0.015 0.003 -0.028 0.024 -0.009 0.013 -0.017 0.055 -0.007 0.066 0.023 0.109 0.019 0.085 0.058 0.148 0.05 0.135 0.116 0.216 0.124 0.207 0.156 0.242 0.184 0.261 0.228 0.309 0.891 1.206" />
    <path class="write-stroke-pen" transform="translate(-195.15,-1468.745)" fill="none" stroke="#FFFFFF" stroke-width="1.2" stroke-linecap="round" stroke-linejoin="round" __comx="470.181" __comy="146.663" __timestamp="0x17a88ca80d8" d="M655.696 1611.977 l0 0 -0.001 -0.001 -0.001 -0.001 -0.001 -0.001 -0.001 0 -0.001 0 -0.003 0.003 -0.003 0.005 -0.004 0.033 0.001 0.017 0.007 0.063 0.006 0.034 0.021 0.124 0.025 0.123 0.031 0.138 0.042 0.184 0.047 0.2 0.05 0.23 0.053 0.265 0.056 0.3 0.058 0.335 0.053 0.322 0.041 0.304 0.043 0.314 0.036 0.316 0.03 0.321 0.031 0.303 0.024 0.278 0.019 0.255 0.014 0.208 0.009 0.1 0.015 0.185 0.007 0.063 0.005 0.044 0.002 0.022 0.008 0.059 0.021 0.138 0.024 0.11 0.03 0.086 0.041 0.058 0.05 0.005 0.053 -0.051 0.06 -0.11 0.063 -0.155 0.072 -0.224 0.073 -0.262 0.077 -0.313 0.08 -0.361 0.082 -0.407 0.084 -0.45 0.082 -0.467 0.083 -0.504 0.075 -0.512 0.069 -0.52 0.105 -0.553 0.074 -0.522 0.109 -0.514 0.094 -0.475 0.13 -0.476 0.095 -0.371 0.141 -0.429 0.093 -0.297 0.117 -0.319 0.081 -0.228 0.129 -0.288 0.079 -0.179 0.156 -0.256 0.115 -0.203 0.156 -0.203 0.117 -0.135 0.118 -0.114 0.143 -0.115 0.152 -0.101 0.205 -0.087 0.208 -0.048 0.218 -0.007 0.24 0.042 0.27 0.104 0.229 0.156 0.301 0.254 0.264 0.283 0.222 0.335 0.23 0.394 0.192 0.438 0.165 0.466 0.137 0.46 0.165 0.523 0.112 0.475 0.096 0.439 0.087 0.42 0.075 0.397 0.067 0.376 0.06 0.354 0.055 0.332 0.047 0.284 0.047 0.286 0.04 0.22 0.02 0.1 0.043 0.214 0.011 0.049 0.015 0.066 0.012 0.049 0.013 0.048 0.017 0.057 0.058 0.149 0.051 0.106 0.066 0.083 0.083 0.03 0.087 -0.053 0.122 -0.145 0.097 -0.224 0.127 -0.302 0.112 -0.367 0.147 -0.436 0.126 -0.46 0.167 -0.522 0.123 -0.451 0.179 -0.537 0.128 -0.444 0.175 -0.471 0.16 -0.406 0.162 -0.374 0.151 -0.313 0.156 -0.291 0.17 -0.283 0.162 -0.248 0.175 -0.242 0.17 -0.195 0.21 -0.232 0.185 -0.172 0.2 -0.162 0.21 -0.15 0.214 -0.135 0.218 -0.116 0.225 -0.101 0.232 -0.085 0.268 -0.056 0.219 -0.031 0.326 0.009 0.33 0.047 0.34 0.085 0.391 0.148 0.36 0.184 0.347 0.217 0.375 0.288 0.357 0.318 0.379 0.396 0.357 0.433 0.335 0.469 0.302 0.498 0.284 0.541 0.269 0.579 0.201 0.544 0.201 0.554 0.154 0.533 0.13 0.518 0.148 0.524 0.461 1.634" />
    <path class="write-stroke-pen" transform="translate(-195.15,-1468.745)" fill="none" stroke="#FFFFFF" stroke-width="1.2" stroke-linecap="round" stroke-linejoin="round" __comx="454.949" __comy="146.663" __timestamp="0x17a88ca839e" d="M636.828 1626.338 l0 0 -0.001 0.002 -0.001 0.005 0.006 0.04 0.056 0.061 0.111 0.111 0.152 0.104 0.283 0.182 0.351 0.165 0.514 0.233 0.59 0.191 0.776 0.234 0.862 0.185 0.996 0.166 1.099 0.191 1.199 0.138 1.255 0.124 1.306 0.116 1.296 0.096 1.322 0.087 1.287 0.068 1.229 0.058 1.262 0.055 1.175 0.05 1.123 0.048 1.101 0.037 1.049 0.041 0.97 0.042 0.95 0.044 0.927 0.045 0.875 0.036 0.853 0.031 1.571 0.058" />
    <path class="write-stroke-pen" transform="translate(-195.15,-1468.745)" fill="none" stroke="#FFFFFF" stroke-width="1.2" stroke-linecap="round" stroke-linejoin="round" __comx="470.641" __comy="146.663" __timestamp="0x17a88ca85ae" d="M663.173 1627.576 l-0.007 -0.02 -0.027 -0.025 -0.041 -0.066 -0.063 -0.062 -0.07 -0.095 -0.086 -0.107 -0.065 -0.092 -0.108 -0.145 -0.086 -0.136 -0.122 -0.185 -0.095 -0.16 -0.093 -0.171 -0.121 -0.202 -0.086 -0.16 -0.082 -0.167 -0.084 -0.177 -0.075 -0.163 -0.075 -0.166 -0.031 -0.068 -0.08 -0.185 -0.024 -0.054 -0.032 -0.07 -0.028 -0.062 -0.02 -0.044 -0.009 -0.019 -0.009 -0.019 -0.018 -0.036 -0.018 -0.034 -0.034 -0.06 -0.059 -0.099 -0.023 -0.042 -0.033 -0.076 -0.007 -0.017 0.007 -0.022 0.007 -0.002 0.075 0.043 0.025 0.018 0.14 0.1 0.113 0.086 0.106 0.073 0.183 0.136 0.155 0.098 0.209 0.141 0.233 0.131 0.232 0.114 0.27 0.121 0.348 0.138 0.317 0.118 0.326 0.114 0.306 0.1 0.337 0.101 0.343 0.097 0.344 0.088 0.324 0.076 0.325 0.068 0.329 0.061 0.305 0.048 0.308 0.041 0.31 0.035 0.261 0.025 0.212 0.018 0.238 0.018 0.189 0.013 0.19 0.012 0.069 0.004 0.216 0.011 0.051 0.003 0.073 0.005 0.083 0.008 0.083 0.01 0.097 0.015 0.065 0.013 0.084 0.021 0.155 0.058 0.054 0.023 0.167 0.1 0.12 0.09 0.119 0.115 0.113 0.148 0.098 0.177 0.079 0.212 0.039 0.246 0.02 0.244 -0.029 0.302 -0.063 0.298 -0.096 0.321 -0.131 0.328 -0.139 0.305 -0.157 0.301 -0.158 0.266 -0.172 0.263 -0.168 0.231 -0.133 0.157 -0.186 0.221 -0.128 0.137 -0.141 0.139 -0.088 0.087 -0.196 0.167 -0.084 0.071 -0.165 0.125 -0.073 0.053 -1.393 1.004" />
    <path class="write-stroke-pen" transform="translate(-195.15,-1468.745)" fill="none" stroke="#FFFFFF" stroke-width="1.2" stroke-linecap="round" stroke-linejoin="round" __comx="458.676" __comy="172.379" __timestamp="0x17a88ca8865" d="M647.847 1640.575 l0 -0.001 0 -0.004 0.004 -0.01 0.006 -0.01 0.008 -0.008 0.01 -0.008 0.013 -0.008 0.015 -0.007 0.011 -0.005 0.013 -0.004 0.021 -0.005 0.03 -0.003 0.033 0.001 0.041 0.007 0.043 0.013 0.12 0.059 0.035 0.019 0.101 0.081 0.081 0.079 0.136 0.14 0.1 0.126 0.107 0.159 0.111 0.191 0.15 0.254 0.107 0.23 0.112 0.27 0.113 0.323 0.101 0.317 0.108 0.373 0.101 0.382 0.091 0.365 0.093 0.396 0.084 0.398 0.081 0.428 0.073 0.383 0.058 0.379 0.054 0.359 0.042 0.333 0.033 0.309 0.026 0.285 0.019 0.236 0.013 0.188 0.005 0.068 0.005 0.095 0.003 0.072 0.001 0.032 0 0.032 0 0.022 -0.002 0.06 -0.003 0.061 -0.02 0.166 -0.018 0.099 -0.023 0.063 -0.026 0.007 -0.028 -0.057 -0.028 -0.157 -0.024 -0.238 -0.008 -0.333 0.05 -0.409 0.053 -0.418 0.107 -0.483 0.123 -0.462 0.146 -0.5 0.154 -0.487 0.17 -0.464 0.172 -0.435 0.195 -0.434 0.205 -0.41 0.222 -0.398 0.221 -0.355 0.255 -0.356 0.259 -0.332 0.262 -0.309 0.265 -0.274 0.245 -0.235 0.257 -0.201 0.296 -0.194 0.287 -0.164 0.29 -0.134 0.299 -0.113 0.244 -0.069 0.304 -0.037 0.299 0.005 0.307 0.046 0.344 0.099 0.302 0.127 0.292 0.17 0.275 0.202 0.228 0.222 0.268 0.287 0.241 0.289 0.201 0.297 0.209 0.323 0.17 0.321 0.146 0.315 0.17 0.357 0.133 0.324 0.117 0.312 0.103 0.294 0.105 0.322 0.094 0.302 0.08 0.276 0.076 0.279 0.064 0.278 0.053 0.235 0.046 0.233 0.037 0.21 0.015 0.091 0.035 0.263 0.008 0.112 0.132 1.758" />
    <path class="write-stroke-pen" transform="translate(-195.15,-1468.745)" fill="none" stroke="#FFFFFF" stroke-width="1.2" stroke-linecap="round" stroke-linejoin="round" __comx="501.047" __comy="139.786" __timestamp="0x17a88ca94e8" d="M694.427 1594.548 l0 -0.023 0 -0.01 0 -0.044 0.001 -0.01 0.002 -0.01 0.006 -0.014 0.018 -0.011 0.012 0 0.046 0.056 0.047 0.093 0.092 0.182 0.092 0.27 0.14 0.383 0.138 0.511 0.212 0.708 0.17 0.786 0.219 0.945 0.221 1.029 0.167 1.107 0.226 1.218 0.163 1.301 0.224 1.372 0.15 1.366 0.173 1.343 0.11 1.301 0.08 1.277 0.063 1.195 0.056 1.174 0.028 1.036 0.015 0.906 0.009 0.835 0.005 0.654 0.003 0.585 0.002 0.437 0.01 0.37 0.017 0.28 0.018 0.23 0.011 0.091 0.016 0.107 0.013 0.077 0.008 0.041 0.013 0.055 0.05 0.153 0.054 0.108 0.061 0.067 0.378 0.415" />
    <path class="write-stroke-pen" transform="translate(-195.15,-1468.745)" fill="none" stroke="#FFFFFF" stroke-width="1.2" stroke-linecap="round" stroke-linejoin="round" __comx="509.683" __comy="139.786" __timestamp="0x17a88ca9739" d="M695.689 1599.005 l-0.009 -0.03 -0.026 -0.029 -0.049 -0.081 -0.049 -0.055 -0.044 -0.066 -0.021 -0.03 -0.06 -0.097 -0.023 -0.037 -0.065 -0.115 -0.021 -0.038 -0.07 -0.157 -0.019 -0.044 -0.065 -0.176 -0.042 -0.132 -0.015 -0.049 -0.047 -0.222 -0.011 -0.074 -0.017 -0.216 0.011 -0.212 0.012 -0.156 0.053 -0.242 0.07 -0.226 0.091 -0.222 0.152 -0.286 0.165 -0.252 0.243 -0.307 0.295 -0.308 0.359 -0.313 0.372 -0.293 0.444 -0.303 0.479 -0.283 0.543 -0.28 0.587 -0.231 0.66 -0.255 0.656 -0.19 0.723 -0.165 0.729 -0.137 0.789 -0.124 0.731 -0.079 0.735 -0.054 0.682 -0.035 0.658 -0.017 0.664 0.009 0.613 0.033 0.687 0.084 0.58 0.072 0.596 0.121 0.556 0.141 0.466 0.149 0.417 0.158 0.402 0.18 0.369 0.195 0.352 0.226 0.349 0.265 0.32 0.289 0.242 0.279 0.278 0.367 0.201 0.354 0.153 0.349 0.143 0.436 0.102 0.424 0.046 0.539 0.009 0.494 -0.079 0.59 -0.115 0.526 -0.148 0.525 -0.198 0.565 -0.239 0.556 -0.287 0.579 -0.343 0.581 -0.387 0.574 -0.46 0.592 -0.496 0.588 -0.538 0.578 -0.575 0.57 -0.543 0.493 -0.62 0.51 -0.589 0.436 -0.628 0.426 -0.703 0.424 -0.654 0.356 -0.666 0.338 -0.656 0.293 -0.617 0.257 -0.521 0.177 -0.531 0.183 -0.46 0.137 -0.392 0.107 -0.373 0.096 -0.275 0.067 -0.227 0.051 -0.09 0.02 -0.205 0.041 -0.066 0.013 -0.066 0.012 -0.049 0.007 -0.061 0.007 -0.042 0.004 -0.041 0.003 -0.069 0.001 -0.154 -0.006 -0.045 -0.004 -0.104 -0.022 -0.035 -0.021 0.013 -0.021 0.094 -0.023 0.156 -0.019 0.222 -0.016 0.268 -0.003 0.346 0.014 0.4 0.058 0.449 0.07 0.543 0.142 0.481 0.147 0.545 0.186 0.559 0.212 0.539 0.222 0.558 0.256 0.564 0.286 0.515 0.286 0.5 0.289 0.509 0.31 0.505 0.32 0.503 0.327 0.491 0.336 0.455 0.322 0.433 0.318 0.412 0.315 0.384 0.318 0.36 0.321 0.324 0.306 0.285 0.267 0.294 0.265 0.299 0.262 0.266 0.223 0.263 0.22 0.237 0.197 0.203 0.155 0.253 0.205 0.174 0.127 0.078 0.058 0.2 0.133 1.486 0.986" />
    <path class="write-stroke-pen" transform="translate(-195.15,-1468.745)" fill="none" stroke="#FFFFFF" stroke-width="1.2" stroke-linecap="round" stroke-linejoin="round" __comx="524.778" __comy="139.786" __timestamp="0x17a88ca9b2a" d="M720.623 1584.991 l-0.003 -0.029 -0.005 -0.047 -0.008 -0.085 -0.01 -0.076 -0.005 -0.03 -0.02 -0.145 -0.019 -0.121 -0.019 -0.13 -0.025 -0.159 -0.025 -0.152 -0.031 -0.164 -0.032 -0.166 -0.034 -0.157 -0.02 -0.076 -0.053 -0.217 -0.022 -0.079 -0.084 -0.233 -0.031 -0.078 -0.115 -0.243 -0.033 -0.064 -0.148 -0.251 -0.055 -0.087 -0.176 -0.243 -0.127 -0.148 -0.175 -0.171 -0.17 -0.146 -0.198 -0.149 -0.184 -0.122 -0.192 -0.114 -0.174 -0.089 -0.158 -0.071 -0.078 -0.033 -0.211 -0.071 -0.165 -0.033 -0.168 -0.023 -0.208 0.009 -0.176 0.037 -0.216 0.076 -0.183 0.103 -0.17 0.132 -0.168 0.171 -0.158 0.209 -0.144 0.248 -0.117 0.249 -0.108 0.286 -0.083 0.256 -0.065 0.243 -0.056 0.25 -0.048 0.257 -0.035 0.266 -0.017 0.228 -0.006 0.208 0.016 0.185 0.022 0.217 0.035 0.161 0.021 0.081 0.065 0.167 0.024 0.054 0.086 0.142 0.029 0.044 0.135 0.144 0.05 0.046 0.187 0.101 0.122 0.048 0.129 0.023 0.156 0.013 0.159 -0.023 0.125 -0.023 0.157 -0.063 0.174 -0.085 0.059 -0.031 0.201 -0.131 0.05 -0.034 0.179 -0.135 0.04 -0.031 0.114 -0.103 0.058 -0.053 0.128 -0.133 0.048 -0.049 0.058 -0.058 0.058 -0.059 0.05 -0.05 0.052 -0.05 0.044 -0.04 0.045 -0.039 0.03 -0.025 0.031 -0.024 0.035 -0.026 0.07 -0.044 0.137 -0.06 0.115 -0.029 0.049 -0.008 0.145 0.011 0.11 0.032 0.12 0.062 0.147 0.128 0.137 0.165 0.135 0.211 0.139 0.276 0.133 0.324 0.127 0.371 0.125 0.46 0.117 0.507 0.111 0.598 0.078 0.583 0.057 0.592 0.04 0.573 0.028 0.524 0.021 0.529 0.015 0.479 0.011 0.456 0.009 0.459 0.006 0.409 0.005 0.385 0.004 0.361 0.003 0.285 0.002 0.261 0.002 0.237 0.001 0.092 0.001 0.239 0 0.046 0 0.069 0 0.046 0 0.023 0.002 0.051 0.004 0.06 0.009 0.083 0.012 0.075 0.034 0.129 0.018 0.049 0.08 0.101 0.023 0.022 0.075 0.029 0.1 -0.001 0.072 -0.025 0.119 -0.062 0.097 -0.082 0.141 -0.133 0.11 -0.139 0.152 -0.195 0.111 -0.175 0.144 -0.225 0.118 -0.221 0.121 -0.259 0.157 -0.314 0.118 -0.276 0.12 -0.313 0.146 -0.355 0.115 -0.322 0.122 -0.382 0.158 -0.417 0.118 -0.358 0.094 -0.316 0.086 -0.301 0.079 -0.3 0.057 -0.251 0.057 -0.257 0.04 -0.206 0.032 -0.184 0.029 -0.185 0.01 -0.081 0.222 -1.77" />
    <path class="write-stroke-pen" transform="translate(-195.15,-1468.745)" fill="none" stroke="#FFFFFF" stroke-width="1.2" stroke-linecap="round" stroke-linejoin="round" __comx="530.517" __comy="139.786" __timestamp="0x17a88ca9ff3" d="M727.308 1613.167 l0.004 -0.004 0.041 -0.037 0.045 -0.031 0.053 -0.055 0.08 -0.058 0.067 -0.063 0.126 -0.086 0.094 -0.084 0.135 -0.098 0.107 -0.096 0.134 -0.103 0.132 -0.131 0.154 -0.15 0.098 -0.11 0.111 -0.11 0.146 -0.179 0.041 -0.051 0.134 -0.199 0.03 -0.047 0.101 -0.194 0.025 -0.051 0.078 -0.186 0.021 -0.054 0.072 -0.217 0.018 -0.057 0.061 -0.227 0.018 -0.083 0.03 -0.217 0.007 -0.099 -0.016 -0.258 -0.006 -0.069 -0.021 -0.172 -0.038 -0.155 -0.022 -0.077 -0.069 -0.167 -0.039 -0.085 -0.102 -0.164 -0.104 -0.128 -0.116 -0.115 -0.146 -0.11 -0.201 -0.104 -0.268 -0.069 -0.269 -0.021 -0.333 0.029 -0.369 0.083 -0.406 0.151 -0.452 0.22 -0.461 0.271 -0.461 0.323 -0.445 0.363 -0.428 0.4 -0.384 0.409 -0.366 0.442 -0.327 0.422 -0.285 0.409 -0.25 0.394 -0.215 0.406 -0.205 0.397 -0.175 0.419 -0.121 0.331 -0.097 0.312 -0.082 0.317 -0.06 0.272 -0.051 0.275 -0.038 0.282 -0.005 0.311 0.005 0.236 0.05 0.312 0.048 0.18 0.08 0.227 0.081 0.168 0.109 0.171 0.14 0.171 0.171 0.159 0.207 0.147 0.226 0.119 0.264 0.097 0.338 0.046 0.32 -0.007 0.335 -0.053 0.358 -0.107 0.35 -0.15 0.344 -0.185 0.336 -0.219 0.316 -0.231 0.334 -0.286 0.295 -0.295 0.28 -0.315 0.269 -0.344 0.201 -0.312 0.251 -0.383 0.172 -0.307 0.146 -0.296 0.172 -0.339 0.124 -0.299 0.106 -0.286 0.102 -0.295 0.093 -0.295 0.073 -0.272 0.058 -0.251 0.046 -0.229 0.038 -0.232 0.025 -0.185 0.016 -0.197 0.007 -0.197 -0.002 -0.11 -0.011 -0.194 -0.009 -0.084 -0.011 -0.074 -0.012 -0.059 -0.048 -0.148 -0.012 -0.035 -0.022 -0.052 -0.037 -0.073 -0.08 -0.108 -0.061 -0.057 -0.069 -0.033 -0.07 0.003 -0.075 0.051 -0.073 0.113 -0.064 0.17 -0.046 0.265 0.006 0.346 0.017 0.401 0.075 0.509 0.114 0.573 0.155 0.649 0.18 0.688 0.218 0.735 0.246 0.744 0.242 0.731 0.272 0.82 0.262 0.813 0.242 0.832 0.247 0.894 0.228 0.839 0.216 0.835 0.156 0.767 0.165 0.738 0.109 0.719 0.093 0.755 0.06 0.702 0.042 0.707 0.029 0.71 0.012 0.63 -0.012 0.61 -0.064 0.634 -0.067 0.558 -0.132 0.589 -0.136 0.52 -0.157 0.488 -0.185 0.459 -0.203 0.43 -0.253 0.439 -0.309 0.429 -0.31 0.361 -0.371 0.343 -0.381 0.272 -0.455 0.289 -0.463 0.223 -0.508 0.189 -0.522 0.148 -0.534 0.117 -0.569 0.091 -0.55 0.053 -0.581 -0.01 -0.528 -0.024 -0.59 -0.1 -0.512 -0.126 -0.517 -0.164 -0.488 -0.198 -0.417 -0.207 -0.413 -0.25 -0.324 -0.225 -0.298 -0.243 -0.217 -0.215 -0.205 -0.246 -0.195 -0.283 -0.163 -0.294 -0.127 -0.284 -0.091 -0.277 -0.042 -0.386 0.01 -0.305 0.052 -0.315 0.094 -0.324 0.127 -0.319 0.164 -0.327 0.227 -0.359 0.272 -0.358 0.325 -0.356 0.353 -0.337 0.383 -0.335 1.246 -1.09" />
    <path class="write-stroke-pen" transform="translate(-195.15,-1468.745)" fill="none" stroke="#FFFFFF" stroke-width="1.2" stroke-linecap="round" stroke-linejoin="round" __comx="544.365" __comy="139.786" __timestamp="0x17a88caa26d" d="M735.652 1612.647 l0 0 0.004 0.007 0.045 0.056 0.032 0.051 0.099 0.115 0.068 0.098 0.144 0.18 0.155 0.2 0.185 0.244 0.208 0.272 0.224 0.28 0.247 0.304 0.258 0.313 0.27 0.314 0.273 0.329 0.3 0.358 0.28 0.333 0.284 0.336 0.316 0.36 0.282 0.318 0.25 0.275 0.279 0.302 0.253 0.257 0.228 0.227 0.206 0.182 0.237 0.218 0.17 0.141 0.157 0.121 0.168 0.124 0.066 0.048 0.198 0.127 0.042 0.027 0.057 0.035 0.058 0.034 0.07 0.037 0.07 0.033 0.056 0.024 1.485 0.623" />
    <path class="write-stroke-pen" transform="translate(-195.15,-1468.745)" fill="none" stroke="#FFFFFF" stroke-width="1.2" stroke-linecap="round" stroke-linejoin="round" __comx="543.278" __comy="139.786" __timestamp="0x17a88caa3a8" d="M736.123 1620.273 l0 -0.001 0 -0.004 0 -0.03 0 -0.008 0.007 -0.053 0.027 -0.055 0.037 -0.099 0.069 -0.13 0.088 -0.148 0.119 -0.183 0.143 -0.211 0.166 -0.234 0.197 -0.277 0.207 -0.29 0.233 -0.337 0.266 -0.397 0.258 -0.388 0.271 -0.416 0.27 -0.435 0.264 -0.443 0.26 -0.464 0.233 -0.426 0.221 -0.422 0.177 -0.399 0.197 -0.411 0.158 -0.381 0.173 -0.384 0.107 -0.264 0.133 -0.294 0.076 -0.192 0.03 -0.074 0.07 -0.195 0.007 -0.02 0.022 -0.068 0.052 -0.148 0.032 -0.091 0.028 -0.071 0.014 -0.026 -0.001 0.024 -0.038 0.095 -0.037 0.133 -0.046 0.19 -0.054 0.245 -0.058 0.278 -0.066 0.309 -0.08 0.374 -0.071 0.346 -0.072 0.36 -0.067 0.369 -0.057 0.331 -0.048 0.311 -0.044 0.317 -0.038 0.297 -0.031 0.251 -0.033 0.279 -0.027 0.232 -0.021 0.208 -0.022 0.211 -0.02 0.188 -0.011 0.094 -0.021 0.213 -0.008 0.072 -0.007 0.069 -0.007 0.069 -0.002 0.023 -0.002 0.023 -0.004 0.043 -0.008 0.063 -0.022 0.156 -0.007 0.043 -0.029 0.107 -0.02 0.044 -0.188 0.423" />
    <path class="write-stroke-pen" transform="translate(-195.15,-1468.745)" fill="none" stroke="#FFFFFF" stroke-width="1.2" stroke-linecap="round" stroke-linejoin="round" __comx="544.276" __comy="139.786" __timestamp="0x17a88caa444" d="M734.489 1615.891 l-0.003 0 -0.008 0 -0.013 0 -0.012 0 -0.006 0 -0.01 0.002 -0.013 0.005 -0.004 0.002 -0.011 0.009 0.001 0.027 0.019 0.019 0.036 0.017 0.079 0.021 0.115 0.02 0.157 0.011 0.232 0.003 0.245 -0.011 0.287 -0.023 0.375 -0.065 0.364 -0.063 0.445 -0.116 0.458 -0.135 0.467 -0.15 0.473 -0.13 0.548 -0.176 0.506 -0.133 0.518 -0.119 0.499 -0.135 0.467 -0.097 0.423 -0.079 0.425 -0.063 0.403 -0.048 0.381 -0.037 0.357 -0.028 1.751 -0.139" />
    <path class="write-stroke-pen" transform="translate(-195.15,-1468.745)" fill="none" stroke="#FFFFFF" stroke-width="1.2" stroke-linecap="round" stroke-linejoin="round" __comx="261.071" __comy="122.153" __timestamp="0x17a88cacb3c" d="M461.135 1586.06 l0 -0.041 0 -0.076 0 -0.107 0 -0.094 0.002 -0.029 0.004 -0.039 0.002 -0.022 0.003 -0.022 0.003 -0.02 0.006 -0.033 0.012 -0.048 0.004 -0.015 -0.006 0.03 -0.022 0.085 -0.07 0.18 -0.071 0.242 -0.145 0.367 -0.174 0.448 -0.218 0.543 -0.28 0.68 -0.35 0.795 -0.421 0.918 -0.487 1.034 -0.533 1.138 -0.585 1.247 -0.591 1.284 -0.622 1.388 -0.62 1.429 -0.63 1.53 -0.61 1.598 -0.571 1.585 -0.566 1.641 -0.513 1.571 -0.488 1.574 -0.452 1.601 -0.34 1.528 -0.272 1.511 -0.146 1.426 -0.083 1.444 -0.04 1.423 0.018 1.314 0.153 1.289 0.217 1.124 0.268 1.08 0.312 1.015 0.362 0.976 0.39 0.903 0.428 0.843 0.456 0.81 0.47 0.745 0.496 0.703 0.513 0.641 0.523 0.588 0.558 0.544 1.139 1.111" />
    <path class="write-stroke-pen" transform="translate(-195.15,-1468.745)" fill="none" stroke="#FFFFFF" stroke-width="1.2" stroke-linecap="round" stroke-linejoin="round" __comx="352.258" __comy="117.916" __timestamp="0x17a88cace0e" d="M540.17 1583.188 l0 -0.019 0 -0.009 0 -0.066 0.002 -0.017 0.003 -0.018 0.029 -0.059 0.011 -0.02 0.073 -0.071 0.066 -0.046 0.103 -0.051 0.164 -0.055 0.172 -0.037 0.197 -0.018 0.272 0.026 0.282 0.056 0.321 0.093 0.399 0.142 0.467 0.212 0.509 0.277 0.577 0.367 0.619 0.453 0.683 0.544 0.73 0.643 0.717 0.681 0.756 0.754 0.77 0.821 0.758 0.886 0.803 1.007 0.801 1.081 0.772 1.167 0.739 1.247 0.646 1.255 0.581 1.335 0.49 1.385 0.394 1.441 0.226 1.462 0.212 1.482 0.099 1.446 0.034 1.424 -0.034 1.403 -0.185 1.458 -0.256 1.447 -0.301 1.416 -0.38 1.431 -0.424 1.398 -0.448 1.314 -0.522 1.358 -0.535 1.293 -0.58 1.232 -0.621 1.204 -0.665 1.121 -0.722 1.075 -0.783 1.165" />
    <path class="write-stroke-pen" transform="translate(-195.15,-1468.745)" fill="none" stroke="#FFFFFF" stroke-width="1.2" stroke-linecap="round" stroke-linejoin="round" __comx="563.968" __comy="123.156" __timestamp="0x17a88cad8d6" d="M760.467 1588.799 l0 -0.003 0 -0.005 0 -0.038 0.002 -0.017 0.001 -0.011 0.003 -0.016 0.002 -0.012 0.002 -0.013 0.002 -0.014 0.001 -0.007 0 -0.007 -0.003 -0.026 -0.01 -0.025 -0.046 -0.026 -0.027 -0.005 -0.113 0.035 -0.122 0.071 -0.17 0.117 -0.175 0.15 -0.201 0.208 -0.214 0.255 -0.234 0.331 -0.276 0.41 -0.317 0.514 -0.307 0.568 -0.306 0.638 -0.283 0.695 -0.281 0.816 -0.263 0.88 -0.265 0.971 -0.255 1.078 -0.167 1.06 -0.133 1.121 -0.113 1.206 -0.075 1.226 -0.042 1.308 -0.022 1.24 0.08 1.25 0.066 1.263 0.175 1.258 0.193 1.209 0.192 1.179 0.217 1.081 0.237 1.057 0.244 1.005 0.266 0.891 0.285 0.839 0.301 0.772 0.336 0.739 0.342 0.662 0.357 0.601 0.381 0.562 0.381 0.471 0.396 0.42 0.431 0.372 1.235 1.066" />
    <path class="write-stroke-pen" transform="translate(-195.15,-1468.745)" fill="none" stroke="#FFFFFF" stroke-width="1.2" stroke-linecap="round" stroke-linejoin="round" __comx="619.342" __comy="140.347" __timestamp="0x17a88cae7dd" d="M807.19 1591.968 l0.002 -0.002 0.03 -0.014 0.043 -0.015 0.065 -0.015 0.093 -0.015 0.125 -0.011 0.179 0 0.235 0.039 0.255 0.049 0.35 0.116 0.389 0.157 0.431 0.2 0.47 0.242 0.516 0.294 0.517 0.315 0.559 0.367 0.648 0.454 0.69 0.525 0.766 0.62 0.84 0.712 0.891 0.79 0.9 0.82 0.843 0.832 0.83 0.868 0.767 0.91 0.691 0.934 0.646 1.034 0.519 1.001 0.444 1.039 0.363 1.098 0.236 1.127 0.156 1.171 0.09 1.266 0.024 1.236 -0.092 1.279 -0.095 1.26 -0.228 1.268 -0.287 1.277 -0.346 1.229 -0.404 1.206 -0.432 1.124 -0.462 1.074 -0.519 1.042 -0.56 1.014 -0.661 1.024 -0.674 0.929 -0.707 0.847 -0.942 1.128" />
    <path class="write-stroke-pen" transform="translate(-60.031,-1858.789)" fill="none" stroke="#FFFFFF" stroke-width="1.2" stroke-linecap="round" stroke-linejoin="round" __comx="583.933" __comy="132.799" __timestamp="0x17a88e21d9f" d="M650.337 1989.659 l0.033 -0.033 0.046 -0.029 0.106 -0.079 0.083 -0.05 0.034 -0.022 0.132 -0.088 0.034 -0.023 0.092 -0.056 0.038 -0.025 0.038 -0.026 0.046 -0.033 0.039 -0.029 0.021 -0.017 0.03 -0.027 0.02 -0.018 0.019 -0.019 0.019 -0.019 0.024 -0.028 0.022 -0.028 0.027 -0.043 0.03 -0.071 0.01 -0.033 0.001 -0.068 -0.004 -0.028 -0.038 -0.07 -0.047 -0.051 -0.062 -0.045 -0.096 -0.049 -0.112 -0.043 -0.14 -0.04 -0.155 -0.035 -0.2 -0.035 -0.197 -0.027 -0.281 -0.026 -0.298 -0.009 -0.328 0.005 -0.399 0.019 -0.408 0.053 -0.408 0.054 -0.489 0.103 -0.516 0.125 -0.521 0.143 -0.568 0.172 -0.571 0.19 -0.546 0.196 -0.556 0.223 -0.578 0.252 -0.599 0.28 -0.579 0.293 -0.599 0.323 -0.554 0.318 -0.538 0.333 -0.513 0.338 -0.456 0.325 -0.403 0.316 -0.346 0.289 -0.315 0.283 -0.283 0.279 -0.233 0.246 -0.218 0.24 -0.176 0.2 -0.124 0.157 -0.106 0.147 -0.096 0.147 -0.075 0.13 -0.076 0.152 -0.033 0.074 -0.059 0.23 -0.014 0.068 0.003 0.27 0.032 0.166 0.075 0.206 0.119 0.193 0.167 0.186 0.226 0.184 0.287 0.173 0.314 0.148 0.392 0.134 0.433 0.11 0.449 0.082 0.461 0.061 0.451 0.028 0.457 0.006 0.461 -0.011 0.442 -0.023 0.487 -0.062 0.416 -0.04 0.424 -0.046 0.427 -0.074 0.399 -0.063 0.358 -0.053 0.32 -0.05 0.277 -0.042 0.237 -0.037 0.214 -0.029 0.056 -0.007 0.217 -0.024 0.037 -0.004 0.042 -0.004 0.067 -0.003 0.053 0 0.133 0.015 0.048 0.008 0.129 0.044 0.118 0.076 0.075 0.097 0.033 0.119 -0.019 0.171 -0.082 0.2 -0.153 0.236 -0.239 0.278 -0.318 0.308 -0.377 0.328 -0.436 0.361 -0.462 0.377 -0.514 0.411 -0.554 0.446 -0.557 0.43 -0.59 0.445 -0.604 0.436 -0.555 0.404 -0.589 0.441 -0.551 0.43 -0.481 0.407 -0.466 0.429 -0.409 0.43 -0.382 0.433 -0.346 0.441 -0.301 0.414 -0.255 0.376 -0.205 0.329 -0.155 0.297 -0.13 0.288 -0.1 0.253 -0.081 0.237 -0.064 0.221 -0.046 0.208 -0.033 0.214 0.006 0.285 0.039 0.232 0.083 0.247 0.122 0.215 0.207 0.259 0.224 0.192 0.305 0.181 0.391 0.156 0.501 0.12 0.565 0.033 0.619 -0.038 0.728 -0.119 0.688 -0.168 0.697 -0.222 0.725 -0.279 0.71 -0.295 0.72 -0.33 0.713 -0.346 0.682 -0.338 0.641 -0.33 0.582 -0.317 0.58 -0.328 0.553 -0.318 0.447 -0.264 0.415 -0.244 0.344 -0.195 0.273 -0.154 0.247 -0.124 0.242 -0.133 0.048 -0.025 0.176 -0.084 0.033 -0.015 0.033 -0.015 0.059 -0.023 0.063 -0.021 0.144 -0.023 0.053 -0.005 0.126 0.018 0.094 0.045 0.553 0.262" />
    <path class="write-stroke-pen" transform="translate(-60.031,-1858.789)" fill="none" stroke="#FFFFFF" stroke-width="1.2" stroke-linecap="round" stroke-linejoin="round" __comx="599.983" __comy="145.568" __timestamp="0x17a88e22007" d="M656.197 2003.668 l-0.001 -0.001 -0.002 -0.004 -0.002 -0.006 -0.002 -0.005 -0.001 -0.002 -0.002 -0.003 -0.003 -0.002 -0.007 0.013 -0.001 0.008 -0.003 0.057 0.003 0.059 0.003 0.101 0.003 0.134 0.01 0.184 0.009 0.252 0.017 0.295 0.013 0.314 0.02 0.352 0.026 0.386 0.028 0.376 0.032 0.405 0.025 0.41 0.029 0.417 0.022 0.419 0.017 0.422 0.013 0.402 0.01 0.405 0.007 0.362 0.005 0.32 0.003 0.257 0.002 0.216 0.002 0.176 0.001 0.057 0.001 0.076 0.001 0.057 0 0.019 0.001 0.037 0.002 0.036 0.006 0.06 0.02 0.132 0.021 0.082 0.03 0.064 0.066 0.033 0.062 -0.026 0.103 -0.101 0.094 -0.162 0.125 -0.252 0.104 -0.281 0.148 -0.377 0.149 -0.393 0.158 -0.433 0.164 -0.422 0.175 -0.43 0.191 -0.443 0.201 -0.446 0.199 -0.441 0.21 -0.451 0.176 -0.393 0.181 -0.404 0.163 -0.349 0.176 -0.357 0.153 -0.294 0.152 -0.276 0.146 -0.238 0.138 -0.209 0.123 -0.156 0.161 -0.19 0.133 -0.129 0.126 -0.103 0.149 -0.102 0.123 -0.071 0.175 -0.067 0.184 -0.036 0.159 0 0.169 0.041 0.219 0.105 0.181 0.161 0.169 0.233 0.165 0.34 0.126 0.398 0.093 0.429 0.073 0.495 0.049 0.469 0.029 0.46 0.016 0.469 0.007 0.454 -0.005 0.438 -0.009 0.44 -0.015 0.379 -0.016 0.38 -0.014 0.296 -0.011 0.297 -0.008 0.235 -0.001 0.199 0.006 0.184 0.011 0.165 0.043 0.203 0.035 0.151 0.078 0.195 0.083 0.153 0.106 0.144 0.122 0.128 0.83 0.876" />
    <path class="write-stroke-pen" transform="translate(-60,-2040.495)" fill="none" stroke="#D534A9" stroke-width="1.2" stroke-linecap="round" stroke-linejoin="round" __comx="369.468" __comy="145.79" __timestamp="0x17a88e2f790" d="M423.235 2184.753 l-0.001 0 -0.004 0 -0.01 0 -0.011 0.001 -0.011 0.004 -0.03 0.033 -0.012 0.018 -0.007 0.099 0.005 0.095 0.052 0.186 0.084 0.218 0.137 0.289 0.182 0.337 0.23 0.374 0.271 0.395 0.323 0.422 0.397 0.478 0.409 0.458 0.47 0.493 0.477 0.493 0.5 0.504 0.506 0.502 0.557 0.538 0.541 0.498 0.541 0.474 0.501 0.429 0.411 0.355 0.432 0.352 0.393 0.31 0.41 0.305 0.401 0.274 0.36 0.232 0.315 0.174 0.356 0.208 0.255 0.135 0.312 0.176 0.259 0.133 0.205 0.104 0.187 0.094 0.18 0.088 0.086 0.044 0.073 0.038 0.194 0.091 1.631 0.765" />
    <path class="write-stroke-pen" transform="translate(-60,-2040.495)" fill="none" stroke="#D534A9" stroke-width="1.2" stroke-linecap="round" stroke-linejoin="round" __comx="369.145" __comy="150.455" __timestamp="0x17a88e2f8ad" d="M426.528 2197.282 l-0.001 -0.003 -0.005 -0.026 -0.004 -0.014 -0.011 -0.048 -0.004 -0.019 -0.012 -0.088 -0.004 -0.096 0.002 -0.124 0.012 -0.173 0.021 -0.19 0.056 -0.254 0.052 -0.235 0.093 -0.318 0.086 -0.32 0.151 -0.432 0.165 -0.455 0.166 -0.441 0.187 -0.495 0.198 -0.508 0.196 -0.504 0.212 -0.539 0.224 -0.548 0.238 -0.572 0.251 -0.579 0.256 -0.577 0.261 -0.575 0.275 -0.582 0.262 -0.546 0.228 -0.483 0.209 -0.454 0.19 -0.412 0.146 -0.359 0.181 -0.396 0.116 -0.286 0.156 -0.345 0.722 -1.597" />
    <path class="write-stroke-pen" transform="translate(-60,-2040.495)" fill="none" stroke="#D534A9" stroke-width="1.2" stroke-linecap="round" stroke-linejoin="round" __comx="639.416" __comy="144.626" __timestamp="0x17a88e2fd45" d="M695.051 2184.283 l-0.001 -0.003 -0.003 -0.006 -0.016 -0.04 -0.004 -0.008 -0.011 -0.016 -0.01 -0.014 -0.011 -0.015 -0.017 -0.02 -0.019 -0.022 -0.016 -0.018 -0.019 -0.018 -0.026 -0.023 -0.021 -0.019 -0.008 -0.007 -0.016 -0.013 -0.008 -0.006 -0.008 -0.006 -0.008 -0.006 -0.024 -0.015 -0.032 -0.016 -0.053 -0.004 -0.024 0.017 0.01 0.068 0.049 0.117 0.106 0.181 0.156 0.242 0.229 0.337 0.278 0.396 0.324 0.45 0.344 0.469 0.373 0.493 0.417 0.521 0.433 0.521 0.434 0.502 0.479 0.521 0.44 0.482 0.415 0.458 0.417 0.461 0.366 0.407 0.346 0.376 0.337 0.364 0.302 0.322 0.255 0.268 0.248 0.254 0.252 0.253 0.219 0.213 0.223 0.21 0.138 0.143 0.198 0.178 0.153 0.155 0.067 0.067 0.132 0.145 0.064 0.07 0.054 0.06 0.057 0.069 0.055 0.07 1.074 1.38" />
    <path class="write-stroke-pen" transform="translate(-60,-2040.495)" fill="none" stroke="#D534A9" stroke-width="1.2" stroke-linecap="round" stroke-linejoin="round" __comx="639.325" __comy="149.047" __timestamp="0x17a88e2fea3" d="M694.457 2196.068 l-0.003 0 -0.008 0 -0.013 0 -0.012 0 -0.014 0 -0.014 -0.002 -0.012 -0.003 -0.017 -0.006 -0.017 -0.009 -0.016 -0.011 -0.053 -0.072 -0.013 -0.021 -0.056 -0.142 -0.014 -0.146 -0.005 -0.161 0.042 -0.256 0.085 -0.29 0.159 -0.386 0.221 -0.447 0.293 -0.518 0.365 -0.586 0.413 -0.619 0.464 -0.671 0.531 -0.721 0.562 -0.721 0.6 -0.741 0.634 -0.763 0.656 -0.765 0.68 -0.798 0.621 -0.735 0.593 -0.708 0.515 -0.622 0.465 -0.57 0.392 -0.49 0.369 -0.469 0.319 -0.428 0.293 -0.399 0.998 -1.358" />
    <path class="write-stroke-pen" transform="translate(-489.672,-708.169)" fill="none" stroke="#FFFFFF" stroke-width="1.2" stroke-linecap="round" stroke-linejoin="round" __comx="275.093" __comy="136.559" __timestamp="0x17a88c1ad5b" d="M769.231 842.756 l0 -0.017 0 -0.007 0 -0.056 0 -0.015 0 -0.016 0.004 -0.064 0.001 -0.014 0.001 -0.022 0.007 -0.071 0.002 -0.026 0.005 -0.078 0.004 -0.035 0.009 -0.099 0.003 -0.032 0.008 -0.107 0.002 -0.035 0.007 -0.129 0.002 -0.038 0.004 -0.124 0 -0.037 -0.001 -0.048 -0.01 -0.119 -0.005 -0.039 -0.012 -0.065 -0.015 -0.057 -0.039 -0.101 -0.015 -0.034 -0.067 -0.105 -0.025 -0.037 -0.074 -0.084 -0.073 -0.067 -0.091 -0.068 -0.124 -0.072 -0.151 -0.061 -0.198 -0.039 -0.181 -0.02 -0.243 0.006 -0.248 0.032 -0.3 0.061 -0.356 0.089 -0.356 0.111 -0.397 0.143 -0.398 0.158 -0.421 0.182 -0.467 0.219 -0.463 0.23 -0.467 0.246 -0.479 0.26 -0.483 0.273 -0.456 0.263 -0.465 0.263 -0.44 0.256 -0.422 0.254 -0.412 0.263 -0.401 0.26 -0.37 0.249 -0.36 0.246 -0.309 0.216 -0.276 0.211 -0.26 0.213 -0.212 0.19 -0.197 0.199 -0.14 0.162 -0.175 0.211 -0.118 0.167 -0.103 0.162 -0.089 0.162 -0.071 0.149 -0.057 0.137 -0.048 0.143 -0.038 0.149 -0.019 0.208 0.006 0.182 0.038 0.208 0.053 0.156 0.114 0.227 0.154 0.2 0.208 0.211 0.262 0.189 0.322 0.17 0.361 0.141 0.399 0.118 0.431 0.094 0.442 0.069 0.469 0.051 0.475 0.037 0.502 0.011 0.524 -0.008 0.518 -0.05 0.498 -0.034 0.478 -0.064 0.459 -0.054 0.444 -0.053 0.448 -0.083 0.402 -0.064 0.369 -0.058 0.333 -0.052 0.298 -0.048 0.26 -0.04 0.206 -0.032 0.169 -0.023 0.049 -0.007 0.153 -0.018 0.033 -0.004 0.016 -0.001 0.036 -0.003 0.047 -0.002 0.045 0 0.044 0.002 0.11 0.02 0.104 0.031 0.07 0.045 0.037 0.05 -0.004 0.097 -0.069 0.121 -0.135 0.134 -0.208 0.154 -0.281 0.174 -0.336 0.189 -0.396 0.203 -0.407 0.204 -0.437 0.214 -0.453 0.223 -0.447 0.23 -0.456 0.246 -0.454 0.253 -0.429 0.256 -0.448 0.282 -0.444 0.29 -0.396 0.275 -0.406 0.291 -0.382 0.293 -0.358 0.301 -0.336 0.306 -0.309 0.296 -0.292 0.297 -0.257 0.277 -0.241 0.277 -0.208 0.265 -0.183 0.254 -0.129 0.207 -0.116 0.215 -0.096 0.202 -0.075 0.187 -0.069 0.209 -0.047 0.181 -0.028 0.234 0.003 0.211 0.029 0.192 0.069 0.218 0.106 0.196 0.161 0.221 0.193 0.186 0.249 0.175 0.289 0.149 0.343 0.129 0.416 0.107 0.413 0.066 0.497 0.011 0.526 -0.009 0.548 -0.083 0.545 -0.115 0.549 -0.143 0.557 -0.176 0.553 -0.196 0.531 -0.205 0.511 -0.209 0.516 -0.226 0.489 -0.221 0.461 -0.222 0.448 -0.235 0.42 -0.23 0.38 -0.227 0.338 -0.205 0.301 -0.186 0.295 -0.191 0.279 -0.179 0.238 -0.159 0.238 -0.162 0.181 -0.127 0.169 -0.123 0.156 -0.118 0.11 -0.094 0.984 -0.839" />
    <path class="write-stroke-pen" transform="translate(-489.672,-708.169)" fill="none" stroke="#FFFFFF" stroke-width="1.2" stroke-linecap="round" stroke-linejoin="round" __comx="274" __comy="136.559" __timestamp="0x17a88c1b3b3" d="M757.389 833.722 l0 -0.001 0.001 -0.001 0.001 -0.001 0.001 -0.003 0.001 -0.004 0.001 -0.004 0.001 -0.004 0.001 -0.005 0.002 -0.005 0.002 -0.006 0.003 -0.005 0.006 -0.009 0.007 -0.01 0.008 -0.01 0.006 -0.007 0.013 -0.014 0.015 -0.015 0.017 -0.016 0.018 -0.017 0.023 -0.022 0.066 -0.05 0.02 -0.015 0.078 -0.053 0.069 -0.058 0.094 -0.066 0.085 -0.054 0.126 -0.09 0.105 -0.068 0.154 -0.112 0.122 -0.078 0.194 -0.135 0.185 -0.128 0.185 -0.132 0.211 -0.165 0.209 -0.175 0.216 -0.193 0.233 -0.22 0.233 -0.222 0.233 -0.225 0.241 -0.239 0.221 -0.222 0.209 -0.217 0.246 -0.261 0.224 -0.243 0.215 -0.233 0.234 -0.254 0.216 -0.233 0.216 -0.233 0.186 -0.206 0.186 -0.208 0.169 -0.186 0.159 -0.181 0.148 -0.171 0.102 -0.129 0.136 -0.163 0.046 -0.055 0.11 -0.145 0.104 -0.117 0.08 -0.105 0.037 -0.045 0.037 -0.046 0.029 -0.039 0.078 -0.113 0.018 -0.026 0.018 -0.027 0.017 -0.027 0.016 -0.027 0.017 -0.026 0.008 -0.013 0.008 -0.012 0.024 -0.034 0.023 -0.031 0.022 -0.029 0.021 -0.025 0.027 -0.029 0.051 -0.039 0.023 -0.014 0.067 -0.016 0.051 0.003 0.058 0.021 0.095 0.057 0.078 0.074 0.107 0.118 0.098 0.146 0.129 0.2 0.135 0.227 0.15 0.263 0.153 0.277 0.168 0.309 0.181 0.315 0.181 0.311 0.203 0.328 0.224 0.358 0.216 0.362 0.214 0.357 0.195 0.312 0.208 0.319 0.201 0.288 0.23 0.301 0.225 0.292 0.23 0.286 0.24 0.279 0.235 0.265 0.276 0.287 0.251 0.252 0.9 0.902" />
    <path class="write-stroke-pen" transform="translate(-489.672,-708.169)" fill="none" stroke="#FFFFFF" stroke-width="1.2" stroke-linecap="round" stroke-linejoin="round" __comx="291.715" __comy="136.559" __timestamp="0x17a88c1b638" d="M783.335 834.844 l0 -0.002 0 -0.004 0 -0.023 0 -0.004 -0.001 -0.003 -0.002 -0.005 -0.005 -0.004 -0.017 0.011 -0.029 0.014 -0.044 0.049 -0.072 0.077 -0.096 0.113 -0.137 0.173 -0.156 0.21 -0.178 0.257 -0.195 0.306 -0.208 0.366 -0.222 0.412 -0.244 0.493 -0.247 0.54 -0.253 0.603 -0.246 0.662 -0.237 0.705 -0.222 0.742 -0.216 0.804 -0.199 0.839 -0.18 0.876 -0.124 0.887 -0.135 0.894 -0.084 0.947 -0.07 0.945 -0.045 0.943 -0.023 0.899 -0.012 0.838 0.065 0.834 0.058 0.782 0.118 0.706 0.143 0.663 0.17 0.616 0.186 0.546 0.216 0.522 0.247 0.472 0.271 0.424 0.322 0.409 0.353 0.374 0.39 0.338 0.409 0.303 0.945 0.698" />
    <path class="write-stroke-pen" transform="translate(-489.672,-708.169)" fill="none" stroke="#FFFFFF" stroke-width="1.2" stroke-linecap="round" stroke-linejoin="round" __comx="303.949" __comy="136.559" __timestamp="0x17a88c1b840" d="M789.871 845.182 l-0.002 -0.018 -0.001 -0.007 -0.008 -0.045 -0.001 -0.009 0 -0.013 0.02 -0.04 0.011 -0.012 0.05 -0.012 0.048 -0.001 0.095 0.039 0.105 0.069 0.153 0.117 0.188 0.168 0.215 0.211 0.231 0.246 0.254 0.284 0.248 0.293 0.263 0.307 0.259 0.304 0.266 0.304 0.276 0.301 0.284 0.298 0.295 0.292 0.296 0.276 0.29 0.263 0.273 0.241 0.252 0.224 0.24 0.219 0.236 0.209 0.252 0.216 0.222 0.186 0.184 0.151 0.186 0.15 0.135 0.102 0.185 0.148 0.132 0.097 0.126 0.089 0.159 0.118 0.03 0.022 1.065 0.782" />
    <path class="write-stroke-pen" transform="translate(-489.672,-708.169)" fill="none" stroke="#FFFFFF" stroke-width="1.2" stroke-linecap="round" stroke-linejoin="round" __comx="304.153" __comy="136.559" __timestamp="0x17a88c1b918" d="M791.464 852.587 l-0.004 -0.018 -0.004 -0.01 -0.015 -0.05 -0.004 -0.015 -0.01 -0.057 -0.001 -0.028 0.021 -0.115 0.021 -0.105 0.066 -0.162 0.072 -0.154 0.105 -0.2 0.137 -0.242 0.159 -0.259 0.192 -0.3 0.196 -0.292 0.222 -0.317 0.229 -0.32 0.242 -0.335 0.263 -0.359 0.265 -0.36 0.271 -0.384 0.273 -0.404 0.234 -0.372 0.238 -0.412 0.201 -0.352 0.192 -0.359 0.172 -0.331 0.128 -0.291 0.156 -0.322 0.11 -0.26 0.099 -0.265 0.076 -0.216 0.064 -0.199 0.396 -1.224" />
    <path class="write-stroke-pen" transform="translate(-489.672,-708.169)" fill="none" stroke="#FFFFFF" stroke-width="1.2" stroke-linecap="round" stroke-linejoin="round" __comx="304.997" __comy="136.559" __timestamp="0x17a88c1b9a8" d="M794.94 843.191 l-0.003 0.004 -0.029 0.037 -0.027 0.048 -0.036 0.074 -0.037 0.088 -0.043 0.113 -0.045 0.138 -0.043 0.153 -0.042 0.178 -0.04 0.205 -0.037 0.217 -0.034 0.26 -0.028 0.269 -0.025 0.313 -0.02 0.338 -0.016 0.343 -0.013 0.367 -0.01 0.331 -0.007 0.333 -0.005 0.298 -0.004 0.299 0.004 0.284 0.003 0.283 0.008 0.248 0.007 0.246 0.005 0.229 0.004 0.173 0.003 0.175 0.003 0.075 0.005 0.075 0.007 0.075 0.004 0.05 0.003 0.033 0.004 0.037 0.142 1.305" />
    <path class="write-stroke-pen" transform="translate(-489.672,-708.169)" fill="none" stroke="#FFFFFF" stroke-width="1.2" stroke-linecap="round" stroke-linejoin="round" __comx="305.359" __comy="136.559" __timestamp="0x17a88c1ba5d" d="M790.939 848.205 l0 -0.001 0.001 -0.001 0.003 -0.001 0.031 -0.001 0.007 0 0.052 0.001 0.058 0.001 0.08 0.003 0.102 0.005 0.14 0.01 0.167 0.012 0.197 0.018 0.225 0.022 0.269 0.023 0.352 0.026 0.382 0.026 0.39 0.023 0.396 0.018 0.421 0.014 0.404 0.01 0.428 0.008 0.469 0.006 0.451 -0.005 0.47 -0.004 0.491 -0.003 0.491 -0.012 0.469 -0.009 1.236 -0.023" />
    <path class="write-stroke-pen" transform="translate(-489.672,-708.169)" fill="none" stroke="#FFFFFF" stroke-width="1.2" stroke-linecap="round" stroke-linejoin="round" __comx="323.331" __comy="136.559" __timestamp="0x17a88c1be31" d="M805.242 840.439 l-0.001 -0.002 -0.004 -0.019 -0.004 -0.012 -0.005 -0.012 -0.015 -0.039 -0.004 -0.011 -0.007 -0.018 -0.007 -0.018 -0.007 -0.019 -0.006 -0.02 -0.007 -0.023 -0.004 -0.015 -0.004 -0.015 -0.002 -0.007 -0.004 -0.019 -0.007 -0.039 0 -0.016 0.007 -0.007 0.038 0.025 0.057 0.062 0.081 0.102 0.112 0.154 0.146 0.203 0.167 0.238 0.2 0.291 0.24 0.35 0.265 0.385 0.285 0.425 0.307 0.447 0.306 0.433 0.312 0.434 0.339 0.449 0.317 0.415 0.312 0.401 0.291 0.364 0.295 0.363 0.284 0.336 0.265 0.3 0.244 0.265 0.224 0.231 0.204 0.199 0.21 0.186 0.166 0.127 0.227 0.165 0.173 0.106 0.195 0.101 0.184 0.08 0.154 0.058 0.175 0.056 0.13 0.034 0.065 0.013 0.212 0.012 0.063 0.001 0.181 -0.02 0.05 -0.008 0.205 -0.064 0.105 -0.046 0.099 -0.056 0.108 -0.075 0.047 -0.034 0.132 -0.119 0.08 -0.084 0.027 -0.031 0.09 -0.117 0.016 -0.022 0.061 -0.097 0.015 -0.023 0.054 -0.102 0.012 -0.025 0.018 -0.038 0.023 -0.047 0.048 -0.11 0.017 -0.037 0.05 -0.116 0.022 -0.05 0.064 -0.154 0.026 -0.06 0.089 -0.222 0.11 -0.222 0.086 -0.187 0.142 -0.273 0.145 -0.262 0.152 -0.26 0.188 -0.303 0.224 -0.326 0.238 -0.337 0.267 -0.371 0.282 -0.37 0.286 -0.369 0.321 -0.391 0.34 -0.391 0.334 -0.374 0.313 -0.355 0.316 -0.352 0.287 -0.321 0.273 -0.296 0.265 -0.287 0.252 -0.263 0.23 -0.23 0.222 -0.219 0.191 -0.179 0.121 -0.103 0.125 -0.123 0.129 -0.11 0.957 -0.815" />
    <path class="write-stroke-pen" transform="translate(-489.672,-708.169)" fill="none" stroke="#FFFFFF" stroke-width="1.2" stroke-linecap="round" stroke-linejoin="round" __comx="321.817" __comy="136.559" __timestamp="0x17a88c1bfbd" d="M812.014 846.413 l-0.001 -0.002 -0.003 -0.004 -0.007 -0.008 -0.004 -0.005 -0.001 -0.002 -0.003 -0.003 -0.009 -0.004 -0.022 0.012 -0.018 0.026 -0.023 0.061 -0.023 0.101 -0.023 0.16 -0.021 0.229 -0.022 0.274 -0.018 0.331 -0.015 0.388 -0.012 0.443 -0.009 0.475 -0.007 0.545 -0.004 0.57 -0.003 0.614 -0.002 0.594 -0.001 0.575 -0.007 0.576 -0.021 0.538 -0.031 0.54 -0.041 0.483 -0.047 0.445 -0.046 0.369 -0.046 0.315 -0.038 0.241 -0.033 0.189 -0.025 0.135 -0.012 0.058 -0.012 0.057 -0.014 0.057 -0.01 0.034 -0.004 0.015 -0.013 0.041 -0.04 0.104 -0.034 0.069 -0.325 0.662" />
    <path class="write-stroke-pen" transform="translate(-489.672,-708.169)" fill="none" stroke="#FFFFFF" stroke-width="1.2" stroke-linecap="round" stroke-linejoin="round" __comx="323.78" __comy="136.559" __timestamp="0x17a88c1c224" d="M806.69 836.419 l0 0 -0.001 0 -0.001 0.001 -0.001 0.003 -0.001 0.001 -0.001 0.001 -0.001 0.001 0 0.004 0.001 0.004 0.002 0.004 0.007 0.004 0.042 -0.012 0.013 -0.004 0.065 -0.038 0.075 -0.051 0.092 -0.07 0.11 -0.088 0.142 -0.12 0.152 -0.134 0.177 -0.161 0.202 -0.188 0.216 -0.208 0.254 -0.239 0.27 -0.254 0.274 -0.257 0.298 -0.28 0.301 -0.282 0.31 -0.296 0.309 -0.299 0.289 -0.282 0.293 -0.301 0.299 -0.315 0.274 -0.303 0.292 -0.324 0.284 -0.311 0.273 -0.303 0.257 -0.279 0.257 -0.282 0.219 -0.243 0.208 -0.237 0.18 -0.208 0.181 -0.209 0.162 -0.19 0.109 -0.142 0.159 -0.192 0.038 -0.046 0.151 -0.187 0.037 -0.047 0.093 -0.129 0.036 -0.048 0.036 -0.048 0.08 -0.116 0.019 -0.026 0.027 -0.037 0.019 -0.027 0.027 -0.038 0.027 -0.038 0.019 -0.027 0.019 -0.026 0.02 -0.026 0.02 -0.025 0.02 -0.024 0.02 -0.023 0.021 -0.023 0.024 -0.025 0.039 -0.037 0.04 -0.034 0.048 -0.035 0.041 -0.027 0.118 -0.059 0.096 -0.031 0.048 -0.012 0.162 -0.007 0.091 0.01 0.146 0.037 0.165 0.067 0.139 0.089 0.212 0.158 0.203 0.184 0.206 0.226 0.197 0.257 0.23 0.337 0.222 0.353 0.228 0.409 0.229 0.444 0.161 0.406 0.194 0.484 0.181 0.476 0.159 0.438 0.167 0.465 0.163 0.435 0.154 0.425 0.151 0.428 0.143 0.369 0.14 0.344 0.135 0.31 0.138 0.279 0.137 0.251 0.154 0.238 0.687 1.057" />
    <path class="write-stroke-pen" transform="translate(-489.672,-708.169)" fill="none" stroke="#FFFFFF" stroke-width="1.2" stroke-linecap="round" stroke-linejoin="round" __comx="344.884" __comy="136.559" __timestamp="0x17a88c1c43b" d="M830.717 834.609 l-0.008 -0.031 -0.011 -0.039 -0.018 -0.054 -0.01 -0.024 -0.007 -0.018 -0.007 -0.02 -0.004 -0.014 -0.005 -0.026 -0.002 -0.026 0.015 -0.066 0.024 -0.047 0.048 -0.053 0.072 -0.049 0.111 -0.042 0.157 -0.016 0.185 0 0.288 0.058 0.262 0.083 0.322 0.128 0.374 0.187 0.405 0.241 0.462 0.305 0.452 0.328 0.453 0.358 0.457 0.402 0.464 0.44 0.471 0.502 0.442 0.536 0.465 0.642 0.407 0.668 0.369 0.697 0.346 0.777 0.268 0.768 0.179 0.809 0.18 0.871 0.098 0.88 0.047 0.926 -0.009 0.927 -0.118 0.944 -0.178 0.896 -0.23 0.879 -0.273 0.863 -0.334 0.857 -0.369 0.865 -0.416 0.874 -0.435 0.831 -0.452 0.823 -0.522 0.849 -0.537 0.786 -0.592 0.777 -0.649 0.763 -0.654 0.738 -0.649 0.7 -0.641 0.649 -0.729 0.739" />
    <path class="write-stroke-pen" transform="translate(-34.519,0.698)" fill="none" stroke="#FFFFFF" stroke-width="1.2" stroke-linecap="round" stroke-linejoin="round" __comx="63.076" __comy="49.094" __timestamp="0x17a888dbda3" d="M95.383 35.14 l-0.003 -0.029 -0.001 -0.007 -0.006 -0.038 -0.001 -0.008 -0.005 -0.013 -0.005 0.011 0 0.06 0.012 0.128 0.058 0.239 0.064 0.334 0.128 0.482 0.119 0.618 0.194 0.773 0.216 0.845 0.231 0.923 0.268 1.051 0.282 1.137 0.285 1.198 0.286 1.259 0.291 1.275 0.278 1.263 0.273 1.261 0.27 1.26 0.222 1.131 0.203 1.048 0.172 0.937 0.114 0.848 0.133 0.762 0.075 0.685 0.063 0.586 0.087 0.524 0.05 0.399 0.042 0.344 0.025 0.244 0.016 0.186 0.005 0.054 0.003 0.04 0.001 0.052 -0.001 0.05 -0.011 0.135 -0.018 0.099 -0.034 0.06 -0.17 0.305" />
    <path class="write-stroke-pen" transform="translate(-34.519,0.698)" fill="none" stroke="#FFFFFF" stroke-width="1.2" stroke-linecap="round" stroke-linejoin="round" __comx="68.119" __comy="49.094" __timestamp="0x17a888dbf40" d="M96.601 36.584 l-0.021 -0.007 -0.012 -0.006 -0.051 -0.021 -0.022 -0.011 -0.027 -0.013 -0.023 -0.012 -0.025 -0.013 -0.038 -0.021 -0.033 -0.02 -0.068 -0.059 -0.032 -0.029 -0.072 -0.086 -0.054 -0.078 -0.057 -0.098 -0.056 -0.12 -0.045 -0.133 -0.041 -0.172 -0.014 -0.214 -0.005 -0.205 0.041 -0.302 0.067 -0.287 0.108 -0.324 0.141 -0.334 0.178 -0.336 0.231 -0.365 0.28 -0.376 0.339 -0.381 0.412 -0.39 0.448 -0.364 0.498 -0.348 0.545 -0.32 0.531 -0.265 0.562 -0.239 0.581 -0.184 0.629 -0.187 0.594 -0.119 0.579 -0.08 0.562 -0.048 0.503 -0.009 0.555 0.053 0.496 0.079 0.507 0.116 0.511 0.148 0.506 0.17 0.487 0.201 0.414 0.197 0.377 0.216 0.357 0.249 0.314 0.268 0.296 0.323 0.246 0.37 0.207 0.416 0.175 0.477 0.121 0.492 0.067 0.531 -0.032 0.603 -0.099 0.589 -0.154 0.592 -0.199 0.629 -0.246 0.625 -0.268 0.596 -0.293 0.578 -0.321 0.551 -0.33 0.504 -0.349 0.495 -0.36 0.465 -0.404 0.474 -0.427 0.455 -0.459 0.433 -0.487 0.41 -0.514 0.387 -0.514 0.347 -0.504 0.289 -0.47 0.233 -0.426 0.173 -0.434 0.172 -0.374 0.117 -0.384 0.1 -0.367 0.079 -0.308 0.053 -0.249 0.036 -0.278 0.024 -0.241 -0.006 -0.171 -0.008 -0.219 -0.035 -0.053 -0.011 -0.143 -0.048 -0.044 -0.017 -0.11 -0.062 -0.087 -0.064 -0.055 -0.06 -0.036 -0.079 0.002 -0.078 0.048 -0.084 0.105 -0.079 0.158 -0.077 0.223 -0.068 0.258 -0.054 0.286 -0.043 1.079 -0.16" />
    <path class="write-stroke-pen" transform="translate(-34.519,0.698)" fill="none" stroke="#FFFFFF" stroke-width="1.2" stroke-linecap="round" stroke-linejoin="round" __comx="84.354" __comy="49.094" __timestamp="0x17a888dc08c" d="M115.233 56.99 l-0.002 0.024 -0.005 0.06 -0.01 0.126 -0.007 0.125 -0.005 0.133 -0.003 0.107 0.001 0.053 0.001 0.049 0.002 0.045 0.003 0.035 0.003 0.024 0.007 0.035 0.011 0.039 0.03 0.069 0.013 0.024 0.054 0.039 0.038 0 0.045 -0.046 0.04 -0.094 0.036 -0.142 0.034 -0.218 0.025 -0.288 0.005 -0.36 -0.007 -0.426 -0.021 -0.431 -0.033 -0.469 -0.043 -0.525 -0.047 -0.512 -0.059 -0.543 -0.059 -0.545 -0.062 -0.571 -0.062 -0.573 -0.06 -0.552 -0.049 -0.551 -0.044 -0.508 -0.039 -0.532 -0.033 -0.51 -0.028 -0.489 -0.02 -0.445 -0.005 -0.426 0.033 -0.41 0.038 -0.382 0.075 -0.384 0.083 -0.322 0.112 -0.337 0.123 -0.291 0.125 -0.263 0.146 -0.25 0.1 -0.143 0.134 -0.184 0.107 -0.121 0.101 -0.097 0.137 -0.108 0.162 -0.104 0.171 -0.089 0.222 -0.081 0.279 -0.048 0.273 -0.008 0.293 0.033 0.31 0.079 0.322 0.117 0.323 0.158 0.34 0.203 0.333 0.227 0.352 0.266 0.346 0.281 0.352 0.306 0.323 0.296 0.329 0.318 0.315 0.312 0.314 0.316 0.304 0.306 1.012 1.018" />
    <path class="write-stroke-pen" transform="translate(-34.519,0.698)" fill="none" stroke="#FFFFFF" stroke-width="1.2" stroke-linecap="round" stroke-linejoin="round" __comx="92.529" __comy="49.094" __timestamp="0x17a888dc1e3" d="M126.395 51.584 l0 -0.016 0 -0.008 0 -0.062 0 -0.016 0 -0.018 0 -0.08 0 -0.016 0 -0.086 0 -0.019 0 -0.087 0 -0.021 0 -0.033 0 -0.034 0 -0.035 -0.001 -0.027 -0.004 -0.043 -0.008 -0.046 -0.036 -0.095 -0.019 -0.039 -0.076 -0.098 -0.066 -0.061 -0.082 -0.051 -0.146 -0.037 -0.131 -0.004 -0.164 0.03 -0.19 0.067 -0.196 0.095 -0.228 0.146 -0.207 0.164 -0.203 0.194 -0.166 0.199 -0.188 0.243 -0.149 0.242 -0.129 0.258 -0.115 0.289 -0.088 0.28 -0.068 0.269 -0.053 0.299 -0.031 0.286 0.007 0.31 0.036 0.297 0.056 0.278 0.088 0.295 0.121 0.295 0.134 0.258 0.171 0.26 0.171 0.201 0.209 0.214 0.213 0.168 0.229 0.143 0.261 0.126 0.254 0.097 0.268 0.071 0.319 0.027 0.301 -0.011 0.328 -0.056 0.343 -0.106 0.346 -0.15 0.338 -0.181 0.341 -0.216 0.306 -0.224 0.262 -0.216 0.265 -0.244 0.215 -0.223 0.206 -0.235 0.172 -0.237 0.206 -0.289 0.131 -0.23 0.123 -0.244 0.099 -0.214 0.069 -0.175 0.061 -0.178 0.049 -0.162 0.039 -0.145 0.033 -0.151 0.013 -0.088 0.003 -0.214 -0.002 -0.06 -0.025 -0.153 -0.015 -0.068 -0.049 -0.134 -0.054 -0.104 -0.064 -0.094 -0.076 -0.084 -0.088 -0.072 -0.051 -0.034 -0.092 -0.038 -0.051 -0.015 -0.095 -0.005 -0.764 -0.04" />
    <path class="write-stroke-pen" transform="translate(-34.519,0.698)" fill="none" stroke="#FFFFFF" stroke-width="1.2" stroke-linecap="round" stroke-linejoin="round" __comx="102.518" __comy="49.094" __timestamp="0x17a888dc34b" d="M137.187 51.007 l-0.001 -0.002 -0.004 -0.026 -0.003 -0.012 -0.007 -0.017 -0.007 -0.016 -0.023 -0.053 -0.01 -0.017 -0.02 -0.031 -0.047 -0.051 -0.022 -0.023 -0.07 -0.052 -0.033 -0.021 -0.111 -0.054 -0.099 -0.039 -0.109 -0.033 -0.137 -0.026 -0.179 -0.015 -0.221 0.016 -0.227 0.027 -0.293 0.078 -0.259 0.094 -0.255 0.118 -0.237 0.136 -0.197 0.153 -0.241 0.217 -0.177 0.215 -0.167 0.256 -0.137 0.271 -0.105 0.267 -0.086 0.278 -0.067 0.268 -0.032 0.326 -0.011 0.261 0.029 0.313 0.028 0.242 0.101 0.352 0.108 0.276 0.138 0.281 0.153 0.261 0.164 0.242 0.179 0.223 0.172 0.173 0.24 0.214 0.245 0.173 0.259 0.145 0.253 0.115 0.262 0.096 0.275 0.07 0.317 0.029 0.3 0.011 0.36 -0.048 0.313 -0.079 0.324 -0.112 0.315 -0.139 0.319 -0.171 0.298 -0.185 0.265 -0.189 0.234 -0.19 0.236 -0.218 0.166 -0.186 0.199 -0.225 0.146 -0.199 0.131 -0.209 0.11 -0.216 0.087 -0.205 0.067 -0.193 0.052 -0.203 0.032 -0.193 0.015 -0.159 -0.011 -0.223 -0.007 -0.07 -0.04 -0.164 -0.072 -0.199 -0.055 -0.109 -0.066 -0.099 -0.075 -0.089 -0.029 -0.031 -0.087 -0.078 -0.033 -0.027 -0.04 -0.03 -0.057 -0.034 -0.1 -0.038 -0.042 -0.011 -0.112 0.004 -0.081 0.027 -0.067 0.05 -0.047 0.083 -0.028 0.094 0.007 0.148 0.012 0.11 0.085 0.794" />
    <path class="write-stroke-pen" transform="translate(-34.519,0.698)" fill="none" stroke="#FFFFFF" stroke-width="1.2" stroke-linecap="round" stroke-linejoin="round" __comx="114.356" __comy="49.094" __timestamp="0x17a888dc48b" d="M146.616 56.701 l0 0 0 0.002 0.003 0.006 0.006 0.009 0.028 0.023 0.008 0.006 0.013 0.009 0.055 0.027 0.012 0.006 0.02 0.008 0.08 0.017 0.03 0.003 0.087 -0.017 0.076 -0.034 0.089 -0.066 0.105 -0.117 0.106 -0.169 0.104 -0.228 0.091 -0.29 0.074 -0.335 0.057 -0.358 0.044 -0.437 0.018 -0.476 -0.004 -0.531 -0.02 -0.539 -0.074 -0.61 -0.068 -0.586 -0.118 -0.637 -0.134 -0.644 -0.148 -0.666 -0.174 -0.695 -0.197 -0.759 -0.196 -0.73 -0.213 -0.754 -0.209 -0.746 -0.191 -0.695 -0.197 -0.743 -0.181 -0.716 -0.13 -0.66 -0.152 -0.684 -0.106 -0.574 -0.09 -0.559 -0.077 -0.519 -0.057 -0.477 -0.042 -0.481 -0.029 -0.44 -0.011 -0.4 0.005 -0.405 0.017 -0.385 0.052 -0.378 0.072 -0.345 0.06 -0.293 0.11 -0.346 0.117 -0.297 0.133 -0.292 0.159 -0.293 0.176 -0.284 0.206 -0.285 0.231 -0.263 0.236 -0.232 0.261 -0.203 0.283 -0.202 0.248 -0.146 0.276 -0.127 0.286 -0.105 0.314 -0.091 0.321 -0.07 0.338 -0.026 0.344 0.016 0.377 0.065 0.382 0.119 0.38 0.168 0.374 0.217 0.366 0.269 0.311 0.274 0.306 0.312 0.271 0.329 0.206 0.325 0.725 1.143" />
    <path class="write-stroke-pen" transform="translate(-34.519,0.698)" fill="none" stroke="#FFFFFF" stroke-width="1.2" stroke-linecap="round" stroke-linejoin="round" __comx="113.136" __comy="49.094" __timestamp="0x17a888dc534" d="M142.985 49.108 l-0.002 -0.024 -0.001 -0.009 -0.003 -0.075 0.02 -0.078 0.035 -0.064 0.097 -0.149 0.139 -0.17 0.207 -0.213 0.253 -0.228 0.347 -0.275 0.386 -0.271 0.404 -0.255 0.485 -0.279 0.495 -0.26 0.537 -0.247 0.571 -0.234 0.575 -0.211 0.523 -0.151 0.538 -0.17 0.51 -0.132 0.473 -0.105 0.479 -0.094 0.437 -0.074 0.439 -0.056 1.403 -0.18" />
    <path class="write-stroke-pen" transform="translate(-34.519,0.698)" fill="none" stroke="#FFFFFF" stroke-width="1.2" stroke-linecap="round" stroke-linejoin="round" __comx="140.133" __comy="49.094" __timestamp="0x17a888dc7a2" d="M174.595 49.604 l0.001 -0.001 0.004 -0.004 0.007 -0.008 0.041 -0.026 0.012 -0.008 0.014 -0.008 0.019 -0.011 0.021 -0.012 0.023 -0.014 0.024 -0.015 0.02 -0.013 0.015 -0.009 0.014 -0.009 0.013 -0.009 0.017 -0.013 0.018 -0.016 0.017 -0.026 0.003 -0.009 -0.028 -0.011 -0.052 -0.001 -0.109 0.032 -0.129 0.034 -0.207 0.08 -0.214 0.095 -0.259 0.133 -0.275 0.165 -0.291 0.198 -0.287 0.228 -0.274 0.238 -0.27 0.26 -0.243 0.262 -0.186 0.245 -0.205 0.287 -0.148 0.262 -0.125 0.274 -0.106 0.284 -0.082 0.272 -0.058 0.26 -0.039 0.268 0.001 0.32 0.031 0.297 0.047 0.243 0.075 0.267 0.092 0.243 0.106 0.196 0.143 0.229 0.147 0.177 0.178 0.163 0.245 0.163 0.285 0.131 0.38 0.073 0.357 0.008 0.361 -0.046 0.381 -0.09 0.392 -0.142 0.404 -0.184 0.377 -0.208 0.35 -0.231 0.307 -0.224 0.309 -0.256 0.277 -0.252 0.248 -0.25 0.182 -0.226 0.226 -0.286 0.137 -0.206 0.119 -0.201 0.119 -0.226 0.091 -0.192 0.085 -0.213 0.074 -0.201 0.058 -0.182 0.046 -0.165 0.041 -0.167 0.031 -0.15 0.01 -0.064 0.015 -0.165 -0.004 -0.141 -0.005 -0.07 -0.031 -0.151 -0.016 -0.065 -0.067 -0.162 -0.029 -0.061 -0.074 -0.12 -0.038 -0.056 -0.091 -0.11 -0.036 -0.041 -0.782 -0.907" />
    <path class="write-stroke-pen" transform="translate(-34.519,0.698)" fill="none" stroke="#FFFFFF" stroke-width="1.2" stroke-linecap="round" stroke-linejoin="round" __comx="154.268" __comy="47.514" __timestamp="0x17a888dcd1c" d="M188.11 55.298 l-0.003 0.04 -0.003 0.082 -0.003 0.161 -0.002 0.175 -0.002 0.173 -0.001 0.161 -0.001 0.141 -0.003 0.133 -0.001 0.043 -0.005 0.141 -0.002 0.048 -0.003 0.048 -0.003 0.034 -0.002 0.022 -0.002 0.015 -0.002 0.015 -0.009 0.05 -0.027 0.094 -0.015 0.04 -0.06 0.074 -0.052 0.02 -0.109 -0.036 -0.095 -0.096 -0.149 -0.189 -0.158 -0.242 -0.157 -0.278 -0.159 -0.31 -0.168 -0.339 -0.165 -0.351 -0.178 -0.39 -0.186 -0.42 -0.172 -0.403 -0.177 -0.43 -0.158 -0.462 -0.168 -0.471 -0.153 -0.515 -0.164 -0.52 -0.117 -0.493 -0.109 -0.504 -0.102 -0.507 -0.097 -0.553 -0.087 -0.554 -0.085 -0.601 -0.075 -0.577 -0.071 -0.577 -0.069 -0.577 -0.071 -0.624 -0.105 -0.661 -0.079 -0.684 -0.068 -0.708 -0.066 -0.707 -0.058 -0.704 -0.052 -0.703 -0.038 -0.631 -0.033 -0.634 -0.022 -0.612 -0.014 -0.591 0.008 -0.573 0.059 -0.551 0.048 -0.478 0.08 -0.446 0.071 -0.415 0.117 -0.431 0.11 -0.351 0.131 -0.348 0.127 -0.3 0.14 -0.29 0.159 -0.277 0.198 -0.29 0.216 -0.265 0.208 -0.2 0.264 -0.223 0.25 -0.162 0.285 -0.149 0.296 -0.12 0.286 -0.092 0.339 -0.072 0.351 -0.025 0.351 0.014 0.37 0.048 0.375 0.089 0.388 0.124 0.384 0.159 0.376 0.184 0.397 0.22 0.383 0.241 0.37 0.263 0.342 0.277 0.327 0.302 0.3 0.32 0.272 0.342 0.252 0.372 0.206 0.406 0.212 0.463 0.143 0.43 0.111 0.463 0.321 1.337" />
    <path class="write-stroke-pen" transform="translate(-34.519,0.698)" fill="none" stroke="#FFFFFF" stroke-width="1.2" stroke-linecap="round" stroke-linejoin="round" __comx="152.441" __comy="47.514" __timestamp="0x17a888dcdda" d="M182.601 49.17 l-0.017 -0.006 -0.026 -0.032 -0.035 -0.029 -0.039 -0.055 -0.007 -0.011 -0.027 -0.057 -0.008 -0.02 -0.017 -0.084 0.012 -0.093 0.032 -0.103 0.043 -0.078 0.077 -0.093 0.107 -0.096 0.15 -0.1 0.186 -0.089 0.241 -0.091 0.278 -0.077 0.335 -0.068 0.372 -0.055 0.451 -0.058 0.527 -0.048 0.604 -0.037 0.656 -0.041 0.706 -0.05 0.704 -0.054 0.717 -0.094 0.768 -0.079 0.807 -0.123 1.297 -0.198" />
    <path class="write-stroke-pen" transform="translate(-34.519,0.698)" fill="none" stroke="#FFFFFF" stroke-width="1.2" stroke-linecap="round" stroke-linejoin="round" __comx="190.907" __comy="47.514" __timestamp="0x17a888dcf74" d="M224.445 37.182 l-0.001 -0.002 -0.001 -0.003 -0.001 -0.001 -0.001 -0.001 -0.009 0.037 -0.01 0.114 0.005 0.205 0.023 0.354 0.078 0.484 0.074 0.552 0.127 0.712 0.099 0.785 0.131 0.859 0.098 0.923 0.137 0.938 0.105 0.946 0.159 0.942 0.118 0.966 0.15 0.979 0.109 0.963 0.164 0.984 0.11 0.888 0.133 0.882 0.072 0.802 0.055 0.718 0.034 0.679 0.02 0.595 0.007 0.557 -0.012 0.498 -0.046 0.415 -0.043 0.35 -0.037 0.236 -0.05 0.203 -0.016 0.062 -0.018 0.061 -0.023 0.064 -0.061 0.119 -0.087 0.119 -0.559 0.763" />
    <path class="write-stroke-pen" transform="translate(-34.519,0.698)" fill="none" stroke="#FFFFFF" stroke-width="1.2" stroke-linecap="round" stroke-linejoin="round" __comx="192.275" __comy="47.514" __timestamp="0x17a888dd053" d="M213.221 40.587 l-0.009 -0.017 -0.006 -0.008 -0.01 -0.012 -0.004 -0.008 0.033 -0.034 0.057 -0.02 0.123 -0.019 0.186 -0.013 0.254 -0.012 0.378 -0.011 0.474 -0.009 0.613 -0.021 0.705 -0.037 0.8 -0.09 0.886 -0.084 0.957 -0.161 1.03 -0.18 1.055 -0.216 1.065 -0.224 1.093 -0.26 1.115 -0.3 1.155 -0.334 1.233 -0.403 1.186 -0.403 1.181 -0.408 1.155 -0.406 1.137 -0.417 1.154 -0.418 1.041 -0.392 1.019 -0.386 0.989 -0.349 0.882 -0.307 0.844 -0.288 0.796 -0.25 0.733 -0.21 0.629 -0.172 1.248 -0.341" />
    <path class="write-stroke-pen" transform="translate(-34.519,0.698)" fill="none" stroke="#FFFFFF" stroke-width="1.2" stroke-linecap="round" stroke-linejoin="round" __comx="206.764" __comy="47.514" __timestamp="0x17a888dd234" d="M235.134 34.645 l0 0.016 0.005 0.049 0.042 0.141 0.055 0.253 0.099 0.358 0.091 0.478 0.131 0.58 0.115 0.679 0.188 0.801 0.19 0.832 0.195 0.884 0.214 0.984 0.203 0.998 0.214 1.07 0.213 1.086 0.213 1.104 0.212 1.123 0.212 1.143 0.203 1.185 0.192 1.156 0.187 1.132 0.181 1.085 0.169 1.039 0.114 0.989 0.159 0.921 0.11 0.859 0.134 0.79 0.088 0.688 0.106 0.563 0.075 0.48 0.09 0.425 0.066 0.323 0.08 0.297 0.047 0.17 0.026 0.087 0.024 0.073 0.022 0.061 0.013 0.032 0.055 0.117 0.06 0.093 0.073 0.064 0.074 0.005 0.071 -0.077 0.061 -0.166 0.049 -0.241 0.042 -0.342 0.034 -0.446 0.026 -0.547 0.019 -0.643 0.013 -0.686 0.001 -0.745 0.001 -0.705 0 -0.734 0 -0.714 0.022 -0.695 0.086 -0.696 0.104 -0.615 0.125 -0.577 0.128 -0.529 0.133 -0.473 0.153 -0.446 0.16 -0.405 0.161 -0.34 0.171 -0.298 0.166 -0.25 0.146 -0.175 0.212 -0.221 0.166 -0.138 0.178 -0.119 0.17 -0.095 0.15 -0.065 0.237 -0.05 0.221 -0.006 0.227 0.036 0.264 0.097 0.274 0.168 0.218 0.209 0.274 0.313 0.196 0.307 0.228 0.413 0.174 0.414 0.192 0.477 0.135 0.485 0.145 0.497 0.115 0.505 0.095 0.514 0.083 0.499 0.075 0.481 0.068 0.506 0.059 0.486 0.058 0.534 0.052 0.512 0.047 0.49 0.048 0.448 0.04 0.381 0.029 0.337 0.032 0.302 0.027 0.237 0.028 0.202 0.044 0.177 0.017 0.07 0.008 0.035 0.014 0.051 0.019 0.057 0.099 0.166 0.108 0.101 0.113 0.043 0.543 0.206" />
    <path class="write-stroke-pen" transform="translate(-34.519,0.698)" fill="none" stroke="#FFFFFF" stroke-width="1.2" stroke-linecap="round" stroke-linejoin="round" __comx="225.653" __comy="47.514" __timestamp="0x17a888dd440" d="M251.083 50.161 l0 0.002 0 0.042 0 0.071 0 0.106 0.007 0.143 0.012 0.167 0.022 0.204 0.032 0.256 0.038 0.274 0.044 0.308 0.05 0.34 0.053 0.351 0.052 0.379 0.052 0.408 0.05 0.414 0.05 0.44 0.049 0.466 0.046 0.446 0.043 0.425 0.041 0.405 0.029 0.36 0.03 0.343 0.03 0.322 0.027 0.26 0.029 0.261 0.027 0.204 0.029 0.184 0.015 0.084 0.019 0.094 0.019 0.078 0.048 0.14 0.012 0.033 0.023 0.054 0.093 0.145 0.112 0.085 0.101 0.018 0.122 -0.072 0.173 -0.185 0.145 -0.292 0.194 -0.435 0.188 -0.479 0.152 -0.54 0.183 -0.562 0.132 -0.519 0.16 -0.525 0.152 -0.491 0.151 -0.477 0.108 -0.419 0.133 -0.422 0.126 -0.367 0.118 -0.311 0.128 -0.301 0.133 -0.281 0.108 -0.206 0.119 -0.2 0.112 -0.153 0.1 -0.12 0.117 -0.121 0.107 -0.094 0.04 -0.033 0.179 -0.118 0.06 -0.034 0.213 -0.069 0.07 -0.017 0.229 0.001 0.124 0.021 0.19 0.068 0.12 0.066 0.111 0.083 0.145 0.12 0.095 0.096 0.112 0.134 0.125 0.148 0.088 0.119 0.088 0.13 0.046 0.068 0.139 0.194 0.028 0.041 0.125 0.177 0.036 0.051 0.043 0.06 0.114 0.137 0.04 0.049 0.041 0.049 0.117 0.119 0.028 0.027 0.108 0.092 0.04 0.032 0.15 0.096 0.06 0.034 0.18 0.063 0.061 0.017 0.211 0.014 0.141 -0.016 0.228 -0.067 0.165 -0.086 0.254 -0.158 0.202 -0.153 0.219 -0.191 0.227 -0.216 0.225 -0.245 0.246 -0.291 0.232 -0.297 0.218 -0.293 0.231 -0.295 0.227 -0.285 0.207 -0.244 0.206 -0.229 0.172 -0.161 0.192 -0.178 0.166 -0.132 0.137 -0.094 0.143 -0.084 0.147 -0.075 0.134 -0.059 0.168 -0.055 0.251 -0.029 0.242 0.014 0.234 0.054 0.294 0.127 0.301 0.193 0.273 0.238 0.301 0.329 0.272 0.356 0.264 0.387 0.253 0.417 0.25 0.439 0.242 0.462 0.232 0.471 0.227 0.464 0.21 0.454 0.212 0.466 0.209 0.482 0.188 0.46 0.178 0.429 0.14 0.403 0.157 0.405 0.117 0.344 0.106 0.349 0.116 0.339 0.079 0.284 0.073 0.291 0.057 0.271 0.041 0.232 0.036 0.234 0.026 0.194 0.019 0.176 0.005 0.079 0.09 1.465" />
    <path class="write-stroke-pen" transform="translate(-34.519,0.698)" fill="none" stroke="#FFFFFF" stroke-width="1.2" stroke-linecap="round" stroke-linejoin="round" __comx="271.949" __comy="42.041" __timestamp="0x17a888ddc11" d="M298.334 41.309 l-0.002 -0.003 -0.01 -0.023 -0.025 -0.024 -0.015 -0.014 -0.008 -0.008 -0.015 -0.015 -0.014 -0.015 -0.014 -0.017 -0.041 -0.059 -0.011 -0.015 -0.04 -0.078 -0.012 -0.026 -0.032 -0.109 -0.009 -0.044 -0.014 -0.15 0.014 -0.159 0.014 -0.121 0.055 -0.191 0.035 -0.116 0.106 -0.229 0.113 -0.194 0.14 -0.221 0.161 -0.234 0.173 -0.237 0.22 -0.284 0.267 -0.313 0.302 -0.315 0.35 -0.323 0.366 -0.309 0.412 -0.317 0.41 -0.283 0.428 -0.278 0.435 -0.25 0.46 -0.233 0.495 -0.192 0.549 -0.204 0.528 -0.137 0.583 -0.117 0.541 -0.077 0.568 -0.057 0.551 -0.021 0.525 0.031 0.545 0.07 0.504 0.098 0.474 0.129 0.465 0.166 0.438 0.187 0.382 0.203 0.4 0.264 0.365 0.292 0.332 0.34 0.29 0.364 0.227 0.384 0.186 0.425 0.143 0.463 0.112 0.521 0.071 0.555 -0.005 0.606 -0.089 0.686 -0.186 0.745 -0.255 0.722 -0.326 0.742 -0.408 0.757 -0.436 0.715 -0.494 0.736 -0.547 0.756 -0.575 0.75 -0.585 0.738 -0.653 0.762 -0.649 0.737 -0.67 0.738 -0.668 0.714 -0.634 0.676 -0.661 0.677 -0.622 0.621 -0.629 0.62 -0.642 0.612 -0.6 0.583 -0.608 0.581 -0.58 0.564 -0.555 0.546 -0.5 0.488 -0.467 0.459 -0.408 0.41 -0.338 0.355 -0.293 0.319 -0.228 0.266 -0.186 0.229 -0.126 0.175 -0.117 0.182 -0.075 0.13 -0.068 0.132 -0.033 0.073 -0.057 0.203 -0.015 0.068 0.002 0.214 0.037 0.165 0.082 0.167 0.148 0.166 0.214 0.148 0.302 0.124 0.378 0.055 0.441 0.025 0.59 -0.067 0.604 -0.113 0.642 -0.156 0.692 -0.188 0.669 -0.189 0.691 -0.191 0.737 -0.189 0.75 -0.143 0.821 -0.177 0.772 -0.119 0.801 -0.099 0.732 -0.08 0.736 -0.073 0.761 -0.063 0.69 -0.037 0.694 -0.024 0.673 -0.016 0.606 -0.01 0.612 0.013 0.614 0.028 0.569 0.074 0.501 0.069 0.532 0.112 0.432 0.109 0.432 0.122 1.347 0.381" />
    <path class="write-stroke-pen" transform="translate(-34.519,0.698)" fill="none" stroke="#FFFFFF" stroke-width="1.2" stroke-linecap="round" stroke-linejoin="round" __comx="292.733" __comy="58.895" __timestamp="0x17a888ddd29" d="M327.551 58.373 l-0.02 0.002 -0.01 0.003 -0.067 0.02 -0.046 0.029 -0.024 0.016 -0.026 0.019 -0.014 0.011 -0.018 0.011 -0.042 0.014 -0.014 0.003 -0.317 0.059" />
    <path class="write-stroke-pen" transform="translate(-34.519,0.698)" fill="none" stroke="#FFFFFF" stroke-width="1.2" stroke-linecap="round" stroke-linejoin="round" __comx="294.239" __comy="35.028" __timestamp="0x17a888dddd1" d="M329.82 35.016 l-0.09 -0.09 -0.105 -0.09 -0.165 -0.129 -0.144 -0.083 -0.114 -0.056 -0.05 -0.025 -0.157 -0.067 -0.11 -0.044 -0.115 -0.044 -1.073 -0.405" />
    <path class="write-stroke-pen" transform="translate(-34.519,0.698)" fill="none" stroke="#FFFFFF" stroke-width="1.2" stroke-linecap="round" stroke-linejoin="round" __comx="177.98" __comy="72.805" __timestamp="0x17a888de999" d="M70.974 72.176 l283.05 0.784" />
    <path class="write-stroke-pen" fill="none" stroke="#FFFFFF" stroke-width="1.2" stroke-linecap="round" stroke-linejoin="round" __comx="56.588" __comy="134.383" __timestamp="0x17a88f1e8ae" d="M45.151 126.739 l0 -0.002 0 -0.001 -0.001 -0.003 -0.001 -0.004 -0.001 -0.006 -0.001 -0.007 -0.001 -0.009 -0.001 -0.016 -0.001 -0.019 -0.001 -0.021 -0.001 -0.024 -0.002 -0.083 -0.001 -0.021 -0.001 -0.034 -0.001 -0.036 0.005 -0.133 0.001 -0.028 0.001 -0.045 0.003 -0.135 0.001 -0.033 0.004 -0.062 0.003 -0.053 0.003 -0.054 0.003 -0.056 0.003 -0.057 0.002 -0.038 0.002 -0.039 0.005 -0.056 0.002 -0.019 0.005 -0.052 0.012 -0.105 0.005 -0.043 0.014 -0.064 0.007 -0.017 -0.005 0.026 -0.015 0.097 -0.03 0.168 -0.045 0.256 -0.06 0.352 -0.073 0.453 -0.092 0.557 -0.104 0.625 -0.116 0.718 -0.113 0.771 -0.123 0.86 -0.127 0.905 -0.116 0.909 -0.115 0.985 -0.107 0.987 -0.095 1.021 -0.073 1.02 -0.058 0.985 -0.039 0.987 -0.025 0.953 0.012 0.924 0.036 0.89 0.107 0.856 0.093 0.75 0.166 0.779 0.18 0.687 0.195 0.606 0.226 0.586 0.226 0.499 0.25 0.452 0.279 0.414 0.291 0.36 0.285 0.28 0.355 0.272 0.351 0.209 0.398 0.184 0.451 0.144 0.549 0.053 1.049 -0.175 1.038 -0.41 0.983 -0.591 0.916 -0.723 0.797 -0.788 0.7 -0.806 0.573 -0.757 0.459 -0.701 0.373 -0.611 0.338 -0.611 0.334 -0.658 0.237 -0.575 0.266 -0.613 0.205 -0.563 0.164 -0.513 0.197 -0.54 0.143 -0.453 0.114 -0.399 0.098 -0.349 0.085 -0.316 0.068 -0.26 0.027 -0.098 0.07 -0.286 0.013 -0.055 0.013 -0.055 0.012 -0.055 0.013 -0.058 0.021 -0.097 0.036 -0.169 0.023 -0.112 0.023 -0.09 0.013 -0.034 0.008 0.036 0.008 0.136 0.007 0.21 0.006 0.311 0.026 0.397 0.082 0.497 0.073 0.505 0.124 0.597 0.102 0.531 0.157 0.62 0.127 0.557 0.194 0.634 0.197 0.6 0.149 0.509 0.251 0.631 0.222 0.522 0.24 0.494 0.241 0.439 0.255 0.404 0.266 0.373 0.277 0.308 0.311 0.311 0.283 0.228 0.327 0.212 0.343 0.178 0.333 0.132 0.419 0.09 0.421 0.029 0.424 -0.033 0.466 -0.111 0.475 -0.176 0.472 -0.254 0.45 -0.307 0.464 -0.387 0.41 -0.396 0.409 -0.448 0.392 -0.487 0.346 -0.476 0.278 -0.481 0.331 -0.551 0.248 -0.505 0.277 -0.548 0.214 -0.521 0.198 -0.57 0.167 -0.549 0.144 -0.554 0.113 -0.558 0.089 -0.565 0.074 -0.603 0.042 -0.576 0.015 -0.615 -0.009 -0.583 -0.074 -0.662 -0.076 -0.641 -0.136 -0.665 -0.123 -0.604 -0.189 -0.67 -0.197 -0.605 -0.215 -0.601 -0.224 -0.552 -0.243 -0.546 -0.247 -0.515 -0.227 -0.445 -0.25 -0.456 -0.225 -0.389 -0.212 -0.34 -0.185 -0.277 -0.081 -0.116 -0.243 -0.322 -0.052 -0.065 -0.064 -0.077 -0.055 -0.062 -0.041 -0.044 -0.058 -0.056 -0.152 -0.119 -0.062 -0.043 -1.228 -0.847" />
    <path class="write-stroke-pen" fill="none" stroke="#FFFFFF" stroke-width="1.2" stroke-linecap="round" stroke-linejoin="round" __comx="84.643" __comy="134.383" __timestamp="0x17a88f1ea25" d="M82.879 126.461 l0 0 0 0.002 0.009 0.034 0.042 0.049 0.049 0.093 0.094 0.144 0.093 0.182 0.138 0.262 0.124 0.284 0.139 0.388 0.204 0.538 0.17 0.586 0.225 0.767 0.171 0.762 0.158 0.852 0.138 0.865 0.192 0.938 0.149 0.939 0.131 0.947 0.177 1.007 0.132 0.944 0.104 0.88 0.098 0.853 0.093 0.823 0.09 0.792 0.077 0.725 0.073 0.73 0.063 0.632 0.06 0.603 0.052 0.508 0.033 0.38 0.026 0.352 0.027 0.297 0.01 0.113 0.02 0.263 0.006 0.062 0.003 0.027 0.003 0.028 0.005 0.053 0.02 0.174 0.006 0.061 0.019 0.167 0.106 0.951" />
    <path class="write-stroke-pen" fill="none" stroke="#FFFFFF" stroke-width="1.2" stroke-linecap="round" stroke-linejoin="round" __comx="83.358" __comy="134.383" __timestamp="0x17a88f1eb1c" d="M72.232 127.699 l-0.003 0 -0.004 0 -0.005 0 -0.007 0 -0.004 0 -0.004 0 -0.006 0 0.001 0 0.047 0 0.074 0 0.259 0 0.361 -0.014 0.452 -0.026 0.427 -0.031 0.461 -0.037 0.579 -0.056 0.634 -0.067 0.654 -0.074 0.8 -0.09 0.835 -0.139 0.84 -0.098 0.886 -0.099 0.913 -0.148 0.883 -0.118 0.889 -0.111 0.915 -0.156 0.919 -0.127 0.924 -0.116 0.948 -0.161 0.951 -0.11 0.887 -0.099 0.925 -0.1 0.961 -0.1 0.924 -0.086 0.923 -0.059 0.997 -0.063 2.046 -0.13" />
    <path class="write-stroke-pen" fill="none" stroke="#FFFFFF" stroke-width="1.2" stroke-linecap="round" stroke-linejoin="round" __comx="106.605" __comy="134.383" __timestamp="0x17a88f1eda6" d="M105.441 123.83 l-0.012 -0.045 -0.047 -0.047 -0.097 -0.117 -0.03 -0.035 -0.116 -0.125 -0.027 -0.029 -0.131 -0.138 -0.109 -0.095 -0.061 -0.051 -0.205 -0.14 -0.164 -0.098 -0.151 -0.077 -0.182 -0.078 -0.216 -0.077 -0.227 -0.068 -0.237 -0.06 -0.25 -0.047 -0.245 -0.025 -0.397 0.02 -0.341 0.053 -0.37 0.1 -0.381 0.147 -0.353 0.173 -0.397 0.24 -0.35 0.253 -0.354 0.299 -0.308 0.332 -0.26 0.338 -0.306 0.44 -0.228 0.419 -0.197 0.442 -0.165 0.456 -0.124 0.409 -0.103 0.417 -0.086 0.425 -0.056 0.44 -0.029 0.413 0.024 0.477 0.028 0.349 0.088 0.461 0.108 0.385 0.158 0.411 0.211 0.412 0.255 0.393 0.307 0.388 0.351 0.368 0.357 0.329 0.434 0.357 0.443 0.296 0.541 0.342 0.501 0.257 0.552 0.271 0.589 0.237 0.634 0.252 0.639 0.211 0.743 0.246 0.653 0.192 0.695 0.224 0.624 0.181 0.607 0.201 0.525 0.155 0.592 0.208 0.525 0.163 0.576 0.218 0.529 0.21 0.471 0.2 0.442 0.199 0.414 0.198 0.4 0.208 0.395 0.22 0.383 0.233 0.351 0.241 0.321 0.247 0.243 0.222 0.318 0.311 0.227 0.265 0.193 0.277 0.166 0.29 0.143 0.301 0.122 0.347 0.068 0.391 0.004 0.426 -0.069 0.451 -0.185 0.548 -0.259 0.528 -0.315 0.513 -0.425 0.542 -0.503 0.509 -0.575 0.486 -0.658 0.466 -0.72 0.442 -0.707 0.387 -0.779 0.373 -0.82 0.343 -0.811 0.26 -0.858 0.275 -0.76 0.181 -0.743 0.152 -0.747 0.119 -0.72 0.092 -0.658 0.064 -0.63 0.047 -0.542 0.013 -0.52 -0.052 -0.408 -0.049 -0.452 -0.108 -0.336 -0.111 -0.366 -0.154 -0.285 -0.167 -0.322 -0.226 -0.267 -0.253 -0.239 -0.305 -0.21 -0.358 -0.153 -0.358 -0.112 -0.38 -0.055 -0.434 -0.025 -0.4 0.053 -0.504 0.106 -0.494 0.175 -0.51 0.63 -1.832" />
    <path class="write-stroke-pen" fill="none" stroke="#FFFFFF" stroke-width="1.2" stroke-linecap="round" stroke-linejoin="round" __comx="125.132" __comy="134.383" __timestamp="0x17a88f1f064" d="M124.909 149.487 l-0.002 0 -0.006 0.001 -0.015 0.005 -0.013 0.005 -0.016 0.006 -0.013 0.005 -0.006 0.002 -0.012 0.002 -0.017 0 -0.017 -0.003 -0.016 -0.006 -0.035 -0.041 -0.006 -0.009 -0.009 -0.017 -0.018 -0.067 -0.003 -0.03 0 -0.033 0.006 -0.107 0.004 -0.033 0.016 -0.113 0.011 -0.049 0.017 -0.059 0.04 -0.149 0.018 -0.056 0.025 -0.068 0.052 -0.146 0.021 -0.05 0.028 -0.06 0.031 -0.06 0.034 -0.06 0.036 -0.06 0.032 -0.048 0.035 -0.046 0.037 -0.045 0.115 -0.111 0.014 -0.013 0.045 -0.038 0.063 -0.044 0.064 -0.037 0.066 -0.03 0.148 -0.047 0.075 -0.016 0.074 -0.009 0.073 -0.002 0.059 0.003 0.073 0.01 0.062 0.015 0.115 0.05 0.027 0.013 0.052 0.032 0.049 0.037 0.086 0.093 0.036 0.049 0.037 0.07 0.034 0.158 0.006 0.049 0 0.08 -0.032 0.177 -0.013 0.054 -0.063 0.142 -0.043 0.085 -0.109 0.154 -0.045 0.062 -0.139 0.15 -0.068 0.071 -0.161 0.134 -0.072 0.058 -0.184 0.122 -0.054 0.034 -0.18 0.094 -0.059 0.029 -0.176 0.068 -0.075 0.025 -0.191 0.046 -0.165 0.015 -0.073 0.004 -0.161 -0.016 -0.059 -0.009 -0.155 -0.054 -0.048 -0.02 -0.133 -0.085 -0.053 -0.042 -0.117 -0.147 -0.035 -0.054 -0.067 -0.16 -0.024 -0.125 -0.015 -0.174 -0.001 -0.058 0.045 -0.237 0.015 -0.06 0.058 -0.141 0.077 -0.136 0.04 -0.067 0.14 -0.169 0.115 -0.116 0.051 -0.05 1.116 -1.094" />
    <path class="write-stroke-pen" fill="none" stroke="#FFFFFF" stroke-width="1.2" stroke-linecap="round" stroke-linejoin="round" __comx="124.764" __comy="134.383" __timestamp="0x17a88f1f3ea" d="M124.971 122.035 l0 0 -0.002 0 -0.004 0 -0.002 0 -0.003 0 -0.003 0 -0.005 0.001 -0.003 0.001 -0.006 0.003 -0.009 0.008 -0.003 0.003 -0.009 0.012 -0.006 0.009 -0.008 0.017 -0.007 0.014 -0.006 0.014 -0.01 0.024 -0.005 0.011 -0.005 0.011 -0.009 0.019 -0.006 0.013 -0.011 0.02 -0.008 0.013 -0.008 0.013 -0.008 0.014 -0.009 0.014 -0.009 0.014 -0.014 0.02 -0.015 0.019 -0.026 0.028 -0.034 0.03 -0.03 0.024 -0.039 0.025 -0.041 0.021 -0.044 0.017 -0.054 0.014 -0.056 0.009 -0.058 0.004 -0.042 -0.001 -0.103 -0.026 -0.028 -0.008 -0.039 -0.015 -0.036 -0.017 -0.034 -0.02 -0.037 -0.027 -0.073 -0.081 -0.021 -0.028 -0.014 -0.021 -0.023 -0.04 -0.02 -0.05 -0.031 -0.114 -0.007 -0.039 -0.005 -0.057 -0.001 -0.05 0.003 -0.051 0.031 -0.121 0.012 -0.039 0.018 -0.051 0.061 -0.105 0.016 -0.025 0.096 -0.104 0.033 -0.032 0.106 -0.08 0.043 -0.028 0.125 -0.065 0.043 -0.019 0.136 -0.043 0.058 -0.013 0.069 -0.01 0.139 0.006 0.045 0.004 0.071 0.013 0.081 0.021 0.129 0.056 0.055 0.027 0.058 0.034 0.121 0.1 0.047 0.041 0.11 0.125 0.034 0.042 0.094 0.146 0.029 0.049 0.073 0.144 0.025 0.054 0.032 0.077 0.03 0.086 0.026 0.098 0.017 0.098 0.009 0.083 0.002 0.078 -0.003 0.068 -0.029 0.144 -0.004 0.017 -0.021 0.066 -0.062 0.122 -0.017 0.03 -0.044 0.059 -0.094 0.084 -0.088 0.049 -0.103 0.038 -0.106 0.011 -0.053 0 -0.127 -0.032 -0.123 -0.034 -0.133 -0.072 -0.056 -0.032 -0.126 -0.098 -0.04 -0.034 -0.098 -0.103 -0.026 -0.029 -0.092 -0.12 -0.021 -0.03 -0.031 -0.046 -0.033 -0.058 -0.029 -0.059 -0.02 -0.047 -0.017 -0.047 -0.01 -0.032 -0.011 -0.047 -0.008 -0.045 -0.004 -0.044 0 -0.042 0.003 -0.041 0.006 -0.039 0.009 -0.038 0.056 -0.105 0.013 -0.022 0.073 -0.08 0.034 -0.03 0.101 -0.058 0.042 -0.018 0.149 -0.038 0.05 -0.008 0.135 -0.008 0.068 0.003 0.13 0.03 0.064 0.018 0.129 0.059 0.075 0.039 0.14 0.099 0.073 0.055 0.15 0.142 0.112 0.124 0.05 0.062 0.126 0.198 0.081 0.151 0.074 0.16 0.067 0.169 0.031 0.084 0.071 0.229 0.02 0.07 0.043 0.191 0.014 0.082 0.011 0.097 0.007 0.115 -0.001 0.114 -0.009 0.113 -0.013 0.089 -0.047 0.165 -0.02 0.057 -0.031 0.073 -0.107 0.168 -0.033 0.046 -0.124 0.126 -0.049 0.043 -0.164 0.103 -0.067 0.035 -0.15 0.055 -0.073 0.02 -0.156 0.014 -0.173 0.006 -0.065 -0.002 -0.153 -0.029 -0.157 -0.031 -0.156 -0.054 -0.082 -0.029 -0.164 -0.08 -0.065 -0.033 -0.066 -0.034 -0.068 -0.035 -0.08 -0.044 -0.042 -0.024 -0.019 -0.011 -0.035 -0.021 -0.036 -0.022 -0.053 -0.031 -0.048 -0.026 -1.043 -0.56" />
  </g>
</svg>
