<svg class="write-page" width="1630px" height="840px" xmlns="http://www.w3.org/2000/svg" xmlns:xlink="http://www.w3.org/1999/xlink">
  <g class="write-content write-v3" width="1630" height="840" xruling="30" yruling="30" marginLeft="30" papercolor="#1B1C1C" rulecolor="#3A00F9FF">
    <g class="ruleline write-std-ruling write-scale-down" fill="none" stroke="#00F9FF" stroke-opacity="0.227" stroke-width="1" shape-rendering="crispEdges" vector-effect="non-scaling-stroke">
      <rect class="pagerect" fill="#1B1C1C" stroke="none" x="0" y="0" width="1630" height="840" />
      <path class="yrule_1" d="M0 30 l1630 0" />
      <path d="M0 60 l1630 0" />
      <path d="M0 90 l1630 0" />
      <path d="M0 120 l1630 0" />
      <path d="M0 150 l1630 0" />
      <path d="M0 180 l1630 0" />
      <path d="M0 210 l1630 0" />
      <path d="M0 240 l1630 0" />
      <path d="M0 270 l1630 0" />
      <path d="M0 300 l1630 0" />
      <path d="M0 330 l1630 0" />
      <path d="M0 360 l1630 0" />
      <path d="M0 390 l1630 0" />
      <path d="M0 420 l1630 0" />
      <path d="M0 450 l1630 0" />
      <path d="M0 480 l1630 0" />
      <path d="M0 510 l1630 0" />
      <path d="M0 540 l1630 0" />
      <path d="M0 570 l1630 0" />
      <path d="M0 600 l1630 0" />
      <path d="M0 630 l1630 0" />
      <path d="M0 660 l1630 0" />
      <path d="M0 690 l1630 0" />
      <path d="M0 720 l1630 0" />
      <path d="M0 750 l1630 0" />
      <path d="M0 780 l1630 0" />
      <path d="M0 810 l1630 0" />
      <path class="xrule_1" d="M30 0 l0 840" />
      <path d="M60 0 l0 840" />
      <path d="M90 0 l0 840" />
      <path d="M120 0 l0 840" />
      <path d="M150 0 l0 840" />
      <path d="M180 0 l0 840" />
      <path d="M210 0 l0 840" />
      <path d="M240 0 l0 840" />
      <path d="M270 0 l0 840" />
      <path d="M300 0 l0 840" />
      <path d="M330 0 l0 840" />
      <path d="M360 0 l0 840" />
      <path d="M390 0 l0 840" />
      <path d="M420 0 l0 840" />
      <path d="M450 0 l0 840" />
      <path d="M480 0 l0 840" />
      <path d="M510 0 l0 840" />
      <path d="M540 0 l0 840" />
      <path d="M570 0 l0 840" />
      <path d="M600 0 l0 840" />
      <path d="M630 0 l0 840" />
      <path d="M660 0 l0 840" />
      <path d="M690 0 l0 840" />
      <path d="M720 0 l0 840" />
      <path d="M750 0 l0 840" />
      <path d="M780 0 l0 840" />
      <path d="M810 0 l0 840" />
      <path d="M840 0 l0 840" />
      <path d="M870 0 l0 840" />
      <path d="M900 0 l0 840" />
      <path d="M930 0 l0 840" />
      <path d="M960 0 l0 840" />
      <path d="M990 0 l0 840" />
      <path d="M1020 0 l0 840" />
      <path d="M1050 0 l0 840" />
      <path d="M1080 0 l0 840" />
      <path d="M1110 0 l0 840" />
      <path d="M1140 0 l0 840" />
      <path d="M1170 0 l0 840" />
      <path d="M1200 0 l0 840" />
      <path d="M1230 0 l0 840" />
      <path d="M1260 0 l0 840" />
      <path d="M1290 0 l0 840" />
      <path d="M1320 0 l0 840" />
      <path d="M1350 0 l0 840" />
      <path d="M1380 0 l0 840" />
      <path d="M1410 0 l0 840" />
      <path d="M1440 0 l0 840" />
      <path d="M1470 0 l0 840" />
      <path d="M1500 0 l0 840" />
      <path d="M1530 0 l0 840" />
      <path d="M1560 0 l0 840" />
      <path d="M1590 0 l0 840" />
      <path d="M1620 0 l0 840" />
      <path class="leftmargin" stroke="#FF0000" d="M30 0 l0 840" />
    </g>
    <path class="write-stroke-pen" transform="translate(-4.519,0.698)" fill="none" stroke="#FFFFFF" stroke-width="1.2" stroke-linecap="round" stroke-linejoin="round" __comx="93.076" __comy="49.094" __timestamp="0x17a888dbda3" d="M95.383 35.14 l-0.003 -0.029 -0.001 -0.007 -0.006 -0.038 -0.001 -0.008 -0.005 -0.013 -0.005 0.011 0 0.06 0.012 0.128 0.058 0.239 0.064 0.334 0.128 0.482 0.119 0.618 0.194 0.773 0.216 0.845 0.231 0.923 0.268 1.051 0.282 1.137 0.285 1.198 0.286 1.259 0.291 1.275 0.278 1.263 0.273 1.261 0.27 1.26 0.222 1.131 0.203 1.048 0.172 0.937 0.114 0.848 0.133 0.762 0.075 0.685 0.063 0.586 0.087 0.524 0.05 0.399 0.042 0.344 0.025 0.244 0.016 0.186 0.005 0.054 0.003 0.04 0.001 0.052 -0.001 0.05 -0.011 0.135 -0.018 0.099 -0.034 0.06 -0.17 0.305" />
    <path class="write-stroke-pen" transform="translate(-4.519,0.698)" fill="none" stroke="#FFFFFF" stroke-width="1.2" stroke-linecap="round" stroke-linejoin="round" __comx="98.119" __comy="49.094" __timestamp="0x17a888dbf40" d="M96.601 36.584 l-0.021 -0.007 -0.012 -0.006 -0.051 -0.021 -0.022 -0.011 -0.027 -0.013 -0.023 -0.012 -0.025 -0.013 -0.038 -0.021 -0.033 -0.02 -0.068 -0.059 -0.032 -0.029 -0.072 -0.086 -0.054 -0.078 -0.057 -0.098 -0.056 -0.12 -0.045 -0.133 -0.041 -0.172 -0.014 -0.214 -0.005 -0.205 0.041 -0.302 0.067 -0.287 0.108 -0.324 0.141 -0.334 0.178 -0.336 0.231 -0.365 0.28 -0.376 0.339 -0.381 0.412 -0.39 0.448 -0.364 0.498 -0.348 0.545 -0.32 0.531 -0.265 0.562 -0.239 0.581 -0.184 0.629 -0.187 0.594 -0.119 0.579 -0.08 0.562 -0.048 0.503 -0.009 0.555 0.053 0.496 0.079 0.507 0.116 0.511 0.148 0.506 0.17 0.487 0.201 0.414 0.197 0.377 0.216 0.357 0.249 0.314 0.268 0.296 0.323 0.246 0.37 0.207 0.416 0.175 0.477 0.121 0.492 0.067 0.531 -0.032 0.603 -0.099 0.589 -0.154 0.592 -0.199 0.629 -0.246 0.625 -0.268 0.596 -0.293 0.578 -0.321 0.551 -0.33 0.504 -0.349 0.495 -0.36 0.465 -0.404 0.474 -0.427 0.455 -0.459 0.433 -0.487 0.41 -0.514 0.387 -0.514 0.347 -0.504 0.289 -0.47 0.233 -0.426 0.173 -0.434 0.172 -0.374 0.117 -0.384 0.1 -0.367 0.079 -0.308 0.053 -0.249 0.036 -0.278 0.024 -0.241 -0.006 -0.171 -0.008 -0.219 -0.035 -0.053 -0.011 -0.143 -0.048 -0.044 -0.017 -0.11 -0.062 -0.087 -0.064 -0.055 -0.06 -0.036 -0.079 0.002 -0.078 0.048 -0.084 0.105 -0.079 0.158 -0.077 0.223 -0.068 0.258 -0.054 0.286 -0.043 1.079 -0.16" />
    <path class="write-stroke-pen" transform="translate(-4.519,0.698)" fill="none" stroke="#FFFFFF" stroke-width="1.2" stroke-linecap="round" stroke-linejoin="round" __comx="114.354" __comy="49.094" __timestamp="0x17a888dc08c" d="M115.233 56.99 l-0.002 0.024 -0.005 0.06 -0.01 0.126 -0.007 0.125 -0.005 0.133 -0.003 0.107 0.001 0.053 0.001 0.049 0.002 0.045 0.003 0.035 0.003 0.024 0.007 0.035 0.011 0.039 0.03 0.069 0.013 0.024 0.054 0.039 0.038 0 0.045 -0.046 0.04 -0.094 0.036 -0.142 0.034 -0.218 0.025 -0.288 0.005 -0.36 -0.007 -0.426 -0.021 -0.431 -0.033 -0.469 -0.043 -0.525 -0.047 -0.512 -0.059 -0.543 -0.059 -0.545 -0.062 -0.571 -0.062 -0.573 -0.06 -0.552 -0.049 -0.551 -0.044 -0.508 -0.039 -0.532 -0.033 -0.51 -0.028 -0.489 -0.02 -0.445 -0.005 -0.426 0.033 -0.41 0.038 -0.382 0.075 -0.384 0.083 -0.322 0.112 -0.337 0.123 -0.291 0.125 -0.263 0.146 -0.25 0.1 -0.143 0.134 -0.184 0.107 -0.121 0.101 -0.097 0.137 -0.108 0.162 -0.104 0.171 -0.089 0.222 -0.081 0.279 -0.048 0.273 -0.008 0.293 0.033 0.31 0.079 0.322 0.117 0.323 0.158 0.34 0.203 0.333 0.227 0.352 0.266 0.346 0.281 0.352 0.306 0.323 0.296 0.329 0.318 0.315 0.312 0.314 0.316 0.304 0.306 1.012 1.018" />
    <path class="write-stroke-pen" transform="translate(-4.519,0.698)" fill="none" stroke="#FFFFFF" stroke-width="1.2" stroke-linecap="round" stroke-linejoin="round" __comx="122.529" __comy="49.094" __timestamp="0x17a888dc1e3" d="M126.395 51.584 l0 -0.016 0 -0.008 0 -0.062 0 -0.016 0 -0.018 0 -0.08 0 -0.016 0 -0.086 0 -0.019 0 -0.087 0 -0.021 0 -0.033 0 -0.034 0 -0.035 -0.001 -0.027 -0.004 -0.043 -0.008 -0.046 -0.036 -0.095 -0.019 -0.039 -0.076 -0.098 -0.066 -0.061 -0.082 -0.051 -0.146 -0.037 -0.131 -0.004 -0.164 0.03 -0.19 0.067 -0.196 0.095 -0.228 0.146 -0.207 0.164 -0.203 0.194 -0.166 0.199 -0.188 0.243 -0.149 0.242 -0.129 0.258 -0.115 0.289 -0.088 0.28 -0.068 0.269 -0.053 0.299 -0.031 0.286 0.007 0.31 0.036 0.297 0.056 0.278 0.088 0.295 0.121 0.295 0.134 0.258 0.171 0.26 0.171 0.201 0.209 0.214 0.213 0.168 0.229 0.143 0.261 0.126 0.254 0.097 0.268 0.071 0.319 0.027 0.301 -0.011 0.328 -0.056 0.343 -0.106 0.346 -0.15 0.338 -0.181 0.341 -0.216 0.306 -0.224 0.262 -0.216 0.265 -0.244 0.215 -0.223 0.206 -0.235 0.172 -0.237 0.206 -0.289 0.131 -0.23 0.123 -0.244 0.099 -0.214 0.069 -0.175 0.061 -0.178 0.049 -0.162 0.039 -0.145 0.033 -0.151 0.013 -0.088 0.003 -0.214 -0.002 -0.06 -0.025 -0.153 -0.015 -0.068 -0.049 -0.134 -0.054 -0.104 -0.064 -0.094 -0.076 -0.084 -0.088 -0.072 -0.051 -0.034 -0.092 -0.038 -0.051 -0.015 -0.095 -0.005 -0.764 -0.04" />
    <path class="write-stroke-pen" transform="translate(-4.519,0.698)" fill="none" stroke="#FFFFFF" stroke-width="1.2" stroke-linecap="round" stroke-linejoin="round" __comx="132.518" __comy="49.094" __timestamp="0x17a888dc34b" d="M137.187 51.007 l-0.001 -0.002 -0.004 -0.026 -0.003 -0.012 -0.007 -0.017 -0.007 -0.016 -0.023 -0.053 -0.01 -0.017 -0.02 -0.031 -0.047 -0.051 -0.022 -0.023 -0.07 -0.052 -0.033 -0.021 -0.111 -0.054 -0.099 -0.039 -0.109 -0.033 -0.137 -0.026 -0.179 -0.015 -0.221 0.016 -0.227 0.027 -0.293 0.078 -0.259 0.094 -0.255 0.118 -0.237 0.136 -0.197 0.153 -0.241 0.217 -0.177 0.215 -0.167 0.256 -0.137 0.271 -0.105 0.267 -0.086 0.278 -0.067 0.268 -0.032 0.326 -0.011 0.261 0.029 0.313 0.028 0.242 0.101 0.352 0.108 0.276 0.138 0.281 0.153 0.261 0.164 0.242 0.179 0.223 0.172 0.173 0.24 0.214 0.245 0.173 0.259 0.145 0.253 0.115 0.262 0.096 0.275 0.07 0.317 0.029 0.3 0.011 0.36 -0.048 0.313 -0.079 0.324 -0.112 0.315 -0.139 0.319 -0.171 0.298 -0.185 0.265 -0.189 0.234 -0.19 0.236 -0.218 0.166 -0.186 0.199 -0.225 0.146 -0.199 0.131 -0.209 0.11 -0.216 0.087 -0.205 0.067 -0.193 0.052 -0.203 0.032 -0.193 0.015 -0.159 -0.011 -0.223 -0.007 -0.07 -0.04 -0.164 -0.072 -0.199 -0.055 -0.109 -0.066 -0.099 -0.075 -0.089 -0.029 -0.031 -0.087 -0.078 -0.033 -0.027 -0.04 -0.03 -0.057 -0.034 -0.1 -0.038 -0.042 -0.011 -0.112 0.004 -0.081 0.027 -0.067 0.05 -0.047 0.083 -0.028 0.094 0.007 0.148 0.012 0.11 0.085 0.794" />
    <path class="write-stroke-pen" transform="translate(-4.519,0.698)" fill="none" stroke="#FFFFFF" stroke-width="1.2" stroke-linecap="round" stroke-linejoin="round" __comx="144.356" __comy="49.094" __timestamp="0x17a888dc48b" d="M146.616 56.701 l0 0 0 0.002 0.003 0.006 0.006 0.009 0.028 0.023 0.008 0.006 0.013 0.009 0.055 0.027 0.012 0.006 0.02 0.008 0.08 0.017 0.03 0.003 0.087 -0.017 0.076 -0.034 0.089 -0.066 0.105 -0.117 0.106 -0.169 0.104 -0.228 0.091 -0.29 0.074 -0.335 0.057 -0.358 0.044 -0.437 0.018 -0.476 -0.004 -0.531 -0.02 -0.539 -0.074 -0.61 -0.068 -0.586 -0.118 -0.637 -0.134 -0.644 -0.148 -0.666 -0.174 -0.695 -0.197 -0.759 -0.196 -0.73 -0.213 -0.754 -0.209 -0.746 -0.191 -0.695 -0.197 -0.743 -0.181 -0.716 -0.13 -0.66 -0.152 -0.684 -0.106 -0.574 -0.09 -0.559 -0.077 -0.519 -0.057 -0.477 -0.042 -0.481 -0.029 -0.44 -0.011 -0.4 0.005 -0.405 0.017 -0.385 0.052 -0.378 0.072 -0.345 0.06 -0.293 0.11 -0.346 0.117 -0.297 0.133 -0.292 0.159 -0.293 0.176 -0.284 0.206 -0.285 0.231 -0.263 0.236 -0.232 0.261 -0.203 0.283 -0.202 0.248 -0.146 0.276 -0.127 0.286 -0.105 0.314 -0.091 0.321 -0.07 0.338 -0.026 0.344 0.016 0.377 0.065 0.382 0.119 0.38 0.168 0.374 0.217 0.366 0.269 0.311 0.274 0.306 0.312 0.271 0.329 0.206 0.325 0.725 1.143" />
    <path class="write-stroke-pen" transform="translate(-4.519,0.698)" fill="none" stroke="#FFFFFF" stroke-width="1.2" stroke-linecap="round" stroke-linejoin="round" __comx="143.136" __comy="49.094" __timestamp="0x17a888dc534" d="M142.985 49.108 l-0.002 -0.024 -0.001 -0.009 -0.003 -0.075 0.02 -0.078 0.035 -0.064 0.097 -0.149 0.139 -0.17 0.207 -0.213 0.253 -0.228 0.347 -0.275 0.386 -0.271 0.404 -0.255 0.485 -0.279 0.495 -0.26 0.537 -0.247 0.571 -0.234 0.575 -0.211 0.523 -0.151 0.538 -0.17 0.51 -0.132 0.473 -0.105 0.479 -0.094 0.437 -0.074 0.439 -0.056 1.403 -0.18" />
    <path class="write-stroke-pen" transform="translate(-4.519,0.698)" fill="none" stroke="#FFFFFF" stroke-width="1.2" stroke-linecap="round" stroke-linejoin="round" __comx="170.133" __comy="49.094" __timestamp="0x17a888dc7a2" d="M174.595 49.604 l0.001 -0.001 0.004 -0.004 0.007 -0.008 0.041 -0.026 0.012 -0.008 0.014 -0.008 0.019 -0.011 0.021 -0.012 0.023 -0.014 0.024 -0.015 0.02 -0.013 0.015 -0.009 0.014 -0.009 0.013 -0.009 0.017 -0.013 0.018 -0.016 0.017 -0.026 0.003 -0.009 -0.028 -0.011 -0.052 -0.001 -0.109 0.032 -0.129 0.034 -0.207 0.08 -0.214 0.095 -0.259 0.133 -0.275 0.165 -0.291 0.198 -0.287 0.228 -0.274 0.238 -0.27 0.26 -0.243 0.262 -0.186 0.245 -0.205 0.287 -0.148 0.262 -0.125 0.274 -0.106 0.284 -0.082 0.272 -0.058 0.26 -0.039 0.268 0.001 0.32 0.031 0.297 0.047 0.243 0.075 0.267 0.092 0.243 0.106 0.196 0.143 0.229 0.147 0.177 0.178 0.163 0.245 0.163 0.285 0.131 0.38 0.073 0.357 0.008 0.361 -0.046 0.381 -0.09 0.392 -0.142 0.404 -0.184 0.377 -0.208 0.35 -0.231 0.307 -0.224 0.309 -0.256 0.277 -0.252 0.248 -0.25 0.182 -0.226 0.226 -0.286 0.137 -0.206 0.119 -0.201 0.119 -0.226 0.091 -0.192 0.085 -0.213 0.074 -0.201 0.058 -0.182 0.046 -0.165 0.041 -0.167 0.031 -0.15 0.01 -0.064 0.015 -0.165 -0.004 -0.141 -0.005 -0.07 -0.031 -0.151 -0.016 -0.065 -0.067 -0.162 -0.029 -0.061 -0.074 -0.12 -0.038 -0.056 -0.091 -0.11 -0.036 -0.041 -0.782 -0.907" />
    <path class="write-stroke-pen" transform="translate(-4.519,0.698)" fill="none" stroke="#FFFFFF" stroke-width="1.2" stroke-linecap="round" stroke-linejoin="round" __comx="184.268" __comy="47.514" __timestamp="0x17a888dcd1c" d="M188.11 55.298 l-0.003 0.04 -0.003 0.082 -0.003 0.161 -0.002 0.175 -0.002 0.173 -0.001 0.161 -0.001 0.141 -0.003 0.133 -0.001 0.043 -0.005 0.141 -0.002 0.048 -0.003 0.048 -0.003 0.034 -0.002 0.022 -0.002 0.015 -0.002 0.015 -0.009 0.05 -0.027 0.094 -0.015 0.04 -0.06 0.074 -0.052 0.02 -0.109 -0.036 -0.095 -0.096 -0.149 -0.189 -0.158 -0.242 -0.157 -0.278 -0.159 -0.31 -0.168 -0.339 -0.165 -0.351 -0.178 -0.39 -0.186 -0.42 -0.172 -0.403 -0.177 -0.43 -0.158 -0.462 -0.168 -0.471 -0.153 -0.515 -0.164 -0.52 -0.117 -0.493 -0.109 -0.504 -0.102 -0.507 -0.097 -0.553 -0.087 -0.554 -0.085 -0.601 -0.075 -0.577 -0.071 -0.577 -0.069 -0.577 -0.071 -0.624 -0.105 -0.661 -0.079 -0.684 -0.068 -0.708 -0.066 -0.707 -0.058 -0.704 -0.052 -0.703 -0.038 -0.631 -0.033 -0.634 -0.022 -0.612 -0.014 -0.591 0.008 -0.573 0.059 -0.551 0.048 -0.478 0.08 -0.446 0.071 -0.415 0.117 -0.431 0.11 -0.351 0.131 -0.348 0.127 -0.3 0.14 -0.29 0.159 -0.277 0.198 -0.29 0.216 -0.265 0.208 -0.2 0.264 -0.223 0.25 -0.162 0.285 -0.149 0.296 -0.12 0.286 -0.092 0.339 -0.072 0.351 -0.025 0.351 0.014 0.37 0.048 0.375 0.089 0.388 0.124 0.384 0.159 0.376 0.184 0.397 0.22 0.383 0.241 0.37 0.263 0.342 0.277 0.327 0.302 0.3 0.32 0.272 0.342 0.252 0.372 0.206 0.406 0.212 0.463 0.143 0.43 0.111 0.463 0.321 1.337" />
    <path class="write-stroke-pen" transform="translate(-4.519,0.698)" fill="none" stroke="#FFFFFF" stroke-width="1.2" stroke-linecap="round" stroke-linejoin="round" __comx="182.441" __comy="47.514" __timestamp="0x17a888dcdda" d="M182.601 49.17 l-0.017 -0.006 -0.026 -0.032 -0.035 -0.029 -0.039 -0.055 -0.007 -0.011 -0.027 -0.057 -0.008 -0.02 -0.017 -0.084 0.012 -0.093 0.032 -0.103 0.043 -0.078 0.077 -0.093 0.107 -0.096 0.15 -0.1 0.186 -0.089 0.241 -0.091 0.278 -0.077 0.335 -0.068 0.372 -0.055 0.451 -0.058 0.527 -0.048 0.604 -0.037 0.656 -0.041 0.706 -0.05 0.704 -0.054 0.717 -0.094 0.768 -0.079 0.807 -0.123 1.297 -0.198" />
    <path class="write-stroke-pen" transform="translate(-4.519,0.698)" fill="none" stroke="#FFFFFF" stroke-width="1.2" stroke-linecap="round" stroke-linejoin="round" __comx="220.907" __comy="47.514" __timestamp="0x17a888dcf74" d="M224.445 37.182 l-0.001 -0.002 -0.001 -0.003 -0.001 -0.001 -0.001 -0.001 -0.009 0.037 -0.01 0.114 0.005 0.205 0.023 0.354 0.078 0.484 0.074 0.552 0.127 0.712 0.099 0.785 0.131 0.859 0.098 0.923 0.137 0.938 0.105 0.946 0.159 0.942 0.118 0.966 0.15 0.979 0.109 0.963 0.164 0.984 0.11 0.888 0.133 0.882 0.072 0.802 0.055 0.718 0.034 0.679 0.02 0.595 0.007 0.557 -0.012 0.498 -0.046 0.415 -0.043 0.35 -0.037 0.236 -0.05 0.203 -0.016 0.062 -0.018 0.061 -0.023 0.064 -0.061 0.119 -0.087 0.119 -0.559 0.763" />
    <path class="write-stroke-pen" transform="translate(-4.519,0.698)" fill="none" stroke="#FFFFFF" stroke-width="1.2" stroke-linecap="round" stroke-linejoin="round" __comx="222.275" __comy="47.514" __timestamp="0x17a888dd053" d="M213.221 40.587 l-0.009 -0.017 -0.006 -0.008 -0.01 -0.012 -0.004 -0.008 0.033 -0.034 0.057 -0.02 0.123 -0.019 0.186 -0.013 0.254 -0.012 0.378 -0.011 0.474 -0.009 0.613 -0.021 0.705 -0.037 0.8 -0.09 0.886 -0.084 0.957 -0.161 1.03 -0.18 1.055 -0.216 1.065 -0.224 1.093 -0.26 1.115 -0.3 1.155 -0.334 1.233 -0.403 1.186 -0.403 1.181 -0.408 1.155 -0.406 1.137 -0.417 1.154 -0.418 1.041 -0.392 1.019 -0.386 0.989 -0.349 0.882 -0.307 0.844 -0.288 0.796 -0.25 0.733 -0.21 0.629 -0.172 1.248 -0.341" />
    <path class="write-stroke-pen" transform="translate(-4.519,0.698)" fill="none" stroke="#FFFFFF" stroke-width="1.2" stroke-linecap="round" stroke-linejoin="round" __comx="236.764" __comy="47.514" __timestamp="0x17a888dd234" d="M235.134 34.645 l0 0.016 0.005 0.049 0.042 0.141 0.055 0.253 0.099 0.358 0.091 0.478 0.131 0.58 0.115 0.679 0.188 0.801 0.19 0.832 0.195 0.884 0.214 0.984 0.203 0.998 0.214 1.07 0.213 1.086 0.213 1.104 0.212 1.123 0.212 1.143 0.203 1.185 0.192 1.156 0.187 1.132 0.181 1.085 0.169 1.039 0.114 0.989 0.159 0.921 0.11 0.859 0.134 0.79 0.088 0.688 0.106 0.563 0.075 0.48 0.09 0.425 0.066 0.323 0.08 0.297 0.047 0.17 0.026 0.087 0.024 0.073 0.022 0.061 0.013 0.032 0.055 0.117 0.06 0.093 0.073 0.064 0.074 0.005 0.071 -0.077 0.061 -0.166 0.049 -0.241 0.042 -0.342 0.034 -0.446 0.026 -0.547 0.019 -0.643 0.013 -0.686 0.001 -0.745 0.001 -0.705 0 -0.734 0 -0.714 0.022 -0.695 0.086 -0.696 0.104 -0.615 0.125 -0.577 0.128 -0.529 0.133 -0.473 0.153 -0.446 0.16 -0.405 0.161 -0.34 0.171 -0.298 0.166 -0.25 0.146 -0.175 0.212 -0.221 0.166 -0.138 0.178 -0.119 0.17 -0.095 0.15 -0.065 0.237 -0.05 0.221 -0.006 0.227 0.036 0.264 0.097 0.274 0.168 0.218 0.209 0.274 0.313 0.196 0.307 0.228 0.413 0.174 0.414 0.192 0.477 0.135 0.485 0.145 0.497 0.115 0.505 0.095 0.514 0.083 0.499 0.075 0.481 0.068 0.506 0.059 0.486 0.058 0.534 0.052 0.512 0.047 0.49 0.048 0.448 0.04 0.381 0.029 0.337 0.032 0.302 0.027 0.237 0.028 0.202 0.044 0.177 0.017 0.07 0.008 0.035 0.014 0.051 0.019 0.057 0.099 0.166 0.108 0.101 0.113 0.043 0.543 0.206" />
    <path class="write-stroke-pen" transform="translate(-4.519,0.698)" fill="none" stroke="#FFFFFF" stroke-width="1.2" stroke-linecap="round" stroke-linejoin="round" __comx="255.653" __comy="47.514" __timestamp="0x17a888dd440" d="M251.083 50.161 l0 0.002 0 0.042 0 0.071 0 0.106 0.007 0.143 0.012 0.167 0.022 0.204 0.032 0.256 0.038 0.274 0.044 0.308 0.05 0.34 0.053 0.351 0.052 0.379 0.052 0.408 0.05 0.414 0.05 0.44 0.049 0.466 0.046 0.446 0.043 0.425 0.041 0.405 0.029 0.36 0.03 0.343 0.03 0.322 0.027 0.26 0.029 0.261 0.027 0.204 0.029 0.184 0.015 0.084 0.019 0.094 0.019 0.078 0.048 0.14 0.012 0.033 0.023 0.054 0.093 0.145 0.112 0.085 0.101 0.018 0.122 -0.072 0.173 -0.185 0.145 -0.292 0.194 -0.435 0.188 -0.479 0.152 -0.54 0.183 -0.562 0.132 -0.519 0.16 -0.525 0.152 -0.491 0.151 -0.477 0.108 -0.419 0.133 -0.422 0.126 -0.367 0.118 -0.311 0.128 -0.301 0.133 -0.281 0.108 -0.206 0.119 -0.2 0.112 -0.153 0.1 -0.12 0.117 -0.121 0.107 -0.094 0.04 -0.033 0.179 -0.118 0.06 -0.034 0.213 -0.069 0.07 -0.017 0.229 0.001 0.124 0.021 0.19 0.068 0.12 0.066 0.111 0.083 0.145 0.12 0.095 0.096 0.112 0.134 0.125 0.148 0.088 0.119 0.088 0.13 0.046 0.068 0.139 0.194 0.028 0.041 0.125 0.177 0.036 0.051 0.043 0.06 0.114 0.137 0.04 0.049 0.041 0.049 0.117 0.119 0.028 0.027 0.108 0.092 0.04 0.032 0.15 0.096 0.06 0.034 0.18 0.063 0.061 0.017 0.211 0.014 0.141 -0.016 0.228 -0.067 0.165 -0.086 0.254 -0.158 0.202 -0.153 0.219 -0.191 0.227 -0.216 0.225 -0.245 0.246 -0.291 0.232 -0.297 0.218 -0.293 0.231 -0.295 0.227 -0.285 0.207 -0.244 0.206 -0.229 0.172 -0.161 0.192 -0.178 0.166 -0.132 0.137 -0.094 0.143 -0.084 0.147 -0.075 0.134 -0.059 0.168 -0.055 0.251 -0.029 0.242 0.014 0.234 0.054 0.294 0.127 0.301 0.193 0.273 0.238 0.301 0.329 0.272 0.356 0.264 0.387 0.253 0.417 0.25 0.439 0.242 0.462 0.232 0.471 0.227 0.464 0.21 0.454 0.212 0.466 0.209 0.482 0.188 0.46 0.178 0.429 0.14 0.403 0.157 0.405 0.117 0.344 0.106 0.349 0.116 0.339 0.079 0.284 0.073 0.291 0.057 0.271 0.041 0.232 0.036 0.234 0.026 0.194 0.019 0.176 0.005 0.079 0.09 1.465" />
    <path class="write-stroke-pen" transform="translate(-4.519,0.698)" fill="none" stroke="#FFFFFF" stroke-width="1.2" stroke-linecap="round" stroke-linejoin="round" __comx="301.949" __comy="42.041" __timestamp="0x17a888ddc11" d="M298.334 41.309 l-0.002 -0.003 -0.01 -0.023 -0.025 -0.024 -0.015 -0.014 -0.008 -0.008 -0.015 -0.015 -0.014 -0.015 -0.014 -0.017 -0.041 -0.059 -0.011 -0.015 -0.04 -0.078 -0.012 -0.026 -0.032 -0.109 -0.009 -0.044 -0.014 -0.15 0.014 -0.159 0.014 -0.121 0.055 -0.191 0.035 -0.116 0.106 -0.229 0.113 -0.194 0.14 -0.221 0.161 -0.234 0.173 -0.237 0.22 -0.284 0.267 -0.313 0.302 -0.315 0.35 -0.323 0.366 -0.309 0.412 -0.317 0.41 -0.283 0.428 -0.278 0.435 -0.25 0.46 -0.233 0.495 -0.192 0.549 -0.204 0.528 -0.137 0.583 -0.117 0.541 -0.077 0.568 -0.057 0.551 -0.021 0.525 0.031 0.545 0.07 0.504 0.098 0.474 0.129 0.465 0.166 0.438 0.187 0.382 0.203 0.4 0.264 0.365 0.292 0.332 0.34 0.29 0.364 0.227 0.384 0.186 0.425 0.143 0.463 0.112 0.521 0.071 0.555 -0.005 0.606 -0.089 0.686 -0.186 0.745 -0.255 0.722 -0.326 0.742 -0.408 0.757 -0.436 0.715 -0.494 0.736 -0.547 0.756 -0.575 0.75 -0.585 0.738 -0.653 0.762 -0.649 0.737 -0.67 0.738 -0.668 0.714 -0.634 0.676 -0.661 0.677 -0.622 0.621 -0.629 0.62 -0.642 0.612 -0.6 0.583 -0.608 0.581 -0.58 0.564 -0.555 0.546 -0.5 0.488 -0.467 0.459 -0.408 0.41 -0.338 0.355 -0.293 0.319 -0.228 0.266 -0.186 0.229 -0.126 0.175 -0.117 0.182 -0.075 0.13 -0.068 0.132 -0.033 0.073 -0.057 0.203 -0.015 0.068 0.002 0.214 0.037 0.165 0.082 0.167 0.148 0.166 0.214 0.148 0.302 0.124 0.378 0.055 0.441 0.025 0.59 -0.067 0.604 -0.113 0.642 -0.156 0.692 -0.188 0.669 -0.189 0.691 -0.191 0.737 -0.189 0.75 -0.143 0.821 -0.177 0.772 -0.119 0.801 -0.099 0.732 -0.08 0.736 -0.073 0.761 -0.063 0.69 -0.037 0.694 -0.024 0.673 -0.016 0.606 -0.01 0.612 0.013 0.614 0.028 0.569 0.074 0.501 0.069 0.532 0.112 0.432 0.109 0.432 0.122 1.347 0.381" />
    <path class="write-stroke-pen" transform="translate(-4.519,0.698)" fill="none" stroke="#FFFFFF" stroke-width="1.2" stroke-linecap="round" stroke-linejoin="round" __comx="322.733" __comy="58.895" __timestamp="0x17a888ddd29" d="M327.551 58.373 l-0.02 0.002 -0.01 0.003 -0.067 0.02 -0.046 0.029 -0.024 0.016 -0.026 0.019 -0.014 0.011 -0.018 0.011 -0.042 0.014 -0.014 0.003 -0.317 0.059" />
    <path class="write-stroke-pen" transform="translate(-4.519,0.698)" fill="none" stroke="#FFFFFF" stroke-width="1.2" stroke-linecap="round" stroke-linejoin="round" __comx="324.239" __comy="35.028" __timestamp="0x17a888dddd1" d="M329.82 35.016 l-0.09 -0.09 -0.105 -0.09 -0.165 -0.129 -0.144 -0.083 -0.114 -0.056 -0.05 -0.025 -0.157 -0.067 -0.11 -0.044 -0.115 -0.044 -1.073 -0.405" />
    <path class="write-stroke-pen" transform="translate(-4.519,0.698)" fill="none" stroke="#FFFFFF" stroke-width="1.2" stroke-linecap="round" stroke-linejoin="round" __comx="207.98" __comy="72.805" __timestamp="0x17a888de999" d="M70.974 72.176 l283.05 0.784" />
    <path class="write-stroke-pen" fill="none" stroke="#FFFFFF" stroke-width="1.2" stroke-linecap="round" stroke-linejoin="round" __comx="102.58" __comy="168.384" __timestamp="0x17a88abbdbe" d="M103.971 165.037 l0 0 0 0.002 0 0.007 0.007 0.049 0.002 0.018 0.012 0.082 0.016 0.09 0.014 0.102 0.014 0.133 0.02 0.152 0.006 0.049 0.018 0.187 0.007 0.075 0.01 0.163 0 0.084 -0.006 0.176 -0.008 0.088 -0.024 0.189 -0.016 0.092 -0.042 0.219 -0.022 0.095 -0.056 0.21 -0.073 0.189 -0.045 0.109 -0.099 0.192 -0.057 0.106 -0.145 0.213 -0.07 0.098 -0.153 0.18 -0.067 0.074 -0.21 0.19 -0.077 0.065 -0.23 0.158 -0.082 0.052 -0.224 0.12 -0.11 0.049 -0.221 0.075 -0.199 0.037 -0.213 0.028 -0.186 -0.002 -0.192 -0.011 -0.231 -0.057 -0.084 -0.024 -0.218 -0.104 -0.146 -0.091 -0.138 -0.106 -0.145 -0.136 -0.157 -0.188 -0.148 -0.228 -0.127 -0.248 -0.101 -0.24 -0.088 -0.282 -0.062 -0.269 -0.04 -0.257 0.004 -0.349 0.012 -0.233 0.063 -0.329 0.044 -0.207 0.125 -0.344 0.127 -0.278 0.104 -0.183 0.2 -0.313 0.161 -0.201 0.238 -0.27 0.23 -0.204 0.234 -0.18 0.268 -0.174 0.279 -0.148 0.292 -0.128 0.248 -0.093 0.284 -0.086 0.219 -0.05 0.232 -0.034 0.252 0.003 0.266 0.018 0.278 0.071 0.286 0.103 0.187 0.095 0.28 0.168 0.191 0.147 0.207 0.204 0.173 0.207 0.16 0.243 0.134 0.262 0.112 0.277 0.085 0.297 0.057 0.314 0.008 0.311 -0.009 0.266 -0.02 0.221 -0.055 0.28 -0.046 0.231 -0.082 0.282 -0.07 0.222 -0.141 0.293 -0.17 0.313 -0.168 0.239 -0.215 0.247 -0.197 0.197 -0.271 0.225 -0.239 0.17 -0.225 0.137 -0.26 0.136 -0.217 0.098 -0.197 0.079 -0.207 0.067 -0.123 0.032 -0.272 0.049 -0.126 0.016 -0.327 -0.004 -0.088 -0.004 -0.244 -0.048 -0.095 -0.022 -0.237 -0.098 -0.172 -0.099 -0.137 -0.102 -0.124 -0.116 -0.139 -0.166 -0.134 -0.203 -0.129 -0.27 -0.103 -0.318 -0.047 -0.386 -0.022 -0.314 0.022 -0.375 0.026 -0.282 0.072 -0.355 0.057 -0.261 0.14 -0.369 0.121 -0.264 0.12 -0.205 0.181 -0.28 0.127 -0.165 0.143 -0.164 0.06 -0.067 0.236 -0.213 0.16 -0.124 0.168 -0.112 0.066 -0.04 0.257 -0.122 0.093 -0.037 0.272 -0.079 0.2 -0.026 0.209 -0.017 0.193 0.015 0.086 0.011 0.215 0.071 0.163 0.082 0.142 0.1 0.167 0.169 0.132 0.178 0.125 0.219 0.116 0.263 0.095 0.285 0.076 0.302 0.045 0.272 0.003 0.344 -0.01 0.255 -0.077 0.379 -0.066 0.285 -0.117 0.344 -0.085 0.238 -0.129 0.289 -0.124 0.22 -0.194 0.303 -0.15 0.196 -0.183 0.202 -0.184 0.182 -0.21 0.182 -0.265 0.193 -0.202 0.129 -0.236 0.131 -0.243 0.115 -0.197 0.082 -0.257 0.092 -0.112 0.034 -0.125 0.031 -0.288 0.03 -0.088 0.006 -0.202 -0.012 -0.116 -0.012 -0.232 -0.06 -0.066 -0.02 -0.21 -0.108 -0.136 -0.093 -0.123 -0.108 -0.124 -0.138 -0.097 -0.143 -0.086 -0.173 -0.066 -0.184 -0.041 -0.262 -0.023 -0.241 -0.009 -0.284 0.045 -0.367 0.037 -0.246 0.111 -0.393 0.109 -0.303 0.122 -0.283 0.152 -0.297 0.148 -0.26 0.157 -0.221 0.207 -0.274 0.142 -0.162 0.157 -0.161 0.066 -0.066 0.203 -0.167 0.039 -0.031 0.06 -0.045 0.065 -0.045 0.091 -0.053 0.179 -0.071 0.083 -0.025 0.201 -0.01 0.132 0.023 0.131 0.059 0.126 0.1 0.104 0.133 0.089 0.201 0.035 0.249 0.011 0.226 -0.026 0.245 -0.03 0.211 -0.068 0.269 -0.049 0.182 -0.101 0.285 -0.075 0.215 -0.076 0.206 -0.047 0.111 -0.135 0.28 -0.048 0.094 -0.05 0.094 -0.061 0.112 -0.054 0.094 -0.042 0.068 -0.03 0.048 -0.019 0.03 -0.014 0.021 -0.027 0.039 -0.039 0.054 -0.098 0.111 -0.034 0.036 -0.091 0.073 -0.032 0.025 -0.058 0.016 -0.028 -0.027 0.01 -0.062 0.013 -0.072 0.05 -0.121 0.053 -0.144 0.101 -0.208 0.088 -0.206 0.121 -0.246 0.085 -0.196 0.133 -0.253 0.082 -0.168 0.101 -0.166 0.125 -0.236 0.106 -0.16 0.102 -0.169 0.045 -0.071 0.056 -0.085 0.049 -0.071 0.051 -0.071 0.041 -0.056 0.029 -0.038 0.03 -0.037 0.029 -0.035 0.043 -0.047 0.123 -0.1 0.04 -0.029 0.133 -0.055 0.048 -0.014 0.114 0.009 0.078 0.036 0.064 0.063 0.056 0.098 0.041 0.107 0.033 0.143 0.023 0.143 0.013 0.141 0.004 0.071 0.002 0.177 0 0.06 -0.008 0.191 -0.004 0.064 -0.008 0.093 -0.009 0.076 -0.015 0.09 -0.015 0.077 -0.011 0.047 -0.007 0.029 -0.007 0.029 -0.006 0.021 -0.006 0.02 -0.014 0.043 -0.02 0.055 -0.02 0.049 -0.056 0.095 -0.015 0.023 -0.022 0.027 -0.055 0.041 -0.007 0.005 -0.02 0.011 -0.019 0.007 -0.018 0.003 -0.051 -0.02 -0.011 -0.006 -0.04 -0.045 -0.011 -0.013 -0.015 -0.021 -0.014 -0.023 -0.009 -0.017 -0.009 -0.018 -0.009 -0.019 -0.007 -0.018 -0.007 -0.027 -0.004 -0.027 -0.083 -0.586" />
    <path class="write-stroke-pen" fill="none" stroke="#FFFFFF" stroke-width="1.2" stroke-linecap="round" stroke-linejoin="round" __comx="139.408" __comy="168.384" __timestamp="0x17a88abc0a0" d="M144.577 161.911 l0 -0.003 0.003 -0.008 0.012 -0.041 0.007 -0.014 0.009 -0.015 0.015 -0.021 0.018 -0.023 0.025 -0.03 0.023 -0.028 0.053 -0.095 0.018 -0.03 0.052 -0.118 0.016 -0.04 0.055 -0.177 0.035 -0.138 0.032 -0.148 0.029 -0.158 0.032 -0.212 0.02 -0.177 0.016 -0.183 0.012 -0.215 0.008 -0.222 0 -0.285 -0.011 -0.271 -0.023 -0.303 -0.034 -0.337 -0.04 -0.313 -0.047 -0.316 -0.053 -0.319 -0.087 -0.354 -0.068 -0.281 -0.066 -0.245 -0.122 -0.346 -0.041 -0.108 -0.208 -0.429 -0.134 -0.223 -0.168 -0.228 -0.226 -0.248 -0.239 -0.207 -0.307 -0.206 -0.328 -0.168 -0.416 -0.122 -0.478 -0.056 -0.536 0.021 -0.579 0.098 -0.66 0.189 -0.669 0.258 -0.756 0.367 -0.783 0.441 -0.836 0.542 -0.817 0.607 -0.795 0.675 -0.736 0.71 -0.726 0.807 -0.644 0.836 -0.581 0.878 -0.525 0.897 -0.504 0.949 -0.459 0.979 -0.428 0.994 -0.377 0.931 -0.343 0.901 -0.3 0.864 -0.21 0.752 -0.188 0.834 -0.137 0.806 -0.098 0.814 0 0.85 0.025 0.753 0.135 0.803 0.147 0.674 0.18 0.634 0.19 0.545 0.232 0.541 0.289 0.529 0.328 0.483 0.432 0.49 0.544 0.478 0.589 0.38 0.659 0.324 0.75 0.278 0.738 0.2 0.756 0.145 0.771 0.088 0.842 -0.005 0.781 -0.029 0.85 -0.133 0.809 -0.171 0.84 -0.208 0.847 -0.24 0.812 -0.254 0.778 -0.263 0.715 -0.26 0.754 -0.294 0.711 -0.285 0.681 -0.283 0.582 -0.25 0.544 -0.235 0.501 -0.23 0.473 -0.23 1.956 -0.95" />
    <path class="write-stroke-pen" fill="none" stroke="#FFFFFF" stroke-width="1.2" stroke-linecap="round" stroke-linejoin="round" __comx="153.658" __comy="168.384" __timestamp="0x17a88abc1ff" d="M150.643 154.854 l-0.001 -0.004 -0.002 -0.007 -0.001 -0.006 -0.001 -0.002 0.001 0.013 0.007 0.041 0.022 0.1 0.036 0.169 0.086 0.271 0.082 0.332 0.135 0.454 0.128 0.521 0.192 0.678 0.162 0.705 0.237 0.897 0.188 0.906 0.247 1.024 0.249 1.045 0.265 1.151 0.253 1.114 0.2 1.167 0.255 1.17 0.184 1.09 0.243 1.101 0.174 0.988 0.221 0.998 0.159 0.86 0.191 0.836 0.128 0.669 0.148 0.618 0.105 0.487 0.092 0.436 0.082 0.379 0.066 0.294 0.111 0.351 0.031 0.105 0.071 0.233 0.028 0.081 0.035 0.092 0.033 0.078 0.022 0.048 0.035 0.07 0.043 0.076 0.097 0.138 0.051 0.061 0.946 1.135" />
    <path class="write-stroke-pen" fill="none" stroke="#FFFFFF" stroke-width="1.2" stroke-linecap="round" stroke-linejoin="round" __comx="165.823" __comy="168.384" __timestamp="0x17a88abc415" d="M166.676 170.917 l0 -0.023 0 -0.012 0.007 -0.073 0.004 -0.021 0.023 -0.095 0.014 -0.044 0.039 -0.121 0.021 -0.055 0.053 -0.157 0.037 -0.133 0.034 -0.144 0.031 -0.154 0.028 -0.163 0.025 -0.171 0.009 -0.063 0.024 -0.231 0.004 -0.094 -0.001 -0.2 -0.008 -0.113 -0.026 -0.212 -0.014 -0.082 -0.026 -0.113 -0.075 -0.206 -0.036 -0.089 -0.104 -0.194 -0.105 -0.157 -0.133 -0.154 -0.187 -0.166 -0.206 -0.145 -0.247 -0.134 -0.277 -0.103 -0.362 -0.058 -0.322 -0.022 -0.424 0.049 -0.356 0.081 -0.351 0.119 -0.395 0.188 -0.382 0.247 -0.393 0.316 -0.346 0.337 -0.341 0.391 -0.291 0.418 -0.324 0.509 -0.251 0.487 -0.266 0.541 -0.206 0.516 -0.191 0.565 -0.155 0.542 -0.128 0.55 -0.096 0.525 -0.073 0.499 -0.048 0.507 -0.021 0.515 0.037 0.511 0.037 0.44 0.09 0.467 0.106 0.4 0.139 0.409 0.159 0.372 0.181 0.34 0.175 0.256 0.221 0.263 0.238 0.233 0.227 0.184 0.29 0.187 0.259 0.13 0.3 0.111 0.422 0.063 0.367 -0.002 0.419 -0.066 0.408 -0.124 0.417 -0.183 0.439 -0.257 0.44 -0.318 0.406 -0.359 0.37 -0.387 0.337 -0.408 0.266 -0.401 0.309 -0.478 0.237 -0.459 0.247 -0.489 0.179 -0.454 0.148 -0.414 0.139 -0.449 0.111 -0.396 0.086 -0.368 0.068 -0.342 0.05 -0.285 0.04 -0.257 0.012 -0.087 0.022 -0.273 0.003 -0.08 0 -0.095 -0.002 -0.051 -0.003 -0.05 -0.008 -0.075 -0.016 -0.091 -0.038 -0.145 -0.014 -0.046 -0.046 -0.099 -0.044 -0.051 -0.043 -0.009 -0.049 0.042 -0.05 0.099 -0.045 0.159 -0.043 0.24 -0.033 0.264 -0.031 0.345 -0.013 0.356 0.007 0.412 0.021 0.378 0.031 0.365 0.071 0.393 0.06 0.345 0.096 0.379 0.072 0.295 0.107 0.337 0.074 0.241 0.102 0.243 0.098 0.239 0.145 0.256 0.055 0.093 0.157 0.212 0.055 0.071 0.177 0.187 0.052 0.051 0.197 0.158 0.069 0.05 0.244 0.131 0.189 0.065 0.216 0.054 0.189 0.014 1.513 0.111" />
    <path class="write-stroke-pen" fill="none" stroke="#FFFFFF" stroke-width="1.2" stroke-linecap="round" stroke-linejoin="round" __comx="177.632" __comy="168.384" __timestamp="0x17a88abc500" d="M175.744 170.577 l0 0.003 0 0.032 0 0.062 0 0.084 0.008 0.137 0.019 0.166 0.034 0.228 0.045 0.277 0.06 0.351 0.102 0.41 0.086 0.389 0.088 0.412 0.131 0.45 0.103 0.372 0.134 0.4 0.106 0.349 0.139 0.384 0.108 0.326 0.092 0.281 0.084 0.257 0.132 0.319 0.048 0.114 0.093 0.225 0.109 0.212 0.036 0.067 0.118 0.183 0.047 0.068 0.046 0.062 0.048 0.06 0.07 0.076 0.071 0.068 0.156 0.108 0.069 0.04 0.173 0.051 0.132 0.007 0.115 -0.023 0.977 -0.198" />
    <path class="write-stroke-pen" fill="none" stroke="#FFFFFF" stroke-width="1.2" stroke-linecap="round" stroke-linejoin="round" __comx="177.398" __comy="168.384" __timestamp="0x17a88abc5a2" d="M177.632 163.644 l-0.014 -0.061 -0.043 -0.077 -0.046 -0.1 -0.027 -0.049 -0.027 -0.044 -0.03 -0.046 -0.028 -0.04 -0.023 -0.033 -0.008 -0.011 -0.009 -0.011 -0.009 -0.011 -0.017 -0.019 -0.025 -0.025 -0.062 -0.038 -0.026 -0.014 -0.05 0.011 -0.024 0.032 0.009 0.083 0.015 0.107 0.024 0.125 0.171 0.903" />
    <path class="write-stroke-pen" fill="none" stroke="#FFFFFF" stroke-width="1.2" stroke-linecap="round" stroke-linejoin="round" __comx="192.719" __comy="168.384" __timestamp="0x17a88abc827" d="M183.884 171.66 l-0.001 0.001 -0.002 0.005 -0.006 0.035 -0.003 0.016 -0.004 0.026 -0.007 0.071 -0.003 0.028 -0.008 0.123 0 0.115 0.007 0.145 0.013 0.16 0.023 0.236 0.036 0.283 0.042 0.276 0.053 0.315 0.059 0.329 0.064 0.34 0.073 0.378 0.076 0.387 0.074 0.365 0.113 0.419 0.075 0.329 0.074 0.34 0.073 0.344 0.066 0.318 0.06 0.29 0.055 0.263 0.05 0.235 0.022 0.112 0.047 0.261 0.01 0.056 0.02 0.101 0.005 0.028 0.005 0.028 0.005 0.028 0.01 0.053 0.038 0.176 0.013 0.061 0.037 0.152 0.026 0.085 0.019 0.039 0.016 -0.01 0.011 -0.08 0.004 -0.122 -0.002 -0.215 -0.007 -0.286 -0.006 -0.331 -0.005 -0.446 -0.004 -0.484 -0.004 -0.603 -0.003 -0.568 0.013 -0.621 0.023 -0.603 0.036 -0.553 0.042 -0.557 0.044 -0.531 0.045 -0.504 0.051 -0.541 0.054 -0.483 0.061 -0.485 0.099 -0.501 0.078 -0.413 0.071 -0.359 0.069 -0.33 0.107 -0.358 0.03 -0.096 0.155 -0.387 0.039 -0.091 0.139 -0.244 0.041 -0.066 0.126 -0.164 0.138 -0.147 0.085 -0.077 0.298 -0.157 0.165 -0.051 0.292 -0.011 0.208 0.045 0.316 0.14 0.251 0.194 0.311 0.302 0.25 0.354 0.278 0.439 0.218 0.437 0.24 0.482 0.201 0.511 0.207 0.512 0.171 0.514 0.148 0.503 0.131 0.483 0.117 0.46 0.113 0.467 0.123 0.402 0.087 0.335 0.077 0.291 0.079 0.294 0.067 0.238 0.036 0.122 0.087 0.297 0.03 0.098 0.024 0.082 0.031 0.098 0.016 0.054 0.008 0.027 0.008 0.027 0.017 0.053 0.064 0.176 0.023 0.058 0.076 0.153 0.06 0.086 0.063 0.039 0.055 -0.018 0.069 -0.098 0.06 -0.175 0.067 -0.272 0.056 -0.35 0.058 -0.402 0.059 -0.441 0.063 -0.447 0.069 -0.469 0.07 -0.457 0.113 -0.508 0.094 -0.471 0.094 -0.485 0.137 -0.514 0.121 -0.489 0.147 -0.463 0.119 -0.399 0.166 -0.464 0.116 -0.341 0.191 -0.443 0.18 -0.385 0.123 -0.277 0.214 -0.387 0.126 -0.241 0.21 -0.338 0.14 -0.194 0.196 -0.26 0.146 -0.163 0.16 -0.158 0.164 -0.139 0.061 -0.049 0.223 -0.149 0.188 -0.104 0.185 -0.072 0.246 -0.065 0.239 -0.016 0.323 0.035 0.24 0.077 0.293 0.142 0.233 0.167 0.293 0.254 0.237 0.272 0.263 0.335 0.226 0.374 0.212 0.433 0.235 0.49 0.192 0.498 0.164 0.49 0.15 0.503 0.199 0.59 0.134 0.508 0.113 0.55 0.102 0.56 0.08 0.563 0.07 0.506 0.113 0.554 0.068 0.406 0.064 0.383 0.063 0.386 0.046 0.321 0.033 0.261 0.014 0.113 0.035 0.27 0.007 0.056 0.015 0.102 0.014 0.079 0.018 0.086 0.077 0.228 0.088 0.182 0.03 0.058 0.787 1.538" />
    <path class="write-stroke-pen" fill="none" stroke="#FFFFFF" stroke-width="1.2" stroke-linecap="round" stroke-linejoin="round" __comx="214.262" __comy="168.384" __timestamp="0x17a88abc9ab" d="M215.02 179.428 l-0.036 0 -0.069 0.007 -0.112 0.019 -0.149 0.059 -0.049 0.023 -0.152 0.087 -0.037 0.022 -0.058 0.036 -0.06 0.039 -0.074 0.049 -0.048 0.031 -0.05 0.031 -0.036 0.022 -0.023 0.014 -0.016 0.01 -0.016 0.01 -0.016 0.01 -0.032 0.017 -0.032 0.015 -0.031 0.013 -0.03 0.012 -0.056 0.019 -0.049 0.013 -0.037 0.007 -0.072 -0.01 -0.024 -0.007 -0.048 -0.047 -0.012 -0.052 -0.012 -0.097 -0.082 -0.662" />
    <path class="write-stroke-pen" fill="none" stroke="#FFFFFF" stroke-width="1.2" stroke-linecap="round" stroke-linejoin="round" __comx="209.789" __comy="168.384" __timestamp="0x17a88abca9f" d="M210.811 153.462 l-0.07 -0.07 -0.084 -0.084 -0.129 -0.115 -0.093 -0.067 -0.053 -0.037 -0.147 -0.084 -0.043 -0.023 -0.172 -0.079 -0.076 -0.035 -0.169 -0.065 -0.037 -0.013 -0.077 -0.026 -0.058 -0.019 -0.09 -0.03 -0.061 -0.019 -0.041 -0.012 -0.02 -0.006 -0.021 -0.006 -0.04 -0.013 -0.02 -0.006 -0.056 -0.019 -0.116 -0.047 -0.029 -0.012 -0.078 -0.032 -0.031 -0.01 -0.041 0.009 -0.008 0.006 -0.182 0.141" />
    <path class="write-stroke-pen" fill="none" stroke="#FFFFFF" stroke-width="1.2" stroke-linecap="round" stroke-linejoin="round" __comx="314.525" __comy="168.993" __timestamp="0x17a88ac54b4" d="M318.389 168.938 l0 -0.002 0.002 -0.001 0.004 -0.004 0.009 -0.008 0.011 -0.006 0.016 -0.01 0.02 -0.012 0.023 -0.014 0.026 -0.016 0.082 -0.045 0.027 -0.016 0.044 -0.028 0.103 -0.056 0.035 -0.02 0.055 -0.034 0.128 -0.072 0.117 -0.087 0.052 -0.038 0.063 -0.047 0.126 -0.113 0.053 -0.047 0.153 -0.162 0.04 -0.042 0.148 -0.182 0.039 -0.048 0.128 -0.191 0.045 -0.067 0.115 -0.208 0.032 -0.061 0.107 -0.248 0.069 -0.184 0.026 -0.081 0.072 -0.301 0.018 -0.099 0.034 -0.314 0.006 -0.102 0.002 -0.267 -0.03 -0.225 -0.017 -0.097 -0.082 -0.283 -0.034 -0.098 -0.122 -0.231 -0.134 -0.192 -0.152 -0.166 -0.21 -0.174 -0.255 -0.161 -0.301 -0.147 -0.376 -0.134 -0.435 -0.095 -0.479 -0.018 -0.497 0.045 -0.488 0.099 -0.505 0.17 -0.511 0.234 -0.515 0.294 -0.497 0.341 -0.513 0.416 -0.472 0.452 -0.461 0.524 -0.429 0.573 -0.398 0.621 -0.31 0.614 -0.295 0.632 -0.224 0.585 -0.194 0.6 -0.156 0.548 -0.135 0.583 -0.1 0.558 -0.076 0.531 -0.057 0.504 0 0.496 0.01 0.379 0.056 0.426 0.045 0.291 0.118 0.404 0.108 0.291 0.125 0.246 0.164 0.247 0.206 0.245 0.267 0.235 0.27 0.185 0.315 0.168 0.414 0.119 0.403 0.073 0.518 -0.017 0.5 -0.08 0.519 -0.156 0.551 -0.231 0.574 -0.309 0.569 -0.382 0.571 -0.437 0.533 -0.468 0.467 -0.445 0.455 -0.475 0.409 -0.473 0.35 -0.433 0.355 -0.486 0.259 -0.432 0.317 -0.519 0.22 -0.423 0.175 -0.378 0.208 -0.431 0.12 -0.292 0.124 -0.331 0.097 -0.279 0.068 -0.219 0.024 -0.08 0.06 -0.265 0.017 -0.096 0.015 -0.131 0.006 -0.129 -0.014 -0.202 -0.01 -0.085 -0.011 -0.068 -0.02 -0.086 -0.026 -0.083 -0.037 -0.09 -0.068 -0.116 -0.044 -0.057 -0.11 -0.074 -0.088 -0.022 -0.097 0.016 -0.105 0.06 -0.111 0.109 -0.098 0.143 -0.097 0.21 -0.086 0.267 -0.076 0.324 -0.062 0.355 -0.038 0.356 -0.024 0.43 -0.018 0.417 0.002 0.438 0.014 0.506 0.024 0.516 0.033 0.556 0.048 0.599 0.053 0.538 0.061 0.542 0.11 0.614 0.079 0.566 0.083 0.64 0.086 0.645 0.086 0.711 0.08 0.711 0.065 0.778 0.049 0.812 0.035 0.81 0.017 0.809 0.004 0.808 -0.021 0.742 -0.048 0.746 -0.103 0.771 -0.093 0.701 -0.184 0.805 -0.197 0.726 -0.244 0.795 -0.271 0.747 -0.299 0.738 -0.352 0.738 -0.396 0.696 -0.44 0.665 -0.511 0.673 -0.542 0.619 -0.596 0.607 -0.588 0.527 -0.655 0.512 -0.643 0.452 -0.607 0.375 -0.654 0.317 -0.7 0.309 -0.585 0.2 -0.665 0.174 -0.546 0.111 -0.497 0.063 -0.525 -0.003 -0.424 -0.045 -0.377 -0.084 -0.362 -0.133 -0.307 -0.168 -0.296 -0.222 -0.275 -0.274 -0.215 -0.279 -0.192 -0.328 -0.155 -0.384 -0.116 -0.432 -0.033 -0.545 0.045 -0.536 0.123 -0.565 0.253 -0.624 0.28 -0.565 0.324 -0.553 0.449 -0.619 0.496 -0.593 0.585 -0.624 0.675 -0.626 0.631 -0.555 0.732 -0.605 1.578 -1.303" />
    <path class="write-stroke-pen" fill="none" stroke="#FFFFFF" stroke-width="1.2" stroke-linecap="round" stroke-linejoin="round" __comx="331.918" __comy="174.844" __timestamp="0x17a88ac57f7" d="M328.447 173.302 l0 0 0 0.005 0 0.05 0.003 0.027 0.023 0.134 0.059 0.149 0.049 0.14 0.098 0.207 0.09 0.215 0.161 0.305 0.187 0.335 0.213 0.376 0.242 0.393 0.247 0.389 0.259 0.397 0.283 0.417 0.292 0.431 0.283 0.414 0.315 0.454 0.324 0.446 0.305 0.407 0.299 0.385 0.307 0.382 0.254 0.31 0.245 0.29 0.176 0.191 0.229 0.246 0.194 0.183 0.186 0.161 0.09 0.079 0.24 0.188 0.062 0.049 0.08 0.063 0.071 0.054 0.05 0.038 0.022 0.017 0.042 0.033 0.057 0.048 0.13 0.135 0.081 0.108 0.05 0.098 0.022 0.092 -0.012 0.111 -0.04 0.096 -0.077 0.107 -0.105 0.106 -0.127 0.098 -0.152 0.1 -0.187 0.101 -0.186 0.088 -0.198 0.08 -0.214 0.079 -0.222 0.073 -0.232 0.068 -0.215 0.058 -0.222 0.055 -0.096 0.022 -0.285 0.056 -0.075 0.014 -0.216 0.03 -0.071 0.007 -0.091 0.006 -0.107 0.002 -0.208 -0.02 -0.086 -0.011 -0.188 -0.047 -0.068 -0.02 -0.223 -0.108 -0.16 -0.107 -0.173 -0.159 -0.151 -0.182 -0.154 -0.246 -0.123 -0.272 -0.098 -0.32 -0.063 -0.313 -0.044 -0.38 0.02 -0.483 0.024 -0.393 0.083 -0.516 0.078 -0.47 0.133 -0.558 0.114 -0.512 0.175 -0.564 0.136 -0.482 0.195 -0.538 0.148 -0.452 0.194 -0.498 0.143 -0.419 0.112 -0.342 0.143 -0.373 0.1 -0.278 0.129 -0.302 0.04 -0.092 0.102 -0.247 0.031 -0.072 0.041 -0.093 0.042 -0.093 0.034 -0.072 0.027 -0.054 0.024 -0.046 0.046 -0.082 0.086 -0.13 0.03 -0.042 0.101 -0.098 0.065 -0.04 0.073 -0.009 0.064 0.028 0.062 0.071 0.063 0.132 0.058 0.189 0.041 0.209 0.036 0.304 0.022 0.29 0.014 0.338 0.006 0.36 0 0.377 -0.01 0.366 -0.023 0.381 -0.033 0.36 -0.037 0.362 -0.043 0.398 -0.048 0.378 -0.055 0.382 -0.057 0.355 -0.057 0.327 -0.057 0.299 -0.051 0.264 -0.063 0.302 -0.033 0.139 -0.074 0.301 -0.032 0.116 -0.029 0.098 -0.037 0.115 -0.04 0.114 -0.094 0.203 -0.011 0.024 -0.037 0.07 -0.053 0.089 -0.041 0.064 -0.152 0.177 -0.08 0.08 -0.151 0.116 -0.161 0.084 -0.174 0.065 -0.18 0.025 -0.237 -0.009 -0.163 -0.015 -0.214 -0.064 -0.226 -0.066 -0.217 -0.105 -0.207 -0.093 -0.202 -0.122 -0.21 -0.115 -0.289 -0.197 -0.096 -0.066 -0.274 -0.207 -0.082 -0.063 -0.231 -0.185 -0.055 -0.045 -0.1 -0.081 -0.102 -0.081 -0.086 -0.07 -0.103 -0.083 -0.088 -0.072 -0.075 -0.061 -0.095 -0.075 -0.046 -0.038 -0.046 -0.038 -0.046 -0.039 -0.038 -0.034 -0.052 -0.049 -0.049 -0.049 -0.103 -0.125 -0.039 -0.048 -0.046 -0.081 -0.018 -0.066 0.013 -0.055 0.05 -0.043 0.116 -0.033 0.145 -0.013 0.113 0.002 0.178 0.014 0.235 0.018 0.285 0.027 0.383 0.033 0.41 0.026 0.32 0.017 0.389 0.016 0.376 0.003 0.389 -0.013 0.457 -0.029 0.449 -0.068 0.366 -0.056 0.376 -0.062 0.444 -0.111 0.339 -0.08 0.379 -0.089 0.382 -0.09 0.409 -0.122 0.34 -0.086 2.123 -0.54" />
    <path class="write-stroke-pen" fill="none" stroke="#FFFFFF" stroke-width="1.2" stroke-linecap="round" stroke-linejoin="round" __comx="354.773" __comy="149.791" __timestamp="0x17a88ac6178" d="M352.434 147.088 l0 -0.003 0.011 -0.048 0.043 -0.078 0.015 -0.027 0.047 -0.096 0.021 -0.036 0.055 -0.105 0.025 -0.044 0.105 -0.157 0.026 -0.038 0.042 -0.059 0.082 -0.131 0.037 -0.056 0.03 -0.044 0.04 -0.058 0.032 -0.046 0.033 -0.051 0.032 -0.048 0.022 -0.035 0.032 -0.05 0.011 -0.017 0.022 -0.037 0.035 -0.062 0.032 -0.063 0.022 -0.054 0.011 -0.076 0 -0.041 -0.006 -0.012 -0.07 0.032 -0.051 0.055 -0.129 0.141 -0.167 0.214 -0.195 0.292 -0.225 0.369 -0.286 0.513 -0.311 0.61 -0.351 0.74 -0.371 0.807 -0.384 0.91 -0.382 1.017 -0.364 1.063 -0.275 1.145 -0.287 1.213 -0.212 1.225 -0.188 1.34 -0.167 1.409 -0.137 1.437 -0.094 1.502 -0.052 1.495 -0.029 1.491 0.098 1.54 0.164 1.493 0.228 1.462 0.329 1.516 0.371 1.37 0.444 1.381 0.459 1.273 0.48 1.182 0.545 1.199 0.566 1.107 0.618 1.109 0.632 1.023 0.682 0.979 0.706 0.895 0.711 0.769 0.733 0.696 0.753 0.607 0.69 0.499 0.715 0.446 0.696 0.377 1.787 0.968" />
    <path class="write-stroke-pen" fill="none" stroke="#FFFFFF" stroke-width="1.2" stroke-linecap="round" stroke-linejoin="round" __comx="277.352" __comy="158.892" __timestamp="0x17a88ac66ed" d="M276.854 155.877 l-0.001 -0.002 -0.002 -0.003 -0.004 -0.006 -0.008 -0.006 -0.003 -0.002 -0.01 -0.008 -0.004 -0.003 -0.008 -0.007 -0.006 -0.007 -0.005 -0.006 -0.004 -0.006 -0.002 -0.003 0.005 0.018 0.007 0.013 0.069 0.123 0.058 0.131 0.132 0.252 0.113 0.274 0.187 0.439 0.158 0.5 0.165 0.662 0.163 0.829 0.149 0.926 0.129 1.049 0.108 1.096 0.069 1.101 0.046 1.177 0.052 1.178 0.032 1.14 -0.003 1.143 -0.034 1.075 -0.051 0.973 -0.073 0.947 -0.125 0.902 -0.103 0.776 -0.144 0.722 -0.11 0.584 -0.126 0.506 -0.086 0.367 -0.071 0.312 -0.063 0.264 -0.036 0.135 -0.066 0.236 -0.026 0.083 -0.039 0.104 -0.043 0.101 -0.033 0.07 -0.106 0.175 -0.025 0.04 -0.036 0.054 -0.112 0.131 -0.031 0.033 -0.088 0.067 -0.055 0.024 -0.49 0.217" />
    <path class="write-stroke-pen" fill="none" stroke="#FFFFFF" stroke-width="1.2" stroke-linecap="round" stroke-linejoin="round" __comx="283.479" __comy="158.673" __timestamp="0x17a88ac695a" d="M274.192 160.148 l-0.013 -0.026 -0.036 -0.032 -0.069 -0.106 -0.03 -0.04 -0.068 -0.114 -0.02 -0.035 -0.063 -0.14 -0.019 -0.044 -0.057 -0.164 -0.016 -0.049 -0.053 -0.255 -0.026 -0.185 -0.016 -0.195 -0.005 -0.233 0.029 -0.273 0.029 -0.238 0.068 -0.279 0.052 -0.199 0.142 -0.35 0.167 -0.322 0.203 -0.333 0.259 -0.36 0.276 -0.334 0.348 -0.371 0.35 -0.344 0.401 -0.351 0.42 -0.336 0.418 -0.271 0.547 -0.338 0.505 -0.255 0.523 -0.221 0.6 -0.25 0.598 -0.187 0.578 -0.138 0.655 -0.133 0.625 -0.097 0.5 -0.062 0.537 -0.053 0.508 -0.04 0.447 -0.029 0.549 -0.022 0.524 0.001 0.492 0.018 0.536 0.065 0.485 0.065 0.473 0.11 0.459 0.133 0.415 0.149 0.368 0.152 0.355 0.17 0.326 0.177 0.299 0.182 0.257 0.194 0.337 0.273 0.242 0.24 0.225 0.263 0.198 0.274 0.219 0.367 0.158 0.325 0.13 0.337 0.099 0.354 0.045 0.437 -0.015 0.442 -0.064 0.44 -0.118 0.478 -0.167 0.488 -0.191 0.47 -0.258 0.546 -0.319 0.56 -0.364 0.568 -0.425 0.587 -0.428 0.528 -0.495 0.542 -0.553 0.556 -0.583 0.535 -0.601 0.515 -0.64 0.515 -0.64 0.483 -0.625 0.457 -0.708 0.51 -0.633 0.446 -0.65 0.46 -0.653 0.44 -0.633 0.418 -0.599 0.386 -0.578 0.37 -0.504 0.317 -0.359 0.228 -0.32 0.187 -0.3 0.187 -0.1 0.064 -0.119 0.077 -0.107 0.068 -0.033 0.021 -0.033 0.022 -0.033 0.022 -0.065 0.045 -0.138 0.112 -0.031 0.026 -0.125 0.148 -0.047 0.108 0.03 0.099 0.142 0.077 0.192 0.039 0.294 -0.022 0.309 -0.028 0.351 -0.034 0.413 -0.048 0.498 -0.063 0.522 -0.062 0.572 -0.05 0.622 -0.04 0.636 -0.031 0.584 -0.008 0.599 0.021 0.613 0.081 0.561 0.077 0.594 0.15 0.511 0.16 0.534 0.207 0.514 0.24 0.529 0.277 0.497 0.287 0.543 0.348 0.523 0.374 0.447 0.362 0.431 0.384 0.401 0.389 0.25 0.29 0.316 0.363 0.214 0.283 0.175 0.265 0.168 0.28 0.145 0.262 0.139 0.267 0.11 0.219 0.065 0.125 0.116 0.242 0.024 0.05 0.034 0.077 0.022 0.051 0.022 0.051 0.011 0.026 0.01 0.026 0.01 0.026 0.022 0.051 0.023 0.049 0.037 0.072 0.035 0.063 0.026 0.043 0.057 0.084 0.05 0.065 0.052 0.059 0.054 0.054 1.185 1.186" />
    <path class="write-stroke-pen" fill="none" stroke="#FFFFFF" stroke-width="1.2" stroke-linecap="round" stroke-linejoin="round" __comx="299.252" __comy="142.898" __timestamp="0x17a88ac75ec" d="M298.147 142.909 l0 -0.003 0.006 -0.033 0.008 -0.02 0.026 -0.073 0.012 -0.029 0.035 -0.1 0.027 -0.101 0.031 -0.118 0.034 -0.131 0.03 -0.138 0.027 -0.148 0.014 -0.066 0.039 -0.228 0.01 -0.06 0.03 -0.222 0.008 -0.065 0.023 -0.21 0.006 -0.072 0.014 -0.221 0.002 -0.066 0 -0.085 -0.005 -0.1 -0.008 -0.084 -0.012 -0.083 -0.019 -0.088 -0.024 -0.083 -0.067 -0.155 -0.028 -0.056 -0.124 -0.159 -0.069 -0.069 -0.209 -0.109 -0.174 -0.042 -0.209 0 -0.247 0.05 -0.298 0.115 -0.302 0.169 -0.344 0.259 -0.35 0.34 -0.334 0.388 -0.309 0.417 -0.296 0.448 -0.274 0.446 -0.227 0.433 -0.271 0.503 -0.206 0.451 -0.221 0.474 -0.157 0.404 -0.15 0.447 -0.119 0.394 -0.104 0.398 -0.082 0.371 -0.059 0.314 -0.047 0.287 -0.038 0.259 -0.014 0.125 -0.015 0.245 -0.002 0.117 0.025 0.241 0.012 0.078 0.07 0.231 0.023 0.064 0.136 0.227 0.15 0.155 0.119 0.087 0.238 0.067 0.209 -0.004 0.215 -0.057 0.246 -0.115 0.276 -0.186 0.291 -0.239 0.267 -0.261 0.277 -0.3 0.251 -0.295 0.198 -0.277 0.274 -0.37 0.185 -0.297 0.235 -0.37 0.161 -0.291 0.142 -0.281 0.136 -0.289 0.12 -0.268 0.107 -0.246 0.095 -0.223 0.095 -0.226 0.04 -0.092 0.101 -0.248 0.02 -0.052 0.03 -0.079 0.019 -0.052 0.019 -0.053 0.009 -0.026 0.016 -0.051 0.007 -0.025 0.01 -0.034 0.021 -0.08 0.046 -0.157 0.014 -0.047 0.031 -0.098 0.01 -0.037 0.014 -0.04 0.002 -0.009 -0.003 0.023 -0.002 0.014 -0.014 0.078 -0.012 0.074 -0.011 0.089 -0.011 0.12 -0.011 0.155 -0.01 0.193 -0.009 0.211 0.004 0.259 0.013 0.295 0.021 0.311 0.029 0.352 0.038 0.423 0.045 0.466 0.048 0.477 0.06 0.522 0.073 0.593 0.074 0.566 0.127 0.669 0.083 0.561 0.086 0.573 0.087 0.576 0.089 0.578 0.089 0.58 0.086 0.549 0.079 0.486 0.068 0.393 0.066 0.389 0.061 0.334 0.05 0.268 0.052 0.269 0.026 0.127 0.057 0.27 0.018 0.079 0.013 0.056 0.015 0.061 0.015 0.054 0.016 0.052 0.032 0.088 0.041 0.094 0.085 0.151 0.101 0.126 0.115 0.097 0.095 0.048 0.17 0.026 0.171 -0.017 0.141 -0.051 0.223 -0.119 0.182 -0.151 0.244 -0.228 0.241 -0.262 0.204 -0.285 0.251 -0.336 0.188 -0.303 0.256 -0.405 0.193 -0.36 0.274 -0.463 0.192 -0.378 0.224 -0.418 0.156 -0.335 0.139 -0.322 0.177 -0.379 0.105 -0.239 0.049 -0.106 0.121 -0.276 0.106 -0.188 0.025 -0.046 0.048 -0.082 0.041 -0.066 0.028 -0.043 0.029 -0.041 1.16 -1.655" />
  </g>
</svg>
