<svg class="write-page" width="772px" height="1250px" xmlns="http://www.w3.org/2000/svg" xmlns:xlink="http://www.w3.org/1999/xlink">
  <g class="write-content write-v3" width="772" height="1250" xruling="0" yruling="40" marginLeft="100" papercolor="#FFFFFF" rulecolor="#9F0000FF">
    <g class="ruleline write-std-ruling write-scale-down" fill="none" stroke="#0000FF" stroke-opacity="0.624" stroke-width="1" shape-rendering="crispEdges" vector-effect="non-scaling-stroke">
      <rect class="pagerect" fill="#FFFFFF" stroke="none" x="0" y="0" width="772" height="1250" />
      <path class="yrule_1" d="M0 40 l772 0" />
      <path d="M0 80 l772 0" />
      <path d="M0 120 l772 0" />
      <path d="M0 160 l772 0" />
      <path d="M0 200 l772 0" />
      <path d="M0 240 l772 0" />
      <path d="M0 280 l772 0" />
      <path d="M0 320 l772 0" />
      <path d="M0 360 l772 0" />
      <path d="M0 400 l772 0" />
      <path d="M0 440 l772 0" />
      <path d="M0 480 l772 0" />
      <path d="M0 520 l772 0" />
      <path d="M0 560 l772 0" />
      <path d="M0 600 l772 0" />
      <path d="M0 640 l772 0" />
      <path d="M0 680 l772 0" />
      <path d="M0 720 l772 0" />
      <path d="M0 760 l772 0" />
      <path d="M0 800 l772 0" />
      <path d="M0 840 l772 0" />
      <path d="M0 880 l772 0" />
      <path d="M0 920 l772 0" />
      <path d="M0 960 l772 0" />
      <path d="M0 1000 l772 0" />
      <path d="M0 1040 l772 0" />
      <path d="M0 1080 l772 0" />
      <path d="M0 1120 l772 0" />
      <path d="M0 1160 l772 0" />
      <path d="M0 1200 l772 0" />
      <path d="M0 1240 l772 0" />
      <path class="leftmargin" stroke="#FF0000" d="M100 0 l0 1250" />
    </g>
    <path class="write-stroke-pen" fill="none" stroke="#000000" stroke-width="1.6" stroke-linecap="round" stroke-linejoin="round" __comx="171.091" __comy="122.429" __timestamp="0x175ddecb43b" d="M165.561 42.649 l11.061 480.281" />
    <path class="write-stroke-pen" fill="none" stroke="#000000" stroke-width="1.6" stroke-linecap="round" stroke-linejoin="round" __comx="401.698" __comy="397.421" __timestamp="0x175ddecbf83" d="M77.307 396.962 l648.782 4.354" />
    <path class="write-flat-pen" fill="#000000" stroke-width="1.6" __comx="430.485" __comy="158.96" __timestamp="0x175ddeeba88" d="M430.1 162.925 l1.036 -3.687 0.417 -0.287 0.077 0.107 -0.081 0.715 -1.529 2.865 -1.608 1.92 -1.099 0.596 -0.15 -0.059 -0.221 -0.476 0.382 -1.27 0 0 0.792 -0.968 0 0 5.924 -2.419 0 0 -0.591 -1.199 -2.159 1.228 -0.728 0.095 -0.286 -0.304 -0.2 -1.209 0.297 -1.198 0.771 -0.832 0.938 -0.357 0.401 0.162 0.641 1.437 -0.095 2.029 -0.528 1.024 -0.712 0.465 -1.383 0.087 -2.387 -0.725 -1.417 -0.871 -0.061 -0.355 1.329 -1.342 2.142 -1.113 3.539 -0.979 1.075 0.029 0.42 0.293 0.447 1.096 -0.275 1.6 -1.067 1.888 -0.961 0.664 -1.731 0.409 -0.996 -0.326 -0.782 -0.997 -0.312 -1.742 0.432 -1.796 0.735 -1.093 0.973 -0.529 0.745 0.254 0.696 1.24 0.331 2.067 -0.247 2.045 -0.724 1.524 -1.335 1.123 -1.398 0.472 -2.17 -0.125 -1.074 -0.552 -0.623 -0.902 -0.21 -1.57 0.32 -1.194 1.29 -1.908 1.819 -1.498 1.607 -0.632 1.22 0.025 0.632 0.433 0.712 1.727 0.166 2.171 -0.359 1.771 -0.753 0.909 -0.794 0.112 -1.659 -0.836 -1.13 -1.185 -0.496 -1.23 0 0 -0.933 0.972 1.139 0.317 0.37 0.09 1.712 0.35 0.167 -0.371 -1.398 -1.049 -0.361 -0.239 -1.133 -0.491 -0.933 0.972 0 0 0.6 1.494 1.505 1.573 2.302 1.154 1.813 -0.263 1.343 -1.633 0.47 -2.329 -0.2 -2.604 -0.963 -2.344 -1.35 -0.929 -1.951 -0.043 -2.099 0.822 -2.165 1.78 -1.549 2.289 -0.46 1.718 0.299 2.212 1.037 1.494 1.68 0.858 2.762 0.151 1.923 -0.657 1.779 -1.507 0.956 -2.02 0.298 -2.478 -0.403 -2.52 -1.089 -1.944 -1.865 -0.643 -1.845 0.999 -1.08 1.605 -0.562 2.345 0.433 2.395 1.278 1.621 1.797 0.583 2.385 -0.57 1.45 -1.006 1.347 -2.39 0.386 -2.246 -0.758 -1.863 -1.115 -0.78 -1.717 -0.048 -3.891 1.072 -2.476 1.285 -2.008 2.026 0.296 1.724 2.13 1.302 2.812 0.848 2.014 -0.135 1.332 -0.881 0.832 -1.628 0.124 -2.667 -1.008 -2.26 -1.437 -0.581 -1.763 0.667 -1.244 1.34 -0.453 1.835 0.325 1.921 1.081 1.125 1.703 -0.239 2.373 -1.403 -0.591 -1.199 0 0 -6.217 2.574 0 0 -1.167 1.427 0 0 -0.595 2.003 0.676 1.41 1.204 0.415 1.797 -1.01 1.82 -2.224 1.634 -3.246 0.009 -1.63 -1.278 -0.6 -0.988 0.972 -0.823 3.991" />
    <path class="write-flat-pen" fill="#000000" stroke-width="1.6" __comx="166.865" __comy="64.128" __timestamp="0x175ddef8065" d="M163.771 54.676 l2.299 -6.433 0.113 -0.749 0.077 -1.921 -1.122 -0.862 -1.374 0.832 -7.783 9.221 0 0 -6.017 8.071 0 0 -2.753 4.75 0 0 1.118 0.527 5.083 -13.431 3.479 -7.19 1.804 -2.716 1.82 -1.777 2.134 -0.885 0.995 0.252 1.694 1.349 12.754 17.165 5.428 5.981 0.819 0.292 2.036 0.603 0.191 -0.395 -1.738 -1.221 -0.504 -0.347 -5.123 -5.819 -12.843 -17.25 -2.088 -1.642 -1.737 -0.414 -2.777 1.189 -2.101 2.058 -1.931 2.912 -3.535 7.331 -5.02 13.52 1.118 0.527 0 0 2.685 -4.708 0 0 5.926 -8.008 0 0 7.574 -9.132 0.627 -0.426 0.231 0.114 0.046 1.399 -0.052 0.64 -1.811 6.512" />
    <path class="write-flat-pen" fill="#000000" stroke-width="1.6" __comx="206.83" __comy="64.128" __timestamp="0x175ddef88c1" d="M198.109 53.565 l0.295 2.205 0.203 0.886 1.119 5.256 0.845 7.973 0 0 0.026 5.543 0 0 1.196 -0.306 -0.419 -0.846 -0.687 -6.72 -0.101 -13.403 -0.747 -6.514 0 0 -0.878 -3.031 0 0 -1.27 -1.59 0 0 -0.807 1.039 3.253 1.482 4.927 0.769 9.671 -0.588 2.239 -0.104 0.048 -0.386 -2.244 -0.656 -9.64 0.347 -4.605 -0.708 -3.09 -1.389 -0.807 1.039 0 0 1.108 1.377 0 0 0.777 2.664 0 0 0.732 6.331 0.122 13.393 0.709 7.038 0.585 1.05 1.196 -0.306 0 0 -0.14 -5.597 0 0 -0.944 -8.078 -1.259 -5.298 -0.247 -0.879 -0.71 -2.098" />
    <path class="write-flat-pen" fill="#000000" stroke-width="1.6" __comx="210.658" __comy="64.128" __timestamp="0x175ddef89e7" d="M200.805 59.416 l1.543 -0.553 3.823 -0.184 12.406 1.022 2.251 -0.59 -0.017 -0.26 -2.225 -0.306 -12.406 -0.969 -4.052 0.322 -1.64 0.734" />
    <path class="write-flat-pen" fill="#000000" stroke-width="1.6" __comx="207.916" __comy="64.128" __timestamp="0x175ddef8af1" d="M198.178 73.924 l-1.988 1.299 -0.623 1.211 1.094 0.98 3.504 0.619 14.268 0.294 3.679 0.854 1.99 0.681 0.159 -0.282 -1.731 -1.423 -3.911 -1.167 -14.347 -0.18 -3.135 -0.44 -0.32 -0.207 0.103 -0.312 1.729 -1.232" />
    <path class="write-flat-pen" fill="#000000" stroke-width="1.6" __comx="237.115" __comy="64.128" __timestamp="0x175ddef8cb8" d="M232.158 50.783 l2.244 -3.541 0 0 0.12 -0.101 0 0 -0.947 -0.529 -2.459 6.482 -1.651 6.975 -0.566 7.551 0.716 5.472 1.227 3.578 1.83 2.954 2.838 2.818 1.996 0.962 2.924 0.547 2.643 -0.881 0.72 -0.611 1.539 -1.421 -0.18 -0.269 -1.9 0.883 -0.689 0.332 -2.204 0.551 -2.414 -0.464 -1.621 -0.78 -2.557 -2.538 -1.664 -2.682 -1.141 -3.299 -0.714 -5.193 0.546 -7.307 1.597 -6.801 2.218 -6.488 -0.947 -0.529 0 0 -0.119 0.2 0 0 -1.985 3.78" />
    <path class="write-flat-pen" fill="#000000" stroke-width="1.6" __comx="253.392" __comy="64.128" __timestamp="0x175ddef8dea" d="M247.031 52.55 l1.889 2.887 1.748 5.385 2.22 11.827 1.438 4.979 1.237 2.039 1.895 1.164 2.151 0.572 0.145 -0.319 -1.751 -1.209 -1.433 -1.151 -0.991 -1.645 -1.39 -4.742 -2.289 -11.837 -1.914 -5.589 -2.066 -2.962" />
    <path class="write-flat-pen" fill="#000000" stroke-width="1.6" __comx="252.33" __comy="64.128" __timestamp="0x175ddef8ed3" d="M242.371 67.15 l1.314 -0.777 17.061 -2.653 2.089 -0.745 -0.093 -0.416 -2.175 0.203 -17.303 2.516 -1.442 1.042" />
    <path class="write-flat-pen" fill="#000000" stroke-width="1.6" __comx="266.696" __comy="64.128" __timestamp="0x175ddef8fdd" d="M256.6 46.469 l1.606 0.063 2.794 1.457 3.879 3.193 4 4.23 2.347 3.236 1.927 3.806 1.255 4.132 0.903 6.659 0.087 4.252 -1.439 7.658 -0.344 1.293 -0.495 1.938 0.502 0.19 0.911 -1.78 0.634 -1.295 1.624 -7.881 -0.097 -4.483 -0.961 -6.841 -1.329 -4.345 -2.041 -4 -2.481 -3.377 -4.161 -4.307 -4.1 -3.251 -3.178 -1.481 -1.834 0.027" />
    <path class="write-flat-pen" fill="#000000" stroke-width="1.6" __comx="719.413" __comy="394.721" __timestamp="0x175ddef951a" d="M724.789 404.052 l-0.05 -1.633 -0.135 -0.444 -1.582 -3.45 -0.566 -0.948 -2.949 -3.933 0 0 -12.35 -11.48 0 0 -1.094 0.931 1.624 2.44 3.688 3.725 3.784 2.951 15.191 8.572 1.025 1.017 -0.061 0.572 -5.125 6.54 -2.767 2.476 -0.547 0.535 -1.549 1.646 0.148 0.2 2.024 -1.005 0.709 -0.397 2.985 -2.502 5.43 -6.974 0.142 -1.598 -1.608 -1.581 -15.242 -8.631 -3.607 -2.863 -3.498 -3.594 -1.541 -2.33 -1.094 0.931 0 0 12.316 11.351 0 0 2.977 3.69 0.543 0.832 1.837 3.217 0.159 0.309 0.507 1.476" />
    <path class="write-flat-pen" fill="#000000" stroke-width="1.6" __comx="715.219" __comy="428.95" __timestamp="0x175ddef97d6" d="M711.004 426.351 l-1.225 -3.483 0 0 -0.895 0.044 -0.049 0.07 -2.123 10.113 -0.368 4.761 0.439 3.107 0.976 2.165 2.197 2.667 2.292 1.543 2.77 0.937 4.078 0.386 2.448 -0.548 0.863 -0.57 1.689 -1.178 -0.125 -0.24 -1.933 0.709 -0.826 0.309 -2.165 0.289 -3.759 -0.405 -2.47 -0.833 -1.971 -1.376 -1.973 -2.387 -0.827 -1.837 -0.398 -2.783 0.342 -4.545 1.822 -10.043 -0.017 -0.037 -0.895 0.044 0 0 1.602 3.327" />
    <path class="write-flat-pen" fill="#000000" stroke-width="1.6" __comx="711.767" __comy="431.672" __timestamp="0x175ddef98c4" d="M702.361 432.256 l-0.253 -0.165 -0.504 -0.406 0 0 -0.061 0.648 1.68 -0.562 4.776 -0.009 10.585 0.947 1.802 0.013 1.92 0.005 0.028 -0.341 -1.895 -0.305 -1.773 -0.278 -10.621 -1.095 -5.016 0.098 -1.763 0.848 -0.061 0.648 0 0 0.575 0.298 0.253 0.165" />
    <path class="write-flat-pen" fill="#000000" stroke-width="1.6" __comx="398.602" __comy="283.251" __timestamp="0x175ddefb6d8" d="M166.738 396.495 l0.806 0.886 0.134 0.071 4.685 1.287 0.255 0.043 6.071 0.626 4.26 -0.502 12.07 -3.498 4.536 -1.777 3.919 -2.176 8.006 -6.13 23.509 -21.711 5.212 -5.339 14.232 -17.503 8.606 -9.294 13.997 -13.268 16.348 -18.728 19.944 -20.825 34.768 -39.963 7.788 -10.25 10.839 -13.091 8.35 -8.37 10.758 -12.193 6.582 -8.23 8.991 -10.113 4.852 -4.736 7.588 -5.138 3.301 -1.606 7.89 -2.416 5.182 -0.75 3.82 -0.012 9.453 1.709 9.128 2.525 8.348 3.043 5.699 2.822 6.527 3.963 15.716 11.232 14.465 11.058 5.233 4.973 10.609 11.437 5.814 7.029 4.844 7.296 6.326 10.97 4.362 9.413 5.289 13.941 10.665 31.261 7.729 23.761 2.622 9.984 3.935 11.485 5.165 13.013 8.8 19.72 3.457 6.72 4.264 6.038 2.889 3.223 11.164 8.165 3.803 2.198 5.719 2.441 8.438 1.259 1.911 0.711 2.169 1.934 1.543 1.524 0.347 -0.212 -0.762 -2.241 -2.485 -2.332 -2.34 -0.87 -8.403 -1.249 -5.457 -2.325 -3.654 -2.109 -10.971 -8.022 -2.718 -3.044 -4.148 -5.882 -3.386 -6.589 -8.774 -19.651 -5.143 -12.948 -3.901 -11.399 -2.628 -9.971 -7.755 -23.81 -10.704 -31.286 -5.319 -14.012 -4.416 -9.518 -6.385 -11.065 -4.911 -7.4 -5.883 -7.126 -10.665 -11.506 -5.322 -5.063 -14.539 -11.132 -15.772 -11.294 -6.628 -4.031 -5.831 -2.892 -8.483 -3.097 -9.252 -2.567 -9.66 -1.752 -4.07 0.011 -5.408 0.781 -8.12 2.484 -3.509 1.706 -7.795 5.278 -4.989 4.873 -9.049 10.189 -6.583 8.233 -10.699 12.133 -8.363 8.391 -10.896 13.177 -7.773 10.238 -34.688 39.919 -19.927 20.839 -16.313 18.714 -13.939 13.296 -8.641 9.381 -14.216 17.492 -5.142 5.274 -23.414 21.675 -7.875 6.047 -3.758 2.095 -4.398 1.737 -11.907 3.497 -4.028 0.511 -5.918 -0.516 -0.185 -0.026 -4.669 -0.878 -0.019 0.001 -1.046 -0.438" />
    <path class="write-flat-pen" fill="#000000" stroke-width="1.6" __comx="425.106" __comy="395.531" __timestamp="0x175ddefbc21" d="M421.492 398.949 l1.693 -4.088 0.072 -0.151 0.95 -1.411 1.301 -0.888 0.811 -0.143 0.463 0.285 0.615 1.284 0 0 0.385 2.822 0 0 -0.541 10.981 0 0 1.504 -0.078 -1.675 -11.117 -0.184 -3.905 0.354 -1.39 -0.191 0.013 0 0 -0.818 -0.749 0.265 15.348 -0.241 0.447 0 0 1.07 -0.294 -0.454 -0.261 -1.221 -0.202 -0.292 0.461 0.72 1.026 0.456 0.288 1.07 -0.294 0 0 0.428 -0.799 -0.274 -15.747 -0.818 -0.749 0 0 -0.91 0.064 -0.684 2.682 0.198 4.213 1.704 11.192 1.504 -0.078 0 0 0.502 -11.12 0 0 -0.453 -3.185 0 0 -0.937 -1.872 -1.323 -0.727 -1.59 0.384 -1.63 1.307 -0.958 1.771 -0.085 0.248 -1.316 4.239" />
    <path class="write-flat-pen" fill="#000000" stroke-width="1.6" __comx="403.888" __comy="419.11" __timestamp="0x175ddefbf4b" d="M402.674 418.604 l0.371 -3.458 0.466 -1.075 -0.156 0.018 0.483 1.483 0.612 6.739 -0.071 7.31 -0.541 2.958 -0.922 2.118 0 0 1.386 0.136 -0.286 -0.977 0.014 -0.328 0.144 -1.782 -0.418 -0.122 -0.838 1.579 -0.259 0.605 0.214 1.335 1.386 0.136 0 0 0.981 -2.275 0.588 -3.246 0.048 -7.51 -0.708 -6.973 -0.844 -2.231 -1.534 -0.361 -0.727 2.254 -0.163 3.609" />
    <path class="write-flat-pen" fill="#000000" stroke-width="1.6" __comx="421.955" __comy="421.896" __timestamp="0x175ddefc189" d="M411.246 424.537 l0.772 -3.307 0.142 -0.228 1.778 -2.11 1.877 -1.339 2.243 -0.842 2.422 -0.279 1.152 0.247 0.96 0.749 0.751 1.608 0.394 3.058 -0.426 2.703 -1.753 3.711 -1.795 2.273 -4.974 4.034 -0.071 0.825 0.714 0.819 13.149 0.769 1.943 -0.346 1.323 -0.948 0.402 -0.492 1.244 -1.719 -0.342 -0.354 -1.76 1.185 -0.413 0.296 -1.021 0.599 -1.462 0.239 -12.974 -0.75 0.714 0.819 0.008 -0.182 4.586 -3.749 1.994 -2.539 1.907 -4.057 0.486 -3.119 -0.461 -3.491 -1.008 -2.122 -1.5 -1.151 -1.701 -0.356 -2.827 0.336 -2.574 0.99 -2.145 1.591 -1.86 2.413 -0.26 0.508 -0.464 3.559" />
    <path class="write-flat-pen" fill="#000000" stroke-width="1.6" __comx="170.016" __comy="396.236" __timestamp="0x175ddefc7cb" d="M175.659 396.628 l-2.568 -0.649 -1.936 0.368 -0.596 -0.341 -0.37 -1.027 0.221 -0.497 0.792 -0.413 1.065 0.186 1.796 1.103 1.524 1.793 0.507 1.674 -0.319 0.846 -1.223 0.727 -2.285 0.408 -3.076 -0.229 -2.909 -0.819 -1.867 -1.046 -0.474 -0.719 0.006 -0.665 0.704 -1.029 1.663 -0.82 1.542 -0.063 1.3 0.549 1.032 1.163 0.765 1.936 0.087 2.003 -0.365 0.519 -1.72 0.69 -1.11 -0.138 -0.518 -0.484 -0.301 -1.104 0.501 -1.549 0.759 -0.775 1.481 -0.532 1.42 0.326 1.486 0.942 1.234 1.485 0.762 1.885 0.06 1.459 -0.419 0.704 -1.154 0.595 -1.284 -0.02 -1.651 -0.662 -1.882 -1.532 -1.125 -2.254 -0.172 -1.212 0.292 -0.66 1.153 -0.775 2.461 -0.443 2.163 0.28 1.099 0.82 1.366 3.205 0.851 1.977 0.178 -0.031 0.122 -2.269 -1.383 -3.751 -1.701 -1.268 -2.73 -0.354 -2.953 0.532 -1.723 1.156 -0.611 1.384 0.261 1.821 1.359 2.714 2.272 1.847 2.08 0.831 1.879 0.02 1.793 -0.941 0.807 -1.38 -0.09 -2.082 -0.925 -2.291 -1.5 -1.807 -1.856 -1.178 -2.024 -0.463 -2.137 0.767 -1.192 1.22 -0.715 2.227 0.515 1.847 1.112 1.023 1.87 0.219 2.381 -0.983 0.81 -1.196 -0.133 -2.635 -0.922 -2.335 -1.366 -1.542 -1.82 -0.77 -2.088 0.086 -2.198 1.082 -1.104 1.617 -0.009 1.429 0.855 1.287 2.259 1.265 3.172 0.893 3.358 0.245 2.662 -0.485 1.775 -1.085 0.574 -1.638 -0.747 -2.264 -1.821 -2.07 -2.126 -1.287 -1.632 -0.27 -1.432 0.786 -0.482 1.239 0.758 1.696 1.221 0.486 2.023 -0.65 2.507 0.345" />
    <path class="write-flat-pen" fill="#000000" stroke-width="1.6" __comx="185.519" __comy="420.585" __timestamp="0x175ddefca9a" d="M183.424 422.145 l1.269 -1.98 0.069 -0.234 0.087 -1.095 -0.831 -1.303 -1.856 -0.262 -2.53 1.377 -1.683 1.824 -1.067 2.129 -0.746 3.744 0.712 2.704 1.393 1.825 2.078 1.398 2.578 0.852 4.22 0.223 2.564 -0.705 3.062 -1.926 1.264 -1.573 0.895 -2.859 -0.443 -2.138 -1.175 -2.039 -2.352 -2.33 -4.725 -2.233 -0.529 -0.651 -0.948 -1.197 -0.478 0.262 0.499 1.443 0.475 1.181 4.896 2.349 2.06 2.029 0.985 1.683 0.345 1.579 -0.689 2.298 -0.959 1.22 -2.706 1.73 -2.184 0.618 -3.856 -0.176 -2.271 -0.733 -1.785 -1.185 -1.137 -1.476 -0.587 -2.21 0.666 -3.32 0.925 -1.835 1.439 -1.56 2.021 -1.126 1.016 0.084 0.498 0.582 0.083 0.716 0.004 0.068 -0.813 2.105" />
    <path class="write-flat-pen" fill="#000000" stroke-width="1.6" __comx="620.537" __comy="398.719" __timestamp="0x175ddefd26f" d="M624.119 400.829 l0.544 -2.158 0.421 -0.129 0 0 -0.658 -0.277 0.371 1.273 -0.288 1.785 -0.803 1.063 -1.333 0.754 -2.483 0.469 -2.064 -0.324 -1.02 -0.62 -0.777 -1.217 -0.388 -1.984 0.225 -1.68 0.77 -1.346 0.785 -0.532 0.888 -0.003 1.076 0.842 1.061 1.97 0.752 2.825 -0.15 0.773 -0.553 0.56 -1.471 0.213 -1.573 -0.35 -1.174 -0.758 -0.523 -0.821 -0.062 -0.835 0.714 -1.532 1.734 -1.521 2.281 -0.875 2.105 -0.265 1.382 0.423 0.976 0.957 0.478 1.492 -0.342 2.096 -0.701 1.098 -1.016 0.675 -1.545 0.152 0 0 -1.378 -0.419 0 0 -1.885 -1.7 -1.051 0.898 1.112 1.706 0.568 4.644 0.207 2.158 0.154 0.02 0.772 -2.158 -0.351 -5.134 -1.292 -1.996 -1.051 0.898 2.121 1.899 0 0 1.937 0.585 0 0 2.159 -0.216 1.543 -1.027 1.01 -1.581 0.445 -2.702 -0.681 -2.135 -1.46 -1.436 -1.99 -0.612 -2.568 0.323 -2.67 1.026 -2.135 1.882 -0.981 2.125 0.122 1.537 0.877 1.358 1.634 1.038 2.05 0.445 2.155 -0.323 1.14 -1.168 0.281 -1.462 -0.869 -3.268 -1.261 -2.354 -1.656 -1.3 -1.758 0.003 -1.378 0.937 -1.044 1.845 -0.274 2.153 0.494 2.434 1.085 1.667 1.498 0.886 2.526 0.373 2.888 -0.577 1.709 -1.009 1.081 -1.521 0.284 -2.325 -0.552 -1.475 -0.658 -0.277 0 0 -0.732 0.43 -0.353 2.612" />
    <path class="write-flat-pen" fill="#000000" stroke-width="1.6" __comx="133.404" __comy="583.304" __timestamp="0x175ddf4c267" d="M113.828 579.171 l-1.692 -4.829 -0.229 -0.614 0 0 -0.607 -1.813 0 0 -0.895 0.053 -0.43 1.224 0.358 11.534 0.842 6.114 1.191 3.606 1.375 2.275 2.185 2.144 2.789 1.821 4.271 1.706 3.557 0.703 3.337 -0.044 2.037 -0.613 2.579 -2.108 1.96 -3.698 3.284 -10.639 0.959 -4.747 0.16 -3.845 -0.7 -2.126 -1.188 -0.638 -1.303 0.388 -0.853 2.074 -0.24 2.628 0.705 3.773 2.781 6.731 3.429 5.991 2.635 3.007 2.536 1.915 3.048 0.964 2.864 -0.564 0.746 -0.572 1.516 -1.294 -0.117 -0.199 -1.869 0.694 -0.67 0.26 -2.355 0.226 -2.494 -0.808 -2.225 -1.678 -2.454 -2.783 -3.34 -5.776 -2.735 -6.503 -0.674 -3.451 0.188 -2.252 0.535 -1.328 0.206 -0.063 0.271 0.144 0.46 1.418 -0.158 3.507 -0.945 4.578 -3.242 10.452 -1.778 3.346 -2.165 1.766 -1.6 0.481 -3.008 0.038 -3.297 -0.651 -4.033 -1.606 -2.567 -1.674 -1.972 -1.931 -1.212 -2 -1.113 -3.347 -0.853 -5.925 -0.526 -11.286 0.226 -1.099 -0.895 0.053 0 0 0.855 1.719 0 0 0.3 0.579 2.09 4.658" />
    <path class="write-flat-pen" fill="#000000" stroke-width="1.6" __comx="163.129" __comy="583.304" __timestamp="0x175ddf4c4ec" d="M160.248 619.023 l0.636 -1.459 -0.871 -5.12 -0.219 -1.214 -1.349 -7.097 -0.425 -5.088 0.191 -5.187 0.627 -1.392 0.941 -0.699 1.621 -0.298 2.168 0.629 2.078 1.237 1.811 1.955 0.708 1.835 -0.152 1.188 -1.247 1.129 -1.787 0.6 -5.739 0.148 -1.721 0.392 -0.014 0.212 1.706 0.615 5.995 -0.06 2.236 -0.76 1.792 -1.644 0.244 -1.983 -0.924 -2.36 -2.108 -2.259 -2.374 -1.407 -2.606 -0.756 -2.203 0.396 -1.444 1.071 -0.859 1.921 -0.18 5.511 0.489 5.225 1.513 7.13 0.266 1.208 1.221 4.876 -0.414 1.358" />
    <path class="write-flat-pen" fill="#000000" stroke-width="1.6" __comx="203.827" __comy="583.304" __timestamp="0x175ddf4c69a" d="M196.663 569.283 l-0.083 -0.215 -0.261 -0.979 0 0 -0.538 -0.133 -0.725 0.465 -0.162 4.047 1.291 11.293 1.274 5.504 1.417 3.049 1.745 1.865 2.488 0.974 2.128 -0.063 4.382 -2.037 0.747 -0.722 1.246 -1.582 1.149 -1.709 -0.077 -0.068 -1.55 1.338 -1.472 1.275 -0.664 0.471 -4.071 1.654 -1.576 0.045 -1.935 -0.752 -1.39 -1.47 -1.283 -2.715 -1.268 -5.287 -1.442 -11.125 -0.053 -3.558 0.246 -0.383 -0.538 -0.133 0 0 0.463 0.902 0.083 0.215" />
    <path class="write-flat-pen" fill="#000000" stroke-width="1.6" __comx="203.221" __comy="583.304" __timestamp="0x175ddf4c781" d="M191.16 580.793 l2.695 0.733 1.101 0.015 4.13 -0.609 11.685 -3.886 2.143 -1.406 0.781 -0.356 1.587 -0.736 -0.032 -0.096 -1.714 0.349 -0.909 0.2 -2.258 1.146 -11.554 3.652 -3.947 0.654 -0.912 0.025 -2.664 -0.343" />
    <path class="write-flat-pen" fill="#000000" stroke-width="1.6" __comx="223.641" __comy="583.304" __timestamp="0x175ddf4c923" d="M225.702 585.621 l1.162 -1.15 -0.147 -0.802 -1.116 -1.298 -2.173 -0.682 -2.842 -0.071 -2.076 0.848 -1.047 1.34 -0.654 2.665 0.513 2.204 1.78 2.826 2.524 1.507 2.105 0.441 2.368 -0.491 2.558 -1.727 1.352 -2.392 0.465 -2.237 -0.47 -1.955 -2.205 -1.543 -0.977 0.087 -1.89 0.323 -0.01 0.35 1.869 0.427 0.56 0.129 1.39 1.07 0.269 1.134 -0.355 1.707 -1.075 1.909 -2.045 1.388 -1.806 0.381 -1.59 -0.325 -2.046 -1.203 -1.496 -2.341 -0.396 -1.662 0.498 -2.073 0.648 -0.834 1.488 -0.614 2.391 0.034 1.711 0.466 0.816 0.735 0.055 0.048 -0.553 1.031" />
    <path class="write-flat-pen" fill="#000000" stroke-width="1.6" __comx="266.59" __comy="583.304" __timestamp="0x175ddf4cba2" d="M262.654 578.782 l-0.338 -0.3 -0.694 -0.767 -0.876 0.685 4.628 9.056 4.868 7.246 1.939 1.254 0.251 -0.273 -1.306 -1.731 -4.592 -7.178 -4.787 -8.899 -0.876 0.685 0.844 0.598 0.338 0.3" />
    <path class="write-flat-pen" fill="#000000" stroke-width="1.6" __comx="270.826" __comy="583.304" __timestamp="0x175ddf4ccab" d="M275.874 579.048 l-5.444 13.232 -0.926 2.433 -2.345 7.035 -2.432 12.203 0.187 2.418 0.573 0.055 0.639 -2.266 2.421 -12.043 2.286 -6.932 0.901 -2.396 5.192 -13.319" />
    <path class="write-flat-pen" fill="#000000" stroke-width="1.6" __comx="298.34" __comy="583.304" __timestamp="0x175ddf4ce8c" d="M300.572 577.701 l-0.321 -1.397 -1.565 -0.783 -2.755 0.23 -2.461 1.599 -1.276 1.816 -0.987 3.111 -0.231 3.531 0.547 2.527 1.51 3.083 1.431 1.425 1.879 0.836 2.177 0.129 2.261 -0.914 2.047 -1.844 2.034 -4.049 0.842 -4.379 -0.074 -3.628 -0.747 -2.091 -1.728 -2.147 -1.377 -0.651 -1.643 0.37 -0.95 1.302 -0.162 0.791 -0.256 1.825 0.347 0.12 0.926 -1.593 0.287 -0.509 0.609 -0.628 0.658 -0.117 0.612 0.294 1.355 1.685 0.581 1.626 0.075 3.229 -0.762 4.027 -1.811 3.623 -1.648 1.491 -1.718 0.699 -1.589 -0.088 -1.399 -0.615 -1.077 -1.064 -1.339 -2.707 -0.477 -2.163 0.192 -3.165 0.86 -2.751 0.995 -1.433 1.949 -1.302 2.092 -0.262 0.871 0.298 0.329 0.871" />
    <path class="write-flat-pen" fill="#000000" stroke-width="1.6" __comx="322.089" __comy="583.304" __timestamp="0x175ddf4d03e" d="M311.512 577.697 l-0.732 1.706 0.099 5.295 0.834 5.663 0.872 2.097 1.644 1.224 1.996 -0.252 1.864 -1.637 2.153 -3.959 1.513 -4.576 0 0 0.971 -6.948 0 0 -1.473 -0.149 -0.175 2.819 0.555 3.917 1.355 3.914 2.034 3.374 4.107 3.52 1.134 0.322 0.92 0.094 2.135 0.141 0.079 -0.35 -1.991 -0.786 -0.807 -0.294 -0.776 -0.33 -3.653 -3.28 -1.835 -3.044 -1.258 -3.632 -0.514 -3.626 0.168 -2.669 -1.473 -0.149 0 0 -0.952 6.815 0 0 -1.428 4.323 -1.963 3.612 -1.326 1.167 -0.959 0.124 -0.848 -0.626 -0.653 -1.555 -0.824 -5.391 -0.151 -4.938 0.479 -1.516" />
    <path class="write-flat-pen" fill="#000000" stroke-width="1.6" __comx="354.831" __comy="583.304" __timestamp="0x175ddf4d166" d="M355.336 593.989 l-0.985 0.398 1.008 0.547 -0.223 -0.903 -0.156 -0.712 -0.452 -1.761 -0.473 0.03 -0.226 1.804 -0.059 0.81 0.136 1.005 1.008 0.547 0.98 -0.41" />
    <path class="write-flat-pen" fill="#000000" stroke-width="1.6" __comx="354.938" __comy="583.304" __timestamp="0x175ddf4d1ff" d="M356.142 564.357 l-0.801 -0.892 -0.036 -0.409 -0.135 -1.376 -0.343 -0.094 -0.836 1.199 -0.259 1.18 1.307 1.404" />
    <path class="write-flat-pen" fill="#000000" stroke-width="1.6" __comx="412.791" __comy="583.304" __timestamp="0x175ddf4d569" d="M412.579 566.217 l-0.563 6.703 0.004 2.17 0.101 11.273 -0.568 7.836 0.94 0.71 0.821 -0.411 0.289 -0.592 0.425 -1.134 -0.279 -0.2 -0.938 0.766 -0.254 0.165 -0.547 0.091 0.94 0.71 0.618 -7.895 -0.158 -11.333 -0.033 -2.118 0.31 -6.67" />
    <path class="write-flat-pen" fill="#000000" stroke-width="1.6" __comx="412.475" __comy="583.304" __timestamp="0x175ddf4d65a" d="M394.416 565.384 l-0.052 1.554 1.206 1.072 2.582 0.784 4.202 0.382 5.341 -0.335 19.765 -4.318 1.021 -0.141 2.105 -0.331 -0.019 -0.627 -2.12 -0.206 -1.155 -0.077 -19.805 4.202 -5.116 0.331 -3.949 -0.327 -2.179 -0.598 -0.569 -0.419 -0.042 -0.941" />
    <path class="write-flat-pen" fill="#000000" stroke-width="1.6" __comx="414.644" __comy="583.304" __timestamp="0x175ddf4d792" d="M399.074 591.546 l1.233 1.494 3.031 0.773 3.353 0.018 11.03 -1.813 7.482 -0.648 1.854 0.478 0.896 0.312 2.061 0.661 0.2 -0.408 -1.784 -1.226 -0.893 -0.566 -2.182 -0.729 -7.82 0.648 -10.966 1.837 -3.07 0.028 -2.492 -0.526 -1.031 -1.117" />
    <path class="write-flat-pen" fill="#000000" stroke-width="1.6" __comx="442.105" __comy="583.304" __timestamp="0x175ddf4d9c8" d="M443.888 579.242 l0.07 -1.39 -0.472 -0.394 -1.901 -0.522 -3.144 0.34 -2.312 1.072 -1.143 1.674 0.836 1.477 7.128 2.32 2.961 1.59 1.216 1.365 0.609 1.654 -0.211 1.704 -1.298 1.48 -1.491 0.668 -3.036 0.489 -3.446 -0.505 -1.849 -0.596 -0.282 0.471 1.638 1.492 3.945 0.625 3.455 -0.56 1.957 -0.881 1.8 -2.061 0.306 -2.499 -0.826 -2.244 -1.571 -1.764 -3.302 -1.774 -6.712 -2.186 -0.11 -0.194 0.404 -0.595 1.733 -0.815 2.666 -0.338 1.445 0.256 -0.125 -0.132 0.238 0.835" />
    <path class="write-flat-pen" fill="#000000" stroke-width="1.6" __comx="490.826" __comy="583.304" __timestamp="0x175ddf4dbce" d="M487.813 555.54 l-1.652 9.736 -0.448 2.336 -1.139 7.499 -0.551 10.045 1.179 4.585 1.304 2.458 2.529 2.633 2.674 1.416 2.246 0.48 1.915 -0.64 0.504 -0.52 1.259 -1.495 -0.211 -0.262 -1.728 0.913 -0.417 0.222 -1.37 0.306 -1.696 -0.374 -2.294 -1.213 -2.232 -2.318 -1.132 -2.129 -1.087 -4.205 0.511 -9.759 1.095 -7.412 0.434 -2.335 1.375 -9.801" />
    <path class="write-flat-pen" fill="#000000" stroke-width="1.6" __comx="487.565" __comy="583.304" __timestamp="0x175ddf4dcd2" d="M474.679 573.941 l-0.351 1.065 0.928 0.229 0.858 0.054 9.662 0.928 5.594 0.005 6.368 -1.704 1.358 -0.751 1.705 -0.986 -0.138 -0.322 -1.89 0.555 -1.395 0.43 -6.176 1.387 -5.361 -0.006 -9.644 -0.84 -0.869 -0.006 -0.925 0.082 0.555 0.786" />
    <path class="write-flat-pen" fill="#000000" stroke-width="1.6" __comx="512.229" __comy="583.304" __timestamp="0x175ddf4dead" d="M504.035 559.438 l-0.162 5.338 0.105 1.754 1.06 10.844 0.643 14.468 0.629 2.67 0 0 1.082 0.457 0.849 -0.504 2.185 -4.437 2.122 -2.754 3.062 -2.77 0.586 -0.206 0.679 0.262 0.705 1.061 0.662 2.979 0.335 6.222 0.638 0.316 1.22 0.272 0.151 -0.221 -0.697 -1.037 0.046 -0.088 -0.234 -5.659 -0.753 -3.366 -1.113 -1.672 -1.613 -0.625 -1.372 0.481 -3.381 3.052 -2.293 2.975 -2.056 4.182 -0.474 0.287 1.082 0.457 0 0 -0.609 -2.535 -0.688 -14.369 -1.161 -10.853 -0.142 -1.685 -0.132 -5.292" />
    <path class="write-flat-pen" fill="#000000" stroke-width="1.6" __comx="527.801" __comy="583.304" __timestamp="0x175ddf4df71" d="M527.951 580.974 l-1.002 3.466 -0.443 7.584 1.239 1.265 0.613 -0.299 0.736 -0.595 -0.049 -0.161 -0.942 -0.083 0.014 -0.116 -0.226 -0.475 0.331 -6.922 0.793 -3.386" />
    <path class="write-flat-pen" fill="#000000" stroke-width="1.6" __comx="527.94" __comy="583.304" __timestamp="0x175ddf4dfff" d="M526.784 571.313 l1 4.027 0.992 1.808 0.319 -0.127 -0.492 -1.929 -0.714 -4.015" />
    <path class="write-flat-pen" fill="#000000" stroke-width="1.6" __comx="547.261" __comy="583.304" __timestamp="0x175ddf4e158" d="M544.033 578.894 l-0.929 -1.451 -2.602 -1.255 -1.535 0.436 -0.066 1.779 1.384 1.848 10.49 5.304 2.634 1.838 0.787 1.579 0.01 1.319 -0.664 1.42 -1.435 1.386 -2.14 0.899 -2.38 0.386 -2.409 -0.407 -2.827 -1.73 -0.492 -0.408 -1.736 -1.381 -0.369 0.34 1.23 1.846 0.487 0.656 3.171 2.072 2.939 0.498 2.793 -0.459 2.548 -1.084 1.808 -1.774 0.89 -1.962 -0.043 -1.96 -1.115 -2.156 -3 -2.074 -10.303 -5.195 -0.929 -1.223 0.001 -0.379 0.177 -0.069 1.97 0.803 0.927 1.089" />
    <path class="write-flat-pen" fill="#000000" stroke-width="1.6" __comx="153.767" __comy="665.876" __timestamp="0x175ddf4e929" d="M155.657 669.312 l2.153 -1.624 0.227 -0.656 0.158 -1.636 -0.667 -2.337 -1.353 -1.893 -1.82 -1.138 -2.842 -0.655 -3.354 0.172 -3.028 1.131 -2.199 2.046 -1.585 2.84 -1.055 4.735 -0.151 3.006 0.917 4.568 1.067 2.192 1.945 1.836 2.176 0.739 2.542 -0.172 2.056 -1.086 1.847 -1.965 2.408 -5.349 -0.072 0.002 3.501 5.148 2.49 2.534 3.09 1.485 1.056 0.107 2.168 0.15 0.065 -0.309 -2.044 -0.738 -0.864 -0.298 -2.712 -1.438 -2.262 -2.303 -3.833 -5.657 -1.437 0.072 -2.619 5.886 -1.555 1.663 -1.634 0.87 -2.03 0.144 -1.689 -0.565 -1.592 -1.492 -0.903 -1.849 -0.857 -4.265 0.139 -2.75 0.999 -4.456 1.417 -2.502 1.885 -1.731 2.614 -0.973 2.985 -0.157 2.475 0.555 1.459 0.881 1.156 1.509 0.687 1.946 0.032 1.375 -0.053 0.386 -1.662 1.846" />
    <path class="write-flat-pen" fill="#000000" stroke-width="1.6" __comx="214.291" __comy="665.876" __timestamp="0x175ddf4eba3" d="M208.256 678.961 l-0.455 1.353 -0.058 -0.006 0 0 0.873 0.093 0.14 -1.176 -0.04 -0.992 -1.233 -7.301 -4.848 -15.972 -1.119 -5.69 0.06 -2.977 1.058 -2.615 1.893 -2.442 2.043 -1.439 2.502 -0.981 2.609 -0.33 2.976 0.504 3.167 1.49 2.732 2.126 5.776 6.641 0.34 0.504 0.436 0.725 1.16 1.826 0.254 -0.112 -0.565 -2.088 -0.263 -0.862 -0.339 -0.704 -5.78 -6.992 -2.982 -2.317 -3.496 -1.641 -3.385 -0.571 -3.001 0.382 -2.833 1.111 -2.366 1.664 -2.151 2.774 -1.232 3.051 -0.069 3.401 1.168 5.915 4.899 15.947 1.347 7.13 0.098 0.885 0.161 1.135 0.873 0.093 0 0 -0.051 -0.041 0.006 -1.449" />
    <path class="write-flat-pen" fill="#000000" stroke-width="1.6" __comx="210.422" __comy="665.876" __timestamp="0x175ddf4ec96" d="M200.357 663.402 l0.009 0.623 0.181 0.087 0.16 -0.011 4.637 -0.208 12.312 1.306 1.121 -0.053 2.079 -0.14 0.014 -0.227 -2.047 -0.394 -1.078 -0.188 -12.372 -1.59 -4.834 0.469 -0.448 0.147 -0.114 0.333 0.583 0.42" />
    <path class="write-flat-pen" fill="#000000" stroke-width="1.6" __comx="239.253" __comy="665.876" __timestamp="0x175ddf4ee72" d="M228.071 664.29 l-0.606 3.021 0.158 3.921 1.056 3.68 1.259 2.218 1.596 1.561 1.92 0.877 2.201 0.191 2.072 -0.815 1.888 -1.588 1.505 -2.158 1.146 -3.49 0.513 -3.824 0 0 -0.454 -1.336 0 0 -1.201 -0.236 -0.596 0.685 0.669 3.04 1.861 3.668 4.057 4.526 1.202 0.358 0.803 -0.044 1.906 -0.194 0.016 -0.205 -1.853 -0.486 -0.633 -0.155 -0.7 -0.348 -3.62 -4.249 -1.697 -3.352 -0.478 -2.171 0.129 -0.147 -1.201 -0.236 0 0 0.349 1.022 0 0 -0.445 3.369 -1.037 3.172 -1.279 1.841 -1.569 1.328 -1.556 0.617 -1.641 -0.138 -1.487 -0.675 -1.291 -1.255 -1.091 -1.906 -0.987 -3.368 -0.196 -3.629 0.342 -2.929" />
    <path class="write-flat-pen" fill="#000000" stroke-width="1.6" __comx="263.263" __comy="665.876" __timestamp="0x175ddf4efe3" d="M253.164 667.048 l-0.146 4.166 0.151 0.988 1.321 5.722 0 0 1.022 1.535 0 0 1.157 0.02 1.165 -1.564 2.326 -10.555 1.092 -2.403 1.061 -0.905 0.641 -0.157 0.792 0.319 1.272 1.344 1.864 3.352 4.106 9.683 1.021 0.789 0.18 0.05 1.257 -0.031 0.061 -0.141 -0.842 -0.934 0.037 -0.012 -0.479 -0.591 -4.017 -9.459 -1.995 -3.58 -1.619 -1.71 -1.527 -0.615 -1.439 0.352 -1.574 1.344 -1.29 2.842 -2.272 10.413 -0.963 1.332 1.157 0.02 0 0 -0.914 -1.305 0 0 -1.375 -5.406 -0.159 -0.84 -0.168 -4.065" />
    <path class="write-flat-pen" fill="#000000" stroke-width="1.6" __comx="288.434" __comy="665.876" __timestamp="0x175ddf4f14f" d="M286.426 669.432 l2.668 -4.058 0.236 -0.586 0.198 -1.413 -1.006 -0.999 -1.747 -0.23 -4.23 0.791 -3.675 1.561 -1.482 1.884 -0.728 2.656 0.054 3.279 0.909 3.533 1.663 3.531 2.315 3.009 2.868 2.253 3.05 1.205 3.382 0.351 4.991 -1.395 1.586 -0.993 1.324 -1.175 1.406 -1.292 -0.225 -0.309 -1.663 0.938 -1.473 0.858 -1.46 0.736 -4.6 1.143 -2.912 -0.314 -2.662 -1.051 -2.552 -2.005 -2.103 -2.735 -1.534 -3.259 -0.829 -3.227 -0.047 -2.891 0.593 -2.162 1.061 -1.349 3.176 -1.352 3.845 -0.738 1.048 0.116 0.192 0.157 -0.036 0.57 -0.111 0.325 -2.362 4.101" />
    <path class="write-flat-pen" fill="#000000" stroke-width="1.6" __comx="310.808" __comy="665.876" __timestamp="0x175ddf4f26d" d="M305.733 645.192 l3.249 11.846 2.483 12.422 2.704 9.239 0.152 0.154 1.437 0.914 0.125 -0.104 -0.629 -1.583 0.046 0.026 -2.395 -8.992 -2.498 -12.421 -3.455 -11.847" />
    <path class="write-flat-pen" fill="#000000" stroke-width="1.6" __comx="310.599" __comy="665.876" __timestamp="0x175ddf4f337" d="M296.081 663.081 l11.48 0.353 5.77 -0.67 8.969 -3.361 1.047 -0.673 1.77 -1.204 -0.234 -0.46 -2.015 0.723 -1.09 0.415 -8.787 3.127 -5.499 0.647 -11.384 -0.132" />
    <path class="write-flat-pen" fill="#000000" stroke-width="1.6" __comx="332.954" __comy="665.876" __timestamp="0x175ddf4f411" d="M330.751 661.881 l-0.295 3.68 0.608 5.081 1.071 3.922 1.111 1.134 1.452 -0.881 0.352 -1.057 0.403 -1.496 -0.362 -0.175 -0.92 1.246 -0.431 0.566 -0.219 0.022 -0.083 -0.102 -0.956 -3.46 -0.63 -4.844 0.141 -3.561" />
    <path class="write-flat-pen" fill="#000000" stroke-width="1.6" __comx="336.823" __comy="665.876" __timestamp="0x175ddf4f4a9" d="M336.794 644.914 l-1.154 1.997 -0.29 2.39 0.768 3.028 0.596 0.953 1.195 1.771 0.386 -0.188 -0.654 -2.034 -0.317 -0.925 -0.521 -2.681 0.214 -1.869 0.95 -1.789" />
    <path class="write-flat-pen" fill="#000000" stroke-width="1.6" __comx="344.302" __comy="665.876" __timestamp="0x175ddf4f5f0" d="M349.517 663.169 l-2.701 -2.505 -3.163 -0.969 -2.764 0.109 -2.502 0.826 -1.97 1.833 -0.999 2.678 -0.358 3.027 0.46 3.306 1.385 3.111 2.092 2.457 2.556 1.497 2.854 0.562 3.014 -0.591 2.601 -1.503 1.912 -2.171 1.064 -2.69 0.546 -3.523 -0.368 -2.694 -1.003 -1.539 -2.924 -1.503 -2.128 0.319 -0.029 0.393 1.768 0.61 2.263 1.318 0.611 0.94 0.294 2.144 -0.484 3.142 -0.905 2.293 -1.577 1.794 -2.173 1.259 -2.483 0.489 -2.321 -0.455 -2.124 -1.241 -1.792 -2.102 -1.215 -2.725 -0.406 -2.911 0.313 -2.662 0.814 -2.186 1.479 -1.379 2.001 -0.666 2.315 -0.103 2.645 0.767 2.578 2.174" />
    <path class="write-flat-pen" fill="#000000" stroke-width="1.6" __comx="365.661" __comy="665.876" __timestamp="0x175ddf4f770" d="M354.846 665.719 l0.566 1.897 0.126 0.689 1.017 8.947 0 0 0.677 1.326 0 0 1.339 -0.014 1.214 -2.448 2.399 -7.804 2.023 -4.257 1.603 -1.553 0.94 -0.393 1.094 0.112 1.194 0.753 1.359 1.628 2.282 4.551 1.567 4.817 0.882 4.588 0.208 0.792 0.668 2.206 0.44 -0.062 0.033 -2.304 -0.022 -0.839 -0.737 -4.744 -1.635 -5.028 -2.41 -4.81 -1.624 -1.947 -1.697 -1.07 -1.831 -0.189 -1.561 0.653 -2.006 1.943 -2.188 4.606 -2.393 7.795 -1.148 2.345 1.339 -0.014 0 0 -0.572 -1.079 0 0 -1.139 -8.722 -0.199 -0.837 -0.884 -1.883" />
    <path class="write-flat-pen" fill="#000000" stroke-width="1.6" __comx="418.915" __comy="665.876" __timestamp="0x175ddf4fa32" d="M423.302 665.955 l1.651 -0.352 0.277 -0.432 -0.1 -1.272 -1.659 -0.962 -2.894 -0.311 -3.949 1.013 -2.544 1.296 -2.794 2.597 -1.22 2.978 -0.275 2.257 0.511 2.318 1.29 2.063 2.251 1.335 2.868 0.612 3.28 -0.707 4.442 -2.433 2.133 -2.046 1.309 -2.91 0.153 -2.53 -0.567 -1.632 -1.691 -1.446 -2.139 -0.647 -1.925 0.574 -0.962 1.315 -0.079 0.303 -0.232 1.877 0.337 0.131 1.094 -1.543 0.071 -0.082 0.646 -0.689 1.039 -0.282 1.393 0.424 1.129 0.965 0.33 0.947 -0.115 1.942 -1.067 2.386 -1.769 1.706 -4.068 2.238 -2.748 0.599 -2.313 -0.487 -1.73 -1.019 -0.964 -1.535 -0.402 -1.818 0.219 -1.806 1.019 -2.491 2.403 -2.234 2.214 -1.13 3.534 -0.92 2.347 0.217 0.849 0.42 0.089 0.156 0.195 -0.298 -1.129 0.539" />
    <path class="write-flat-pen" fill="#000000" stroke-width="1.6" __comx="441.966" __comy="665.876" __timestamp="0x175ddf4fbac" d="M438.254 680.024 l-0.888 0.252 0.771 0.402 -1.178 -4.823 -0.26 -1.506 -5.397 -17.021 -1.108 -5.43 -0.248 -4.016 0.523 -2.476 1.305 -1.937 1.48 -1.019 3.212 -0.999 4.544 -0.424 3.091 0.203 2.854 0.786 3.337 1.83 2.291 2.338 0.49 0.842 0.571 0.684 0.42 0.628 1.19 1.696 0.285 -0.138 -0.59 -1.986 -0.277 -0.814 -0.476 -0.763 -0.454 -0.975 -2.512 -2.726 -3.691 -2.051 -3.18 -0.878 -3.37 -0.222 -4.827 0.45 -3.591 1.115 -1.915 1.318 -1.637 2.43 -0.626 2.976 0.272 4.332 1.153 5.614 5.468 16.985 0.276 1.469 1.433 4.818 0.771 0.402 0.845 -0.371" />
    <path class="write-flat-pen" fill="#000000" stroke-width="1.6" __comx="438.125" __comy="665.876" __timestamp="0x175ddf4fc8b" d="M428.16 657.808 l-1.304 1.253 0.464 1.189 18.209 1.842 1.905 0.032 1.912 0.005 0.049 -0.44 -1.867 -0.412 -1.87 -0.385 -17.433 -1.883 0.08 0.318 0.654 -0.732" />
    <path class="write-flat-pen" fill="#000000" stroke-width="1.6" __comx="494.169" __comy="665.876" __timestamp="0x175ddf5007f" d="M494.987 655.855 l1.787 -2.157 0.278 -0.507 1.466 -4.807 -0.13 -0.958 -0.924 -1.478 -2.818 -1.321 -4.988 -0.467 -4.036 0.675 -3.723 1.631 -3.148 2.638 -2.43 3.255 -1.634 3.531 -0.676 3.883 -0.078 4.225 1.054 4.42 2.124 4.282 3.072 3.672 3.886 2.623 2.385 0.966 4.956 0.765 5.296 0.035 4.974 -1.251 4.338 -2.013 3.368 -2.664 2.497 -3.395 1.644 -4.092 0.879 -6.113 -0.306 -3.594 -1.386 -3.342 -2.455 -3.259 -4.23 -4.112 -2.26 -1.311 -1.912 -0.388 -2.334 1.02 -1.866 2.521 -1.364 3.335 -1.225 5.486 -0.324 5.398 0.651 2.944 1.204 2.164 2.048 1.722 4.244 1.412 1.385 0.265 1.397 0.266 2.084 0.347 0.156 -0.524 -1.934 -0.851 -1.358 -0.555 -1.332 -0.351 -3.868 -1.376 -1.602 -1.36 -0.954 -1.718 -0.554 -2.51 0.305 -5.057 1.17 -5.236 1.24 -3.033 1.503 -2.029 1.501 -0.655 1.177 0.239 1.871 1.086 4.007 3.893 2.265 3.004 1.219 2.935 0.271 3.175 -0.826 5.753 -1.5 3.736 -2.256 3.069 -3.059 2.425 -4.039 1.878 -4.641 1.17 -4.987 -0.032 -4.667 -0.721 -2.068 -0.839 -3.571 -2.411 -2.814 -3.365 -1.964 -3.961 -0.968 -4.058 0.072 -3.91 0.621 -3.566 1.482 -3.2 2.226 -2.981 2.84 -2.381 3.343 -1.468 3.65 -0.613 4.528 0.414 2.194 1.001 0.548 0.826 0.06 0.341 -1.121 4.462 -0.146 0.332 -1.466 2.274" />
    <path class="write-flat-pen" fill="#000000" stroke-width="1.6" __comx="524.868" __comy="665.876" __timestamp="0x175ddf50412" d="M516.138 669.562 l-0.753 -0.284 0.003 0.71 0.066 0.29 0.937 4.302 0.172 1.185 0.526 5.603 -0.167 10.598 1.046 1.113 11.549 -2.04 2.646 -1.434 0.691 -0.498 1.517 -1.155 -0.143 -0.264 -1.799 0.634 -0.772 0.291 -2.573 1.072 -10.569 1.755 -0.067 -0.067 0.134 -10.067 -0.582 -5.721 -0.207 -1.284 -1.191 -4.353 -0.126 -0.291 -0.357 -0.583 -0.753 0.488" />
    <path class="write-flat-pen" fill="#000000" stroke-width="1.6" __comx="550.213" __comy="665.876" __timestamp="0x175ddf50659" d="M543.303 641.13 l0.034 -1.462 -0.053 0.096 2.155 -0.981 5.753 -1.591 3.535 -0.374 1.276 0.214 0.473 0.45 0.33 1.236 -0.226 2.045 -2.985 8.518 -0.805 4.42 -0.006 3.526 1.908 4.814 0.517 0.494 0.363 0.366 1.516 1.431 0.176 -0.127 -0.879 -1.89 -0.269 -0.51 -0.317 -0.438 -1.589 -4.4 0.005 -3.135 0.763 -4.184 2.993 -8.569 0.268 -2.469 -0.501 -1.875 -1.073 -1.025 -1.896 -0.321 -3.847 0.417 -5.968 1.732 -2.375 1.287 -0.395 0.462 0.407 1.923" />
    <path class="write-flat-pen" fill="#000000" stroke-width="1.6" __comx="563.003" __comy="665.876" __timestamp="0x175ddf5072e" d="M561.132 673.199 l1.822 1.545 1.633 1.022 0.287 -0.291 -1.072 -1.646 -1.811 -1.617" />
    <path class="write-flat-pen" fill="#000000" stroke-width="1.6" __comx="136.135" __comy="737.958" __timestamp="0x175ddf51f4e" d="M134.731 735.231 l2.134 11.326 0.673 -0.096 -0.371 -0.645 -0.054 0.005 -0.254 0.699 0.673 -0.096 -2.39 -11.275" />
    <path class="write-flat-pen" fill="#000000" stroke-width="1.6" __comx="134.133" __comy="725.993" __timestamp="0x175ddf51ffa" d="M134.514 725.517 l-0.902 0.12 -0.296 0.441 0.454 1.766 1.053 1.335 0.128 -0.077 -0.624 -1.477 -0.288 -1.702 -0.296 0.441 0.888 -0.199" />
    <path class="write-flat-pen" fill="#000000" stroke-width="1.6" __comx="162.115" __comy="734.428" __timestamp="0x175ddf52207" d="M153.691 738.872 l1.589 -0.326 0.508 -0.032 2.162 -0.459 2.167 -1.374 1.842 -1.98 0.902 -2.48 -0.138 -1.69 -1.195 -1.424 -2.431 -0.764 -2.375 0.129 -2.853 1.173 -1.773 2.099 -0.634 2.143 0.098 2.395 0.873 1.987 2 1.957 3.173 1.6 3.358 0.748 4.385 0.192 3.584 -1.178 2.423 -1.889 0.506 -0.902 0.906 -1.734 -0.102 -0.073 -1.353 1.413 -0.606 0.646 -2.305 1.492 -3.214 1.063 -4.074 -0.171 -3.123 -0.687 -2.891 -1.454 -1.719 -1.68 -0.701 -1.59 -0.079 -1.995 0.518 -1.732 1.447 -1.693 2.417 -0.978 1.968 -0.1 1.907 0.595 0.753 0.876 0.109 1.081 -0.696 2.068 -1.55 1.79 -1.875 1.327 -1.936 0.585 -0.526 0.1 -1.494 0.788" />
    <path class="write-flat-pen" fill="#000000" stroke-width="1.6" __comx="262.194" __comy="742.472" __timestamp="0x175ddf52561" d="M252.88 732.904 l0.116 5.011 0 -0.004 2.939 18.11 0 0 1.244 -0.12 -0.005 -0.545 -1.171 -6.716 -5.708 -19.309 -0.754 -3.922 0.72 -0.507 23.702 0.154 0.217 -0.011 2.181 -0.156 0.037 -0.296 -2.074 -0.692 -0.277 -0.073 -24.237 -0.352 -1.819 1.321 0.985 4.86 5.749 19.285 1.185 6.539 0.017 0.447 1.244 -0.12 0 0 -3.245 -18.002 0 -0.004 -0.385 -4.932" />
    <path class="write-flat-pen" fill="#000000" stroke-width="1.6" __comx="265.454" __comy="742.472" __timestamp="0x175ddf5264a" d="M253.667 739.839 l3.039 0.837 1.249 0.127 17.021 0.586 2.267 -0.56 -0.024 -0.351 -2.262 -0.248 -16.935 -0.577 -1.154 -0.068 -3.043 -0.474" />
    <path class="write-flat-pen" fill="#000000" stroke-width="1.6" __comx="266.921" __comy="742.472" __timestamp="0x175ddf52751" d="M252.925 756.954 l-0.335 1.495 0.905 0.949 3.594 0.811 22.071 -2.586 2.091 -0.418 -0.015 -0.26 -2.148 -0.175 -21.947 2.255 -3.165 -0.552 -0.438 -0.333 0.124 -1.052" />
    <path class="write-flat-pen" fill="#000000" stroke-width="1.6" __comx="291.219" __comy="742.472" __timestamp="0x175ddf52a0d" d="M294.042 722.249 l-0.469 -1.673 -0.704 0.411 -0.095 -0.022 -0.098 0.802 -0.229 0.779 -1.307 3.945 -4.97 10.432 -1.671 4.54 -0.936 4.513 -0.284 4.329 0.554 4.32 1.517 3.921 2.288 3.609 2.606 2.834 4.035 2.723 1.424 0.421 1.398 0.137 1.981 0.148 0.074 -0.358 -1.877 -0.651 -1.263 -0.414 -1.136 -0.468 -3.69 -2.625 -2.409 -2.625 -2.144 -3.381 -1.405 -3.627 -0.515 -4.009 0.277 -4.09 0.896 -4.311 1.605 -4.381 4.944 -10.477 1.244 -4.109 0.209 -1.006 -0.188 -1.263 -0.186 -0.14 -0.704 0.411 0.868 1.505" />
    <path class="write-flat-pen" fill="#000000" stroke-width="1.6" __comx="315.045" __comy="742.472" __timestamp="0x175ddf52b7b" d="M308.142 726.445 l-1.068 -0.157 0.569 3.349 0.125 1.054 0.212 15.348 0.471 3.598 1.516 4.906 2.058 4.077 2.398 2.83 2.899 1.215 3.392 -0.663 0.474 -0.245 1.828 -1.034 -0.134 -0.356 -2.056 0.428 -0.409 0.088 -2.921 0.353 -2.215 -0.952 -2.074 -2.447 -1.934 -3.821 -1.446 -4.679 -0.442 -3.401 -0.333 -15.339 -0.164 -1.177 -0.898 -3.333 -0.714 0.711" />
    <path class="write-flat-pen" fill="#000000" stroke-width="1.6" __comx="308.285" __comy="742.472" __timestamp="0x175ddf52c6a" d="M294.292 741.616 l0.42 1.387 3.725 1.056 6.077 0.32 6.335 -0.557 8.681 -2.567 0.998 -0.595 1.75 -1.092 -0.136 -0.293 -1.964 0.631 -1.023 0.342 -8.538 2.325 -6.129 0.557 -5.866 -0.265 -3.071 -0.759 -0.319 -0.809" />
    <path class="write-flat-pen" fill="#000000" stroke-width="1.6" __comx="330.029" __comy="742.472" __timestamp="0x175ddf52d9a" d="M321.675 717.719 l7.46 9.301 1.191 1.786 3.259 5.771 1.756 4.489 1.271 4.972 0.405 5.097 -0.389 4.746 -1.135 4.085 -1.738 3.551 -2.97 3.64 -0.675 0.642 -0.555 0.442 -1.554 1.269 0.137 0.228 1.847 -0.783 0.716 -0.325 0.888 -0.66 3.289 -3.715 1.882 -3.806 1.204 -4.329 0.418 -4.982 -0.417 -5.325 -1.33 -5.165 -1.834 -4.652 -3.362 -5.88 -1.268 -1.869 -7.745 -9.147" />
    <path class="write-flat-pen" fill="#000000" stroke-width="1.6" __comx="364.809" __comy="742.472" __timestamp="0x175ddf52f39" d="M354.455 732.286 l4.058 0.587 13.328 -0.264 1.288 -0.242 2.032 -0.413 -0.033 -0.376 -2.073 -0.051 -1.271 -0.016 -13.209 0.122 -4.005 -0.348" />
    <path class="write-flat-pen" fill="#000000" stroke-width="1.6" __comx="371.038" __comy="742.472" __timestamp="0x175ddf5301d" d="M358.252 737.8 l0.313 1.423 12.714 0.12 6.661 0.704 2.604 -0.034 1.429 -0.123 1.846 -0.181 0.004 -0.314 -1.841 -0.231 -1.418 -0.163 -2.539 -0.173 -6.67 -0.821 -11.913 0.078 -0.205 -0.545" />
    <path class="write-flat-pen" fill="#000000" stroke-width="1.6" __comx="433.567" __comy="742.472" __timestamp="0x175ddf53294" d="M428.09 756.767 l-0.424 -1.102 -0.129 -0.352 -1.98 -5.461 -0.391 -1.176 -3.341 -11.202 -0.881 -5.185 -0.028 -6.713 0.986 -4.444 1.588 -3.899 1.044 -1.345 1.126 -0.623 1.743 -0.276 3.573 0.55 7.07 1.984 3.056 1.459 2.57 2.01 1.219 1.611 1.081 2.742 0.234 0.674 0.207 0.477 0.973 2.021 0.32 -0.091 -0.239 -2.23 -0.073 -0.507 -0.152 -0.748 -1.039 -3.05 -1.456 -1.952 -2.853 -2.235 -3.319 -1.587 -7.281 -2.044 -3.894 -0.601 -2.235 0.354 -1.626 0.9 -1.359 1.752 -1.711 4.208 -1.043 4.732 0.045 7 0.926 5.39 3.41 11.302 0.425 1.222 2.227 5.436 0.216 0.396 0.725 0.981" />
    <path class="write-flat-pen" fill="#000000" stroke-width="1.6" __comx="425.326" __comy="742.472" __timestamp="0x175ddf53399" d="M412.278 739.082 l-0.922 0.511 0 0 0.268 0.994 4.006 0.225 1.931 -0.153 18.008 -0.547 1.762 -0.22 1.965 -0.271 -0.018 -0.514 -1.979 -0.136 -1.768 -0.099 -18.045 0.426 -1.897 0.167 -3.941 0.049 0.268 0.994 0 0 0.876 -0.587" />
    <path class="write-flat-pen" fill="#000000" stroke-width="1.6" __comx="460.392" __comy="742.472" __timestamp="0x175ddf535af" d="M465.545 719.21 l-0.957 -0.555 -0.779 0.46 -2.895 2.538 -2.858 4.231 -2.478 5.813 -1.006 4.456 -0.406 6.759 0.77 4.427 1.563 4.19 2.115 3.664 3.677 4.181 1.206 0.98 1.176 0.768 1.687 1.072 0.255 -0.32 -1.42 -1.407 -0.987 -0.959 -1.032 -1.004 -3.423 -4.116 -1.978 -3.458 -1.463 -3.962 -0.708 -4.135 0.39 -6.478 0.95 -4.217 2.366 -5.574 2.663 -4.002 2.584 -2.504 0.177 -0.191 0.56 0.012" />
    <path class="write-flat-pen" fill="#000000" stroke-width="1.6" __comx="483.195" __comy="742.472" __timestamp="0x175ddf53843" d="M482.709 732.103 l0.475 -2.953 0.03 -0.173 -0.158 -1.218 -1.594 -0.886 -2.805 0.454 -2.414 1.049 -2.363 1.811 -2.075 2.817 -1.49 3.515 -0.888 5.396 0.009 5.705 1.066 3.913 1.709 3.487 2.39 3.026 2.873 2.371 3.222 1.418 3.437 0.559 3.447 -0.348 3.155 -1.355 2.611 -2.162 1.977 -3.13 1.127 -3.84 0.516 -6.348 -0.254 -4.196 -1.02 -4.066 -1.729 -3.705 -2.536 -3.375 -4.083 -3.592 -2.069 -0.84 -2.027 -0.046 -2.052 1.307 -2.137 3.948 -0.991 4.77 -0.098 3.248 0.714 3.121 1.913 4.017 1.928 2.313 3.393 2.477 3.256 1.225 1.018 0.174 2.173 0.299 0.12 -0.416 -2.001 -0.899 -0.892 -0.374 -2.963 -1.286 -3.09 -2.277 -1.684 -2.039 -1.753 -3.706 -0.636 -2.775 0.089 -2.926 0.92 -4.427 1.849 -3.414 1.342 -0.854 1.299 0.029 1.58 0.641 3.78 3.321 2.352 3.127 1.604 3.434 0.955 3.794 0.249 3.954 -0.478 6.095 -1.028 3.5 -1.744 2.762 -2.27 1.882 -2.758 1.185 -3.034 0.309 -3.066 -0.496 -2.87 -1.262 -2.598 -2.145 -2.197 -2.785 -1.576 -3.224 -0.966 -3.595 0.003 -5.39 0.837 -5.103 1.354 -3.193 1.848 -2.511 2.053 -1.579 2.082 -0.919 2.154 -0.393 0.641 0.285 0.118 0.377 0.005 0.011 -0.121 3.01" />
    <path class="write-flat-pen" fill="#000000" stroke-width="1.6" __comx="510.983" __comy="742.472" __timestamp="0x175ddf53a3e" d="M505.271 751.569 l-0.624 -0.886 0 0 -0.948 0.263 -0.687 4.591 -0.039 0.806 -0.321 6.601 0.412 1.619 1.629 1.073 6.21 -1.42 3.799 -0.268 1.854 -0.432 0.828 -0.163 1.931 -0.424 -0.011 -0.174 -1.968 -0.187 -0.891 -0.058 -1.877 0.162 -3.864 0.115 -5.737 1.314 -0.66 -0.428 -0.229 -0.877 0.257 -6.394 0.025 -0.758 0.392 -4.574 -0.948 0.263 0 0 0.701 0.826" />
    <path class="write-flat-pen" fill="#000000" stroke-width="1.6" __comx="533.234" __comy="742.472" __timestamp="0x175ddf53ca4" d="M532.503 727.458 l0.055 -0.31 0.205 -0.228 -0.833 -0.291 -0.086 0.065 -0.813 1.251 -0.44 0.777 -1.141 3.102 -0.983 5.442 -0.25 8.61 0.502 4.127 1.042 3.473 3.108 4.775 1.095 0.735 1.182 0.406 1.19 0.155 1.883 0.205 0.033 -0.134 -1.765 -0.686 -1.056 -0.393 -0.923 -0.494 -0.73 -0.632 -2.75 -4.513 -0.95 -3.18 -0.46 -3.907 0.265 -8.401 0.92 -5.231 1.004 -2.925 0.354 -0.719 0.516 -1.298 -0.017 -0.019 -0.833 -0.291 0.209 0.224 -0.045 0.205" />
    <path class="write-flat-pen" fill="#000000" stroke-width="1.6" __comx="559.502" __comy="742.472" __timestamp="0x175ddf54001" d="M556.386 731.579 l-0.809 -1.476 0.029 -2.478 0.026 -0.18 -0.017 -0.361 -1.02 -0.124 -0.126 0.781 -0.519 7.151 -1.376 10.253 -0.044 4.755 0.965 3.01 1.898 2.069 3.211 0.983 3.336 -0.275 3.018 -1.708 0.372 -0.49 1.145 -1.704 -0.125 -0.122 -1.682 1.177 -0.362 0.258 -2.741 1.282 -2.813 0.228 -2.617 -0.801 -1.452 -1.585 -0.81 -2.524 0.055 -4.456 1.374 -10.22 0.35 -7.173 -0.053 0.197 -0.738 -0.136 -0.017 -0.361 0.041 0.122 0.436 2.51 0.868 1.509" />
    <path class="write-flat-pen" fill="#000000" stroke-width="1.6" __comx="556.601" __comy="742.472" __timestamp="0x175ddf54135" d="M543.884 740.067 l5.287 1.863 5.308 0.882 5.476 0.242 6.627 -0.839 0.94 -0.449 1.796 -0.912 -0.075 -0.213 -1.973 0.406 -0.91 0.198 -6.446 0.621 -5.313 -0.238 -5.153 -0.84 -5.284 -1.582" />
    <path class="write-flat-pen" fill="#000000" stroke-width="1.6" __comx="577.167" __comy="742.472" __timestamp="0x175ddf543e1" d="M572.215 726.762 l0.651 -0.581 0.617 0.092 2.111 1.485 2.84 3.261 1.762 3.258 0.763 2.459 0.341 4.527 -0.462 3.288 -1.611 4.491 -2.642 4.3 -0.847 1.213 -0.846 1.134 -1.107 1.515 0.102 0.092 1.398 -1.252 1.061 -0.974 1.035 -1.157 2.941 -4.327 1.731 -4.732 0.504 -3.55 -0.375 -4.802 -0.85 -2.705 -1.905 -3.473 -3.083 -3.43 -2.563 -1.585 -1.278 0.062 -0.723 1.015" />
    <path class="write-flat-pen" fill="#000000" stroke-width="1.6" __comx="585.997" __comy="742.472" __timestamp="0x175ddf54912" d="M583.18 714.201 l2.104 -1.185 0.392 -0.166 1.02 -0.242 1.101 0.322 0.947 0.904 1.787 3.548 1.04 3.644 1.003 6.5 0.119 6.499 -0.578 4.714 -1.928 7.11 -2.902 7.21 -4.976 8.734 -1.252 1.787 -2.084 3.024 -0.946 1.431 0.1 0.078 1.153 -1.27 2.407 -2.782 1.4 -1.749 5.293 -8.712 3.009 -7.346 1.977 -7.271 0.598 -4.893 -0.127 -6.674 -1.036 -6.662 -1.109 -3.833 -1.986 -3.824 -1.359 -1.204 -1.684 -0.361 -1.332 0.47 -0.484 0.282 -1.918 1.553" />
    <path class="write-flat-pen" fill="#000000" stroke-width="1.6" __comx="631.627" __comy="716.03" __timestamp="0x175ddf5676b" d="M625.594 717.78 l0.236 -2.679 0.024 -0.025 0.907 -1.026 1.52 -0.793 2.535 -0.554 2.63 0.223 1.991 0.88 0.81 0.936 0.694 2.121 -0.149 2.544 -1.899 7.51 0.337 3.2 0.276 0.303 1.433 1.273 0.1 -0.073 -0.765 -1.758 -0.027 -0.114 -0.059 -2.716 1.834 -7.441 0.14 -2.895 -0.874 -2.553 -1.146 -1.298 -2.408 -1.058 -3.005 -0.236 -2.838 0.711 -1.754 1.066 -0.944 1.352 -0.103 0.264 0.248 2.835" />
    <path class="write-flat-pen" fill="#000000" stroke-width="1.6" __comx="646.146" __comy="746.395" __timestamp="0x175ddf5682c" d="M642.386 746.997 l3.045 0.407 2.761 -0.888 1.713 -0.629 -0.025 -0.109 -1.821 0.189 -2.697 0.501 -2.901 -0.203" />
    <path class="write-flat-pen" fill="#000000" stroke-width="1.6" __comx="124.775" __comy="824.094" __timestamp="0x175ddf56d64" d="M131.411 807.095 l2.163 -2.652 5.007 -4.57 4.817 -3.115 0.385 -0.553 0.216 -1.236 -0.651 -1.453 -3.168 -2.113 -4.463 -0.662 -5.923 0.204 -7.179 1.726 -7.518 3.325 -6.486 5.368 -2.612 3.281 -2.108 3.628 -3.036 7.814 -1.078 4.174 -0.835 7.919 -0.053 3.723 1.422 6.469 2.599 4.649 4.11 3.243 2.973 1.222 6.388 1.064 6.84 0.014 6.864 -1.294 6.262 -2.041 5.584 -2.633 5.774 -3.876 1.034 -0.938 0.652 -0.662 1.266 -1.311 -0.039 -0.046 -1.507 1.025 -0.756 0.524 -1.108 0.765 -5.858 3.53 -5.475 2.519 -6.126 1.973 -6.678 1.238 -6.626 -0.027 -6.167 -0.984 -2.716 -1.073 -3.857 -2.951 -2.446 -4.31 -1.426 -6.192 0.033 -3.563 0.828 -7.802 1.055 -4.047 2.98 -7.693 2.025 -3.504 2.537 -3.113 6.339 -5.149 7.302 -3.199 6.973 -1.682 5.712 -0.219 4.137 0.593 2.778 1.775 0.495 0.923 -0.046 0.813 -0.159 0.32 -4.421 3.448 -4.906 4.705 -2.154 2.664" />
    <path class="write-flat-pen" fill="#000000" stroke-width="1.6" __comx="160.376" __comy="824.094" __timestamp="0x175ddf56f57" d="M164.82 834.509 l-0.145 -4.863 -0.09 -0.798 -0.923 -2.815 -1.168 -1.363 -2.159 -1.231 -2.855 -0.273 -2.59 1.017 -2.032 2.112 -1.704 3.414 -0.952 3.622 -0.115 2.931 0.558 2.553 1.12 1.926 2.31 1.47 2.246 0.402 2.918 -0.749 2.666 -1.714 1.964 -2.243 3.439 -5.715 0 0 0.488 -0.188 -0.766 -0.472 0.639 6.612 1.22 2.1 0.475 0.059 1.282 -0.039 0.019 -0.072 -1.09 -0.677 -0.037 -0.078 -0.711 -1.638 -0.671 -6.381 -0.766 -0.472 -0.852 0.326 0 0 -3.613 5.944 -1.795 2.037 -2.365 1.533 -2.492 0.654 -1.781 -0.31 -1.9 -1.191 -0.918 -1.532 -0.532 -2.245 0.07 -2.684 0.874 -3.421 1.559 -3.207 1.782 -1.856 2.188 -0.84 2.425 0.222 1.855 1.028 0.969 1.092 0.946 2.541 0.121 0.692 0.605 4.803" />
    <path class="write-flat-pen" fill="#000000" stroke-width="1.6" __comx="185.605" __comy="824.094" __timestamp="0x175ddf570b7" d="M177.154 831.322 l0.048 1.922 0.007 0.677 -0.026 4.482 0 0 0.558 0.487 0 0 0.924 -0.284 2.34 -7.754 2.265 -5.385 1.585 -2.316 1.584 -0.986 1.519 -0.331 0.813 0.352 1.068 1.895 0.949 8.491 1.29 2.611 1.798 0.993 0.179 -0.211 -1.086 -1.451 -0.903 -2.295 -1.049 -8.529 -1.424 -2.434 -1.524 -0.635 -2.071 0.461 -1.957 1.218 -1.786 2.612 -2.351 5.543 -2.355 7.815 0.924 -0.284 0 0 -0.194 -0.122 0 0 -0.247 -3.98 -0.085 -0.717 -0.49 -1.887" />
    <path class="write-flat-pen" fill="#000000" stroke-width="1.6" __comx="250.503" __comy="824.094" __timestamp="0x175ddf57474" d="M230.558 799.898 l-0.177 -0.176 -0.662 -0.787 -0.525 0.056 -0.534 0.639 3.416 11.446 0.57 2.365 1.852 12.847 0.502 7.585 0 0 0.461 1.217 0 0 1.36 -0.202 0.524 -7.083 0.705 -2.86 1.15 -2.136 1.388 -1.02 3.206 -0.657 3.41 0.079 1.112 0.395 1.009 1.122 0.48 1.713 -0.629 2.131 -1.545 2.204 -2.304 1.573 0 0 -2.234 0.799 0 0 -0.426 -0.162 0 0 -0.057 1.35 8.753 -2.536 6.604 -2.632 3.106 -1.851 1.684 -1.894 0.796 -1.856 -0.18 -1.58 -1.84 -1.392 -1.93 -0.322 -1.978 0.566 -1.617 1.456 -1.022 2.384 -0.644 4.151 0.244 2.634 0.867 2.078 1.395 1.456 1.78 0.851 2.177 0.245 2.68 -0.682 4.196 -2.61 1.051 -0.885 1.004 -0.819 1.026 -0.8 1.583 -1.278 -0.134 -0.217 -1.85 0.846 -1.202 0.578 -1.15 0.708 -1.086 0.754 -4.013 2.346 -2.208 0.563 -1.664 -0.183 -1.317 -0.625 -1.023 -1.063 -0.678 -1.62 -0.208 -2.232 0.587 -3.791 0.824 -1.919 1.129 -1.013 1.336 -0.381 1.248 0.211 1.049 0.797 0.065 0.568 -0.547 1.28 -1.374 1.549 -2.809 1.681 -6.426 2.578 -8.681 2.531 -0.057 1.35 0 0 0.919 0.355 0 0 2.908 -1.035 0 0 2.675 -1.821 1.832 -2.61 0.813 -2.754 -0.684 -2.437 -1.482 -1.638 -1.672 -0.589 -3.799 -0.079 -3.667 0.754 -1.894 1.395 -1.385 2.574 -0.777 3.15 -0.528 7.202 1.36 -0.202 0 0 -0.4 -1.014 0 0 -0.52 -7.427 -1.972 -12.946 -0.627 -2.452 -3.633 -10.982 0.14 -0.401 -0.525 0.056 0.789 0.659 0.177 0.176" />
    <path class="write-flat-pen" fill="#000000" stroke-width="1.6" __comx="307.264" __comy="824.094" __timestamp="0x175ddf577c6" d="M309.31 824.585 l2.108 -0.146 0.306 -0.178 1.345 -1.339 0.275 -0.605 0.053 -1.365 -1.172 -1.389 -2.467 -0.755 -5.304 0.414 -4.207 1.095 -2.003 1.286 -1.39 1.977 -0.955 2.662 -0.277 3.094 0.668 3.112 1.268 2.657 1.968 2.215 2.339 1.249 2.55 0.383 3.218 -1.053 2.793 -1.892 2.127 -2.498 1.466 -2.886 1.08 -3.75 0 0 0.194 -2.578 0 0 -1.486 -0.064 -0.047 4.745 0.708 3.673 1.751 2.868 0.633 0.316 1.898 0.755 0.155 -0.235 -1.443 -1.447 -0.285 -0.288 -1.307 -2.487 -0.624 -3.289 0.048 -4.597 -1.486 -0.064 0 0 -0.183 2.425 0 0 -0.998 3.467 -1.322 2.603 -1.881 2.212 -2.453 1.664 -2.686 0.881 -1.951 -0.292 -1.881 -1.004 -1.654 -1.861 -1.105 -2.311 -0.584 -2.723 0.241 -2.682 0.825 -2.295 1.11 -1.574 1.56 -1 3.852 -1.001 4.898 -0.396 1.818 0.524 0.615 0.645 0.053 0.608 -0.056 0.219 -0.903 1.293 -0.029 0.043 -1.86 0.53" />
    <path class="write-flat-pen" fill="#000000" stroke-width="1.6" __comx="333.264" __comy="824.094" __timestamp="0x175ddf578ce" d="M324.276 834.547 l0.031 1.094 1.246 -0.034 0.072 -0.383 0.194 -8.767 0.026 -1.145 0.548 -2.746 1.122 -1.698 2.019 -1.09 6.409 -0.964 1.46 -0.171 1.55 -0.234 1.323 -0.288 1.978 -0.465 -0.037 -0.333 -2.032 -0.023 -1.346 0.007 -1.548 0.062 -1.499 0.063 -6.743 0.867 -2.602 1.403 -1.496 2.274 -0.621 3.174 -0.022 1.285 0.001 8.711 -0.005 0.326 1.246 -0.034 -0.322 -1.046" />
    <path class="write-flat-pen" fill="#000000" stroke-width="1.6" __comx="350.041" __comy="824.094" __timestamp="0x175ddf57ad6" d="M340.846 805.384 l0.366 -0.183 0.526 0.728 2.574 6.746 0 0 1.819 7.862 0 0 1.63 13.243 0 0 1.515 -0.122 -0.159 -4.386 1.59 -5.21 1.167 -2.165 0.972 -0.829 1.112 -0.253 0.966 0.488 1.22 1.397 1.327 2.714 0.832 3.847 -0.149 2.581 -1.129 1.988 -1.144 0.803 -2.586 0.76 -1.861 -0.125 -2.041 -0.962 -0.833 -1.235 -0.049 -0.01 0.224 -0.546 0.584 -1.586 -0.302 -0.198 -1.221 1.168 -0.49 0.543 -0.356 0.788 1.389 2.27 2.704 1.275 2.422 0.164 3.09 -0.908 1.631 -1.146 1.473 -2.599 0.18 -3.145 -0.915 -4.231 -1.498 -3.062 -1.548 -1.774 -1.723 -0.871 -2.016 0.459 -1.477 1.258 -1.374 2.552 -1.71 5.601 0.177 4.643 1.515 -0.122 0 0 -1.682 -13.316 0 0 -1.904 -8.028 0 0 -2.808 -7.003 -1.48 -1.615 -1.155 0.921" />
    <path class="write-flat-pen" fill="#000000" stroke-width="1.6" __comx="368.032" __comy="824.094" __timestamp="0x175ddf57b9d" d="M367.558 823.015 l-0.3 8.68 1.3 0.249 0.089 -0.666 -0.039 -0.935 -0.108 -1.41 -0.237 -0.027 -0.417 1.351 -0.23 0.779 -0.317 0.449 1.3 0.249 0.208 -8.683" />
    <path class="write-flat-pen" fill="#000000" stroke-width="1.6" __comx="369.043" __comy="824.094" __timestamp="0x175ddf57c21" d="M367.608 810.594 l0.663 -0.308 0.919 0.454 1.571 0.796 0.225 -0.305 -1.257 -1.293 -1.438 -0.985 -1.192 0.748" />
    <path class="write-flat-pen" fill="#000000" stroke-width="1.6" __comx="394.539" __comy="824.094" __timestamp="0x175ddf57d51" d="M386.159 800.257 l-0.58 3.658 -0.629 22.069 0.316 8.144 1.11 3.795 1.029 1.638 1.638 1.134 2.187 0.595 2.683 -0.142 4.393 -1.561 3.227 -2.589 1.549 -1.97 0.404 -1.023 0.643 -1.724 -0.217 -0.113 -1.05 1.511 -0.559 0.816 -1.591 1.621 -3.094 2.187 -3.995 1.373 -2.233 0.116 -1.71 -0.466 -1.179 -0.815 -0.759 -1.204 -1.004 -3.42 -0.317 -7.913 0.528 -21.944 0.462 -3.594" />
    <path class="write-flat-pen" fill="#000000" stroke-width="1.6" __comx="389.597" __comy="824.094" __timestamp="0x175ddf57e23" d="M377.486 817.445 l-0.166 1.682 2.487 1.126 4.891 0.485 5.336 -0.146 9.216 -2.312 0.846 -0.532 1.78 -1.209 -0.173 -0.357 -2.051 0.648 -0.82 0.276 -8.988 2.039 -5.098 0.15 -4.594 -0.403 -1.519 -0.576 -0.009 -0.8" />
    <path class="write-flat-pen" fill="#000000" stroke-width="1.6" __comx="412.251" __comy="824.094" __timestamp="0x175ddf57f95" d="M406.741 819.79 l-0.491 8.059 0 0 0.032 1.067 0 0 0.108 5.436 0 0 1.453 -0.124 -1 -7.436 -0.253 -7.716 0.423 -2.544 1.144 -2.628 0.742 -0.817 1.303 -0.601 1.268 0.137 1.554 0.824 2.954 2.648 0.719 0.601 0.688 0.505 1.824 1.25 0.231 -0.245 -1.36 -1.743 -0.543 -0.653 -0.636 -0.691 -2.987 -2.914 -1.985 -1.067 -1.982 -0.217 -1.97 0.907 -1.121 1.234 -1.317 3.033 -0.476 2.88 0.266 7.946 1.067 7.507 1.453 -0.124 0 0 -0.248 -5.437 0 0 -0.054 -1.017 0 0 0.186 -8.018" />
    <path class="write-flat-pen" fill="#000000" stroke-width="1.6" __comx="423.791" __comy="824.094" __timestamp="0x175ddf58175" d="M426.472 824.499 l1.632 -1.45 0.122 -0.447 -0.168 -1.009 -1.384 -0.934 -2.727 -0.303 -2.518 0.378 -2.987 1.373 -2.028 2.624 -0.835 3.217 0.122 3.196 1.206 2.883 1.146 1.322 2.55 1.162 2.156 -0.303 1.926 -1.268 0 0 1.392 -2.001 0 0 1.782 -7.1 0 0 -1.48 -0.124 0.406 5.184 0.778 2.922 1.676 2.332 0.615 0.269 1.991 0.651 0.155 -0.265 -1.549 -1.411 -0.273 -0.249 -1.233 -1.956 -0.67 -2.546 -0.395 -5.048 -1.48 -0.124 0 0 -1.713 6.834 0 0 -1.07 1.537 0 0 -1.402 0.922 -1.387 0.194 -1.852 -0.845 -0.773 -0.893 -1.007 -2.409 -0.103 -2.703 0.701 -2.705 1.612 -2.089 2.457 -1.136 2.119 -0.329 2.202 0.206 0.66 0.373 0.077 0.151 0.052 -0.157 -1.162 1.434" />
    <path class="write-flat-pen" fill="#000000" stroke-width="1.6" __comx="438.085" __comy="824.094" __timestamp="0x175ddf58248" d="M432.938 817.409 l0.522 0.732 0.211 0.288 0.21 0.368 0.445 0.66 0.412 0.654 0.489 0.866 0.498 0.885 0.58 1.039 0.57 1.001 0.593 0.97 0.575 0.933 0.582 0.939 0.572 0.899 0.513 0.738 0.473 0.705 0.255 0.428 0.13 0.208 0.213 0.374 1.342 2.378 1.106 -0.59 -1.228 -2.439 -0.211 -0.421 -0.14 -0.237 -0.267 -0.457 -0.501 -0.75 -0.504 -0.725 -0.553 -0.867 -0.579 -0.93 -0.577 -0.929 -0.586 -0.947 -0.566 -0.974 -0.592 -1.031 -0.516 -0.883 -0.53 -0.889 -0.469 -0.69 -0.467 -0.626 -0.256 -0.382 -0.268 -0.308 -0.529 -0.695" />
    <path class="write-flat-pen" fill="#000000" stroke-width="1.6" __comx="443.928" __comy="824.094" __timestamp="0x175ddf58493" d="M435.65 819.821 l-0.935 1.858 -0.029 1.011 0.745 4.09 4.112 13.265 0 0 1.12 1.915 0 0 1.165 0.157 0.61 -0.585 -0.277 -10.825 0.468 -3.902 1.049 -3.216 1.3 -2.273 1.435 -1.349 2.312 -0.844 0.703 -0.069 0.798 0.07 0.79 0.046 2.109 0.064 0.044 -0.23 -1.986 -0.712 -0.758 -0.247 -0.9 -0.233 -1.032 -0.032 -2.86 0.875 -1.853 1.714 -1.495 2.604 -1.146 3.505 -0.499 4.16 0.275 10.275 -0.129 0.132 1.165 0.157 0 0 -1.048 -1.759 0 0 -4.121 -13.003 -0.809 -3.869 -0.022 -0.637 0.582 -1.738" />
    <path class="write-flat-pen" fill="#000000" stroke-width="1.6" __comx="462.422" __comy="824.094" __timestamp="0x175ddf5865e" d="M456.757 818.452 l3.091 7.593 4.887 9.086 2.031 2.212 1.281 -0.25 0.039 -0.299 -0.738 -0.512 -1.445 -1.943 -4.811 -8.893 -3.282 -7.441" />
    <path class="write-flat-pen" fill="#000000" stroke-width="1.6" __comx="466.053" __comy="831.572" __timestamp="0x175ddf58744" d="M474.129 818.348 l-2.356 7.55 -11.041 27.792 -3.393 13.592 -0.506 3.338 -0.159 2.886 0.019 2.65 0.02 1.54 0.377 0.028 0.245 -1.521 0.405 -2.609 0.359 -2.809 0.599 -3.216 3.455 -13.418 11.001 -27.768 2.278 -7.636" />
    <path class="write-flat-pen" fill="#000000" stroke-width="1.6" __comx="492.37" __comy="837.463" __timestamp="0x175ddf58a6f" d="M492.233 835.767 l-1.194 7.017 0.587 1.218 0.785 -0.191 0.03 -1.07 1.259 -6.711" />
    <path class="write-flat-pen" fill="#000000" stroke-width="1.6" __comx="410.656" __comy="63.694" __timestamp="0x175ddfcecc0" d="M387.623 65.714 l0.043 0.328 0.17 10.856 0 0 1.102 -0.128 -0.075 -0.418 -1.388 -14.755 -0.762 -3.559 -2.817 -7.006 0.111 -0.985 1.321 -1.247 1.635 -0.8 3.836 -0.747 5.05 -0.063 3.248 0.84 3.074 1.417 2.572 1.863 1.914 2.212 1.228 2.759 0.631 3.465 -0.071 3.912 -1.085 3.885 -1.99 3.671 -2.588 3.003 -2.84 2.205 -2.78 1.286 -3.29 0.711 -2.13 -0.063 -0.983 -0.707 -0.283 -0.673 0.108 -0.687 1.058 -1.132 2.274 -0.878 9.704 -1.286 6.969 -2.027 5.376 -2.303 2.383 -1.758 1.405 -2.12 0.293 -2.108 -0.82 -1.325 -1.687 -0.734 -1.75 0.041 -2.364 1.088 -1.225 1.478 -0.985 2.602 -0.109 3.207 0.676 2.125 2.059 2.789 1.78 1.429 2.882 1.176 2.26 0.313 2.17 -0.501 1.918 -1.246 1.929 -2.854 0.731 -2.912 -0.003 -2.372 -0.542 -1.487 0 0 -1.322 -1.217 -0.96 -0.205 0 0 -0.528 0.637 1.761 5.38 0.128 0.609 0.311 2.455 0 0 -0.092 0.066 0 0 1.203 0.447 -0.174 -2.814 0.366 -1.793 1.228 -2.184 1.53 -1.552 1.302 -0.609 1.573 0.101 1.085 0.752 1.531 2.367 0.969 3.924 0 0 0.399 4.014 -0.035 0.062 0 0 1.12 0.227 -0.556 -1.073 -0.276 -0.32 -1.08 -1.135 -0.326 0.199 0.511 1.481 0.111 0.317 0.343 1.067 1.12 0.227 0 0 0.553 -0.512 -0.486 -4.797 0 0 -1.084 -4.236 -1.8 -2.789 -1.624 -1.127 -2.309 -0.151 -1.848 0.863 -1.836 1.86 -1.426 2.533 -0.455 2.185 0.177 3 1.203 0.447 0 0 0.53 -0.573 0 0 -0.481 -3.162 -0.18 -0.73 -2.075 -5.347 -0.528 0.637 0 0 0.719 0.06 0.964 0.901 0 0 0.369 1.141 -0.118 2.07 -0.821 2.53 -1.765 2.38 -1.503 0.935 -1.678 0.374 -1.823 -0.255 -2.524 -1.029 -1.476 -1.181 -1.823 -2.445 -0.55 -1.666 0.086 -2.734 0.824 -2.17 0.876 -1.058 1.816 -0.838 1.158 -0.028 1.012 0.439 0.332 0.534 -0.178 1.306 -1.095 1.659 -2.056 1.522 -5.159 2.185 -6.795 1.94 -9.768 1.291 -2.738 1.057 -1.582 1.692 -0.239 1.522 0.597 1.42 1.667 1.195 2.74 0.077 3.613 -0.783 3.069 -1.423 3.077 -2.397 2.761 -3.24 2.11 -3.949 1.17 -4.199 0.081 -4.221 -0.685 -3.761 -1.376 -3.094 -2.15 -2.486 -2.809 -2.036 -3.308 -1.524 -3.544 -0.917 -5.357 0.065 -4.136 0.805 -1.986 0.977 -1.826 1.753 -0.155 1.815 3.027 7.16 0.752 3.383 1.41 14.742 0.103 0.471 1.102 -0.128 0 0 -0.556 -10.843 -0.048 -0.394" />
    <path class="write-flat-pen" fill="#000000" stroke-width="1.6" __comx="448.55" __comy="63.694" __timestamp="0x175ddfcee6e" d="M447.353 59.973 l1.722 -2.041 -0.083 -0.724 -0.979 -1.063 -1.787 -0.439 -1.624 0.378 -0.82 1.176 0.176 1.52 1.205 1.609 5.615 2.979 1.215 1.05 0.942 1.999 0.002 1.332 -1.037 2.311 -1.917 2.121 -2.309 1.487 -1.639 0.472 -1.12 -0.283 -0.729 -0.917 -0.274 -2.178 0.03 -0.35 0.189 -2.024 -0.251 -0.069 -0.878 1.833 -0.204 0.495 0.051 2.799 1.258 1.646 1.953 0.493 2.198 -0.634 2.634 -1.702 2.182 -2.427 1.227 -2.79 -0.029 -1.922 -1.197 -2.514 -1.54 -1.332 -5.487 -2.91 -0.815 -1.083 -0.082 -0.669 0.243 -0.361 0.839 -0.215 1.165 0.234 0.56 0.474 0.018 -0.072 -1.192 1.891" />
    <path class="write-flat-pen" fill="#000000" stroke-width="1.6" __comx="456.813" __comy="63.694" __timestamp="0x175ddfcef2f" d="M456.236 67.171 l-0.062 6.014 0 0 1.278 -0.073 -0.246 -1.228 -0.223 -1.118 -0.347 -1.616 -0.285 0.02 -0.117 1.649 -0.062 1.154 0.006 1.268 1.278 -0.073 0 0 -0.226 -6.01" />
    <path class="write-flat-pen" fill="#000000" stroke-width="1.6" __comx="460.708" __comy="63.694" __timestamp="0x175ddfcefba" d="M460.149 54.05 l0.145 2.399 0.606 1.796 0.315 -0.048 0.05 -1.846 -0.092 -2.352" />
    <path class="write-flat-pen" fill="#000000" stroke-width="1.6" __comx="473.332" __comy="63.694" __timestamp="0x175ddfcf0e1" d="M467.67 49.097 l0.91 1.769 0.454 3.141 -0.694 14.915 0.222 7.905 0.932 2.535 1.461 1.544 1.867 0.774 1.847 -0.205 2.93 -2.117 0.491 -0.922 0.902 -1.814 -0.228 -0.153 -1.339 1.521 -0.555 0.635 -2.649 1.58 -1.183 0.078 -1.27 -0.548 -1.061 -1.122 -0.757 -2.053 -0.258 -7.628 0.53 -14.998 -0.67 -3.417 -1.182 -1.824" />
    <path class="write-flat-pen" fill="#000000" stroke-width="1.6" __comx="468.101" __comy="63.694" __timestamp="0x175ddfcf1cb" d="M458.258 63.19 l3.793 -1.361 0.901 -0.171 3.146 -0.213 8.966 1.941 0.998 0.104 2.157 0.179 0.068 -0.314 -2.036 -0.734 -0.946 -0.32 -9.109 -2.156 -3.415 0.259 -1.09 0.23 -3.777 1.71" />
    <path class="write-flat-pen" fill="#000000" stroke-width="1.6" __comx="485.857" __comy="63.694" __timestamp="0x175ddfcf309" d="M480.523 56.77 l2.097 3.5 0.551 0.91 5.852 9.001 1.834 1.448 0.335 -0.319 -1.285 -1.825 -5.723 -8.948 -0.578 -0.899 -2.387 -3.326" />
    <path class="write-flat-pen" fill="#000000" stroke-width="1.6" __comx="488.777" __comy="64.944" __timestamp="0x175ddfcf3d9" d="M496.124 55.643 l-3.612 10.722 -4.556 11.38 -6.616 14.688 -0.22 2.719 -0.529 2.31 -0.33 1.472 0.287 0.092 0.586 -1.39 0.94 -2.277 0.415 -2.605 6.712 -14.478 4.555 -11.458 3.538 -10.788" />
  </g>
</svg>
