<?xml version="1.0" encoding="utf-8"?>
<!-- Generator: Adobe Illustrator 14.0.0, SVG Export Plug-In . SVG Version: 6.00 Build 43363)  -->
<!DOCTYPE svg PUBLIC "-//W3C//DTD SVG 1.1//EN" "http://www.w3.org/Graphics/SVG/1.1/DTD/svg11.dtd" [
	<!ENTITY ns_extend "http://ns.adobe.com/Extensibility/1.0/">
	<!ENTITY ns_ai "http://ns.adobe.com/AdobeIllustrator/10.0/">
	<!ENTITY ns_graphs "http://ns.adobe.com/Graphs/1.0/">
	<!ENTITY ns_vars "http://ns.adobe.com/Variables/1.0/">
	<!ENTITY ns_imrep "http://ns.adobe.com/ImageReplacement/1.0/">
	<!ENTITY ns_sfw "http://ns.adobe.com/SaveForWeb/1.0/">
	<!ENTITY ns_custom "http://ns.adobe.com/GenericCustomNamespace/1.0/">
	<!ENTITY ns_adobe_xpath "http://ns.adobe.com/XPath/1.0/">
]>
<svg version="1.1" id="Layer_1" xmlns:x="&ns_extend;" xmlns:i="&ns_ai;" xmlns:graph="&ns_graphs;"
	 xmlns="http://www.w3.org/2000/svg" xmlns:xlink="http://www.w3.org/1999/xlink" x="0px" y="0px" width="430.667px" height="374px"
	 viewBox="0 0 430.667 374" enable-background="new 0 0 430.667 374" xml:space="preserve">
<metadata>
	<sfw  xmlns="&ns_sfw;">
		<slices></slices>
		<sliceSourceBounds  x="83.141" y="215.929" width="423.603" height="366.017" bottomLeftOrigin="true"></sliceSourceBounds>
	</sfw>
</metadata>
<g>
	<g>
		
			<linearGradient id="SVGID_1_" gradientUnits="userSpaceOnUse" x1="229.915" y1="216.144" x2="258.347" y2="-7.4712" gradientTransform="matrix(1 0 0 -1 0 381.667)">
			<stop  offset="0" style="stop-color:#FFFFFF"/>
			<stop  offset="1" style="stop-color:#000000"/>
		</linearGradient>
		<path opacity="0.7" fill="url(#SVGID_1_)" enable-background="new    " d="M237.004,136.74
			c-16.743,2.618-47.328,27.558-75.484,43.136c-28.163,15.577-116.827,54.519-115.628,76.685
			c1.197,22.166,68.297,23.961,107.839,47.928c39.541,23.969,91.063,71.892,119.821,65.301
			c28.756-6.591,43.504-32.785,56.915-63.502c18.571-42.538,36.543-67.697,68.297-96.457c31.752-28.754,54.515-40.14-32.953-56.317
			C278.342,137.339,256.178,133.745,237.004,136.74z"/>
		<g>
			<path opacity="0.2" fill="#2A2A2A" enable-background="new    " d="M324.709,92.246c0,0-43.715-33.029-75.775-37.4
				c-32.055-4.373-53.608,4.606-80.144,23.801c-22.829,16.512-41.772,46.143-41.772,46.143s-15.056,11.172-54.401,36.916
				c-39.344,25.747-59.746,34.001-66.547,49.542c-6.801,15.542,14.087,23.801,49.061,27.688
				c34.971,3.884,88.404,39.831,136.975,77.716c48.574,37.887,63.635,48.573,82.087,42.743c18.46-5.825,24.288-39.342,32.058-82.569
				c7.776-43.234,26.229-88.406,49.544-110.75c23.315-22.346,41.778-33.518,49.063-37.886c7.282-4.373,16.999-10.69-6.803-17.001
				c-23.8-6.314-67.516-16.514-67.516-16.514L324.709,92.246z"/>
			<path opacity="0.2" fill="#2A2A2A" enable-background="new    " d="M112.687,147.258c0,0,39.257-77.1,100.672-91.18
				c25.603-5.87,46.74-1.587,72.1,11.732c25.359,13.321,41.438,25.872,41.438,25.872s-26.094-8.894-99.082-1.629
				C154.821,99.317,112.687,147.258,112.687,147.258z"/>
			<path fill="none" stroke="#000000" stroke-width="1.3162" d="M42.987,180.65c0,0,14.083,6.802,24.288,6.802
				c10.199,0,27.198-10.445,49.542-10.445c22.347,0,56.345,25.013,98.604,51.73c42.256,26.715,91.32,50.032,91.32,50.032"/>
			<path fill="none" stroke="#000000" stroke-width="1.3162" d="M86.701,152.963c0,0,16.516,2.429,22.348-1.945
				c5.827-4.371,19.91-42.259,46.14-42.259c26.229,0,55.498,24.48,93.263,58.291c51.004,45.656,76.262,47.114,76.262,47.114"/>
			<path fill="none" stroke="#000000" stroke-width="1.3162" d="M347.538,174.82c0,0-25.254-2.913-53.917-40.8
				c-28.654-37.888-60.227-71.89-90.828-71.89c-9.229,0-17.975,6.438-17.975,6.438"/>
			<path fill="none" stroke="#000000" stroke-width="1.3162" d="M250.879,56.302c25.745,0,51.372,32.651,71.886,55.861
				c29.633,33.516,53.917,34.488,53.917,34.488"/>
			<path fill="none" stroke="#000000" stroke-width="1.3162" d="M321.789,90.806c7.543,4.59,15.278,9.637,22.836,14.556
				c30.602,19.918,59.26,22.345,59.26,22.345"/>
			<path fill="none" stroke="#000000" stroke-width="1.3162" d="M192.589,317.142c0,0,77.899-124.707,124.348-168.066
				c36.431-34.001,67.033-41.285,67.033-41.285"/>
			<path fill="none" stroke="#000000" stroke-width="1.3162" d="M132.361,272.941c0,0,67.916-83.894,93.26-124.837
				c18.945-30.6,50.518-56.343,67.52-59.744c17-3.399,38.373,6.312,38.373,6.312"/>
			<path fill="none" stroke="#000000" stroke-width="1.3162" d="M87.186,248.167c0,0,22.83-29.144,44.689-76.747
				c21.858-47.601,47.238-101.603,90.347-115.119c11.448-3.59,21.309-2.839,29.906-0.097"/>
			<path fill="none" stroke="#000000" stroke-width="1.3162" d="M47.842,238.451c0,0,30.118-33.514,45.662-58.288
				c15.545-24.771,30.843-52.945,30.843-52.945"/>
			<path fill="none" stroke="#000000" stroke-width="1.3162" d="M14.325,229.222c43.239-34.003,43.218-33.258,60.721-48.326
				c17.487-15.06,34.483-29.877,34.483-29.877"/>
			<path fill="none" stroke="#000000" stroke-width="1.3162" stroke-dasharray="8.7741" d="M112.687,147.258
				c0,0,40.693-43.271,98.362-52.825c61.569-10.202,112.569-2.188,112.569-2.188"/>
			<path fill="none" stroke="#000000" stroke-width="2.6322" d="M324.709,92.246c0,0-43.715-33.029-75.775-37.4
				c-32.055-4.373-53.608,4.606-80.144,23.801c-22.829,16.512-41.772,46.143-41.772,46.143s-15.056,11.172-54.401,36.916
				c-39.344,25.747-59.746,34.001-66.547,49.542c-6.801,15.542,14.087,23.801,49.061,27.688
				c34.971,3.884,88.404,39.831,136.975,77.716c48.574,37.887,63.635,48.573,82.087,42.743c18.46-5.825,24.288-39.342,32.058-82.569
				c7.776-43.234,26.229-88.406,49.544-110.75c23.315-22.346,41.778-33.518,49.063-37.886c7.282-4.373,16.999-10.69-6.803-17.001
				c-23.8-6.314-67.516-16.514-67.516-16.514L324.709,92.246z"/>
		</g>
	</g>
	<g>
		<g>
			<g>
				<line fill="none" x1="208.433" y1="62.49" x2="252.231" y2="42.761"/>
				<polygon fill="#FFFFFF" points="256.189,40.978 251.642,45.768 251.938,42.895 249.586,41.212 				"/>
			</g>
			<g>
				<line fill="none" stroke="#000000" stroke-width="4.6107" x1="208.433" y1="62.49" x2="252.231" y2="42.761"/>
				<polygon points="264.108,37.415 250.452,51.786 251.347,43.16 244.296,38.115 				"/>
			</g>
		</g>
		<g>
			<path fill="#FFFFFF" d="M257.611,79.263"/>
			<path fill="none" stroke="#000000" stroke-width="4.6107" d="M257.611,79.263"/>
		</g>
		<g>
			<path fill="#FFFFFF" d="M208.433,62.49"/>
			<path fill="none" stroke="#000000" stroke-width="4.6107" d="M208.433,62.49"/>
		</g>
	</g>
	<polygon fill="#FFFFFF" stroke="#000000" stroke-width="1.5369" points="222.996,51.342 208.352,46.731 208.352,62.912 
		222.996,67.928 	"/>
	<g>
		<g>
			<line fill="none" x1="208.433" y1="62.49" x2="257.611" y2="79.263"/>
			<polygon fill="#FFFFFF" points="261.72,80.665 255.123,81.054 257.305,79.157 256.737,76.324 			"/>
		</g>
		<g>
			<line fill="none" stroke="#000000" stroke-width="4.6107" x1="208.433" y1="62.49" x2="257.611" y2="79.263"/>
			<polygon points="269.937,83.465 250.148,84.638 256.688,78.947 254.986,70.449 			"/>
		</g>
	</g>
	<g>
		<path d="M208.433,57.879c2.546,0,4.606,2.063,4.606,4.611c0,2.547-2.061,4.61-4.606,4.61c-2.547,0-4.613-2.063-4.613-4.61
			C203.819,59.942,205.886,57.879,208.433,57.879z"/>
		<g>
			<g>
				<line fill="none" x1="208.433" y1="62.49" x2="208.433" y2="17.409"/>
				<polygon fill="#FFFFFF" points="208.433,13.068 210.931,19.184 208.433,17.733 205.933,19.184 				"/>
			</g>
			<g>
				<line fill="none" stroke="#000000" stroke-width="4.6107" x1="208.433" y1="62.49" x2="208.433" y2="17.409"/>
				<polygon points="208.433,4.388 215.929,22.737 208.433,18.381 200.936,22.737 				"/>
			</g>
		</g>
	</g>
</g>
</svg>
