<?xml version="1.0" encoding="UTF-8" standalone="no"?>
<svg
   xmlns:dc="http://purl.org/dc/elements/1.1/"
   xmlns:cc="http://creativecommons.org/ns#"
   xmlns:rdf="http://www.w3.org/1999/02/22-rdf-syntax-ns#"
   xmlns:svg="http://www.w3.org/2000/svg"
   xmlns="http://www.w3.org/2000/svg"
   xmlns:sodipodi="http://sodipodi.sourceforge.net/DTD/sodipodi-0.dtd"
   xmlns:inkscape="http://www.inkscape.org/namespaces/inkscape"
   width="210mm"
   height="148mm"
   viewBox="0 0 210 148"
   version="1.1"
   id="svg8"
   sodipodi:docname="2021-01-20_13-59.svg"
   inkscape:version="1.0.1 (3bc2e813f5, 2020-09-07, custom)">
  <defs
     id="defs2" />
  <sodipodi:namedview
     id="base"
     pagecolor="#ffffff"
     bordercolor="#000000"
     borderopacity="1"
     inkscape:pageopacity="0.0"
     inkscape:pageshadow="2"
     inkscape:zoom="0.9114273"
     inkscape:cx="372.86425"
     inkscape:cy="456.3043"
     inkscape:document-units="mm"
     inkscape:current-layer="layer1"
     inkscape:document-rotation="0"
     showgrid="true"
     showborder="true"
     borderlayer="true"
     inkscape:showpageshadow="false"
     objecttolerance="10000"
     guidetolerance="10000"
     inkscape:snap-perpendicular="true"
     inkscape:snap-tangential="true"
     inkscape:window-width="1920"
     inkscape:window-height="1080"
     inkscape:window-x="-1"
     inkscape:window-y="14"
     inkscape:window-maximized="0">
    <sodipodi:guide
       position="0,148"
       orientation="0,793.70079"
       id="guide10" />
    <sodipodi:guide
       position="210,148"
       orientation="559.37008,0"
       id="guide12" />
    <sodipodi:guide
       position="210,0"
       orientation="0,-793.70079"
       id="guide14" />
    <sodipodi:guide
       position="0,0"
       orientation="-559.37008,0"
       id="guide16" />
    <inkscape:grid
       type="xygrid"
       id="grid20"
       dotted="true"
       units="px"
       originx="105"
       originy="74.000003" />
  </sodipodi:namedview>
  <metadata
     id="metadata5">
    <rdf:RDF>
      <cc:Work
         rdf:about="">
        <dc:format>image/svg+xml</dc:format>
        <dc:type
           rdf:resource="http://purl.org/dc/dcmitype/StillImage" />
        <dc:title />
        <cc:license
           rdf:resource="" />
      </cc:Work>
    </rdf:RDF>
  </metadata>
  <g
     inkscape:label="Layer 1"
     inkscape:groupmode="layer"
     id="layer1">
    <path
       style="fill:none;stroke:#000000;stroke-width:0.264583px;stroke-linecap:butt;stroke-linejoin:miter;stroke-opacity:1"
       d="m 126.16666,15.79167 c -0.4903,-1.899247 -0.19195,-2.646511 -1.82694,-3.613652 -2.82404,-1.6705 -10.82563,-0.558336 -13.87101,-0.259564 -8.74782,0.858219 -24.818369,3.352369 -27.930974,13.385897 -1.698337,5.474612 1.553919,10.379886 2.116542,15.684864 0.730771,6.890475 -4.933463,12.300984 -10.091439,15.833185 -3.958058,2.710495 -8.576317,5.327952 -12.926099,7.267691 -7.268975,3.241522 -19.741592,5.632128 -27.326264,7.638492 -5.443871,1.440058 -11.233691,2.500516 -16.063147,5.561999 C 8.3596561,83.558564 4.3098405,101.88398 4.03616,112.51663 c -0.4055732,15.75677 5.2292066,28.86136 19.275782,37.33962 2.407398,1.45307 11.16543,4.09358 14.929287,5.11703 11.751087,3.19529 14.277025,3.87852 27.137277,6.08114 14.473812,2.47898 29.383498,2.80564 43.956344,4.63501 11.6313,1.46011 23.85153,4.00576 35.60349,2.18771 19.93091,-3.08335 39.22059,-8.44551 56.92025,-18.35462 4.09167,-2.2907 16.95162,-9.91373 22.26163,-14.42413 3.44475,-2.92602 14.20498,-11.54457 17.83954,-17.72427 5.83939,-9.92848 11.0504,-23.534258 4.04414,-34.484444 -1.72109,-2.68992 -3.95994,-5.0273 -6.19845,-7.304775 -9.57678,-9.743461 -25.19884,-8.870828 -37.41773,-9.307086 -8.30436,-0.296495 -16.54165,-0.211892 -24.83172,-1.038247 -1.48526,-0.14805 -3.01411,-0.209042 -4.4221,-0.704519 -3.26092,-1.147532 -6.44014,-2.55637 -9.48671,-4.190045 -8.58938,-4.60593 -7.59408,-18.642274 -7.37014,-26.771795 0.10225,-3.711874 0.78127,-9.050433 -1.88979,-12.162262 -1.9337,-2.2528 -4.72518,-3.241783 -7.21897,-4.672086 -6.09774,-3.497341 -12.21523,-5.797973 -19.35137,-3.300122 -1.40956,0.493389 -2.76872,1.151228 -4.04414,1.928159 -0.45894,0.279568 -2.16942,2.779949 -2.89778,2.484368"
       id="path835" />
    <path
       style="fill:none;fill-rule:evenodd;stroke:#d40000;stroke-width:0.168;stroke-miterlimit:3.31429;stroke-dashoffset:0.0999999"
       id="path837"
       sodipodi:type="arc"
       sodipodi:cx="123.52084"
       sodipodi:cy="76.645836"
       sodipodi:rx="34.395832"
       sodipodi:ry="18.520834"
       sodipodi:start="1.4007646"
       sodipodi:end="1.3899053"
       sodipodi:arc-type="slice"
       d="M 129.34109,94.899588 A 34.395832,18.520834 0 0 1 89.636946,79.829357 34.395832,18.520834 0 0 1 117.51662,58.409369 34.395832,18.520834 0 0 1 157.37214,73.363297 34.395832,18.520834 0 0 1 129.70886,94.86448 l -6.18802,-18.218644 z" />
    <path
       style="fill:none;fill-rule:evenodd;stroke:#d40000;stroke-width:0.168;stroke-miterlimit:3.31429;stroke-dashoffset:0.0999999"
       id="path841"
       sodipodi:type="arc"
       sodipodi:cx="157.91667"
       sodipodi:cy="97.812508"
       sodipodi:rx="31.75"
       sodipodi:ry="29.104166"
       sodipodi:start="1.4007646"
       sodipodi:end="1.3899052"
       sodipodi:arc-type="slice"
       d="M 163.2892,126.49697 A 31.75,29.104166 0 0 1 126.63923,102.81518 31.75,29.104166 0 0 1 152.37431,69.155204 31.75,29.104166 0 0 1 189.16402,92.65423 31.75,29.104166 0 0 1 163.62869,126.4418 L 157.91667,97.812508 Z" />
    <path
       style="fill:none;fill-rule:evenodd;stroke:#d40000;stroke-width:0.168;stroke-miterlimit:3.31429;stroke-dashoffset:0.0999999"
       id="path843"
       sodipodi:type="arc"
       sodipodi:cx="115.58334"
       sodipodi:cy="95.166672"
       sodipodi:rx="42.333332"
       sodipodi:ry="26.458332"
       sodipodi:start="1.4007646"
       sodipodi:end="1.3899052"
       sodipodi:arc-type="slice"
       d="M 122.74672,121.24346 A 42.333332,26.458332 0 0 1 73.880085,99.71456 42.333332,26.458332 0 0 1 108.19353,69.114578 42.333332,26.458332 0 0 1 157.24648,90.477329 42.333332,26.458332 0 0 1 123.19937,121.1933 l -7.61603,-26.026628 z" />
    <text
       xml:space="preserve"
       style="font-size:10.5833px;line-height:1.25;font-family:sans-serif;word-spacing:0px;stroke-width:0.264583"
       x="57.374996"
       y="47.541668"
       id="text847"><tspan
         sodipodi:role="line"
         x="57.374996"
         y="47.541668"
         style="stroke-width:0.264583"
         id="tspan849">$X$</tspan></text>
    <text
       xml:space="preserve"
       style="font-size:10.5833px;line-height:1.25;font-family:sans-serif;word-spacing:0px;stroke-width:0.264583"
       x="91.770836"
       y="129.5625"
       id="text843"><tspan
         sodipodi:role="line"
         id="tspan841"
         x="91.770836"
         y="129.5625"
         style="stroke-width:0.264583">$U_1$</tspan></text>
    <text
       xml:space="preserve"
       style="font-size:10.5833px;line-height:1.25;font-family:sans-serif;word-spacing:0px;stroke-width:0.264583"
       x="205.54167"
       y="100.45834"
       id="text848"><tspan
         sodipodi:role="line"
         id="tspan845"
         x="205.54167"
         y="100.45834"
         style="stroke-width:0.264583">$U_2$</tspan></text>
    <text
       xml:space="preserve"
       style="font-size:10.5833px;line-height:1.25;font-family:sans-serif;word-spacing:0px;stroke-width:0.264583"
       x="173.79167"
       y="95.166672"
       id="text852"><tspan
         sodipodi:role="line"
         id="tspan850"
         x="173.79167"
         y="95.166672"
         style="stroke-width:0.264583">$s_2$</tspan><tspan
         sodipodi:role="line"
         x="173.79167"
         y="108.3958"
         style="stroke-width:0.264583"
         id="tspan854" /></text>
    <text
       xml:space="preserve"
       style="font-size:10.5833px;line-height:1.25;font-family:sans-serif;word-spacing:0px;stroke-width:0.264583"
       x="102.35416"
       y="103.10417"
       id="text858"><tspan
         sodipodi:role="line"
         id="tspan856"
         x="102.35416"
         y="103.10417"
         style="stroke-width:0.264583">$s_1$</tspan></text>
    <text
       xml:space="preserve"
       style="font-size:10.5833px;line-height:1.25;font-family:sans-serif;word-spacing:0px;stroke-width:0.264583"
       x="144.6875"
       y="103.10417"
       id="text862"><tspan
         sodipodi:role="line"
         id="tspan860"
         x="144.6875"
         y="103.10417"
         style="stroke-width:0.264583">$s$</tspan></text>
    <path
       style="fill:none;stroke:#000000;stroke-width:0.264583px;stroke-linecap:butt;stroke-linejoin:miter;stroke-opacity:1"
       d="m 136.75,97.812502 c 0.36509,0.117914 0.97735,0.71883 1.09526,0.353742 0.11792,-0.365088 -0.88699,-0.675947 -1.09526,-0.353742 -0.49232,0.761632 -0.0579,1.854999 -0.41423,2.688968 -0.14906,0.34891 -3.8945,4.66522 -0.37736,2.50611 1.31643,-0.80814 2.54965,-1.74629 3.86074,-2.56306 0.62582,-0.38988 1.23923,-0.839911 1.94489,-1.053705 0.57554,-0.174376 -0.32714,1.201405 -0.7257,1.651745 -1.32863,1.50123 -5.7819,5.75658 -5.6024,6.57852 0.073,0.3342 0.55431,-0.40244 0.81277,-0.62652 0.47502,-0.41183 2.22875,-1.9787 2.98988,-1.48088 0.94945,0.62099 -4.89389,7.25572 -1.50945,4.4996 1.17132,-0.95387 2.23264,-2.04487 3.45435,-2.93328 0.99214,-0.72149 2.08108,-1.30332 3.16405,-1.87958 0.0787,-0.0419 0.2873,-0.0283 0.26123,0.057 -0.53461,1.74829 -2.43448,3.96252 -3.36724,5.06916 -0.33276,0.39478 -0.76478,0.69431 -1.16111,1.02523 -0.0596,0.0498 -0.26655,0.1588 -0.2032,0.11391 1.30844,-0.92712 3.44932,-3.85572 5.22504,-3.27502 0.39432,0.12895 -0.29051,1.44652 -1.62558,3.73068 -0.28814,0.49298 -1.29686,1.35855 -0.75472,1.53783 0.80841,0.26734 1.65877,0.38836 2.49643,0.54108 0.25769,0.047 1.00943,0.18992 0.78375,0.057 -0.39222,-0.23106 -0.87643,-0.24648 -1.31464,-0.36972"
       id="path864" />
    <text
       xml:space="preserve"
       style="font-size:10.5833px;line-height:1.25;font-family:sans-serif;word-spacing:0px;stroke-width:0.264583"
       x="128.8125"
       y="50.1875"
       id="text868"><tspan
         sodipodi:role="line"
         id="tspan866"
         x="128.8125"
         y="50.1875"
         style="stroke-width:0.264583">$U_3$</tspan><tspan
         sodipodi:role="line"
         x="128.8125"
         y="63.416626"
         style="stroke-width:0.264583"
         id="tspan870" /></text>
    <text
       xml:space="preserve"
       style="font-size:10.5833px;line-height:1.25;font-family:sans-serif;word-spacing:0px;stroke-width:0.264583"
       x="120.875"
       y="63.416668"
       id="text874"><tspan
         sodipodi:role="line"
         x="120.875"
         y="63.416668"
         style="stroke-width:0.264583"
         id="tspan876">$s_3$</tspan><tspan
         sodipodi:role="line"
         x="120.875"
         y="76.64579"
         style="stroke-width:0.264583"
         id="tspan880" /></text>
  </g>
</svg>
