<?xml version="1.0" encoding="UTF-8" standalone="no"?>
<svg
   xmlns:dc="http://purl.org/dc/elements/1.1/"
   xmlns:cc="http://creativecommons.org/ns#"
   xmlns:rdf="http://www.w3.org/1999/02/22-rdf-syntax-ns#"
   xmlns:svg="http://www.w3.org/2000/svg"
   xmlns="http://www.w3.org/2000/svg"
   xmlns:sodipodi="http://sodipodi.sourceforge.net/DTD/sodipodi-0.dtd"
   xmlns:inkscape="http://www.inkscape.org/namespaces/inkscape"
   width="210mm"
   height="148mm"
   viewBox="0 0 210 148"
   version="1.1"
   id="svg8"
   sodipodi:docname="2021-01-15_13-54.svg"
   inkscape:version="1.0.1 (3bc2e813f5, 2020-09-07, custom)">
  <defs
     id="defs2" />
  <sodipodi:namedview
     id="base"
     pagecolor="#ffffff"
     bordercolor="#000000"
     borderopacity="1"
     inkscape:pageopacity="0.0"
     inkscape:pageshadow="2"
     inkscape:zoom="0.7"
     inkscape:cx="220.54594"
     inkscape:cy="501.819"
     inkscape:document-units="mm"
     inkscape:current-layer="layer1"
     inkscape:document-rotation="0"
     showgrid="true"
     showborder="true"
     borderlayer="true"
     inkscape:showpageshadow="false"
     objecttolerance="10000"
     guidetolerance="10000"
     inkscape:snap-perpendicular="true"
     inkscape:snap-tangential="true"
     inkscape:window-width="943"
     inkscape:window-height="1027"
     inkscape:window-x="488"
     inkscape:window-y="41"
     inkscape:window-maximized="0">
    <sodipodi:guide
       position="0,148"
       orientation="0,793.70079"
       id="guide10" />
    <sodipodi:guide
       position="210,148"
       orientation="559.37008,0"
       id="guide12" />
    <sodipodi:guide
       position="210,0"
       orientation="0,-793.70079"
       id="guide14" />
    <sodipodi:guide
       position="0,0"
       orientation="-559.37008,0"
       id="guide16" />
    <inkscape:grid
       type="xygrid"
       id="grid20"
       dotted="true"
       units="px"
       originx="105"
       originy="74.000003" />
  </sodipodi:namedview>
  <metadata
     id="metadata5">
    <rdf:RDF>
      <cc:Work
         rdf:about="">
        <dc:format>image/svg+xml</dc:format>
        <dc:type
           rdf:resource="http://purl.org/dc/dcmitype/StillImage" />
        <dc:title />
        <cc:license
           rdf:resource="" />
      </cc:Work>
    </rdf:RDF>
  </metadata>
  <g
     inkscape:label="Layer 1"
     inkscape:groupmode="layer"
     id="layer1">
    <path
       style="fill:none;stroke:#000000;stroke-width:0.264583px;stroke-linecap:butt;stroke-linejoin:miter;stroke-opacity:1"
       d="m 94.416667,52.833336 c 0,0 0,0 -42.333335,95.249994 0,0 0,-0.0833 -52.083332,-100.541661 3.9048322,4.15121 9.9006107,4.775751 14.426353,7.835811 1.855367,1.254498 2.459164,3.367727 3.666166,5.117039 1.818412,2.635432 5.725548,2.906985 8.617414,2.929327 4.676303,0.03613 9.900222,-1.263795 14.58911,-1.89108 1.807784,-0.241848 3.493723,-0.749901 5.329202,-0.370802 4.705211,0.971813 7.618313,5.519627 12.623745,5.710327 4.115737,0.156804 14.030482,-2.466331 17.499393,-4.968724 2.009468,-1.449584 3.602955,-3.767907 5.74492,-4.968723 3.030769,-1.699093 5.739556,-2.17826 8.76859,-3.522614 1.091308,-0.484347 1.942581,-1.307047 2.948072,-1.928154 1.023754,-0.632388 2.139202,-0.468684 3.212636,-0.88993 1.604721,-0.62974 1.089386,-3.221881 0.377953,-4.412522 -1.378616,-2.307226 -4.028363,-5.290888 -6.538661,-6.303613 -6.662986,-2.688038 -15.177514,-2.098593 -22.072642,-0.778676 -4.338932,0.83059 -8.238395,2.07798 -12.699345,2.113566 -5.339279,0.04259 -10.392547,-2.759941 -15.760781,-3.003485 -5.514613,-0.250186 -10.5217,1.066022 -15.722993,2.669756 -3.672366,1.132315 -6.287736,0.291998 -9.864661,0.815761 C 11.429165,42.238959 8.0833647,44.029354 4.4483027,44.920904 1.5923239,45.621373 -0.09950376,43.830686 0,47.541669"
       id="path837" />
    <path
       style="fill:none;stroke:#000000;stroke-width:0.264583px;stroke-linecap:butt;stroke-linejoin:miter;stroke-opacity:1"
       d="M 194.95833,142.79167 C 142.04166,47.541669 142.04166,47.541669 142.04166,47.541669"
       id="path839" />
    <path
       style="fill:none;stroke:#000000;stroke-width:0.264583px;stroke-linecap:butt;stroke-linejoin:miter;stroke-opacity:1"
       d="M 194.95833,142.79167 C 232,47.541669 232,47.541669 232,47.541669 v 0"
       id="path841" />
    <ellipse
       style="fill:none;fill-opacity:0.614069;fill-rule:evenodd;stroke:#c000ac;stroke-width:0.499999;stroke-dashoffset:0.0999999"
       id="path843"
       cx="189.66667"
       cy="44.895832"
       rx="42.333332"
       ry="7.9375" />
    <path
       style="fill:none;stroke:#000000;stroke-width:0.264583px;stroke-linecap:butt;stroke-linejoin:miter;stroke-opacity:1"
       d="m 94.416664,89.875002 c 52.916666,0 52.916666,0 52.916666,0"
       id="path845" />
    <path
       style="fill:none;stroke:#000000;stroke-width:0.264583px;stroke-linecap:butt;stroke-linejoin:miter;stroke-opacity:1"
       d="m 89.124998,116.33333 c 74.083332,0 74.083332,0 74.083332,0"
       id="path847" />
    <text
       xml:space="preserve"
       style="font-style:normal;font-weight:normal;font-size:10.5833px;line-height:1.25;font-family:sans-serif;fill:#000000;fill-opacity:1;stroke:none;stroke-width:0.264583"
       x="126.16666"
       y="84.583336"
       id="text851"><tspan
         sodipodi:role="line"
         id="tspan849"
         x="126.16666"
         y="84.583336"
         style="stroke-width:0.264583">f</tspan></text>
    <text
       xml:space="preserve"
       style="font-style:normal;font-weight:normal;font-size:10.5833px;line-height:1.25;font-family:sans-serif;fill:#000000;fill-opacity:1;stroke:none;stroke-width:0.264583"
       x="126.16666"
       y="105.75"
       id="text855"><tspan
         sodipodi:role="line"
         id="tspan853"
         x="126.16666"
         y="105.75"
         style="stroke-width:0.264583">f</tspan></text>
    <text
       xml:space="preserve"
       style="font-style:normal;font-weight:normal;font-size:10.5833px;line-height:1.25;font-family:sans-serif;fill:#000000;fill-opacity:1;stroke:none;stroke-width:0.264583"
       x="237.29167"
       y="58.125"
       id="text859"><tspan
         sodipodi:role="line"
         id="tspan857"
         x="237.29167"
         y="58.125"
         style="stroke-width:0.264583">S^7</tspan></text>
    <path
       style="fill:none;stroke:#000000;stroke-width:0.264583px;stroke-linecap:butt;stroke-linejoin:miter;stroke-opacity:1"
       d="m -37.875001,42.250002 c 0,105.833328 0,105.749998 0,105.749998"
       id="path861" />
    <text
       xml:space="preserve"
       style="font-style:normal;font-weight:normal;font-size:10.5833px;line-height:1.25;font-family:sans-serif;fill:#000000;fill-opacity:1;stroke:none;stroke-width:0.264583"
       x="-53.75"
       y="142.79167"
       id="text865"><tspan
         sodipodi:role="line"
         id="tspan863"
         x="-53.75"
         y="142.79167"
         style="stroke-width:0.264583">0</tspan></text>
    <text
       xml:space="preserve"
       style="font-style:normal;font-weight:normal;font-size:10.5833px;line-height:1.25;font-family:sans-serif;fill:#000000;fill-opacity:1;stroke:none;stroke-width:0.264583"
       x="-53.75"
       y="42.25"
       id="text869"><tspan
         sodipodi:role="line"
         x="-53.75"
         y="42.25"
         style="stroke-width:0.264583"
         id="tspan873">$\eps$</tspan></text>
  </g>
</svg>
