<?xml version="1.0" encoding="UTF-8" standalone="no"?>
<svg
   xmlns:dc="http://purl.org/dc/elements/1.1/"
   xmlns:cc="http://creativecommons.org/ns#"
   xmlns:rdf="http://www.w3.org/1999/02/22-rdf-syntax-ns#"
   xmlns:svg="http://www.w3.org/2000/svg"
   xmlns="http://www.w3.org/2000/svg"
   xmlns:sodipodi="http://sodipodi.sourceforge.net/DTD/sodipodi-0.dtd"
   xmlns:inkscape="http://www.inkscape.org/namespaces/inkscape"
   width="210mm"
   height="148mm"
   viewBox="0 0 210 148"
   version="1.1"
   id="svg8"
   sodipodi:docname="2021-02-15_14-38.svg"
   inkscape:version="1.0.2 (e86c870879, 2021-01-15)">
  <defs
     id="defs2" />
  <sodipodi:namedview
     id="base"
     pagecolor="#ffffff"
     bordercolor="#000000"
     borderopacity="1"
     inkscape:pageopacity="0.0"
     inkscape:pageshadow="2"
     inkscape:zoom="0.7"
     inkscape:cx="489.35776"
     inkscape:cy="501.819"
     inkscape:document-units="mm"
     inkscape:current-layer="layer1"
     inkscape:document-rotation="0"
     showgrid="true"
     showborder="true"
     borderlayer="true"
     inkscape:showpageshadow="false"
     objecttolerance="10000"
     guidetolerance="10000"
     inkscape:snap-perpendicular="true"
     inkscape:snap-tangential="true"
     inkscape:window-width="943"
     inkscape:window-height="1027"
     inkscape:window-x="488"
     inkscape:window-y="41"
     inkscape:window-maximized="0">
    <sodipodi:guide
       position="0,148"
       orientation="0,793.70079"
       id="guide10" />
    <sodipodi:guide
       position="210,148"
       orientation="559.37008,0"
       id="guide12" />
    <sodipodi:guide
       position="210,0"
       orientation="0,-793.70079"
       id="guide14" />
    <sodipodi:guide
       position="0,0"
       orientation="-559.37008,0"
       id="guide16" />
    <inkscape:grid
       type="xygrid"
       id="grid20"
       dotted="true"
       units="px"
       originx="105"
       originy="74.000003" />
  </sodipodi:namedview>
  <metadata
     id="metadata5">
    <rdf:RDF>
      <cc:Work
         rdf:about="">
        <dc:format>image/svg+xml</dc:format>
        <dc:type
           rdf:resource="http://purl.org/dc/dcmitype/StillImage" />
        <dc:title />
        <cc:license
           rdf:resource="" />
      </cc:Work>
    </rdf:RDF>
  </metadata>
  <g
     inkscape:label="Layer 1"
     inkscape:groupmode="layer"
     id="layer1">
    <path
       style="fill:none;stroke:#000000;stroke-width:0.264583px;stroke-linecap:butt;stroke-linejoin:miter;stroke-opacity:1"
       d="M 89.124998,74.000002 C 84.449239,71.69701 79.256725,70.84719 74.407857,68.958356 66.814077,66.000269 60.125535,63.868029 51.995048,66.325672 c -4.289843,1.296715 -8.747106,3.120954 -12.472566,5.63617 -6.754136,4.559999 -13.166542,12.656688 -16.063158,20.356949 -1.742454,4.632076 -2.190645,9.749119 -2.532307,14.646609 -0.792336,11.35759 0.373638,20.87686 7.030001,30.51688 0.617365,0.8941 3.373038,4.75529 4.19532,5.562 3.765765,3.69448 9.708983,7.1639 15.042663,7.78683 5.291556,0.61802 10.301949,-0.23298 15.420615,-1.4832 5.655109,-1.38125 11.521903,-2.7062 16.894664,-5.00581 3.807458,-1.62964 5.579301,-2.88296 9.448898,-5.00581 3.713488,-2.0372 7.54134,-3.80031 11.225322,-5.89572 3.8128,-2.16869 6.12882,-3.72122 9.97805,-5.37661 4.39623,-1.89064 9.07258,-3.02965 13.60643,-4.52377 11.32942,-3.73359 22.4016,-6.39688 34.31845,-7.37893 7.04865,-0.58087 14.114,-0.75334 21.12777,-1.74277 4.67641,-0.65969 9.23127,-1.9837 13.79539,-3.1518 15.78959,-4.04103 31.81235,-8.17498 34.73423,-26.883033 0.56987,-3.648745 0.0928,-7.721291 -0.64254,-11.309422 -2.90423,-14.171212 -14.84488,-19.335755 -27.32622,-23.58291 -13.68848,-4.657918 -28.55297,-7.294567 -42.93587,-4.152961 -7.02461,1.534359 -14.45047,4.417201 -20.78761,7.786807 -4.29102,2.281637 -8.13892,5.905844 -12.13241,8.639654 -3.43158,2.349156 -6.95984,4.752699 -10.73397,6.526088 -3.64401,1.71224 -7.5966,2.733527 -11.33869,4.190047 -1.52818,0.59481 -2.899906,1.570887 -4.459884,2.076479 -0.718839,0.232979 -1.478077,0.483328 -2.229954,0.407887 -0.879488,-0.08824 -1.605949,-1.466458 -1.927576,-2.039408 -0.29604,-0.52737 -1.398501,-1.631521 -0.793719,-1.631521 0.671568,0 1.320192,0.2472 1.980287,0.370803"
       id="path835" />
    <path
       style="fill:none;stroke:#000000;stroke-width:0.264583px;stroke-linecap:butt;stroke-linejoin:miter;stroke-opacity:1"
       d="m 152.625,74.000002 c -0.74929,0.383574 -1.75808,0.466135 -2.24788,1.150726 -0.33686,0.470842 0.74669,4.152114 1.02048,4.783322 5.11942,11.802875 15.84807,10.286233 26.75934,8.120536 4.50567,-0.894297 10.16602,-2.756167 13.83319,-5.673254 2.49452,-1.984298 3.78412,-4.861845 2.9682,-3.089664"
       id="path837" />
    <path
       style="fill:none;stroke:#000000;stroke-width:0.264583px;stroke-linecap:butt;stroke-linejoin:miter;stroke-opacity:1"
       d="m 157.91666,84.583335 c -0.81238,0.254799 -1.58731,0.8162 -2.43713,0.764397 -0.32169,-0.0196 0.21264,-0.613259 0.37795,-0.889918 1.20769,-2.021163 3.19431,-3.404185 5.36699,-4.227121 5.794,-2.194568 11.86655,-2.77401 17.27261,0.889921 2.98868,2.025555 4.96316,4.170672 8.08829,5.821569 0.9549,0.504441 3.98419,1.59368 3.08129,1.001159"
       id="path839" />
    <path
       style="fill:none;stroke:#000000;stroke-width:0.264583px;stroke-linecap:butt;stroke-linejoin:miter;stroke-opacity:1"
       d="m 41.499998,105.75 c 0.172334,1.25798 0.08851,2.57869 0.517002,3.77393 0.47082,1.31331 5.422704,5.13788 5.555953,5.22829 8.942261,6.06729 21.820547,4.81428 31.030222,0.29663 2.599809,-1.27529 4.933032,-3.76577 6.878825,-5.82156 0.130382,-0.13776 0.492022,-0.48204 0.302353,-0.48204 -0.669896,0 -1.300681,0.32136 -1.951022,0.48204"
       id="path841" />
    <path
       style="fill:none;stroke:#000000;stroke-width:0.264583px;stroke-linecap:butt;stroke-linejoin:miter;stroke-opacity:1"
       d="m 52.083332,116.33333 c 0.449318,-1.24392 0.310054,-2.912 1.347954,-3.73176 3.462562,-2.7348 10.398691,-2.07111 14.059979,-0.48203 2.316896,1.00558 7.377827,6.95971 9.713487,6.78565 0.963519,-0.0718 0.891275,-1.71457 1.336913,-2.57186"
       id="path843" />
    <circle
       style="fill:#8aa678;fill-rule:evenodd;stroke:#181c57;stroke-width:1;stroke-linejoin:round"
       id="path847"
       sodipodi:type="arc"
       sodipodi:cx="97.0625"
       sodipodi:cy="87.229172"
       sodipodi:rx="2.6458333"
       sodipodi:ry="2.6458333"
       sodipodi:start="5.0507036"
       sodipodi:end="5.0265308"
       sodipodi:open="true"
       sodipodi:arc-type="arc"
       d="m 97.940646,84.733317 a 2.6458333,2.6458333 0 0 1 1.62297,3.358902 2.6458333,2.6458333 0 0 1 -3.349033,1.643239 2.6458333,2.6458333 0 0 1 -1.663448,-3.339042 2.6458333,2.6458333 0 0 1 3.328929,-1.683595" />
    <circle
       style="fill:#8aa678;fill-rule:evenodd;stroke:#181c57;stroke-width:1;stroke-linejoin:round"
       id="path849"
       sodipodi:type="arc"
       sodipodi:cx="94.416664"
       sodipodi:cy="87.229172"
       sodipodi:rx="10.583333"
       sodipodi:ry="7.9375"
       sodipodi:start="5.0507036"
       sodipodi:end="5.0265308"
       sodipodi:open="true"
       sodipodi:arc-type="arc"
       d="M 97.929248,79.741606 A 10.583333,7.9375 0 0 1 104.42113,89.818313 10.583333,7.9375 0 0 1 91.024997,94.748031 10.583333,7.9375 0 0 1 84.371206,84.730906 10.583333,7.9375 0 0 1 97.686918,79.680118" />
    <circle
       style="fill:#8aa678;fill-rule:evenodd;stroke:#181c57;stroke-width:1;stroke-linejoin:round"
       id="path851"
       sodipodi:type="arc"
       sodipodi:cx="102.35416"
       sodipodi:cy="111.04167"
       sodipodi:rx="7.9375"
       sodipodi:ry="10.583333"
       sodipodi:start="5.0507036"
       sodipodi:end="5.0265308"
       sodipodi:open="true"
       sodipodi:arc-type="arc"
       d="m 104.98859,101.05825 a 7.9375,10.583333 0 0 1 4.86892,13.43561 7.9375,10.583333 0 0 1 -10.047104,6.57296 7.9375,10.583333 0 0 1 -4.990344,-13.35617 7.9375,10.583333 0 0 1 9.986788,-6.73438" />
    <circle
       style="fill:#8aa678;fill-rule:evenodd;stroke:#181c57;stroke-width:1;stroke-linejoin:round"
       id="path853"
       sodipodi:type="arc"
       sodipodi:cx="126.16666"
       sodipodi:cy="103.10417"
       sodipodi:rx="10.583333"
       sodipodi:ry="7.9375"
       sodipodi:start="5.0507036"
       sodipodi:end="5.0265308"
       sodipodi:open="true"
       sodipodi:arc-type="arc"
       d="m 129.67924,95.616606 a 10.583333,7.9375 0 0 1 6.49188,10.076704 10.583333,7.9375 0 0 1 -13.39613,4.92972 10.583333,7.9375 0 0 1 -6.65379,-10.01712 10.583333,7.9375 0 0 1 13.31571,-5.050792" />
    <circle
       style="fill:#8aa678;fill-rule:evenodd;stroke:#181c57;stroke-width:1;stroke-linejoin:round"
       id="path855"
       sodipodi:type="arc"
       sodipodi:cx="120.875"
       sodipodi:cy="84.583336"
       sodipodi:rx="10.583333"
       sodipodi:ry="5.2916665"
       sodipodi:start="5.0507036"
       sodipodi:end="5.0265308"
       sodipodi:open="true"
       sodipodi:arc-type="arc"
       d="m 124.38758,79.591625 a 10.583333,5.2916665 0 0 1 6.49189,6.717805 10.583333,5.2916665 0 0 1 -13.39614,3.286478 10.583333,5.2916665 0 0 1 -6.65379,-6.678083 10.583333,5.2916665 0 0 1 13.31571,-3.367192" />
  </g>
</svg>
