<?xml version="1.0" encoding="UTF-8" standalone="no"?>
<svg
   xmlns:dc="http://purl.org/dc/elements/1.1/"
   xmlns:cc="http://creativecommons.org/ns#"
   xmlns:rdf="http://www.w3.org/1999/02/22-rdf-syntax-ns#"
   xmlns:svg="http://www.w3.org/2000/svg"
   xmlns="http://www.w3.org/2000/svg"
   xmlns:sodipodi="http://sodipodi.sourceforge.net/DTD/sodipodi-0.dtd"
   xmlns:inkscape="http://www.inkscape.org/namespaces/inkscape"
   width="210mm"
   height="148mm"
   viewBox="0 0 210 148"
   version="1.1"
   id="svg8"
   sodipodi:docname="2021-02-22_14-03.svg"
   inkscape:version="1.0.2 (e86c870879, 2021-01-15)">
  <defs
     id="defs2" />
  <sodipodi:namedview
     id="base"
     pagecolor="#ffffff"
     bordercolor="#000000"
     borderopacity="1"
     inkscape:pageopacity="0.0"
     inkscape:pageshadow="2"
     inkscape:zoom="0.7"
     inkscape:cx="489.35776"
     inkscape:cy="501.819"
     inkscape:document-units="mm"
     inkscape:current-layer="layer1"
     inkscape:document-rotation="0"
     showgrid="true"
     showborder="true"
     borderlayer="true"
     inkscape:showpageshadow="false"
     objecttolerance="10000"
     guidetolerance="10000"
     inkscape:snap-perpendicular="true"
     inkscape:snap-tangential="true"
     inkscape:window-width="943"
     inkscape:window-height="1027"
     inkscape:window-x="488"
     inkscape:window-y="41"
     inkscape:window-maximized="0">
    <sodipodi:guide
       position="0,148"
       orientation="0,793.70079"
       id="guide10" />
    <sodipodi:guide
       position="210,148"
       orientation="559.37008,0"
       id="guide12" />
    <sodipodi:guide
       position="210,0"
       orientation="0,-793.70079"
       id="guide14" />
    <sodipodi:guide
       position="0,0"
       orientation="-559.37008,0"
       id="guide16" />
    <inkscape:grid
       type="xygrid"
       id="grid20"
       dotted="true"
       units="px"
       originx="105"
       originy="74.000003" />
  </sodipodi:namedview>
  <metadata
     id="metadata5">
    <rdf:RDF>
      <cc:Work
         rdf:about="">
        <dc:format>image/svg+xml</dc:format>
        <dc:type
           rdf:resource="http://purl.org/dc/dcmitype/StillImage" />
        <dc:title />
        <cc:license
           rdf:resource="" />
      </cc:Work>
    </rdf:RDF>
  </metadata>
  <g
     inkscape:label="Layer 1"
     inkscape:groupmode="layer"
     id="layer1">
    <path
       style="fill:none;stroke:#000000;stroke-width:0.264583px;stroke-linecap:butt;stroke-linejoin:miter;stroke-opacity:1"
       d="m 147.33333,26.375003 c -0.59116,-4.118885 -4.45499,-5.524099 -8.14355,-6.260656 -7.2845,-1.454616 -10.5873,0.717933 -16.4033,4.597923 -4.77672,3.186661 -6.53074,4.65952 -10.31822,9.010455 -1.71902,1.97476 -3.82319,3.532833 -5.40477,5.636167 -3.071,4.084098 -5.01807,9.144881 -8.466242,12.940946 -3.365664,3.705232 -8.722688,8.040385 -13.001699,10.641964 -5.872094,3.57015 -15.912296,7.933315 -22.488406,9.529583 -7.364539,1.787649 -15.029844,2.410211 -22.299443,4.597921 -3.409248,1.02598 -6.456568,2.750286 -9.675672,4.227121 -2.573321,1.180571 -5.242404,2.198722 -7.521343,3.930489 -11.06615,8.40918 -21.4195146,17.846744 -19.9561,33.001254 0.5052036,5.23167 3.5954335,10.22647 6.727625,14.27581 3.380911,4.37088 6.940392,7.26969 11.452074,10.45658 10.596309,7.48488 21.972048,8.82145 34.658623,8.67673 15.839995,-0.18069 31.932083,-1.02517 47.584723,-3.37429 15.74292,-2.36267 30.93725,-7.83368 45.50596,-14.1275 12.58586,-5.43722 24.98063,-11.4401 36.85076,-18.31754 15.18868,-8.80017 30.99465,-18.657614 39.19409,-34.892333 2.88494,-5.712132 5.23399,-13.315281 4.3087,-19.837821 -1.50475,-10.60736 -9.46381,-19.400932 -16.59228,-26.808879 -1.93981,-2.015858 -3.71955,-4.116062 -6.0473,-5.710328 -1.98891,-1.362194 -4.25199,-2.115601 -6.31191,-3.337201 -3.53469,-2.096193 -5.9755,-4.165923 -10.01581,-5.265372 -5.84965,-1.591806 -11.9212,-1.937532 -17.91516,-2.373119 -3.48759,-0.253447 -6.87399,-0.828142 -10.356,0 -1.56747,0.372796 -3.31499,1.216736 -4.68666,2.076481 -1.78825,1.120845 -3.01122,3.010931 -4.80005,4.190047 -2.57482,1.697206 -6.07649,2.440035 -8.95756,3.22596 -1.32754,0.362141 -4.656,2.204141 -4.11974,-0.710392"
       id="path835" />
    <path
       style="fill:none;stroke:#000000;stroke-width:0.264583px;stroke-linecap:butt;stroke-linejoin:miter;stroke-opacity:1"
       d="m 89.124998,63.416669 c -2.508912,2.408809 -3.530968,5.630436 -5.116862,8.609745 -8.019391,15.065483 -9.530588,25.450823 -8.428426,42.345426 0.373261,5.72156 0.849847,11.63925 2.98586,17.01973 2.607307,6.56764 5.334399,13.98684 12.28358,16.90851 1.789327,0.75229 3.764304,1.62632 5.707131,1.81693 1.512634,0.14841 4.028259,-0.98922 3.15205,-0.25956"
       id="path837" />
    <path
       style="fill:none;stroke:#000000;stroke-width:0.264583px;stroke-linecap:butt;stroke-linejoin:miter;stroke-opacity:1"
       d="m 157.91666,63.416669 c -0.28318,-0.207727 -0.50461,-0.55712 -0.84954,-0.623184 -0.80756,-0.154667 -2.48685,0.33981 -3.28821,0.630362 -3.82567,1.387073 -4.11832,6.298409 -2.22995,9.492498 0.89637,1.516182 2.36266,2.658714 3.77957,3.633846 1.4553,1.001546 2.73694,1.965817 4.61106,1.631521 0.48434,-0.08639 1.52381,-0.733777 1.88979,-1.001162 3.70572,-2.70733 1.71031,-7.747436 0,-11.161093 -0.24914,-0.497266 -1.0503,-2.553115 -1.7008,-2.706854 -0.71833,-0.169773 -1.63863,0.569005 -2.21192,0.104066 -0.64267,-0.521219 -0.25068,-1.663928 -0.62276,-2.40302 -0.27004,-0.536403 -3.59701,0.507738 -2.83468,2.40302"
       id="path845" />
    <path
       style="fill:none;stroke:#000000;stroke-width:0.264583px;stroke-linecap:butt;stroke-linejoin:miter;stroke-opacity:1"
       d="m 157.91666,47.541669 c -2.74211,0.173286 -5.45058,-0.394497 -8.1441,0.38272 -2.46013,0.709869 -4.27929,2.840548 -6.00951,4.597921 -4.64202,4.714854 -9.56853,10.791949 -8.16386,17.835509 0.45826,2.297922 2.04747,4.208918 3.21263,6.155285 1.19209,1.99135 2.12824,4.073157 3.74177,5.784485 1.6102,1.707793 3.68682,2.697853 5.66936,3.893405 5.74632,3.465237 11.17057,5.775655 17.99074,4.11589 2.43753,-0.593204 4.67766,-2.224167 6.72762,-3.559689 8.58018,-5.589841 9.03814,-12.458183 7.48354,-21.914302 -0.58182,-3.538992 -1.0619,-6.678049 -2.91026,-9.826214 -4.1733,-7.108045 -10.91943,-10.636007 -19.12462,-10.159934 -1.41643,0.08218 -2.83146,0.224943 -4.23311,0.44496 -2.57143,0.403638 -3.03215,1.389158 -1.53186,-0.44496"
       id="path847" />
    <path
       style="fill:none;stroke:#000000;stroke-width:0.264583px;stroke-linecap:butt;stroke-linejoin:miter;stroke-opacity:1"
       d="m 147.33333,63.416669 c 0.16994,-5.225587 1.01127,-6.326892 5.04713,-8.743707 0.98906,-0.59228 2.22077,-1.592889 3.4772,-1.334891 1.6542,0.339677 0.50075,6.45193 1.66302,6.45193 2.47468,0 3.68381,-5.368427 6.84101,-5.56201 3.314,-0.2032 0.50179,8.051581 2.60791,8.602578 2.39007,0.625284 4.0885,-6.519135 7.52131,-2.89224 2.178,2.301137 -0.22733,10.824401 -1.36065,13.089247 -0.23338,0.466384 -1.40488,2.283868 -2.22993,1.705692 -0.32318,-0.226478 1.01019,-0.747114 1.51181,-0.333729 1.45911,1.202454 -0.48402,3.933777 -1.17163,4.894566 -0.97654,1.364515 -2.46617,3.117146 -4.19534,3.559686 -2.19185,0.560959 -7.38902,-1.036743 -4.1575,-2.150639 2.20444,-0.759865 3.0569,1.71913 0.8315,2.743927 -2.23545,1.029425 -4.24958,1.187585 -6.65205,0.964076 -2.5291,-0.235289 -5.88902,-0.578363 -7.78591,-2.52144 -0.75715,-0.775597 -1.53467,-5.563724 -1.02047,-5.339524 1.5066,0.656892 -0.38068,3.705767 -2.91026,3.3372 -5.24622,-0.764392 -5.11101,-5.70947 -4.23313,-9.789131 0.137,-0.636656 0.17741,-2.179878 0.71812,-1.816923 0.74758,0.501825 1.05759,1.832499 1.24727,2.632684 0.59926,2.52807 -2.62688,0.329488 -2.98586,-1.854007 -0.42359,-2.576541 1.84178,-3.926956 3.89295,-4.635008 0.15873,-0.05479 0.49134,0.05669 0.49134,-0.111241 0,-0.340947 -0.32756,-0.598064 -0.49134,-0.897096"
       id="path849" />
    <text
       xml:space="preserve"
       style="font-size:10.5833px;line-height:1.25;font-family:sans-serif;word-spacing:0px;stroke-width:0.264583"
       x="152.625"
       y="74.000008"
       id="text853"><tspan
         sodipodi:role="line"
         id="tspan851"
         x="152.625"
         y="74.000008"
         style="stroke-width:0.264583">$z$</tspan></text>
    <text
       xml:space="preserve"
       style="font-size:10.5833px;line-height:1.25;font-family:sans-serif;word-spacing:0px;stroke-width:0.264583"
       x="194.95833"
       y="-10.666663"
       id="text857"><tspan
         sodipodi:role="line"
         id="tspan855"
         x="194.95833"
         y="-10.666663"
         style="stroke-width:0.264583">$X$</tspan></text>
  </g>
</svg>
