<?xml version="1.0" encoding="UTF-8" standalone="no"?>
<svg
   xmlns:dc="http://purl.org/dc/elements/1.1/"
   xmlns:cc="http://creativecommons.org/ns#"
   xmlns:rdf="http://www.w3.org/1999/02/22-rdf-syntax-ns#"
   xmlns:svg="http://www.w3.org/2000/svg"
   xmlns="http://www.w3.org/2000/svg"
   xmlns:sodipodi="http://sodipodi.sourceforge.net/DTD/sodipodi-0.dtd"
   xmlns:inkscape="http://www.inkscape.org/namespaces/inkscape"
   width="210mm"
   height="148mm"
   viewBox="0 0 210 148"
   version="1.1"
   id="svg8"
   sodipodi:docname="2021-01-25_14-25.svg"
   inkscape:version="1.0.1 (3bc2e813f5, 2020-09-07, custom)">
  <defs
     id="defs2" />
  <sodipodi:namedview
     id="base"
     pagecolor="#ffffff"
     bordercolor="#000000"
     borderopacity="1"
     inkscape:pageopacity="0.0"
     inkscape:pageshadow="2"
     inkscape:zoom="0.7"
     inkscape:cx="489.35776"
     inkscape:cy="501.819"
     inkscape:document-units="mm"
     inkscape:current-layer="layer1"
     inkscape:document-rotation="0"
     showgrid="true"
     showborder="true"
     borderlayer="true"
     inkscape:showpageshadow="false"
     objecttolerance="10000"
     guidetolerance="10000"
     inkscape:snap-perpendicular="true"
     inkscape:snap-tangential="true"
     inkscape:window-width="1920"
     inkscape:window-height="1080"
     inkscape:window-x="0"
     inkscape:window-y="0"
     inkscape:window-maximized="0">
    <sodipodi:guide
       position="0,148"
       orientation="0,793.70079"
       id="guide10" />
    <sodipodi:guide
       position="210,148"
       orientation="559.37008,0"
       id="guide12" />
    <sodipodi:guide
       position="210,0"
       orientation="0,-793.70079"
       id="guide14" />
    <sodipodi:guide
       position="0,0"
       orientation="-559.37008,0"
       id="guide16" />
    <inkscape:grid
       type="xygrid"
       id="grid20"
       dotted="true"
       units="px"
       originx="105"
       originy="74.000003" />
  </sodipodi:namedview>
  <metadata
     id="metadata5">
    <rdf:RDF>
      <cc:Work
         rdf:about="">
        <dc:format>image/svg+xml</dc:format>
        <dc:type
           rdf:resource="http://purl.org/dc/dcmitype/StillImage" />
        <dc:title />
        <cc:license
           rdf:resource="" />
      </cc:Work>
    </rdf:RDF>
  </metadata>
  <g
     inkscape:label="Layer 1"
     inkscape:groupmode="layer"
     id="layer1">
    <path
       style="opacity:0.228517;fill:#3e8213;fill-opacity:0.452136;fill-rule:evenodd;stroke:#bc2122;stroke-width:1;stroke-linejoin:round;stroke-dasharray:1, 1;stroke-opacity:0.981966"
       id="path835"
       sodipodi:type="arc"
       sodipodi:cx="105"
       sodipodi:cy="132.20834"
       sodipodi:rx="63.5"
       sodipodi:ry="5.2916665"
       sodipodi:start="4.8617717"
       sodipodi:end="4.8589443"
       sodipodi:open="true"
       sodipodi:arc-type="arc"
       d="m 114.45056,126.97561 a 63.5,5.2916665 0 0 1 53.34891,6.01658 63.5,5.2916665 0 0 1 -72.161253,4.45 63.5,5.2916665 0 0 1 -53.450925,-6.0103 63.5,5.2916665 0 0 1 72.085688,-4.45849" />
    <path
       style="fill:none;stroke:#000000;stroke-width:0.264583px;stroke-linecap:butt;stroke-linejoin:miter;stroke-opacity:1"
       d="m 41.499998,95.166668 c 0.03502,0.715717 -0.08868,1.457259 0.105043,2.147147 0.172241,0.613381 8.139393,-0.430879 8.957556,-0.44496 4.567163,-0.07859 8.872945,-0.938059 13.341887,-1.77985 2.702544,-0.509063 5.488191,-0.579443 8.201649,-1.075319 4.334819,-0.792176 8.619828,-1.606802 12.926097,-2.52144 3.643003,-0.773763 7.103491,-2.159217 10.733979,-3.003486 3.65629,-0.850268 7.427181,-1.346854 11.111911,-2.076479 5.38485,-1.066277 10.85646,-2.022518 16.17654,-3.374287 5.56817,-1.414807 9.54635,-2.701848 14.58912,-5.710328 2.49351,-1.487611 5.46794,-2.805877 7.67252,-4.709165 3.11153,-2.686298 4.80757,-9.82867 1.47404,-12.978016 -4.11265,-3.885425 -17.20714,-5.401405 -22.60182,-6.266529 -4.74328,-0.760661 -9.48805,-1.826448 -14.28675,-2.22481 -12.389234,-1.028483 -24.958059,0.462476 -36.926343,3.74509 -2.744314,0.7527 -6.008804,1.150374 -8.541814,2.521439 -2.025896,1.096577 -6.882061,5.477396 -7.218968,8.23178 -0.117438,0.960126 0.523346,2.008452 0.982684,2.780999 1.012584,1.703035 2.546474,3.45972 4.15753,4.635008 2.183037,1.592553 9.898776,2.536187 12.472545,2.595599 2.601825,0.06006 5.17915,0.491458 7.785907,0.556202 5.802622,0.144116 11.795337,-0.06551 17.574989,-0.519118 10.74689,-0.843447 21.3878,-2.656652 32.1263,-3.559688 2.29374,-0.192887 4.62048,0.06897 6.91661,-0.111242 5.74677,-0.451022 20.02431,-2.920738 24.18921,-7.749722 1.62762,-1.887151 2.22995,-5.896118 2.22995,-8.343022 0,-1.206314 -0.41911,-2.316736 -0.86932,-3.41136 -1.76983,-4.303101 -3.94006,-4.81512 -7.10558,-7.564334 -3.21138,-2.789044 -6.44342,-5.52079 -10.39379,-7.230605 -2.1672,-0.938019 -4.47078,-1.403995 -6.68983,-2.187725 -1.42585,-0.503582 -2.36473,-1.133719 -3.74177,-1.779837 -3.34051,-1.567391 -6.98898,-2.947315 -10.5072,-4.041732 -9.8241,-3.055993 -20.3463,-2.951806 -30.501093,-2.818085 -6.942373,0.09142 -15.142623,-0.215088 -21.467913,3.077644 -2.040287,1.062103 -3.332366,2.983076 -5.215813,4.264205 -2.156804,1.467069 -4.575739,2.456029 -6.689815,4.004646 -2.890782,2.117576 -5.25354,5.012576 -7.861506,7.453092 -3.108979,2.909356 -8.319156,8.30816 -10.393791,12.088098 -0.687647,1.252871 -0.84608,2.634523 -1.322848,3.967562 -0.555977,1.554501 -1.531938,2.9283 -2.078779,4.486691 -0.814538,2.321287 -1.622676,8.237952 -1.851977,11.049851 -0.323501,3.96707 0.0021,8.35133 1.058272,12.19934 0.497899,1.814272 1.605997,3.927176 1.482381,5.676746 z"
       id="path837" />
    <path
       style="fill:none;stroke:#000000;stroke-width:0.264583px;stroke-linecap:butt;stroke-linejoin:miter;stroke-opacity:1"
       d="m 20.333333,100.45833 c -0.896911,1.18899 -2.179834,2.168 -2.690734,3.56697 -1.683899,4.61094 1.799933,14.40043 4.119719,18.50296 1.359786,2.40477 4.080524,3.33915 6.349671,4.635 0.654683,0.37387 1.535515,0.77055 2.078765,1.33487 0.134697,0.13992 0.191239,0.69896 0.264565,0.51912 0.520123,-1.27562 -0.03028,-3.21191 0.11339,-4.59791 0.194726,-1.87861 0.07978,-0.26498 0.264565,-1.59445 0.01021,-0.0735 -0.03568,-0.2875 0,-0.22249 0.880671,1.60454 1.052195,3.55355 1.776399,5.2283 0.418187,0.96707 1.560748,2.65487 1.549625,2.66975 -0.871519,1.16591 -2.901291,0.0512 -4.006342,0.59329 -0.750149,0.36797 0.258334,0.63513 -0.226777,1.11459"
       id="path839" />
    <text
       xml:space="preserve"
       style="font-size:10.5833px;line-height:1.25;font-family:sans-serif;word-spacing:0px;stroke-width:0.264583"
       x="184.375"
       y="58.125"
       id="text843"><tspan
         sodipodi:role="line"
         id="tspan841"
         x="184.375"
         y="58.125"
         style="stroke-width:0.264583">$P$</tspan></text>
    <text
       xml:space="preserve"
       style="font-size:10.5833px;line-height:1.25;font-family:sans-serif;word-spacing:0px;stroke-width:0.264583"
       x="189.66667"
       y="132.20834"
       id="text847"><tspan
         sodipodi:role="line"
         id="tspan845"
         x="189.66667"
         y="132.20834"
         style="stroke-width:0.264583">$S^1$</tspan></text>
  </g>
</svg>
