<?xml version="1.0" encoding="UTF-8" standalone="no"?>
<svg
   xmlns:dc="http://purl.org/dc/elements/1.1/"
   xmlns:cc="http://creativecommons.org/ns#"
   xmlns:rdf="http://www.w3.org/1999/02/22-rdf-syntax-ns#"
   xmlns:svg="http://www.w3.org/2000/svg"
   xmlns="http://www.w3.org/2000/svg"
   xmlns:xlink="http://www.w3.org/1999/xlink"
   xmlns:sodipodi="http://sodipodi.sourceforge.net/DTD/sodipodi-0.dtd"
   xmlns:inkscape="http://www.inkscape.org/namespaces/inkscape"
   width="210mm"
   height="148mm"
   viewBox="0 0 210 148"
   version="1.1"
   id="svg8"
   sodipodi:docname="2021-04-05_14-06.svg"
   inkscape:version="1.0.2 (e86c870879, 2021-01-15)">
  <defs
     id="defs2">
    <linearGradient
       inkscape:collect="always"
       id="linearGradient857">
      <stop
         style="stop-color:#e0e1f3;stop-opacity:1;"
         offset="0"
         id="stop853" />
      <stop
         style="stop-color:#e0e1f3;stop-opacity:0;"
         offset="1"
         id="stop855" />
    </linearGradient>
    <linearGradient
       inkscape:collect="always"
       xlink:href="#linearGradient857"
       id="linearGradient859"
       x1="14.782326"
       y1="100.45839"
       x2="94.675928"
       y2="100.45839"
       gradientUnits="userSpaceOnUse" />
  </defs>
  <sodipodi:namedview
     id="base"
     pagecolor="#ffffff"
     bordercolor="#000000"
     borderopacity="1"
     inkscape:pageopacity="0.0"
     inkscape:pageshadow="2"
     inkscape:zoom="0.7"
     inkscape:cx="489.35776"
     inkscape:cy="501.819"
     inkscape:document-units="mm"
     inkscape:current-layer="layer1"
     inkscape:document-rotation="0"
     showgrid="true"
     showborder="true"
     borderlayer="true"
     inkscape:showpageshadow="false"
     objecttolerance="10000"
     guidetolerance="10000"
     inkscape:snap-perpendicular="true"
     inkscape:snap-tangential="true"
     inkscape:window-width="1920"
     inkscape:window-height="1080"
     inkscape:window-x="0"
     inkscape:window-y="0"
     inkscape:window-maximized="0">
    <sodipodi:guide
       position="0,148"
       orientation="0,793.70079"
       id="guide10" />
    <sodipodi:guide
       position="210,148"
       orientation="559.37008,0"
       id="guide12" />
    <sodipodi:guide
       position="210,0"
       orientation="0,-793.70079"
       id="guide14" />
    <sodipodi:guide
       position="0,0"
       orientation="-559.37008,0"
       id="guide16" />
    <inkscape:grid
       type="xygrid"
       id="grid20"
       dotted="true"
       units="px"
       originx="105"
       originy="74.000003" />
  </sodipodi:namedview>
  <metadata
     id="metadata5">
    <rdf:RDF>
      <cc:Work
         rdf:about="">
        <dc:format>image/svg+xml</dc:format>
        <dc:type
           rdf:resource="http://purl.org/dc/dcmitype/StillImage" />
        <dc:title />
        <cc:license
           rdf:resource="" />
      </cc:Work>
    </rdf:RDF>
  </metadata>
  <g
     inkscape:label="Layer 1"
     inkscape:groupmode="layer"
     id="layer1">
    <path
       style="fill:none;stroke:#000000;stroke-width:0.264583px;stroke-linecap:butt;stroke-linejoin:miter;stroke-opacity:1"
       d="m -43.166667,111.04167 c -1.261168,-0.27467 -2.511399,-1.04247 -3.783505,-0.824 -1.075507,0.18471 -1.775933,1.26911 -2.645695,1.92816 -5.753444,4.35958 -9.960605,10.97532 -13.984386,16.87142 -3.098657,4.54049 -6.313871,9.64667 -8.088272,14.86911 -4.085937,12.02574 -4.067805,27.62673 -3.817361,40.15768 0.123881,6.19842 -0.09294,12.68622 1.096076,18.79959 2.817622,14.48686 12.19092,32.79768 24.831744,41.01055 8.147769,5.2937 15.340967,8.36434 24.378194,11.56897 4.520498,1.60298 8.977073,3.49836 13.606427,4.78332 9.4484557,2.62261 20.2034164,3.07176 29.934162,1.89109 7.405758,-0.89858 14.090047,-3.31505 21.20336,-5.41369 4.748228,-1.40087 9.886267,-2.37744 14.362332,-4.56084 6.12009,-2.98533 13.178959,-6.15198 19.162405,-9.75205 17.329592,-10.42673 33.357476,-22.8333 50.608366,-33.37204 17.32439,-10.58364 35.39043,-19.79533 54.19898,-27.43924 2.46867,-1.00328 8.79418,-3.06511 11.33869,-3.9305 6.60102,-2.24502 13.07254,-4.60876 19.84271,-6.34068 5.50655,-1.40866 11.19842,-2.12031 16.78127,-3.15182 6.89171,-1.27334 13.65281,-2.80622 20.48526,-4.33835 16.28644,-3.65212 30.16692,-6.65929 45.0146,-14.90618 17.49234,-9.71584 29.24085,-26.79011 41.12167,-42.30834 10.26583,-13.408815 19.83295,-29.747071 17.4616,-47.351232 C 347.50864,41.168637 335.35075,26.860815 321.9732,15.478141 312.90831,7.7650307 302.99649,3.0033962 291.88783,-0.91124121 286.0812,-2.9574625 283.87384,-3.9795555 278.3192,-5.2866893 266.20271,-8.1379802 253.38219,-8.929158 240.97708,-9.180093 c -13.29319,-0.2688995 -26.44322,0.3124345 -39.68543,1.4461209 -4.94128,0.4230307 -11.22445,0.8670592 -16.28991,1.6686009 -7.54411,1.1937542 -14.95714,3.1878918 -22.41283,4.8204075 C 126.40746,6.6774168 91.88711,20.112666 58.953235,36.947496 39.204669,47.042382 20.202727,58.358817 2.9400891,72.321858 c -2.5351917,2.050614 -5.322575,3.795737 -7.7859082,5.932813 -2.3470486,2.036191 -2.3150494,2.461014 -4.7244483,4.783323 -1.6227546,1.564097 -3.7125886,2.584815 -5.2913896,4.190047 -3.001472,3.051718 -1.559585,2.007934 -3.779566,4.597921 -1.259895,1.469885 -2.828864,2.571541 -4.195319,3.930489 -1.954046,1.943312 -3.530429,4.333459 -5.593754,6.155289 -1.418614,1.25257 -3.10098,2.20771 -4.68666,3.22597 -2.249884,1.44477 -4.525312,3.13807 -6.916613,4.33836 -1.142238,0.57334 -2.008831,0.82254 -3.133098,1.5656 -0.71246,0.47088 -2.120493,0.58388 -2.120493,1.43789 0,0.85401 1.413664,-0.9586 2.120493,-1.43789"
       id="path835" />
    <path
       style="fill:none;stroke:#3139ae;stroke-width:0.264583px;stroke-linecap:butt;stroke-linejoin:miter;stroke-opacity:1"
       d="m 78.541665,26.375003 c -4.733113,-0.69172 -2.644347,4.452699 -4.621345,5.863317 -0.338384,0.24144 -0.812887,0.255003 -1.133882,0.519128 -3.4807,2.864033 -6.99261,10.418493 -8.655201,14.238737 -7.164324,16.461912 -8.983123,36.273518 -9.637887,54.025635 -0.739294,20.04398 1.560504,39.71887 8.050474,58.69771 1.915679,5.60209 3.382452,11.284 6.198494,16.5377 1.217444,2.27131 2.971739,4.15442 4.422098,6.26653 1.182645,1.72226 1.313937,2.29671 2.721271,4.04175 1.797434,2.22873 4.455779,3.79881 6.500847,5.78448 1.525828,1.48151 2.049661,2.2097 3.552801,3.44843 2.1951,1.80898 4.772975,3.03645 7.030003,4.74625 2.173756,1.64672 3.828952,3.61861 6.274073,4.93164 2.403819,1.29086 5.324429,1.74016 7.861489,2.78103 4.43034,1.8176 9.02407,2.32542 13.71981,2.63268 1.25365,0.082 2.83184,-0.18405 3.96854,-0.7416 0.37421,-0.18356 2.25398,-1.58333 1.37341,-0.7787"
       id="path837" />
    <path
       style="fill:none;stroke:#000000;stroke-width:0.264583px;stroke-linecap:butt;stroke-linejoin:miter;stroke-opacity:1"
       d="m 78.541665,26.375003 c 0.601302,0.817319 1.113343,1.70852 1.803905,2.451957 1.129681,1.216175 8.671475,3.351413 10.507202,4.227121 1.748044,0.833876 3.161144,2.201394 4.837837,3.151811 2.248101,1.274316 4.756501,2.033892 6.992191,3.337201 3.6176,2.108901 6.24182,5.794147 9.6757,8.231769 4.46671,3.170809 8.23649,6.802215 11.71664,11.049862 2.32938,2.843099 1.4938,2.306955 3.96856,5.042882 1.85128,2.04665 3.30924,3.214867 4.95122,5.302451 7.8894,10.030428 14.42176,23.695805 17.61276,36.078883 1.35807,5.27015 2.28435,10.63012 3.43942,15.94443 2.53202,11.64949 4.92242,24.13448 2.68348,35.96765 -1.65,8.7205 -3.05882,21.30471 -8.05047,28.92244 -0.82739,1.26267 -1.99637,2.28107 -2.87248,3.52261 -1.483,2.10158 -2.64351,4.54229 -4.42207,6.41484 -1.82017,1.91636 -4.204,3.3268 -6.23628,5.00581 -2.09002,1.72671 -4.02279,3.59517 -6.16071,5.26536 -1.27798,0.99839 -2.68992,2.1417 -3.74176,3.37429 -0.8345,0.9779 -0.80586,1.22205 -1.20946,2.63269 -0.0342,0.11944 -0.0378,0.49504 -0.0378,0.3708 0,-0.3624 0.0252,-0.72435 0.0378,-1.08653"
       id="path839" />
    <path
       style="fill:none;stroke:#dd2a2b;stroke-width:0.264583px;stroke-linecap:butt;stroke-linejoin:miter;stroke-opacity:1"
       d="m 226.70833,-5.3749969 c 0.39716,-0.1188839 0.81057,-0.5203036 1.19147,-0.3566519 0.97813,0.4202501 2.13482,2.7535393 2.79687,3.5967662 1.32193,1.68369576 2.78315,3.183098 3.81734,5.0799663 1.31231,2.4069733 2.15522,5.020783 3.51502,7.4160123 7.67703,13.52274 14.99072,40.889645 10.54499,56.250435 -2.22386,7.683815 -7.34826,14.870215 -12.47257,20.913153 -0.68426,0.806926 -2.35896,3.004016 -3.09925,3.782161 -2.76563,2.907064 -13.13817,10.020615 -16.89464,11.049855 -7.21066,1.97565 -14.89755,1.10436 -22.26165,0.96409 -6.44046,-0.12269 -12.93056,0.39629 -19.35137,-0.40789 -6.56531,-0.82228 -13.02378,-3.102577 -19.35137,-4.931652 -3.74032,-1.081186 -7.62654,-1.749796 -11.45208,-2.447282 -5.86974,-1.070198 -11.72367,-1.354831 -17.65057,-1.816923 -5.16871,-0.402979 -10.32751,-0.986465 -15.49621,-1.409036 -4.01495,-0.328245 -7.98454,-0.937641 -12.019018,-1.07532 -13.881568,-0.47372 -27.561336,0.199734 -41.348435,1.853996 -7.782549,0.9338 -15.755765,1.497415 -23.244336,4.004646 -2.43296,0.814573 -4.597768,2.041986 -6.878812,3.188881 -3.47892,1.74919 -7.16739,3.21676 -10.469393,5.30246 -2.563487,1.61921 -4.755022,3.51728 -7.1811663,5.30244 -2.153867,1.58481 -4.4199701,2.95486 -6.4252606,4.74625 -1.1155041,0.99651 -2.74347936,2.98539 -3.77956587,4.04173 -1.56477603,1.59535 -3.34901733,2.96513 -4.91343663,4.56084 -2.8047881,2.86087 -6.1623386,7.23891 -8.2394496,10.67904 -4.441679,7.35635 -7.95903,17.52205 -10.167038,25.84482 -2.117777,7.98265 -2.216379,23.90882 -0.642518,31.963 1.185717,6.06787 4.250981,11.57578 6.425261,17.31638 3.008807,7.94395 6.115871,16.10364 10.4693909,23.43459 4.0961704,6.8976 11.2742148,14.22987 17.6883582,19.1333 2.2916819,1.75192 4.8768679,3.01395 7.2945669,4.56086 1.155799,0.73951 2.181139,2.07266 3.477201,2.52144 0.668605,0.23151 0.975183,0.74618 1.625212,1.07533 0.260396,0.13185 4.82735,0.94698 3.409129,0.59326"
       id="path841" />
    <circle
       style="fill:url(#linearGradient859);fill-rule:evenodd;stroke:#3139ae;stroke-width:0.499999;stroke-linejoin:round;opacity:1;fill-opacity:1"
       id="path843"
       sodipodi:type="arc"
       sodipodi:cx="54.729164"
       sodipodi:cy="100.45834"
       sodipodi:rx="39.6875"
       sodipodi:ry="37.041668"
       sodipodi:start="5.0507036"
       sodipodi:end="5.0265308"
       sodipodi:open="true"
       sodipodi:arc-type="arc"
       d="M 67.901355,65.516368 A 39.6875,37.041668 0 0 1 92.245911,112.541 39.6875,37.041668 0 0 1 42.010413,135.54635 39.6875,37.041668 0 0 1 17.058694,88.799768 39.6875,37.041668 0 0 1 66.992618,65.229424" />
    <text
       xml:space="preserve"
       style="font-size:10.5833px;line-height:1.25;font-family:sans-serif;word-spacing:0px;stroke-width:0.264583"
       x="15.041667"
       y="47.541668"
       id="text863"><tspan
         sodipodi:role="line"
         id="tspan861"
         x="15.041667"
         y="47.541668"
         style="stroke-width:0.264583">$U$</tspan></text>
    <text
       xml:space="preserve"
       style="font-size:10.5833px;line-height:1.25;font-family:sans-serif;word-spacing:0px;stroke-width:0.264583"
       x="316.66666"
       y="174.54167"
       id="text867"><tspan
         sodipodi:role="line"
         id="tspan865"
         x="316.66666"
         y="174.54167"
         style="stroke-width:0.264583">$S$</tspan></text>
    <text
       xml:space="preserve"
       style="font-size:10.5833px;line-height:1.25;font-family:sans-serif;word-spacing:0px;stroke-width:0.264583"
       x="263.75"
       y="42.25"
       id="text871"><tspan
         sodipodi:role="line"
         id="tspan869"
         x="263.75"
         y="42.25"
         style="stroke-width:0.264583">$C$</tspan></text>
    <text
       xml:space="preserve"
       style="font-size:10.5833px;line-height:1.25;font-family:sans-serif;word-spacing:0px;stroke-width:0.264583"
       x="78.541672"
       y="174.54167"
       id="text875"><tspan
         sodipodi:role="line"
         id="tspan873"
         x="78.541672"
         y="174.54167"
         style="stroke-width:0.264583">$D$</tspan></text>
  </g>
</svg>
