<?xml version="1.0" encoding="UTF-8" standalone="no"?>
<svg
   xmlns:dc="http://purl.org/dc/elements/1.1/"
   xmlns:cc="http://creativecommons.org/ns#"
   xmlns:rdf="http://www.w3.org/1999/02/22-rdf-syntax-ns#"
   xmlns:svg="http://www.w3.org/2000/svg"
   xmlns="http://www.w3.org/2000/svg"
   xmlns:sodipodi="http://sodipodi.sourceforge.net/DTD/sodipodi-0.dtd"
   xmlns:inkscape="http://www.inkscape.org/namespaces/inkscape"
   width="210mm"
   height="148mm"
   viewBox="0 0 210 148"
   version="1.1"
   id="svg8"
   sodipodi:docname="2021-01-27_14-15.svg"
   inkscape:version="1.0.1 (3bc2e813f5, 2020-09-07, custom)">
  <defs
     id="defs2">
    <marker
       style="overflow:visible;"
       id="Arrow1Lend"
       refX="0.0"
       refY="0.0"
       orient="auto"
       inkscape:stockid="Arrow1Lend"
       inkscape:isstock="true">
      <path
         transform="scale(0.8) rotate(180) translate(12.5,0)"
         style="fill-rule:evenodd;stroke:#a51d1e;stroke-width:1pt;stroke-opacity:1;fill:#a51d1e;fill-opacity:1"
         d="M 0.0,0.0 L 5.0,-5.0 L -12.5,0.0 L 5.0,5.0 L 0.0,0.0 z "
         id="path877" />
    </marker>
    <marker
       style="overflow:visible"
       id="Arrow1Lstart"
       refX="0.0"
       refY="0.0"
       orient="auto"
       inkscape:stockid="Arrow1Lstart"
       inkscape:isstock="true">
      <path
         transform="scale(0.8) translate(12.5,0)"
         style="fill-rule:evenodd;stroke:#000000;stroke-width:1pt;stroke-opacity:1;fill:#000000;fill-opacity:1"
         d="M 0.0,0.0 L 5.0,-5.0 L -12.5,0.0 L 5.0,5.0 L 0.0,0.0 z "
         id="path874" />
    </marker>
    <marker
       style="overflow:visible"
       id="Arrow1Lend-6"
       refX="0"
       refY="0"
       orient="auto"
       inkscape:stockid="Arrow1Lend"
       inkscape:isstock="true">
      <path
         transform="matrix(-0.8,0,0,-0.8,-10,0)"
         style="fill:#a51d1e;fill-opacity:1;fill-rule:evenodd;stroke:#a51d1e;stroke-width:1pt;stroke-opacity:1"
         d="M 0,0 5,-5 -12.5,0 5,5 Z"
         id="path877-7" />
    </marker>
    <marker
       style="overflow:visible"
       id="Arrow1Lend-3"
       refX="0"
       refY="0"
       orient="auto"
       inkscape:stockid="Arrow1Lend"
       inkscape:isstock="true">
      <path
         transform="matrix(-0.8,0,0,-0.8,-10,0)"
         style="fill:#a51d1e;fill-opacity:1;fill-rule:evenodd;stroke:#a51d1e;stroke-width:1pt;stroke-opacity:1"
         d="M 0,0 5,-5 -12.5,0 5,5 Z"
         id="path877-5" />
    </marker>
    <marker
       style="overflow:visible"
       id="Arrow1Lend-2"
       refX="0"
       refY="0"
       orient="auto"
       inkscape:stockid="Arrow1Lend"
       inkscape:isstock="true">
      <path
         transform="matrix(-0.8,0,0,-0.8,-10,0)"
         style="fill:#a51d1e;fill-opacity:1;fill-rule:evenodd;stroke:#a51d1e;stroke-width:1pt;stroke-opacity:1"
         d="M 0,0 5,-5 -12.5,0 5,5 Z"
         id="path877-9" />
    </marker>
    <marker
       style="overflow:visible"
       id="Arrow1Lend-27"
       refX="0"
       refY="0"
       orient="auto"
       inkscape:stockid="Arrow1Lend"
       inkscape:isstock="true">
      <path
         transform="matrix(-0.8,0,0,-0.8,-10,0)"
         style="fill:#a51d1e;fill-opacity:1;fill-rule:evenodd;stroke:#a51d1e;stroke-width:1pt;stroke-opacity:1"
         d="M 0,0 5,-5 -12.5,0 5,5 Z"
         id="path877-0" />
    </marker>
    <marker
       style="overflow:visible"
       id="Arrow1Lend-36"
       refX="0"
       refY="0"
       orient="auto"
       inkscape:stockid="Arrow1Lend"
       inkscape:isstock="true">
      <path
         transform="matrix(-0.8,0,0,-0.8,-10,0)"
         style="fill:#a51d1e;fill-opacity:1;fill-rule:evenodd;stroke:#a51d1e;stroke-width:1pt;stroke-opacity:1"
         d="M 0,0 5,-5 -12.5,0 5,5 Z"
         id="path877-06" />
    </marker>
    <marker
       style="overflow:visible"
       id="Arrow1Lend-61"
       refX="0"
       refY="0"
       orient="auto"
       inkscape:stockid="Arrow1Lend"
       inkscape:isstock="true">
      <path
         transform="matrix(-0.8,0,0,-0.8,-10,0)"
         style="fill:#a51d1e;fill-opacity:1;fill-rule:evenodd;stroke:#a51d1e;stroke-width:1pt;stroke-opacity:1"
         d="M 0,0 5,-5 -12.5,0 5,5 Z"
         id="path877-8" />
    </marker>
    <marker
       style="overflow:visible"
       id="Arrow1Lend-61-9"
       refX="0"
       refY="0"
       orient="auto"
       inkscape:stockid="Arrow1Lend"
       inkscape:isstock="true">
      <path
         transform="matrix(-0.8,0,0,-0.8,-10,0)"
         style="fill:#a51d1e;fill-opacity:1;fill-rule:evenodd;stroke:#a51d1e;stroke-width:1pt;stroke-opacity:1"
         d="M 0,0 5,-5 -12.5,0 5,5 Z"
         id="path877-8-2" />
    </marker>
    <marker
       style="overflow:visible"
       id="Arrow1Lend-61-5"
       refX="0"
       refY="0"
       orient="auto"
       inkscape:stockid="Arrow1Lend"
       inkscape:isstock="true">
      <path
         transform="matrix(-0.8,0,0,-0.8,-10,0)"
         style="fill:#a51d1e;fill-opacity:1;fill-rule:evenodd;stroke:#a51d1e;stroke-width:1pt;stroke-opacity:1"
         d="M 0,0 5,-5 -12.5,0 5,5 Z"
         id="path877-8-9" />
    </marker>
    <marker
       style="overflow:visible"
       id="Arrow1Lend-61-9-7"
       refX="0"
       refY="0"
       orient="auto"
       inkscape:stockid="Arrow1Lend"
       inkscape:isstock="true">
      <path
         transform="matrix(-0.8,0,0,-0.8,-10,0)"
         style="fill:#a51d1e;fill-opacity:1;fill-rule:evenodd;stroke:#a51d1e;stroke-width:1pt;stroke-opacity:1"
         d="M 0,0 5,-5 -12.5,0 5,5 Z"
         id="path877-8-2-3" />
    </marker>
    <marker
       style="overflow:visible"
       id="Arrow1Lend-61-9-7-1"
       refX="0"
       refY="0"
       orient="auto"
       inkscape:stockid="Arrow1Lend"
       inkscape:isstock="true">
      <path
         transform="matrix(-0.8,0,0,-0.8,-10,0)"
         style="fill:#a51d1e;fill-opacity:1;fill-rule:evenodd;stroke:#a51d1e;stroke-width:1pt;stroke-opacity:1"
         d="M 0,0 5,-5 -12.5,0 5,5 Z"
         id="path877-8-2-3-2" />
    </marker>
  </defs>
  <sodipodi:namedview
     id="base"
     pagecolor="#ffffff"
     bordercolor="#000000"
     borderopacity="1"
     inkscape:pageopacity="0.0"
     inkscape:pageshadow="2"
     inkscape:zoom="1.6119879"
     inkscape:cx="494.30264"
     inkscape:cy="598.35213"
     inkscape:document-units="mm"
     inkscape:current-layer="layer1"
     inkscape:document-rotation="0"
     showgrid="true"
     showborder="true"
     borderlayer="true"
     inkscape:showpageshadow="false"
     objecttolerance="10000"
     guidetolerance="10000"
     inkscape:snap-perpendicular="true"
     inkscape:snap-tangential="true"
     inkscape:window-width="1920"
     inkscape:window-height="1080"
     inkscape:window-x="0"
     inkscape:window-y="0"
     inkscape:window-maximized="0">
    <sodipodi:guide
       position="0,148"
       orientation="0,793.70079"
       id="guide10" />
    <sodipodi:guide
       position="247.875,-90.04167"
       orientation="559.37008,0"
       id="guide12" />
    <sodipodi:guide
       position="210,0"
       orientation="0,-793.70079"
       id="guide14" />
    <sodipodi:guide
       position="0,0"
       orientation="-559.37008,0"
       id="guide16" />
    <inkscape:grid
       type="xygrid"
       id="grid20"
       dotted="true"
       units="px"
       originx="105"
       originy="74.000003" />
  </sodipodi:namedview>
  <metadata
     id="metadata5">
    <rdf:RDF>
      <cc:Work
         rdf:about="">
        <dc:format>image/svg+xml</dc:format>
        <dc:type
           rdf:resource="http://purl.org/dc/dcmitype/StillImage" />
        <dc:title />
        <cc:license
           rdf:resource="" />
      </cc:Work>
    </rdf:RDF>
  </metadata>
  <g
     inkscape:label="Layer 1"
     inkscape:groupmode="layer"
     id="layer1">
    <path
       style="opacity:0.228517;fill:#8aa678;fill-opacity:0.452136;fill-rule:evenodd;stroke:#a51d1e;stroke-width:0.264999;stroke-linejoin:round;stroke-opacity:0.981966"
       id="path835"
       sodipodi:type="arc"
       sodipodi:cx="97.0625"
       sodipodi:cy="118.97917"
       sodipodi:rx="87.3125"
       sodipodi:ry="87.3125"
       sodipodi:start="4.8617717"
       sodipodi:end="4.8589443"
       sodipodi:open="true"
       sodipodi:arc-type="arc"
       d="M 110.05702,32.639059 A 87.3125,87.3125 0 0 1 183.41178,131.91266 87.3125,87.3125 0 0 1 84.190049,205.33757 87.3125,87.3125 0 0 1 10.695026,106.16777 87.3125,87.3125 0 0 1 109.81285,32.602664" />
    <path
       style="opacity:0.228517;fill:#2b5d0a;fill-opacity:0.452136;fill-rule:evenodd;stroke:#2b5d0a;stroke-width:0.103;stroke-linejoin:round;stroke-opacity:1;stroke-miterlimit:4;stroke-dasharray:0.103,0.206;stroke-dashoffset:0"
       id="path835-3"
       sodipodi:type="arc"
       sodipodi:cx="97.541313"
       sodipodi:cy="124.19955"
       sodipodi:rx="87.3125"
       sodipodi:ry="13.300461"
       sodipodi:start="4.8617717"
       sodipodi:end="4.8589443"
       sodipodi:open="true"
       sodipodi:arc-type="arc"
       d="m 110.53584,111.04721 a 87.3125,13.300461 0 0 1 73.35475,15.12252 87.3125,13.300461 0 0 1 -99.221728,11.18494 87.3125,13.300461 0 0 1 -73.495023,-15.10671 87.3125,13.300461 0 0 1 99.117831,-11.20629" />
    <path
       style="fill:none;stroke:#000000;stroke-width:0.264583px;stroke-linecap:butt;stroke-linejoin:miter;stroke-opacity:1"
       d="m 101.03125,32.989586 c -0.59666,1.344289 -1.392999,2.851888 -2.522251,3.852053 -0.549566,0.48674 -1.130726,0.902149 -1.641258,1.433068 -0.743143,0.772818 -1.217033,1.72141 -1.854632,2.576298 -0.900763,1.207738 -0.698232,0.729572 -1.362247,1.916125 -1.7346,3.099623 -2.673291,6.507544 -3.791315,9.854351 -2.620007,7.842999 -4.813569,15.817006 -5.629531,24.072307 -0.255045,2.580352 -0.395735,5.160801 -0.590852,7.745008 -0.269907,3.574724 -0.640408,7.119305 -0.67292,10.707753 -0.05937,6.552921 0.536736,13.246141 1.427901,19.740891 0.61056,4.44974 1.969487,8.75288 2.937856,13.12305 0.674423,3.0436 0.907661,6.13481 2.28136,8.95264 0.137601,0.28226 0.296351,1.1631 0.590851,1.33646 0.300233,0.17673 0.89984,0.14601 1.23095,0.22542 3.057832,0.73335 5.983349,0.91652 9.125418,0.8212 1.41855,-0.043 2.80408,0.0899 4.21805,0.12881 1.72903,0.0476 3.45642,-0.0826 5.18639,-0.0483 8.08128,0.16019 16.17119,-0.0936 24.24145,-0.51525 4.3501,-0.22728 8.65567,-0.1558 12.98238,-0.789 3.81634,-0.55851 7.57282,-1.59217 11.35754,-2.33477 4.46115,-0.87533 8.80517,-1.91034 13.19576,-3.07546 2.55072,-0.67688 5.15876,-1.34929 7.58263,-2.41528 0.9981,-0.43895 1.88998,-1.07438 2.88862,-1.51358 0.69499,-0.30564 1.43568,-0.51433 2.10082,-0.8856 1.47717,-0.82453 -0.0572,0.0209 0.8042,-0.49916 0.099,-0.0598 0.32827,0.003 0.32827,-0.11271 0,-0.10031 -0.21121,-0.0388 -0.27902,-0.11272 -0.16622,-0.18118 -0.20115,-0.47003 -0.26261,-0.69238 -0.52467,-1.89814 -1.24893,-3.70583 -1.82179,-5.58735 -0.41293,-1.35621 -0.69932,-2.74572 -1.09966,-4.10598 -0.963,-3.27207 -1.94329,-6.54281 -2.64242,-9.88655 -0.75895,-3.62983 -0.82015,-7.388709 -1.44432,-11.045891 -0.7049,-4.130233 -2.01911,-8.015837 -3.57794,-11.899291 -2.18129,-5.434123 -4.98661,-10.774452 -8.46892,-15.490007 -1.71484,-2.322147 -3.75861,-4.401682 -5.74442,-6.489057 -2.92937,-3.079171 -5.96952,-5.940303 -9.30596,-8.582305 -1.19757,-0.948309 -2.24166,-2.081258 -3.47948,-2.978844 -1.40278,-1.017211 -2.86821,-2.046726 -4.3001,-3.027153 -1.47124,-1.007356 -2.98466,-1.702104 -4.52989,-2.560204 -0.86915,-0.482655 -1.68283,-1.062442 -2.56037,-1.529678 -1.9284,-1.026757 -3.89228,-1.66489 -5.92496,-2.415283 -2.76585,-1.021053 -5.44701,-2.198005 -8.28838,-3.011048 -1.4372,-0.411247 -2.92193,-0.672447 -4.34934,-1.111031 -1.30232,-0.400147 -2.52607,-0.95332 -3.80773,-1.400862 -2.57901,-0.900571 -5.27296,-1.441358 -7.96013,-1.867818 -1.07826,-0.171122 -3.57441,-0.791896 -4.568,-0.502862 z"
       id="path860" />
    <path
       style="fill:none;stroke:#000000;stroke-width:0.264583px;stroke-linecap:butt;stroke-linejoin:miter;stroke-opacity:1"
       d="m 79.864581,77.968752 c -0.372126,-0.339111 -0.684747,-0.758166 -1.116383,-1.017331 -0.237635,-0.142682 0.124328,0.548764 0.262602,0.788993 0.580035,1.0077 0.57993,0.907814 1.181714,1.883923 1.050843,1.704496 1.773904,3.517749 2.658845,5.297517 0.165124,0.332091 0.330806,1.463145 0.919105,1.33645 2.315908,-0.498756 4.221109,-4.557975 5.547471,-6.295829 0.231841,-0.303769 2.723515,-2.628001 2.757318,-2.721219 0.07599,-0.209558 -0.202949,-0.396946 -0.304422,-0.595421"
       id="path862" />
    <path
       style="fill:none;stroke:#000000;stroke-width:0.264583px;stroke-linecap:butt;stroke-linejoin:miter;stroke-opacity:1"
       d="m 165.85416,77.968752 c 0.0643,-0.687986 0.16238,-1.373645 0.1928,-2.063954 0.0439,-0.99573 -0.1728,-2.02506 -0.18054,-3.027153 -0.0106,-1.37132 0.13723,-2.751646 0.0492,-4.122079 -0.0467,-0.726813 -0.0629,-1.021755 -0.22978,-1.62629 -0.0642,-0.232638 -0.12306,-0.342094 -0.21336,-0.563568 -0.0238,-0.0583 -0.1106,-0.221213 -0.0657,-0.177118 1.88807,1.852237 4.57768,2.726201 7.1559,2.994949 1.62747,0.169643 3.53094,-0.08005 5.10433,0.402547 0.0836,0.02564 0.0622,0.163444 0.0933,0.245166"
       id="path868" />
    <path
       style="fill:none;stroke:#000000;stroke-width:0.264583px;stroke-linecap:butt;stroke-linejoin:miter;stroke-opacity:1"
       d="m 138.07291,134.85417 c -0.0469,-0.39194 -0.0369,-0.795 -0.14078,-1.17582 -0.0925,-0.33916 -0.53288,-0.85416 -0.77139,-1.12714 -0.0531,-0.0607 -0.2381,-0.21749 -0.18054,-0.16102 0.44743,0.43897 1.53939,0.73007 2.05157,0.99832 1.58942,0.83242 3.1763,1.66641 4.77608,2.47969 0.22,0.11184 2.33478,1.07293 2.34701,1.09493 0.12414,0.22328 -0.12144,0.49663 -0.19696,0.74069 -0.44497,1.43806 -1.45549,2.01868 -2.33059,3.20427 -0.5853,0.79296 -0.56228,0.89225 -1.14889,1.7712 -0.12802,0.19184 -0.31714,0.72455 -0.44313,0.53137 -0.0763,-0.117 0.004,-0.27933 0.006,-0.41899"
       id="path870" />
    <path
       style="fill:#a51d1e;stroke:#a51d1e;stroke-width:0.264583px;stroke-linecap:butt;stroke-linejoin:miter;stroke-opacity:1;marker-end:url(#Arrow1Lend)"
       d="m 101.03125,32.989586 c -35.718752,0 -34.395835,0 -34.395835,0 h -1.322917"
       id="path872" />
    <path
       style="fill:#a51d1e;stroke:#a51d1e;stroke-width:0.264583px;stroke-linecap:butt;stroke-linejoin:miter;stroke-opacity:1;marker-end:url(#Arrow1Lend-6)"
       d="m 85.15625,71.35417 c -35.71875,0 -34.39583,0 -34.39583,0 H 49.4375"
       id="path872-5" />
    <path
       style="fill:#a51d1e;stroke:#a51d1e;stroke-width:0.264583px;stroke-linecap:butt;stroke-linejoin:miter;stroke-opacity:1;marker-end:url(#Arrow1Lend-3)"
       d="m 87.802083,129.5625 c -35.718753,0 -34.395836,0 -34.395836,0 H 52.08333"
       id="path872-6" />
    <path
       style="fill:#a51d1e;stroke:#a51d1e;stroke-width:0.264583px;stroke-linecap:butt;stroke-linejoin:miter;stroke-opacity:1;marker-end:url(#Arrow1Lend-2)"
       d="m 90.447917,138.82292 c -35.718748,0 -34.395831,0 -34.395831,0 h -1.322917"
       id="path872-1" />
    <path
       style="fill:#a51d1e;stroke:#a51d1e;stroke-width:0.264583px;stroke-linecap:butt;stroke-linejoin:miter;stroke-opacity:1;marker-end:url(#Arrow1Lend-27)"
       d="m 136.75,140.14584 c -35.71875,0 -34.39583,0 -34.39583,0 h -1.32292"
       id="path872-9" />
    <path
       style="fill:#a51d1e;stroke:#a51d1e;stroke-width:0.264583px;stroke-linecap:butt;stroke-linejoin:miter;stroke-opacity:1;marker-end:url(#Arrow1Lend-36)"
       d="m 184.375,128.23959 c -35.71875,0 -34.39584,0 -34.39584,0 h -1.32291"
       id="path872-2" />
    <path
       style="fill:#a51d1e;stroke:#a51d1e;stroke-width:0.264583px;stroke-linecap:butt;stroke-linejoin:miter;stroke-opacity:1;marker-end:url(#Arrow1Lend-61)"
       d="m 177.76042,97.812503 c -34.06655,10.737737 -32.80483,10.340047 -32.80483,10.340047 l -1.26172,0.39769"
       id="path872-7" />
    <path
       style="fill:#a51d1e;stroke:#a51d1e;stroke-width:0.264583px;stroke-linecap:butt;stroke-linejoin:miter;stroke-opacity:1;marker-end:url(#Arrow1Lend-61-9)"
       d="m 162.77407,63.465675 c -30.57156,18.471828 -29.43928,17.787691 -29.43928,17.787691 l -1.13228,0.684137"
       id="path872-7-0" />
    <path
       style="fill:#a51d1e;stroke:#a51d1e;stroke-width:0.264583px;stroke-linecap:butt;stroke-linejoin:miter;stroke-opacity:1;marker-end:url(#Arrow1Lend-61-9-7)"
       d="m 134.28422,40.740522 c -20.44216,29.290731 -19.68504,28.205893 -19.68504,28.205893 l -0.75712,1.084838"
       id="path872-7-0-6" />
    <path
       style="fill:#a51d1e;stroke:#a51d1e;stroke-width:0.264583px;stroke-linecap:butt;stroke-linejoin:miter;stroke-opacity:1;marker-end:url(#Arrow1Lend-61-9-7-1)"
       d="M 102.48848,33.045885 C 88.611016,65.95857 89.125,64.739586 89.125,64.739586 l -0.513984,1.218984"
       id="path872-7-0-6-9" />
    <path
       style="fill:none;stroke:#000000;stroke-width:0.264583px;stroke-linecap:butt;stroke-linejoin:miter;stroke-opacity:1"
       d="m 122.19791,157.34375 c -1.60728,-2.78243 -2.83385,-2.60341 -5.99609,-2.2948 -1.45529,0.14203 -3.28025,0.18614 -3.92263,1.77121 -0.35932,0.88662 -0.13661,2.07097 -0.13129,2.96274 0.0126,2.10656 -0.46614,4.26886 -2.51114,5.36194 -2.35569,1.25914 -5.75741,0.84037 -8.28837,0.61186 -3.049132,-0.27528 -5.327051,-0.78899 -7.599052,1.73901 -2.088415,2.32373 -3.485589,7.93472 -2.609607,11.06199 0.393729,1.40561 1.421048,3.09259 1.132475,4.58903 -0.653949,3.39115 -6.520516,5.51982 -5.383345,9.17808 0.750128,2.41315 3.69202,3.62816 5.777241,4.54072 2.544757,1.11367 5.276268,1.53798 8.042198,1.62629 5.20618,0.16623 7.96094,-0.4481 12.55565,-3.02714 1.18518,-0.66526 1.74047,-0.96629 2.75732,-1.83562 2.61021,-2.23154 4.42325,-5.54643 7.89448,-6.58567 3.53882,-1.05947 7.29069,-0.82839 10.93081,-1.17544 4.54216,-0.43305 9.22933,-1.57144 13.14651,-3.99327 2.71214,-1.6768 6.04166,-4.77958 5.67877,-8.29246 -0.3032,-2.93504 -4.08294,-5.21303 -6.61429,-6.10261 -0.76769,-0.26979 -1.97543,-0.42312 -2.77373,-0.51527 -1.87168,-0.21602 -6.05711,0.0253 -6.74559,-2.36697 -0.7566,-2.62894 1.5426,-4.92121 0.42673,-7.98653 -1.42108,-3.90372 -9.24072,-2.8325 -12.26023,-1.46527 -0.58852,0.26647 -1.29176,0.84717 -1.73974,1.30425 -0.83255,0.84946 -0.0261,1.20741 -1.76708,0.89393 z"
       id="path2265" />
  </g>
</svg>
