<?xml version="1.0" encoding="UTF-8" standalone="no"?>
<svg
   xmlns:dc="http://purl.org/dc/elements/1.1/"
   xmlns:cc="http://creativecommons.org/ns#"
   xmlns:rdf="http://www.w3.org/1999/02/22-rdf-syntax-ns#"
   xmlns:svg="http://www.w3.org/2000/svg"
   xmlns="http://www.w3.org/2000/svg"
   xmlns:sodipodi="http://sodipodi.sourceforge.net/DTD/sodipodi-0.dtd"
   xmlns:inkscape="http://www.inkscape.org/namespaces/inkscape"
   width="210mm"
   height="148mm"
   viewBox="0 0 210 148"
   version="1.1"
   id="svg8"
   sodipodi:docname="2021-04-02_14-39.svg"
   inkscape:version="1.0.2 (e86c870879, 2021-01-15)">
  <defs
     id="defs2" />
  <sodipodi:namedview
     id="base"
     pagecolor="#ffffff"
     bordercolor="#000000"
     borderopacity="1"
     inkscape:pageopacity="0.0"
     inkscape:pageshadow="2"
     inkscape:zoom="0.7"
     inkscape:cx="489.35776"
     inkscape:cy="854.59535"
     inkscape:document-units="mm"
     inkscape:current-layer="layer1"
     inkscape:document-rotation="0"
     showgrid="true"
     showborder="true"
     borderlayer="true"
     inkscape:showpageshadow="false"
     objecttolerance="10000"
     guidetolerance="10000"
     inkscape:snap-perpendicular="true"
     inkscape:snap-tangential="true"
     inkscape:window-width="1920"
     inkscape:window-height="1080"
     inkscape:window-x="0"
     inkscape:window-y="0"
     inkscape:window-maximized="0">
    <sodipodi:guide
       position="0,148"
       orientation="0,793.70079"
       id="guide10" />
    <sodipodi:guide
       position="210,148"
       orientation="559.37008,0"
       id="guide12" />
    <sodipodi:guide
       position="210,0"
       orientation="0,-793.70079"
       id="guide14" />
    <sodipodi:guide
       position="0,0"
       orientation="-559.37008,0"
       id="guide16" />
    <inkscape:grid
       type="xygrid"
       id="grid20"
       dotted="true"
       units="px"
       originx="105"
       originy="74.000003" />
  </sodipodi:namedview>
  <metadata
     id="metadata5">
    <rdf:RDF>
      <cc:Work
         rdf:about="">
        <dc:format>image/svg+xml</dc:format>
        <dc:type
           rdf:resource="http://purl.org/dc/dcmitype/StillImage" />
        <dc:title />
        <cc:license
           rdf:resource="" />
      </cc:Work>
    </rdf:RDF>
  </metadata>
  <g
     inkscape:label="Layer 1"
     inkscape:groupmode="layer"
     id="layer1">
    <path
       style="fill:none;stroke:#000000;stroke-width:0.264583px;stroke-linecap:butt;stroke-linejoin:miter;stroke-opacity:1"
       d="m 52.083332,26.375003 c -1.401406,0.619556 -2.721295,1.473017 -4.204219,1.858668 -1.976765,0.514083 -7.437305,-1.198533 -9.448908,-1.55735 -6.623796,-1.181518 -13.1197,-1.853248 -19.540347,0.593275 C 7.2156242,31.717945 4.4210623,46.256326 0.10541761,56.377442 -4.5366614,67.264118 -11.566248,76.27686 -23.516871,78.959188 c -8.44339,1.895128 -17.101581,1.536951 -25.24749,4.93165 -11.195048,4.665388 -18.212144,16.302822 -23.660076,26.475152 -5.439545,10.15667 -7.42995,21.815 -9.562298,33.00125 -3.156572,16.55931 -6.174547,35.3456 12.812722,43.08702 7.064251,2.88022 17.941925,1.75389 25.360876,1.2978 11.060218,-0.67995 21.867445,-2.55402 32.693245,-4.8204 9.6856377,-2.02769 19.5630173,-4.57744 29.518397,-4.85749 6.030699,-0.16965 10.956817,0.9414 16.554498,3.30012 4.35016,1.83304 5.164434,3.12154 9.637898,4.82042 11.083633,4.2092 22.830821,4.8686 34.242856,1.40903 7.298287,-2.21248 14.032645,-5.86721 20.712006,-9.45542 15.248877,-8.19185 29.218727,-18.49474 41.424037,-30.73936 8.0255,-8.05135 15.05176,-17.18785 23.77347,-24.5099 1.37188,-1.15173 6.53579,-5.41887 8.05047,-6.30363 8.37896,-4.89433 18.2206,-7.6025 27.59083,-9.8262 11.27256,-2.67516 22.95023,-4.69997 32.69323,-11.457739 4.82428,-3.346135 8.54514,-6.427603 11.90563,-11.086936 8.40513,-11.653761 11.38411,-30.445694 4.34649,-43.457825 -4.20258,-7.770329 -10.5756,-13.962192 -17.95292,-18.725423 -4.2752,-2.760317 -9.66572,-5.746262 -14.66471,-6.859809 -13.41285,-2.987771 -28.69756,-1.943778 -40.78152,5.005808 -12.23167,7.034538 -21.79668,19.385341 -36.66177,20.913151 -12.74671,1.310087 -21.47115,-11.93327 -30.80344,-18.42879 -3.8514,-2.68067 -8.26651,-3.983349 -12.812738,-4.894565 -10.220529,-2.048535 -20.292322,-1.493027 -30.312127,1.149483 -2.102562,0.554506 -3.887489,1.818465 -5.896118,2.595605 -1.264224,0.489128 -3.125666,0.415679 -4.233108,1.26072 -3.100218,2.365638 -1.946707,6.235211 -8.419804,3.592093"
       id="path835" />
    <path
       style="fill:none;stroke:#000000;stroke-width:0.264583px;stroke-linecap:butt;stroke-linejoin:miter;stroke-opacity:1"
       d="m -43.166667,126.91667 c 2.241349,4.25283 4.015348,8.76787 8.348898,11.59308 4.77775,3.11479 11.447409,3.50578 16.894664,4.04172 15.8804903,1.56243 25.8804576,-1.89782 38.513764,-11.93977 4.864552,-3.86673 9.730339,-7.97109 14.248957,-12.23642 0.05936,-0.056 2.391008,-2.52084 2.267741,-2.52144 -0.33963,-0.002 -0.59935,0.31967 -0.899025,0.47949"
       id="path837" />
    <path
       style="fill:none;stroke:#000000;stroke-width:0.264583px;stroke-linecap:butt;stroke-linejoin:miter;stroke-opacity:1"
       d="m -27.291667,137.5 c 5.623891,-10.4313 21.7538167,-12.85076 32.197133,-9.59516 0.6375235,0.19875 7.748108,3.34044 7.748108,3.44846 0,0.52504 -0.881898,0.57002 -1.322847,0.85503"
       id="path839" />
    <path
       style="fill:none;stroke:#000000;stroke-width:0.264583px;stroke-linecap:butt;stroke-linejoin:miter;stroke-opacity:1"
       d="m 62.666665,89.875002 c 0.86615,0.03232 1.855041,-0.348681 2.598454,0.09696 0.975757,0.58493 1.290548,1.88649 2.078752,2.706841 1.269611,1.321393 3.965265,2.979484 5.518169,3.670919 2.144757,0.954961 4.308477,1.914626 6.576448,2.521453 16.258482,4.350195 35.169442,-9.603814 46.979992,-18.910829 1.0977,-0.865018 12.25554,-8.970661 10.33152,-11.252015"
       id="path841" />
    <path
       style="fill:none;stroke:#000000;stroke-width:0.264583px;stroke-linecap:butt;stroke-linejoin:miter;stroke-opacity:1"
       d="m 73.249998,95.166668 c 0.903764,-1.583248 1.672826,-3.251393 2.711289,-4.749741 3.468618,-5.004705 15.239203,-8.401201 20.712006,-9.418341 3.052636,-0.567347 6.651187,-0.418071 9.675697,0.259569 2.10443,0.471498 4.13603,1.223753 6.1985,1.853996 3.18371,0.972873 2.99837,-0.08668 3.03584,1.471184"
       id="path843" />
    <path
       style="fill:none;stroke:#000000;stroke-width:0.264583px;stroke-linecap:butt;stroke-linejoin:miter;stroke-opacity:1"
       d="m 152.625,68.708335 c 1.01577,-0.01913 2.11966,-0.47167 3.04732,-0.05741 0.77506,0.346114 0.93828,1.418097 1.47403,2.076492 0.66319,0.815022 1.28339,1.695762 2.11654,2.336041 2.71458,2.086165 5.61565,3.723587 9.07096,4.11589 12.07603,1.371057 22.67482,-2.699486 33.56253,-7.41602 2.15893,-0.935244 4.3414,-1.841931 6.38749,-3.003484 2.45006,-1.390893 4.81926,-2.937473 7.06776,-4.635007 0.99287,-0.749576 1.78566,-1.736186 2.60791,-2.669757 0.3031,-0.344139 0.7559,-0.690902 0.7559,-1.149488 0,-0.259061 -0.50393,-0.120396 -0.7559,-0.180594"
       id="path845" />
    <path
       style="fill:none;stroke:#000000;stroke-width:0.264583px;stroke-linecap:butt;stroke-linejoin:miter;stroke-opacity:1"
       d="m 173.79166,68.708335 c -1.07595,-0.637135 -2.27034,-1.107172 -3.22785,-1.911403 -0.41761,-0.350752 0.37507,-1.110535 0.83148,-1.409049 4.07301,-2.663917 8.9073,-4.422709 13.71984,-5.117039 4.4479,-0.64172 7.73561,-0.444399 12.17019,0.964078 2.32825,0.739479 6.11739,3.94783 7.67252,5.413682 0.65107,0.613693 1.15113,1.370545 1.7008,2.076493 0.14406,0.185012 0.37795,0.827757 0.37795,0.593277 0,-0.239212 -0.25196,-0.406693 -0.37795,-0.610039"
       id="path847" />
    <rect
       style="fill:#2b5d0a;fill-rule:evenodd;stroke-width:0.499999;stroke-linejoin:round"
       id="rect849"
       width="46.791664"
       height="79.375"
       x="163.20833"
       y="195.70834" />
    <rect
       style="fill:#2b5d0a;fill-rule:evenodd;stroke-width:0.499999;stroke-linejoin:round"
       id="rect851"
       width="15.875"
       height="15.875"
       x="179.08333"
       y="179.83334" />
    <path
       style="fill:none;stroke:#000000;stroke-width:0.264583px;stroke-linecap:butt;stroke-linejoin:miter;stroke-opacity:1"
       d="m 189.66666,275.08335 c 0.53639,-0.0273 1.18572,-0.41233 1.60915,-0.082 0.40994,0.31986 1.53624,4.0381 2.49452,4.96875 1.32966,1.2913 3.20263,2.44763 4.72445,3.52261 4.95126,3.49742 9.15901,6.09481 15.26944,7.26768 6.96194,1.33633 14.99828,0.64616 21.77031,-1.14948 2.86768,-0.76036 7.15967,-2.95379 9.78904,-4.26419 16.57792,-8.26209 29.18931,-21.41108 38.58937,-37.26548 6.33164,-10.67909 12.61036,-23.84467 8.95755,-36.48676 -2.22954,-7.71639 -11.00148,-15.72462 -17.53717,-19.76366 -4.49296,-2.77664 -9.91793,-4.3216 -14.62688,-6.67442 -12.04105,-6.01632 3.93378,1.46906 -7.74814,-4.11589 -5.67412,-2.71271 -8.99317,-4.68394 -13.53083,-9.19585 -1.18836,-1.18162 -2.81139,-2.86374 -3.59058,-4.37545 -5.25644,-10.19792 1.48674,-21.78178 5.89614,-31.14723 1.90138,-4.03848 4.01239,-7.91078 4.34649,-12.45891 0.51719,-7.04041 -9.79543,-16.09653 -15.42064,-19.46702 -5.86369,-3.51338 -11.75315,-7.285001 -18.36869,-9.195851 -12.65335,-3.654835 -26.70472,-3.013641 -39.57205,-1.001162 -5.47345,0.856059 -11.02356,1.830515 -16.25213,3.708003 -1.34848,0.484219 -2.57353,1.557364 -4.00632,1.557364 -0.18161,0 0.1102,-0.346078 0.16531,-0.519118"
       id="path855" />
    <path
       style="fill:none;stroke:#000000;stroke-width:0.264583px;stroke-linecap:butt;stroke-linejoin:miter;stroke-opacity:1"
       d="m 189.66666,179.83333 c -0.46523,-0.43932 -1.03039,-5.44477 -2.92633,-7.02453 -4.12717,-3.43888 -10.48143,-3.16945 -15.38283,-2.4102 -15.74097,2.43836 -29.54933,14.7532 -40.70592,25.17734 -9.30081,8.6902 -18.63038,17.33203 -28.6113,25.25152 -13.394466,10.62802 -28.741884,18.86225 -44.220906,25.95604 -11.953978,5.47831 -24.072532,11.33702 -36.737374,15.01742 -6.264321,1.82042 -12.9475088,2.73206 -19.3513701,3.93049 -7.4843005,1.4006 -14.8694279,2.75381 -22.4884179,3.26303 -20.941317,1.39967 -53.104535,-6.23495 -70.791251,-17.87257 -10.814361,-7.1157 -14.658631,-16.9972 -14.778101,-29.47865 -0.16882,-17.63827 5.9899,-31.5579 19.124605,-43.27242 2.165683,-1.93152 4.116466,-4.00478 6.42526,-5.78448 3.713388,-2.86242 7.053096,-3.67327 11.187509,-5.48786 2.303778,-1.01112 4.259914,-2.96486 6.349672,-4.30127 2.927673,-1.87228 6.15651,-3.24753 9.259933,-4.78333 2.786422,-1.37893 6.158444,-2.88234 7.634718,-5.82158 1.160825,-2.31119 -0.831506,-2.57938 -0.831506,-4.04172 0,-0.15283 0.302369,-0.0448 0.453554,-0.0672"
       id="path857" />
    <text
       xml:space="preserve"
       style="font-size:10.5833px;line-height:1.25;font-family:sans-serif;word-spacing:0px;stroke-width:0.264583"
       x="200.25"
       y="169.25"
       id="text861"><tspan
         sodipodi:role="line"
         id="tspan859"
         x="200.25"
         y="169.25"
         style="stroke-width:0.264583">+</tspan></text>
    <text
       xml:space="preserve"
       style="font-size:10.5833px;line-height:1.25;font-family:sans-serif;word-spacing:0px;stroke-width:0.264583"
       x="205.54167"
       y="301.54166"
       id="text865"><tspan
         sodipodi:role="line"
         id="tspan863"
         x="205.54167"
         y="301.54166"
         style="stroke-width:0.264583">-</tspan></text>
  </g>
</svg>
