<?xml version="1.0" encoding="UTF-8" standalone="no"?>
<svg
   xmlns:dc="http://purl.org/dc/elements/1.1/"
   xmlns:cc="http://creativecommons.org/ns#"
   xmlns:rdf="http://www.w3.org/1999/02/22-rdf-syntax-ns#"
   xmlns:svg="http://www.w3.org/2000/svg"
   xmlns="http://www.w3.org/2000/svg"
   xmlns:sodipodi="http://sodipodi.sourceforge.net/DTD/sodipodi-0.dtd"
   xmlns:inkscape="http://www.inkscape.org/namespaces/inkscape"
   width="210mm"
   height="148mm"
   viewBox="0 0 210 148"
   version="1.1"
   id="svg8"
   sodipodi:docname="2021-02-15_14-16.svg"
   inkscape:version="1.0.2 (e86c870879, 2021-01-15)">
  <defs
     id="defs2" />
  <sodipodi:namedview
     id="base"
     pagecolor="#ffffff"
     bordercolor="#000000"
     borderopacity="1"
     inkscape:pageopacity="0.0"
     inkscape:pageshadow="2"
     inkscape:zoom="2.5246158"
     inkscape:cx="309.04875"
     inkscape:cy="249.99703"
     inkscape:document-units="mm"
     inkscape:current-layer="layer1"
     inkscape:document-rotation="0"
     showgrid="true"
     showborder="true"
     borderlayer="true"
     inkscape:showpageshadow="false"
     objecttolerance="10000"
     guidetolerance="10000"
     inkscape:snap-perpendicular="true"
     inkscape:snap-tangential="true"
     inkscape:window-width="1920"
     inkscape:window-height="1080"
     inkscape:window-x="2999"
     inkscape:window-y="499"
     inkscape:window-maximized="0">
    <sodipodi:guide
       position="0,148"
       orientation="0,793.70079"
       id="guide10" />
    <sodipodi:guide
       position="210,148"
       orientation="559.37008,0"
       id="guide12" />
    <sodipodi:guide
       position="210,0"
       orientation="0,-793.70079"
       id="guide14" />
    <sodipodi:guide
       position="0,0"
       orientation="-559.37008,0"
       id="guide16" />
    <inkscape:grid
       type="xygrid"
       id="grid20"
       dotted="true"
       units="px"
       originx="105"
       originy="74.000003" />
  </sodipodi:namedview>
  <metadata
     id="metadata5">
    <rdf:RDF>
      <cc:Work
         rdf:about="">
        <dc:format>image/svg+xml</dc:format>
        <dc:type
           rdf:resource="http://purl.org/dc/dcmitype/StillImage" />
        <dc:title />
        <cc:license
           rdf:resource="" />
      </cc:Work>
    </rdf:RDF>
  </metadata>
  <g
     inkscape:label="Layer 1"
     inkscape:groupmode="layer"
     id="layer1">
    <path
       id="path837"
       style="fill:none;stroke:#000000;stroke-width:0.264583px;stroke-linecap:butt;stroke-linejoin:miter;stroke-opacity:1"
       d="m 15.107647,67.117618 c -8.0623817,12.269686 2.919575,37.278282 17.104894,47.256822 20.826716,11.04947 45.357256,2.67758 65.693345,-5.35619 25.930094,-12.072755 49.181274,-29.785058 76.932854,-37.880205 16.28446,-4.0052 28.83168,-24.020081 17.7889,-38.986727 -12.7095,-17.18561 -36.60018,-19.482376 -56.39284,-19.43976 -34.77635,1.654037 -68.350886,16.315891 -93.894025,39.85865 -7.91517,6.866898 -19.170746,2.277724 -27.233128,14.54741 z"
       sodipodi:nodetypes="zccccccz" />
    <path
       style="fill:none;stroke:#000000;stroke-width:0.264583px;stroke-linecap:butt;stroke-linejoin:miter;stroke-opacity:1"
       d="m 28.270832,79.291668 c -0.153969,0.486265 -0.472755,0.948852 -0.46191,1.458797 0.03394,1.595903 2.75607,5.620041 3.584017,6.662203 6.699525,8.432863 22.672976,8.889764 31.941817,5.449032 5.916613,-2.196332 11.588684,-4.932994 16.452967,-9.006321 0.250324,-0.209619 2.099542,-2.109274 2.054002,-2.302984 -0.05791,-0.246335 -0.436149,0.256739 -0.654227,0.385107"
       id="path839" />
    <path
       style="fill:none;stroke:#000000;stroke-width:0.264583px;stroke-linecap:butt;stroke-linejoin:miter;stroke-opacity:1"
       d="m 33.562499,89.875002 c 0.394642,-0.313574 0.839136,-0.573032 1.18392,-0.940718 0.345578,-0.368536 0.215741,-1.255165 0.607814,-1.727243 0.998,-1.201642 2.71939,-1.396539 4.149918,-1.521603 3.619056,-0.316391 9.800177,-0.0158 13.204288,0.884172 3.089378,0.816763 6.342121,2.901032 9.11725,4.359227 0.981922,0.515951 2.910306,1.670936 4.066083,2.097357 0.224335,0.08277 0.892802,0.23944 0.712618,0.08225 -0.356489,-0.311002 -0.861261,-0.39174 -1.291892,-0.587608"
       id="path841" />
    <path
       style="fill:none;stroke:#000000;stroke-width:0.264583px;stroke-linecap:butt;stroke-linejoin:miter;stroke-opacity:1"
       d="m 128.8125,39.604169 c 0.44672,-0.109331 0.92801,-0.532067 1.34016,-0.327993 0.60498,0.299553 0.79837,1.090353 1.23659,1.603864 0.56878,0.666515 1.15996,1.315283 1.78153,1.932858 1.3626,1.353831 2.77997,2.655581 4.25472,3.886287 6.14513,5.128226 14.41207,7.342256 22.1958,5.202283 4.15982,-1.143659 7.84065,-3.365413 11.21316,-6.004214 0.7388,-0.578067 3.29579,-2.911252 3.77265,-4.09191 0.11594,-0.287071 -0.54363,0.296439 -0.81545,0.444658"
       id="path843" />
    <path
       style="fill:none;stroke:#000000;stroke-width:0.264583px;stroke-linecap:butt;stroke-linejoin:miter;stroke-opacity:1"
       d="m 139.39583,44.895836 c 0.0978,-0.529813 0.008,-1.1326 0.29326,-1.589435 0.16365,-0.261784 0.58664,-0.192619 0.8803,-0.287879 2.7744,-0.899975 0.83187,-0.239059 4.19183,-1.459926 7.67443,-2.788566 11.31343,-1.299329 18.98904,0.863618 2.63882,0.743609 4.32977,1.068115 6.9794,2.179614 1.3881,0.582295 3.7469,2.216801 3.62593,2.529173 -0.084,0.216845 -0.37595,0.273778 -0.56393,0.410668"
       id="path845" />
    <circle
       style="fill:#ff1c57;fill-rule:evenodd;stroke:#181c57;stroke-width:1;stroke-linejoin:round"
       id="path847"
       sodipodi:type="arc"
       sodipodi:cx="24.302084"
       sodipodi:cy="72.677086"
       sodipodi:rx="1.3229166"
       sodipodi:ry="1.3229166"
       sodipodi:start="5.0507036"
       sodipodi:end="5.0265308"
       sodipodi:open="true"
       sodipodi:arc-type="arc"
       d="m 24.741157,71.429158 a 1.3229166,1.3229166 0 0 1 0.811485,1.679451 1.3229166,1.3229166 0 0 1 -1.674516,0.82162 1.3229166,1.3229166 0 0 1 -0.831724,-1.669521 1.3229166,1.3229166 0 0 1 1.664464,-0.841798" />
    <path
       style="fill:none;stroke:#000000;stroke-width:0.264583px;stroke-linecap:butt;stroke-linejoin:miter;stroke-opacity:1"
       d="m -16.708333,89.875002 c 0,111.124998 0,111.124998 0,111.124998"
       id="path849" />
    <path
       style="fill:none;stroke:#000000;stroke-width:0.264583px;stroke-linecap:butt;stroke-linejoin:miter;stroke-opacity:1"
       d="m -51.104167,158.66667 c 132.291665,0 132.291665,0 132.291665,0"
       id="path851" />
    <circle
       style="fill:#ff1c57;fill-rule:evenodd;stroke:#181c57;stroke-width:1;stroke-linejoin:round"
       id="path853"
       sodipodi:type="arc"
       sodipodi:cx="-18.03125"
       sodipodi:cy="159.98959"
       sodipodi:rx="30.427082"
       sodipodi:ry="30.427082"
       sodipodi:start="5.0507036"
       sodipodi:end="5.0265308"
       sodipodi:open="true"
       sodipodi:arc-type="arc"
       d="m -7.9325709,131.28726 a 30.427082,30.427082 0 0 1 18.6641589,38.62738 30.427082,30.427082 0 0 1 -38.51388,18.89725 30.427082,30.427082 0 0 1 -19.129651,-38.39898 30.427082,30.427082 0 0 1 38.2826736,-19.36136" />
    <path
       style="fill:none;stroke:#000000;stroke-width:0.264583px;stroke-linecap:butt;stroke-linejoin:miter;stroke-opacity:1"
       d="m 25.625,74.000002 c -3.519365,-2.090828 -2.303098,-0.670986 -5.214673,1.734444 -2.267862,1.873621 -4.301983,3.81081 -6.371599,5.901399 C 9.1799314,86.543884 4.3258001,91.906991 0.62484907,97.756741 -3.3128185,103.98065 -5.5462661,111.20707 -7.5911566,118.2163 c -0.9159513,3.13958 -1.8612255,6.2512 -2.5151064,9.45868 -0.97289,4.77232 -1.248166,9.55838 -1.676733,14.39366 -0.09759,1.10103 -0.538753,3.30379 -0.733572,3.33109 -0.06219,0.009 -2.276668,-2.83673 -2.410305,-3.1049 -1.862224,-3.73695 2.988797,3.16359 4.066083,3.02266 1.2823136,-0.16776 6.0781632,-6.38773 6.0781632,-7.15571 0,-0.32932 -0.4890479,-0.44119 -0.7335716,-0.66178"
       id="path855" />
    <text
       xml:space="preserve"
       style="font-size:10.5833px;line-height:1.25;font-family:sans-serif;word-spacing:0px;stroke-width:0.264583"
       x="171.14583"
       y="84.583336"
       id="text859"><tspan
         sodipodi:role="line"
         id="tspan857"
         x="171.14583"
         y="84.583336"
         style="stroke-width:0.264583">$C$</tspan></text>
    <text
       xml:space="preserve"
       style="font-size:10.5833px;line-height:1.25;font-family:sans-serif;word-spacing:0px;stroke-width:0.264583"
       x="22.979166"
       y="55.479168"
       id="text863"><tspan
         sodipodi:role="line"
         id="tspan861"
         x="22.979166"
         y="55.479168"
         style="stroke-width:0.264583">$p$</tspan></text>
    <text
       xml:space="preserve"
       style="font-size:10.5833px;line-height:1.25;font-family:sans-serif;word-spacing:0px;stroke-width:0.264583"
       x="17.6875"
       y="182.47917"
       id="text867"><tspan
         sodipodi:role="line"
         id="tspan865"
         x="17.6875"
         y="182.47917"
         style="stroke-width:0.264583">$\DD \da \ts{z\in \CC\st \abs{z} = 1}$</tspan></text>
    <path
       id="path869"
       style="fill:none;stroke:#000000;stroke-width:0.264583px;stroke-linecap:butt;stroke-linejoin:miter;stroke-opacity:1"
       d="m 24.302083,64.739586 c -7.052956,-0.433258 -12.391499,8.647758 -8.465974,14.570337 1.319669,2.865834 4.857543,4.014991 7.625047,2.473193 3.641337,-1.441095 5.40806,-5.468516 9.16181,-6.737873 2.081867,-1.055561 4.414681,-0.60352 6.611785,-0.717932 3.499528,-0.717367 7.137746,-3.843403 6.905009,-7.66169 -0.585315,-4.162689 -5.338269,-5.892304 -9.055048,-5.554175 -2.832622,0.256122 -5.684832,0.659715 -8.428213,1.401035 -1.694454,0.372257 -2.520465,2.383975 -4.354416,2.227105 z" />
    <text
       xml:space="preserve"
       style="font-size:10.5833px;line-height:1.25;font-family:sans-serif;word-spacing:0px;stroke-width:0.264583"
       x="4.458333"
       y="74.000008"
       id="text873"><tspan
         sodipodi:role="line"
         id="tspan871"
         x="4.458333"
         y="74.000008"
         style="stroke-width:0.264583" /></text>
    <text
       xml:space="preserve"
       style="font-size:10.5833px;line-height:1.25;font-family:sans-serif;word-spacing:0px;stroke-width:0.264583"
       x="-37.875"
       y="163.95834"
       id="text877"><tspan
         sodipodi:role="line"
         id="tspan875"
         x="-37.875"
         y="163.95834"
         style="stroke-width:0.264583">$U$</tspan></text>
    <text
       xml:space="preserve"
       style="font-size:10.5833px;line-height:1.25;font-family:sans-serif;word-spacing:0px;stroke-width:0.264583"
       x="41.499996"
       y="140.14584"
       id="text881"><tspan
         sodipodi:role="line"
         id="tspan879"
         x="41.499996"
         y="140.14584"
         style="stroke-width:0.264583">$V=\CC\sm U$</tspan></text>
  </g>
</svg>
