<?xml version="1.0" encoding="UTF-8" standalone="no"?>
<svg
   xmlns:dc="http://purl.org/dc/elements/1.1/"
   xmlns:cc="http://creativecommons.org/ns#"
   xmlns:rdf="http://www.w3.org/1999/02/22-rdf-syntax-ns#"
   xmlns:svg="http://www.w3.org/2000/svg"
   xmlns="http://www.w3.org/2000/svg"
   xmlns:sodipodi="http://sodipodi.sourceforge.net/DTD/sodipodi-0.dtd"
   xmlns:inkscape="http://www.inkscape.org/namespaces/inkscape"
   width="210mm"
   height="148mm"
   viewBox="0 0 210 148"
   version="1.1"
   id="svg8"
   sodipodi:docname="2021-02-15_14-38.svg"
   inkscape:version="1.0.2 (e86c870879, 2021-01-15)">
  <defs
     id="defs2" />
  <sodipodi:namedview
     id="base"
     pagecolor="#ffffff"
     bordercolor="#000000"
     borderopacity="1"
     inkscape:pageopacity="0.0"
     inkscape:pageshadow="2"
     inkscape:zoom="1.4"
     inkscape:cx="556.35855"
     inkscape:cy="333.46153"
     inkscape:document-units="mm"
     inkscape:current-layer="layer1"
     inkscape:document-rotation="0"
     showgrid="true"
     showborder="true"
     borderlayer="true"
     inkscape:showpageshadow="false"
     objecttolerance="10000"
     guidetolerance="10000"
     inkscape:snap-perpendicular="true"
     inkscape:snap-tangential="true"
     inkscape:window-width="1920"
     inkscape:window-height="1080"
     inkscape:window-x="3000"
     inkscape:window-y="485"
     inkscape:window-maximized="0">
    <sodipodi:guide
       position="0,148"
       orientation="0,793.70079"
       id="guide10" />
    <sodipodi:guide
       position="210,148"
       orientation="559.37008,0"
       id="guide12" />
    <sodipodi:guide
       position="210,0"
       orientation="0,-793.70079"
       id="guide14" />
    <sodipodi:guide
       position="0,0"
       orientation="-559.37008,0"
       id="guide16" />
    <inkscape:grid
       type="xygrid"
       id="grid20"
       dotted="true"
       units="px"
       originx="105"
       originy="74.000003" />
  </sodipodi:namedview>
  <metadata
     id="metadata5">
    <rdf:RDF>
      <cc:Work
         rdf:about="">
        <dc:format>image/svg+xml</dc:format>
        <dc:type
           rdf:resource="http://purl.org/dc/dcmitype/StillImage" />
        <dc:title />
        <cc:license
           rdf:resource="" />
      </cc:Work>
    </rdf:RDF>
  </metadata>
  <g
     inkscape:label="Layer 1"
     inkscape:groupmode="layer"
     id="layer1">
    <g
       id="g903">
      <path
         id="path835"
         style="fill:none;stroke:#000000;stroke-width:0.264583px;stroke-linecap:butt;stroke-linejoin:miter;stroke-opacity:1"
         d="M 74.407857,68.958356 C 59.020016,60.580529 39.658818,68.150211 29.730914,81.447962 22.7289,89.955721 20.432794,97.28744 20.21624,111.97704 c -0.216554,14.6896 12.778672,38.56349 32.208113,39.43324 11.09924,-0.28242 21.503583,-5.20766 31.513788,-9.60203 18.755499,-9.10279 36.977439,-20.7327 58.112039,-23.29297 24.35041,-4.78443 51.19239,-2.02159 73.01079,-15.78405 9.38691,-4.773565 14.60888,-15.708848 12.74576,-26.010193 C 225.04704,60.902045 214.81749,52.338374 194.6806,47.59168 174.54371,42.844986 140.90102,44.932852 122.11643,63.254123 108.57943,73.015955 89.752341,76.80098 74.407857,68.958356 Z"
         sodipodi:nodetypes="cczccccczcc" />
      <g
         id="g894">
        <g
           id="g887">
          <path
             style="fill:none;stroke:#000000;stroke-width:0.264583px;stroke-linecap:butt;stroke-linejoin:miter;stroke-opacity:1"
             d="m 151.3976,79.93405 c 10.04057,15.386885 28.06108,8.603591 40.59253,2.447282"
             id="path837"
             sodipodi:nodetypes="cc" />
          <path
             id="path839"
             style="fill:none;stroke:#000000;stroke-width:0.264583px;stroke-linecap:butt;stroke-linejoin:miter;stroke-opacity:1"
             d="m 155.27083,84.583336 c 10.2164,-7.702144 21.03514,-4.21342 30.1625,0.79375"
             sodipodi:nodetypes="cc" />
        </g>
        <path
           id="path841"
           style="fill:none;stroke:#000000;stroke-width:0.264583px;stroke-linecap:butt;stroke-linejoin:miter;stroke-opacity:1"
           d="m 41.499998,105.75 c 0.369864,7.81702 9.04127,11.24217 15.589812,12.70173 7.298813,1.27846 18.779315,-1.37535 25.420607,-4.49964"
           sodipodi:nodetypes="ccc" />
        <path
           id="path843"
           style="fill:none;stroke:#000000;stroke-width:0.264583px;stroke-linecap:butt;stroke-linejoin:miter;stroke-opacity:1"
           d="m 44.410417,112.36459 c 9.222361,-8.83893 29.732964,-0.4005 31.485416,3.96875"
           sodipodi:nodetypes="cc" />
      </g>
    </g>
    <circle
       style="fill:#8aa678;fill-rule:evenodd;stroke:#181c57;stroke-width:1;stroke-linejoin:round"
       id="path847"
       sodipodi:type="arc"
       sodipodi:cx="97.0625"
       sodipodi:cy="87.229172"
       sodipodi:rx="2.6458333"
       sodipodi:ry="2.6458333"
       sodipodi:start="5.0507036"
       sodipodi:end="5.0265308"
       sodipodi:open="true"
       sodipodi:arc-type="arc"
       d="m 97.940646,84.733317 a 2.6458333,2.6458333 0 0 1 1.62297,3.358902 2.6458333,2.6458333 0 0 1 -3.349033,1.643239 2.6458333,2.6458333 0 0 1 -1.663448,-3.339042 2.6458333,2.6458333 0 0 1 3.328929,-1.683595" />
    <circle
       style="fill:#cd8282;fill-rule:evenodd;stroke:#2b5d0a;stroke-width:0.5;stroke-linejoin:round;stroke-miterlimit:4;stroke-dasharray:none"
       id="path849"
       sodipodi:type="arc"
       sodipodi:cx="94.416664"
       sodipodi:cy="87.229172"
       sodipodi:rx="10.583333"
       sodipodi:ry="7.9375"
       sodipodi:start="5.0268252"
       sodipodi:end="5.0265308"
       sodipodi:open="true"
       sodipodi:arc-type="arc"
       d="M 97.689881,79.68084 A 10.583333,7.9375 0 0 1 104.48135,89.683529 10.583333,7.9375 0 0 1 91.144928,94.777865 10.583333,7.9375 0 0 1 84.3515,84.775925 10.583333,7.9375 0 0 1 97.686918,79.680118" />
  </g>
</svg>
