<?xml version="1.0" encoding="UTF-8" standalone="no"?>
<svg
   xmlns:dc="http://purl.org/dc/elements/1.1/"
   xmlns:cc="http://creativecommons.org/ns#"
   xmlns:rdf="http://www.w3.org/1999/02/22-rdf-syntax-ns#"
   xmlns:svg="http://www.w3.org/2000/svg"
   xmlns="http://www.w3.org/2000/svg"
   xmlns:sodipodi="http://sodipodi.sourceforge.net/DTD/sodipodi-0.dtd"
   xmlns:inkscape="http://www.inkscape.org/namespaces/inkscape"
   width="210mm"
   height="148mm"
   viewBox="0 0 210 148"
   version="1.1"
   id="svg8"
   sodipodi:docname="2021-02-22_14-28.svg"
   inkscape:version="1.0.2 (e86c870879, 2021-01-15)">
  <defs
     id="defs2" />
  <sodipodi:namedview
     id="base"
     pagecolor="#ffffff"
     bordercolor="#000000"
     borderopacity="1"
     inkscape:pageopacity="0.0"
     inkscape:pageshadow="2"
     inkscape:zoom="1.8221353"
     inkscape:cx="843.27754"
     inkscape:cy="744.21568"
     inkscape:document-units="mm"
     inkscape:current-layer="layer1"
     inkscape:document-rotation="0"
     showgrid="true"
     showborder="true"
     borderlayer="true"
     inkscape:showpageshadow="false"
     objecttolerance="10000"
     guidetolerance="10000"
     inkscape:snap-perpendicular="true"
     inkscape:snap-tangential="true"
     inkscape:window-width="943"
     inkscape:window-height="1027"
     inkscape:window-x="488"
     inkscape:window-y="41"
     inkscape:window-maximized="0">
    <sodipodi:guide
       position="0,148"
       orientation="0,793.70079"
       id="guide10" />
    <sodipodi:guide
       position="210,148"
       orientation="559.37008,0"
       id="guide12" />
    <sodipodi:guide
       position="210,0"
       orientation="0,-793.70079"
       id="guide14" />
    <sodipodi:guide
       position="0,0"
       orientation="-559.37008,0"
       id="guide16" />
    <inkscape:grid
       type="xygrid"
       id="grid20"
       dotted="true"
       units="px"
       originx="105"
       originy="74.000003" />
  </sodipodi:namedview>
  <metadata
     id="metadata5">
    <rdf:RDF>
      <cc:Work
         rdf:about="">
        <dc:format>image/svg+xml</dc:format>
        <dc:type
           rdf:resource="http://purl.org/dc/dcmitype/StillImage" />
        <dc:title />
        <cc:license
           rdf:resource="" />
      </cc:Work>
    </rdf:RDF>
  </metadata>
  <g
     inkscape:label="Layer 1"
     inkscape:groupmode="layer"
     id="layer1">
    <path
       style="fill:none;stroke:#000000;stroke-width:0.264583px;stroke-linecap:butt;stroke-linejoin:miter;stroke-opacity:1"
       d="m 94.416664,10.500003 c 0,201.083327 0,201.083327 0,201.083327"
       id="path835" />
    <path
       style="fill:none;stroke:#000000;stroke-width:0.264583px;stroke-linecap:butt;stroke-linejoin:miter;stroke-opacity:1"
       d="m 15.041667,126.91667 c 243.416663,0 243.416663,0 243.416663,0"
       id="path837" />
    <circle
       style="fill:#e0e1f3;fill-rule:evenodd;stroke:#e0e1f3;stroke-width:1;stroke-linejoin:round"
       id="path839"
       sodipodi:type="arc"
       sodipodi:cx="94.861435"
       sodipodi:cy="71.204193"
       sodipodi:rx="2.6458333"
       sodipodi:ry="2.6458333"
       sodipodi:start="5.0507036"
       sodipodi:end="5.0265308"
       sodipodi:open="true"
       sodipodi:arc-type="arc"
       d="m 95.739581,68.708338 a 2.6458333,2.6458333 0 0 1 1.62297,3.358902 2.6458333,2.6458333 0 0 1 -3.349033,1.643239 2.6458333,2.6458333 0 0 1 -1.663448,-3.339041 2.6458333,2.6458333 0 0 1 3.328928,-1.683596" />
    <circle
       style="fill:#e0e1f3;fill-rule:evenodd;stroke:#e0e1f3;stroke-width:1;stroke-linejoin:round"
       id="path839-5"
       sodipodi:type="arc"
       sodipodi:cx="154.45326"
       sodipodi:cy="71.224686"
       sodipodi:rx="2.6458333"
       sodipodi:ry="2.6458333"
       sodipodi:start="5.0507036"
       sodipodi:end="5.0265308"
       sodipodi:open="true"
       sodipodi:arc-type="arc"
       d="m 155.33141,68.72883 a 2.6458333,2.6458333 0 0 1 1.62297,3.358903 2.6458333,2.6458333 0 0 1 -3.34903,1.643239 2.6458333,2.6458333 0 0 1 -1.66345,-3.339042 2.6458333,2.6458333 0 0 1 3.32893,-1.683596" />
    <circle
       style="fill:#e0e1f3;fill-rule:evenodd;stroke:#e0e1f3;stroke-width:1;stroke-linejoin:round"
       id="path839-3"
       sodipodi:type="arc"
       sodipodi:cx="155.71561"
       sodipodi:cy="126.76669"
       sodipodi:rx="2.6458333"
       sodipodi:ry="2.6458333"
       sodipodi:start="5.0507036"
       sodipodi:end="5.0265308"
       sodipodi:open="true"
       sodipodi:arc-type="arc"
       d="m 156.59375,124.27084 a 2.6458333,2.6458333 0 0 1 1.62297,3.3589 2.6458333,2.6458333 0 0 1 -3.34903,1.64324 2.6458333,2.6458333 0 0 1 -1.66345,-3.33904 2.6458333,2.6458333 0 0 1 3.32893,-1.6836" />
    <circle
       style="fill:#e0e1f3;fill-rule:evenodd;stroke:#e0e1f3;stroke-width:1;stroke-linejoin:round"
       id="path839-56"
       sodipodi:type="arc"
       sodipodi:cx="94.92202"
       sodipodi:cy="126.78719"
       sodipodi:rx="2.6458333"
       sodipodi:ry="2.6458333"
       sodipodi:start="5.0507036"
       sodipodi:end="5.0265308"
       sodipodi:open="true"
       sodipodi:arc-type="arc"
       d="m 95.800166,124.29134 a 2.6458333,2.6458333 0 0 1 1.62297,3.3589 2.6458333,2.6458333 0 0 1 -3.349033,1.64324 2.6458333,2.6458333 0 0 1 -1.663448,-3.33904 2.6458333,2.6458333 0 0 1 3.328928,-1.6836" />
    <rect
       style="fill:#e0e1f3;fill-rule:evenodd;stroke:#e0e1f3;stroke-width:1;stroke-linejoin:round"
       id="rect907"
       width="59.53125"
       height="54.239582"
       x="95.739586"
       y="71.354172"
       ry="5.2916665" />
    <path
       style="fill:none;stroke:#000000;stroke-width:0.264583px;stroke-linecap:butt;stroke-linejoin:miter;stroke-opacity:1"
       d="m 160.5625,95.166668 c 0.12466,0.118055 0.20978,0.30398 0.37397,0.354164 0.91476,0.279587 2.89168,-1.052269 3.41214,-1.524204 3.38051,-3.065256 4.04301,-8.940617 4.68989,-13.190723 0.54086,-3.553563 1.3241,-7.065047 1.04541,-10.683634 -0.80642,-10.470893 -11.74169,-15.630257 -20.29861,-18.888665 -1.47882,-0.563123 -2.98726,-1.171379 -4.50113,-1.638157 -5.12007,-1.578694 -10.61763,-2.260404 -15.91364,-2.962928 -8.31748,-1.103326 -16.77634,-1.296787 -25.03206,0.384611 -2.58757,0.526995 -5.281622,1.036783 -7.75355,2.008521 -9.296686,3.654618 -16.716441,11.279254 -20.182454,20.640783 -1.48508,4.011126 -0.461409,8.217943 1.611694,11.794731 0.261262,0.450763 0.860827,1.593728 1.248698,2.10824 0.534027,0.70839 1.279411,1.231389 1.916613,1.837584 0.768641,0.731237 1.425448,1.508784 2.279597,2.15097 0.845425,0.635627 1.835782,1.079489 2.715193,1.666645 2.217031,1.48024 4.379696,3.119625 6.919487,3.119625"
       id="path909" />
    <path
       style="fill:none;stroke:#000000;stroke-width:0.264583px;stroke-linecap:butt;stroke-linejoin:miter;stroke-opacity:1"
       d="m 124.84375,66.062502 c -0.0273,0.07231 -0.41804,1.123169 -0.48259,1.231942 -0.28902,0.486953 -0.72945,0.869112 -1.04542,1.339017 -1.2018,1.787279 -2.3274,3.567099 -3.61542,5.299083 -0.001,0.0016 -1.45517,2.093539 -1.47116,1.390375"
       id="path911" />
    <path
       style="fill:none;stroke:#000000;stroke-width:0.264583px;stroke-linecap:butt;stroke-linejoin:miter;stroke-opacity:1"
       d="m 132.78125,67.385419 c -1.82461,1.938475 -0.59065,0.484764 -1.97332,2.458855 -1.43725,2.052015 -3.18109,3.860694 -4.60276,5.925854 -0.31606,0.459113 -0.57111,0.958125 -0.82763,1.452972 -0.17473,0.337058 -0.31124,0.692592 -0.46463,1.039876 -0.0354,0.08008 -0.0816,0.327383 -0.10164,0.242163 -0.041,-0.174371 0.0216,-0.357592 0.0325,-0.536387"
       id="path913" />
    <path
       style="fill:none;stroke:#000000;stroke-width:0.264583px;stroke-linecap:butt;stroke-linejoin:miter;stroke-opacity:1"
       d="m 89.124998,107.07292 c 0.86107,-0.17351 2.095688,-1.30349 2.668357,-1.68776 1.847501,-1.23969 3.740028,-2.4702 5.662697,-3.5897 0.415293,-0.2418 3.801108,-1.996181 3.978418,-2.165213 0.15401,-0.146809 -0.26881,-0.329885 -0.40322,-0.494829"
       id="path915" />
    <path
       style="fill:none;stroke:#000000;stroke-width:0.264583px;stroke-linecap:butt;stroke-linejoin:miter;stroke-opacity:1"
       d="m 149.97916,108.39583 c 3.95433,-2.07907 7.90544,-4.1387 11.94461,-6.08756 0.53036,-0.25589 1.06454,-0.5038 1.59717,-0.75497 0.3434,-0.16193 0.77343,-0.2053 1.03089,-0.48433 0.13811,-0.14968 -0.0137,-0.40709 -0.0206,-0.61064"
       id="path917" />
    <path
       style="fill:none;stroke:#000000;stroke-width:0.264583px;stroke-linecap:butt;stroke-linejoin:miter;stroke-opacity:1"
       d="m 114.26041,129.5625 c 0.26453,-0.0582 0.56949,-0.0226 0.79359,-0.17477 0.6899,-0.46837 1.02523,-1.31714 1.58265,-1.9373 0.60965,-0.67827 1.2359,-1.34178 1.87305,-1.99428 1.62395,-1.66308 3.40811,-3.16718 5.13999,-4.71504 0.33087,-0.29572 2.07713,-1.8849 2.55548,-2.12248 0.10824,-0.0538 -0.0257,0.24036 -0.0385,0.36054"
       id="path919" />
    <path
       style="fill:none;stroke:#000000;stroke-width:0.264583px;stroke-linecap:butt;stroke-linejoin:miter;stroke-opacity:1"
       d="m 123.52083,133.53125 c 0.0962,-0.56922 0.10548,-1.16017 0.28857,-1.70766 0.55096,-1.64749 2.39274,-3.75517 3.45571,-5.17087 1.45004,-1.93123 2.92649,-3.83761 4.50112,-5.66945 0.47589,-0.55362 0.95476,-1.10471 1.43746,-1.6524 0.074,-0.0839 0.23232,-0.1303 0.23232,-0.24216 0,-0.0856 -0.15488,-0.073 -0.23232,-0.10954"
       id="path921" />
    <circle
       style="fill:#e9f1e6;fill-rule:evenodd;stroke:#dd2a2b;stroke-width:1;stroke-linejoin:round"
       id="path923"
       sodipodi:type="arc"
       sodipodi:cx="153.28645"
       sodipodi:cy="91.197922"
       sodipodi:rx="7.2760415"
       sodipodi:ry="6.614583"
       sodipodi:start="5.0507036"
       sodipodi:end="5.0265308"
       sodipodi:open="true"
       sodipodi:arc-type="arc"
       d="m 155.70135,84.958284 a 7.2760415,6.614583 0 0 1 4.46317,8.397256 7.2760415,6.614583 0 0 1 -9.20984,4.108097 7.2760415,6.614583 0 0 1 -4.57448,-8.347604 7.2760415,6.614583 0 0 1 9.15455,-4.208989" />
    <circle
       style="fill:#e9f1e6;fill-rule:evenodd;stroke:#dd2a2b;stroke-width:1;stroke-linejoin:round"
       id="path923-2"
       sodipodi:type="arc"
       sodipodi:cx="96.137115"
       sodipodi:cy="90.874214"
       sodipodi:rx="7.2760415"
       sodipodi:ry="6.614583"
       sodipodi:start="5.0507036"
       sodipodi:end="5.0265308"
       sodipodi:open="true"
       sodipodi:arc-type="arc"
       d="m 98.552017,84.634576 a 7.2760415,6.614583 0 0 1 4.463173,8.397256 7.2760415,6.614583 0 0 1 -9.209846,4.108098 7.2760415,6.614583 0 0 1 -4.574481,-8.347604 7.2760415,6.614583 0 0 1 9.154552,-4.20899" />
    <text
       xml:space="preserve"
       style="font-size:10.5833px;line-height:1.25;font-family:sans-serif;word-spacing:0px;stroke-width:0.264583"
       x="143.36458"
       y="36.958332"
       id="text947"><tspan
         sodipodi:role="line"
         id="tspan945"
         x="143.36458"
         y="36.958332"
         style="stroke-width:0.264583">$\lambda$</tspan></text>
    <text
       xml:space="preserve"
       style="font-size:10.5833px;line-height:1.25;font-family:sans-serif;word-spacing:0px;stroke-width:0.264583"
       x="171.14583"
       y="99.135422"
       id="text951"><tspan
         sodipodi:role="line"
         id="tspan949"
         x="171.14583"
         y="99.135422"
         style="stroke-width:0.264583">Embedded neighborhood</tspan></text>
    <path
       style="fill:none;stroke:#000000;stroke-width:0.264583px;stroke-linecap:butt;stroke-linejoin:miter;stroke-opacity:1"
       d="m 139.39583,133.53125 c -0.0958,0.89819 0.46465,1.58682 0.79451,2.3892 0.54449,1.3245 0.43293,1.34057 0.98734,2.47861 2.05103,4.21017 5.85924,8.66054 9.10389,12.0084 3.05916,3.15648 6.54882,6.80008 10.04767,9.44433 1.95434,1.47699 4.08921,2.72425 6.08377,4.14525 2.20565,1.5714 4.28269,3.30955 6.47582,4.90023 4.824,3.49887 9.74099,6.87376 14.54879,10.39874 2.39384,1.75512 4.65796,3.63485 6.73717,5.75491 0.81212,0.82808 1.53328,1.74272 2.35219,2.56408 0.46737,0.46877 0.95884,0.91421 1.4665,1.33901 0.15263,0.12772 0.31136,0.28393 0.50818,0.31339 0.15148,0.0227 0.28361,-0.11577 0.42542,-0.17365 -0.0157,-1.21215 -0.77995,-2.39675 -0.81744,-3.60124 -0.0165,-0.52915 0.2673,-1.73128 0.36299,-2.1937 0.1668,-0.80607 -0.0755,-0.61119 0.45445,-0.81964"
       id="path953" />
    <path
       style="fill:none;stroke:#000000;stroke-width:0.264583px;stroke-linecap:butt;stroke-linejoin:miter;stroke-opacity:1"
       d="m 198.92708,189.09375 c -0.37412,0.0911 -0.73799,0.25031 -1.12236,0.27337 -2.54167,0.15247 -4.68451,-1.79 -7.12919,-1.99428 -0.16841,-0.0141 0.20937,0.26533 0.31405,0.39799"
       id="path955" />
    <path
       style="fill:none;stroke:#000000;stroke-width:0.264583px;stroke-linecap:butt;stroke-linejoin:miter;stroke-opacity:1"
       d="m 251.84375,191.73958 c -0.54009,0.0269 -1.0804,0.1117 -1.62027,0.0807 -1.82817,-0.10497 -4.10548,-1.27499 -5.93857,-1.6809 -2.40123,-0.5317 -4.91963,-0.89664 -7.37604,-1.06836 -3.40341,-0.23791 -6.68749,-0.11219 -10.09122,0.057 -13.22543,0.65732 -24.53319,3.94756 -33.23572,14.48701 -3.01516,3.65159 -5.08716,8.32554 -3.35406,13.03403 0.62371,1.69451 1.69391,3.12639 2.74423,4.5726 4.49336,6.18706 10.42579,9.65156 17.68506,11.73775 2.59007,0.74435 5.1555,1.55656 7.81163,2.03702 14.08831,2.54836 28.67902,0.46285 41.48293,-5.94011 2.52731,-1.26385 5.06465,-2.87483 7.14372,-4.81476 4.59513,-4.28762 7.79767,-12.57417 6.40321,-18.87442 -0.44588,-2.01448 -1.62608,-4.71213 -3.32502,-5.98283 -1.00391,-0.75087 -1.98985,-1.722 -3.09271,-2.32191 -1.22521,-0.66645 -2.87455,-0.95177 -4.21072,-1.32477 -1.58584,-0.44271 -3.03753,-1.02509 -4.53018,-1.70938 -1.90943,-0.87537 -3.64288,-1.32129 -5.74981,-1.28204 -0.0308,5.3e-4 -2.85009,-0.13021 -2.06938,0.0285"
       id="path957" />
    <path
       style="fill:none;stroke:#000000;stroke-width:0.264583px;stroke-linecap:butt;stroke-linejoin:miter;stroke-opacity:1"
       d="m 208.1875,208.9375 c -0.0576,0.0444 -0.21737,0.0756 -0.17294,0.13329 0.0444,0.0577 0.12427,-0.1874 0.17294,-0.13329 1.07191,1.19183 1.89474,2.79742 2.96333,4.03638 0.58752,0.68119 1.35573,1.19832 2.07633,1.72363 1.06481,0.77623 2.15159,1.66811 3.39762,2.15097 3.74419,1.45095 10.54447,3.16771 14.43264,3.07689 2.81342,-0.0657 5.57773,-0.53821 8.34885,-0.9829 3.82885,-0.61442 7.78417,-1.27561 11.31089,-2.96292 3.49405,-1.67169 6.68926,-3.88191 9.74275,-6.25349 0.36271,-0.28171 0.70938,-0.58439 1.04543,-0.89743 0.14403,-0.13416 0.19656,-0.46468 0.39203,-0.44159 0.25289,0.0299 0.35314,0.36697 0.52971,0.55046"
       id="path959" />
    <path
       style="fill:none;stroke:#000000;stroke-width:0.264583px;stroke-linecap:butt;stroke-linejoin:miter;stroke-opacity:1"
       d="m 217.44791,218.19792 c 1.75775,-0.45948 2.79306,-2.00558 4.31686,-2.81666 2.15797,-1.14865 4.61508,-1.6124 6.98401,-2.07975 1.11266,-0.21951 2.20414,-0.54779 3.32502,-0.72648 3.6545,-0.58262 7.28239,-0.08 10.84625,0.75498 1.81128,0.42435 3.6316,0.86766 5.45944,1.21081 1.51036,0.28354 0.9397,0.14488 2.09083,0.4131 0.1359,0.0317 0.36702,0.23353 0.40656,0.0997 0.0422,-0.14297 -0.23736,-0.18043 -0.35605,-0.27065"
       id="path963" />
    <path
       style="fill:none;stroke:#dd2a2b;stroke-width:0.264583px;stroke-linecap:butt;stroke-linejoin:miter;stroke-opacity:1"
       d="m 229.35416,228.78125 c 0.22896,-0.19321 0.40373,-0.48173 0.68687,-0.57963 0.35649,-0.12324 1.89053,0.0735 2.19248,0.0855 1.78671,0.0706 3.6787,-0.2315 5.43038,-0.56979 2.62901,-0.50772 5.02118,-1.44587 7.55028,-2.29342 2.1113,-0.70754 4.25393,-1.30998 6.35965,-2.03701 3.57045,-1.23276 6.1238,-2.47754 9.04581,-4.84325 0.56864,-0.46039 1.30982,-0.95952 1.77141,-1.55269 0.5831,-0.74933 1.57505,-2.18651 1.98921,-3.06264 0.46983,-0.99391 0.60924,-2.16712 0.92926,-3.21934 0.36218,-1.19087 0.95429,-2.54448 0.90024,-3.81762 -0.0884,-2.08174 -2.14401,-4.66404 -3.83323,-5.7834 -2.47351,-1.63907 -5.93022,-1.73784 -8.78445,-2.10824 -2.05116,-0.26619 -4.09774,-0.53534 -6.15638,-0.74073 -10.35781,-1.03339 -20.17397,-1.62638 -30.27368,1.46721 -2.37364,0.72706 -4.4784,2.15018 -6.67908,3.26208 -3.69593,1.86735 -7.22025,5.72375 -8.98773,9.45858 -0.338,0.71421 -0.81217,1.44186 -0.92927,2.23644 -0.12759,0.86581 0.1011,1.83246 0.45012,2.62104 0.18806,0.42492 0.49742,0.78167 0.78406,1.13959 1.77925,2.22163 3.10776,2.82936 5.57558,4.10252 0.85121,0.43914 1.61645,0.97164 2.52644,1.29628 0.93603,0.33393 1.91906,0.50903 2.86039,0.8262 1.33182,0.44873 2.69053,0.79591 4.02197,1.2393 1.10758,0.36885 2.1456,0.89309 3.23791,1.29628 0.93906,0.34663 1.95025,0.33386 2.91847,0.5413 0.50826,0.1089 0.99456,0.28065 1.51005,0.35613 0.88424,0.12948 1.86834,0.19304 2.72972,0.44159 0.32866,0.0948 0.56658,0.20911 0.91474,0.24216 0.36684,0.0348 0.91568,0.0825 1.25878,-0.004 0.28408,-0.0719 0.52451,-0.32322 0.81754,-0.32322 0.19997,0 0.33692,0.21548 0.50538,0.32322"
       id="path965" />
    <path
       style="fill:none;stroke:#000000;stroke-width:0.264583px;stroke-linecap:butt;stroke-linejoin:miter;stroke-opacity:1"
       d="m 246.55208,222.16667 c -0.0785,1.59916 -0.43109,3.18433 -0.4522,4.80989 -0.008,0.58829 0.062,1.21302 0.0145,1.80469"
       id="path967" />
    <path
       style="fill:none;stroke:#000000;stroke-width:0.264583px;stroke-linecap:butt;stroke-linejoin:miter;stroke-opacity:1"
       d="m 250.52083,220.84375 c -0.11847,0.26367 -0.30321,0.50669 -0.35542,0.791 -0.15024,0.81817 -0.0461,1.66395 -0.11615,2.49285 -0.1221,1.44451 -0.29561,2.88233 -0.5082,4.31619 -0.044,0.2967 -0.0887,1.26294 -0.34315,1.66038"
       id="path969" />
  </g>
</svg>
