<?xml version="1.0" encoding="UTF-8" standalone="no"?>
<svg
   xmlns:dc="http://purl.org/dc/elements/1.1/"
   xmlns:cc="http://creativecommons.org/ns#"
   xmlns:rdf="http://www.w3.org/1999/02/22-rdf-syntax-ns#"
   xmlns:svg="http://www.w3.org/2000/svg"
   xmlns="http://www.w3.org/2000/svg"
   xmlns:sodipodi="http://sodipodi.sourceforge.net/DTD/sodipodi-0.dtd"
   xmlns:inkscape="http://www.inkscape.org/namespaces/inkscape"
   width="465.07611mm"
   height="169.9512mm"
   viewBox="0 0 465.07611 169.9512"
   version="1.1"
   id="svg8"
   sodipodi:docname="2021-01-22_14-27.svg"
   inkscape:version="1.0.1 (3bc2e813f5, 2020-09-07, custom)">
  <defs
     id="defs2">
    <marker
       style="overflow:visible"
       id="Arrow1Lend"
       refX="0"
       refY="0"
       orient="auto"
       inkscape:stockid="Arrow1Lend"
       inkscape:isstock="true">
      <path
         transform="matrix(-0.8,0,0,-0.8,-10,0)"
         style="fill:#000000;fill-opacity:1;fill-rule:evenodd;stroke:#000000;stroke-width:1pt;stroke-opacity:1"
         d="M 0,0 5,-5 -12.5,0 5,5 Z"
         id="path875" />
    </marker>
  </defs>
  <sodipodi:namedview
     id="base"
     pagecolor="#ffffff"
     bordercolor="#000000"
     borderopacity="1"
     inkscape:pageopacity="0.0"
     inkscape:pageshadow="2"
     inkscape:zoom="0.49497475"
     inkscape:cx="872.33835"
     inkscape:cy="83.747822"
     inkscape:document-units="mm"
     inkscape:current-layer="layer1"
     inkscape:document-rotation="0"
     showgrid="true"
     showborder="true"
     borderlayer="true"
     inkscape:showpageshadow="false"
     objecttolerance="10000"
     guidetolerance="10000"
     inkscape:snap-perpendicular="true"
     inkscape:snap-tangential="true"
     inkscape:window-width="1920"
     inkscape:window-height="1080"
     inkscape:window-x="1080"
     inkscape:window-y="1080"
     inkscape:window-maximized="0">
    <sodipodi:guide
       position="82.482984,178.22566"
       orientation="0,793.70079"
       id="guide10" />
    <sodipodi:guide
       position="292.48298,178.22566"
       orientation="559.37008,0"
       id="guide12" />
    <sodipodi:guide
       position="292.48298,30.225659"
       orientation="0,-793.70079"
       id="guide14" />
    <sodipodi:guide
       position="82.482984,30.225659"
       orientation="-559.37008,0"
       id="guide16" />
    <inkscape:grid
       type="xygrid"
       id="grid20"
       dotted="true"
       units="px"
       originx="187.48299"
       originy="65.725544" />
  </sodipodi:namedview>
  <metadata
     id="metadata5">
    <rdf:RDF>
      <cc:Work
         rdf:about="">
        <dc:format>image/svg+xml</dc:format>
        <dc:type
           rdf:resource="http://purl.org/dc/dcmitype/StillImage" />
        <dc:title />
        <cc:license
           rdf:resource="" />
      </cc:Work>
    </rdf:RDF>
  </metadata>
  <g
     inkscape:label="Layer 1"
     inkscape:groupmode="layer"
     id="layer1"
     transform="translate(82.482984,-8.2744569)">
    <path
       id="path835"
       style="fill:none;stroke:#000000;stroke-width:0.264583px;stroke-linecap:butt;stroke-linejoin:miter;stroke-opacity:1"
       d="m -79.756952,118.06031 c -15.767656,52.40332 43.924515,78.12787 81.0388552,45.69171 C 40.40409,137.78084 86.48245,153.92127 129.55011,150.44584 173.99257,151.34268 228.58473,105.80015 194.68202,60.963209 155.6916,21.377054 79.401273,6.7630793 39.259596,52.954403 9.5865576,106.27846 -69.800051,50.837435 -79.756952,118.06031 Z"
       sodipodi:nodetypes="cccccc" />
    <path
       style="fill:none;fill-rule:evenodd;stroke:#a51d1e;stroke-width:0.9;stroke-linejoin:round;stroke-miterlimit:4;stroke-dasharray:none;stroke-dashoffset:0;stroke-opacity:0.981966"
       id="path837"
       sodipodi:type="arc"
       sodipodi:cx="-22"
       sodipodi:cy="126.91667"
       sodipodi:rx="31.75"
       sodipodi:ry="5.2916665"
       sodipodi:start="4.8617717"
       sodipodi:end="4.8589443"
       sodipodi:open="true"
       sodipodi:arc-type="arc"
       d="m -17.274719,121.68394 a 31.75,5.2916665 0 0 1 26.6744558,6.01658 31.75,5.2916665 0 0 1 -36.0806278,4.44999 31.75,5.2916665 0 0 1 -26.725463,-6.01029 31.75,5.2916665 0 0 1 36.042846,-4.45849" />
    <path
       style="fill:none;fill-rule:evenodd;stroke:#a51d1e;stroke-width:1;stroke-linejoin:round;stroke-miterlimit:4;stroke-dasharray:none;stroke-opacity:0.981966"
       id="path839"
       sodipodi:type="arc"
       sodipodi:cx="129.79526"
       sodipodi:cy="105.60818"
       sodipodi:rx="47.625"
       sodipodi:ry="13.229166"
       sodipodi:start="4.8617717"
       sodipodi:end="4.8589443"
       sodipodi:open="true"
       sodipodi:arc-type="arc"
       d="M 136.88318,92.526343 A 47.625,13.229166 0 0 1 176.89486,107.5678 47.625,13.229166 0 0 1 122.77392,118.69278 47.625,13.229166 0 0 1 82.685726,103.66706 47.625,13.229166 0 0 1 136.75,92.520828" />
    <path
       id="path841"
       style="fill:none;stroke:#000000;stroke-width:0.264583px;stroke-linecap:butt;stroke-linejoin:miter;stroke-opacity:1;marker-end:url(#Arrow1Lend)"
       d="m 165.58204,17.057064 c 15.27347,-10.9620711 35.39668,-9.3679211 52.9962,-6.690739 19.83319,4.390321 37.43527,15.071775 56.21011,22.410541 5.40652,2.412134 10.84553,4.767609 16.08626,7.529391" />
    <path
       style="fill:none;stroke:#000000;stroke-width:0.186544px;stroke-linecap:butt;stroke-linejoin:miter;stroke-opacity:1"
       d="M 311.375,30.343753 V 130.88542"
       id="path845"
       sodipodi:nodetypes="cc" />
    <path
       style="fill:none;stroke:#000000;stroke-width:0.186544px;stroke-linecap:butt;stroke-linejoin:miter;stroke-opacity:1"
       d="m 247.875,76.645836 134.71703,1.577995 v 0"
       id="path847"
       sodipodi:nodetypes="ccc" />
    <path
       style="fill:none;stroke:#000000;stroke-width:0.186544px;stroke-linecap:butt;stroke-linejoin:miter;stroke-opacity:1"
       d="m 332.5924,41.530449 c -1.75736,-1.520859 -0.98472,-4.261341 -2.56057,-5.939313 -5.03724,-5.363699 -19.90384,-5.146386 -26.00183,-1.11758 -1.63519,1.080323 -1.16061,2.799411 -1.58584,4.260755 -0.655,2.251081 -2.03417,3.770437 -4.21891,5.285206 -3.07304,2.130641 -6.91072,3.172253 -10.47255,4.656562 -10.13236,4.222391 -16.05332,7.389855 -17.05531,17.112882 -0.56814,5.51313 -0.049,13.886307 7.68985,16.228124 3.2746,0.990913 10.33575,0.894303 12.65681,3.16646 3.40282,3.331134 0.39455,9.707854 4.18901,14.109394 0.97308,1.128741 3.19781,2.652751 4.69771,3.236311 6.57653,2.55869 12.31329,1.96203 19.0301,0.1397 7.46742,-2.02598 14.49062,-4.346521 20.25687,-8.754341 8.81887,-6.74128 11.50071,-16.130942 4.1292,-24.260699 -1.28549,-1.417707 -2.49643,-2.603911 -4.1292,-3.771818 -1.75445,-1.254973 -4.44627,-2.363925 -4.90711,-4.447026 -0.33995,-1.536777 0.84558,-2.343449 2.18427,-3.399293 4.22493,-3.332271 10.30735,-4.548628 14.60173,-7.869593 4.20279,-3.25013 2.0597,-7.286623 -3.17171,-8.614645 -1.36882,-0.347484 -3.19132,-0.487811 -4.60791,-0.535508 -3.69233,-0.12432 -7.08187,0.190841 -10.72461,0.514422 z"
       id="path849" />
    <text
       xml:space="preserve"
       style="font-size:7.46174px;line-height:1.25;font-family:sans-serif;word-spacing:0px;stroke-width:0.186544"
       x="207.9223"
       y="49.485405"
       id="text853"
       transform="scale(1.1228546,0.89058725)"><tspan
         sodipodi:role="line"
         x="207.9223"
         y="49.485405"
         style="stroke-width:0.186544"
         id="tspan855">$\CC$</tspan></text>
    <text
       xml:space="preserve"
       style="font-size:10.5833px;line-height:1.25;font-family:sans-serif;word-spacing:0px;stroke-width:0.264583"
       x="-14.176309"
       y="53.684402"
       id="text861"><tspan
         sodipodi:role="line"
         id="tspan859"
         x="-14.176309"
         y="53.684402"
         style="stroke-width:0.264583">$M$</tspan></text>
    <path
       style="fill:#cd8282;fill-rule:evenodd;stroke:#a51d1e;stroke-width:1;stroke-linejoin:round;stroke-miterlimit:4;stroke-dasharray:1, 1;stroke-dashoffset:0;stroke-opacity:0.981966"
       id="path863"
       sodipodi:type="arc"
       sodipodi:cx="114.34832"
       sodipodi:cy="52.627071"
       sodipodi:rx="43.853901"
       sodipodi:ry="18.520834"
       sodipodi:start="4.8617717"
       sodipodi:end="4.8589443"
       sodipodi:open="true"
       sodipodi:arc-type="arc"
       d="M 120.875,34.312501 A 43.853901,18.520834 0 0 1 157.71843,55.370539 43.853901,18.520834 0 0 1 107.88295,70.94552 43.853901,18.520834 0 0 1 70.969071,49.9095 43.853901,18.520834 0 0 1 120.75236,34.304781" />
    <path
       style="fill:#cd8282;fill-rule:evenodd;stroke:#a51d1e;stroke-width:0.318533;stroke-linejoin:round;stroke-miterlimit:4;stroke-dasharray:0.318533, 0.318533;stroke-dashoffset:0;stroke-opacity:0.981966"
       id="path863-3"
       sodipodi:type="arc"
       sodipodi:cx="297.91211"
       sodipodi:cy="61.947514"
       sodipodi:rx="10.459349"
       sodipodi:ry="7.8790069"
       sodipodi:start="4.8617717"
       sodipodi:end="4.8589443"
       sodipodi:open="true"
       sodipodi:arc-type="arc"
       d="m 299.46875,54.156254 a 10.459349,7.8790069 0 0 1 8.78732,8.958367 10.459349,7.8790069 0 0 1 -11.88598,6.625802 10.459349,7.8790069 0 0 1 -8.80412,-8.949 10.459349,7.8790069 0 0 1 11.87353,-6.638453" />
  </g>
</svg>
