<?xml version="1.0" encoding="UTF-8" standalone="no"?>
<svg
   xmlns:dc="http://purl.org/dc/elements/1.1/"
   xmlns:cc="http://creativecommons.org/ns#"
   xmlns:rdf="http://www.w3.org/1999/02/22-rdf-syntax-ns#"
   xmlns:svg="http://www.w3.org/2000/svg"
   xmlns="http://www.w3.org/2000/svg"
   xmlns:sodipodi="http://sodipodi.sourceforge.net/DTD/sodipodi-0.dtd"
   xmlns:inkscape="http://www.inkscape.org/namespaces/inkscape"
   width="210mm"
   height="148mm"
   viewBox="0 0 210 148"
   version="1.1"
   id="svg8"
   sodipodi:docname="2021-02-15_14-16.svg"
   inkscape:version="1.0.2 (e86c870879, 2021-01-15)">
  <defs
     id="defs2" />
  <sodipodi:namedview
     id="base"
     pagecolor="#ffffff"
     bordercolor="#000000"
     borderopacity="1"
     inkscape:pageopacity="0.0"
     inkscape:pageshadow="2"
     inkscape:zoom="1.785173"
     inkscape:cx="387.91332"
     inkscape:cy="210.02164"
     inkscape:document-units="mm"
     inkscape:current-layer="layer1"
     inkscape:document-rotation="0"
     showgrid="true"
     showborder="true"
     borderlayer="true"
     inkscape:showpageshadow="false"
     objecttolerance="10000"
     guidetolerance="10000"
     inkscape:snap-perpendicular="true"
     inkscape:snap-tangential="true"
     inkscape:window-width="1920"
     inkscape:window-height="1080"
     inkscape:window-x="2999"
     inkscape:window-y="499"
     inkscape:window-maximized="0">
    <sodipodi:guide
       position="0,148"
       orientation="0,793.70079"
       id="guide10" />
    <sodipodi:guide
       position="210,148"
       orientation="559.37008,0"
       id="guide12" />
    <sodipodi:guide
       position="210,0"
       orientation="0,-793.70079"
       id="guide14" />
    <sodipodi:guide
       position="0,0"
       orientation="-559.37008,0"
       id="guide16" />
    <inkscape:grid
       type="xygrid"
       id="grid20"
       dotted="true"
       units="px"
       originx="105"
       originy="74.000003" />
  </sodipodi:namedview>
  <metadata
     id="metadata5">
    <rdf:RDF>
      <cc:Work
         rdf:about="">
        <dc:format>image/svg+xml</dc:format>
        <dc:type
           rdf:resource="http://purl.org/dc/dcmitype/StillImage" />
        <dc:title />
        <cc:license
           rdf:resource="" />
      </cc:Work>
    </rdf:RDF>
  </metadata>
  <g
     inkscape:label="Layer 1"
     inkscape:groupmode="layer"
     id="layer1">
    <path
       id="path837"
       style="fill:none;stroke:#000000;stroke-width:0.264583px;stroke-linecap:butt;stroke-linejoin:miter;stroke-opacity:1"
       d="m 15.107647,67.117618 c -8.0623817,12.269686 2.919575,37.278282 17.104894,47.256822 20.826716,11.04947 45.357256,2.67758 65.693345,-5.35619 25.930094,-12.072755 49.181274,-29.785058 76.932854,-37.880205 16.28446,-4.0052 28.83168,-24.020081 17.7889,-38.986727 -12.7095,-17.18561 -36.60018,-19.482376 -56.39284,-19.43976 -34.77635,1.654037 -68.187477,16.494429 -93.894025,39.85865 -7.754453,7.047883 -19.170746,2.277724 -27.233128,14.54741 z"
       sodipodi:nodetypes="zcccccsz" />
    <path
       id="path839"
       style="fill:none;stroke:#000000;stroke-width:0.264583px;stroke-linecap:butt;stroke-linejoin:miter;stroke-opacity:1"
       d="M 29.59375,81.937503 C 30.575834,94.137078 49.360644,95.658748 58.066211,94.230907 65.636082,92.690889 67.104784,91.86977 73.25,87.22917"
       sodipodi:nodetypes="ccc" />
    <path
       id="path841"
       style="fill:none;stroke:#000000;stroke-width:0.264583px;stroke-linecap:butt;stroke-linejoin:miter;stroke-opacity:1"
       d="m 33.5625,89.61042 c 8.189012,-10.119589 23.552309,-0.636245 31.485417,2.645833"
       sodipodi:nodetypes="cc" />
    <path
       id="path843"
       style="fill:none;stroke:#000000;stroke-width:0.264583px;stroke-linecap:butt;stroke-linejoin:miter;stroke-opacity:1"
       d="m 131.38925,40.88004 c 4.83897,5.484345 10.95382,10.468809 18.41841,11.530392 5.33344,0.959621 10.92939,-0.220337 15.45929,-3.181652 3.90546,-2.218949 7.57194,-4.827856 11.17055,-7.507944" />
    <path
       id="path845"
       style="fill:none;stroke:#000000;stroke-width:0.264583px;stroke-linecap:butt;stroke-linejoin:miter;stroke-opacity:1"
       d="m 136.48542,45.95417 c 10.27617,-6.711785 27.77198,-9.103725 33.86666,0"
       sodipodi:nodetypes="cc" />
    <circle
       style="fill:#ff1c57;fill-rule:evenodd;stroke:#181c57;stroke-width:1;stroke-linejoin:round"
       id="path847"
       sodipodi:type="arc"
       sodipodi:cx="24.302084"
       sodipodi:cy="72.677086"
       sodipodi:rx="1.3229166"
       sodipodi:ry="1.3229166"
       sodipodi:start="5.0507036"
       sodipodi:end="5.0265308"
       sodipodi:open="true"
       sodipodi:arc-type="arc"
       d="m 24.741157,71.429158 a 1.3229166,1.3229166 0 0 1 0.811485,1.679451 1.3229166,1.3229166 0 0 1 -1.674516,0.82162 1.3229166,1.3229166 0 0 1 -0.831724,-1.669521 1.3229166,1.3229166 0 0 1 1.664464,-0.841798" />
    <path
       style="fill:none;stroke:#000000;stroke-width:0.264583px;stroke-linecap:butt;stroke-linejoin:miter;stroke-opacity:1"
       d="m -16.708333,89.875002 c 0,111.124998 0,111.124998 0,111.124998"
       id="path849" />
    <path
       style="fill:none;stroke:#000000;stroke-width:0.264583px;stroke-linecap:butt;stroke-linejoin:miter;stroke-opacity:1"
       d="m -51.104167,158.66667 c 132.291665,0 132.291665,0 132.291665,0"
       id="path851" />
    <circle
       style="fill:#ff1c57;fill-rule:evenodd;stroke:#181c57;stroke-width:1;stroke-linejoin:round"
       id="path853"
       sodipodi:type="arc"
       sodipodi:cx="-18.03125"
       sodipodi:cy="159.98959"
       sodipodi:rx="30.427082"
       sodipodi:ry="30.427082"
       sodipodi:start="5.0507036"
       sodipodi:end="5.0265308"
       sodipodi:open="true"
       sodipodi:arc-type="arc"
       d="m -7.9325709,131.28726 a 30.427082,30.427082 0 0 1 18.6641589,38.62738 30.427082,30.427082 0 0 1 -38.51388,18.89725 30.427082,30.427082 0 0 1 -19.129651,-38.39898 30.427082,30.427082 0 0 1 38.2826736,-19.36136" />
    <path
       style="fill:none;stroke:#000000;stroke-width:0.264583px;stroke-linecap:butt;stroke-linejoin:miter;stroke-opacity:1"
       d="m 25.625,74.000002 c -3.519365,-2.090828 -2.303098,-0.670986 -5.214673,1.734444 -2.267862,1.873621 -4.301983,3.81081 -6.371599,5.901399 C 9.1799314,86.543884 4.3258001,91.906991 0.62484907,97.756741 -3.3128185,103.98065 -5.5462661,111.20707 -7.5911566,118.2163 c -0.9159513,3.13958 -1.8612255,6.2512 -2.5151064,9.45868 -0.97289,4.77232 -1.248166,9.55838 -1.676733,14.39366 -0.09759,1.10103 -0.538753,3.30379 -0.733572,3.33109 -0.06219,0.009 -2.276668,-2.83673 -2.410305,-3.1049 -1.862224,-3.73695 2.988797,3.16359 4.066083,3.02266 1.2823136,-0.16776 6.0781632,-6.38773 6.0781632,-7.15571 0,-0.32932 -0.4890479,-0.44119 -0.7335716,-0.66178"
       id="path855" />
    <text
       xml:space="preserve"
       style="font-size:10.5833px;line-height:1.25;font-family:sans-serif;word-spacing:0px;stroke-width:0.264583"
       x="171.14583"
       y="84.583336"
       id="text859"><tspan
         sodipodi:role="line"
         id="tspan857"
         x="171.14583"
         y="84.583336"
         style="stroke-width:0.264583">$C$</tspan></text>
    <text
       xml:space="preserve"
       style="font-size:10.5833px;line-height:1.25;font-family:sans-serif;word-spacing:0px;stroke-width:0.264583"
       x="12.704993"
       y="53.351952"
       id="text863"><tspan
         sodipodi:role="line"
         id="tspan861"
         x="12.704993"
         y="53.351952"
         style="stroke-width:0.264583">$p$</tspan></text>
    <text
       xml:space="preserve"
       style="font-size:10.5833px;line-height:1.25;font-family:sans-serif;word-spacing:0px;stroke-width:0.264583"
       x="17.6875"
       y="182.47917"
       id="text867"><tspan
         sodipodi:role="line"
         id="tspan865"
         x="17.6875"
         y="182.47917"
         style="stroke-width:0.264583">$\DD \da \ts{z\in \CC\st \abs{z} = 1}$</tspan></text>
    <path
       id="path869"
       style="fill:none;stroke:#000000;stroke-width:0.264583px;stroke-linecap:butt;stroke-linejoin:miter;stroke-opacity:1"
       d="m 24.302083,64.739586 c -4.926398,3.349036 -13.539875,10.993306 -6.679247,16.587376 8.076989,3.923983 12.452313,-8.725336 20.787328,-6.977693 8.474426,0.01548 10.33821,-12.54906 1.248644,-13.189354 -5.132476,-0.193854 -11.091481,0.541971 -15.356725,3.579671 z" />
    <text
       xml:space="preserve"
       style="font-size:10.5833px;line-height:1.25;font-family:sans-serif;word-spacing:0px;stroke-width:0.264583"
       x="4.458333"
       y="74.000008"
       id="text873"><tspan
         sodipodi:role="line"
         id="tspan871"
         x="4.458333"
         y="74.000008"
         style="stroke-width:0.264583" /></text>
    <text
       xml:space="preserve"
       style="font-size:10.5833px;line-height:1.25;font-family:sans-serif;word-spacing:0px;stroke-width:0.264583"
       x="-37.875"
       y="163.95834"
       id="text877"><tspan
         sodipodi:role="line"
         id="tspan875"
         x="-37.875"
         y="163.95834"
         style="stroke-width:0.264583">$U$</tspan></text>
    <text
       xml:space="preserve"
       style="font-size:10.5833px;line-height:1.25;font-family:sans-serif;word-spacing:0px;stroke-width:0.264583"
       x="41.499996"
       y="140.14584"
       id="text881"><tspan
         sodipodi:role="line"
         id="tspan879"
         x="41.499996"
         y="140.14584"
         style="stroke-width:0.264583">$V=\CC\sm U$</tspan></text>
  </g>
</svg>
