<?xml version="1.0" encoding="UTF-8" standalone="no"?>
<svg
   xmlns:dc="http://purl.org/dc/elements/1.1/"
   xmlns:cc="http://creativecommons.org/ns#"
   xmlns:rdf="http://www.w3.org/1999/02/22-rdf-syntax-ns#"
   xmlns:svg="http://www.w3.org/2000/svg"
   xmlns="http://www.w3.org/2000/svg"
   xmlns:sodipodi="http://sodipodi.sourceforge.net/DTD/sodipodi-0.dtd"
   xmlns:inkscape="http://www.inkscape.org/namespaces/inkscape"
   width="210mm"
   height="148mm"
   viewBox="0 0 210 148"
   version="1.1"
   id="svg8"
   sodipodi:docname="2021-02-22_14-23.svg"
   inkscape:version="1.0.2 (e86c870879, 2021-01-15)">
  <defs
     id="defs2" />
  <sodipodi:namedview
     id="base"
     pagecolor="#ffffff"
     bordercolor="#000000"
     borderopacity="1"
     inkscape:pageopacity="0.0"
     inkscape:pageshadow="2"
     inkscape:zoom="0.7"
     inkscape:cx="489.35776"
     inkscape:cy="501.819"
     inkscape:document-units="mm"
     inkscape:current-layer="layer1"
     inkscape:document-rotation="0"
     showgrid="true"
     showborder="true"
     borderlayer="true"
     inkscape:showpageshadow="false"
     objecttolerance="10000"
     guidetolerance="10000"
     inkscape:snap-perpendicular="true"
     inkscape:snap-tangential="true"
     inkscape:window-width="943"
     inkscape:window-height="1027"
     inkscape:window-x="488"
     inkscape:window-y="41"
     inkscape:window-maximized="0">
    <sodipodi:guide
       position="0,148"
       orientation="0,793.70079"
       id="guide10" />
    <sodipodi:guide
       position="210,148"
       orientation="559.37008,0"
       id="guide12" />
    <sodipodi:guide
       position="210,0"
       orientation="0,-793.70079"
       id="guide14" />
    <sodipodi:guide
       position="0,0"
       orientation="-559.37008,0"
       id="guide16" />
    <inkscape:grid
       type="xygrid"
       id="grid20"
       dotted="true"
       units="px"
       originx="105"
       originy="74.000003" />
  </sodipodi:namedview>
  <metadata
     id="metadata5">
    <rdf:RDF>
      <cc:Work
         rdf:about="">
        <dc:format>image/svg+xml</dc:format>
        <dc:type
           rdf:resource="http://purl.org/dc/dcmitype/StillImage" />
        <dc:title />
        <cc:license
           rdf:resource="" />
      </cc:Work>
    </rdf:RDF>
  </metadata>
  <g
     inkscape:label="Layer 1"
     inkscape:groupmode="layer"
     id="layer1">
    <path
       style="fill:none;stroke:#000000;stroke-width:0.264583px;stroke-linecap:butt;stroke-linejoin:miter;stroke-opacity:1"
       d="m 136.75,74.000002 c -1.11432,-0.126378 -2.25946,-0.08979 -3.34295,-0.37914 -0.85152,-0.227396 -1.57789,-0.786731 -2.38114,-1.149477 -3.06638,-1.384787 -6.20714,-2.52852 -9.4867,-3.300129 -16.29081,-3.83286 -33.254534,-2.228313 -49.247734,2.076481 -9.804543,2.639031 -19.619698,5.819241 -27.893184,11.939783 -13.319294,9.853316 -26.813731,26.29438 -29.178245,43.23534 -2.311237,16.55926 5.817354,33.93275 17.386004,45.42305 11.470881,11.3932 25.678114,15.71234 40.857095,19.72661 7.498049,1.98294 15.013713,2.91164 22.715183,3.67091 16.337581,1.61068 33.180721,2.42298 49.398931,-0.85284 7.07827,-1.4297 11.34876,-2.7438 17.95292,-4.63501 22.38658,-6.41075 47.60631,-15.19219 61.56913,-35.22605 7.35906,-10.55878 10.60792,-24.33638 7.89929,-36.96881 -2.93123,-13.6706 -17.67603,-26.278267 -29.78297,-32.037159 -3.96019,-1.883738 -8.44454,-2.700459 -12.62377,-3.930489 -5.05074,-1.486537 -9.95096,-3.415704 -15.08047,-4.635007 -7.37724,-1.753595 -15.01014,-2.981963 -22.5262,-3.967562 -3.54379,-0.464707 -7.54601,-1.060948 -11.11191,-0.407887 -1.74292,0.319201 -3.39473,1.027803 -5.12328,1.417386 -1.07358,0.241964 -2.18945,0.251833 -3.26736,0.473707 -2.76701,0.569553 -2.79535,1.627185 -2.02431,-0.473707"
       id="path835" />
    <path
       style="fill:none;stroke:#000000;stroke-width:0.264583px;stroke-linecap:butt;stroke-linejoin:miter;stroke-opacity:1"
       d="m 67.958331,121.625 c 0.347652,5.35338 4.413317,9.27149 8.150511,12.73298 8.077671,7.48176 22.505236,10.76074 33.184578,10.23411 5.12643,-0.25281 9.8402,-0.90003 14.85369,-1.74277 8.24324,-1.38565 16.55693,-3.03008 24.18921,-6.56318 3.09669,-1.43351 9.501,-4.70113 12.88833,-6.85979 1.78039,-1.1346 14.12668,-10.88851 16.13874,-10.38242 0.60548,0.15229 1.14663,0.4944 1.71994,0.7416"
       id="path837" />
    <path
       style="fill:none;stroke:#000000;stroke-width:0.264583px;stroke-linecap:butt;stroke-linejoin:miter;stroke-opacity:1"
       d="m 78.541665,132.20833 c 0.625295,0.16036 1.231828,0.4375 1.875882,0.48106 0.171477,0.0116 1.283155,-1.49821 1.81419,-1.85401 1.934826,-1.29634 4.093313,-2.25242 6.085107,-3.44845 2.135923,-1.28258 3.96526,-2.79456 6.274072,-3.81924 3.245948,-1.44059 7.149114,-2.2436 10.620564,-2.92931 13.3709,-2.64114 27.26254,-3.67106 40.59254,-0.25956 3.12726,0.80035 6.56168,1.87833 9.25995,3.70799 2.60071,1.76351 4.85001,5.76172 8.14436,4.44962"
       id="path839" />
    <text
       xml:space="preserve"
       style="font-size:10.5833px;line-height:1.25;font-family:sans-serif;word-spacing:0px;stroke-width:0.264583"
       x="30.916664"
       y="52.833332"
       id="text843"><tspan
         sodipodi:role="line"
         id="tspan841"
         x="30.916664"
         y="52.833332"
         style="stroke-width:0.264583">$C$</tspan></text>
    <text
       xml:space="preserve"
       style="font-size:10.5833px;line-height:1.25;font-family:sans-serif;word-spacing:0px;stroke-width:0.264583"
       x="173.79167"
       y="63.416668"
       id="text847"><tspan
         sodipodi:role="line"
         id="tspan845"
         x="173.79167"
         y="63.416668"
         style="stroke-width:0.264583">$g(C) = 1$</tspan></text>
  </g>
</svg>
