<?xml version="1.0" encoding="UTF-8" standalone="no"?>
<svg
   xmlns:dc="http://purl.org/dc/elements/1.1/"
   xmlns:cc="http://creativecommons.org/ns#"
   xmlns:rdf="http://www.w3.org/1999/02/22-rdf-syntax-ns#"
   xmlns:svg="http://www.w3.org/2000/svg"
   xmlns="http://www.w3.org/2000/svg"
   xmlns:sodipodi="http://sodipodi.sourceforge.net/DTD/sodipodi-0.dtd"
   xmlns:inkscape="http://www.inkscape.org/namespaces/inkscape"
   width="210mm"
   height="148mm"
   viewBox="0 0 210 148"
   version="1.1"
   id="svg8"
   sodipodi:docname="2021-01-15_14-39.svg"
   inkscape:version="1.0.1 (3bc2e813f5, 2020-09-07, custom)">
  <defs
     id="defs2" />
  <sodipodi:namedview
     id="base"
     pagecolor="#ffffff"
     bordercolor="#000000"
     borderopacity="1"
     inkscape:pageopacity="0.0"
     inkscape:pageshadow="2"
     inkscape:zoom="1.8329802"
     inkscape:cx="486.02488"
     inkscape:cy="248.88249"
     inkscape:document-units="mm"
     inkscape:current-layer="layer1"
     inkscape:document-rotation="0"
     showgrid="true"
     showborder="true"
     borderlayer="true"
     inkscape:showpageshadow="false"
     objecttolerance="10000"
     guidetolerance="10000"
     inkscape:snap-perpendicular="true"
     inkscape:snap-tangential="true"
     inkscape:window-width="1920"
     inkscape:window-height="1080"
     inkscape:window-x="0"
     inkscape:window-y="0"
     inkscape:window-maximized="0">
    <sodipodi:guide
       position="0,148"
       orientation="0,793.70079"
       id="guide10" />
    <sodipodi:guide
       position="210,148"
       orientation="559.37008,0"
       id="guide12" />
    <sodipodi:guide
       position="210,0"
       orientation="0,-793.70079"
       id="guide14" />
    <sodipodi:guide
       position="0,0"
       orientation="-559.37008,0"
       id="guide16" />
    <inkscape:grid
       type="xygrid"
       id="grid20"
       dotted="true"
       units="px"
       originx="105"
       originy="74.000003" />
  </sodipodi:namedview>
  <metadata
     id="metadata5">
    <rdf:RDF>
      <cc:Work
         rdf:about="">
        <dc:format>image/svg+xml</dc:format>
        <dc:type
           rdf:resource="http://purl.org/dc/dcmitype/StillImage" />
        <dc:title />
        <cc:license
           rdf:resource="" />
      </cc:Work>
    </rdf:RDF>
  </metadata>
  <g
     inkscape:label="Layer 1"
     inkscape:groupmode="layer"
     id="layer1">
    <path
       style="fill:none;stroke:#000000;stroke-width:0.264583px;stroke-linecap:butt;stroke-linejoin:miter;stroke-opacity:1"
       d="M 99.708331,5.2083363 C 99.708331,148 99.708331,148 99.708331,148"
       id="path837" />
    <path
       style="fill:none;stroke:#000000;stroke-width:0.264583px;stroke-linecap:butt;stroke-linejoin:miter;stroke-opacity:1"
       d="m 0,74.000002 c 210.83333,0 210.83333,0 210.83333,0"
       id="path839" />
    <path
       style="fill:none;stroke:#ff0000;stroke-width:0.264583px;stroke-linecap:butt;stroke-linejoin:miter;stroke-opacity:1"
       d="m 99.708331,74.000002 c 68.791669,0 68.791669,0 68.791669,0"
       id="path841" />
    <path
       style="fill:none;stroke:#000000;stroke-width:0.264583px;stroke-linecap:butt;stroke-linejoin:miter;stroke-opacity:1"
       d="m 99.708331,74.000002 c 0,-37.041666 0,-47.624999 0,-47.624999"
       id="path843" />
    <path
       style="fill:none;stroke:#000000;stroke-width:0.264583px;stroke-linecap:butt;stroke-linejoin:miter;stroke-opacity:1"
       d="m 101.03125,74.000002 c -0.20464,-0.02286 -0.41155,-0.106646 -0.6139,-0.06857 -0.042,0.0079 0.0386,0.386916 0,0.424818 -0.15263,0.149741 -0.28172,-0.07688 -0.33198,-0.198247 -0.459999,-1.11088 -0.169127,-3.116662 -0.115477,-4.248171 0.07315,-1.542622 0.04257,-3.156853 -0.0433,-4.701307 -0.214164,-3.851963 0.04996,-7.686768 -0.01442,-11.540863 -0.03822,-2.28754 -0.379605,-4.585446 -0.360846,-6.867875 0.0091,-1.10799 0.201065,-2.208926 0.25981,-3.31357 0.09113,-1.713608 0.395613,-3.450576 0.216513,-5.168609 -0.005,-0.0498 -0.215383,-2.858259 -0.319306,-1.656789"
       id="path847" />
    <path
       style="fill:none;stroke:#000000;stroke-width:0.264583px;stroke-linecap:butt;stroke-linejoin:miter;stroke-opacity:1"
       d="m 99.708331,36.958336 c -0.220734,0.62774 -0.372163,1.284337 -0.662202,1.883219 -0.130111,0.268658 -1.589849,2.447272 -1.84753,2.846274 -0.290364,0.449609 -0.672726,1.059241 -0.692824,0.977074 -0.195742,-0.800227 0.687789,-1.782246 0.995939,-2.463937 0.446611,-0.987999 1.190752,-3.17776 1.255742,-3.171965 0.09566,0.0085 0.487195,1.341064 0.562917,1.472697 1.048997,1.823564 3.087867,3.009524 4.633267,4.347294 1.15304,1.089317 0.3774,0.390189 1.22687,1.104522 0.088,0.07396 0.37473,0.226573 0.25982,0.226573 -0.16507,0 -0.29355,-0.151048 -0.44033,-0.226573"
       id="path849" />
    <path
       style="fill:none;stroke:#000000;stroke-width:0.264583px;stroke-linecap:butt;stroke-linejoin:miter;stroke-opacity:1"
       d="m 101.03125,75.322919 c 1.07291,1.898377 -1.560107,-1.471729 -1.277858,-1.264037 0.290598,0.213839 0.638548,0.355 0.894898,0.608899 0.17972,0.178004 0.13539,0.60324 0.38296,0.655138 0.43718,0.09165 0.8602,-0.269862 1.3058,-0.30112 0.65795,-0.04615 1.31791,0.07876 1.97743,0.0708 2.43274,-0.02935 4.78458,-0.382717 7.23136,-0.269047 3.25368,0.151156 6.50353,0.194233 9.75729,0.311528 3.34285,0.12051 6.71331,0.503108 10.06038,0.396494 2.37404,-0.07562 4.73017,-0.429725 7.10146,-0.538099 2.95381,-0.134998 5.90798,0.281107 8.86238,0.141605 1.59094,-0.07512 3.20703,-0.203874 4.79203,-0.35401 1.19385,-0.113085 2.33309,-0.464335 3.53629,-0.538109 0.71919,-0.0441 1.43179,-0.05006 2.15065,-0.0708 0.38284,-0.01103 0.8549,0.01619 0.8516,0 -0.10268,-0.503603 -1.2918,-1.087761 -1.63103,-1.373579 -0.7915,-0.666891 -1.2137,-1.584945 -1.74649,-2.449775 -0.35267,-0.572455 -0.35141,-0.596437 -0.82273,-1.090366 -0.0971,-0.10173 -0.3995,-0.370936 -0.34641,-0.240729 0.42,1.030166 2.45363,2.700065 3.36308,3.271097 1.00658,0.632015 2.62054,0.504727 2.49706,2.039114 -0.13403,1.665635 -2.807,3.060708 -3.94044,4.120724 -0.38616,0.361149 -0.78619,0.885421 -0.88047,0.807154 -0.16252,-0.134913 -0.32669,-0.623064 -0.11547,-0.623064 0.15785,0 0.15721,0.273772 0.23581,0.410659"
       id="path857" />
    <path
       style="fill:none;stroke:#000000;stroke-width:0.264583px;stroke-linecap:butt;stroke-linejoin:miter;stroke-opacity:1"
       d="m 101.03125,74.000002 c -0.29605,0.453885 -0.68791,0.858104 -0.88815,1.361649 -0.212143,0.533482 0.26097,5.371139 0.20208,6.499701 -0.12762,2.445763 -0.396702,4.744836 -0.27424,7.207724 0.10561,2.124008 0.63372,4.176961 0.92376,6.27313 0.32494,2.348426 0.46606,4.642448 1.03923,6.952844 0.48436,1.95239 1.04567,3.91703 0.96708,5.94743 -0.0166,0.4297 -0.0353,0.84404 -0.0144,1.27445 0.004,0.085 0.0989,0.24454 0.0144,0.2549 -0.23281,0.0285 -1.08909,-1.14743 -1.15472,-1.23197 -1.54716,-1.99303 -3.031936,-4.0399 -3.954869,-6.40058 -0.05827,-0.14906 -0.31805,-0.46877 -0.158768,-0.45314 0.106889,0.0105 0.663099,1.18387 0.793861,1.45854 0.842465,1.76958 1.674596,4.36301 3.059976,5.76335 0.75995,0.76816 1.29995,-0.63857 1.60216,-1.09036 0.37497,-0.56057 0.8127,-1.23482 1.28461,-1.71343 0.93102,-0.94425 3.96112,-3.50903 3.78167,-5.05533 -0.0326,-0.28091 -0.40607,-0.39372 -0.6091,-0.59058"
       id="path859" />
    <path
       style="fill:none;stroke:#000000;stroke-width:0.264583px;stroke-linecap:butt;stroke-linejoin:miter;stroke-opacity:1"
       d="m 114.26041,55.479169 c 0.97113,-3.78464 -2.67037,-7.101075 -2.23825,-10.845943 0.22704,-1.967611 3.05278,-0.958323 4.15695,-0.665549 0.0913,0.02421 0.91097,0.2202 0.9815,0.467297 0.13005,0.455681 -0.35428,0.510796 -0.59179,0.608907 -0.0396,0.01638 -0.11547,0.09951 -0.11547,0.05664 0,-0.07834 0.077,-0.136459 0.11547,-0.204687"
       id="path861" />
    <path
       style="fill:none;stroke:#000000;stroke-width:0.264583px;stroke-linecap:butt;stroke-linejoin:miter;stroke-opacity:1"
       d="m 110.29166,50.187502 c 1.06268,-0.729969 0.82446,-0.827389 2.13465,-0.725527 2.15118,0.167243 2.67032,0.517393 4.691,0.368178 0.51725,-0.0382 3.76968,-0.922898 2.43477,-0.325696"
       id="path863" />
    <path
       style="fill:none;stroke:#eb0000;stroke-width:0.264583px;stroke-linecap:butt;stroke-linejoin:miter;stroke-opacity:1"
       d="m 153.94791,63.416669 c 0.48747,0.257431 0.9254,0.647663 1.46239,0.772292 0.0657,0.01524 3.52625,-2.74542 0.89491,-2.081599 -0.48976,0.123553 -0.9652,0.538935 -1.15472,1.005401 -0.66301,1.631847 -0.21709,2.789486 1.40009,3.455175 1.14806,0.472586 2.53069,0.116165 3.27648,-0.877951 0.7694,-1.025607 0.59716,-1.634302 0.73544,-0.950402"
       id="path865" />
    <path
       style="fill:none;stroke:#ec0000;stroke-width:0.264583px;stroke-linecap:butt;stroke-linejoin:miter;stroke-opacity:1"
       d="m 99.708331,74.000002 c -0.03309,-0.01341 -0.08586,-0.07334 -0.09928,-0.04024 -0.01341,0.03309 0.09438,0.07561 0.09928,0.04024 0.05433,-0.392504 0.02217,-0.792763 0.05949,-1.187249 0.101629,-1.074372 0.08508,-2.122779 0.129907,-3.200289 0.04674,-1.123397 0.184022,-2.242965 0.158772,-3.37022 -0.0143,-0.638291 -0.131334,-1.131215 -0.187643,-1.798386 -0.124153,-1.471015 -0.05469,-3.01376 -0.0433,-4.488902 0.0057,-0.736537 0.212823,-1.390034 0.331983,-2.109923 0.20296,-1.226121 0.0324,-2.464837 0.11547,-3.695911 0.072,-1.067475 0.38414,-2.158773 0.37528,-3.22861 -0.008,-0.95735 -0.0323,-2.015456 -0.30311,-2.945397 -0.24668,-0.84703 -0.558715,-1.625918 -0.692822,-2.506417 -0.109193,-0.716912 -0.305789,-2.259285 -0.144346,-2.987879 0.223216,-1.007385 0.948748,-0.777687 0.200319,-1.553733"
       id="path867" />
    <path
       style="fill:none;stroke:#000000;stroke-width:0.264583px;stroke-linecap:butt;stroke-linejoin:miter;stroke-opacity:1"
       d="m 98.385414,74.000002 c 0.347078,0.702506 0.488051,1.531538 1.382409,1.460772 0.538477,-0.0426 1.200947,-0.374811 1.732067,-0.453141 2.25368,-0.332377 4.52229,-0.54611 6.78391,-0.807146 1.44324,-0.166579 2.88076,-0.429482 4.33015,-0.538107 1.17726,-0.08823 2.35751,-0.0131 3.53629,-0.02831 1.62993,-0.02104 3.24813,-0.254233 4.87864,-0.212416 1.44711,0.03712 2.8839,0.230915 4.33015,0.269055 2.4746,0.06526 4.94517,0.124476 7.419,0.212405 1.40073,0.04979 2.8025,-0.143394 4.20025,-0.198247 2.05338,-0.08058 4.12374,-0.189929 6.17769,-0.226571 3.13673,-0.05596 6.27579,0.122103 9.41086,0.02832 1.39784,-0.04181 2.76347,0.02934 4.15695,0.113281 0.46509,0.02802 0.63378,0.06414 1.08254,0.04248 0.46164,-0.02228 0.64952,-0.122375 0.64952,-0.0708 0,0.161351 -0.1732,0.272281 -0.2598,0.408422"
       id="path869" />
  </g>
</svg>
