<?xml version="1.0" encoding="UTF-8" standalone="no"?>
<svg
   xmlns:dc="http://purl.org/dc/elements/1.1/"
   xmlns:cc="http://creativecommons.org/ns#"
   xmlns:rdf="http://www.w3.org/1999/02/22-rdf-syntax-ns#"
   xmlns:svg="http://www.w3.org/2000/svg"
   xmlns="http://www.w3.org/2000/svg"
   xmlns:sodipodi="http://sodipodi.sourceforge.net/DTD/sodipodi-0.dtd"
   xmlns:inkscape="http://www.inkscape.org/namespaces/inkscape"
   width="210mm"
   height="148mm"
   viewBox="0 0 210 148"
   version="1.1"
   id="svg8"
   sodipodi:docname="2021-03-17_13-55.svg"
   inkscape:version="1.0.2 (e86c870879, 2021-01-15)">
  <defs
     id="defs2" />
  <sodipodi:namedview
     id="base"
     pagecolor="#ffffff"
     bordercolor="#000000"
     borderopacity="1"
     inkscape:pageopacity="0.0"
     inkscape:pageshadow="2"
     inkscape:zoom="0.7"
     inkscape:cx="521.74628"
     inkscape:cy="501.819"
     inkscape:document-units="mm"
     inkscape:current-layer="layer1"
     inkscape:document-rotation="0"
     showgrid="true"
     showborder="true"
     borderlayer="true"
     inkscape:showpageshadow="false"
     objecttolerance="10000"
     guidetolerance="10000"
     inkscape:snap-perpendicular="true"
     inkscape:snap-tangential="true"
     inkscape:window-width="943"
     inkscape:window-height="1027"
     inkscape:window-x="488"
     inkscape:window-y="41"
     inkscape:window-maximized="0">
    <sodipodi:guide
       position="0,148"
       orientation="0,793.70079"
       id="guide10" />
    <sodipodi:guide
       position="210,148"
       orientation="559.37008,0"
       id="guide12" />
    <sodipodi:guide
       position="210,0"
       orientation="0,-793.70079"
       id="guide14" />
    <sodipodi:guide
       position="0,0"
       orientation="-559.37008,0"
       id="guide16" />
    <inkscape:grid
       type="xygrid"
       id="grid20"
       dotted="true"
       units="px"
       originx="105"
       originy="74.000003" />
  </sodipodi:namedview>
  <metadata
     id="metadata5">
    <rdf:RDF>
      <cc:Work
         rdf:about="">
        <dc:format>image/svg+xml</dc:format>
        <dc:type
           rdf:resource="http://purl.org/dc/dcmitype/StillImage" />
        <dc:title />
        <cc:license
           rdf:resource="" />
      </cc:Work>
    </rdf:RDF>
  </metadata>
  <g
     inkscape:label="Layer 1"
     inkscape:groupmode="layer"
     id="layer1">
    <path
       style="fill:none;stroke:#000000;stroke-width:0.264583px;stroke-linecap:butt;stroke-linejoin:miter;stroke-opacity:1"
       d="m 4.4583334,148 c 0.639182,-0.39438 1.3856403,-0.65288 1.9175462,-1.18313 1.0560981,-1.0528 1.3502812,-2.6807 2.2677189,-3.85631 1.9764965,-2.53268 5.5544865,-6.05878 8.0504725,-8.00929 14.965888,-11.69518 35.040355,-16.0111 53.70764,-13.83087 6.057797,0.70751 10.867165,1.426 16.592285,3.15182 15.895184,4.79154 -4.50678,-0.10398 17.310404,5.30244 2.0835,0.5163 13.37431,2.73296 15.42062,3.1518 13.50678,2.76459 24.00513,5.16727 38.13582,4.19004 5.45436,-0.37721 13.56245,-2.34049 18.82222,-3.70799 11.85436,-3.08205 23.47781,-7.61913 34.09168,-13.79378 2.52469,-1.46875 5.92526,-3.847 8.20165,-5.85866 1.36856,-1.2094 2.54128,-3.3238 1.58743,-2.5144"
       id="path837" />
    <path
       style="fill:none;stroke:#000000;stroke-width:0.264583px;stroke-linecap:butt;stroke-linejoin:miter;stroke-opacity:1"
       d="m 46.791665,153.375 c -0.205658,0.10056 -0.602078,0.53013 -0.616974,0.30169 -0.163713,-2.51086 0.472014,-5.01285 0.566941,-7.52725 0.380188,-10.07033 1.239997,-20.02497 2.040964,-30.07193 1.349595,-16.928619 0.770877,-33.894004 1.92758,-50.836743 0.40612,-5.948638 1.44404,-11.736144 1.373156,-17.699098"
       id="path839" />
    <path
       style="fill:none;stroke:#000000;stroke-width:0.264583px;stroke-linecap:butt;stroke-linejoin:miter;stroke-opacity:1"
       d="m 78.541665,153.375 c -0.334174,-2.82994 -0.470411,-2.426 -0.240681,-4.74119 1.067234,-10.75556 3.565009,-21.37952 4.913437,-32.11134 0.142475,-1.13393 3.188602,-27.393929 3.741764,-30.776437 2.057368,-12.580519 3.658536,-20.524898 6.652048,-32.11132 7.665137,-29.667979 -0.946415,4.794139 4.422097,-16.018586 0.243653,-0.9446 -0.26571,-2.499122 0.642517,-2.855156 0.753854,-0.295518 0.690325,1.464911 1.035484,2.197365"
       id="path841" />
    <path
       style="fill:none;stroke:#000000;stroke-width:0.264583px;stroke-linecap:butt;stroke-linejoin:miter;stroke-opacity:1"
       d="m 126.16666,148.08333 c 0.0953,0.20822 0.25859,0.852 0.28598,0.62465 0.23252,-1.92989 0.14636,-3.88743 0.34017,-5.82159 0.53178,-5.30707 1.44185,-10.57036 2.04096,-15.87027 1.3663,-12.08649 2.29367,-24.23789 4.15753,-36.264279 1.80758,-11.663161 4.34846,-23.130438 6.84102,-34.669843 1.20858,-5.59522 2.45417,-11.182612 3.74176,-16.760179 0.35038,-1.517764 -0.14703,-3.694689 1.17167,-4.523774 0.95123,-0.598049 1.72505,1.440193 2.58758,2.160291"
       id="path843" />
    <path
       style="fill:none;stroke:#000000;stroke-width:0.264583px;stroke-linecap:butt;stroke-linejoin:miter;stroke-opacity:1"
       d="m 179.08333,148.08333 c -0.54812,-0.92891 -1.41124,-1.73366 -1.64437,-2.78674 -0.11757,-0.53109 -0.41841,-8.99855 -0.4535,-10.34532 -0.39416,-15.12479 1.16824,-29.67922 4.04409,-44.533145 2.91276,-15.044536 5.41457,-30.051292 7.71031,-45.200577 0.95129,-6.277406 2.14082,-12.517612 3.06146,-18.799587 0.42072,-2.870746 0.84021,-5.746453 1.05831,-8.639653 0.0726,-0.963406 0.26525,-2.039554 -0.18899,-2.892249 -0.19674,-0.369308 -0.57955,0.603741 -0.86932,0.905611"
       id="path845" />
    <circle
       style="fill:#f4cece;fill-rule:evenodd;stroke-width:0.499999;stroke-linejoin:round"
       id="path847"
       sodipodi:type="arc"
       sodipodi:cx="177.44821"
       sodipodi:cy="110.78271"
       sodipodi:rx="5.2916665"
       sodipodi:ry="5.2916665"
       sodipodi:start="5.0507036"
       sodipodi:end="5.0265308"
       sodipodi:open="true"
       sodipodi:arc-type="arc"
       d="m 179.2045,105.791 a 5.2916665,5.2916665 0 0 1 3.24594,6.7178 5.2916665,5.2916665 0 0 1 -6.69806,3.28648 5.2916665,5.2916665 0 0 1 -3.3269,-6.67808 5.2916665,5.2916665 0 0 1 6.65786,-3.3672" />
    <circle
       style="fill:#f4cece;fill-rule:evenodd;stroke-width:0.499999;stroke-linejoin:round"
       id="path847-3"
       sodipodi:type="arc"
       sodipodi:cx="188.03154"
       sodipodi:cy="52.574371"
       sodipodi:rx="5.2916665"
       sodipodi:ry="5.2916665"
       sodipodi:start="5.0507036"
       sodipodi:end="5.0265308"
       sodipodi:open="true"
       sodipodi:arc-type="arc"
       d="m 189.78783,47.582661 a 5.2916665,5.2916665 0 0 1 3.24594,6.717805 5.2916665,5.2916665 0 0 1 -6.69806,3.286478 5.2916665,5.2916665 0 0 1 -3.3269,-6.678083 5.2916665,5.2916665 0 0 1 6.65786,-3.367192" />
    <text
       xml:space="preserve"
       style="font-size:10.5833px;line-height:1.25;font-family:sans-serif;word-spacing:0px;stroke-width:0.264583"
       x="216.125"
       y="31.66667"
       id="text871"><tspan
         sodipodi:role="line"
         id="tspan869"
         x="216.125"
         y="31.66667"
         style="stroke-width:0.264583">$\bundle{E}$</tspan><tspan
         sodipodi:role="line"
         x="216.125"
         y="44.895794"
         style="stroke-width:0.264583"
         id="tspan873" /></text>
    <text
       xml:space="preserve"
       style="font-size:10.5833px;line-height:1.25;font-family:sans-serif;word-spacing:0px;stroke-width:0.264583"
       x="226.70833"
       y="132.20834"
       id="text877"><tspan
         sodipodi:role="line"
         id="tspan875"
         x="226.70833"
         y="132.20834"
         style="stroke-width:0.264583">$X$</tspan></text>
    <circle
       style="fill:#f4cece;fill-rule:evenodd;stroke-width:0.499999;stroke-linejoin:round"
       id="path847-6"
       sodipodi:type="arc"
       sodipodi:cx="177.44821"
       sodipodi:cy="131.94937"
       sodipodi:rx="5.2916665"
       sodipodi:ry="5.2916665"
       sodipodi:start="5.0507036"
       sodipodi:end="5.0265308"
       sodipodi:open="true"
       sodipodi:arc-type="arc"
       d="m 179.2045,126.95766 a 5.2916665,5.2916665 0 0 1 3.24594,6.71781 5.2916665,5.2916665 0 0 1 -6.69806,3.28647 5.2916665,5.2916665 0 0 1 -3.3269,-6.67808 5.2916665,5.2916665 0 0 1 6.65786,-3.36719" />
    <text
       xml:space="preserve"
       style="font-size:10.5833px;line-height:1.25;font-family:sans-serif;word-spacing:0px;stroke-width:0.264583"
       x="189.66667"
       y="158.66667"
       id="text890"><tspan
         sodipodi:role="line"
         id="tspan888"
         x="189.66667"
         y="158.66667"
         style="stroke-width:0.264583">$p$</tspan></text>
    <text
       xml:space="preserve"
       style="font-size:10.5833px;line-height:1.25;font-family:sans-serif;word-spacing:0px;stroke-width:0.264583"
       x="152.625"
       y="105.75"
       id="text894"><tspan
         sodipodi:role="line"
         id="tspan892"
         x="152.625"
         y="105.75"
         style="stroke-width:0.264583">$v$</tspan></text>
    <text
       xml:space="preserve"
       style="font-size:10.5833px;line-height:1.25;font-family:sans-serif;word-spacing:0px;stroke-width:0.264583"
       x="157.91667"
       y="47.541668"
       id="text898"><tspan
         sodipodi:role="line"
         id="tspan896"
         x="157.91667"
         y="47.541668"
         style="stroke-width:0.264583">$w$</tspan></text>
  </g>
</svg>
