<?xml version="1.0" encoding="UTF-8" standalone="no"?>
<svg
   xmlns:dc="http://purl.org/dc/elements/1.1/"
   xmlns:cc="http://creativecommons.org/ns#"
   xmlns:rdf="http://www.w3.org/1999/02/22-rdf-syntax-ns#"
   xmlns:svg="http://www.w3.org/2000/svg"
   xmlns="http://www.w3.org/2000/svg"
   xmlns:sodipodi="http://sodipodi.sourceforge.net/DTD/sodipodi-0.dtd"
   xmlns:inkscape="http://www.inkscape.org/namespaces/inkscape"
   width="210mm"
   height="148mm"
   viewBox="0 0 210 148"
   version="1.1"
   id="svg8"
   sodipodi:docname="2021-02-24_14-33.svg"
   inkscape:version="1.0.2 (e86c870879, 2021-01-15)">
  <defs
     id="defs2">
    <marker
       style="overflow:visible"
       id="Arrow1Lstart"
       refX="0.0"
       refY="0.0"
       orient="auto"
       inkscape:stockid="Arrow1Lstart"
       inkscape:isstock="true">
      <path
         transform="scale(0.8) translate(12.5,0)"
         style="fill-rule:evenodd;stroke:#000000;stroke-width:1pt;stroke-opacity:1;fill:#000000;fill-opacity:1"
         d="M 0.0,0.0 L 5.0,-5.0 L -12.5,0.0 L 5.0,5.0 L 0.0,0.0 z "
         id="path934" />
    </marker>
    <marker
       style="overflow:visible;"
       id="marker1455"
       refX="0.0"
       refY="0.0"
       orient="auto"
       inkscape:stockid="Arrow1Lend"
       inkscape:isstock="true">
      <path
         transform="scale(0.8) rotate(180) translate(12.5,0)"
         style="fill-rule:evenodd;stroke:#000000;stroke-width:1pt;stroke-opacity:1;fill:#000000;fill-opacity:1"
         d="M 0.0,0.0 L 5.0,-5.0 L -12.5,0.0 L 5.0,5.0 L 0.0,0.0 z "
         id="path1453" />
    </marker>
    <marker
       style="overflow:visible;"
       id="marker1339"
       refX="0.0"
       refY="0.0"
       orient="auto"
       inkscape:stockid="Arrow1Lend"
       inkscape:isstock="true"
       inkscape:collect="always">
      <path
         transform="scale(0.8) rotate(180) translate(12.5,0)"
         style="fill-rule:evenodd;stroke:#000000;stroke-width:1pt;stroke-opacity:1;fill:#000000;fill-opacity:1"
         d="M 0.0,0.0 L 5.0,-5.0 L -12.5,0.0 L 5.0,5.0 L 0.0,0.0 z "
         id="path1337" />
    </marker>
    <marker
       style="overflow:visible;"
       id="Arrow1Lend"
       refX="0.0"
       refY="0.0"
       orient="auto"
       inkscape:stockid="Arrow1Lend"
       inkscape:isstock="true"
       inkscape:collect="always">
      <path
         transform="scale(0.8) rotate(180) translate(12.5,0)"
         style="fill-rule:evenodd;stroke:#000000;stroke-width:1pt;stroke-opacity:1;fill:#000000;fill-opacity:1"
         d="M 0.0,0.0 L 5.0,-5.0 L -12.5,0.0 L 5.0,5.0 L 0.0,0.0 z "
         id="path937" />
    </marker>
    <marker
       style="overflow:visible"
       id="marker1339-7"
       refX="0"
       refY="0"
       orient="auto"
       inkscape:stockid="Arrow1Lend"
       inkscape:isstock="true">
      <path
         transform="matrix(-0.8,0,0,-0.8,-10,0)"
         style="fill:#000000;fill-opacity:1;fill-rule:evenodd;stroke:#000000;stroke-width:1pt;stroke-opacity:1"
         d="M 0,0 5,-5 -12.5,0 5,5 Z"
         id="path1337-0" />
    </marker>
    <marker
       style="overflow:visible"
       id="Arrow1Lstart-3"
       refX="0"
       refY="0"
       orient="auto"
       inkscape:stockid="Arrow1Lstart"
       inkscape:isstock="true">
      <path
         transform="matrix(0.8,0,0,0.8,10,0)"
         style="fill:#000000;fill-opacity:1;fill-rule:evenodd;stroke:#000000;stroke-width:1pt;stroke-opacity:1"
         d="M 0,0 5,-5 -12.5,0 5,5 Z"
         id="path934-6" />
    </marker>
  </defs>
  <sodipodi:namedview
     id="base"
     pagecolor="#ffffff"
     bordercolor="#000000"
     borderopacity="1"
     inkscape:pageopacity="0.0"
     inkscape:pageshadow="2"
     inkscape:zoom="0.7"
     inkscape:cx="-312.0649"
     inkscape:cy="83.249542"
     inkscape:document-units="mm"
     inkscape:current-layer="layer1"
     inkscape:document-rotation="0"
     showgrid="true"
     showborder="true"
     borderlayer="true"
     inkscape:showpageshadow="false"
     objecttolerance="10000"
     guidetolerance="10000"
     inkscape:snap-perpendicular="true"
     inkscape:snap-tangential="true"
     inkscape:window-width="1920"
     inkscape:window-height="1080"
     inkscape:window-x="0"
     inkscape:window-y="0"
     inkscape:window-maximized="0">
    <sodipodi:guide
       position="0,148"
       orientation="0,793.70079"
       id="guide10" />
    <sodipodi:guide
       position="210,148"
       orientation="559.37008,0"
       id="guide12" />
    <sodipodi:guide
       position="210,0"
       orientation="0,-793.70079"
       id="guide14" />
    <sodipodi:guide
       position="0,0"
       orientation="-559.37008,0"
       id="guide16" />
    <inkscape:grid
       type="xygrid"
       id="grid20"
       dotted="true"
       units="px"
       originx="105"
       originy="74.000003" />
  </sodipodi:namedview>
  <metadata
     id="metadata5">
    <rdf:RDF>
      <cc:Work
         rdf:about="">
        <dc:format>image/svg+xml</dc:format>
        <dc:type
           rdf:resource="http://purl.org/dc/dcmitype/StillImage" />
        <dc:title />
        <cc:license
           rdf:resource="" />
      </cc:Work>
    </rdf:RDF>
  </metadata>
  <g
     inkscape:label="Layer 1"
     inkscape:groupmode="layer"
     id="layer1">
    <circle
       style="fill:#d6d7ef;fill-rule:evenodd;stroke:#3a7c0e;stroke-width:0.499999;stroke-linejoin:round"
       id="path863-3"
       sodipodi:type="arc"
       sodipodi:cx="34.452042"
       sodipodi:cy="73.70005"
       sodipodi:rx="5.2916665"
       sodipodi:ry="5.2916665"
       sodipodi:start="5.0507036"
       sodipodi:end="5.0265308"
       sodipodi:open="true"
       sodipodi:arc-type="arc"
       d="m 36.208334,68.70834 a 5.2916665,5.2916665 0 0 1 3.24594,6.717805 5.2916665,5.2916665 0 0 1 -6.698066,3.286478 5.2916665,5.2916665 0 0 1 -3.326896,-6.678083 5.2916665,5.2916665 0 0 1 6.657857,-3.367192" />
    <path
       style="fill:none;stroke:#000000;stroke-width:0.264583px;stroke-linecap:butt;stroke-linejoin:miter;stroke-opacity:1"
       d="M -0.83333332,47.541669 C -1.1125498,47.965481 -1.2002116,48.623492 -1.6709828,48.813108 -2.6676757,49.21455 -3.7442515,48.223 -4.8080191,48.071505 c -0.9777831,-0.13925 -1.9621259,-0.238461 -2.9480597,-0.296643 -3.4458592,-0.203348 -7.6826142,0.356635 -10.8851442,1.742763 -3.749987,1.623081 -6.865892,4.098322 -10.053649,6.600245 -7.160299,5.61979 -9.391859,10.550485 -9.335521,19.392874 0.01606,2.521145 0.07709,5.133866 0.642517,7.601407 0.989409,4.317791 3.298187,8.4856 6.236285,11.754382 2.338704,2.601923 4.58825,5.594277 7.63472,7.416007 10.175391,6.08469 23.96047104,4.87735 34.847598,1.77985 5.850605,-1.66456 10.957862,-4.472156 16.630087,-6.563174 6.100472,-2.248889 12.425757,-3.44647 18.633242,-5.302453 3.199466,-0.956612 6.280946,-2.211263 9.524518,-3.040557 8.325228,-2.128534 19.777075,-2.998447 28.233349,-1.260722 4.413067,0.906865 8.182451,2.994838 12.28358,4.746239 2.975856,1.270849 5.770657,2.159077 8.579607,3.856331 2.40742,1.454645 4.47901,3.393303 6.80322,4.968726 5.96631,4.04414 19.15697,9.46528 26.41916,9.78913 8.6299,0.38484 14.39324,-2.70209 22.37502,-4.93164 5.54619,-1.54922 11.18836,-2.7714 16.70567,-4.41253 3.82686,-1.13831 7.45605,-2.811535 11.26312,-4.00465 7.24725,-2.271252 14.77439,-3.306178 22.29944,-4.115877 16.62439,-1.788795 32.78554,0.194628 49.17215,2.9664 9.03034,1.527466 18.55171,4.008897 27.77977,3.448447 7.01763,-0.426204 20.27365,-3.313213 26.00344,-7.564337 2.36138,-1.751981 8.28122,-6.593872 10.01583,-9.084611 4.41621,-6.341325 6.98211,-14.509121 7.02997,-22.210948 0.0433,-6.965633 -2.37294,-15.11078 -6.87879,-20.579434 -3.34089,-4.054795 -10.92137,-8.500549 -15.79859,-10.419493 -4.71165,-1.853795 -9.81485,-2.621508 -14.74028,-3.670916 -4.85103,-1.033561 -9.5576,-2.373993 -14.47578,-3.07765 -3.95396,-0.565708 -7.92506,-0.531505 -11.90559,-0.704518 -8.31422,-0.361378 -19.94678,-1.73114 -27.89319,0.889919 -2.59717,0.856659 -4.9567,2.304278 -7.48355,3.337206 -3.36882,1.377112 -6.96746,2.465681 -10.01584,4.523767 -2.32149,1.56733 -4.12812,3.586345 -6.53866,5.079965 -3.01913,1.870718 -6.59952,3.104706 -9.86466,4.449607 -2.5111,1.034317 -4.95996,2.344615 -7.55913,3.151801 -4.87168,1.512919 -10.4281,1.702416 -15.49622,1.44612 -10.49666,-0.530823 -16.52584,-2.947416 -26.34356,-6.192359 -3.36411,-1.111906 -6.81345,-2.081313 -10.12922,-3.337213 -4.65277,-1.762308 -8.91101,-3.961276 -13.71984,-5.376611 -10.30537,-3.033072 -21.21792,-3.518104 -31.86173,-4.301279 -8.35404,-0.61469 -16.836645,-1.219837 -25.17189,0 -4.804749,0.703162 -10.065128,1.411246 -14.286756,4.004646 -2.822977,1.734193 -4.66707,4.553932 -7.559133,6.192372 -3.357202,1.901955 -6.985907,3.312025 -10.393815,5.117039 -2.844051,1.506368 -5.457705,3.174728 -8.541813,4.152964 -4.385829,1.391121 -9.065591,1.92742 -13.606428,2.558526 -2.378764,0.33061 -4.769969,0.776946 -7.181178,0.70453 -2.414386,-0.07251 -4.7357936,-0.785831 -7.1433786,-0.964089 -1.4678679,-0.108683 -3.1309749,0.224303 -4.573272,-0.03707 -0.93604883,-0.169632 -1.80173791,-0.738989 -2.75293972,-0.752321 -1.29547208,-0.01815 -4.04973278,2.049394 -3.33215628,0"
       id="path835" />
    <path
       style="fill:none;stroke:#000000;stroke-width:0.264583px;stroke-linecap:butt;stroke-linejoin:miter;stroke-opacity:1"
       d="m -96.083333,222.16667 c 455.083333,0 455.083333,0 455.083333,0"
       id="path849" />
    <path
       style="fill:none;stroke:#000000;stroke-width:0.264583px;stroke-linecap:butt;stroke-linejoin:miter;stroke-opacity:1"
       d="m -22,63.416669 c 2.170344,3.368677 1.699938,7.673641 3.925707,11.018755 0.95933,1.441781 2.411714,2.686532 3.666177,3.856321 1.907524,1.778767 3.763773,3.563096 6.0473076,4.85749 2.2815164,1.293252 4.9506036,1.612863 7.48353175,2.113566 C 7.8692938,86.9918 16.407106,86.711699 24.899366,83.74251 c 5.556334,-1.942684 15.740628,-9.397441 19.8805,-13.422976 1.849673,-1.798587 4.086664,-3.735562 5.253601,-6.081128 0.305335,-0.61373 0.857475,-1.908479 0.340164,-2.669767 -0.243919,-0.35896 -1.209458,-0.916025 -1.209458,-0.482034 0,0.784921 0.226777,1.553377 0.340164,2.330064"
       id="path851" />
    <path
       style="fill:none;stroke:#000000;stroke-width:0.264583px;stroke-linecap:butt;stroke-linejoin:miter;stroke-opacity:1"
       d="m -11.416666,79.291668 c 0.149317,-1.482788 0.108905,-2.99716 0.447951,-4.44837 0.365006,-1.562322 6.1342854,-4.343972 7.0677905,-4.783323 9.9559029,-4.685715 21.1525365,-1.163156 30.4255015,3.225959 3.349932,1.585603 6.309402,2.896145 10.015839,3.559688 0.459499,0.08226 1.567828,0.509148 1.398447,0.07416 -0.237445,-0.609793 -1.153687,-0.617995 -1.730531,-0.926991"
       id="path853" />
    <path
       style="fill:none;stroke:#000000;stroke-width:0.264583px;stroke-linecap:butt;stroke-linejoin:miter;stroke-opacity:1"
       d="m 110.29166,63.416669 c 1.64698,-1.71635 2.80466,-1.592615 1.04634,-2.92335 -1.82736,-1.382993 -0.94177,6.575407 -0.7559,7.304776 1.6458,6.4585 6.93393,11.865758 12.66155,15.091581 12.12491,6.828809 35.12696,7.22671 46.60204,-1.112403 3.73325,-2.713011 12.6624,-10.06257 9.23764,-14.794939"
       id="path855" />
    <path
       style="fill:none;stroke:#000000;stroke-width:0.264583px;stroke-linecap:butt;stroke-linejoin:miter;stroke-opacity:1"
       d="m 115.58333,74.000002 c 2.51819,0.197456 4.51669,-2.620841 6.90439,-3.606308 12.81581,-5.28941 25.1655,-1.897504 37.41771,2.781009 3.7927,1.448247 7.14635,2.878765 10.24261,5.561999 1.45762,1.263179 2.99746,2.869182 3.17485,2.632684 0.42602,-0.567963 0.31252,-1.385144 0.46877,-2.077718"
       id="path857" />
    <path
       style="fill:none;stroke:#000000;stroke-width:0.264583px;stroke-linecap:butt;stroke-linejoin:miter;stroke-opacity:1"
       d="m 226.70833,52.833335 c -0.35876,-0.09171 -0.98997,-0.635238 -1.07627,-0.27514 -0.4526,1.888472 0.99299,5.463945 1.7008,7.230605 5.17312,12.911915 14.95081,16.321233 27.77979,19.170388 6.40278,1.421976 13.27033,3.066476 19.88053,1.705681 7.23402,-1.48922 12.64917,-4.499038 18.02852,-9.41833 1.34874,-1.233398 11.81655,-10.201011 10.80955,-13.121537"
       id="path859" />
    <path
       style="fill:none;stroke:#000000;stroke-width:0.264583px;stroke-linecap:butt;stroke-linejoin:miter;stroke-opacity:1"
       d="m 232,63.416669 c -0.70931,-0.133668 0.86566,-3.78501 1.90931,-4.629029 2.86389,-2.316085 6.70417,-3.03331 10.16701,-3.967562 13.54941,-3.655544 29.43455,-3.16099 42.17996,3.337201 2.43363,1.240779 9.70266,5.304125 10.62058,8.305937 0.25154,0.822611 -0.18026,1.446334 0,2.245119"
       id="path861" />
    <circle
       style="fill:#d6d7ef;fill-rule:evenodd;stroke:#3a7c0e;stroke-width:0.499999;stroke-linejoin:round"
       id="path863"
       sodipodi:type="arc"
       sodipodi:cx="-13.172958"
       sodipodi:cy="78.991714"
       sodipodi:rx="5.2916665"
       sodipodi:ry="5.2916665"
       sodipodi:start="5.0507036"
       sodipodi:end="5.0265308"
       sodipodi:open="true"
       sodipodi:arc-type="arc"
       d="m -11.416666,74.000004 a 5.2916665,5.2916665 0 0 1 3.2459404,6.717805 5.2916665,5.2916665 0 0 1 -6.6980664,3.286478 5.2916665,5.2916665 0 0 1 -3.326896,-6.678083 5.2916665,5.2916665 0 0 1 6.657857,-3.367192" />
    <circle
       style="fill:#d6d7ef;fill-rule:evenodd;stroke:#3a7c0e;stroke-width:0.499999;stroke-linejoin:round"
       id="path863-6"
       sodipodi:type="arc"
       sodipodi:cx="113.82704"
       sodipodi:cy="73.70005"
       sodipodi:rx="5.2916665"
       sodipodi:ry="5.2916665"
       sodipodi:start="5.0507036"
       sodipodi:end="5.0265308"
       sodipodi:open="true"
       sodipodi:arc-type="arc"
       d="m 115.58333,68.70834 a 5.2916665,5.2916665 0 0 1 3.24594,6.717805 5.2916665,5.2916665 0 0 1 -6.69806,3.286478 5.2916665,5.2916665 0 0 1 -3.3269,-6.678083 5.2916665,5.2916665 0 0 1 6.65786,-3.367192" />
    <circle
       style="fill:#d6d7ef;fill-rule:evenodd;stroke:#3a7c0e;stroke-width:0.499999;stroke-linejoin:round"
       id="path863-7"
       sodipodi:type="arc"
       sodipodi:cx="172.03537"
       sodipodi:cy="78.991714"
       sodipodi:rx="5.2916665"
       sodipodi:ry="5.2916665"
       sodipodi:start="5.0507036"
       sodipodi:end="5.0265308"
       sodipodi:open="true"
       sodipodi:arc-type="arc"
       d="m 173.79166,74.000004 a 5.2916665,5.2916665 0 0 1 3.24594,6.717805 5.2916665,5.2916665 0 0 1 -6.69806,3.286478 5.2916665,5.2916665 0 0 1 -3.3269,-6.678083 5.2916665,5.2916665 0 0 1 6.65786,-3.367192" />
    <circle
       style="fill:#d6d7ef;fill-rule:evenodd;stroke:#3a7c0e;stroke-width:0.499999;stroke-linejoin:round"
       id="path863-5"
       sodipodi:type="arc"
       sodipodi:cx="230.24371"
       sodipodi:cy="63.116714"
       sodipodi:rx="5.2916665"
       sodipodi:ry="5.2916665"
       sodipodi:start="5.0507036"
       sodipodi:end="5.0265308"
       sodipodi:open="true"
       sodipodi:arc-type="arc"
       d="m 232.00001,58.125004 a 5.2916665,5.2916665 0 0 1 3.24594,6.717805 5.2916665,5.2916665 0 0 1 -6.69807,3.286478 5.2916665,5.2916665 0 0 1 -3.3269,-6.678083 5.2916665,5.2916665 0 0 1 6.65786,-3.367192" />
    <circle
       style="fill:#d6d7ef;fill-rule:evenodd;stroke:#3a7c0e;stroke-width:0.499999;stroke-linejoin:round"
       id="path863-35"
       sodipodi:type="arc"
       sodipodi:cx="299.03537"
       sodipodi:cy="63.116714"
       sodipodi:rx="5.2916665"
       sodipodi:ry="5.2916665"
       sodipodi:start="5.0507036"
       sodipodi:end="5.0265308"
       sodipodi:open="true"
       sodipodi:arc-type="arc"
       d="m 300.79166,58.125004 a 5.2916665,5.2916665 0 0 1 3.24594,6.717805 5.2916665,5.2916665 0 0 1 -6.69806,3.286478 5.2916665,5.2916665 0 0 1 -3.3269,-6.678083 5.2916665,5.2916665 0 0 1 6.65786,-3.367192" />
    <path
       style="fill:none;stroke:#000000;stroke-width:0;stroke-linecap:butt;stroke-linejoin:miter;stroke-opacity:1;stroke-miterlimit:4;stroke-dasharray:none;marker-end:url(#Arrow1Lend)"
       d="m 115.58333,121.625 c 0,79.375 0,79.375 0,79.375"
       id="path932" />
    <text
       xml:space="preserve"
       style="font-size:10.5833px;line-height:1.25;font-family:sans-serif;word-spacing:0px;stroke-width:0.264583"
       x="-22"
       y="253.91667"
       id="text1230"><tspan
         sodipodi:role="line"
         id="tspan1228"
         x="-22"
         y="253.91667"
         style="stroke-width:0.264583">$0$</tspan></text>
    <text
       xml:space="preserve"
       style="font-size:10.5833px;line-height:1.25;font-family:sans-serif;word-spacing:0px;stroke-width:0.264583"
       x="337.83331"
       y="238.04167"
       id="text1234"><tspan
         sodipodi:role="line"
         id="tspan1232"
         x="337.83331"
         y="238.04167"
         style="stroke-width:0.264583">$1$</tspan></text>
    <text
       xml:space="preserve"
       style="font-size:10.5833px;line-height:1.25;font-family:sans-serif;word-spacing:0px;stroke-width:0.264583"
       x="401.33331"
       y="216.875"
       id="text1238"><tspan
         sodipodi:role="line"
         id="tspan1236"
         x="401.33331"
         y="216.875"
         style="stroke-width:0.264583">$\RR$</tspan></text>
    <circle
       style="fill:#d6d7ef;fill-rule:evenodd;stroke:#3a7c0e;stroke-width:0.499999;stroke-linejoin:round"
       id="path863-62"
       sodipodi:type="arc"
       sodipodi:cx="-39.510128"
       sodipodi:cy="73.741035"
       sodipodi:rx="5.2916665"
       sodipodi:ry="5.2916665"
       sodipodi:start="5.0507036"
       sodipodi:end="5.0265308"
       sodipodi:open="true"
       sodipodi:arc-type="arc"
       d="m -37.753836,68.749325 a 5.2916665,5.2916665 0 0 1 3.245941,6.717805 5.2916665,5.2916665 0 0 1 -6.698066,3.286478 5.2916665,5.2916665 0 0 1 -3.326896,-6.678083 5.2916665,5.2916665 0 0 1 6.657856,-3.367192" />
    <circle
       style="fill:#dd2a2b;fill-rule:evenodd;stroke:#3a7c0e;stroke-width:0.499999;stroke-linejoin:round"
       id="path863-9"
       sodipodi:type="arc"
       sodipodi:cx="330.78537"
       sodipodi:cy="63.116714"
       sodipodi:rx="5.2916665"
       sodipodi:ry="5.2916665"
       sodipodi:start="5.0507036"
       sodipodi:end="5.0265308"
       sodipodi:open="true"
       sodipodi:arc-type="arc"
       d="m 332.54166,58.125004 a 5.2916665,5.2916665 0 0 1 3.24594,6.717805 5.2916665,5.2916665 0 0 1 -6.69806,3.286478 5.2916665,5.2916665 0 0 1 -3.3269,-6.678083 5.2916665,5.2916665 0 0 1 6.65786,-3.367192" />
    <path
       style="fill:none;stroke:#dd2a2b;stroke-width:0.5;stroke-linecap:butt;stroke-linejoin:miter;stroke-opacity:1;stroke-miterlimit:4;stroke-dasharray:none"
       d="m -37.875001,74.000002 c 3.047527,-0.789652 3.871778,-2.440681 5.816455,-4.656251 1.674222,-1.907445 5.878433,-4.593254 8.12606,-5.784485 1.63139,-0.864629 3.515466,-1.001485 5.102413,-2.039419 1.932119,-1.263692 3.492936,-2.792034 5.782743,-3.263045 2.719463,-0.55939 5.5653458,0.377205 8.3150378,0.111244 2.3162191,-0.224036 4.56944713,-0.629693 6.9166019,-0.667436 4.1283041,-0.06638 8.2384253,0.33373 12.3591803,0.33373 4.149807,0 8.291422,-0.153286 12.434768,0.259559 3.87178,0.385786 7.681817,1.755008 11.565474,1.89108 4.833292,0.169344 10.14221,-0.70241 14.891475,-1.52028 C 59.1035,57.688567 64.676818,56.17034 70.329871,55.105 c 4.844788,-0.913019 9.89334,-0.9756 14.626921,-2.447271 2.330706,-0.724614 4.394843,-2.003719 6.689815,-2.818096 9.849973,-3.495286 20.124183,-5.324401 30.614483,-4.59791 9.04533,0.626425 18.17217,2.593602 26.9105,4.93164 3.99265,1.068279 7.73187,2.742681 11.75445,3.707992 9.87273,2.369185 19.67364,3.465198 29.82078,2.892264 5.70175,-0.321935 11.3908,-1.000159 17.04582,-1.77986 4.1712,-0.575114 8.46309,-0.957366 12.51038,-2.187713 6.11901,-1.86014 12.02513,-4.512318 18.10412,-6.526088 3.51554,-1.164582 7.2522,-1.677731 10.73393,-2.892242 3.52036,-1.227982 6.79812,-2.914224 10.43163,-3.856331 5.17748,-1.342425 11.25832,-1.237353 16.55451,-1.00116 6.68618,0.298183 12.5935,1.764805 18.93562,3.819234 2.7369,0.886571 5.80062,1.671283 8.35281,3.040581 1.71924,0.922401 3.60815,2.100935 4.95123,3.522602 1.12406,1.18982 1.89558,2.650193 3.17484,3.707992 2.25245,1.862537 4.9416,3.064248 7.21897,4.931662 3.21488,2.636178 8.31033,8.298206 12.73712,5.864373"
       id="path1271" />
    <path
       style="fill:none;stroke:#dd2a2b;stroke-width:0.264583px;stroke-linecap:butt;stroke-linejoin:miter;stroke-opacity:1"
       d="m 36.208332,74.000002 c 0.577138,0.63754 -0.204422,1.261856 0.143245,1.944005 1.576293,3.09278 6.348079,3.512743 9.335532,4.338351 3.010612,0.832009 6.326976,1.848769 9.486709,1.705692 4.324001,-0.195797 8.022966,-3.159664 11.981228,-4.597934 2.847226,-1.034566 5.598094,-2.328468 8.504002,-3.225969 3.16285,-0.97686 6.347261,-1.366025 9.562309,-2.039398 4.035755,-0.845264 8.316915,-2.239174 12.472569,-1.260721 4.849094,1.141727 9.825044,1.973855 14.815884,2.261883 1.01927,0.05882 2.08451,-0.307152 1.43624,0.874091"
       id="path1273" />
    <path
       style="fill:none;stroke:#dd2a2b;stroke-width:0.264583px;stroke-linecap:butt;stroke-linejoin:miter;stroke-opacity:1"
       d="m -37.875001,74.000002 c 2.254589,1.770425 2.10239,5.425683 4.26683,7.209372 1.259007,1.037532 3.062216,1.50994 4.573273,2.039397 3.512892,1.230874 6.345684,2.317973 10.167037,1.44611 1.499769,-0.342183 6.197245,-2.261193 7.59692,-3.04056 0.731985,-0.407583 1.9370523,-2.664632 1.5874237,-2.362653"
       id="path1275" />
    <path
       style="fill:none;stroke:#dd2a2b;stroke-width:0.264583px;stroke-linecap:butt;stroke-linejoin:miter;stroke-opacity:1"
       d="m -37.875001,74.000002 c -0.711192,2.000057 1.054352,1.189077 2.377052,2.722681 1.085561,1.258652 1.470681,2.867811 2.834671,3.930478 1.982727,1.544712 4.575958,2.046984 6.614238,3.59677 1.927865,1.465834 3.387807,3.398165 5.404779,4.783323 2.574391,1.767969 5.382804,2.290688 8.126061,3.596772 4.3040923,2.049211 8.0696573,4.400748 12.88832091,5.117028 6.74342049,1.00239 13.16483709,-1.066744 19.42697009,-3.337189 3.527942,-1.279118 8.871169,-3.161088 11.489875,-5.858653 0.8104,-0.834805 1.404948,-1.856595 2.154353,-2.743928 0.866027,-1.025421 1.795053,-1.842217 2.494505,-3.003483 1.19675,-1.986902 1.102929,-5.004568 1.171673,-7.230595 0.01042,-0.337872 0.326189,-2.702131 0.226775,-1.573204"
       id="path1277" />
    <rect
       style="fill:#e0e1f3;fill-rule:evenodd;stroke:#e0e1f3;stroke-width:0.499999;stroke-linejoin:round;stroke-miterlimit:4;stroke-dasharray:none"
       id="rect1279"
       width="121.70833"
       height="100.54166"
       x="-191.33333"
       y="47.541668"
       ry="5.2916665" />
    <text
       xml:space="preserve"
       style="font-size:10.5833px;line-height:1.25;font-family:sans-serif;word-spacing:0px;stroke-width:0.264583"
       x="-101.375"
       y="179.83334"
       id="text1283"><tspan
         sodipodi:role="line"
         id="tspan1281"
         x="-101.375"
         y="179.83334"
         style="stroke-width:0.264583">$C$</tspan></text>
    <text
       xml:space="preserve"
       style="font-size:10.5833px;line-height:1.25;font-family:sans-serif;word-spacing:0px;stroke-width:0.264583"
       x="-6.125"
       y="-37.125"
       id="text1287"><tspan
         sodipodi:role="line"
         id="tspan1285"
         x="-6.125"
         y="-37.125"
         style="stroke-width:0.264583">$\gradient{f}$ has 8 zeros</tspan></text>
    <rect
       style="fill:#e0e1f3;fill-rule:evenodd;stroke:#e0e1f3;stroke-width:0.499999;stroke-linejoin:round;stroke-miterlimit:4;stroke-dasharray:none"
       id="rect1279-1"
       width="121.70833"
       height="100.54166"
       x="-161.26489"
       y="-138.31433"
       ry="5.2916665"
       transform="rotate(-18.653678)" />
    <circle
       style="fill:#d6d7ef;fill-rule:evenodd;stroke:#3a7c0e;stroke-width:0.499999;stroke-linejoin:round"
       id="path863-62-2"
       sodipodi:type="arc"
       sodipodi:cx="-129.58963"
       sodipodi:cy="94.866714"
       sodipodi:rx="5.2916665"
       sodipodi:ry="5.2916665"
       sodipodi:start="5.0507036"
       sodipodi:end="5.0265308"
       sodipodi:open="true"
       sodipodi:arc-type="arc"
       d="m -127.83334,89.875004 a 5.2916665,5.2916665 0 0 1 3.24594,6.717805 5.2916665,5.2916665 0 0 1 -6.69806,3.286478 5.2916665,5.2916665 0 0 1 -3.3269,-6.678083 5.2916665,5.2916665 0 0 1 6.65786,-3.367192" />
    <path
       style="fill:none;stroke:#000000;stroke-width:0.264583px;stroke-linecap:butt;stroke-linejoin:miter;stroke-opacity:1;marker-end:url(#marker1339)"
       d="m -127.83333,148 c 0,-42.25 0,-42.25 0,-42.25"
       id="path1329" />
    <path
       style="fill:none;stroke:#000000;stroke-width:0.264583px;stroke-linecap:butt;stroke-linejoin:miter;stroke-opacity:1;marker-end:url(#marker1455)"
       d="m -127.83333,52.833335 c 0,31.75 0,31.75 0,31.75"
       id="path1445" />
    <path
       style="fill:none;stroke:#000000;stroke-width:0.264583px;stroke-linecap:butt;stroke-linejoin:miter;stroke-opacity:1;marker-start:url(#Arrow1Lstart)"
       d="m -186.04167,95.166668 c 42.33334,0 42.33334,0 42.33334,0"
       id="path1493" />
    <path
       style="fill:none;stroke:#000000;stroke-width:0.264583px;stroke-linecap:butt;stroke-linejoin:miter;stroke-opacity:1;marker-start:url(#Arrow1Lstart-3)"
       d="m -74.916667,95.16667 c -42.333333,0 -42.333333,0 -42.333333,0"
       id="path1493-0" />
    <path
       style="fill:none;stroke:#000000;stroke-width:0.264583px;stroke-linecap:butt;stroke-linejoin:miter;stroke-opacity:1"
       d="m -170.16667,-116.5 c 0,142.875003 0,142.875003 0,142.875003"
       id="path1643" />
    <path
       style="fill:none;stroke:#000000;stroke-width:0.264583px;stroke-linecap:butt;stroke-linejoin:miter;stroke-opacity:1"
       d="m -122.54167,-137.66667 c 0,142.875006 0,142.875006 0,142.875006"
       id="path1643-6" />
    <path
       style="fill:none;stroke:#000000;stroke-width:0.264583px;stroke-linecap:butt;stroke-linejoin:miter;stroke-opacity:1"
       d="m -149,-142.95833 c 0,142.875 0,142.875 0,142.875"
       id="path1643-2" />
    <path
       style="fill:none;stroke:#000000;stroke-width:0.264583px;stroke-linecap:butt;stroke-linejoin:miter;stroke-opacity:1"
       d="m -90.79167,-142.95833 c 0,142.875 0,142.875 0,142.875"
       id="path1643-61" />
    <path
       style="fill:none;stroke:#000000;stroke-width:0.264583px;stroke-linecap:butt;stroke-linejoin:miter;stroke-opacity:1"
       d="m -69.625,-169.41667 c 0,142.875006 0,142.875006 0,142.875006"
       id="path1643-8" />
    <path
       style="fill:none;stroke:#000000;stroke-width:0.264583px;stroke-linecap:butt;stroke-linejoin:miter;stroke-opacity:1"
       d="m -106.66667,-174.70833 c 0,142.875 0,142.875 0,142.875"
       id="path1643-7" />
    <path
       style="fill:none;stroke:#000000;stroke-width:0.264583px;stroke-linecap:butt;stroke-linejoin:miter;stroke-opacity:1"
       d="m -186.04167,-180 c 0,142.875003 0,142.875003 0,142.875003"
       id="path1643-9" />
    <text
       xml:space="preserve"
       style="font-size:10.5833px;line-height:1.25;font-family:sans-serif;word-spacing:0px;stroke-width:0.264583"
       x="-249.54166"
       y="-47.708332"
       id="text1712"><tspan
         sodipodi:role="line"
         id="tspan1710"
         x="-249.54166"
         y="-47.708332"
         style="stroke-width:0.264583">$TC$</tspan></text>
  </g>
</svg>
