<?xml version="1.0" encoding="UTF-8" standalone="no"?>
<svg
   xmlns:dc="http://purl.org/dc/elements/1.1/"
   xmlns:cc="http://creativecommons.org/ns#"
   xmlns:rdf="http://www.w3.org/1999/02/22-rdf-syntax-ns#"
   xmlns:svg="http://www.w3.org/2000/svg"
   xmlns="http://www.w3.org/2000/svg"
   xmlns:sodipodi="http://sodipodi.sourceforge.net/DTD/sodipodi-0.dtd"
   xmlns:inkscape="http://www.inkscape.org/namespaces/inkscape"
   width="590"
   height="430"
   version="1.1"
   id="svg40"
   sodipodi:docname="output.svg"
   inkscape:version="0.92.4 5da689c313, 2019-01-14">
  <metadata
     id="metadata46">
    <rdf:RDF>
      <cc:Work
         rdf:about="">
        <dc:format>image/svg+xml</dc:format>
        <dc:type
           rdf:resource="http://purl.org/dc/dcmitype/StillImage" />
        <dc:title></dc:title>
      </cc:Work>
    </rdf:RDF>
  </metadata>
  <defs
     id="defs44" />
  <sodipodi:namedview
     pagecolor="#ffffff"
     bordercolor="#666666"
     borderopacity="1"
     objecttolerance="10"
     gridtolerance="10"
     guidetolerance="10"
     inkscape:pageopacity="0"
     inkscape:pageshadow="2"
     inkscape:window-width="1863"
     inkscape:window-height="1026"
     id="namedview42"
     showgrid="true"
     inkscape:zoom="2"
     inkscape:cx="303.77736"
     inkscape:cy="209.13359"
     inkscape:window-x="57"
     inkscape:window-y="26"
     inkscape:window-maximized="1"
     inkscape:current-layer="svg40"
     inkscape:pagecheckerboard="false"
     borderlayer="false"
     showborder="true"
     inkscape:object-paths="true"
     inkscape:snap-global="true"
     inkscape:snap-grids="false"
     inkscape:snap-midpoints="true"
     inkscape:snap-smooth-nodes="true"
     inkscape:snap-intersection-paths="true">
    <inkscape:grid
       type="xygrid"
       id="grid814" />
  </sodipodi:namedview>
  <path
     style="fill:none;stroke:#000000;stroke-width:2.00807357;stroke-linecap:square;stroke-linejoin:round;stroke-miterlimit:4;stroke-dasharray:none;stroke-opacity:0.99534882;paint-order:normal"
     d="M 220.20374,46.583905 C 255.40918,41.620341 319.48789,47.79877 365,65 c 52.75429,19.938403 107.54718,48.87658 140,95 13.86377,19.70382 19.37693,45.94696 18,70 -1.22415,21.38409 -10.62144,42.52004 -23,60 -15.16975,21.42145 -36.84907,38.62928 -60,51 -31.17577,16.6588 -66.77386,26.07369 -102,29 -62.83996,5.22024 -128.35415,-0.54312 -188,-21 C 120.42017,338.85493 90.417014,323.68616 70,300 52.739572,279.97585 40.689742,253.38245 39,227 37.73864,207.30601 46.231372,187.67924 55,170 66.79081,146.22746 82.670983,123.54628 103,106.49084 136.61274,78.290744 174.77316,52.989178 220.20374,46.583905"
     id="path4"
     inkscape:connector-curvature="0"
     sodipodi:nodetypes="caaaaaaaaaaac" />
  <path
     style="fill:none;stroke:#000000;stroke-width:2.00807357;stroke-miterlimit:4;stroke-dasharray:none;stroke-opacity:1"
     d="m 390,176 c 10.2683,25.39082 -23.99384,55.70809 -49.42026,66.46556 C 287.76153,264.81201 206.20706,261.60729 170,220"
     id="path14"
     inkscape:connector-curvature="0"
     sodipodi:nodetypes="cac" />
  <path
     style="fill:none;stroke:#000000;stroke-width:2.00807357;stroke-miterlimit:4;stroke-dasharray:none;stroke-opacity:1"
     d="m 205.61828,243.80612 c 2.64714,-16.01229 25.96312,-31.56149 44.32117,-38.05244 33.8536,-11.9698 72.8154,-5.41039 107.67463,3.20216 6.77092,1.67287 13.33294,5.78962 18.79756,9.1895"
     id="path18"
     inkscape:connector-curvature="0"
     sodipodi:nodetypes="caac" />
</svg>
